0, 0, Header, 1, 20, 120
1, 0, Start_track
1, 0, Title_t, "Symphony n^0 2 in D major"
1, 0, Title_t, "III - Scherzo : Allegro"
1, 0, Copyright_t, "Copyright (c) 2001 by J.F. Lucarelli - j-f.lucarelli@infonie.be  --  http://perso.infonie.fr/espace-midi"
1, 0, Text_t, "L. Van Beethoven (1770-1827)"
1, 0, Text_t, "Tempo sup'erieur `a 250 : pr'evoir correction avant publication\012"
1, 0, Text_t, "Partition compl`ete - dur'ee : 00:03:52\012"
1, 0, Text_t, "D'ebut du travail : 26 septembre 2000\012"
1, 0, Text_t, "Fin de la version 0 : 28 septembre 2000\012"
1, 0, Text_t, "Version 1.0 : 23 novembre 2000\012"
1, 0, Text_t, "Version 1.01 : 17 janvier 2001 : r'evision avant publcation\012"
1, 0, Text_t, "Dur'ee d''edition et d'audition : 6 h\012"
1, 0, Text_t, "-----\012"
1, 0, Text_t, "Full score - length : 00:03:52\012"
1, 0, Text_t, "Beginning of writing : 26 september 2000\012"
1, 0, Text_t, "End of version 0 : 28 september 2000\012"
1, 0, Text_t, "Version 1.0 : 23 november 2000\012"
1, 0, Text_t, "Version 1.01 : 17 january 2001 : revision before publcation\012"
1, 0, Text_t, "Editing and audition time :6 h\012"
1, 0, Time_signature, 3, 2, 24, 8
1, 0, Key_signature, 2, "major"
1, 0, Tempo, 250000
1, 0, Marker_t, "L. Van Beethoven : Symphony n^0 2 in D"
1, 360, Tempo, 190476
1, 360, Marker_t, "ii : Scherzo - Allegro"
1, 480, Tempo, 201342
1, 720, Tempo, 190476
1, 840, Tempo, 213523
1, 1050, Tempo, 285714
1, 1080, Tempo, 190476
1, 1200, Tempo, 201342
1, 1440, Tempo, 190476
1, 1560, Tempo, 213523
1, 1800, Tempo, 190476
1, 1920, Tempo, 213523
1, 2160, Tempo, 190476
1, 2280, Tempo, 213523
1, 2520, Tempo, 190476
1, 2640, Tempo, 213523
1, 2880, Tempo, 190476
1, 3000, Tempo, 213523
1, 3240, Tempo, 190476
1, 3360, Tempo, 201342
1, 3600, Tempo, 190476
1, 3720, Tempo, 213523
1, 3930, Tempo, 285714
1, 3960, Tempo, 190476
1, 4080, Tempo, 201342
1, 4320, Tempo, 190476
1, 4440, Tempo, 213523
1, 4680, Tempo, 190476
1, 4800, Tempo, 213523
1, 5040, Tempo, 190476
1, 5160, Tempo, 213523
1, 5400, Tempo, 190476
1, 5520, Tempo, 213523
1, 5760, Tempo, 190476
1, 5880, Tempo, 213523
1, 6120, Tempo, 190476
1, 6240, Tempo, 201342
1, 6480, Tempo, 190476
1, 6600, Tempo, 213523
1, 6810, Tempo, 285714
1, 6840, Tempo, 190476
1, 6960, Tempo, 201342
1, 7200, Tempo, 190476
1, 7320, Tempo, 213523
1, 7560, Tempo, 190476
1, 7680, Tempo, 213523
1, 7920, Tempo, 190476
1, 8040, Tempo, 213523
1, 8280, Tempo, 190476
1, 8400, Tempo, 213523
1, 8640, Tempo, 190476
1, 8760, Tempo, 213523
1, 9000, Tempo, 190476
1, 9120, Tempo, 201342
1, 9360, Tempo, 190476
1, 9480, Tempo, 213523
1, 9690, Tempo, 285714
1, 9720, Tempo, 190476
1, 9840, Tempo, 201342
1, 10080, Tempo, 190476
1, 10200, Tempo, 213523
1, 10440, Tempo, 190476
1, 10560, Tempo, 213523
1, 10800, Tempo, 190476
1, 10920, Tempo, 213523
1, 11160, Tempo, 190476
1, 11280, Tempo, 213523
1, 11520, Tempo, 190476
1, 11640, Tempo, 213523
1, 11760, Tempo, 247933
1, 11880, Tempo, 199335
1, 12000, Tempo, 213523
1, 12240, Tempo, 199335
1, 12360, Tempo, 213523
1, 12600, Tempo, 199335
1, 12720, Tempo, 213523
1, 12960, Tempo, 199335
1, 13080, Tempo, 213523
1, 13320, Tempo, 199335
1, 13440, Tempo, 213523
1, 13680, Tempo, 199335
1, 13800, Tempo, 213523
1, 14040, Tempo, 199335
1, 14160, Tempo, 213523
1, 14400, Tempo, 199335
1, 14520, Tempo, 213523
1, 14760, Tempo, 199335
1, 14880, Tempo, 213523
1, 15120, Tempo, 199335
1, 15240, Tempo, 213523
1, 15480, Tempo, 199335
1, 15600, Tempo, 213523
1, 15840, Tempo, 199335
1, 15960, Tempo, 213523
1, 16200, Tempo, 199335
1, 16320, Tempo, 213523
1, 16560, Tempo, 198019
1, 16680, Tempo, 213523
1, 16920, Tempo, 196078
1, 17040, Tempo, 213523
1, 17280, Tempo, 195439
1, 17400, Tempo, 213523
1, 17640, Tempo, 194174
1, 17760, Tempo, 213523
1, 18000, Tempo, 193548
1, 18120, Tempo, 213523
1, 18360, Tempo, 192926
1, 18480, Tempo, 213523
1, 18720, Tempo, 192307
1, 18840, Tempo, 213523
1, 19080, Tempo, 191693
1, 19200, Tempo, 213523
1, 19440, Tempo, 190476
1, 19560, Tempo, 213523
1, 19740, Tempo, 285714
1, 19800, Tempo, 190476
1, 19920, Tempo, 201342
1, 20160, Tempo, 190476
1, 20280, Tempo, 213523
1, 20490, Tempo, 285714
1, 20520, Tempo, 190476
1, 20640, Tempo, 201342
1, 20880, Tempo, 190476
1, 21000, Tempo, 213523
1, 21240, Tempo, 190476
1, 21360, Tempo, 213523
1, 21600, Tempo, 190476
1, 21720, Tempo, 213523
1, 21960, Tempo, 190476
1, 22080, Tempo, 213523
1, 22320, Tempo, 190476
1, 22440, Tempo, 213523
1, 22680, Tempo, 190476
1, 22800, Tempo, 201342
1, 23040, Tempo, 190476
1, 23160, Tempo, 213523
1, 23370, Tempo, 285714
1, 23400, Tempo, 190476
1, 23520, Tempo, 201342
1, 23760, Tempo, 190476
1, 23880, Tempo, 213523
1, 24090, Tempo, 272727
1, 24120, Tempo, 195439
1, 24240, Tempo, 202702
1, 24480, Tempo, 195439
1, 24600, Tempo, 202702
1, 24840, Tempo, 195439
1, 24960, Tempo, 202702
1, 25200, Tempo, 195439
1, 25320, Tempo, 202702
1, 25560, Tempo, 195439
1, 25680, Tempo, 202702
1, 25920, Tempo, 195439
1, 26040, Tempo, 205479
1, 26280, Tempo, 195439
1, 26400, Tempo, 208333
1, 26640, Tempo, 195439
1, 26760, Tempo, 213523
1, 27000, Tempo, 195439
1, 27120, Tempo, 213523
1, 27360, Tempo, 195439
1, 27480, Tempo, 213523
1, 27720, Tempo, 195439
1, 27840, Tempo, 213523
1, 28080, Tempo, 195439
1, 28200, Tempo, 213523
1, 28380, Tempo, 252100
1, 28440, Tempo, 189873
1, 28560, Tempo, 213523
1, 28800, Tempo, 190476
1, 28920, Tempo, 213523
1, 29160, Tempo, 190476
1, 29280, Tempo, 213523
1, 29520, Tempo, 190476
1, 29640, Tempo, 213523
1, 29820, Tempo, 259740
1, 29880, Tempo, 195439
1, 30000, Tempo, 213523
1, 30240, Tempo, 195439
1, 30360, Tempo, 213523
1, 30600, Tempo, 195439
1, 30720, Tempo, 213523
1, 30960, Tempo, 195439
1, 31080, Tempo, 213523
1, 31260, Tempo, 259740
1, 31320, Tempo, 190476
1, 31440, Tempo, 213523
1, 31680, Tempo, 190476
1, 31800, Tempo, 213523
1, 32040, Tempo, 190476
1, 32160, Tempo, 213523
1, 32400, Tempo, 190476
1, 32520, Tempo, 213523
1, 32760, Tempo, 190476
1, 32880, Tempo, 213523
1, 33120, Tempo, 190476
1, 33240, Tempo, 213523
1, 33480, Tempo, 190476
1, 33600, Tempo, 213523
1, 33840, Tempo, 190476
1, 33960, Tempo, 213523
1, 34200, Tempo, 190476
1, 34320, Tempo, 213523
1, 34560, Tempo, 190476
1, 34680, Tempo, 213523
1, 34920, Tempo, 190476
1, 35040, Tempo, 213523
1, 35280, Tempo, 190476
1, 35400, Tempo, 213523
1, 35640, Tempo, 190476
1, 35760, Tempo, 213523
1, 36000, Tempo, 223048
1, 36360, Tempo, 199335
1, 36480, Tempo, 213523
1, 36720, Tempo, 199335
1, 36840, Tempo, 213523
1, 37080, Tempo, 199335
1, 37200, Tempo, 213523
1, 37440, Tempo, 199335
1, 37560, Tempo, 213523
1, 37800, Tempo, 199335
1, 37920, Tempo, 213523
1, 38160, Tempo, 199335
1, 38280, Tempo, 213523
1, 38520, Tempo, 199335
1, 38640, Tempo, 213523
1, 38880, Tempo, 199335
1, 39000, Tempo, 213523
1, 39240, Tempo, 199335
1, 39360, Tempo, 213523
1, 39600, Tempo, 199335
1, 39720, Tempo, 213523
1, 39960, Tempo, 199335
1, 40080, Tempo, 213523
1, 40320, Tempo, 199335
1, 40440, Tempo, 213523
1, 40680, Tempo, 199335
1, 40800, Tempo, 213523
1, 41040, Tempo, 198019
1, 41160, Tempo, 213523
1, 41400, Tempo, 196078
1, 41520, Tempo, 213523
1, 41760, Tempo, 195439
1, 41880, Tempo, 213523
1, 42120, Tempo, 194174
1, 42240, Tempo, 213523
1, 42480, Tempo, 193548
1, 42600, Tempo, 213523
1, 42840, Tempo, 192926
1, 42960, Tempo, 213523
1, 43200, Tempo, 192307
1, 43320, Tempo, 213523
1, 43560, Tempo, 191693
1, 43680, Tempo, 213523
1, 43920, Tempo, 190476
1, 44040, Tempo, 213523
1, 44220, Tempo, 285714
1, 44280, Tempo, 190476
1, 44400, Tempo, 201342
1, 44640, Tempo, 190476
1, 44760, Tempo, 213523
1, 44970, Tempo, 285714
1, 45000, Tempo, 190476
1, 45120, Tempo, 201342
1, 45360, Tempo, 190476
1, 45480, Tempo, 213523
1, 45720, Tempo, 190476
1, 45840, Tempo, 213523
1, 46080, Tempo, 190476
1, 46200, Tempo, 213523
1, 46440, Tempo, 190476
1, 46560, Tempo, 213523
1, 46800, Tempo, 190476
1, 46920, Tempo, 213523
1, 47160, Tempo, 190476
1, 47280, Tempo, 201342
1, 47520, Tempo, 190476
1, 47640, Tempo, 213523
1, 47850, Tempo, 285714
1, 47880, Tempo, 190476
1, 48000, Tempo, 201342
1, 48240, Tempo, 190476
1, 48360, Tempo, 213523
1, 48570, Tempo, 272727
1, 48600, Tempo, 195439
1, 48720, Tempo, 202702
1, 48960, Tempo, 195439
1, 49080, Tempo, 202702
1, 49320, Tempo, 195439
1, 49440, Tempo, 202702
1, 49680, Tempo, 195439
1, 49800, Tempo, 202702
1, 50040, Tempo, 195439
1, 50160, Tempo, 202702
1, 50400, Tempo, 195439
1, 50520, Tempo, 205479
1, 50760, Tempo, 195439
1, 50880, Tempo, 208333
1, 51120, Tempo, 195439
1, 51240, Tempo, 213523
1, 51480, Tempo, 195439
1, 51600, Tempo, 213523
1, 51840, Tempo, 195439
1, 51960, Tempo, 213523
1, 52200, Tempo, 195439
1, 52320, Tempo, 213523
1, 52560, Tempo, 195439
1, 52680, Tempo, 213523
1, 52860, Tempo, 252100
1, 52920, Tempo, 189873
1, 53040, Tempo, 213523
1, 53280, Tempo, 190476
1, 53400, Tempo, 213523
1, 53640, Tempo, 190476
1, 53760, Tempo, 213523
1, 54000, Tempo, 190476
1, 54120, Tempo, 213523
1, 54300, Tempo, 259740
1, 54360, Tempo, 195439
1, 54480, Tempo, 213523
1, 54720, Tempo, 195439
1, 54840, Tempo, 213523
1, 55080, Tempo, 195439
1, 55200, Tempo, 213523
1, 55440, Tempo, 195439
1, 55560, Tempo, 213523
1, 55740, Tempo, 259740
1, 55800, Tempo, 190476
1, 55920, Tempo, 213523
1, 56160, Tempo, 190476
1, 56280, Tempo, 213523
1, 56520, Tempo, 190476
1, 56640, Tempo, 213523
1, 56880, Tempo, 190476
1, 57000, Tempo, 213523
1, 57240, Tempo, 190476
1, 57360, Tempo, 213523
1, 57600, Tempo, 190476
1, 57720, Tempo, 213523
1, 57960, Tempo, 190476
1, 58080, Tempo, 213523
1, 58320, Tempo, 190476
1, 58440, Tempo, 213523
1, 58680, Tempo, 190476
1, 58800, Tempo, 213523
1, 59040, Tempo, 190476
1, 59160, Tempo, 213523
1, 59400, Tempo, 190476
1, 59520, Tempo, 213523
1, 59760, Tempo, 190476
1, 59880, Tempo, 213523
1, 60120, Tempo, 205479
1, 60240, Tempo, 234375
1, 60480, Tempo, 285714
1, 60600, Tempo, 419580
1, 60720, Tempo, 331491
1, 60720, Marker_t, "Trio"
1, 60840, Tempo, 240963
1, 61080, Tempo, 254237
1, 61200, Tempo, 235294
1, 61440, Tempo, 244897
1, 61560, Tempo, 224719
1, 61800, Tempo, 244897
1, 61920, Tempo, 224719
1, 62160, Tempo, 244897
1, 62280, Tempo, 224719
1, 62520, Tempo, 244897
1, 62640, Tempo, 224719
1, 62880, Tempo, 244897
1, 63000, Tempo, 224719
1, 63240, Tempo, 244897
1, 63360, Tempo, 224719
1, 63480, Tempo, 259740
1, 63600, Tempo, 283018
1, 63720, Tempo, 224719
1, 63960, Tempo, 244897
1, 64080, Tempo, 224719
1, 64320, Tempo, 244897
1, 64440, Tempo, 224719
1, 64680, Tempo, 244897
1, 64800, Tempo, 224719
1, 65040, Tempo, 244897
1, 65160, Tempo, 224719
1, 65400, Tempo, 244897
1, 65520, Tempo, 224719
1, 65760, Tempo, 244897
1, 65880, Tempo, 224719
1, 66120, Tempo, 244897
1, 66240, Tempo, 224719
1, 66360, Tempo, 267857
1, 66480, Tempo, 244897
1, 66600, Tempo, 222222
1, 66840, Tempo, 240000
1, 66960, Tempo, 222222
1, 67200, Tempo, 240000
1, 67320, Tempo, 222222
1, 67560, Tempo, 240000
1, 67680, Tempo, 222222
1, 67920, Tempo, 240000
1, 68040, Tempo, 222222
1, 68280, Tempo, 240000
1, 68400, Tempo, 222222
1, 68640, Tempo, 240000
1, 68760, Tempo, 222222
1, 69000, Tempo, 240000
1, 69120, Tempo, 222222
1, 69360, Tempo, 240000
1, 69480, Tempo, 222222
1, 69720, Tempo, 240000
1, 69840, Tempo, 222222
1, 70080, Tempo, 244897
1, 70200, Tempo, 224719
1, 70440, Tempo, 244897
1, 70560, Tempo, 224719
1, 70800, Tempo, 244897
1, 71640, Tempo, 224719
1, 71880, Tempo, 244897
1, 72000, Tempo, 224719
1, 72240, Tempo, 244897
1, 72360, Tempo, 224719
1, 72600, Tempo, 244897
1, 72720, Tempo, 224719
1, 72960, Tempo, 244897
1, 73080, Tempo, 224719
1, 73320, Tempo, 244897
1, 73440, Tempo, 224719
1, 73680, Tempo, 244897
1, 73800, Tempo, 224719
1, 74040, Tempo, 244897
1, 74160, Tempo, 224719
1, 74400, Tempo, 244897
1, 74520, Tempo, 224719
1, 74760, Tempo, 244897
1, 74880, Tempo, 231660
1, 75120, Tempo, 280373
1, 75240, Tempo, 224719
1, 75480, Tempo, 244897
1, 75600, Tempo, 224719
1, 75840, Tempo, 244897
1, 75960, Tempo, 224719
1, 76200, Tempo, 244897
1, 76320, Tempo, 224719
1, 76560, Tempo, 244897
1, 76680, Tempo, 224719
1, 76920, Tempo, 244897
1, 77040, Tempo, 224719
1, 77280, Tempo, 244897
1, 77400, Tempo, 224719
1, 77640, Tempo, 244897
1, 77760, Tempo, 224719
1, 78000, Tempo, 244897
1, 78120, Tempo, 222222
1, 78360, Tempo, 244897
1, 78480, Tempo, 222222
1, 78720, Tempo, 244897
1, 78840, Tempo, 219780
1, 79080, Tempo, 244897
1, 79200, Tempo, 224719
1, 79440, Tempo, 244897
1, 79560, Tempo, 232558
1, 79800, Tempo, 253164
1, 79920, Tempo, 237154
1, 80160, Tempo, 244897
1, 80280, Tempo, 222222
1, 80520, Tempo, 240000
1, 80640, Tempo, 222222
1, 80880, Tempo, 240000
1, 81000, Tempo, 222222
1, 81240, Tempo, 240000
1, 81360, Tempo, 222222
1, 81600, Tempo, 240000
1, 81720, Tempo, 222222
1, 81960, Tempo, 240000
1, 82080, Tempo, 222222
1, 82320, Tempo, 240000
1, 82440, Tempo, 222222
1, 82680, Tempo, 240000
1, 82800, Tempo, 222222
1, 83040, Tempo, 240000
1, 83160, Tempo, 222222
1, 83400, Tempo, 240000
1, 83520, Tempo, 224719
1, 83760, Tempo, 244897
1, 83880, Tempo, 224719
1, 84120, Tempo, 244897
1, 84240, Tempo, 224719
1, 84480, Tempo, 244897
1, 85320, Tempo, 224719
1, 85560, Tempo, 244897
1, 85680, Tempo, 224719
1, 85920, Tempo, 244897
1, 86040, Tempo, 224719
1, 86280, Tempo, 244897
1, 86400, Tempo, 224719
1, 86640, Tempo, 244897
1, 86760, Tempo, 224719
1, 87000, Tempo, 244897
1, 87120, Tempo, 224719
1, 87360, Tempo, 244897
1, 87480, Tempo, 224719
1, 87720, Tempo, 244897
1, 87840, Tempo, 224719
1, 88080, Tempo, 244897
1, 88200, Tempo, 224719
1, 88440, Tempo, 244897
1, 88560, Tempo, 231660
1, 88800, Tempo, 280373
1, 88920, Tempo, 224719
1, 89160, Tempo, 244897
1, 89280, Tempo, 224719
1, 89520, Tempo, 244897
1, 89640, Tempo, 224719
1, 89880, Tempo, 244897
1, 90000, Tempo, 224719
1, 90240, Tempo, 244897
1, 90360, Tempo, 224719
1, 90600, Tempo, 244897
1, 90720, Tempo, 224719
1, 90960, Tempo, 244897
1, 91080, Tempo, 224719
1, 91320, Tempo, 244897
1, 91440, Tempo, 224719
1, 91680, Tempo, 244897
1, 91800, Tempo, 222222
1, 92040, Tempo, 244897
1, 92160, Tempo, 222222
1, 92400, Tempo, 244897
1, 92520, Tempo, 219780
1, 92760, Tempo, 244897
1, 92880, Tempo, 224719
1, 93120, Tempo, 244897
1, 93240, Tempo, 232558
1, 93480, Tempo, 253164
1, 93600, Tempo, 237154
1, 93840, Tempo, 317460
1, 93960, Tempo, 204081
1, 93960, Marker_t, "Scherzo"
1, 94080, Tempo, 213523
1, 94320, Tempo, 198675
1, 94440, Tempo, 213523
1, 94650, Tempo, 285714
1, 94680, Tempo, 190476
1, 94800, Tempo, 201342
1, 95040, Tempo, 190476
1, 95160, Tempo, 213523
1, 95400, Tempo, 190476
1, 95520, Tempo, 213523
1, 95760, Tempo, 190476
1, 95880, Tempo, 213523
1, 96120, Tempo, 190476
1, 96240, Tempo, 213523
1, 96480, Tempo, 190476
1, 96600, Tempo, 213523
1, 96840, Tempo, 190476
1, 96960, Tempo, 201342
1, 97200, Tempo, 190476
1, 97320, Tempo, 213523
1, 97530, Tempo, 285714
1, 97560, Tempo, 190476
1, 97680, Tempo, 201342
1, 97920, Tempo, 190476
1, 98040, Tempo, 213523
1, 98280, Tempo, 190476
1, 98400, Tempo, 213523
1, 98640, Tempo, 190476
1, 98760, Tempo, 213523
1, 99000, Tempo, 190476
1, 99120, Tempo, 213523
1, 99360, Tempo, 190476
1, 99480, Tempo, 213523
1, 99720, Tempo, 190476
1, 99840, Tempo, 201342
1, 100080, Tempo, 190476
1, 100200, Tempo, 213523
1, 100410, Tempo, 285714
1, 100440, Tempo, 190476
1, 100560, Tempo, 201342
1, 100800, Tempo, 190476
1, 100920, Tempo, 213523
1, 101160, Tempo, 190476
1, 101280, Tempo, 213523
1, 101520, Tempo, 190476
1, 101640, Tempo, 213523
1, 101880, Tempo, 190476
1, 102000, Tempo, 213523
1, 102240, Tempo, 190476
1, 102360, Tempo, 213523
1, 102600, Tempo, 190476
1, 102720, Tempo, 201342
1, 102960, Tempo, 190476
1, 103080, Tempo, 213523
1, 103290, Tempo, 285714
1, 103320, Tempo, 190476
1, 103440, Tempo, 201342
1, 103680, Tempo, 190476
1, 103800, Tempo, 213523
1, 104040, Tempo, 190476
1, 104160, Tempo, 213523
1, 104400, Tempo, 190476
1, 104520, Tempo, 213523
1, 104760, Tempo, 190476
1, 104880, Tempo, 213523
1, 105120, Tempo, 190476
1, 105240, Tempo, 213523
1, 105360, Tempo, 247933
1, 105480, Tempo, 199335
1, 105600, Tempo, 213523
1, 105840, Tempo, 199335
1, 105960, Tempo, 213523
1, 106200, Tempo, 199335
1, 106320, Tempo, 213523
1, 106560, Tempo, 199335
1, 106680, Tempo, 213523
1, 106920, Tempo, 199335
1, 107040, Tempo, 213523
1, 107280, Tempo, 199335
1, 107400, Tempo, 213523
1, 107640, Tempo, 199335
1, 107760, Tempo, 213523
1, 108000, Tempo, 199335
1, 108120, Tempo, 213523
1, 108360, Tempo, 199335
1, 108480, Tempo, 213523
1, 108720, Tempo, 199335
1, 108840, Tempo, 213523
1, 109080, Tempo, 199335
1, 109200, Tempo, 213523
1, 109440, Tempo, 199335
1, 109560, Tempo, 213523
1, 109800, Tempo, 199335
1, 109920, Tempo, 213523
1, 110160, Tempo, 198019
1, 110280, Tempo, 213523
1, 110520, Tempo, 196078
1, 110640, Tempo, 213523
1, 110880, Tempo, 195439
1, 111000, Tempo, 213523
1, 111240, Tempo, 194174
1, 111360, Tempo, 213523
1, 111600, Tempo, 193548
1, 111720, Tempo, 213523
1, 111960, Tempo, 192926
1, 112080, Tempo, 213523
1, 112320, Tempo, 192307
1, 112440, Tempo, 213523
1, 112680, Tempo, 191693
1, 112800, Tempo, 213523
1, 113040, Tempo, 190476
1, 113160, Tempo, 213523
1, 113340, Tempo, 285714
1, 113400, Tempo, 190476
1, 113520, Tempo, 201342
1, 113760, Tempo, 190476
1, 113880, Tempo, 213523
1, 114090, Tempo, 285714
1, 114120, Tempo, 190476
1, 114240, Tempo, 201342
1, 114480, Tempo, 190476
1, 114600, Tempo, 213523
1, 114840, Tempo, 190476
1, 114960, Tempo, 213523
1, 115200, Tempo, 190476
1, 115320, Tempo, 213523
1, 115560, Tempo, 190476
1, 115680, Tempo, 213523
1, 115920, Tempo, 190476
1, 116040, Tempo, 213523
1, 116280, Tempo, 190476
1, 116400, Tempo, 201342
1, 116640, Tempo, 190476
1, 116760, Tempo, 213523
1, 116970, Tempo, 285714
1, 117000, Tempo, 190476
1, 117120, Tempo, 201342
1, 117360, Tempo, 190476
1, 117480, Tempo, 213523
1, 117690, Tempo, 272727
1, 117720, Tempo, 195439
1, 117840, Tempo, 202702
1, 118080, Tempo, 195439
1, 118200, Tempo, 202702
1, 118440, Tempo, 195439
1, 118560, Tempo, 202702
1, 118800, Tempo, 195439
1, 118920, Tempo, 202702
1, 119160, Tempo, 195439
1, 119280, Tempo, 202702
1, 119520, Tempo, 195439
1, 119640, Tempo, 205479
1, 119880, Tempo, 195439
1, 120000, Tempo, 208333
1, 120240, Tempo, 195439
1, 120360, Tempo, 213523
1, 120600, Tempo, 195439
1, 120720, Tempo, 213523
1, 120960, Tempo, 195439
1, 121080, Tempo, 213523
1, 121320, Tempo, 195439
1, 121440, Tempo, 213523
1, 121680, Tempo, 195439
1, 121800, Tempo, 213523
1, 121980, Tempo, 252100
1, 122040, Tempo, 189873
1, 122160, Tempo, 213523
1, 122400, Tempo, 190476
1, 122520, Tempo, 213523
1, 122760, Tempo, 190476
1, 122880, Tempo, 213523
1, 123120, Tempo, 190476
1, 123240, Tempo, 213523
1, 123420, Tempo, 259740
1, 123480, Tempo, 195439
1, 123600, Tempo, 213523
1, 123840, Tempo, 195439
1, 123960, Tempo, 213523
1, 124200, Tempo, 195439
1, 124320, Tempo, 213523
1, 124560, Tempo, 195439
1, 124680, Tempo, 213523
1, 124860, Tempo, 259740
1, 124920, Tempo, 190476
1, 125040, Tempo, 213523
1, 125280, Tempo, 190476
1, 125400, Tempo, 213523
1, 125640, Tempo, 190476
1, 125760, Tempo, 213523
1, 126000, Tempo, 190476
1, 126120, Tempo, 213523
1, 126360, Tempo, 190476
1, 126480, Tempo, 213523
1, 126720, Tempo, 190476
1, 126840, Tempo, 213523
1, 127080, Tempo, 190476
1, 127200, Tempo, 213523
1, 127440, Tempo, 190476
1, 127560, Tempo, 213523
1, 127800, Tempo, 190476
1, 127920, Tempo, 213523
1, 128160, Tempo, 190476
1, 128280, Tempo, 213523
1, 128520, Tempo, 190476
1, 128640, Tempo, 213523
1, 128880, Tempo, 190476
1, 129000, Tempo, 213523
1, 129240, Tempo, 204081
1, 129360, Tempo, 213523
1, 129480, Tempo, 239043
1, 129600, Tempo, 357142
1, 129720, Tempo, 571428
1, 129720, End_track
2, 0, Start_track
2, 0, MIDI_port, 0
2, 0, Title_t, "2 Flauti"
2, 0, Program_c, 0, 73
2, 0, Control_c, 0, 10, 52
2, 1, Control_c, 0, 121, 0
2, 6, Program_c, 0, 73
2, 11, Pitch_bend_c, 0, 8192
2, 16, Control_c, 0, 11, 87
2, 21, Control_c, 0, 7, 127
2, 26, Control_c, 0, 91, 54
2, 31, Control_c, 0, 93, 0
2, 361, Control_c, 0, 11, 87
2, 361, Note_on_c, 0, 74, 95
2, 376, Control_c, 0, 11, 86
2, 391, Control_c, 0, 11, 85
2, 406, Control_c, 0, 11, 84
2, 421, Control_c, 0, 11, 83
2, 436, Control_c, 0, 11, 82
2, 451, Control_c, 0, 11, 81
2, 466, Control_c, 0, 11, 80
2, 481, Control_c, 0, 11, 79
2, 496, Control_c, 0, 11, 78
2, 511, Control_c, 0, 11, 77
2, 526, Control_c, 0, 11, 76
2, 541, Control_c, 0, 11, 75
2, 556, Control_c, 0, 11, 74
2, 571, Control_c, 0, 11, 73
2, 586, Control_c, 0, 11, 72
2, 601, Control_c, 0, 11, 71
2, 616, Control_c, 0, 11, 70
2, 631, Control_c, 0, 11, 69
2, 646, Control_c, 0, 11, 68
2, 661, Control_c, 0, 11, 67
2, 669, Control_c, 0, 11, 64
2, 678, Control_c, 0, 11, 61
2, 687, Control_c, 0, 11, 58
2, 696, Control_c, 0, 11, 55
2, 705, Control_c, 0, 11, 52
2, 714, Control_c, 0, 11, 49
2, 721, Note_on_c, 0, 74, 0
2, 1081, Note_on_c, 0, 76, 95
2, 1081, Note_on_c, 0, 74, 95
2, 1081, Control_c, 0, 11, 87
2, 1096, Control_c, 0, 11, 86
2, 1111, Control_c, 0, 11, 85
2, 1126, Control_c, 0, 11, 84
2, 1141, Control_c, 0, 11, 83
2, 1156, Control_c, 0, 11, 82
2, 1171, Control_c, 0, 11, 81
2, 1186, Control_c, 0, 11, 80
2, 1201, Control_c, 0, 11, 79
2, 1216, Control_c, 0, 11, 78
2, 1231, Control_c, 0, 11, 77
2, 1246, Control_c, 0, 11, 76
2, 1261, Control_c, 0, 11, 75
2, 1276, Control_c, 0, 11, 74
2, 1291, Control_c, 0, 11, 73
2, 1306, Control_c, 0, 11, 72
2, 1321, Control_c, 0, 11, 71
2, 1336, Control_c, 0, 11, 70
2, 1351, Control_c, 0, 11, 69
2, 1366, Control_c, 0, 11, 68
2, 1381, Control_c, 0, 11, 67
2, 1389, Control_c, 0, 11, 64
2, 1398, Control_c, 0, 11, 61
2, 1407, Control_c, 0, 11, 58
2, 1416, Control_c, 0, 11, 55
2, 1425, Control_c, 0, 11, 52
2, 1434, Control_c, 0, 11, 49
2, 1441, Note_on_c, 0, 74, 0
2, 1441, Note_on_c, 0, 76, 0
2, 2881, Note_on_c, 0, 78, 101
2, 2881, Control_c, 0, 11, 102
2, 2881, Note_on_c, 0, 86, 101
2, 2941, Note_on_c, 0, 86, 0
2, 2941, Note_on_c, 0, 78, 0
2, 3001, Note_on_c, 0, 79, 101
2, 3001, Note_on_c, 0, 85, 101
2, 3061, Note_on_c, 0, 85, 0
2, 3061, Note_on_c, 0, 79, 0
2, 3121, Note_on_c, 0, 86, 101
2, 3121, Note_on_c, 0, 78, 101
2, 3181, Note_on_c, 0, 78, 0
2, 3181, Note_on_c, 0, 86, 0
2, 3241, Note_on_c, 0, 74, 101
2, 3241, Control_c, 0, 11, 87
2, 3256, Control_c, 0, 11, 86
2, 3271, Control_c, 0, 11, 85
2, 3286, Control_c, 0, 11, 84
2, 3301, Control_c, 0, 11, 83
2, 3316, Control_c, 0, 11, 82
2, 3331, Control_c, 0, 11, 81
2, 3346, Control_c, 0, 11, 80
2, 3361, Control_c, 0, 11, 79
2, 3376, Control_c, 0, 11, 78
2, 3391, Control_c, 0, 11, 77
2, 3406, Control_c, 0, 11, 76
2, 3421, Control_c, 0, 11, 75
2, 3436, Control_c, 0, 11, 74
2, 3451, Control_c, 0, 11, 73
2, 3466, Control_c, 0, 11, 72
2, 3481, Control_c, 0, 11, 71
2, 3496, Control_c, 0, 11, 70
2, 3511, Control_c, 0, 11, 69
2, 3526, Control_c, 0, 11, 68
2, 3541, Control_c, 0, 11, 67
2, 3549, Control_c, 0, 11, 64
2, 3558, Control_c, 0, 11, 61
2, 3567, Control_c, 0, 11, 58
2, 3576, Control_c, 0, 11, 55
2, 3585, Control_c, 0, 11, 52
2, 3594, Control_c, 0, 11, 49
2, 3601, Note_on_c, 0, 74, 0
2, 3961, Note_on_c, 0, 74, 101
2, 3961, Note_on_c, 0, 76, 101
2, 3961, Control_c, 0, 11, 87
2, 3976, Control_c, 0, 11, 86
2, 3991, Control_c, 0, 11, 85
2, 4006, Control_c, 0, 11, 84
2, 4021, Control_c, 0, 11, 83
2, 4036, Control_c, 0, 11, 82
2, 4051, Control_c, 0, 11, 81
2, 4066, Control_c, 0, 11, 80
2, 4081, Control_c, 0, 11, 79
2, 4096, Control_c, 0, 11, 78
2, 4111, Control_c, 0, 11, 77
2, 4126, Control_c, 0, 11, 76
2, 4141, Control_c, 0, 11, 75
2, 4156, Control_c, 0, 11, 74
2, 4171, Control_c, 0, 11, 73
2, 4186, Control_c, 0, 11, 72
2, 4201, Control_c, 0, 11, 71
2, 4216, Control_c, 0, 11, 70
2, 4231, Control_c, 0, 11, 69
2, 4246, Control_c, 0, 11, 68
2, 4261, Control_c, 0, 11, 67
2, 4269, Control_c, 0, 11, 64
2, 4278, Control_c, 0, 11, 61
2, 4287, Control_c, 0, 11, 58
2, 4296, Control_c, 0, 11, 55
2, 4305, Control_c, 0, 11, 52
2, 4314, Control_c, 0, 11, 49
2, 4321, Note_on_c, 0, 76, 0
2, 4321, Note_on_c, 0, 74, 0
2, 5401, Note_on_c, 0, 85, 101
2, 5401, Control_c, 0, 11, 47
2, 5461, Note_on_c, 0, 85, 0
2, 5521, Note_on_c, 0, 83, 101
2, 5581, Note_on_c, 0, 83, 0
2, 5641, Note_on_c, 0, 81, 101
2, 5701, Note_on_c, 0, 81, 0
2, 5761, Control_c, 0, 11, 102
2, 5761, Note_on_c, 0, 88, 101
2, 5761, Note_on_c, 0, 85, 101
2, 5821, Note_on_c, 0, 85, 0
2, 5821, Note_on_c, 0, 88, 0
2, 5881, Note_on_c, 0, 88, 101
2, 5881, Note_on_c, 0, 83, 101
2, 5941, Note_on_c, 0, 83, 0
2, 5941, Note_on_c, 0, 88, 0
2, 6001, Note_on_c, 0, 88, 101
2, 6001, Note_on_c, 0, 85, 101
2, 6061, Note_on_c, 0, 85, 0
2, 6061, Note_on_c, 0, 88, 0
2, 6121, Note_on_c, 0, 74, 95
2, 6121, Control_c, 0, 11, 87
2, 6136, Control_c, 0, 11, 86
2, 6151, Control_c, 0, 11, 85
2, 6166, Control_c, 0, 11, 84
2, 6181, Control_c, 0, 11, 83
2, 6196, Control_c, 0, 11, 82
2, 6211, Control_c, 0, 11, 81
2, 6226, Control_c, 0, 11, 80
2, 6241, Control_c, 0, 11, 79
2, 6256, Control_c, 0, 11, 78
2, 6271, Control_c, 0, 11, 77
2, 6286, Control_c, 0, 11, 76
2, 6301, Control_c, 0, 11, 75
2, 6316, Control_c, 0, 11, 74
2, 6331, Control_c, 0, 11, 73
2, 6346, Control_c, 0, 11, 72
2, 6361, Control_c, 0, 11, 71
2, 6376, Control_c, 0, 11, 70
2, 6391, Control_c, 0, 11, 69
2, 6406, Control_c, 0, 11, 68
2, 6421, Control_c, 0, 11, 67
2, 6429, Control_c, 0, 11, 64
2, 6438, Control_c, 0, 11, 61
2, 6447, Control_c, 0, 11, 58
2, 6456, Control_c, 0, 11, 55
2, 6465, Control_c, 0, 11, 52
2, 6474, Control_c, 0, 11, 49
2, 6481, Note_on_c, 0, 74, 0
2, 6841, Note_on_c, 0, 76, 95
2, 6841, Note_on_c, 0, 74, 95
2, 6841, Control_c, 0, 11, 87
2, 6856, Control_c, 0, 11, 86
2, 6871, Control_c, 0, 11, 85
2, 6886, Control_c, 0, 11, 84
2, 6901, Control_c, 0, 11, 83
2, 6916, Control_c, 0, 11, 82
2, 6931, Control_c, 0, 11, 81
2, 6946, Control_c, 0, 11, 80
2, 6961, Control_c, 0, 11, 79
2, 6976, Control_c, 0, 11, 78
2, 6991, Control_c, 0, 11, 77
2, 7006, Control_c, 0, 11, 76
2, 7021, Control_c, 0, 11, 75
2, 7036, Control_c, 0, 11, 74
2, 7051, Control_c, 0, 11, 73
2, 7066, Control_c, 0, 11, 72
2, 7081, Control_c, 0, 11, 71
2, 7096, Control_c, 0, 11, 70
2, 7111, Control_c, 0, 11, 69
2, 7126, Control_c, 0, 11, 68
2, 7141, Control_c, 0, 11, 67
2, 7149, Control_c, 0, 11, 64
2, 7158, Control_c, 0, 11, 61
2, 7167, Control_c, 0, 11, 58
2, 7176, Control_c, 0, 11, 55
2, 7185, Control_c, 0, 11, 52
2, 7194, Control_c, 0, 11, 49
2, 7201, Note_on_c, 0, 74, 0
2, 7201, Note_on_c, 0, 76, 0
2, 8641, Control_c, 0, 11, 102
2, 8641, Note_on_c, 0, 78, 101
2, 8641, Note_on_c, 0, 86, 101
2, 8701, Note_on_c, 0, 86, 0
2, 8701, Note_on_c, 0, 78, 0
2, 8761, Note_on_c, 0, 85, 101
2, 8761, Note_on_c, 0, 79, 101
2, 8821, Note_on_c, 0, 79, 0
2, 8821, Note_on_c, 0, 85, 0
2, 8881, Note_on_c, 0, 86, 101
2, 8881, Note_on_c, 0, 78, 101
2, 8941, Note_on_c, 0, 78, 0
2, 8941, Note_on_c, 0, 86, 0
2, 9001, Note_on_c, 0, 74, 101
2, 9001, Control_c, 0, 11, 87
2, 9016, Control_c, 0, 11, 86
2, 9031, Control_c, 0, 11, 85
2, 9046, Control_c, 0, 11, 84
2, 9061, Control_c, 0, 11, 83
2, 9076, Control_c, 0, 11, 82
2, 9091, Control_c, 0, 11, 81
2, 9106, Control_c, 0, 11, 80
2, 9121, Control_c, 0, 11, 79
2, 9136, Control_c, 0, 11, 78
2, 9151, Control_c, 0, 11, 77
2, 9166, Control_c, 0, 11, 76
2, 9181, Control_c, 0, 11, 75
2, 9196, Control_c, 0, 11, 74
2, 9211, Control_c, 0, 11, 73
2, 9226, Control_c, 0, 11, 72
2, 9241, Control_c, 0, 11, 71
2, 9256, Control_c, 0, 11, 70
2, 9271, Control_c, 0, 11, 69
2, 9286, Control_c, 0, 11, 68
2, 9301, Control_c, 0, 11, 67
2, 9309, Control_c, 0, 11, 64
2, 9318, Control_c, 0, 11, 61
2, 9327, Control_c, 0, 11, 58
2, 9336, Control_c, 0, 11, 55
2, 9345, Control_c, 0, 11, 52
2, 9354, Control_c, 0, 11, 49
2, 9361, Note_on_c, 0, 74, 0
2, 9721, Note_on_c, 0, 76, 101
2, 9721, Note_on_c, 0, 74, 101
2, 9721, Control_c, 0, 11, 87
2, 9736, Control_c, 0, 11, 86
2, 9751, Control_c, 0, 11, 85
2, 9766, Control_c, 0, 11, 84
2, 9781, Control_c, 0, 11, 83
2, 9796, Control_c, 0, 11, 82
2, 9811, Control_c, 0, 11, 81
2, 9826, Control_c, 0, 11, 80
2, 9841, Control_c, 0, 11, 79
2, 9856, Control_c, 0, 11, 78
2, 9871, Control_c, 0, 11, 77
2, 9886, Control_c, 0, 11, 76
2, 9901, Control_c, 0, 11, 75
2, 9916, Control_c, 0, 11, 74
2, 9931, Control_c, 0, 11, 73
2, 9946, Control_c, 0, 11, 72
2, 9961, Control_c, 0, 11, 71
2, 9976, Control_c, 0, 11, 70
2, 9991, Control_c, 0, 11, 69
2, 10006, Control_c, 0, 11, 68
2, 10021, Control_c, 0, 11, 67
2, 10029, Control_c, 0, 11, 64
2, 10038, Control_c, 0, 11, 61
2, 10047, Control_c, 0, 11, 58
2, 10056, Control_c, 0, 11, 55
2, 10065, Control_c, 0, 11, 52
2, 10074, Control_c, 0, 11, 49
2, 10081, Note_on_c, 0, 74, 0
2, 10081, Note_on_c, 0, 76, 0
2, 11161, Control_c, 0, 11, 47
2, 11161, Note_on_c, 0, 85, 101
2, 11221, Note_on_c, 0, 85, 0
2, 11281, Note_on_c, 0, 83, 101
2, 11341, Note_on_c, 0, 83, 0
2, 11401, Note_on_c, 0, 81, 101
2, 11461, Note_on_c, 0, 81, 0
2, 11521, Control_c, 0, 11, 102
2, 11521, Note_on_c, 0, 85, 101
2, 11521, Note_on_c, 0, 88, 101
2, 11581, Note_on_c, 0, 88, 0
2, 11581, Note_on_c, 0, 85, 0
2, 11641, Note_on_c, 0, 88, 101
2, 11641, Note_on_c, 0, 83, 101
2, 11701, Note_on_c, 0, 83, 0
2, 11701, Note_on_c, 0, 88, 0
2, 11761, Note_on_c, 0, 85, 101
2, 11761, Note_on_c, 0, 88, 101
2, 11821, Note_on_c, 0, 88, 0
2, 11821, Note_on_c, 0, 85, 0
2, 14641, Control_c, 0, 11, 52
2, 14641, Note_on_c, 0, 81, 101
2, 14761, Note_on_c, 0, 81, 0
2, 14761, Note_on_c, 0, 82, 101
2, 14821, Note_on_c, 0, 82, 0
2, 14881, Note_on_c, 0, 89, 101
2, 14881, Control_c, 0, 11, 87
2, 14891, Control_c, 0, 11, 84
2, 14901, Control_c, 0, 11, 81
2, 14911, Control_c, 0, 11, 78
2, 14922, Control_c, 0, 11, 75
2, 14932, Control_c, 0, 11, 72
2, 14942, Control_c, 0, 11, 69
2, 14953, Control_c, 0, 11, 66
2, 14963, Control_c, 0, 11, 63
2, 14973, Control_c, 0, 11, 60
2, 14983, Control_c, 0, 11, 57
2, 14994, Control_c, 0, 11, 54
2, 15351, Note_on_c, 0, 89, 0
2, 15361, Note_on_c, 0, 86, 101
2, 15421, Note_on_c, 0, 86, 0
2, 15421, Note_on_c, 0, 82, 101
2, 15471, Note_on_c, 0, 82, 0
2, 15481, Note_on_c, 0, 81, 101
2, 15541, Note_on_c, 0, 81, 0
2, 15541, Note_on_c, 0, 84, 101
2, 15601, Note_on_c, 0, 84, 0
2, 15601, Note_on_c, 0, 87, 101
2, 15661, Note_on_c, 0, 87, 0
2, 15661, Note_on_c, 0, 86, 101
2, 15721, Note_on_c, 0, 86, 0
2, 15721, Note_on_c, 0, 84, 101
2, 15781, Note_on_c, 0, 84, 0
2, 15781, Note_on_c, 0, 82, 101
2, 15841, Note_on_c, 0, 82, 0
2, 15841, Note_on_c, 0, 81, 101
2, 15901, Note_on_c, 0, 81, 0
2, 15901, Note_on_c, 0, 79, 101
2, 15961, Note_on_c, 0, 79, 0
2, 15961, Note_on_c, 0, 77, 101
2, 16021, Note_on_c, 0, 77, 0
2, 16021, Note_on_c, 0, 75, 101
2, 16081, Note_on_c, 0, 75, 0
2, 16081, Note_on_c, 0, 74, 101
2, 16141, Note_on_c, 0, 74, 0
2, 16141, Note_on_c, 0, 72, 101
2, 16191, Note_on_c, 0, 72, 0
2, 16201, Note_on_c, 0, 70, 101
2, 16321, Note_on_c, 0, 70, 0
2, 19801, Note_on_c, 0, 74, 101
2, 19801, Control_c, 0, 11, 87
2, 19816, Control_c, 0, 11, 86
2, 19831, Control_c, 0, 11, 85
2, 19846, Control_c, 0, 11, 84
2, 19861, Control_c, 0, 11, 83
2, 19876, Control_c, 0, 11, 82
2, 19891, Control_c, 0, 11, 81
2, 19906, Control_c, 0, 11, 80
2, 19921, Control_c, 0, 11, 79
2, 19936, Control_c, 0, 11, 78
2, 19951, Control_c, 0, 11, 77
2, 19966, Control_c, 0, 11, 76
2, 19981, Control_c, 0, 11, 75
2, 19996, Control_c, 0, 11, 74
2, 20011, Control_c, 0, 11, 73
2, 20026, Control_c, 0, 11, 72
2, 20041, Control_c, 0, 11, 71
2, 20056, Control_c, 0, 11, 70
2, 20071, Control_c, 0, 11, 69
2, 20086, Control_c, 0, 11, 68
2, 20101, Control_c, 0, 11, 67
2, 20109, Control_c, 0, 11, 64
2, 20118, Control_c, 0, 11, 61
2, 20127, Control_c, 0, 11, 58
2, 20136, Control_c, 0, 11, 55
2, 20145, Control_c, 0, 11, 52
2, 20151, Note_on_c, 0, 74, 0
2, 20154, Control_c, 0, 11, 49
2, 20521, Note_on_c, 0, 74, 101
2, 20521, Note_on_c, 0, 76, 101
2, 20521, Control_c, 0, 11, 87
2, 20536, Control_c, 0, 11, 86
2, 20551, Control_c, 0, 11, 85
2, 20566, Control_c, 0, 11, 84
2, 20581, Control_c, 0, 11, 83
2, 20596, Control_c, 0, 11, 82
2, 20611, Control_c, 0, 11, 81
2, 20626, Control_c, 0, 11, 80
2, 20641, Control_c, 0, 11, 79
2, 20656, Control_c, 0, 11, 78
2, 20671, Control_c, 0, 11, 77
2, 20686, Control_c, 0, 11, 76
2, 20701, Control_c, 0, 11, 75
2, 20716, Control_c, 0, 11, 74
2, 20731, Control_c, 0, 11, 73
2, 20746, Control_c, 0, 11, 72
2, 20761, Control_c, 0, 11, 71
2, 20776, Control_c, 0, 11, 70
2, 20791, Control_c, 0, 11, 69
2, 20806, Control_c, 0, 11, 68
2, 20821, Control_c, 0, 11, 67
2, 20829, Control_c, 0, 11, 64
2, 20838, Control_c, 0, 11, 61
2, 20847, Control_c, 0, 11, 58
2, 20856, Control_c, 0, 11, 55
2, 20865, Control_c, 0, 11, 52
2, 20871, Note_on_c, 0, 76, 0
2, 20871, Note_on_c, 0, 74, 0
2, 20874, Control_c, 0, 11, 49
2, 22321, Note_on_c, 0, 78, 101
2, 22321, Note_on_c, 0, 86, 101
2, 22321, Control_c, 0, 11, 102
2, 22381, Note_on_c, 0, 86, 0
2, 22381, Note_on_c, 0, 78, 0
2, 22441, Note_on_c, 0, 85, 101
2, 22441, Note_on_c, 0, 76, 101
2, 22501, Note_on_c, 0, 76, 0
2, 22501, Note_on_c, 0, 85, 0
2, 22561, Note_on_c, 0, 78, 101
2, 22561, Note_on_c, 0, 86, 101
2, 22621, Note_on_c, 0, 86, 0
2, 22621, Note_on_c, 0, 78, 0
2, 22681, Note_on_c, 0, 74, 101
2, 22681, Control_c, 0, 11, 87
2, 22696, Control_c, 0, 11, 86
2, 22711, Control_c, 0, 11, 85
2, 22726, Control_c, 0, 11, 84
2, 22741, Control_c, 0, 11, 83
2, 22756, Control_c, 0, 11, 82
2, 22771, Control_c, 0, 11, 81
2, 22786, Control_c, 0, 11, 80
2, 22801, Control_c, 0, 11, 79
2, 22816, Control_c, 0, 11, 78
2, 22831, Control_c, 0, 11, 77
2, 22846, Control_c, 0, 11, 76
2, 22861, Control_c, 0, 11, 75
2, 22876, Control_c, 0, 11, 74
2, 22891, Control_c, 0, 11, 73
2, 22906, Control_c, 0, 11, 72
2, 22921, Control_c, 0, 11, 71
2, 22936, Control_c, 0, 11, 70
2, 22951, Control_c, 0, 11, 69
2, 22966, Control_c, 0, 11, 68
2, 22981, Control_c, 0, 11, 67
2, 22989, Control_c, 0, 11, 64
2, 22998, Control_c, 0, 11, 61
2, 23007, Control_c, 0, 11, 58
2, 23016, Control_c, 0, 11, 55
2, 23025, Control_c, 0, 11, 52
2, 23031, Note_on_c, 0, 74, 0
2, 23034, Control_c, 0, 11, 49
2, 23401, Note_on_c, 0, 74, 101
2, 23401, Note_on_c, 0, 76, 101
2, 23401, Control_c, 0, 11, 87
2, 23416, Control_c, 0, 11, 86
2, 23431, Control_c, 0, 11, 85
2, 23446, Control_c, 0, 11, 84
2, 23461, Control_c, 0, 11, 83
2, 23476, Control_c, 0, 11, 82
2, 23491, Control_c, 0, 11, 81
2, 23506, Control_c, 0, 11, 80
2, 23521, Control_c, 0, 11, 79
2, 23536, Control_c, 0, 11, 78
2, 23551, Control_c, 0, 11, 77
2, 23566, Control_c, 0, 11, 76
2, 23581, Control_c, 0, 11, 75
2, 23596, Control_c, 0, 11, 74
2, 23611, Control_c, 0, 11, 73
2, 23626, Control_c, 0, 11, 72
2, 23641, Control_c, 0, 11, 71
2, 23656, Control_c, 0, 11, 70
2, 23671, Control_c, 0, 11, 69
2, 23686, Control_c, 0, 11, 68
2, 23701, Control_c, 0, 11, 67
2, 23709, Control_c, 0, 11, 64
2, 23718, Control_c, 0, 11, 61
2, 23727, Control_c, 0, 11, 58
2, 23736, Control_c, 0, 11, 55
2, 23745, Control_c, 0, 11, 52
2, 23751, Note_on_c, 0, 76, 0
2, 23751, Note_on_c, 0, 74, 0
2, 23754, Control_c, 0, 11, 49
2, 30601, Control_c, 0, 11, 42
2, 30601, Note_on_c, 0, 81, 101
2, 30946, Note_on_c, 0, 81, 0
2, 30961, Note_on_c, 0, 86, 101
2, 31021, Note_on_c, 0, 86, 0
2, 31081, Note_on_c, 0, 85, 101
2, 31141, Note_on_c, 0, 85, 0
2, 31201, Note_on_c, 0, 86, 101
2, 31261, Note_on_c, 0, 86, 0
2, 34201, Control_c, 0, 11, 107
2, 34201, Note_on_c, 0, 85, 101
2, 34219, Control_c, 0, 11, 104
2, 34237, Control_c, 0, 11, 101
2, 34255, Control_c, 0, 11, 98
2, 34273, Control_c, 0, 11, 95
2, 34291, Control_c, 0, 11, 92
2, 34309, Control_c, 0, 11, 89
2, 34546, Note_on_c, 0, 85, 0
2, 34561, Note_on_c, 0, 86, 101
2, 34681, Note_on_c, 0, 86, 0
2, 34921, Note_on_c, 0, 81, 101
2, 34921, Control_c, 0, 11, 102
2, 34921, Note_on_c, 0, 85, 101
2, 35401, Note_on_c, 0, 85, 0
2, 35401, Note_on_c, 0, 81, 0
2, 35401, Note_on_c, 0, 83, 101
2, 35401, Note_on_c, 0, 86, 101
2, 35521, Note_on_c, 0, 86, 0
2, 35521, Note_on_c, 0, 83, 0
2, 35521, Note_on_c, 0, 88, 101
2, 35521, Note_on_c, 0, 85, 101
2, 35626, Note_on_c, 0, 85, 0
2, 35626, Note_on_c, 0, 88, 0
2, 35641, Note_on_c, 0, 78, 101
2, 35641, Note_on_c, 0, 90, 101
2, 35761, Note_on_c, 0, 90, 0
2, 35761, Note_on_c, 0, 78, 0
2, 35881, Note_on_c, 0, 85, 101
2, 35941, Note_on_c, 0, 85, 0
2, 36001, Note_on_c, 0, 86, 101
2, 36061, Note_on_c, 0, 86, 0
2, 39121, Note_on_c, 0, 81, 101
2, 39121, Control_c, 0, 11, 52
2, 39241, Note_on_c, 0, 81, 0
2, 39241, Note_on_c, 0, 82, 101
2, 39301, Note_on_c, 0, 82, 0
2, 39361, Control_c, 0, 11, 87
2, 39361, Note_on_c, 0, 89, 101
2, 39371, Control_c, 0, 11, 84
2, 39381, Control_c, 0, 11, 81
2, 39391, Control_c, 0, 11, 78
2, 39402, Control_c, 0, 11, 75
2, 39412, Control_c, 0, 11, 72
2, 39422, Control_c, 0, 11, 69
2, 39433, Control_c, 0, 11, 66
2, 39443, Control_c, 0, 11, 63
2, 39453, Control_c, 0, 11, 60
2, 39463, Control_c, 0, 11, 57
2, 39474, Control_c, 0, 11, 54
2, 39831, Note_on_c, 0, 89, 0
2, 39841, Note_on_c, 0, 86, 101
2, 39901, Note_on_c, 0, 86, 0
2, 39901, Note_on_c, 0, 82, 101
2, 39951, Note_on_c, 0, 82, 0
2, 39961, Note_on_c, 0, 81, 101
2, 40021, Note_on_c, 0, 81, 0
2, 40021, Note_on_c, 0, 84, 101
2, 40081, Note_on_c, 0, 84, 0
2, 40081, Note_on_c, 0, 87, 101
2, 40141, Note_on_c, 0, 87, 0
2, 40141, Note_on_c, 0, 86, 101
2, 40201, Note_on_c, 0, 86, 0
2, 40201, Note_on_c, 0, 84, 101
2, 40261, Note_on_c, 0, 84, 0
2, 40261, Note_on_c, 0, 82, 101
2, 40321, Note_on_c, 0, 82, 0
2, 40321, Note_on_c, 0, 81, 101
2, 40381, Note_on_c, 0, 81, 0
2, 40381, Note_on_c, 0, 79, 101
2, 40441, Note_on_c, 0, 79, 0
2, 40441, Note_on_c, 0, 77, 101
2, 40501, Note_on_c, 0, 77, 0
2, 40501, Note_on_c, 0, 75, 101
2, 40561, Note_on_c, 0, 75, 0
2, 40561, Note_on_c, 0, 74, 101
2, 40621, Note_on_c, 0, 74, 0
2, 40621, Note_on_c, 0, 72, 101
2, 40671, Note_on_c, 0, 72, 0
2, 40681, Note_on_c, 0, 70, 101
2, 40801, Note_on_c, 0, 70, 0
2, 44281, Note_on_c, 0, 74, 101
2, 44281, Control_c, 0, 11, 87
2, 44296, Control_c, 0, 11, 86
2, 44311, Control_c, 0, 11, 85
2, 44326, Control_c, 0, 11, 84
2, 44341, Control_c, 0, 11, 83
2, 44356, Control_c, 0, 11, 82
2, 44371, Control_c, 0, 11, 81
2, 44386, Control_c, 0, 11, 80
2, 44401, Control_c, 0, 11, 79
2, 44416, Control_c, 0, 11, 78
2, 44431, Control_c, 0, 11, 77
2, 44446, Control_c, 0, 11, 76
2, 44461, Control_c, 0, 11, 75
2, 44476, Control_c, 0, 11, 74
2, 44491, Control_c, 0, 11, 73
2, 44506, Control_c, 0, 11, 72
2, 44521, Control_c, 0, 11, 71
2, 44536, Control_c, 0, 11, 70
2, 44551, Control_c, 0, 11, 69
2, 44566, Control_c, 0, 11, 68
2, 44581, Control_c, 0, 11, 67
2, 44589, Control_c, 0, 11, 64
2, 44598, Control_c, 0, 11, 61
2, 44607, Control_c, 0, 11, 58
2, 44616, Control_c, 0, 11, 55
2, 44625, Control_c, 0, 11, 52
2, 44631, Note_on_c, 0, 74, 0
2, 44634, Control_c, 0, 11, 49
2, 45001, Note_on_c, 0, 76, 101
2, 45001, Note_on_c, 0, 74, 101
2, 45001, Control_c, 0, 11, 87
2, 45016, Control_c, 0, 11, 86
2, 45031, Control_c, 0, 11, 85
2, 45046, Control_c, 0, 11, 84
2, 45061, Control_c, 0, 11, 83
2, 45076, Control_c, 0, 11, 82
2, 45091, Control_c, 0, 11, 81
2, 45106, Control_c, 0, 11, 80
2, 45121, Control_c, 0, 11, 79
2, 45136, Control_c, 0, 11, 78
2, 45151, Control_c, 0, 11, 77
2, 45166, Control_c, 0, 11, 76
2, 45181, Control_c, 0, 11, 75
2, 45196, Control_c, 0, 11, 74
2, 45211, Control_c, 0, 11, 73
2, 45226, Control_c, 0, 11, 72
2, 45241, Control_c, 0, 11, 71
2, 45256, Control_c, 0, 11, 70
2, 45271, Control_c, 0, 11, 69
2, 45286, Control_c, 0, 11, 68
2, 45301, Control_c, 0, 11, 67
2, 45309, Control_c, 0, 11, 64
2, 45318, Control_c, 0, 11, 61
2, 45327, Control_c, 0, 11, 58
2, 45336, Control_c, 0, 11, 55
2, 45345, Control_c, 0, 11, 52
2, 45351, Note_on_c, 0, 74, 0
2, 45351, Note_on_c, 0, 76, 0
2, 45354, Control_c, 0, 11, 49
2, 46801, Control_c, 0, 11, 102
2, 46801, Note_on_c, 0, 86, 101
2, 46801, Note_on_c, 0, 78, 101
2, 46861, Note_on_c, 0, 78, 0
2, 46861, Note_on_c, 0, 86, 0
2, 46921, Note_on_c, 0, 76, 101
2, 46921, Note_on_c, 0, 85, 101
2, 46981, Note_on_c, 0, 85, 0
2, 46981, Note_on_c, 0, 76, 0
2, 47041, Note_on_c, 0, 78, 101
2, 47041, Note_on_c, 0, 86, 101
2, 47101, Note_on_c, 0, 86, 0
2, 47101, Note_on_c, 0, 78, 0
2, 47161, Note_on_c, 0, 74, 101
2, 47161, Control_c, 0, 11, 87
2, 47176, Control_c, 0, 11, 86
2, 47191, Control_c, 0, 11, 85
2, 47206, Control_c, 0, 11, 84
2, 47221, Control_c, 0, 11, 83
2, 47236, Control_c, 0, 11, 82
2, 47251, Control_c, 0, 11, 81
2, 47266, Control_c, 0, 11, 80
2, 47281, Control_c, 0, 11, 79
2, 47296, Control_c, 0, 11, 78
2, 47311, Control_c, 0, 11, 77
2, 47326, Control_c, 0, 11, 76
2, 47341, Control_c, 0, 11, 75
2, 47356, Control_c, 0, 11, 74
2, 47371, Control_c, 0, 11, 73
2, 47386, Control_c, 0, 11, 72
2, 47401, Control_c, 0, 11, 71
2, 47416, Control_c, 0, 11, 70
2, 47431, Control_c, 0, 11, 69
2, 47446, Control_c, 0, 11, 68
2, 47461, Control_c, 0, 11, 67
2, 47469, Control_c, 0, 11, 64
2, 47478, Control_c, 0, 11, 61
2, 47487, Control_c, 0, 11, 58
2, 47496, Control_c, 0, 11, 55
2, 47505, Control_c, 0, 11, 52
2, 47511, Note_on_c, 0, 74, 0
2, 47514, Control_c, 0, 11, 49
2, 47881, Note_on_c, 0, 76, 101
2, 47881, Note_on_c, 0, 74, 101
2, 47881, Control_c, 0, 11, 87
2, 47896, Control_c, 0, 11, 86
2, 47911, Control_c, 0, 11, 85
2, 47926, Control_c, 0, 11, 84
2, 47941, Control_c, 0, 11, 83
2, 47956, Control_c, 0, 11, 82
2, 47971, Control_c, 0, 11, 81
2, 47986, Control_c, 0, 11, 80
2, 48001, Control_c, 0, 11, 79
2, 48016, Control_c, 0, 11, 78
2, 48031, Control_c, 0, 11, 77
2, 48046, Control_c, 0, 11, 76
2, 48061, Control_c, 0, 11, 75
2, 48076, Control_c, 0, 11, 74
2, 48091, Control_c, 0, 11, 73
2, 48106, Control_c, 0, 11, 72
2, 48121, Control_c, 0, 11, 71
2, 48136, Control_c, 0, 11, 70
2, 48151, Control_c, 0, 11, 69
2, 48166, Control_c, 0, 11, 68
2, 48181, Control_c, 0, 11, 67
2, 48189, Control_c, 0, 11, 64
2, 48198, Control_c, 0, 11, 61
2, 48207, Control_c, 0, 11, 58
2, 48216, Control_c, 0, 11, 55
2, 48225, Control_c, 0, 11, 52
2, 48231, Note_on_c, 0, 74, 0
2, 48231, Note_on_c, 0, 76, 0
2, 48234, Control_c, 0, 11, 49
2, 55081, Control_c, 0, 11, 42
2, 55081, Note_on_c, 0, 81, 101
2, 55426, Note_on_c, 0, 81, 0
2, 55441, Note_on_c, 0, 86, 101
2, 55501, Note_on_c, 0, 86, 0
2, 55561, Note_on_c, 0, 85, 101
2, 55621, Note_on_c, 0, 85, 0
2, 55681, Note_on_c, 0, 86, 101
2, 55741, Note_on_c, 0, 86, 0
2, 58681, Control_c, 0, 11, 107
2, 58681, Note_on_c, 0, 85, 101
2, 58699, Control_c, 0, 11, 104
2, 58717, Control_c, 0, 11, 101
2, 58735, Control_c, 0, 11, 98
2, 58753, Control_c, 0, 11, 95
2, 58771, Control_c, 0, 11, 92
2, 58789, Control_c, 0, 11, 89
2, 59026, Note_on_c, 0, 85, 0
2, 59041, Note_on_c, 0, 86, 101
2, 59161, Note_on_c, 0, 86, 0
2, 59401, Note_on_c, 0, 85, 101
2, 59401, Note_on_c, 0, 81, 101
2, 59401, Control_c, 0, 11, 102
2, 59881, Note_on_c, 0, 81, 0
2, 59881, Note_on_c, 0, 85, 0
2, 59881, Note_on_c, 0, 86, 101
2, 59881, Note_on_c, 0, 83, 101
2, 60001, Note_on_c, 0, 83, 0
2, 60001, Note_on_c, 0, 86, 0
2, 60001, Note_on_c, 0, 88, 101
2, 60001, Note_on_c, 0, 85, 101
2, 60106, Note_on_c, 0, 85, 0
2, 60106, Note_on_c, 0, 88, 0
2, 60121, Note_on_c, 0, 90, 101
2, 60121, Note_on_c, 0, 78, 101
2, 60241, Note_on_c, 0, 78, 0
2, 60241, Note_on_c, 0, 90, 0
2, 60361, Note_on_c, 0, 85, 101
2, 60421, Note_on_c, 0, 85, 0
2, 60481, Note_on_c, 0, 86, 101
2, 60541, Note_on_c, 0, 86, 0
2, 60721, Note_on_c, 0, 74, 86
2, 60721, Control_c, 0, 11, 37
2, 60737, Control_c, 0, 11, 39
2, 60753, Control_c, 0, 11, 41
2, 60769, Control_c, 0, 11, 43
2, 60781, Note_on_c, 0, 74, 0
2, 60781, Note_on_c, 0, 76, 86
2, 60785, Control_c, 0, 11, 45
2, 60801, Control_c, 0, 11, 47
2, 60817, Control_c, 0, 11, 49
2, 60821, Note_on_c, 0, 76, 0
2, 60833, Control_c, 0, 11, 51
2, 60841, Note_on_c, 0, 74, 86
2, 60841, Note_on_c, 0, 78, 86
2, 61201, Note_on_c, 0, 78, 0
2, 61201, Note_on_c, 0, 79, 86
2, 61561, Note_on_c, 0, 79, 0
2, 61561, Note_on_c, 0, 81, 86
2, 61681, Note_on_c, 0, 81, 0
2, 61681, Note_on_c, 0, 74, 0
2, 61681, Note_on_c, 0, 69, 86
2, 61681, Note_on_c, 0, 79, 86
2, 61781, Note_on_c, 0, 79, 0
2, 61781, Note_on_c, 0, 69, 0
2, 61801, Note_on_c, 0, 69, 86
2, 61801, Note_on_c, 0, 78, 86
2, 61861, Note_on_c, 0, 78, 0
2, 61861, Note_on_c, 0, 69, 0
2, 61921, Note_on_c, 0, 76, 86
2, 61921, Note_on_c, 0, 69, 86
2, 62041, Note_on_c, 0, 69, 0
2, 62041, Note_on_c, 0, 76, 0
2, 62161, Note_on_c, 0, 78, 86
2, 62261, Note_on_c, 0, 78, 0
2, 62281, Note_on_c, 0, 71, 86
2, 62281, Control_c, 0, 11, 52
2, 62281, Note_on_c, 0, 79, 86
2, 62305, Control_c, 0, 11, 53
2, 62329, Control_c, 0, 11, 54
2, 62353, Control_c, 0, 11, 55
2, 62377, Control_c, 0, 11, 56
2, 62401, Control_c, 0, 11, 57
2, 62425, Control_c, 0, 11, 58
2, 62449, Control_c, 0, 11, 59
2, 62473, Control_c, 0, 11, 60
2, 62497, Control_c, 0, 11, 61
2, 62521, Control_c, 0, 11, 62
2, 62545, Control_c, 0, 11, 63
2, 62569, Control_c, 0, 11, 64
2, 62593, Control_c, 0, 11, 65
2, 62617, Control_c, 0, 11, 66
2, 62641, Note_on_c, 0, 79, 0
2, 62641, Note_on_c, 0, 71, 0
2, 62641, Control_c, 0, 11, 69
2, 62641, Note_on_c, 0, 81, 86
2, 62641, Note_on_c, 0, 73, 86
2, 62655, Control_c, 0, 11, 72
2, 62669, Control_c, 0, 11, 75
2, 62684, Control_c, 0, 11, 78
2, 62701, Control_c, 0, 11, 77
2, 62719, Control_c, 0, 11, 74
2, 62737, Control_c, 0, 11, 71
2, 62755, Control_c, 0, 11, 68
2, 62773, Control_c, 0, 11, 66
2, 62797, Control_c, 0, 11, 64
2, 62821, Control_c, 0, 11, 62
2, 62845, Control_c, 0, 11, 60
2, 62869, Control_c, 0, 11, 58
2, 62893, Control_c, 0, 11, 56
2, 62917, Control_c, 0, 11, 54
2, 62941, Control_c, 0, 11, 52
2, 62965, Control_c, 0, 11, 50
2, 62981, Note_on_c, 0, 73, 0
2, 62981, Note_on_c, 0, 81, 0
2, 62989, Control_c, 0, 11, 48
2, 63001, Note_on_c, 0, 78, 86
2, 63001, Note_on_c, 0, 74, 86
2, 63121, Note_on_c, 0, 74, 0
2, 63121, Note_on_c, 0, 78, 0
2, 63121, Note_on_c, 0, 79, 86
2, 63121, Note_on_c, 0, 76, 86
2, 63221, Note_on_c, 0, 76, 0
2, 63221, Note_on_c, 0, 79, 0
2, 63241, Note_on_c, 0, 76, 86
2, 63241, Note_on_c, 0, 73, 86
2, 63301, Note_on_c, 0, 73, 0
2, 63301, Note_on_c, 0, 76, 0
2, 63361, Note_on_c, 0, 74, 86
2, 63481, Note_on_c, 0, 74, 0
2, 63601, Control_c, 0, 11, 37
2, 63601, Note_on_c, 0, 74, 86
2, 63617, Control_c, 0, 11, 39
2, 63633, Control_c, 0, 11, 41
2, 63649, Control_c, 0, 11, 43
2, 63661, Note_on_c, 0, 74, 0
2, 63661, Note_on_c, 0, 76, 86
2, 63665, Control_c, 0, 11, 45
2, 63681, Control_c, 0, 11, 47
2, 63697, Control_c, 0, 11, 49
2, 63701, Note_on_c, 0, 76, 0
2, 63713, Control_c, 0, 11, 51
2, 63721, Note_on_c, 0, 74, 86
2, 63721, Note_on_c, 0, 78, 86
2, 64081, Note_on_c, 0, 78, 0
2, 64081, Note_on_c, 0, 79, 86
2, 64441, Note_on_c, 0, 79, 0
2, 64441, Note_on_c, 0, 81, 86
2, 64561, Note_on_c, 0, 81, 0
2, 64561, Note_on_c, 0, 74, 0
2, 64561, Note_on_c, 0, 69, 86
2, 64561, Note_on_c, 0, 79, 86
2, 64661, Note_on_c, 0, 79, 0
2, 64661, Note_on_c, 0, 69, 0
2, 64681, Note_on_c, 0, 69, 86
2, 64681, Note_on_c, 0, 78, 86
2, 64741, Note_on_c, 0, 78, 0
2, 64741, Note_on_c, 0, 69, 0
2, 64801, Note_on_c, 0, 69, 86
2, 64801, Note_on_c, 0, 76, 86
2, 64921, Note_on_c, 0, 76, 0
2, 64921, Note_on_c, 0, 69, 0
2, 65041, Note_on_c, 0, 78, 86
2, 65141, Note_on_c, 0, 78, 0
2, 65161, Control_c, 0, 11, 52
2, 65161, Note_on_c, 0, 79, 86
2, 65161, Note_on_c, 0, 71, 86
2, 65185, Control_c, 0, 11, 53
2, 65209, Control_c, 0, 11, 54
2, 65233, Control_c, 0, 11, 55
2, 65257, Control_c, 0, 11, 56
2, 65281, Control_c, 0, 11, 57
2, 65305, Control_c, 0, 11, 58
2, 65329, Control_c, 0, 11, 59
2, 65353, Control_c, 0, 11, 60
2, 65377, Control_c, 0, 11, 61
2, 65401, Control_c, 0, 11, 62
2, 65425, Control_c, 0, 11, 63
2, 65449, Control_c, 0, 11, 64
2, 65473, Control_c, 0, 11, 65
2, 65497, Control_c, 0, 11, 66
2, 65521, Note_on_c, 0, 71, 0
2, 65521, Note_on_c, 0, 79, 0
2, 65521, Note_on_c, 0, 81, 86
2, 65521, Note_on_c, 0, 73, 86
2, 65521, Control_c, 0, 11, 69
2, 65535, Control_c, 0, 11, 72
2, 65549, Control_c, 0, 11, 75
2, 65564, Control_c, 0, 11, 78
2, 65581, Control_c, 0, 11, 77
2, 65599, Control_c, 0, 11, 74
2, 65617, Control_c, 0, 11, 71
2, 65635, Control_c, 0, 11, 68
2, 65653, Control_c, 0, 11, 66
2, 65677, Control_c, 0, 11, 64
2, 65701, Control_c, 0, 11, 62
2, 65725, Control_c, 0, 11, 60
2, 65749, Control_c, 0, 11, 58
2, 65773, Control_c, 0, 11, 56
2, 65797, Control_c, 0, 11, 54
2, 65821, Control_c, 0, 11, 52
2, 65845, Control_c, 0, 11, 50
2, 65861, Note_on_c, 0, 73, 0
2, 65861, Note_on_c, 0, 81, 0
2, 65869, Control_c, 0, 11, 48
2, 65881, Note_on_c, 0, 74, 86
2, 65881, Note_on_c, 0, 78, 86
2, 66001, Note_on_c, 0, 78, 0
2, 66001, Note_on_c, 0, 74, 0
2, 66001, Note_on_c, 0, 76, 86
2, 66001, Note_on_c, 0, 79, 86
2, 66101, Note_on_c, 0, 79, 0
2, 66101, Note_on_c, 0, 76, 0
2, 66121, Note_on_c, 0, 73, 86
2, 66121, Note_on_c, 0, 76, 86
2, 66181, Note_on_c, 0, 76, 0
2, 66181, Note_on_c, 0, 73, 0
2, 66241, Note_on_c, 0, 74, 86
2, 66361, Note_on_c, 0, 74, 0
2, 71641, Note_on_c, 0, 81, 101
2, 71641, Control_c, 0, 11, 102
2, 72361, Note_on_c, 0, 81, 0
2, 72361, Control_c, 0, 11, 87
2, 72361, Note_on_c, 0, 78, 101
2, 72370, Control_c, 0, 11, 84
2, 72379, Control_c, 0, 11, 81
2, 72388, Control_c, 0, 11, 78
2, 72397, Control_c, 0, 11, 75
2, 72406, Control_c, 0, 11, 72
2, 72415, Control_c, 0, 11, 69
2, 72424, Control_c, 0, 11, 66
2, 72433, Control_c, 0, 11, 63
2, 72442, Control_c, 0, 11, 60
2, 72451, Control_c, 0, 11, 57
2, 72460, Control_c, 0, 11, 54
2, 72469, Control_c, 0, 11, 51
2, 72478, Control_c, 0, 11, 48
2, 72481, Note_on_c, 0, 78, 0
2, 79441, Note_on_c, 0, 88, 101
2, 79441, Control_c, 0, 11, 47
2, 79441, Note_on_c, 0, 85, 101
2, 79501, Note_on_c, 0, 85, 0
2, 79501, Note_on_c, 0, 88, 0
2, 79561, Note_on_c, 0, 86, 101
2, 79561, Note_on_c, 0, 90, 101
2, 79681, Note_on_c, 0, 90, 0
2, 79681, Note_on_c, 0, 86, 0
2, 79681, Note_on_c, 0, 88, 101
2, 79681, Note_on_c, 0, 91, 101
2, 79801, Note_on_c, 0, 91, 0
2, 79801, Note_on_c, 0, 88, 0
2, 79801, Note_on_c, 0, 88, 101
2, 79801, Note_on_c, 0, 85, 101
2, 79861, Note_on_c, 0, 85, 0
2, 79861, Note_on_c, 0, 88, 0
2, 79921, Note_on_c, 0, 86, 101
2, 80041, Note_on_c, 0, 86, 0
2, 85321, Control_c, 0, 11, 102
2, 85321, Note_on_c, 0, 81, 101
2, 86041, Note_on_c, 0, 81, 0
2, 86041, Note_on_c, 0, 78, 101
2, 86041, Control_c, 0, 11, 87
2, 86050, Control_c, 0, 11, 84
2, 86059, Control_c, 0, 11, 81
2, 86068, Control_c, 0, 11, 78
2, 86077, Control_c, 0, 11, 75
2, 86086, Control_c, 0, 11, 72
2, 86095, Control_c, 0, 11, 69
2, 86104, Control_c, 0, 11, 66
2, 86113, Control_c, 0, 11, 63
2, 86122, Control_c, 0, 11, 60
2, 86131, Control_c, 0, 11, 57
2, 86140, Control_c, 0, 11, 54
2, 86149, Control_c, 0, 11, 51
2, 86158, Control_c, 0, 11, 48
2, 86161, Note_on_c, 0, 78, 0
2, 93121, Note_on_c, 0, 85, 101
2, 93121, Note_on_c, 0, 88, 101
2, 93121, Control_c, 0, 11, 47
2, 93181, Note_on_c, 0, 88, 0
2, 93181, Note_on_c, 0, 85, 0
2, 93241, Note_on_c, 0, 90, 101
2, 93241, Note_on_c, 0, 86, 101
2, 93361, Note_on_c, 0, 86, 0
2, 93361, Note_on_c, 0, 90, 0
2, 93361, Note_on_c, 0, 88, 101
2, 93361, Note_on_c, 0, 91, 101
2, 93481, Note_on_c, 0, 91, 0
2, 93481, Note_on_c, 0, 88, 0
2, 93481, Note_on_c, 0, 88, 101
2, 93481, Note_on_c, 0, 85, 101
2, 93541, Note_on_c, 0, 85, 0
2, 93541, Note_on_c, 0, 88, 0
2, 93601, Note_on_c, 0, 86, 101
2, 93721, Note_on_c, 0, 86, 0
2, 93961, Note_on_c, 0, 74, 95
2, 93961, Control_c, 0, 11, 87
2, 93976, Control_c, 0, 11, 86
2, 93991, Control_c, 0, 11, 85
2, 94006, Control_c, 0, 11, 84
2, 94021, Control_c, 0, 11, 83
2, 94036, Control_c, 0, 11, 82
2, 94051, Control_c, 0, 11, 81
2, 94066, Control_c, 0, 11, 80
2, 94081, Control_c, 0, 11, 79
2, 94096, Control_c, 0, 11, 78
2, 94111, Control_c, 0, 11, 77
2, 94126, Control_c, 0, 11, 76
2, 94141, Control_c, 0, 11, 75
2, 94156, Control_c, 0, 11, 74
2, 94171, Control_c, 0, 11, 73
2, 94186, Control_c, 0, 11, 72
2, 94201, Control_c, 0, 11, 71
2, 94216, Control_c, 0, 11, 70
2, 94231, Control_c, 0, 11, 69
2, 94246, Control_c, 0, 11, 68
2, 94261, Control_c, 0, 11, 67
2, 94269, Control_c, 0, 11, 64
2, 94278, Control_c, 0, 11, 61
2, 94287, Control_c, 0, 11, 58
2, 94296, Control_c, 0, 11, 55
2, 94305, Control_c, 0, 11, 52
2, 94314, Control_c, 0, 11, 49
2, 94321, Note_on_c, 0, 74, 0
2, 94681, Note_on_c, 0, 74, 95
2, 94681, Control_c, 0, 11, 87
2, 94681, Note_on_c, 0, 76, 95
2, 94696, Control_c, 0, 11, 86
2, 94711, Control_c, 0, 11, 85
2, 94726, Control_c, 0, 11, 84
2, 94741, Control_c, 0, 11, 83
2, 94756, Control_c, 0, 11, 82
2, 94771, Control_c, 0, 11, 81
2, 94786, Control_c, 0, 11, 80
2, 94801, Control_c, 0, 11, 79
2, 94816, Control_c, 0, 11, 78
2, 94831, Control_c, 0, 11, 77
2, 94846, Control_c, 0, 11, 76
2, 94861, Control_c, 0, 11, 75
2, 94876, Control_c, 0, 11, 74
2, 94891, Control_c, 0, 11, 73
2, 94906, Control_c, 0, 11, 72
2, 94921, Control_c, 0, 11, 71
2, 94936, Control_c, 0, 11, 70
2, 94951, Control_c, 0, 11, 69
2, 94966, Control_c, 0, 11, 68
2, 94981, Control_c, 0, 11, 67
2, 94989, Control_c, 0, 11, 64
2, 94998, Control_c, 0, 11, 61
2, 95007, Control_c, 0, 11, 58
2, 95016, Control_c, 0, 11, 55
2, 95025, Control_c, 0, 11, 52
2, 95034, Control_c, 0, 11, 49
2, 95041, Note_on_c, 0, 76, 0
2, 95041, Note_on_c, 0, 74, 0
2, 96481, Note_on_c, 0, 86, 101
2, 96481, Note_on_c, 0, 78, 101
2, 96481, Control_c, 0, 11, 102
2, 96541, Note_on_c, 0, 78, 0
2, 96541, Note_on_c, 0, 86, 0
2, 96601, Note_on_c, 0, 85, 101
2, 96601, Note_on_c, 0, 79, 101
2, 96661, Note_on_c, 0, 79, 0
2, 96661, Note_on_c, 0, 85, 0
2, 96721, Note_on_c, 0, 78, 101
2, 96721, Note_on_c, 0, 86, 101
2, 96781, Note_on_c, 0, 86, 0
2, 96781, Note_on_c, 0, 78, 0
2, 96841, Control_c, 0, 11, 87
2, 96841, Note_on_c, 0, 74, 101
2, 96856, Control_c, 0, 11, 86
2, 96871, Control_c, 0, 11, 85
2, 96886, Control_c, 0, 11, 84
2, 96901, Control_c, 0, 11, 83
2, 96916, Control_c, 0, 11, 82
2, 96931, Control_c, 0, 11, 81
2, 96946, Control_c, 0, 11, 80
2, 96961, Control_c, 0, 11, 79
2, 96976, Control_c, 0, 11, 78
2, 96991, Control_c, 0, 11, 77
2, 97006, Control_c, 0, 11, 76
2, 97021, Control_c, 0, 11, 75
2, 97036, Control_c, 0, 11, 74
2, 97051, Control_c, 0, 11, 73
2, 97066, Control_c, 0, 11, 72
2, 97081, Control_c, 0, 11, 71
2, 97096, Control_c, 0, 11, 70
2, 97111, Control_c, 0, 11, 69
2, 97126, Control_c, 0, 11, 68
2, 97141, Control_c, 0, 11, 67
2, 97149, Control_c, 0, 11, 64
2, 97158, Control_c, 0, 11, 61
2, 97167, Control_c, 0, 11, 58
2, 97176, Control_c, 0, 11, 55
2, 97185, Control_c, 0, 11, 52
2, 97194, Control_c, 0, 11, 49
2, 97201, Note_on_c, 0, 74, 0
2, 97561, Note_on_c, 0, 74, 101
2, 97561, Note_on_c, 0, 76, 101
2, 97561, Control_c, 0, 11, 87
2, 97576, Control_c, 0, 11, 86
2, 97591, Control_c, 0, 11, 85
2, 97606, Control_c, 0, 11, 84
2, 97621, Control_c, 0, 11, 83
2, 97636, Control_c, 0, 11, 82
2, 97651, Control_c, 0, 11, 81
2, 97666, Control_c, 0, 11, 80
2, 97681, Control_c, 0, 11, 79
2, 97696, Control_c, 0, 11, 78
2, 97711, Control_c, 0, 11, 77
2, 97726, Control_c, 0, 11, 76
2, 97741, Control_c, 0, 11, 75
2, 97756, Control_c, 0, 11, 74
2, 97771, Control_c, 0, 11, 73
2, 97786, Control_c, 0, 11, 72
2, 97801, Control_c, 0, 11, 71
2, 97816, Control_c, 0, 11, 70
2, 97831, Control_c, 0, 11, 69
2, 97846, Control_c, 0, 11, 68
2, 97861, Control_c, 0, 11, 67
2, 97869, Control_c, 0, 11, 64
2, 97878, Control_c, 0, 11, 61
2, 97887, Control_c, 0, 11, 58
2, 97896, Control_c, 0, 11, 55
2, 97905, Control_c, 0, 11, 52
2, 97914, Control_c, 0, 11, 49
2, 97921, Note_on_c, 0, 76, 0
2, 97921, Note_on_c, 0, 74, 0
2, 99001, Control_c, 0, 11, 47
2, 99001, Note_on_c, 0, 85, 101
2, 99061, Note_on_c, 0, 85, 0
2, 99121, Note_on_c, 0, 83, 101
2, 99181, Note_on_c, 0, 83, 0
2, 99241, Note_on_c, 0, 81, 101
2, 99301, Note_on_c, 0, 81, 0
2, 99361, Control_c, 0, 11, 102
2, 99361, Note_on_c, 0, 85, 101
2, 99361, Note_on_c, 0, 88, 101
2, 99421, Note_on_c, 0, 88, 0
2, 99421, Note_on_c, 0, 85, 0
2, 99481, Note_on_c, 0, 83, 101
2, 99481, Note_on_c, 0, 88, 101
2, 99541, Note_on_c, 0, 88, 0
2, 99541, Note_on_c, 0, 83, 0
2, 99601, Note_on_c, 0, 88, 101
2, 99601, Note_on_c, 0, 85, 101
2, 99661, Note_on_c, 0, 85, 0
2, 99661, Note_on_c, 0, 88, 0
2, 99721, Note_on_c, 0, 74, 95
2, 99721, Control_c, 0, 11, 87
2, 99736, Control_c, 0, 11, 86
2, 99751, Control_c, 0, 11, 85
2, 99766, Control_c, 0, 11, 84
2, 99781, Control_c, 0, 11, 83
2, 99796, Control_c, 0, 11, 82
2, 99811, Control_c, 0, 11, 81
2, 99826, Control_c, 0, 11, 80
2, 99841, Control_c, 0, 11, 79
2, 99856, Control_c, 0, 11, 78
2, 99871, Control_c, 0, 11, 77
2, 99886, Control_c, 0, 11, 76
2, 99901, Control_c, 0, 11, 75
2, 99916, Control_c, 0, 11, 74
2, 99931, Control_c, 0, 11, 73
2, 99946, Control_c, 0, 11, 72
2, 99961, Control_c, 0, 11, 71
2, 99976, Control_c, 0, 11, 70
2, 99991, Control_c, 0, 11, 69
2, 100006, Control_c, 0, 11, 68
2, 100021, Control_c, 0, 11, 67
2, 100029, Control_c, 0, 11, 64
2, 100038, Control_c, 0, 11, 61
2, 100047, Control_c, 0, 11, 58
2, 100056, Control_c, 0, 11, 55
2, 100065, Control_c, 0, 11, 52
2, 100074, Control_c, 0, 11, 49
2, 100081, Note_on_c, 0, 74, 0
2, 100441, Note_on_c, 0, 76, 95
2, 100441, Note_on_c, 0, 74, 95
2, 100441, Control_c, 0, 11, 87
2, 100456, Control_c, 0, 11, 86
2, 100471, Control_c, 0, 11, 85
2, 100486, Control_c, 0, 11, 84
2, 100501, Control_c, 0, 11, 83
2, 100516, Control_c, 0, 11, 82
2, 100531, Control_c, 0, 11, 81
2, 100546, Control_c, 0, 11, 80
2, 100561, Control_c, 0, 11, 79
2, 100576, Control_c, 0, 11, 78
2, 100591, Control_c, 0, 11, 77
2, 100606, Control_c, 0, 11, 76
2, 100621, Control_c, 0, 11, 75
2, 100636, Control_c, 0, 11, 74
2, 100651, Control_c, 0, 11, 73
2, 100666, Control_c, 0, 11, 72
2, 100681, Control_c, 0, 11, 71
2, 100696, Control_c, 0, 11, 70
2, 100711, Control_c, 0, 11, 69
2, 100726, Control_c, 0, 11, 68
2, 100741, Control_c, 0, 11, 67
2, 100749, Control_c, 0, 11, 64
2, 100758, Control_c, 0, 11, 61
2, 100767, Control_c, 0, 11, 58
2, 100776, Control_c, 0, 11, 55
2, 100785, Control_c, 0, 11, 52
2, 100794, Control_c, 0, 11, 49
2, 100801, Note_on_c, 0, 74, 0
2, 100801, Note_on_c, 0, 76, 0
2, 102241, Note_on_c, 0, 86, 101
2, 102241, Control_c, 0, 11, 102
2, 102241, Note_on_c, 0, 78, 101
2, 102301, Note_on_c, 0, 78, 0
2, 102301, Note_on_c, 0, 86, 0
2, 102361, Note_on_c, 0, 85, 101
2, 102361, Note_on_c, 0, 79, 101
2, 102421, Note_on_c, 0, 79, 0
2, 102421, Note_on_c, 0, 85, 0
2, 102481, Note_on_c, 0, 86, 101
2, 102481, Note_on_c, 0, 78, 101
2, 102541, Note_on_c, 0, 78, 0
2, 102541, Note_on_c, 0, 86, 0
2, 102601, Control_c, 0, 11, 87
2, 102601, Note_on_c, 0, 74, 101
2, 102616, Control_c, 0, 11, 86
2, 102631, Control_c, 0, 11, 85
2, 102646, Control_c, 0, 11, 84
2, 102661, Control_c, 0, 11, 83
2, 102676, Control_c, 0, 11, 82
2, 102691, Control_c, 0, 11, 81
2, 102706, Control_c, 0, 11, 80
2, 102721, Control_c, 0, 11, 79
2, 102736, Control_c, 0, 11, 78
2, 102751, Control_c, 0, 11, 77
2, 102766, Control_c, 0, 11, 76
2, 102781, Control_c, 0, 11, 75
2, 102796, Control_c, 0, 11, 74
2, 102811, Control_c, 0, 11, 73
2, 102826, Control_c, 0, 11, 72
2, 102841, Control_c, 0, 11, 71
2, 102856, Control_c, 0, 11, 70
2, 102871, Control_c, 0, 11, 69
2, 102886, Control_c, 0, 11, 68
2, 102901, Control_c, 0, 11, 67
2, 102909, Control_c, 0, 11, 64
2, 102918, Control_c, 0, 11, 61
2, 102927, Control_c, 0, 11, 58
2, 102936, Control_c, 0, 11, 55
2, 102945, Control_c, 0, 11, 52
2, 102954, Control_c, 0, 11, 49
2, 102961, Note_on_c, 0, 74, 0
2, 103321, Note_on_c, 0, 74, 101
2, 103321, Note_on_c, 0, 76, 101
2, 103321, Control_c, 0, 11, 87
2, 103336, Control_c, 0, 11, 86
2, 103351, Control_c, 0, 11, 85
2, 103366, Control_c, 0, 11, 84
2, 103381, Control_c, 0, 11, 83
2, 103396, Control_c, 0, 11, 82
2, 103411, Control_c, 0, 11, 81
2, 103426, Control_c, 0, 11, 80
2, 103441, Control_c, 0, 11, 79
2, 103456, Control_c, 0, 11, 78
2, 103471, Control_c, 0, 11, 77
2, 103486, Control_c, 0, 11, 76
2, 103501, Control_c, 0, 11, 75
2, 103516, Control_c, 0, 11, 74
2, 103531, Control_c, 0, 11, 73
2, 103546, Control_c, 0, 11, 72
2, 103561, Control_c, 0, 11, 71
2, 103576, Control_c, 0, 11, 70
2, 103591, Control_c, 0, 11, 69
2, 103606, Control_c, 0, 11, 68
2, 103621, Control_c, 0, 11, 67
2, 103629, Control_c, 0, 11, 64
2, 103638, Control_c, 0, 11, 61
2, 103647, Control_c, 0, 11, 58
2, 103656, Control_c, 0, 11, 55
2, 103665, Control_c, 0, 11, 52
2, 103674, Control_c, 0, 11, 49
2, 103681, Note_on_c, 0, 76, 0
2, 103681, Note_on_c, 0, 74, 0
2, 104761, Note_on_c, 0, 85, 101
2, 104761, Control_c, 0, 11, 47
2, 104821, Note_on_c, 0, 85, 0
2, 104881, Note_on_c, 0, 83, 101
2, 104941, Note_on_c, 0, 83, 0
2, 105001, Note_on_c, 0, 81, 101
2, 105061, Note_on_c, 0, 81, 0
2, 105121, Note_on_c, 0, 85, 101
2, 105121, Note_on_c, 0, 88, 101
2, 105121, Control_c, 0, 11, 102
2, 105181, Note_on_c, 0, 88, 0
2, 105181, Note_on_c, 0, 85, 0
2, 105241, Note_on_c, 0, 83, 101
2, 105241, Note_on_c, 0, 88, 101
2, 105301, Note_on_c, 0, 88, 0
2, 105301, Note_on_c, 0, 83, 0
2, 105361, Note_on_c, 0, 88, 101
2, 105361, Note_on_c, 0, 85, 101
2, 105421, Note_on_c, 0, 85, 0
2, 105421, Note_on_c, 0, 88, 0
2, 108241, Control_c, 0, 11, 52
2, 108241, Note_on_c, 0, 81, 101
2, 108361, Note_on_c, 0, 81, 0
2, 108361, Note_on_c, 0, 82, 101
2, 108421, Note_on_c, 0, 82, 0
2, 108481, Note_on_c, 0, 89, 101
2, 108481, Control_c, 0, 11, 87
2, 108491, Control_c, 0, 11, 84
2, 108501, Control_c, 0, 11, 81
2, 108511, Control_c, 0, 11, 78
2, 108522, Control_c, 0, 11, 75
2, 108532, Control_c, 0, 11, 72
2, 108542, Control_c, 0, 11, 69
2, 108553, Control_c, 0, 11, 66
2, 108563, Control_c, 0, 11, 63
2, 108573, Control_c, 0, 11, 60
2, 108583, Control_c, 0, 11, 57
2, 108594, Control_c, 0, 11, 54
2, 108951, Note_on_c, 0, 89, 0
2, 108961, Note_on_c, 0, 86, 101
2, 109021, Note_on_c, 0, 86, 0
2, 109021, Note_on_c, 0, 82, 101
2, 109071, Note_on_c, 0, 82, 0
2, 109081, Note_on_c, 0, 81, 101
2, 109141, Note_on_c, 0, 81, 0
2, 109141, Note_on_c, 0, 84, 101
2, 109201, Note_on_c, 0, 84, 0
2, 109201, Note_on_c, 0, 87, 101
2, 109261, Note_on_c, 0, 87, 0
2, 109261, Note_on_c, 0, 86, 101
2, 109321, Note_on_c, 0, 86, 0
2, 109321, Note_on_c, 0, 84, 101
2, 109381, Note_on_c, 0, 84, 0
2, 109381, Note_on_c, 0, 82, 101
2, 109441, Note_on_c, 0, 82, 0
2, 109441, Note_on_c, 0, 81, 101
2, 109501, Note_on_c, 0, 81, 0
2, 109501, Note_on_c, 0, 79, 101
2, 109561, Note_on_c, 0, 79, 0
2, 109561, Note_on_c, 0, 77, 101
2, 109621, Note_on_c, 0, 77, 0
2, 109621, Note_on_c, 0, 75, 101
2, 109681, Note_on_c, 0, 75, 0
2, 109681, Note_on_c, 0, 74, 101
2, 109741, Note_on_c, 0, 74, 0
2, 109741, Note_on_c, 0, 72, 101
2, 109791, Note_on_c, 0, 72, 0
2, 109801, Note_on_c, 0, 70, 101
2, 109921, Note_on_c, 0, 70, 0
2, 113401, Control_c, 0, 11, 87
2, 113401, Note_on_c, 0, 74, 101
2, 113416, Control_c, 0, 11, 86
2, 113431, Control_c, 0, 11, 85
2, 113446, Control_c, 0, 11, 84
2, 113461, Control_c, 0, 11, 83
2, 113476, Control_c, 0, 11, 82
2, 113491, Control_c, 0, 11, 81
2, 113506, Control_c, 0, 11, 80
2, 113521, Control_c, 0, 11, 79
2, 113536, Control_c, 0, 11, 78
2, 113551, Control_c, 0, 11, 77
2, 113566, Control_c, 0, 11, 76
2, 113581, Control_c, 0, 11, 75
2, 113596, Control_c, 0, 11, 74
2, 113611, Control_c, 0, 11, 73
2, 113626, Control_c, 0, 11, 72
2, 113641, Control_c, 0, 11, 71
2, 113656, Control_c, 0, 11, 70
2, 113671, Control_c, 0, 11, 69
2, 113686, Control_c, 0, 11, 68
2, 113701, Control_c, 0, 11, 67
2, 113709, Control_c, 0, 11, 64
2, 113718, Control_c, 0, 11, 61
2, 113727, Control_c, 0, 11, 58
2, 113736, Control_c, 0, 11, 55
2, 113745, Control_c, 0, 11, 52
2, 113751, Note_on_c, 0, 74, 0
2, 113754, Control_c, 0, 11, 49
2, 114121, Note_on_c, 0, 76, 101
2, 114121, Control_c, 0, 11, 87
2, 114121, Note_on_c, 0, 74, 101
2, 114136, Control_c, 0, 11, 86
2, 114151, Control_c, 0, 11, 85
2, 114166, Control_c, 0, 11, 84
2, 114181, Control_c, 0, 11, 83
2, 114196, Control_c, 0, 11, 82
2, 114211, Control_c, 0, 11, 81
2, 114226, Control_c, 0, 11, 80
2, 114241, Control_c, 0, 11, 79
2, 114256, Control_c, 0, 11, 78
2, 114271, Control_c, 0, 11, 77
2, 114286, Control_c, 0, 11, 76
2, 114301, Control_c, 0, 11, 75
2, 114316, Control_c, 0, 11, 74
2, 114331, Control_c, 0, 11, 73
2, 114346, Control_c, 0, 11, 72
2, 114361, Control_c, 0, 11, 71
2, 114376, Control_c, 0, 11, 70
2, 114391, Control_c, 0, 11, 69
2, 114406, Control_c, 0, 11, 68
2, 114421, Control_c, 0, 11, 67
2, 114429, Control_c, 0, 11, 64
2, 114438, Control_c, 0, 11, 61
2, 114447, Control_c, 0, 11, 58
2, 114456, Control_c, 0, 11, 55
2, 114465, Control_c, 0, 11, 52
2, 114471, Note_on_c, 0, 74, 0
2, 114471, Note_on_c, 0, 76, 0
2, 114474, Control_c, 0, 11, 49
2, 115921, Note_on_c, 0, 78, 101
2, 115921, Control_c, 0, 11, 102
2, 115921, Note_on_c, 0, 86, 101
2, 115981, Note_on_c, 0, 86, 0
2, 115981, Note_on_c, 0, 78, 0
2, 116041, Note_on_c, 0, 85, 101
2, 116041, Note_on_c, 0, 76, 101
2, 116101, Note_on_c, 0, 76, 0
2, 116101, Note_on_c, 0, 85, 0
2, 116161, Note_on_c, 0, 78, 101
2, 116161, Note_on_c, 0, 86, 101
2, 116221, Note_on_c, 0, 86, 0
2, 116221, Note_on_c, 0, 78, 0
2, 116281, Note_on_c, 0, 74, 101
2, 116281, Control_c, 0, 11, 87
2, 116296, Control_c, 0, 11, 86
2, 116311, Control_c, 0, 11, 85
2, 116326, Control_c, 0, 11, 84
2, 116341, Control_c, 0, 11, 83
2, 116356, Control_c, 0, 11, 82
2, 116371, Control_c, 0, 11, 81
2, 116386, Control_c, 0, 11, 80
2, 116401, Control_c, 0, 11, 79
2, 116416, Control_c, 0, 11, 78
2, 116431, Control_c, 0, 11, 77
2, 116446, Control_c, 0, 11, 76
2, 116461, Control_c, 0, 11, 75
2, 116476, Control_c, 0, 11, 74
2, 116491, Control_c, 0, 11, 73
2, 116506, Control_c, 0, 11, 72
2, 116521, Control_c, 0, 11, 71
2, 116536, Control_c, 0, 11, 70
2, 116551, Control_c, 0, 11, 69
2, 116566, Control_c, 0, 11, 68
2, 116581, Control_c, 0, 11, 67
2, 116589, Control_c, 0, 11, 64
2, 116598, Control_c, 0, 11, 61
2, 116607, Control_c, 0, 11, 58
2, 116616, Control_c, 0, 11, 55
2, 116625, Control_c, 0, 11, 52
2, 116631, Note_on_c, 0, 74, 0
2, 116634, Control_c, 0, 11, 49
2, 117001, Note_on_c, 0, 76, 101
2, 117001, Control_c, 0, 11, 87
2, 117001, Note_on_c, 0, 74, 101
2, 117016, Control_c, 0, 11, 86
2, 117031, Control_c, 0, 11, 85
2, 117046, Control_c, 0, 11, 84
2, 117061, Control_c, 0, 11, 83
2, 117076, Control_c, 0, 11, 82
2, 117091, Control_c, 0, 11, 81
2, 117106, Control_c, 0, 11, 80
2, 117121, Control_c, 0, 11, 79
2, 117136, Control_c, 0, 11, 78
2, 117151, Control_c, 0, 11, 77
2, 117166, Control_c, 0, 11, 76
2, 117181, Control_c, 0, 11, 75
2, 117196, Control_c, 0, 11, 74
2, 117211, Control_c, 0, 11, 73
2, 117226, Control_c, 0, 11, 72
2, 117241, Control_c, 0, 11, 71
2, 117256, Control_c, 0, 11, 70
2, 117271, Control_c, 0, 11, 69
2, 117286, Control_c, 0, 11, 68
2, 117301, Control_c, 0, 11, 67
2, 117309, Control_c, 0, 11, 64
2, 117318, Control_c, 0, 11, 61
2, 117327, Control_c, 0, 11, 58
2, 117336, Control_c, 0, 11, 55
2, 117345, Control_c, 0, 11, 52
2, 117351, Note_on_c, 0, 74, 0
2, 117351, Note_on_c, 0, 76, 0
2, 117354, Control_c, 0, 11, 49
2, 124201, Note_on_c, 0, 81, 101
2, 124201, Control_c, 0, 11, 42
2, 124546, Note_on_c, 0, 81, 0
2, 124561, Note_on_c, 0, 86, 101
2, 124621, Note_on_c, 0, 86, 0
2, 124681, Note_on_c, 0, 85, 101
2, 124741, Note_on_c, 0, 85, 0
2, 124801, Note_on_c, 0, 86, 101
2, 124861, Note_on_c, 0, 86, 0
2, 127801, Control_c, 0, 11, 107
2, 127801, Note_on_c, 0, 85, 101
2, 127819, Control_c, 0, 11, 104
2, 127837, Control_c, 0, 11, 101
2, 127855, Control_c, 0, 11, 98
2, 127873, Control_c, 0, 11, 95
2, 127891, Control_c, 0, 11, 92
2, 127909, Control_c, 0, 11, 89
2, 128146, Note_on_c, 0, 85, 0
2, 128161, Note_on_c, 0, 86, 101
2, 128281, Note_on_c, 0, 86, 0
2, 128521, Note_on_c, 0, 85, 101
2, 128521, Control_c, 0, 11, 102
2, 128521, Note_on_c, 0, 81, 101
2, 129001, Note_on_c, 0, 81, 0
2, 129001, Note_on_c, 0, 85, 0
2, 129001, Note_on_c, 0, 83, 101
2, 129001, Note_on_c, 0, 86, 101
2, 129121, Note_on_c, 0, 86, 0
2, 129121, Note_on_c, 0, 83, 0
2, 129121, Note_on_c, 0, 88, 101
2, 129121, Note_on_c, 0, 85, 101
2, 129226, Note_on_c, 0, 85, 0
2, 129226, Note_on_c, 0, 88, 0
2, 129241, Note_on_c, 0, 90, 101
2, 129241, Note_on_c, 0, 78, 101
2, 129361, Note_on_c, 0, 78, 0
2, 129361, Note_on_c, 0, 90, 0
2, 129481, Note_on_c, 0, 85, 101
2, 129541, Note_on_c, 0, 85, 0
2, 129601, Note_on_c, 0, 86, 101
2, 129661, Note_on_c, 0, 86, 0
2, 129961, Control_c, 0, 121, 0
2, 129961, End_track
3, 0, Start_track
3, 0, MIDI_port, 0
3, 0, Title_t, "2 Oboi"
3, 0, Program_c, 1, 68
3, 0, Control_c, 1, 10, 72
3, 2, Control_c, 1, 121, 0
3, 7, Program_c, 1, 68
3, 12, Pitch_bend_c, 1, 8192
3, 17, Control_c, 1, 11, 87
3, 22, Control_c, 1, 7, 127
3, 27, Control_c, 1, 91, 54
3, 32, Control_c, 1, 93, 0
3, 362, Control_c, 1, 11, 87
3, 362, Note_on_c, 1, 74, 94
3, 377, Control_c, 1, 11, 86
3, 392, Control_c, 1, 11, 85
3, 407, Control_c, 1, 11, 84
3, 422, Control_c, 1, 11, 83
3, 437, Control_c, 1, 11, 82
3, 452, Control_c, 1, 11, 81
3, 467, Control_c, 1, 11, 80
3, 482, Control_c, 1, 11, 79
3, 497, Control_c, 1, 11, 78
3, 512, Control_c, 1, 11, 77
3, 527, Control_c, 1, 11, 76
3, 542, Control_c, 1, 11, 75
3, 557, Control_c, 1, 11, 74
3, 572, Control_c, 1, 11, 73
3, 587, Control_c, 1, 11, 72
3, 602, Control_c, 1, 11, 71
3, 617, Control_c, 1, 11, 70
3, 632, Control_c, 1, 11, 69
3, 647, Control_c, 1, 11, 68
3, 662, Control_c, 1, 11, 67
3, 670, Control_c, 1, 11, 64
3, 679, Control_c, 1, 11, 61
3, 688, Control_c, 1, 11, 58
3, 697, Control_c, 1, 11, 55
3, 706, Control_c, 1, 11, 52
3, 715, Control_c, 1, 11, 49
3, 722, Note_on_c, 1, 74, 0
3, 1082, Note_on_c, 1, 76, 94
3, 1082, Note_on_c, 1, 74, 94
3, 1082, Control_c, 1, 11, 87
3, 1097, Control_c, 1, 11, 86
3, 1112, Control_c, 1, 11, 85
3, 1127, Control_c, 1, 11, 84
3, 1142, Control_c, 1, 11, 83
3, 1157, Control_c, 1, 11, 82
3, 1172, Control_c, 1, 11, 81
3, 1187, Control_c, 1, 11, 80
3, 1202, Control_c, 1, 11, 79
3, 1217, Control_c, 1, 11, 78
3, 1232, Control_c, 1, 11, 77
3, 1247, Control_c, 1, 11, 76
3, 1262, Control_c, 1, 11, 75
3, 1277, Control_c, 1, 11, 74
3, 1292, Control_c, 1, 11, 73
3, 1307, Control_c, 1, 11, 72
3, 1322, Control_c, 1, 11, 71
3, 1337, Control_c, 1, 11, 70
3, 1352, Control_c, 1, 11, 69
3, 1367, Control_c, 1, 11, 68
3, 1382, Control_c, 1, 11, 67
3, 1390, Control_c, 1, 11, 64
3, 1399, Control_c, 1, 11, 61
3, 1408, Control_c, 1, 11, 58
3, 1417, Control_c, 1, 11, 55
3, 1426, Control_c, 1, 11, 52
3, 1435, Control_c, 1, 11, 49
3, 1442, Note_on_c, 1, 74, 0
3, 1442, Note_on_c, 1, 76, 0
3, 2522, Note_on_c, 1, 74, 94
3, 2522, Control_c, 1, 11, 47
3, 2522, Note_on_c, 1, 78, 94
3, 2582, Note_on_c, 1, 78, 0
3, 2582, Note_on_c, 1, 74, 0
3, 2642, Note_on_c, 1, 76, 94
3, 2642, Note_on_c, 1, 69, 94
3, 2702, Note_on_c, 1, 69, 0
3, 2702, Note_on_c, 1, 76, 0
3, 2762, Note_on_c, 1, 66, 94
3, 2762, Note_on_c, 1, 74, 94
3, 2822, Note_on_c, 1, 74, 0
3, 2822, Note_on_c, 1, 66, 0
3, 3242, Note_on_c, 1, 74, 100
3, 3242, Control_c, 1, 11, 87
3, 3257, Control_c, 1, 11, 86
3, 3272, Control_c, 1, 11, 85
3, 3287, Control_c, 1, 11, 84
3, 3302, Control_c, 1, 11, 83
3, 3317, Control_c, 1, 11, 82
3, 3332, Control_c, 1, 11, 81
3, 3347, Control_c, 1, 11, 80
3, 3362, Control_c, 1, 11, 79
3, 3377, Control_c, 1, 11, 78
3, 3392, Control_c, 1, 11, 77
3, 3407, Control_c, 1, 11, 76
3, 3422, Control_c, 1, 11, 75
3, 3437, Control_c, 1, 11, 74
3, 3452, Control_c, 1, 11, 73
3, 3467, Control_c, 1, 11, 72
3, 3482, Control_c, 1, 11, 71
3, 3497, Control_c, 1, 11, 70
3, 3512, Control_c, 1, 11, 69
3, 3527, Control_c, 1, 11, 68
3, 3542, Control_c, 1, 11, 67
3, 3550, Control_c, 1, 11, 64
3, 3559, Control_c, 1, 11, 61
3, 3568, Control_c, 1, 11, 58
3, 3577, Control_c, 1, 11, 55
3, 3586, Control_c, 1, 11, 52
3, 3595, Control_c, 1, 11, 49
3, 3602, Note_on_c, 1, 74, 0
3, 3962, Note_on_c, 1, 76, 100
3, 3962, Note_on_c, 1, 74, 100
3, 3962, Control_c, 1, 11, 87
3, 3977, Control_c, 1, 11, 86
3, 3992, Control_c, 1, 11, 85
3, 4007, Control_c, 1, 11, 84
3, 4022, Control_c, 1, 11, 83
3, 4037, Control_c, 1, 11, 82
3, 4052, Control_c, 1, 11, 81
3, 4067, Control_c, 1, 11, 80
3, 4082, Control_c, 1, 11, 79
3, 4097, Control_c, 1, 11, 78
3, 4112, Control_c, 1, 11, 77
3, 4127, Control_c, 1, 11, 76
3, 4142, Control_c, 1, 11, 75
3, 4157, Control_c, 1, 11, 74
3, 4172, Control_c, 1, 11, 73
3, 4187, Control_c, 1, 11, 72
3, 4202, Control_c, 1, 11, 71
3, 4217, Control_c, 1, 11, 70
3, 4232, Control_c, 1, 11, 69
3, 4247, Control_c, 1, 11, 68
3, 4262, Control_c, 1, 11, 67
3, 4270, Control_c, 1, 11, 64
3, 4279, Control_c, 1, 11, 61
3, 4288, Control_c, 1, 11, 58
3, 4297, Control_c, 1, 11, 55
3, 4306, Control_c, 1, 11, 52
3, 4315, Control_c, 1, 11, 49
3, 4322, Note_on_c, 1, 74, 0
3, 4322, Note_on_c, 1, 76, 0
3, 4682, Note_on_c, 1, 73, 100
3, 4682, Note_on_c, 1, 69, 100
3, 4682, Control_c, 1, 11, 47
3, 4742, Note_on_c, 1, 69, 0
3, 4742, Note_on_c, 1, 73, 0
3, 4802, Note_on_c, 1, 71, 100
3, 4802, Note_on_c, 1, 74, 100
3, 4862, Note_on_c, 1, 74, 0
3, 4862, Note_on_c, 1, 71, 0
3, 4922, Note_on_c, 1, 76, 100
3, 4922, Note_on_c, 1, 73, 100
3, 4982, Note_on_c, 1, 73, 0
3, 4982, Note_on_c, 1, 76, 0
3, 5402, Control_c, 1, 11, 47
3, 5402, Note_on_c, 1, 73, 100
3, 5402, Note_on_c, 1, 81, 100
3, 5462, Note_on_c, 1, 81, 0
3, 5462, Note_on_c, 1, 73, 0
3, 5522, Note_on_c, 1, 80, 100
3, 5522, Note_on_c, 1, 71, 100
3, 5582, Note_on_c, 1, 71, 0
3, 5582, Note_on_c, 1, 80, 0
3, 5642, Note_on_c, 1, 81, 100
3, 5642, Note_on_c, 1, 73, 100
3, 5702, Note_on_c, 1, 73, 0
3, 5702, Note_on_c, 1, 81, 0
3, 6122, Note_on_c, 1, 74, 94
3, 6122, Control_c, 1, 11, 87
3, 6137, Control_c, 1, 11, 86
3, 6152, Control_c, 1, 11, 85
3, 6167, Control_c, 1, 11, 84
3, 6182, Control_c, 1, 11, 83
3, 6197, Control_c, 1, 11, 82
3, 6212, Control_c, 1, 11, 81
3, 6227, Control_c, 1, 11, 80
3, 6242, Control_c, 1, 11, 79
3, 6257, Control_c, 1, 11, 78
3, 6272, Control_c, 1, 11, 77
3, 6287, Control_c, 1, 11, 76
3, 6302, Control_c, 1, 11, 75
3, 6317, Control_c, 1, 11, 74
3, 6332, Control_c, 1, 11, 73
3, 6347, Control_c, 1, 11, 72
3, 6362, Control_c, 1, 11, 71
3, 6377, Control_c, 1, 11, 70
3, 6392, Control_c, 1, 11, 69
3, 6407, Control_c, 1, 11, 68
3, 6422, Control_c, 1, 11, 67
3, 6430, Control_c, 1, 11, 64
3, 6439, Control_c, 1, 11, 61
3, 6448, Control_c, 1, 11, 58
3, 6457, Control_c, 1, 11, 55
3, 6466, Control_c, 1, 11, 52
3, 6475, Control_c, 1, 11, 49
3, 6482, Note_on_c, 1, 74, 0
3, 6842, Note_on_c, 1, 74, 94
3, 6842, Note_on_c, 1, 76, 94
3, 6842, Control_c, 1, 11, 87
3, 6857, Control_c, 1, 11, 86
3, 6872, Control_c, 1, 11, 85
3, 6887, Control_c, 1, 11, 84
3, 6902, Control_c, 1, 11, 83
3, 6917, Control_c, 1, 11, 82
3, 6932, Control_c, 1, 11, 81
3, 6947, Control_c, 1, 11, 80
3, 6962, Control_c, 1, 11, 79
3, 6977, Control_c, 1, 11, 78
3, 6992, Control_c, 1, 11, 77
3, 7007, Control_c, 1, 11, 76
3, 7022, Control_c, 1, 11, 75
3, 7037, Control_c, 1, 11, 74
3, 7052, Control_c, 1, 11, 73
3, 7067, Control_c, 1, 11, 72
3, 7082, Control_c, 1, 11, 71
3, 7097, Control_c, 1, 11, 70
3, 7112, Control_c, 1, 11, 69
3, 7127, Control_c, 1, 11, 68
3, 7142, Control_c, 1, 11, 67
3, 7150, Control_c, 1, 11, 64
3, 7159, Control_c, 1, 11, 61
3, 7168, Control_c, 1, 11, 58
3, 7177, Control_c, 1, 11, 55
3, 7186, Control_c, 1, 11, 52
3, 7195, Control_c, 1, 11, 49
3, 7202, Note_on_c, 1, 76, 0
3, 7202, Note_on_c, 1, 74, 0
3, 8282, Note_on_c, 1, 74, 94
3, 8282, Control_c, 1, 11, 47
3, 8282, Note_on_c, 1, 78, 94
3, 8342, Note_on_c, 1, 78, 0
3, 8342, Note_on_c, 1, 74, 0
3, 8402, Note_on_c, 1, 76, 94
3, 8402, Note_on_c, 1, 69, 94
3, 8462, Note_on_c, 1, 69, 0
3, 8462, Note_on_c, 1, 76, 0
3, 8522, Note_on_c, 1, 66, 94
3, 8522, Note_on_c, 1, 74, 94
3, 8582, Note_on_c, 1, 74, 0
3, 8582, Note_on_c, 1, 66, 0
3, 9002, Note_on_c, 1, 74, 100
3, 9002, Control_c, 1, 11, 87
3, 9017, Control_c, 1, 11, 86
3, 9032, Control_c, 1, 11, 85
3, 9047, Control_c, 1, 11, 84
3, 9062, Control_c, 1, 11, 83
3, 9077, Control_c, 1, 11, 82
3, 9092, Control_c, 1, 11, 81
3, 9107, Control_c, 1, 11, 80
3, 9122, Control_c, 1, 11, 79
3, 9137, Control_c, 1, 11, 78
3, 9152, Control_c, 1, 11, 77
3, 9167, Control_c, 1, 11, 76
3, 9182, Control_c, 1, 11, 75
3, 9197, Control_c, 1, 11, 74
3, 9212, Control_c, 1, 11, 73
3, 9227, Control_c, 1, 11, 72
3, 9242, Control_c, 1, 11, 71
3, 9257, Control_c, 1, 11, 70
3, 9272, Control_c, 1, 11, 69
3, 9287, Control_c, 1, 11, 68
3, 9302, Control_c, 1, 11, 67
3, 9310, Control_c, 1, 11, 64
3, 9319, Control_c, 1, 11, 61
3, 9328, Control_c, 1, 11, 58
3, 9337, Control_c, 1, 11, 55
3, 9346, Control_c, 1, 11, 52
3, 9355, Control_c, 1, 11, 49
3, 9362, Note_on_c, 1, 74, 0
3, 9722, Note_on_c, 1, 74, 100
3, 9722, Note_on_c, 1, 76, 100
3, 9722, Control_c, 1, 11, 87
3, 9737, Control_c, 1, 11, 86
3, 9752, Control_c, 1, 11, 85
3, 9767, Control_c, 1, 11, 84
3, 9782, Control_c, 1, 11, 83
3, 9797, Control_c, 1, 11, 82
3, 9812, Control_c, 1, 11, 81
3, 9827, Control_c, 1, 11, 80
3, 9842, Control_c, 1, 11, 79
3, 9857, Control_c, 1, 11, 78
3, 9872, Control_c, 1, 11, 77
3, 9887, Control_c, 1, 11, 76
3, 9902, Control_c, 1, 11, 75
3, 9917, Control_c, 1, 11, 74
3, 9932, Control_c, 1, 11, 73
3, 9947, Control_c, 1, 11, 72
3, 9962, Control_c, 1, 11, 71
3, 9977, Control_c, 1, 11, 70
3, 9992, Control_c, 1, 11, 69
3, 10007, Control_c, 1, 11, 68
3, 10022, Control_c, 1, 11, 67
3, 10030, Control_c, 1, 11, 64
3, 10039, Control_c, 1, 11, 61
3, 10048, Control_c, 1, 11, 58
3, 10057, Control_c, 1, 11, 55
3, 10066, Control_c, 1, 11, 52
3, 10075, Control_c, 1, 11, 49
3, 10082, Note_on_c, 1, 76, 0
3, 10082, Note_on_c, 1, 74, 0
3, 10442, Note_on_c, 1, 69, 100
3, 10442, Note_on_c, 1, 73, 100
3, 10442, Control_c, 1, 11, 47
3, 10502, Note_on_c, 1, 73, 0
3, 10502, Note_on_c, 1, 69, 0
3, 10562, Note_on_c, 1, 71, 100
3, 10562, Note_on_c, 1, 74, 100
3, 10622, Note_on_c, 1, 74, 0
3, 10622, Note_on_c, 1, 71, 0
3, 10682, Note_on_c, 1, 73, 100
3, 10682, Note_on_c, 1, 76, 100
3, 10742, Note_on_c, 1, 76, 0
3, 10742, Note_on_c, 1, 73, 0
3, 11162, Control_c, 1, 11, 47
3, 11162, Note_on_c, 1, 81, 100
3, 11162, Note_on_c, 1, 73, 100
3, 11222, Note_on_c, 1, 73, 0
3, 11222, Note_on_c, 1, 81, 0
3, 11282, Note_on_c, 1, 80, 100
3, 11282, Note_on_c, 1, 71, 100
3, 11342, Note_on_c, 1, 71, 0
3, 11342, Note_on_c, 1, 80, 0
3, 11402, Note_on_c, 1, 73, 100
3, 11402, Note_on_c, 1, 81, 100
3, 11462, Note_on_c, 1, 81, 0
3, 11462, Note_on_c, 1, 73, 0
3, 14762, Note_on_c, 1, 70, 100
3, 14762, Control_c, 1, 11, 52
3, 14762, Note_on_c, 1, 74, 100
3, 14822, Note_on_c, 1, 74, 0
3, 14822, Note_on_c, 1, 70, 0
3, 14882, Note_on_c, 1, 74, 100
3, 14882, Note_on_c, 1, 70, 100
3, 14882, Control_c, 1, 11, 87
3, 14892, Control_c, 1, 11, 84
3, 14902, Control_c, 1, 11, 81
3, 14912, Control_c, 1, 11, 78
3, 14923, Control_c, 1, 11, 75
3, 14933, Control_c, 1, 11, 72
3, 14943, Control_c, 1, 11, 69
3, 14954, Control_c, 1, 11, 66
3, 14964, Control_c, 1, 11, 63
3, 14974, Control_c, 1, 11, 60
3, 14984, Control_c, 1, 11, 57
3, 14995, Control_c, 1, 11, 54
3, 15472, Note_on_c, 1, 70, 0
3, 15472, Note_on_c, 1, 74, 0
3, 15482, Note_on_c, 1, 72, 100
3, 15482, Note_on_c, 1, 75, 100
3, 16192, Note_on_c, 1, 75, 0
3, 16192, Note_on_c, 1, 72, 0
3, 16202, Note_on_c, 1, 70, 100
3, 16202, Note_on_c, 1, 74, 100
3, 16322, Note_on_c, 1, 74, 0
3, 16322, Note_on_c, 1, 70, 0
3, 19802, Note_on_c, 1, 74, 100
3, 19802, Control_c, 1, 11, 87
3, 19817, Control_c, 1, 11, 86
3, 19832, Control_c, 1, 11, 85
3, 19847, Control_c, 1, 11, 84
3, 19862, Control_c, 1, 11, 83
3, 19877, Control_c, 1, 11, 82
3, 19892, Control_c, 1, 11, 81
3, 19907, Control_c, 1, 11, 80
3, 19922, Control_c, 1, 11, 79
3, 19937, Control_c, 1, 11, 78
3, 19952, Control_c, 1, 11, 77
3, 19967, Control_c, 1, 11, 76
3, 19982, Control_c, 1, 11, 75
3, 19997, Control_c, 1, 11, 74
3, 20012, Control_c, 1, 11, 73
3, 20027, Control_c, 1, 11, 72
3, 20042, Control_c, 1, 11, 71
3, 20057, Control_c, 1, 11, 70
3, 20072, Control_c, 1, 11, 69
3, 20087, Control_c, 1, 11, 68
3, 20102, Control_c, 1, 11, 67
3, 20110, Control_c, 1, 11, 64
3, 20119, Control_c, 1, 11, 61
3, 20128, Control_c, 1, 11, 58
3, 20137, Control_c, 1, 11, 55
3, 20146, Control_c, 1, 11, 52
3, 20152, Note_on_c, 1, 74, 0
3, 20155, Control_c, 1, 11, 49
3, 20522, Note_on_c, 1, 76, 100
3, 20522, Note_on_c, 1, 74, 100
3, 20522, Control_c, 1, 11, 87
3, 20537, Control_c, 1, 11, 86
3, 20552, Control_c, 1, 11, 85
3, 20567, Control_c, 1, 11, 84
3, 20582, Control_c, 1, 11, 83
3, 20597, Control_c, 1, 11, 82
3, 20612, Control_c, 1, 11, 81
3, 20627, Control_c, 1, 11, 80
3, 20642, Control_c, 1, 11, 79
3, 20657, Control_c, 1, 11, 78
3, 20672, Control_c, 1, 11, 77
3, 20687, Control_c, 1, 11, 76
3, 20702, Control_c, 1, 11, 75
3, 20717, Control_c, 1, 11, 74
3, 20732, Control_c, 1, 11, 73
3, 20747, Control_c, 1, 11, 72
3, 20762, Control_c, 1, 11, 71
3, 20777, Control_c, 1, 11, 70
3, 20792, Control_c, 1, 11, 69
3, 20807, Control_c, 1, 11, 68
3, 20822, Control_c, 1, 11, 67
3, 20830, Control_c, 1, 11, 64
3, 20839, Control_c, 1, 11, 61
3, 20848, Control_c, 1, 11, 58
3, 20857, Control_c, 1, 11, 55
3, 20866, Control_c, 1, 11, 52
3, 20872, Note_on_c, 1, 74, 0
3, 20872, Note_on_c, 1, 76, 0
3, 20875, Control_c, 1, 11, 49
3, 21962, Note_on_c, 1, 78, 100
3, 21962, Control_c, 1, 11, 47
3, 21962, Note_on_c, 1, 74, 100
3, 22022, Note_on_c, 1, 74, 0
3, 22022, Note_on_c, 1, 78, 0
3, 22082, Note_on_c, 1, 76, 100
3, 22082, Note_on_c, 1, 69, 100
3, 22142, Note_on_c, 1, 69, 0
3, 22142, Note_on_c, 1, 76, 0
3, 22202, Note_on_c, 1, 66, 100
3, 22202, Note_on_c, 1, 74, 100
3, 22262, Note_on_c, 1, 74, 0
3, 22262, Note_on_c, 1, 66, 0
3, 22322, Note_on_c, 1, 74, 100
3, 22322, Note_on_c, 1, 78, 100
3, 22322, Control_c, 1, 11, 102
3, 22382, Note_on_c, 1, 78, 0
3, 22382, Note_on_c, 1, 74, 0
3, 22442, Note_on_c, 1, 76, 100
3, 22442, Note_on_c, 1, 79, 100
3, 22502, Note_on_c, 1, 79, 0
3, 22502, Note_on_c, 1, 76, 0
3, 22562, Note_on_c, 1, 78, 100
3, 22562, Note_on_c, 1, 74, 100
3, 22622, Note_on_c, 1, 74, 0
3, 22622, Note_on_c, 1, 78, 0
3, 22682, Note_on_c, 1, 74, 100
3, 22682, Control_c, 1, 11, 87
3, 22697, Control_c, 1, 11, 86
3, 22712, Control_c, 1, 11, 85
3, 22727, Control_c, 1, 11, 84
3, 22742, Control_c, 1, 11, 83
3, 22757, Control_c, 1, 11, 82
3, 22772, Control_c, 1, 11, 81
3, 22787, Control_c, 1, 11, 80
3, 22802, Control_c, 1, 11, 79
3, 22817, Control_c, 1, 11, 78
3, 22832, Control_c, 1, 11, 77
3, 22847, Control_c, 1, 11, 76
3, 22862, Control_c, 1, 11, 75
3, 22877, Control_c, 1, 11, 74
3, 22892, Control_c, 1, 11, 73
3, 22907, Control_c, 1, 11, 72
3, 22922, Control_c, 1, 11, 71
3, 22937, Control_c, 1, 11, 70
3, 22952, Control_c, 1, 11, 69
3, 22967, Control_c, 1, 11, 68
3, 22982, Control_c, 1, 11, 67
3, 22990, Control_c, 1, 11, 64
3, 22999, Control_c, 1, 11, 61
3, 23008, Control_c, 1, 11, 58
3, 23017, Control_c, 1, 11, 55
3, 23026, Control_c, 1, 11, 52
3, 23032, Note_on_c, 1, 74, 0
3, 23035, Control_c, 1, 11, 49
3, 23402, Note_on_c, 1, 74, 100
3, 23402, Note_on_c, 1, 76, 100
3, 23402, Control_c, 1, 11, 87
3, 23417, Control_c, 1, 11, 86
3, 23432, Control_c, 1, 11, 85
3, 23447, Control_c, 1, 11, 84
3, 23462, Control_c, 1, 11, 83
3, 23477, Control_c, 1, 11, 82
3, 23492, Control_c, 1, 11, 81
3, 23507, Control_c, 1, 11, 80
3, 23522, Control_c, 1, 11, 79
3, 23537, Control_c, 1, 11, 78
3, 23552, Control_c, 1, 11, 77
3, 23567, Control_c, 1, 11, 76
3, 23582, Control_c, 1, 11, 75
3, 23597, Control_c, 1, 11, 74
3, 23612, Control_c, 1, 11, 73
3, 23627, Control_c, 1, 11, 72
3, 23642, Control_c, 1, 11, 71
3, 23657, Control_c, 1, 11, 70
3, 23672, Control_c, 1, 11, 69
3, 23687, Control_c, 1, 11, 68
3, 23702, Control_c, 1, 11, 67
3, 23710, Control_c, 1, 11, 64
3, 23719, Control_c, 1, 11, 61
3, 23728, Control_c, 1, 11, 58
3, 23737, Control_c, 1, 11, 55
3, 23746, Control_c, 1, 11, 52
3, 23752, Note_on_c, 1, 76, 0
3, 23752, Note_on_c, 1, 74, 0
3, 23755, Control_c, 1, 11, 49
3, 27002, Note_on_c, 1, 72, 100
3, 27002, Control_c, 1, 11, 42
3, 27347, Note_on_c, 1, 72, 0
3, 27362, Note_on_c, 1, 77, 100
3, 27422, Note_on_c, 1, 77, 0
3, 27482, Note_on_c, 1, 76, 100
3, 27542, Note_on_c, 1, 76, 0
3, 27602, Note_on_c, 1, 77, 100
3, 27662, Note_on_c, 1, 77, 0
3, 27722, Note_on_c, 1, 69, 100
3, 28067, Note_on_c, 1, 69, 0
3, 28082, Note_on_c, 1, 74, 100
3, 28142, Note_on_c, 1, 74, 0
3, 28202, Note_on_c, 1, 73, 100
3, 28262, Note_on_c, 1, 73, 0
3, 28322, Note_on_c, 1, 74, 100
3, 28382, Note_on_c, 1, 74, 0
3, 29882, Note_on_c, 1, 72, 100
3, 29882, Control_c, 1, 11, 42
3, 30227, Note_on_c, 1, 72, 0
3, 30242, Note_on_c, 1, 77, 100
3, 30302, Note_on_c, 1, 77, 0
3, 30362, Note_on_c, 1, 76, 100
3, 30422, Note_on_c, 1, 76, 0
3, 30482, Note_on_c, 1, 77, 100
3, 30542, Note_on_c, 1, 77, 0
3, 30602, Note_on_c, 1, 69, 100
3, 30947, Note_on_c, 1, 69, 0
3, 30962, Note_on_c, 1, 74, 100
3, 31022, Note_on_c, 1, 74, 0
3, 31082, Note_on_c, 1, 73, 100
3, 31142, Note_on_c, 1, 73, 0
3, 31202, Note_on_c, 1, 74, 100
3, 31262, Note_on_c, 1, 74, 0
3, 34922, Note_on_c, 1, 69, 100
3, 34922, Control_c, 1, 11, 102
3, 34922, Note_on_c, 1, 81, 100
3, 35402, Note_on_c, 1, 81, 0
3, 35402, Note_on_c, 1, 69, 0
3, 35402, Note_on_c, 1, 68, 100
3, 35402, Note_on_c, 1, 80, 100
3, 35522, Note_on_c, 1, 80, 0
3, 35522, Note_on_c, 1, 68, 0
3, 35522, Note_on_c, 1, 79, 100
3, 35522, Note_on_c, 1, 67, 100
3, 35627, Note_on_c, 1, 67, 0
3, 35627, Note_on_c, 1, 79, 0
3, 35642, Note_on_c, 1, 78, 100
3, 35642, Note_on_c, 1, 66, 100
3, 35762, Note_on_c, 1, 66, 0
3, 35762, Note_on_c, 1, 78, 0
3, 35882, Note_on_c, 1, 76, 100
3, 35882, Note_on_c, 1, 73, 100
3, 35942, Note_on_c, 1, 73, 0
3, 35942, Note_on_c, 1, 76, 0
3, 36002, Note_on_c, 1, 74, 100
3, 36002, Note_on_c, 1, 78, 100
3, 36062, Note_on_c, 1, 78, 0
3, 36062, Note_on_c, 1, 74, 0
3, 39242, Control_c, 1, 11, 52
3, 39242, Note_on_c, 1, 70, 100
3, 39242, Note_on_c, 1, 74, 100
3, 39302, Note_on_c, 1, 74, 0
3, 39302, Note_on_c, 1, 70, 0
3, 39362, Note_on_c, 1, 74, 100
3, 39362, Control_c, 1, 11, 87
3, 39362, Note_on_c, 1, 70, 100
3, 39372, Control_c, 1, 11, 84
3, 39382, Control_c, 1, 11, 81
3, 39392, Control_c, 1, 11, 78
3, 39403, Control_c, 1, 11, 75
3, 39413, Control_c, 1, 11, 72
3, 39423, Control_c, 1, 11, 69
3, 39434, Control_c, 1, 11, 66
3, 39444, Control_c, 1, 11, 63
3, 39454, Control_c, 1, 11, 60
3, 39464, Control_c, 1, 11, 57
3, 39475, Control_c, 1, 11, 54
3, 39952, Note_on_c, 1, 70, 0
3, 39952, Note_on_c, 1, 74, 0
3, 39962, Note_on_c, 1, 72, 100
3, 39962, Note_on_c, 1, 75, 100
3, 40672, Note_on_c, 1, 75, 0
3, 40672, Note_on_c, 1, 72, 0
3, 40682, Note_on_c, 1, 70, 100
3, 40682, Note_on_c, 1, 74, 100
3, 40802, Note_on_c, 1, 74, 0
3, 40802, Note_on_c, 1, 70, 0
3, 44282, Note_on_c, 1, 74, 100
3, 44282, Control_c, 1, 11, 87
3, 44297, Control_c, 1, 11, 86
3, 44312, Control_c, 1, 11, 85
3, 44327, Control_c, 1, 11, 84
3, 44342, Control_c, 1, 11, 83
3, 44357, Control_c, 1, 11, 82
3, 44372, Control_c, 1, 11, 81
3, 44387, Control_c, 1, 11, 80
3, 44402, Control_c, 1, 11, 79
3, 44417, Control_c, 1, 11, 78
3, 44432, Control_c, 1, 11, 77
3, 44447, Control_c, 1, 11, 76
3, 44462, Control_c, 1, 11, 75
3, 44477, Control_c, 1, 11, 74
3, 44492, Control_c, 1, 11, 73
3, 44507, Control_c, 1, 11, 72
3, 44522, Control_c, 1, 11, 71
3, 44537, Control_c, 1, 11, 70
3, 44552, Control_c, 1, 11, 69
3, 44567, Control_c, 1, 11, 68
3, 44582, Control_c, 1, 11, 67
3, 44590, Control_c, 1, 11, 64
3, 44599, Control_c, 1, 11, 61
3, 44608, Control_c, 1, 11, 58
3, 44617, Control_c, 1, 11, 55
3, 44626, Control_c, 1, 11, 52
3, 44632, Note_on_c, 1, 74, 0
3, 44635, Control_c, 1, 11, 49
3, 45002, Note_on_c, 1, 74, 100
3, 45002, Note_on_c, 1, 76, 100
3, 45002, Control_c, 1, 11, 87
3, 45017, Control_c, 1, 11, 86
3, 45032, Control_c, 1, 11, 85
3, 45047, Control_c, 1, 11, 84
3, 45062, Control_c, 1, 11, 83
3, 45077, Control_c, 1, 11, 82
3, 45092, Control_c, 1, 11, 81
3, 45107, Control_c, 1, 11, 80
3, 45122, Control_c, 1, 11, 79
3, 45137, Control_c, 1, 11, 78
3, 45152, Control_c, 1, 11, 77
3, 45167, Control_c, 1, 11, 76
3, 45182, Control_c, 1, 11, 75
3, 45197, Control_c, 1, 11, 74
3, 45212, Control_c, 1, 11, 73
3, 45227, Control_c, 1, 11, 72
3, 45242, Control_c, 1, 11, 71
3, 45257, Control_c, 1, 11, 70
3, 45272, Control_c, 1, 11, 69
3, 45287, Control_c, 1, 11, 68
3, 45302, Control_c, 1, 11, 67
3, 45310, Control_c, 1, 11, 64
3, 45319, Control_c, 1, 11, 61
3, 45328, Control_c, 1, 11, 58
3, 45337, Control_c, 1, 11, 55
3, 45346, Control_c, 1, 11, 52
3, 45352, Note_on_c, 1, 76, 0
3, 45352, Note_on_c, 1, 74, 0
3, 45355, Control_c, 1, 11, 49
3, 46442, Note_on_c, 1, 74, 100
3, 46442, Control_c, 1, 11, 47
3, 46442, Note_on_c, 1, 78, 100
3, 46502, Note_on_c, 1, 78, 0
3, 46502, Note_on_c, 1, 74, 0
3, 46562, Note_on_c, 1, 69, 100
3, 46562, Note_on_c, 1, 76, 100
3, 46622, Note_on_c, 1, 76, 0
3, 46622, Note_on_c, 1, 69, 0
3, 46682, Note_on_c, 1, 66, 100
3, 46682, Note_on_c, 1, 74, 100
3, 46742, Note_on_c, 1, 74, 0
3, 46742, Note_on_c, 1, 66, 0
3, 46802, Note_on_c, 1, 74, 100
3, 46802, Note_on_c, 1, 78, 100
3, 46802, Control_c, 1, 11, 102
3, 46862, Note_on_c, 1, 78, 0
3, 46862, Note_on_c, 1, 74, 0
3, 46922, Note_on_c, 1, 79, 100
3, 46922, Note_on_c, 1, 76, 100
3, 46982, Note_on_c, 1, 76, 0
3, 46982, Note_on_c, 1, 79, 0
3, 47042, Note_on_c, 1, 74, 100
3, 47042, Note_on_c, 1, 78, 100
3, 47102, Note_on_c, 1, 78, 0
3, 47102, Note_on_c, 1, 74, 0
3, 47162, Note_on_c, 1, 74, 100
3, 47162, Control_c, 1, 11, 87
3, 47177, Control_c, 1, 11, 86
3, 47192, Control_c, 1, 11, 85
3, 47207, Control_c, 1, 11, 84
3, 47222, Control_c, 1, 11, 83
3, 47237, Control_c, 1, 11, 82
3, 47252, Control_c, 1, 11, 81
3, 47267, Control_c, 1, 11, 80
3, 47282, Control_c, 1, 11, 79
3, 47297, Control_c, 1, 11, 78
3, 47312, Control_c, 1, 11, 77
3, 47327, Control_c, 1, 11, 76
3, 47342, Control_c, 1, 11, 75
3, 47357, Control_c, 1, 11, 74
3, 47372, Control_c, 1, 11, 73
3, 47387, Control_c, 1, 11, 72
3, 47402, Control_c, 1, 11, 71
3, 47417, Control_c, 1, 11, 70
3, 47432, Control_c, 1, 11, 69
3, 47447, Control_c, 1, 11, 68
3, 47462, Control_c, 1, 11, 67
3, 47470, Control_c, 1, 11, 64
3, 47479, Control_c, 1, 11, 61
3, 47488, Control_c, 1, 11, 58
3, 47497, Control_c, 1, 11, 55
3, 47506, Control_c, 1, 11, 52
3, 47512, Note_on_c, 1, 74, 0
3, 47515, Control_c, 1, 11, 49
3, 47882, Note_on_c, 1, 76, 100
3, 47882, Note_on_c, 1, 74, 100
3, 47882, Control_c, 1, 11, 87
3, 47897, Control_c, 1, 11, 86
3, 47912, Control_c, 1, 11, 85
3, 47927, Control_c, 1, 11, 84
3, 47942, Control_c, 1, 11, 83
3, 47957, Control_c, 1, 11, 82
3, 47972, Control_c, 1, 11, 81
3, 47987, Control_c, 1, 11, 80
3, 48002, Control_c, 1, 11, 79
3, 48017, Control_c, 1, 11, 78
3, 48032, Control_c, 1, 11, 77
3, 48047, Control_c, 1, 11, 76
3, 48062, Control_c, 1, 11, 75
3, 48077, Control_c, 1, 11, 74
3, 48092, Control_c, 1, 11, 73
3, 48107, Control_c, 1, 11, 72
3, 48122, Control_c, 1, 11, 71
3, 48137, Control_c, 1, 11, 70
3, 48152, Control_c, 1, 11, 69
3, 48167, Control_c, 1, 11, 68
3, 48182, Control_c, 1, 11, 67
3, 48190, Control_c, 1, 11, 64
3, 48199, Control_c, 1, 11, 61
3, 48208, Control_c, 1, 11, 58
3, 48217, Control_c, 1, 11, 55
3, 48226, Control_c, 1, 11, 52
3, 48232, Note_on_c, 1, 74, 0
3, 48232, Note_on_c, 1, 76, 0
3, 48235, Control_c, 1, 11, 49
3, 51482, Control_c, 1, 11, 42
3, 51482, Note_on_c, 1, 72, 100
3, 51827, Note_on_c, 1, 72, 0
3, 51842, Note_on_c, 1, 77, 100
3, 51902, Note_on_c, 1, 77, 0
3, 51962, Note_on_c, 1, 76, 100
3, 52022, Note_on_c, 1, 76, 0
3, 52082, Note_on_c, 1, 77, 100
3, 52142, Note_on_c, 1, 77, 0
3, 52202, Note_on_c, 1, 69, 100
3, 52547, Note_on_c, 1, 69, 0
3, 52562, Note_on_c, 1, 74, 100
3, 52622, Note_on_c, 1, 74, 0
3, 52682, Note_on_c, 1, 73, 100
3, 52742, Note_on_c, 1, 73, 0
3, 52802, Note_on_c, 1, 74, 100
3, 52862, Note_on_c, 1, 74, 0
3, 54362, Control_c, 1, 11, 42
3, 54362, Note_on_c, 1, 72, 100
3, 54707, Note_on_c, 1, 72, 0
3, 54722, Note_on_c, 1, 77, 100
3, 54782, Note_on_c, 1, 77, 0
3, 54842, Note_on_c, 1, 76, 100
3, 54902, Note_on_c, 1, 76, 0
3, 54962, Note_on_c, 1, 77, 100
3, 55022, Note_on_c, 1, 77, 0
3, 55082, Note_on_c, 1, 69, 100
3, 55427, Note_on_c, 1, 69, 0
3, 55442, Note_on_c, 1, 74, 100
3, 55502, Note_on_c, 1, 74, 0
3, 55562, Note_on_c, 1, 73, 100
3, 55622, Note_on_c, 1, 73, 0
3, 55682, Note_on_c, 1, 74, 100
3, 55742, Note_on_c, 1, 74, 0
3, 59402, Control_c, 1, 11, 102
3, 59402, Note_on_c, 1, 69, 100
3, 59402, Note_on_c, 1, 81, 100
3, 59882, Note_on_c, 1, 81, 0
3, 59882, Note_on_c, 1, 69, 0
3, 59882, Note_on_c, 1, 68, 100
3, 59882, Note_on_c, 1, 80, 100
3, 60002, Note_on_c, 1, 80, 0
3, 60002, Note_on_c, 1, 68, 0
3, 60002, Note_on_c, 1, 67, 100
3, 60002, Note_on_c, 1, 79, 100
3, 60107, Note_on_c, 1, 79, 0
3, 60107, Note_on_c, 1, 67, 0
3, 60122, Note_on_c, 1, 66, 100
3, 60122, Note_on_c, 1, 78, 100
3, 60242, Note_on_c, 1, 78, 0
3, 60242, Note_on_c, 1, 66, 0
3, 60362, Note_on_c, 1, 73, 100
3, 60362, Note_on_c, 1, 76, 100
3, 60422, Note_on_c, 1, 76, 0
3, 60422, Note_on_c, 1, 73, 0
3, 60482, Note_on_c, 1, 78, 100
3, 60482, Note_on_c, 1, 74, 100
3, 60542, Note_on_c, 1, 74, 0
3, 60542, Note_on_c, 1, 78, 0
3, 71642, Note_on_c, 1, 81, 100
3, 71642, Note_on_c, 1, 69, 100
3, 71642, Control_c, 1, 11, 102
3, 72362, Note_on_c, 1, 69, 0
3, 72362, Note_on_c, 1, 81, 0
3, 72362, Note_on_c, 1, 78, 100
3, 72362, Note_on_c, 1, 74, 100
3, 72362, Control_c, 1, 11, 87
3, 72371, Control_c, 1, 11, 84
3, 72380, Control_c, 1, 11, 81
3, 72389, Control_c, 1, 11, 78
3, 72398, Control_c, 1, 11, 75
3, 72407, Control_c, 1, 11, 72
3, 72416, Control_c, 1, 11, 69
3, 72425, Control_c, 1, 11, 66
3, 72434, Control_c, 1, 11, 63
3, 72443, Control_c, 1, 11, 60
3, 72452, Control_c, 1, 11, 57
3, 72461, Control_c, 1, 11, 54
3, 72470, Control_c, 1, 11, 51
3, 72479, Control_c, 1, 11, 48
3, 72722, Note_on_c, 1, 78, 0
3, 72722, Note_on_c, 1, 79, 100
3, 72842, Note_on_c, 1, 74, 0
3, 72842, Note_on_c, 1, 73, 100
3, 72962, Note_on_c, 1, 73, 0
3, 72962, Note_on_c, 1, 71, 100
3, 73082, Note_on_c, 1, 71, 0
3, 73082, Note_on_c, 1, 79, 0
3, 73082, Note_on_c, 1, 69, 100
3, 73082, Note_on_c, 1, 81, 100
3, 73202, Note_on_c, 1, 81, 0
3, 73202, Note_on_c, 1, 69, 0
3, 73202, Note_on_c, 1, 79, 100
3, 73202, Note_on_c, 1, 73, 100
3, 73322, Note_on_c, 1, 73, 0
3, 73322, Note_on_c, 1, 79, 0
3, 73322, Note_on_c, 1, 74, 100
3, 73322, Note_on_c, 1, 78, 100
3, 73382, Note_on_c, 1, 78, 0
3, 73382, Note_on_c, 1, 74, 0
3, 73442, Note_on_c, 1, 76, 100
3, 73442, Note_on_c, 1, 73, 100
3, 73562, Note_on_c, 1, 73, 0
3, 73562, Note_on_c, 1, 76, 0
3, 73682, Note_on_c, 1, 75, 100
3, 73682, Note_on_c, 1, 78, 100
3, 73742, Note_on_c, 1, 78, 0
3, 73742, Note_on_c, 1, 75, 0
3, 73802, Note_on_c, 1, 76, 100
3, 73802, Control_c, 1, 11, 52
3, 73802, Note_on_c, 1, 79, 100
3, 73826, Control_c, 1, 11, 53
3, 73850, Control_c, 1, 11, 54
3, 73874, Control_c, 1, 11, 55
3, 73898, Control_c, 1, 11, 56
3, 73922, Control_c, 1, 11, 57
3, 73946, Control_c, 1, 11, 58
3, 73970, Control_c, 1, 11, 59
3, 73994, Control_c, 1, 11, 60
3, 74018, Control_c, 1, 11, 61
3, 74042, Control_c, 1, 11, 62
3, 74066, Control_c, 1, 11, 63
3, 74090, Control_c, 1, 11, 64
3, 74114, Control_c, 1, 11, 65
3, 74138, Control_c, 1, 11, 66
3, 74162, Note_on_c, 1, 79, 0
3, 74162, Control_c, 1, 11, 69
3, 74162, Note_on_c, 1, 81, 100
3, 74176, Control_c, 1, 11, 72
3, 74190, Control_c, 1, 11, 75
3, 74205, Control_c, 1, 11, 78
3, 74222, Control_c, 1, 11, 77
3, 74240, Control_c, 1, 11, 74
3, 74258, Control_c, 1, 11, 71
3, 74276, Control_c, 1, 11, 68
3, 74282, Note_on_c, 1, 76, 0
3, 74282, Note_on_c, 1, 74, 100
3, 74294, Control_c, 1, 11, 66
3, 74318, Control_c, 1, 11, 64
3, 74342, Control_c, 1, 11, 62
3, 74366, Control_c, 1, 11, 60
3, 74390, Control_c, 1, 11, 58
3, 74402, Note_on_c, 1, 74, 0
3, 74402, Note_on_c, 1, 73, 100
3, 74414, Control_c, 1, 11, 56
3, 74438, Control_c, 1, 11, 54
3, 74462, Control_c, 1, 11, 52
3, 74486, Control_c, 1, 11, 50
3, 74510, Control_c, 1, 11, 48
3, 74522, Note_on_c, 1, 73, 0
3, 74522, Note_on_c, 1, 81, 0
3, 74522, Note_on_c, 1, 78, 100
3, 74522, Note_on_c, 1, 74, 100
3, 74642, Note_on_c, 1, 74, 0
3, 74642, Note_on_c, 1, 78, 0
3, 74642, Note_on_c, 1, 79, 100
3, 74642, Note_on_c, 1, 76, 100
3, 74762, Note_on_c, 1, 76, 0
3, 74762, Note_on_c, 1, 79, 0
3, 74762, Note_on_c, 1, 73, 100
3, 74762, Note_on_c, 1, 76, 100
3, 74822, Note_on_c, 1, 76, 0
3, 74822, Note_on_c, 1, 73, 0
3, 74882, Note_on_c, 1, 74, 100
3, 75002, Note_on_c, 1, 74, 0
3, 77642, Control_c, 1, 11, 57
3, 77642, Note_on_c, 1, 76, 100
3, 77642, Note_on_c, 1, 73, 100
3, 77702, Note_on_c, 1, 73, 0
3, 77702, Note_on_c, 1, 76, 0
3, 77762, Note_on_c, 1, 78, 100
3, 77762, Note_on_c, 1, 74, 100
3, 77882, Note_on_c, 1, 74, 0
3, 77882, Note_on_c, 1, 78, 0
3, 77882, Note_on_c, 1, 76, 100
3, 77882, Note_on_c, 1, 79, 100
3, 78002, Note_on_c, 1, 79, 0
3, 78002, Note_on_c, 1, 76, 0
3, 78002, Note_on_c, 1, 73, 100
3, 78002, Note_on_c, 1, 76, 100
3, 78062, Note_on_c, 1, 76, 0
3, 78062, Note_on_c, 1, 73, 0
3, 78122, Note_on_c, 1, 74, 100
3, 78242, Note_on_c, 1, 74, 0
3, 78362, Note_on_c, 1, 76, 100
3, 78362, Note_on_c, 1, 73, 100
3, 78422, Note_on_c, 1, 73, 0
3, 78422, Note_on_c, 1, 76, 0
3, 78482, Control_c, 1, 11, 57
3, 78482, Note_on_c, 1, 78, 100
3, 78482, Note_on_c, 1, 74, 100
3, 78554, Control_c, 1, 11, 58
3, 78602, Note_on_c, 1, 74, 0
3, 78602, Note_on_c, 1, 78, 0
3, 78602, Note_on_c, 1, 79, 100
3, 78602, Note_on_c, 1, 76, 100
3, 78626, Control_c, 1, 11, 59
3, 78698, Control_c, 1, 11, 60
3, 78722, Note_on_c, 1, 76, 0
3, 78722, Note_on_c, 1, 79, 0
3, 78722, Note_on_c, 1, 76, 100
3, 78722, Note_on_c, 1, 73, 100
3, 78770, Control_c, 1, 11, 61
3, 78782, Note_on_c, 1, 73, 0
3, 78782, Note_on_c, 1, 76, 0
3, 78842, Control_c, 1, 11, 62
3, 78842, Note_on_c, 1, 74, 100
3, 78842, Note_on_c, 1, 78, 100
3, 78914, Control_c, 1, 11, 63
3, 78962, Note_on_c, 1, 78, 0
3, 78962, Note_on_c, 1, 74, 0
3, 78962, Note_on_c, 1, 76, 100
3, 78962, Note_on_c, 1, 79, 100
3, 78986, Control_c, 1, 11, 64
3, 79058, Control_c, 1, 11, 65
3, 79082, Note_on_c, 1, 79, 0
3, 79082, Note_on_c, 1, 76, 0
3, 79082, Note_on_c, 1, 73, 100
3, 79082, Note_on_c, 1, 76, 100
3, 79130, Control_c, 1, 11, 66
3, 79142, Note_on_c, 1, 76, 0
3, 79142, Note_on_c, 1, 73, 0
3, 79202, Control_c, 1, 11, 67
3, 79202, Note_on_c, 1, 74, 100
3, 79202, Note_on_c, 1, 78, 100
3, 79322, Note_on_c, 1, 78, 0
3, 79322, Note_on_c, 1, 74, 0
3, 79322, Note_on_c, 1, 79, 100
3, 79322, Note_on_c, 1, 76, 100
3, 79442, Note_on_c, 1, 76, 0
3, 79442, Note_on_c, 1, 79, 0
3, 79442, Note_on_c, 1, 76, 100
3, 79442, Note_on_c, 1, 73, 100
3, 79442, Control_c, 1, 11, 47
3, 79502, Note_on_c, 1, 73, 0
3, 79502, Note_on_c, 1, 76, 0
3, 79562, Note_on_c, 1, 74, 100
3, 79562, Note_on_c, 1, 78, 100
3, 79682, Note_on_c, 1, 78, 0
3, 79682, Note_on_c, 1, 74, 0
3, 79682, Note_on_c, 1, 79, 100
3, 79682, Note_on_c, 1, 76, 100
3, 79802, Note_on_c, 1, 76, 0
3, 79802, Note_on_c, 1, 79, 0
3, 79802, Note_on_c, 1, 73, 100
3, 79802, Note_on_c, 1, 76, 100
3, 79862, Note_on_c, 1, 76, 0
3, 79862, Note_on_c, 1, 73, 0
3, 79922, Note_on_c, 1, 74, 100
3, 80042, Note_on_c, 1, 74, 0
3, 85322, Note_on_c, 1, 81, 100
3, 85322, Note_on_c, 1, 69, 100
3, 85322, Control_c, 1, 11, 102
3, 86042, Note_on_c, 1, 69, 0
3, 86042, Note_on_c, 1, 81, 0
3, 86042, Note_on_c, 1, 78, 100
3, 86042, Note_on_c, 1, 74, 100
3, 86042, Control_c, 1, 11, 87
3, 86051, Control_c, 1, 11, 84
3, 86060, Control_c, 1, 11, 81
3, 86069, Control_c, 1, 11, 78
3, 86078, Control_c, 1, 11, 75
3, 86087, Control_c, 1, 11, 72
3, 86096, Control_c, 1, 11, 69
3, 86105, Control_c, 1, 11, 66
3, 86114, Control_c, 1, 11, 63
3, 86123, Control_c, 1, 11, 60
3, 86132, Control_c, 1, 11, 57
3, 86141, Control_c, 1, 11, 54
3, 86150, Control_c, 1, 11, 51
3, 86159, Control_c, 1, 11, 48
3, 86402, Note_on_c, 1, 78, 0
3, 86402, Note_on_c, 1, 79, 100
3, 86522, Note_on_c, 1, 74, 0
3, 86522, Note_on_c, 1, 73, 100
3, 86642, Note_on_c, 1, 73, 0
3, 86642, Note_on_c, 1, 71, 100
3, 86762, Note_on_c, 1, 71, 0
3, 86762, Note_on_c, 1, 79, 0
3, 86762, Note_on_c, 1, 69, 100
3, 86762, Note_on_c, 1, 81, 100
3, 86882, Note_on_c, 1, 81, 0
3, 86882, Note_on_c, 1, 69, 0
3, 86882, Note_on_c, 1, 79, 100
3, 86882, Note_on_c, 1, 73, 100
3, 87002, Note_on_c, 1, 73, 0
3, 87002, Note_on_c, 1, 79, 0
3, 87002, Note_on_c, 1, 74, 100
3, 87002, Note_on_c, 1, 78, 100
3, 87062, Note_on_c, 1, 78, 0
3, 87062, Note_on_c, 1, 74, 0
3, 87122, Note_on_c, 1, 76, 100
3, 87122, Note_on_c, 1, 73, 100
3, 87242, Note_on_c, 1, 73, 0
3, 87242, Note_on_c, 1, 76, 0
3, 87362, Note_on_c, 1, 75, 100
3, 87362, Note_on_c, 1, 78, 100
3, 87422, Note_on_c, 1, 78, 0
3, 87422, Note_on_c, 1, 75, 0
3, 87482, Note_on_c, 1, 79, 100
3, 87482, Note_on_c, 1, 76, 100
3, 87482, Control_c, 1, 11, 52
3, 87506, Control_c, 1, 11, 53
3, 87530, Control_c, 1, 11, 54
3, 87554, Control_c, 1, 11, 55
3, 87578, Control_c, 1, 11, 56
3, 87602, Control_c, 1, 11, 57
3, 87626, Control_c, 1, 11, 58
3, 87650, Control_c, 1, 11, 59
3, 87674, Control_c, 1, 11, 60
3, 87698, Control_c, 1, 11, 61
3, 87722, Control_c, 1, 11, 62
3, 87746, Control_c, 1, 11, 63
3, 87770, Control_c, 1, 11, 64
3, 87794, Control_c, 1, 11, 65
3, 87818, Control_c, 1, 11, 66
3, 87842, Note_on_c, 1, 79, 0
3, 87842, Control_c, 1, 11, 69
3, 87842, Note_on_c, 1, 81, 100
3, 87856, Control_c, 1, 11, 72
3, 87870, Control_c, 1, 11, 75
3, 87885, Control_c, 1, 11, 78
3, 87902, Control_c, 1, 11, 77
3, 87920, Control_c, 1, 11, 74
3, 87938, Control_c, 1, 11, 71
3, 87956, Control_c, 1, 11, 68
3, 87962, Note_on_c, 1, 76, 0
3, 87962, Note_on_c, 1, 74, 100
3, 87974, Control_c, 1, 11, 66
3, 87998, Control_c, 1, 11, 64
3, 88022, Control_c, 1, 11, 62
3, 88046, Control_c, 1, 11, 60
3, 88070, Control_c, 1, 11, 58
3, 88082, Note_on_c, 1, 74, 0
3, 88082, Note_on_c, 1, 73, 100
3, 88094, Control_c, 1, 11, 56
3, 88118, Control_c, 1, 11, 54
3, 88142, Control_c, 1, 11, 52
3, 88166, Control_c, 1, 11, 50
3, 88190, Control_c, 1, 11, 48
3, 88202, Note_on_c, 1, 73, 0
3, 88202, Note_on_c, 1, 81, 0
3, 88202, Note_on_c, 1, 78, 100
3, 88202, Note_on_c, 1, 74, 100
3, 88322, Note_on_c, 1, 74, 0
3, 88322, Note_on_c, 1, 78, 0
3, 88322, Note_on_c, 1, 79, 100
3, 88322, Note_on_c, 1, 76, 100
3, 88442, Note_on_c, 1, 76, 0
3, 88442, Note_on_c, 1, 79, 0
3, 88442, Note_on_c, 1, 76, 100
3, 88442, Note_on_c, 1, 73, 100
3, 88502, Note_on_c, 1, 73, 0
3, 88502, Note_on_c, 1, 76, 0
3, 88562, Note_on_c, 1, 74, 100
3, 88682, Note_on_c, 1, 74, 0
3, 91322, Note_on_c, 1, 73, 100
3, 91322, Note_on_c, 1, 76, 100
3, 91322, Control_c, 1, 11, 57
3, 91382, Note_on_c, 1, 76, 0
3, 91382, Note_on_c, 1, 73, 0
3, 91442, Note_on_c, 1, 74, 100
3, 91442, Note_on_c, 1, 78, 100
3, 91562, Note_on_c, 1, 78, 0
3, 91562, Note_on_c, 1, 74, 0
3, 91562, Note_on_c, 1, 79, 100
3, 91562, Note_on_c, 1, 76, 100
3, 91682, Note_on_c, 1, 76, 0
3, 91682, Note_on_c, 1, 79, 0
3, 91682, Note_on_c, 1, 76, 100
3, 91682, Note_on_c, 1, 73, 100
3, 91742, Note_on_c, 1, 73, 0
3, 91742, Note_on_c, 1, 76, 0
3, 91802, Note_on_c, 1, 74, 100
3, 91922, Note_on_c, 1, 74, 0
3, 92042, Note_on_c, 1, 73, 100
3, 92042, Note_on_c, 1, 76, 100
3, 92102, Note_on_c, 1, 76, 0
3, 92102, Note_on_c, 1, 73, 0
3, 92162, Note_on_c, 1, 74, 100
3, 92162, Note_on_c, 1, 78, 100
3, 92162, Control_c, 1, 11, 57
3, 92234, Control_c, 1, 11, 58
3, 92282, Note_on_c, 1, 78, 0
3, 92282, Note_on_c, 1, 74, 0
3, 92282, Note_on_c, 1, 79, 100
3, 92282, Note_on_c, 1, 76, 100
3, 92306, Control_c, 1, 11, 59
3, 92378, Control_c, 1, 11, 60
3, 92402, Note_on_c, 1, 76, 0
3, 92402, Note_on_c, 1, 79, 0
3, 92402, Note_on_c, 1, 73, 100
3, 92402, Note_on_c, 1, 76, 100
3, 92450, Control_c, 1, 11, 61
3, 92462, Note_on_c, 1, 76, 0
3, 92462, Note_on_c, 1, 73, 0
3, 92522, Control_c, 1, 11, 62
3, 92522, Note_on_c, 1, 78, 100
3, 92522, Note_on_c, 1, 74, 100
3, 92594, Control_c, 1, 11, 63
3, 92642, Note_on_c, 1, 74, 0
3, 92642, Note_on_c, 1, 78, 0
3, 92642, Note_on_c, 1, 76, 100
3, 92642, Note_on_c, 1, 79, 100
3, 92666, Control_c, 1, 11, 64
3, 92738, Control_c, 1, 11, 65
3, 92762, Note_on_c, 1, 79, 0
3, 92762, Note_on_c, 1, 76, 0
3, 92762, Note_on_c, 1, 76, 100
3, 92762, Note_on_c, 1, 73, 100
3, 92810, Control_c, 1, 11, 66
3, 92822, Note_on_c, 1, 73, 0
3, 92822, Note_on_c, 1, 76, 0
3, 92882, Note_on_c, 1, 74, 100
3, 92882, Control_c, 1, 11, 67
3, 92882, Note_on_c, 1, 78, 100
3, 93002, Note_on_c, 1, 78, 0
3, 93002, Note_on_c, 1, 74, 0
3, 93002, Note_on_c, 1, 79, 100
3, 93002, Note_on_c, 1, 76, 100
3, 93122, Note_on_c, 1, 76, 0
3, 93122, Note_on_c, 1, 79, 0
3, 93122, Control_c, 1, 11, 47
3, 93122, Note_on_c, 1, 73, 100
3, 93122, Note_on_c, 1, 76, 100
3, 93182, Note_on_c, 1, 76, 0
3, 93182, Note_on_c, 1, 73, 0
3, 93242, Note_on_c, 1, 78, 100
3, 93242, Note_on_c, 1, 74, 100
3, 93362, Note_on_c, 1, 74, 0
3, 93362, Note_on_c, 1, 78, 0
3, 93362, Note_on_c, 1, 76, 100
3, 93362, Note_on_c, 1, 79, 100
3, 93482, Note_on_c, 1, 79, 0
3, 93482, Note_on_c, 1, 76, 0
3, 93482, Note_on_c, 1, 73, 100
3, 93482, Note_on_c, 1, 76, 100
3, 93542, Note_on_c, 1, 76, 0
3, 93542, Note_on_c, 1, 73, 0
3, 93602, Note_on_c, 1, 74, 100
3, 93722, Note_on_c, 1, 74, 0
3, 93962, Note_on_c, 1, 74, 94
3, 93962, Control_c, 1, 11, 87
3, 93977, Control_c, 1, 11, 86
3, 93992, Control_c, 1, 11, 85
3, 94007, Control_c, 1, 11, 84
3, 94022, Control_c, 1, 11, 83
3, 94037, Control_c, 1, 11, 82
3, 94052, Control_c, 1, 11, 81
3, 94067, Control_c, 1, 11, 80
3, 94082, Control_c, 1, 11, 79
3, 94097, Control_c, 1, 11, 78
3, 94112, Control_c, 1, 11, 77
3, 94127, Control_c, 1, 11, 76
3, 94142, Control_c, 1, 11, 75
3, 94157, Control_c, 1, 11, 74
3, 94172, Control_c, 1, 11, 73
3, 94187, Control_c, 1, 11, 72
3, 94202, Control_c, 1, 11, 71
3, 94217, Control_c, 1, 11, 70
3, 94232, Control_c, 1, 11, 69
3, 94247, Control_c, 1, 11, 68
3, 94262, Control_c, 1, 11, 67
3, 94270, Control_c, 1, 11, 64
3, 94279, Control_c, 1, 11, 61
3, 94288, Control_c, 1, 11, 58
3, 94297, Control_c, 1, 11, 55
3, 94306, Control_c, 1, 11, 52
3, 94315, Control_c, 1, 11, 49
3, 94322, Note_on_c, 1, 74, 0
3, 94682, Note_on_c, 1, 76, 94
3, 94682, Note_on_c, 1, 74, 94
3, 94682, Control_c, 1, 11, 87
3, 94697, Control_c, 1, 11, 86
3, 94712, Control_c, 1, 11, 85
3, 94727, Control_c, 1, 11, 84
3, 94742, Control_c, 1, 11, 83
3, 94757, Control_c, 1, 11, 82
3, 94772, Control_c, 1, 11, 81
3, 94787, Control_c, 1, 11, 80
3, 94802, Control_c, 1, 11, 79
3, 94817, Control_c, 1, 11, 78
3, 94832, Control_c, 1, 11, 77
3, 94847, Control_c, 1, 11, 76
3, 94862, Control_c, 1, 11, 75
3, 94877, Control_c, 1, 11, 74
3, 94892, Control_c, 1, 11, 73
3, 94907, Control_c, 1, 11, 72
3, 94922, Control_c, 1, 11, 71
3, 94937, Control_c, 1, 11, 70
3, 94952, Control_c, 1, 11, 69
3, 94967, Control_c, 1, 11, 68
3, 94982, Control_c, 1, 11, 67
3, 94990, Control_c, 1, 11, 64
3, 94999, Control_c, 1, 11, 61
3, 95008, Control_c, 1, 11, 58
3, 95017, Control_c, 1, 11, 55
3, 95026, Control_c, 1, 11, 52
3, 95035, Control_c, 1, 11, 49
3, 95042, Note_on_c, 1, 74, 0
3, 95042, Note_on_c, 1, 76, 0
3, 96122, Note_on_c, 1, 74, 94
3, 96122, Control_c, 1, 11, 47
3, 96122, Note_on_c, 1, 78, 94
3, 96182, Note_on_c, 1, 78, 0
3, 96182, Note_on_c, 1, 74, 0
3, 96242, Note_on_c, 1, 76, 94
3, 96242, Note_on_c, 1, 69, 94
3, 96302, Note_on_c, 1, 69, 0
3, 96302, Note_on_c, 1, 76, 0
3, 96362, Note_on_c, 1, 74, 94
3, 96362, Note_on_c, 1, 66, 94
3, 96422, Note_on_c, 1, 66, 0
3, 96422, Note_on_c, 1, 74, 0
3, 96842, Note_on_c, 1, 74, 100
3, 96842, Control_c, 1, 11, 87
3, 96857, Control_c, 1, 11, 86
3, 96872, Control_c, 1, 11, 85
3, 96887, Control_c, 1, 11, 84
3, 96902, Control_c, 1, 11, 83
3, 96917, Control_c, 1, 11, 82
3, 96932, Control_c, 1, 11, 81
3, 96947, Control_c, 1, 11, 80
3, 96962, Control_c, 1, 11, 79
3, 96977, Control_c, 1, 11, 78
3, 96992, Control_c, 1, 11, 77
3, 97007, Control_c, 1, 11, 76
3, 97022, Control_c, 1, 11, 75
3, 97037, Control_c, 1, 11, 74
3, 97052, Control_c, 1, 11, 73
3, 97067, Control_c, 1, 11, 72
3, 97082, Control_c, 1, 11, 71
3, 97097, Control_c, 1, 11, 70
3, 97112, Control_c, 1, 11, 69
3, 97127, Control_c, 1, 11, 68
3, 97142, Control_c, 1, 11, 67
3, 97150, Control_c, 1, 11, 64
3, 97159, Control_c, 1, 11, 61
3, 97168, Control_c, 1, 11, 58
3, 97177, Control_c, 1, 11, 55
3, 97186, Control_c, 1, 11, 52
3, 97195, Control_c, 1, 11, 49
3, 97202, Note_on_c, 1, 74, 0
3, 97562, Control_c, 1, 11, 87
3, 97562, Note_on_c, 1, 74, 100
3, 97562, Note_on_c, 1, 76, 100
3, 97577, Control_c, 1, 11, 86
3, 97592, Control_c, 1, 11, 85
3, 97607, Control_c, 1, 11, 84
3, 97622, Control_c, 1, 11, 83
3, 97637, Control_c, 1, 11, 82
3, 97652, Control_c, 1, 11, 81
3, 97667, Control_c, 1, 11, 80
3, 97682, Control_c, 1, 11, 79
3, 97697, Control_c, 1, 11, 78
3, 97712, Control_c, 1, 11, 77
3, 97727, Control_c, 1, 11, 76
3, 97742, Control_c, 1, 11, 75
3, 97757, Control_c, 1, 11, 74
3, 97772, Control_c, 1, 11, 73
3, 97787, Control_c, 1, 11, 72
3, 97802, Control_c, 1, 11, 71
3, 97817, Control_c, 1, 11, 70
3, 97832, Control_c, 1, 11, 69
3, 97847, Control_c, 1, 11, 68
3, 97862, Control_c, 1, 11, 67
3, 97870, Control_c, 1, 11, 64
3, 97879, Control_c, 1, 11, 61
3, 97888, Control_c, 1, 11, 58
3, 97897, Control_c, 1, 11, 55
3, 97906, Control_c, 1, 11, 52
3, 97915, Control_c, 1, 11, 49
3, 97922, Note_on_c, 1, 76, 0
3, 97922, Note_on_c, 1, 74, 0
3, 98282, Note_on_c, 1, 73, 100
3, 98282, Control_c, 1, 11, 47
3, 98282, Note_on_c, 1, 69, 100
3, 98342, Note_on_c, 1, 69, 0
3, 98342, Note_on_c, 1, 73, 0
3, 98402, Note_on_c, 1, 71, 100
3, 98402, Note_on_c, 1, 74, 100
3, 98462, Note_on_c, 1, 74, 0
3, 98462, Note_on_c, 1, 71, 0
3, 98522, Note_on_c, 1, 73, 100
3, 98522, Note_on_c, 1, 76, 100
3, 98582, Note_on_c, 1, 76, 0
3, 98582, Note_on_c, 1, 73, 0
3, 99002, Note_on_c, 1, 81, 100
3, 99002, Control_c, 1, 11, 47
3, 99002, Note_on_c, 1, 73, 100
3, 99062, Note_on_c, 1, 73, 0
3, 99062, Note_on_c, 1, 81, 0
3, 99122, Note_on_c, 1, 71, 100
3, 99122, Note_on_c, 1, 80, 100
3, 99182, Note_on_c, 1, 80, 0
3, 99182, Note_on_c, 1, 71, 0
3, 99242, Note_on_c, 1, 73, 100
3, 99242, Note_on_c, 1, 81, 100
3, 99302, Note_on_c, 1, 81, 0
3, 99302, Note_on_c, 1, 73, 0
3, 99722, Note_on_c, 1, 74, 94
3, 99722, Control_c, 1, 11, 87
3, 99737, Control_c, 1, 11, 86
3, 99752, Control_c, 1, 11, 85
3, 99767, Control_c, 1, 11, 84
3, 99782, Control_c, 1, 11, 83
3, 99797, Control_c, 1, 11, 82
3, 99812, Control_c, 1, 11, 81
3, 99827, Control_c, 1, 11, 80
3, 99842, Control_c, 1, 11, 79
3, 99857, Control_c, 1, 11, 78
3, 99872, Control_c, 1, 11, 77
3, 99887, Control_c, 1, 11, 76
3, 99902, Control_c, 1, 11, 75
3, 99917, Control_c, 1, 11, 74
3, 99932, Control_c, 1, 11, 73
3, 99947, Control_c, 1, 11, 72
3, 99962, Control_c, 1, 11, 71
3, 99977, Control_c, 1, 11, 70
3, 99992, Control_c, 1, 11, 69
3, 100007, Control_c, 1, 11, 68
3, 100022, Control_c, 1, 11, 67
3, 100030, Control_c, 1, 11, 64
3, 100039, Control_c, 1, 11, 61
3, 100048, Control_c, 1, 11, 58
3, 100057, Control_c, 1, 11, 55
3, 100066, Control_c, 1, 11, 52
3, 100075, Control_c, 1, 11, 49
3, 100082, Note_on_c, 1, 74, 0
3, 100442, Note_on_c, 1, 74, 94
3, 100442, Note_on_c, 1, 76, 94
3, 100442, Control_c, 1, 11, 87
3, 100457, Control_c, 1, 11, 86
3, 100472, Control_c, 1, 11, 85
3, 100487, Control_c, 1, 11, 84
3, 100502, Control_c, 1, 11, 83
3, 100517, Control_c, 1, 11, 82
3, 100532, Control_c, 1, 11, 81
3, 100547, Control_c, 1, 11, 80
3, 100562, Control_c, 1, 11, 79
3, 100577, Control_c, 1, 11, 78
3, 100592, Control_c, 1, 11, 77
3, 100607, Control_c, 1, 11, 76
3, 100622, Control_c, 1, 11, 75
3, 100637, Control_c, 1, 11, 74
3, 100652, Control_c, 1, 11, 73
3, 100667, Control_c, 1, 11, 72
3, 100682, Control_c, 1, 11, 71
3, 100697, Control_c, 1, 11, 70
3, 100712, Control_c, 1, 11, 69
3, 100727, Control_c, 1, 11, 68
3, 100742, Control_c, 1, 11, 67
3, 100750, Control_c, 1, 11, 64
3, 100759, Control_c, 1, 11, 61
3, 100768, Control_c, 1, 11, 58
3, 100777, Control_c, 1, 11, 55
3, 100786, Control_c, 1, 11, 52
3, 100795, Control_c, 1, 11, 49
3, 100802, Note_on_c, 1, 76, 0
3, 100802, Note_on_c, 1, 74, 0
3, 101882, Control_c, 1, 11, 47
3, 101882, Note_on_c, 1, 74, 94
3, 101882, Note_on_c, 1, 78, 94
3, 101942, Note_on_c, 1, 78, 0
3, 101942, Note_on_c, 1, 74, 0
3, 102002, Note_on_c, 1, 69, 94
3, 102002, Note_on_c, 1, 76, 94
3, 102062, Note_on_c, 1, 76, 0
3, 102062, Note_on_c, 1, 69, 0
3, 102122, Note_on_c, 1, 66, 94
3, 102122, Note_on_c, 1, 74, 94
3, 102182, Note_on_c, 1, 74, 0
3, 102182, Note_on_c, 1, 66, 0
3, 102602, Control_c, 1, 11, 87
3, 102602, Note_on_c, 1, 74, 100
3, 102617, Control_c, 1, 11, 86
3, 102632, Control_c, 1, 11, 85
3, 102647, Control_c, 1, 11, 84
3, 102662, Control_c, 1, 11, 83
3, 102677, Control_c, 1, 11, 82
3, 102692, Control_c, 1, 11, 81
3, 102707, Control_c, 1, 11, 80
3, 102722, Control_c, 1, 11, 79
3, 102737, Control_c, 1, 11, 78
3, 102752, Control_c, 1, 11, 77
3, 102767, Control_c, 1, 11, 76
3, 102782, Control_c, 1, 11, 75
3, 102797, Control_c, 1, 11, 74
3, 102812, Control_c, 1, 11, 73
3, 102827, Control_c, 1, 11, 72
3, 102842, Control_c, 1, 11, 71
3, 102857, Control_c, 1, 11, 70
3, 102872, Control_c, 1, 11, 69
3, 102887, Control_c, 1, 11, 68
3, 102902, Control_c, 1, 11, 67
3, 102910, Control_c, 1, 11, 64
3, 102919, Control_c, 1, 11, 61
3, 102928, Control_c, 1, 11, 58
3, 102937, Control_c, 1, 11, 55
3, 102946, Control_c, 1, 11, 52
3, 102955, Control_c, 1, 11, 49
3, 102962, Note_on_c, 1, 74, 0
3, 103322, Note_on_c, 1, 76, 100
3, 103322, Note_on_c, 1, 74, 100
3, 103322, Control_c, 1, 11, 87
3, 103337, Control_c, 1, 11, 86
3, 103352, Control_c, 1, 11, 85
3, 103367, Control_c, 1, 11, 84
3, 103382, Control_c, 1, 11, 83
3, 103397, Control_c, 1, 11, 82
3, 103412, Control_c, 1, 11, 81
3, 103427, Control_c, 1, 11, 80
3, 103442, Control_c, 1, 11, 79
3, 103457, Control_c, 1, 11, 78
3, 103472, Control_c, 1, 11, 77
3, 103487, Control_c, 1, 11, 76
3, 103502, Control_c, 1, 11, 75
3, 103517, Control_c, 1, 11, 74
3, 103532, Control_c, 1, 11, 73
3, 103547, Control_c, 1, 11, 72
3, 103562, Control_c, 1, 11, 71
3, 103577, Control_c, 1, 11, 70
3, 103592, Control_c, 1, 11, 69
3, 103607, Control_c, 1, 11, 68
3, 103622, Control_c, 1, 11, 67
3, 103630, Control_c, 1, 11, 64
3, 103639, Control_c, 1, 11, 61
3, 103648, Control_c, 1, 11, 58
3, 103657, Control_c, 1, 11, 55
3, 103666, Control_c, 1, 11, 52
3, 103675, Control_c, 1, 11, 49
3, 103682, Note_on_c, 1, 74, 0
3, 103682, Note_on_c, 1, 76, 0
3, 104042, Note_on_c, 1, 69, 100
3, 104042, Note_on_c, 1, 73, 100
3, 104042, Control_c, 1, 11, 47
3, 104102, Note_on_c, 1, 73, 0
3, 104102, Note_on_c, 1, 69, 0
3, 104162, Note_on_c, 1, 71, 100
3, 104162, Note_on_c, 1, 74, 100
3, 104222, Note_on_c, 1, 74, 0
3, 104222, Note_on_c, 1, 71, 0
3, 104282, Note_on_c, 1, 73, 100
3, 104282, Note_on_c, 1, 76, 100
3, 104342, Note_on_c, 1, 76, 0
3, 104342, Note_on_c, 1, 73, 0
3, 104762, Control_c, 1, 11, 47
3, 104762, Note_on_c, 1, 81, 100
3, 104762, Note_on_c, 1, 73, 100
3, 104822, Note_on_c, 1, 73, 0
3, 104822, Note_on_c, 1, 81, 0
3, 104882, Note_on_c, 1, 80, 100
3, 104882, Note_on_c, 1, 71, 100
3, 104942, Note_on_c, 1, 71, 0
3, 104942, Note_on_c, 1, 80, 0
3, 105002, Note_on_c, 1, 73, 100
3, 105002, Note_on_c, 1, 81, 100
3, 105062, Note_on_c, 1, 81, 0
3, 105062, Note_on_c, 1, 73, 0
3, 108362, Control_c, 1, 11, 52
3, 108362, Note_on_c, 1, 70, 100
3, 108362, Note_on_c, 1, 74, 100
3, 108422, Note_on_c, 1, 74, 0
3, 108422, Note_on_c, 1, 70, 0
3, 108482, Note_on_c, 1, 70, 100
3, 108482, Control_c, 1, 11, 87
3, 108482, Note_on_c, 1, 74, 100
3, 108492, Control_c, 1, 11, 84
3, 108502, Control_c, 1, 11, 81
3, 108512, Control_c, 1, 11, 78
3, 108523, Control_c, 1, 11, 75
3, 108533, Control_c, 1, 11, 72
3, 108543, Control_c, 1, 11, 69
3, 108554, Control_c, 1, 11, 66
3, 108564, Control_c, 1, 11, 63
3, 108574, Control_c, 1, 11, 60
3, 108584, Control_c, 1, 11, 57
3, 108595, Control_c, 1, 11, 54
3, 109072, Note_on_c, 1, 74, 0
3, 109072, Note_on_c, 1, 70, 0
3, 109082, Note_on_c, 1, 75, 100
3, 109082, Note_on_c, 1, 72, 100
3, 109792, Note_on_c, 1, 72, 0
3, 109792, Note_on_c, 1, 75, 0
3, 109802, Note_on_c, 1, 74, 100
3, 109802, Note_on_c, 1, 70, 100
3, 109922, Note_on_c, 1, 70, 0
3, 109922, Note_on_c, 1, 74, 0
3, 113402, Control_c, 1, 11, 87
3, 113402, Note_on_c, 1, 74, 100
3, 113417, Control_c, 1, 11, 86
3, 113432, Control_c, 1, 11, 85
3, 113447, Control_c, 1, 11, 84
3, 113462, Control_c, 1, 11, 83
3, 113477, Control_c, 1, 11, 82
3, 113492, Control_c, 1, 11, 81
3, 113507, Control_c, 1, 11, 80
3, 113522, Control_c, 1, 11, 79
3, 113537, Control_c, 1, 11, 78
3, 113552, Control_c, 1, 11, 77
3, 113567, Control_c, 1, 11, 76
3, 113582, Control_c, 1, 11, 75
3, 113597, Control_c, 1, 11, 74
3, 113612, Control_c, 1, 11, 73
3, 113627, Control_c, 1, 11, 72
3, 113642, Control_c, 1, 11, 71
3, 113657, Control_c, 1, 11, 70
3, 113672, Control_c, 1, 11, 69
3, 113687, Control_c, 1, 11, 68
3, 113702, Control_c, 1, 11, 67
3, 113710, Control_c, 1, 11, 64
3, 113719, Control_c, 1, 11, 61
3, 113728, Control_c, 1, 11, 58
3, 113737, Control_c, 1, 11, 55
3, 113746, Control_c, 1, 11, 52
3, 113752, Note_on_c, 1, 74, 0
3, 113755, Control_c, 1, 11, 49
3, 114122, Note_on_c, 1, 76, 100
3, 114122, Control_c, 1, 11, 87
3, 114122, Note_on_c, 1, 74, 100
3, 114137, Control_c, 1, 11, 86
3, 114152, Control_c, 1, 11, 85
3, 114167, Control_c, 1, 11, 84
3, 114182, Control_c, 1, 11, 83
3, 114197, Control_c, 1, 11, 82
3, 114212, Control_c, 1, 11, 81
3, 114227, Control_c, 1, 11, 80
3, 114242, Control_c, 1, 11, 79
3, 114257, Control_c, 1, 11, 78
3, 114272, Control_c, 1, 11, 77
3, 114287, Control_c, 1, 11, 76
3, 114302, Control_c, 1, 11, 75
3, 114317, Control_c, 1, 11, 74
3, 114332, Control_c, 1, 11, 73
3, 114347, Control_c, 1, 11, 72
3, 114362, Control_c, 1, 11, 71
3, 114377, Control_c, 1, 11, 70
3, 114392, Control_c, 1, 11, 69
3, 114407, Control_c, 1, 11, 68
3, 114422, Control_c, 1, 11, 67
3, 114430, Control_c, 1, 11, 64
3, 114439, Control_c, 1, 11, 61
3, 114448, Control_c, 1, 11, 58
3, 114457, Control_c, 1, 11, 55
3, 114466, Control_c, 1, 11, 52
3, 114472, Note_on_c, 1, 74, 0
3, 114472, Note_on_c, 1, 76, 0
3, 114475, Control_c, 1, 11, 49
3, 115562, Note_on_c, 1, 78, 100
3, 115562, Note_on_c, 1, 74, 100
3, 115562, Control_c, 1, 11, 47
3, 115622, Note_on_c, 1, 74, 0
3, 115622, Note_on_c, 1, 78, 0
3, 115682, Note_on_c, 1, 76, 100
3, 115682, Note_on_c, 1, 69, 100
3, 115742, Note_on_c, 1, 69, 0
3, 115742, Note_on_c, 1, 76, 0
3, 115802, Note_on_c, 1, 74, 100
3, 115802, Note_on_c, 1, 66, 100
3, 115862, Note_on_c, 1, 66, 0
3, 115862, Note_on_c, 1, 74, 0
3, 115922, Control_c, 1, 11, 102
3, 115922, Note_on_c, 1, 78, 100
3, 115922, Note_on_c, 1, 74, 100
3, 115982, Note_on_c, 1, 74, 0
3, 115982, Note_on_c, 1, 78, 0
3, 116042, Note_on_c, 1, 79, 100
3, 116042, Note_on_c, 1, 76, 100
3, 116102, Note_on_c, 1, 76, 0
3, 116102, Note_on_c, 1, 79, 0
3, 116162, Note_on_c, 1, 74, 100
3, 116162, Note_on_c, 1, 78, 100
3, 116222, Note_on_c, 1, 78, 0
3, 116222, Note_on_c, 1, 74, 0
3, 116282, Control_c, 1, 11, 87
3, 116282, Note_on_c, 1, 74, 100
3, 116297, Control_c, 1, 11, 86
3, 116312, Control_c, 1, 11, 85
3, 116327, Control_c, 1, 11, 84
3, 116342, Control_c, 1, 11, 83
3, 116357, Control_c, 1, 11, 82
3, 116372, Control_c, 1, 11, 81
3, 116387, Control_c, 1, 11, 80
3, 116402, Control_c, 1, 11, 79
3, 116417, Control_c, 1, 11, 78
3, 116432, Control_c, 1, 11, 77
3, 116447, Control_c, 1, 11, 76
3, 116462, Control_c, 1, 11, 75
3, 116477, Control_c, 1, 11, 74
3, 116492, Control_c, 1, 11, 73
3, 116507, Control_c, 1, 11, 72
3, 116522, Control_c, 1, 11, 71
3, 116537, Control_c, 1, 11, 70
3, 116552, Control_c, 1, 11, 69
3, 116567, Control_c, 1, 11, 68
3, 116582, Control_c, 1, 11, 67
3, 116590, Control_c, 1, 11, 64
3, 116599, Control_c, 1, 11, 61
3, 116608, Control_c, 1, 11, 58
3, 116617, Control_c, 1, 11, 55
3, 116626, Control_c, 1, 11, 52
3, 116632, Note_on_c, 1, 74, 0
3, 116635, Control_c, 1, 11, 49
3, 117002, Note_on_c, 1, 74, 100
3, 117002, Note_on_c, 1, 76, 100
3, 117002, Control_c, 1, 11, 87
3, 117017, Control_c, 1, 11, 86
3, 117032, Control_c, 1, 11, 85
3, 117047, Control_c, 1, 11, 84
3, 117062, Control_c, 1, 11, 83
3, 117077, Control_c, 1, 11, 82
3, 117092, Control_c, 1, 11, 81
3, 117107, Control_c, 1, 11, 80
3, 117122, Control_c, 1, 11, 79
3, 117137, Control_c, 1, 11, 78
3, 117152, Control_c, 1, 11, 77
3, 117167, Control_c, 1, 11, 76
3, 117182, Control_c, 1, 11, 75
3, 117197, Control_c, 1, 11, 74
3, 117212, Control_c, 1, 11, 73
3, 117227, Control_c, 1, 11, 72
3, 117242, Control_c, 1, 11, 71
3, 117257, Control_c, 1, 11, 70
3, 117272, Control_c, 1, 11, 69
3, 117287, Control_c, 1, 11, 68
3, 117302, Control_c, 1, 11, 67
3, 117310, Control_c, 1, 11, 64
3, 117319, Control_c, 1, 11, 61
3, 117328, Control_c, 1, 11, 58
3, 117337, Control_c, 1, 11, 55
3, 117346, Control_c, 1, 11, 52
3, 117352, Note_on_c, 1, 76, 0
3, 117352, Note_on_c, 1, 74, 0
3, 117355, Control_c, 1, 11, 49
3, 120602, Note_on_c, 1, 72, 100
3, 120602, Control_c, 1, 11, 42
3, 120947, Note_on_c, 1, 72, 0
3, 120962, Note_on_c, 1, 77, 100
3, 121022, Note_on_c, 1, 77, 0
3, 121082, Note_on_c, 1, 76, 100
3, 121142, Note_on_c, 1, 76, 0
3, 121202, Note_on_c, 1, 77, 100
3, 121262, Note_on_c, 1, 77, 0
3, 121322, Note_on_c, 1, 69, 100
3, 121667, Note_on_c, 1, 69, 0
3, 121682, Note_on_c, 1, 74, 100
3, 121742, Note_on_c, 1, 74, 0
3, 121802, Note_on_c, 1, 73, 100
3, 121862, Note_on_c, 1, 73, 0
3, 121922, Note_on_c, 1, 74, 100
3, 121982, Note_on_c, 1, 74, 0
3, 123482, Note_on_c, 1, 72, 100
3, 123482, Control_c, 1, 11, 42
3, 123827, Note_on_c, 1, 72, 0
3, 123842, Note_on_c, 1, 77, 100
3, 123902, Note_on_c, 1, 77, 0
3, 123962, Note_on_c, 1, 76, 100
3, 124022, Note_on_c, 1, 76, 0
3, 124082, Note_on_c, 1, 77, 100
3, 124142, Note_on_c, 1, 77, 0
3, 124202, Note_on_c, 1, 69, 100
3, 124547, Note_on_c, 1, 69, 0
3, 124562, Note_on_c, 1, 74, 100
3, 124622, Note_on_c, 1, 74, 0
3, 124682, Note_on_c, 1, 73, 100
3, 124742, Note_on_c, 1, 73, 0
3, 124802, Note_on_c, 1, 74, 100
3, 124862, Note_on_c, 1, 74, 0
3, 128522, Control_c, 1, 11, 102
3, 128522, Note_on_c, 1, 69, 100
3, 128522, Note_on_c, 1, 81, 100
3, 129002, Note_on_c, 1, 81, 0
3, 129002, Note_on_c, 1, 69, 0
3, 129002, Note_on_c, 1, 80, 100
3, 129002, Note_on_c, 1, 68, 100
3, 129122, Note_on_c, 1, 68, 0
3, 129122, Note_on_c, 1, 80, 0
3, 129122, Note_on_c, 1, 79, 100
3, 129122, Note_on_c, 1, 67, 100
3, 129227, Note_on_c, 1, 67, 0
3, 129227, Note_on_c, 1, 79, 0
3, 129242, Note_on_c, 1, 78, 100
3, 129242, Note_on_c, 1, 66, 100
3, 129362, Note_on_c, 1, 66, 0
3, 129362, Note_on_c, 1, 78, 0
3, 129482, Note_on_c, 1, 73, 100
3, 129482, Note_on_c, 1, 76, 100
3, 129542, Note_on_c, 1, 76, 0
3, 129542, Note_on_c, 1, 73, 0
3, 129602, Note_on_c, 1, 74, 100
3, 129602, Note_on_c, 1, 78, 100
3, 129662, Note_on_c, 1, 78, 0
3, 129662, Note_on_c, 1, 74, 0
3, 129962, Control_c, 1, 121, 0
3, 129962, End_track
4, 0, Start_track
4, 0, MIDI_port, 0
4, 0, Title_t, "2 Clarinetti in A"
4, 0, Program_c, 2, 71
4, 0, Control_c, 2, 10, 65
4, 3, Control_c, 2, 121, 0
4, 8, Program_c, 2, 71
4, 13, Pitch_bend_c, 2, 8192
4, 18, Control_c, 2, 11, 87
4, 23, Control_c, 2, 7, 127
4, 28, Control_c, 2, 91, 54
4, 33, Control_c, 2, 93, 0
4, 363, Control_c, 2, 11, 87
4, 363, Note_on_c, 2, 74, 95
4, 363, Note_on_c, 2, 62, 95
4, 378, Control_c, 2, 11, 86
4, 393, Control_c, 2, 11, 85
4, 408, Control_c, 2, 11, 84
4, 423, Control_c, 2, 11, 83
4, 438, Control_c, 2, 11, 82
4, 453, Control_c, 2, 11, 81
4, 468, Control_c, 2, 11, 80
4, 483, Control_c, 2, 11, 79
4, 498, Control_c, 2, 11, 78
4, 513, Control_c, 2, 11, 77
4, 528, Control_c, 2, 11, 76
4, 543, Control_c, 2, 11, 75
4, 558, Control_c, 2, 11, 74
4, 573, Control_c, 2, 11, 73
4, 588, Control_c, 2, 11, 72
4, 603, Control_c, 2, 11, 71
4, 618, Control_c, 2, 11, 70
4, 633, Control_c, 2, 11, 69
4, 648, Control_c, 2, 11, 68
4, 663, Control_c, 2, 11, 67
4, 671, Control_c, 2, 11, 64
4, 680, Control_c, 2, 11, 61
4, 689, Control_c, 2, 11, 58
4, 698, Control_c, 2, 11, 55
4, 707, Control_c, 2, 11, 52
4, 716, Control_c, 2, 11, 49
4, 723, Note_on_c, 2, 62, 0
4, 723, Note_on_c, 2, 74, 0
4, 1083, Note_on_c, 2, 76, 95
4, 1083, Note_on_c, 2, 64, 95
4, 1083, Control_c, 2, 11, 87
4, 1098, Control_c, 2, 11, 86
4, 1113, Control_c, 2, 11, 85
4, 1128, Control_c, 2, 11, 84
4, 1143, Control_c, 2, 11, 83
4, 1158, Control_c, 2, 11, 82
4, 1173, Control_c, 2, 11, 81
4, 1188, Control_c, 2, 11, 80
4, 1203, Control_c, 2, 11, 79
4, 1218, Control_c, 2, 11, 78
4, 1233, Control_c, 2, 11, 77
4, 1248, Control_c, 2, 11, 76
4, 1263, Control_c, 2, 11, 75
4, 1278, Control_c, 2, 11, 74
4, 1293, Control_c, 2, 11, 73
4, 1308, Control_c, 2, 11, 72
4, 1323, Control_c, 2, 11, 71
4, 1338, Control_c, 2, 11, 70
4, 1353, Control_c, 2, 11, 69
4, 1368, Control_c, 2, 11, 68
4, 1383, Control_c, 2, 11, 67
4, 1391, Control_c, 2, 11, 64
4, 1400, Control_c, 2, 11, 61
4, 1409, Control_c, 2, 11, 58
4, 1418, Control_c, 2, 11, 55
4, 1427, Control_c, 2, 11, 52
4, 1436, Control_c, 2, 11, 49
4, 1443, Note_on_c, 2, 64, 0
4, 1443, Note_on_c, 2, 76, 0
4, 2883, Control_c, 2, 11, 102
4, 2883, Note_on_c, 2, 66, 101
4, 2883, Note_on_c, 2, 74, 101
4, 2943, Note_on_c, 2, 74, 0
4, 2943, Note_on_c, 2, 66, 0
4, 3003, Note_on_c, 2, 76, 101
4, 3003, Note_on_c, 2, 67, 101
4, 3063, Note_on_c, 2, 67, 0
4, 3063, Note_on_c, 2, 76, 0
4, 3123, Note_on_c, 2, 66, 101
4, 3123, Note_on_c, 2, 74, 101
4, 3183, Note_on_c, 2, 74, 0
4, 3183, Note_on_c, 2, 66, 0
4, 3243, Note_on_c, 2, 74, 101
4, 3243, Note_on_c, 2, 62, 101
4, 3243, Control_c, 2, 11, 87
4, 3258, Control_c, 2, 11, 86
4, 3273, Control_c, 2, 11, 85
4, 3288, Control_c, 2, 11, 84
4, 3303, Control_c, 2, 11, 83
4, 3318, Control_c, 2, 11, 82
4, 3333, Control_c, 2, 11, 81
4, 3348, Control_c, 2, 11, 80
4, 3363, Control_c, 2, 11, 79
4, 3378, Control_c, 2, 11, 78
4, 3393, Control_c, 2, 11, 77
4, 3408, Control_c, 2, 11, 76
4, 3423, Control_c, 2, 11, 75
4, 3438, Control_c, 2, 11, 74
4, 3453, Control_c, 2, 11, 73
4, 3468, Control_c, 2, 11, 72
4, 3483, Control_c, 2, 11, 71
4, 3498, Control_c, 2, 11, 70
4, 3513, Control_c, 2, 11, 69
4, 3528, Control_c, 2, 11, 68
4, 3543, Control_c, 2, 11, 67
4, 3551, Control_c, 2, 11, 64
4, 3560, Control_c, 2, 11, 61
4, 3569, Control_c, 2, 11, 58
4, 3578, Control_c, 2, 11, 55
4, 3587, Control_c, 2, 11, 52
4, 3596, Control_c, 2, 11, 49
4, 3603, Note_on_c, 2, 62, 0
4, 3603, Note_on_c, 2, 74, 0
4, 3963, Note_on_c, 2, 74, 101
4, 3963, Note_on_c, 2, 64, 101
4, 3963, Control_c, 2, 11, 87
4, 3978, Control_c, 2, 11, 86
4, 3993, Control_c, 2, 11, 85
4, 4008, Control_c, 2, 11, 84
4, 4023, Control_c, 2, 11, 83
4, 4038, Control_c, 2, 11, 82
4, 4053, Control_c, 2, 11, 81
4, 4068, Control_c, 2, 11, 80
4, 4083, Control_c, 2, 11, 79
4, 4098, Control_c, 2, 11, 78
4, 4113, Control_c, 2, 11, 77
4, 4128, Control_c, 2, 11, 76
4, 4143, Control_c, 2, 11, 75
4, 4158, Control_c, 2, 11, 74
4, 4173, Control_c, 2, 11, 73
4, 4188, Control_c, 2, 11, 72
4, 4203, Control_c, 2, 11, 71
4, 4218, Control_c, 2, 11, 70
4, 4233, Control_c, 2, 11, 69
4, 4248, Control_c, 2, 11, 68
4, 4263, Control_c, 2, 11, 67
4, 4271, Control_c, 2, 11, 64
4, 4280, Control_c, 2, 11, 61
4, 4289, Control_c, 2, 11, 58
4, 4298, Control_c, 2, 11, 55
4, 4307, Control_c, 2, 11, 52
4, 4316, Control_c, 2, 11, 49
4, 4323, Note_on_c, 2, 64, 0
4, 4323, Note_on_c, 2, 74, 0
4, 5763, Note_on_c, 2, 73, 101
4, 5763, Control_c, 2, 11, 102
4, 5763, Note_on_c, 2, 69, 101
4, 5823, Note_on_c, 2, 69, 0
4, 5823, Note_on_c, 2, 73, 0
4, 5883, Note_on_c, 2, 71, 101
4, 5883, Note_on_c, 2, 68, 101
4, 5943, Note_on_c, 2, 68, 0
4, 5943, Note_on_c, 2, 71, 0
4, 6003, Note_on_c, 2, 73, 101
4, 6003, Note_on_c, 2, 69, 101
4, 6063, Note_on_c, 2, 69, 0
4, 6063, Note_on_c, 2, 73, 0
4, 6123, Note_on_c, 2, 74, 95
4, 6123, Note_on_c, 2, 62, 95
4, 6123, Control_c, 2, 11, 87
4, 6138, Control_c, 2, 11, 86
4, 6153, Control_c, 2, 11, 85
4, 6168, Control_c, 2, 11, 84
4, 6183, Control_c, 2, 11, 83
4, 6198, Control_c, 2, 11, 82
4, 6213, Control_c, 2, 11, 81
4, 6228, Control_c, 2, 11, 80
4, 6243, Control_c, 2, 11, 79
4, 6258, Control_c, 2, 11, 78
4, 6273, Control_c, 2, 11, 77
4, 6288, Control_c, 2, 11, 76
4, 6303, Control_c, 2, 11, 75
4, 6318, Control_c, 2, 11, 74
4, 6333, Control_c, 2, 11, 73
4, 6348, Control_c, 2, 11, 72
4, 6363, Control_c, 2, 11, 71
4, 6378, Control_c, 2, 11, 70
4, 6393, Control_c, 2, 11, 69
4, 6408, Control_c, 2, 11, 68
4, 6423, Control_c, 2, 11, 67
4, 6431, Control_c, 2, 11, 64
4, 6440, Control_c, 2, 11, 61
4, 6449, Control_c, 2, 11, 58
4, 6458, Control_c, 2, 11, 55
4, 6467, Control_c, 2, 11, 52
4, 6476, Control_c, 2, 11, 49
4, 6483, Note_on_c, 2, 62, 0
4, 6483, Note_on_c, 2, 74, 0
4, 6843, Note_on_c, 2, 76, 95
4, 6843, Note_on_c, 2, 64, 95
4, 6843, Control_c, 2, 11, 87
4, 6858, Control_c, 2, 11, 86
4, 6873, Control_c, 2, 11, 85
4, 6888, Control_c, 2, 11, 84
4, 6903, Control_c, 2, 11, 83
4, 6918, Control_c, 2, 11, 82
4, 6933, Control_c, 2, 11, 81
4, 6948, Control_c, 2, 11, 80
4, 6963, Control_c, 2, 11, 79
4, 6978, Control_c, 2, 11, 78
4, 6993, Control_c, 2, 11, 77
4, 7008, Control_c, 2, 11, 76
4, 7023, Control_c, 2, 11, 75
4, 7038, Control_c, 2, 11, 74
4, 7053, Control_c, 2, 11, 73
4, 7068, Control_c, 2, 11, 72
4, 7083, Control_c, 2, 11, 71
4, 7098, Control_c, 2, 11, 70
4, 7113, Control_c, 2, 11, 69
4, 7128, Control_c, 2, 11, 68
4, 7143, Control_c, 2, 11, 67
4, 7151, Control_c, 2, 11, 64
4, 7160, Control_c, 2, 11, 61
4, 7169, Control_c, 2, 11, 58
4, 7178, Control_c, 2, 11, 55
4, 7187, Control_c, 2, 11, 52
4, 7196, Control_c, 2, 11, 49
4, 7203, Note_on_c, 2, 64, 0
4, 7203, Note_on_c, 2, 76, 0
4, 8643, Note_on_c, 2, 74, 101
4, 8643, Note_on_c, 2, 66, 101
4, 8643, Control_c, 2, 11, 102
4, 8703, Note_on_c, 2, 66, 0
4, 8703, Note_on_c, 2, 74, 0
4, 8763, Note_on_c, 2, 76, 101
4, 8763, Note_on_c, 2, 67, 101
4, 8823, Note_on_c, 2, 67, 0
4, 8823, Note_on_c, 2, 76, 0
4, 8883, Note_on_c, 2, 74, 101
4, 8883, Note_on_c, 2, 66, 101
4, 8943, Note_on_c, 2, 66, 0
4, 8943, Note_on_c, 2, 74, 0
4, 9003, Note_on_c, 2, 74, 101
4, 9003, Note_on_c, 2, 62, 101
4, 9003, Control_c, 2, 11, 87
4, 9018, Control_c, 2, 11, 86
4, 9033, Control_c, 2, 11, 85
4, 9048, Control_c, 2, 11, 84
4, 9063, Control_c, 2, 11, 83
4, 9078, Control_c, 2, 11, 82
4, 9093, Control_c, 2, 11, 81
4, 9108, Control_c, 2, 11, 80
4, 9123, Control_c, 2, 11, 79
4, 9138, Control_c, 2, 11, 78
4, 9153, Control_c, 2, 11, 77
4, 9168, Control_c, 2, 11, 76
4, 9183, Control_c, 2, 11, 75
4, 9198, Control_c, 2, 11, 74
4, 9213, Control_c, 2, 11, 73
4, 9228, Control_c, 2, 11, 72
4, 9243, Control_c, 2, 11, 71
4, 9258, Control_c, 2, 11, 70
4, 9273, Control_c, 2, 11, 69
4, 9288, Control_c, 2, 11, 68
4, 9303, Control_c, 2, 11, 67
4, 9311, Control_c, 2, 11, 64
4, 9320, Control_c, 2, 11, 61
4, 9329, Control_c, 2, 11, 58
4, 9338, Control_c, 2, 11, 55
4, 9347, Control_c, 2, 11, 52
4, 9356, Control_c, 2, 11, 49
4, 9363, Note_on_c, 2, 62, 0
4, 9363, Note_on_c, 2, 74, 0
4, 9723, Note_on_c, 2, 64, 101
4, 9723, Note_on_c, 2, 74, 101
4, 9723, Control_c, 2, 11, 87
4, 9738, Control_c, 2, 11, 86
4, 9753, Control_c, 2, 11, 85
4, 9768, Control_c, 2, 11, 84
4, 9783, Control_c, 2, 11, 83
4, 9798, Control_c, 2, 11, 82
4, 9813, Control_c, 2, 11, 81
4, 9828, Control_c, 2, 11, 80
4, 9843, Control_c, 2, 11, 79
4, 9858, Control_c, 2, 11, 78
4, 9873, Control_c, 2, 11, 77
4, 9888, Control_c, 2, 11, 76
4, 9903, Control_c, 2, 11, 75
4, 9918, Control_c, 2, 11, 74
4, 9933, Control_c, 2, 11, 73
4, 9948, Control_c, 2, 11, 72
4, 9963, Control_c, 2, 11, 71
4, 9978, Control_c, 2, 11, 70
4, 9993, Control_c, 2, 11, 69
4, 10008, Control_c, 2, 11, 68
4, 10023, Control_c, 2, 11, 67
4, 10031, Control_c, 2, 11, 64
4, 10040, Control_c, 2, 11, 61
4, 10049, Control_c, 2, 11, 58
4, 10058, Control_c, 2, 11, 55
4, 10067, Control_c, 2, 11, 52
4, 10076, Control_c, 2, 11, 49
4, 10083, Note_on_c, 2, 74, 0
4, 10083, Note_on_c, 2, 64, 0
4, 11523, Note_on_c, 2, 73, 101
4, 11523, Note_on_c, 2, 69, 101
4, 11523, Control_c, 2, 11, 102
4, 11583, Note_on_c, 2, 69, 0
4, 11583, Note_on_c, 2, 73, 0
4, 11643, Note_on_c, 2, 68, 101
4, 11643, Note_on_c, 2, 71, 101
4, 11703, Note_on_c, 2, 71, 0
4, 11703, Note_on_c, 2, 68, 0
4, 11763, Note_on_c, 2, 73, 101
4, 11763, Note_on_c, 2, 69, 101
4, 11823, Note_on_c, 2, 69, 0
4, 11823, Note_on_c, 2, 73, 0
4, 19803, Note_on_c, 2, 62, 101
4, 19803, Note_on_c, 2, 74, 101
4, 19803, Control_c, 2, 11, 87
4, 19818, Control_c, 2, 11, 86
4, 19833, Control_c, 2, 11, 85
4, 19848, Control_c, 2, 11, 84
4, 19863, Control_c, 2, 11, 83
4, 19878, Control_c, 2, 11, 82
4, 19893, Control_c, 2, 11, 81
4, 19908, Control_c, 2, 11, 80
4, 19923, Control_c, 2, 11, 79
4, 19938, Control_c, 2, 11, 78
4, 19953, Control_c, 2, 11, 77
4, 19968, Control_c, 2, 11, 76
4, 19983, Control_c, 2, 11, 75
4, 19998, Control_c, 2, 11, 74
4, 20013, Control_c, 2, 11, 73
4, 20028, Control_c, 2, 11, 72
4, 20043, Control_c, 2, 11, 71
4, 20058, Control_c, 2, 11, 70
4, 20073, Control_c, 2, 11, 69
4, 20088, Control_c, 2, 11, 68
4, 20103, Control_c, 2, 11, 67
4, 20111, Control_c, 2, 11, 64
4, 20120, Control_c, 2, 11, 61
4, 20129, Control_c, 2, 11, 58
4, 20138, Control_c, 2, 11, 55
4, 20147, Control_c, 2, 11, 52
4, 20153, Note_on_c, 2, 74, 0
4, 20153, Note_on_c, 2, 62, 0
4, 20156, Control_c, 2, 11, 49
4, 20523, Note_on_c, 2, 74, 101
4, 20523, Note_on_c, 2, 64, 101
4, 20523, Control_c, 2, 11, 87
4, 20538, Control_c, 2, 11, 86
4, 20553, Control_c, 2, 11, 85
4, 20568, Control_c, 2, 11, 84
4, 20583, Control_c, 2, 11, 83
4, 20598, Control_c, 2, 11, 82
4, 20613, Control_c, 2, 11, 81
4, 20628, Control_c, 2, 11, 80
4, 20643, Control_c, 2, 11, 79
4, 20658, Control_c, 2, 11, 78
4, 20673, Control_c, 2, 11, 77
4, 20688, Control_c, 2, 11, 76
4, 20703, Control_c, 2, 11, 75
4, 20718, Control_c, 2, 11, 74
4, 20733, Control_c, 2, 11, 73
4, 20748, Control_c, 2, 11, 72
4, 20763, Control_c, 2, 11, 71
4, 20778, Control_c, 2, 11, 70
4, 20793, Control_c, 2, 11, 69
4, 20808, Control_c, 2, 11, 68
4, 20823, Control_c, 2, 11, 67
4, 20831, Control_c, 2, 11, 64
4, 20840, Control_c, 2, 11, 61
4, 20849, Control_c, 2, 11, 58
4, 20858, Control_c, 2, 11, 55
4, 20867, Control_c, 2, 11, 52
4, 20873, Note_on_c, 2, 64, 0
4, 20873, Note_on_c, 2, 74, 0
4, 20876, Control_c, 2, 11, 49
4, 22323, Note_on_c, 2, 74, 101
4, 22323, Note_on_c, 2, 66, 101
4, 22323, Control_c, 2, 11, 102
4, 22383, Note_on_c, 2, 66, 0
4, 22383, Note_on_c, 2, 74, 0
4, 22443, Note_on_c, 2, 76, 101
4, 22443, Note_on_c, 2, 67, 101
4, 22503, Note_on_c, 2, 67, 0
4, 22503, Note_on_c, 2, 76, 0
4, 22563, Note_on_c, 2, 66, 101
4, 22563, Note_on_c, 2, 74, 101
4, 22623, Note_on_c, 2, 74, 0
4, 22623, Note_on_c, 2, 66, 0
4, 22683, Note_on_c, 2, 62, 101
4, 22683, Note_on_c, 2, 74, 101
4, 22683, Control_c, 2, 11, 87
4, 22698, Control_c, 2, 11, 86
4, 22713, Control_c, 2, 11, 85
4, 22728, Control_c, 2, 11, 84
4, 22743, Control_c, 2, 11, 83
4, 22758, Control_c, 2, 11, 82
4, 22773, Control_c, 2, 11, 81
4, 22788, Control_c, 2, 11, 80
4, 22803, Control_c, 2, 11, 79
4, 22818, Control_c, 2, 11, 78
4, 22833, Control_c, 2, 11, 77
4, 22848, Control_c, 2, 11, 76
4, 22863, Control_c, 2, 11, 75
4, 22878, Control_c, 2, 11, 74
4, 22893, Control_c, 2, 11, 73
4, 22908, Control_c, 2, 11, 72
4, 22923, Control_c, 2, 11, 71
4, 22938, Control_c, 2, 11, 70
4, 22953, Control_c, 2, 11, 69
4, 22968, Control_c, 2, 11, 68
4, 22983, Control_c, 2, 11, 67
4, 22991, Control_c, 2, 11, 64
4, 23000, Control_c, 2, 11, 61
4, 23009, Control_c, 2, 11, 58
4, 23018, Control_c, 2, 11, 55
4, 23027, Control_c, 2, 11, 52
4, 23033, Note_on_c, 2, 74, 0
4, 23033, Note_on_c, 2, 62, 0
4, 23036, Control_c, 2, 11, 49
4, 23403, Note_on_c, 2, 74, 101
4, 23403, Note_on_c, 2, 64, 101
4, 23403, Control_c, 2, 11, 87
4, 23418, Control_c, 2, 11, 86
4, 23433, Control_c, 2, 11, 85
4, 23448, Control_c, 2, 11, 84
4, 23463, Control_c, 2, 11, 83
4, 23478, Control_c, 2, 11, 82
4, 23493, Control_c, 2, 11, 81
4, 23508, Control_c, 2, 11, 80
4, 23523, Control_c, 2, 11, 79
4, 23538, Control_c, 2, 11, 78
4, 23553, Control_c, 2, 11, 77
4, 23568, Control_c, 2, 11, 76
4, 23583, Control_c, 2, 11, 75
4, 23598, Control_c, 2, 11, 74
4, 23613, Control_c, 2, 11, 73
4, 23628, Control_c, 2, 11, 72
4, 23643, Control_c, 2, 11, 71
4, 23658, Control_c, 2, 11, 70
4, 23673, Control_c, 2, 11, 69
4, 23688, Control_c, 2, 11, 68
4, 23703, Control_c, 2, 11, 67
4, 23711, Control_c, 2, 11, 64
4, 23720, Control_c, 2, 11, 61
4, 23729, Control_c, 2, 11, 58
4, 23738, Control_c, 2, 11, 55
4, 23747, Control_c, 2, 11, 52
4, 23753, Note_on_c, 2, 64, 0
4, 23753, Note_on_c, 2, 74, 0
4, 23756, Control_c, 2, 11, 49
4, 28443, Control_c, 2, 11, 52
4, 28443, Note_on_c, 2, 62, 101
4, 28443, Note_on_c, 2, 74, 101
4, 28463, Control_c, 2, 11, 53
4, 28484, Control_c, 2, 11, 54
4, 28504, Control_c, 2, 11, 55
4, 28525, Control_c, 2, 11, 56
4, 28545, Control_c, 2, 11, 57
4, 28566, Control_c, 2, 11, 58
4, 28587, Control_c, 2, 11, 59
4, 28607, Control_c, 2, 11, 60
4, 28628, Control_c, 2, 11, 61
4, 28648, Control_c, 2, 11, 62
4, 28669, Control_c, 2, 11, 63
4, 28689, Control_c, 2, 11, 64
4, 28710, Control_c, 2, 11, 65
4, 28731, Control_c, 2, 11, 66
4, 28751, Control_c, 2, 11, 67
4, 28772, Control_c, 2, 11, 68
4, 28792, Control_c, 2, 11, 69
4, 28813, Control_c, 2, 11, 70
4, 28833, Control_c, 2, 11, 71
4, 28854, Control_c, 2, 11, 72
4, 28875, Control_c, 2, 11, 73
4, 28895, Control_c, 2, 11, 74
4, 28916, Control_c, 2, 11, 75
4, 28936, Control_c, 2, 11, 76
4, 28957, Control_c, 2, 11, 77
4, 28977, Control_c, 2, 11, 78
4, 28998, Control_c, 2, 11, 79
4, 29019, Control_c, 2, 11, 80
4, 29039, Control_c, 2, 11, 81
4, 29060, Control_c, 2, 11, 82
4, 29080, Control_c, 2, 11, 83
4, 29101, Control_c, 2, 11, 84
4, 29121, Control_c, 2, 11, 85
4, 29142, Control_c, 2, 11, 86
4, 29148, Note_on_c, 2, 74, 0
4, 29148, Note_on_c, 2, 62, 0
4, 29163, Control_c, 2, 11, 87
4, 29163, Note_on_c, 2, 73, 101
4, 29163, Note_on_c, 2, 61, 101
4, 29508, Note_on_c, 2, 61, 0
4, 29508, Note_on_c, 2, 73, 0
4, 29523, Note_on_c, 2, 74, 101
4, 29523, Note_on_c, 2, 62, 101
4, 29643, Note_on_c, 2, 62, 0
4, 29643, Note_on_c, 2, 74, 0
4, 31323, Note_on_c, 2, 74, 101
4, 31323, Note_on_c, 2, 62, 101
4, 31323, Control_c, 2, 11, 52
4, 31343, Control_c, 2, 11, 53
4, 31364, Control_c, 2, 11, 54
4, 31384, Control_c, 2, 11, 55
4, 31405, Control_c, 2, 11, 56
4, 31425, Control_c, 2, 11, 57
4, 31446, Control_c, 2, 11, 58
4, 31467, Control_c, 2, 11, 59
4, 31487, Control_c, 2, 11, 60
4, 31508, Control_c, 2, 11, 61
4, 31528, Control_c, 2, 11, 62
4, 31549, Control_c, 2, 11, 63
4, 31569, Control_c, 2, 11, 64
4, 31590, Control_c, 2, 11, 65
4, 31611, Control_c, 2, 11, 66
4, 31631, Control_c, 2, 11, 67
4, 31652, Control_c, 2, 11, 68
4, 31672, Control_c, 2, 11, 69
4, 31693, Control_c, 2, 11, 70
4, 31713, Control_c, 2, 11, 71
4, 31734, Control_c, 2, 11, 72
4, 31755, Control_c, 2, 11, 73
4, 31775, Control_c, 2, 11, 74
4, 31796, Control_c, 2, 11, 75
4, 31816, Control_c, 2, 11, 76
4, 31837, Control_c, 2, 11, 77
4, 31857, Control_c, 2, 11, 78
4, 31878, Control_c, 2, 11, 79
4, 31899, Control_c, 2, 11, 80
4, 31919, Control_c, 2, 11, 81
4, 31940, Control_c, 2, 11, 82
4, 31960, Control_c, 2, 11, 83
4, 31981, Control_c, 2, 11, 84
4, 32001, Control_c, 2, 11, 85
4, 32022, Control_c, 2, 11, 86
4, 32028, Note_on_c, 2, 62, 0
4, 32028, Note_on_c, 2, 74, 0
4, 32043, Note_on_c, 2, 73, 101
4, 32043, Note_on_c, 2, 61, 101
4, 32043, Control_c, 2, 11, 87
4, 32388, Note_on_c, 2, 61, 0
4, 32388, Note_on_c, 2, 73, 0
4, 32403, Note_on_c, 2, 74, 101
4, 32403, Note_on_c, 2, 62, 101
4, 32523, Note_on_c, 2, 62, 0
4, 32523, Note_on_c, 2, 74, 0
4, 32763, Control_c, 2, 11, 52
4, 32763, Note_on_c, 2, 62, 101
4, 32763, Note_on_c, 2, 74, 101
4, 32783, Control_c, 2, 11, 53
4, 32804, Control_c, 2, 11, 54
4, 32824, Control_c, 2, 11, 55
4, 32845, Control_c, 2, 11, 56
4, 32865, Control_c, 2, 11, 57
4, 32886, Control_c, 2, 11, 58
4, 32907, Control_c, 2, 11, 59
4, 32927, Control_c, 2, 11, 60
4, 32948, Control_c, 2, 11, 61
4, 32968, Control_c, 2, 11, 62
4, 32989, Control_c, 2, 11, 63
4, 33009, Control_c, 2, 11, 64
4, 33030, Control_c, 2, 11, 65
4, 33051, Control_c, 2, 11, 66
4, 33071, Control_c, 2, 11, 67
4, 33092, Control_c, 2, 11, 68
4, 33112, Control_c, 2, 11, 69
4, 33133, Control_c, 2, 11, 70
4, 33153, Control_c, 2, 11, 71
4, 33174, Control_c, 2, 11, 72
4, 33195, Control_c, 2, 11, 73
4, 33215, Control_c, 2, 11, 74
4, 33236, Control_c, 2, 11, 75
4, 33256, Control_c, 2, 11, 76
4, 33277, Control_c, 2, 11, 77
4, 33297, Control_c, 2, 11, 78
4, 33318, Control_c, 2, 11, 79
4, 33339, Control_c, 2, 11, 80
4, 33359, Control_c, 2, 11, 81
4, 33380, Control_c, 2, 11, 82
4, 33400, Control_c, 2, 11, 83
4, 33421, Control_c, 2, 11, 84
4, 33441, Control_c, 2, 11, 85
4, 33462, Control_c, 2, 11, 86
4, 33468, Note_on_c, 2, 74, 0
4, 33468, Note_on_c, 2, 62, 0
4, 33483, Control_c, 2, 11, 107
4, 33483, Note_on_c, 2, 73, 101
4, 33483, Note_on_c, 2, 61, 101
4, 33501, Control_c, 2, 11, 104
4, 33519, Control_c, 2, 11, 101
4, 33537, Control_c, 2, 11, 98
4, 33555, Control_c, 2, 11, 95
4, 33573, Control_c, 2, 11, 92
4, 33591, Control_c, 2, 11, 89
4, 33828, Note_on_c, 2, 61, 0
4, 33828, Note_on_c, 2, 73, 0
4, 33843, Note_on_c, 2, 74, 101
4, 33843, Note_on_c, 2, 62, 101
4, 33963, Note_on_c, 2, 62, 0
4, 33963, Note_on_c, 2, 74, 0
4, 34203, Note_on_c, 2, 73, 101
4, 34203, Control_c, 2, 11, 107
4, 34221, Control_c, 2, 11, 104
4, 34239, Control_c, 2, 11, 101
4, 34257, Control_c, 2, 11, 98
4, 34275, Control_c, 2, 11, 95
4, 34293, Control_c, 2, 11, 92
4, 34311, Control_c, 2, 11, 89
4, 34548, Note_on_c, 2, 73, 0
4, 34563, Note_on_c, 2, 74, 101
4, 34683, Note_on_c, 2, 74, 0
4, 34923, Note_on_c, 2, 69, 101
4, 34923, Note_on_c, 2, 73, 101
4, 34923, Control_c, 2, 11, 102
4, 35403, Note_on_c, 2, 73, 0
4, 35403, Note_on_c, 2, 69, 0
4, 35403, Note_on_c, 2, 74, 101
4, 35403, Note_on_c, 2, 71, 101
4, 35523, Note_on_c, 2, 71, 0
4, 35523, Note_on_c, 2, 74, 0
4, 35523, Note_on_c, 2, 76, 101
4, 35523, Note_on_c, 2, 73, 101
4, 35628, Note_on_c, 2, 73, 0
4, 35628, Note_on_c, 2, 76, 0
4, 35643, Note_on_c, 2, 78, 101
4, 35643, Note_on_c, 2, 74, 101
4, 35763, Note_on_c, 2, 74, 0
4, 35763, Note_on_c, 2, 78, 0
4, 35883, Note_on_c, 2, 76, 101
4, 35883, Note_on_c, 2, 73, 101
4, 35943, Note_on_c, 2, 73, 0
4, 35943, Note_on_c, 2, 76, 0
4, 36003, Note_on_c, 2, 74, 101
4, 36063, Note_on_c, 2, 74, 0
4, 44283, Note_on_c, 2, 62, 101
4, 44283, Note_on_c, 2, 74, 101
4, 44283, Control_c, 2, 11, 87
4, 44298, Control_c, 2, 11, 86
4, 44313, Control_c, 2, 11, 85
4, 44328, Control_c, 2, 11, 84
4, 44343, Control_c, 2, 11, 83
4, 44358, Control_c, 2, 11, 82
4, 44373, Control_c, 2, 11, 81
4, 44388, Control_c, 2, 11, 80
4, 44403, Control_c, 2, 11, 79
4, 44418, Control_c, 2, 11, 78
4, 44433, Control_c, 2, 11, 77
4, 44448, Control_c, 2, 11, 76
4, 44463, Control_c, 2, 11, 75
4, 44478, Control_c, 2, 11, 74
4, 44493, Control_c, 2, 11, 73
4, 44508, Control_c, 2, 11, 72
4, 44523, Control_c, 2, 11, 71
4, 44538, Control_c, 2, 11, 70
4, 44553, Control_c, 2, 11, 69
4, 44568, Control_c, 2, 11, 68
4, 44583, Control_c, 2, 11, 67
4, 44591, Control_c, 2, 11, 64
4, 44600, Control_c, 2, 11, 61
4, 44609, Control_c, 2, 11, 58
4, 44618, Control_c, 2, 11, 55
4, 44627, Control_c, 2, 11, 52
4, 44633, Note_on_c, 2, 74, 0
4, 44633, Note_on_c, 2, 62, 0
4, 44636, Control_c, 2, 11, 49
4, 45003, Note_on_c, 2, 64, 101
4, 45003, Note_on_c, 2, 74, 101
4, 45003, Control_c, 2, 11, 87
4, 45018, Control_c, 2, 11, 86
4, 45033, Control_c, 2, 11, 85
4, 45048, Control_c, 2, 11, 84
4, 45063, Control_c, 2, 11, 83
4, 45078, Control_c, 2, 11, 82
4, 45093, Control_c, 2, 11, 81
4, 45108, Control_c, 2, 11, 80
4, 45123, Control_c, 2, 11, 79
4, 45138, Control_c, 2, 11, 78
4, 45153, Control_c, 2, 11, 77
4, 45168, Control_c, 2, 11, 76
4, 45183, Control_c, 2, 11, 75
4, 45198, Control_c, 2, 11, 74
4, 45213, Control_c, 2, 11, 73
4, 45228, Control_c, 2, 11, 72
4, 45243, Control_c, 2, 11, 71
4, 45258, Control_c, 2, 11, 70
4, 45273, Control_c, 2, 11, 69
4, 45288, Control_c, 2, 11, 68
4, 45303, Control_c, 2, 11, 67
4, 45311, Control_c, 2, 11, 64
4, 45320, Control_c, 2, 11, 61
4, 45329, Control_c, 2, 11, 58
4, 45338, Control_c, 2, 11, 55
4, 45347, Control_c, 2, 11, 52
4, 45353, Note_on_c, 2, 74, 0
4, 45353, Note_on_c, 2, 64, 0
4, 45356, Control_c, 2, 11, 49
4, 46803, Note_on_c, 2, 74, 101
4, 46803, Control_c, 2, 11, 102
4, 46803, Note_on_c, 2, 66, 101
4, 46863, Note_on_c, 2, 66, 0
4, 46863, Note_on_c, 2, 74, 0
4, 46923, Note_on_c, 2, 76, 101
4, 46923, Note_on_c, 2, 67, 101
4, 46983, Note_on_c, 2, 67, 0
4, 46983, Note_on_c, 2, 76, 0
4, 47043, Note_on_c, 2, 74, 101
4, 47043, Note_on_c, 2, 66, 101
4, 47103, Note_on_c, 2, 66, 0
4, 47103, Note_on_c, 2, 74, 0
4, 47163, Note_on_c, 2, 62, 101
4, 47163, Note_on_c, 2, 74, 101
4, 47163, Control_c, 2, 11, 87
4, 47178, Control_c, 2, 11, 86
4, 47193, Control_c, 2, 11, 85
4, 47208, Control_c, 2, 11, 84
4, 47223, Control_c, 2, 11, 83
4, 47238, Control_c, 2, 11, 82
4, 47253, Control_c, 2, 11, 81
4, 47268, Control_c, 2, 11, 80
4, 47283, Control_c, 2, 11, 79
4, 47298, Control_c, 2, 11, 78
4, 47313, Control_c, 2, 11, 77
4, 47328, Control_c, 2, 11, 76
4, 47343, Control_c, 2, 11, 75
4, 47358, Control_c, 2, 11, 74
4, 47373, Control_c, 2, 11, 73
4, 47388, Control_c, 2, 11, 72
4, 47403, Control_c, 2, 11, 71
4, 47418, Control_c, 2, 11, 70
4, 47433, Control_c, 2, 11, 69
4, 47448, Control_c, 2, 11, 68
4, 47463, Control_c, 2, 11, 67
4, 47471, Control_c, 2, 11, 64
4, 47480, Control_c, 2, 11, 61
4, 47489, Control_c, 2, 11, 58
4, 47498, Control_c, 2, 11, 55
4, 47507, Control_c, 2, 11, 52
4, 47513, Note_on_c, 2, 74, 0
4, 47513, Note_on_c, 2, 62, 0
4, 47516, Control_c, 2, 11, 49
4, 47883, Note_on_c, 2, 74, 101
4, 47883, Note_on_c, 2, 64, 101
4, 47883, Control_c, 2, 11, 87
4, 47898, Control_c, 2, 11, 86
4, 47913, Control_c, 2, 11, 85
4, 47928, Control_c, 2, 11, 84
4, 47943, Control_c, 2, 11, 83
4, 47958, Control_c, 2, 11, 82
4, 47973, Control_c, 2, 11, 81
4, 47988, Control_c, 2, 11, 80
4, 48003, Control_c, 2, 11, 79
4, 48018, Control_c, 2, 11, 78
4, 48033, Control_c, 2, 11, 77
4, 48048, Control_c, 2, 11, 76
4, 48063, Control_c, 2, 11, 75
4, 48078, Control_c, 2, 11, 74
4, 48093, Control_c, 2, 11, 73
4, 48108, Control_c, 2, 11, 72
4, 48123, Control_c, 2, 11, 71
4, 48138, Control_c, 2, 11, 70
4, 48153, Control_c, 2, 11, 69
4, 48168, Control_c, 2, 11, 68
4, 48183, Control_c, 2, 11, 67
4, 48191, Control_c, 2, 11, 64
4, 48200, Control_c, 2, 11, 61
4, 48209, Control_c, 2, 11, 58
4, 48218, Control_c, 2, 11, 55
4, 48227, Control_c, 2, 11, 52
4, 48233, Note_on_c, 2, 64, 0
4, 48233, Note_on_c, 2, 74, 0
4, 48236, Control_c, 2, 11, 49
4, 52923, Note_on_c, 2, 74, 101
4, 52923, Note_on_c, 2, 62, 101
4, 52923, Control_c, 2, 11, 52
4, 52943, Control_c, 2, 11, 53
4, 52964, Control_c, 2, 11, 54
4, 52984, Control_c, 2, 11, 55
4, 53005, Control_c, 2, 11, 56
4, 53025, Control_c, 2, 11, 57
4, 53046, Control_c, 2, 11, 58
4, 53067, Control_c, 2, 11, 59
4, 53087, Control_c, 2, 11, 60
4, 53108, Control_c, 2, 11, 61
4, 53128, Control_c, 2, 11, 62
4, 53149, Control_c, 2, 11, 63
4, 53169, Control_c, 2, 11, 64
4, 53190, Control_c, 2, 11, 65
4, 53211, Control_c, 2, 11, 66
4, 53231, Control_c, 2, 11, 67
4, 53252, Control_c, 2, 11, 68
4, 53272, Control_c, 2, 11, 69
4, 53293, Control_c, 2, 11, 70
4, 53313, Control_c, 2, 11, 71
4, 53334, Control_c, 2, 11, 72
4, 53355, Control_c, 2, 11, 73
4, 53375, Control_c, 2, 11, 74
4, 53396, Control_c, 2, 11, 75
4, 53416, Control_c, 2, 11, 76
4, 53437, Control_c, 2, 11, 77
4, 53457, Control_c, 2, 11, 78
4, 53478, Control_c, 2, 11, 79
4, 53499, Control_c, 2, 11, 80
4, 53519, Control_c, 2, 11, 81
4, 53540, Control_c, 2, 11, 82
4, 53560, Control_c, 2, 11, 83
4, 53581, Control_c, 2, 11, 84
4, 53601, Control_c, 2, 11, 85
4, 53622, Control_c, 2, 11, 86
4, 53628, Note_on_c, 2, 62, 0
4, 53628, Note_on_c, 2, 74, 0
4, 53643, Note_on_c, 2, 73, 101
4, 53643, Control_c, 2, 11, 87
4, 53643, Note_on_c, 2, 61, 101
4, 53988, Note_on_c, 2, 61, 0
4, 53988, Note_on_c, 2, 73, 0
4, 54003, Note_on_c, 2, 74, 101
4, 54003, Note_on_c, 2, 62, 101
4, 54123, Note_on_c, 2, 62, 0
4, 54123, Note_on_c, 2, 74, 0
4, 55803, Note_on_c, 2, 74, 101
4, 55803, Control_c, 2, 11, 52
4, 55803, Note_on_c, 2, 62, 101
4, 55823, Control_c, 2, 11, 53
4, 55844, Control_c, 2, 11, 54
4, 55864, Control_c, 2, 11, 55
4, 55885, Control_c, 2, 11, 56
4, 55905, Control_c, 2, 11, 57
4, 55926, Control_c, 2, 11, 58
4, 55947, Control_c, 2, 11, 59
4, 55967, Control_c, 2, 11, 60
4, 55988, Control_c, 2, 11, 61
4, 56008, Control_c, 2, 11, 62
4, 56029, Control_c, 2, 11, 63
4, 56049, Control_c, 2, 11, 64
4, 56070, Control_c, 2, 11, 65
4, 56091, Control_c, 2, 11, 66
4, 56111, Control_c, 2, 11, 67
4, 56132, Control_c, 2, 11, 68
4, 56152, Control_c, 2, 11, 69
4, 56173, Control_c, 2, 11, 70
4, 56193, Control_c, 2, 11, 71
4, 56214, Control_c, 2, 11, 72
4, 56235, Control_c, 2, 11, 73
4, 56255, Control_c, 2, 11, 74
4, 56276, Control_c, 2, 11, 75
4, 56296, Control_c, 2, 11, 76
4, 56317, Control_c, 2, 11, 77
4, 56337, Control_c, 2, 11, 78
4, 56358, Control_c, 2, 11, 79
4, 56379, Control_c, 2, 11, 80
4, 56399, Control_c, 2, 11, 81
4, 56420, Control_c, 2, 11, 82
4, 56440, Control_c, 2, 11, 83
4, 56461, Control_c, 2, 11, 84
4, 56481, Control_c, 2, 11, 85
4, 56502, Control_c, 2, 11, 86
4, 56508, Note_on_c, 2, 62, 0
4, 56508, Note_on_c, 2, 74, 0
4, 56523, Note_on_c, 2, 61, 101
4, 56523, Note_on_c, 2, 73, 101
4, 56523, Control_c, 2, 11, 87
4, 56868, Note_on_c, 2, 73, 0
4, 56868, Note_on_c, 2, 61, 0
4, 56883, Note_on_c, 2, 62, 101
4, 56883, Note_on_c, 2, 74, 101
4, 57003, Note_on_c, 2, 74, 0
4, 57003, Note_on_c, 2, 62, 0
4, 57243, Control_c, 2, 11, 52
4, 57243, Note_on_c, 2, 62, 101
4, 57243, Note_on_c, 2, 74, 101
4, 57263, Control_c, 2, 11, 53
4, 57284, Control_c, 2, 11, 54
4, 57304, Control_c, 2, 11, 55
4, 57325, Control_c, 2, 11, 56
4, 57345, Control_c, 2, 11, 57
4, 57366, Control_c, 2, 11, 58
4, 57387, Control_c, 2, 11, 59
4, 57407, Control_c, 2, 11, 60
4, 57428, Control_c, 2, 11, 61
4, 57448, Control_c, 2, 11, 62
4, 57469, Control_c, 2, 11, 63
4, 57489, Control_c, 2, 11, 64
4, 57510, Control_c, 2, 11, 65
4, 57531, Control_c, 2, 11, 66
4, 57551, Control_c, 2, 11, 67
4, 57572, Control_c, 2, 11, 68
4, 57592, Control_c, 2, 11, 69
4, 57613, Control_c, 2, 11, 70
4, 57633, Control_c, 2, 11, 71
4, 57654, Control_c, 2, 11, 72
4, 57675, Control_c, 2, 11, 73
4, 57695, Control_c, 2, 11, 74
4, 57716, Control_c, 2, 11, 75
4, 57736, Control_c, 2, 11, 76
4, 57757, Control_c, 2, 11, 77
4, 57777, Control_c, 2, 11, 78
4, 57798, Control_c, 2, 11, 79
4, 57819, Control_c, 2, 11, 80
4, 57839, Control_c, 2, 11, 81
4, 57860, Control_c, 2, 11, 82
4, 57880, Control_c, 2, 11, 83
4, 57901, Control_c, 2, 11, 84
4, 57921, Control_c, 2, 11, 85
4, 57942, Control_c, 2, 11, 86
4, 57948, Note_on_c, 2, 74, 0
4, 57948, Note_on_c, 2, 62, 0
4, 57963, Control_c, 2, 11, 107
4, 57963, Note_on_c, 2, 61, 101
4, 57963, Note_on_c, 2, 73, 101
4, 57981, Control_c, 2, 11, 104
4, 57999, Control_c, 2, 11, 101
4, 58017, Control_c, 2, 11, 98
4, 58035, Control_c, 2, 11, 95
4, 58053, Control_c, 2, 11, 92
4, 58071, Control_c, 2, 11, 89
4, 58308, Note_on_c, 2, 73, 0
4, 58308, Note_on_c, 2, 61, 0
4, 58323, Note_on_c, 2, 74, 101
4, 58323, Note_on_c, 2, 62, 101
4, 58443, Note_on_c, 2, 62, 0
4, 58443, Note_on_c, 2, 74, 0
4, 58683, Note_on_c, 2, 73, 101
4, 58683, Control_c, 2, 11, 107
4, 58701, Control_c, 2, 11, 104
4, 58719, Control_c, 2, 11, 101
4, 58737, Control_c, 2, 11, 98
4, 58755, Control_c, 2, 11, 95
4, 58773, Control_c, 2, 11, 92
4, 58791, Control_c, 2, 11, 89
4, 59028, Note_on_c, 2, 73, 0
4, 59043, Note_on_c, 2, 74, 101
4, 59163, Note_on_c, 2, 74, 0
4, 59403, Note_on_c, 2, 69, 101
4, 59403, Note_on_c, 2, 73, 101
4, 59403, Control_c, 2, 11, 102
4, 59883, Note_on_c, 2, 73, 0
4, 59883, Note_on_c, 2, 69, 0
4, 59883, Note_on_c, 2, 71, 101
4, 59883, Note_on_c, 2, 74, 101
4, 60003, Note_on_c, 2, 74, 0
4, 60003, Note_on_c, 2, 71, 0
4, 60003, Note_on_c, 2, 76, 101
4, 60003, Note_on_c, 2, 73, 101
4, 60108, Note_on_c, 2, 73, 0
4, 60108, Note_on_c, 2, 76, 0
4, 60123, Note_on_c, 2, 74, 101
4, 60123, Note_on_c, 2, 78, 101
4, 60243, Note_on_c, 2, 78, 0
4, 60243, Note_on_c, 2, 74, 0
4, 60363, Note_on_c, 2, 73, 101
4, 60363, Note_on_c, 2, 76, 101
4, 60423, Note_on_c, 2, 76, 0
4, 60423, Note_on_c, 2, 73, 0
4, 60483, Note_on_c, 2, 74, 101
4, 60543, Note_on_c, 2, 74, 0
4, 71643, Control_c, 2, 11, 102
4, 71643, Note_on_c, 2, 81, 101
4, 71643, Note_on_c, 2, 69, 101
4, 72363, Note_on_c, 2, 69, 0
4, 72363, Note_on_c, 2, 81, 0
4, 72363, Control_c, 2, 11, 87
4, 72363, Note_on_c, 2, 78, 101
4, 72363, Note_on_c, 2, 66, 101
4, 72372, Control_c, 2, 11, 84
4, 72381, Control_c, 2, 11, 81
4, 72390, Control_c, 2, 11, 78
4, 72399, Control_c, 2, 11, 75
4, 72408, Control_c, 2, 11, 72
4, 72417, Control_c, 2, 11, 69
4, 72426, Control_c, 2, 11, 66
4, 72435, Control_c, 2, 11, 63
4, 72444, Control_c, 2, 11, 60
4, 72453, Control_c, 2, 11, 57
4, 72462, Control_c, 2, 11, 54
4, 72471, Control_c, 2, 11, 51
4, 72480, Control_c, 2, 11, 48
4, 72483, Note_on_c, 2, 66, 0
4, 72483, Note_on_c, 2, 78, 0
4, 73683, Note_on_c, 2, 69, 101
4, 73743, Note_on_c, 2, 69, 0
4, 73803, Note_on_c, 2, 71, 101
4, 73803, Control_c, 2, 11, 52
4, 73827, Control_c, 2, 11, 53
4, 73851, Control_c, 2, 11, 54
4, 73875, Control_c, 2, 11, 55
4, 73899, Control_c, 2, 11, 56
4, 73923, Control_c, 2, 11, 57
4, 73947, Control_c, 2, 11, 58
4, 73971, Control_c, 2, 11, 59
4, 73995, Control_c, 2, 11, 60
4, 74019, Control_c, 2, 11, 61
4, 74043, Control_c, 2, 11, 62
4, 74067, Control_c, 2, 11, 63
4, 74091, Control_c, 2, 11, 64
4, 74115, Control_c, 2, 11, 65
4, 74139, Control_c, 2, 11, 66
4, 74163, Note_on_c, 2, 71, 0
4, 74163, Note_on_c, 2, 69, 101
4, 74163, Control_c, 2, 11, 69
4, 74177, Control_c, 2, 11, 72
4, 74191, Control_c, 2, 11, 75
4, 74206, Control_c, 2, 11, 78
4, 74223, Control_c, 2, 11, 77
4, 74241, Control_c, 2, 11, 74
4, 74259, Control_c, 2, 11, 71
4, 74277, Control_c, 2, 11, 68
4, 74295, Control_c, 2, 11, 66
4, 74319, Control_c, 2, 11, 64
4, 74343, Control_c, 2, 11, 62
4, 74367, Control_c, 2, 11, 60
4, 74391, Control_c, 2, 11, 58
4, 74403, Note_on_c, 2, 69, 0
4, 74403, Note_on_c, 2, 67, 101
4, 74415, Control_c, 2, 11, 56
4, 74439, Control_c, 2, 11, 54
4, 74463, Control_c, 2, 11, 52
4, 74487, Control_c, 2, 11, 50
4, 74511, Control_c, 2, 11, 48
4, 74523, Note_on_c, 2, 67, 0
4, 74523, Note_on_c, 2, 66, 101
4, 74643, Note_on_c, 2, 66, 0
4, 74643, Note_on_c, 2, 71, 101
4, 74763, Note_on_c, 2, 71, 0
4, 74763, Note_on_c, 2, 67, 101
4, 74823, Note_on_c, 2, 67, 0
4, 74883, Note_on_c, 2, 66, 101
4, 75003, Note_on_c, 2, 66, 0
4, 79443, Note_on_c, 2, 73, 101
4, 79443, Note_on_c, 2, 64, 101
4, 79443, Control_c, 2, 11, 47
4, 79503, Note_on_c, 2, 64, 0
4, 79503, Note_on_c, 2, 73, 0
4, 79563, Note_on_c, 2, 66, 101
4, 79563, Note_on_c, 2, 74, 101
4, 79683, Note_on_c, 2, 74, 0
4, 79683, Note_on_c, 2, 66, 0
4, 79683, Note_on_c, 2, 67, 101
4, 79683, Note_on_c, 2, 76, 101
4, 79803, Note_on_c, 2, 76, 0
4, 79803, Note_on_c, 2, 67, 0
4, 79803, Note_on_c, 2, 73, 101
4, 79803, Note_on_c, 2, 64, 101
4, 79863, Note_on_c, 2, 64, 0
4, 79863, Note_on_c, 2, 73, 0
4, 79923, Note_on_c, 2, 66, 101
4, 79923, Note_on_c, 2, 74, 101
4, 80043, Note_on_c, 2, 74, 0
4, 80043, Note_on_c, 2, 66, 0
4, 85323, Note_on_c, 2, 69, 101
4, 85323, Control_c, 2, 11, 102
4, 85323, Note_on_c, 2, 81, 101
4, 86043, Note_on_c, 2, 81, 0
4, 86043, Note_on_c, 2, 69, 0
4, 86043, Note_on_c, 2, 66, 101
4, 86043, Control_c, 2, 11, 87
4, 86043, Note_on_c, 2, 78, 101
4, 86052, Control_c, 2, 11, 84
4, 86061, Control_c, 2, 11, 81
4, 86070, Control_c, 2, 11, 78
4, 86079, Control_c, 2, 11, 75
4, 86088, Control_c, 2, 11, 72
4, 86097, Control_c, 2, 11, 69
4, 86106, Control_c, 2, 11, 66
4, 86115, Control_c, 2, 11, 63
4, 86124, Control_c, 2, 11, 60
4, 86133, Control_c, 2, 11, 57
4, 86142, Control_c, 2, 11, 54
4, 86151, Control_c, 2, 11, 51
4, 86160, Control_c, 2, 11, 48
4, 86163, Note_on_c, 2, 78, 0
4, 86163, Note_on_c, 2, 66, 0
4, 87363, Note_on_c, 2, 69, 101
4, 87423, Note_on_c, 2, 69, 0
4, 87483, Note_on_c, 2, 71, 101
4, 87483, Control_c, 2, 11, 52
4, 87507, Control_c, 2, 11, 53
4, 87531, Control_c, 2, 11, 54
4, 87555, Control_c, 2, 11, 55
4, 87579, Control_c, 2, 11, 56
4, 87603, Control_c, 2, 11, 57
4, 87627, Control_c, 2, 11, 58
4, 87651, Control_c, 2, 11, 59
4, 87675, Control_c, 2, 11, 60
4, 87699, Control_c, 2, 11, 61
4, 87723, Control_c, 2, 11, 62
4, 87747, Control_c, 2, 11, 63
4, 87771, Control_c, 2, 11, 64
4, 87795, Control_c, 2, 11, 65
4, 87819, Control_c, 2, 11, 66
4, 87843, Note_on_c, 2, 71, 0
4, 87843, Note_on_c, 2, 69, 101
4, 87843, Control_c, 2, 11, 69
4, 87857, Control_c, 2, 11, 72
4, 87871, Control_c, 2, 11, 75
4, 87886, Control_c, 2, 11, 78
4, 87903, Control_c, 2, 11, 77
4, 87921, Control_c, 2, 11, 74
4, 87939, Control_c, 2, 11, 71
4, 87957, Control_c, 2, 11, 68
4, 87975, Control_c, 2, 11, 66
4, 87999, Control_c, 2, 11, 64
4, 88023, Control_c, 2, 11, 62
4, 88047, Control_c, 2, 11, 60
4, 88071, Control_c, 2, 11, 58
4, 88083, Note_on_c, 2, 69, 0
4, 88083, Note_on_c, 2, 67, 101
4, 88095, Control_c, 2, 11, 56
4, 88119, Control_c, 2, 11, 54
4, 88143, Control_c, 2, 11, 52
4, 88167, Control_c, 2, 11, 50
4, 88191, Control_c, 2, 11, 48
4, 88203, Note_on_c, 2, 67, 0
4, 88203, Note_on_c, 2, 66, 101
4, 88323, Note_on_c, 2, 66, 0
4, 88323, Note_on_c, 2, 71, 101
4, 88443, Note_on_c, 2, 71, 0
4, 88443, Note_on_c, 2, 67, 101
4, 88503, Note_on_c, 2, 67, 0
4, 88563, Note_on_c, 2, 66, 101
4, 88683, Note_on_c, 2, 66, 0
4, 93123, Note_on_c, 2, 73, 101
4, 93123, Note_on_c, 2, 64, 101
4, 93123, Control_c, 2, 11, 47
4, 93183, Note_on_c, 2, 64, 0
4, 93183, Note_on_c, 2, 73, 0
4, 93243, Note_on_c, 2, 66, 101
4, 93243, Note_on_c, 2, 74, 101
4, 93363, Note_on_c, 2, 74, 0
4, 93363, Note_on_c, 2, 66, 0
4, 93363, Note_on_c, 2, 76, 101
4, 93363, Note_on_c, 2, 67, 101
4, 93483, Note_on_c, 2, 67, 0
4, 93483, Note_on_c, 2, 76, 0
4, 93483, Note_on_c, 2, 64, 101
4, 93483, Note_on_c, 2, 73, 101
4, 93543, Note_on_c, 2, 73, 0
4, 93543, Note_on_c, 2, 64, 0
4, 93603, Note_on_c, 2, 66, 101
4, 93603, Note_on_c, 2, 74, 101
4, 93723, Note_on_c, 2, 74, 0
4, 93723, Note_on_c, 2, 66, 0
4, 93963, Note_on_c, 2, 62, 95
4, 93963, Control_c, 2, 11, 87
4, 93963, Note_on_c, 2, 74, 95
4, 93978, Control_c, 2, 11, 86
4, 93993, Control_c, 2, 11, 85
4, 94008, Control_c, 2, 11, 84
4, 94023, Control_c, 2, 11, 83
4, 94038, Control_c, 2, 11, 82
4, 94053, Control_c, 2, 11, 81
4, 94068, Control_c, 2, 11, 80
4, 94083, Control_c, 2, 11, 79
4, 94098, Control_c, 2, 11, 78
4, 94113, Control_c, 2, 11, 77
4, 94128, Control_c, 2, 11, 76
4, 94143, Control_c, 2, 11, 75
4, 94158, Control_c, 2, 11, 74
4, 94173, Control_c, 2, 11, 73
4, 94188, Control_c, 2, 11, 72
4, 94203, Control_c, 2, 11, 71
4, 94218, Control_c, 2, 11, 70
4, 94233, Control_c, 2, 11, 69
4, 94248, Control_c, 2, 11, 68
4, 94263, Control_c, 2, 11, 67
4, 94271, Control_c, 2, 11, 64
4, 94280, Control_c, 2, 11, 61
4, 94289, Control_c, 2, 11, 58
4, 94298, Control_c, 2, 11, 55
4, 94307, Control_c, 2, 11, 52
4, 94316, Control_c, 2, 11, 49
4, 94323, Note_on_c, 2, 74, 0
4, 94323, Note_on_c, 2, 62, 0
4, 94683, Note_on_c, 2, 76, 95
4, 94683, Note_on_c, 2, 64, 95
4, 94683, Control_c, 2, 11, 87
4, 94698, Control_c, 2, 11, 86
4, 94713, Control_c, 2, 11, 85
4, 94728, Control_c, 2, 11, 84
4, 94743, Control_c, 2, 11, 83
4, 94758, Control_c, 2, 11, 82
4, 94773, Control_c, 2, 11, 81
4, 94788, Control_c, 2, 11, 80
4, 94803, Control_c, 2, 11, 79
4, 94818, Control_c, 2, 11, 78
4, 94833, Control_c, 2, 11, 77
4, 94848, Control_c, 2, 11, 76
4, 94863, Control_c, 2, 11, 75
4, 94878, Control_c, 2, 11, 74
4, 94893, Control_c, 2, 11, 73
4, 94908, Control_c, 2, 11, 72
4, 94923, Control_c, 2, 11, 71
4, 94938, Control_c, 2, 11, 70
4, 94953, Control_c, 2, 11, 69
4, 94968, Control_c, 2, 11, 68
4, 94983, Control_c, 2, 11, 67
4, 94991, Control_c, 2, 11, 64
4, 95000, Control_c, 2, 11, 61
4, 95009, Control_c, 2, 11, 58
4, 95018, Control_c, 2, 11, 55
4, 95027, Control_c, 2, 11, 52
4, 95036, Control_c, 2, 11, 49
4, 95043, Note_on_c, 2, 64, 0
4, 95043, Note_on_c, 2, 76, 0
4, 96483, Control_c, 2, 11, 102
4, 96483, Note_on_c, 2, 74, 101
4, 96483, Note_on_c, 2, 66, 101
4, 96543, Note_on_c, 2, 66, 0
4, 96543, Note_on_c, 2, 74, 0
4, 96603, Note_on_c, 2, 67, 101
4, 96603, Note_on_c, 2, 76, 101
4, 96663, Note_on_c, 2, 76, 0
4, 96663, Note_on_c, 2, 67, 0
4, 96723, Note_on_c, 2, 66, 101
4, 96723, Note_on_c, 2, 74, 101
4, 96783, Note_on_c, 2, 74, 0
4, 96783, Note_on_c, 2, 66, 0
4, 96843, Note_on_c, 2, 74, 101
4, 96843, Control_c, 2, 11, 87
4, 96843, Note_on_c, 2, 62, 101
4, 96858, Control_c, 2, 11, 86
4, 96873, Control_c, 2, 11, 85
4, 96888, Control_c, 2, 11, 84
4, 96903, Control_c, 2, 11, 83
4, 96918, Control_c, 2, 11, 82
4, 96933, Control_c, 2, 11, 81
4, 96948, Control_c, 2, 11, 80
4, 96963, Control_c, 2, 11, 79
4, 96978, Control_c, 2, 11, 78
4, 96993, Control_c, 2, 11, 77
4, 97008, Control_c, 2, 11, 76
4, 97023, Control_c, 2, 11, 75
4, 97038, Control_c, 2, 11, 74
4, 97053, Control_c, 2, 11, 73
4, 97068, Control_c, 2, 11, 72
4, 97083, Control_c, 2, 11, 71
4, 97098, Control_c, 2, 11, 70
4, 97113, Control_c, 2, 11, 69
4, 97128, Control_c, 2, 11, 68
4, 97143, Control_c, 2, 11, 67
4, 97151, Control_c, 2, 11, 64
4, 97160, Control_c, 2, 11, 61
4, 97169, Control_c, 2, 11, 58
4, 97178, Control_c, 2, 11, 55
4, 97187, Control_c, 2, 11, 52
4, 97196, Control_c, 2, 11, 49
4, 97203, Note_on_c, 2, 62, 0
4, 97203, Note_on_c, 2, 74, 0
4, 97563, Note_on_c, 2, 74, 101
4, 97563, Note_on_c, 2, 64, 101
4, 97563, Control_c, 2, 11, 87
4, 97578, Control_c, 2, 11, 86
4, 97593, Control_c, 2, 11, 85
4, 97608, Control_c, 2, 11, 84
4, 97623, Control_c, 2, 11, 83
4, 97638, Control_c, 2, 11, 82
4, 97653, Control_c, 2, 11, 81
4, 97668, Control_c, 2, 11, 80
4, 97683, Control_c, 2, 11, 79
4, 97698, Control_c, 2, 11, 78
4, 97713, Control_c, 2, 11, 77
4, 97728, Control_c, 2, 11, 76
4, 97743, Control_c, 2, 11, 75
4, 97758, Control_c, 2, 11, 74
4, 97773, Control_c, 2, 11, 73
4, 97788, Control_c, 2, 11, 72
4, 97803, Control_c, 2, 11, 71
4, 97818, Control_c, 2, 11, 70
4, 97833, Control_c, 2, 11, 69
4, 97848, Control_c, 2, 11, 68
4, 97863, Control_c, 2, 11, 67
4, 97871, Control_c, 2, 11, 64
4, 97880, Control_c, 2, 11, 61
4, 97889, Control_c, 2, 11, 58
4, 97898, Control_c, 2, 11, 55
4, 97907, Control_c, 2, 11, 52
4, 97916, Control_c, 2, 11, 49
4, 97923, Note_on_c, 2, 64, 0
4, 97923, Note_on_c, 2, 74, 0
4, 99363, Control_c, 2, 11, 102
4, 99363, Note_on_c, 2, 73, 101
4, 99363, Note_on_c, 2, 69, 101
4, 99423, Note_on_c, 2, 69, 0
4, 99423, Note_on_c, 2, 73, 0
4, 99483, Note_on_c, 2, 71, 101
4, 99483, Note_on_c, 2, 68, 101
4, 99543, Note_on_c, 2, 68, 0
4, 99543, Note_on_c, 2, 71, 0
4, 99603, Note_on_c, 2, 69, 101
4, 99603, Note_on_c, 2, 73, 101
4, 99663, Note_on_c, 2, 73, 0
4, 99663, Note_on_c, 2, 69, 0
4, 99723, Note_on_c, 2, 74, 95
4, 99723, Control_c, 2, 11, 87
4, 99723, Note_on_c, 2, 62, 95
4, 99738, Control_c, 2, 11, 86
4, 99753, Control_c, 2, 11, 85
4, 99768, Control_c, 2, 11, 84
4, 99783, Control_c, 2, 11, 83
4, 99798, Control_c, 2, 11, 82
4, 99813, Control_c, 2, 11, 81
4, 99828, Control_c, 2, 11, 80
4, 99843, Control_c, 2, 11, 79
4, 99858, Control_c, 2, 11, 78
4, 99873, Control_c, 2, 11, 77
4, 99888, Control_c, 2, 11, 76
4, 99903, Control_c, 2, 11, 75
4, 99918, Control_c, 2, 11, 74
4, 99933, Control_c, 2, 11, 73
4, 99948, Control_c, 2, 11, 72
4, 99963, Control_c, 2, 11, 71
4, 99978, Control_c, 2, 11, 70
4, 99993, Control_c, 2, 11, 69
4, 100008, Control_c, 2, 11, 68
4, 100023, Control_c, 2, 11, 67
4, 100031, Control_c, 2, 11, 64
4, 100040, Control_c, 2, 11, 61
4, 100049, Control_c, 2, 11, 58
4, 100058, Control_c, 2, 11, 55
4, 100067, Control_c, 2, 11, 52
4, 100076, Control_c, 2, 11, 49
4, 100083, Note_on_c, 2, 62, 0
4, 100083, Note_on_c, 2, 74, 0
4, 100443, Note_on_c, 2, 64, 95
4, 100443, Control_c, 2, 11, 87
4, 100443, Note_on_c, 2, 76, 95
4, 100458, Control_c, 2, 11, 86
4, 100473, Control_c, 2, 11, 85
4, 100488, Control_c, 2, 11, 84
4, 100503, Control_c, 2, 11, 83
4, 100518, Control_c, 2, 11, 82
4, 100533, Control_c, 2, 11, 81
4, 100548, Control_c, 2, 11, 80
4, 100563, Control_c, 2, 11, 79
4, 100578, Control_c, 2, 11, 78
4, 100593, Control_c, 2, 11, 77
4, 100608, Control_c, 2, 11, 76
4, 100623, Control_c, 2, 11, 75
4, 100638, Control_c, 2, 11, 74
4, 100653, Control_c, 2, 11, 73
4, 100668, Control_c, 2, 11, 72
4, 100683, Control_c, 2, 11, 71
4, 100698, Control_c, 2, 11, 70
4, 100713, Control_c, 2, 11, 69
4, 100728, Control_c, 2, 11, 68
4, 100743, Control_c, 2, 11, 67
4, 100751, Control_c, 2, 11, 64
4, 100760, Control_c, 2, 11, 61
4, 100769, Control_c, 2, 11, 58
4, 100778, Control_c, 2, 11, 55
4, 100787, Control_c, 2, 11, 52
4, 100796, Control_c, 2, 11, 49
4, 100803, Note_on_c, 2, 76, 0
4, 100803, Note_on_c, 2, 64, 0
4, 102243, Control_c, 2, 11, 102
4, 102243, Note_on_c, 2, 66, 101
4, 102243, Note_on_c, 2, 74, 101
4, 102303, Note_on_c, 2, 74, 0
4, 102303, Note_on_c, 2, 66, 0
4, 102363, Note_on_c, 2, 67, 101
4, 102363, Note_on_c, 2, 76, 101
4, 102423, Note_on_c, 2, 76, 0
4, 102423, Note_on_c, 2, 67, 0
4, 102483, Note_on_c, 2, 66, 101
4, 102483, Note_on_c, 2, 74, 101
4, 102543, Note_on_c, 2, 74, 0
4, 102543, Note_on_c, 2, 66, 0
4, 102603, Note_on_c, 2, 74, 101
4, 102603, Note_on_c, 2, 62, 101
4, 102603, Control_c, 2, 11, 87
4, 102618, Control_c, 2, 11, 86
4, 102633, Control_c, 2, 11, 85
4, 102648, Control_c, 2, 11, 84
4, 102663, Control_c, 2, 11, 83
4, 102678, Control_c, 2, 11, 82
4, 102693, Control_c, 2, 11, 81
4, 102708, Control_c, 2, 11, 80
4, 102723, Control_c, 2, 11, 79
4, 102738, Control_c, 2, 11, 78
4, 102753, Control_c, 2, 11, 77
4, 102768, Control_c, 2, 11, 76
4, 102783, Control_c, 2, 11, 75
4, 102798, Control_c, 2, 11, 74
4, 102813, Control_c, 2, 11, 73
4, 102828, Control_c, 2, 11, 72
4, 102843, Control_c, 2, 11, 71
4, 102858, Control_c, 2, 11, 70
4, 102873, Control_c, 2, 11, 69
4, 102888, Control_c, 2, 11, 68
4, 102903, Control_c, 2, 11, 67
4, 102911, Control_c, 2, 11, 64
4, 102920, Control_c, 2, 11, 61
4, 102929, Control_c, 2, 11, 58
4, 102938, Control_c, 2, 11, 55
4, 102947, Control_c, 2, 11, 52
4, 102956, Control_c, 2, 11, 49
4, 102963, Note_on_c, 2, 62, 0
4, 102963, Note_on_c, 2, 74, 0
4, 103323, Note_on_c, 2, 74, 101
4, 103323, Control_c, 2, 11, 87
4, 103323, Note_on_c, 2, 64, 101
4, 103338, Control_c, 2, 11, 86
4, 103353, Control_c, 2, 11, 85
4, 103368, Control_c, 2, 11, 84
4, 103383, Control_c, 2, 11, 83
4, 103398, Control_c, 2, 11, 82
4, 103413, Control_c, 2, 11, 81
4, 103428, Control_c, 2, 11, 80
4, 103443, Control_c, 2, 11, 79
4, 103458, Control_c, 2, 11, 78
4, 103473, Control_c, 2, 11, 77
4, 103488, Control_c, 2, 11, 76
4, 103503, Control_c, 2, 11, 75
4, 103518, Control_c, 2, 11, 74
4, 103533, Control_c, 2, 11, 73
4, 103548, Control_c, 2, 11, 72
4, 103563, Control_c, 2, 11, 71
4, 103578, Control_c, 2, 11, 70
4, 103593, Control_c, 2, 11, 69
4, 103608, Control_c, 2, 11, 68
4, 103623, Control_c, 2, 11, 67
4, 103631, Control_c, 2, 11, 64
4, 103640, Control_c, 2, 11, 61
4, 103649, Control_c, 2, 11, 58
4, 103658, Control_c, 2, 11, 55
4, 103667, Control_c, 2, 11, 52
4, 103676, Control_c, 2, 11, 49
4, 103683, Note_on_c, 2, 64, 0
4, 103683, Note_on_c, 2, 74, 0
4, 105123, Note_on_c, 2, 69, 101
4, 105123, Control_c, 2, 11, 102
4, 105123, Note_on_c, 2, 73, 101
4, 105183, Note_on_c, 2, 73, 0
4, 105183, Note_on_c, 2, 69, 0
4, 105243, Note_on_c, 2, 68, 101
4, 105243, Note_on_c, 2, 71, 101
4, 105303, Note_on_c, 2, 71, 0
4, 105303, Note_on_c, 2, 68, 0
4, 105363, Note_on_c, 2, 73, 101
4, 105363, Note_on_c, 2, 69, 101
4, 105423, Note_on_c, 2, 69, 0
4, 105423, Note_on_c, 2, 73, 0
4, 113403, Note_on_c, 2, 62, 101
4, 113403, Note_on_c, 2, 74, 101
4, 113403, Control_c, 2, 11, 87
4, 113418, Control_c, 2, 11, 86
4, 113433, Control_c, 2, 11, 85
4, 113448, Control_c, 2, 11, 84
4, 113463, Control_c, 2, 11, 83
4, 113478, Control_c, 2, 11, 82
4, 113493, Control_c, 2, 11, 81
4, 113508, Control_c, 2, 11, 80
4, 113523, Control_c, 2, 11, 79
4, 113538, Control_c, 2, 11, 78
4, 113553, Control_c, 2, 11, 77
4, 113568, Control_c, 2, 11, 76
4, 113583, Control_c, 2, 11, 75
4, 113598, Control_c, 2, 11, 74
4, 113613, Control_c, 2, 11, 73
4, 113628, Control_c, 2, 11, 72
4, 113643, Control_c, 2, 11, 71
4, 113658, Control_c, 2, 11, 70
4, 113673, Control_c, 2, 11, 69
4, 113688, Control_c, 2, 11, 68
4, 113703, Control_c, 2, 11, 67
4, 113711, Control_c, 2, 11, 64
4, 113720, Control_c, 2, 11, 61
4, 113729, Control_c, 2, 11, 58
4, 113738, Control_c, 2, 11, 55
4, 113747, Control_c, 2, 11, 52
4, 113753, Note_on_c, 2, 74, 0
4, 113753, Note_on_c, 2, 62, 0
4, 113756, Control_c, 2, 11, 49
4, 114123, Note_on_c, 2, 74, 101
4, 114123, Control_c, 2, 11, 87
4, 114123, Note_on_c, 2, 64, 101
4, 114138, Control_c, 2, 11, 86
4, 114153, Control_c, 2, 11, 85
4, 114168, Control_c, 2, 11, 84
4, 114183, Control_c, 2, 11, 83
4, 114198, Control_c, 2, 11, 82
4, 114213, Control_c, 2, 11, 81
4, 114228, Control_c, 2, 11, 80
4, 114243, Control_c, 2, 11, 79
4, 114258, Control_c, 2, 11, 78
4, 114273, Control_c, 2, 11, 77
4, 114288, Control_c, 2, 11, 76
4, 114303, Control_c, 2, 11, 75
4, 114318, Control_c, 2, 11, 74
4, 114333, Control_c, 2, 11, 73
4, 114348, Control_c, 2, 11, 72
4, 114363, Control_c, 2, 11, 71
4, 114378, Control_c, 2, 11, 70
4, 114393, Control_c, 2, 11, 69
4, 114408, Control_c, 2, 11, 68
4, 114423, Control_c, 2, 11, 67
4, 114431, Control_c, 2, 11, 64
4, 114440, Control_c, 2, 11, 61
4, 114449, Control_c, 2, 11, 58
4, 114458, Control_c, 2, 11, 55
4, 114467, Control_c, 2, 11, 52
4, 114473, Note_on_c, 2, 64, 0
4, 114473, Note_on_c, 2, 74, 0
4, 114476, Control_c, 2, 11, 49
4, 115923, Note_on_c, 2, 74, 101
4, 115923, Control_c, 2, 11, 102
4, 115923, Note_on_c, 2, 66, 101
4, 115983, Note_on_c, 2, 66, 0
4, 115983, Note_on_c, 2, 74, 0
4, 116043, Note_on_c, 2, 76, 101
4, 116043, Note_on_c, 2, 67, 101
4, 116103, Note_on_c, 2, 67, 0
4, 116103, Note_on_c, 2, 76, 0
4, 116163, Note_on_c, 2, 74, 101
4, 116163, Note_on_c, 2, 66, 101
4, 116223, Note_on_c, 2, 66, 0
4, 116223, Note_on_c, 2, 74, 0
4, 116283, Note_on_c, 2, 62, 101
4, 116283, Control_c, 2, 11, 87
4, 116283, Note_on_c, 2, 74, 101
4, 116298, Control_c, 2, 11, 86
4, 116313, Control_c, 2, 11, 85
4, 116328, Control_c, 2, 11, 84
4, 116343, Control_c, 2, 11, 83
4, 116358, Control_c, 2, 11, 82
4, 116373, Control_c, 2, 11, 81
4, 116388, Control_c, 2, 11, 80
4, 116403, Control_c, 2, 11, 79
4, 116418, Control_c, 2, 11, 78
4, 116433, Control_c, 2, 11, 77
4, 116448, Control_c, 2, 11, 76
4, 116463, Control_c, 2, 11, 75
4, 116478, Control_c, 2, 11, 74
4, 116493, Control_c, 2, 11, 73
4, 116508, Control_c, 2, 11, 72
4, 116523, Control_c, 2, 11, 71
4, 116538, Control_c, 2, 11, 70
4, 116553, Control_c, 2, 11, 69
4, 116568, Control_c, 2, 11, 68
4, 116583, Control_c, 2, 11, 67
4, 116591, Control_c, 2, 11, 64
4, 116600, Control_c, 2, 11, 61
4, 116609, Control_c, 2, 11, 58
4, 116618, Control_c, 2, 11, 55
4, 116627, Control_c, 2, 11, 52
4, 116633, Note_on_c, 2, 74, 0
4, 116633, Note_on_c, 2, 62, 0
4, 116636, Control_c, 2, 11, 49
4, 117003, Note_on_c, 2, 64, 101
4, 117003, Control_c, 2, 11, 87
4, 117003, Note_on_c, 2, 74, 101
4, 117018, Control_c, 2, 11, 86
4, 117033, Control_c, 2, 11, 85
4, 117048, Control_c, 2, 11, 84
4, 117063, Control_c, 2, 11, 83
4, 117078, Control_c, 2, 11, 82
4, 117093, Control_c, 2, 11, 81
4, 117108, Control_c, 2, 11, 80
4, 117123, Control_c, 2, 11, 79
4, 117138, Control_c, 2, 11, 78
4, 117153, Control_c, 2, 11, 77
4, 117168, Control_c, 2, 11, 76
4, 117183, Control_c, 2, 11, 75
4, 117198, Control_c, 2, 11, 74
4, 117213, Control_c, 2, 11, 73
4, 117228, Control_c, 2, 11, 72
4, 117243, Control_c, 2, 11, 71
4, 117258, Control_c, 2, 11, 70
4, 117273, Control_c, 2, 11, 69
4, 117288, Control_c, 2, 11, 68
4, 117303, Control_c, 2, 11, 67
4, 117311, Control_c, 2, 11, 64
4, 117320, Control_c, 2, 11, 61
4, 117329, Control_c, 2, 11, 58
4, 117338, Control_c, 2, 11, 55
4, 117347, Control_c, 2, 11, 52
4, 117353, Note_on_c, 2, 74, 0
4, 117353, Note_on_c, 2, 64, 0
4, 117356, Control_c, 2, 11, 49
4, 122043, Control_c, 2, 11, 52
4, 122043, Note_on_c, 2, 62, 101
4, 122043, Note_on_c, 2, 74, 101
4, 122063, Control_c, 2, 11, 53
4, 122084, Control_c, 2, 11, 54
4, 122104, Control_c, 2, 11, 55
4, 122125, Control_c, 2, 11, 56
4, 122145, Control_c, 2, 11, 57
4, 122166, Control_c, 2, 11, 58
4, 122187, Control_c, 2, 11, 59
4, 122207, Control_c, 2, 11, 60
4, 122228, Control_c, 2, 11, 61
4, 122248, Control_c, 2, 11, 62
4, 122269, Control_c, 2, 11, 63
4, 122289, Control_c, 2, 11, 64
4, 122310, Control_c, 2, 11, 65
4, 122331, Control_c, 2, 11, 66
4, 122351, Control_c, 2, 11, 67
4, 122372, Control_c, 2, 11, 68
4, 122392, Control_c, 2, 11, 69
4, 122413, Control_c, 2, 11, 70
4, 122433, Control_c, 2, 11, 71
4, 122454, Control_c, 2, 11, 72
4, 122475, Control_c, 2, 11, 73
4, 122495, Control_c, 2, 11, 74
4, 122516, Control_c, 2, 11, 75
4, 122536, Control_c, 2, 11, 76
4, 122557, Control_c, 2, 11, 77
4, 122577, Control_c, 2, 11, 78
4, 122598, Control_c, 2, 11, 79
4, 122619, Control_c, 2, 11, 80
4, 122639, Control_c, 2, 11, 81
4, 122660, Control_c, 2, 11, 82
4, 122680, Control_c, 2, 11, 83
4, 122701, Control_c, 2, 11, 84
4, 122721, Control_c, 2, 11, 85
4, 122742, Control_c, 2, 11, 86
4, 122748, Note_on_c, 2, 74, 0
4, 122748, Note_on_c, 2, 62, 0
4, 122763, Note_on_c, 2, 73, 101
4, 122763, Control_c, 2, 11, 87
4, 122763, Note_on_c, 2, 61, 101
4, 123108, Note_on_c, 2, 61, 0
4, 123108, Note_on_c, 2, 73, 0
4, 123123, Note_on_c, 2, 74, 101
4, 123123, Note_on_c, 2, 62, 101
4, 123243, Note_on_c, 2, 62, 0
4, 123243, Note_on_c, 2, 74, 0
4, 124923, Note_on_c, 2, 74, 101
4, 124923, Note_on_c, 2, 62, 101
4, 124923, Control_c, 2, 11, 52
4, 124943, Control_c, 2, 11, 53
4, 124964, Control_c, 2, 11, 54
4, 124984, Control_c, 2, 11, 55
4, 125005, Control_c, 2, 11, 56
4, 125025, Control_c, 2, 11, 57
4, 125046, Control_c, 2, 11, 58
4, 125067, Control_c, 2, 11, 59
4, 125087, Control_c, 2, 11, 60
4, 125108, Control_c, 2, 11, 61
4, 125128, Control_c, 2, 11, 62
4, 125149, Control_c, 2, 11, 63
4, 125169, Control_c, 2, 11, 64
4, 125190, Control_c, 2, 11, 65
4, 125211, Control_c, 2, 11, 66
4, 125231, Control_c, 2, 11, 67
4, 125252, Control_c, 2, 11, 68
4, 125272, Control_c, 2, 11, 69
4, 125293, Control_c, 2, 11, 70
4, 125313, Control_c, 2, 11, 71
4, 125334, Control_c, 2, 11, 72
4, 125355, Control_c, 2, 11, 73
4, 125375, Control_c, 2, 11, 74
4, 125396, Control_c, 2, 11, 75
4, 125416, Control_c, 2, 11, 76
4, 125437, Control_c, 2, 11, 77
4, 125457, Control_c, 2, 11, 78
4, 125478, Control_c, 2, 11, 79
4, 125499, Control_c, 2, 11, 80
4, 125519, Control_c, 2, 11, 81
4, 125540, Control_c, 2, 11, 82
4, 125560, Control_c, 2, 11, 83
4, 125581, Control_c, 2, 11, 84
4, 125601, Control_c, 2, 11, 85
4, 125622, Control_c, 2, 11, 86
4, 125628, Note_on_c, 2, 62, 0
4, 125628, Note_on_c, 2, 74, 0
4, 125643, Control_c, 2, 11, 87
4, 125643, Note_on_c, 2, 73, 101
4, 125643, Note_on_c, 2, 61, 101
4, 125988, Note_on_c, 2, 61, 0
4, 125988, Note_on_c, 2, 73, 0
4, 126003, Note_on_c, 2, 62, 101
4, 126003, Note_on_c, 2, 74, 101
4, 126123, Note_on_c, 2, 74, 0
4, 126123, Note_on_c, 2, 62, 0
4, 126363, Control_c, 2, 11, 52
4, 126363, Note_on_c, 2, 62, 101
4, 126363, Note_on_c, 2, 74, 101
4, 126383, Control_c, 2, 11, 53
4, 126404, Control_c, 2, 11, 54
4, 126424, Control_c, 2, 11, 55
4, 126445, Control_c, 2, 11, 56
4, 126465, Control_c, 2, 11, 57
4, 126486, Control_c, 2, 11, 58
4, 126507, Control_c, 2, 11, 59
4, 126527, Control_c, 2, 11, 60
4, 126548, Control_c, 2, 11, 61
4, 126568, Control_c, 2, 11, 62
4, 126589, Control_c, 2, 11, 63
4, 126609, Control_c, 2, 11, 64
4, 126630, Control_c, 2, 11, 65
4, 126651, Control_c, 2, 11, 66
4, 126671, Control_c, 2, 11, 67
4, 126692, Control_c, 2, 11, 68
4, 126712, Control_c, 2, 11, 69
4, 126733, Control_c, 2, 11, 70
4, 126753, Control_c, 2, 11, 71
4, 126774, Control_c, 2, 11, 72
4, 126795, Control_c, 2, 11, 73
4, 126815, Control_c, 2, 11, 74
4, 126836, Control_c, 2, 11, 75
4, 126856, Control_c, 2, 11, 76
4, 126877, Control_c, 2, 11, 77
4, 126897, Control_c, 2, 11, 78
4, 126918, Control_c, 2, 11, 79
4, 126939, Control_c, 2, 11, 80
4, 126959, Control_c, 2, 11, 81
4, 126980, Control_c, 2, 11, 82
4, 127000, Control_c, 2, 11, 83
4, 127021, Control_c, 2, 11, 84
4, 127041, Control_c, 2, 11, 85
4, 127062, Control_c, 2, 11, 86
4, 127068, Note_on_c, 2, 74, 0
4, 127068, Note_on_c, 2, 62, 0
4, 127083, Note_on_c, 2, 61, 101
4, 127083, Control_c, 2, 11, 107
4, 127083, Note_on_c, 2, 73, 101
4, 127101, Control_c, 2, 11, 104
4, 127119, Control_c, 2, 11, 101
4, 127137, Control_c, 2, 11, 98
4, 127155, Control_c, 2, 11, 95
4, 127173, Control_c, 2, 11, 92
4, 127191, Control_c, 2, 11, 89
4, 127428, Note_on_c, 2, 73, 0
4, 127428, Note_on_c, 2, 61, 0
4, 127443, Note_on_c, 2, 74, 101
4, 127443, Note_on_c, 2, 62, 101
4, 127563, Note_on_c, 2, 62, 0
4, 127563, Note_on_c, 2, 74, 0
4, 127803, Control_c, 2, 11, 107
4, 127803, Note_on_c, 2, 73, 101
4, 127821, Control_c, 2, 11, 104
4, 127839, Control_c, 2, 11, 101
4, 127857, Control_c, 2, 11, 98
4, 127875, Control_c, 2, 11, 95
4, 127893, Control_c, 2, 11, 92
4, 127911, Control_c, 2, 11, 89
4, 128148, Note_on_c, 2, 73, 0
4, 128163, Note_on_c, 2, 74, 101
4, 128283, Note_on_c, 2, 74, 0
4, 128523, Note_on_c, 2, 73, 101
4, 128523, Note_on_c, 2, 69, 101
4, 128523, Control_c, 2, 11, 102
4, 129003, Note_on_c, 2, 69, 0
4, 129003, Note_on_c, 2, 73, 0
4, 129003, Note_on_c, 2, 74, 101
4, 129003, Note_on_c, 2, 71, 101
4, 129123, Note_on_c, 2, 71, 0
4, 129123, Note_on_c, 2, 74, 0
4, 129123, Note_on_c, 2, 73, 101
4, 129123, Note_on_c, 2, 76, 101
4, 129228, Note_on_c, 2, 76, 0
4, 129228, Note_on_c, 2, 73, 0
4, 129243, Note_on_c, 2, 78, 101
4, 129243, Note_on_c, 2, 74, 101
4, 129363, Note_on_c, 2, 74, 0
4, 129363, Note_on_c, 2, 78, 0
4, 129483, Note_on_c, 2, 76, 101
4, 129483, Note_on_c, 2, 73, 101
4, 129543, Note_on_c, 2, 73, 0
4, 129543, Note_on_c, 2, 76, 0
4, 129603, Note_on_c, 2, 74, 101
4, 129663, Note_on_c, 2, 74, 0
4, 129963, Control_c, 2, 121, 0
4, 129963, End_track
5, 0, Start_track
5, 0, MIDI_port, 0
5, 0, Title_t, "2 Fagotti"
5, 0, Program_c, 3, 70
5, 0, Control_c, 3, 10, 80
5, 9, Control_c, 3, 121, 0
5, 14, Program_c, 3, 70
5, 19, Pitch_bend_c, 3, 8192
5, 24, Control_c, 3, 11, 87
5, 29, Control_c, 3, 7, 127
5, 34, Control_c, 3, 91, 67
5, 39, Control_c, 3, 93, 0
5, 369, Control_c, 3, 11, 87
5, 369, Note_on_c, 3, 50, 100
5, 429, Note_on_c, 3, 50, 0
5, 489, Note_on_c, 3, 52, 100
5, 549, Note_on_c, 3, 52, 0
5, 609, Note_on_c, 3, 54, 100
5, 669, Note_on_c, 3, 54, 0
5, 1089, Note_on_c, 3, 55, 100
5, 1149, Note_on_c, 3, 55, 0
5, 1209, Note_on_c, 3, 57, 100
5, 1269, Note_on_c, 3, 57, 0
5, 1329, Note_on_c, 3, 59, 100
5, 1389, Note_on_c, 3, 59, 0
5, 2889, Control_c, 3, 11, 102
5, 2889, Note_on_c, 3, 62, 100
5, 2889, Note_on_c, 3, 50, 100
5, 2949, Note_on_c, 3, 50, 0
5, 2949, Note_on_c, 3, 62, 0
5, 3009, Note_on_c, 3, 57, 100
5, 3009, Note_on_c, 3, 45, 100
5, 3069, Note_on_c, 3, 45, 0
5, 3069, Note_on_c, 3, 57, 0
5, 3129, Note_on_c, 3, 62, 100
5, 3129, Note_on_c, 3, 50, 100
5, 3189, Note_on_c, 3, 50, 0
5, 3189, Note_on_c, 3, 62, 0
5, 3249, Control_c, 3, 11, 87
5, 3249, Note_on_c, 3, 50, 100
5, 3309, Note_on_c, 3, 50, 0
5, 3369, Note_on_c, 3, 52, 100
5, 3429, Note_on_c, 3, 52, 0
5, 3489, Note_on_c, 3, 54, 100
5, 3549, Note_on_c, 3, 54, 0
5, 3969, Note_on_c, 3, 56, 100
5, 4029, Note_on_c, 3, 56, 0
5, 4089, Note_on_c, 3, 57, 100
5, 4149, Note_on_c, 3, 57, 0
5, 4209, Note_on_c, 3, 59, 100
5, 4269, Note_on_c, 3, 59, 0
5, 5409, Control_c, 3, 11, 47
5, 5409, Note_on_c, 3, 57, 100
5, 5469, Note_on_c, 3, 57, 0
5, 5529, Note_on_c, 3, 52, 100
5, 5589, Note_on_c, 3, 52, 0
5, 5649, Note_on_c, 3, 57, 100
5, 5709, Note_on_c, 3, 57, 0
5, 5769, Control_c, 3, 11, 102
5, 5769, Note_on_c, 3, 45, 100
5, 5769, Note_on_c, 3, 57, 100
5, 5829, Note_on_c, 3, 57, 0
5, 5829, Note_on_c, 3, 45, 0
5, 5889, Note_on_c, 3, 40, 100
5, 5889, Note_on_c, 3, 52, 100
5, 5949, Note_on_c, 3, 52, 0
5, 5949, Note_on_c, 3, 40, 0
5, 6009, Note_on_c, 3, 45, 100
5, 6009, Note_on_c, 3, 57, 100
5, 6069, Note_on_c, 3, 57, 0
5, 6069, Note_on_c, 3, 45, 0
5, 6129, Control_c, 3, 11, 87
5, 6129, Note_on_c, 3, 50, 100
5, 6189, Note_on_c, 3, 50, 0
5, 6249, Note_on_c, 3, 52, 100
5, 6309, Note_on_c, 3, 52, 0
5, 6369, Note_on_c, 3, 54, 100
5, 6429, Note_on_c, 3, 54, 0
5, 6849, Note_on_c, 3, 55, 100
5, 6909, Note_on_c, 3, 55, 0
5, 6969, Note_on_c, 3, 57, 100
5, 7029, Note_on_c, 3, 57, 0
5, 7089, Note_on_c, 3, 59, 100
5, 7149, Note_on_c, 3, 59, 0
5, 8649, Control_c, 3, 11, 102
5, 8649, Note_on_c, 3, 62, 100
5, 8649, Note_on_c, 3, 50, 100
5, 8709, Note_on_c, 3, 50, 0
5, 8709, Note_on_c, 3, 62, 0
5, 8769, Note_on_c, 3, 57, 100
5, 8769, Note_on_c, 3, 45, 100
5, 8829, Note_on_c, 3, 45, 0
5, 8829, Note_on_c, 3, 57, 0
5, 8889, Note_on_c, 3, 62, 100
5, 8889, Note_on_c, 3, 50, 100
5, 8949, Note_on_c, 3, 50, 0
5, 8949, Note_on_c, 3, 62, 0
5, 9009, Control_c, 3, 11, 87
5, 9009, Note_on_c, 3, 50, 100
5, 9069, Note_on_c, 3, 50, 0
5, 9129, Note_on_c, 3, 52, 100
5, 9189, Note_on_c, 3, 52, 0
5, 9249, Note_on_c, 3, 54, 100
5, 9309, Note_on_c, 3, 54, 0
5, 9729, Note_on_c, 3, 56, 100
5, 9789, Note_on_c, 3, 56, 0
5, 9849, Note_on_c, 3, 57, 100
5, 9909, Note_on_c, 3, 57, 0
5, 9969, Note_on_c, 3, 59, 100
5, 10029, Note_on_c, 3, 59, 0
5, 11169, Control_c, 3, 11, 47
5, 11169, Note_on_c, 3, 57, 100
5, 11229, Note_on_c, 3, 57, 0
5, 11289, Note_on_c, 3, 52, 100
5, 11349, Note_on_c, 3, 52, 0
5, 11409, Note_on_c, 3, 57, 100
5, 11469, Note_on_c, 3, 57, 0
5, 11529, Control_c, 3, 11, 102
5, 11529, Note_on_c, 3, 45, 100
5, 11529, Note_on_c, 3, 57, 100
5, 11589, Note_on_c, 3, 57, 0
5, 11589, Note_on_c, 3, 45, 0
5, 11649, Note_on_c, 3, 40, 100
5, 11649, Note_on_c, 3, 52, 100
5, 11709, Note_on_c, 3, 52, 0
5, 11709, Note_on_c, 3, 40, 0
5, 11769, Note_on_c, 3, 45, 100
5, 11769, Note_on_c, 3, 57, 100
5, 11829, Note_on_c, 3, 57, 0
5, 11829, Note_on_c, 3, 45, 0
5, 14649, Control_c, 3, 11, 52
5, 14649, Note_on_c, 3, 57, 100
5, 14769, Note_on_c, 3, 57, 0
5, 14769, Note_on_c, 3, 58, 100
5, 14829, Note_on_c, 3, 58, 0
5, 14889, Control_c, 3, 11, 87
5, 14889, Note_on_c, 3, 65, 100
5, 14899, Control_c, 3, 11, 84
5, 14909, Control_c, 3, 11, 81
5, 14919, Control_c, 3, 11, 78
5, 14930, Control_c, 3, 11, 75
5, 14940, Control_c, 3, 11, 72
5, 14950, Control_c, 3, 11, 69
5, 14961, Control_c, 3, 11, 66
5, 14971, Control_c, 3, 11, 63
5, 14981, Control_c, 3, 11, 60
5, 14991, Control_c, 3, 11, 57
5, 15002, Control_c, 3, 11, 54
5, 15359, Note_on_c, 3, 65, 0
5, 15369, Note_on_c, 3, 62, 100
5, 15429, Note_on_c, 3, 62, 0
5, 15429, Note_on_c, 3, 58, 100
5, 15479, Note_on_c, 3, 58, 0
5, 15489, Note_on_c, 3, 57, 100
5, 15609, Note_on_c, 3, 57, 0
5, 15969, Note_on_c, 3, 53, 100
5, 16079, Note_on_c, 3, 53, 0
5, 16089, Note_on_c, 3, 53, 100
5, 16199, Note_on_c, 3, 53, 0
5, 16209, Note_on_c, 3, 58, 100
5, 16329, Note_on_c, 3, 58, 0
5, 16569, Note_on_c, 3, 57, 100
5, 16689, Note_on_c, 3, 57, 0
5, 16929, Note_on_c, 3, 56, 100
5, 17049, Note_on_c, 3, 56, 0
5, 17289, Note_on_c, 3, 56, 100
5, 17409, Note_on_c, 3, 56, 0
5, 17649, Note_on_c, 3, 57, 100
5, 17769, Note_on_c, 3, 57, 0
5, 19809, Control_c, 3, 11, 87
5, 19809, Note_on_c, 3, 50, 100
5, 19869, Note_on_c, 3, 50, 0
5, 19929, Note_on_c, 3, 52, 100
5, 19989, Note_on_c, 3, 52, 0
5, 20049, Note_on_c, 3, 54, 100
5, 20109, Note_on_c, 3, 54, 0
5, 20529, Note_on_c, 3, 55, 100
5, 20589, Note_on_c, 3, 55, 0
5, 20649, Note_on_c, 3, 57, 100
5, 20709, Note_on_c, 3, 57, 0
5, 20769, Note_on_c, 3, 59, 100
5, 20829, Note_on_c, 3, 59, 0
5, 22329, Control_c, 3, 11, 102
5, 22329, Note_on_c, 3, 50, 100
5, 22329, Note_on_c, 3, 62, 100
5, 22389, Note_on_c, 3, 62, 0
5, 22389, Note_on_c, 3, 50, 0
5, 22449, Note_on_c, 3, 45, 100
5, 22449, Note_on_c, 3, 57, 100
5, 22509, Note_on_c, 3, 57, 0
5, 22509, Note_on_c, 3, 45, 0
5, 22569, Note_on_c, 3, 50, 100
5, 22569, Note_on_c, 3, 62, 100
5, 22629, Note_on_c, 3, 62, 0
5, 22629, Note_on_c, 3, 50, 0
5, 22689, Control_c, 3, 11, 87
5, 22689, Note_on_c, 3, 50, 100
5, 22749, Note_on_c, 3, 50, 0
5, 22809, Note_on_c, 3, 52, 100
5, 22869, Note_on_c, 3, 52, 0
5, 22929, Note_on_c, 3, 54, 100
5, 22989, Note_on_c, 3, 54, 0
5, 23409, Note_on_c, 3, 55, 100
5, 23469, Note_on_c, 3, 55, 0
5, 23529, Note_on_c, 3, 57, 100
5, 23589, Note_on_c, 3, 57, 0
5, 23649, Note_on_c, 3, 59, 100
5, 23709, Note_on_c, 3, 59, 0
5, 27009, Control_c, 3, 11, 42
5, 27009, Note_on_c, 3, 60, 100
5, 27354, Note_on_c, 3, 60, 0
5, 27369, Note_on_c, 3, 65, 100
5, 27429, Note_on_c, 3, 65, 0
5, 27489, Note_on_c, 3, 64, 100
5, 27549, Note_on_c, 3, 64, 0
5, 27609, Note_on_c, 3, 65, 100
5, 27669, Note_on_c, 3, 65, 0
5, 27729, Note_on_c, 3, 57, 100
5, 28074, Note_on_c, 3, 57, 0
5, 28089, Note_on_c, 3, 62, 100
5, 28149, Note_on_c, 3, 62, 0
5, 28209, Note_on_c, 3, 61, 100
5, 28269, Note_on_c, 3, 61, 0
5, 28329, Note_on_c, 3, 62, 100
5, 28389, Note_on_c, 3, 62, 0
5, 28449, Control_c, 3, 11, 52
5, 28449, Note_on_c, 3, 50, 100
5, 28449, Note_on_c, 3, 46, 100
5, 28469, Control_c, 3, 11, 53
5, 28490, Control_c, 3, 11, 54
5, 28510, Control_c, 3, 11, 55
5, 28531, Control_c, 3, 11, 56
5, 28551, Control_c, 3, 11, 57
5, 28569, Note_on_c, 3, 50, 0
5, 28569, Note_on_c, 3, 52, 100
5, 28572, Control_c, 3, 11, 58
5, 28593, Control_c, 3, 11, 59
5, 28613, Control_c, 3, 11, 60
5, 28634, Control_c, 3, 11, 61
5, 28654, Control_c, 3, 11, 62
5, 28675, Control_c, 3, 11, 63
5, 28689, Note_on_c, 3, 52, 0
5, 28689, Note_on_c, 3, 53, 100
5, 28695, Control_c, 3, 11, 64
5, 28716, Control_c, 3, 11, 65
5, 28737, Control_c, 3, 11, 66
5, 28757, Control_c, 3, 11, 67
5, 28778, Control_c, 3, 11, 68
5, 28798, Control_c, 3, 11, 69
5, 28809, Note_on_c, 3, 53, 0
5, 28809, Note_on_c, 3, 54, 100
5, 28819, Control_c, 3, 11, 70
5, 28839, Control_c, 3, 11, 71
5, 28860, Control_c, 3, 11, 72
5, 28881, Control_c, 3, 11, 73
5, 28901, Control_c, 3, 11, 74
5, 28922, Control_c, 3, 11, 75
5, 28929, Note_on_c, 3, 54, 0
5, 28929, Note_on_c, 3, 55, 100
5, 28942, Control_c, 3, 11, 76
5, 28963, Control_c, 3, 11, 77
5, 28983, Control_c, 3, 11, 78
5, 29004, Control_c, 3, 11, 79
5, 29025, Control_c, 3, 11, 80
5, 29045, Control_c, 3, 11, 81
5, 29049, Note_on_c, 3, 55, 0
5, 29049, Note_on_c, 3, 56, 100
5, 29066, Control_c, 3, 11, 82
5, 29086, Control_c, 3, 11, 83
5, 29107, Control_c, 3, 11, 84
5, 29127, Control_c, 3, 11, 85
5, 29148, Control_c, 3, 11, 86
5, 29154, Note_on_c, 3, 56, 0
5, 29154, Note_on_c, 3, 46, 0
5, 29169, Control_c, 3, 11, 87
5, 29169, Note_on_c, 3, 57, 100
5, 29169, Note_on_c, 3, 45, 100
5, 29274, Note_on_c, 3, 45, 0
5, 29274, Note_on_c, 3, 57, 0
5, 29289, Note_on_c, 3, 57, 100
5, 29394, Note_on_c, 3, 57, 0
5, 29409, Note_on_c, 3, 57, 100
5, 29514, Note_on_c, 3, 57, 0
5, 29529, Note_on_c, 3, 50, 100
5, 29649, Note_on_c, 3, 50, 0
5, 29889, Control_c, 3, 11, 42
5, 29889, Note_on_c, 3, 60, 100
5, 30234, Note_on_c, 3, 60, 0
5, 30249, Note_on_c, 3, 65, 100
5, 30309, Note_on_c, 3, 65, 0
5, 30369, Note_on_c, 3, 64, 100
5, 30429, Note_on_c, 3, 64, 0
5, 30489, Note_on_c, 3, 65, 100
5, 30549, Note_on_c, 3, 65, 0
5, 30609, Note_on_c, 3, 57, 100
5, 30954, Note_on_c, 3, 57, 0
5, 30969, Note_on_c, 3, 62, 100
5, 31029, Note_on_c, 3, 62, 0
5, 31089, Note_on_c, 3, 61, 100
5, 31149, Note_on_c, 3, 61, 0
5, 31209, Note_on_c, 3, 62, 100
5, 31269, Note_on_c, 3, 62, 0
5, 31329, Control_c, 3, 11, 52
5, 31329, Note_on_c, 3, 50, 100
5, 31329, Note_on_c, 3, 46, 100
5, 31349, Control_c, 3, 11, 53
5, 31370, Control_c, 3, 11, 54
5, 31390, Control_c, 3, 11, 55
5, 31411, Control_c, 3, 11, 56
5, 31431, Control_c, 3, 11, 57
5, 31449, Note_on_c, 3, 50, 0
5, 31449, Note_on_c, 3, 52, 100
5, 31452, Control_c, 3, 11, 58
5, 31473, Control_c, 3, 11, 59
5, 31493, Control_c, 3, 11, 60
5, 31514, Control_c, 3, 11, 61
5, 31534, Control_c, 3, 11, 62
5, 31555, Control_c, 3, 11, 63
5, 31569, Note_on_c, 3, 52, 0
5, 31569, Note_on_c, 3, 53, 100
5, 31575, Control_c, 3, 11, 64
5, 31596, Control_c, 3, 11, 65
5, 31617, Control_c, 3, 11, 66
5, 31637, Control_c, 3, 11, 67
5, 31658, Control_c, 3, 11, 68
5, 31678, Control_c, 3, 11, 69
5, 31689, Note_on_c, 3, 53, 0
5, 31689, Note_on_c, 3, 54, 100
5, 31699, Control_c, 3, 11, 70
5, 31719, Control_c, 3, 11, 71
5, 31740, Control_c, 3, 11, 72
5, 31761, Control_c, 3, 11, 73
5, 31781, Control_c, 3, 11, 74
5, 31802, Control_c, 3, 11, 75
5, 31809, Note_on_c, 3, 54, 0
5, 31809, Note_on_c, 3, 55, 100
5, 31822, Control_c, 3, 11, 76
5, 31843, Control_c, 3, 11, 77
5, 31863, Control_c, 3, 11, 78
5, 31884, Control_c, 3, 11, 79
5, 31905, Control_c, 3, 11, 80
5, 31925, Control_c, 3, 11, 81
5, 31929, Note_on_c, 3, 55, 0
5, 31929, Note_on_c, 3, 56, 100
5, 31946, Control_c, 3, 11, 82
5, 31966, Control_c, 3, 11, 83
5, 31987, Control_c, 3, 11, 84
5, 32007, Control_c, 3, 11, 85
5, 32028, Control_c, 3, 11, 86
5, 32034, Note_on_c, 3, 56, 0
5, 32034, Note_on_c, 3, 46, 0
5, 32049, Control_c, 3, 11, 87
5, 32049, Note_on_c, 3, 57, 100
5, 32049, Note_on_c, 3, 45, 100
5, 32154, Note_on_c, 3, 45, 0
5, 32154, Note_on_c, 3, 57, 0
5, 32169, Note_on_c, 3, 57, 100
5, 32274, Note_on_c, 3, 57, 0
5, 32289, Note_on_c, 3, 57, 100
5, 32394, Note_on_c, 3, 57, 0
5, 32409, Note_on_c, 3, 62, 100
5, 32529, Note_on_c, 3, 62, 0
5, 32769, Control_c, 3, 11, 52
5, 32769, Note_on_c, 3, 50, 100
5, 32769, Note_on_c, 3, 46, 100
5, 32789, Control_c, 3, 11, 53
5, 32810, Control_c, 3, 11, 54
5, 32830, Control_c, 3, 11, 55
5, 32851, Control_c, 3, 11, 56
5, 32871, Control_c, 3, 11, 57
5, 32889, Note_on_c, 3, 50, 0
5, 32889, Note_on_c, 3, 52, 100
5, 32892, Control_c, 3, 11, 58
5, 32913, Control_c, 3, 11, 59
5, 32933, Control_c, 3, 11, 60
5, 32954, Control_c, 3, 11, 61
5, 32974, Control_c, 3, 11, 62
5, 32995, Control_c, 3, 11, 63
5, 33009, Note_on_c, 3, 52, 0
5, 33009, Note_on_c, 3, 53, 100
5, 33015, Control_c, 3, 11, 64
5, 33036, Control_c, 3, 11, 65
5, 33057, Control_c, 3, 11, 66
5, 33077, Control_c, 3, 11, 67
5, 33098, Control_c, 3, 11, 68
5, 33118, Control_c, 3, 11, 69
5, 33129, Note_on_c, 3, 53, 0
5, 33129, Note_on_c, 3, 54, 100
5, 33139, Control_c, 3, 11, 70
5, 33159, Control_c, 3, 11, 71
5, 33180, Control_c, 3, 11, 72
5, 33201, Control_c, 3, 11, 73
5, 33221, Control_c, 3, 11, 74
5, 33242, Control_c, 3, 11, 75
5, 33249, Note_on_c, 3, 54, 0
5, 33249, Note_on_c, 3, 55, 100
5, 33262, Control_c, 3, 11, 76
5, 33283, Control_c, 3, 11, 77
5, 33303, Control_c, 3, 11, 78
5, 33324, Control_c, 3, 11, 79
5, 33345, Control_c, 3, 11, 80
5, 33365, Control_c, 3, 11, 81
5, 33369, Note_on_c, 3, 55, 0
5, 33369, Note_on_c, 3, 56, 100
5, 33386, Control_c, 3, 11, 82
5, 33406, Control_c, 3, 11, 83
5, 33427, Control_c, 3, 11, 84
5, 33447, Control_c, 3, 11, 85
5, 33468, Control_c, 3, 11, 86
5, 33474, Note_on_c, 3, 56, 0
5, 33474, Note_on_c, 3, 46, 0
5, 33489, Control_c, 3, 11, 107
5, 33489, Note_on_c, 3, 57, 100
5, 33489, Note_on_c, 3, 45, 100
5, 33507, Control_c, 3, 11, 104
5, 33525, Control_c, 3, 11, 101
5, 33543, Control_c, 3, 11, 98
5, 33561, Control_c, 3, 11, 95
5, 33579, Control_c, 3, 11, 92
5, 33594, Note_on_c, 3, 45, 0
5, 33594, Note_on_c, 3, 57, 0
5, 33597, Control_c, 3, 11, 89
5, 33609, Note_on_c, 3, 57, 100
5, 33714, Note_on_c, 3, 57, 0
5, 33729, Note_on_c, 3, 57, 100
5, 33834, Note_on_c, 3, 57, 0
5, 33849, Note_on_c, 3, 62, 100
5, 33969, Note_on_c, 3, 62, 0
5, 34209, Control_c, 3, 11, 107
5, 34209, Note_on_c, 3, 45, 100
5, 34209, Note_on_c, 3, 61, 100
5, 34227, Control_c, 3, 11, 104
5, 34245, Control_c, 3, 11, 101
5, 34263, Control_c, 3, 11, 98
5, 34281, Control_c, 3, 11, 95
5, 34299, Control_c, 3, 11, 92
5, 34314, Note_on_c, 3, 45, 0
5, 34317, Control_c, 3, 11, 89
5, 34329, Note_on_c, 3, 57, 100
5, 34434, Note_on_c, 3, 57, 0
5, 34449, Note_on_c, 3, 57, 100
5, 34554, Note_on_c, 3, 57, 0
5, 34554, Note_on_c, 3, 61, 0
5, 34569, Note_on_c, 3, 50, 100
5, 34569, Note_on_c, 3, 62, 100
5, 34689, Note_on_c, 3, 62, 0
5, 34689, Note_on_c, 3, 50, 0
5, 34929, Control_c, 3, 11, 102
5, 34929, Note_on_c, 3, 61, 100
5, 34929, Note_on_c, 3, 57, 100
5, 35409, Note_on_c, 3, 57, 0
5, 35409, Note_on_c, 3, 61, 0
5, 35409, Note_on_c, 3, 62, 100
5, 35409, Note_on_c, 3, 59, 100
5, 35529, Note_on_c, 3, 59, 0
5, 35529, Note_on_c, 3, 62, 0
5, 35529, Note_on_c, 3, 64, 100
5, 35529, Note_on_c, 3, 61, 100
5, 35634, Note_on_c, 3, 61, 0
5, 35634, Note_on_c, 3, 64, 0
5, 35649, Note_on_c, 3, 66, 100
5, 35649, Note_on_c, 3, 62, 100
5, 35769, Note_on_c, 3, 62, 0
5, 35769, Note_on_c, 3, 66, 0
5, 35889, Note_on_c, 3, 57, 100
5, 35949, Note_on_c, 3, 57, 0
5, 36009, Note_on_c, 3, 50, 100
5, 36009, Note_on_c, 3, 62, 100
5, 36069, Note_on_c, 3, 62, 0
5, 36069, Note_on_c, 3, 50, 0
5, 39129, Control_c, 3, 11, 52
5, 39129, Note_on_c, 3, 57, 100
5, 39249, Note_on_c, 3, 57, 0
5, 39249, Note_on_c, 3, 58, 100
5, 39309, Note_on_c, 3, 58, 0
5, 39369, Control_c, 3, 11, 87
5, 39369, Note_on_c, 3, 65, 100
5, 39379, Control_c, 3, 11, 84
5, 39389, Control_c, 3, 11, 81
5, 39399, Control_c, 3, 11, 78
5, 39410, Control_c, 3, 11, 75
5, 39420, Control_c, 3, 11, 72
5, 39430, Control_c, 3, 11, 69
5, 39441, Control_c, 3, 11, 66
5, 39451, Control_c, 3, 11, 63
5, 39461, Control_c, 3, 11, 60
5, 39471, Control_c, 3, 11, 57
5, 39482, Control_c, 3, 11, 54
5, 39839, Note_on_c, 3, 65, 0
5, 39849, Note_on_c, 3, 62, 100
5, 39909, Note_on_c, 3, 62, 0
5, 39909, Note_on_c, 3, 58, 100
5, 39959, Note_on_c, 3, 58, 0
5, 39969, Note_on_c, 3, 57, 100
5, 40089, Note_on_c, 3, 57, 0
5, 40449, Note_on_c, 3, 53, 100
5, 40559, Note_on_c, 3, 53, 0
5, 40569, Note_on_c, 3, 53, 100
5, 40679, Note_on_c, 3, 53, 0
5, 40689, Note_on_c, 3, 58, 100
5, 40809, Note_on_c, 3, 58, 0
5, 41049, Note_on_c, 3, 57, 100
5, 41169, Note_on_c, 3, 57, 0
5, 41409, Note_on_c, 3, 56, 100
5, 41529, Note_on_c, 3, 56, 0
5, 41769, Note_on_c, 3, 56, 100
5, 41889, Note_on_c, 3, 56, 0
5, 42129, Note_on_c, 3, 57, 100
5, 42249, Note_on_c, 3, 57, 0
5, 44289, Control_c, 3, 11, 87
5, 44289, Note_on_c, 3, 50, 100
5, 44349, Note_on_c, 3, 50, 0
5, 44409, Note_on_c, 3, 52, 100
5, 44469, Note_on_c, 3, 52, 0
5, 44529, Note_on_c, 3, 54, 100
5, 44589, Note_on_c, 3, 54, 0
5, 45009, Note_on_c, 3, 55, 100
5, 45069, Note_on_c, 3, 55, 0
5, 45129, Note_on_c, 3, 57, 100
5, 45189, Note_on_c, 3, 57, 0
5, 45249, Note_on_c, 3, 59, 100
5, 45309, Note_on_c, 3, 59, 0
5, 46809, Control_c, 3, 11, 102
5, 46809, Note_on_c, 3, 50, 100
5, 46809, Note_on_c, 3, 62, 100
5, 46869, Note_on_c, 3, 62, 0
5, 46869, Note_on_c, 3, 50, 0
5, 46929, Note_on_c, 3, 45, 100
5, 46929, Note_on_c, 3, 57, 100
5, 46989, Note_on_c, 3, 57, 0
5, 46989, Note_on_c, 3, 45, 0
5, 47049, Note_on_c, 3, 50, 100
5, 47049, Note_on_c, 3, 62, 100
5, 47109, Note_on_c, 3, 62, 0
5, 47109, Note_on_c, 3, 50, 0
5, 47169, Control_c, 3, 11, 87
5, 47169, Note_on_c, 3, 50, 100
5, 47229, Note_on_c, 3, 50, 0
5, 47289, Note_on_c, 3, 52, 100
5, 47349, Note_on_c, 3, 52, 0
5, 47409, Note_on_c, 3, 54, 100
5, 47469, Note_on_c, 3, 54, 0
5, 47889, Note_on_c, 3, 55, 100
5, 47949, Note_on_c, 3, 55, 0
5, 48009, Note_on_c, 3, 57, 100
5, 48069, Note_on_c, 3, 57, 0
5, 48129, Note_on_c, 3, 59, 100
5, 48189, Note_on_c, 3, 59, 0
5, 51489, Control_c, 3, 11, 42
5, 51489, Note_on_c, 3, 60, 100
5, 51834, Note_on_c, 3, 60, 0
5, 51849, Note_on_c, 3, 65, 100
5, 51909, Note_on_c, 3, 65, 0
5, 51969, Note_on_c, 3, 64, 100
5, 52029, Note_on_c, 3, 64, 0
5, 52089, Note_on_c, 3, 65, 100
5, 52149, Note_on_c, 3, 65, 0
5, 52209, Note_on_c, 3, 57, 100
5, 52554, Note_on_c, 3, 57, 0
5, 52569, Note_on_c, 3, 62, 100
5, 52629, Note_on_c, 3, 62, 0
5, 52689, Note_on_c, 3, 61, 100
5, 52749, Note_on_c, 3, 61, 0
5, 52809, Note_on_c, 3, 62, 100
5, 52869, Note_on_c, 3, 62, 0
5, 52929, Control_c, 3, 11, 52
5, 52929, Note_on_c, 3, 50, 100
5, 52929, Note_on_c, 3, 46, 100
5, 52949, Control_c, 3, 11, 53
5, 52970, Control_c, 3, 11, 54
5, 52990, Control_c, 3, 11, 55
5, 53011, Control_c, 3, 11, 56
5, 53031, Control_c, 3, 11, 57
5, 53049, Note_on_c, 3, 50, 0
5, 53049, Note_on_c, 3, 52, 100
5, 53052, Control_c, 3, 11, 58
5, 53073, Control_c, 3, 11, 59
5, 53093, Control_c, 3, 11, 60
5, 53114, Control_c, 3, 11, 61
5, 53134, Control_c, 3, 11, 62
5, 53155, Control_c, 3, 11, 63
5, 53169, Note_on_c, 3, 52, 0
5, 53169, Note_on_c, 3, 53, 100
5, 53175, Control_c, 3, 11, 64
5, 53196, Control_c, 3, 11, 65
5, 53217, Control_c, 3, 11, 66
5, 53237, Control_c, 3, 11, 67
5, 53258, Control_c, 3, 11, 68
5, 53278, Control_c, 3, 11, 69
5, 53289, Note_on_c, 3, 53, 0
5, 53289, Note_on_c, 3, 54, 100
5, 53299, Control_c, 3, 11, 70
5, 53319, Control_c, 3, 11, 71
5, 53340, Control_c, 3, 11, 72
5, 53361, Control_c, 3, 11, 73
5, 53381, Control_c, 3, 11, 74
5, 53402, Control_c, 3, 11, 75
5, 53409, Note_on_c, 3, 54, 0
5, 53409, Note_on_c, 3, 55, 100
5, 53422, Control_c, 3, 11, 76
5, 53443, Control_c, 3, 11, 77
5, 53463, Control_c, 3, 11, 78
5, 53484, Control_c, 3, 11, 79
5, 53505, Control_c, 3, 11, 80
5, 53525, Control_c, 3, 11, 81
5, 53529, Note_on_c, 3, 55, 0
5, 53529, Note_on_c, 3, 56, 100
5, 53546, Control_c, 3, 11, 82
5, 53566, Control_c, 3, 11, 83
5, 53587, Control_c, 3, 11, 84
5, 53607, Control_c, 3, 11, 85
5, 53628, Control_c, 3, 11, 86
5, 53634, Note_on_c, 3, 56, 0
5, 53634, Note_on_c, 3, 46, 0
5, 53649, Control_c, 3, 11, 87
5, 53649, Note_on_c, 3, 57, 100
5, 53649, Note_on_c, 3, 45, 100
5, 53754, Note_on_c, 3, 45, 0
5, 53754, Note_on_c, 3, 57, 0
5, 53769, Note_on_c, 3, 57, 100
5, 53874, Note_on_c, 3, 57, 0
5, 53889, Note_on_c, 3, 57, 100
5, 53994, Note_on_c, 3, 57, 0
5, 54009, Note_on_c, 3, 50, 100
5, 54129, Note_on_c, 3, 50, 0
5, 54369, Control_c, 3, 11, 42
5, 54369, Note_on_c, 3, 60, 100
5, 54714, Note_on_c, 3, 60, 0
5, 54729, Note_on_c, 3, 65, 100
5, 54789, Note_on_c, 3, 65, 0
5, 54849, Note_on_c, 3, 64, 100
5, 54909, Note_on_c, 3, 64, 0
5, 54969, Note_on_c, 3, 65, 100
5, 55029, Note_on_c, 3, 65, 0
5, 55089, Note_on_c, 3, 57, 100
5, 55434, Note_on_c, 3, 57, 0
5, 55449, Note_on_c, 3, 62, 100
5, 55509, Note_on_c, 3, 62, 0
5, 55569, Note_on_c, 3, 61, 100
5, 55629, Note_on_c, 3, 61, 0
5, 55689, Note_on_c, 3, 62, 100
5, 55749, Note_on_c, 3, 62, 0
5, 55809, Control_c, 3, 11, 52
5, 55809, Note_on_c, 3, 50, 100
5, 55809, Note_on_c, 3, 46, 100
5, 55829, Control_c, 3, 11, 53
5, 55850, Control_c, 3, 11, 54
5, 55870, Control_c, 3, 11, 55
5, 55891, Control_c, 3, 11, 56
5, 55911, Control_c, 3, 11, 57
5, 55929, Note_on_c, 3, 50, 0
5, 55929, Note_on_c, 3, 52, 100
5, 55932, Control_c, 3, 11, 58
5, 55953, Control_c, 3, 11, 59
5, 55973, Control_c, 3, 11, 60
5, 55994, Control_c, 3, 11, 61
5, 56014, Control_c, 3, 11, 62
5, 56035, Control_c, 3, 11, 63
5, 56049, Note_on_c, 3, 52, 0
5, 56049, Note_on_c, 3, 53, 100
5, 56055, Control_c, 3, 11, 64
5, 56076, Control_c, 3, 11, 65
5, 56097, Control_c, 3, 11, 66
5, 56117, Control_c, 3, 11, 67
5, 56138, Control_c, 3, 11, 68
5, 56158, Control_c, 3, 11, 69
5, 56169, Note_on_c, 3, 53, 0
5, 56169, Note_on_c, 3, 54, 100
5, 56179, Control_c, 3, 11, 70
5, 56199, Control_c, 3, 11, 71
5, 56220, Control_c, 3, 11, 72
5, 56241, Control_c, 3, 11, 73
5, 56261, Control_c, 3, 11, 74
5, 56282, Control_c, 3, 11, 75
5, 56289, Note_on_c, 3, 54, 0
5, 56289, Note_on_c, 3, 55, 100
5, 56302, Control_c, 3, 11, 76
5, 56323, Control_c, 3, 11, 77
5, 56343, Control_c, 3, 11, 78
5, 56364, Control_c, 3, 11, 79
5, 56385, Control_c, 3, 11, 80
5, 56405, Control_c, 3, 11, 81
5, 56409, Note_on_c, 3, 55, 0
5, 56409, Note_on_c, 3, 56, 100
5, 56426, Control_c, 3, 11, 82
5, 56446, Control_c, 3, 11, 83
5, 56467, Control_c, 3, 11, 84
5, 56487, Control_c, 3, 11, 85
5, 56508, Control_c, 3, 11, 86
5, 56514, Note_on_c, 3, 56, 0
5, 56514, Note_on_c, 3, 46, 0
5, 56529, Control_c, 3, 11, 87
5, 56529, Note_on_c, 3, 57, 100
5, 56529, Note_on_c, 3, 45, 100
5, 56634, Note_on_c, 3, 45, 0
5, 56634, Note_on_c, 3, 57, 0
5, 56649, Note_on_c, 3, 57, 100
5, 56754, Note_on_c, 3, 57, 0
5, 56769, Note_on_c, 3, 57, 100
5, 56874, Note_on_c, 3, 57, 0
5, 56889, Note_on_c, 3, 62, 100
5, 57009, Note_on_c, 3, 62, 0
5, 57249, Control_c, 3, 11, 52
5, 57249, Note_on_c, 3, 50, 100
5, 57249, Note_on_c, 3, 46, 100
5, 57269, Control_c, 3, 11, 53
5, 57290, Control_c, 3, 11, 54
5, 57310, Control_c, 3, 11, 55
5, 57331, Control_c, 3, 11, 56
5, 57351, Control_c, 3, 11, 57
5, 57369, Note_on_c, 3, 50, 0
5, 57369, Note_on_c, 3, 52, 100
5, 57372, Control_c, 3, 11, 58
5, 57393, Control_c, 3, 11, 59
5, 57413, Control_c, 3, 11, 60
5, 57434, Control_c, 3, 11, 61
5, 57454, Control_c, 3, 11, 62
5, 57475, Control_c, 3, 11, 63
5, 57489, Note_on_c, 3, 52, 0
5, 57489, Note_on_c, 3, 53, 100
5, 57495, Control_c, 3, 11, 64
5, 57516, Control_c, 3, 11, 65
5, 57537, Control_c, 3, 11, 66
5, 57557, Control_c, 3, 11, 67
5, 57578, Control_c, 3, 11, 68
5, 57598, Control_c, 3, 11, 69
5, 57609, Note_on_c, 3, 53, 0
5, 57609, Note_on_c, 3, 54, 100
5, 57619, Control_c, 3, 11, 70
5, 57639, Control_c, 3, 11, 71
5, 57660, Control_c, 3, 11, 72
5, 57681, Control_c, 3, 11, 73
5, 57701, Control_c, 3, 11, 74
5, 57722, Control_c, 3, 11, 75
5, 57729, Note_on_c, 3, 54, 0
5, 57729, Note_on_c, 3, 55, 100
5, 57742, Control_c, 3, 11, 76
5, 57763, Control_c, 3, 11, 77
5, 57783, Control_c, 3, 11, 78
5, 57804, Control_c, 3, 11, 79
5, 57825, Control_c, 3, 11, 80
5, 57845, Control_c, 3, 11, 81
5, 57849, Note_on_c, 3, 55, 0
5, 57849, Note_on_c, 3, 56, 100
5, 57866, Control_c, 3, 11, 82
5, 57886, Control_c, 3, 11, 83
5, 57907, Control_c, 3, 11, 84
5, 57927, Control_c, 3, 11, 85
5, 57948, Control_c, 3, 11, 86
5, 57954, Note_on_c, 3, 56, 0
5, 57954, Note_on_c, 3, 46, 0
5, 57969, Control_c, 3, 11, 107
5, 57969, Note_on_c, 3, 57, 100
5, 57969, Note_on_c, 3, 45, 100
5, 57987, Control_c, 3, 11, 104
5, 58005, Control_c, 3, 11, 101
5, 58023, Control_c, 3, 11, 98
5, 58041, Control_c, 3, 11, 95
5, 58059, Control_c, 3, 11, 92
5, 58074, Note_on_c, 3, 45, 0
5, 58074, Note_on_c, 3, 57, 0
5, 58077, Control_c, 3, 11, 89
5, 58089, Note_on_c, 3, 57, 100
5, 58194, Note_on_c, 3, 57, 0
5, 58209, Note_on_c, 3, 57, 100
5, 58314, Note_on_c, 3, 57, 0
5, 58329, Note_on_c, 3, 62, 100
5, 58449, Note_on_c, 3, 62, 0
5, 58689, Control_c, 3, 11, 107
5, 58689, Note_on_c, 3, 45, 100
5, 58689, Note_on_c, 3, 61, 100
5, 58707, Control_c, 3, 11, 104
5, 58725, Control_c, 3, 11, 101
5, 58743, Control_c, 3, 11, 98
5, 58761, Control_c, 3, 11, 95
5, 58779, Control_c, 3, 11, 92
5, 58794, Note_on_c, 3, 45, 0
5, 58797, Control_c, 3, 11, 89
5, 58809, Note_on_c, 3, 57, 100
5, 58914, Note_on_c, 3, 57, 0
5, 58929, Note_on_c, 3, 57, 100
5, 59034, Note_on_c, 3, 57, 0
5, 59034, Note_on_c, 3, 61, 0
5, 59049, Note_on_c, 3, 50, 100
5, 59049, Note_on_c, 3, 62, 100
5, 59169, Note_on_c, 3, 62, 0
5, 59169, Note_on_c, 3, 50, 0
5, 59409, Control_c, 3, 11, 102
5, 59409, Note_on_c, 3, 61, 100
5, 59409, Note_on_c, 3, 57, 100
5, 59889, Note_on_c, 3, 57, 0
5, 59889, Note_on_c, 3, 61, 0
5, 59889, Note_on_c, 3, 62, 100
5, 59889, Note_on_c, 3, 59, 100
5, 60009, Note_on_c, 3, 59, 0
5, 60009, Note_on_c, 3, 62, 0
5, 60009, Note_on_c, 3, 64, 100
5, 60009, Note_on_c, 3, 61, 100
5, 60114, Note_on_c, 3, 61, 0
5, 60114, Note_on_c, 3, 64, 0
5, 60129, Note_on_c, 3, 66, 100
5, 60129, Note_on_c, 3, 62, 100
5, 60249, Note_on_c, 3, 62, 0
5, 60249, Note_on_c, 3, 66, 0
5, 60369, Note_on_c, 3, 57, 100
5, 60429, Note_on_c, 3, 57, 0
5, 60489, Note_on_c, 3, 50, 100
5, 60489, Note_on_c, 3, 62, 100
5, 60549, Note_on_c, 3, 62, 0
5, 60549, Note_on_c, 3, 50, 0
5, 60849, Control_c, 3, 11, 52
5, 60849, Note_on_c, 3, 62, 85
5, 61209, Note_on_c, 3, 59, 85
5, 61569, Note_on_c, 3, 59, 0
5, 61569, Note_on_c, 3, 54, 85
5, 61689, Note_on_c, 3, 54, 0
5, 61689, Note_on_c, 3, 62, 0
5, 61689, Note_on_c, 3, 52, 85
5, 61689, Note_on_c, 3, 61, 85
5, 61789, Note_on_c, 3, 61, 0
5, 61789, Note_on_c, 3, 52, 0
5, 61809, Note_on_c, 3, 50, 85
5, 61809, Note_on_c, 3, 62, 85
5, 61869, Note_on_c, 3, 62, 0
5, 61869, Note_on_c, 3, 50, 0
5, 61929, Note_on_c, 3, 57, 85
5, 61929, Note_on_c, 3, 61, 85
5, 62049, Note_on_c, 3, 61, 0
5, 62049, Note_on_c, 3, 57, 0
5, 62169, Note_on_c, 3, 54, 85
5, 62169, Note_on_c, 3, 63, 85
5, 62269, Note_on_c, 3, 63, 0
5, 62269, Note_on_c, 3, 54, 0
5, 62289, Control_c, 3, 11, 52
5, 62289, Note_on_c, 3, 52, 85
5, 62289, Note_on_c, 3, 64, 85
5, 62313, Control_c, 3, 11, 53
5, 62337, Control_c, 3, 11, 54
5, 62361, Control_c, 3, 11, 55
5, 62385, Control_c, 3, 11, 56
5, 62409, Control_c, 3, 11, 57
5, 62433, Control_c, 3, 11, 58
5, 62457, Control_c, 3, 11, 59
5, 62481, Control_c, 3, 11, 60
5, 62505, Control_c, 3, 11, 61
5, 62529, Control_c, 3, 11, 62
5, 62553, Control_c, 3, 11, 63
5, 62577, Control_c, 3, 11, 64
5, 62601, Control_c, 3, 11, 65
5, 62625, Control_c, 3, 11, 66
5, 62649, Note_on_c, 3, 64, 0
5, 62649, Note_on_c, 3, 52, 0
5, 62649, Control_c, 3, 11, 69
5, 62649, Note_on_c, 3, 45, 85
5, 62649, Note_on_c, 3, 61, 85
5, 62663, Control_c, 3, 11, 72
5, 62677, Control_c, 3, 11, 75
5, 62692, Control_c, 3, 11, 78
5, 62709, Control_c, 3, 11, 77
5, 62727, Control_c, 3, 11, 74
5, 62745, Control_c, 3, 11, 71
5, 62763, Control_c, 3, 11, 68
5, 62781, Control_c, 3, 11, 66
5, 62805, Control_c, 3, 11, 64
5, 62829, Control_c, 3, 11, 62
5, 62853, Control_c, 3, 11, 60
5, 62877, Control_c, 3, 11, 58
5, 62901, Control_c, 3, 11, 56
5, 62925, Control_c, 3, 11, 54
5, 62949, Control_c, 3, 11, 52
5, 62973, Control_c, 3, 11, 50
5, 62989, Note_on_c, 3, 61, 0
5, 62989, Note_on_c, 3, 45, 0
5, 62997, Control_c, 3, 11, 48
5, 63009, Note_on_c, 3, 62, 85
5, 63009, Note_on_c, 3, 50, 85
5, 63129, Note_on_c, 3, 50, 0
5, 63129, Note_on_c, 3, 62, 0
5, 63129, Note_on_c, 3, 59, 85
5, 63129, Note_on_c, 3, 43, 85
5, 63229, Note_on_c, 3, 43, 0
5, 63229, Note_on_c, 3, 59, 0
5, 63249, Note_on_c, 3, 55, 85
5, 63249, Note_on_c, 3, 45, 85
5, 63309, Note_on_c, 3, 45, 0
5, 63309, Note_on_c, 3, 55, 0
5, 63369, Note_on_c, 3, 54, 85
5, 63369, Note_on_c, 3, 50, 85
5, 63489, Note_on_c, 3, 50, 0
5, 63489, Note_on_c, 3, 54, 0
5, 63729, Note_on_c, 3, 62, 85
5, 63729, Control_c, 3, 11, 52
5, 64089, Note_on_c, 3, 59, 85
5, 64449, Note_on_c, 3, 59, 0
5, 64449, Note_on_c, 3, 54, 85
5, 64569, Note_on_c, 3, 54, 0
5, 64569, Note_on_c, 3, 62, 0
5, 64569, Note_on_c, 3, 52, 85
5, 64569, Note_on_c, 3, 61, 85
5, 64669, Note_on_c, 3, 61, 0
5, 64669, Note_on_c, 3, 52, 0
5, 64689, Note_on_c, 3, 62, 85
5, 64689, Note_on_c, 3, 50, 85
5, 64749, Note_on_c, 3, 50, 0
5, 64749, Note_on_c, 3, 62, 0
5, 64809, Note_on_c, 3, 57, 85
5, 64809, Note_on_c, 3, 61, 85
5, 64929, Note_on_c, 3, 61, 0
5, 64929, Note_on_c, 3, 57, 0
5, 65049, Note_on_c, 3, 54, 85
5, 65049, Note_on_c, 3, 63, 85
5, 65149, Note_on_c, 3, 63, 0
5, 65149, Note_on_c, 3, 54, 0
5, 65169, Note_on_c, 3, 64, 85
5, 65169, Note_on_c, 3, 52, 85
5, 65169, Control_c, 3, 11, 52
5, 65193, Control_c, 3, 11, 53
5, 65217, Control_c, 3, 11, 54
5, 65241, Control_c, 3, 11, 55
5, 65265, Control_c, 3, 11, 56
5, 65289, Control_c, 3, 11, 57
5, 65313, Control_c, 3, 11, 58
5, 65337, Control_c, 3, 11, 59
5, 65361, Control_c, 3, 11, 60
5, 65385, Control_c, 3, 11, 61
5, 65409, Control_c, 3, 11, 62
5, 65433, Control_c, 3, 11, 63
5, 65457, Control_c, 3, 11, 64
5, 65481, Control_c, 3, 11, 65
5, 65505, Control_c, 3, 11, 66
5, 65529, Note_on_c, 3, 52, 0
5, 65529, Note_on_c, 3, 64, 0
5, 65529, Control_c, 3, 11, 69
5, 65529, Note_on_c, 3, 61, 85
5, 65529, Note_on_c, 3, 45, 85
5, 65543, Control_c, 3, 11, 72
5, 65557, Control_c, 3, 11, 75
5, 65572, Control_c, 3, 11, 78
5, 65589, Control_c, 3, 11, 77
5, 65607, Control_c, 3, 11, 74
5, 65625, Control_c, 3, 11, 71
5, 65643, Control_c, 3, 11, 68
5, 65661, Control_c, 3, 11, 66
5, 65685, Control_c, 3, 11, 64
5, 65709, Control_c, 3, 11, 62
5, 65733, Control_c, 3, 11, 60
5, 65757, Control_c, 3, 11, 58
5, 65781, Control_c, 3, 11, 56
5, 65805, Control_c, 3, 11, 54
5, 65829, Control_c, 3, 11, 52
5, 65853, Control_c, 3, 11, 50
5, 65869, Note_on_c, 3, 45, 0
5, 65869, Note_on_c, 3, 61, 0
5, 65877, Control_c, 3, 11, 48
5, 65889, Note_on_c, 3, 50, 85
5, 65889, Note_on_c, 3, 62, 85
5, 66009, Note_on_c, 3, 62, 0
5, 66009, Note_on_c, 3, 50, 0
5, 66009, Note_on_c, 3, 59, 85
5, 66009, Note_on_c, 3, 43, 85
5, 66109, Note_on_c, 3, 43, 0
5, 66109, Note_on_c, 3, 59, 0
5, 66129, Note_on_c, 3, 55, 85
5, 66129, Note_on_c, 3, 45, 85
5, 66189, Note_on_c, 3, 45, 0
5, 66189, Note_on_c, 3, 55, 0
5, 66249, Note_on_c, 3, 50, 85
5, 66249, Note_on_c, 3, 54, 85
5, 66369, Note_on_c, 3, 54, 0
5, 66369, Note_on_c, 3, 50, 0
5, 71649, Control_c, 3, 11, 102
5, 71649, Note_on_c, 3, 57, 100
5, 71649, Note_on_c, 3, 45, 100
5, 72369, Note_on_c, 3, 45, 0
5, 72369, Note_on_c, 3, 57, 0
5, 72369, Control_c, 3, 11, 87
5, 72369, Note_on_c, 3, 47, 100
5, 72378, Control_c, 3, 11, 84
5, 72387, Control_c, 3, 11, 81
5, 72396, Control_c, 3, 11, 78
5, 72405, Control_c, 3, 11, 75
5, 72414, Control_c, 3, 11, 72
5, 72423, Control_c, 3, 11, 69
5, 72429, Note_on_c, 3, 47, 0
5, 72432, Control_c, 3, 11, 66
5, 72441, Control_c, 3, 11, 63
5, 72450, Control_c, 3, 11, 60
5, 72459, Control_c, 3, 11, 57
5, 72468, Control_c, 3, 11, 54
5, 72477, Control_c, 3, 11, 51
5, 72486, Control_c, 3, 11, 48
5, 72489, Note_on_c, 3, 62, 100
5, 72549, Note_on_c, 3, 62, 0
5, 72609, Note_on_c, 3, 61, 100
5, 72669, Note_on_c, 3, 61, 0
5, 72729, Note_on_c, 3, 59, 100
5, 72789, Note_on_c, 3, 59, 0
5, 72849, Note_on_c, 3, 57, 100
5, 72909, Note_on_c, 3, 57, 0
5, 72969, Note_on_c, 3, 55, 100
5, 73029, Note_on_c, 3, 55, 0
5, 73089, Note_on_c, 3, 54, 100
5, 73149, Note_on_c, 3, 54, 0
5, 73209, Note_on_c, 3, 52, 100
5, 73269, Note_on_c, 3, 52, 0
5, 73329, Note_on_c, 3, 50, 100
5, 73389, Note_on_c, 3, 50, 0
5, 73449, Note_on_c, 3, 57, 100
5, 73569, Note_on_c, 3, 57, 0
5, 73689, Note_on_c, 3, 54, 100
5, 73749, Note_on_c, 3, 54, 0
5, 73809, Note_on_c, 3, 52, 100
5, 73869, Note_on_c, 3, 52, 0
5, 73929, Note_on_c, 3, 64, 100
5, 73989, Note_on_c, 3, 64, 0
5, 74049, Note_on_c, 3, 62, 100
5, 74109, Note_on_c, 3, 62, 0
5, 74169, Note_on_c, 3, 61, 100
5, 74229, Note_on_c, 3, 61, 0
5, 74289, Note_on_c, 3, 59, 100
5, 74349, Note_on_c, 3, 59, 0
5, 74409, Note_on_c, 3, 57, 100
5, 74469, Note_on_c, 3, 57, 0
5, 74529, Note_on_c, 3, 62, 100
5, 74649, Note_on_c, 3, 62, 0
5, 74649, Note_on_c, 3, 55, 100
5, 74769, Note_on_c, 3, 55, 0
5, 74769, Note_on_c, 3, 57, 100
5, 74829, Note_on_c, 3, 57, 0
5, 74889, Note_on_c, 3, 50, 100
5, 75009, Note_on_c, 3, 50, 0
5, 76569, Control_c, 3, 11, 62
5, 76569, Note_on_c, 3, 57, 100
5, 76689, Note_on_c, 3, 57, 0
5, 76689, Note_on_c, 3, 59, 100
5, 76689, Control_c, 3, 11, 62
5, 76713, Control_c, 3, 11, 63
5, 76737, Control_c, 3, 11, 64
5, 76761, Control_c, 3, 11, 65
5, 76785, Control_c, 3, 11, 66
5, 76809, Control_c, 3, 11, 67
5, 76833, Control_c, 3, 11, 68
5, 76857, Control_c, 3, 11, 69
5, 76881, Control_c, 3, 11, 70
5, 76905, Control_c, 3, 11, 71
5, 76929, Control_c, 3, 11, 72
5, 76953, Control_c, 3, 11, 73
5, 76977, Control_c, 3, 11, 74
5, 77001, Control_c, 3, 11, 75
5, 77025, Control_c, 3, 11, 76
5, 77049, Note_on_c, 3, 59, 0
5, 77049, Note_on_c, 3, 57, 100
5, 77049, Control_c, 3, 11, 79
5, 77063, Control_c, 3, 11, 82
5, 77077, Control_c, 3, 11, 85
5, 77092, Control_c, 3, 11, 88
5, 77109, Control_c, 3, 11, 87
5, 77127, Control_c, 3, 11, 84
5, 77145, Control_c, 3, 11, 81
5, 77163, Control_c, 3, 11, 78
5, 77181, Control_c, 3, 11, 76
5, 77205, Control_c, 3, 11, 74
5, 77229, Control_c, 3, 11, 72
5, 77253, Control_c, 3, 11, 70
5, 77277, Control_c, 3, 11, 68
5, 77301, Control_c, 3, 11, 66
5, 77325, Control_c, 3, 11, 64
5, 77349, Control_c, 3, 11, 62
5, 77373, Control_c, 3, 11, 60
5, 77397, Control_c, 3, 11, 58
5, 77409, Note_on_c, 3, 57, 0
5, 77409, Note_on_c, 3, 57, 100
5, 77529, Note_on_c, 3, 57, 0
5, 77529, Note_on_c, 3, 59, 100
5, 77649, Note_on_c, 3, 59, 0
5, 77649, Note_on_c, 3, 55, 100
5, 77709, Note_on_c, 3, 55, 0
5, 77769, Note_on_c, 3, 54, 100
5, 77889, Note_on_c, 3, 54, 0
5, 78009, Note_on_c, 3, 55, 100
5, 78069, Note_on_c, 3, 55, 0
5, 78129, Note_on_c, 3, 57, 100
5, 78249, Note_on_c, 3, 57, 0
5, 78249, Note_on_c, 3, 59, 100
5, 78369, Note_on_c, 3, 59, 0
5, 78369, Note_on_c, 3, 55, 100
5, 78429, Note_on_c, 3, 55, 0
5, 78489, Note_on_c, 3, 54, 100
5, 78609, Note_on_c, 3, 54, 0
5, 79449, Control_c, 3, 11, 47
5, 79449, Note_on_c, 3, 45, 100
5, 79449, Note_on_c, 3, 57, 100
5, 79509, Note_on_c, 3, 57, 0
5, 79509, Note_on_c, 3, 45, 0
5, 79569, Note_on_c, 3, 57, 100
5, 79569, Note_on_c, 3, 50, 100
5, 79689, Note_on_c, 3, 50, 0
5, 79689, Note_on_c, 3, 57, 0
5, 79689, Note_on_c, 3, 43, 100
5, 79689, Note_on_c, 3, 59, 100
5, 79809, Note_on_c, 3, 59, 0
5, 79809, Note_on_c, 3, 43, 0
5, 79809, Note_on_c, 3, 61, 100
5, 79809, Note_on_c, 3, 45, 100
5, 79869, Note_on_c, 3, 45, 0
5, 79869, Note_on_c, 3, 61, 0
5, 79929, Note_on_c, 3, 62, 100
5, 79929, Note_on_c, 3, 50, 100
5, 80049, Note_on_c, 3, 50, 0
5, 80049, Note_on_c, 3, 62, 0
5, 85329, Control_c, 3, 11, 102
5, 85329, Note_on_c, 3, 57, 100
5, 85329, Note_on_c, 3, 45, 100
5, 86049, Note_on_c, 3, 45, 0
5, 86049, Note_on_c, 3, 57, 0
5, 86049, Control_c, 3, 11, 87
5, 86049, Note_on_c, 3, 47, 100
5, 86058, Control_c, 3, 11, 84
5, 86067, Control_c, 3, 11, 81
5, 86076, Control_c, 3, 11, 78
5, 86085, Control_c, 3, 11, 75
5, 86094, Control_c, 3, 11, 72
5, 86103, Control_c, 3, 11, 69
5, 86109, Note_on_c, 3, 47, 0
5, 86112, Control_c, 3, 11, 66
5, 86121, Control_c, 3, 11, 63
5, 86130, Control_c, 3, 11, 60
5, 86139, Control_c, 3, 11, 57
5, 86148, Control_c, 3, 11, 54
5, 86157, Control_c, 3, 11, 51
5, 86166, Control_c, 3, 11, 48
5, 86169, Note_on_c, 3, 62, 100
5, 86229, Note_on_c, 3, 62, 0
5, 86289, Note_on_c, 3, 61, 100
5, 86349, Note_on_c, 3, 61, 0
5, 86409, Note_on_c, 3, 59, 100
5, 86469, Note_on_c, 3, 59, 0
5, 86529, Note_on_c, 3, 57, 100
5, 86589, Note_on_c, 3, 57, 0
5, 86649, Note_on_c, 3, 55, 100
5, 86709, Note_on_c, 3, 55, 0
5, 86769, Note_on_c, 3, 54, 100
5, 86829, Note_on_c, 3, 54, 0
5, 86889, Note_on_c, 3, 52, 100
5, 86949, Note_on_c, 3, 52, 0
5, 87009, Note_on_c, 3, 50, 100
5, 87069, Note_on_c, 3, 50, 0
5, 87129, Note_on_c, 3, 57, 100
5, 87249, Note_on_c, 3, 57, 0
5, 87369, Note_on_c, 3, 54, 100
5, 87429, Note_on_c, 3, 54, 0
5, 87489, Note_on_c, 3, 52, 100
5, 87549, Note_on_c, 3, 52, 0
5, 87609, Note_on_c, 3, 64, 100
5, 87669, Note_on_c, 3, 64, 0
5, 87729, Note_on_c, 3, 62, 100
5, 87789, Note_on_c, 3, 62, 0
5, 87849, Note_on_c, 3, 61, 100
5, 87909, Note_on_c, 3, 61, 0
5, 87969, Note_on_c, 3, 59, 100
5, 88029, Note_on_c, 3, 59, 0
5, 88089, Note_on_c, 3, 57, 100
5, 88149, Note_on_c, 3, 57, 0
5, 88209, Note_on_c, 3, 62, 100
5, 88329, Note_on_c, 3, 62, 0
5, 88329, Note_on_c, 3, 55, 100
5, 88449, Note_on_c, 3, 55, 0
5, 88449, Note_on_c, 3, 57, 100
5, 88509, Note_on_c, 3, 57, 0
5, 88569, Note_on_c, 3, 50, 100
5, 88689, Note_on_c, 3, 50, 0
5, 90249, Note_on_c, 3, 57, 100
5, 90249, Control_c, 3, 11, 62
5, 90369, Note_on_c, 3, 57, 0
5, 90369, Control_c, 3, 11, 62
5, 90369, Note_on_c, 3, 59, 100
5, 90393, Control_c, 3, 11, 63
5, 90417, Control_c, 3, 11, 64
5, 90441, Control_c, 3, 11, 65
5, 90465, Control_c, 3, 11, 66
5, 90489, Control_c, 3, 11, 67
5, 90513, Control_c, 3, 11, 68
5, 90537, Control_c, 3, 11, 69
5, 90561, Control_c, 3, 11, 70
5, 90585, Control_c, 3, 11, 71
5, 90609, Control_c, 3, 11, 72
5, 90633, Control_c, 3, 11, 73
5, 90657, Control_c, 3, 11, 74
5, 90681, Control_c, 3, 11, 75
5, 90705, Control_c, 3, 11, 76
5, 90729, Note_on_c, 3, 59, 0
5, 90729, Control_c, 3, 11, 79
5, 90729, Note_on_c, 3, 57, 100
5, 90743, Control_c, 3, 11, 82
5, 90757, Control_c, 3, 11, 85
5, 90772, Control_c, 3, 11, 88
5, 90789, Control_c, 3, 11, 87
5, 90807, Control_c, 3, 11, 84
5, 90825, Control_c, 3, 11, 81
5, 90843, Control_c, 3, 11, 78
5, 90861, Control_c, 3, 11, 76
5, 90885, Control_c, 3, 11, 74
5, 90909, Control_c, 3, 11, 72
5, 90933, Control_c, 3, 11, 70
5, 90957, Control_c, 3, 11, 68
5, 90981, Control_c, 3, 11, 66
5, 91005, Control_c, 3, 11, 64
5, 91029, Control_c, 3, 11, 62
5, 91053, Control_c, 3, 11, 60
5, 91077, Control_c, 3, 11, 58
5, 91089, Note_on_c, 3, 57, 0
5, 91089, Note_on_c, 3, 57, 100
5, 91209, Note_on_c, 3, 57, 0
5, 91209, Note_on_c, 3, 59, 100
5, 91329, Note_on_c, 3, 59, 0
5, 91329, Note_on_c, 3, 55, 100
5, 91389, Note_on_c, 3, 55, 0
5, 91449, Note_on_c, 3, 54, 100
5, 91569, Note_on_c, 3, 54, 0
5, 91689, Note_on_c, 3, 55, 100
5, 91749, Note_on_c, 3, 55, 0
5, 91809, Note_on_c, 3, 57, 100
5, 91929, Note_on_c, 3, 57, 0
5, 91929, Note_on_c, 3, 59, 100
5, 92049, Note_on_c, 3, 59, 0
5, 92049, Note_on_c, 3, 55, 100
5, 92109, Note_on_c, 3, 55, 0
5, 92169, Note_on_c, 3, 54, 100
5, 92289, Note_on_c, 3, 54, 0
5, 93129, Control_c, 3, 11, 47
5, 93129, Note_on_c, 3, 45, 100
5, 93129, Note_on_c, 3, 57, 100
5, 93189, Note_on_c, 3, 57, 0
5, 93189, Note_on_c, 3, 45, 0
5, 93249, Note_on_c, 3, 57, 100
5, 93249, Note_on_c, 3, 50, 100
5, 93369, Note_on_c, 3, 50, 0
5, 93369, Note_on_c, 3, 57, 0
5, 93369, Note_on_c, 3, 43, 100
5, 93369, Note_on_c, 3, 59, 100
5, 93489, Note_on_c, 3, 59, 0
5, 93489, Note_on_c, 3, 43, 0
5, 93489, Note_on_c, 3, 61, 100
5, 93489, Note_on_c, 3, 45, 100
5, 93549, Note_on_c, 3, 45, 0
5, 93549, Note_on_c, 3, 61, 0
5, 93609, Note_on_c, 3, 62, 100
5, 93609, Note_on_c, 3, 50, 100
5, 93729, Note_on_c, 3, 50, 0
5, 93729, Note_on_c, 3, 62, 0
5, 93969, Control_c, 3, 11, 87
5, 93969, Note_on_c, 3, 50, 100
5, 94029, Note_on_c, 3, 50, 0
5, 94089, Note_on_c, 3, 52, 100
5, 94149, Note_on_c, 3, 52, 0
5, 94209, Note_on_c, 3, 54, 100
5, 94269, Note_on_c, 3, 54, 0
5, 94689, Note_on_c, 3, 55, 100
5, 94749, Note_on_c, 3, 55, 0
5, 94809, Note_on_c, 3, 57, 100
5, 94869, Note_on_c, 3, 57, 0
5, 94929, Note_on_c, 3, 59, 100
5, 94989, Note_on_c, 3, 59, 0
5, 96489, Control_c, 3, 11, 102
5, 96489, Note_on_c, 3, 50, 100
5, 96489, Note_on_c, 3, 62, 100
5, 96549, Note_on_c, 3, 62, 0
5, 96549, Note_on_c, 3, 50, 0
5, 96609, Note_on_c, 3, 57, 100
5, 96609, Note_on_c, 3, 45, 100
5, 96669, Note_on_c, 3, 45, 0
5, 96669, Note_on_c, 3, 57, 0
5, 96729, Note_on_c, 3, 62, 100
5, 96729, Note_on_c, 3, 50, 100
5, 96789, Note_on_c, 3, 50, 0
5, 96789, Note_on_c, 3, 62, 0
5, 96849, Note_on_c, 3, 50, 100
5, 96849, Control_c, 3, 11, 87
5, 96909, Note_on_c, 3, 50, 0
5, 96969, Note_on_c, 3, 52, 100
5, 97029, Note_on_c, 3, 52, 0
5, 97089, Note_on_c, 3, 54, 100
5, 97149, Note_on_c, 3, 54, 0
5, 97569, Note_on_c, 3, 56, 100
5, 97629, Note_on_c, 3, 56, 0
5, 97689, Note_on_c, 3, 57, 100
5, 97749, Note_on_c, 3, 57, 0
5, 97809, Note_on_c, 3, 59, 100
5, 97869, Note_on_c, 3, 59, 0
5, 99009, Control_c, 3, 11, 47
5, 99009, Note_on_c, 3, 57, 100
5, 99069, Note_on_c, 3, 57, 0
5, 99129, Note_on_c, 3, 52, 100
5, 99189, Note_on_c, 3, 52, 0
5, 99249, Note_on_c, 3, 57, 100
5, 99309, Note_on_c, 3, 57, 0
5, 99369, Note_on_c, 3, 45, 100
5, 99369, Note_on_c, 3, 57, 100
5, 99369, Control_c, 3, 11, 102
5, 99429, Note_on_c, 3, 57, 0
5, 99429, Note_on_c, 3, 45, 0
5, 99489, Note_on_c, 3, 52, 100
5, 99489, Note_on_c, 3, 40, 100
5, 99549, Note_on_c, 3, 40, 0
5, 99549, Note_on_c, 3, 52, 0
5, 99609, Note_on_c, 3, 57, 100
5, 99609, Note_on_c, 3, 45, 100
5, 99669, Note_on_c, 3, 45, 0
5, 99669, Note_on_c, 3, 57, 0
5, 99729, Control_c, 3, 11, 87
5, 99729, Note_on_c, 3, 50, 100
5, 99789, Note_on_c, 3, 50, 0
5, 99849, Note_on_c, 3, 52, 100
5, 99909, Note_on_c, 3, 52, 0
5, 99969, Note_on_c, 3, 54, 100
5, 100029, Note_on_c, 3, 54, 0
5, 100449, Note_on_c, 3, 55, 100
5, 100509, Note_on_c, 3, 55, 0
5, 100569, Note_on_c, 3, 57, 100
5, 100629, Note_on_c, 3, 57, 0
5, 100689, Note_on_c, 3, 59, 100
5, 100749, Note_on_c, 3, 59, 0
5, 102249, Control_c, 3, 11, 102
5, 102249, Note_on_c, 3, 62, 100
5, 102249, Note_on_c, 3, 50, 100
5, 102309, Note_on_c, 3, 50, 0
5, 102309, Note_on_c, 3, 62, 0
5, 102369, Note_on_c, 3, 57, 100
5, 102369, Note_on_c, 3, 45, 100
5, 102429, Note_on_c, 3, 45, 0
5, 102429, Note_on_c, 3, 57, 0
5, 102489, Note_on_c, 3, 62, 100
5, 102489, Note_on_c, 3, 50, 100
5, 102549, Note_on_c, 3, 50, 0
5, 102549, Note_on_c, 3, 62, 0
5, 102609, Note_on_c, 3, 50, 100
5, 102609, Control_c, 3, 11, 87
5, 102669, Note_on_c, 3, 50, 0
5, 102729, Note_on_c, 3, 52, 100
5, 102789, Note_on_c, 3, 52, 0
5, 102849, Note_on_c, 3, 54, 100
5, 102909, Note_on_c, 3, 54, 0
5, 103329, Note_on_c, 3, 56, 100
5, 103389, Note_on_c, 3, 56, 0
5, 103449, Note_on_c, 3, 57, 100
5, 103509, Note_on_c, 3, 57, 0
5, 103569, Note_on_c, 3, 59, 100
5, 103629, Note_on_c, 3, 59, 0
5, 104769, Control_c, 3, 11, 47
5, 104769, Note_on_c, 3, 57, 100
5, 104829, Note_on_c, 3, 57, 0
5, 104889, Note_on_c, 3, 52, 100
5, 104949, Note_on_c, 3, 52, 0
5, 105009, Note_on_c, 3, 57, 100
5, 105069, Note_on_c, 3, 57, 0
5, 105129, Control_c, 3, 11, 102
5, 105129, Note_on_c, 3, 57, 100
5, 105129, Note_on_c, 3, 45, 100
5, 105189, Note_on_c, 3, 45, 0
5, 105189, Note_on_c, 3, 57, 0
5, 105249, Note_on_c, 3, 40, 100
5, 105249, Note_on_c, 3, 52, 100
5, 105309, Note_on_c, 3, 52, 0
5, 105309, Note_on_c, 3, 40, 0
5, 105369, Note_on_c, 3, 45, 100
5, 105369, Note_on_c, 3, 57, 100
5, 105429, Note_on_c, 3, 57, 0
5, 105429, Note_on_c, 3, 45, 0
5, 108249, Control_c, 3, 11, 52
5, 108249, Note_on_c, 3, 57, 100
5, 108369, Note_on_c, 3, 57, 0
5, 108369, Note_on_c, 3, 58, 100
5, 108429, Note_on_c, 3, 58, 0
5, 108489, Note_on_c, 3, 65, 100
5, 108489, Control_c, 3, 11, 87
5, 108499, Control_c, 3, 11, 84
5, 108509, Control_c, 3, 11, 81
5, 108519, Control_c, 3, 11, 78
5, 108530, Control_c, 3, 11, 75
5, 108540, Control_c, 3, 11, 72
5, 108550, Control_c, 3, 11, 69
5, 108561, Control_c, 3, 11, 66
5, 108571, Control_c, 3, 11, 63
5, 108581, Control_c, 3, 11, 60
5, 108591, Control_c, 3, 11, 57
5, 108602, Control_c, 3, 11, 54
5, 108959, Note_on_c, 3, 65, 0
5, 108969, Note_on_c, 3, 62, 100
5, 109029, Note_on_c, 3, 62, 0
5, 109029, Note_on_c, 3, 58, 100
5, 109079, Note_on_c, 3, 58, 0
5, 109089, Note_on_c, 3, 57, 100
5, 109209, Note_on_c, 3, 57, 0
5, 109569, Note_on_c, 3, 53, 100
5, 109679, Note_on_c, 3, 53, 0
5, 109689, Note_on_c, 3, 53, 100
5, 109799, Note_on_c, 3, 53, 0
5, 109809, Note_on_c, 3, 58, 100
5, 109929, Note_on_c, 3, 58, 0
5, 110169, Note_on_c, 3, 57, 100
5, 110289, Note_on_c, 3, 57, 0
5, 110529, Note_on_c, 3, 56, 100
5, 110649, Note_on_c, 3, 56, 0
5, 110889, Note_on_c, 3, 56, 100
5, 111009, Note_on_c, 3, 56, 0
5, 111249, Note_on_c, 3, 57, 100
5, 111369, Note_on_c, 3, 57, 0
5, 113409, Note_on_c, 3, 50, 100
5, 113409, Control_c, 3, 11, 87
5, 113469, Note_on_c, 3, 50, 0
5, 113529, Note_on_c, 3, 52, 100
5, 113589, Note_on_c, 3, 52, 0
5, 113649, Note_on_c, 3, 54, 100
5, 113709, Note_on_c, 3, 54, 0
5, 114129, Note_on_c, 3, 55, 100
5, 114189, Note_on_c, 3, 55, 0
5, 114249, Note_on_c, 3, 57, 100
5, 114309, Note_on_c, 3, 57, 0
5, 114369, Note_on_c, 3, 59, 100
5, 114429, Note_on_c, 3, 59, 0
5, 115929, Note_on_c, 3, 50, 100
5, 115929, Control_c, 3, 11, 102
5, 115929, Note_on_c, 3, 62, 100
5, 115989, Note_on_c, 3, 62, 0
5, 115989, Note_on_c, 3, 50, 0
5, 116049, Note_on_c, 3, 45, 100
5, 116049, Note_on_c, 3, 57, 100
5, 116109, Note_on_c, 3, 57, 0
5, 116109, Note_on_c, 3, 45, 0
5, 116169, Note_on_c, 3, 62, 100
5, 116169, Note_on_c, 3, 50, 100
5, 116229, Note_on_c, 3, 50, 0
5, 116229, Note_on_c, 3, 62, 0
5, 116289, Note_on_c, 3, 50, 100
5, 116289, Control_c, 3, 11, 87
5, 116349, Note_on_c, 3, 50, 0
5, 116409, Note_on_c, 3, 52, 100
5, 116469, Note_on_c, 3, 52, 0
5, 116529, Note_on_c, 3, 54, 100
5, 116589, Note_on_c, 3, 54, 0
5, 117009, Note_on_c, 3, 55, 100
5, 117069, Note_on_c, 3, 55, 0
5, 117129, Note_on_c, 3, 57, 100
5, 117189, Note_on_c, 3, 57, 0
5, 117249, Note_on_c, 3, 59, 100
5, 117309, Note_on_c, 3, 59, 0
5, 120609, Note_on_c, 3, 60, 100
5, 120609, Control_c, 3, 11, 42
5, 120954, Note_on_c, 3, 60, 0
5, 120969, Note_on_c, 3, 65, 100
5, 121029, Note_on_c, 3, 65, 0
5, 121089, Note_on_c, 3, 64, 100
5, 121149, Note_on_c, 3, 64, 0
5, 121209, Note_on_c, 3, 65, 100
5, 121269, Note_on_c, 3, 65, 0
5, 121329, Note_on_c, 3, 57, 100
5, 121674, Note_on_c, 3, 57, 0
5, 121689, Note_on_c, 3, 62, 100
5, 121749, Note_on_c, 3, 62, 0
5, 121809, Note_on_c, 3, 61, 100
5, 121869, Note_on_c, 3, 61, 0
5, 121929, Note_on_c, 3, 62, 100
5, 121989, Note_on_c, 3, 62, 0
5, 122049, Note_on_c, 3, 46, 100
5, 122049, Note_on_c, 3, 50, 100
5, 122049, Control_c, 3, 11, 52
5, 122069, Control_c, 3, 11, 53
5, 122090, Control_c, 3, 11, 54
5, 122110, Control_c, 3, 11, 55
5, 122131, Control_c, 3, 11, 56
5, 122151, Control_c, 3, 11, 57
5, 122169, Note_on_c, 3, 50, 0
5, 122169, Note_on_c, 3, 52, 100
5, 122172, Control_c, 3, 11, 58
5, 122193, Control_c, 3, 11, 59
5, 122213, Control_c, 3, 11, 60
5, 122234, Control_c, 3, 11, 61
5, 122254, Control_c, 3, 11, 62
5, 122275, Control_c, 3, 11, 63
5, 122289, Note_on_c, 3, 52, 0
5, 122289, Note_on_c, 3, 53, 100
5, 122295, Control_c, 3, 11, 64
5, 122316, Control_c, 3, 11, 65
5, 122337, Control_c, 3, 11, 66
5, 122357, Control_c, 3, 11, 67
5, 122378, Control_c, 3, 11, 68
5, 122398, Control_c, 3, 11, 69
5, 122409, Note_on_c, 3, 53, 0
5, 122409, Note_on_c, 3, 54, 100
5, 122419, Control_c, 3, 11, 70
5, 122439, Control_c, 3, 11, 71
5, 122460, Control_c, 3, 11, 72
5, 122481, Control_c, 3, 11, 73
5, 122501, Control_c, 3, 11, 74
5, 122522, Control_c, 3, 11, 75
5, 122529, Note_on_c, 3, 54, 0
5, 122529, Note_on_c, 3, 55, 100
5, 122542, Control_c, 3, 11, 76
5, 122563, Control_c, 3, 11, 77
5, 122583, Control_c, 3, 11, 78
5, 122604, Control_c, 3, 11, 79
5, 122625, Control_c, 3, 11, 80
5, 122645, Control_c, 3, 11, 81
5, 122649, Note_on_c, 3, 55, 0
5, 122649, Note_on_c, 3, 56, 100
5, 122666, Control_c, 3, 11, 82
5, 122686, Control_c, 3, 11, 83
5, 122707, Control_c, 3, 11, 84
5, 122727, Control_c, 3, 11, 85
5, 122748, Control_c, 3, 11, 86
5, 122754, Note_on_c, 3, 56, 0
5, 122754, Note_on_c, 3, 46, 0
5, 122769, Note_on_c, 3, 45, 100
5, 122769, Control_c, 3, 11, 87
5, 122769, Note_on_c, 3, 57, 100
5, 122874, Note_on_c, 3, 57, 0
5, 122874, Note_on_c, 3, 45, 0
5, 122889, Note_on_c, 3, 57, 100
5, 122994, Note_on_c, 3, 57, 0
5, 123009, Note_on_c, 3, 57, 100
5, 123114, Note_on_c, 3, 57, 0
5, 123129, Note_on_c, 3, 50, 100
5, 123249, Note_on_c, 3, 50, 0
5, 123489, Note_on_c, 3, 60, 100
5, 123489, Control_c, 3, 11, 42
5, 123834, Note_on_c, 3, 60, 0
5, 123849, Note_on_c, 3, 65, 100
5, 123909, Note_on_c, 3, 65, 0
5, 123969, Note_on_c, 3, 64, 100
5, 124029, Note_on_c, 3, 64, 0
5, 124089, Note_on_c, 3, 65, 100
5, 124149, Note_on_c, 3, 65, 0
5, 124209, Note_on_c, 3, 57, 100
5, 124554, Note_on_c, 3, 57, 0
5, 124569, Note_on_c, 3, 62, 100
5, 124629, Note_on_c, 3, 62, 0
5, 124689, Note_on_c, 3, 61, 100
5, 124749, Note_on_c, 3, 61, 0
5, 124809, Note_on_c, 3, 62, 100
5, 124869, Note_on_c, 3, 62, 0
5, 124929, Control_c, 3, 11, 52
5, 124929, Note_on_c, 3, 50, 100
5, 124929, Note_on_c, 3, 46, 100
5, 124949, Control_c, 3, 11, 53
5, 124970, Control_c, 3, 11, 54
5, 124990, Control_c, 3, 11, 55
5, 125011, Control_c, 3, 11, 56
5, 125031, Control_c, 3, 11, 57
5, 125049, Note_on_c, 3, 50, 0
5, 125049, Note_on_c, 3, 52, 100
5, 125052, Control_c, 3, 11, 58
5, 125073, Control_c, 3, 11, 59
5, 125093, Control_c, 3, 11, 60
5, 125114, Control_c, 3, 11, 61
5, 125134, Control_c, 3, 11, 62
5, 125155, Control_c, 3, 11, 63
5, 125169, Note_on_c, 3, 52, 0
5, 125169, Note_on_c, 3, 53, 100
5, 125175, Control_c, 3, 11, 64
5, 125196, Control_c, 3, 11, 65
5, 125217, Control_c, 3, 11, 66
5, 125237, Control_c, 3, 11, 67
5, 125258, Control_c, 3, 11, 68
5, 125278, Control_c, 3, 11, 69
5, 125289, Note_on_c, 3, 53, 0
5, 125289, Note_on_c, 3, 54, 100
5, 125299, Control_c, 3, 11, 70
5, 125319, Control_c, 3, 11, 71
5, 125340, Control_c, 3, 11, 72
5, 125361, Control_c, 3, 11, 73
5, 125381, Control_c, 3, 11, 74
5, 125402, Control_c, 3, 11, 75
5, 125409, Note_on_c, 3, 54, 0
5, 125409, Note_on_c, 3, 55, 100
5, 125422, Control_c, 3, 11, 76
5, 125443, Control_c, 3, 11, 77
5, 125463, Control_c, 3, 11, 78
5, 125484, Control_c, 3, 11, 79
5, 125505, Control_c, 3, 11, 80
5, 125525, Control_c, 3, 11, 81
5, 125529, Note_on_c, 3, 55, 0
5, 125529, Note_on_c, 3, 56, 100
5, 125546, Control_c, 3, 11, 82
5, 125566, Control_c, 3, 11, 83
5, 125587, Control_c, 3, 11, 84
5, 125607, Control_c, 3, 11, 85
5, 125628, Control_c, 3, 11, 86
5, 125634, Note_on_c, 3, 56, 0
5, 125634, Note_on_c, 3, 46, 0
5, 125649, Control_c, 3, 11, 87
5, 125649, Note_on_c, 3, 57, 100
5, 125649, Note_on_c, 3, 45, 100
5, 125754, Note_on_c, 3, 45, 0
5, 125754, Note_on_c, 3, 57, 0
5, 125769, Note_on_c, 3, 57, 100
5, 125874, Note_on_c, 3, 57, 0
5, 125889, Note_on_c, 3, 57, 100
5, 125994, Note_on_c, 3, 57, 0
5, 126009, Note_on_c, 3, 62, 100
5, 126129, Note_on_c, 3, 62, 0
5, 126369, Control_c, 3, 11, 52
5, 126369, Note_on_c, 3, 46, 100
5, 126369, Note_on_c, 3, 50, 100
5, 126389, Control_c, 3, 11, 53
5, 126410, Control_c, 3, 11, 54
5, 126430, Control_c, 3, 11, 55
5, 126451, Control_c, 3, 11, 56
5, 126471, Control_c, 3, 11, 57
5, 126489, Note_on_c, 3, 50, 0
5, 126489, Note_on_c, 3, 52, 100
5, 126492, Control_c, 3, 11, 58
5, 126513, Control_c, 3, 11, 59
5, 126533, Control_c, 3, 11, 60
5, 126554, Control_c, 3, 11, 61
5, 126574, Control_c, 3, 11, 62
5, 126595, Control_c, 3, 11, 63
5, 126609, Note_on_c, 3, 52, 0
5, 126609, Note_on_c, 3, 53, 100
5, 126615, Control_c, 3, 11, 64
5, 126636, Control_c, 3, 11, 65
5, 126657, Control_c, 3, 11, 66
5, 126677, Control_c, 3, 11, 67
5, 126698, Control_c, 3, 11, 68
5, 126718, Control_c, 3, 11, 69
5, 126729, Note_on_c, 3, 53, 0
5, 126729, Note_on_c, 3, 54, 100
5, 126739, Control_c, 3, 11, 70
5, 126759, Control_c, 3, 11, 71
5, 126780, Control_c, 3, 11, 72
5, 126801, Control_c, 3, 11, 73
5, 126821, Control_c, 3, 11, 74
5, 126842, Control_c, 3, 11, 75
5, 126849, Note_on_c, 3, 54, 0
5, 126849, Note_on_c, 3, 55, 100
5, 126862, Control_c, 3, 11, 76
5, 126883, Control_c, 3, 11, 77
5, 126903, Control_c, 3, 11, 78
5, 126924, Control_c, 3, 11, 79
5, 126945, Control_c, 3, 11, 80
5, 126965, Control_c, 3, 11, 81
5, 126969, Note_on_c, 3, 55, 0
5, 126969, Note_on_c, 3, 56, 100
5, 126986, Control_c, 3, 11, 82
5, 127006, Control_c, 3, 11, 83
5, 127027, Control_c, 3, 11, 84
5, 127047, Control_c, 3, 11, 85
5, 127068, Control_c, 3, 11, 86
5, 127074, Note_on_c, 3, 56, 0
5, 127074, Note_on_c, 3, 46, 0
5, 127089, Note_on_c, 3, 57, 100
5, 127089, Note_on_c, 3, 45, 100
5, 127089, Control_c, 3, 11, 107
5, 127107, Control_c, 3, 11, 104
5, 127125, Control_c, 3, 11, 101
5, 127143, Control_c, 3, 11, 98
5, 127161, Control_c, 3, 11, 95
5, 127179, Control_c, 3, 11, 92
5, 127194, Note_on_c, 3, 45, 0
5, 127194, Note_on_c, 3, 57, 0
5, 127197, Control_c, 3, 11, 89
5, 127209, Note_on_c, 3, 57, 100
5, 127314, Note_on_c, 3, 57, 0
5, 127329, Note_on_c, 3, 57, 100
5, 127434, Note_on_c, 3, 57, 0
5, 127449, Note_on_c, 3, 62, 100
5, 127569, Note_on_c, 3, 62, 0
5, 127809, Note_on_c, 3, 61, 100
5, 127809, Control_c, 3, 11, 107
5, 127809, Note_on_c, 3, 45, 100
5, 127827, Control_c, 3, 11, 104
5, 127845, Control_c, 3, 11, 101
5, 127863, Control_c, 3, 11, 98
5, 127881, Control_c, 3, 11, 95
5, 127899, Control_c, 3, 11, 92
5, 127914, Note_on_c, 3, 45, 0
5, 127917, Control_c, 3, 11, 89
5, 127929, Note_on_c, 3, 57, 100
5, 128034, Note_on_c, 3, 57, 0
5, 128049, Note_on_c, 3, 57, 100
5, 128154, Note_on_c, 3, 57, 0
5, 128154, Note_on_c, 3, 61, 0
5, 128169, Note_on_c, 3, 50, 100
5, 128169, Note_on_c, 3, 62, 100
5, 128289, Note_on_c, 3, 62, 0
5, 128289, Note_on_c, 3, 50, 0
5, 128529, Note_on_c, 3, 61, 100
5, 128529, Control_c, 3, 11, 102
5, 128529, Note_on_c, 3, 57, 100
5, 129009, Note_on_c, 3, 57, 0
5, 129009, Note_on_c, 3, 61, 0
5, 129009, Note_on_c, 3, 62, 100
5, 129009, Note_on_c, 3, 59, 100
5, 129129, Note_on_c, 3, 59, 0
5, 129129, Note_on_c, 3, 62, 0
5, 129129, Note_on_c, 3, 64, 100
5, 129129, Note_on_c, 3, 61, 100
5, 129234, Note_on_c, 3, 61, 0
5, 129234, Note_on_c, 3, 64, 0
5, 129249, Note_on_c, 3, 66, 100
5, 129249, Note_on_c, 3, 62, 100
5, 129369, Note_on_c, 3, 62, 0
5, 129369, Note_on_c, 3, 66, 0
5, 129489, Note_on_c, 3, 57, 100
5, 129549, Note_on_c, 3, 57, 0
5, 129609, Note_on_c, 3, 62, 100
5, 129609, Note_on_c, 3, 50, 100
5, 129669, Note_on_c, 3, 50, 0
5, 129669, Note_on_c, 3, 62, 0
5, 129969, Control_c, 3, 121, 0
5, 129969, End_track
6, 0, Start_track
6, 0, MIDI_port, 0
6, 0, Title_t, "Corno I in D"
6, 0, Program_c, 4, 60
6, 0, Control_c, 4, 10, 24
6, 2, Control_c, 4, 121, 0
6, 7, Program_c, 4, 60
6, 12, Pitch_bend_c, 4, 8292
6, 17, Control_c, 4, 11, 87
6, 22, Control_c, 4, 7, 127
6, 27, Control_c, 4, 91, 80
6, 32, Control_c, 4, 93, 0
6, 362, Control_c, 4, 11, 87
6, 362, Note_on_c, 4, 62, 94
6, 377, Control_c, 4, 11, 86
6, 392, Control_c, 4, 11, 85
6, 407, Control_c, 4, 11, 84
6, 422, Control_c, 4, 11, 83
6, 437, Control_c, 4, 11, 82
6, 452, Control_c, 4, 11, 81
6, 467, Control_c, 4, 11, 80
6, 482, Control_c, 4, 11, 79
6, 497, Control_c, 4, 11, 78
6, 512, Control_c, 4, 11, 77
6, 527, Control_c, 4, 11, 76
6, 542, Control_c, 4, 11, 75
6, 557, Control_c, 4, 11, 74
6, 572, Control_c, 4, 11, 73
6, 587, Control_c, 4, 11, 72
6, 602, Control_c, 4, 11, 71
6, 617, Control_c, 4, 11, 70
6, 632, Control_c, 4, 11, 69
6, 647, Control_c, 4, 11, 68
6, 662, Control_c, 4, 11, 67
6, 670, Control_c, 4, 11, 64
6, 679, Control_c, 4, 11, 61
6, 688, Control_c, 4, 11, 58
6, 697, Control_c, 4, 11, 55
6, 706, Control_c, 4, 11, 52
6, 715, Control_c, 4, 11, 49
6, 722, Note_on_c, 4, 62, 0
6, 1082, Note_on_c, 4, 62, 94
6, 1082, Control_c, 4, 11, 87
6, 1097, Control_c, 4, 11, 86
6, 1112, Control_c, 4, 11, 85
6, 1127, Control_c, 4, 11, 84
6, 1142, Control_c, 4, 11, 83
6, 1157, Control_c, 4, 11, 82
6, 1172, Control_c, 4, 11, 81
6, 1187, Control_c, 4, 11, 80
6, 1202, Control_c, 4, 11, 79
6, 1217, Control_c, 4, 11, 78
6, 1232, Control_c, 4, 11, 77
6, 1247, Control_c, 4, 11, 76
6, 1262, Control_c, 4, 11, 75
6, 1277, Control_c, 4, 11, 74
6, 1292, Control_c, 4, 11, 73
6, 1307, Control_c, 4, 11, 72
6, 1322, Control_c, 4, 11, 71
6, 1337, Control_c, 4, 11, 70
6, 1352, Control_c, 4, 11, 69
6, 1367, Control_c, 4, 11, 68
6, 1382, Control_c, 4, 11, 67
6, 1390, Control_c, 4, 11, 64
6, 1399, Control_c, 4, 11, 61
6, 1408, Control_c, 4, 11, 58
6, 1417, Control_c, 4, 11, 55
6, 1426, Control_c, 4, 11, 52
6, 1435, Control_c, 4, 11, 49
6, 1442, Note_on_c, 4, 62, 0
6, 1802, Note_on_c, 4, 64, 94
6, 1802, Control_c, 4, 11, 47
6, 1862, Note_on_c, 4, 64, 0
6, 1922, Note_on_c, 4, 66, 94
6, 1982, Note_on_c, 4, 66, 0
6, 2042, Note_on_c, 4, 67, 94
6, 2102, Note_on_c, 4, 67, 0
6, 2522, Note_on_c, 4, 66, 94
6, 2582, Note_on_c, 4, 66, 0
6, 2642, Note_on_c, 4, 64, 94
6, 2702, Note_on_c, 4, 64, 0
6, 2762, Note_on_c, 4, 62, 94
6, 2822, Note_on_c, 4, 62, 0
6, 3242, Note_on_c, 4, 62, 94
6, 3242, Control_c, 4, 11, 87
6, 3257, Control_c, 4, 11, 86
6, 3272, Control_c, 4, 11, 85
6, 3287, Control_c, 4, 11, 84
6, 3302, Control_c, 4, 11, 83
6, 3317, Control_c, 4, 11, 82
6, 3332, Control_c, 4, 11, 81
6, 3347, Control_c, 4, 11, 80
6, 3362, Control_c, 4, 11, 79
6, 3377, Control_c, 4, 11, 78
6, 3392, Control_c, 4, 11, 77
6, 3407, Control_c, 4, 11, 76
6, 3422, Control_c, 4, 11, 75
6, 3437, Control_c, 4, 11, 74
6, 3452, Control_c, 4, 11, 73
6, 3467, Control_c, 4, 11, 72
6, 3482, Control_c, 4, 11, 71
6, 3497, Control_c, 4, 11, 70
6, 3512, Control_c, 4, 11, 69
6, 3527, Control_c, 4, 11, 68
6, 3542, Control_c, 4, 11, 67
6, 3550, Control_c, 4, 11, 64
6, 3559, Control_c, 4, 11, 61
6, 3568, Control_c, 4, 11, 58
6, 3577, Control_c, 4, 11, 55
6, 3586, Control_c, 4, 11, 52
6, 3595, Control_c, 4, 11, 49
6, 3602, Note_on_c, 4, 62, 0
6, 3962, Note_on_c, 4, 62, 94
6, 3962, Control_c, 4, 11, 87
6, 3977, Control_c, 4, 11, 86
6, 3992, Control_c, 4, 11, 85
6, 4007, Control_c, 4, 11, 84
6, 4022, Control_c, 4, 11, 83
6, 4037, Control_c, 4, 11, 82
6, 4052, Control_c, 4, 11, 81
6, 4067, Control_c, 4, 11, 80
6, 4082, Control_c, 4, 11, 79
6, 4097, Control_c, 4, 11, 78
6, 4112, Control_c, 4, 11, 77
6, 4127, Control_c, 4, 11, 76
6, 4142, Control_c, 4, 11, 75
6, 4157, Control_c, 4, 11, 74
6, 4172, Control_c, 4, 11, 73
6, 4187, Control_c, 4, 11, 72
6, 4202, Control_c, 4, 11, 71
6, 4217, Control_c, 4, 11, 70
6, 4232, Control_c, 4, 11, 69
6, 4247, Control_c, 4, 11, 68
6, 4262, Control_c, 4, 11, 67
6, 4270, Control_c, 4, 11, 64
6, 4279, Control_c, 4, 11, 61
6, 4288, Control_c, 4, 11, 58
6, 4297, Control_c, 4, 11, 55
6, 4306, Control_c, 4, 11, 52
6, 4315, Control_c, 4, 11, 49
6, 4322, Note_on_c, 4, 62, 0
6, 5402, Control_c, 4, 11, 47
6, 5402, Note_on_c, 4, 64, 94
6, 5462, Note_on_c, 4, 64, 0
6, 5522, Note_on_c, 4, 64, 94
6, 5582, Note_on_c, 4, 64, 0
6, 5642, Note_on_c, 4, 64, 94
6, 5702, Note_on_c, 4, 64, 0
6, 5762, Control_c, 4, 11, 102
6, 5762, Note_on_c, 4, 64, 94
6, 5822, Note_on_c, 4, 64, 0
6, 5882, Note_on_c, 4, 64, 94
6, 5942, Note_on_c, 4, 64, 0
6, 6002, Note_on_c, 4, 64, 94
6, 6062, Note_on_c, 4, 64, 0
6, 6122, Note_on_c, 4, 62, 94
6, 6122, Control_c, 4, 11, 87
6, 6137, Control_c, 4, 11, 86
6, 6152, Control_c, 4, 11, 85
6, 6167, Control_c, 4, 11, 84
6, 6182, Control_c, 4, 11, 83
6, 6197, Control_c, 4, 11, 82
6, 6212, Control_c, 4, 11, 81
6, 6227, Control_c, 4, 11, 80
6, 6242, Control_c, 4, 11, 79
6, 6257, Control_c, 4, 11, 78
6, 6272, Control_c, 4, 11, 77
6, 6287, Control_c, 4, 11, 76
6, 6302, Control_c, 4, 11, 75
6, 6317, Control_c, 4, 11, 74
6, 6332, Control_c, 4, 11, 73
6, 6347, Control_c, 4, 11, 72
6, 6362, Control_c, 4, 11, 71
6, 6377, Control_c, 4, 11, 70
6, 6392, Control_c, 4, 11, 69
6, 6407, Control_c, 4, 11, 68
6, 6422, Control_c, 4, 11, 67
6, 6430, Control_c, 4, 11, 64
6, 6439, Control_c, 4, 11, 61
6, 6448, Control_c, 4, 11, 58
6, 6457, Control_c, 4, 11, 55
6, 6466, Control_c, 4, 11, 52
6, 6475, Control_c, 4, 11, 49
6, 6482, Note_on_c, 4, 62, 0
6, 6842, Note_on_c, 4, 62, 94
6, 6842, Control_c, 4, 11, 87
6, 6857, Control_c, 4, 11, 86
6, 6872, Control_c, 4, 11, 85
6, 6887, Control_c, 4, 11, 84
6, 6902, Control_c, 4, 11, 83
6, 6917, Control_c, 4, 11, 82
6, 6932, Control_c, 4, 11, 81
6, 6947, Control_c, 4, 11, 80
6, 6962, Control_c, 4, 11, 79
6, 6977, Control_c, 4, 11, 78
6, 6992, Control_c, 4, 11, 77
6, 7007, Control_c, 4, 11, 76
6, 7022, Control_c, 4, 11, 75
6, 7037, Control_c, 4, 11, 74
6, 7052, Control_c, 4, 11, 73
6, 7067, Control_c, 4, 11, 72
6, 7082, Control_c, 4, 11, 71
6, 7097, Control_c, 4, 11, 70
6, 7112, Control_c, 4, 11, 69
6, 7127, Control_c, 4, 11, 68
6, 7142, Control_c, 4, 11, 67
6, 7150, Control_c, 4, 11, 64
6, 7159, Control_c, 4, 11, 61
6, 7168, Control_c, 4, 11, 58
6, 7177, Control_c, 4, 11, 55
6, 7186, Control_c, 4, 11, 52
6, 7195, Control_c, 4, 11, 49
6, 7202, Note_on_c, 4, 62, 0
6, 7562, Note_on_c, 4, 64, 94
6, 7562, Control_c, 4, 11, 47
6, 7622, Note_on_c, 4, 64, 0
6, 7682, Note_on_c, 4, 66, 94
6, 7742, Note_on_c, 4, 66, 0
6, 7802, Note_on_c, 4, 67, 94
6, 7862, Note_on_c, 4, 67, 0
6, 8282, Note_on_c, 4, 66, 94
6, 8342, Note_on_c, 4, 66, 0
6, 8402, Note_on_c, 4, 64, 94
6, 8462, Note_on_c, 4, 64, 0
6, 8522, Note_on_c, 4, 62, 94
6, 8582, Note_on_c, 4, 62, 0
6, 9002, Note_on_c, 4, 62, 94
6, 9002, Control_c, 4, 11, 87
6, 9017, Control_c, 4, 11, 86
6, 9032, Control_c, 4, 11, 85
6, 9047, Control_c, 4, 11, 84
6, 9062, Control_c, 4, 11, 83
6, 9077, Control_c, 4, 11, 82
6, 9092, Control_c, 4, 11, 81
6, 9107, Control_c, 4, 11, 80
6, 9122, Control_c, 4, 11, 79
6, 9137, Control_c, 4, 11, 78
6, 9152, Control_c, 4, 11, 77
6, 9167, Control_c, 4, 11, 76
6, 9182, Control_c, 4, 11, 75
6, 9197, Control_c, 4, 11, 74
6, 9212, Control_c, 4, 11, 73
6, 9227, Control_c, 4, 11, 72
6, 9242, Control_c, 4, 11, 71
6, 9257, Control_c, 4, 11, 70
6, 9272, Control_c, 4, 11, 69
6, 9287, Control_c, 4, 11, 68
6, 9302, Control_c, 4, 11, 67
6, 9310, Control_c, 4, 11, 64
6, 9319, Control_c, 4, 11, 61
6, 9328, Control_c, 4, 11, 58
6, 9337, Control_c, 4, 11, 55
6, 9346, Control_c, 4, 11, 52
6, 9355, Control_c, 4, 11, 49
6, 9362, Note_on_c, 4, 62, 0
6, 9722, Note_on_c, 4, 62, 94
6, 9722, Control_c, 4, 11, 87
6, 9737, Control_c, 4, 11, 86
6, 9752, Control_c, 4, 11, 85
6, 9767, Control_c, 4, 11, 84
6, 9782, Control_c, 4, 11, 83
6, 9797, Control_c, 4, 11, 82
6, 9812, Control_c, 4, 11, 81
6, 9827, Control_c, 4, 11, 80
6, 9842, Control_c, 4, 11, 79
6, 9857, Control_c, 4, 11, 78
6, 9872, Control_c, 4, 11, 77
6, 9887, Control_c, 4, 11, 76
6, 9902, Control_c, 4, 11, 75
6, 9917, Control_c, 4, 11, 74
6, 9932, Control_c, 4, 11, 73
6, 9947, Control_c, 4, 11, 72
6, 9962, Control_c, 4, 11, 71
6, 9977, Control_c, 4, 11, 70
6, 9992, Control_c, 4, 11, 69
6, 10007, Control_c, 4, 11, 68
6, 10022, Control_c, 4, 11, 67
6, 10030, Control_c, 4, 11, 64
6, 10039, Control_c, 4, 11, 61
6, 10048, Control_c, 4, 11, 58
6, 10057, Control_c, 4, 11, 55
6, 10066, Control_c, 4, 11, 52
6, 10075, Control_c, 4, 11, 49
6, 10082, Note_on_c, 4, 62, 0
6, 11162, Control_c, 4, 11, 47
6, 11162, Note_on_c, 4, 64, 94
6, 11222, Note_on_c, 4, 64, 0
6, 11282, Note_on_c, 4, 64, 94
6, 11342, Note_on_c, 4, 64, 0
6, 11402, Note_on_c, 4, 64, 94
6, 11462, Note_on_c, 4, 64, 0
6, 11522, Control_c, 4, 11, 102
6, 11522, Note_on_c, 4, 64, 94
6, 11582, Note_on_c, 4, 64, 0
6, 11642, Note_on_c, 4, 64, 94
6, 11702, Note_on_c, 4, 64, 0
6, 11762, Note_on_c, 4, 64, 94
6, 11822, Note_on_c, 4, 64, 0
6, 19802, Note_on_c, 4, 62, 100
6, 19802, Control_c, 4, 11, 87
6, 19817, Control_c, 4, 11, 86
6, 19832, Control_c, 4, 11, 85
6, 19847, Control_c, 4, 11, 84
6, 19862, Control_c, 4, 11, 83
6, 19877, Control_c, 4, 11, 82
6, 19892, Control_c, 4, 11, 81
6, 19907, Control_c, 4, 11, 80
6, 19922, Control_c, 4, 11, 79
6, 19937, Control_c, 4, 11, 78
6, 19952, Control_c, 4, 11, 77
6, 19967, Control_c, 4, 11, 76
6, 19982, Control_c, 4, 11, 75
6, 19997, Control_c, 4, 11, 74
6, 20012, Control_c, 4, 11, 73
6, 20027, Control_c, 4, 11, 72
6, 20042, Control_c, 4, 11, 71
6, 20057, Control_c, 4, 11, 70
6, 20072, Control_c, 4, 11, 69
6, 20087, Control_c, 4, 11, 68
6, 20102, Control_c, 4, 11, 67
6, 20110, Control_c, 4, 11, 64
6, 20119, Control_c, 4, 11, 61
6, 20128, Control_c, 4, 11, 58
6, 20137, Control_c, 4, 11, 55
6, 20146, Control_c, 4, 11, 52
6, 20155, Control_c, 4, 11, 49
6, 20162, Note_on_c, 4, 62, 0
6, 20522, Note_on_c, 4, 62, 100
6, 20522, Control_c, 4, 11, 87
6, 20537, Control_c, 4, 11, 86
6, 20552, Control_c, 4, 11, 85
6, 20567, Control_c, 4, 11, 84
6, 20582, Control_c, 4, 11, 83
6, 20597, Control_c, 4, 11, 82
6, 20612, Control_c, 4, 11, 81
6, 20627, Control_c, 4, 11, 80
6, 20642, Control_c, 4, 11, 79
6, 20657, Control_c, 4, 11, 78
6, 20672, Control_c, 4, 11, 77
6, 20687, Control_c, 4, 11, 76
6, 20702, Control_c, 4, 11, 75
6, 20717, Control_c, 4, 11, 74
6, 20732, Control_c, 4, 11, 73
6, 20747, Control_c, 4, 11, 72
6, 20762, Control_c, 4, 11, 71
6, 20777, Control_c, 4, 11, 70
6, 20792, Control_c, 4, 11, 69
6, 20807, Control_c, 4, 11, 68
6, 20822, Control_c, 4, 11, 67
6, 20830, Control_c, 4, 11, 64
6, 20839, Control_c, 4, 11, 61
6, 20848, Control_c, 4, 11, 58
6, 20857, Control_c, 4, 11, 55
6, 20866, Control_c, 4, 11, 52
6, 20875, Control_c, 4, 11, 49
6, 20882, Note_on_c, 4, 62, 0
6, 21242, Control_c, 4, 11, 47
6, 21242, Note_on_c, 4, 64, 100
6, 21302, Note_on_c, 4, 64, 0
6, 21362, Note_on_c, 4, 66, 100
6, 21422, Note_on_c, 4, 66, 0
6, 21482, Note_on_c, 4, 67, 100
6, 21542, Note_on_c, 4, 67, 0
6, 21962, Note_on_c, 4, 66, 100
6, 22022, Note_on_c, 4, 66, 0
6, 22082, Note_on_c, 4, 64, 100
6, 22142, Note_on_c, 4, 64, 0
6, 22202, Note_on_c, 4, 62, 100
6, 22262, Note_on_c, 4, 62, 0
6, 22682, Note_on_c, 4, 62, 100
6, 22682, Control_c, 4, 11, 87
6, 22697, Control_c, 4, 11, 86
6, 22712, Control_c, 4, 11, 85
6, 22727, Control_c, 4, 11, 84
6, 22742, Control_c, 4, 11, 83
6, 22757, Control_c, 4, 11, 82
6, 22772, Control_c, 4, 11, 81
6, 22787, Control_c, 4, 11, 80
6, 22802, Control_c, 4, 11, 79
6, 22817, Control_c, 4, 11, 78
6, 22832, Control_c, 4, 11, 77
6, 22847, Control_c, 4, 11, 76
6, 22862, Control_c, 4, 11, 75
6, 22877, Control_c, 4, 11, 74
6, 22892, Control_c, 4, 11, 73
6, 22907, Control_c, 4, 11, 72
6, 22922, Control_c, 4, 11, 71
6, 22937, Control_c, 4, 11, 70
6, 22952, Control_c, 4, 11, 69
6, 22967, Control_c, 4, 11, 68
6, 22982, Control_c, 4, 11, 67
6, 22990, Control_c, 4, 11, 64
6, 22999, Control_c, 4, 11, 61
6, 23008, Control_c, 4, 11, 58
6, 23017, Control_c, 4, 11, 55
6, 23026, Control_c, 4, 11, 52
6, 23035, Control_c, 4, 11, 49
6, 23042, Note_on_c, 4, 62, 0
6, 23402, Note_on_c, 4, 62, 100
6, 23402, Control_c, 4, 11, 87
6, 23417, Control_c, 4, 11, 86
6, 23432, Control_c, 4, 11, 85
6, 23447, Control_c, 4, 11, 84
6, 23462, Control_c, 4, 11, 83
6, 23477, Control_c, 4, 11, 82
6, 23492, Control_c, 4, 11, 81
6, 23507, Control_c, 4, 11, 80
6, 23522, Control_c, 4, 11, 79
6, 23537, Control_c, 4, 11, 78
6, 23552, Control_c, 4, 11, 77
6, 23567, Control_c, 4, 11, 76
6, 23582, Control_c, 4, 11, 75
6, 23597, Control_c, 4, 11, 74
6, 23612, Control_c, 4, 11, 73
6, 23627, Control_c, 4, 11, 72
6, 23642, Control_c, 4, 11, 71
6, 23657, Control_c, 4, 11, 70
6, 23672, Control_c, 4, 11, 69
6, 23687, Control_c, 4, 11, 68
6, 23702, Control_c, 4, 11, 67
6, 23710, Control_c, 4, 11, 64
6, 23719, Control_c, 4, 11, 61
6, 23728, Control_c, 4, 11, 58
6, 23737, Control_c, 4, 11, 55
6, 23746, Control_c, 4, 11, 52
6, 23755, Control_c, 4, 11, 49
6, 23762, Note_on_c, 4, 62, 0
6, 28442, Note_on_c, 4, 62, 100
6, 28442, Control_c, 4, 11, 47
6, 28460, Control_c, 4, 11, 48
6, 28478, Control_c, 4, 11, 49
6, 28496, Control_c, 4, 11, 50
6, 28514, Control_c, 4, 11, 51
6, 28532, Control_c, 4, 11, 52
6, 28550, Control_c, 4, 11, 53
6, 28568, Control_c, 4, 11, 54
6, 28586, Control_c, 4, 11, 55
6, 28604, Control_c, 4, 11, 56
6, 28622, Control_c, 4, 11, 57
6, 28640, Control_c, 4, 11, 58
6, 28658, Control_c, 4, 11, 59
6, 28676, Control_c, 4, 11, 60
6, 28694, Control_c, 4, 11, 61
6, 28712, Control_c, 4, 11, 62
6, 28730, Control_c, 4, 11, 63
6, 28748, Control_c, 4, 11, 64
6, 28766, Control_c, 4, 11, 65
6, 28784, Control_c, 4, 11, 66
6, 28802, Control_c, 4, 11, 67
6, 28820, Control_c, 4, 11, 68
6, 28838, Control_c, 4, 11, 69
6, 28856, Control_c, 4, 11, 70
6, 28874, Control_c, 4, 11, 71
6, 28892, Control_c, 4, 11, 72
6, 28910, Control_c, 4, 11, 73
6, 28928, Control_c, 4, 11, 74
6, 28946, Control_c, 4, 11, 75
6, 28964, Control_c, 4, 11, 76
6, 28982, Control_c, 4, 11, 77
6, 29000, Control_c, 4, 11, 78
6, 29018, Control_c, 4, 11, 79
6, 29036, Control_c, 4, 11, 80
6, 29054, Control_c, 4, 11, 81
6, 29072, Control_c, 4, 11, 82
6, 29090, Control_c, 4, 11, 83
6, 29108, Control_c, 4, 11, 84
6, 29126, Control_c, 4, 11, 85
6, 29144, Control_c, 4, 11, 86
6, 29162, Note_on_c, 4, 62, 0
6, 29162, Note_on_c, 4, 57, 100
6, 29162, Control_c, 4, 11, 87
6, 29512, Note_on_c, 4, 57, 0
6, 29522, Note_on_c, 4, 62, 100
6, 29642, Note_on_c, 4, 62, 0
6, 31322, Note_on_c, 4, 62, 100
6, 31322, Control_c, 4, 11, 47
6, 31340, Control_c, 4, 11, 48
6, 31358, Control_c, 4, 11, 49
6, 31376, Control_c, 4, 11, 50
6, 31394, Control_c, 4, 11, 51
6, 31412, Control_c, 4, 11, 52
6, 31430, Control_c, 4, 11, 53
6, 31448, Control_c, 4, 11, 54
6, 31466, Control_c, 4, 11, 55
6, 31484, Control_c, 4, 11, 56
6, 31502, Control_c, 4, 11, 57
6, 31520, Control_c, 4, 11, 58
6, 31538, Control_c, 4, 11, 59
6, 31556, Control_c, 4, 11, 60
6, 31574, Control_c, 4, 11, 61
6, 31592, Control_c, 4, 11, 62
6, 31610, Control_c, 4, 11, 63
6, 31628, Control_c, 4, 11, 64
6, 31646, Control_c, 4, 11, 65
6, 31664, Control_c, 4, 11, 66
6, 31682, Control_c, 4, 11, 67
6, 31700, Control_c, 4, 11, 68
6, 31718, Control_c, 4, 11, 69
6, 31736, Control_c, 4, 11, 70
6, 31754, Control_c, 4, 11, 71
6, 31772, Control_c, 4, 11, 72
6, 31790, Control_c, 4, 11, 73
6, 31808, Control_c, 4, 11, 74
6, 31826, Control_c, 4, 11, 75
6, 31844, Control_c, 4, 11, 76
6, 31862, Control_c, 4, 11, 77
6, 31880, Control_c, 4, 11, 78
6, 31898, Control_c, 4, 11, 79
6, 31916, Control_c, 4, 11, 80
6, 31934, Control_c, 4, 11, 81
6, 31952, Control_c, 4, 11, 82
6, 31970, Control_c, 4, 11, 83
6, 31988, Control_c, 4, 11, 84
6, 32006, Control_c, 4, 11, 85
6, 32024, Control_c, 4, 11, 86
6, 32042, Note_on_c, 4, 62, 0
6, 32042, Note_on_c, 4, 57, 100
6, 32042, Control_c, 4, 11, 87
6, 32392, Note_on_c, 4, 57, 0
6, 32402, Note_on_c, 4, 62, 100
6, 32522, Note_on_c, 4, 62, 0
6, 32762, Control_c, 4, 11, 47
6, 32762, Note_on_c, 4, 62, 100
6, 32780, Control_c, 4, 11, 48
6, 32798, Control_c, 4, 11, 49
6, 32816, Control_c, 4, 11, 50
6, 32834, Control_c, 4, 11, 51
6, 32852, Control_c, 4, 11, 52
6, 32870, Control_c, 4, 11, 53
6, 32888, Control_c, 4, 11, 54
6, 32906, Control_c, 4, 11, 55
6, 32924, Control_c, 4, 11, 56
6, 32942, Control_c, 4, 11, 57
6, 32960, Control_c, 4, 11, 58
6, 32978, Control_c, 4, 11, 59
6, 32996, Control_c, 4, 11, 60
6, 33014, Control_c, 4, 11, 61
6, 33032, Control_c, 4, 11, 62
6, 33050, Control_c, 4, 11, 63
6, 33068, Control_c, 4, 11, 64
6, 33086, Control_c, 4, 11, 65
6, 33104, Control_c, 4, 11, 66
6, 33122, Control_c, 4, 11, 67
6, 33140, Control_c, 4, 11, 68
6, 33158, Control_c, 4, 11, 69
6, 33176, Control_c, 4, 11, 70
6, 33194, Control_c, 4, 11, 71
6, 33212, Control_c, 4, 11, 72
6, 33230, Control_c, 4, 11, 73
6, 33248, Control_c, 4, 11, 74
6, 33266, Control_c, 4, 11, 75
6, 33284, Control_c, 4, 11, 76
6, 33302, Control_c, 4, 11, 77
6, 33320, Control_c, 4, 11, 78
6, 33338, Control_c, 4, 11, 79
6, 33356, Control_c, 4, 11, 80
6, 33374, Control_c, 4, 11, 81
6, 33392, Control_c, 4, 11, 82
6, 33410, Control_c, 4, 11, 83
6, 33428, Control_c, 4, 11, 84
6, 33446, Control_c, 4, 11, 85
6, 33464, Control_c, 4, 11, 86
6, 33482, Note_on_c, 4, 62, 0
6, 33482, Note_on_c, 4, 57, 100
6, 33482, Control_c, 4, 11, 107
6, 33500, Control_c, 4, 11, 104
6, 33518, Control_c, 4, 11, 101
6, 33536, Control_c, 4, 11, 98
6, 33554, Control_c, 4, 11, 95
6, 33572, Control_c, 4, 11, 92
6, 33590, Control_c, 4, 11, 89
6, 33832, Note_on_c, 4, 57, 0
6, 33842, Note_on_c, 4, 62, 100
6, 33952, Note_on_c, 4, 62, 0
6, 33962, Note_on_c, 4, 66, 100
6, 34072, Note_on_c, 4, 66, 0
6, 34082, Note_on_c, 4, 62, 100
6, 34192, Note_on_c, 4, 62, 0
6, 34202, Control_c, 4, 11, 107
6, 34202, Note_on_c, 4, 57, 100
6, 34220, Control_c, 4, 11, 104
6, 34238, Control_c, 4, 11, 101
6, 34256, Control_c, 4, 11, 98
6, 34274, Control_c, 4, 11, 95
6, 34292, Control_c, 4, 11, 92
6, 34310, Control_c, 4, 11, 89
6, 34552, Note_on_c, 4, 57, 0
6, 34562, Note_on_c, 4, 62, 100
6, 34672, Note_on_c, 4, 62, 0
6, 34682, Note_on_c, 4, 66, 100
6, 34792, Note_on_c, 4, 66, 0
6, 34802, Note_on_c, 4, 62, 100
6, 34912, Note_on_c, 4, 62, 0
6, 34922, Control_c, 4, 11, 107
6, 34922, Note_on_c, 4, 57, 100
6, 34940, Control_c, 4, 11, 104
6, 34958, Control_c, 4, 11, 101
6, 34976, Control_c, 4, 11, 98
6, 34994, Control_c, 4, 11, 95
6, 35012, Control_c, 4, 11, 92
6, 35030, Control_c, 4, 11, 89
6, 35392, Note_on_c, 4, 57, 0
6, 35402, Note_on_c, 4, 64, 100
6, 35512, Note_on_c, 4, 64, 0
6, 35522, Note_on_c, 4, 64, 100
6, 35632, Note_on_c, 4, 64, 0
6, 35642, Note_on_c, 4, 62, 100
6, 35762, Note_on_c, 4, 62, 0
6, 35882, Note_on_c, 4, 64, 100
6, 35942, Note_on_c, 4, 64, 0
6, 36002, Note_on_c, 4, 62, 100
6, 36062, Note_on_c, 4, 62, 0
6, 44282, Note_on_c, 4, 62, 100
6, 44282, Control_c, 4, 11, 87
6, 44297, Control_c, 4, 11, 86
6, 44312, Control_c, 4, 11, 85
6, 44327, Control_c, 4, 11, 84
6, 44342, Control_c, 4, 11, 83
6, 44357, Control_c, 4, 11, 82
6, 44372, Control_c, 4, 11, 81
6, 44387, Control_c, 4, 11, 80
6, 44402, Control_c, 4, 11, 79
6, 44417, Control_c, 4, 11, 78
6, 44432, Control_c, 4, 11, 77
6, 44447, Control_c, 4, 11, 76
6, 44462, Control_c, 4, 11, 75
6, 44477, Control_c, 4, 11, 74
6, 44492, Control_c, 4, 11, 73
6, 44507, Control_c, 4, 11, 72
6, 44522, Control_c, 4, 11, 71
6, 44537, Control_c, 4, 11, 70
6, 44552, Control_c, 4, 11, 69
6, 44567, Control_c, 4, 11, 68
6, 44582, Control_c, 4, 11, 67
6, 44590, Control_c, 4, 11, 64
6, 44599, Control_c, 4, 11, 61
6, 44608, Control_c, 4, 11, 58
6, 44617, Control_c, 4, 11, 55
6, 44626, Control_c, 4, 11, 52
6, 44635, Control_c, 4, 11, 49
6, 44642, Note_on_c, 4, 62, 0
6, 45002, Note_on_c, 4, 62, 100
6, 45002, Control_c, 4, 11, 87
6, 45017, Control_c, 4, 11, 86
6, 45032, Control_c, 4, 11, 85
6, 45047, Control_c, 4, 11, 84
6, 45062, Control_c, 4, 11, 83
6, 45077, Control_c, 4, 11, 82
6, 45092, Control_c, 4, 11, 81
6, 45107, Control_c, 4, 11, 80
6, 45122, Control_c, 4, 11, 79
6, 45137, Control_c, 4, 11, 78
6, 45152, Control_c, 4, 11, 77
6, 45167, Control_c, 4, 11, 76
6, 45182, Control_c, 4, 11, 75
6, 45197, Control_c, 4, 11, 74
6, 45212, Control_c, 4, 11, 73
6, 45227, Control_c, 4, 11, 72
6, 45242, Control_c, 4, 11, 71
6, 45257, Control_c, 4, 11, 70
6, 45272, Control_c, 4, 11, 69
6, 45287, Control_c, 4, 11, 68
6, 45302, Control_c, 4, 11, 67
6, 45310, Control_c, 4, 11, 64
6, 45319, Control_c, 4, 11, 61
6, 45328, Control_c, 4, 11, 58
6, 45337, Control_c, 4, 11, 55
6, 45346, Control_c, 4, 11, 52
6, 45355, Control_c, 4, 11, 49
6, 45362, Note_on_c, 4, 62, 0
6, 45722, Control_c, 4, 11, 47
6, 45722, Note_on_c, 4, 64, 100
6, 45782, Note_on_c, 4, 64, 0
6, 45842, Note_on_c, 4, 66, 100
6, 45902, Note_on_c, 4, 66, 0
6, 45962, Note_on_c, 4, 67, 100
6, 46022, Note_on_c, 4, 67, 0
6, 46442, Note_on_c, 4, 66, 100
6, 46502, Note_on_c, 4, 66, 0
6, 46562, Note_on_c, 4, 64, 100
6, 46622, Note_on_c, 4, 64, 0
6, 46682, Note_on_c, 4, 62, 100
6, 46742, Note_on_c, 4, 62, 0
6, 47162, Note_on_c, 4, 62, 100
6, 47162, Control_c, 4, 11, 87
6, 47177, Control_c, 4, 11, 86
6, 47192, Control_c, 4, 11, 85
6, 47207, Control_c, 4, 11, 84
6, 47222, Control_c, 4, 11, 83
6, 47237, Control_c, 4, 11, 82
6, 47252, Control_c, 4, 11, 81
6, 47267, Control_c, 4, 11, 80
6, 47282, Control_c, 4, 11, 79
6, 47297, Control_c, 4, 11, 78
6, 47312, Control_c, 4, 11, 77
6, 47327, Control_c, 4, 11, 76
6, 47342, Control_c, 4, 11, 75
6, 47357, Control_c, 4, 11, 74
6, 47372, Control_c, 4, 11, 73
6, 47387, Control_c, 4, 11, 72
6, 47402, Control_c, 4, 11, 71
6, 47417, Control_c, 4, 11, 70
6, 47432, Control_c, 4, 11, 69
6, 47447, Control_c, 4, 11, 68
6, 47462, Control_c, 4, 11, 67
6, 47470, Control_c, 4, 11, 64
6, 47479, Control_c, 4, 11, 61
6, 47488, Control_c, 4, 11, 58
6, 47497, Control_c, 4, 11, 55
6, 47506, Control_c, 4, 11, 52
6, 47515, Control_c, 4, 11, 49
6, 47522, Note_on_c, 4, 62, 0
6, 47882, Note_on_c, 4, 62, 100
6, 47882, Control_c, 4, 11, 87
6, 47897, Control_c, 4, 11, 86
6, 47912, Control_c, 4, 11, 85
6, 47927, Control_c, 4, 11, 84
6, 47942, Control_c, 4, 11, 83
6, 47957, Control_c, 4, 11, 82
6, 47972, Control_c, 4, 11, 81
6, 47987, Control_c, 4, 11, 80
6, 48002, Control_c, 4, 11, 79
6, 48017, Control_c, 4, 11, 78
6, 48032, Control_c, 4, 11, 77
6, 48047, Control_c, 4, 11, 76
6, 48062, Control_c, 4, 11, 75
6, 48077, Control_c, 4, 11, 74
6, 48092, Control_c, 4, 11, 73
6, 48107, Control_c, 4, 11, 72
6, 48122, Control_c, 4, 11, 71
6, 48137, Control_c, 4, 11, 70
6, 48152, Control_c, 4, 11, 69
6, 48167, Control_c, 4, 11, 68
6, 48182, Control_c, 4, 11, 67
6, 48190, Control_c, 4, 11, 64
6, 48199, Control_c, 4, 11, 61
6, 48208, Control_c, 4, 11, 58
6, 48217, Control_c, 4, 11, 55
6, 48226, Control_c, 4, 11, 52
6, 48235, Control_c, 4, 11, 49
6, 48242, Note_on_c, 4, 62, 0
6, 52922, Note_on_c, 4, 62, 100
6, 52922, Control_c, 4, 11, 47
6, 52940, Control_c, 4, 11, 48
6, 52958, Control_c, 4, 11, 49
6, 52976, Control_c, 4, 11, 50
6, 52994, Control_c, 4, 11, 51
6, 53012, Control_c, 4, 11, 52
6, 53030, Control_c, 4, 11, 53
6, 53048, Control_c, 4, 11, 54
6, 53066, Control_c, 4, 11, 55
6, 53084, Control_c, 4, 11, 56
6, 53102, Control_c, 4, 11, 57
6, 53120, Control_c, 4, 11, 58
6, 53138, Control_c, 4, 11, 59
6, 53156, Control_c, 4, 11, 60
6, 53174, Control_c, 4, 11, 61
6, 53192, Control_c, 4, 11, 62
6, 53210, Control_c, 4, 11, 63
6, 53228, Control_c, 4, 11, 64
6, 53246, Control_c, 4, 11, 65
6, 53264, Control_c, 4, 11, 66
6, 53282, Control_c, 4, 11, 67
6, 53300, Control_c, 4, 11, 68
6, 53318, Control_c, 4, 11, 69
6, 53336, Control_c, 4, 11, 70
6, 53354, Control_c, 4, 11, 71
6, 53372, Control_c, 4, 11, 72
6, 53390, Control_c, 4, 11, 73
6, 53408, Control_c, 4, 11, 74
6, 53426, Control_c, 4, 11, 75
6, 53444, Control_c, 4, 11, 76
6, 53462, Control_c, 4, 11, 77
6, 53480, Control_c, 4, 11, 78
6, 53498, Control_c, 4, 11, 79
6, 53516, Control_c, 4, 11, 80
6, 53534, Control_c, 4, 11, 81
6, 53552, Control_c, 4, 11, 82
6, 53570, Control_c, 4, 11, 83
6, 53588, Control_c, 4, 11, 84
6, 53606, Control_c, 4, 11, 85
6, 53624, Control_c, 4, 11, 86
6, 53642, Note_on_c, 4, 62, 0
6, 53642, Note_on_c, 4, 57, 100
6, 53642, Control_c, 4, 11, 87
6, 53992, Note_on_c, 4, 57, 0
6, 54002, Note_on_c, 4, 62, 100
6, 54122, Note_on_c, 4, 62, 0
6, 55802, Note_on_c, 4, 62, 100
6, 55802, Control_c, 4, 11, 47
6, 55820, Control_c, 4, 11, 48
6, 55838, Control_c, 4, 11, 49
6, 55856, Control_c, 4, 11, 50
6, 55874, Control_c, 4, 11, 51
6, 55892, Control_c, 4, 11, 52
6, 55910, Control_c, 4, 11, 53
6, 55928, Control_c, 4, 11, 54
6, 55946, Control_c, 4, 11, 55
6, 55964, Control_c, 4, 11, 56
6, 55982, Control_c, 4, 11, 57
6, 56000, Control_c, 4, 11, 58
6, 56018, Control_c, 4, 11, 59
6, 56036, Control_c, 4, 11, 60
6, 56054, Control_c, 4, 11, 61
6, 56072, Control_c, 4, 11, 62
6, 56090, Control_c, 4, 11, 63
6, 56108, Control_c, 4, 11, 64
6, 56126, Control_c, 4, 11, 65
6, 56144, Control_c, 4, 11, 66
6, 56162, Control_c, 4, 11, 67
6, 56180, Control_c, 4, 11, 68
6, 56198, Control_c, 4, 11, 69
6, 56216, Control_c, 4, 11, 70
6, 56234, Control_c, 4, 11, 71
6, 56252, Control_c, 4, 11, 72
6, 56270, Control_c, 4, 11, 73
6, 56288, Control_c, 4, 11, 74
6, 56306, Control_c, 4, 11, 75
6, 56324, Control_c, 4, 11, 76
6, 56342, Control_c, 4, 11, 77
6, 56360, Control_c, 4, 11, 78
6, 56378, Control_c, 4, 11, 79
6, 56396, Control_c, 4, 11, 80
6, 56414, Control_c, 4, 11, 81
6, 56432, Control_c, 4, 11, 82
6, 56450, Control_c, 4, 11, 83
6, 56468, Control_c, 4, 11, 84
6, 56486, Control_c, 4, 11, 85
6, 56504, Control_c, 4, 11, 86
6, 56522, Note_on_c, 4, 62, 0
6, 56522, Control_c, 4, 11, 87
6, 56522, Note_on_c, 4, 57, 100
6, 56872, Note_on_c, 4, 57, 0
6, 56882, Note_on_c, 4, 62, 100
6, 57002, Note_on_c, 4, 62, 0
6, 57242, Note_on_c, 4, 62, 100
6, 57242, Control_c, 4, 11, 47
6, 57260, Control_c, 4, 11, 48
6, 57278, Control_c, 4, 11, 49
6, 57296, Control_c, 4, 11, 50
6, 57314, Control_c, 4, 11, 51
6, 57332, Control_c, 4, 11, 52
6, 57350, Control_c, 4, 11, 53
6, 57368, Control_c, 4, 11, 54
6, 57386, Control_c, 4, 11, 55
6, 57404, Control_c, 4, 11, 56
6, 57422, Control_c, 4, 11, 57
6, 57440, Control_c, 4, 11, 58
6, 57458, Control_c, 4, 11, 59
6, 57476, Control_c, 4, 11, 60
6, 57494, Control_c, 4, 11, 61
6, 57512, Control_c, 4, 11, 62
6, 57530, Control_c, 4, 11, 63
6, 57548, Control_c, 4, 11, 64
6, 57566, Control_c, 4, 11, 65
6, 57584, Control_c, 4, 11, 66
6, 57602, Control_c, 4, 11, 67
6, 57620, Control_c, 4, 11, 68
6, 57638, Control_c, 4, 11, 69
6, 57656, Control_c, 4, 11, 70
6, 57674, Control_c, 4, 11, 71
6, 57692, Control_c, 4, 11, 72
6, 57710, Control_c, 4, 11, 73
6, 57728, Control_c, 4, 11, 74
6, 57746, Control_c, 4, 11, 75
6, 57764, Control_c, 4, 11, 76
6, 57782, Control_c, 4, 11, 77
6, 57800, Control_c, 4, 11, 78
6, 57818, Control_c, 4, 11, 79
6, 57836, Control_c, 4, 11, 80
6, 57854, Control_c, 4, 11, 81
6, 57872, Control_c, 4, 11, 82
6, 57890, Control_c, 4, 11, 83
6, 57908, Control_c, 4, 11, 84
6, 57926, Control_c, 4, 11, 85
6, 57944, Control_c, 4, 11, 86
6, 57962, Note_on_c, 4, 62, 0
6, 57962, Note_on_c, 4, 57, 100
6, 57962, Control_c, 4, 11, 107
6, 57980, Control_c, 4, 11, 104
6, 57998, Control_c, 4, 11, 101
6, 58016, Control_c, 4, 11, 98
6, 58034, Control_c, 4, 11, 95
6, 58052, Control_c, 4, 11, 92
6, 58070, Control_c, 4, 11, 89
6, 58312, Note_on_c, 4, 57, 0
6, 58322, Note_on_c, 4, 62, 100
6, 58432, Note_on_c, 4, 62, 0
6, 58442, Note_on_c, 4, 66, 100
6, 58552, Note_on_c, 4, 66, 0
6, 58562, Note_on_c, 4, 62, 100
6, 58672, Note_on_c, 4, 62, 0
6, 58682, Note_on_c, 4, 57, 100
6, 58682, Control_c, 4, 11, 107
6, 58700, Control_c, 4, 11, 104
6, 58718, Control_c, 4, 11, 101
6, 58736, Control_c, 4, 11, 98
6, 58754, Control_c, 4, 11, 95
6, 58772, Control_c, 4, 11, 92
6, 58790, Control_c, 4, 11, 89
6, 59032, Note_on_c, 4, 57, 0
6, 59042, Note_on_c, 4, 62, 100
6, 59152, Note_on_c, 4, 62, 0
6, 59162, Note_on_c, 4, 66, 100
6, 59272, Note_on_c, 4, 66, 0
6, 59282, Note_on_c, 4, 62, 100
6, 59392, Note_on_c, 4, 62, 0
6, 59402, Control_c, 4, 11, 107
6, 59402, Note_on_c, 4, 57, 100
6, 59420, Control_c, 4, 11, 104
6, 59438, Control_c, 4, 11, 101
6, 59456, Control_c, 4, 11, 98
6, 59474, Control_c, 4, 11, 95
6, 59492, Control_c, 4, 11, 92
6, 59510, Control_c, 4, 11, 89
6, 59872, Note_on_c, 4, 57, 0
6, 59882, Note_on_c, 4, 64, 100
6, 59992, Note_on_c, 4, 64, 0
6, 60002, Note_on_c, 4, 64, 100
6, 60112, Note_on_c, 4, 64, 0
6, 60122, Note_on_c, 4, 62, 100
6, 60242, Note_on_c, 4, 62, 0
6, 60362, Note_on_c, 4, 64, 100
6, 60422, Note_on_c, 4, 64, 0
6, 60482, Note_on_c, 4, 62, 100
6, 60542, Note_on_c, 4, 62, 0
6, 62642, Control_c, 4, 11, 69
6, 62642, Note_on_c, 4, 64, 100
6, 62656, Control_c, 4, 11, 72
6, 62670, Control_c, 4, 11, 75
6, 62685, Control_c, 4, 11, 78
6, 62702, Control_c, 4, 11, 77
6, 62720, Control_c, 4, 11, 74
6, 62738, Control_c, 4, 11, 71
6, 62756, Control_c, 4, 11, 68
6, 62774, Control_c, 4, 11, 66
6, 62798, Control_c, 4, 11, 64
6, 62822, Control_c, 4, 11, 62
6, 62846, Control_c, 4, 11, 60
6, 62870, Control_c, 4, 11, 58
6, 62894, Control_c, 4, 11, 56
6, 62918, Control_c, 4, 11, 54
6, 62942, Control_c, 4, 11, 52
6, 62966, Control_c, 4, 11, 50
6, 62982, Note_on_c, 4, 64, 0
6, 62990, Control_c, 4, 11, 48
6, 63002, Note_on_c, 4, 66, 100
6, 63122, Note_on_c, 4, 66, 0
6, 63122, Note_on_c, 4, 67, 100
6, 63222, Note_on_c, 4, 67, 0
6, 63242, Note_on_c, 4, 64, 100
6, 63302, Note_on_c, 4, 64, 0
6, 63362, Note_on_c, 4, 62, 100
6, 63482, Note_on_c, 4, 62, 0
6, 65522, Note_on_c, 4, 64, 100
6, 65522, Control_c, 4, 11, 69
6, 65536, Control_c, 4, 11, 72
6, 65550, Control_c, 4, 11, 75
6, 65565, Control_c, 4, 11, 78
6, 65582, Control_c, 4, 11, 77
6, 65600, Control_c, 4, 11, 74
6, 65618, Control_c, 4, 11, 71
6, 65636, Control_c, 4, 11, 68
6, 65654, Control_c, 4, 11, 66
6, 65678, Control_c, 4, 11, 64
6, 65702, Control_c, 4, 11, 62
6, 65726, Control_c, 4, 11, 60
6, 65750, Control_c, 4, 11, 58
6, 65774, Control_c, 4, 11, 56
6, 65798, Control_c, 4, 11, 54
6, 65822, Control_c, 4, 11, 52
6, 65846, Control_c, 4, 11, 50
6, 65862, Note_on_c, 4, 64, 0
6, 65870, Control_c, 4, 11, 48
6, 65882, Note_on_c, 4, 66, 100
6, 66002, Note_on_c, 4, 66, 0
6, 66002, Note_on_c, 4, 67, 100
6, 66102, Note_on_c, 4, 67, 0
6, 66122, Note_on_c, 4, 64, 100
6, 66182, Note_on_c, 4, 64, 0
6, 66242, Note_on_c, 4, 62, 100
6, 66362, Note_on_c, 4, 62, 0
6, 71642, Note_on_c, 4, 69, 100
6, 71642, Control_c, 4, 11, 102
6, 72362, Note_on_c, 4, 69, 0
6, 72362, Control_c, 4, 11, 87
6, 72362, Note_on_c, 4, 66, 100
6, 72371, Control_c, 4, 11, 84
6, 72380, Control_c, 4, 11, 81
6, 72389, Control_c, 4, 11, 78
6, 72398, Control_c, 4, 11, 75
6, 72407, Control_c, 4, 11, 72
6, 72416, Control_c, 4, 11, 69
6, 72425, Control_c, 4, 11, 66
6, 72434, Control_c, 4, 11, 63
6, 72443, Control_c, 4, 11, 60
6, 72452, Control_c, 4, 11, 57
6, 72461, Control_c, 4, 11, 54
6, 72470, Control_c, 4, 11, 51
6, 72479, Control_c, 4, 11, 48
6, 72482, Note_on_c, 4, 66, 0
6, 73082, Note_on_c, 4, 69, 100
6, 73202, Note_on_c, 4, 69, 0
6, 73202, Note_on_c, 4, 69, 100
6, 73322, Note_on_c, 4, 69, 0
6, 73322, Note_on_c, 4, 69, 100
6, 73442, Note_on_c, 4, 69, 0
6, 73442, Note_on_c, 4, 69, 100
6, 73562, Note_on_c, 4, 69, 0
6, 74162, Control_c, 4, 11, 69
6, 74162, Note_on_c, 4, 64, 100
6, 74176, Control_c, 4, 11, 72
6, 74190, Control_c, 4, 11, 75
6, 74205, Control_c, 4, 11, 78
6, 74222, Control_c, 4, 11, 77
6, 74240, Control_c, 4, 11, 74
6, 74258, Control_c, 4, 11, 71
6, 74276, Control_c, 4, 11, 68
6, 74294, Control_c, 4, 11, 66
6, 74318, Control_c, 4, 11, 64
6, 74342, Control_c, 4, 11, 62
6, 74366, Control_c, 4, 11, 60
6, 74390, Control_c, 4, 11, 58
6, 74414, Control_c, 4, 11, 56
6, 74438, Control_c, 4, 11, 54
6, 74462, Control_c, 4, 11, 52
6, 74486, Control_c, 4, 11, 50
6, 74510, Control_c, 4, 11, 48
6, 74522, Note_on_c, 4, 64, 0
6, 74522, Note_on_c, 4, 66, 100
6, 74642, Note_on_c, 4, 66, 0
6, 74642, Note_on_c, 4, 67, 100
6, 74762, Note_on_c, 4, 67, 0
6, 74762, Note_on_c, 4, 64, 100
6, 74822, Note_on_c, 4, 64, 0
6, 74882, Note_on_c, 4, 62, 100
6, 75002, Note_on_c, 4, 62, 0
6, 75242, Control_c, 4, 11, 47
6, 75242, Note_on_c, 4, 66, 115
6, 75289, Control_c, 4, 11, 48
6, 75337, Control_c, 4, 11, 49
6, 75385, Control_c, 4, 11, 50
6, 75433, Control_c, 4, 11, 51
6, 75481, Control_c, 4, 11, 52
6, 75529, Control_c, 4, 11, 53
6, 75577, Control_c, 4, 11, 54
6, 75602, Note_on_c, 4, 66, 0
6, 75602, Note_on_c, 4, 67, 115
6, 75625, Control_c, 4, 11, 55
6, 75673, Control_c, 4, 11, 56
6, 75721, Control_c, 4, 11, 57
6, 75769, Control_c, 4, 11, 58
6, 75817, Control_c, 4, 11, 59
6, 75865, Control_c, 4, 11, 60
6, 75913, Control_c, 4, 11, 61
6, 75961, Control_c, 4, 11, 62
6, 75962, Note_on_c, 4, 67, 0
6, 75962, Note_on_c, 4, 69, 115
6, 76082, Note_on_c, 4, 69, 0
6, 76082, Note_on_c, 4, 67, 115
6, 76202, Note_on_c, 4, 67, 0
6, 76202, Note_on_c, 4, 66, 115
6, 76262, Note_on_c, 4, 66, 0
6, 76322, Note_on_c, 4, 64, 115
6, 76442, Note_on_c, 4, 64, 0
6, 76562, Note_on_c, 4, 66, 115
6, 76682, Note_on_c, 4, 66, 0
6, 76682, Note_on_c, 4, 67, 115
6, 76682, Control_c, 4, 11, 62
6, 76706, Control_c, 4, 11, 63
6, 76730, Control_c, 4, 11, 64
6, 76754, Control_c, 4, 11, 65
6, 76778, Control_c, 4, 11, 66
6, 76802, Control_c, 4, 11, 67
6, 76826, Control_c, 4, 11, 68
6, 76850, Control_c, 4, 11, 69
6, 76874, Control_c, 4, 11, 70
6, 76898, Control_c, 4, 11, 71
6, 76922, Control_c, 4, 11, 72
6, 76946, Control_c, 4, 11, 73
6, 76970, Control_c, 4, 11, 74
6, 76994, Control_c, 4, 11, 75
6, 77018, Control_c, 4, 11, 76
6, 77042, Note_on_c, 4, 67, 0
6, 77042, Note_on_c, 4, 69, 115
6, 77042, Control_c, 4, 11, 79
6, 77056, Control_c, 4, 11, 82
6, 77070, Control_c, 4, 11, 85
6, 77085, Control_c, 4, 11, 88
6, 77102, Control_c, 4, 11, 87
6, 77120, Control_c, 4, 11, 84
6, 77138, Control_c, 4, 11, 81
6, 77156, Control_c, 4, 11, 78
6, 77174, Control_c, 4, 11, 76
6, 77198, Control_c, 4, 11, 74
6, 77222, Control_c, 4, 11, 72
6, 77246, Control_c, 4, 11, 70
6, 77270, Control_c, 4, 11, 68
6, 77294, Control_c, 4, 11, 66
6, 77318, Control_c, 4, 11, 64
6, 77342, Control_c, 4, 11, 62
6, 77366, Control_c, 4, 11, 60
6, 77390, Control_c, 4, 11, 58
6, 77402, Note_on_c, 4, 69, 0
6, 77402, Note_on_c, 4, 66, 115
6, 77522, Note_on_c, 4, 66, 0
6, 77522, Note_on_c, 4, 67, 115
6, 77642, Note_on_c, 4, 67, 0
6, 77642, Note_on_c, 4, 64, 115
6, 77702, Note_on_c, 4, 64, 0
6, 77762, Note_on_c, 4, 62, 115
6, 77882, Note_on_c, 4, 62, 0
6, 78002, Note_on_c, 4, 64, 100
6, 78062, Note_on_c, 4, 64, 0
6, 78122, Note_on_c, 4, 66, 100
6, 78242, Note_on_c, 4, 66, 0
6, 78242, Note_on_c, 4, 67, 100
6, 78362, Note_on_c, 4, 67, 0
6, 78362, Note_on_c, 4, 64, 100
6, 78422, Note_on_c, 4, 64, 0
6, 78482, Control_c, 4, 11, 57
6, 78482, Note_on_c, 4, 62, 100
6, 78554, Control_c, 4, 11, 58
6, 78602, Note_on_c, 4, 62, 0
6, 78626, Control_c, 4, 11, 59
6, 78698, Control_c, 4, 11, 60
6, 78722, Note_on_c, 4, 64, 100
6, 78770, Control_c, 4, 11, 61
6, 78782, Note_on_c, 4, 64, 0
6, 78842, Control_c, 4, 11, 62
6, 78842, Note_on_c, 4, 66, 100
6, 78914, Control_c, 4, 11, 63
6, 78962, Note_on_c, 4, 66, 0
6, 78962, Note_on_c, 4, 67, 100
6, 78986, Control_c, 4, 11, 64
6, 79058, Control_c, 4, 11, 65
6, 79082, Note_on_c, 4, 67, 0
6, 79082, Note_on_c, 4, 64, 100
6, 79130, Control_c, 4, 11, 66
6, 79142, Note_on_c, 4, 64, 0
6, 79202, Control_c, 4, 11, 67
6, 79202, Note_on_c, 4, 66, 100
6, 79322, Note_on_c, 4, 66, 0
6, 79322, Note_on_c, 4, 67, 100
6, 79442, Note_on_c, 4, 67, 0
6, 79442, Control_c, 4, 11, 47
6, 79442, Note_on_c, 4, 64, 100
6, 79502, Note_on_c, 4, 64, 0
6, 79562, Note_on_c, 4, 66, 100
6, 79682, Note_on_c, 4, 66, 0
6, 79682, Note_on_c, 4, 67, 100
6, 79802, Note_on_c, 4, 67, 0
6, 79802, Note_on_c, 4, 64, 100
6, 79862, Note_on_c, 4, 64, 0
6, 79922, Note_on_c, 4, 62, 100
6, 80042, Note_on_c, 4, 62, 0
6, 85322, Control_c, 4, 11, 102
6, 85322, Note_on_c, 4, 69, 100
6, 86042, Note_on_c, 4, 69, 0
6, 86042, Note_on_c, 4, 66, 100
6, 86042, Control_c, 4, 11, 87
6, 86051, Control_c, 4, 11, 84
6, 86060, Control_c, 4, 11, 81
6, 86069, Control_c, 4, 11, 78
6, 86078, Control_c, 4, 11, 75
6, 86087, Control_c, 4, 11, 72
6, 86096, Control_c, 4, 11, 69
6, 86105, Control_c, 4, 11, 66
6, 86114, Control_c, 4, 11, 63
6, 86123, Control_c, 4, 11, 60
6, 86132, Control_c, 4, 11, 57
6, 86141, Control_c, 4, 11, 54
6, 86150, Control_c, 4, 11, 51
6, 86159, Control_c, 4, 11, 48
6, 86162, Note_on_c, 4, 66, 0
6, 86762, Note_on_c, 4, 69, 100
6, 86882, Note_on_c, 4, 69, 0
6, 86882, Note_on_c, 4, 69, 100
6, 87002, Note_on_c, 4, 69, 0
6, 87002, Note_on_c, 4, 69, 100
6, 87122, Note_on_c, 4, 69, 0
6, 87122, Note_on_c, 4, 69, 100
6, 87242, Note_on_c, 4, 69, 0
6, 87842, Note_on_c, 4, 64, 100
6, 87842, Control_c, 4, 11, 69
6, 87856, Control_c, 4, 11, 72
6, 87870, Control_c, 4, 11, 75
6, 87885, Control_c, 4, 11, 78
6, 87902, Control_c, 4, 11, 77
6, 87920, Control_c, 4, 11, 74
6, 87938, Control_c, 4, 11, 71
6, 87956, Control_c, 4, 11, 68
6, 87974, Control_c, 4, 11, 66
6, 87998, Control_c, 4, 11, 64
6, 88022, Control_c, 4, 11, 62
6, 88046, Control_c, 4, 11, 60
6, 88070, Control_c, 4, 11, 58
6, 88094, Control_c, 4, 11, 56
6, 88118, Control_c, 4, 11, 54
6, 88142, Control_c, 4, 11, 52
6, 88166, Control_c, 4, 11, 50
6, 88190, Control_c, 4, 11, 48
6, 88202, Note_on_c, 4, 64, 0
6, 88202, Note_on_c, 4, 66, 100
6, 88322, Note_on_c, 4, 66, 0
6, 88322, Note_on_c, 4, 67, 100
6, 88442, Note_on_c, 4, 67, 0
6, 88442, Note_on_c, 4, 64, 100
6, 88502, Note_on_c, 4, 64, 0
6, 88562, Note_on_c, 4, 62, 100
6, 88682, Note_on_c, 4, 62, 0
6, 88922, Note_on_c, 4, 66, 115
6, 88922, Control_c, 4, 11, 47
6, 88969, Control_c, 4, 11, 48
6, 89017, Control_c, 4, 11, 49
6, 89065, Control_c, 4, 11, 50
6, 89113, Control_c, 4, 11, 51
6, 89161, Control_c, 4, 11, 52
6, 89209, Control_c, 4, 11, 53
6, 89257, Control_c, 4, 11, 54
6, 89282, Note_on_c, 4, 66, 0
6, 89282, Note_on_c, 4, 67, 115
6, 89305, Control_c, 4, 11, 55
6, 89353, Control_c, 4, 11, 56
6, 89401, Control_c, 4, 11, 57
6, 89449, Control_c, 4, 11, 58
6, 89497, Control_c, 4, 11, 59
6, 89545, Control_c, 4, 11, 60
6, 89593, Control_c, 4, 11, 61
6, 89641, Control_c, 4, 11, 62
6, 89642, Note_on_c, 4, 67, 0
6, 89642, Note_on_c, 4, 69, 115
6, 89762, Note_on_c, 4, 69, 0
6, 89762, Note_on_c, 4, 67, 115
6, 89882, Note_on_c, 4, 67, 0
6, 89882, Note_on_c, 4, 66, 115
6, 89942, Note_on_c, 4, 66, 0
6, 90002, Note_on_c, 4, 64, 115
6, 90122, Note_on_c, 4, 64, 0
6, 90242, Note_on_c, 4, 66, 115
6, 90362, Note_on_c, 4, 66, 0
6, 90362, Control_c, 4, 11, 62
6, 90362, Note_on_c, 4, 67, 115
6, 90386, Control_c, 4, 11, 63
6, 90410, Control_c, 4, 11, 64
6, 90434, Control_c, 4, 11, 65
6, 90458, Control_c, 4, 11, 66
6, 90482, Control_c, 4, 11, 67
6, 90506, Control_c, 4, 11, 68
6, 90530, Control_c, 4, 11, 69
6, 90554, Control_c, 4, 11, 70
6, 90578, Control_c, 4, 11, 71
6, 90602, Control_c, 4, 11, 72
6, 90626, Control_c, 4, 11, 73
6, 90650, Control_c, 4, 11, 74
6, 90674, Control_c, 4, 11, 75
6, 90698, Control_c, 4, 11, 76
6, 90722, Note_on_c, 4, 67, 0
6, 90722, Control_c, 4, 11, 79
6, 90722, Note_on_c, 4, 69, 115
6, 90736, Control_c, 4, 11, 82
6, 90750, Control_c, 4, 11, 85
6, 90765, Control_c, 4, 11, 88
6, 90782, Control_c, 4, 11, 87
6, 90800, Control_c, 4, 11, 84
6, 90818, Control_c, 4, 11, 81
6, 90836, Control_c, 4, 11, 78
6, 90854, Control_c, 4, 11, 76
6, 90878, Control_c, 4, 11, 74
6, 90902, Control_c, 4, 11, 72
6, 90926, Control_c, 4, 11, 70
6, 90950, Control_c, 4, 11, 68
6, 90974, Control_c, 4, 11, 66
6, 90998, Control_c, 4, 11, 64
6, 91022, Control_c, 4, 11, 62
6, 91046, Control_c, 4, 11, 60
6, 91070, Control_c, 4, 11, 58
6, 91082, Note_on_c, 4, 69, 0
6, 91082, Note_on_c, 4, 66, 115
6, 91202, Note_on_c, 4, 66, 0
6, 91202, Note_on_c, 4, 67, 115
6, 91322, Note_on_c, 4, 67, 0
6, 91322, Note_on_c, 4, 64, 115
6, 91382, Note_on_c, 4, 64, 0
6, 91442, Note_on_c, 4, 62, 115
6, 91562, Note_on_c, 4, 62, 0
6, 91682, Note_on_c, 4, 64, 100
6, 91742, Note_on_c, 4, 64, 0
6, 91802, Note_on_c, 4, 66, 100
6, 91922, Note_on_c, 4, 66, 0
6, 91922, Note_on_c, 4, 67, 100
6, 92042, Note_on_c, 4, 67, 0
6, 92042, Note_on_c, 4, 64, 100
6, 92102, Note_on_c, 4, 64, 0
6, 92162, Control_c, 4, 11, 57
6, 92162, Note_on_c, 4, 62, 100
6, 92234, Control_c, 4, 11, 58
6, 92282, Note_on_c, 4, 62, 0
6, 92306, Control_c, 4, 11, 59
6, 92378, Control_c, 4, 11, 60
6, 92402, Note_on_c, 4, 64, 100
6, 92450, Control_c, 4, 11, 61
6, 92462, Note_on_c, 4, 64, 0
6, 92522, Control_c, 4, 11, 62
6, 92522, Note_on_c, 4, 66, 100
6, 92594, Control_c, 4, 11, 63
6, 92642, Note_on_c, 4, 66, 0
6, 92642, Note_on_c, 4, 67, 100
6, 92666, Control_c, 4, 11, 64
6, 92738, Control_c, 4, 11, 65
6, 92762, Note_on_c, 4, 67, 0
6, 92762, Note_on_c, 4, 64, 100
6, 92810, Control_c, 4, 11, 66
6, 92822, Note_on_c, 4, 64, 0
6, 92882, Note_on_c, 4, 66, 100
6, 92882, Control_c, 4, 11, 67
6, 93002, Note_on_c, 4, 66, 0
6, 93002, Note_on_c, 4, 67, 100
6, 93122, Note_on_c, 4, 67, 0
6, 93122, Note_on_c, 4, 64, 100
6, 93122, Control_c, 4, 11, 47
6, 93182, Note_on_c, 4, 64, 0
6, 93242, Note_on_c, 4, 66, 100
6, 93362, Note_on_c, 4, 66, 0
6, 93362, Note_on_c, 4, 67, 100
6, 93482, Note_on_c, 4, 67, 0
6, 93482, Note_on_c, 4, 64, 100
6, 93542, Note_on_c, 4, 64, 0
6, 93602, Note_on_c, 4, 62, 100
6, 93722, Note_on_c, 4, 62, 0
6, 93962, Note_on_c, 4, 62, 94
6, 93962, Control_c, 4, 11, 87
6, 93977, Control_c, 4, 11, 86
6, 93992, Control_c, 4, 11, 85
6, 94007, Control_c, 4, 11, 84
6, 94022, Control_c, 4, 11, 83
6, 94037, Control_c, 4, 11, 82
6, 94052, Control_c, 4, 11, 81
6, 94067, Control_c, 4, 11, 80
6, 94082, Control_c, 4, 11, 79
6, 94097, Control_c, 4, 11, 78
6, 94112, Control_c, 4, 11, 77
6, 94127, Control_c, 4, 11, 76
6, 94142, Control_c, 4, 11, 75
6, 94157, Control_c, 4, 11, 74
6, 94172, Control_c, 4, 11, 73
6, 94187, Control_c, 4, 11, 72
6, 94202, Control_c, 4, 11, 71
6, 94217, Control_c, 4, 11, 70
6, 94232, Control_c, 4, 11, 69
6, 94247, Control_c, 4, 11, 68
6, 94262, Control_c, 4, 11, 67
6, 94270, Control_c, 4, 11, 64
6, 94279, Control_c, 4, 11, 61
6, 94288, Control_c, 4, 11, 58
6, 94297, Control_c, 4, 11, 55
6, 94306, Control_c, 4, 11, 52
6, 94315, Control_c, 4, 11, 49
6, 94322, Note_on_c, 4, 62, 0
6, 94682, Note_on_c, 4, 62, 94
6, 94682, Control_c, 4, 11, 87
6, 94697, Control_c, 4, 11, 86
6, 94712, Control_c, 4, 11, 85
6, 94727, Control_c, 4, 11, 84
6, 94742, Control_c, 4, 11, 83
6, 94757, Control_c, 4, 11, 82
6, 94772, Control_c, 4, 11, 81
6, 94787, Control_c, 4, 11, 80
6, 94802, Control_c, 4, 11, 79
6, 94817, Control_c, 4, 11, 78
6, 94832, Control_c, 4, 11, 77
6, 94847, Control_c, 4, 11, 76
6, 94862, Control_c, 4, 11, 75
6, 94877, Control_c, 4, 11, 74
6, 94892, Control_c, 4, 11, 73
6, 94907, Control_c, 4, 11, 72
6, 94922, Control_c, 4, 11, 71
6, 94937, Control_c, 4, 11, 70
6, 94952, Control_c, 4, 11, 69
6, 94967, Control_c, 4, 11, 68
6, 94982, Control_c, 4, 11, 67
6, 94990, Control_c, 4, 11, 64
6, 94999, Control_c, 4, 11, 61
6, 95008, Control_c, 4, 11, 58
6, 95017, Control_c, 4, 11, 55
6, 95026, Control_c, 4, 11, 52
6, 95035, Control_c, 4, 11, 49
6, 95042, Note_on_c, 4, 62, 0
6, 95402, Control_c, 4, 11, 47
6, 95402, Note_on_c, 4, 64, 94
6, 95462, Note_on_c, 4, 64, 0
6, 95522, Note_on_c, 4, 66, 94
6, 95582, Note_on_c, 4, 66, 0
6, 95642, Note_on_c, 4, 67, 94
6, 95702, Note_on_c, 4, 67, 0
6, 96122, Note_on_c, 4, 66, 94
6, 96182, Note_on_c, 4, 66, 0
6, 96242, Note_on_c, 4, 64, 94
6, 96302, Note_on_c, 4, 64, 0
6, 96362, Note_on_c, 4, 62, 94
6, 96422, Note_on_c, 4, 62, 0
6, 96842, Note_on_c, 4, 62, 94
6, 96842, Control_c, 4, 11, 87
6, 96857, Control_c, 4, 11, 86
6, 96872, Control_c, 4, 11, 85
6, 96887, Control_c, 4, 11, 84
6, 96902, Control_c, 4, 11, 83
6, 96917, Control_c, 4, 11, 82
6, 96932, Control_c, 4, 11, 81
6, 96947, Control_c, 4, 11, 80
6, 96962, Control_c, 4, 11, 79
6, 96977, Control_c, 4, 11, 78
6, 96992, Control_c, 4, 11, 77
6, 97007, Control_c, 4, 11, 76
6, 97022, Control_c, 4, 11, 75
6, 97037, Control_c, 4, 11, 74
6, 97052, Control_c, 4, 11, 73
6, 97067, Control_c, 4, 11, 72
6, 97082, Control_c, 4, 11, 71
6, 97097, Control_c, 4, 11, 70
6, 97112, Control_c, 4, 11, 69
6, 97127, Control_c, 4, 11, 68
6, 97142, Control_c, 4, 11, 67
6, 97150, Control_c, 4, 11, 64
6, 97159, Control_c, 4, 11, 61
6, 97168, Control_c, 4, 11, 58
6, 97177, Control_c, 4, 11, 55
6, 97186, Control_c, 4, 11, 52
6, 97195, Control_c, 4, 11, 49
6, 97202, Note_on_c, 4, 62, 0
6, 97562, Note_on_c, 4, 62, 94
6, 97562, Control_c, 4, 11, 87
6, 97577, Control_c, 4, 11, 86
6, 97592, Control_c, 4, 11, 85
6, 97607, Control_c, 4, 11, 84
6, 97622, Control_c, 4, 11, 83
6, 97637, Control_c, 4, 11, 82
6, 97652, Control_c, 4, 11, 81
6, 97667, Control_c, 4, 11, 80
6, 97682, Control_c, 4, 11, 79
6, 97697, Control_c, 4, 11, 78
6, 97712, Control_c, 4, 11, 77
6, 97727, Control_c, 4, 11, 76
6, 97742, Control_c, 4, 11, 75
6, 97757, Control_c, 4, 11, 74
6, 97772, Control_c, 4, 11, 73
6, 97787, Control_c, 4, 11, 72
6, 97802, Control_c, 4, 11, 71
6, 97817, Control_c, 4, 11, 70
6, 97832, Control_c, 4, 11, 69
6, 97847, Control_c, 4, 11, 68
6, 97862, Control_c, 4, 11, 67
6, 97870, Control_c, 4, 11, 64
6, 97879, Control_c, 4, 11, 61
6, 97888, Control_c, 4, 11, 58
6, 97897, Control_c, 4, 11, 55
6, 97906, Control_c, 4, 11, 52
6, 97915, Control_c, 4, 11, 49
6, 97922, Note_on_c, 4, 62, 0
6, 99002, Control_c, 4, 11, 47
6, 99002, Note_on_c, 4, 64, 94
6, 99062, Note_on_c, 4, 64, 0
6, 99122, Note_on_c, 4, 64, 94
6, 99182, Note_on_c, 4, 64, 0
6, 99242, Note_on_c, 4, 64, 94
6, 99302, Note_on_c, 4, 64, 0
6, 99362, Note_on_c, 4, 64, 94
6, 99362, Control_c, 4, 11, 102
6, 99422, Note_on_c, 4, 64, 0
6, 99482, Note_on_c, 4, 64, 94
6, 99542, Note_on_c, 4, 64, 0
6, 99602, Note_on_c, 4, 64, 94
6, 99662, Note_on_c, 4, 64, 0
6, 99722, Note_on_c, 4, 62, 94
6, 99722, Control_c, 4, 11, 87
6, 99737, Control_c, 4, 11, 86
6, 99752, Control_c, 4, 11, 85
6, 99767, Control_c, 4, 11, 84
6, 99782, Control_c, 4, 11, 83
6, 99797, Control_c, 4, 11, 82
6, 99812, Control_c, 4, 11, 81
6, 99827, Control_c, 4, 11, 80
6, 99842, Control_c, 4, 11, 79
6, 99857, Control_c, 4, 11, 78
6, 99872, Control_c, 4, 11, 77
6, 99887, Control_c, 4, 11, 76
6, 99902, Control_c, 4, 11, 75
6, 99917, Control_c, 4, 11, 74
6, 99932, Control_c, 4, 11, 73
6, 99947, Control_c, 4, 11, 72
6, 99962, Control_c, 4, 11, 71
6, 99977, Control_c, 4, 11, 70
6, 99992, Control_c, 4, 11, 69
6, 100007, Control_c, 4, 11, 68
6, 100022, Control_c, 4, 11, 67
6, 100030, Control_c, 4, 11, 64
6, 100039, Control_c, 4, 11, 61
6, 100048, Control_c, 4, 11, 58
6, 100057, Control_c, 4, 11, 55
6, 100066, Control_c, 4, 11, 52
6, 100075, Control_c, 4, 11, 49
6, 100082, Note_on_c, 4, 62, 0
6, 100442, Note_on_c, 4, 62, 94
6, 100442, Control_c, 4, 11, 87
6, 100457, Control_c, 4, 11, 86
6, 100472, Control_c, 4, 11, 85
6, 100487, Control_c, 4, 11, 84
6, 100502, Control_c, 4, 11, 83
6, 100517, Control_c, 4, 11, 82
6, 100532, Control_c, 4, 11, 81
6, 100547, Control_c, 4, 11, 80
6, 100562, Control_c, 4, 11, 79
6, 100577, Control_c, 4, 11, 78
6, 100592, Control_c, 4, 11, 77
6, 100607, Control_c, 4, 11, 76
6, 100622, Control_c, 4, 11, 75
6, 100637, Control_c, 4, 11, 74
6, 100652, Control_c, 4, 11, 73
6, 100667, Control_c, 4, 11, 72
6, 100682, Control_c, 4, 11, 71
6, 100697, Control_c, 4, 11, 70
6, 100712, Control_c, 4, 11, 69
6, 100727, Control_c, 4, 11, 68
6, 100742, Control_c, 4, 11, 67
6, 100750, Control_c, 4, 11, 64
6, 100759, Control_c, 4, 11, 61
6, 100768, Control_c, 4, 11, 58
6, 100777, Control_c, 4, 11, 55
6, 100786, Control_c, 4, 11, 52
6, 100795, Control_c, 4, 11, 49
6, 100802, Note_on_c, 4, 62, 0
6, 101162, Note_on_c, 4, 64, 94
6, 101162, Control_c, 4, 11, 47
6, 101222, Note_on_c, 4, 64, 0
6, 101282, Note_on_c, 4, 66, 94
6, 101342, Note_on_c, 4, 66, 0
6, 101402, Note_on_c, 4, 67, 94
6, 101462, Note_on_c, 4, 67, 0
6, 101882, Note_on_c, 4, 66, 94
6, 101942, Note_on_c, 4, 66, 0
6, 102002, Note_on_c, 4, 64, 94
6, 102062, Note_on_c, 4, 64, 0
6, 102122, Note_on_c, 4, 62, 94
6, 102182, Note_on_c, 4, 62, 0
6, 102602, Note_on_c, 4, 62, 94
6, 102602, Control_c, 4, 11, 87
6, 102617, Control_c, 4, 11, 86
6, 102632, Control_c, 4, 11, 85
6, 102647, Control_c, 4, 11, 84
6, 102662, Control_c, 4, 11, 83
6, 102677, Control_c, 4, 11, 82
6, 102692, Control_c, 4, 11, 81
6, 102707, Control_c, 4, 11, 80
6, 102722, Control_c, 4, 11, 79
6, 102737, Control_c, 4, 11, 78
6, 102752, Control_c, 4, 11, 77
6, 102767, Control_c, 4, 11, 76
6, 102782, Control_c, 4, 11, 75
6, 102797, Control_c, 4, 11, 74
6, 102812, Control_c, 4, 11, 73
6, 102827, Control_c, 4, 11, 72
6, 102842, Control_c, 4, 11, 71
6, 102857, Control_c, 4, 11, 70
6, 102872, Control_c, 4, 11, 69
6, 102887, Control_c, 4, 11, 68
6, 102902, Control_c, 4, 11, 67
6, 102910, Control_c, 4, 11, 64
6, 102919, Control_c, 4, 11, 61
6, 102928, Control_c, 4, 11, 58
6, 102937, Control_c, 4, 11, 55
6, 102946, Control_c, 4, 11, 52
6, 102955, Control_c, 4, 11, 49
6, 102962, Note_on_c, 4, 62, 0
6, 103322, Note_on_c, 4, 62, 94
6, 103322, Control_c, 4, 11, 87
6, 103337, Control_c, 4, 11, 86
6, 103352, Control_c, 4, 11, 85
6, 103367, Control_c, 4, 11, 84
6, 103382, Control_c, 4, 11, 83
6, 103397, Control_c, 4, 11, 82
6, 103412, Control_c, 4, 11, 81
6, 103427, Control_c, 4, 11, 80
6, 103442, Control_c, 4, 11, 79
6, 103457, Control_c, 4, 11, 78
6, 103472, Control_c, 4, 11, 77
6, 103487, Control_c, 4, 11, 76
6, 103502, Control_c, 4, 11, 75
6, 103517, Control_c, 4, 11, 74
6, 103532, Control_c, 4, 11, 73
6, 103547, Control_c, 4, 11, 72
6, 103562, Control_c, 4, 11, 71
6, 103577, Control_c, 4, 11, 70
6, 103592, Control_c, 4, 11, 69
6, 103607, Control_c, 4, 11, 68
6, 103622, Control_c, 4, 11, 67
6, 103630, Control_c, 4, 11, 64
6, 103639, Control_c, 4, 11, 61
6, 103648, Control_c, 4, 11, 58
6, 103657, Control_c, 4, 11, 55
6, 103666, Control_c, 4, 11, 52
6, 103675, Control_c, 4, 11, 49
6, 103682, Note_on_c, 4, 62, 0
6, 104762, Note_on_c, 4, 64, 94
6, 104762, Control_c, 4, 11, 47
6, 104822, Note_on_c, 4, 64, 0
6, 104882, Note_on_c, 4, 64, 94
6, 104942, Note_on_c, 4, 64, 0
6, 105002, Note_on_c, 4, 64, 94
6, 105062, Note_on_c, 4, 64, 0
6, 105122, Note_on_c, 4, 64, 94
6, 105122, Control_c, 4, 11, 102
6, 105182, Note_on_c, 4, 64, 0
6, 105242, Note_on_c, 4, 64, 94
6, 105302, Note_on_c, 4, 64, 0
6, 105362, Note_on_c, 4, 64, 94
6, 105422, Note_on_c, 4, 64, 0
6, 113402, Note_on_c, 4, 62, 100
6, 113402, Control_c, 4, 11, 87
6, 113417, Control_c, 4, 11, 86
6, 113432, Control_c, 4, 11, 85
6, 113447, Control_c, 4, 11, 84
6, 113462, Control_c, 4, 11, 83
6, 113477, Control_c, 4, 11, 82
6, 113492, Control_c, 4, 11, 81
6, 113507, Control_c, 4, 11, 80
6, 113522, Control_c, 4, 11, 79
6, 113537, Control_c, 4, 11, 78
6, 113552, Control_c, 4, 11, 77
6, 113567, Control_c, 4, 11, 76
6, 113582, Control_c, 4, 11, 75
6, 113597, Control_c, 4, 11, 74
6, 113612, Control_c, 4, 11, 73
6, 113627, Control_c, 4, 11, 72
6, 113642, Control_c, 4, 11, 71
6, 113657, Control_c, 4, 11, 70
6, 113672, Control_c, 4, 11, 69
6, 113687, Control_c, 4, 11, 68
6, 113702, Control_c, 4, 11, 67
6, 113710, Control_c, 4, 11, 64
6, 113719, Control_c, 4, 11, 61
6, 113728, Control_c, 4, 11, 58
6, 113737, Control_c, 4, 11, 55
6, 113746, Control_c, 4, 11, 52
6, 113755, Control_c, 4, 11, 49
6, 113762, Note_on_c, 4, 62, 0
6, 114122, Note_on_c, 4, 62, 100
6, 114122, Control_c, 4, 11, 87
6, 114137, Control_c, 4, 11, 86
6, 114152, Control_c, 4, 11, 85
6, 114167, Control_c, 4, 11, 84
6, 114182, Control_c, 4, 11, 83
6, 114197, Control_c, 4, 11, 82
6, 114212, Control_c, 4, 11, 81
6, 114227, Control_c, 4, 11, 80
6, 114242, Control_c, 4, 11, 79
6, 114257, Control_c, 4, 11, 78
6, 114272, Control_c, 4, 11, 77
6, 114287, Control_c, 4, 11, 76
6, 114302, Control_c, 4, 11, 75
6, 114317, Control_c, 4, 11, 74
6, 114332, Control_c, 4, 11, 73
6, 114347, Control_c, 4, 11, 72
6, 114362, Control_c, 4, 11, 71
6, 114377, Control_c, 4, 11, 70
6, 114392, Control_c, 4, 11, 69
6, 114407, Control_c, 4, 11, 68
6, 114422, Control_c, 4, 11, 67
6, 114430, Control_c, 4, 11, 64
6, 114439, Control_c, 4, 11, 61
6, 114448, Control_c, 4, 11, 58
6, 114457, Control_c, 4, 11, 55
6, 114466, Control_c, 4, 11, 52
6, 114475, Control_c, 4, 11, 49
6, 114482, Note_on_c, 4, 62, 0
6, 114842, Note_on_c, 4, 64, 100
6, 114842, Control_c, 4, 11, 47
6, 114902, Note_on_c, 4, 64, 0
6, 114962, Note_on_c, 4, 66, 100
6, 115022, Note_on_c, 4, 66, 0
6, 115082, Note_on_c, 4, 67, 100
6, 115142, Note_on_c, 4, 67, 0
6, 115562, Note_on_c, 4, 66, 100
6, 115622, Note_on_c, 4, 66, 0
6, 115682, Note_on_c, 4, 64, 100
6, 115742, Note_on_c, 4, 64, 0
6, 115802, Note_on_c, 4, 62, 100
6, 115862, Note_on_c, 4, 62, 0
6, 116282, Control_c, 4, 11, 87
6, 116282, Note_on_c, 4, 62, 100
6, 116297, Control_c, 4, 11, 86
6, 116312, Control_c, 4, 11, 85
6, 116327, Control_c, 4, 11, 84
6, 116342, Control_c, 4, 11, 83
6, 116357, Control_c, 4, 11, 82
6, 116372, Control_c, 4, 11, 81
6, 116387, Control_c, 4, 11, 80
6, 116402, Control_c, 4, 11, 79
6, 116417, Control_c, 4, 11, 78
6, 116432, Control_c, 4, 11, 77
6, 116447, Control_c, 4, 11, 76
6, 116462, Control_c, 4, 11, 75
6, 116477, Control_c, 4, 11, 74
6, 116492, Control_c, 4, 11, 73
6, 116507, Control_c, 4, 11, 72
6, 116522, Control_c, 4, 11, 71
6, 116537, Control_c, 4, 11, 70
6, 116552, Control_c, 4, 11, 69
6, 116567, Control_c, 4, 11, 68
6, 116582, Control_c, 4, 11, 67
6, 116590, Control_c, 4, 11, 64
6, 116599, Control_c, 4, 11, 61
6, 116608, Control_c, 4, 11, 58
6, 116617, Control_c, 4, 11, 55
6, 116626, Control_c, 4, 11, 52
6, 116635, Control_c, 4, 11, 49
6, 116642, Note_on_c, 4, 62, 0
6, 117002, Note_on_c, 4, 62, 100
6, 117002, Control_c, 4, 11, 87
6, 117017, Control_c, 4, 11, 86
6, 117032, Control_c, 4, 11, 85
6, 117047, Control_c, 4, 11, 84
6, 117062, Control_c, 4, 11, 83
6, 117077, Control_c, 4, 11, 82
6, 117092, Control_c, 4, 11, 81
6, 117107, Control_c, 4, 11, 80
6, 117122, Control_c, 4, 11, 79
6, 117137, Control_c, 4, 11, 78
6, 117152, Control_c, 4, 11, 77
6, 117167, Control_c, 4, 11, 76
6, 117182, Control_c, 4, 11, 75
6, 117197, Control_c, 4, 11, 74
6, 117212, Control_c, 4, 11, 73
6, 117227, Control_c, 4, 11, 72
6, 117242, Control_c, 4, 11, 71
6, 117257, Control_c, 4, 11, 70
6, 117272, Control_c, 4, 11, 69
6, 117287, Control_c, 4, 11, 68
6, 117302, Control_c, 4, 11, 67
6, 117310, Control_c, 4, 11, 64
6, 117319, Control_c, 4, 11, 61
6, 117328, Control_c, 4, 11, 58
6, 117337, Control_c, 4, 11, 55
6, 117346, Control_c, 4, 11, 52
6, 117355, Control_c, 4, 11, 49
6, 117362, Note_on_c, 4, 62, 0
6, 122042, Control_c, 4, 11, 47
6, 122042, Note_on_c, 4, 62, 100
6, 122060, Control_c, 4, 11, 48
6, 122078, Control_c, 4, 11, 49
6, 122096, Control_c, 4, 11, 50
6, 122114, Control_c, 4, 11, 51
6, 122132, Control_c, 4, 11, 52
6, 122150, Control_c, 4, 11, 53
6, 122168, Control_c, 4, 11, 54
6, 122186, Control_c, 4, 11, 55
6, 122204, Control_c, 4, 11, 56
6, 122222, Control_c, 4, 11, 57
6, 122240, Control_c, 4, 11, 58
6, 122258, Control_c, 4, 11, 59
6, 122276, Control_c, 4, 11, 60
6, 122294, Control_c, 4, 11, 61
6, 122312, Control_c, 4, 11, 62
6, 122330, Control_c, 4, 11, 63
6, 122348, Control_c, 4, 11, 64
6, 122366, Control_c, 4, 11, 65
6, 122384, Control_c, 4, 11, 66
6, 122402, Control_c, 4, 11, 67
6, 122420, Control_c, 4, 11, 68
6, 122438, Control_c, 4, 11, 69
6, 122456, Control_c, 4, 11, 70
6, 122474, Control_c, 4, 11, 71
6, 122492, Control_c, 4, 11, 72
6, 122510, Control_c, 4, 11, 73
6, 122528, Control_c, 4, 11, 74
6, 122546, Control_c, 4, 11, 75
6, 122564, Control_c, 4, 11, 76
6, 122582, Control_c, 4, 11, 77
6, 122600, Control_c, 4, 11, 78
6, 122618, Control_c, 4, 11, 79
6, 122636, Control_c, 4, 11, 80
6, 122654, Control_c, 4, 11, 81
6, 122672, Control_c, 4, 11, 82
6, 122690, Control_c, 4, 11, 83
6, 122708, Control_c, 4, 11, 84
6, 122726, Control_c, 4, 11, 85
6, 122744, Control_c, 4, 11, 86
6, 122762, Note_on_c, 4, 62, 0
6, 122762, Control_c, 4, 11, 87
6, 122762, Note_on_c, 4, 57, 100
6, 123112, Note_on_c, 4, 57, 0
6, 123122, Note_on_c, 4, 62, 100
6, 123242, Note_on_c, 4, 62, 0
6, 124922, Control_c, 4, 11, 47
6, 124922, Note_on_c, 4, 62, 100
6, 124940, Control_c, 4, 11, 48
6, 124958, Control_c, 4, 11, 49
6, 124976, Control_c, 4, 11, 50
6, 124994, Control_c, 4, 11, 51
6, 125012, Control_c, 4, 11, 52
6, 125030, Control_c, 4, 11, 53
6, 125048, Control_c, 4, 11, 54
6, 125066, Control_c, 4, 11, 55
6, 125084, Control_c, 4, 11, 56
6, 125102, Control_c, 4, 11, 57
6, 125120, Control_c, 4, 11, 58
6, 125138, Control_c, 4, 11, 59
6, 125156, Control_c, 4, 11, 60
6, 125174, Control_c, 4, 11, 61
6, 125192, Control_c, 4, 11, 62
6, 125210, Control_c, 4, 11, 63
6, 125228, Control_c, 4, 11, 64
6, 125246, Control_c, 4, 11, 65
6, 125264, Control_c, 4, 11, 66
6, 125282, Control_c, 4, 11, 67
6, 125300, Control_c, 4, 11, 68
6, 125318, Control_c, 4, 11, 69
6, 125336, Control_c, 4, 11, 70
6, 125354, Control_c, 4, 11, 71
6, 125372, Control_c, 4, 11, 72
6, 125390, Control_c, 4, 11, 73
6, 125408, Control_c, 4, 11, 74
6, 125426, Control_c, 4, 11, 75
6, 125444, Control_c, 4, 11, 76
6, 125462, Control_c, 4, 11, 77
6, 125480, Control_c, 4, 11, 78
6, 125498, Control_c, 4, 11, 79
6, 125516, Control_c, 4, 11, 80
6, 125534, Control_c, 4, 11, 81
6, 125552, Control_c, 4, 11, 82
6, 125570, Control_c, 4, 11, 83
6, 125588, Control_c, 4, 11, 84
6, 125606, Control_c, 4, 11, 85
6, 125624, Control_c, 4, 11, 86
6, 125642, Note_on_c, 4, 62, 0
6, 125642, Note_on_c, 4, 57, 100
6, 125642, Control_c, 4, 11, 87
6, 125992, Note_on_c, 4, 57, 0
6, 126002, Note_on_c, 4, 62, 100
6, 126122, Note_on_c, 4, 62, 0
6, 126362, Control_c, 4, 11, 47
6, 126362, Note_on_c, 4, 62, 100
6, 126380, Control_c, 4, 11, 48
6, 126398, Control_c, 4, 11, 49
6, 126416, Control_c, 4, 11, 50
6, 126434, Control_c, 4, 11, 51
6, 126452, Control_c, 4, 11, 52
6, 126470, Control_c, 4, 11, 53
6, 126488, Control_c, 4, 11, 54
6, 126506, Control_c, 4, 11, 55
6, 126524, Control_c, 4, 11, 56
6, 126542, Control_c, 4, 11, 57
6, 126560, Control_c, 4, 11, 58
6, 126578, Control_c, 4, 11, 59
6, 126596, Control_c, 4, 11, 60
6, 126614, Control_c, 4, 11, 61
6, 126632, Control_c, 4, 11, 62
6, 126650, Control_c, 4, 11, 63
6, 126668, Control_c, 4, 11, 64
6, 126686, Control_c, 4, 11, 65
6, 126704, Control_c, 4, 11, 66
6, 126722, Control_c, 4, 11, 67
6, 126740, Control_c, 4, 11, 68
6, 126758, Control_c, 4, 11, 69
6, 126776, Control_c, 4, 11, 70
6, 126794, Control_c, 4, 11, 71
6, 126812, Control_c, 4, 11, 72
6, 126830, Control_c, 4, 11, 73
6, 126848, Control_c, 4, 11, 74
6, 126866, Control_c, 4, 11, 75
6, 126884, Control_c, 4, 11, 76
6, 126902, Control_c, 4, 11, 77
6, 126920, Control_c, 4, 11, 78
6, 126938, Control_c, 4, 11, 79
6, 126956, Control_c, 4, 11, 80
6, 126974, Control_c, 4, 11, 81
6, 126992, Control_c, 4, 11, 82
6, 127010, Control_c, 4, 11, 83
6, 127028, Control_c, 4, 11, 84
6, 127046, Control_c, 4, 11, 85
6, 127064, Control_c, 4, 11, 86
6, 127082, Note_on_c, 4, 62, 0
6, 127082, Note_on_c, 4, 57, 100
6, 127082, Control_c, 4, 11, 107
6, 127100, Control_c, 4, 11, 104
6, 127118, Control_c, 4, 11, 101
6, 127136, Control_c, 4, 11, 98
6, 127154, Control_c, 4, 11, 95
6, 127172, Control_c, 4, 11, 92
6, 127190, Control_c, 4, 11, 89
6, 127432, Note_on_c, 4, 57, 0
6, 127442, Note_on_c, 4, 62, 100
6, 127552, Note_on_c, 4, 62, 0
6, 127562, Note_on_c, 4, 66, 100
6, 127672, Note_on_c, 4, 66, 0
6, 127682, Note_on_c, 4, 62, 100
6, 127792, Note_on_c, 4, 62, 0
6, 127802, Note_on_c, 4, 57, 100
6, 127802, Control_c, 4, 11, 107
6, 127820, Control_c, 4, 11, 104
6, 127838, Control_c, 4, 11, 101
6, 127856, Control_c, 4, 11, 98
6, 127874, Control_c, 4, 11, 95
6, 127892, Control_c, 4, 11, 92
6, 127910, Control_c, 4, 11, 89
6, 128152, Note_on_c, 4, 57, 0
6, 128162, Note_on_c, 4, 62, 100
6, 128272, Note_on_c, 4, 62, 0
6, 128282, Note_on_c, 4, 66, 100
6, 128392, Note_on_c, 4, 66, 0
6, 128402, Note_on_c, 4, 62, 100
6, 128512, Note_on_c, 4, 62, 0
6, 128522, Note_on_c, 4, 57, 100
6, 128522, Control_c, 4, 11, 107
6, 128540, Control_c, 4, 11, 104
6, 128558, Control_c, 4, 11, 101
6, 128576, Control_c, 4, 11, 98
6, 128594, Control_c, 4, 11, 95
6, 128612, Control_c, 4, 11, 92
6, 128630, Control_c, 4, 11, 89
6, 128992, Note_on_c, 4, 57, 0
6, 129002, Note_on_c, 4, 64, 100
6, 129112, Note_on_c, 4, 64, 0
6, 129122, Note_on_c, 4, 64, 100
6, 129232, Note_on_c, 4, 64, 0
6, 129242, Note_on_c, 4, 62, 100
6, 129362, Note_on_c, 4, 62, 0
6, 129482, Note_on_c, 4, 64, 100
6, 129542, Note_on_c, 4, 64, 0
6, 129602, Note_on_c, 4, 62, 100
6, 129662, Note_on_c, 4, 62, 0
6, 129962, Control_c, 4, 121, 0
6, 129962, End_track
7, 0, Start_track
7, 0, MIDI_port, 0
7, 0, Title_t, "Corno II in D"
7, 0, Program_c, 5, 60
7, 0, Control_c, 5, 10, 28
7, 6, Control_c, 5, 121, 0
7, 11, Program_c, 5, 60
7, 16, Pitch_bend_c, 5, 8092
7, 21, Control_c, 5, 11, 87
7, 26, Control_c, 5, 7, 127
7, 31, Control_c, 5, 91, 80
7, 36, Control_c, 5, 93, 0
7, 366, Control_c, 5, 11, 87
7, 366, Note_on_c, 5, 50, 94
7, 381, Control_c, 5, 11, 86
7, 396, Control_c, 5, 11, 85
7, 411, Control_c, 5, 11, 84
7, 426, Control_c, 5, 11, 83
7, 441, Control_c, 5, 11, 82
7, 456, Control_c, 5, 11, 81
7, 471, Control_c, 5, 11, 80
7, 486, Control_c, 5, 11, 79
7, 501, Control_c, 5, 11, 78
7, 516, Control_c, 5, 11, 77
7, 531, Control_c, 5, 11, 76
7, 546, Control_c, 5, 11, 75
7, 561, Control_c, 5, 11, 74
7, 576, Control_c, 5, 11, 73
7, 591, Control_c, 5, 11, 72
7, 606, Control_c, 5, 11, 71
7, 621, Control_c, 5, 11, 70
7, 636, Control_c, 5, 11, 69
7, 651, Control_c, 5, 11, 68
7, 666, Control_c, 5, 11, 67
7, 674, Control_c, 5, 11, 64
7, 683, Control_c, 5, 11, 61
7, 692, Control_c, 5, 11, 58
7, 701, Control_c, 5, 11, 55
7, 710, Control_c, 5, 11, 52
7, 719, Control_c, 5, 11, 49
7, 726, Note_on_c, 5, 50, 0
7, 1086, Note_on_c, 5, 50, 94
7, 1086, Control_c, 5, 11, 87
7, 1101, Control_c, 5, 11, 86
7, 1116, Control_c, 5, 11, 85
7, 1131, Control_c, 5, 11, 84
7, 1146, Control_c, 5, 11, 83
7, 1161, Control_c, 5, 11, 82
7, 1176, Control_c, 5, 11, 81
7, 1191, Control_c, 5, 11, 80
7, 1206, Control_c, 5, 11, 79
7, 1221, Control_c, 5, 11, 78
7, 1236, Control_c, 5, 11, 77
7, 1251, Control_c, 5, 11, 76
7, 1266, Control_c, 5, 11, 75
7, 1281, Control_c, 5, 11, 74
7, 1296, Control_c, 5, 11, 73
7, 1311, Control_c, 5, 11, 72
7, 1326, Control_c, 5, 11, 71
7, 1341, Control_c, 5, 11, 70
7, 1356, Control_c, 5, 11, 69
7, 1371, Control_c, 5, 11, 68
7, 1386, Control_c, 5, 11, 67
7, 1394, Control_c, 5, 11, 64
7, 1403, Control_c, 5, 11, 61
7, 1412, Control_c, 5, 11, 58
7, 1421, Control_c, 5, 11, 55
7, 1430, Control_c, 5, 11, 52
7, 1439, Control_c, 5, 11, 49
7, 1446, Note_on_c, 5, 50, 0
7, 1806, Control_c, 5, 11, 47
7, 1806, Note_on_c, 5, 57, 94
7, 1866, Note_on_c, 5, 57, 0
7, 1926, Note_on_c, 5, 62, 94
7, 1986, Note_on_c, 5, 62, 0
7, 2046, Note_on_c, 5, 64, 94
7, 2106, Note_on_c, 5, 64, 0
7, 2526, Note_on_c, 5, 62, 94
7, 2586, Note_on_c, 5, 62, 0
7, 2646, Note_on_c, 5, 57, 94
7, 2706, Note_on_c, 5, 57, 0
7, 2766, Note_on_c, 5, 54, 94
7, 2826, Note_on_c, 5, 54, 0
7, 3246, Note_on_c, 5, 50, 94
7, 3246, Control_c, 5, 11, 87
7, 3261, Control_c, 5, 11, 86
7, 3276, Control_c, 5, 11, 85
7, 3291, Control_c, 5, 11, 84
7, 3306, Control_c, 5, 11, 83
7, 3321, Control_c, 5, 11, 82
7, 3336, Control_c, 5, 11, 81
7, 3351, Control_c, 5, 11, 80
7, 3366, Control_c, 5, 11, 79
7, 3381, Control_c, 5, 11, 78
7, 3396, Control_c, 5, 11, 77
7, 3411, Control_c, 5, 11, 76
7, 3426, Control_c, 5, 11, 75
7, 3441, Control_c, 5, 11, 74
7, 3456, Control_c, 5, 11, 73
7, 3471, Control_c, 5, 11, 72
7, 3486, Control_c, 5, 11, 71
7, 3501, Control_c, 5, 11, 70
7, 3516, Control_c, 5, 11, 69
7, 3531, Control_c, 5, 11, 68
7, 3546, Control_c, 5, 11, 67
7, 3554, Control_c, 5, 11, 64
7, 3563, Control_c, 5, 11, 61
7, 3572, Control_c, 5, 11, 58
7, 3581, Control_c, 5, 11, 55
7, 3590, Control_c, 5, 11, 52
7, 3599, Control_c, 5, 11, 49
7, 3606, Note_on_c, 5, 50, 0
7, 3966, Note_on_c, 5, 50, 94
7, 3966, Control_c, 5, 11, 87
7, 3981, Control_c, 5, 11, 86
7, 3996, Control_c, 5, 11, 85
7, 4011, Control_c, 5, 11, 84
7, 4026, Control_c, 5, 11, 83
7, 4041, Control_c, 5, 11, 82
7, 4056, Control_c, 5, 11, 81
7, 4071, Control_c, 5, 11, 80
7, 4086, Control_c, 5, 11, 79
7, 4101, Control_c, 5, 11, 78
7, 4116, Control_c, 5, 11, 77
7, 4131, Control_c, 5, 11, 76
7, 4146, Control_c, 5, 11, 75
7, 4161, Control_c, 5, 11, 74
7, 4176, Control_c, 5, 11, 73
7, 4191, Control_c, 5, 11, 72
7, 4206, Control_c, 5, 11, 71
7, 4221, Control_c, 5, 11, 70
7, 4236, Control_c, 5, 11, 69
7, 4251, Control_c, 5, 11, 68
7, 4266, Control_c, 5, 11, 67
7, 4274, Control_c, 5, 11, 64
7, 4283, Control_c, 5, 11, 61
7, 4292, Control_c, 5, 11, 58
7, 4301, Control_c, 5, 11, 55
7, 4310, Control_c, 5, 11, 52
7, 4319, Control_c, 5, 11, 49
7, 4326, Note_on_c, 5, 50, 0
7, 5766, Note_on_c, 5, 64, 94
7, 5766, Control_c, 5, 11, 102
7, 5826, Note_on_c, 5, 64, 0
7, 5886, Note_on_c, 5, 64, 94
7, 5946, Note_on_c, 5, 64, 0
7, 6006, Note_on_c, 5, 64, 94
7, 6066, Note_on_c, 5, 64, 0
7, 6126, Note_on_c, 5, 50, 94
7, 6126, Control_c, 5, 11, 87
7, 6141, Control_c, 5, 11, 86
7, 6156, Control_c, 5, 11, 85
7, 6171, Control_c, 5, 11, 84
7, 6186, Control_c, 5, 11, 83
7, 6201, Control_c, 5, 11, 82
7, 6216, Control_c, 5, 11, 81
7, 6231, Control_c, 5, 11, 80
7, 6246, Control_c, 5, 11, 79
7, 6261, Control_c, 5, 11, 78
7, 6276, Control_c, 5, 11, 77
7, 6291, Control_c, 5, 11, 76
7, 6306, Control_c, 5, 11, 75
7, 6321, Control_c, 5, 11, 74
7, 6336, Control_c, 5, 11, 73
7, 6351, Control_c, 5, 11, 72
7, 6366, Control_c, 5, 11, 71
7, 6381, Control_c, 5, 11, 70
7, 6396, Control_c, 5, 11, 69
7, 6411, Control_c, 5, 11, 68
7, 6426, Control_c, 5, 11, 67
7, 6434, Control_c, 5, 11, 64
7, 6443, Control_c, 5, 11, 61
7, 6452, Control_c, 5, 11, 58
7, 6461, Control_c, 5, 11, 55
7, 6470, Control_c, 5, 11, 52
7, 6479, Control_c, 5, 11, 49
7, 6486, Note_on_c, 5, 50, 0
7, 6846, Note_on_c, 5, 50, 94
7, 6846, Control_c, 5, 11, 87
7, 6861, Control_c, 5, 11, 86
7, 6876, Control_c, 5, 11, 85
7, 6891, Control_c, 5, 11, 84
7, 6906, Control_c, 5, 11, 83
7, 6921, Control_c, 5, 11, 82
7, 6936, Control_c, 5, 11, 81
7, 6951, Control_c, 5, 11, 80
7, 6966, Control_c, 5, 11, 79
7, 6981, Control_c, 5, 11, 78
7, 6996, Control_c, 5, 11, 77
7, 7011, Control_c, 5, 11, 76
7, 7026, Control_c, 5, 11, 75
7, 7041, Control_c, 5, 11, 74
7, 7056, Control_c, 5, 11, 73
7, 7071, Control_c, 5, 11, 72
7, 7086, Control_c, 5, 11, 71
7, 7101, Control_c, 5, 11, 70
7, 7116, Control_c, 5, 11, 69
7, 7131, Control_c, 5, 11, 68
7, 7146, Control_c, 5, 11, 67
7, 7154, Control_c, 5, 11, 64
7, 7163, Control_c, 5, 11, 61
7, 7172, Control_c, 5, 11, 58
7, 7181, Control_c, 5, 11, 55
7, 7190, Control_c, 5, 11, 52
7, 7199, Control_c, 5, 11, 49
7, 7206, Note_on_c, 5, 50, 0
7, 7566, Note_on_c, 5, 57, 94
7, 7566, Control_c, 5, 11, 47
7, 7626, Note_on_c, 5, 57, 0
7, 7686, Note_on_c, 5, 62, 94
7, 7746, Note_on_c, 5, 62, 0
7, 7806, Note_on_c, 5, 64, 94
7, 7866, Note_on_c, 5, 64, 0
7, 8286, Note_on_c, 5, 62, 94
7, 8346, Note_on_c, 5, 62, 0
7, 8406, Note_on_c, 5, 57, 94
7, 8466, Note_on_c, 5, 57, 0
7, 8526, Note_on_c, 5, 54, 94
7, 8586, Note_on_c, 5, 54, 0
7, 9006, Note_on_c, 5, 50, 94
7, 9006, Control_c, 5, 11, 87
7, 9021, Control_c, 5, 11, 86
7, 9036, Control_c, 5, 11, 85
7, 9051, Control_c, 5, 11, 84
7, 9066, Control_c, 5, 11, 83
7, 9081, Control_c, 5, 11, 82
7, 9096, Control_c, 5, 11, 81
7, 9111, Control_c, 5, 11, 80
7, 9126, Control_c, 5, 11, 79
7, 9141, Control_c, 5, 11, 78
7, 9156, Control_c, 5, 11, 77
7, 9171, Control_c, 5, 11, 76
7, 9186, Control_c, 5, 11, 75
7, 9201, Control_c, 5, 11, 74
7, 9216, Control_c, 5, 11, 73
7, 9231, Control_c, 5, 11, 72
7, 9246, Control_c, 5, 11, 71
7, 9261, Control_c, 5, 11, 70
7, 9276, Control_c, 5, 11, 69
7, 9291, Control_c, 5, 11, 68
7, 9306, Control_c, 5, 11, 67
7, 9314, Control_c, 5, 11, 64
7, 9323, Control_c, 5, 11, 61
7, 9332, Control_c, 5, 11, 58
7, 9341, Control_c, 5, 11, 55
7, 9350, Control_c, 5, 11, 52
7, 9359, Control_c, 5, 11, 49
7, 9366, Note_on_c, 5, 50, 0
7, 9726, Note_on_c, 5, 50, 94
7, 9726, Control_c, 5, 11, 87
7, 9741, Control_c, 5, 11, 86
7, 9756, Control_c, 5, 11, 85
7, 9771, Control_c, 5, 11, 84
7, 9786, Control_c, 5, 11, 83
7, 9801, Control_c, 5, 11, 82
7, 9816, Control_c, 5, 11, 81
7, 9831, Control_c, 5, 11, 80
7, 9846, Control_c, 5, 11, 79
7, 9861, Control_c, 5, 11, 78
7, 9876, Control_c, 5, 11, 77
7, 9891, Control_c, 5, 11, 76
7, 9906, Control_c, 5, 11, 75
7, 9921, Control_c, 5, 11, 74
7, 9936, Control_c, 5, 11, 73
7, 9951, Control_c, 5, 11, 72
7, 9966, Control_c, 5, 11, 71
7, 9981, Control_c, 5, 11, 70
7, 9996, Control_c, 5, 11, 69
7, 10011, Control_c, 5, 11, 68
7, 10026, Control_c, 5, 11, 67
7, 10034, Control_c, 5, 11, 64
7, 10043, Control_c, 5, 11, 61
7, 10052, Control_c, 5, 11, 58
7, 10061, Control_c, 5, 11, 55
7, 10070, Control_c, 5, 11, 52
7, 10079, Control_c, 5, 11, 49
7, 10086, Note_on_c, 5, 50, 0
7, 11526, Note_on_c, 5, 64, 94
7, 11526, Control_c, 5, 11, 102
7, 11586, Note_on_c, 5, 64, 0
7, 11646, Note_on_c, 5, 64, 94
7, 11706, Note_on_c, 5, 64, 0
7, 11766, Note_on_c, 5, 64, 94
7, 11826, Note_on_c, 5, 64, 0
7, 19806, Note_on_c, 5, 50, 100
7, 19806, Control_c, 5, 11, 87
7, 19821, Control_c, 5, 11, 86
7, 19836, Control_c, 5, 11, 85
7, 19851, Control_c, 5, 11, 84
7, 19866, Control_c, 5, 11, 83
7, 19881, Control_c, 5, 11, 82
7, 19896, Control_c, 5, 11, 81
7, 19911, Control_c, 5, 11, 80
7, 19926, Control_c, 5, 11, 79
7, 19941, Control_c, 5, 11, 78
7, 19956, Control_c, 5, 11, 77
7, 19971, Control_c, 5, 11, 76
7, 19986, Control_c, 5, 11, 75
7, 20001, Control_c, 5, 11, 74
7, 20016, Control_c, 5, 11, 73
7, 20031, Control_c, 5, 11, 72
7, 20046, Control_c, 5, 11, 71
7, 20061, Control_c, 5, 11, 70
7, 20076, Control_c, 5, 11, 69
7, 20091, Control_c, 5, 11, 68
7, 20106, Control_c, 5, 11, 67
7, 20114, Control_c, 5, 11, 64
7, 20123, Control_c, 5, 11, 61
7, 20132, Control_c, 5, 11, 58
7, 20141, Control_c, 5, 11, 55
7, 20150, Control_c, 5, 11, 52
7, 20159, Control_c, 5, 11, 49
7, 20166, Note_on_c, 5, 50, 0
7, 20526, Note_on_c, 5, 50, 100
7, 20526, Control_c, 5, 11, 87
7, 20541, Control_c, 5, 11, 86
7, 20556, Control_c, 5, 11, 85
7, 20571, Control_c, 5, 11, 84
7, 20586, Control_c, 5, 11, 83
7, 20601, Control_c, 5, 11, 82
7, 20616, Control_c, 5, 11, 81
7, 20631, Control_c, 5, 11, 80
7, 20646, Control_c, 5, 11, 79
7, 20661, Control_c, 5, 11, 78
7, 20676, Control_c, 5, 11, 77
7, 20691, Control_c, 5, 11, 76
7, 20706, Control_c, 5, 11, 75
7, 20721, Control_c, 5, 11, 74
7, 20736, Control_c, 5, 11, 73
7, 20751, Control_c, 5, 11, 72
7, 20766, Control_c, 5, 11, 71
7, 20781, Control_c, 5, 11, 70
7, 20796, Control_c, 5, 11, 69
7, 20811, Control_c, 5, 11, 68
7, 20826, Control_c, 5, 11, 67
7, 20834, Control_c, 5, 11, 64
7, 20843, Control_c, 5, 11, 61
7, 20852, Control_c, 5, 11, 58
7, 20861, Control_c, 5, 11, 55
7, 20870, Control_c, 5, 11, 52
7, 20879, Control_c, 5, 11, 49
7, 20886, Note_on_c, 5, 50, 0
7, 21246, Control_c, 5, 11, 47
7, 21246, Note_on_c, 5, 57, 100
7, 21306, Note_on_c, 5, 57, 0
7, 21366, Note_on_c, 5, 62, 100
7, 21426, Note_on_c, 5, 62, 0
7, 21486, Note_on_c, 5, 64, 100
7, 21546, Note_on_c, 5, 64, 0
7, 21966, Note_on_c, 5, 62, 100
7, 22026, Note_on_c, 5, 62, 0
7, 22086, Note_on_c, 5, 57, 100
7, 22146, Note_on_c, 5, 57, 0
7, 22206, Note_on_c, 5, 54, 100
7, 22266, Note_on_c, 5, 54, 0
7, 22686, Note_on_c, 5, 50, 100
7, 22686, Control_c, 5, 11, 87
7, 22701, Control_c, 5, 11, 86
7, 22716, Control_c, 5, 11, 85
7, 22731, Control_c, 5, 11, 84
7, 22746, Control_c, 5, 11, 83
7, 22761, Control_c, 5, 11, 82
7, 22776, Control_c, 5, 11, 81
7, 22791, Control_c, 5, 11, 80
7, 22806, Control_c, 5, 11, 79
7, 22821, Control_c, 5, 11, 78
7, 22836, Control_c, 5, 11, 77
7, 22851, Control_c, 5, 11, 76
7, 22866, Control_c, 5, 11, 75
7, 22881, Control_c, 5, 11, 74
7, 22896, Control_c, 5, 11, 73
7, 22911, Control_c, 5, 11, 72
7, 22926, Control_c, 5, 11, 71
7, 22941, Control_c, 5, 11, 70
7, 22956, Control_c, 5, 11, 69
7, 22971, Control_c, 5, 11, 68
7, 22986, Control_c, 5, 11, 67
7, 22994, Control_c, 5, 11, 64
7, 23003, Control_c, 5, 11, 61
7, 23012, Control_c, 5, 11, 58
7, 23021, Control_c, 5, 11, 55
7, 23030, Control_c, 5, 11, 52
7, 23039, Control_c, 5, 11, 49
7, 23046, Note_on_c, 5, 50, 0
7, 23406, Note_on_c, 5, 50, 100
7, 23406, Control_c, 5, 11, 87
7, 23421, Control_c, 5, 11, 86
7, 23436, Control_c, 5, 11, 85
7, 23451, Control_c, 5, 11, 84
7, 23466, Control_c, 5, 11, 83
7, 23481, Control_c, 5, 11, 82
7, 23496, Control_c, 5, 11, 81
7, 23511, Control_c, 5, 11, 80
7, 23526, Control_c, 5, 11, 79
7, 23541, Control_c, 5, 11, 78
7, 23556, Control_c, 5, 11, 77
7, 23571, Control_c, 5, 11, 76
7, 23586, Control_c, 5, 11, 75
7, 23601, Control_c, 5, 11, 74
7, 23616, Control_c, 5, 11, 73
7, 23631, Control_c, 5, 11, 72
7, 23646, Control_c, 5, 11, 71
7, 23661, Control_c, 5, 11, 70
7, 23676, Control_c, 5, 11, 69
7, 23691, Control_c, 5, 11, 68
7, 23706, Control_c, 5, 11, 67
7, 23714, Control_c, 5, 11, 64
7, 23723, Control_c, 5, 11, 61
7, 23732, Control_c, 5, 11, 58
7, 23741, Control_c, 5, 11, 55
7, 23750, Control_c, 5, 11, 52
7, 23759, Control_c, 5, 11, 49
7, 23766, Note_on_c, 5, 50, 0
7, 28446, Control_c, 5, 11, 47
7, 28446, Note_on_c, 5, 50, 100
7, 28464, Control_c, 5, 11, 48
7, 28482, Control_c, 5, 11, 49
7, 28500, Control_c, 5, 11, 50
7, 28518, Control_c, 5, 11, 51
7, 28536, Control_c, 5, 11, 52
7, 28554, Control_c, 5, 11, 53
7, 28572, Control_c, 5, 11, 54
7, 28590, Control_c, 5, 11, 55
7, 28608, Control_c, 5, 11, 56
7, 28626, Control_c, 5, 11, 57
7, 28644, Control_c, 5, 11, 58
7, 28662, Control_c, 5, 11, 59
7, 28680, Control_c, 5, 11, 60
7, 28698, Control_c, 5, 11, 61
7, 28716, Control_c, 5, 11, 62
7, 28734, Control_c, 5, 11, 63
7, 28752, Control_c, 5, 11, 64
7, 28770, Control_c, 5, 11, 65
7, 28788, Control_c, 5, 11, 66
7, 28806, Control_c, 5, 11, 67
7, 28824, Control_c, 5, 11, 68
7, 28842, Control_c, 5, 11, 69
7, 28860, Control_c, 5, 11, 70
7, 28878, Control_c, 5, 11, 71
7, 28896, Control_c, 5, 11, 72
7, 28914, Control_c, 5, 11, 73
7, 28932, Control_c, 5, 11, 74
7, 28950, Control_c, 5, 11, 75
7, 28968, Control_c, 5, 11, 76
7, 28986, Control_c, 5, 11, 77
7, 29004, Control_c, 5, 11, 78
7, 29022, Control_c, 5, 11, 79
7, 29040, Control_c, 5, 11, 80
7, 29058, Control_c, 5, 11, 81
7, 29076, Control_c, 5, 11, 82
7, 29094, Control_c, 5, 11, 83
7, 29112, Control_c, 5, 11, 84
7, 29130, Control_c, 5, 11, 85
7, 29148, Control_c, 5, 11, 86
7, 29166, Note_on_c, 5, 50, 0
7, 29166, Control_c, 5, 11, 87
7, 29166, Note_on_c, 5, 45, 100
7, 29516, Note_on_c, 5, 45, 0
7, 29526, Note_on_c, 5, 50, 100
7, 29646, Note_on_c, 5, 50, 0
7, 31326, Control_c, 5, 11, 47
7, 31326, Note_on_c, 5, 50, 100
7, 31344, Control_c, 5, 11, 48
7, 31362, Control_c, 5, 11, 49
7, 31380, Control_c, 5, 11, 50
7, 31398, Control_c, 5, 11, 51
7, 31416, Control_c, 5, 11, 52
7, 31434, Control_c, 5, 11, 53
7, 31452, Control_c, 5, 11, 54
7, 31470, Control_c, 5, 11, 55
7, 31488, Control_c, 5, 11, 56
7, 31506, Control_c, 5, 11, 57
7, 31524, Control_c, 5, 11, 58
7, 31542, Control_c, 5, 11, 59
7, 31560, Control_c, 5, 11, 60
7, 31578, Control_c, 5, 11, 61
7, 31596, Control_c, 5, 11, 62
7, 31614, Control_c, 5, 11, 63
7, 31632, Control_c, 5, 11, 64
7, 31650, Control_c, 5, 11, 65
7, 31668, Control_c, 5, 11, 66
7, 31686, Control_c, 5, 11, 67
7, 31704, Control_c, 5, 11, 68
7, 31722, Control_c, 5, 11, 69
7, 31740, Control_c, 5, 11, 70
7, 31758, Control_c, 5, 11, 71
7, 31776, Control_c, 5, 11, 72
7, 31794, Control_c, 5, 11, 73
7, 31812, Control_c, 5, 11, 74
7, 31830, Control_c, 5, 11, 75
7, 31848, Control_c, 5, 11, 76
7, 31866, Control_c, 5, 11, 77
7, 31884, Control_c, 5, 11, 78
7, 31902, Control_c, 5, 11, 79
7, 31920, Control_c, 5, 11, 80
7, 31938, Control_c, 5, 11, 81
7, 31956, Control_c, 5, 11, 82
7, 31974, Control_c, 5, 11, 83
7, 31992, Control_c, 5, 11, 84
7, 32010, Control_c, 5, 11, 85
7, 32028, Control_c, 5, 11, 86
7, 32046, Note_on_c, 5, 50, 0
7, 32046, Control_c, 5, 11, 87
7, 32046, Note_on_c, 5, 45, 100
7, 32396, Note_on_c, 5, 45, 0
7, 32406, Note_on_c, 5, 50, 100
7, 32526, Note_on_c, 5, 50, 0
7, 32766, Note_on_c, 5, 50, 100
7, 32766, Control_c, 5, 11, 47
7, 32784, Control_c, 5, 11, 48
7, 32802, Control_c, 5, 11, 49
7, 32820, Control_c, 5, 11, 50
7, 32838, Control_c, 5, 11, 51
7, 32856, Control_c, 5, 11, 52
7, 32874, Control_c, 5, 11, 53
7, 32892, Control_c, 5, 11, 54
7, 32910, Control_c, 5, 11, 55
7, 32928, Control_c, 5, 11, 56
7, 32946, Control_c, 5, 11, 57
7, 32964, Control_c, 5, 11, 58
7, 32982, Control_c, 5, 11, 59
7, 33000, Control_c, 5, 11, 60
7, 33018, Control_c, 5, 11, 61
7, 33036, Control_c, 5, 11, 62
7, 33054, Control_c, 5, 11, 63
7, 33072, Control_c, 5, 11, 64
7, 33090, Control_c, 5, 11, 65
7, 33108, Control_c, 5, 11, 66
7, 33126, Control_c, 5, 11, 67
7, 33144, Control_c, 5, 11, 68
7, 33162, Control_c, 5, 11, 69
7, 33180, Control_c, 5, 11, 70
7, 33198, Control_c, 5, 11, 71
7, 33216, Control_c, 5, 11, 72
7, 33234, Control_c, 5, 11, 73
7, 33252, Control_c, 5, 11, 74
7, 33270, Control_c, 5, 11, 75
7, 33288, Control_c, 5, 11, 76
7, 33306, Control_c, 5, 11, 77
7, 33324, Control_c, 5, 11, 78
7, 33342, Control_c, 5, 11, 79
7, 33360, Control_c, 5, 11, 80
7, 33378, Control_c, 5, 11, 81
7, 33396, Control_c, 5, 11, 82
7, 33414, Control_c, 5, 11, 83
7, 33432, Control_c, 5, 11, 84
7, 33450, Control_c, 5, 11, 85
7, 33468, Control_c, 5, 11, 86
7, 33486, Note_on_c, 5, 50, 0
7, 33486, Note_on_c, 5, 45, 100
7, 33486, Control_c, 5, 11, 107
7, 33504, Control_c, 5, 11, 104
7, 33522, Control_c, 5, 11, 101
7, 33540, Control_c, 5, 11, 98
7, 33558, Control_c, 5, 11, 95
7, 33576, Control_c, 5, 11, 92
7, 33594, Control_c, 5, 11, 89
7, 33836, Note_on_c, 5, 45, 0
7, 33846, Note_on_c, 5, 50, 100
7, 33956, Note_on_c, 5, 50, 0
7, 33966, Note_on_c, 5, 54, 100
7, 34076, Note_on_c, 5, 54, 0
7, 34086, Note_on_c, 5, 50, 100
7, 34196, Note_on_c, 5, 50, 0
7, 34206, Note_on_c, 5, 45, 100
7, 34206, Control_c, 5, 11, 107
7, 34224, Control_c, 5, 11, 104
7, 34242, Control_c, 5, 11, 101
7, 34260, Control_c, 5, 11, 98
7, 34278, Control_c, 5, 11, 95
7, 34296, Control_c, 5, 11, 92
7, 34314, Control_c, 5, 11, 89
7, 34556, Note_on_c, 5, 45, 0
7, 34566, Note_on_c, 5, 50, 100
7, 34676, Note_on_c, 5, 50, 0
7, 34686, Note_on_c, 5, 54, 100
7, 34796, Note_on_c, 5, 54, 0
7, 34806, Note_on_c, 5, 50, 100
7, 34916, Note_on_c, 5, 50, 0
7, 34926, Note_on_c, 5, 45, 100
7, 34926, Control_c, 5, 11, 107
7, 34944, Control_c, 5, 11, 104
7, 34962, Control_c, 5, 11, 101
7, 34980, Control_c, 5, 11, 98
7, 34998, Control_c, 5, 11, 95
7, 35016, Control_c, 5, 11, 92
7, 35034, Control_c, 5, 11, 89
7, 35396, Note_on_c, 5, 45, 0
7, 35406, Note_on_c, 5, 57, 100
7, 35516, Note_on_c, 5, 57, 0
7, 35526, Note_on_c, 5, 57, 100
7, 35636, Note_on_c, 5, 57, 0
7, 35646, Note_on_c, 5, 54, 100
7, 35766, Note_on_c, 5, 54, 0
7, 35886, Note_on_c, 5, 57, 100
7, 35946, Note_on_c, 5, 57, 0
7, 36006, Note_on_c, 5, 54, 100
7, 36066, Note_on_c, 5, 54, 0
7, 44286, Note_on_c, 5, 50, 100
7, 44286, Control_c, 5, 11, 87
7, 44301, Control_c, 5, 11, 86
7, 44316, Control_c, 5, 11, 85
7, 44331, Control_c, 5, 11, 84
7, 44346, Control_c, 5, 11, 83
7, 44361, Control_c, 5, 11, 82
7, 44376, Control_c, 5, 11, 81
7, 44391, Control_c, 5, 11, 80
7, 44406, Control_c, 5, 11, 79
7, 44421, Control_c, 5, 11, 78
7, 44436, Control_c, 5, 11, 77
7, 44451, Control_c, 5, 11, 76
7, 44466, Control_c, 5, 11, 75
7, 44481, Control_c, 5, 11, 74
7, 44496, Control_c, 5, 11, 73
7, 44511, Control_c, 5, 11, 72
7, 44526, Control_c, 5, 11, 71
7, 44541, Control_c, 5, 11, 70
7, 44556, Control_c, 5, 11, 69
7, 44571, Control_c, 5, 11, 68
7, 44586, Control_c, 5, 11, 67
7, 44594, Control_c, 5, 11, 64
7, 44603, Control_c, 5, 11, 61
7, 44612, Control_c, 5, 11, 58
7, 44621, Control_c, 5, 11, 55
7, 44630, Control_c, 5, 11, 52
7, 44639, Control_c, 5, 11, 49
7, 44646, Note_on_c, 5, 50, 0
7, 45006, Note_on_c, 5, 50, 100
7, 45006, Control_c, 5, 11, 87
7, 45021, Control_c, 5, 11, 86
7, 45036, Control_c, 5, 11, 85
7, 45051, Control_c, 5, 11, 84
7, 45066, Control_c, 5, 11, 83
7, 45081, Control_c, 5, 11, 82
7, 45096, Control_c, 5, 11, 81
7, 45111, Control_c, 5, 11, 80
7, 45126, Control_c, 5, 11, 79
7, 45141, Control_c, 5, 11, 78
7, 45156, Control_c, 5, 11, 77
7, 45171, Control_c, 5, 11, 76
7, 45186, Control_c, 5, 11, 75
7, 45201, Control_c, 5, 11, 74
7, 45216, Control_c, 5, 11, 73
7, 45231, Control_c, 5, 11, 72
7, 45246, Control_c, 5, 11, 71
7, 45261, Control_c, 5, 11, 70
7, 45276, Control_c, 5, 11, 69
7, 45291, Control_c, 5, 11, 68
7, 45306, Control_c, 5, 11, 67
7, 45314, Control_c, 5, 11, 64
7, 45323, Control_c, 5, 11, 61
7, 45332, Control_c, 5, 11, 58
7, 45341, Control_c, 5, 11, 55
7, 45350, Control_c, 5, 11, 52
7, 45359, Control_c, 5, 11, 49
7, 45366, Note_on_c, 5, 50, 0
7, 45726, Note_on_c, 5, 57, 100
7, 45726, Control_c, 5, 11, 47
7, 45786, Note_on_c, 5, 57, 0
7, 45846, Note_on_c, 5, 62, 100
7, 45906, Note_on_c, 5, 62, 0
7, 45966, Note_on_c, 5, 64, 100
7, 46026, Note_on_c, 5, 64, 0
7, 46446, Note_on_c, 5, 62, 100
7, 46506, Note_on_c, 5, 62, 0
7, 46566, Note_on_c, 5, 57, 100
7, 46626, Note_on_c, 5, 57, 0
7, 46686, Note_on_c, 5, 54, 100
7, 46746, Note_on_c, 5, 54, 0
7, 47166, Note_on_c, 5, 50, 100
7, 47166, Control_c, 5, 11, 87
7, 47181, Control_c, 5, 11, 86
7, 47196, Control_c, 5, 11, 85
7, 47211, Control_c, 5, 11, 84
7, 47226, Control_c, 5, 11, 83
7, 47241, Control_c, 5, 11, 82
7, 47256, Control_c, 5, 11, 81
7, 47271, Control_c, 5, 11, 80
7, 47286, Control_c, 5, 11, 79
7, 47301, Control_c, 5, 11, 78
7, 47316, Control_c, 5, 11, 77
7, 47331, Control_c, 5, 11, 76
7, 47346, Control_c, 5, 11, 75
7, 47361, Control_c, 5, 11, 74
7, 47376, Control_c, 5, 11, 73
7, 47391, Control_c, 5, 11, 72
7, 47406, Control_c, 5, 11, 71
7, 47421, Control_c, 5, 11, 70
7, 47436, Control_c, 5, 11, 69
7, 47451, Control_c, 5, 11, 68
7, 47466, Control_c, 5, 11, 67
7, 47474, Control_c, 5, 11, 64
7, 47483, Control_c, 5, 11, 61
7, 47492, Control_c, 5, 11, 58
7, 47501, Control_c, 5, 11, 55
7, 47510, Control_c, 5, 11, 52
7, 47519, Control_c, 5, 11, 49
7, 47526, Note_on_c, 5, 50, 0
7, 47886, Note_on_c, 5, 50, 100
7, 47886, Control_c, 5, 11, 87
7, 47901, Control_c, 5, 11, 86
7, 47916, Control_c, 5, 11, 85
7, 47931, Control_c, 5, 11, 84
7, 47946, Control_c, 5, 11, 83
7, 47961, Control_c, 5, 11, 82
7, 47976, Control_c, 5, 11, 81
7, 47991, Control_c, 5, 11, 80
7, 48006, Control_c, 5, 11, 79
7, 48021, Control_c, 5, 11, 78
7, 48036, Control_c, 5, 11, 77
7, 48051, Control_c, 5, 11, 76
7, 48066, Control_c, 5, 11, 75
7, 48081, Control_c, 5, 11, 74
7, 48096, Control_c, 5, 11, 73
7, 48111, Control_c, 5, 11, 72
7, 48126, Control_c, 5, 11, 71
7, 48141, Control_c, 5, 11, 70
7, 48156, Control_c, 5, 11, 69
7, 48171, Control_c, 5, 11, 68
7, 48186, Control_c, 5, 11, 67
7, 48194, Control_c, 5, 11, 64
7, 48203, Control_c, 5, 11, 61
7, 48212, Control_c, 5, 11, 58
7, 48221, Control_c, 5, 11, 55
7, 48230, Control_c, 5, 11, 52
7, 48239, Control_c, 5, 11, 49
7, 48246, Note_on_c, 5, 50, 0
7, 52926, Note_on_c, 5, 50, 100
7, 52926, Control_c, 5, 11, 47
7, 52944, Control_c, 5, 11, 48
7, 52962, Control_c, 5, 11, 49
7, 52980, Control_c, 5, 11, 50
7, 52998, Control_c, 5, 11, 51
7, 53016, Control_c, 5, 11, 52
7, 53034, Control_c, 5, 11, 53
7, 53052, Control_c, 5, 11, 54
7, 53070, Control_c, 5, 11, 55
7, 53088, Control_c, 5, 11, 56
7, 53106, Control_c, 5, 11, 57
7, 53124, Control_c, 5, 11, 58
7, 53142, Control_c, 5, 11, 59
7, 53160, Control_c, 5, 11, 60
7, 53178, Control_c, 5, 11, 61
7, 53196, Control_c, 5, 11, 62
7, 53214, Control_c, 5, 11, 63
7, 53232, Control_c, 5, 11, 64
7, 53250, Control_c, 5, 11, 65
7, 53268, Control_c, 5, 11, 66
7, 53286, Control_c, 5, 11, 67
7, 53304, Control_c, 5, 11, 68
7, 53322, Control_c, 5, 11, 69
7, 53340, Control_c, 5, 11, 70
7, 53358, Control_c, 5, 11, 71
7, 53376, Control_c, 5, 11, 72
7, 53394, Control_c, 5, 11, 73
7, 53412, Control_c, 5, 11, 74
7, 53430, Control_c, 5, 11, 75
7, 53448, Control_c, 5, 11, 76
7, 53466, Control_c, 5, 11, 77
7, 53484, Control_c, 5, 11, 78
7, 53502, Control_c, 5, 11, 79
7, 53520, Control_c, 5, 11, 80
7, 53538, Control_c, 5, 11, 81
7, 53556, Control_c, 5, 11, 82
7, 53574, Control_c, 5, 11, 83
7, 53592, Control_c, 5, 11, 84
7, 53610, Control_c, 5, 11, 85
7, 53628, Control_c, 5, 11, 86
7, 53646, Note_on_c, 5, 50, 0
7, 53646, Note_on_c, 5, 45, 100
7, 53646, Control_c, 5, 11, 87
7, 53996, Note_on_c, 5, 45, 0
7, 54006, Note_on_c, 5, 50, 100
7, 54126, Note_on_c, 5, 50, 0
7, 55806, Note_on_c, 5, 50, 100
7, 55806, Control_c, 5, 11, 47
7, 55824, Control_c, 5, 11, 48
7, 55842, Control_c, 5, 11, 49
7, 55860, Control_c, 5, 11, 50
7, 55878, Control_c, 5, 11, 51
7, 55896, Control_c, 5, 11, 52
7, 55914, Control_c, 5, 11, 53
7, 55932, Control_c, 5, 11, 54
7, 55950, Control_c, 5, 11, 55
7, 55968, Control_c, 5, 11, 56
7, 55986, Control_c, 5, 11, 57
7, 56004, Control_c, 5, 11, 58
7, 56022, Control_c, 5, 11, 59
7, 56040, Control_c, 5, 11, 60
7, 56058, Control_c, 5, 11, 61
7, 56076, Control_c, 5, 11, 62
7, 56094, Control_c, 5, 11, 63
7, 56112, Control_c, 5, 11, 64
7, 56130, Control_c, 5, 11, 65
7, 56148, Control_c, 5, 11, 66
7, 56166, Control_c, 5, 11, 67
7, 56184, Control_c, 5, 11, 68
7, 56202, Control_c, 5, 11, 69
7, 56220, Control_c, 5, 11, 70
7, 56238, Control_c, 5, 11, 71
7, 56256, Control_c, 5, 11, 72
7, 56274, Control_c, 5, 11, 73
7, 56292, Control_c, 5, 11, 74
7, 56310, Control_c, 5, 11, 75
7, 56328, Control_c, 5, 11, 76
7, 56346, Control_c, 5, 11, 77
7, 56364, Control_c, 5, 11, 78
7, 56382, Control_c, 5, 11, 79
7, 56400, Control_c, 5, 11, 80
7, 56418, Control_c, 5, 11, 81
7, 56436, Control_c, 5, 11, 82
7, 56454, Control_c, 5, 11, 83
7, 56472, Control_c, 5, 11, 84
7, 56490, Control_c, 5, 11, 85
7, 56508, Control_c, 5, 11, 86
7, 56526, Note_on_c, 5, 50, 0
7, 56526, Control_c, 5, 11, 87
7, 56526, Note_on_c, 5, 45, 100
7, 56876, Note_on_c, 5, 45, 0
7, 56886, Note_on_c, 5, 50, 100
7, 57006, Note_on_c, 5, 50, 0
7, 57246, Note_on_c, 5, 50, 100
7, 57246, Control_c, 5, 11, 47
7, 57264, Control_c, 5, 11, 48
7, 57282, Control_c, 5, 11, 49
7, 57300, Control_c, 5, 11, 50
7, 57318, Control_c, 5, 11, 51
7, 57336, Control_c, 5, 11, 52
7, 57354, Control_c, 5, 11, 53
7, 57372, Control_c, 5, 11, 54
7, 57390, Control_c, 5, 11, 55
7, 57408, Control_c, 5, 11, 56
7, 57426, Control_c, 5, 11, 57
7, 57444, Control_c, 5, 11, 58
7, 57462, Control_c, 5, 11, 59
7, 57480, Control_c, 5, 11, 60
7, 57498, Control_c, 5, 11, 61
7, 57516, Control_c, 5, 11, 62
7, 57534, Control_c, 5, 11, 63
7, 57552, Control_c, 5, 11, 64
7, 57570, Control_c, 5, 11, 65
7, 57588, Control_c, 5, 11, 66
7, 57606, Control_c, 5, 11, 67
7, 57624, Control_c, 5, 11, 68
7, 57642, Control_c, 5, 11, 69
7, 57660, Control_c, 5, 11, 70
7, 57678, Control_c, 5, 11, 71
7, 57696, Control_c, 5, 11, 72
7, 57714, Control_c, 5, 11, 73
7, 57732, Control_c, 5, 11, 74
7, 57750, Control_c, 5, 11, 75
7, 57768, Control_c, 5, 11, 76
7, 57786, Control_c, 5, 11, 77
7, 57804, Control_c, 5, 11, 78
7, 57822, Control_c, 5, 11, 79
7, 57840, Control_c, 5, 11, 80
7, 57858, Control_c, 5, 11, 81
7, 57876, Control_c, 5, 11, 82
7, 57894, Control_c, 5, 11, 83
7, 57912, Control_c, 5, 11, 84
7, 57930, Control_c, 5, 11, 85
7, 57948, Control_c, 5, 11, 86
7, 57966, Note_on_c, 5, 50, 0
7, 57966, Control_c, 5, 11, 107
7, 57966, Note_on_c, 5, 45, 100
7, 57984, Control_c, 5, 11, 104
7, 58002, Control_c, 5, 11, 101
7, 58020, Control_c, 5, 11, 98
7, 58038, Control_c, 5, 11, 95
7, 58056, Control_c, 5, 11, 92
7, 58074, Control_c, 5, 11, 89
7, 58316, Note_on_c, 5, 45, 0
7, 58326, Note_on_c, 5, 50, 100
7, 58436, Note_on_c, 5, 50, 0
7, 58446, Note_on_c, 5, 54, 100
7, 58556, Note_on_c, 5, 54, 0
7, 58566, Note_on_c, 5, 50, 100
7, 58676, Note_on_c, 5, 50, 0
7, 58686, Note_on_c, 5, 45, 100
7, 58686, Control_c, 5, 11, 107
7, 58704, Control_c, 5, 11, 104
7, 58722, Control_c, 5, 11, 101
7, 58740, Control_c, 5, 11, 98
7, 58758, Control_c, 5, 11, 95
7, 58776, Control_c, 5, 11, 92
7, 58794, Control_c, 5, 11, 89
7, 59036, Note_on_c, 5, 45, 0
7, 59046, Note_on_c, 5, 50, 100
7, 59156, Note_on_c, 5, 50, 0
7, 59166, Note_on_c, 5, 54, 100
7, 59276, Note_on_c, 5, 54, 0
7, 59286, Note_on_c, 5, 50, 100
7, 59396, Note_on_c, 5, 50, 0
7, 59406, Note_on_c, 5, 45, 100
7, 59406, Control_c, 5, 11, 107
7, 59424, Control_c, 5, 11, 104
7, 59442, Control_c, 5, 11, 101
7, 59460, Control_c, 5, 11, 98
7, 59478, Control_c, 5, 11, 95
7, 59496, Control_c, 5, 11, 92
7, 59514, Control_c, 5, 11, 89
7, 59876, Note_on_c, 5, 45, 0
7, 59886, Note_on_c, 5, 57, 100
7, 59996, Note_on_c, 5, 57, 0
7, 60006, Note_on_c, 5, 57, 100
7, 60116, Note_on_c, 5, 57, 0
7, 60126, Note_on_c, 5, 54, 100
7, 60246, Note_on_c, 5, 54, 0
7, 60366, Note_on_c, 5, 57, 100
7, 60426, Note_on_c, 5, 57, 0
7, 60486, Note_on_c, 5, 54, 100
7, 60546, Note_on_c, 5, 54, 0
7, 62646, Note_on_c, 5, 57, 100
7, 62646, Control_c, 5, 11, 69
7, 62660, Control_c, 5, 11, 72
7, 62674, Control_c, 5, 11, 75
7, 62689, Control_c, 5, 11, 78
7, 62706, Control_c, 5, 11, 77
7, 62724, Control_c, 5, 11, 74
7, 62742, Control_c, 5, 11, 71
7, 62760, Control_c, 5, 11, 68
7, 62778, Control_c, 5, 11, 66
7, 62802, Control_c, 5, 11, 64
7, 62826, Control_c, 5, 11, 62
7, 62850, Control_c, 5, 11, 60
7, 62874, Control_c, 5, 11, 58
7, 62898, Control_c, 5, 11, 56
7, 62922, Control_c, 5, 11, 54
7, 62946, Control_c, 5, 11, 52
7, 62970, Control_c, 5, 11, 50
7, 62986, Note_on_c, 5, 57, 0
7, 62994, Control_c, 5, 11, 48
7, 63006, Note_on_c, 5, 62, 100
7, 63126, Note_on_c, 5, 62, 0
7, 63126, Note_on_c, 5, 64, 100
7, 63226, Note_on_c, 5, 64, 0
7, 63246, Note_on_c, 5, 57, 100
7, 63306, Note_on_c, 5, 57, 0
7, 63366, Note_on_c, 5, 54, 100
7, 63486, Note_on_c, 5, 54, 0
7, 65526, Note_on_c, 5, 57, 100
7, 65526, Control_c, 5, 11, 69
7, 65540, Control_c, 5, 11, 72
7, 65554, Control_c, 5, 11, 75
7, 65569, Control_c, 5, 11, 78
7, 65586, Control_c, 5, 11, 77
7, 65604, Control_c, 5, 11, 74
7, 65622, Control_c, 5, 11, 71
7, 65640, Control_c, 5, 11, 68
7, 65658, Control_c, 5, 11, 66
7, 65682, Control_c, 5, 11, 64
7, 65706, Control_c, 5, 11, 62
7, 65730, Control_c, 5, 11, 60
7, 65754, Control_c, 5, 11, 58
7, 65778, Control_c, 5, 11, 56
7, 65802, Control_c, 5, 11, 54
7, 65826, Control_c, 5, 11, 52
7, 65850, Control_c, 5, 11, 50
7, 65866, Note_on_c, 5, 57, 0
7, 65874, Control_c, 5, 11, 48
7, 65886, Note_on_c, 5, 62, 100
7, 66006, Note_on_c, 5, 62, 0
7, 66006, Note_on_c, 5, 64, 100
7, 66106, Note_on_c, 5, 64, 0
7, 66126, Note_on_c, 5, 57, 100
7, 66186, Note_on_c, 5, 57, 0
7, 66246, Note_on_c, 5, 54, 100
7, 66366, Note_on_c, 5, 54, 0
7, 71646, Note_on_c, 5, 57, 100
7, 71646, Control_c, 5, 11, 102
7, 72366, Note_on_c, 5, 57, 0
7, 72366, Note_on_c, 5, 62, 100
7, 72366, Control_c, 5, 11, 87
7, 72375, Control_c, 5, 11, 84
7, 72384, Control_c, 5, 11, 81
7, 72393, Control_c, 5, 11, 78
7, 72402, Control_c, 5, 11, 75
7, 72411, Control_c, 5, 11, 72
7, 72420, Control_c, 5, 11, 69
7, 72429, Control_c, 5, 11, 66
7, 72438, Control_c, 5, 11, 63
7, 72447, Control_c, 5, 11, 60
7, 72456, Control_c, 5, 11, 57
7, 72465, Control_c, 5, 11, 54
7, 72474, Control_c, 5, 11, 51
7, 72483, Control_c, 5, 11, 48
7, 72486, Note_on_c, 5, 62, 0
7, 73086, Note_on_c, 5, 57, 100
7, 73206, Note_on_c, 5, 57, 0
7, 73206, Note_on_c, 5, 57, 100
7, 73326, Note_on_c, 5, 57, 0
7, 73326, Note_on_c, 5, 57, 100
7, 73446, Note_on_c, 5, 57, 0
7, 73446, Note_on_c, 5, 57, 100
7, 73566, Note_on_c, 5, 57, 0
7, 74166, Control_c, 5, 11, 69
7, 74166, Note_on_c, 5, 57, 100
7, 74180, Control_c, 5, 11, 72
7, 74194, Control_c, 5, 11, 75
7, 74209, Control_c, 5, 11, 78
7, 74226, Control_c, 5, 11, 77
7, 74244, Control_c, 5, 11, 74
7, 74262, Control_c, 5, 11, 71
7, 74280, Control_c, 5, 11, 68
7, 74298, Control_c, 5, 11, 66
7, 74322, Control_c, 5, 11, 64
7, 74346, Control_c, 5, 11, 62
7, 74370, Control_c, 5, 11, 60
7, 74394, Control_c, 5, 11, 58
7, 74418, Control_c, 5, 11, 56
7, 74442, Control_c, 5, 11, 54
7, 74466, Control_c, 5, 11, 52
7, 74490, Control_c, 5, 11, 50
7, 74514, Control_c, 5, 11, 48
7, 74526, Note_on_c, 5, 57, 0
7, 74526, Note_on_c, 5, 62, 100
7, 74646, Note_on_c, 5, 62, 0
7, 74646, Note_on_c, 5, 64, 100
7, 74766, Note_on_c, 5, 64, 0
7, 74766, Note_on_c, 5, 57, 100
7, 74826, Note_on_c, 5, 57, 0
7, 74886, Note_on_c, 5, 54, 100
7, 75006, Note_on_c, 5, 54, 0
7, 75246, Control_c, 5, 11, 47
7, 75246, Note_on_c, 5, 50, 115
7, 75293, Control_c, 5, 11, 48
7, 75341, Control_c, 5, 11, 49
7, 75389, Control_c, 5, 11, 50
7, 75437, Control_c, 5, 11, 51
7, 75485, Control_c, 5, 11, 52
7, 75533, Control_c, 5, 11, 53
7, 75581, Control_c, 5, 11, 54
7, 75629, Control_c, 5, 11, 55
7, 75677, Control_c, 5, 11, 56
7, 75725, Control_c, 5, 11, 57
7, 75773, Control_c, 5, 11, 58
7, 75821, Control_c, 5, 11, 59
7, 75869, Control_c, 5, 11, 60
7, 75917, Control_c, 5, 11, 61
7, 75965, Control_c, 5, 11, 62
7, 75966, Note_on_c, 5, 50, 0
7, 75966, Note_on_c, 5, 50, 115
7, 76086, Note_on_c, 5, 50, 0
7, 76086, Note_on_c, 5, 49, 115
7, 76206, Note_on_c, 5, 49, 0
7, 76206, Note_on_c, 5, 50, 115
7, 76266, Note_on_c, 5, 50, 0
7, 76326, Note_on_c, 5, 45, 115
7, 76446, Note_on_c, 5, 45, 0
7, 77046, Control_c, 5, 11, 79
7, 77046, Note_on_c, 5, 57, 115
7, 77060, Control_c, 5, 11, 82
7, 77074, Control_c, 5, 11, 85
7, 77089, Control_c, 5, 11, 88
7, 77106, Control_c, 5, 11, 87
7, 77124, Control_c, 5, 11, 84
7, 77142, Control_c, 5, 11, 81
7, 77160, Control_c, 5, 11, 78
7, 77178, Control_c, 5, 11, 76
7, 77202, Control_c, 5, 11, 74
7, 77226, Control_c, 5, 11, 72
7, 77250, Control_c, 5, 11, 70
7, 77274, Control_c, 5, 11, 68
7, 77298, Control_c, 5, 11, 66
7, 77322, Control_c, 5, 11, 64
7, 77346, Control_c, 5, 11, 62
7, 77370, Control_c, 5, 11, 60
7, 77394, Control_c, 5, 11, 58
7, 77406, Note_on_c, 5, 57, 0
7, 77406, Note_on_c, 5, 62, 115
7, 77526, Note_on_c, 5, 62, 0
7, 77526, Note_on_c, 5, 64, 115
7, 77646, Note_on_c, 5, 64, 0
7, 77646, Note_on_c, 5, 57, 115
7, 77706, Note_on_c, 5, 57, 0
7, 77766, Note_on_c, 5, 54, 115
7, 77886, Note_on_c, 5, 54, 0
7, 78006, Note_on_c, 5, 57, 100
7, 78066, Note_on_c, 5, 57, 0
7, 78126, Note_on_c, 5, 62, 100
7, 78246, Note_on_c, 5, 62, 0
7, 78246, Note_on_c, 5, 64, 100
7, 78366, Note_on_c, 5, 64, 0
7, 78366, Note_on_c, 5, 57, 100
7, 78426, Note_on_c, 5, 57, 0
7, 78486, Control_c, 5, 11, 57
7, 78486, Note_on_c, 5, 54, 100
7, 78558, Control_c, 5, 11, 58
7, 78606, Note_on_c, 5, 54, 0
7, 78630, Control_c, 5, 11, 59
7, 78702, Control_c, 5, 11, 60
7, 78726, Note_on_c, 5, 57, 100
7, 78774, Control_c, 5, 11, 61
7, 78786, Note_on_c, 5, 57, 0
7, 78846, Control_c, 5, 11, 62
7, 78846, Note_on_c, 5, 62, 100
7, 78918, Control_c, 5, 11, 63
7, 78966, Note_on_c, 5, 62, 0
7, 78966, Note_on_c, 5, 64, 100
7, 78990, Control_c, 5, 11, 64
7, 79062, Control_c, 5, 11, 65
7, 79086, Note_on_c, 5, 64, 0
7, 79086, Note_on_c, 5, 57, 100
7, 79134, Control_c, 5, 11, 66
7, 79146, Note_on_c, 5, 57, 0
7, 79206, Control_c, 5, 11, 67
7, 79206, Note_on_c, 5, 62, 100
7, 79326, Note_on_c, 5, 62, 0
7, 79326, Note_on_c, 5, 64, 100
7, 79446, Note_on_c, 5, 64, 0
7, 79446, Control_c, 5, 11, 47
7, 79446, Note_on_c, 5, 57, 100
7, 79506, Note_on_c, 5, 57, 0
7, 79566, Note_on_c, 5, 62, 100
7, 79686, Note_on_c, 5, 62, 0
7, 79686, Note_on_c, 5, 64, 100
7, 79806, Note_on_c, 5, 64, 0
7, 79806, Note_on_c, 5, 57, 100
7, 79866, Note_on_c, 5, 57, 0
7, 79926, Note_on_c, 5, 54, 100
7, 80046, Note_on_c, 5, 54, 0
7, 85326, Note_on_c, 5, 57, 100
7, 85326, Control_c, 5, 11, 102
7, 86046, Note_on_c, 5, 57, 0
7, 86046, Note_on_c, 5, 62, 100
7, 86046, Control_c, 5, 11, 87
7, 86055, Control_c, 5, 11, 84
7, 86064, Control_c, 5, 11, 81
7, 86073, Control_c, 5, 11, 78
7, 86082, Control_c, 5, 11, 75
7, 86091, Control_c, 5, 11, 72
7, 86100, Control_c, 5, 11, 69
7, 86109, Control_c, 5, 11, 66
7, 86118, Control_c, 5, 11, 63
7, 86127, Control_c, 5, 11, 60
7, 86136, Control_c, 5, 11, 57
7, 86145, Control_c, 5, 11, 54
7, 86154, Control_c, 5, 11, 51
7, 86163, Control_c, 5, 11, 48
7, 86166, Note_on_c, 5, 62, 0
7, 86766, Note_on_c, 5, 57, 100
7, 86886, Note_on_c, 5, 57, 0
7, 86886, Note_on_c, 5, 57, 100
7, 87006, Note_on_c, 5, 57, 0
7, 87006, Note_on_c, 5, 57, 100
7, 87126, Note_on_c, 5, 57, 0
7, 87126, Note_on_c, 5, 57, 100
7, 87246, Note_on_c, 5, 57, 0
7, 87846, Note_on_c, 5, 57, 100
7, 87846, Control_c, 5, 11, 69
7, 87860, Control_c, 5, 11, 72
7, 87874, Control_c, 5, 11, 75
7, 87889, Control_c, 5, 11, 78
7, 87906, Control_c, 5, 11, 77
7, 87924, Control_c, 5, 11, 74
7, 87942, Control_c, 5, 11, 71
7, 87960, Control_c, 5, 11, 68
7, 87978, Control_c, 5, 11, 66
7, 88002, Control_c, 5, 11, 64
7, 88026, Control_c, 5, 11, 62
7, 88050, Control_c, 5, 11, 60
7, 88074, Control_c, 5, 11, 58
7, 88098, Control_c, 5, 11, 56
7, 88122, Control_c, 5, 11, 54
7, 88146, Control_c, 5, 11, 52
7, 88170, Control_c, 5, 11, 50
7, 88194, Control_c, 5, 11, 48
7, 88206, Note_on_c, 5, 57, 0
7, 88206, Note_on_c, 5, 62, 100
7, 88326, Note_on_c, 5, 62, 0
7, 88326, Note_on_c, 5, 64, 100
7, 88446, Note_on_c, 5, 64, 0
7, 88446, Note_on_c, 5, 57, 100
7, 88506, Note_on_c, 5, 57, 0
7, 88566, Note_on_c, 5, 54, 100
7, 88686, Note_on_c, 5, 54, 0
7, 88926, Note_on_c, 5, 50, 115
7, 88926, Control_c, 5, 11, 47
7, 88973, Control_c, 5, 11, 48
7, 89021, Control_c, 5, 11, 49
7, 89069, Control_c, 5, 11, 50
7, 89117, Control_c, 5, 11, 51
7, 89165, Control_c, 5, 11, 52
7, 89213, Control_c, 5, 11, 53
7, 89261, Control_c, 5, 11, 54
7, 89309, Control_c, 5, 11, 55
7, 89357, Control_c, 5, 11, 56
7, 89405, Control_c, 5, 11, 57
7, 89453, Control_c, 5, 11, 58
7, 89501, Control_c, 5, 11, 59
7, 89549, Control_c, 5, 11, 60
7, 89597, Control_c, 5, 11, 61
7, 89645, Control_c, 5, 11, 62
7, 89646, Note_on_c, 5, 50, 0
7, 89646, Note_on_c, 5, 50, 115
7, 89766, Note_on_c, 5, 50, 0
7, 89766, Note_on_c, 5, 49, 115
7, 89886, Note_on_c, 5, 49, 0
7, 89886, Note_on_c, 5, 50, 115
7, 89946, Note_on_c, 5, 50, 0
7, 90006, Note_on_c, 5, 45, 115
7, 90126, Note_on_c, 5, 45, 0
7, 90726, Note_on_c, 5, 57, 115
7, 90726, Control_c, 5, 11, 79
7, 90740, Control_c, 5, 11, 82
7, 90754, Control_c, 5, 11, 85
7, 90769, Control_c, 5, 11, 88
7, 90786, Control_c, 5, 11, 87
7, 90804, Control_c, 5, 11, 84
7, 90822, Control_c, 5, 11, 81
7, 90840, Control_c, 5, 11, 78
7, 90858, Control_c, 5, 11, 76
7, 90882, Control_c, 5, 11, 74
7, 90906, Control_c, 5, 11, 72
7, 90930, Control_c, 5, 11, 70
7, 90954, Control_c, 5, 11, 68
7, 90978, Control_c, 5, 11, 66
7, 91002, Control_c, 5, 11, 64
7, 91026, Control_c, 5, 11, 62
7, 91050, Control_c, 5, 11, 60
7, 91074, Control_c, 5, 11, 58
7, 91086, Note_on_c, 5, 57, 0
7, 91086, Note_on_c, 5, 62, 115
7, 91206, Note_on_c, 5, 62, 0
7, 91206, Note_on_c, 5, 64, 115
7, 91326, Note_on_c, 5, 64, 0
7, 91326, Note_on_c, 5, 57, 115
7, 91386, Note_on_c, 5, 57, 0
7, 91446, Note_on_c, 5, 54, 115
7, 91566, Note_on_c, 5, 54, 0
7, 91686, Note_on_c, 5, 57, 100
7, 91746, Note_on_c, 5, 57, 0
7, 91806, Note_on_c, 5, 62, 100
7, 91926, Note_on_c, 5, 62, 0
7, 91926, Note_on_c, 5, 64, 100
7, 92046, Note_on_c, 5, 64, 0
7, 92046, Note_on_c, 5, 57, 100
7, 92106, Note_on_c, 5, 57, 0
7, 92166, Control_c, 5, 11, 57
7, 92166, Note_on_c, 5, 54, 100
7, 92238, Control_c, 5, 11, 58
7, 92286, Note_on_c, 5, 54, 0
7, 92310, Control_c, 5, 11, 59
7, 92382, Control_c, 5, 11, 60
7, 92406, Note_on_c, 5, 57, 100
7, 92454, Control_c, 5, 11, 61
7, 92466, Note_on_c, 5, 57, 0
7, 92526, Note_on_c, 5, 62, 100
7, 92526, Control_c, 5, 11, 62
7, 92598, Control_c, 5, 11, 63
7, 92646, Note_on_c, 5, 62, 0
7, 92646, Note_on_c, 5, 64, 100
7, 92670, Control_c, 5, 11, 64
7, 92742, Control_c, 5, 11, 65
7, 92766, Note_on_c, 5, 64, 0
7, 92766, Note_on_c, 5, 57, 100
7, 92814, Control_c, 5, 11, 66
7, 92826, Note_on_c, 5, 57, 0
7, 92886, Note_on_c, 5, 62, 100
7, 92886, Control_c, 5, 11, 67
7, 93006, Note_on_c, 5, 62, 0
7, 93006, Note_on_c, 5, 64, 100
7, 93126, Note_on_c, 5, 64, 0
7, 93126, Note_on_c, 5, 57, 100
7, 93126, Control_c, 5, 11, 47
7, 93186, Note_on_c, 5, 57, 0
7, 93246, Note_on_c, 5, 62, 100
7, 93366, Note_on_c, 5, 62, 0
7, 93366, Note_on_c, 5, 64, 100
7, 93486, Note_on_c, 5, 64, 0
7, 93486, Note_on_c, 5, 57, 100
7, 93546, Note_on_c, 5, 57, 0
7, 93606, Note_on_c, 5, 54, 100
7, 93726, Note_on_c, 5, 54, 0
7, 93966, Note_on_c, 5, 50, 94
7, 93966, Control_c, 5, 11, 87
7, 93981, Control_c, 5, 11, 86
7, 93996, Control_c, 5, 11, 85
7, 94011, Control_c, 5, 11, 84
7, 94026, Control_c, 5, 11, 83
7, 94041, Control_c, 5, 11, 82
7, 94056, Control_c, 5, 11, 81
7, 94071, Control_c, 5, 11, 80
7, 94086, Control_c, 5, 11, 79
7, 94101, Control_c, 5, 11, 78
7, 94116, Control_c, 5, 11, 77
7, 94131, Control_c, 5, 11, 76
7, 94146, Control_c, 5, 11, 75
7, 94161, Control_c, 5, 11, 74
7, 94176, Control_c, 5, 11, 73
7, 94191, Control_c, 5, 11, 72
7, 94206, Control_c, 5, 11, 71
7, 94221, Control_c, 5, 11, 70
7, 94236, Control_c, 5, 11, 69
7, 94251, Control_c, 5, 11, 68
7, 94266, Control_c, 5, 11, 67
7, 94274, Control_c, 5, 11, 64
7, 94283, Control_c, 5, 11, 61
7, 94292, Control_c, 5, 11, 58
7, 94301, Control_c, 5, 11, 55
7, 94310, Control_c, 5, 11, 52
7, 94319, Control_c, 5, 11, 49
7, 94326, Note_on_c, 5, 50, 0
7, 94686, Note_on_c, 5, 50, 94
7, 94686, Control_c, 5, 11, 87
7, 94701, Control_c, 5, 11, 86
7, 94716, Control_c, 5, 11, 85
7, 94731, Control_c, 5, 11, 84
7, 94746, Control_c, 5, 11, 83
7, 94761, Control_c, 5, 11, 82
7, 94776, Control_c, 5, 11, 81
7, 94791, Control_c, 5, 11, 80
7, 94806, Control_c, 5, 11, 79
7, 94821, Control_c, 5, 11, 78
7, 94836, Control_c, 5, 11, 77
7, 94851, Control_c, 5, 11, 76
7, 94866, Control_c, 5, 11, 75
7, 94881, Control_c, 5, 11, 74
7, 94896, Control_c, 5, 11, 73
7, 94911, Control_c, 5, 11, 72
7, 94926, Control_c, 5, 11, 71
7, 94941, Control_c, 5, 11, 70
7, 94956, Control_c, 5, 11, 69
7, 94971, Control_c, 5, 11, 68
7, 94986, Control_c, 5, 11, 67
7, 94994, Control_c, 5, 11, 64
7, 95003, Control_c, 5, 11, 61
7, 95012, Control_c, 5, 11, 58
7, 95021, Control_c, 5, 11, 55
7, 95030, Control_c, 5, 11, 52
7, 95039, Control_c, 5, 11, 49
7, 95046, Note_on_c, 5, 50, 0
7, 95406, Note_on_c, 5, 57, 94
7, 95406, Control_c, 5, 11, 47
7, 95466, Note_on_c, 5, 57, 0
7, 95526, Note_on_c, 5, 62, 94
7, 95586, Note_on_c, 5, 62, 0
7, 95646, Note_on_c, 5, 64, 94
7, 95706, Note_on_c, 5, 64, 0
7, 96126, Note_on_c, 5, 62, 94
7, 96186, Note_on_c, 5, 62, 0
7, 96246, Note_on_c, 5, 57, 94
7, 96306, Note_on_c, 5, 57, 0
7, 96366, Note_on_c, 5, 54, 94
7, 96426, Note_on_c, 5, 54, 0
7, 96846, Note_on_c, 5, 50, 94
7, 96846, Control_c, 5, 11, 87
7, 96861, Control_c, 5, 11, 86
7, 96876, Control_c, 5, 11, 85
7, 96891, Control_c, 5, 11, 84
7, 96906, Control_c, 5, 11, 83
7, 96921, Control_c, 5, 11, 82
7, 96936, Control_c, 5, 11, 81
7, 96951, Control_c, 5, 11, 80
7, 96966, Control_c, 5, 11, 79
7, 96981, Control_c, 5, 11, 78
7, 96996, Control_c, 5, 11, 77
7, 97011, Control_c, 5, 11, 76
7, 97026, Control_c, 5, 11, 75
7, 97041, Control_c, 5, 11, 74
7, 97056, Control_c, 5, 11, 73
7, 97071, Control_c, 5, 11, 72
7, 97086, Control_c, 5, 11, 71
7, 97101, Control_c, 5, 11, 70
7, 97116, Control_c, 5, 11, 69
7, 97131, Control_c, 5, 11, 68
7, 97146, Control_c, 5, 11, 67
7, 97154, Control_c, 5, 11, 64
7, 97163, Control_c, 5, 11, 61
7, 97172, Control_c, 5, 11, 58
7, 97181, Control_c, 5, 11, 55
7, 97190, Control_c, 5, 11, 52
7, 97199, Control_c, 5, 11, 49
7, 97206, Note_on_c, 5, 50, 0
7, 97566, Note_on_c, 5, 50, 94
7, 97566, Control_c, 5, 11, 87
7, 97581, Control_c, 5, 11, 86
7, 97596, Control_c, 5, 11, 85
7, 97611, Control_c, 5, 11, 84
7, 97626, Control_c, 5, 11, 83
7, 97641, Control_c, 5, 11, 82
7, 97656, Control_c, 5, 11, 81
7, 97671, Control_c, 5, 11, 80
7, 97686, Control_c, 5, 11, 79
7, 97701, Control_c, 5, 11, 78
7, 97716, Control_c, 5, 11, 77
7, 97731, Control_c, 5, 11, 76
7, 97746, Control_c, 5, 11, 75
7, 97761, Control_c, 5, 11, 74
7, 97776, Control_c, 5, 11, 73
7, 97791, Control_c, 5, 11, 72
7, 97806, Control_c, 5, 11, 71
7, 97821, Control_c, 5, 11, 70
7, 97836, Control_c, 5, 11, 69
7, 97851, Control_c, 5, 11, 68
7, 97866, Control_c, 5, 11, 67
7, 97874, Control_c, 5, 11, 64
7, 97883, Control_c, 5, 11, 61
7, 97892, Control_c, 5, 11, 58
7, 97901, Control_c, 5, 11, 55
7, 97910, Control_c, 5, 11, 52
7, 97919, Control_c, 5, 11, 49
7, 97926, Note_on_c, 5, 50, 0
7, 99366, Note_on_c, 5, 64, 94
7, 99366, Control_c, 5, 11, 102
7, 99426, Note_on_c, 5, 64, 0
7, 99486, Note_on_c, 5, 64, 94
7, 99546, Note_on_c, 5, 64, 0
7, 99606, Note_on_c, 5, 64, 94
7, 99666, Note_on_c, 5, 64, 0
7, 99726, Note_on_c, 5, 50, 94
7, 99726, Control_c, 5, 11, 87
7, 99741, Control_c, 5, 11, 86
7, 99756, Control_c, 5, 11, 85
7, 99771, Control_c, 5, 11, 84
7, 99786, Control_c, 5, 11, 83
7, 99801, Control_c, 5, 11, 82
7, 99816, Control_c, 5, 11, 81
7, 99831, Control_c, 5, 11, 80
7, 99846, Control_c, 5, 11, 79
7, 99861, Control_c, 5, 11, 78
7, 99876, Control_c, 5, 11, 77
7, 99891, Control_c, 5, 11, 76
7, 99906, Control_c, 5, 11, 75
7, 99921, Control_c, 5, 11, 74
7, 99936, Control_c, 5, 11, 73
7, 99951, Control_c, 5, 11, 72
7, 99966, Control_c, 5, 11, 71
7, 99981, Control_c, 5, 11, 70
7, 99996, Control_c, 5, 11, 69
7, 100011, Control_c, 5, 11, 68
7, 100026, Control_c, 5, 11, 67
7, 100034, Control_c, 5, 11, 64
7, 100043, Control_c, 5, 11, 61
7, 100052, Control_c, 5, 11, 58
7, 100061, Control_c, 5, 11, 55
7, 100070, Control_c, 5, 11, 52
7, 100079, Control_c, 5, 11, 49
7, 100086, Note_on_c, 5, 50, 0
7, 100446, Note_on_c, 5, 50, 94
7, 100446, Control_c, 5, 11, 87
7, 100461, Control_c, 5, 11, 86
7, 100476, Control_c, 5, 11, 85
7, 100491, Control_c, 5, 11, 84
7, 100506, Control_c, 5, 11, 83
7, 100521, Control_c, 5, 11, 82
7, 100536, Control_c, 5, 11, 81
7, 100551, Control_c, 5, 11, 80
7, 100566, Control_c, 5, 11, 79
7, 100581, Control_c, 5, 11, 78
7, 100596, Control_c, 5, 11, 77
7, 100611, Control_c, 5, 11, 76
7, 100626, Control_c, 5, 11, 75
7, 100641, Control_c, 5, 11, 74
7, 100656, Control_c, 5, 11, 73
7, 100671, Control_c, 5, 11, 72
7, 100686, Control_c, 5, 11, 71
7, 100701, Control_c, 5, 11, 70
7, 100716, Control_c, 5, 11, 69
7, 100731, Control_c, 5, 11, 68
7, 100746, Control_c, 5, 11, 67
7, 100754, Control_c, 5, 11, 64
7, 100763, Control_c, 5, 11, 61
7, 100772, Control_c, 5, 11, 58
7, 100781, Control_c, 5, 11, 55
7, 100790, Control_c, 5, 11, 52
7, 100799, Control_c, 5, 11, 49
7, 100806, Note_on_c, 5, 50, 0
7, 101166, Note_on_c, 5, 57, 94
7, 101166, Control_c, 5, 11, 47
7, 101226, Note_on_c, 5, 57, 0
7, 101286, Note_on_c, 5, 62, 94
7, 101346, Note_on_c, 5, 62, 0
7, 101406, Note_on_c, 5, 64, 94
7, 101466, Note_on_c, 5, 64, 0
7, 101886, Note_on_c, 5, 62, 94
7, 101946, Note_on_c, 5, 62, 0
7, 102006, Note_on_c, 5, 57, 94
7, 102066, Note_on_c, 5, 57, 0
7, 102126, Note_on_c, 5, 54, 94
7, 102186, Note_on_c, 5, 54, 0
7, 102606, Control_c, 5, 11, 87
7, 102606, Note_on_c, 5, 50, 94
7, 102621, Control_c, 5, 11, 86
7, 102636, Control_c, 5, 11, 85
7, 102651, Control_c, 5, 11, 84
7, 102666, Control_c, 5, 11, 83
7, 102681, Control_c, 5, 11, 82
7, 102696, Control_c, 5, 11, 81
7, 102711, Control_c, 5, 11, 80
7, 102726, Control_c, 5, 11, 79
7, 102741, Control_c, 5, 11, 78
7, 102756, Control_c, 5, 11, 77
7, 102771, Control_c, 5, 11, 76
7, 102786, Control_c, 5, 11, 75
7, 102801, Control_c, 5, 11, 74
7, 102816, Control_c, 5, 11, 73
7, 102831, Control_c, 5, 11, 72
7, 102846, Control_c, 5, 11, 71
7, 102861, Control_c, 5, 11, 70
7, 102876, Control_c, 5, 11, 69
7, 102891, Control_c, 5, 11, 68
7, 102906, Control_c, 5, 11, 67
7, 102914, Control_c, 5, 11, 64
7, 102923, Control_c, 5, 11, 61
7, 102932, Control_c, 5, 11, 58
7, 102941, Control_c, 5, 11, 55
7, 102950, Control_c, 5, 11, 52
7, 102959, Control_c, 5, 11, 49
7, 102966, Note_on_c, 5, 50, 0
7, 103326, Note_on_c, 5, 50, 94
7, 103326, Control_c, 5, 11, 87
7, 103341, Control_c, 5, 11, 86
7, 103356, Control_c, 5, 11, 85
7, 103371, Control_c, 5, 11, 84
7, 103386, Control_c, 5, 11, 83
7, 103401, Control_c, 5, 11, 82
7, 103416, Control_c, 5, 11, 81
7, 103431, Control_c, 5, 11, 80
7, 103446, Control_c, 5, 11, 79
7, 103461, Control_c, 5, 11, 78
7, 103476, Control_c, 5, 11, 77
7, 103491, Control_c, 5, 11, 76
7, 103506, Control_c, 5, 11, 75
7, 103521, Control_c, 5, 11, 74
7, 103536, Control_c, 5, 11, 73
7, 103551, Control_c, 5, 11, 72
7, 103566, Control_c, 5, 11, 71
7, 103581, Control_c, 5, 11, 70
7, 103596, Control_c, 5, 11, 69
7, 103611, Control_c, 5, 11, 68
7, 103626, Control_c, 5, 11, 67
7, 103634, Control_c, 5, 11, 64
7, 103643, Control_c, 5, 11, 61
7, 103652, Control_c, 5, 11, 58
7, 103661, Control_c, 5, 11, 55
7, 103670, Control_c, 5, 11, 52
7, 103679, Control_c, 5, 11, 49
7, 103686, Note_on_c, 5, 50, 0
7, 105126, Note_on_c, 5, 64, 94
7, 105126, Control_c, 5, 11, 102
7, 105186, Note_on_c, 5, 64, 0
7, 105246, Note_on_c, 5, 64, 94
7, 105306, Note_on_c, 5, 64, 0
7, 105366, Note_on_c, 5, 64, 94
7, 105426, Note_on_c, 5, 64, 0
7, 113406, Note_on_c, 5, 50, 100
7, 113406, Control_c, 5, 11, 87
7, 113421, Control_c, 5, 11, 86
7, 113436, Control_c, 5, 11, 85
7, 113451, Control_c, 5, 11, 84
7, 113466, Control_c, 5, 11, 83
7, 113481, Control_c, 5, 11, 82
7, 113496, Control_c, 5, 11, 81
7, 113511, Control_c, 5, 11, 80
7, 113526, Control_c, 5, 11, 79
7, 113541, Control_c, 5, 11, 78
7, 113556, Control_c, 5, 11, 77
7, 113571, Control_c, 5, 11, 76
7, 113586, Control_c, 5, 11, 75
7, 113601, Control_c, 5, 11, 74
7, 113616, Control_c, 5, 11, 73
7, 113631, Control_c, 5, 11, 72
7, 113646, Control_c, 5, 11, 71
7, 113661, Control_c, 5, 11, 70
7, 113676, Control_c, 5, 11, 69
7, 113691, Control_c, 5, 11, 68
7, 113706, Control_c, 5, 11, 67
7, 113714, Control_c, 5, 11, 64
7, 113723, Control_c, 5, 11, 61
7, 113732, Control_c, 5, 11, 58
7, 113741, Control_c, 5, 11, 55
7, 113750, Control_c, 5, 11, 52
7, 113759, Control_c, 5, 11, 49
7, 113766, Note_on_c, 5, 50, 0
7, 114126, Note_on_c, 5, 50, 100
7, 114126, Control_c, 5, 11, 87
7, 114141, Control_c, 5, 11, 86
7, 114156, Control_c, 5, 11, 85
7, 114171, Control_c, 5, 11, 84
7, 114186, Control_c, 5, 11, 83
7, 114201, Control_c, 5, 11, 82
7, 114216, Control_c, 5, 11, 81
7, 114231, Control_c, 5, 11, 80
7, 114246, Control_c, 5, 11, 79
7, 114261, Control_c, 5, 11, 78
7, 114276, Control_c, 5, 11, 77
7, 114291, Control_c, 5, 11, 76
7, 114306, Control_c, 5, 11, 75
7, 114321, Control_c, 5, 11, 74
7, 114336, Control_c, 5, 11, 73
7, 114351, Control_c, 5, 11, 72
7, 114366, Control_c, 5, 11, 71
7, 114381, Control_c, 5, 11, 70
7, 114396, Control_c, 5, 11, 69
7, 114411, Control_c, 5, 11, 68
7, 114426, Control_c, 5, 11, 67
7, 114434, Control_c, 5, 11, 64
7, 114443, Control_c, 5, 11, 61
7, 114452, Control_c, 5, 11, 58
7, 114461, Control_c, 5, 11, 55
7, 114470, Control_c, 5, 11, 52
7, 114479, Control_c, 5, 11, 49
7, 114486, Note_on_c, 5, 50, 0
7, 114846, Note_on_c, 5, 57, 100
7, 114846, Control_c, 5, 11, 47
7, 114906, Note_on_c, 5, 57, 0
7, 114966, Note_on_c, 5, 62, 100
7, 115026, Note_on_c, 5, 62, 0
7, 115086, Note_on_c, 5, 64, 100
7, 115146, Note_on_c, 5, 64, 0
7, 115566, Note_on_c, 5, 62, 100
7, 115626, Note_on_c, 5, 62, 0
7, 115686, Note_on_c, 5, 57, 100
7, 115746, Note_on_c, 5, 57, 0
7, 115806, Note_on_c, 5, 54, 100
7, 115866, Note_on_c, 5, 54, 0
7, 116286, Control_c, 5, 11, 87
7, 116286, Note_on_c, 5, 50, 100
7, 116301, Control_c, 5, 11, 86
7, 116316, Control_c, 5, 11, 85
7, 116331, Control_c, 5, 11, 84
7, 116346, Control_c, 5, 11, 83
7, 116361, Control_c, 5, 11, 82
7, 116376, Control_c, 5, 11, 81
7, 116391, Control_c, 5, 11, 80
7, 116406, Control_c, 5, 11, 79
7, 116421, Control_c, 5, 11, 78
7, 116436, Control_c, 5, 11, 77
7, 116451, Control_c, 5, 11, 76
7, 116466, Control_c, 5, 11, 75
7, 116481, Control_c, 5, 11, 74
7, 116496, Control_c, 5, 11, 73
7, 116511, Control_c, 5, 11, 72
7, 116526, Control_c, 5, 11, 71
7, 116541, Control_c, 5, 11, 70
7, 116556, Control_c, 5, 11, 69
7, 116571, Control_c, 5, 11, 68
7, 116586, Control_c, 5, 11, 67
7, 116594, Control_c, 5, 11, 64
7, 116603, Control_c, 5, 11, 61
7, 116612, Control_c, 5, 11, 58
7, 116621, Control_c, 5, 11, 55
7, 116630, Control_c, 5, 11, 52
7, 116639, Control_c, 5, 11, 49
7, 116646, Note_on_c, 5, 50, 0
7, 117006, Note_on_c, 5, 50, 100
7, 117006, Control_c, 5, 11, 87
7, 117021, Control_c, 5, 11, 86
7, 117036, Control_c, 5, 11, 85
7, 117051, Control_c, 5, 11, 84
7, 117066, Control_c, 5, 11, 83
7, 117081, Control_c, 5, 11, 82
7, 117096, Control_c, 5, 11, 81
7, 117111, Control_c, 5, 11, 80
7, 117126, Control_c, 5, 11, 79
7, 117141, Control_c, 5, 11, 78
7, 117156, Control_c, 5, 11, 77
7, 117171, Control_c, 5, 11, 76
7, 117186, Control_c, 5, 11, 75
7, 117201, Control_c, 5, 11, 74
7, 117216, Control_c, 5, 11, 73
7, 117231, Control_c, 5, 11, 72
7, 117246, Control_c, 5, 11, 71
7, 117261, Control_c, 5, 11, 70
7, 117276, Control_c, 5, 11, 69
7, 117291, Control_c, 5, 11, 68
7, 117306, Control_c, 5, 11, 67
7, 117314, Control_c, 5, 11, 64
7, 117323, Control_c, 5, 11, 61
7, 117332, Control_c, 5, 11, 58
7, 117341, Control_c, 5, 11, 55
7, 117350, Control_c, 5, 11, 52
7, 117359, Control_c, 5, 11, 49
7, 117366, Note_on_c, 5, 50, 0
7, 122046, Note_on_c, 5, 50, 100
7, 122046, Control_c, 5, 11, 47
7, 122064, Control_c, 5, 11, 48
7, 122082, Control_c, 5, 11, 49
7, 122100, Control_c, 5, 11, 50
7, 122118, Control_c, 5, 11, 51
7, 122136, Control_c, 5, 11, 52
7, 122154, Control_c, 5, 11, 53
7, 122172, Control_c, 5, 11, 54
7, 122190, Control_c, 5, 11, 55
7, 122208, Control_c, 5, 11, 56
7, 122226, Control_c, 5, 11, 57
7, 122244, Control_c, 5, 11, 58
7, 122262, Control_c, 5, 11, 59
7, 122280, Control_c, 5, 11, 60
7, 122298, Control_c, 5, 11, 61
7, 122316, Control_c, 5, 11, 62
7, 122334, Control_c, 5, 11, 63
7, 122352, Control_c, 5, 11, 64
7, 122370, Control_c, 5, 11, 65
7, 122388, Control_c, 5, 11, 66
7, 122406, Control_c, 5, 11, 67
7, 122424, Control_c, 5, 11, 68
7, 122442, Control_c, 5, 11, 69
7, 122460, Control_c, 5, 11, 70
7, 122478, Control_c, 5, 11, 71
7, 122496, Control_c, 5, 11, 72
7, 122514, Control_c, 5, 11, 73
7, 122532, Control_c, 5, 11, 74
7, 122550, Control_c, 5, 11, 75
7, 122568, Control_c, 5, 11, 76
7, 122586, Control_c, 5, 11, 77
7, 122604, Control_c, 5, 11, 78
7, 122622, Control_c, 5, 11, 79
7, 122640, Control_c, 5, 11, 80
7, 122658, Control_c, 5, 11, 81
7, 122676, Control_c, 5, 11, 82
7, 122694, Control_c, 5, 11, 83
7, 122712, Control_c, 5, 11, 84
7, 122730, Control_c, 5, 11, 85
7, 122748, Control_c, 5, 11, 86
7, 122766, Note_on_c, 5, 50, 0
7, 122766, Control_c, 5, 11, 87
7, 122766, Note_on_c, 5, 45, 100
7, 123116, Note_on_c, 5, 45, 0
7, 123126, Note_on_c, 5, 50, 100
7, 123246, Note_on_c, 5, 50, 0
7, 124926, Note_on_c, 5, 50, 100
7, 124926, Control_c, 5, 11, 47
7, 124944, Control_c, 5, 11, 48
7, 124962, Control_c, 5, 11, 49
7, 124980, Control_c, 5, 11, 50
7, 124998, Control_c, 5, 11, 51
7, 125016, Control_c, 5, 11, 52
7, 125034, Control_c, 5, 11, 53
7, 125052, Control_c, 5, 11, 54
7, 125070, Control_c, 5, 11, 55
7, 125088, Control_c, 5, 11, 56
7, 125106, Control_c, 5, 11, 57
7, 125124, Control_c, 5, 11, 58
7, 125142, Control_c, 5, 11, 59
7, 125160, Control_c, 5, 11, 60
7, 125178, Control_c, 5, 11, 61
7, 125196, Control_c, 5, 11, 62
7, 125214, Control_c, 5, 11, 63
7, 125232, Control_c, 5, 11, 64
7, 125250, Control_c, 5, 11, 65
7, 125268, Control_c, 5, 11, 66
7, 125286, Control_c, 5, 11, 67
7, 125304, Control_c, 5, 11, 68
7, 125322, Control_c, 5, 11, 69
7, 125340, Control_c, 5, 11, 70
7, 125358, Control_c, 5, 11, 71
7, 125376, Control_c, 5, 11, 72
7, 125394, Control_c, 5, 11, 73
7, 125412, Control_c, 5, 11, 74
7, 125430, Control_c, 5, 11, 75
7, 125448, Control_c, 5, 11, 76
7, 125466, Control_c, 5, 11, 77
7, 125484, Control_c, 5, 11, 78
7, 125502, Control_c, 5, 11, 79
7, 125520, Control_c, 5, 11, 80
7, 125538, Control_c, 5, 11, 81
7, 125556, Control_c, 5, 11, 82
7, 125574, Control_c, 5, 11, 83
7, 125592, Control_c, 5, 11, 84
7, 125610, Control_c, 5, 11, 85
7, 125628, Control_c, 5, 11, 86
7, 125646, Note_on_c, 5, 50, 0
7, 125646, Control_c, 5, 11, 87
7, 125646, Note_on_c, 5, 45, 100
7, 125996, Note_on_c, 5, 45, 0
7, 126006, Note_on_c, 5, 50, 100
7, 126126, Note_on_c, 5, 50, 0
7, 126366, Control_c, 5, 11, 47
7, 126366, Note_on_c, 5, 50, 100
7, 126384, Control_c, 5, 11, 48
7, 126402, Control_c, 5, 11, 49
7, 126420, Control_c, 5, 11, 50
7, 126438, Control_c, 5, 11, 51
7, 126456, Control_c, 5, 11, 52
7, 126474, Control_c, 5, 11, 53
7, 126492, Control_c, 5, 11, 54
7, 126510, Control_c, 5, 11, 55
7, 126528, Control_c, 5, 11, 56
7, 126546, Control_c, 5, 11, 57
7, 126564, Control_c, 5, 11, 58
7, 126582, Control_c, 5, 11, 59
7, 126600, Control_c, 5, 11, 60
7, 126618, Control_c, 5, 11, 61
7, 126636, Control_c, 5, 11, 62
7, 126654, Control_c, 5, 11, 63
7, 126672, Control_c, 5, 11, 64
7, 126690, Control_c, 5, 11, 65
7, 126708, Control_c, 5, 11, 66
7, 126726, Control_c, 5, 11, 67
7, 126744, Control_c, 5, 11, 68
7, 126762, Control_c, 5, 11, 69
7, 126780, Control_c, 5, 11, 70
7, 126798, Control_c, 5, 11, 71
7, 126816, Control_c, 5, 11, 72
7, 126834, Control_c, 5, 11, 73
7, 126852, Control_c, 5, 11, 74
7, 126870, Control_c, 5, 11, 75
7, 126888, Control_c, 5, 11, 76
7, 126906, Control_c, 5, 11, 77
7, 126924, Control_c, 5, 11, 78
7, 126942, Control_c, 5, 11, 79
7, 126960, Control_c, 5, 11, 80
7, 126978, Control_c, 5, 11, 81
7, 126996, Control_c, 5, 11, 82
7, 127014, Control_c, 5, 11, 83
7, 127032, Control_c, 5, 11, 84
7, 127050, Control_c, 5, 11, 85
7, 127068, Control_c, 5, 11, 86
7, 127086, Note_on_c, 5, 50, 0
7, 127086, Control_c, 5, 11, 107
7, 127086, Note_on_c, 5, 45, 100
7, 127104, Control_c, 5, 11, 104
7, 127122, Control_c, 5, 11, 101
7, 127140, Control_c, 5, 11, 98
7, 127158, Control_c, 5, 11, 95
7, 127176, Control_c, 5, 11, 92
7, 127194, Control_c, 5, 11, 89
7, 127436, Note_on_c, 5, 45, 0
7, 127446, Note_on_c, 5, 50, 100
7, 127556, Note_on_c, 5, 50, 0
7, 127566, Note_on_c, 5, 54, 100
7, 127676, Note_on_c, 5, 54, 0
7, 127686, Note_on_c, 5, 50, 100
7, 127796, Note_on_c, 5, 50, 0
7, 127806, Note_on_c, 5, 45, 100
7, 127806, Control_c, 5, 11, 107
7, 127824, Control_c, 5, 11, 104
7, 127842, Control_c, 5, 11, 101
7, 127860, Control_c, 5, 11, 98
7, 127878, Control_c, 5, 11, 95
7, 127896, Control_c, 5, 11, 92
7, 127914, Control_c, 5, 11, 89
7, 128156, Note_on_c, 5, 45, 0
7, 128166, Note_on_c, 5, 50, 100
7, 128276, Note_on_c, 5, 50, 0
7, 128286, Note_on_c, 5, 54, 100
7, 128396, Note_on_c, 5, 54, 0
7, 128406, Note_on_c, 5, 50, 100
7, 128516, Note_on_c, 5, 50, 0
7, 128526, Control_c, 5, 11, 107
7, 128526, Note_on_c, 5, 45, 100
7, 128544, Control_c, 5, 11, 104
7, 128562, Control_c, 5, 11, 101
7, 128580, Control_c, 5, 11, 98
7, 128598, Control_c, 5, 11, 95
7, 128616, Control_c, 5, 11, 92
7, 128634, Control_c, 5, 11, 89
7, 128996, Note_on_c, 5, 45, 0
7, 129006, Note_on_c, 5, 57, 100
7, 129116, Note_on_c, 5, 57, 0
7, 129126, Note_on_c, 5, 57, 100
7, 129236, Note_on_c, 5, 57, 0
7, 129246, Note_on_c, 5, 54, 100
7, 129366, Note_on_c, 5, 54, 0
7, 129486, Note_on_c, 5, 57, 100
7, 129546, Note_on_c, 5, 57, 0
7, 129606, Note_on_c, 5, 54, 100
7, 129666, Note_on_c, 5, 54, 0
7, 129966, Control_c, 5, 121, 0
7, 129966, End_track
8, 0, Start_track
8, 0, MIDI_port, 0
8, 0, Title_t, "2 Trombe in D"
8, 0, Program_c, 6, 56
8, 0, Control_c, 6, 10, 77
8, 3, Control_c, 6, 121, 0
8, 8, Program_c, 6, 56
8, 13, Pitch_bend_c, 6, 8192
8, 18, Control_c, 6, 11, 87
8, 23, Control_c, 6, 7, 127
8, 28, Control_c, 6, 91, 80
8, 33, Control_c, 6, 93, 0
8, 363, Control_c, 6, 11, 87
8, 363, Note_on_c, 6, 74, 102
8, 363, Note_on_c, 6, 62, 102
8, 378, Control_c, 6, 11, 86
8, 393, Control_c, 6, 11, 85
8, 408, Control_c, 6, 11, 84
8, 423, Control_c, 6, 11, 83
8, 438, Control_c, 6, 11, 82
8, 453, Control_c, 6, 11, 81
8, 468, Control_c, 6, 11, 80
8, 483, Control_c, 6, 11, 79
8, 498, Control_c, 6, 11, 78
8, 513, Control_c, 6, 11, 77
8, 528, Control_c, 6, 11, 76
8, 543, Control_c, 6, 11, 75
8, 558, Control_c, 6, 11, 74
8, 573, Control_c, 6, 11, 73
8, 588, Control_c, 6, 11, 72
8, 603, Control_c, 6, 11, 71
8, 618, Control_c, 6, 11, 70
8, 633, Control_c, 6, 11, 69
8, 648, Control_c, 6, 11, 68
8, 663, Control_c, 6, 11, 67
8, 671, Control_c, 6, 11, 64
8, 680, Control_c, 6, 11, 61
8, 689, Control_c, 6, 11, 58
8, 698, Control_c, 6, 11, 55
8, 707, Control_c, 6, 11, 52
8, 716, Control_c, 6, 11, 49
8, 723, Note_on_c, 6, 62, 0
8, 723, Note_on_c, 6, 74, 0
8, 1083, Note_on_c, 6, 74, 102
8, 1083, Note_on_c, 6, 62, 102
8, 1083, Control_c, 6, 11, 87
8, 1098, Control_c, 6, 11, 86
8, 1113, Control_c, 6, 11, 85
8, 1128, Control_c, 6, 11, 84
8, 1143, Control_c, 6, 11, 83
8, 1158, Control_c, 6, 11, 82
8, 1173, Control_c, 6, 11, 81
8, 1188, Control_c, 6, 11, 80
8, 1203, Control_c, 6, 11, 79
8, 1218, Control_c, 6, 11, 78
8, 1233, Control_c, 6, 11, 77
8, 1248, Control_c, 6, 11, 76
8, 1263, Control_c, 6, 11, 75
8, 1278, Control_c, 6, 11, 74
8, 1293, Control_c, 6, 11, 73
8, 1308, Control_c, 6, 11, 72
8, 1323, Control_c, 6, 11, 71
8, 1338, Control_c, 6, 11, 70
8, 1353, Control_c, 6, 11, 69
8, 1368, Control_c, 6, 11, 68
8, 1383, Control_c, 6, 11, 67
8, 1391, Control_c, 6, 11, 64
8, 1400, Control_c, 6, 11, 61
8, 1409, Control_c, 6, 11, 58
8, 1418, Control_c, 6, 11, 55
8, 1427, Control_c, 6, 11, 52
8, 1436, Control_c, 6, 11, 49
8, 1443, Note_on_c, 6, 62, 0
8, 1443, Note_on_c, 6, 74, 0
8, 2883, Control_c, 6, 11, 102
8, 2883, Note_on_c, 6, 74, 102
8, 2883, Note_on_c, 6, 62, 102
8, 2943, Note_on_c, 6, 62, 0
8, 2943, Note_on_c, 6, 74, 0
8, 3003, Note_on_c, 6, 57, 102
8, 3003, Note_on_c, 6, 69, 102
8, 3063, Note_on_c, 6, 69, 0
8, 3063, Note_on_c, 6, 57, 0
8, 3123, Note_on_c, 6, 62, 102
8, 3123, Note_on_c, 6, 74, 102
8, 3183, Note_on_c, 6, 74, 0
8, 3183, Note_on_c, 6, 62, 0
8, 3243, Note_on_c, 6, 62, 102
8, 3243, Note_on_c, 6, 74, 102
8, 3243, Control_c, 6, 11, 87
8, 3258, Control_c, 6, 11, 86
8, 3273, Control_c, 6, 11, 85
8, 3288, Control_c, 6, 11, 84
8, 3303, Control_c, 6, 11, 83
8, 3318, Control_c, 6, 11, 82
8, 3333, Control_c, 6, 11, 81
8, 3348, Control_c, 6, 11, 80
8, 3363, Control_c, 6, 11, 79
8, 3378, Control_c, 6, 11, 78
8, 3393, Control_c, 6, 11, 77
8, 3408, Control_c, 6, 11, 76
8, 3423, Control_c, 6, 11, 75
8, 3438, Control_c, 6, 11, 74
8, 3453, Control_c, 6, 11, 73
8, 3468, Control_c, 6, 11, 72
8, 3483, Control_c, 6, 11, 71
8, 3498, Control_c, 6, 11, 70
8, 3513, Control_c, 6, 11, 69
8, 3528, Control_c, 6, 11, 68
8, 3543, Control_c, 6, 11, 67
8, 3551, Control_c, 6, 11, 64
8, 3560, Control_c, 6, 11, 61
8, 3569, Control_c, 6, 11, 58
8, 3578, Control_c, 6, 11, 55
8, 3587, Control_c, 6, 11, 52
8, 3596, Control_c, 6, 11, 49
8, 3603, Note_on_c, 6, 74, 0
8, 3603, Note_on_c, 6, 62, 0
8, 3963, Note_on_c, 6, 62, 102
8, 3963, Note_on_c, 6, 74, 102
8, 3963, Control_c, 6, 11, 87
8, 3978, Control_c, 6, 11, 86
8, 3993, Control_c, 6, 11, 85
8, 4008, Control_c, 6, 11, 84
8, 4023, Control_c, 6, 11, 83
8, 4038, Control_c, 6, 11, 82
8, 4053, Control_c, 6, 11, 81
8, 4068, Control_c, 6, 11, 80
8, 4083, Control_c, 6, 11, 79
8, 4098, Control_c, 6, 11, 78
8, 4113, Control_c, 6, 11, 77
8, 4128, Control_c, 6, 11, 76
8, 4143, Control_c, 6, 11, 75
8, 4158, Control_c, 6, 11, 74
8, 4173, Control_c, 6, 11, 73
8, 4188, Control_c, 6, 11, 72
8, 4203, Control_c, 6, 11, 71
8, 4218, Control_c, 6, 11, 70
8, 4233, Control_c, 6, 11, 69
8, 4248, Control_c, 6, 11, 68
8, 4263, Control_c, 6, 11, 67
8, 4271, Control_c, 6, 11, 64
8, 4280, Control_c, 6, 11, 61
8, 4289, Control_c, 6, 11, 58
8, 4298, Control_c, 6, 11, 55
8, 4307, Control_c, 6, 11, 52
8, 4316, Control_c, 6, 11, 49
8, 4323, Note_on_c, 6, 74, 0
8, 4323, Note_on_c, 6, 62, 0
8, 5763, Control_c, 6, 11, 102
8, 5763, Note_on_c, 6, 76, 102
8, 5823, Note_on_c, 6, 76, 0
8, 5883, Note_on_c, 6, 76, 102
8, 5943, Note_on_c, 6, 76, 0
8, 6003, Note_on_c, 6, 76, 102
8, 6063, Note_on_c, 6, 76, 0
8, 6123, Note_on_c, 6, 74, 102
8, 6123, Note_on_c, 6, 62, 102
8, 6123, Control_c, 6, 11, 87
8, 6138, Control_c, 6, 11, 86
8, 6153, Control_c, 6, 11, 85
8, 6168, Control_c, 6, 11, 84
8, 6183, Control_c, 6, 11, 83
8, 6198, Control_c, 6, 11, 82
8, 6213, Control_c, 6, 11, 81
8, 6228, Control_c, 6, 11, 80
8, 6243, Control_c, 6, 11, 79
8, 6258, Control_c, 6, 11, 78
8, 6273, Control_c, 6, 11, 77
8, 6288, Control_c, 6, 11, 76
8, 6303, Control_c, 6, 11, 75
8, 6318, Control_c, 6, 11, 74
8, 6333, Control_c, 6, 11, 73
8, 6348, Control_c, 6, 11, 72
8, 6363, Control_c, 6, 11, 71
8, 6378, Control_c, 6, 11, 70
8, 6393, Control_c, 6, 11, 69
8, 6408, Control_c, 6, 11, 68
8, 6423, Control_c, 6, 11, 67
8, 6431, Control_c, 6, 11, 64
8, 6440, Control_c, 6, 11, 61
8, 6449, Control_c, 6, 11, 58
8, 6458, Control_c, 6, 11, 55
8, 6467, Control_c, 6, 11, 52
8, 6476, Control_c, 6, 11, 49
8, 6483, Note_on_c, 6, 62, 0
8, 6483, Note_on_c, 6, 74, 0
8, 6843, Note_on_c, 6, 74, 102
8, 6843, Note_on_c, 6, 62, 102
8, 6843, Control_c, 6, 11, 87
8, 6858, Control_c, 6, 11, 86
8, 6873, Control_c, 6, 11, 85
8, 6888, Control_c, 6, 11, 84
8, 6903, Control_c, 6, 11, 83
8, 6918, Control_c, 6, 11, 82
8, 6933, Control_c, 6, 11, 81
8, 6948, Control_c, 6, 11, 80
8, 6963, Control_c, 6, 11, 79
8, 6978, Control_c, 6, 11, 78
8, 6993, Control_c, 6, 11, 77
8, 7008, Control_c, 6, 11, 76
8, 7023, Control_c, 6, 11, 75
8, 7038, Control_c, 6, 11, 74
8, 7053, Control_c, 6, 11, 73
8, 7068, Control_c, 6, 11, 72
8, 7083, Control_c, 6, 11, 71
8, 7098, Control_c, 6, 11, 70
8, 7113, Control_c, 6, 11, 69
8, 7128, Control_c, 6, 11, 68
8, 7143, Control_c, 6, 11, 67
8, 7151, Control_c, 6, 11, 64
8, 7160, Control_c, 6, 11, 61
8, 7169, Control_c, 6, 11, 58
8, 7178, Control_c, 6, 11, 55
8, 7187, Control_c, 6, 11, 52
8, 7196, Control_c, 6, 11, 49
8, 7203, Note_on_c, 6, 62, 0
8, 7203, Note_on_c, 6, 74, 0
8, 8643, Note_on_c, 6, 62, 102
8, 8643, Note_on_c, 6, 74, 102
8, 8643, Control_c, 6, 11, 102
8, 8703, Note_on_c, 6, 74, 0
8, 8703, Note_on_c, 6, 62, 0
8, 8763, Note_on_c, 6, 69, 102
8, 8763, Note_on_c, 6, 57, 102
8, 8823, Note_on_c, 6, 57, 0
8, 8823, Note_on_c, 6, 69, 0
8, 8883, Note_on_c, 6, 74, 102
8, 8883, Note_on_c, 6, 62, 102
8, 8943, Note_on_c, 6, 62, 0
8, 8943, Note_on_c, 6, 74, 0
8, 9003, Note_on_c, 6, 62, 102
8, 9003, Note_on_c, 6, 74, 102
8, 9003, Control_c, 6, 11, 87
8, 9018, Control_c, 6, 11, 86
8, 9033, Control_c, 6, 11, 85
8, 9048, Control_c, 6, 11, 84
8, 9063, Control_c, 6, 11, 83
8, 9078, Control_c, 6, 11, 82
8, 9093, Control_c, 6, 11, 81
8, 9108, Control_c, 6, 11, 80
8, 9123, Control_c, 6, 11, 79
8, 9138, Control_c, 6, 11, 78
8, 9153, Control_c, 6, 11, 77
8, 9168, Control_c, 6, 11, 76
8, 9183, Control_c, 6, 11, 75
8, 9198, Control_c, 6, 11, 74
8, 9213, Control_c, 6, 11, 73
8, 9228, Control_c, 6, 11, 72
8, 9243, Control_c, 6, 11, 71
8, 9258, Control_c, 6, 11, 70
8, 9273, Control_c, 6, 11, 69
8, 9288, Control_c, 6, 11, 68
8, 9303, Control_c, 6, 11, 67
8, 9311, Control_c, 6, 11, 64
8, 9320, Control_c, 6, 11, 61
8, 9329, Control_c, 6, 11, 58
8, 9338, Control_c, 6, 11, 55
8, 9347, Control_c, 6, 11, 52
8, 9356, Control_c, 6, 11, 49
8, 9363, Note_on_c, 6, 74, 0
8, 9363, Note_on_c, 6, 62, 0
8, 9723, Note_on_c, 6, 62, 102
8, 9723, Note_on_c, 6, 74, 102
8, 9723, Control_c, 6, 11, 87
8, 9738, Control_c, 6, 11, 86
8, 9753, Control_c, 6, 11, 85
8, 9768, Control_c, 6, 11, 84
8, 9783, Control_c, 6, 11, 83
8, 9798, Control_c, 6, 11, 82
8, 9813, Control_c, 6, 11, 81
8, 9828, Control_c, 6, 11, 80
8, 9843, Control_c, 6, 11, 79
8, 9858, Control_c, 6, 11, 78
8, 9873, Control_c, 6, 11, 77
8, 9888, Control_c, 6, 11, 76
8, 9903, Control_c, 6, 11, 75
8, 9918, Control_c, 6, 11, 74
8, 9933, Control_c, 6, 11, 73
8, 9948, Control_c, 6, 11, 72
8, 9963, Control_c, 6, 11, 71
8, 9978, Control_c, 6, 11, 70
8, 9993, Control_c, 6, 11, 69
8, 10008, Control_c, 6, 11, 68
8, 10023, Control_c, 6, 11, 67
8, 10031, Control_c, 6, 11, 64
8, 10040, Control_c, 6, 11, 61
8, 10049, Control_c, 6, 11, 58
8, 10058, Control_c, 6, 11, 55
8, 10067, Control_c, 6, 11, 52
8, 10076, Control_c, 6, 11, 49
8, 10083, Note_on_c, 6, 74, 0
8, 10083, Note_on_c, 6, 62, 0
8, 11523, Note_on_c, 6, 76, 102
8, 11523, Control_c, 6, 11, 102
8, 11583, Note_on_c, 6, 76, 0
8, 11643, Note_on_c, 6, 76, 102
8, 11703, Note_on_c, 6, 76, 0
8, 11763, Note_on_c, 6, 76, 102
8, 11823, Note_on_c, 6, 76, 0
8, 19803, Note_on_c, 6, 74, 108
8, 19803, Note_on_c, 6, 62, 108
8, 19803, Control_c, 6, 11, 87
8, 19818, Control_c, 6, 11, 86
8, 19833, Control_c, 6, 11, 85
8, 19848, Control_c, 6, 11, 84
8, 19863, Control_c, 6, 11, 83
8, 19878, Control_c, 6, 11, 82
8, 19893, Control_c, 6, 11, 81
8, 19908, Control_c, 6, 11, 80
8, 19923, Control_c, 6, 11, 79
8, 19938, Control_c, 6, 11, 78
8, 19953, Control_c, 6, 11, 77
8, 19968, Control_c, 6, 11, 76
8, 19983, Control_c, 6, 11, 75
8, 19998, Control_c, 6, 11, 74
8, 20013, Control_c, 6, 11, 73
8, 20028, Control_c, 6, 11, 72
8, 20043, Control_c, 6, 11, 71
8, 20058, Control_c, 6, 11, 70
8, 20073, Control_c, 6, 11, 69
8, 20088, Control_c, 6, 11, 68
8, 20103, Control_c, 6, 11, 67
8, 20111, Control_c, 6, 11, 64
8, 20120, Control_c, 6, 11, 61
8, 20129, Control_c, 6, 11, 58
8, 20138, Control_c, 6, 11, 55
8, 20147, Control_c, 6, 11, 52
8, 20156, Control_c, 6, 11, 49
8, 20163, Note_on_c, 6, 62, 0
8, 20163, Note_on_c, 6, 74, 0
8, 20523, Note_on_c, 6, 74, 108
8, 20523, Note_on_c, 6, 62, 108
8, 20523, Control_c, 6, 11, 87
8, 20538, Control_c, 6, 11, 86
8, 20553, Control_c, 6, 11, 85
8, 20568, Control_c, 6, 11, 84
8, 20583, Control_c, 6, 11, 83
8, 20598, Control_c, 6, 11, 82
8, 20613, Control_c, 6, 11, 81
8, 20628, Control_c, 6, 11, 80
8, 20643, Control_c, 6, 11, 79
8, 20658, Control_c, 6, 11, 78
8, 20673, Control_c, 6, 11, 77
8, 20688, Control_c, 6, 11, 76
8, 20703, Control_c, 6, 11, 75
8, 20718, Control_c, 6, 11, 74
8, 20733, Control_c, 6, 11, 73
8, 20748, Control_c, 6, 11, 72
8, 20763, Control_c, 6, 11, 71
8, 20778, Control_c, 6, 11, 70
8, 20793, Control_c, 6, 11, 69
8, 20808, Control_c, 6, 11, 68
8, 20823, Control_c, 6, 11, 67
8, 20831, Control_c, 6, 11, 64
8, 20840, Control_c, 6, 11, 61
8, 20849, Control_c, 6, 11, 58
8, 20858, Control_c, 6, 11, 55
8, 20867, Control_c, 6, 11, 52
8, 20876, Control_c, 6, 11, 49
8, 20883, Note_on_c, 6, 62, 0
8, 20883, Note_on_c, 6, 74, 0
8, 22323, Control_c, 6, 11, 102
8, 22323, Note_on_c, 6, 74, 108
8, 22323, Note_on_c, 6, 62, 108
8, 22383, Note_on_c, 6, 62, 0
8, 22383, Note_on_c, 6, 74, 0
8, 22443, Note_on_c, 6, 69, 108
8, 22443, Note_on_c, 6, 57, 108
8, 22503, Note_on_c, 6, 57, 0
8, 22503, Note_on_c, 6, 69, 0
8, 22563, Note_on_c, 6, 74, 108
8, 22563, Note_on_c, 6, 62, 108
8, 22623, Note_on_c, 6, 62, 0
8, 22623, Note_on_c, 6, 74, 0
8, 22683, Note_on_c, 6, 62, 108
8, 22683, Note_on_c, 6, 74, 108
8, 22683, Control_c, 6, 11, 87
8, 22698, Control_c, 6, 11, 86
8, 22713, Control_c, 6, 11, 85
8, 22728, Control_c, 6, 11, 84
8, 22743, Control_c, 6, 11, 83
8, 22758, Control_c, 6, 11, 82
8, 22773, Control_c, 6, 11, 81
8, 22788, Control_c, 6, 11, 80
8, 22803, Control_c, 6, 11, 79
8, 22818, Control_c, 6, 11, 78
8, 22833, Control_c, 6, 11, 77
8, 22848, Control_c, 6, 11, 76
8, 22863, Control_c, 6, 11, 75
8, 22878, Control_c, 6, 11, 74
8, 22893, Control_c, 6, 11, 73
8, 22908, Control_c, 6, 11, 72
8, 22923, Control_c, 6, 11, 71
8, 22938, Control_c, 6, 11, 70
8, 22953, Control_c, 6, 11, 69
8, 22968, Control_c, 6, 11, 68
8, 22983, Control_c, 6, 11, 67
8, 22991, Control_c, 6, 11, 64
8, 23000, Control_c, 6, 11, 61
8, 23009, Control_c, 6, 11, 58
8, 23018, Control_c, 6, 11, 55
8, 23027, Control_c, 6, 11, 52
8, 23036, Control_c, 6, 11, 49
8, 23043, Note_on_c, 6, 74, 0
8, 23043, Note_on_c, 6, 62, 0
8, 23403, Note_on_c, 6, 62, 108
8, 23403, Note_on_c, 6, 74, 108
8, 23403, Control_c, 6, 11, 87
8, 23418, Control_c, 6, 11, 86
8, 23433, Control_c, 6, 11, 85
8, 23448, Control_c, 6, 11, 84
8, 23463, Control_c, 6, 11, 83
8, 23478, Control_c, 6, 11, 82
8, 23493, Control_c, 6, 11, 81
8, 23508, Control_c, 6, 11, 80
8, 23523, Control_c, 6, 11, 79
8, 23538, Control_c, 6, 11, 78
8, 23553, Control_c, 6, 11, 77
8, 23568, Control_c, 6, 11, 76
8, 23583, Control_c, 6, 11, 75
8, 23598, Control_c, 6, 11, 74
8, 23613, Control_c, 6, 11, 73
8, 23628, Control_c, 6, 11, 72
8, 23643, Control_c, 6, 11, 71
8, 23658, Control_c, 6, 11, 70
8, 23673, Control_c, 6, 11, 69
8, 23688, Control_c, 6, 11, 68
8, 23703, Control_c, 6, 11, 67
8, 23711, Control_c, 6, 11, 64
8, 23720, Control_c, 6, 11, 61
8, 23729, Control_c, 6, 11, 58
8, 23738, Control_c, 6, 11, 55
8, 23747, Control_c, 6, 11, 52
8, 23756, Control_c, 6, 11, 49
8, 23763, Note_on_c, 6, 74, 0
8, 23763, Note_on_c, 6, 62, 0
8, 29163, Note_on_c, 6, 69, 108
8, 29163, Control_c, 6, 11, 87
8, 29163, Note_on_c, 6, 57, 108
8, 29513, Note_on_c, 6, 57, 0
8, 29513, Note_on_c, 6, 69, 0
8, 29523, Note_on_c, 6, 74, 108
8, 29523, Note_on_c, 6, 62, 108
8, 29643, Note_on_c, 6, 62, 0
8, 29643, Note_on_c, 6, 74, 0
8, 32043, Note_on_c, 6, 57, 108
8, 32043, Control_c, 6, 11, 87
8, 32043, Note_on_c, 6, 69, 108
8, 32393, Note_on_c, 6, 69, 0
8, 32393, Note_on_c, 6, 57, 0
8, 32403, Note_on_c, 6, 62, 108
8, 32403, Note_on_c, 6, 74, 108
8, 32523, Note_on_c, 6, 74, 0
8, 32523, Note_on_c, 6, 62, 0
8, 33483, Control_c, 6, 11, 107
8, 33483, Note_on_c, 6, 69, 108
8, 33483, Note_on_c, 6, 57, 108
8, 33501, Control_c, 6, 11, 104
8, 33519, Control_c, 6, 11, 101
8, 33537, Control_c, 6, 11, 98
8, 33555, Control_c, 6, 11, 95
8, 33573, Control_c, 6, 11, 92
8, 33591, Control_c, 6, 11, 89
8, 33833, Note_on_c, 6, 57, 0
8, 33833, Note_on_c, 6, 69, 0
8, 33843, Note_on_c, 6, 74, 108
8, 33843, Note_on_c, 6, 62, 108
8, 33963, Note_on_c, 6, 62, 0
8, 33963, Note_on_c, 6, 74, 0
8, 34203, Note_on_c, 6, 69, 108
8, 34203, Note_on_c, 6, 57, 108
8, 34203, Control_c, 6, 11, 107
8, 34221, Control_c, 6, 11, 104
8, 34239, Control_c, 6, 11, 101
8, 34257, Control_c, 6, 11, 98
8, 34275, Control_c, 6, 11, 95
8, 34293, Control_c, 6, 11, 92
8, 34311, Control_c, 6, 11, 89
8, 34553, Note_on_c, 6, 57, 0
8, 34553, Note_on_c, 6, 69, 0
8, 34563, Note_on_c, 6, 74, 108
8, 34563, Note_on_c, 6, 62, 108
8, 34683, Note_on_c, 6, 62, 0
8, 34683, Note_on_c, 6, 74, 0
8, 34923, Note_on_c, 6, 57, 108
8, 34923, Note_on_c, 6, 69, 108
8, 34923, Control_c, 6, 11, 107
8, 34941, Control_c, 6, 11, 104
8, 34959, Control_c, 6, 11, 101
8, 34977, Control_c, 6, 11, 98
8, 34995, Control_c, 6, 11, 95
8, 35013, Control_c, 6, 11, 92
8, 35031, Control_c, 6, 11, 89
8, 35633, Note_on_c, 6, 69, 0
8, 35633, Note_on_c, 6, 57, 0
8, 35643, Note_on_c, 6, 62, 108
8, 35643, Note_on_c, 6, 74, 108
8, 35763, Note_on_c, 6, 74, 0
8, 35763, Note_on_c, 6, 62, 0
8, 35883, Note_on_c, 6, 69, 108
8, 35883, Note_on_c, 6, 57, 108
8, 35943, Note_on_c, 6, 57, 0
8, 35943, Note_on_c, 6, 69, 0
8, 36003, Note_on_c, 6, 62, 108
8, 36003, Note_on_c, 6, 74, 108
8, 36063, Note_on_c, 6, 74, 0
8, 36063, Note_on_c, 6, 62, 0
8, 44283, Note_on_c, 6, 62, 108
8, 44283, Note_on_c, 6, 74, 108
8, 44283, Control_c, 6, 11, 87
8, 44298, Control_c, 6, 11, 86
8, 44313, Control_c, 6, 11, 85
8, 44328, Control_c, 6, 11, 84
8, 44343, Control_c, 6, 11, 83
8, 44358, Control_c, 6, 11, 82
8, 44373, Control_c, 6, 11, 81
8, 44388, Control_c, 6, 11, 80
8, 44403, Control_c, 6, 11, 79
8, 44418, Control_c, 6, 11, 78
8, 44433, Control_c, 6, 11, 77
8, 44448, Control_c, 6, 11, 76
8, 44463, Control_c, 6, 11, 75
8, 44478, Control_c, 6, 11, 74
8, 44493, Control_c, 6, 11, 73
8, 44508, Control_c, 6, 11, 72
8, 44523, Control_c, 6, 11, 71
8, 44538, Control_c, 6, 11, 70
8, 44553, Control_c, 6, 11, 69
8, 44568, Control_c, 6, 11, 68
8, 44583, Control_c, 6, 11, 67
8, 44591, Control_c, 6, 11, 64
8, 44600, Control_c, 6, 11, 61
8, 44609, Control_c, 6, 11, 58
8, 44618, Control_c, 6, 11, 55
8, 44627, Control_c, 6, 11, 52
8, 44636, Control_c, 6, 11, 49
8, 44643, Note_on_c, 6, 74, 0
8, 44643, Note_on_c, 6, 62, 0
8, 45003, Note_on_c, 6, 62, 108
8, 45003, Note_on_c, 6, 74, 108
8, 45003, Control_c, 6, 11, 87
8, 45018, Control_c, 6, 11, 86
8, 45033, Control_c, 6, 11, 85
8, 45048, Control_c, 6, 11, 84
8, 45063, Control_c, 6, 11, 83
8, 45078, Control_c, 6, 11, 82
8, 45093, Control_c, 6, 11, 81
8, 45108, Control_c, 6, 11, 80
8, 45123, Control_c, 6, 11, 79
8, 45138, Control_c, 6, 11, 78
8, 45153, Control_c, 6, 11, 77
8, 45168, Control_c, 6, 11, 76
8, 45183, Control_c, 6, 11, 75
8, 45198, Control_c, 6, 11, 74
8, 45213, Control_c, 6, 11, 73
8, 45228, Control_c, 6, 11, 72
8, 45243, Control_c, 6, 11, 71
8, 45258, Control_c, 6, 11, 70
8, 45273, Control_c, 6, 11, 69
8, 45288, Control_c, 6, 11, 68
8, 45303, Control_c, 6, 11, 67
8, 45311, Control_c, 6, 11, 64
8, 45320, Control_c, 6, 11, 61
8, 45329, Control_c, 6, 11, 58
8, 45338, Control_c, 6, 11, 55
8, 45347, Control_c, 6, 11, 52
8, 45356, Control_c, 6, 11, 49
8, 45363, Note_on_c, 6, 74, 0
8, 45363, Note_on_c, 6, 62, 0
8, 46803, Control_c, 6, 11, 102
8, 46803, Note_on_c, 6, 74, 108
8, 46803, Note_on_c, 6, 62, 108
8, 46863, Note_on_c, 6, 62, 0
8, 46863, Note_on_c, 6, 74, 0
8, 46923, Note_on_c, 6, 69, 108
8, 46923, Note_on_c, 6, 57, 108
8, 46983, Note_on_c, 6, 57, 0
8, 46983, Note_on_c, 6, 69, 0
8, 47043, Note_on_c, 6, 74, 108
8, 47043, Note_on_c, 6, 62, 108
8, 47103, Note_on_c, 6, 62, 0
8, 47103, Note_on_c, 6, 74, 0
8, 47163, Note_on_c, 6, 74, 108
8, 47163, Note_on_c, 6, 62, 108
8, 47163, Control_c, 6, 11, 87
8, 47178, Control_c, 6, 11, 86
8, 47193, Control_c, 6, 11, 85
8, 47208, Control_c, 6, 11, 84
8, 47223, Control_c, 6, 11, 83
8, 47238, Control_c, 6, 11, 82
8, 47253, Control_c, 6, 11, 81
8, 47268, Control_c, 6, 11, 80
8, 47283, Control_c, 6, 11, 79
8, 47298, Control_c, 6, 11, 78
8, 47313, Control_c, 6, 11, 77
8, 47328, Control_c, 6, 11, 76
8, 47343, Control_c, 6, 11, 75
8, 47358, Control_c, 6, 11, 74
8, 47373, Control_c, 6, 11, 73
8, 47388, Control_c, 6, 11, 72
8, 47403, Control_c, 6, 11, 71
8, 47418, Control_c, 6, 11, 70
8, 47433, Control_c, 6, 11, 69
8, 47448, Control_c, 6, 11, 68
8, 47463, Control_c, 6, 11, 67
8, 47471, Control_c, 6, 11, 64
8, 47480, Control_c, 6, 11, 61
8, 47489, Control_c, 6, 11, 58
8, 47498, Control_c, 6, 11, 55
8, 47507, Control_c, 6, 11, 52
8, 47516, Control_c, 6, 11, 49
8, 47523, Note_on_c, 6, 62, 0
8, 47523, Note_on_c, 6, 74, 0
8, 47883, Note_on_c, 6, 74, 108
8, 47883, Note_on_c, 6, 62, 108
8, 47883, Control_c, 6, 11, 87
8, 47898, Control_c, 6, 11, 86
8, 47913, Control_c, 6, 11, 85
8, 47928, Control_c, 6, 11, 84
8, 47943, Control_c, 6, 11, 83
8, 47958, Control_c, 6, 11, 82
8, 47973, Control_c, 6, 11, 81
8, 47988, Control_c, 6, 11, 80
8, 48003, Control_c, 6, 11, 79
8, 48018, Control_c, 6, 11, 78
8, 48033, Control_c, 6, 11, 77
8, 48048, Control_c, 6, 11, 76
8, 48063, Control_c, 6, 11, 75
8, 48078, Control_c, 6, 11, 74
8, 48093, Control_c, 6, 11, 73
8, 48108, Control_c, 6, 11, 72
8, 48123, Control_c, 6, 11, 71
8, 48138, Control_c, 6, 11, 70
8, 48153, Control_c, 6, 11, 69
8, 48168, Control_c, 6, 11, 68
8, 48183, Control_c, 6, 11, 67
8, 48191, Control_c, 6, 11, 64
8, 48200, Control_c, 6, 11, 61
8, 48209, Control_c, 6, 11, 58
8, 48218, Control_c, 6, 11, 55
8, 48227, Control_c, 6, 11, 52
8, 48236, Control_c, 6, 11, 49
8, 48243, Note_on_c, 6, 62, 0
8, 48243, Note_on_c, 6, 74, 0
8, 53643, Note_on_c, 6, 69, 108
8, 53643, Note_on_c, 6, 57, 108
8, 53643, Control_c, 6, 11, 87
8, 53993, Note_on_c, 6, 57, 0
8, 53993, Note_on_c, 6, 69, 0
8, 54003, Note_on_c, 6, 62, 108
8, 54003, Note_on_c, 6, 74, 108
8, 54123, Note_on_c, 6, 74, 0
8, 54123, Note_on_c, 6, 62, 0
8, 56523, Control_c, 6, 11, 87
8, 56523, Note_on_c, 6, 57, 108
8, 56523, Note_on_c, 6, 69, 108
8, 56873, Note_on_c, 6, 69, 0
8, 56873, Note_on_c, 6, 57, 0
8, 56883, Note_on_c, 6, 62, 108
8, 56883, Note_on_c, 6, 74, 108
8, 57003, Note_on_c, 6, 74, 0
8, 57003, Note_on_c, 6, 62, 0
8, 57963, Note_on_c, 6, 69, 108
8, 57963, Control_c, 6, 11, 107
8, 57963, Note_on_c, 6, 57, 108
8, 57981, Control_c, 6, 11, 104
8, 57999, Control_c, 6, 11, 101
8, 58017, Control_c, 6, 11, 98
8, 58035, Control_c, 6, 11, 95
8, 58053, Control_c, 6, 11, 92
8, 58071, Control_c, 6, 11, 89
8, 58313, Note_on_c, 6, 57, 0
8, 58313, Note_on_c, 6, 69, 0
8, 58323, Note_on_c, 6, 74, 108
8, 58323, Note_on_c, 6, 62, 108
8, 58443, Note_on_c, 6, 62, 0
8, 58443, Note_on_c, 6, 74, 0
8, 58683, Note_on_c, 6, 57, 108
8, 58683, Control_c, 6, 11, 107
8, 58683, Note_on_c, 6, 69, 108
8, 58701, Control_c, 6, 11, 104
8, 58719, Control_c, 6, 11, 101
8, 58737, Control_c, 6, 11, 98
8, 58755, Control_c, 6, 11, 95
8, 58773, Control_c, 6, 11, 92
8, 58791, Control_c, 6, 11, 89
8, 59033, Note_on_c, 6, 69, 0
8, 59033, Note_on_c, 6, 57, 0
8, 59043, Note_on_c, 6, 74, 108
8, 59043, Note_on_c, 6, 62, 108
8, 59163, Note_on_c, 6, 62, 0
8, 59163, Note_on_c, 6, 74, 0
8, 59403, Note_on_c, 6, 69, 108
8, 59403, Control_c, 6, 11, 107
8, 59403, Note_on_c, 6, 57, 108
8, 59421, Control_c, 6, 11, 104
8, 59439, Control_c, 6, 11, 101
8, 59457, Control_c, 6, 11, 98
8, 59475, Control_c, 6, 11, 95
8, 59493, Control_c, 6, 11, 92
8, 59511, Control_c, 6, 11, 89
8, 60113, Note_on_c, 6, 57, 0
8, 60113, Note_on_c, 6, 69, 0
8, 60123, Note_on_c, 6, 74, 108
8, 60123, Note_on_c, 6, 62, 108
8, 60243, Note_on_c, 6, 62, 0
8, 60243, Note_on_c, 6, 74, 0
8, 60363, Note_on_c, 6, 69, 108
8, 60363, Note_on_c, 6, 57, 108
8, 60423, Note_on_c, 6, 57, 0
8, 60423, Note_on_c, 6, 69, 0
8, 60483, Note_on_c, 6, 74, 108
8, 60483, Note_on_c, 6, 62, 108
8, 60543, Note_on_c, 6, 62, 0
8, 60543, Note_on_c, 6, 74, 0
8, 71643, Control_c, 6, 11, 102
8, 71643, Note_on_c, 6, 69, 108
8, 71643, Note_on_c, 6, 57, 108
8, 72363, Note_on_c, 6, 57, 0
8, 72363, Note_on_c, 6, 69, 0
8, 72363, Note_on_c, 6, 62, 108
8, 72363, Control_c, 6, 11, 87
8, 72363, Note_on_c, 6, 66, 108
8, 72372, Control_c, 6, 11, 84
8, 72381, Control_c, 6, 11, 81
8, 72390, Control_c, 6, 11, 78
8, 72399, Control_c, 6, 11, 75
8, 72408, Control_c, 6, 11, 72
8, 72417, Control_c, 6, 11, 69
8, 72426, Control_c, 6, 11, 66
8, 72435, Control_c, 6, 11, 63
8, 72444, Control_c, 6, 11, 60
8, 72453, Control_c, 6, 11, 57
8, 72462, Control_c, 6, 11, 54
8, 72471, Control_c, 6, 11, 51
8, 72480, Control_c, 6, 11, 48
8, 72483, Note_on_c, 6, 66, 0
8, 72483, Note_on_c, 6, 62, 0
8, 85323, Note_on_c, 6, 69, 108
8, 85323, Control_c, 6, 11, 102
8, 85323, Note_on_c, 6, 57, 108
8, 86043, Note_on_c, 6, 57, 0
8, 86043, Note_on_c, 6, 69, 0
8, 86043, Control_c, 6, 11, 87
8, 86043, Note_on_c, 6, 62, 108
8, 86043, Note_on_c, 6, 66, 108
8, 86052, Control_c, 6, 11, 84
8, 86061, Control_c, 6, 11, 81
8, 86070, Control_c, 6, 11, 78
8, 86079, Control_c, 6, 11, 75
8, 86088, Control_c, 6, 11, 72
8, 86097, Control_c, 6, 11, 69
8, 86106, Control_c, 6, 11, 66
8, 86115, Control_c, 6, 11, 63
8, 86124, Control_c, 6, 11, 60
8, 86133, Control_c, 6, 11, 57
8, 86142, Control_c, 6, 11, 54
8, 86151, Control_c, 6, 11, 51
8, 86160, Control_c, 6, 11, 48
8, 86163, Note_on_c, 6, 66, 0
8, 86163, Note_on_c, 6, 62, 0
8, 93963, Note_on_c, 6, 62, 102
8, 93963, Note_on_c, 6, 74, 102
8, 93963, Control_c, 6, 11, 87
8, 93978, Control_c, 6, 11, 86
8, 93993, Control_c, 6, 11, 85
8, 94008, Control_c, 6, 11, 84
8, 94023, Control_c, 6, 11, 83
8, 94038, Control_c, 6, 11, 82
8, 94053, Control_c, 6, 11, 81
8, 94068, Control_c, 6, 11, 80
8, 94083, Control_c, 6, 11, 79
8, 94098, Control_c, 6, 11, 78
8, 94113, Control_c, 6, 11, 77
8, 94128, Control_c, 6, 11, 76
8, 94143, Control_c, 6, 11, 75
8, 94158, Control_c, 6, 11, 74
8, 94173, Control_c, 6, 11, 73
8, 94188, Control_c, 6, 11, 72
8, 94203, Control_c, 6, 11, 71
8, 94218, Control_c, 6, 11, 70
8, 94233, Control_c, 6, 11, 69
8, 94248, Control_c, 6, 11, 68
8, 94263, Control_c, 6, 11, 67
8, 94271, Control_c, 6, 11, 64
8, 94280, Control_c, 6, 11, 61
8, 94289, Control_c, 6, 11, 58
8, 94298, Control_c, 6, 11, 55
8, 94307, Control_c, 6, 11, 52
8, 94316, Control_c, 6, 11, 49
8, 94323, Note_on_c, 6, 74, 0
8, 94323, Note_on_c, 6, 62, 0
8, 94683, Note_on_c, 6, 62, 102
8, 94683, Note_on_c, 6, 74, 102
8, 94683, Control_c, 6, 11, 87
8, 94698, Control_c, 6, 11, 86
8, 94713, Control_c, 6, 11, 85
8, 94728, Control_c, 6, 11, 84
8, 94743, Control_c, 6, 11, 83
8, 94758, Control_c, 6, 11, 82
8, 94773, Control_c, 6, 11, 81
8, 94788, Control_c, 6, 11, 80
8, 94803, Control_c, 6, 11, 79
8, 94818, Control_c, 6, 11, 78
8, 94833, Control_c, 6, 11, 77
8, 94848, Control_c, 6, 11, 76
8, 94863, Control_c, 6, 11, 75
8, 94878, Control_c, 6, 11, 74
8, 94893, Control_c, 6, 11, 73
8, 94908, Control_c, 6, 11, 72
8, 94923, Control_c, 6, 11, 71
8, 94938, Control_c, 6, 11, 70
8, 94953, Control_c, 6, 11, 69
8, 94968, Control_c, 6, 11, 68
8, 94983, Control_c, 6, 11, 67
8, 94991, Control_c, 6, 11, 64
8, 95000, Control_c, 6, 11, 61
8, 95009, Control_c, 6, 11, 58
8, 95018, Control_c, 6, 11, 55
8, 95027, Control_c, 6, 11, 52
8, 95036, Control_c, 6, 11, 49
8, 95043, Note_on_c, 6, 74, 0
8, 95043, Note_on_c, 6, 62, 0
8, 96483, Control_c, 6, 11, 102
8, 96483, Note_on_c, 6, 74, 102
8, 96483, Note_on_c, 6, 62, 102
8, 96543, Note_on_c, 6, 62, 0
8, 96543, Note_on_c, 6, 74, 0
8, 96603, Note_on_c, 6, 57, 102
8, 96603, Note_on_c, 6, 69, 102
8, 96663, Note_on_c, 6, 69, 0
8, 96663, Note_on_c, 6, 57, 0
8, 96723, Note_on_c, 6, 62, 102
8, 96723, Note_on_c, 6, 74, 102
8, 96783, Note_on_c, 6, 74, 0
8, 96783, Note_on_c, 6, 62, 0
8, 96843, Note_on_c, 6, 74, 102
8, 96843, Note_on_c, 6, 62, 102
8, 96843, Control_c, 6, 11, 87
8, 96858, Control_c, 6, 11, 86
8, 96873, Control_c, 6, 11, 85
8, 96888, Control_c, 6, 11, 84
8, 96903, Control_c, 6, 11, 83
8, 96918, Control_c, 6, 11, 82
8, 96933, Control_c, 6, 11, 81
8, 96948, Control_c, 6, 11, 80
8, 96963, Control_c, 6, 11, 79
8, 96978, Control_c, 6, 11, 78
8, 96993, Control_c, 6, 11, 77
8, 97008, Control_c, 6, 11, 76
8, 97023, Control_c, 6, 11, 75
8, 97038, Control_c, 6, 11, 74
8, 97053, Control_c, 6, 11, 73
8, 97068, Control_c, 6, 11, 72
8, 97083, Control_c, 6, 11, 71
8, 97098, Control_c, 6, 11, 70
8, 97113, Control_c, 6, 11, 69
8, 97128, Control_c, 6, 11, 68
8, 97143, Control_c, 6, 11, 67
8, 97151, Control_c, 6, 11, 64
8, 97160, Control_c, 6, 11, 61
8, 97169, Control_c, 6, 11, 58
8, 97178, Control_c, 6, 11, 55
8, 97187, Control_c, 6, 11, 52
8, 97196, Control_c, 6, 11, 49
8, 97203, Note_on_c, 6, 62, 0
8, 97203, Note_on_c, 6, 74, 0
8, 97563, Note_on_c, 6, 74, 102
8, 97563, Note_on_c, 6, 62, 102
8, 97563, Control_c, 6, 11, 87
8, 97578, Control_c, 6, 11, 86
8, 97593, Control_c, 6, 11, 85
8, 97608, Control_c, 6, 11, 84
8, 97623, Control_c, 6, 11, 83
8, 97638, Control_c, 6, 11, 82
8, 97653, Control_c, 6, 11, 81
8, 97668, Control_c, 6, 11, 80
8, 97683, Control_c, 6, 11, 79
8, 97698, Control_c, 6, 11, 78
8, 97713, Control_c, 6, 11, 77
8, 97728, Control_c, 6, 11, 76
8, 97743, Control_c, 6, 11, 75
8, 97758, Control_c, 6, 11, 74
8, 97773, Control_c, 6, 11, 73
8, 97788, Control_c, 6, 11, 72
8, 97803, Control_c, 6, 11, 71
8, 97818, Control_c, 6, 11, 70
8, 97833, Control_c, 6, 11, 69
8, 97848, Control_c, 6, 11, 68
8, 97863, Control_c, 6, 11, 67
8, 97871, Control_c, 6, 11, 64
8, 97880, Control_c, 6, 11, 61
8, 97889, Control_c, 6, 11, 58
8, 97898, Control_c, 6, 11, 55
8, 97907, Control_c, 6, 11, 52
8, 97916, Control_c, 6, 11, 49
8, 97923, Note_on_c, 6, 62, 0
8, 97923, Note_on_c, 6, 74, 0
8, 99363, Control_c, 6, 11, 102
8, 99363, Note_on_c, 6, 76, 102
8, 99423, Note_on_c, 6, 76, 0
8, 99483, Note_on_c, 6, 76, 102
8, 99543, Note_on_c, 6, 76, 0
8, 99603, Note_on_c, 6, 76, 102
8, 99663, Note_on_c, 6, 76, 0
8, 99723, Note_on_c, 6, 74, 102
8, 99723, Note_on_c, 6, 62, 102
8, 99723, Control_c, 6, 11, 87
8, 99738, Control_c, 6, 11, 86
8, 99753, Control_c, 6, 11, 85
8, 99768, Control_c, 6, 11, 84
8, 99783, Control_c, 6, 11, 83
8, 99798, Control_c, 6, 11, 82
8, 99813, Control_c, 6, 11, 81
8, 99828, Control_c, 6, 11, 80
8, 99843, Control_c, 6, 11, 79
8, 99858, Control_c, 6, 11, 78
8, 99873, Control_c, 6, 11, 77
8, 99888, Control_c, 6, 11, 76
8, 99903, Control_c, 6, 11, 75
8, 99918, Control_c, 6, 11, 74
8, 99933, Control_c, 6, 11, 73
8, 99948, Control_c, 6, 11, 72
8, 99963, Control_c, 6, 11, 71
8, 99978, Control_c, 6, 11, 70
8, 99993, Control_c, 6, 11, 69
8, 100008, Control_c, 6, 11, 68
8, 100023, Control_c, 6, 11, 67
8, 100031, Control_c, 6, 11, 64
8, 100040, Control_c, 6, 11, 61
8, 100049, Control_c, 6, 11, 58
8, 100058, Control_c, 6, 11, 55
8, 100067, Control_c, 6, 11, 52
8, 100076, Control_c, 6, 11, 49
8, 100083, Note_on_c, 6, 62, 0
8, 100083, Note_on_c, 6, 74, 0
8, 100443, Note_on_c, 6, 62, 102
8, 100443, Note_on_c, 6, 74, 102
8, 100443, Control_c, 6, 11, 87
8, 100458, Control_c, 6, 11, 86
8, 100473, Control_c, 6, 11, 85
8, 100488, Control_c, 6, 11, 84
8, 100503, Control_c, 6, 11, 83
8, 100518, Control_c, 6, 11, 82
8, 100533, Control_c, 6, 11, 81
8, 100548, Control_c, 6, 11, 80
8, 100563, Control_c, 6, 11, 79
8, 100578, Control_c, 6, 11, 78
8, 100593, Control_c, 6, 11, 77
8, 100608, Control_c, 6, 11, 76
8, 100623, Control_c, 6, 11, 75
8, 100638, Control_c, 6, 11, 74
8, 100653, Control_c, 6, 11, 73
8, 100668, Control_c, 6, 11, 72
8, 100683, Control_c, 6, 11, 71
8, 100698, Control_c, 6, 11, 70
8, 100713, Control_c, 6, 11, 69
8, 100728, Control_c, 6, 11, 68
8, 100743, Control_c, 6, 11, 67
8, 100751, Control_c, 6, 11, 64
8, 100760, Control_c, 6, 11, 61
8, 100769, Control_c, 6, 11, 58
8, 100778, Control_c, 6, 11, 55
8, 100787, Control_c, 6, 11, 52
8, 100796, Control_c, 6, 11, 49
8, 100803, Note_on_c, 6, 74, 0
8, 100803, Note_on_c, 6, 62, 0
8, 102243, Control_c, 6, 11, 102
8, 102243, Note_on_c, 6, 74, 102
8, 102243, Note_on_c, 6, 62, 102
8, 102303, Note_on_c, 6, 62, 0
8, 102303, Note_on_c, 6, 74, 0
8, 102363, Note_on_c, 6, 57, 102
8, 102363, Note_on_c, 6, 69, 102
8, 102423, Note_on_c, 6, 69, 0
8, 102423, Note_on_c, 6, 57, 0
8, 102483, Note_on_c, 6, 74, 102
8, 102483, Note_on_c, 6, 62, 102
8, 102543, Note_on_c, 6, 62, 0
8, 102543, Note_on_c, 6, 74, 0
8, 102603, Note_on_c, 6, 74, 102
8, 102603, Note_on_c, 6, 62, 102
8, 102603, Control_c, 6, 11, 87
8, 102618, Control_c, 6, 11, 86
8, 102633, Control_c, 6, 11, 85
8, 102648, Control_c, 6, 11, 84
8, 102663, Control_c, 6, 11, 83
8, 102678, Control_c, 6, 11, 82
8, 102693, Control_c, 6, 11, 81
8, 102708, Control_c, 6, 11, 80
8, 102723, Control_c, 6, 11, 79
8, 102738, Control_c, 6, 11, 78
8, 102753, Control_c, 6, 11, 77
8, 102768, Control_c, 6, 11, 76
8, 102783, Control_c, 6, 11, 75
8, 102798, Control_c, 6, 11, 74
8, 102813, Control_c, 6, 11, 73
8, 102828, Control_c, 6, 11, 72
8, 102843, Control_c, 6, 11, 71
8, 102858, Control_c, 6, 11, 70
8, 102873, Control_c, 6, 11, 69
8, 102888, Control_c, 6, 11, 68
8, 102903, Control_c, 6, 11, 67
8, 102911, Control_c, 6, 11, 64
8, 102920, Control_c, 6, 11, 61
8, 102929, Control_c, 6, 11, 58
8, 102938, Control_c, 6, 11, 55
8, 102947, Control_c, 6, 11, 52
8, 102956, Control_c, 6, 11, 49
8, 102963, Note_on_c, 6, 62, 0
8, 102963, Note_on_c, 6, 74, 0
8, 103323, Note_on_c, 6, 62, 102
8, 103323, Note_on_c, 6, 74, 102
8, 103323, Control_c, 6, 11, 87
8, 103338, Control_c, 6, 11, 86
8, 103353, Control_c, 6, 11, 85
8, 103368, Control_c, 6, 11, 84
8, 103383, Control_c, 6, 11, 83
8, 103398, Control_c, 6, 11, 82
8, 103413, Control_c, 6, 11, 81
8, 103428, Control_c, 6, 11, 80
8, 103443, Control_c, 6, 11, 79
8, 103458, Control_c, 6, 11, 78
8, 103473, Control_c, 6, 11, 77
8, 103488, Control_c, 6, 11, 76
8, 103503, Control_c, 6, 11, 75
8, 103518, Control_c, 6, 11, 74
8, 103533, Control_c, 6, 11, 73
8, 103548, Control_c, 6, 11, 72
8, 103563, Control_c, 6, 11, 71
8, 103578, Control_c, 6, 11, 70
8, 103593, Control_c, 6, 11, 69
8, 103608, Control_c, 6, 11, 68
8, 103623, Control_c, 6, 11, 67
8, 103631, Control_c, 6, 11, 64
8, 103640, Control_c, 6, 11, 61
8, 103649, Control_c, 6, 11, 58
8, 103658, Control_c, 6, 11, 55
8, 103667, Control_c, 6, 11, 52
8, 103676, Control_c, 6, 11, 49
8, 103683, Note_on_c, 6, 74, 0
8, 103683, Note_on_c, 6, 62, 0
8, 105123, Note_on_c, 6, 76, 102
8, 105123, Control_c, 6, 11, 102
8, 105183, Note_on_c, 6, 76, 0
8, 105243, Note_on_c, 6, 76, 102
8, 105303, Note_on_c, 6, 76, 0
8, 105363, Note_on_c, 6, 76, 102
8, 105423, Note_on_c, 6, 76, 0
8, 113403, Note_on_c, 6, 62, 108
8, 113403, Note_on_c, 6, 74, 108
8, 113403, Control_c, 6, 11, 87
8, 113418, Control_c, 6, 11, 86
8, 113433, Control_c, 6, 11, 85
8, 113448, Control_c, 6, 11, 84
8, 113463, Control_c, 6, 11, 83
8, 113478, Control_c, 6, 11, 82
8, 113493, Control_c, 6, 11, 81
8, 113508, Control_c, 6, 11, 80
8, 113523, Control_c, 6, 11, 79
8, 113538, Control_c, 6, 11, 78
8, 113553, Control_c, 6, 11, 77
8, 113568, Control_c, 6, 11, 76
8, 113583, Control_c, 6, 11, 75
8, 113598, Control_c, 6, 11, 74
8, 113613, Control_c, 6, 11, 73
8, 113628, Control_c, 6, 11, 72
8, 113643, Control_c, 6, 11, 71
8, 113658, Control_c, 6, 11, 70
8, 113673, Control_c, 6, 11, 69
8, 113688, Control_c, 6, 11, 68
8, 113703, Control_c, 6, 11, 67
8, 113711, Control_c, 6, 11, 64
8, 113720, Control_c, 6, 11, 61
8, 113729, Control_c, 6, 11, 58
8, 113738, Control_c, 6, 11, 55
8, 113747, Control_c, 6, 11, 52
8, 113756, Control_c, 6, 11, 49
8, 113763, Note_on_c, 6, 74, 0
8, 113763, Note_on_c, 6, 62, 0
8, 114123, Note_on_c, 6, 74, 108
8, 114123, Note_on_c, 6, 62, 108
8, 114123, Control_c, 6, 11, 87
8, 114138, Control_c, 6, 11, 86
8, 114153, Control_c, 6, 11, 85
8, 114168, Control_c, 6, 11, 84
8, 114183, Control_c, 6, 11, 83
8, 114198, Control_c, 6, 11, 82
8, 114213, Control_c, 6, 11, 81
8, 114228, Control_c, 6, 11, 80
8, 114243, Control_c, 6, 11, 79
8, 114258, Control_c, 6, 11, 78
8, 114273, Control_c, 6, 11, 77
8, 114288, Control_c, 6, 11, 76
8, 114303, Control_c, 6, 11, 75
8, 114318, Control_c, 6, 11, 74
8, 114333, Control_c, 6, 11, 73
8, 114348, Control_c, 6, 11, 72
8, 114363, Control_c, 6, 11, 71
8, 114378, Control_c, 6, 11, 70
8, 114393, Control_c, 6, 11, 69
8, 114408, Control_c, 6, 11, 68
8, 114423, Control_c, 6, 11, 67
8, 114431, Control_c, 6, 11, 64
8, 114440, Control_c, 6, 11, 61
8, 114449, Control_c, 6, 11, 58
8, 114458, Control_c, 6, 11, 55
8, 114467, Control_c, 6, 11, 52
8, 114476, Control_c, 6, 11, 49
8, 114483, Note_on_c, 6, 62, 0
8, 114483, Note_on_c, 6, 74, 0
8, 115923, Note_on_c, 6, 74, 108
8, 115923, Note_on_c, 6, 62, 108
8, 115923, Control_c, 6, 11, 102
8, 115983, Note_on_c, 6, 62, 0
8, 115983, Note_on_c, 6, 74, 0
8, 116043, Note_on_c, 6, 69, 108
8, 116043, Note_on_c, 6, 57, 108
8, 116103, Note_on_c, 6, 57, 0
8, 116103, Note_on_c, 6, 69, 0
8, 116163, Note_on_c, 6, 74, 108
8, 116163, Note_on_c, 6, 62, 108
8, 116223, Note_on_c, 6, 62, 0
8, 116223, Note_on_c, 6, 74, 0
8, 116283, Note_on_c, 6, 62, 108
8, 116283, Note_on_c, 6, 74, 108
8, 116283, Control_c, 6, 11, 87
8, 116298, Control_c, 6, 11, 86
8, 116313, Control_c, 6, 11, 85
8, 116328, Control_c, 6, 11, 84
8, 116343, Control_c, 6, 11, 83
8, 116358, Control_c, 6, 11, 82
8, 116373, Control_c, 6, 11, 81
8, 116388, Control_c, 6, 11, 80
8, 116403, Control_c, 6, 11, 79
8, 116418, Control_c, 6, 11, 78
8, 116433, Control_c, 6, 11, 77
8, 116448, Control_c, 6, 11, 76
8, 116463, Control_c, 6, 11, 75
8, 116478, Control_c, 6, 11, 74
8, 116493, Control_c, 6, 11, 73
8, 116508, Control_c, 6, 11, 72
8, 116523, Control_c, 6, 11, 71
8, 116538, Control_c, 6, 11, 70
8, 116553, Control_c, 6, 11, 69
8, 116568, Control_c, 6, 11, 68
8, 116583, Control_c, 6, 11, 67
8, 116591, Control_c, 6, 11, 64
8, 116600, Control_c, 6, 11, 61
8, 116609, Control_c, 6, 11, 58
8, 116618, Control_c, 6, 11, 55
8, 116627, Control_c, 6, 11, 52
8, 116636, Control_c, 6, 11, 49
8, 116643, Note_on_c, 6, 74, 0
8, 116643, Note_on_c, 6, 62, 0
8, 117003, Note_on_c, 6, 74, 108
8, 117003, Note_on_c, 6, 62, 108
8, 117003, Control_c, 6, 11, 87
8, 117018, Control_c, 6, 11, 86
8, 117033, Control_c, 6, 11, 85
8, 117048, Control_c, 6, 11, 84
8, 117063, Control_c, 6, 11, 83
8, 117078, Control_c, 6, 11, 82
8, 117093, Control_c, 6, 11, 81
8, 117108, Control_c, 6, 11, 80
8, 117123, Control_c, 6, 11, 79
8, 117138, Control_c, 6, 11, 78
8, 117153, Control_c, 6, 11, 77
8, 117168, Control_c, 6, 11, 76
8, 117183, Control_c, 6, 11, 75
8, 117198, Control_c, 6, 11, 74
8, 117213, Control_c, 6, 11, 73
8, 117228, Control_c, 6, 11, 72
8, 117243, Control_c, 6, 11, 71
8, 117258, Control_c, 6, 11, 70
8, 117273, Control_c, 6, 11, 69
8, 117288, Control_c, 6, 11, 68
8, 117303, Control_c, 6, 11, 67
8, 117311, Control_c, 6, 11, 64
8, 117320, Control_c, 6, 11, 61
8, 117329, Control_c, 6, 11, 58
8, 117338, Control_c, 6, 11, 55
8, 117347, Control_c, 6, 11, 52
8, 117356, Control_c, 6, 11, 49
8, 117363, Note_on_c, 6, 62, 0
8, 117363, Note_on_c, 6, 74, 0
8, 122763, Note_on_c, 6, 57, 108
8, 122763, Control_c, 6, 11, 87
8, 122763, Note_on_c, 6, 69, 108
8, 123113, Note_on_c, 6, 69, 0
8, 123113, Note_on_c, 6, 57, 0
8, 123123, Note_on_c, 6, 62, 108
8, 123123, Note_on_c, 6, 74, 108
8, 123243, Note_on_c, 6, 74, 0
8, 123243, Note_on_c, 6, 62, 0
8, 125643, Note_on_c, 6, 57, 108
8, 125643, Control_c, 6, 11, 87
8, 125643, Note_on_c, 6, 69, 108
8, 125993, Note_on_c, 6, 69, 0
8, 125993, Note_on_c, 6, 57, 0
8, 126003, Note_on_c, 6, 74, 108
8, 126003, Note_on_c, 6, 62, 108
8, 126123, Note_on_c, 6, 62, 0
8, 126123, Note_on_c, 6, 74, 0
8, 127083, Note_on_c, 6, 69, 108
8, 127083, Control_c, 6, 11, 107
8, 127083, Note_on_c, 6, 57, 108
8, 127101, Control_c, 6, 11, 104
8, 127119, Control_c, 6, 11, 101
8, 127137, Control_c, 6, 11, 98
8, 127155, Control_c, 6, 11, 95
8, 127173, Control_c, 6, 11, 92
8, 127191, Control_c, 6, 11, 89
8, 127433, Note_on_c, 6, 57, 0
8, 127433, Note_on_c, 6, 69, 0
8, 127443, Note_on_c, 6, 62, 108
8, 127443, Note_on_c, 6, 74, 108
8, 127563, Note_on_c, 6, 74, 0
8, 127563, Note_on_c, 6, 62, 0
8, 127803, Note_on_c, 6, 69, 108
8, 127803, Note_on_c, 6, 57, 108
8, 127803, Control_c, 6, 11, 107
8, 127821, Control_c, 6, 11, 104
8, 127839, Control_c, 6, 11, 101
8, 127857, Control_c, 6, 11, 98
8, 127875, Control_c, 6, 11, 95
8, 127893, Control_c, 6, 11, 92
8, 127911, Control_c, 6, 11, 89
8, 128153, Note_on_c, 6, 57, 0
8, 128153, Note_on_c, 6, 69, 0
8, 128163, Note_on_c, 6, 74, 108
8, 128163, Note_on_c, 6, 62, 108
8, 128283, Note_on_c, 6, 62, 0
8, 128283, Note_on_c, 6, 74, 0
8, 128523, Note_on_c, 6, 69, 108
8, 128523, Control_c, 6, 11, 107
8, 128523, Note_on_c, 6, 57, 108
8, 128541, Control_c, 6, 11, 104
8, 128559, Control_c, 6, 11, 101
8, 128577, Control_c, 6, 11, 98
8, 128595, Control_c, 6, 11, 95
8, 128613, Control_c, 6, 11, 92
8, 128631, Control_c, 6, 11, 89
8, 129233, Note_on_c, 6, 57, 0
8, 129233, Note_on_c, 6, 69, 0
8, 129243, Note_on_c, 6, 74, 108
8, 129243, Note_on_c, 6, 62, 108
8, 129363, Note_on_c, 6, 62, 0
8, 129363, Note_on_c, 6, 74, 0
8, 129483, Note_on_c, 6, 57, 108
8, 129483, Note_on_c, 6, 69, 108
8, 129543, Note_on_c, 6, 69, 0
8, 129543, Note_on_c, 6, 57, 0
8, 129603, Note_on_c, 6, 74, 108
8, 129603, Note_on_c, 6, 62, 108
8, 129663, Note_on_c, 6, 62, 0
8, 129663, Note_on_c, 6, 74, 0
8, 129963, Control_c, 6, 121, 0
8, 129963, End_track
9, 0, Start_track
9, 0, MIDI_port, 0
9, 0, Title_t, "Timpani"
9, 0, Program_c, 15, 47
9, 0, Control_c, 15, 10, 97
9, 11, Control_c, 15, 121, 0
9, 16, Program_c, 15, 47
9, 21, Pitch_bend_c, 15, 8192
9, 26, Control_c, 15, 11, 127
9, 31, Control_c, 15, 7, 127
9, 36, Control_c, 15, 91, 89
9, 41, Control_c, 15, 93, 0
9, 371, Note_on_c, 15, 50, 100
9, 491, Note_on_c, 15, 50, 0
9, 1091, Note_on_c, 15, 50, 100
9, 1211, Note_on_c, 15, 50, 0
9, 2891, Note_on_c, 15, 50, 112
9, 2951, Note_on_c, 15, 50, 0
9, 3011, Note_on_c, 15, 45, 112
9, 3071, Note_on_c, 15, 45, 0
9, 3131, Note_on_c, 15, 50, 112
9, 3191, Note_on_c, 15, 50, 0
9, 3251, Note_on_c, 15, 50, 100
9, 3371, Note_on_c, 15, 50, 0
9, 3971, Note_on_c, 15, 50, 100
9, 4091, Note_on_c, 15, 50, 0
9, 5771, Note_on_c, 15, 45, 112
9, 5831, Note_on_c, 15, 45, 0
9, 5891, Note_on_c, 15, 45, 112
9, 5951, Note_on_c, 15, 45, 0
9, 6011, Note_on_c, 15, 45, 112
9, 6071, Note_on_c, 15, 45, 0
9, 6131, Note_on_c, 15, 50, 100
9, 6251, Note_on_c, 15, 50, 0
9, 6851, Note_on_c, 15, 50, 100
9, 6971, Note_on_c, 15, 50, 0
9, 8651, Note_on_c, 15, 50, 112
9, 8711, Note_on_c, 15, 50, 0
9, 8771, Note_on_c, 15, 45, 112
9, 8831, Note_on_c, 15, 45, 0
9, 8891, Note_on_c, 15, 50, 112
9, 8951, Note_on_c, 15, 50, 0
9, 9011, Note_on_c, 15, 50, 100
9, 9131, Note_on_c, 15, 50, 0
9, 9731, Note_on_c, 15, 50, 100
9, 9851, Note_on_c, 15, 50, 0
9, 11531, Note_on_c, 15, 45, 112
9, 11591, Note_on_c, 15, 45, 0
9, 11651, Note_on_c, 15, 45, 112
9, 11711, Note_on_c, 15, 45, 0
9, 11771, Note_on_c, 15, 45, 112
9, 11831, Note_on_c, 15, 45, 0
9, 19811, Note_on_c, 15, 50, 100
9, 19931, Note_on_c, 15, 50, 0
9, 20531, Note_on_c, 15, 50, 100
9, 20651, Note_on_c, 15, 50, 0
9, 22331, Note_on_c, 15, 50, 92
9, 22391, Note_on_c, 15, 50, 0
9, 22451, Note_on_c, 15, 45, 92
9, 22511, Note_on_c, 15, 45, 0
9, 22571, Note_on_c, 15, 50, 92
9, 22631, Note_on_c, 15, 50, 0
9, 22691, Note_on_c, 15, 50, 100
9, 22811, Note_on_c, 15, 50, 0
9, 23411, Note_on_c, 15, 50, 100
9, 23531, Note_on_c, 15, 50, 0
9, 29171, Note_on_c, 15, 45, 100
9, 29291, Note_on_c, 15, 45, 0
9, 29531, Note_on_c, 15, 50, 100
9, 29651, Note_on_c, 15, 50, 0
9, 32051, Note_on_c, 15, 45, 100
9, 32171, Note_on_c, 15, 45, 0
9, 32411, Note_on_c, 15, 50, 100
9, 32531, Note_on_c, 15, 50, 0
9, 33491, Note_on_c, 15, 45, 100
9, 33611, Note_on_c, 15, 45, 0
9, 33851, Note_on_c, 15, 50, 100
9, 33971, Note_on_c, 15, 50, 0
9, 34211, Note_on_c, 15, 45, 100
9, 34331, Note_on_c, 15, 45, 0
9, 34571, Note_on_c, 15, 50, 100
9, 34691, Note_on_c, 15, 50, 0
9, 34931, Note_on_c, 15, 45, 92
9, 34985, Note_on_c, 15, 45, 0
9, 34991, Note_on_c, 15, 45, 92
9, 35045, Note_on_c, 15, 45, 0
9, 35051, Note_on_c, 15, 45, 92
9, 35105, Note_on_c, 15, 45, 0
9, 35111, Note_on_c, 15, 45, 92
9, 35165, Note_on_c, 15, 45, 0
9, 35171, Note_on_c, 15, 45, 92
9, 35225, Note_on_c, 15, 45, 0
9, 35231, Note_on_c, 15, 45, 92
9, 35285, Note_on_c, 15, 45, 0
9, 35291, Note_on_c, 15, 45, 92
9, 35345, Note_on_c, 15, 45, 0
9, 35351, Note_on_c, 15, 45, 92
9, 35405, Note_on_c, 15, 45, 0
9, 35411, Note_on_c, 15, 45, 92
9, 35465, Note_on_c, 15, 45, 0
9, 35471, Note_on_c, 15, 45, 92
9, 35525, Note_on_c, 15, 45, 0
9, 35531, Note_on_c, 15, 45, 92
9, 35585, Note_on_c, 15, 45, 0
9, 35591, Note_on_c, 15, 45, 92
9, 35645, Note_on_c, 15, 45, 0
9, 35651, Note_on_c, 15, 50, 109
9, 35771, Note_on_c, 15, 50, 0
9, 35891, Note_on_c, 15, 45, 92
9, 35945, Note_on_c, 15, 45, 0
9, 36011, Note_on_c, 15, 50, 92
9, 36065, Note_on_c, 15, 50, 0
9, 44291, Note_on_c, 15, 50, 100
9, 44411, Note_on_c, 15, 50, 0
9, 45011, Note_on_c, 15, 50, 100
9, 45131, Note_on_c, 15, 50, 0
9, 46811, Note_on_c, 15, 50, 92
9, 46871, Note_on_c, 15, 50, 0
9, 46931, Note_on_c, 15, 45, 92
9, 46991, Note_on_c, 15, 45, 0
9, 47051, Note_on_c, 15, 50, 92
9, 47111, Note_on_c, 15, 50, 0
9, 47171, Note_on_c, 15, 50, 100
9, 47291, Note_on_c, 15, 50, 0
9, 47891, Note_on_c, 15, 50, 100
9, 48011, Note_on_c, 15, 50, 0
9, 53651, Note_on_c, 15, 45, 100
9, 53771, Note_on_c, 15, 45, 0
9, 54011, Note_on_c, 15, 50, 100
9, 54131, Note_on_c, 15, 50, 0
9, 56531, Note_on_c, 15, 45, 100
9, 56651, Note_on_c, 15, 45, 0
9, 56891, Note_on_c, 15, 50, 100
9, 57011, Note_on_c, 15, 50, 0
9, 57971, Note_on_c, 15, 45, 100
9, 58091, Note_on_c, 15, 45, 0
9, 58331, Note_on_c, 15, 50, 100
9, 58451, Note_on_c, 15, 50, 0
9, 58691, Note_on_c, 15, 45, 100
9, 58811, Note_on_c, 15, 45, 0
9, 59051, Note_on_c, 15, 50, 100
9, 59171, Note_on_c, 15, 50, 0
9, 59411, Note_on_c, 15, 45, 92
9, 59465, Note_on_c, 15, 45, 0
9, 59471, Note_on_c, 15, 45, 92
9, 59525, Note_on_c, 15, 45, 0
9, 59531, Note_on_c, 15, 45, 92
9, 59585, Note_on_c, 15, 45, 0
9, 59591, Note_on_c, 15, 45, 92
9, 59645, Note_on_c, 15, 45, 0
9, 59651, Note_on_c, 15, 45, 92
9, 59705, Note_on_c, 15, 45, 0
9, 59711, Note_on_c, 15, 45, 92
9, 59765, Note_on_c, 15, 45, 0
9, 59771, Note_on_c, 15, 45, 92
9, 59825, Note_on_c, 15, 45, 0
9, 59831, Note_on_c, 15, 45, 92
9, 59885, Note_on_c, 15, 45, 0
9, 59891, Note_on_c, 15, 45, 92
9, 59945, Note_on_c, 15, 45, 0
9, 59951, Note_on_c, 15, 45, 92
9, 60005, Note_on_c, 15, 45, 0
9, 60011, Note_on_c, 15, 45, 92
9, 60065, Note_on_c, 15, 45, 0
9, 60071, Note_on_c, 15, 45, 92
9, 60125, Note_on_c, 15, 45, 0
9, 60131, Note_on_c, 15, 50, 109
9, 60251, Note_on_c, 15, 50, 0
9, 60371, Note_on_c, 15, 45, 92
9, 60425, Note_on_c, 15, 45, 0
9, 60491, Note_on_c, 15, 50, 92
9, 60545, Note_on_c, 15, 50, 0
9, 71646, Note_on_c, 15, 45, 82
9, 71670, Note_on_c, 15, 45, 0
9, 71680, Note_on_c, 15, 45, 75
9, 71704, Note_on_c, 15, 45, 0
9, 71711, Note_on_c, 15, 45, 81
9, 71735, Note_on_c, 15, 45, 0
9, 71742, Note_on_c, 15, 45, 82
9, 71766, Note_on_c, 15, 45, 0
9, 71772, Note_on_c, 15, 45, 83
9, 71796, Note_on_c, 15, 45, 0
9, 71802, Note_on_c, 15, 45, 82
9, 71826, Note_on_c, 15, 45, 0
9, 71827, Note_on_c, 15, 45, 78
9, 71851, Note_on_c, 15, 45, 0
9, 71863, Note_on_c, 15, 45, 76
9, 71887, Note_on_c, 15, 45, 0
9, 71890, Note_on_c, 15, 45, 74
9, 71914, Note_on_c, 15, 45, 0
9, 71919, Note_on_c, 15, 45, 75
9, 71943, Note_on_c, 15, 45, 0
9, 71946, Note_on_c, 15, 45, 80
9, 71970, Note_on_c, 15, 45, 0
9, 71982, Note_on_c, 15, 45, 71
9, 72006, Note_on_c, 15, 45, 0
9, 72014, Note_on_c, 15, 45, 75
9, 72038, Note_on_c, 15, 45, 0
9, 72044, Note_on_c, 15, 45, 72
9, 72068, Note_on_c, 15, 45, 0
9, 72071, Note_on_c, 15, 45, 77
9, 72095, Note_on_c, 15, 45, 0
9, 72099, Note_on_c, 15, 45, 70
9, 72123, Note_on_c, 15, 45, 0
9, 72135, Note_on_c, 15, 45, 70
9, 72159, Note_on_c, 15, 45, 0
9, 72163, Note_on_c, 15, 45, 80
9, 72187, Note_on_c, 15, 45, 0
9, 72196, Note_on_c, 15, 45, 73
9, 72220, Note_on_c, 15, 45, 0
9, 72226, Note_on_c, 15, 45, 73
9, 72250, Note_on_c, 15, 45, 0
9, 72251, Note_on_c, 15, 45, 76
9, 72275, Note_on_c, 15, 45, 0
9, 72277, Note_on_c, 15, 45, 77
9, 72301, Note_on_c, 15, 45, 0
9, 72311, Note_on_c, 15, 45, 79
9, 72335, Note_on_c, 15, 45, 0
9, 72338, Note_on_c, 15, 45, 76
9, 72362, Note_on_c, 15, 45, 0
9, 72371, Note_on_c, 15, 50, 53
9, 72491, Note_on_c, 15, 50, 0
9, 85331, Note_on_c, 15, 45, 82
9, 85355, Note_on_c, 15, 45, 0
9, 85365, Note_on_c, 15, 45, 75
9, 85389, Note_on_c, 15, 45, 0
9, 85396, Note_on_c, 15, 45, 81
9, 85420, Note_on_c, 15, 45, 0
9, 85427, Note_on_c, 15, 45, 82
9, 85451, Note_on_c, 15, 45, 0
9, 85457, Note_on_c, 15, 45, 83
9, 85481, Note_on_c, 15, 45, 0
9, 85487, Note_on_c, 15, 45, 82
9, 85511, Note_on_c, 15, 45, 0
9, 85512, Note_on_c, 15, 45, 78
9, 85536, Note_on_c, 15, 45, 0
9, 85548, Note_on_c, 15, 45, 76
9, 85572, Note_on_c, 15, 45, 0
9, 85575, Note_on_c, 15, 45, 74
9, 85599, Note_on_c, 15, 45, 0
9, 85604, Note_on_c, 15, 45, 75
9, 85628, Note_on_c, 15, 45, 0
9, 85631, Note_on_c, 15, 45, 80
9, 85655, Note_on_c, 15, 45, 0
9, 85667, Note_on_c, 15, 45, 71
9, 85691, Note_on_c, 15, 45, 0
9, 85699, Note_on_c, 15, 45, 75
9, 85723, Note_on_c, 15, 45, 0
9, 85729, Note_on_c, 15, 45, 72
9, 85753, Note_on_c, 15, 45, 0
9, 85756, Note_on_c, 15, 45, 77
9, 85780, Note_on_c, 15, 45, 0
9, 85784, Note_on_c, 15, 45, 70
9, 85808, Note_on_c, 15, 45, 0
9, 85820, Note_on_c, 15, 45, 70
9, 85844, Note_on_c, 15, 45, 0
9, 85848, Note_on_c, 15, 45, 80
9, 85872, Note_on_c, 15, 45, 0
9, 85881, Note_on_c, 15, 45, 73
9, 85905, Note_on_c, 15, 45, 0
9, 85911, Note_on_c, 15, 45, 73
9, 85935, Note_on_c, 15, 45, 0
9, 85936, Note_on_c, 15, 45, 76
9, 85960, Note_on_c, 15, 45, 0
9, 85962, Note_on_c, 15, 45, 77
9, 85986, Note_on_c, 15, 45, 0
9, 85996, Note_on_c, 15, 45, 79
9, 86020, Note_on_c, 15, 45, 0
9, 86023, Note_on_c, 15, 45, 76
9, 86047, Note_on_c, 15, 45, 0
9, 86051, Note_on_c, 15, 50, 53
9, 86171, Note_on_c, 15, 50, 0
9, 93971, Note_on_c, 15, 50, 100
9, 94091, Note_on_c, 15, 50, 0
9, 94691, Note_on_c, 15, 50, 100
9, 94811, Note_on_c, 15, 50, 0
9, 96491, Note_on_c, 15, 50, 112
9, 96551, Note_on_c, 15, 50, 0
9, 96611, Note_on_c, 15, 45, 112
9, 96671, Note_on_c, 15, 45, 0
9, 96731, Note_on_c, 15, 50, 112
9, 96791, Note_on_c, 15, 50, 0
9, 96851, Note_on_c, 15, 50, 100
9, 96971, Note_on_c, 15, 50, 0
9, 97571, Note_on_c, 15, 50, 100
9, 97691, Note_on_c, 15, 50, 0
9, 99371, Note_on_c, 15, 45, 112
9, 99431, Note_on_c, 15, 45, 0
9, 99491, Note_on_c, 15, 45, 112
9, 99551, Note_on_c, 15, 45, 0
9, 99611, Note_on_c, 15, 45, 112
9, 99671, Note_on_c, 15, 45, 0
9, 99731, Note_on_c, 15, 50, 100
9, 99851, Note_on_c, 15, 50, 0
9, 100451, Note_on_c, 15, 50, 100
9, 100571, Note_on_c, 15, 50, 0
9, 102251, Note_on_c, 15, 50, 112
9, 102311, Note_on_c, 15, 50, 0
9, 102371, Note_on_c, 15, 45, 112
9, 102431, Note_on_c, 15, 45, 0
9, 102491, Note_on_c, 15, 50, 112
9, 102551, Note_on_c, 15, 50, 0
9, 102611, Note_on_c, 15, 50, 100
9, 102731, Note_on_c, 15, 50, 0
9, 103331, Note_on_c, 15, 50, 100
9, 103451, Note_on_c, 15, 50, 0
9, 105131, Note_on_c, 15, 45, 112
9, 105191, Note_on_c, 15, 45, 0
9, 105251, Note_on_c, 15, 45, 112
9, 105311, Note_on_c, 15, 45, 0
9, 105371, Note_on_c, 15, 45, 112
9, 105431, Note_on_c, 15, 45, 0
9, 113411, Note_on_c, 15, 50, 100
9, 113531, Note_on_c, 15, 50, 0
9, 114131, Note_on_c, 15, 50, 100
9, 114251, Note_on_c, 15, 50, 0
9, 115931, Note_on_c, 15, 50, 92
9, 115991, Note_on_c, 15, 50, 0
9, 116051, Note_on_c, 15, 45, 92
9, 116111, Note_on_c, 15, 45, 0
9, 116171, Note_on_c, 15, 50, 92
9, 116231, Note_on_c, 15, 50, 0
9, 116291, Note_on_c, 15, 50, 100
9, 116411, Note_on_c, 15, 50, 0
9, 117011, Note_on_c, 15, 50, 100
9, 117131, Note_on_c, 15, 50, 0
9, 122771, Note_on_c, 15, 45, 100
9, 122891, Note_on_c, 15, 45, 0
9, 123131, Note_on_c, 15, 50, 100
9, 123251, Note_on_c, 15, 50, 0
9, 125651, Note_on_c, 15, 45, 100
9, 125771, Note_on_c, 15, 45, 0
9, 126011, Note_on_c, 15, 50, 100
9, 126131, Note_on_c, 15, 50, 0
9, 127091, Note_on_c, 15, 45, 100
9, 127211, Note_on_c, 15, 45, 0
9, 127451, Note_on_c, 15, 50, 100
9, 127571, Note_on_c, 15, 50, 0
9, 127811, Note_on_c, 15, 45, 100
9, 127931, Note_on_c, 15, 45, 0
9, 128171, Note_on_c, 15, 50, 100
9, 128291, Note_on_c, 15, 50, 0
9, 128531, Note_on_c, 15, 45, 92
9, 128585, Note_on_c, 15, 45, 0
9, 128591, Note_on_c, 15, 45, 92
9, 128645, Note_on_c, 15, 45, 0
9, 128651, Note_on_c, 15, 45, 92
9, 128705, Note_on_c, 15, 45, 0
9, 128711, Note_on_c, 15, 45, 92
9, 128765, Note_on_c, 15, 45, 0
9, 128771, Note_on_c, 15, 45, 92
9, 128825, Note_on_c, 15, 45, 0
9, 128831, Note_on_c, 15, 45, 92
9, 128885, Note_on_c, 15, 45, 0
9, 128891, Note_on_c, 15, 45, 92
9, 128945, Note_on_c, 15, 45, 0
9, 128951, Note_on_c, 15, 45, 92
9, 129005, Note_on_c, 15, 45, 0
9, 129011, Note_on_c, 15, 45, 92
9, 129065, Note_on_c, 15, 45, 0
9, 129071, Note_on_c, 15, 45, 92
9, 129125, Note_on_c, 15, 45, 0
9, 129131, Note_on_c, 15, 45, 92
9, 129185, Note_on_c, 15, 45, 0
9, 129191, Note_on_c, 15, 45, 92
9, 129245, Note_on_c, 15, 45, 0
9, 129251, Note_on_c, 15, 50, 109
9, 129371, Note_on_c, 15, 50, 0
9, 129491, Note_on_c, 15, 45, 92
9, 129545, Note_on_c, 15, 45, 0
9, 129611, Note_on_c, 15, 50, 92
9, 129665, Note_on_c, 15, 50, 0
9, 129971, Control_c, 15, 121, 0
9, 129971, End_track
10, 0, Start_track
10, 0, MIDI_port, 0
10, 0, Title_t, "Violine I"
10, 0, Program_c, 10, 48
10, 0, Control_c, 10, 10, 12
10, 0, Control_c, 10, 121, 0
10, 5, Program_c, 10, 48
10, 10, Pitch_bend_c, 10, 8292
10, 15, Control_c, 10, 11, 87
10, 20, Control_c, 10, 7, 127
10, 25, Control_c, 10, 91, 32
10, 30, Control_c, 10, 93, 0
10, 360, Control_c, 10, 11, 87
10, 360, Note_on_c, 10, 62, 102
10, 383, Control_c, 10, 11, 86
10, 406, Control_c, 10, 11, 85
10, 429, Control_c, 10, 11, 84
10, 452, Control_c, 10, 11, 83
10, 475, Control_c, 10, 11, 82
10, 498, Control_c, 10, 11, 81
10, 521, Control_c, 10, 11, 80
10, 544, Control_c, 10, 11, 79
10, 567, Control_c, 10, 11, 78
10, 590, Control_c, 10, 11, 77
10, 613, Control_c, 10, 11, 76
10, 636, Control_c, 10, 11, 75
10, 659, Control_c, 10, 11, 74
10, 682, Control_c, 10, 11, 73
10, 705, Note_on_c, 10, 62, 0
10, 705, Control_c, 10, 11, 72
10, 720, Control_c, 10, 11, 47
10, 720, Note_on_c, 10, 78, 102
10, 771, Note_on_c, 10, 78, 0
10, 840, Note_on_c, 10, 79, 102
10, 891, Note_on_c, 10, 79, 0
10, 960, Note_on_c, 10, 81, 102
10, 1011, Note_on_c, 10, 81, 0
10, 1080, Control_c, 10, 11, 87
10, 1080, Note_on_c, 10, 64, 102
10, 1080, Note_on_c, 10, 55, 102
10, 1103, Control_c, 10, 11, 86
10, 1126, Control_c, 10, 11, 85
10, 1149, Control_c, 10, 11, 84
10, 1172, Control_c, 10, 11, 83
10, 1195, Control_c, 10, 11, 82
10, 1218, Control_c, 10, 11, 81
10, 1241, Control_c, 10, 11, 80
10, 1264, Control_c, 10, 11, 79
10, 1287, Control_c, 10, 11, 78
10, 1310, Control_c, 10, 11, 77
10, 1333, Control_c, 10, 11, 76
10, 1356, Control_c, 10, 11, 75
10, 1379, Control_c, 10, 11, 74
10, 1402, Control_c, 10, 11, 73
10, 1425, Note_on_c, 10, 55, 0
10, 1425, Note_on_c, 10, 64, 0
10, 1425, Control_c, 10, 11, 72
10, 1440, Control_c, 10, 11, 47
10, 1440, Note_on_c, 10, 79, 102
10, 1491, Note_on_c, 10, 79, 0
10, 1560, Note_on_c, 10, 81, 102
10, 1611, Note_on_c, 10, 81, 0
10, 1680, Note_on_c, 10, 83, 102
10, 1731, Note_on_c, 10, 83, 0
10, 2160, Control_c, 10, 11, 47
10, 2160, Note_on_c, 10, 76, 102
10, 2211, Note_on_c, 10, 76, 0
10, 2280, Note_on_c, 10, 78, 102
10, 2331, Note_on_c, 10, 78, 0
10, 2400, Note_on_c, 10, 79, 102
10, 2451, Note_on_c, 10, 79, 0
10, 2880, Note_on_c, 10, 86, 102
10, 2880, Control_c, 10, 11, 102
10, 2940, Note_on_c, 10, 86, 0
10, 3000, Note_on_c, 10, 85, 102
10, 3060, Note_on_c, 10, 85, 0
10, 3120, Note_on_c, 10, 86, 102
10, 3180, Note_on_c, 10, 86, 0
10, 3240, Note_on_c, 10, 62, 102
10, 3240, Control_c, 10, 11, 87
10, 3263, Control_c, 10, 11, 86
10, 3286, Control_c, 10, 11, 85
10, 3309, Control_c, 10, 11, 84
10, 3332, Control_c, 10, 11, 83
10, 3355, Control_c, 10, 11, 82
10, 3378, Control_c, 10, 11, 81
10, 3401, Control_c, 10, 11, 80
10, 3424, Control_c, 10, 11, 79
10, 3447, Control_c, 10, 11, 78
10, 3470, Control_c, 10, 11, 77
10, 3493, Control_c, 10, 11, 76
10, 3516, Control_c, 10, 11, 75
10, 3539, Control_c, 10, 11, 74
10, 3562, Control_c, 10, 11, 73
10, 3585, Note_on_c, 10, 62, 0
10, 3585, Control_c, 10, 11, 72
10, 3600, Note_on_c, 10, 78, 102
10, 3600, Control_c, 10, 11, 47
10, 3651, Note_on_c, 10, 78, 0
10, 3720, Note_on_c, 10, 79, 102
10, 3771, Note_on_c, 10, 79, 0
10, 3840, Note_on_c, 10, 81, 102
10, 3891, Note_on_c, 10, 81, 0
10, 3960, Note_on_c, 10, 64, 102
10, 3960, Control_c, 10, 11, 87
10, 3983, Control_c, 10, 11, 86
10, 4006, Control_c, 10, 11, 85
10, 4029, Control_c, 10, 11, 84
10, 4052, Control_c, 10, 11, 83
10, 4075, Control_c, 10, 11, 82
10, 4098, Control_c, 10, 11, 81
10, 4121, Control_c, 10, 11, 80
10, 4144, Control_c, 10, 11, 79
10, 4167, Control_c, 10, 11, 78
10, 4190, Control_c, 10, 11, 77
10, 4213, Control_c, 10, 11, 76
10, 4236, Control_c, 10, 11, 75
10, 4259, Control_c, 10, 11, 74
10, 4282, Control_c, 10, 11, 73
10, 4305, Note_on_c, 10, 64, 0
10, 4305, Control_c, 10, 11, 72
10, 4320, Control_c, 10, 11, 47
10, 4320, Note_on_c, 10, 83, 102
10, 4371, Note_on_c, 10, 83, 0
10, 4440, Note_on_c, 10, 85, 102
10, 4491, Note_on_c, 10, 85, 0
10, 4560, Note_on_c, 10, 86, 102
10, 4611, Note_on_c, 10, 86, 0
10, 5040, Note_on_c, 10, 83, 102
10, 5091, Note_on_c, 10, 83, 0
10, 5160, Note_on_c, 10, 85, 102
10, 5211, Note_on_c, 10, 85, 0
10, 5280, Note_on_c, 10, 86, 102
10, 5331, Note_on_c, 10, 86, 0
10, 5760, Note_on_c, 10, 81, 102
10, 5760, Control_c, 10, 11, 102
10, 5820, Note_on_c, 10, 81, 0
10, 5880, Note_on_c, 10, 80, 102
10, 5940, Note_on_c, 10, 80, 0
10, 6000, Note_on_c, 10, 81, 102
10, 6060, Note_on_c, 10, 81, 0
10, 6120, Control_c, 10, 11, 87
10, 6120, Note_on_c, 10, 62, 102
10, 6143, Control_c, 10, 11, 86
10, 6166, Control_c, 10, 11, 85
10, 6189, Control_c, 10, 11, 84
10, 6212, Control_c, 10, 11, 83
10, 6235, Control_c, 10, 11, 82
10, 6258, Control_c, 10, 11, 81
10, 6281, Control_c, 10, 11, 80
10, 6304, Control_c, 10, 11, 79
10, 6327, Control_c, 10, 11, 78
10, 6350, Control_c, 10, 11, 77
10, 6373, Control_c, 10, 11, 76
10, 6396, Control_c, 10, 11, 75
10, 6419, Control_c, 10, 11, 74
10, 6442, Control_c, 10, 11, 73
10, 6465, Note_on_c, 10, 62, 0
10, 6465, Control_c, 10, 11, 72
10, 6480, Control_c, 10, 11, 47
10, 6480, Note_on_c, 10, 78, 102
10, 6531, Note_on_c, 10, 78, 0
10, 6600, Note_on_c, 10, 79, 102
10, 6651, Note_on_c, 10, 79, 0
10, 6720, Note_on_c, 10, 81, 102
10, 6771, Note_on_c, 10, 81, 0
10, 6840, Control_c, 10, 11, 87
10, 6840, Note_on_c, 10, 64, 102
10, 6840, Note_on_c, 10, 55, 102
10, 6863, Control_c, 10, 11, 86
10, 6886, Control_c, 10, 11, 85
10, 6909, Control_c, 10, 11, 84
10, 6932, Control_c, 10, 11, 83
10, 6955, Control_c, 10, 11, 82
10, 6978, Control_c, 10, 11, 81
10, 7001, Control_c, 10, 11, 80
10, 7024, Control_c, 10, 11, 79
10, 7047, Control_c, 10, 11, 78
10, 7070, Control_c, 10, 11, 77
10, 7093, Control_c, 10, 11, 76
10, 7116, Control_c, 10, 11, 75
10, 7139, Control_c, 10, 11, 74
10, 7162, Control_c, 10, 11, 73
10, 7185, Note_on_c, 10, 55, 0
10, 7185, Note_on_c, 10, 64, 0
10, 7185, Control_c, 10, 11, 72
10, 7200, Note_on_c, 10, 79, 102
10, 7200, Control_c, 10, 11, 47
10, 7251, Note_on_c, 10, 79, 0
10, 7320, Note_on_c, 10, 81, 102
10, 7371, Note_on_c, 10, 81, 0
10, 7440, Note_on_c, 10, 83, 102
10, 7491, Note_on_c, 10, 83, 0
10, 7920, Control_c, 10, 11, 47
10, 7920, Note_on_c, 10, 76, 102
10, 7971, Note_on_c, 10, 76, 0
10, 8040, Note_on_c, 10, 78, 102
10, 8091, Note_on_c, 10, 78, 0
10, 8160, Note_on_c, 10, 79, 102
10, 8211, Note_on_c, 10, 79, 0
10, 8640, Note_on_c, 10, 86, 102
10, 8640, Control_c, 10, 11, 102
10, 8700, Note_on_c, 10, 86, 0
10, 8760, Note_on_c, 10, 85, 102
10, 8820, Note_on_c, 10, 85, 0
10, 8880, Note_on_c, 10, 86, 102
10, 8940, Note_on_c, 10, 86, 0
10, 9000, Control_c, 10, 11, 87
10, 9000, Note_on_c, 10, 62, 102
10, 9023, Control_c, 10, 11, 86
10, 9046, Control_c, 10, 11, 85
10, 9069, Control_c, 10, 11, 84
10, 9092, Control_c, 10, 11, 83
10, 9115, Control_c, 10, 11, 82
10, 9138, Control_c, 10, 11, 81
10, 9161, Control_c, 10, 11, 80
10, 9184, Control_c, 10, 11, 79
10, 9207, Control_c, 10, 11, 78
10, 9230, Control_c, 10, 11, 77
10, 9253, Control_c, 10, 11, 76
10, 9276, Control_c, 10, 11, 75
10, 9299, Control_c, 10, 11, 74
10, 9322, Control_c, 10, 11, 73
10, 9345, Note_on_c, 10, 62, 0
10, 9345, Control_c, 10, 11, 72
10, 9360, Note_on_c, 10, 78, 102
10, 9360, Control_c, 10, 11, 47
10, 9411, Note_on_c, 10, 78, 0
10, 9480, Note_on_c, 10, 79, 102
10, 9531, Note_on_c, 10, 79, 0
10, 9600, Note_on_c, 10, 81, 102
10, 9651, Note_on_c, 10, 81, 0
10, 9720, Note_on_c, 10, 64, 102
10, 9720, Control_c, 10, 11, 87
10, 9743, Control_c, 10, 11, 86
10, 9766, Control_c, 10, 11, 85
10, 9789, Control_c, 10, 11, 84
10, 9812, Control_c, 10, 11, 83
10, 9835, Control_c, 10, 11, 82
10, 9858, Control_c, 10, 11, 81
10, 9881, Control_c, 10, 11, 80
10, 9904, Control_c, 10, 11, 79
10, 9927, Control_c, 10, 11, 78
10, 9950, Control_c, 10, 11, 77
10, 9973, Control_c, 10, 11, 76
10, 9996, Control_c, 10, 11, 75
10, 10019, Control_c, 10, 11, 74
10, 10042, Control_c, 10, 11, 73
10, 10065, Note_on_c, 10, 64, 0
10, 10065, Control_c, 10, 11, 72
10, 10080, Control_c, 10, 11, 47
10, 10080, Note_on_c, 10, 83, 102
10, 10131, Note_on_c, 10, 83, 0
10, 10200, Note_on_c, 10, 85, 102
10, 10251, Note_on_c, 10, 85, 0
10, 10320, Note_on_c, 10, 86, 102
10, 10371, Note_on_c, 10, 86, 0
10, 10800, Note_on_c, 10, 83, 102
10, 10851, Note_on_c, 10, 83, 0
10, 10920, Note_on_c, 10, 85, 102
10, 10971, Note_on_c, 10, 85, 0
10, 11040, Note_on_c, 10, 86, 102
10, 11091, Note_on_c, 10, 86, 0
10, 11520, Note_on_c, 10, 81, 102
10, 11520, Control_c, 10, 11, 102
10, 11580, Note_on_c, 10, 81, 0
10, 11640, Note_on_c, 10, 80, 102
10, 11700, Note_on_c, 10, 80, 0
10, 11760, Note_on_c, 10, 81, 102
10, 11820, Note_on_c, 10, 81, 0
10, 11880, Note_on_c, 10, 69, 102
10, 11880, Control_c, 10, 11, 47
10, 12220, Note_on_c, 10, 69, 0
10, 12240, Note_on_c, 10, 77, 102
10, 12291, Note_on_c, 10, 77, 0
10, 12360, Note_on_c, 10, 76, 102
10, 12411, Note_on_c, 10, 76, 0
10, 12480, Note_on_c, 10, 77, 102
10, 12531, Note_on_c, 10, 77, 0
10, 12600, Note_on_c, 10, 65, 102
10, 12940, Note_on_c, 10, 65, 0
10, 12960, Note_on_c, 10, 74, 102
10, 13011, Note_on_c, 10, 74, 0
10, 13080, Note_on_c, 10, 73, 102
10, 13131, Note_on_c, 10, 73, 0
10, 13200, Note_on_c, 10, 74, 102
10, 13251, Note_on_c, 10, 74, 0
10, 13320, Note_on_c, 10, 58, 102
10, 13380, Note_on_c, 10, 58, 0
10, 13440, Control_c, 10, 11, 72
10, 13440, Note_on_c, 10, 77, 102
10, 13448, Control_c, 10, 11, 75
10, 13457, Control_c, 10, 11, 78
10, 13466, Control_c, 10, 11, 81
10, 13481, Control_c, 10, 11, 80
10, 13499, Control_c, 10, 11, 77
10, 13517, Control_c, 10, 11, 74
10, 13535, Control_c, 10, 11, 71
10, 13553, Control_c, 10, 11, 68
10, 13571, Control_c, 10, 11, 65
10, 13589, Control_c, 10, 11, 62
10, 13607, Control_c, 10, 11, 59
10, 13625, Control_c, 10, 11, 56
10, 13643, Control_c, 10, 11, 53
10, 13661, Control_c, 10, 11, 50
10, 13679, Control_c, 10, 11, 47
10, 13900, Note_on_c, 10, 77, 0
10, 13920, Note_on_c, 10, 74, 102
10, 13980, Note_on_c, 10, 74, 0
10, 13980, Note_on_c, 10, 70, 102
10, 14040, Note_on_c, 10, 70, 0
10, 14040, Note_on_c, 10, 69, 102
10, 14100, Note_on_c, 10, 69, 0
10, 14100, Note_on_c, 10, 72, 102
10, 14160, Note_on_c, 10, 72, 0
10, 14160, Note_on_c, 10, 75, 102
10, 14220, Note_on_c, 10, 75, 0
10, 14220, Note_on_c, 10, 74, 102
10, 14280, Note_on_c, 10, 74, 0
10, 14280, Note_on_c, 10, 72, 102
10, 14340, Note_on_c, 10, 72, 0
10, 14340, Note_on_c, 10, 70, 102
10, 14380, Note_on_c, 10, 70, 0
10, 14400, Note_on_c, 10, 69, 102
10, 14460, Note_on_c, 10, 69, 0
10, 14460, Note_on_c, 10, 67, 102
10, 14520, Note_on_c, 10, 67, 0
10, 14520, Note_on_c, 10, 65, 102
10, 14580, Note_on_c, 10, 65, 0
10, 14580, Note_on_c, 10, 63, 102
10, 14640, Note_on_c, 10, 63, 0
10, 14640, Note_on_c, 10, 62, 102
10, 14700, Note_on_c, 10, 62, 0
10, 14700, Note_on_c, 10, 60, 102
10, 14740, Note_on_c, 10, 60, 0
10, 14760, Note_on_c, 10, 58, 102
10, 14820, Note_on_c, 10, 58, 0
10, 14880, Control_c, 10, 11, 72
10, 14880, Note_on_c, 10, 77, 102
10, 14888, Control_c, 10, 11, 75
10, 14897, Control_c, 10, 11, 78
10, 14906, Control_c, 10, 11, 81
10, 14921, Control_c, 10, 11, 80
10, 14939, Control_c, 10, 11, 77
10, 14957, Control_c, 10, 11, 74
10, 14975, Control_c, 10, 11, 71
10, 14993, Control_c, 10, 11, 68
10, 15011, Control_c, 10, 11, 65
10, 15029, Control_c, 10, 11, 62
10, 15047, Control_c, 10, 11, 59
10, 15065, Control_c, 10, 11, 56
10, 15083, Control_c, 10, 11, 53
10, 15101, Control_c, 10, 11, 50
10, 15119, Control_c, 10, 11, 47
10, 15340, Note_on_c, 10, 77, 0
10, 15360, Note_on_c, 10, 74, 102
10, 15420, Note_on_c, 10, 74, 0
10, 15420, Note_on_c, 10, 70, 102
10, 15460, Note_on_c, 10, 70, 0
10, 15480, Note_on_c, 10, 69, 102
10, 15540, Note_on_c, 10, 69, 0
10, 15540, Note_on_c, 10, 72, 102
10, 15600, Note_on_c, 10, 72, 0
10, 15600, Note_on_c, 10, 75, 102
10, 15660, Note_on_c, 10, 75, 0
10, 15660, Note_on_c, 10, 74, 102
10, 15720, Note_on_c, 10, 74, 0
10, 15720, Note_on_c, 10, 72, 102
10, 15780, Note_on_c, 10, 72, 0
10, 15780, Note_on_c, 10, 70, 102
10, 15840, Note_on_c, 10, 70, 0
10, 15840, Note_on_c, 10, 69, 102
10, 15900, Note_on_c, 10, 69, 0
10, 15900, Note_on_c, 10, 67, 102
10, 15960, Note_on_c, 10, 67, 0
10, 15960, Note_on_c, 10, 65, 102
10, 16020, Note_on_c, 10, 65, 0
10, 16020, Note_on_c, 10, 63, 102
10, 16080, Note_on_c, 10, 63, 0
10, 16080, Note_on_c, 10, 62, 102
10, 16140, Note_on_c, 10, 62, 0
10, 16140, Note_on_c, 10, 60, 102
10, 16180, Note_on_c, 10, 60, 0
10, 16200, Note_on_c, 10, 58, 102
10, 16260, Note_on_c, 10, 58, 0
10, 16320, Note_on_c, 10, 74, 102
10, 16380, Note_on_c, 10, 74, 0
10, 16380, Note_on_c, 10, 73, 102
10, 16440, Note_on_c, 10, 73, 0
10, 16440, Note_on_c, 10, 74, 102
10, 16500, Note_on_c, 10, 74, 0
10, 16500, Note_on_c, 10, 76, 102
10, 16540, Note_on_c, 10, 76, 0
10, 16560, Note_on_c, 10, 77, 102
10, 16620, Note_on_c, 10, 77, 0
10, 16680, Note_on_c, 10, 74, 102
10, 16740, Note_on_c, 10, 74, 0
10, 16740, Note_on_c, 10, 73, 102
10, 16800, Note_on_c, 10, 73, 0
10, 16800, Note_on_c, 10, 74, 102
10, 16860, Note_on_c, 10, 74, 0
10, 16860, Note_on_c, 10, 76, 102
10, 16900, Note_on_c, 10, 76, 0
10, 16920, Note_on_c, 10, 77, 102
10, 16980, Note_on_c, 10, 77, 0
10, 17040, Note_on_c, 10, 74, 102
10, 17100, Note_on_c, 10, 74, 0
10, 17100, Note_on_c, 10, 73, 102
10, 17160, Note_on_c, 10, 73, 0
10, 17160, Note_on_c, 10, 74, 102
10, 17220, Note_on_c, 10, 74, 0
10, 17220, Note_on_c, 10, 76, 102
10, 17260, Note_on_c, 10, 76, 0
10, 17280, Control_c, 10, 11, 47
10, 17280, Note_on_c, 10, 77, 102
10, 17316, Control_c, 10, 11, 46
10, 17340, Note_on_c, 10, 77, 0
10, 17352, Control_c, 10, 11, 45
10, 17388, Control_c, 10, 11, 44
10, 17400, Note_on_c, 10, 79, 102
10, 17424, Control_c, 10, 11, 43
10, 17460, Note_on_c, 10, 79, 0
10, 17460, Note_on_c, 10, 77, 102
10, 17460, Control_c, 10, 11, 42
10, 17496, Control_c, 10, 11, 41
10, 17520, Note_on_c, 10, 77, 0
10, 17520, Note_on_c, 10, 76, 102
10, 17532, Control_c, 10, 11, 40
10, 17568, Control_c, 10, 11, 39
10, 17580, Note_on_c, 10, 76, 0
10, 17580, Note_on_c, 10, 74, 102
10, 17604, Control_c, 10, 11, 38
10, 17620, Note_on_c, 10, 74, 0
10, 17640, Note_on_c, 10, 73, 102
10, 17640, Control_c, 10, 11, 37
10, 17700, Note_on_c, 10, 73, 0
10, 17760, Note_on_c, 10, 74, 102
10, 17820, Note_on_c, 10, 74, 0
10, 17820, Note_on_c, 10, 73, 102
10, 17880, Note_on_c, 10, 73, 0
10, 17880, Note_on_c, 10, 71, 102
10, 17940, Note_on_c, 10, 71, 0
10, 17940, Note_on_c, 10, 69, 102
10, 17980, Note_on_c, 10, 69, 0
10, 18000, Control_c, 10, 11, 37
10, 18000, Note_on_c, 10, 77, 102
10, 18036, Control_c, 10, 11, 36
10, 18060, Note_on_c, 10, 77, 0
10, 18072, Control_c, 10, 11, 35
10, 18108, Control_c, 10, 11, 34
10, 18120, Note_on_c, 10, 79, 102
10, 18144, Control_c, 10, 11, 33
10, 18180, Note_on_c, 10, 79, 0
10, 18180, Control_c, 10, 11, 32
10, 18180, Note_on_c, 10, 77, 102
10, 18216, Control_c, 10, 11, 31
10, 18240, Note_on_c, 10, 77, 0
10, 18240, Note_on_c, 10, 76, 102
10, 18252, Control_c, 10, 11, 30
10, 18288, Control_c, 10, 11, 29
10, 18300, Note_on_c, 10, 76, 0
10, 18300, Note_on_c, 10, 74, 102
10, 18324, Control_c, 10, 11, 28
10, 18340, Note_on_c, 10, 74, 0
10, 18360, Control_c, 10, 11, 27
10, 18360, Note_on_c, 10, 73, 102
10, 18420, Note_on_c, 10, 73, 0
10, 18480, Note_on_c, 10, 74, 102
10, 18540, Note_on_c, 10, 74, 0
10, 18540, Note_on_c, 10, 73, 102
10, 18600, Note_on_c, 10, 73, 0
10, 18600, Note_on_c, 10, 71, 102
10, 18660, Note_on_c, 10, 71, 0
10, 18660, Note_on_c, 10, 69, 102
10, 18700, Note_on_c, 10, 69, 0
10, 18720, Note_on_c, 10, 77, 102
10, 18780, Note_on_c, 10, 77, 0
10, 18840, Note_on_c, 10, 79, 102
10, 18840, Control_c, 10, 11, 27
10, 18856, Control_c, 10, 11, 28
10, 18872, Control_c, 10, 11, 29
10, 18888, Control_c, 10, 11, 30
10, 18900, Note_on_c, 10, 79, 0
10, 18900, Note_on_c, 10, 77, 102
10, 18904, Control_c, 10, 11, 31
10, 18920, Control_c, 10, 11, 32
10, 18936, Control_c, 10, 11, 33
10, 18952, Control_c, 10, 11, 34
10, 18960, Note_on_c, 10, 77, 0
10, 18960, Note_on_c, 10, 76, 102
10, 18968, Control_c, 10, 11, 35
10, 18984, Control_c, 10, 11, 36
10, 19000, Control_c, 10, 11, 37
10, 19016, Control_c, 10, 11, 38
10, 19020, Note_on_c, 10, 76, 0
10, 19020, Note_on_c, 10, 74, 102
10, 19032, Control_c, 10, 11, 39
10, 19048, Control_c, 10, 11, 40
10, 19060, Note_on_c, 10, 74, 0
10, 19064, Control_c, 10, 11, 41
10, 19080, Control_c, 10, 11, 42
10, 19080, Note_on_c, 10, 73, 102
10, 19096, Control_c, 10, 11, 43
10, 19112, Control_c, 10, 11, 44
10, 19128, Control_c, 10, 11, 45
10, 19140, Note_on_c, 10, 73, 0
10, 19144, Control_c, 10, 11, 46
10, 19160, Control_c, 10, 11, 47
10, 19176, Control_c, 10, 11, 48
10, 19192, Control_c, 10, 11, 49
10, 19200, Note_on_c, 10, 76, 102
10, 19208, Control_c, 10, 11, 50
10, 19224, Control_c, 10, 11, 51
10, 19240, Control_c, 10, 11, 52
10, 19256, Control_c, 10, 11, 53
10, 19260, Note_on_c, 10, 76, 0
10, 19260, Note_on_c, 10, 74, 102
10, 19272, Control_c, 10, 11, 54
10, 19288, Control_c, 10, 11, 55
10, 19304, Control_c, 10, 11, 56
10, 19320, Note_on_c, 10, 74, 0
10, 19320, Control_c, 10, 11, 57
10, 19320, Note_on_c, 10, 73, 102
10, 19336, Control_c, 10, 11, 58
10, 19352, Control_c, 10, 11, 59
10, 19368, Control_c, 10, 11, 60
10, 19380, Note_on_c, 10, 73, 0
10, 19380, Note_on_c, 10, 71, 102
10, 19384, Control_c, 10, 11, 61
10, 19400, Control_c, 10, 11, 62
10, 19416, Control_c, 10, 11, 63
10, 19420, Note_on_c, 10, 71, 0
10, 19432, Control_c, 10, 11, 64
10, 19440, Note_on_c, 10, 69, 102
10, 19448, Control_c, 10, 11, 65
10, 19464, Control_c, 10, 11, 66
10, 19480, Control_c, 10, 11, 67
10, 19496, Control_c, 10, 11, 68
10, 19500, Note_on_c, 10, 69, 0
10, 19500, Note_on_c, 10, 68, 102
10, 19512, Control_c, 10, 11, 69
10, 19528, Control_c, 10, 11, 70
10, 19540, Note_on_c, 10, 68, 0
10, 19544, Control_c, 10, 11, 71
10, 19560, Note_on_c, 10, 69, 102
10, 19560, Control_c, 10, 11, 72
10, 19576, Control_c, 10, 11, 73
10, 19590, Note_on_c, 10, 69, 0
10, 19592, Control_c, 10, 11, 74
10, 19608, Control_c, 10, 11, 75
10, 19620, Note_on_c, 10, 67, 102
10, 19624, Control_c, 10, 11, 76
10, 19640, Control_c, 10, 11, 77
10, 19650, Note_on_c, 10, 67, 0
10, 19656, Control_c, 10, 11, 78
10, 19672, Control_c, 10, 11, 79
10, 19680, Note_on_c, 10, 66, 102
10, 19688, Control_c, 10, 11, 80
10, 19704, Control_c, 10, 11, 81
10, 19710, Note_on_c, 10, 66, 0
10, 19720, Control_c, 10, 11, 82
10, 19736, Control_c, 10, 11, 83
10, 19740, Note_on_c, 10, 64, 102
10, 19752, Control_c, 10, 11, 84
10, 19768, Control_c, 10, 11, 85
10, 19770, Note_on_c, 10, 64, 0
10, 19784, Control_c, 10, 11, 86
10, 19800, Note_on_c, 10, 62, 102
10, 19800, Control_c, 10, 11, 87
10, 19823, Control_c, 10, 11, 86
10, 19846, Control_c, 10, 11, 85
10, 19869, Control_c, 10, 11, 84
10, 19892, Control_c, 10, 11, 83
10, 19915, Control_c, 10, 11, 82
10, 19938, Control_c, 10, 11, 81
10, 19961, Control_c, 10, 11, 80
10, 19984, Control_c, 10, 11, 79
10, 20007, Control_c, 10, 11, 78
10, 20030, Control_c, 10, 11, 77
10, 20053, Control_c, 10, 11, 76
10, 20076, Control_c, 10, 11, 75
10, 20099, Control_c, 10, 11, 74
10, 20122, Control_c, 10, 11, 73
10, 20140, Note_on_c, 10, 62, 0
10, 20145, Control_c, 10, 11, 72
10, 20160, Control_c, 10, 11, 47
10, 20160, Note_on_c, 10, 78, 102
10, 20211, Note_on_c, 10, 78, 0
10, 20280, Note_on_c, 10, 79, 102
10, 20331, Note_on_c, 10, 79, 0
10, 20400, Note_on_c, 10, 81, 102
10, 20451, Note_on_c, 10, 81, 0
10, 20520, Note_on_c, 10, 64, 102
10, 20520, Note_on_c, 10, 55, 102
10, 20520, Control_c, 10, 11, 87
10, 20543, Control_c, 10, 11, 86
10, 20566, Control_c, 10, 11, 85
10, 20589, Control_c, 10, 11, 84
10, 20612, Control_c, 10, 11, 83
10, 20635, Control_c, 10, 11, 82
10, 20658, Control_c, 10, 11, 81
10, 20681, Control_c, 10, 11, 80
10, 20704, Control_c, 10, 11, 79
10, 20727, Control_c, 10, 11, 78
10, 20750, Control_c, 10, 11, 77
10, 20773, Control_c, 10, 11, 76
10, 20796, Control_c, 10, 11, 75
10, 20819, Control_c, 10, 11, 74
10, 20842, Control_c, 10, 11, 73
10, 20860, Note_on_c, 10, 55, 0
10, 20860, Note_on_c, 10, 64, 0
10, 20865, Control_c, 10, 11, 72
10, 20880, Note_on_c, 10, 79, 102
10, 20880, Control_c, 10, 11, 47
10, 20931, Note_on_c, 10, 79, 0
10, 21000, Note_on_c, 10, 81, 102
10, 21051, Note_on_c, 10, 81, 0
10, 21120, Note_on_c, 10, 83, 102
10, 21171, Note_on_c, 10, 83, 0
10, 21600, Note_on_c, 10, 76, 102
10, 21651, Note_on_c, 10, 76, 0
10, 21720, Note_on_c, 10, 78, 102
10, 21771, Note_on_c, 10, 78, 0
10, 21840, Note_on_c, 10, 79, 102
10, 21891, Note_on_c, 10, 79, 0
10, 22320, Control_c, 10, 11, 102
10, 22320, Note_on_c, 10, 86, 102
10, 22380, Note_on_c, 10, 86, 0
10, 22440, Note_on_c, 10, 85, 102
10, 22500, Note_on_c, 10, 85, 0
10, 22560, Note_on_c, 10, 86, 102
10, 22620, Note_on_c, 10, 86, 0
10, 22680, Note_on_c, 10, 62, 102
10, 22680, Control_c, 10, 11, 87
10, 22703, Control_c, 10, 11, 86
10, 22726, Control_c, 10, 11, 85
10, 22749, Control_c, 10, 11, 84
10, 22772, Control_c, 10, 11, 83
10, 22795, Control_c, 10, 11, 82
10, 22818, Control_c, 10, 11, 81
10, 22841, Control_c, 10, 11, 80
10, 22864, Control_c, 10, 11, 79
10, 22887, Control_c, 10, 11, 78
10, 22910, Control_c, 10, 11, 77
10, 22933, Control_c, 10, 11, 76
10, 22956, Control_c, 10, 11, 75
10, 22979, Control_c, 10, 11, 74
10, 23002, Control_c, 10, 11, 73
10, 23020, Note_on_c, 10, 62, 0
10, 23025, Control_c, 10, 11, 72
10, 23040, Control_c, 10, 11, 47
10, 23040, Note_on_c, 10, 78, 102
10, 23091, Note_on_c, 10, 78, 0
10, 23160, Note_on_c, 10, 79, 102
10, 23211, Note_on_c, 10, 79, 0
10, 23280, Note_on_c, 10, 81, 102
10, 23331, Note_on_c, 10, 81, 0
10, 23400, Note_on_c, 10, 55, 102
10, 23400, Control_c, 10, 11, 87
10, 23400, Note_on_c, 10, 64, 102
10, 23423, Control_c, 10, 11, 86
10, 23446, Control_c, 10, 11, 85
10, 23469, Control_c, 10, 11, 84
10, 23492, Control_c, 10, 11, 83
10, 23515, Control_c, 10, 11, 82
10, 23538, Control_c, 10, 11, 81
10, 23561, Control_c, 10, 11, 80
10, 23584, Control_c, 10, 11, 79
10, 23607, Control_c, 10, 11, 78
10, 23630, Control_c, 10, 11, 77
10, 23653, Control_c, 10, 11, 76
10, 23676, Control_c, 10, 11, 75
10, 23699, Control_c, 10, 11, 74
10, 23722, Control_c, 10, 11, 73
10, 23740, Note_on_c, 10, 64, 0
10, 23740, Note_on_c, 10, 55, 0
10, 23745, Control_c, 10, 11, 72
10, 23760, Note_on_c, 10, 79, 102
10, 23760, Control_c, 10, 11, 47
10, 23811, Note_on_c, 10, 79, 0
10, 23880, Note_on_c, 10, 81, 102
10, 23931, Note_on_c, 10, 81, 0
10, 24000, Note_on_c, 10, 83, 102
10, 24051, Note_on_c, 10, 83, 0
10, 24120, Note_on_c, 10, 67, 102
10, 24171, Note_on_c, 10, 67, 0
10, 24240, Note_on_c, 10, 69, 102
10, 24291, Note_on_c, 10, 69, 0
10, 24360, Note_on_c, 10, 71, 102
10, 24411, Note_on_c, 10, 71, 0
10, 24840, Note_on_c, 10, 67, 102
10, 24891, Note_on_c, 10, 67, 0
10, 24960, Note_on_c, 10, 69, 102
10, 25011, Note_on_c, 10, 69, 0
10, 25080, Note_on_c, 10, 70, 102
10, 25131, Note_on_c, 10, 70, 0
10, 25560, Note_on_c, 10, 67, 102
10, 25560, Control_c, 10, 11, 47
10, 25611, Note_on_c, 10, 67, 0
10, 25656, Control_c, 10, 11, 46
10, 25680, Note_on_c, 10, 69, 102
10, 25731, Note_on_c, 10, 69, 0
10, 25752, Control_c, 10, 11, 45
10, 25800, Note_on_c, 10, 70, 102
10, 25848, Control_c, 10, 11, 44
10, 25851, Note_on_c, 10, 70, 0
10, 25920, Note_on_c, 10, 67, 102
10, 25944, Control_c, 10, 11, 43
10, 25971, Note_on_c, 10, 67, 0
10, 26040, Note_on_c, 10, 69, 102
10, 26040, Control_c, 10, 11, 42
10, 26091, Note_on_c, 10, 69, 0
10, 26136, Control_c, 10, 11, 41
10, 26160, Note_on_c, 10, 70, 102
10, 26211, Note_on_c, 10, 70, 0
10, 26232, Control_c, 10, 11, 40
10, 26280, Note_on_c, 10, 67, 102
10, 26328, Control_c, 10, 11, 39
10, 26331, Note_on_c, 10, 67, 0
10, 26400, Note_on_c, 10, 69, 102
10, 26424, Control_c, 10, 11, 38
10, 26451, Note_on_c, 10, 69, 0
10, 26520, Control_c, 10, 11, 37
10, 26520, Note_on_c, 10, 70, 102
10, 26571, Note_on_c, 10, 70, 0
10, 26616, Control_c, 10, 11, 36
10, 26640, Note_on_c, 10, 67, 102
10, 26691, Note_on_c, 10, 67, 0
10, 26712, Control_c, 10, 11, 35
10, 26760, Note_on_c, 10, 69, 102
10, 26808, Control_c, 10, 11, 34
10, 26811, Note_on_c, 10, 69, 0
10, 26880, Note_on_c, 10, 70, 102
10, 26904, Control_c, 10, 11, 33
10, 26931, Note_on_c, 10, 70, 0
10, 27000, Control_c, 10, 11, 32
10, 27000, Note_on_c, 10, 67, 102
10, 27051, Note_on_c, 10, 67, 0
10, 27120, Note_on_c, 10, 69, 102
10, 27171, Note_on_c, 10, 69, 0
10, 27240, Note_on_c, 10, 70, 102
10, 27291, Note_on_c, 10, 70, 0
10, 27360, Note_on_c, 10, 69, 102
10, 27480, Note_on_c, 10, 69, 0
10, 27720, Note_on_c, 10, 64, 102
10, 27771, Note_on_c, 10, 64, 0
10, 27840, Note_on_c, 10, 65, 102
10, 27891, Note_on_c, 10, 65, 0
10, 27960, Note_on_c, 10, 67, 102
10, 28011, Note_on_c, 10, 67, 0
10, 28080, Note_on_c, 10, 65, 102
10, 28200, Note_on_c, 10, 65, 0
10, 29160, Note_on_c, 10, 69, 102
10, 29160, Note_on_c, 10, 81, 102
10, 29160, Control_c, 10, 11, 87
10, 29280, Note_on_c, 10, 81, 0
10, 29280, Note_on_c, 10, 80, 102
10, 29400, Note_on_c, 10, 80, 0
10, 29400, Note_on_c, 10, 79, 102
10, 29500, Note_on_c, 10, 79, 0
10, 29500, Note_on_c, 10, 69, 0
10, 29520, Note_on_c, 10, 78, 102
10, 29580, Note_on_c, 10, 78, 0
10, 29640, Note_on_c, 10, 76, 102
10, 29700, Note_on_c, 10, 76, 0
10, 29760, Note_on_c, 10, 74, 102
10, 29820, Note_on_c, 10, 74, 0
10, 29880, Control_c, 10, 11, 32
10, 29880, Note_on_c, 10, 72, 102
10, 30220, Note_on_c, 10, 72, 0
10, 30240, Note_on_c, 10, 77, 102
10, 30300, Note_on_c, 10, 77, 0
10, 30360, Note_on_c, 10, 76, 102
10, 30420, Note_on_c, 10, 76, 0
10, 30480, Note_on_c, 10, 77, 102
10, 30540, Note_on_c, 10, 77, 0
10, 30600, Note_on_c, 10, 69, 102
10, 30940, Note_on_c, 10, 69, 0
10, 30960, Note_on_c, 10, 74, 102
10, 31020, Note_on_c, 10, 74, 0
10, 31080, Note_on_c, 10, 73, 102
10, 31140, Note_on_c, 10, 73, 0
10, 31200, Note_on_c, 10, 74, 102
10, 31260, Note_on_c, 10, 74, 0
10, 32040, Note_on_c, 10, 81, 102
10, 32040, Note_on_c, 10, 69, 102
10, 32040, Control_c, 10, 11, 87
10, 32160, Note_on_c, 10, 81, 0
10, 32160, Note_on_c, 10, 80, 102
10, 32280, Note_on_c, 10, 80, 0
10, 32280, Note_on_c, 10, 79, 102
10, 32380, Note_on_c, 10, 79, 0
10, 32380, Note_on_c, 10, 69, 0
10, 32400, Note_on_c, 10, 78, 102
10, 32460, Note_on_c, 10, 78, 0
10, 32520, Note_on_c, 10, 76, 102
10, 32580, Note_on_c, 10, 76, 0
10, 32640, Note_on_c, 10, 74, 102
10, 32700, Note_on_c, 10, 74, 0
10, 33480, Control_c, 10, 11, 93
10, 33480, Note_on_c, 10, 69, 102
10, 33480, Note_on_c, 10, 81, 102
10, 33490, Control_c, 10, 11, 96
10, 33501, Control_c, 10, 11, 99
10, 33511, Control_c, 10, 11, 102
10, 33533, Control_c, 10, 11, 101
10, 33551, Control_c, 10, 11, 99
10, 33569, Control_c, 10, 11, 97
10, 33587, Control_c, 10, 11, 95
10, 33600, Note_on_c, 10, 81, 0
10, 33600, Note_on_c, 10, 80, 102
10, 33605, Control_c, 10, 11, 93
10, 33623, Control_c, 10, 11, 91
10, 33641, Control_c, 10, 11, 89
10, 33659, Control_c, 10, 11, 87
10, 33720, Note_on_c, 10, 80, 0
10, 33720, Note_on_c, 10, 79, 102
10, 33820, Note_on_c, 10, 79, 0
10, 33820, Note_on_c, 10, 69, 0
10, 33840, Note_on_c, 10, 78, 102
10, 33900, Note_on_c, 10, 78, 0
10, 33960, Note_on_c, 10, 74, 102
10, 34020, Note_on_c, 10, 74, 0
10, 34080, Note_on_c, 10, 78, 102
10, 34140, Note_on_c, 10, 78, 0
10, 34200, Note_on_c, 10, 81, 102
10, 34200, Note_on_c, 10, 69, 102
10, 34200, Control_c, 10, 11, 93
10, 34210, Control_c, 10, 11, 96
10, 34221, Control_c, 10, 11, 99
10, 34231, Control_c, 10, 11, 102
10, 34253, Control_c, 10, 11, 101
10, 34271, Control_c, 10, 11, 99
10, 34289, Control_c, 10, 11, 97
10, 34307, Control_c, 10, 11, 95
10, 34320, Note_on_c, 10, 81, 0
10, 34320, Note_on_c, 10, 80, 102
10, 34325, Control_c, 10, 11, 93
10, 34343, Control_c, 10, 11, 91
10, 34361, Control_c, 10, 11, 89
10, 34379, Control_c, 10, 11, 87
10, 34440, Note_on_c, 10, 80, 0
10, 34440, Note_on_c, 10, 79, 102
10, 34540, Note_on_c, 10, 79, 0
10, 34540, Note_on_c, 10, 69, 0
10, 34560, Note_on_c, 10, 78, 102
10, 34620, Note_on_c, 10, 78, 0
10, 34680, Note_on_c, 10, 74, 102
10, 34740, Note_on_c, 10, 74, 0
10, 34800, Note_on_c, 10, 78, 102
10, 34860, Note_on_c, 10, 78, 0
10, 34920, Control_c, 10, 11, 102
10, 34920, Note_on_c, 10, 81, 102
10, 34920, Note_on_c, 10, 69, 102
10, 35400, Note_on_c, 10, 81, 0
10, 35400, Note_on_c, 10, 80, 102
10, 35520, Note_on_c, 10, 80, 0
10, 35520, Note_on_c, 10, 79, 102
10, 35620, Note_on_c, 10, 79, 0
10, 35620, Note_on_c, 10, 69, 0
10, 35640, Note_on_c, 10, 78, 102
10, 35760, Note_on_c, 10, 78, 0
10, 35880, Note_on_c, 10, 69, 102
10, 35880, Note_on_c, 10, 85, 102
10, 35940, Note_on_c, 10, 85, 0
10, 35940, Note_on_c, 10, 69, 0
10, 36000, Note_on_c, 10, 62, 102
10, 36000, Note_on_c, 10, 86, 102
10, 36000, Note_on_c, 10, 69, 102
10, 36060, Note_on_c, 10, 69, 0
10, 36060, Note_on_c, 10, 86, 0
10, 36060, Note_on_c, 10, 62, 0
10, 36360, Note_on_c, 10, 69, 102
10, 36360, Control_c, 10, 11, 47
10, 36700, Note_on_c, 10, 69, 0
10, 36720, Note_on_c, 10, 77, 102
10, 36771, Note_on_c, 10, 77, 0
10, 36840, Note_on_c, 10, 76, 102
10, 36891, Note_on_c, 10, 76, 0
10, 36960, Note_on_c, 10, 77, 102
10, 37011, Note_on_c, 10, 77, 0
10, 37080, Note_on_c, 10, 65, 102
10, 37420, Note_on_c, 10, 65, 0
10, 37440, Note_on_c, 10, 74, 102
10, 37491, Note_on_c, 10, 74, 0
10, 37560, Note_on_c, 10, 73, 102
10, 37611, Note_on_c, 10, 73, 0
10, 37680, Note_on_c, 10, 74, 102
10, 37731, Note_on_c, 10, 74, 0
10, 37800, Note_on_c, 10, 58, 102
10, 37860, Note_on_c, 10, 58, 0
10, 37920, Control_c, 10, 11, 72
10, 37920, Note_on_c, 10, 77, 102
10, 37928, Control_c, 10, 11, 75
10, 37937, Control_c, 10, 11, 78
10, 37946, Control_c, 10, 11, 81
10, 37961, Control_c, 10, 11, 80
10, 37979, Control_c, 10, 11, 77
10, 37997, Control_c, 10, 11, 74
10, 38015, Control_c, 10, 11, 71
10, 38033, Control_c, 10, 11, 68
10, 38051, Control_c, 10, 11, 65
10, 38069, Control_c, 10, 11, 62
10, 38087, Control_c, 10, 11, 59
10, 38105, Control_c, 10, 11, 56
10, 38123, Control_c, 10, 11, 53
10, 38141, Control_c, 10, 11, 50
10, 38159, Control_c, 10, 11, 47
10, 38380, Note_on_c, 10, 77, 0
10, 38400, Note_on_c, 10, 74, 102
10, 38460, Note_on_c, 10, 74, 0
10, 38460, Note_on_c, 10, 70, 102
10, 38520, Note_on_c, 10, 70, 0
10, 38520, Note_on_c, 10, 69, 102
10, 38580, Note_on_c, 10, 69, 0
10, 38580, Note_on_c, 10, 72, 102
10, 38640, Note_on_c, 10, 72, 0
10, 38640, Note_on_c, 10, 75, 102
10, 38700, Note_on_c, 10, 75, 0
10, 38700, Note_on_c, 10, 74, 102
10, 38760, Note_on_c, 10, 74, 0
10, 38760, Note_on_c, 10, 72, 102
10, 38820, Note_on_c, 10, 72, 0
10, 38820, Note_on_c, 10, 70, 102
10, 38860, Note_on_c, 10, 70, 0
10, 38880, Note_on_c, 10, 69, 102
10, 38940, Note_on_c, 10, 69, 0
10, 38940, Note_on_c, 10, 67, 102
10, 39000, Note_on_c, 10, 67, 0
10, 39000, Note_on_c, 10, 65, 102
10, 39060, Note_on_c, 10, 65, 0
10, 39060, Note_on_c, 10, 63, 102
10, 39120, Note_on_c, 10, 63, 0
10, 39120, Note_on_c, 10, 62, 102
10, 39180, Note_on_c, 10, 62, 0
10, 39180, Note_on_c, 10, 60, 102
10, 39220, Note_on_c, 10, 60, 0
10, 39240, Note_on_c, 10, 58, 102
10, 39300, Note_on_c, 10, 58, 0
10, 39360, Control_c, 10, 11, 72
10, 39360, Note_on_c, 10, 77, 102
10, 39368, Control_c, 10, 11, 75
10, 39377, Control_c, 10, 11, 78
10, 39386, Control_c, 10, 11, 81
10, 39401, Control_c, 10, 11, 80
10, 39419, Control_c, 10, 11, 77
10, 39437, Control_c, 10, 11, 74
10, 39455, Control_c, 10, 11, 71
10, 39473, Control_c, 10, 11, 68
10, 39491, Control_c, 10, 11, 65
10, 39509, Control_c, 10, 11, 62
10, 39527, Control_c, 10, 11, 59
10, 39545, Control_c, 10, 11, 56
10, 39563, Control_c, 10, 11, 53
10, 39581, Control_c, 10, 11, 50
10, 39599, Control_c, 10, 11, 47
10, 39820, Note_on_c, 10, 77, 0
10, 39840, Note_on_c, 10, 74, 102
10, 39900, Note_on_c, 10, 74, 0
10, 39900, Note_on_c, 10, 70, 102
10, 39940, Note_on_c, 10, 70, 0
10, 39960, Note_on_c, 10, 69, 102
10, 40020, Note_on_c, 10, 69, 0
10, 40020, Note_on_c, 10, 72, 102
10, 40080, Note_on_c, 10, 72, 0
10, 40080, Note_on_c, 10, 75, 102
10, 40140, Note_on_c, 10, 75, 0
10, 40140, Note_on_c, 10, 74, 102
10, 40200, Note_on_c, 10, 74, 0
10, 40200, Note_on_c, 10, 72, 102
10, 40260, Note_on_c, 10, 72, 0
10, 40260, Note_on_c, 10, 70, 102
10, 40320, Note_on_c, 10, 70, 0
10, 40320, Note_on_c, 10, 69, 102
10, 40380, Note_on_c, 10, 69, 0
10, 40380, Note_on_c, 10, 67, 102
10, 40440, Note_on_c, 10, 67, 0
10, 40440, Note_on_c, 10, 65, 102
10, 40500, Note_on_c, 10, 65, 0
10, 40500, Note_on_c, 10, 63, 102
10, 40560, Note_on_c, 10, 63, 0
10, 40560, Note_on_c, 10, 62, 102
10, 40620, Note_on_c, 10, 62, 0
10, 40620, Note_on_c, 10, 60, 102
10, 40660, Note_on_c, 10, 60, 0
10, 40680, Note_on_c, 10, 58, 102
10, 40740, Note_on_c, 10, 58, 0
10, 40800, Note_on_c, 10, 74, 102
10, 40860, Note_on_c, 10, 74, 0
10, 40860, Note_on_c, 10, 73, 102
10, 40920, Note_on_c, 10, 73, 0
10, 40920, Note_on_c, 10, 74, 102
10, 40980, Note_on_c, 10, 74, 0
10, 40980, Note_on_c, 10, 76, 102
10, 41020, Note_on_c, 10, 76, 0
10, 41040, Note_on_c, 10, 77, 102
10, 41100, Note_on_c, 10, 77, 0
10, 41160, Note_on_c, 10, 74, 102
10, 41220, Note_on_c, 10, 74, 0
10, 41220, Note_on_c, 10, 73, 102
10, 41280, Note_on_c, 10, 73, 0
10, 41280, Note_on_c, 10, 74, 102
10, 41340, Note_on_c, 10, 74, 0
10, 41340, Note_on_c, 10, 76, 102
10, 41380, Note_on_c, 10, 76, 0
10, 41400, Note_on_c, 10, 77, 102
10, 41460, Note_on_c, 10, 77, 0
10, 41520, Note_on_c, 10, 74, 102
10, 41580, Note_on_c, 10, 74, 0
10, 41580, Note_on_c, 10, 73, 102
10, 41640, Note_on_c, 10, 73, 0
10, 41640, Note_on_c, 10, 74, 102
10, 41700, Note_on_c, 10, 74, 0
10, 41700, Note_on_c, 10, 76, 102
10, 41740, Note_on_c, 10, 76, 0
10, 41760, Control_c, 10, 11, 47
10, 41760, Note_on_c, 10, 77, 102
10, 41796, Control_c, 10, 11, 46
10, 41820, Note_on_c, 10, 77, 0
10, 41832, Control_c, 10, 11, 45
10, 41868, Control_c, 10, 11, 44
10, 41880, Note_on_c, 10, 79, 102
10, 41904, Control_c, 10, 11, 43
10, 41940, Note_on_c, 10, 79, 0
10, 41940, Control_c, 10, 11, 42
10, 41940, Note_on_c, 10, 77, 102
10, 41976, Control_c, 10, 11, 41
10, 42000, Note_on_c, 10, 77, 0
10, 42000, Note_on_c, 10, 76, 102
10, 42012, Control_c, 10, 11, 40
10, 42048, Control_c, 10, 11, 39
10, 42060, Note_on_c, 10, 76, 0
10, 42060, Note_on_c, 10, 74, 102
10, 42084, Control_c, 10, 11, 38
10, 42100, Note_on_c, 10, 74, 0
10, 42120, Control_c, 10, 11, 37
10, 42120, Note_on_c, 10, 73, 102
10, 42180, Note_on_c, 10, 73, 0
10, 42240, Note_on_c, 10, 74, 102
10, 42300, Note_on_c, 10, 74, 0
10, 42300, Note_on_c, 10, 73, 102
10, 42360, Note_on_c, 10, 73, 0
10, 42360, Note_on_c, 10, 71, 102
10, 42420, Note_on_c, 10, 71, 0
10, 42420, Note_on_c, 10, 69, 102
10, 42460, Note_on_c, 10, 69, 0
10, 42480, Control_c, 10, 11, 37
10, 42480, Note_on_c, 10, 77, 102
10, 42516, Control_c, 10, 11, 36
10, 42540, Note_on_c, 10, 77, 0
10, 42552, Control_c, 10, 11, 35
10, 42588, Control_c, 10, 11, 34
10, 42600, Note_on_c, 10, 79, 102
10, 42624, Control_c, 10, 11, 33
10, 42660, Note_on_c, 10, 79, 0
10, 42660, Note_on_c, 10, 77, 102
10, 42660, Control_c, 10, 11, 32
10, 42696, Control_c, 10, 11, 31
10, 42720, Note_on_c, 10, 77, 0
10, 42720, Note_on_c, 10, 76, 102
10, 42732, Control_c, 10, 11, 30
10, 42768, Control_c, 10, 11, 29
10, 42780, Note_on_c, 10, 76, 0
10, 42780, Note_on_c, 10, 74, 102
10, 42804, Control_c, 10, 11, 28
10, 42820, Note_on_c, 10, 74, 0
10, 42840, Note_on_c, 10, 73, 102
10, 42840, Control_c, 10, 11, 27
10, 42900, Note_on_c, 10, 73, 0
10, 42960, Note_on_c, 10, 74, 102
10, 43020, Note_on_c, 10, 74, 0
10, 43020, Note_on_c, 10, 73, 102
10, 43080, Note_on_c, 10, 73, 0
10, 43080, Note_on_c, 10, 71, 102
10, 43140, Note_on_c, 10, 71, 0
10, 43140, Note_on_c, 10, 69, 102
10, 43180, Note_on_c, 10, 69, 0
10, 43200, Note_on_c, 10, 77, 102
10, 43260, Note_on_c, 10, 77, 0
10, 43320, Control_c, 10, 11, 27
10, 43320, Note_on_c, 10, 79, 102
10, 43336, Control_c, 10, 11, 28
10, 43352, Control_c, 10, 11, 29
10, 43368, Control_c, 10, 11, 30
10, 43380, Note_on_c, 10, 79, 0
10, 43380, Note_on_c, 10, 77, 102
10, 43384, Control_c, 10, 11, 31
10, 43400, Control_c, 10, 11, 32
10, 43416, Control_c, 10, 11, 33
10, 43432, Control_c, 10, 11, 34
10, 43440, Note_on_c, 10, 77, 0
10, 43440, Note_on_c, 10, 76, 102
10, 43448, Control_c, 10, 11, 35
10, 43464, Control_c, 10, 11, 36
10, 43480, Control_c, 10, 11, 37
10, 43496, Control_c, 10, 11, 38
10, 43500, Note_on_c, 10, 76, 0
10, 43500, Note_on_c, 10, 74, 102
10, 43512, Control_c, 10, 11, 39
10, 43528, Control_c, 10, 11, 40
10, 43540, Note_on_c, 10, 74, 0
10, 43544, Control_c, 10, 11, 41
10, 43560, Note_on_c, 10, 73, 102
10, 43560, Control_c, 10, 11, 42
10, 43576, Control_c, 10, 11, 43
10, 43592, Control_c, 10, 11, 44
10, 43608, Control_c, 10, 11, 45
10, 43620, Note_on_c, 10, 73, 0
10, 43624, Control_c, 10, 11, 46
10, 43640, Control_c, 10, 11, 47
10, 43656, Control_c, 10, 11, 48
10, 43672, Control_c, 10, 11, 49
10, 43680, Note_on_c, 10, 76, 102
10, 43688, Control_c, 10, 11, 50
10, 43704, Control_c, 10, 11, 51
10, 43720, Control_c, 10, 11, 52
10, 43736, Control_c, 10, 11, 53
10, 43740, Note_on_c, 10, 76, 0
10, 43740, Note_on_c, 10, 74, 102
10, 43752, Control_c, 10, 11, 54
10, 43768, Control_c, 10, 11, 55
10, 43784, Control_c, 10, 11, 56
10, 43800, Note_on_c, 10, 74, 0
10, 43800, Note_on_c, 10, 73, 102
10, 43800, Control_c, 10, 11, 57
10, 43816, Control_c, 10, 11, 58
10, 43832, Control_c, 10, 11, 59
10, 43848, Control_c, 10, 11, 60
10, 43860, Note_on_c, 10, 73, 0
10, 43860, Note_on_c, 10, 71, 102
10, 43864, Control_c, 10, 11, 61
10, 43880, Control_c, 10, 11, 62
10, 43896, Control_c, 10, 11, 63
10, 43900, Note_on_c, 10, 71, 0
10, 43912, Control_c, 10, 11, 64
10, 43920, Note_on_c, 10, 69, 102
10, 43928, Control_c, 10, 11, 65
10, 43944, Control_c, 10, 11, 66
10, 43960, Control_c, 10, 11, 67
10, 43976, Control_c, 10, 11, 68
10, 43980, Note_on_c, 10, 69, 0
10, 43980, Note_on_c, 10, 68, 102
10, 43992, Control_c, 10, 11, 69
10, 44008, Control_c, 10, 11, 70
10, 44020, Note_on_c, 10, 68, 0
10, 44024, Control_c, 10, 11, 71
10, 44040, Note_on_c, 10, 69, 102
10, 44040, Control_c, 10, 11, 72
10, 44056, Control_c, 10, 11, 73
10, 44070, Note_on_c, 10, 69, 0
10, 44072, Control_c, 10, 11, 74
10, 44088, Control_c, 10, 11, 75
10, 44100, Note_on_c, 10, 67, 102
10, 44104, Control_c, 10, 11, 76
10, 44120, Control_c, 10, 11, 77
10, 44130, Note_on_c, 10, 67, 0
10, 44136, Control_c, 10, 11, 78
10, 44152, Control_c, 10, 11, 79
10, 44160, Note_on_c, 10, 66, 102
10, 44168, Control_c, 10, 11, 80
10, 44184, Control_c, 10, 11, 81
10, 44190, Note_on_c, 10, 66, 0
10, 44200, Control_c, 10, 11, 82
10, 44216, Control_c, 10, 11, 83
10, 44220, Note_on_c, 10, 64, 102
10, 44232, Control_c, 10, 11, 84
10, 44248, Control_c, 10, 11, 85
10, 44250, Note_on_c, 10, 64, 0
10, 44264, Control_c, 10, 11, 86
10, 44280, Control_c, 10, 11, 87
10, 44280, Note_on_c, 10, 62, 102
10, 44303, Control_c, 10, 11, 86
10, 44326, Control_c, 10, 11, 85
10, 44349, Control_c, 10, 11, 84
10, 44372, Control_c, 10, 11, 83
10, 44395, Control_c, 10, 11, 82
10, 44418, Control_c, 10, 11, 81
10, 44441, Control_c, 10, 11, 80
10, 44464, Control_c, 10, 11, 79
10, 44487, Control_c, 10, 11, 78
10, 44510, Control_c, 10, 11, 77
10, 44533, Control_c, 10, 11, 76
10, 44556, Control_c, 10, 11, 75
10, 44579, Control_c, 10, 11, 74
10, 44602, Control_c, 10, 11, 73
10, 44620, Note_on_c, 10, 62, 0
10, 44625, Control_c, 10, 11, 72
10, 44640, Control_c, 10, 11, 47
10, 44640, Note_on_c, 10, 78, 102
10, 44691, Note_on_c, 10, 78, 0
10, 44760, Note_on_c, 10, 79, 102
10, 44811, Note_on_c, 10, 79, 0
10, 44880, Note_on_c, 10, 81, 102
10, 44931, Note_on_c, 10, 81, 0
10, 45000, Control_c, 10, 11, 87
10, 45000, Note_on_c, 10, 55, 102
10, 45000, Note_on_c, 10, 64, 102
10, 45023, Control_c, 10, 11, 86
10, 45046, Control_c, 10, 11, 85
10, 45069, Control_c, 10, 11, 84
10, 45092, Control_c, 10, 11, 83
10, 45115, Control_c, 10, 11, 82
10, 45138, Control_c, 10, 11, 81
10, 45161, Control_c, 10, 11, 80
10, 45184, Control_c, 10, 11, 79
10, 45207, Control_c, 10, 11, 78
10, 45230, Control_c, 10, 11, 77
10, 45253, Control_c, 10, 11, 76
10, 45276, Control_c, 10, 11, 75
10, 45299, Control_c, 10, 11, 74
10, 45322, Control_c, 10, 11, 73
10, 45340, Note_on_c, 10, 64, 0
10, 45340, Note_on_c, 10, 55, 0
10, 45345, Control_c, 10, 11, 72
10, 45360, Note_on_c, 10, 79, 102
10, 45360, Control_c, 10, 11, 47
10, 45411, Note_on_c, 10, 79, 0
10, 45480, Note_on_c, 10, 81, 102
10, 45531, Note_on_c, 10, 81, 0
10, 45600, Note_on_c, 10, 83, 102
10, 45651, Note_on_c, 10, 83, 0
10, 46080, Note_on_c, 10, 76, 102
10, 46131, Note_on_c, 10, 76, 0
10, 46200, Note_on_c, 10, 78, 102
10, 46251, Note_on_c, 10, 78, 0
10, 46320, Note_on_c, 10, 79, 102
10, 46371, Note_on_c, 10, 79, 0
10, 46800, Note_on_c, 10, 86, 102
10, 46800, Control_c, 10, 11, 102
10, 46860, Note_on_c, 10, 86, 0
10, 46920, Note_on_c, 10, 85, 102
10, 46980, Note_on_c, 10, 85, 0
10, 47040, Note_on_c, 10, 86, 102
10, 47100, Note_on_c, 10, 86, 0
10, 47160, Note_on_c, 10, 62, 102
10, 47160, Control_c, 10, 11, 87
10, 47183, Control_c, 10, 11, 86
10, 47206, Control_c, 10, 11, 85
10, 47229, Control_c, 10, 11, 84
10, 47252, Control_c, 10, 11, 83
10, 47275, Control_c, 10, 11, 82
10, 47298, Control_c, 10, 11, 81
10, 47321, Control_c, 10, 11, 80
10, 47344, Control_c, 10, 11, 79
10, 47367, Control_c, 10, 11, 78
10, 47390, Control_c, 10, 11, 77
10, 47413, Control_c, 10, 11, 76
10, 47436, Control_c, 10, 11, 75
10, 47459, Control_c, 10, 11, 74
10, 47482, Control_c, 10, 11, 73
10, 47500, Note_on_c, 10, 62, 0
10, 47505, Control_c, 10, 11, 72
10, 47520, Control_c, 10, 11, 47
10, 47520, Note_on_c, 10, 78, 102
10, 47571, Note_on_c, 10, 78, 0
10, 47640, Note_on_c, 10, 79, 102
10, 47691, Note_on_c, 10, 79, 0
10, 47760, Note_on_c, 10, 81, 102
10, 47811, Note_on_c, 10, 81, 0
10, 47880, Note_on_c, 10, 64, 102
10, 47880, Note_on_c, 10, 55, 102
10, 47880, Control_c, 10, 11, 87
10, 47903, Control_c, 10, 11, 86
10, 47926, Control_c, 10, 11, 85
10, 47949, Control_c, 10, 11, 84
10, 47972, Control_c, 10, 11, 83
10, 47995, Control_c, 10, 11, 82
10, 48018, Control_c, 10, 11, 81
10, 48041, Control_c, 10, 11, 80
10, 48064, Control_c, 10, 11, 79
10, 48087, Control_c, 10, 11, 78
10, 48110, Control_c, 10, 11, 77
10, 48133, Control_c, 10, 11, 76
10, 48156, Control_c, 10, 11, 75
10, 48179, Control_c, 10, 11, 74
10, 48202, Control_c, 10, 11, 73
10, 48220, Note_on_c, 10, 55, 0
10, 48220, Note_on_c, 10, 64, 0
10, 48225, Control_c, 10, 11, 72
10, 48240, Note_on_c, 10, 79, 102
10, 48240, Control_c, 10, 11, 47
10, 48291, Note_on_c, 10, 79, 0
10, 48360, Note_on_c, 10, 81, 102
10, 48411, Note_on_c, 10, 81, 0
10, 48480, Note_on_c, 10, 83, 102
10, 48531, Note_on_c, 10, 83, 0
10, 48600, Note_on_c, 10, 67, 102
10, 48651, Note_on_c, 10, 67, 0
10, 48720, Note_on_c, 10, 69, 102
10, 48771, Note_on_c, 10, 69, 0
10, 48840, Note_on_c, 10, 71, 102
10, 48891, Note_on_c, 10, 71, 0
10, 49320, Note_on_c, 10, 67, 102
10, 49371, Note_on_c, 10, 67, 0
10, 49440, Note_on_c, 10, 69, 102
10, 49491, Note_on_c, 10, 69, 0
10, 49560, Note_on_c, 10, 70, 102
10, 49611, Note_on_c, 10, 70, 0
10, 50040, Note_on_c, 10, 67, 102
10, 50040, Control_c, 10, 11, 47
10, 50091, Note_on_c, 10, 67, 0
10, 50136, Control_c, 10, 11, 46
10, 50160, Note_on_c, 10, 69, 102
10, 50211, Note_on_c, 10, 69, 0
10, 50232, Control_c, 10, 11, 45
10, 50280, Note_on_c, 10, 70, 102
10, 50328, Control_c, 10, 11, 44
10, 50331, Note_on_c, 10, 70, 0
10, 50400, Note_on_c, 10, 67, 102
10, 50424, Control_c, 10, 11, 43
10, 50451, Note_on_c, 10, 67, 0
10, 50520, Note_on_c, 10, 69, 102
10, 50520, Control_c, 10, 11, 42
10, 50571, Note_on_c, 10, 69, 0
10, 50616, Control_c, 10, 11, 41
10, 50640, Note_on_c, 10, 70, 102
10, 50691, Note_on_c, 10, 70, 0
10, 50712, Control_c, 10, 11, 40
10, 50760, Note_on_c, 10, 67, 102
10, 50808, Control_c, 10, 11, 39
10, 50811, Note_on_c, 10, 67, 0
10, 50880, Note_on_c, 10, 69, 102
10, 50904, Control_c, 10, 11, 38
10, 50931, Note_on_c, 10, 69, 0
10, 51000, Control_c, 10, 11, 37
10, 51000, Note_on_c, 10, 70, 102
10, 51051, Note_on_c, 10, 70, 0
10, 51096, Control_c, 10, 11, 36
10, 51120, Note_on_c, 10, 67, 102
10, 51171, Note_on_c, 10, 67, 0
10, 51192, Control_c, 10, 11, 35
10, 51240, Note_on_c, 10, 69, 102
10, 51288, Control_c, 10, 11, 34
10, 51291, Note_on_c, 10, 69, 0
10, 51360, Note_on_c, 10, 70, 102
10, 51384, Control_c, 10, 11, 33
10, 51411, Note_on_c, 10, 70, 0
10, 51480, Note_on_c, 10, 67, 102
10, 51480, Control_c, 10, 11, 32
10, 51531, Note_on_c, 10, 67, 0
10, 51600, Note_on_c, 10, 69, 102
10, 51651, Note_on_c, 10, 69, 0
10, 51720, Note_on_c, 10, 70, 102
10, 51771, Note_on_c, 10, 70, 0
10, 51840, Note_on_c, 10, 69, 102
10, 51960, Note_on_c, 10, 69, 0
10, 52200, Note_on_c, 10, 64, 102
10, 52251, Note_on_c, 10, 64, 0
10, 52320, Note_on_c, 10, 65, 102
10, 52371, Note_on_c, 10, 65, 0
10, 52440, Note_on_c, 10, 67, 102
10, 52491, Note_on_c, 10, 67, 0
10, 52560, Note_on_c, 10, 65, 102
10, 52680, Note_on_c, 10, 65, 0
10, 53640, Note_on_c, 10, 69, 102
10, 53640, Note_on_c, 10, 81, 102
10, 53640, Control_c, 10, 11, 87
10, 53760, Note_on_c, 10, 81, 0
10, 53760, Note_on_c, 10, 80, 102
10, 53880, Note_on_c, 10, 80, 0
10, 53880, Note_on_c, 10, 79, 102
10, 53980, Note_on_c, 10, 79, 0
10, 53980, Note_on_c, 10, 69, 0
10, 54000, Note_on_c, 10, 78, 102
10, 54060, Note_on_c, 10, 78, 0
10, 54120, Note_on_c, 10, 76, 102
10, 54180, Note_on_c, 10, 76, 0
10, 54240, Note_on_c, 10, 74, 102
10, 54300, Note_on_c, 10, 74, 0
10, 54360, Note_on_c, 10, 72, 102
10, 54360, Control_c, 10, 11, 32
10, 54700, Note_on_c, 10, 72, 0
10, 54720, Note_on_c, 10, 77, 102
10, 54780, Note_on_c, 10, 77, 0
10, 54840, Note_on_c, 10, 76, 102
10, 54900, Note_on_c, 10, 76, 0
10, 54960, Note_on_c, 10, 77, 102
10, 55020, Note_on_c, 10, 77, 0
10, 55080, Note_on_c, 10, 69, 102
10, 55420, Note_on_c, 10, 69, 0
10, 55440, Note_on_c, 10, 74, 102
10, 55500, Note_on_c, 10, 74, 0
10, 55560, Note_on_c, 10, 73, 102
10, 55620, Note_on_c, 10, 73, 0
10, 55680, Note_on_c, 10, 74, 102
10, 55740, Note_on_c, 10, 74, 0
10, 56520, Control_c, 10, 11, 87
10, 56520, Note_on_c, 10, 81, 102
10, 56520, Note_on_c, 10, 69, 102
10, 56640, Note_on_c, 10, 81, 0
10, 56640, Note_on_c, 10, 80, 102
10, 56760, Note_on_c, 10, 80, 0
10, 56760, Note_on_c, 10, 79, 102
10, 56860, Note_on_c, 10, 79, 0
10, 56860, Note_on_c, 10, 69, 0
10, 56880, Note_on_c, 10, 78, 102
10, 56940, Note_on_c, 10, 78, 0
10, 57000, Note_on_c, 10, 76, 102
10, 57060, Note_on_c, 10, 76, 0
10, 57120, Note_on_c, 10, 74, 102
10, 57180, Note_on_c, 10, 74, 0
10, 57960, Note_on_c, 10, 81, 102
10, 57960, Note_on_c, 10, 69, 102
10, 57960, Control_c, 10, 11, 93
10, 57970, Control_c, 10, 11, 96
10, 57981, Control_c, 10, 11, 99
10, 57991, Control_c, 10, 11, 102
10, 58013, Control_c, 10, 11, 101
10, 58031, Control_c, 10, 11, 99
10, 58049, Control_c, 10, 11, 97
10, 58067, Control_c, 10, 11, 95
10, 58080, Note_on_c, 10, 81, 0
10, 58080, Note_on_c, 10, 80, 102
10, 58085, Control_c, 10, 11, 93
10, 58103, Control_c, 10, 11, 91
10, 58121, Control_c, 10, 11, 89
10, 58139, Control_c, 10, 11, 87
10, 58200, Note_on_c, 10, 80, 0
10, 58200, Note_on_c, 10, 79, 102
10, 58300, Note_on_c, 10, 79, 0
10, 58300, Note_on_c, 10, 69, 0
10, 58320, Note_on_c, 10, 78, 102
10, 58380, Note_on_c, 10, 78, 0
10, 58440, Note_on_c, 10, 74, 102
10, 58500, Note_on_c, 10, 74, 0
10, 58560, Note_on_c, 10, 78, 102
10, 58620, Note_on_c, 10, 78, 0
10, 58680, Note_on_c, 10, 81, 102
10, 58680, Note_on_c, 10, 69, 102
10, 58680, Control_c, 10, 11, 93
10, 58690, Control_c, 10, 11, 96
10, 58701, Control_c, 10, 11, 99
10, 58711, Control_c, 10, 11, 102
10, 58733, Control_c, 10, 11, 101
10, 58751, Control_c, 10, 11, 99
10, 58769, Control_c, 10, 11, 97
10, 58787, Control_c, 10, 11, 95
10, 58800, Note_on_c, 10, 81, 0
10, 58800, Note_on_c, 10, 80, 102
10, 58805, Control_c, 10, 11, 93
10, 58823, Control_c, 10, 11, 91
10, 58841, Control_c, 10, 11, 89
10, 58859, Control_c, 10, 11, 87
10, 58920, Note_on_c, 10, 80, 0
10, 58920, Note_on_c, 10, 79, 102
10, 59020, Note_on_c, 10, 79, 0
10, 59020, Note_on_c, 10, 69, 0
10, 59040, Note_on_c, 10, 78, 102
10, 59100, Note_on_c, 10, 78, 0
10, 59160, Note_on_c, 10, 74, 102
10, 59220, Note_on_c, 10, 74, 0
10, 59280, Note_on_c, 10, 78, 102
10, 59340, Note_on_c, 10, 78, 0
10, 59400, Control_c, 10, 11, 102
10, 59400, Note_on_c, 10, 69, 102
10, 59400, Note_on_c, 10, 81, 102
10, 59880, Note_on_c, 10, 81, 0
10, 59880, Note_on_c, 10, 80, 102
10, 60000, Note_on_c, 10, 80, 0
10, 60000, Note_on_c, 10, 79, 102
10, 60100, Note_on_c, 10, 79, 0
10, 60100, Note_on_c, 10, 69, 0
10, 60120, Note_on_c, 10, 78, 102
10, 60240, Note_on_c, 10, 78, 0
10, 60360, Note_on_c, 10, 85, 102
10, 60360, Note_on_c, 10, 69, 102
10, 60420, Note_on_c, 10, 69, 0
10, 60420, Note_on_c, 10, 85, 0
10, 60480, Note_on_c, 10, 86, 102
10, 60480, Note_on_c, 10, 69, 102
10, 60480, Note_on_c, 10, 62, 102
10, 60540, Note_on_c, 10, 62, 0
10, 60540, Note_on_c, 10, 69, 0
10, 60540, Note_on_c, 10, 86, 0
10, 66600, Note_on_c, 10, 66, 102
10, 66600, Control_c, 10, 11, 87
10, 66750, Note_on_c, 10, 66, 0
10, 66960, Note_on_c, 10, 66, 102
10, 66960, Control_c, 10, 11, 107
10, 67020, Control_c, 10, 11, 104
10, 67038, Control_c, 10, 11, 101
10, 67056, Control_c, 10, 11, 98
10, 67074, Control_c, 10, 11, 95
10, 67092, Control_c, 10, 11, 92
10, 67110, Note_on_c, 10, 66, 0
10, 67110, Control_c, 10, 11, 89
10, 67320, Note_on_c, 10, 66, 102
10, 67380, Note_on_c, 10, 66, 0
10, 67380, Note_on_c, 10, 65, 102
10, 67420, Note_on_c, 10, 65, 0
10, 67440, Note_on_c, 10, 66, 102
10, 67500, Note_on_c, 10, 66, 0
10, 67500, Note_on_c, 10, 65, 102
10, 67540, Note_on_c, 10, 65, 0
10, 67560, Note_on_c, 10, 66, 102
10, 67620, Note_on_c, 10, 66, 0
10, 67620, Note_on_c, 10, 65, 102
10, 67660, Note_on_c, 10, 65, 0
10, 67680, Note_on_c, 10, 66, 102
10, 67740, Note_on_c, 10, 66, 0
10, 67740, Note_on_c, 10, 65, 102
10, 67780, Note_on_c, 10, 65, 0
10, 67800, Note_on_c, 10, 66, 102
10, 67860, Note_on_c, 10, 66, 0
10, 67860, Note_on_c, 10, 65, 102
10, 67900, Note_on_c, 10, 65, 0
10, 67920, Note_on_c, 10, 66, 102
10, 67980, Note_on_c, 10, 66, 0
10, 67980, Note_on_c, 10, 65, 102
10, 68020, Note_on_c, 10, 65, 0
10, 68040, Note_on_c, 10, 66, 102
10, 68085, Note_on_c, 10, 66, 0
10, 68100, Note_on_c, 10, 66, 102
10, 68145, Note_on_c, 10, 66, 0
10, 68160, Note_on_c, 10, 70, 102
10, 68205, Note_on_c, 10, 70, 0
10, 68220, Note_on_c, 10, 70, 102
10, 68265, Note_on_c, 10, 70, 0
10, 68280, Note_on_c, 10, 73, 102
10, 68325, Note_on_c, 10, 73, 0
10, 68340, Note_on_c, 10, 73, 102
10, 68385, Note_on_c, 10, 73, 0
10, 68400, Control_c, 10, 11, 107
10, 68400, Note_on_c, 10, 78, 102
10, 68417, Control_c, 10, 11, 104
10, 68435, Control_c, 10, 11, 101
10, 68445, Note_on_c, 10, 78, 0
10, 68453, Control_c, 10, 11, 98
10, 68460, Note_on_c, 10, 78, 102
10, 68471, Control_c, 10, 11, 95
10, 68489, Control_c, 10, 11, 92
10, 68505, Note_on_c, 10, 78, 0
10, 68507, Control_c, 10, 11, 89
10, 68520, Note_on_c, 10, 73, 102
10, 68565, Note_on_c, 10, 73, 0
10, 68580, Note_on_c, 10, 73, 102
10, 68625, Note_on_c, 10, 73, 0
10, 68640, Note_on_c, 10, 70, 102
10, 68685, Note_on_c, 10, 70, 0
10, 68700, Note_on_c, 10, 70, 102
10, 68745, Note_on_c, 10, 70, 0
10, 68760, Note_on_c, 10, 66, 102
10, 68805, Note_on_c, 10, 66, 0
10, 68820, Note_on_c, 10, 66, 102
10, 68865, Note_on_c, 10, 66, 0
10, 68880, Note_on_c, 10, 70, 102
10, 68925, Note_on_c, 10, 70, 0
10, 68940, Note_on_c, 10, 70, 102
10, 68985, Note_on_c, 10, 70, 0
10, 69000, Note_on_c, 10, 73, 102
10, 69045, Note_on_c, 10, 73, 0
10, 69060, Note_on_c, 10, 73, 102
10, 69105, Note_on_c, 10, 73, 0
10, 69120, Note_on_c, 10, 78, 102
10, 69120, Control_c, 10, 11, 107
10, 69137, Control_c, 10, 11, 104
10, 69155, Control_c, 10, 11, 101
10, 69165, Note_on_c, 10, 78, 0
10, 69173, Control_c, 10, 11, 98
10, 69180, Note_on_c, 10, 78, 102
10, 69191, Control_c, 10, 11, 95
10, 69209, Control_c, 10, 11, 92
10, 69225, Note_on_c, 10, 78, 0
10, 69227, Control_c, 10, 11, 89
10, 69240, Note_on_c, 10, 73, 102
10, 69285, Note_on_c, 10, 73, 0
10, 69300, Note_on_c, 10, 73, 102
10, 69345, Note_on_c, 10, 73, 0
10, 69360, Note_on_c, 10, 70, 102
10, 69405, Note_on_c, 10, 70, 0
10, 69420, Note_on_c, 10, 70, 102
10, 69420, Control_c, 10, 11, 87
10, 69429, Control_c, 10, 11, 84
10, 69438, Control_c, 10, 11, 81
10, 69447, Control_c, 10, 11, 78
10, 69456, Control_c, 10, 11, 75
10, 69465, Note_on_c, 10, 70, 0
10, 69465, Control_c, 10, 11, 72
10, 69474, Control_c, 10, 11, 69
10, 69480, Note_on_c, 10, 66, 102
10, 69483, Control_c, 10, 11, 66
10, 69492, Control_c, 10, 11, 63
10, 69501, Control_c, 10, 11, 60
10, 69510, Control_c, 10, 11, 57
10, 69519, Control_c, 10, 11, 54
10, 69525, Note_on_c, 10, 66, 0
10, 69528, Control_c, 10, 11, 51
10, 69537, Control_c, 10, 11, 48
10, 69540, Note_on_c, 10, 66, 102
10, 69585, Note_on_c, 10, 66, 0
10, 69600, Note_on_c, 10, 66, 102
10, 69600, Control_c, 10, 11, 47
10, 69645, Note_on_c, 10, 66, 0
10, 69660, Note_on_c, 10, 66, 102
10, 69666, Control_c, 10, 11, 46
10, 69705, Note_on_c, 10, 66, 0
10, 69720, Note_on_c, 10, 66, 102
10, 69732, Control_c, 10, 11, 45
10, 69765, Note_on_c, 10, 66, 0
10, 69780, Note_on_c, 10, 66, 102
10, 69798, Control_c, 10, 11, 44
10, 69825, Note_on_c, 10, 66, 0
10, 69840, Note_on_c, 10, 66, 102
10, 69864, Control_c, 10, 11, 43
10, 69885, Note_on_c, 10, 66, 0
10, 69900, Note_on_c, 10, 66, 102
10, 69930, Control_c, 10, 11, 42
10, 69945, Note_on_c, 10, 66, 0
10, 69960, Note_on_c, 10, 66, 102
10, 69996, Control_c, 10, 11, 41
10, 70005, Note_on_c, 10, 66, 0
10, 70020, Note_on_c, 10, 66, 102
10, 70062, Control_c, 10, 11, 40
10, 70065, Note_on_c, 10, 66, 0
10, 70080, Note_on_c, 10, 66, 102
10, 70125, Note_on_c, 10, 66, 0
10, 70128, Control_c, 10, 11, 39
10, 70140, Note_on_c, 10, 66, 102
10, 70185, Note_on_c, 10, 66, 0
10, 70194, Control_c, 10, 11, 38
10, 70200, Note_on_c, 10, 66, 102
10, 70245, Note_on_c, 10, 66, 0
10, 70260, Note_on_c, 10, 66, 102
10, 70260, Control_c, 10, 11, 37
10, 70305, Note_on_c, 10, 66, 0
10, 70320, Note_on_c, 10, 66, 102
10, 70326, Control_c, 10, 11, 36
10, 70365, Note_on_c, 10, 66, 0
10, 70380, Note_on_c, 10, 66, 102
10, 70392, Control_c, 10, 11, 35
10, 70425, Note_on_c, 10, 66, 0
10, 70440, Note_on_c, 10, 66, 102
10, 70458, Control_c, 10, 11, 34
10, 70485, Note_on_c, 10, 66, 0
10, 70500, Note_on_c, 10, 66, 102
10, 70524, Control_c, 10, 11, 33
10, 70545, Note_on_c, 10, 66, 0
10, 70560, Note_on_c, 10, 66, 102
10, 70590, Control_c, 10, 11, 32
10, 70605, Note_on_c, 10, 66, 0
10, 70620, Note_on_c, 10, 66, 102
10, 70656, Control_c, 10, 11, 31
10, 70665, Note_on_c, 10, 66, 0
10, 70680, Note_on_c, 10, 66, 102
10, 70722, Control_c, 10, 11, 30
10, 70725, Note_on_c, 10, 66, 0
10, 70740, Note_on_c, 10, 66, 102
10, 70785, Note_on_c, 10, 66, 0
10, 70788, Control_c, 10, 11, 29
10, 70800, Note_on_c, 10, 66, 102
10, 70845, Note_on_c, 10, 66, 0
10, 70854, Control_c, 10, 11, 28
10, 70860, Note_on_c, 10, 66, 102
10, 70905, Note_on_c, 10, 66, 0
10, 70920, Control_c, 10, 11, 27
10, 70920, Note_on_c, 10, 66, 102
10, 70999, Control_c, 10, 11, 26
10, 71079, Control_c, 10, 11, 25
10, 71159, Control_c, 10, 11, 24
10, 71239, Control_c, 10, 11, 23
10, 71319, Control_c, 10, 11, 22
10, 71399, Control_c, 10, 11, 21
10, 71479, Control_c, 10, 11, 20
10, 71559, Control_c, 10, 11, 19
10, 71610, Note_on_c, 10, 66, 0
10, 71639, Control_c, 10, 11, 18
10, 72240, Note_on_c, 10, 57, 102
10, 72240, Control_c, 10, 11, 102
10, 72359, Control_c, 10, 11, 87
10, 72360, Note_on_c, 10, 57, 0
10, 72360, Control_c, 10, 11, 84
10, 72360, Note_on_c, 10, 62, 102
10, 72362, Control_c, 10, 11, 79
10, 72364, Control_c, 10, 11, 74
10, 72366, Control_c, 10, 11, 69
10, 72368, Control_c, 10, 11, 64
10, 72370, Control_c, 10, 11, 59
10, 72372, Control_c, 10, 11, 54
10, 72374, Control_c, 10, 11, 49
10, 72480, Note_on_c, 10, 62, 0
10, 75120, Control_c, 10, 11, 37
10, 75120, Note_on_c, 10, 62, 87
10, 75144, Control_c, 10, 11, 39
10, 75168, Control_c, 10, 11, 41
10, 75180, Note_on_c, 10, 62, 0
10, 75180, Note_on_c, 10, 64, 87
10, 75192, Control_c, 10, 11, 43
10, 75216, Control_c, 10, 11, 45
10, 75240, Note_on_c, 10, 64, 0
10, 75240, Note_on_c, 10, 66, 87
10, 75240, Control_c, 10, 11, 47
10, 75287, Control_c, 10, 11, 48
10, 75335, Control_c, 10, 11, 49
10, 75383, Control_c, 10, 11, 50
10, 75431, Control_c, 10, 11, 51
10, 75479, Control_c, 10, 11, 52
10, 75527, Control_c, 10, 11, 53
10, 75575, Control_c, 10, 11, 54
10, 75600, Note_on_c, 10, 66, 0
10, 75600, Note_on_c, 10, 67, 87
10, 75623, Control_c, 10, 11, 55
10, 75671, Control_c, 10, 11, 56
10, 75719, Control_c, 10, 11, 57
10, 75767, Control_c, 10, 11, 58
10, 75815, Control_c, 10, 11, 59
10, 75863, Control_c, 10, 11, 60
10, 75911, Control_c, 10, 11, 61
10, 75959, Control_c, 10, 11, 62
10, 75960, Note_on_c, 10, 67, 0
10, 75960, Note_on_c, 10, 69, 87
10, 76080, Note_on_c, 10, 69, 0
10, 76080, Note_on_c, 10, 67, 87
10, 76200, Note_on_c, 10, 67, 0
10, 76200, Note_on_c, 10, 66, 87
10, 76260, Note_on_c, 10, 66, 0
10, 76320, Note_on_c, 10, 64, 87
10, 76440, Note_on_c, 10, 64, 0
10, 76560, Note_on_c, 10, 66, 87
10, 76680, Note_on_c, 10, 66, 0
10, 76680, Note_on_c, 10, 67, 87
10, 76680, Control_c, 10, 11, 62
10, 76704, Control_c, 10, 11, 63
10, 76728, Control_c, 10, 11, 64
10, 76752, Control_c, 10, 11, 65
10, 76776, Control_c, 10, 11, 66
10, 76800, Control_c, 10, 11, 67
10, 76824, Control_c, 10, 11, 68
10, 76848, Control_c, 10, 11, 69
10, 76872, Control_c, 10, 11, 70
10, 76896, Control_c, 10, 11, 71
10, 76920, Control_c, 10, 11, 72
10, 76944, Control_c, 10, 11, 73
10, 76968, Control_c, 10, 11, 74
10, 76992, Control_c, 10, 11, 75
10, 77016, Control_c, 10, 11, 76
10, 77040, Note_on_c, 10, 67, 0
10, 77040, Control_c, 10, 11, 79
10, 77040, Note_on_c, 10, 69, 87
10, 77054, Control_c, 10, 11, 82
10, 77068, Control_c, 10, 11, 85
10, 77083, Control_c, 10, 11, 88
10, 77100, Control_c, 10, 11, 87
10, 77118, Control_c, 10, 11, 84
10, 77136, Control_c, 10, 11, 81
10, 77154, Control_c, 10, 11, 78
10, 77172, Control_c, 10, 11, 76
10, 77196, Control_c, 10, 11, 74
10, 77220, Control_c, 10, 11, 72
10, 77244, Control_c, 10, 11, 70
10, 77268, Control_c, 10, 11, 68
10, 77292, Control_c, 10, 11, 66
10, 77316, Control_c, 10, 11, 64
10, 77340, Control_c, 10, 11, 62
10, 77364, Control_c, 10, 11, 60
10, 77388, Control_c, 10, 11, 58
10, 77400, Note_on_c, 10, 69, 0
10, 77400, Note_on_c, 10, 66, 87
10, 77520, Note_on_c, 10, 66, 0
10, 77520, Note_on_c, 10, 67, 87
10, 77640, Note_on_c, 10, 67, 0
10, 77640, Note_on_c, 10, 64, 87
10, 77700, Note_on_c, 10, 64, 0
10, 77760, Note_on_c, 10, 62, 87
10, 77880, Note_on_c, 10, 62, 0
10, 78000, Note_on_c, 10, 64, 87
10, 78060, Note_on_c, 10, 64, 0
10, 78120, Note_on_c, 10, 66, 87
10, 78240, Note_on_c, 10, 66, 0
10, 78240, Note_on_c, 10, 67, 87
10, 78360, Note_on_c, 10, 67, 0
10, 78360, Note_on_c, 10, 64, 87
10, 78420, Note_on_c, 10, 64, 0
10, 78480, Note_on_c, 10, 62, 87
10, 78480, Control_c, 10, 11, 57
10, 78552, Control_c, 10, 11, 58
10, 78600, Note_on_c, 10, 62, 0
10, 78624, Control_c, 10, 11, 59
10, 78696, Control_c, 10, 11, 60
10, 78720, Note_on_c, 10, 64, 87
10, 78768, Control_c, 10, 11, 61
10, 78780, Note_on_c, 10, 64, 0
10, 78840, Note_on_c, 10, 66, 87
10, 78840, Control_c, 10, 11, 62
10, 78900, Note_on_c, 10, 66, 0
10, 78912, Control_c, 10, 11, 63
10, 78984, Control_c, 10, 11, 64
10, 79056, Control_c, 10, 11, 65
10, 79080, Note_on_c, 10, 64, 87
10, 79128, Control_c, 10, 11, 66
10, 79140, Note_on_c, 10, 64, 0
10, 79200, Note_on_c, 10, 66, 87
10, 79200, Control_c, 10, 11, 67
10, 79260, Note_on_c, 10, 66, 0
10, 79440, Note_on_c, 10, 73, 87
10, 79440, Control_c, 10, 11, 37
10, 79464, Control_c, 10, 11, 39
10, 79488, Control_c, 10, 11, 41
10, 79500, Note_on_c, 10, 73, 0
10, 79512, Control_c, 10, 11, 43
10, 79536, Control_c, 10, 11, 45
10, 79560, Note_on_c, 10, 74, 87
10, 79560, Control_c, 10, 11, 47
10, 79680, Note_on_c, 10, 74, 0
10, 79680, Note_on_c, 10, 76, 87
10, 79800, Note_on_c, 10, 76, 0
10, 79800, Note_on_c, 10, 73, 87
10, 79860, Note_on_c, 10, 73, 0
10, 79920, Note_on_c, 10, 74, 87
10, 80040, Note_on_c, 10, 74, 0
10, 80280, Control_c, 10, 11, 87
10, 80280, Note_on_c, 10, 66, 102
10, 80430, Note_on_c, 10, 66, 0
10, 80640, Note_on_c, 10, 66, 102
10, 80640, Control_c, 10, 11, 107
10, 80700, Control_c, 10, 11, 104
10, 80718, Control_c, 10, 11, 101
10, 80736, Control_c, 10, 11, 98
10, 80754, Control_c, 10, 11, 95
10, 80772, Control_c, 10, 11, 92
10, 80790, Note_on_c, 10, 66, 0
10, 80790, Control_c, 10, 11, 89
10, 81000, Note_on_c, 10, 66, 102
10, 81060, Note_on_c, 10, 66, 0
10, 81060, Note_on_c, 10, 65, 102
10, 81100, Note_on_c, 10, 65, 0
10, 81120, Note_on_c, 10, 66, 102
10, 81180, Note_on_c, 10, 66, 0
10, 81180, Note_on_c, 10, 65, 102
10, 81220, Note_on_c, 10, 65, 0
10, 81240, Note_on_c, 10, 66, 102
10, 81300, Note_on_c, 10, 66, 0
10, 81300, Note_on_c, 10, 65, 102
10, 81340, Note_on_c, 10, 65, 0
10, 81360, Note_on_c, 10, 66, 102
10, 81420, Note_on_c, 10, 66, 0
10, 81420, Note_on_c, 10, 65, 102
10, 81460, Note_on_c, 10, 65, 0
10, 81480, Note_on_c, 10, 66, 102
10, 81540, Note_on_c, 10, 66, 0
10, 81540, Note_on_c, 10, 65, 102
10, 81580, Note_on_c, 10, 65, 0
10, 81600, Note_on_c, 10, 66, 102
10, 81660, Note_on_c, 10, 66, 0
10, 81660, Note_on_c, 10, 65, 102
10, 81700, Note_on_c, 10, 65, 0
10, 81720, Note_on_c, 10, 66, 102
10, 81765, Note_on_c, 10, 66, 0
10, 81780, Note_on_c, 10, 66, 102
10, 81825, Note_on_c, 10, 66, 0
10, 81840, Note_on_c, 10, 70, 102
10, 81885, Note_on_c, 10, 70, 0
10, 81900, Note_on_c, 10, 70, 102
10, 81945, Note_on_c, 10, 70, 0
10, 81960, Note_on_c, 10, 73, 102
10, 82005, Note_on_c, 10, 73, 0
10, 82020, Note_on_c, 10, 73, 102
10, 82065, Note_on_c, 10, 73, 0
10, 82080, Note_on_c, 10, 78, 102
10, 82080, Control_c, 10, 11, 107
10, 82097, Control_c, 10, 11, 104
10, 82115, Control_c, 10, 11, 101
10, 82125, Note_on_c, 10, 78, 0
10, 82133, Control_c, 10, 11, 98
10, 82140, Note_on_c, 10, 78, 102
10, 82151, Control_c, 10, 11, 95
10, 82169, Control_c, 10, 11, 92
10, 82185, Note_on_c, 10, 78, 0
10, 82187, Control_c, 10, 11, 89
10, 82200, Note_on_c, 10, 73, 102
10, 82245, Note_on_c, 10, 73, 0
10, 82260, Note_on_c, 10, 73, 102
10, 82305, Note_on_c, 10, 73, 0
10, 82320, Note_on_c, 10, 70, 102
10, 82365, Note_on_c, 10, 70, 0
10, 82380, Note_on_c, 10, 70, 102
10, 82425, Note_on_c, 10, 70, 0
10, 82440, Note_on_c, 10, 66, 102
10, 82485, Note_on_c, 10, 66, 0
10, 82500, Note_on_c, 10, 66, 102
10, 82545, Note_on_c, 10, 66, 0
10, 82560, Note_on_c, 10, 70, 102
10, 82605, Note_on_c, 10, 70, 0
10, 82620, Note_on_c, 10, 70, 102
10, 82665, Note_on_c, 10, 70, 0
10, 82680, Note_on_c, 10, 73, 102
10, 82725, Note_on_c, 10, 73, 0
10, 82740, Note_on_c, 10, 73, 102
10, 82785, Note_on_c, 10, 73, 0
10, 82800, Note_on_c, 10, 78, 102
10, 82800, Control_c, 10, 11, 107
10, 82817, Control_c, 10, 11, 104
10, 82835, Control_c, 10, 11, 101
10, 82845, Note_on_c, 10, 78, 0
10, 82853, Control_c, 10, 11, 98
10, 82860, Note_on_c, 10, 78, 102
10, 82871, Control_c, 10, 11, 95
10, 82889, Control_c, 10, 11, 92
10, 82905, Note_on_c, 10, 78, 0
10, 82907, Control_c, 10, 11, 89
10, 82920, Note_on_c, 10, 73, 102
10, 82965, Note_on_c, 10, 73, 0
10, 82980, Note_on_c, 10, 73, 102
10, 83025, Note_on_c, 10, 73, 0
10, 83040, Note_on_c, 10, 70, 102
10, 83085, Note_on_c, 10, 70, 0
10, 83100, Control_c, 10, 11, 87
10, 83100, Note_on_c, 10, 70, 102
10, 83109, Control_c, 10, 11, 84
10, 83118, Control_c, 10, 11, 81
10, 83127, Control_c, 10, 11, 78
10, 83136, Control_c, 10, 11, 75
10, 83145, Note_on_c, 10, 70, 0
10, 83145, Control_c, 10, 11, 72
10, 83154, Control_c, 10, 11, 69
10, 83160, Note_on_c, 10, 66, 102
10, 83163, Control_c, 10, 11, 66
10, 83172, Control_c, 10, 11, 63
10, 83181, Control_c, 10, 11, 60
10, 83190, Control_c, 10, 11, 57
10, 83199, Control_c, 10, 11, 54
10, 83205, Note_on_c, 10, 66, 0
10, 83208, Control_c, 10, 11, 51
10, 83217, Control_c, 10, 11, 48
10, 83220, Note_on_c, 10, 66, 102
10, 83265, Note_on_c, 10, 66, 0
10, 83280, Note_on_c, 10, 66, 102
10, 83280, Control_c, 10, 11, 47
10, 83325, Note_on_c, 10, 66, 0
10, 83340, Note_on_c, 10, 66, 102
10, 83346, Control_c, 10, 11, 46
10, 83385, Note_on_c, 10, 66, 0
10, 83400, Note_on_c, 10, 66, 102
10, 83412, Control_c, 10, 11, 45
10, 83445, Note_on_c, 10, 66, 0
10, 83460, Note_on_c, 10, 66, 102
10, 83478, Control_c, 10, 11, 44
10, 83505, Note_on_c, 10, 66, 0
10, 83520, Note_on_c, 10, 66, 102
10, 83544, Control_c, 10, 11, 43
10, 83565, Note_on_c, 10, 66, 0
10, 83580, Note_on_c, 10, 66, 102
10, 83610, Control_c, 10, 11, 42
10, 83625, Note_on_c, 10, 66, 0
10, 83640, Note_on_c, 10, 66, 102
10, 83676, Control_c, 10, 11, 41
10, 83685, Note_on_c, 10, 66, 0
10, 83700, Note_on_c, 10, 66, 102
10, 83742, Control_c, 10, 11, 40
10, 83745, Note_on_c, 10, 66, 0
10, 83760, Note_on_c, 10, 66, 102
10, 83805, Note_on_c, 10, 66, 0
10, 83808, Control_c, 10, 11, 39
10, 83820, Note_on_c, 10, 66, 102
10, 83865, Note_on_c, 10, 66, 0
10, 83874, Control_c, 10, 11, 38
10, 83880, Note_on_c, 10, 66, 102
10, 83925, Note_on_c, 10, 66, 0
10, 83940, Note_on_c, 10, 66, 102
10, 83940, Control_c, 10, 11, 37
10, 83985, Note_on_c, 10, 66, 0
10, 84000, Note_on_c, 10, 66, 102
10, 84006, Control_c, 10, 11, 36
10, 84045, Note_on_c, 10, 66, 0
10, 84060, Note_on_c, 10, 66, 102
10, 84072, Control_c, 10, 11, 35
10, 84105, Note_on_c, 10, 66, 0
10, 84120, Note_on_c, 10, 66, 102
10, 84138, Control_c, 10, 11, 34
10, 84165, Note_on_c, 10, 66, 0
10, 84180, Note_on_c, 10, 66, 102
10, 84204, Control_c, 10, 11, 33
10, 84225, Note_on_c, 10, 66, 0
10, 84240, Note_on_c, 10, 66, 102
10, 84270, Control_c, 10, 11, 32
10, 84285, Note_on_c, 10, 66, 0
10, 84300, Note_on_c, 10, 66, 102
10, 84336, Control_c, 10, 11, 31
10, 84345, Note_on_c, 10, 66, 0
10, 84360, Note_on_c, 10, 66, 102
10, 84402, Control_c, 10, 11, 30
10, 84405, Note_on_c, 10, 66, 0
10, 84420, Note_on_c, 10, 66, 102
10, 84465, Note_on_c, 10, 66, 0
10, 84468, Control_c, 10, 11, 29
10, 84480, Note_on_c, 10, 66, 102
10, 84525, Note_on_c, 10, 66, 0
10, 84534, Control_c, 10, 11, 28
10, 84540, Note_on_c, 10, 66, 102
10, 84585, Note_on_c, 10, 66, 0
10, 84600, Control_c, 10, 11, 27
10, 84600, Note_on_c, 10, 66, 102
10, 84679, Control_c, 10, 11, 26
10, 84759, Control_c, 10, 11, 25
10, 84839, Control_c, 10, 11, 24
10, 84919, Control_c, 10, 11, 23
10, 84999, Control_c, 10, 11, 22
10, 85079, Control_c, 10, 11, 21
10, 85159, Control_c, 10, 11, 20
10, 85239, Control_c, 10, 11, 19
10, 85290, Note_on_c, 10, 66, 0
10, 85319, Control_c, 10, 11, 18
10, 85920, Note_on_c, 10, 57, 102
10, 85920, Control_c, 10, 11, 102
10, 86039, Control_c, 10, 11, 87
10, 86040, Note_on_c, 10, 57, 0
10, 86040, Note_on_c, 10, 62, 102
10, 86040, Control_c, 10, 11, 84
10, 86042, Control_c, 10, 11, 79
10, 86044, Control_c, 10, 11, 74
10, 86046, Control_c, 10, 11, 69
10, 86048, Control_c, 10, 11, 64
10, 86050, Control_c, 10, 11, 59
10, 86052, Control_c, 10, 11, 54
10, 86054, Control_c, 10, 11, 49
10, 86160, Note_on_c, 10, 62, 0
10, 88800, Control_c, 10, 11, 37
10, 88800, Note_on_c, 10, 62, 87
10, 88824, Control_c, 10, 11, 39
10, 88848, Control_c, 10, 11, 41
10, 88860, Note_on_c, 10, 62, 0
10, 88860, Note_on_c, 10, 64, 87
10, 88872, Control_c, 10, 11, 43
10, 88896, Control_c, 10, 11, 45
10, 88920, Note_on_c, 10, 64, 0
10, 88920, Note_on_c, 10, 66, 87
10, 88920, Control_c, 10, 11, 47
10, 88967, Control_c, 10, 11, 48
10, 89015, Control_c, 10, 11, 49
10, 89063, Control_c, 10, 11, 50
10, 89111, Control_c, 10, 11, 51
10, 89159, Control_c, 10, 11, 52
10, 89207, Control_c, 10, 11, 53
10, 89255, Control_c, 10, 11, 54
10, 89280, Note_on_c, 10, 66, 0
10, 89280, Note_on_c, 10, 67, 87
10, 89303, Control_c, 10, 11, 55
10, 89351, Control_c, 10, 11, 56
10, 89399, Control_c, 10, 11, 57
10, 89447, Control_c, 10, 11, 58
10, 89495, Control_c, 10, 11, 59
10, 89543, Control_c, 10, 11, 60
10, 89591, Control_c, 10, 11, 61
10, 89639, Control_c, 10, 11, 62
10, 89640, Note_on_c, 10, 67, 0
10, 89640, Note_on_c, 10, 69, 87
10, 89760, Note_on_c, 10, 69, 0
10, 89760, Note_on_c, 10, 67, 87
10, 89880, Note_on_c, 10, 67, 0
10, 89880, Note_on_c, 10, 66, 87
10, 89940, Note_on_c, 10, 66, 0
10, 90000, Note_on_c, 10, 64, 87
10, 90120, Note_on_c, 10, 64, 0
10, 90240, Note_on_c, 10, 66, 87
10, 90360, Note_on_c, 10, 66, 0
10, 90360, Note_on_c, 10, 67, 87
10, 90360, Control_c, 10, 11, 62
10, 90384, Control_c, 10, 11, 63
10, 90408, Control_c, 10, 11, 64
10, 90432, Control_c, 10, 11, 65
10, 90456, Control_c, 10, 11, 66
10, 90480, Control_c, 10, 11, 67
10, 90504, Control_c, 10, 11, 68
10, 90528, Control_c, 10, 11, 69
10, 90552, Control_c, 10, 11, 70
10, 90576, Control_c, 10, 11, 71
10, 90600, Control_c, 10, 11, 72
10, 90624, Control_c, 10, 11, 73
10, 90648, Control_c, 10, 11, 74
10, 90672, Control_c, 10, 11, 75
10, 90696, Control_c, 10, 11, 76
10, 90720, Note_on_c, 10, 67, 0
10, 90720, Note_on_c, 10, 69, 87
10, 90720, Control_c, 10, 11, 79
10, 90734, Control_c, 10, 11, 82
10, 90748, Control_c, 10, 11, 85
10, 90763, Control_c, 10, 11, 88
10, 90780, Control_c, 10, 11, 87
10, 90798, Control_c, 10, 11, 84
10, 90816, Control_c, 10, 11, 81
10, 90834, Control_c, 10, 11, 78
10, 90852, Control_c, 10, 11, 76
10, 90876, Control_c, 10, 11, 74
10, 90900, Control_c, 10, 11, 72
10, 90924, Control_c, 10, 11, 70
10, 90948, Control_c, 10, 11, 68
10, 90972, Control_c, 10, 11, 66
10, 90996, Control_c, 10, 11, 64
10, 91020, Control_c, 10, 11, 62
10, 91044, Control_c, 10, 11, 60
10, 91068, Control_c, 10, 11, 58
10, 91080, Note_on_c, 10, 69, 0
10, 91080, Note_on_c, 10, 66, 87
10, 91200, Note_on_c, 10, 66, 0
10, 91200, Note_on_c, 10, 67, 87
10, 91320, Note_on_c, 10, 67, 0
10, 91320, Note_on_c, 10, 64, 87
10, 91380, Note_on_c, 10, 64, 0
10, 91440, Note_on_c, 10, 62, 87
10, 91560, Note_on_c, 10, 62, 0
10, 91680, Note_on_c, 10, 64, 87
10, 91740, Note_on_c, 10, 64, 0
10, 91800, Note_on_c, 10, 66, 87
10, 91920, Note_on_c, 10, 66, 0
10, 91920, Note_on_c, 10, 67, 87
10, 92040, Note_on_c, 10, 67, 0
10, 92040, Note_on_c, 10, 64, 87
10, 92100, Note_on_c, 10, 64, 0
10, 92160, Control_c, 10, 11, 57
10, 92160, Note_on_c, 10, 62, 87
10, 92232, Control_c, 10, 11, 58
10, 92280, Note_on_c, 10, 62, 0
10, 92304, Control_c, 10, 11, 59
10, 92376, Control_c, 10, 11, 60
10, 92400, Note_on_c, 10, 64, 87
10, 92448, Control_c, 10, 11, 61
10, 92460, Note_on_c, 10, 64, 0
10, 92520, Control_c, 10, 11, 62
10, 92520, Note_on_c, 10, 66, 87
10, 92580, Note_on_c, 10, 66, 0
10, 92592, Control_c, 10, 11, 63
10, 92664, Control_c, 10, 11, 64
10, 92736, Control_c, 10, 11, 65
10, 92760, Note_on_c, 10, 64, 87
10, 92808, Control_c, 10, 11, 66
10, 92820, Note_on_c, 10, 64, 0
10, 92880, Note_on_c, 10, 66, 87
10, 92880, Control_c, 10, 11, 67
10, 92940, Note_on_c, 10, 66, 0
10, 93120, Note_on_c, 10, 73, 87
10, 93120, Control_c, 10, 11, 37
10, 93144, Control_c, 10, 11, 39
10, 93168, Control_c, 10, 11, 41
10, 93180, Note_on_c, 10, 73, 0
10, 93192, Control_c, 10, 11, 43
10, 93216, Control_c, 10, 11, 45
10, 93240, Note_on_c, 10, 74, 87
10, 93360, Note_on_c, 10, 74, 0
10, 93360, Note_on_c, 10, 76, 87
10, 93480, Note_on_c, 10, 76, 0
10, 93480, Note_on_c, 10, 73, 87
10, 93540, Note_on_c, 10, 73, 0
10, 93600, Note_on_c, 10, 74, 87
10, 93720, Note_on_c, 10, 74, 0
10, 93960, Note_on_c, 10, 62, 102
10, 93960, Control_c, 10, 11, 87
10, 93983, Control_c, 10, 11, 86
10, 94006, Control_c, 10, 11, 85
10, 94029, Control_c, 10, 11, 84
10, 94052, Control_c, 10, 11, 83
10, 94075, Control_c, 10, 11, 82
10, 94098, Control_c, 10, 11, 81
10, 94121, Control_c, 10, 11, 80
10, 94144, Control_c, 10, 11, 79
10, 94167, Control_c, 10, 11, 78
10, 94190, Control_c, 10, 11, 77
10, 94213, Control_c, 10, 11, 76
10, 94236, Control_c, 10, 11, 75
10, 94259, Control_c, 10, 11, 74
10, 94282, Control_c, 10, 11, 73
10, 94305, Note_on_c, 10, 62, 0
10, 94305, Control_c, 10, 11, 72
10, 94320, Note_on_c, 10, 78, 102
10, 94320, Control_c, 10, 11, 47
10, 94371, Note_on_c, 10, 78, 0
10, 94440, Note_on_c, 10, 79, 102
10, 94491, Note_on_c, 10, 79, 0
10, 94560, Note_on_c, 10, 81, 102
10, 94611, Note_on_c, 10, 81, 0
10, 94680, Control_c, 10, 11, 87
10, 94680, Note_on_c, 10, 55, 102
10, 94680, Note_on_c, 10, 64, 102
10, 94703, Control_c, 10, 11, 86
10, 94726, Control_c, 10, 11, 85
10, 94749, Control_c, 10, 11, 84
10, 94772, Control_c, 10, 11, 83
10, 94795, Control_c, 10, 11, 82
10, 94818, Control_c, 10, 11, 81
10, 94841, Control_c, 10, 11, 80
10, 94864, Control_c, 10, 11, 79
10, 94887, Control_c, 10, 11, 78
10, 94910, Control_c, 10, 11, 77
10, 94933, Control_c, 10, 11, 76
10, 94956, Control_c, 10, 11, 75
10, 94979, Control_c, 10, 11, 74
10, 95002, Control_c, 10, 11, 73
10, 95025, Note_on_c, 10, 64, 0
10, 95025, Note_on_c, 10, 55, 0
10, 95025, Control_c, 10, 11, 72
10, 95040, Control_c, 10, 11, 47
10, 95040, Note_on_c, 10, 79, 102
10, 95091, Note_on_c, 10, 79, 0
10, 95160, Note_on_c, 10, 81, 102
10, 95211, Note_on_c, 10, 81, 0
10, 95280, Note_on_c, 10, 83, 102
10, 95331, Note_on_c, 10, 83, 0
10, 95760, Control_c, 10, 11, 47
10, 95760, Note_on_c, 10, 76, 102
10, 95811, Note_on_c, 10, 76, 0
10, 95880, Note_on_c, 10, 78, 102
10, 95931, Note_on_c, 10, 78, 0
10, 96000, Note_on_c, 10, 79, 102
10, 96051, Note_on_c, 10, 79, 0
10, 96480, Note_on_c, 10, 86, 102
10, 96480, Control_c, 10, 11, 102
10, 96540, Note_on_c, 10, 86, 0
10, 96600, Note_on_c, 10, 85, 102
10, 96660, Note_on_c, 10, 85, 0
10, 96720, Note_on_c, 10, 86, 102
10, 96780, Note_on_c, 10, 86, 0
10, 96840, Note_on_c, 10, 62, 102
10, 96840, Control_c, 10, 11, 87
10, 96863, Control_c, 10, 11, 86
10, 96886, Control_c, 10, 11, 85
10, 96909, Control_c, 10, 11, 84
10, 96932, Control_c, 10, 11, 83
10, 96955, Control_c, 10, 11, 82
10, 96978, Control_c, 10, 11, 81
10, 97001, Control_c, 10, 11, 80
10, 97024, Control_c, 10, 11, 79
10, 97047, Control_c, 10, 11, 78
10, 97070, Control_c, 10, 11, 77
10, 97093, Control_c, 10, 11, 76
10, 97116, Control_c, 10, 11, 75
10, 97139, Control_c, 10, 11, 74
10, 97162, Control_c, 10, 11, 73
10, 97185, Note_on_c, 10, 62, 0
10, 97185, Control_c, 10, 11, 72
10, 97200, Control_c, 10, 11, 47
10, 97200, Note_on_c, 10, 78, 102
10, 97251, Note_on_c, 10, 78, 0
10, 97320, Note_on_c, 10, 79, 102
10, 97371, Note_on_c, 10, 79, 0
10, 97440, Note_on_c, 10, 81, 102
10, 97491, Note_on_c, 10, 81, 0
10, 97560, Note_on_c, 10, 64, 102
10, 97560, Control_c, 10, 11, 87
10, 97583, Control_c, 10, 11, 86
10, 97606, Control_c, 10, 11, 85
10, 97629, Control_c, 10, 11, 84
10, 97652, Control_c, 10, 11, 83
10, 97675, Control_c, 10, 11, 82
10, 97698, Control_c, 10, 11, 81
10, 97721, Control_c, 10, 11, 80
10, 97744, Control_c, 10, 11, 79
10, 97767, Control_c, 10, 11, 78
10, 97790, Control_c, 10, 11, 77
10, 97813, Control_c, 10, 11, 76
10, 97836, Control_c, 10, 11, 75
10, 97859, Control_c, 10, 11, 74
10, 97882, Control_c, 10, 11, 73
10, 97905, Note_on_c, 10, 64, 0
10, 97905, Control_c, 10, 11, 72
10, 97920, Note_on_c, 10, 83, 102
10, 97920, Control_c, 10, 11, 47
10, 97971, Note_on_c, 10, 83, 0
10, 98040, Note_on_c, 10, 85, 102
10, 98091, Note_on_c, 10, 85, 0
10, 98160, Note_on_c, 10, 86, 102
10, 98211, Note_on_c, 10, 86, 0
10, 98640, Note_on_c, 10, 83, 102
10, 98691, Note_on_c, 10, 83, 0
10, 98760, Note_on_c, 10, 85, 102
10, 98811, Note_on_c, 10, 85, 0
10, 98880, Note_on_c, 10, 86, 102
10, 98931, Note_on_c, 10, 86, 0
10, 99360, Control_c, 10, 11, 102
10, 99360, Note_on_c, 10, 81, 102
10, 99420, Note_on_c, 10, 81, 0
10, 99480, Note_on_c, 10, 80, 102
10, 99540, Note_on_c, 10, 80, 0
10, 99600, Note_on_c, 10, 81, 102
10, 99660, Note_on_c, 10, 81, 0
10, 99720, Note_on_c, 10, 62, 102
10, 99720, Control_c, 10, 11, 87
10, 99743, Control_c, 10, 11, 86
10, 99766, Control_c, 10, 11, 85
10, 99789, Control_c, 10, 11, 84
10, 99812, Control_c, 10, 11, 83
10, 99835, Control_c, 10, 11, 82
10, 99858, Control_c, 10, 11, 81
10, 99881, Control_c, 10, 11, 80
10, 99904, Control_c, 10, 11, 79
10, 99927, Control_c, 10, 11, 78
10, 99950, Control_c, 10, 11, 77
10, 99973, Control_c, 10, 11, 76
10, 99996, Control_c, 10, 11, 75
10, 100019, Control_c, 10, 11, 74
10, 100042, Control_c, 10, 11, 73
10, 100065, Note_on_c, 10, 62, 0
10, 100065, Control_c, 10, 11, 72
10, 100080, Control_c, 10, 11, 47
10, 100080, Note_on_c, 10, 78, 102
10, 100131, Note_on_c, 10, 78, 0
10, 100200, Note_on_c, 10, 79, 102
10, 100251, Note_on_c, 10, 79, 0
10, 100320, Note_on_c, 10, 81, 102
10, 100371, Note_on_c, 10, 81, 0
10, 100440, Control_c, 10, 11, 87
10, 100440, Note_on_c, 10, 55, 102
10, 100440, Note_on_c, 10, 64, 102
10, 100463, Control_c, 10, 11, 86
10, 100486, Control_c, 10, 11, 85
10, 100509, Control_c, 10, 11, 84
10, 100532, Control_c, 10, 11, 83
10, 100555, Control_c, 10, 11, 82
10, 100578, Control_c, 10, 11, 81
10, 100601, Control_c, 10, 11, 80
10, 100624, Control_c, 10, 11, 79
10, 100647, Control_c, 10, 11, 78
10, 100670, Control_c, 10, 11, 77
10, 100693, Control_c, 10, 11, 76
10, 100716, Control_c, 10, 11, 75
10, 100739, Control_c, 10, 11, 74
10, 100762, Control_c, 10, 11, 73
10, 100785, Note_on_c, 10, 64, 0
10, 100785, Note_on_c, 10, 55, 0
10, 100785, Control_c, 10, 11, 72
10, 100800, Control_c, 10, 11, 47
10, 100800, Note_on_c, 10, 79, 102
10, 100851, Note_on_c, 10, 79, 0
10, 100920, Note_on_c, 10, 81, 102
10, 100971, Note_on_c, 10, 81, 0
10, 101040, Note_on_c, 10, 83, 102
10, 101091, Note_on_c, 10, 83, 0
10, 101520, Control_c, 10, 11, 47
10, 101520, Note_on_c, 10, 76, 102
10, 101571, Note_on_c, 10, 76, 0
10, 101640, Note_on_c, 10, 78, 102
10, 101691, Note_on_c, 10, 78, 0
10, 101760, Note_on_c, 10, 79, 102
10, 101811, Note_on_c, 10, 79, 0
10, 102240, Control_c, 10, 11, 102
10, 102240, Note_on_c, 10, 86, 102
10, 102300, Note_on_c, 10, 86, 0
10, 102360, Note_on_c, 10, 85, 102
10, 102420, Note_on_c, 10, 85, 0
10, 102480, Note_on_c, 10, 86, 102
10, 102540, Note_on_c, 10, 86, 0
10, 102600, Note_on_c, 10, 62, 102
10, 102600, Control_c, 10, 11, 87
10, 102623, Control_c, 10, 11, 86
10, 102646, Control_c, 10, 11, 85
10, 102669, Control_c, 10, 11, 84
10, 102692, Control_c, 10, 11, 83
10, 102715, Control_c, 10, 11, 82
10, 102738, Control_c, 10, 11, 81
10, 102761, Control_c, 10, 11, 80
10, 102784, Control_c, 10, 11, 79
10, 102807, Control_c, 10, 11, 78
10, 102830, Control_c, 10, 11, 77
10, 102853, Control_c, 10, 11, 76
10, 102876, Control_c, 10, 11, 75
10, 102899, Control_c, 10, 11, 74
10, 102922, Control_c, 10, 11, 73
10, 102945, Note_on_c, 10, 62, 0
10, 102945, Control_c, 10, 11, 72
10, 102960, Note_on_c, 10, 78, 102
10, 102960, Control_c, 10, 11, 47
10, 103011, Note_on_c, 10, 78, 0
10, 103080, Note_on_c, 10, 79, 102
10, 103131, Note_on_c, 10, 79, 0
10, 103200, Note_on_c, 10, 81, 102
10, 103251, Note_on_c, 10, 81, 0
10, 103320, Control_c, 10, 11, 87
10, 103320, Note_on_c, 10, 64, 102
10, 103343, Control_c, 10, 11, 86
10, 103366, Control_c, 10, 11, 85
10, 103389, Control_c, 10, 11, 84
10, 103412, Control_c, 10, 11, 83
10, 103435, Control_c, 10, 11, 82
10, 103458, Control_c, 10, 11, 81
10, 103481, Control_c, 10, 11, 80
10, 103504, Control_c, 10, 11, 79
10, 103527, Control_c, 10, 11, 78
10, 103550, Control_c, 10, 11, 77
10, 103573, Control_c, 10, 11, 76
10, 103596, Control_c, 10, 11, 75
10, 103619, Control_c, 10, 11, 74
10, 103642, Control_c, 10, 11, 73
10, 103665, Note_on_c, 10, 64, 0
10, 103665, Control_c, 10, 11, 72
10, 103680, Note_on_c, 10, 83, 102
10, 103680, Control_c, 10, 11, 47
10, 103731, Note_on_c, 10, 83, 0
10, 103800, Note_on_c, 10, 85, 102
10, 103851, Note_on_c, 10, 85, 0
10, 103920, Note_on_c, 10, 86, 102
10, 103971, Note_on_c, 10, 86, 0
10, 104400, Note_on_c, 10, 83, 102
10, 104451, Note_on_c, 10, 83, 0
10, 104520, Note_on_c, 10, 85, 102
10, 104571, Note_on_c, 10, 85, 0
10, 104640, Note_on_c, 10, 86, 102
10, 104691, Note_on_c, 10, 86, 0
10, 105120, Note_on_c, 10, 81, 102
10, 105120, Control_c, 10, 11, 102
10, 105180, Note_on_c, 10, 81, 0
10, 105240, Note_on_c, 10, 80, 102
10, 105300, Note_on_c, 10, 80, 0
10, 105360, Note_on_c, 10, 81, 102
10, 105420, Note_on_c, 10, 81, 0
10, 105480, Control_c, 10, 11, 47
10, 105480, Note_on_c, 10, 69, 102
10, 105820, Note_on_c, 10, 69, 0
10, 105840, Note_on_c, 10, 77, 102
10, 105891, Note_on_c, 10, 77, 0
10, 105960, Note_on_c, 10, 76, 102
10, 106011, Note_on_c, 10, 76, 0
10, 106080, Note_on_c, 10, 77, 102
10, 106131, Note_on_c, 10, 77, 0
10, 106200, Note_on_c, 10, 65, 102
10, 106540, Note_on_c, 10, 65, 0
10, 106560, Note_on_c, 10, 74, 102
10, 106611, Note_on_c, 10, 74, 0
10, 106680, Note_on_c, 10, 73, 102
10, 106731, Note_on_c, 10, 73, 0
10, 106800, Note_on_c, 10, 74, 102
10, 106851, Note_on_c, 10, 74, 0
10, 106920, Note_on_c, 10, 58, 102
10, 106980, Note_on_c, 10, 58, 0
10, 107040, Control_c, 10, 11, 72
10, 107040, Note_on_c, 10, 77, 102
10, 107048, Control_c, 10, 11, 75
10, 107057, Control_c, 10, 11, 78
10, 107066, Control_c, 10, 11, 81
10, 107081, Control_c, 10, 11, 80
10, 107099, Control_c, 10, 11, 77
10, 107117, Control_c, 10, 11, 74
10, 107135, Control_c, 10, 11, 71
10, 107153, Control_c, 10, 11, 68
10, 107171, Control_c, 10, 11, 65
10, 107189, Control_c, 10, 11, 62
10, 107207, Control_c, 10, 11, 59
10, 107225, Control_c, 10, 11, 56
10, 107243, Control_c, 10, 11, 53
10, 107261, Control_c, 10, 11, 50
10, 107279, Control_c, 10, 11, 47
10, 107500, Note_on_c, 10, 77, 0
10, 107520, Note_on_c, 10, 74, 102
10, 107580, Note_on_c, 10, 74, 0
10, 107580, Note_on_c, 10, 70, 102
10, 107640, Note_on_c, 10, 70, 0
10, 107640, Note_on_c, 10, 69, 102
10, 107700, Note_on_c, 10, 69, 0
10, 107700, Note_on_c, 10, 72, 102
10, 107760, Note_on_c, 10, 72, 0
10, 107760, Note_on_c, 10, 75, 102
10, 107820, Note_on_c, 10, 75, 0
10, 107820, Note_on_c, 10, 74, 102
10, 107880, Note_on_c, 10, 74, 0
10, 107880, Note_on_c, 10, 72, 102
10, 107940, Note_on_c, 10, 72, 0
10, 107940, Note_on_c, 10, 70, 102
10, 107980, Note_on_c, 10, 70, 0
10, 108000, Note_on_c, 10, 69, 102
10, 108060, Note_on_c, 10, 69, 0
10, 108060, Note_on_c, 10, 67, 102
10, 108120, Note_on_c, 10, 67, 0
10, 108120, Note_on_c, 10, 65, 102
10, 108180, Note_on_c, 10, 65, 0
10, 108180, Note_on_c, 10, 63, 102
10, 108240, Note_on_c, 10, 63, 0
10, 108240, Note_on_c, 10, 62, 102
10, 108300, Note_on_c, 10, 62, 0
10, 108300, Note_on_c, 10, 60, 102
10, 108340, Note_on_c, 10, 60, 0
10, 108360, Note_on_c, 10, 58, 102
10, 108420, Note_on_c, 10, 58, 0
10, 108480, Control_c, 10, 11, 72
10, 108480, Note_on_c, 10, 77, 102
10, 108488, Control_c, 10, 11, 75
10, 108497, Control_c, 10, 11, 78
10, 108506, Control_c, 10, 11, 81
10, 108521, Control_c, 10, 11, 80
10, 108539, Control_c, 10, 11, 77
10, 108557, Control_c, 10, 11, 74
10, 108575, Control_c, 10, 11, 71
10, 108593, Control_c, 10, 11, 68
10, 108611, Control_c, 10, 11, 65
10, 108629, Control_c, 10, 11, 62
10, 108647, Control_c, 10, 11, 59
10, 108665, Control_c, 10, 11, 56
10, 108683, Control_c, 10, 11, 53
10, 108701, Control_c, 10, 11, 50
10, 108719, Control_c, 10, 11, 47
10, 108940, Note_on_c, 10, 77, 0
10, 108960, Note_on_c, 10, 74, 102
10, 109020, Note_on_c, 10, 74, 0
10, 109020, Note_on_c, 10, 70, 102
10, 109060, Note_on_c, 10, 70, 0
10, 109080, Note_on_c, 10, 69, 102
10, 109140, Note_on_c, 10, 69, 0
10, 109140, Note_on_c, 10, 72, 102
10, 109200, Note_on_c, 10, 72, 0
10, 109200, Note_on_c, 10, 75, 102
10, 109260, Note_on_c, 10, 75, 0
10, 109260, Note_on_c, 10, 74, 102
10, 109320, Note_on_c, 10, 74, 0
10, 109320, Note_on_c, 10, 72, 102
10, 109380, Note_on_c, 10, 72, 0
10, 109380, Note_on_c, 10, 70, 102
10, 109440, Note_on_c, 10, 70, 0
10, 109440, Note_on_c, 10, 69, 102
10, 109500, Note_on_c, 10, 69, 0
10, 109500, Note_on_c, 10, 67, 102
10, 109560, Note_on_c, 10, 67, 0
10, 109560, Note_on_c, 10, 65, 102
10, 109620, Note_on_c, 10, 65, 0
10, 109620, Note_on_c, 10, 63, 102
10, 109680, Note_on_c, 10, 63, 0
10, 109680, Note_on_c, 10, 62, 102
10, 109740, Note_on_c, 10, 62, 0
10, 109740, Note_on_c, 10, 60, 102
10, 109780, Note_on_c, 10, 60, 0
10, 109800, Note_on_c, 10, 58, 102
10, 109860, Note_on_c, 10, 58, 0
10, 109920, Note_on_c, 10, 74, 102
10, 109980, Note_on_c, 10, 74, 0
10, 109980, Note_on_c, 10, 73, 102
10, 110040, Note_on_c, 10, 73, 0
10, 110040, Note_on_c, 10, 74, 102
10, 110100, Note_on_c, 10, 74, 0
10, 110100, Note_on_c, 10, 76, 102
10, 110140, Note_on_c, 10, 76, 0
10, 110160, Note_on_c, 10, 77, 102
10, 110220, Note_on_c, 10, 77, 0
10, 110280, Note_on_c, 10, 74, 102
10, 110340, Note_on_c, 10, 74, 0
10, 110340, Note_on_c, 10, 73, 102
10, 110400, Note_on_c, 10, 73, 0
10, 110400, Note_on_c, 10, 74, 102
10, 110460, Note_on_c, 10, 74, 0
10, 110460, Note_on_c, 10, 76, 102
10, 110500, Note_on_c, 10, 76, 0
10, 110520, Note_on_c, 10, 77, 102
10, 110580, Note_on_c, 10, 77, 0
10, 110640, Note_on_c, 10, 74, 102
10, 110700, Note_on_c, 10, 74, 0
10, 110700, Note_on_c, 10, 73, 102
10, 110760, Note_on_c, 10, 73, 0
10, 110760, Note_on_c, 10, 74, 102
10, 110820, Note_on_c, 10, 74, 0
10, 110820, Note_on_c, 10, 76, 102
10, 110860, Note_on_c, 10, 76, 0
10, 110880, Control_c, 10, 11, 47
10, 110880, Note_on_c, 10, 77, 102
10, 110916, Control_c, 10, 11, 46
10, 110940, Note_on_c, 10, 77, 0
10, 110952, Control_c, 10, 11, 45
10, 110988, Control_c, 10, 11, 44
10, 111000, Note_on_c, 10, 79, 102
10, 111024, Control_c, 10, 11, 43
10, 111060, Note_on_c, 10, 79, 0
10, 111060, Note_on_c, 10, 77, 102
10, 111060, Control_c, 10, 11, 42
10, 111096, Control_c, 10, 11, 41
10, 111120, Note_on_c, 10, 77, 0
10, 111120, Note_on_c, 10, 76, 102
10, 111132, Control_c, 10, 11, 40
10, 111168, Control_c, 10, 11, 39
10, 111180, Note_on_c, 10, 76, 0
10, 111180, Note_on_c, 10, 74, 102
10, 111204, Control_c, 10, 11, 38
10, 111220, Note_on_c, 10, 74, 0
10, 111240, Note_on_c, 10, 73, 102
10, 111240, Control_c, 10, 11, 37
10, 111300, Note_on_c, 10, 73, 0
10, 111360, Note_on_c, 10, 74, 102
10, 111420, Note_on_c, 10, 74, 0
10, 111420, Note_on_c, 10, 73, 102
10, 111480, Note_on_c, 10, 73, 0
10, 111480, Note_on_c, 10, 71, 102
10, 111540, Note_on_c, 10, 71, 0
10, 111540, Note_on_c, 10, 69, 102
10, 111580, Note_on_c, 10, 69, 0
10, 111600, Note_on_c, 10, 77, 102
10, 111600, Control_c, 10, 11, 37
10, 111636, Control_c, 10, 11, 36
10, 111660, Note_on_c, 10, 77, 0
10, 111672, Control_c, 10, 11, 35
10, 111708, Control_c, 10, 11, 34
10, 111720, Note_on_c, 10, 79, 102
10, 111744, Control_c, 10, 11, 33
10, 111780, Note_on_c, 10, 79, 0
10, 111780, Control_c, 10, 11, 32
10, 111780, Note_on_c, 10, 77, 102
10, 111816, Control_c, 10, 11, 31
10, 111840, Note_on_c, 10, 77, 0
10, 111840, Note_on_c, 10, 76, 102
10, 111852, Control_c, 10, 11, 30
10, 111888, Control_c, 10, 11, 29
10, 111900, Note_on_c, 10, 76, 0
10, 111900, Note_on_c, 10, 74, 102
10, 111924, Control_c, 10, 11, 28
10, 111940, Note_on_c, 10, 74, 0
10, 111960, Control_c, 10, 11, 27
10, 111960, Note_on_c, 10, 73, 102
10, 112020, Note_on_c, 10, 73, 0
10, 112080, Note_on_c, 10, 74, 102
10, 112140, Note_on_c, 10, 74, 0
10, 112140, Note_on_c, 10, 73, 102
10, 112200, Note_on_c, 10, 73, 0
10, 112200, Note_on_c, 10, 71, 102
10, 112260, Note_on_c, 10, 71, 0
10, 112260, Note_on_c, 10, 69, 102
10, 112300, Note_on_c, 10, 69, 0
10, 112320, Note_on_c, 10, 77, 102
10, 112380, Note_on_c, 10, 77, 0
10, 112440, Control_c, 10, 11, 27
10, 112440, Note_on_c, 10, 79, 102
10, 112456, Control_c, 10, 11, 28
10, 112472, Control_c, 10, 11, 29
10, 112488, Control_c, 10, 11, 30
10, 112500, Note_on_c, 10, 79, 0
10, 112500, Note_on_c, 10, 77, 102
10, 112504, Control_c, 10, 11, 31
10, 112520, Control_c, 10, 11, 32
10, 112536, Control_c, 10, 11, 33
10, 112552, Control_c, 10, 11, 34
10, 112560, Note_on_c, 10, 77, 0
10, 112560, Note_on_c, 10, 76, 102
10, 112568, Control_c, 10, 11, 35
10, 112584, Control_c, 10, 11, 36
10, 112600, Control_c, 10, 11, 37
10, 112616, Control_c, 10, 11, 38
10, 112620, Note_on_c, 10, 76, 0
10, 112620, Note_on_c, 10, 74, 102
10, 112632, Control_c, 10, 11, 39
10, 112648, Control_c, 10, 11, 40
10, 112660, Note_on_c, 10, 74, 0
10, 112664, Control_c, 10, 11, 41
10, 112680, Note_on_c, 10, 73, 102
10, 112680, Control_c, 10, 11, 42
10, 112696, Control_c, 10, 11, 43
10, 112712, Control_c, 10, 11, 44
10, 112728, Control_c, 10, 11, 45
10, 112740, Note_on_c, 10, 73, 0
10, 112744, Control_c, 10, 11, 46
10, 112760, Control_c, 10, 11, 47
10, 112776, Control_c, 10, 11, 48
10, 112792, Control_c, 10, 11, 49
10, 112800, Note_on_c, 10, 76, 102
10, 112808, Control_c, 10, 11, 50
10, 112824, Control_c, 10, 11, 51
10, 112840, Control_c, 10, 11, 52
10, 112856, Control_c, 10, 11, 53
10, 112860, Note_on_c, 10, 76, 0
10, 112860, Note_on_c, 10, 74, 102
10, 112872, Control_c, 10, 11, 54
10, 112888, Control_c, 10, 11, 55
10, 112904, Control_c, 10, 11, 56
10, 112920, Note_on_c, 10, 74, 0
10, 112920, Note_on_c, 10, 73, 102
10, 112920, Control_c, 10, 11, 57
10, 112936, Control_c, 10, 11, 58
10, 112952, Control_c, 10, 11, 59
10, 112968, Control_c, 10, 11, 60
10, 112980, Note_on_c, 10, 73, 0
10, 112980, Note_on_c, 10, 71, 102
10, 112984, Control_c, 10, 11, 61
10, 113000, Control_c, 10, 11, 62
10, 113016, Control_c, 10, 11, 63
10, 113020, Note_on_c, 10, 71, 0
10, 113032, Control_c, 10, 11, 64
10, 113040, Note_on_c, 10, 69, 102
10, 113048, Control_c, 10, 11, 65
10, 113064, Control_c, 10, 11, 66
10, 113080, Control_c, 10, 11, 67
10, 113096, Control_c, 10, 11, 68
10, 113100, Note_on_c, 10, 69, 0
10, 113100, Note_on_c, 10, 68, 102
10, 113112, Control_c, 10, 11, 69
10, 113128, Control_c, 10, 11, 70
10, 113140, Note_on_c, 10, 68, 0
10, 113144, Control_c, 10, 11, 71
10, 113160, Control_c, 10, 11, 72
10, 113160, Note_on_c, 10, 69, 102
10, 113176, Control_c, 10, 11, 73
10, 113190, Note_on_c, 10, 69, 0
10, 113192, Control_c, 10, 11, 74
10, 113208, Control_c, 10, 11, 75
10, 113220, Note_on_c, 10, 67, 102
10, 113224, Control_c, 10, 11, 76
10, 113240, Control_c, 10, 11, 77
10, 113250, Note_on_c, 10, 67, 0
10, 113256, Control_c, 10, 11, 78
10, 113272, Control_c, 10, 11, 79
10, 113280, Note_on_c, 10, 66, 102
10, 113288, Control_c, 10, 11, 80
10, 113304, Control_c, 10, 11, 81
10, 113310, Note_on_c, 10, 66, 0
10, 113320, Control_c, 10, 11, 82
10, 113336, Control_c, 10, 11, 83
10, 113340, Note_on_c, 10, 64, 102
10, 113352, Control_c, 10, 11, 84
10, 113368, Control_c, 10, 11, 85
10, 113370, Note_on_c, 10, 64, 0
10, 113384, Control_c, 10, 11, 86
10, 113400, Note_on_c, 10, 62, 102
10, 113400, Control_c, 10, 11, 87
10, 113423, Control_c, 10, 11, 86
10, 113446, Control_c, 10, 11, 85
10, 113469, Control_c, 10, 11, 84
10, 113492, Control_c, 10, 11, 83
10, 113515, Control_c, 10, 11, 82
10, 113538, Control_c, 10, 11, 81
10, 113561, Control_c, 10, 11, 80
10, 113584, Control_c, 10, 11, 79
10, 113607, Control_c, 10, 11, 78
10, 113630, Control_c, 10, 11, 77
10, 113653, Control_c, 10, 11, 76
10, 113676, Control_c, 10, 11, 75
10, 113699, Control_c, 10, 11, 74
10, 113722, Control_c, 10, 11, 73
10, 113740, Note_on_c, 10, 62, 0
10, 113745, Control_c, 10, 11, 72
10, 113760, Note_on_c, 10, 78, 102
10, 113760, Control_c, 10, 11, 47
10, 113811, Note_on_c, 10, 78, 0
10, 113880, Note_on_c, 10, 79, 102
10, 113931, Note_on_c, 10, 79, 0
10, 114000, Note_on_c, 10, 81, 102
10, 114051, Note_on_c, 10, 81, 0
10, 114120, Note_on_c, 10, 55, 102
10, 114120, Control_c, 10, 11, 87
10, 114120, Note_on_c, 10, 64, 102
10, 114143, Control_c, 10, 11, 86
10, 114166, Control_c, 10, 11, 85
10, 114189, Control_c, 10, 11, 84
10, 114212, Control_c, 10, 11, 83
10, 114235, Control_c, 10, 11, 82
10, 114258, Control_c, 10, 11, 81
10, 114281, Control_c, 10, 11, 80
10, 114304, Control_c, 10, 11, 79
10, 114327, Control_c, 10, 11, 78
10, 114350, Control_c, 10, 11, 77
10, 114373, Control_c, 10, 11, 76
10, 114396, Control_c, 10, 11, 75
10, 114419, Control_c, 10, 11, 74
10, 114442, Control_c, 10, 11, 73
10, 114460, Note_on_c, 10, 64, 0
10, 114460, Note_on_c, 10, 55, 0
10, 114465, Control_c, 10, 11, 72
10, 114480, Control_c, 10, 11, 47
10, 114480, Note_on_c, 10, 79, 102
10, 114531, Note_on_c, 10, 79, 0
10, 114600, Note_on_c, 10, 81, 102
10, 114651, Note_on_c, 10, 81, 0
10, 114720, Note_on_c, 10, 83, 102
10, 114771, Note_on_c, 10, 83, 0
10, 115200, Note_on_c, 10, 76, 102
10, 115251, Note_on_c, 10, 76, 0
10, 115320, Note_on_c, 10, 78, 102
10, 115371, Note_on_c, 10, 78, 0
10, 115440, Note_on_c, 10, 79, 102
10, 115491, Note_on_c, 10, 79, 0
10, 115920, Control_c, 10, 11, 102
10, 115920, Note_on_c, 10, 86, 102
10, 115980, Note_on_c, 10, 86, 0
10, 116040, Note_on_c, 10, 85, 102
10, 116100, Note_on_c, 10, 85, 0
10, 116160, Note_on_c, 10, 86, 102
10, 116220, Note_on_c, 10, 86, 0
10, 116280, Control_c, 10, 11, 87
10, 116280, Note_on_c, 10, 62, 102
10, 116303, Control_c, 10, 11, 86
10, 116326, Control_c, 10, 11, 85
10, 116349, Control_c, 10, 11, 84
10, 116372, Control_c, 10, 11, 83
10, 116395, Control_c, 10, 11, 82
10, 116418, Control_c, 10, 11, 81
10, 116441, Control_c, 10, 11, 80
10, 116464, Control_c, 10, 11, 79
10, 116487, Control_c, 10, 11, 78
10, 116510, Control_c, 10, 11, 77
10, 116533, Control_c, 10, 11, 76
10, 116556, Control_c, 10, 11, 75
10, 116579, Control_c, 10, 11, 74
10, 116602, Control_c, 10, 11, 73
10, 116620, Note_on_c, 10, 62, 0
10, 116625, Control_c, 10, 11, 72
10, 116640, Note_on_c, 10, 78, 102
10, 116640, Control_c, 10, 11, 47
10, 116691, Note_on_c, 10, 78, 0
10, 116760, Note_on_c, 10, 79, 102
10, 116811, Note_on_c, 10, 79, 0
10, 116880, Note_on_c, 10, 81, 102
10, 116931, Note_on_c, 10, 81, 0
10, 117000, Note_on_c, 10, 55, 102
10, 117000, Note_on_c, 10, 64, 102
10, 117000, Control_c, 10, 11, 87
10, 117023, Control_c, 10, 11, 86
10, 117046, Control_c, 10, 11, 85
10, 117069, Control_c, 10, 11, 84
10, 117092, Control_c, 10, 11, 83
10, 117115, Control_c, 10, 11, 82
10, 117138, Control_c, 10, 11, 81
10, 117161, Control_c, 10, 11, 80
10, 117184, Control_c, 10, 11, 79
10, 117207, Control_c, 10, 11, 78
10, 117230, Control_c, 10, 11, 77
10, 117253, Control_c, 10, 11, 76
10, 117276, Control_c, 10, 11, 75
10, 117299, Control_c, 10, 11, 74
10, 117322, Control_c, 10, 11, 73
10, 117340, Note_on_c, 10, 64, 0
10, 117340, Note_on_c, 10, 55, 0
10, 117345, Control_c, 10, 11, 72
10, 117360, Note_on_c, 10, 79, 102
10, 117360, Control_c, 10, 11, 47
10, 117411, Note_on_c, 10, 79, 0
10, 117480, Note_on_c, 10, 81, 102
10, 117531, Note_on_c, 10, 81, 0
10, 117600, Note_on_c, 10, 83, 102
10, 117651, Note_on_c, 10, 83, 0
10, 117720, Note_on_c, 10, 67, 102
10, 117771, Note_on_c, 10, 67, 0
10, 117840, Note_on_c, 10, 69, 102
10, 117891, Note_on_c, 10, 69, 0
10, 117960, Note_on_c, 10, 71, 102
10, 118011, Note_on_c, 10, 71, 0
10, 118440, Note_on_c, 10, 67, 102
10, 118491, Note_on_c, 10, 67, 0
10, 118560, Note_on_c, 10, 69, 102
10, 118611, Note_on_c, 10, 69, 0
10, 118680, Note_on_c, 10, 70, 102
10, 118731, Note_on_c, 10, 70, 0
10, 119160, Note_on_c, 10, 67, 102
10, 119160, Control_c, 10, 11, 47
10, 119211, Note_on_c, 10, 67, 0
10, 119256, Control_c, 10, 11, 46
10, 119280, Note_on_c, 10, 69, 102
10, 119331, Note_on_c, 10, 69, 0
10, 119352, Control_c, 10, 11, 45
10, 119400, Note_on_c, 10, 70, 102
10, 119448, Control_c, 10, 11, 44
10, 119451, Note_on_c, 10, 70, 0
10, 119520, Note_on_c, 10, 67, 102
10, 119544, Control_c, 10, 11, 43
10, 119571, Note_on_c, 10, 67, 0
10, 119640, Control_c, 10, 11, 42
10, 119640, Note_on_c, 10, 69, 102
10, 119691, Note_on_c, 10, 69, 0
10, 119736, Control_c, 10, 11, 41
10, 119760, Note_on_c, 10, 70, 102
10, 119811, Note_on_c, 10, 70, 0
10, 119832, Control_c, 10, 11, 40
10, 119880, Note_on_c, 10, 67, 102
10, 119928, Control_c, 10, 11, 39
10, 119931, Note_on_c, 10, 67, 0
10, 120000, Note_on_c, 10, 69, 102
10, 120024, Control_c, 10, 11, 38
10, 120051, Note_on_c, 10, 69, 0
10, 120120, Note_on_c, 10, 70, 102
10, 120120, Control_c, 10, 11, 37
10, 120171, Note_on_c, 10, 70, 0
10, 120216, Control_c, 10, 11, 36
10, 120240, Note_on_c, 10, 67, 102
10, 120291, Note_on_c, 10, 67, 0
10, 120312, Control_c, 10, 11, 35
10, 120360, Note_on_c, 10, 69, 102
10, 120408, Control_c, 10, 11, 34
10, 120411, Note_on_c, 10, 69, 0
10, 120480, Note_on_c, 10, 70, 102
10, 120504, Control_c, 10, 11, 33
10, 120531, Note_on_c, 10, 70, 0
10, 120600, Note_on_c, 10, 67, 102
10, 120600, Control_c, 10, 11, 32
10, 120651, Note_on_c, 10, 67, 0
10, 120720, Note_on_c, 10, 69, 102
10, 120771, Note_on_c, 10, 69, 0
10, 120840, Note_on_c, 10, 70, 102
10, 120891, Note_on_c, 10, 70, 0
10, 120960, Note_on_c, 10, 69, 102
10, 121080, Note_on_c, 10, 69, 0
10, 121320, Note_on_c, 10, 64, 102
10, 121371, Note_on_c, 10, 64, 0
10, 121440, Note_on_c, 10, 65, 102
10, 121491, Note_on_c, 10, 65, 0
10, 121560, Note_on_c, 10, 67, 102
10, 121611, Note_on_c, 10, 67, 0
10, 121680, Note_on_c, 10, 65, 102
10, 121800, Note_on_c, 10, 65, 0
10, 122760, Control_c, 10, 11, 87
10, 122760, Note_on_c, 10, 69, 102
10, 122760, Note_on_c, 10, 81, 102
10, 122880, Note_on_c, 10, 81, 0
10, 122880, Note_on_c, 10, 80, 102
10, 123000, Note_on_c, 10, 80, 0
10, 123000, Note_on_c, 10, 79, 102
10, 123100, Note_on_c, 10, 79, 0
10, 123100, Note_on_c, 10, 69, 0
10, 123120, Note_on_c, 10, 78, 102
10, 123180, Note_on_c, 10, 78, 0
10, 123240, Note_on_c, 10, 76, 102
10, 123300, Note_on_c, 10, 76, 0
10, 123360, Note_on_c, 10, 74, 102
10, 123420, Note_on_c, 10, 74, 0
10, 123480, Control_c, 10, 11, 32
10, 123480, Note_on_c, 10, 72, 102
10, 123820, Note_on_c, 10, 72, 0
10, 123840, Note_on_c, 10, 77, 102
10, 123900, Note_on_c, 10, 77, 0
10, 123960, Note_on_c, 10, 76, 102
10, 124020, Note_on_c, 10, 76, 0
10, 124080, Note_on_c, 10, 77, 102
10, 124140, Note_on_c, 10, 77, 0
10, 124200, Note_on_c, 10, 69, 102
10, 124540, Note_on_c, 10, 69, 0
10, 124560, Note_on_c, 10, 74, 102
10, 124620, Note_on_c, 10, 74, 0
10, 124680, Note_on_c, 10, 73, 102
10, 124740, Note_on_c, 10, 73, 0
10, 124800, Note_on_c, 10, 74, 102
10, 124860, Note_on_c, 10, 74, 0
10, 125640, Note_on_c, 10, 81, 102
10, 125640, Control_c, 10, 11, 87
10, 125640, Note_on_c, 10, 69, 102
10, 125760, Note_on_c, 10, 81, 0
10, 125760, Note_on_c, 10, 80, 102
10, 125880, Note_on_c, 10, 80, 0
10, 125880, Note_on_c, 10, 79, 102
10, 125980, Note_on_c, 10, 79, 0
10, 125980, Note_on_c, 10, 69, 0
10, 126000, Note_on_c, 10, 78, 102
10, 126060, Note_on_c, 10, 78, 0
10, 126120, Note_on_c, 10, 76, 102
10, 126180, Note_on_c, 10, 76, 0
10, 126240, Note_on_c, 10, 74, 102
10, 126300, Note_on_c, 10, 74, 0
10, 127080, Note_on_c, 10, 81, 102
10, 127080, Control_c, 10, 11, 93
10, 127080, Note_on_c, 10, 69, 102
10, 127090, Control_c, 10, 11, 96
10, 127101, Control_c, 10, 11, 99
10, 127111, Control_c, 10, 11, 102
10, 127133, Control_c, 10, 11, 101
10, 127151, Control_c, 10, 11, 99
10, 127169, Control_c, 10, 11, 97
10, 127187, Control_c, 10, 11, 95
10, 127200, Note_on_c, 10, 81, 0
10, 127200, Note_on_c, 10, 80, 102
10, 127205, Control_c, 10, 11, 93
10, 127223, Control_c, 10, 11, 91
10, 127241, Control_c, 10, 11, 89
10, 127259, Control_c, 10, 11, 87
10, 127320, Note_on_c, 10, 80, 0
10, 127320, Note_on_c, 10, 79, 102
10, 127420, Note_on_c, 10, 79, 0
10, 127420, Note_on_c, 10, 69, 0
10, 127440, Note_on_c, 10, 78, 102
10, 127500, Note_on_c, 10, 78, 0
10, 127560, Note_on_c, 10, 74, 102
10, 127620, Note_on_c, 10, 74, 0
10, 127680, Note_on_c, 10, 78, 102
10, 127740, Note_on_c, 10, 78, 0
10, 127800, Control_c, 10, 11, 93
10, 127800, Note_on_c, 10, 69, 102
10, 127800, Note_on_c, 10, 81, 102
10, 127810, Control_c, 10, 11, 96
10, 127821, Control_c, 10, 11, 99
10, 127831, Control_c, 10, 11, 102
10, 127853, Control_c, 10, 11, 101
10, 127871, Control_c, 10, 11, 99
10, 127889, Control_c, 10, 11, 97
10, 127907, Control_c, 10, 11, 95
10, 127920, Note_on_c, 10, 81, 0
10, 127920, Note_on_c, 10, 80, 102
10, 127925, Control_c, 10, 11, 93
10, 127943, Control_c, 10, 11, 91
10, 127961, Control_c, 10, 11, 89
10, 127979, Control_c, 10, 11, 87
10, 128040, Note_on_c, 10, 80, 0
10, 128040, Note_on_c, 10, 79, 102
10, 128140, Note_on_c, 10, 79, 0
10, 128140, Note_on_c, 10, 69, 0
10, 128160, Note_on_c, 10, 78, 102
10, 128220, Note_on_c, 10, 78, 0
10, 128280, Note_on_c, 10, 74, 102
10, 128340, Note_on_c, 10, 74, 0
10, 128400, Note_on_c, 10, 78, 102
10, 128460, Note_on_c, 10, 78, 0
10, 128520, Note_on_c, 10, 81, 102
10, 128520, Note_on_c, 10, 69, 102
10, 128520, Control_c, 10, 11, 102
10, 129000, Note_on_c, 10, 81, 0
10, 129000, Note_on_c, 10, 80, 102
10, 129120, Note_on_c, 10, 80, 0
10, 129120, Note_on_c, 10, 79, 102
10, 129220, Note_on_c, 10, 79, 0
10, 129220, Note_on_c, 10, 69, 0
10, 129240, Note_on_c, 10, 78, 102
10, 129360, Note_on_c, 10, 78, 0
10, 129480, Note_on_c, 10, 85, 102
10, 129480, Note_on_c, 10, 69, 102
10, 129540, Note_on_c, 10, 69, 0
10, 129540, Note_on_c, 10, 85, 0
10, 129600, Note_on_c, 10, 62, 102
10, 129600, Note_on_c, 10, 69, 102
10, 129600, Note_on_c, 10, 86, 102
10, 129660, Note_on_c, 10, 86, 0
10, 129660, Note_on_c, 10, 69, 0
10, 129660, Note_on_c, 10, 62, 0
10, 129960, Control_c, 10, 121, 0
10, 129960, End_track
11, 0, Start_track
11, 0, MIDI_port, 0
11, 0, Title_t, "Violine II"
11, 0, Program_c, 11, 48
11, 0, Control_c, 11, 10, 90
11, 2, Control_c, 11, 121, 0
11, 7, Program_c, 11, 48
11, 12, Pitch_bend_c, 11, 7992
11, 17, Control_c, 11, 11, 87
11, 22, Control_c, 11, 7, 127
11, 27, Control_c, 11, 91, 32
11, 32, Control_c, 11, 93, 0
11, 362, Control_c, 11, 11, 87
11, 362, Note_on_c, 11, 62, 102
11, 385, Control_c, 11, 11, 86
11, 408, Control_c, 11, 11, 85
11, 431, Control_c, 11, 11, 84
11, 454, Control_c, 11, 11, 83
11, 477, Control_c, 11, 11, 82
11, 500, Control_c, 11, 11, 81
11, 523, Control_c, 11, 11, 80
11, 546, Control_c, 11, 11, 79
11, 569, Control_c, 11, 11, 78
11, 592, Control_c, 11, 11, 77
11, 615, Control_c, 11, 11, 76
11, 638, Control_c, 11, 11, 75
11, 661, Control_c, 11, 11, 74
11, 684, Control_c, 11, 11, 73
11, 707, Note_on_c, 11, 62, 0
11, 707, Control_c, 11, 11, 72
11, 1082, Note_on_c, 11, 59, 102
11, 1082, Note_on_c, 11, 62, 102
11, 1082, Control_c, 11, 11, 87
11, 1105, Control_c, 11, 11, 86
11, 1128, Control_c, 11, 11, 85
11, 1151, Control_c, 11, 11, 84
11, 1174, Control_c, 11, 11, 83
11, 1197, Control_c, 11, 11, 82
11, 1220, Control_c, 11, 11, 81
11, 1243, Control_c, 11, 11, 80
11, 1266, Control_c, 11, 11, 79
11, 1289, Control_c, 11, 11, 78
11, 1312, Control_c, 11, 11, 77
11, 1335, Control_c, 11, 11, 76
11, 1358, Control_c, 11, 11, 75
11, 1381, Control_c, 11, 11, 74
11, 1404, Control_c, 11, 11, 73
11, 1427, Note_on_c, 11, 62, 0
11, 1427, Note_on_c, 11, 59, 0
11, 1427, Control_c, 11, 11, 72
11, 2162, Control_c, 11, 11, 47
11, 2162, Note_on_c, 11, 69, 102
11, 2213, Note_on_c, 11, 69, 0
11, 2282, Note_on_c, 11, 74, 102
11, 2333, Note_on_c, 11, 74, 0
11, 2402, Note_on_c, 11, 76, 102
11, 2453, Note_on_c, 11, 76, 0
11, 2882, Note_on_c, 11, 78, 102
11, 2882, Note_on_c, 11, 69, 102
11, 2882, Control_c, 11, 11, 102
11, 2942, Note_on_c, 11, 69, 0
11, 2942, Note_on_c, 11, 78, 0
11, 3002, Note_on_c, 11, 79, 102
11, 3002, Note_on_c, 11, 69, 102
11, 3062, Note_on_c, 11, 69, 0
11, 3062, Note_on_c, 11, 79, 0
11, 3122, Note_on_c, 11, 78, 102
11, 3122, Note_on_c, 11, 69, 102
11, 3182, Note_on_c, 11, 69, 0
11, 3182, Note_on_c, 11, 78, 0
11, 3242, Control_c, 11, 11, 87
11, 3242, Note_on_c, 11, 62, 102
11, 3265, Control_c, 11, 11, 86
11, 3288, Control_c, 11, 11, 85
11, 3311, Control_c, 11, 11, 84
11, 3334, Control_c, 11, 11, 83
11, 3357, Control_c, 11, 11, 82
11, 3380, Control_c, 11, 11, 81
11, 3403, Control_c, 11, 11, 80
11, 3426, Control_c, 11, 11, 79
11, 3449, Control_c, 11, 11, 78
11, 3472, Control_c, 11, 11, 77
11, 3495, Control_c, 11, 11, 76
11, 3518, Control_c, 11, 11, 75
11, 3541, Control_c, 11, 11, 74
11, 3564, Control_c, 11, 11, 73
11, 3587, Note_on_c, 11, 62, 0
11, 3587, Control_c, 11, 11, 72
11, 3962, Note_on_c, 11, 62, 102
11, 3962, Control_c, 11, 11, 87
11, 3985, Control_c, 11, 11, 86
11, 4008, Control_c, 11, 11, 85
11, 4031, Control_c, 11, 11, 84
11, 4054, Control_c, 11, 11, 83
11, 4077, Control_c, 11, 11, 82
11, 4100, Control_c, 11, 11, 81
11, 4123, Control_c, 11, 11, 80
11, 4146, Control_c, 11, 11, 79
11, 4169, Control_c, 11, 11, 78
11, 4192, Control_c, 11, 11, 77
11, 4215, Control_c, 11, 11, 76
11, 4238, Control_c, 11, 11, 75
11, 4261, Control_c, 11, 11, 74
11, 4284, Control_c, 11, 11, 73
11, 4307, Note_on_c, 11, 62, 0
11, 4307, Control_c, 11, 11, 72
11, 4682, Control_c, 11, 11, 47
11, 4682, Note_on_c, 11, 61, 102
11, 4733, Note_on_c, 11, 61, 0
11, 4802, Note_on_c, 11, 62, 102
11, 4853, Note_on_c, 11, 62, 0
11, 4922, Note_on_c, 11, 64, 102
11, 4973, Note_on_c, 11, 64, 0
11, 5042, Note_on_c, 11, 76, 102
11, 5093, Note_on_c, 11, 76, 0
11, 5162, Note_on_c, 11, 81, 102
11, 5213, Note_on_c, 11, 81, 0
11, 5282, Note_on_c, 11, 83, 102
11, 5333, Note_on_c, 11, 83, 0
11, 5762, Note_on_c, 11, 73, 102
11, 5762, Control_c, 11, 11, 102
11, 5762, Note_on_c, 11, 64, 102
11, 5822, Note_on_c, 11, 64, 0
11, 5822, Note_on_c, 11, 73, 0
11, 5882, Note_on_c, 11, 74, 102
11, 5882, Note_on_c, 11, 64, 102
11, 5942, Note_on_c, 11, 64, 0
11, 5942, Note_on_c, 11, 74, 0
11, 6002, Note_on_c, 11, 64, 102
11, 6002, Note_on_c, 11, 73, 102
11, 6062, Note_on_c, 11, 73, 0
11, 6062, Note_on_c, 11, 64, 0
11, 6122, Note_on_c, 11, 62, 102
11, 6122, Control_c, 11, 11, 87
11, 6145, Control_c, 11, 11, 86
11, 6168, Control_c, 11, 11, 85
11, 6191, Control_c, 11, 11, 84
11, 6214, Control_c, 11, 11, 83
11, 6237, Control_c, 11, 11, 82
11, 6260, Control_c, 11, 11, 81
11, 6283, Control_c, 11, 11, 80
11, 6306, Control_c, 11, 11, 79
11, 6329, Control_c, 11, 11, 78
11, 6352, Control_c, 11, 11, 77
11, 6375, Control_c, 11, 11, 76
11, 6398, Control_c, 11, 11, 75
11, 6421, Control_c, 11, 11, 74
11, 6444, Control_c, 11, 11, 73
11, 6467, Note_on_c, 11, 62, 0
11, 6467, Control_c, 11, 11, 72
11, 6842, Note_on_c, 11, 59, 102
11, 6842, Note_on_c, 11, 62, 102
11, 6842, Control_c, 11, 11, 87
11, 6865, Control_c, 11, 11, 86
11, 6888, Control_c, 11, 11, 85
11, 6911, Control_c, 11, 11, 84
11, 6934, Control_c, 11, 11, 83
11, 6957, Control_c, 11, 11, 82
11, 6980, Control_c, 11, 11, 81
11, 7003, Control_c, 11, 11, 80
11, 7026, Control_c, 11, 11, 79
11, 7049, Control_c, 11, 11, 78
11, 7072, Control_c, 11, 11, 77
11, 7095, Control_c, 11, 11, 76
11, 7118, Control_c, 11, 11, 75
11, 7141, Control_c, 11, 11, 74
11, 7164, Control_c, 11, 11, 73
11, 7187, Note_on_c, 11, 62, 0
11, 7187, Note_on_c, 11, 59, 0
11, 7187, Control_c, 11, 11, 72
11, 7922, Note_on_c, 11, 69, 102
11, 7922, Control_c, 11, 11, 47
11, 7973, Note_on_c, 11, 69, 0
11, 8042, Note_on_c, 11, 74, 102
11, 8093, Note_on_c, 11, 74, 0
11, 8162, Note_on_c, 11, 76, 102
11, 8213, Note_on_c, 11, 76, 0
11, 8642, Control_c, 11, 11, 102
11, 8642, Note_on_c, 11, 69, 102
11, 8642, Note_on_c, 11, 78, 102
11, 8702, Note_on_c, 11, 78, 0
11, 8702, Note_on_c, 11, 69, 0
11, 8762, Note_on_c, 11, 79, 102
11, 8762, Note_on_c, 11, 69, 102
11, 8822, Note_on_c, 11, 69, 0
11, 8822, Note_on_c, 11, 79, 0
11, 8882, Note_on_c, 11, 69, 102
11, 8882, Note_on_c, 11, 78, 102
11, 8942, Note_on_c, 11, 78, 0
11, 8942, Note_on_c, 11, 69, 0
11, 9002, Note_on_c, 11, 62, 102
11, 9002, Control_c, 11, 11, 87
11, 9025, Control_c, 11, 11, 86
11, 9048, Control_c, 11, 11, 85
11, 9071, Control_c, 11, 11, 84
11, 9094, Control_c, 11, 11, 83
11, 9117, Control_c, 11, 11, 82
11, 9140, Control_c, 11, 11, 81
11, 9163, Control_c, 11, 11, 80
11, 9186, Control_c, 11, 11, 79
11, 9209, Control_c, 11, 11, 78
11, 9232, Control_c, 11, 11, 77
11, 9255, Control_c, 11, 11, 76
11, 9278, Control_c, 11, 11, 75
11, 9301, Control_c, 11, 11, 74
11, 9324, Control_c, 11, 11, 73
11, 9347, Note_on_c, 11, 62, 0
11, 9347, Control_c, 11, 11, 72
11, 9722, Note_on_c, 11, 62, 102
11, 9722, Control_c, 11, 11, 87
11, 9745, Control_c, 11, 11, 86
11, 9768, Control_c, 11, 11, 85
11, 9791, Control_c, 11, 11, 84
11, 9814, Control_c, 11, 11, 83
11, 9837, Control_c, 11, 11, 82
11, 9860, Control_c, 11, 11, 81
11, 9883, Control_c, 11, 11, 80
11, 9906, Control_c, 11, 11, 79
11, 9929, Control_c, 11, 11, 78
11, 9952, Control_c, 11, 11, 77
11, 9975, Control_c, 11, 11, 76
11, 9998, Control_c, 11, 11, 75
11, 10021, Control_c, 11, 11, 74
11, 10044, Control_c, 11, 11, 73
11, 10067, Note_on_c, 11, 62, 0
11, 10067, Control_c, 11, 11, 72
11, 10442, Note_on_c, 11, 61, 102
11, 10442, Control_c, 11, 11, 47
11, 10493, Note_on_c, 11, 61, 0
11, 10562, Note_on_c, 11, 62, 102
11, 10613, Note_on_c, 11, 62, 0
11, 10682, Note_on_c, 11, 64, 102
11, 10733, Note_on_c, 11, 64, 0
11, 10802, Note_on_c, 11, 76, 102
11, 10853, Note_on_c, 11, 76, 0
11, 10922, Note_on_c, 11, 81, 102
11, 10973, Note_on_c, 11, 81, 0
11, 11042, Note_on_c, 11, 83, 102
11, 11093, Note_on_c, 11, 83, 0
11, 11522, Note_on_c, 11, 73, 102
11, 11522, Note_on_c, 11, 64, 102
11, 11522, Control_c, 11, 11, 102
11, 11582, Note_on_c, 11, 64, 0
11, 11582, Note_on_c, 11, 73, 0
11, 11642, Note_on_c, 11, 64, 102
11, 11642, Note_on_c, 11, 74, 102
11, 11702, Note_on_c, 11, 74, 0
11, 11702, Note_on_c, 11, 64, 0
11, 11762, Note_on_c, 11, 73, 102
11, 11762, Note_on_c, 11, 64, 102
11, 11822, Note_on_c, 11, 64, 0
11, 11822, Note_on_c, 11, 73, 0
11, 11882, Control_c, 11, 11, 47
11, 11882, Note_on_c, 11, 61, 102
11, 11942, Note_on_c, 11, 61, 0
11, 12002, Note_on_c, 11, 62, 102
11, 12062, Note_on_c, 11, 62, 0
11, 12122, Note_on_c, 11, 64, 102
11, 12182, Note_on_c, 11, 64, 0
11, 12242, Note_on_c, 11, 65, 102
11, 12362, Note_on_c, 11, 65, 0
11, 12602, Note_on_c, 11, 57, 102
11, 12662, Note_on_c, 11, 57, 0
11, 12722, Note_on_c, 11, 58, 102
11, 12782, Note_on_c, 11, 58, 0
11, 12842, Note_on_c, 11, 60, 102
11, 12902, Note_on_c, 11, 60, 0
11, 12962, Note_on_c, 11, 62, 102
11, 13082, Note_on_c, 11, 62, 0
11, 13322, Note_on_c, 11, 62, 102
11, 13322, Note_on_c, 11, 58, 102
11, 13382, Note_on_c, 11, 58, 0
11, 13382, Note_on_c, 11, 62, 0
11, 13442, Note_on_c, 11, 58, 102
11, 13442, Note_on_c, 11, 62, 102
11, 13442, Control_c, 11, 11, 72
11, 13450, Control_c, 11, 11, 75
11, 13459, Control_c, 11, 11, 78
11, 13468, Control_c, 11, 11, 81
11, 13483, Control_c, 11, 11, 80
11, 13501, Control_c, 11, 11, 77
11, 13519, Control_c, 11, 11, 74
11, 13537, Control_c, 11, 11, 71
11, 13555, Control_c, 11, 11, 68
11, 13573, Control_c, 11, 11, 65
11, 13591, Control_c, 11, 11, 62
11, 13609, Control_c, 11, 11, 59
11, 13627, Control_c, 11, 11, 56
11, 13645, Control_c, 11, 11, 53
11, 13663, Control_c, 11, 11, 50
11, 13681, Control_c, 11, 11, 47
11, 14022, Note_on_c, 11, 62, 0
11, 14022, Note_on_c, 11, 58, 0
11, 14042, Note_on_c, 11, 60, 102
11, 14042, Note_on_c, 11, 63, 102
11, 14142, Note_on_c, 11, 63, 0
11, 14142, Note_on_c, 11, 60, 0
11, 14162, Note_on_c, 11, 60, 102
11, 14162, Note_on_c, 11, 63, 102
11, 14262, Note_on_c, 11, 63, 0
11, 14262, Note_on_c, 11, 60, 0
11, 14282, Note_on_c, 11, 63, 102
11, 14282, Note_on_c, 11, 60, 102
11, 14382, Note_on_c, 11, 60, 0
11, 14382, Note_on_c, 11, 63, 0
11, 14402, Note_on_c, 11, 60, 102
11, 14402, Note_on_c, 11, 63, 102
11, 14502, Note_on_c, 11, 63, 0
11, 14502, Note_on_c, 11, 60, 0
11, 14522, Note_on_c, 11, 60, 102
11, 14522, Note_on_c, 11, 63, 102
11, 14622, Note_on_c, 11, 63, 0
11, 14622, Note_on_c, 11, 60, 0
11, 14642, Note_on_c, 11, 63, 102
11, 14642, Note_on_c, 11, 60, 102
11, 14742, Note_on_c, 11, 60, 0
11, 14742, Note_on_c, 11, 63, 0
11, 14762, Note_on_c, 11, 62, 102
11, 14762, Note_on_c, 11, 58, 102
11, 14822, Note_on_c, 11, 58, 0
11, 14822, Note_on_c, 11, 62, 0
11, 14882, Note_on_c, 11, 58, 102
11, 14882, Control_c, 11, 11, 72
11, 14882, Note_on_c, 11, 62, 102
11, 14890, Control_c, 11, 11, 75
11, 14899, Control_c, 11, 11, 78
11, 14908, Control_c, 11, 11, 81
11, 14923, Control_c, 11, 11, 80
11, 14941, Control_c, 11, 11, 77
11, 14959, Control_c, 11, 11, 74
11, 14977, Control_c, 11, 11, 71
11, 14995, Control_c, 11, 11, 68
11, 15013, Control_c, 11, 11, 65
11, 15031, Control_c, 11, 11, 62
11, 15049, Control_c, 11, 11, 59
11, 15067, Control_c, 11, 11, 56
11, 15085, Control_c, 11, 11, 53
11, 15103, Control_c, 11, 11, 50
11, 15121, Control_c, 11, 11, 47
11, 15462, Note_on_c, 11, 62, 0
11, 15462, Note_on_c, 11, 58, 0
11, 15482, Note_on_c, 11, 60, 102
11, 15482, Note_on_c, 11, 63, 102
11, 15582, Note_on_c, 11, 63, 0
11, 15582, Note_on_c, 11, 60, 0
11, 15602, Note_on_c, 11, 63, 102
11, 15602, Note_on_c, 11, 60, 102
11, 15702, Note_on_c, 11, 60, 0
11, 15702, Note_on_c, 11, 63, 0
11, 15722, Note_on_c, 11, 63, 102
11, 15722, Note_on_c, 11, 60, 102
11, 15822, Note_on_c, 11, 60, 0
11, 15822, Note_on_c, 11, 63, 0
11, 15842, Note_on_c, 11, 60, 102
11, 15842, Note_on_c, 11, 63, 102
11, 15942, Note_on_c, 11, 63, 0
11, 15942, Note_on_c, 11, 60, 0
11, 15962, Note_on_c, 11, 63, 102
11, 15962, Note_on_c, 11, 60, 102
11, 16062, Note_on_c, 11, 60, 0
11, 16062, Note_on_c, 11, 63, 0
11, 16082, Note_on_c, 11, 60, 102
11, 16082, Note_on_c, 11, 63, 102
11, 16182, Note_on_c, 11, 63, 0
11, 16182, Note_on_c, 11, 60, 0
11, 16202, Note_on_c, 11, 62, 102
11, 16202, Note_on_c, 11, 58, 102
11, 16262, Note_on_c, 11, 58, 0
11, 16262, Note_on_c, 11, 62, 0
11, 16322, Note_on_c, 11, 62, 102
11, 16442, Note_on_c, 11, 62, 0
11, 16442, Note_on_c, 11, 65, 102
11, 16562, Note_on_c, 11, 65, 0
11, 16682, Note_on_c, 11, 62, 102
11, 16802, Note_on_c, 11, 62, 0
11, 16802, Note_on_c, 11, 65, 102
11, 16922, Note_on_c, 11, 65, 0
11, 17042, Note_on_c, 11, 62, 102
11, 17162, Note_on_c, 11, 62, 0
11, 17162, Note_on_c, 11, 65, 102
11, 17282, Note_on_c, 11, 65, 0
11, 17282, Control_c, 11, 11, 47
11, 17282, Note_on_c, 11, 65, 102
11, 17318, Control_c, 11, 11, 46
11, 17342, Note_on_c, 11, 65, 0
11, 17354, Control_c, 11, 11, 45
11, 17390, Control_c, 11, 11, 44
11, 17402, Note_on_c, 11, 65, 102
11, 17426, Control_c, 11, 11, 43
11, 17462, Note_on_c, 11, 65, 0
11, 17462, Control_c, 11, 11, 42
11, 17498, Control_c, 11, 11, 41
11, 17522, Note_on_c, 11, 65, 102
11, 17534, Control_c, 11, 11, 40
11, 17570, Control_c, 11, 11, 39
11, 17582, Note_on_c, 11, 65, 0
11, 17606, Control_c, 11, 11, 38
11, 17642, Control_c, 11, 11, 37
11, 17642, Note_on_c, 11, 64, 102
11, 17762, Note_on_c, 11, 64, 0
11, 18602, Note_on_c, 11, 61, 102
11, 18722, Note_on_c, 11, 61, 0
11, 18722, Note_on_c, 11, 62, 102
11, 18842, Note_on_c, 11, 62, 0
11, 18842, Control_c, 11, 11, 27
11, 18842, Note_on_c, 11, 65, 102
11, 18858, Control_c, 11, 11, 28
11, 18874, Control_c, 11, 11, 29
11, 18890, Control_c, 11, 11, 30
11, 18906, Control_c, 11, 11, 31
11, 18922, Control_c, 11, 11, 32
11, 18938, Control_c, 11, 11, 33
11, 18954, Control_c, 11, 11, 34
11, 18962, Note_on_c, 11, 65, 0
11, 18962, Note_on_c, 11, 68, 102
11, 18970, Control_c, 11, 11, 35
11, 18986, Control_c, 11, 11, 36
11, 19002, Control_c, 11, 11, 37
11, 19018, Control_c, 11, 11, 38
11, 19034, Control_c, 11, 11, 39
11, 19050, Control_c, 11, 11, 40
11, 19062, Note_on_c, 11, 68, 0
11, 19066, Control_c, 11, 11, 41
11, 19082, Control_c, 11, 11, 42
11, 19082, Note_on_c, 11, 69, 102
11, 19098, Control_c, 11, 11, 43
11, 19114, Control_c, 11, 11, 44
11, 19130, Control_c, 11, 11, 45
11, 19142, Note_on_c, 11, 69, 0
11, 19146, Control_c, 11, 11, 46
11, 19162, Control_c, 11, 11, 47
11, 19178, Control_c, 11, 11, 48
11, 19194, Control_c, 11, 11, 49
11, 19202, Note_on_c, 11, 57, 102
11, 19210, Control_c, 11, 11, 50
11, 19226, Control_c, 11, 11, 51
11, 19242, Control_c, 11, 11, 52
11, 19258, Control_c, 11, 11, 53
11, 19274, Control_c, 11, 11, 54
11, 19290, Control_c, 11, 11, 55
11, 19306, Control_c, 11, 11, 56
11, 19322, Note_on_c, 11, 57, 0
11, 19322, Note_on_c, 11, 58, 102
11, 19322, Control_c, 11, 11, 57
11, 19338, Control_c, 11, 11, 58
11, 19354, Control_c, 11, 11, 59
11, 19370, Control_c, 11, 11, 60
11, 19386, Control_c, 11, 11, 61
11, 19402, Control_c, 11, 11, 62
11, 19418, Control_c, 11, 11, 63
11, 19434, Control_c, 11, 11, 64
11, 19442, Note_on_c, 11, 58, 0
11, 19442, Note_on_c, 11, 59, 102
11, 19450, Control_c, 11, 11, 65
11, 19466, Control_c, 11, 11, 66
11, 19482, Control_c, 11, 11, 67
11, 19498, Control_c, 11, 11, 68
11, 19514, Control_c, 11, 11, 69
11, 19530, Control_c, 11, 11, 70
11, 19546, Control_c, 11, 11, 71
11, 19562, Note_on_c, 11, 59, 0
11, 19562, Control_c, 11, 11, 72
11, 19562, Note_on_c, 11, 60, 102
11, 19578, Control_c, 11, 11, 73
11, 19594, Control_c, 11, 11, 74
11, 19610, Control_c, 11, 11, 75
11, 19626, Control_c, 11, 11, 76
11, 19642, Control_c, 11, 11, 77
11, 19658, Control_c, 11, 11, 78
11, 19674, Control_c, 11, 11, 79
11, 19682, Note_on_c, 11, 60, 0
11, 19682, Note_on_c, 11, 61, 102
11, 19690, Control_c, 11, 11, 80
11, 19706, Control_c, 11, 11, 81
11, 19722, Control_c, 11, 11, 82
11, 19738, Control_c, 11, 11, 83
11, 19754, Control_c, 11, 11, 84
11, 19770, Control_c, 11, 11, 85
11, 19782, Note_on_c, 11, 61, 0
11, 19786, Control_c, 11, 11, 86
11, 19802, Note_on_c, 11, 62, 102
11, 19802, Control_c, 11, 11, 87
11, 19825, Control_c, 11, 11, 86
11, 19848, Control_c, 11, 11, 85
11, 19871, Control_c, 11, 11, 84
11, 19894, Control_c, 11, 11, 83
11, 19917, Control_c, 11, 11, 82
11, 19940, Control_c, 11, 11, 81
11, 19963, Control_c, 11, 11, 80
11, 19986, Control_c, 11, 11, 79
11, 20009, Control_c, 11, 11, 78
11, 20032, Control_c, 11, 11, 77
11, 20055, Control_c, 11, 11, 76
11, 20078, Control_c, 11, 11, 75
11, 20101, Control_c, 11, 11, 74
11, 20124, Control_c, 11, 11, 73
11, 20142, Note_on_c, 11, 62, 0
11, 20147, Control_c, 11, 11, 72
11, 20522, Note_on_c, 11, 59, 102
11, 20522, Control_c, 11, 11, 87
11, 20522, Note_on_c, 11, 62, 102
11, 20545, Control_c, 11, 11, 86
11, 20568, Control_c, 11, 11, 85
11, 20591, Control_c, 11, 11, 84
11, 20614, Control_c, 11, 11, 83
11, 20637, Control_c, 11, 11, 82
11, 20660, Control_c, 11, 11, 81
11, 20683, Control_c, 11, 11, 80
11, 20706, Control_c, 11, 11, 79
11, 20729, Control_c, 11, 11, 78
11, 20752, Control_c, 11, 11, 77
11, 20775, Control_c, 11, 11, 76
11, 20798, Control_c, 11, 11, 75
11, 20821, Control_c, 11, 11, 74
11, 20844, Control_c, 11, 11, 73
11, 20862, Note_on_c, 11, 62, 0
11, 20862, Note_on_c, 11, 59, 0
11, 20867, Control_c, 11, 11, 72
11, 21602, Control_c, 11, 11, 47
11, 21602, Note_on_c, 11, 69, 102
11, 21653, Note_on_c, 11, 69, 0
11, 21722, Note_on_c, 11, 74, 102
11, 21773, Note_on_c, 11, 74, 0
11, 21842, Note_on_c, 11, 76, 102
11, 21893, Note_on_c, 11, 76, 0
11, 22322, Note_on_c, 11, 69, 102
11, 22322, Note_on_c, 11, 78, 102
11, 22322, Control_c, 11, 11, 102
11, 22382, Note_on_c, 11, 78, 0
11, 22382, Note_on_c, 11, 69, 0
11, 22442, Note_on_c, 11, 79, 102
11, 22442, Note_on_c, 11, 69, 102
11, 22502, Note_on_c, 11, 69, 0
11, 22502, Note_on_c, 11, 79, 0
11, 22562, Note_on_c, 11, 78, 102
11, 22562, Note_on_c, 11, 69, 102
11, 22622, Note_on_c, 11, 69, 0
11, 22622, Note_on_c, 11, 78, 0
11, 22682, Control_c, 11, 11, 87
11, 22682, Note_on_c, 11, 62, 102
11, 22705, Control_c, 11, 11, 86
11, 22728, Control_c, 11, 11, 85
11, 22751, Control_c, 11, 11, 84
11, 22774, Control_c, 11, 11, 83
11, 22797, Control_c, 11, 11, 82
11, 22820, Control_c, 11, 11, 81
11, 22843, Control_c, 11, 11, 80
11, 22866, Control_c, 11, 11, 79
11, 22889, Control_c, 11, 11, 78
11, 22912, Control_c, 11, 11, 77
11, 22935, Control_c, 11, 11, 76
11, 22958, Control_c, 11, 11, 75
11, 22981, Control_c, 11, 11, 74
11, 23004, Control_c, 11, 11, 73
11, 23022, Note_on_c, 11, 62, 0
11, 23027, Control_c, 11, 11, 72
11, 23402, Note_on_c, 11, 59, 102
11, 23402, Note_on_c, 11, 62, 102
11, 23402, Control_c, 11, 11, 87
11, 23425, Control_c, 11, 11, 86
11, 23448, Control_c, 11, 11, 85
11, 23471, Control_c, 11, 11, 84
11, 23494, Control_c, 11, 11, 83
11, 23517, Control_c, 11, 11, 82
11, 23540, Control_c, 11, 11, 81
11, 23563, Control_c, 11, 11, 80
11, 23586, Control_c, 11, 11, 79
11, 23609, Control_c, 11, 11, 78
11, 23632, Control_c, 11, 11, 77
11, 23655, Control_c, 11, 11, 76
11, 23678, Control_c, 11, 11, 75
11, 23701, Control_c, 11, 11, 74
11, 23724, Control_c, 11, 11, 73
11, 23742, Note_on_c, 11, 62, 0
11, 23742, Note_on_c, 11, 59, 0
11, 23747, Control_c, 11, 11, 72
11, 24482, Control_c, 11, 11, 47
11, 24482, Note_on_c, 11, 64, 102
11, 24533, Note_on_c, 11, 64, 0
11, 24602, Note_on_c, 11, 66, 102
11, 24653, Note_on_c, 11, 66, 0
11, 24722, Note_on_c, 11, 67, 102
11, 24773, Note_on_c, 11, 67, 0
11, 25202, Note_on_c, 11, 64, 102
11, 25253, Note_on_c, 11, 64, 0
11, 25322, Note_on_c, 11, 66, 102
11, 25373, Note_on_c, 11, 66, 0
11, 25442, Note_on_c, 11, 67, 102
11, 25493, Note_on_c, 11, 67, 0
11, 25562, Control_c, 11, 11, 47
11, 25658, Control_c, 11, 11, 46
11, 25754, Control_c, 11, 11, 45
11, 25850, Control_c, 11, 11, 44
11, 25922, Note_on_c, 11, 64, 102
11, 25946, Control_c, 11, 11, 43
11, 25973, Note_on_c, 11, 64, 0
11, 26042, Control_c, 11, 11, 42
11, 26042, Note_on_c, 11, 65, 102
11, 26093, Note_on_c, 11, 65, 0
11, 26138, Control_c, 11, 11, 41
11, 26162, Note_on_c, 11, 67, 102
11, 26213, Note_on_c, 11, 67, 0
11, 26234, Control_c, 11, 11, 40
11, 26282, Note_on_c, 11, 64, 102
11, 26330, Control_c, 11, 11, 39
11, 26333, Note_on_c, 11, 64, 0
11, 26402, Note_on_c, 11, 65, 102
11, 26426, Control_c, 11, 11, 38
11, 26453, Note_on_c, 11, 65, 0
11, 26522, Note_on_c, 11, 67, 102
11, 26522, Control_c, 11, 11, 37
11, 26573, Note_on_c, 11, 67, 0
11, 26618, Control_c, 11, 11, 36
11, 26642, Note_on_c, 11, 64, 102
11, 26693, Note_on_c, 11, 64, 0
11, 26714, Control_c, 11, 11, 35
11, 26762, Note_on_c, 11, 65, 102
11, 26810, Control_c, 11, 11, 34
11, 26813, Note_on_c, 11, 65, 0
11, 26882, Note_on_c, 11, 67, 102
11, 26906, Control_c, 11, 11, 33
11, 26933, Note_on_c, 11, 67, 0
11, 27002, Control_c, 11, 11, 32
11, 27002, Note_on_c, 11, 64, 102
11, 27053, Note_on_c, 11, 64, 0
11, 27122, Note_on_c, 11, 65, 102
11, 27173, Note_on_c, 11, 65, 0
11, 27242, Note_on_c, 11, 67, 102
11, 27293, Note_on_c, 11, 67, 0
11, 27362, Note_on_c, 11, 65, 102
11, 27482, Note_on_c, 11, 65, 0
11, 27722, Note_on_c, 11, 61, 102
11, 27773, Note_on_c, 11, 61, 0
11, 27842, Note_on_c, 11, 62, 102
11, 27893, Note_on_c, 11, 62, 0
11, 27962, Note_on_c, 11, 64, 102
11, 28013, Note_on_c, 11, 64, 0
11, 28082, Note_on_c, 11, 62, 102
11, 28202, Note_on_c, 11, 62, 0
11, 28442, Control_c, 11, 11, 32
11, 28442, Note_on_c, 11, 62, 102
11, 28468, Control_c, 11, 11, 34
11, 28494, Control_c, 11, 11, 36
11, 28520, Control_c, 11, 11, 38
11, 28546, Control_c, 11, 11, 40
11, 28562, Note_on_c, 11, 62, 0
11, 28562, Note_on_c, 11, 64, 102
11, 28572, Control_c, 11, 11, 42
11, 28599, Control_c, 11, 11, 44
11, 28625, Control_c, 11, 11, 46
11, 28651, Control_c, 11, 11, 48
11, 28677, Control_c, 11, 11, 50
11, 28682, Note_on_c, 11, 64, 0
11, 28682, Note_on_c, 11, 65, 102
11, 28703, Control_c, 11, 11, 52
11, 28730, Control_c, 11, 11, 54
11, 28756, Control_c, 11, 11, 56
11, 28782, Control_c, 11, 11, 58
11, 28802, Note_on_c, 11, 65, 0
11, 28802, Note_on_c, 11, 66, 102
11, 28808, Control_c, 11, 11, 60
11, 28834, Control_c, 11, 11, 62
11, 28860, Control_c, 11, 11, 64
11, 28887, Control_c, 11, 11, 66
11, 28913, Control_c, 11, 11, 68
11, 28922, Note_on_c, 11, 66, 0
11, 28922, Note_on_c, 11, 67, 102
11, 28939, Control_c, 11, 11, 70
11, 28965, Control_c, 11, 11, 72
11, 28991, Control_c, 11, 11, 74
11, 29018, Control_c, 11, 11, 76
11, 29042, Note_on_c, 11, 67, 0
11, 29042, Note_on_c, 11, 68, 102
11, 29044, Control_c, 11, 11, 78
11, 29070, Control_c, 11, 11, 80
11, 29096, Control_c, 11, 11, 82
11, 29122, Control_c, 11, 11, 84
11, 29142, Note_on_c, 11, 68, 0
11, 29148, Control_c, 11, 11, 86
11, 29162, Note_on_c, 11, 69, 102
11, 29282, Note_on_c, 11, 69, 0
11, 29282, Note_on_c, 11, 68, 102
11, 29402, Note_on_c, 11, 68, 0
11, 29402, Note_on_c, 11, 67, 102
11, 29502, Note_on_c, 11, 67, 0
11, 29522, Note_on_c, 11, 66, 102
11, 29582, Note_on_c, 11, 66, 0
11, 29642, Note_on_c, 11, 64, 102
11, 29702, Note_on_c, 11, 64, 0
11, 29762, Note_on_c, 11, 62, 102
11, 29822, Note_on_c, 11, 62, 0
11, 29882, Note_on_c, 11, 67, 102
11, 29882, Control_c, 11, 11, 32
11, 29942, Note_on_c, 11, 67, 0
11, 30002, Note_on_c, 11, 69, 102
11, 30062, Note_on_c, 11, 69, 0
11, 30122, Note_on_c, 11, 70, 102
11, 30182, Note_on_c, 11, 70, 0
11, 30242, Note_on_c, 11, 69, 102
11, 30362, Note_on_c, 11, 69, 0
11, 30602, Note_on_c, 11, 64, 102
11, 30662, Note_on_c, 11, 64, 0
11, 30722, Note_on_c, 11, 65, 102
11, 30782, Note_on_c, 11, 65, 0
11, 30842, Note_on_c, 11, 67, 102
11, 30902, Note_on_c, 11, 67, 0
11, 30962, Note_on_c, 11, 65, 102
11, 31082, Note_on_c, 11, 65, 0
11, 31322, Control_c, 11, 11, 32
11, 31322, Note_on_c, 11, 62, 102
11, 31348, Control_c, 11, 11, 34
11, 31374, Control_c, 11, 11, 36
11, 31400, Control_c, 11, 11, 38
11, 31426, Control_c, 11, 11, 40
11, 31442, Note_on_c, 11, 62, 0
11, 31442, Note_on_c, 11, 64, 102
11, 31452, Control_c, 11, 11, 42
11, 31479, Control_c, 11, 11, 44
11, 31505, Control_c, 11, 11, 46
11, 31531, Control_c, 11, 11, 48
11, 31557, Control_c, 11, 11, 50
11, 31562, Note_on_c, 11, 64, 0
11, 31562, Note_on_c, 11, 65, 102
11, 31583, Control_c, 11, 11, 52
11, 31610, Control_c, 11, 11, 54
11, 31636, Control_c, 11, 11, 56
11, 31662, Control_c, 11, 11, 58
11, 31682, Note_on_c, 11, 65, 0
11, 31682, Note_on_c, 11, 66, 102
11, 31688, Control_c, 11, 11, 60
11, 31714, Control_c, 11, 11, 62
11, 31740, Control_c, 11, 11, 64
11, 31767, Control_c, 11, 11, 66
11, 31793, Control_c, 11, 11, 68
11, 31802, Note_on_c, 11, 66, 0
11, 31802, Note_on_c, 11, 67, 102
11, 31819, Control_c, 11, 11, 70
11, 31845, Control_c, 11, 11, 72
11, 31871, Control_c, 11, 11, 74
11, 31898, Control_c, 11, 11, 76
11, 31922, Note_on_c, 11, 67, 0
11, 31922, Note_on_c, 11, 68, 102
11, 31924, Control_c, 11, 11, 78
11, 31950, Control_c, 11, 11, 80
11, 31976, Control_c, 11, 11, 82
11, 32002, Control_c, 11, 11, 84
11, 32022, Note_on_c, 11, 68, 0
11, 32028, Control_c, 11, 11, 86
11, 32042, Note_on_c, 11, 69, 102
11, 32162, Note_on_c, 11, 69, 0
11, 32162, Note_on_c, 11, 68, 102
11, 32282, Note_on_c, 11, 68, 0
11, 32282, Note_on_c, 11, 67, 102
11, 32382, Note_on_c, 11, 67, 0
11, 32402, Note_on_c, 11, 66, 102
11, 32462, Note_on_c, 11, 66, 0
11, 32522, Note_on_c, 11, 64, 102
11, 32582, Note_on_c, 11, 64, 0
11, 32642, Note_on_c, 11, 62, 102
11, 32702, Note_on_c, 11, 62, 0
11, 32762, Note_on_c, 11, 62, 102
11, 32762, Control_c, 11, 11, 47
11, 32780, Control_c, 11, 11, 48
11, 32798, Control_c, 11, 11, 49
11, 32816, Control_c, 11, 11, 50
11, 32834, Control_c, 11, 11, 51
11, 32852, Control_c, 11, 11, 52
11, 32870, Control_c, 11, 11, 53
11, 32882, Note_on_c, 11, 62, 0
11, 32882, Note_on_c, 11, 64, 102
11, 32888, Control_c, 11, 11, 54
11, 32906, Control_c, 11, 11, 55
11, 32924, Control_c, 11, 11, 56
11, 32942, Control_c, 11, 11, 57
11, 32960, Control_c, 11, 11, 58
11, 32978, Control_c, 11, 11, 59
11, 32996, Control_c, 11, 11, 60
11, 33002, Note_on_c, 11, 64, 0
11, 33002, Note_on_c, 11, 65, 102
11, 33014, Control_c, 11, 11, 61
11, 33032, Control_c, 11, 11, 62
11, 33050, Control_c, 11, 11, 63
11, 33068, Control_c, 11, 11, 64
11, 33086, Control_c, 11, 11, 65
11, 33104, Control_c, 11, 11, 66
11, 33122, Note_on_c, 11, 65, 0
11, 33122, Control_c, 11, 11, 67
11, 33122, Note_on_c, 11, 66, 102
11, 33140, Control_c, 11, 11, 68
11, 33158, Control_c, 11, 11, 69
11, 33176, Control_c, 11, 11, 70
11, 33194, Control_c, 11, 11, 71
11, 33212, Control_c, 11, 11, 72
11, 33230, Control_c, 11, 11, 73
11, 33242, Note_on_c, 11, 66, 0
11, 33242, Note_on_c, 11, 67, 102
11, 33248, Control_c, 11, 11, 74
11, 33266, Control_c, 11, 11, 75
11, 33284, Control_c, 11, 11, 76
11, 33302, Control_c, 11, 11, 77
11, 33320, Control_c, 11, 11, 78
11, 33338, Control_c, 11, 11, 79
11, 33356, Control_c, 11, 11, 80
11, 33362, Note_on_c, 11, 67, 0
11, 33362, Note_on_c, 11, 68, 102
11, 33374, Control_c, 11, 11, 81
11, 33392, Control_c, 11, 11, 82
11, 33410, Control_c, 11, 11, 83
11, 33428, Control_c, 11, 11, 84
11, 33446, Control_c, 11, 11, 85
11, 33462, Note_on_c, 11, 68, 0
11, 33464, Control_c, 11, 11, 86
11, 33482, Note_on_c, 11, 69, 102
11, 33482, Control_c, 11, 11, 93
11, 33492, Control_c, 11, 11, 96
11, 33503, Control_c, 11, 11, 99
11, 33513, Control_c, 11, 11, 102
11, 33535, Control_c, 11, 11, 101
11, 33553, Control_c, 11, 11, 99
11, 33571, Control_c, 11, 11, 97
11, 33589, Control_c, 11, 11, 95
11, 33602, Note_on_c, 11, 69, 0
11, 33602, Note_on_c, 11, 68, 102
11, 33607, Control_c, 11, 11, 93
11, 33625, Control_c, 11, 11, 91
11, 33643, Control_c, 11, 11, 89
11, 33661, Control_c, 11, 11, 87
11, 33722, Note_on_c, 11, 68, 0
11, 33722, Note_on_c, 11, 67, 102
11, 33822, Note_on_c, 11, 67, 0
11, 33842, Note_on_c, 11, 66, 102
11, 33902, Note_on_c, 11, 66, 0
11, 33962, Note_on_c, 11, 62, 102
11, 34022, Note_on_c, 11, 62, 0
11, 34082, Note_on_c, 11, 66, 102
11, 34142, Note_on_c, 11, 66, 0
11, 34202, Control_c, 11, 11, 93
11, 34202, Note_on_c, 11, 69, 102
11, 34212, Control_c, 11, 11, 96
11, 34223, Control_c, 11, 11, 99
11, 34233, Control_c, 11, 11, 102
11, 34255, Control_c, 11, 11, 101
11, 34273, Control_c, 11, 11, 99
11, 34291, Control_c, 11, 11, 97
11, 34309, Control_c, 11, 11, 95
11, 34322, Note_on_c, 11, 69, 0
11, 34322, Note_on_c, 11, 68, 102
11, 34327, Control_c, 11, 11, 93
11, 34345, Control_c, 11, 11, 91
11, 34363, Control_c, 11, 11, 89
11, 34381, Control_c, 11, 11, 87
11, 34442, Note_on_c, 11, 68, 0
11, 34442, Note_on_c, 11, 67, 102
11, 34542, Note_on_c, 11, 67, 0
11, 34562, Note_on_c, 11, 66, 102
11, 34622, Note_on_c, 11, 66, 0
11, 34682, Note_on_c, 11, 62, 102
11, 34742, Note_on_c, 11, 62, 0
11, 34802, Note_on_c, 11, 66, 102
11, 34862, Note_on_c, 11, 66, 0
11, 34922, Note_on_c, 11, 61, 102
11, 34922, Control_c, 11, 11, 102
11, 35042, Note_on_c, 11, 61, 0
11, 35042, Note_on_c, 11, 64, 102
11, 35162, Note_on_c, 11, 64, 0
11, 35162, Note_on_c, 11, 69, 102
11, 35282, Note_on_c, 11, 69, 0
11, 35282, Note_on_c, 11, 73, 102
11, 35402, Note_on_c, 11, 73, 0
11, 35402, Note_on_c, 11, 74, 102
11, 35522, Note_on_c, 11, 74, 0
11, 35522, Note_on_c, 11, 76, 102
11, 35622, Note_on_c, 11, 76, 0
11, 35642, Note_on_c, 11, 78, 102
11, 35762, Note_on_c, 11, 78, 0
11, 35882, Note_on_c, 11, 69, 102
11, 35882, Note_on_c, 11, 79, 102
11, 35942, Note_on_c, 11, 79, 0
11, 35942, Note_on_c, 11, 69, 0
11, 36002, Note_on_c, 11, 78, 102
11, 36002, Note_on_c, 11, 62, 102
11, 36002, Note_on_c, 11, 69, 102
11, 36062, Note_on_c, 11, 69, 0
11, 36062, Note_on_c, 11, 62, 0
11, 36062, Note_on_c, 11, 78, 0
11, 36362, Control_c, 11, 11, 47
11, 36362, Note_on_c, 11, 61, 102
11, 36422, Note_on_c, 11, 61, 0
11, 36482, Note_on_c, 11, 62, 102
11, 36542, Note_on_c, 11, 62, 0
11, 36602, Note_on_c, 11, 64, 102
11, 36662, Note_on_c, 11, 64, 0
11, 36722, Note_on_c, 11, 65, 102
11, 36842, Note_on_c, 11, 65, 0
11, 37082, Note_on_c, 11, 57, 102
11, 37142, Note_on_c, 11, 57, 0
11, 37202, Note_on_c, 11, 58, 102
11, 37262, Note_on_c, 11, 58, 0
11, 37322, Note_on_c, 11, 60, 102
11, 37382, Note_on_c, 11, 60, 0
11, 37442, Note_on_c, 11, 62, 102
11, 37562, Note_on_c, 11, 62, 0
11, 37802, Note_on_c, 11, 58, 102
11, 37802, Note_on_c, 11, 62, 102
11, 37862, Note_on_c, 11, 62, 0
11, 37862, Note_on_c, 11, 58, 0
11, 37922, Note_on_c, 11, 62, 102
11, 37922, Control_c, 11, 11, 72
11, 37922, Note_on_c, 11, 58, 102
11, 37930, Control_c, 11, 11, 75
11, 37939, Control_c, 11, 11, 78
11, 37948, Control_c, 11, 11, 81
11, 37963, Control_c, 11, 11, 80
11, 37981, Control_c, 11, 11, 77
11, 37999, Control_c, 11, 11, 74
11, 38017, Control_c, 11, 11, 71
11, 38035, Control_c, 11, 11, 68
11, 38053, Control_c, 11, 11, 65
11, 38071, Control_c, 11, 11, 62
11, 38089, Control_c, 11, 11, 59
11, 38107, Control_c, 11, 11, 56
11, 38125, Control_c, 11, 11, 53
11, 38143, Control_c, 11, 11, 50
11, 38161, Control_c, 11, 11, 47
11, 38502, Note_on_c, 11, 58, 0
11, 38502, Note_on_c, 11, 62, 0
11, 38522, Note_on_c, 11, 63, 102
11, 38522, Note_on_c, 11, 60, 102
11, 38622, Note_on_c, 11, 60, 0
11, 38622, Note_on_c, 11, 63, 0
11, 38642, Note_on_c, 11, 60, 102
11, 38642, Note_on_c, 11, 63, 102
11, 38742, Note_on_c, 11, 63, 0
11, 38742, Note_on_c, 11, 60, 0
11, 38762, Note_on_c, 11, 60, 102
11, 38762, Note_on_c, 11, 63, 102
11, 38862, Note_on_c, 11, 63, 0
11, 38862, Note_on_c, 11, 60, 0
11, 38882, Note_on_c, 11, 60, 102
11, 38882, Note_on_c, 11, 63, 102
11, 38982, Note_on_c, 11, 63, 0
11, 38982, Note_on_c, 11, 60, 0
11, 39002, Note_on_c, 11, 60, 102
11, 39002, Note_on_c, 11, 63, 102
11, 39102, Note_on_c, 11, 63, 0
11, 39102, Note_on_c, 11, 60, 0
11, 39122, Note_on_c, 11, 63, 102
11, 39122, Note_on_c, 11, 60, 102
11, 39222, Note_on_c, 11, 60, 0
11, 39222, Note_on_c, 11, 63, 0
11, 39242, Note_on_c, 11, 58, 102
11, 39242, Note_on_c, 11, 62, 102
11, 39302, Note_on_c, 11, 62, 0
11, 39302, Note_on_c, 11, 58, 0
11, 39362, Note_on_c, 11, 58, 102
11, 39362, Control_c, 11, 11, 72
11, 39362, Note_on_c, 11, 62, 102
11, 39370, Control_c, 11, 11, 75
11, 39379, Control_c, 11, 11, 78
11, 39388, Control_c, 11, 11, 81
11, 39403, Control_c, 11, 11, 80
11, 39421, Control_c, 11, 11, 77
11, 39439, Control_c, 11, 11, 74
11, 39457, Control_c, 11, 11, 71
11, 39475, Control_c, 11, 11, 68
11, 39493, Control_c, 11, 11, 65
11, 39511, Control_c, 11, 11, 62
11, 39529, Control_c, 11, 11, 59
11, 39547, Control_c, 11, 11, 56
11, 39565, Control_c, 11, 11, 53
11, 39583, Control_c, 11, 11, 50
11, 39601, Control_c, 11, 11, 47
11, 39942, Note_on_c, 11, 62, 0
11, 39942, Note_on_c, 11, 58, 0
11, 39962, Note_on_c, 11, 60, 102
11, 39962, Note_on_c, 11, 63, 102
11, 40062, Note_on_c, 11, 63, 0
11, 40062, Note_on_c, 11, 60, 0
11, 40082, Note_on_c, 11, 63, 102
11, 40082, Note_on_c, 11, 60, 102
11, 40182, Note_on_c, 11, 60, 0
11, 40182, Note_on_c, 11, 63, 0
11, 40202, Note_on_c, 11, 60, 102
11, 40202, Note_on_c, 11, 63, 102
11, 40302, Note_on_c, 11, 63, 0
11, 40302, Note_on_c, 11, 60, 0
11, 40322, Note_on_c, 11, 60, 102
11, 40322, Note_on_c, 11, 63, 102
11, 40422, Note_on_c, 11, 63, 0
11, 40422, Note_on_c, 11, 60, 0
11, 40442, Note_on_c, 11, 60, 102
11, 40442, Note_on_c, 11, 63, 102
11, 40542, Note_on_c, 11, 63, 0
11, 40542, Note_on_c, 11, 60, 0
11, 40562, Note_on_c, 11, 63, 102
11, 40562, Note_on_c, 11, 60, 102
11, 40662, Note_on_c, 11, 60, 0
11, 40662, Note_on_c, 11, 63, 0
11, 40682, Note_on_c, 11, 62, 102
11, 40682, Note_on_c, 11, 58, 102
11, 40742, Note_on_c, 11, 58, 0
11, 40742, Note_on_c, 11, 62, 0
11, 40802, Note_on_c, 11, 62, 102
11, 40922, Note_on_c, 11, 62, 0
11, 40922, Note_on_c, 11, 65, 102
11, 41042, Note_on_c, 11, 65, 0
11, 41162, Note_on_c, 11, 62, 102
11, 41282, Note_on_c, 11, 62, 0
11, 41282, Note_on_c, 11, 65, 102
11, 41402, Note_on_c, 11, 65, 0
11, 41522, Note_on_c, 11, 62, 102
11, 41642, Note_on_c, 11, 62, 0
11, 41642, Note_on_c, 11, 65, 102
11, 41762, Note_on_c, 11, 65, 0
11, 41762, Control_c, 11, 11, 47
11, 41762, Note_on_c, 11, 65, 102
11, 41798, Control_c, 11, 11, 46
11, 41822, Note_on_c, 11, 65, 0
11, 41834, Control_c, 11, 11, 45
11, 41870, Control_c, 11, 11, 44
11, 41882, Note_on_c, 11, 65, 102
11, 41906, Control_c, 11, 11, 43
11, 41942, Note_on_c, 11, 65, 0
11, 41942, Control_c, 11, 11, 42
11, 41978, Control_c, 11, 11, 41
11, 42002, Note_on_c, 11, 65, 102
11, 42014, Control_c, 11, 11, 40
11, 42050, Control_c, 11, 11, 39
11, 42062, Note_on_c, 11, 65, 0
11, 42086, Control_c, 11, 11, 38
11, 42122, Control_c, 11, 11, 37
11, 42122, Note_on_c, 11, 64, 102
11, 42242, Note_on_c, 11, 64, 0
11, 43082, Note_on_c, 11, 61, 102
11, 43202, Note_on_c, 11, 61, 0
11, 43202, Note_on_c, 11, 62, 102
11, 43322, Note_on_c, 11, 62, 0
11, 43322, Control_c, 11, 11, 27
11, 43322, Note_on_c, 11, 65, 102
11, 43338, Control_c, 11, 11, 28
11, 43354, Control_c, 11, 11, 29
11, 43370, Control_c, 11, 11, 30
11, 43386, Control_c, 11, 11, 31
11, 43402, Control_c, 11, 11, 32
11, 43418, Control_c, 11, 11, 33
11, 43434, Control_c, 11, 11, 34
11, 43442, Note_on_c, 11, 65, 0
11, 43442, Note_on_c, 11, 68, 102
11, 43450, Control_c, 11, 11, 35
11, 43466, Control_c, 11, 11, 36
11, 43482, Control_c, 11, 11, 37
11, 43498, Control_c, 11, 11, 38
11, 43514, Control_c, 11, 11, 39
11, 43530, Control_c, 11, 11, 40
11, 43542, Note_on_c, 11, 68, 0
11, 43546, Control_c, 11, 11, 41
11, 43562, Control_c, 11, 11, 42
11, 43562, Note_on_c, 11, 69, 102
11, 43578, Control_c, 11, 11, 43
11, 43594, Control_c, 11, 11, 44
11, 43610, Control_c, 11, 11, 45
11, 43622, Note_on_c, 11, 69, 0
11, 43626, Control_c, 11, 11, 46
11, 43642, Control_c, 11, 11, 47
11, 43658, Control_c, 11, 11, 48
11, 43674, Control_c, 11, 11, 49
11, 43682, Note_on_c, 11, 57, 102
11, 43690, Control_c, 11, 11, 50
11, 43706, Control_c, 11, 11, 51
11, 43722, Control_c, 11, 11, 52
11, 43738, Control_c, 11, 11, 53
11, 43754, Control_c, 11, 11, 54
11, 43770, Control_c, 11, 11, 55
11, 43786, Control_c, 11, 11, 56
11, 43802, Note_on_c, 11, 57, 0
11, 43802, Note_on_c, 11, 58, 102
11, 43802, Control_c, 11, 11, 57
11, 43818, Control_c, 11, 11, 58
11, 43834, Control_c, 11, 11, 59
11, 43850, Control_c, 11, 11, 60
11, 43866, Control_c, 11, 11, 61
11, 43882, Control_c, 11, 11, 62
11, 43898, Control_c, 11, 11, 63
11, 43914, Control_c, 11, 11, 64
11, 43922, Note_on_c, 11, 58, 0
11, 43922, Note_on_c, 11, 59, 102
11, 43930, Control_c, 11, 11, 65
11, 43946, Control_c, 11, 11, 66
11, 43962, Control_c, 11, 11, 67
11, 43978, Control_c, 11, 11, 68
11, 43994, Control_c, 11, 11, 69
11, 44010, Control_c, 11, 11, 70
11, 44026, Control_c, 11, 11, 71
11, 44042, Note_on_c, 11, 59, 0
11, 44042, Note_on_c, 11, 60, 102
11, 44042, Control_c, 11, 11, 72
11, 44058, Control_c, 11, 11, 73
11, 44074, Control_c, 11, 11, 74
11, 44090, Control_c, 11, 11, 75
11, 44106, Control_c, 11, 11, 76
11, 44122, Control_c, 11, 11, 77
11, 44138, Control_c, 11, 11, 78
11, 44154, Control_c, 11, 11, 79
11, 44162, Note_on_c, 11, 60, 0
11, 44162, Note_on_c, 11, 61, 102
11, 44170, Control_c, 11, 11, 80
11, 44186, Control_c, 11, 11, 81
11, 44202, Control_c, 11, 11, 82
11, 44218, Control_c, 11, 11, 83
11, 44234, Control_c, 11, 11, 84
11, 44250, Control_c, 11, 11, 85
11, 44262, Note_on_c, 11, 61, 0
11, 44266, Control_c, 11, 11, 86
11, 44282, Control_c, 11, 11, 87
11, 44282, Note_on_c, 11, 62, 102
11, 44305, Control_c, 11, 11, 86
11, 44328, Control_c, 11, 11, 85
11, 44351, Control_c, 11, 11, 84
11, 44374, Control_c, 11, 11, 83
11, 44397, Control_c, 11, 11, 82
11, 44420, Control_c, 11, 11, 81
11, 44443, Control_c, 11, 11, 80
11, 44466, Control_c, 11, 11, 79
11, 44489, Control_c, 11, 11, 78
11, 44512, Control_c, 11, 11, 77
11, 44535, Control_c, 11, 11, 76
11, 44558, Control_c, 11, 11, 75
11, 44581, Control_c, 11, 11, 74
11, 44604, Control_c, 11, 11, 73
11, 44622, Note_on_c, 11, 62, 0
11, 44627, Control_c, 11, 11, 72
11, 45002, Note_on_c, 11, 62, 102
11, 45002, Note_on_c, 11, 59, 102
11, 45002, Control_c, 11, 11, 87
11, 45025, Control_c, 11, 11, 86
11, 45048, Control_c, 11, 11, 85
11, 45071, Control_c, 11, 11, 84
11, 45094, Control_c, 11, 11, 83
11, 45117, Control_c, 11, 11, 82
11, 45140, Control_c, 11, 11, 81
11, 45163, Control_c, 11, 11, 80
11, 45186, Control_c, 11, 11, 79
11, 45209, Control_c, 11, 11, 78
11, 45232, Control_c, 11, 11, 77
11, 45255, Control_c, 11, 11, 76
11, 45278, Control_c, 11, 11, 75
11, 45301, Control_c, 11, 11, 74
11, 45324, Control_c, 11, 11, 73
11, 45342, Note_on_c, 11, 59, 0
11, 45342, Note_on_c, 11, 62, 0
11, 45347, Control_c, 11, 11, 72
11, 46082, Note_on_c, 11, 69, 102
11, 46082, Control_c, 11, 11, 47
11, 46133, Note_on_c, 11, 69, 0
11, 46202, Note_on_c, 11, 74, 102
11, 46253, Note_on_c, 11, 74, 0
11, 46322, Note_on_c, 11, 76, 102
11, 46373, Note_on_c, 11, 76, 0
11, 46802, Note_on_c, 11, 69, 102
11, 46802, Note_on_c, 11, 78, 102
11, 46802, Control_c, 11, 11, 102
11, 46862, Note_on_c, 11, 78, 0
11, 46862, Note_on_c, 11, 69, 0
11, 46922, Note_on_c, 11, 69, 102
11, 46922, Note_on_c, 11, 79, 102
11, 46982, Note_on_c, 11, 79, 0
11, 46982, Note_on_c, 11, 69, 0
11, 47042, Note_on_c, 11, 69, 102
11, 47042, Note_on_c, 11, 78, 102
11, 47102, Note_on_c, 11, 78, 0
11, 47102, Note_on_c, 11, 69, 0
11, 47162, Control_c, 11, 11, 87
11, 47162, Note_on_c, 11, 62, 102
11, 47185, Control_c, 11, 11, 86
11, 47208, Control_c, 11, 11, 85
11, 47231, Control_c, 11, 11, 84
11, 47254, Control_c, 11, 11, 83
11, 47277, Control_c, 11, 11, 82
11, 47300, Control_c, 11, 11, 81
11, 47323, Control_c, 11, 11, 80
11, 47346, Control_c, 11, 11, 79
11, 47369, Control_c, 11, 11, 78
11, 47392, Control_c, 11, 11, 77
11, 47415, Control_c, 11, 11, 76
11, 47438, Control_c, 11, 11, 75
11, 47461, Control_c, 11, 11, 74
11, 47484, Control_c, 11, 11, 73
11, 47502, Note_on_c, 11, 62, 0
11, 47507, Control_c, 11, 11, 72
11, 47882, Control_c, 11, 11, 87
11, 47882, Note_on_c, 11, 62, 102
11, 47882, Note_on_c, 11, 59, 102
11, 47905, Control_c, 11, 11, 86
11, 47928, Control_c, 11, 11, 85
11, 47951, Control_c, 11, 11, 84
11, 47974, Control_c, 11, 11, 83
11, 47997, Control_c, 11, 11, 82
11, 48020, Control_c, 11, 11, 81
11, 48043, Control_c, 11, 11, 80
11, 48066, Control_c, 11, 11, 79
11, 48089, Control_c, 11, 11, 78
11, 48112, Control_c, 11, 11, 77
11, 48135, Control_c, 11, 11, 76
11, 48158, Control_c, 11, 11, 75
11, 48181, Control_c, 11, 11, 74
11, 48204, Control_c, 11, 11, 73
11, 48222, Note_on_c, 11, 59, 0
11, 48222, Note_on_c, 11, 62, 0
11, 48227, Control_c, 11, 11, 72
11, 48962, Note_on_c, 11, 64, 102
11, 48962, Control_c, 11, 11, 47
11, 49013, Note_on_c, 11, 64, 0
11, 49082, Note_on_c, 11, 66, 102
11, 49133, Note_on_c, 11, 66, 0
11, 49202, Note_on_c, 11, 67, 102
11, 49253, Note_on_c, 11, 67, 0
11, 49682, Note_on_c, 11, 64, 102
11, 49733, Note_on_c, 11, 64, 0
11, 49802, Note_on_c, 11, 66, 102
11, 49853, Note_on_c, 11, 66, 0
11, 49922, Note_on_c, 11, 67, 102
11, 49973, Note_on_c, 11, 67, 0
11, 50042, Control_c, 11, 11, 47
11, 50138, Control_c, 11, 11, 46
11, 50234, Control_c, 11, 11, 45
11, 50330, Control_c, 11, 11, 44
11, 50402, Note_on_c, 11, 64, 102
11, 50426, Control_c, 11, 11, 43
11, 50453, Note_on_c, 11, 64, 0
11, 50522, Note_on_c, 11, 65, 102
11, 50522, Control_c, 11, 11, 42
11, 50573, Note_on_c, 11, 65, 0
11, 50618, Control_c, 11, 11, 41
11, 50642, Note_on_c, 11, 67, 102
11, 50693, Note_on_c, 11, 67, 0
11, 50714, Control_c, 11, 11, 40
11, 50762, Note_on_c, 11, 64, 102
11, 50810, Control_c, 11, 11, 39
11, 50813, Note_on_c, 11, 64, 0
11, 50882, Note_on_c, 11, 65, 102
11, 50906, Control_c, 11, 11, 38
11, 50933, Note_on_c, 11, 65, 0
11, 51002, Control_c, 11, 11, 37
11, 51002, Note_on_c, 11, 67, 102
11, 51053, Note_on_c, 11, 67, 0
11, 51098, Control_c, 11, 11, 36
11, 51122, Note_on_c, 11, 64, 102
11, 51173, Note_on_c, 11, 64, 0
11, 51194, Control_c, 11, 11, 35
11, 51242, Note_on_c, 11, 65, 102
11, 51290, Control_c, 11, 11, 34
11, 51293, Note_on_c, 11, 65, 0
11, 51362, Note_on_c, 11, 67, 102
11, 51386, Control_c, 11, 11, 33
11, 51413, Note_on_c, 11, 67, 0
11, 51482, Control_c, 11, 11, 32
11, 51482, Note_on_c, 11, 64, 102
11, 51533, Note_on_c, 11, 64, 0
11, 51602, Note_on_c, 11, 65, 102
11, 51653, Note_on_c, 11, 65, 0
11, 51722, Note_on_c, 11, 67, 102
11, 51773, Note_on_c, 11, 67, 0
11, 51842, Note_on_c, 11, 65, 102
11, 51962, Note_on_c, 11, 65, 0
11, 52202, Note_on_c, 11, 61, 102
11, 52253, Note_on_c, 11, 61, 0
11, 52322, Note_on_c, 11, 62, 102
11, 52373, Note_on_c, 11, 62, 0
11, 52442, Note_on_c, 11, 64, 102
11, 52493, Note_on_c, 11, 64, 0
11, 52562, Note_on_c, 11, 62, 102
11, 52682, Note_on_c, 11, 62, 0
11, 52922, Note_on_c, 11, 62, 102
11, 52922, Control_c, 11, 11, 32
11, 52948, Control_c, 11, 11, 34
11, 52974, Control_c, 11, 11, 36
11, 53000, Control_c, 11, 11, 38
11, 53026, Control_c, 11, 11, 40
11, 53042, Note_on_c, 11, 62, 0
11, 53042, Note_on_c, 11, 64, 102
11, 53052, Control_c, 11, 11, 42
11, 53079, Control_c, 11, 11, 44
11, 53105, Control_c, 11, 11, 46
11, 53131, Control_c, 11, 11, 48
11, 53157, Control_c, 11, 11, 50
11, 53162, Note_on_c, 11, 64, 0
11, 53162, Note_on_c, 11, 65, 102
11, 53183, Control_c, 11, 11, 52
11, 53210, Control_c, 11, 11, 54
11, 53236, Control_c, 11, 11, 56
11, 53262, Control_c, 11, 11, 58
11, 53282, Note_on_c, 11, 65, 0
11, 53282, Note_on_c, 11, 66, 102
11, 53288, Control_c, 11, 11, 60
11, 53314, Control_c, 11, 11, 62
11, 53340, Control_c, 11, 11, 64
11, 53367, Control_c, 11, 11, 66
11, 53393, Control_c, 11, 11, 68
11, 53402, Note_on_c, 11, 66, 0
11, 53402, Note_on_c, 11, 67, 102
11, 53419, Control_c, 11, 11, 70
11, 53445, Control_c, 11, 11, 72
11, 53471, Control_c, 11, 11, 74
11, 53498, Control_c, 11, 11, 76
11, 53522, Note_on_c, 11, 67, 0
11, 53522, Note_on_c, 11, 68, 102
11, 53524, Control_c, 11, 11, 78
11, 53550, Control_c, 11, 11, 80
11, 53576, Control_c, 11, 11, 82
11, 53602, Control_c, 11, 11, 84
11, 53622, Note_on_c, 11, 68, 0
11, 53628, Control_c, 11, 11, 86
11, 53642, Note_on_c, 11, 69, 102
11, 53762, Note_on_c, 11, 69, 0
11, 53762, Note_on_c, 11, 68, 102
11, 53882, Note_on_c, 11, 68, 0
11, 53882, Note_on_c, 11, 67, 102
11, 53982, Note_on_c, 11, 67, 0
11, 54002, Note_on_c, 11, 66, 102
11, 54062, Note_on_c, 11, 66, 0
11, 54122, Note_on_c, 11, 64, 102
11, 54182, Note_on_c, 11, 64, 0
11, 54242, Note_on_c, 11, 62, 102
11, 54302, Note_on_c, 11, 62, 0
11, 54362, Note_on_c, 11, 67, 102
11, 54362, Control_c, 11, 11, 32
11, 54422, Note_on_c, 11, 67, 0
11, 54482, Note_on_c, 11, 69, 102
11, 54542, Note_on_c, 11, 69, 0
11, 54602, Note_on_c, 11, 70, 102
11, 54662, Note_on_c, 11, 70, 0
11, 54722, Note_on_c, 11, 69, 102
11, 54842, Note_on_c, 11, 69, 0
11, 55082, Note_on_c, 11, 64, 102
11, 55142, Note_on_c, 11, 64, 0
11, 55202, Note_on_c, 11, 65, 102
11, 55262, Note_on_c, 11, 65, 0
11, 55322, Note_on_c, 11, 67, 102
11, 55382, Note_on_c, 11, 67, 0
11, 55442, Note_on_c, 11, 65, 102
11, 55562, Note_on_c, 11, 65, 0
11, 55802, Note_on_c, 11, 62, 102
11, 55802, Control_c, 11, 11, 32
11, 55828, Control_c, 11, 11, 34
11, 55854, Control_c, 11, 11, 36
11, 55880, Control_c, 11, 11, 38
11, 55906, Control_c, 11, 11, 40
11, 55922, Note_on_c, 11, 62, 0
11, 55922, Note_on_c, 11, 64, 102
11, 55932, Control_c, 11, 11, 42
11, 55959, Control_c, 11, 11, 44
11, 55985, Control_c, 11, 11, 46
11, 56011, Control_c, 11, 11, 48
11, 56037, Control_c, 11, 11, 50
11, 56042, Note_on_c, 11, 64, 0
11, 56042, Note_on_c, 11, 65, 102
11, 56063, Control_c, 11, 11, 52
11, 56090, Control_c, 11, 11, 54
11, 56116, Control_c, 11, 11, 56
11, 56142, Control_c, 11, 11, 58
11, 56162, Note_on_c, 11, 65, 0
11, 56162, Note_on_c, 11, 66, 102
11, 56168, Control_c, 11, 11, 60
11, 56194, Control_c, 11, 11, 62
11, 56220, Control_c, 11, 11, 64
11, 56247, Control_c, 11, 11, 66
11, 56273, Control_c, 11, 11, 68
11, 56282, Note_on_c, 11, 66, 0
11, 56282, Note_on_c, 11, 67, 102
11, 56299, Control_c, 11, 11, 70
11, 56325, Control_c, 11, 11, 72
11, 56351, Control_c, 11, 11, 74
11, 56378, Control_c, 11, 11, 76
11, 56402, Note_on_c, 11, 67, 0
11, 56402, Note_on_c, 11, 68, 102
11, 56404, Control_c, 11, 11, 78
11, 56430, Control_c, 11, 11, 80
11, 56456, Control_c, 11, 11, 82
11, 56482, Control_c, 11, 11, 84
11, 56502, Note_on_c, 11, 68, 0
11, 56508, Control_c, 11, 11, 86
11, 56522, Note_on_c, 11, 69, 102
11, 56642, Note_on_c, 11, 69, 0
11, 56642, Note_on_c, 11, 68, 102
11, 56762, Note_on_c, 11, 68, 0
11, 56762, Note_on_c, 11, 67, 102
11, 56862, Note_on_c, 11, 67, 0
11, 56882, Note_on_c, 11, 66, 102
11, 56942, Note_on_c, 11, 66, 0
11, 57002, Note_on_c, 11, 64, 102
11, 57062, Note_on_c, 11, 64, 0
11, 57122, Note_on_c, 11, 62, 102
11, 57182, Note_on_c, 11, 62, 0
11, 57242, Control_c, 11, 11, 47
11, 57242, Note_on_c, 11, 62, 102
11, 57260, Control_c, 11, 11, 48
11, 57278, Control_c, 11, 11, 49
11, 57296, Control_c, 11, 11, 50
11, 57314, Control_c, 11, 11, 51
11, 57332, Control_c, 11, 11, 52
11, 57350, Control_c, 11, 11, 53
11, 57362, Note_on_c, 11, 62, 0
11, 57362, Note_on_c, 11, 64, 102
11, 57368, Control_c, 11, 11, 54
11, 57386, Control_c, 11, 11, 55
11, 57404, Control_c, 11, 11, 56
11, 57422, Control_c, 11, 11, 57
11, 57440, Control_c, 11, 11, 58
11, 57458, Control_c, 11, 11, 59
11, 57476, Control_c, 11, 11, 60
11, 57482, Note_on_c, 11, 64, 0
11, 57482, Note_on_c, 11, 65, 102
11, 57494, Control_c, 11, 11, 61
11, 57512, Control_c, 11, 11, 62
11, 57530, Control_c, 11, 11, 63
11, 57548, Control_c, 11, 11, 64
11, 57566, Control_c, 11, 11, 65
11, 57584, Control_c, 11, 11, 66
11, 57602, Note_on_c, 11, 65, 0
11, 57602, Control_c, 11, 11, 67
11, 57602, Note_on_c, 11, 66, 102
11, 57620, Control_c, 11, 11, 68
11, 57638, Control_c, 11, 11, 69
11, 57656, Control_c, 11, 11, 70
11, 57674, Control_c, 11, 11, 71
11, 57692, Control_c, 11, 11, 72
11, 57710, Control_c, 11, 11, 73
11, 57722, Note_on_c, 11, 66, 0
11, 57722, Note_on_c, 11, 67, 102
11, 57728, Control_c, 11, 11, 74
11, 57746, Control_c, 11, 11, 75
11, 57764, Control_c, 11, 11, 76
11, 57782, Control_c, 11, 11, 77
11, 57800, Control_c, 11, 11, 78
11, 57818, Control_c, 11, 11, 79
11, 57836, Control_c, 11, 11, 80
11, 57842, Note_on_c, 11, 67, 0
11, 57842, Note_on_c, 11, 68, 102
11, 57854, Control_c, 11, 11, 81
11, 57872, Control_c, 11, 11, 82
11, 57890, Control_c, 11, 11, 83
11, 57908, Control_c, 11, 11, 84
11, 57926, Control_c, 11, 11, 85
11, 57942, Note_on_c, 11, 68, 0
11, 57944, Control_c, 11, 11, 86
11, 57962, Control_c, 11, 11, 93
11, 57962, Note_on_c, 11, 69, 102
11, 57972, Control_c, 11, 11, 96
11, 57983, Control_c, 11, 11, 99
11, 57993, Control_c, 11, 11, 102
11, 58015, Control_c, 11, 11, 101
11, 58033, Control_c, 11, 11, 99
11, 58051, Control_c, 11, 11, 97
11, 58069, Control_c, 11, 11, 95
11, 58082, Note_on_c, 11, 69, 0
11, 58082, Note_on_c, 11, 68, 102
11, 58087, Control_c, 11, 11, 93
11, 58105, Control_c, 11, 11, 91
11, 58123, Control_c, 11, 11, 89
11, 58141, Control_c, 11, 11, 87
11, 58202, Note_on_c, 11, 68, 0
11, 58202, Note_on_c, 11, 67, 102
11, 58302, Note_on_c, 11, 67, 0
11, 58322, Note_on_c, 11, 66, 102
11, 58382, Note_on_c, 11, 66, 0
11, 58442, Note_on_c, 11, 62, 102
11, 58502, Note_on_c, 11, 62, 0
11, 58562, Note_on_c, 11, 66, 102
11, 58622, Note_on_c, 11, 66, 0
11, 58682, Note_on_c, 11, 69, 102
11, 58682, Control_c, 11, 11, 93
11, 58692, Control_c, 11, 11, 96
11, 58703, Control_c, 11, 11, 99
11, 58713, Control_c, 11, 11, 102
11, 58735, Control_c, 11, 11, 101
11, 58753, Control_c, 11, 11, 99
11, 58771, Control_c, 11, 11, 97
11, 58789, Control_c, 11, 11, 95
11, 58802, Note_on_c, 11, 69, 0
11, 58802, Note_on_c, 11, 68, 102
11, 58807, Control_c, 11, 11, 93
11, 58825, Control_c, 11, 11, 91
11, 58843, Control_c, 11, 11, 89
11, 58861, Control_c, 11, 11, 87
11, 58922, Note_on_c, 11, 68, 0
11, 58922, Note_on_c, 11, 67, 102
11, 59022, Note_on_c, 11, 67, 0
11, 59042, Note_on_c, 11, 66, 102
11, 59102, Note_on_c, 11, 66, 0
11, 59162, Note_on_c, 11, 62, 102
11, 59222, Note_on_c, 11, 62, 0
11, 59282, Note_on_c, 11, 66, 102
11, 59342, Note_on_c, 11, 66, 0
11, 59402, Control_c, 11, 11, 102
11, 59402, Note_on_c, 11, 61, 102
11, 59522, Note_on_c, 11, 61, 0
11, 59522, Note_on_c, 11, 64, 102
11, 59642, Note_on_c, 11, 64, 0
11, 59642, Note_on_c, 11, 69, 102
11, 59762, Note_on_c, 11, 69, 0
11, 59762, Note_on_c, 11, 73, 102
11, 59882, Note_on_c, 11, 73, 0
11, 59882, Note_on_c, 11, 74, 102
11, 60002, Note_on_c, 11, 74, 0
11, 60002, Note_on_c, 11, 76, 102
11, 60102, Note_on_c, 11, 76, 0
11, 60122, Note_on_c, 11, 78, 102
11, 60242, Note_on_c, 11, 78, 0
11, 60362, Note_on_c, 11, 79, 102
11, 60362, Note_on_c, 11, 69, 102
11, 60422, Note_on_c, 11, 69, 0
11, 60422, Note_on_c, 11, 79, 0
11, 60482, Note_on_c, 11, 69, 102
11, 60482, Note_on_c, 11, 62, 102
11, 60482, Note_on_c, 11, 78, 102
11, 60542, Note_on_c, 11, 78, 0
11, 60542, Note_on_c, 11, 62, 0
11, 60542, Note_on_c, 11, 69, 0
11, 66602, Control_c, 11, 11, 87
11, 66602, Note_on_c, 11, 66, 102
11, 66752, Note_on_c, 11, 66, 0
11, 66962, Note_on_c, 11, 66, 102
11, 66962, Control_c, 11, 11, 107
11, 67022, Control_c, 11, 11, 104
11, 67040, Control_c, 11, 11, 101
11, 67058, Control_c, 11, 11, 98
11, 67076, Control_c, 11, 11, 95
11, 67094, Control_c, 11, 11, 92
11, 67112, Note_on_c, 11, 66, 0
11, 67112, Control_c, 11, 11, 89
11, 67322, Note_on_c, 11, 66, 102
11, 67382, Note_on_c, 11, 66, 0
11, 67382, Note_on_c, 11, 65, 102
11, 67422, Note_on_c, 11, 65, 0
11, 67442, Note_on_c, 11, 66, 102
11, 67502, Note_on_c, 11, 66, 0
11, 67502, Note_on_c, 11, 65, 102
11, 67542, Note_on_c, 11, 65, 0
11, 67562, Note_on_c, 11, 66, 102
11, 67622, Note_on_c, 11, 66, 0
11, 67622, Note_on_c, 11, 65, 102
11, 67662, Note_on_c, 11, 65, 0
11, 67682, Note_on_c, 11, 66, 102
11, 67742, Note_on_c, 11, 66, 0
11, 67742, Note_on_c, 11, 65, 102
11, 67782, Note_on_c, 11, 65, 0
11, 67802, Note_on_c, 11, 66, 102
11, 67862, Note_on_c, 11, 66, 0
11, 67862, Note_on_c, 11, 65, 102
11, 67902, Note_on_c, 11, 65, 0
11, 67922, Note_on_c, 11, 66, 102
11, 67982, Note_on_c, 11, 66, 0
11, 67982, Note_on_c, 11, 65, 102
11, 68022, Note_on_c, 11, 65, 0
11, 68042, Note_on_c, 11, 66, 102
11, 68087, Note_on_c, 11, 66, 0
11, 68102, Note_on_c, 11, 66, 102
11, 68147, Note_on_c, 11, 66, 0
11, 68162, Note_on_c, 11, 70, 102
11, 68207, Note_on_c, 11, 70, 0
11, 68222, Note_on_c, 11, 70, 102
11, 68267, Note_on_c, 11, 70, 0
11, 68282, Note_on_c, 11, 73, 102
11, 68327, Note_on_c, 11, 73, 0
11, 68342, Note_on_c, 11, 73, 102
11, 68387, Note_on_c, 11, 73, 0
11, 68402, Control_c, 11, 11, 107
11, 68402, Note_on_c, 11, 78, 102
11, 68419, Control_c, 11, 11, 104
11, 68437, Control_c, 11, 11, 101
11, 68447, Note_on_c, 11, 78, 0
11, 68455, Control_c, 11, 11, 98
11, 68462, Note_on_c, 11, 78, 102
11, 68473, Control_c, 11, 11, 95
11, 68491, Control_c, 11, 11, 92
11, 68507, Note_on_c, 11, 78, 0
11, 68509, Control_c, 11, 11, 89
11, 68522, Note_on_c, 11, 73, 102
11, 68567, Note_on_c, 11, 73, 0
11, 68582, Note_on_c, 11, 73, 102
11, 68627, Note_on_c, 11, 73, 0
11, 68642, Note_on_c, 11, 70, 102
11, 68687, Note_on_c, 11, 70, 0
11, 68702, Note_on_c, 11, 70, 102
11, 68747, Note_on_c, 11, 70, 0
11, 68762, Note_on_c, 11, 66, 102
11, 68807, Note_on_c, 11, 66, 0
11, 68822, Note_on_c, 11, 66, 102
11, 68867, Note_on_c, 11, 66, 0
11, 68882, Note_on_c, 11, 70, 102
11, 68927, Note_on_c, 11, 70, 0
11, 68942, Note_on_c, 11, 70, 102
11, 68987, Note_on_c, 11, 70, 0
11, 69002, Note_on_c, 11, 73, 102
11, 69047, Note_on_c, 11, 73, 0
11, 69062, Note_on_c, 11, 73, 102
11, 69107, Note_on_c, 11, 73, 0
11, 69122, Note_on_c, 11, 78, 102
11, 69122, Control_c, 11, 11, 107
11, 69139, Control_c, 11, 11, 104
11, 69157, Control_c, 11, 11, 101
11, 69167, Note_on_c, 11, 78, 0
11, 69175, Control_c, 11, 11, 98
11, 69182, Note_on_c, 11, 78, 102
11, 69193, Control_c, 11, 11, 95
11, 69211, Control_c, 11, 11, 92
11, 69227, Note_on_c, 11, 78, 0
11, 69229, Control_c, 11, 11, 89
11, 69242, Note_on_c, 11, 73, 102
11, 69287, Note_on_c, 11, 73, 0
11, 69302, Note_on_c, 11, 73, 102
11, 69347, Note_on_c, 11, 73, 0
11, 69362, Note_on_c, 11, 70, 102
11, 69407, Note_on_c, 11, 70, 0
11, 69422, Note_on_c, 11, 70, 102
11, 69422, Control_c, 11, 11, 87
11, 69431, Control_c, 11, 11, 84
11, 69440, Control_c, 11, 11, 81
11, 69449, Control_c, 11, 11, 78
11, 69458, Control_c, 11, 11, 75
11, 69467, Note_on_c, 11, 70, 0
11, 69467, Control_c, 11, 11, 72
11, 69476, Control_c, 11, 11, 69
11, 69482, Note_on_c, 11, 66, 102
11, 69485, Control_c, 11, 11, 66
11, 69494, Control_c, 11, 11, 63
11, 69503, Control_c, 11, 11, 60
11, 69512, Control_c, 11, 11, 57
11, 69521, Control_c, 11, 11, 54
11, 69527, Note_on_c, 11, 66, 0
11, 69530, Control_c, 11, 11, 51
11, 69539, Control_c, 11, 11, 48
11, 69542, Note_on_c, 11, 66, 102
11, 69587, Note_on_c, 11, 66, 0
11, 69602, Control_c, 11, 11, 47
11, 69602, Note_on_c, 11, 66, 102
11, 69647, Note_on_c, 11, 66, 0
11, 69662, Note_on_c, 11, 66, 102
11, 69668, Control_c, 11, 11, 46
11, 69707, Note_on_c, 11, 66, 0
11, 69722, Note_on_c, 11, 66, 102
11, 69734, Control_c, 11, 11, 45
11, 69767, Note_on_c, 11, 66, 0
11, 69782, Note_on_c, 11, 66, 102
11, 69800, Control_c, 11, 11, 44
11, 69827, Note_on_c, 11, 66, 0
11, 69842, Note_on_c, 11, 66, 102
11, 69866, Control_c, 11, 11, 43
11, 69887, Note_on_c, 11, 66, 0
11, 69902, Note_on_c, 11, 66, 102
11, 69932, Control_c, 11, 11, 42
11, 69947, Note_on_c, 11, 66, 0
11, 69962, Note_on_c, 11, 66, 102
11, 69998, Control_c, 11, 11, 41
11, 70007, Note_on_c, 11, 66, 0
11, 70022, Note_on_c, 11, 66, 102
11, 70064, Control_c, 11, 11, 40
11, 70067, Note_on_c, 11, 66, 0
11, 70082, Note_on_c, 11, 66, 102
11, 70127, Note_on_c, 11, 66, 0
11, 70130, Control_c, 11, 11, 39
11, 70142, Note_on_c, 11, 66, 102
11, 70187, Note_on_c, 11, 66, 0
11, 70196, Control_c, 11, 11, 38
11, 70202, Note_on_c, 11, 66, 102
11, 70247, Note_on_c, 11, 66, 0
11, 70262, Control_c, 11, 11, 37
11, 70262, Note_on_c, 11, 66, 102
11, 70307, Note_on_c, 11, 66, 0
11, 70322, Note_on_c, 11, 66, 102
11, 70328, Control_c, 11, 11, 36
11, 70367, Note_on_c, 11, 66, 0
11, 70382, Note_on_c, 11, 66, 102
11, 70394, Control_c, 11, 11, 35
11, 70427, Note_on_c, 11, 66, 0
11, 70442, Note_on_c, 11, 66, 102
11, 70460, Control_c, 11, 11, 34
11, 70487, Note_on_c, 11, 66, 0
11, 70502, Note_on_c, 11, 66, 102
11, 70526, Control_c, 11, 11, 33
11, 70547, Note_on_c, 11, 66, 0
11, 70562, Note_on_c, 11, 66, 102
11, 70592, Control_c, 11, 11, 32
11, 70607, Note_on_c, 11, 66, 0
11, 70622, Note_on_c, 11, 66, 102
11, 70658, Control_c, 11, 11, 31
11, 70667, Note_on_c, 11, 66, 0
11, 70682, Note_on_c, 11, 66, 102
11, 70724, Control_c, 11, 11, 30
11, 70727, Note_on_c, 11, 66, 0
11, 70742, Note_on_c, 11, 66, 102
11, 70787, Note_on_c, 11, 66, 0
11, 70790, Control_c, 11, 11, 29
11, 70802, Note_on_c, 11, 66, 102
11, 70847, Note_on_c, 11, 66, 0
11, 70856, Control_c, 11, 11, 28
11, 70862, Note_on_c, 11, 66, 102
11, 70907, Note_on_c, 11, 66, 0
11, 70922, Control_c, 11, 11, 27
11, 70922, Note_on_c, 11, 66, 102
11, 71001, Control_c, 11, 11, 26
11, 71081, Control_c, 11, 11, 25
11, 71161, Control_c, 11, 11, 24
11, 71241, Control_c, 11, 11, 23
11, 71321, Control_c, 11, 11, 22
11, 71401, Control_c, 11, 11, 21
11, 71481, Control_c, 11, 11, 20
11, 71561, Control_c, 11, 11, 19
11, 71612, Note_on_c, 11, 66, 0
11, 71641, Control_c, 11, 11, 18
11, 72242, Control_c, 11, 11, 102
11, 72242, Note_on_c, 11, 57, 102
11, 72361, Control_c, 11, 11, 87
11, 72362, Note_on_c, 11, 57, 0
11, 72362, Note_on_c, 11, 62, 102
11, 72362, Control_c, 11, 11, 84
11, 72364, Control_c, 11, 11, 79
11, 72366, Control_c, 11, 11, 74
11, 72368, Control_c, 11, 11, 69
11, 72370, Control_c, 11, 11, 64
11, 72372, Control_c, 11, 11, 59
11, 72374, Control_c, 11, 11, 54
11, 72376, Control_c, 11, 11, 49
11, 72482, Note_on_c, 11, 62, 0
11, 75242, Note_on_c, 11, 62, 87
11, 75242, Control_c, 11, 11, 47
11, 75289, Control_c, 11, 11, 48
11, 75337, Control_c, 11, 11, 49
11, 75385, Control_c, 11, 11, 50
11, 75433, Control_c, 11, 11, 51
11, 75481, Control_c, 11, 11, 52
11, 75529, Control_c, 11, 11, 53
11, 75577, Control_c, 11, 11, 54
11, 75625, Control_c, 11, 11, 55
11, 75673, Control_c, 11, 11, 56
11, 75721, Control_c, 11, 11, 57
11, 75722, Note_on_c, 11, 62, 0
11, 75722, Note_on_c, 11, 61, 87
11, 75769, Control_c, 11, 11, 58
11, 75817, Control_c, 11, 11, 59
11, 75842, Note_on_c, 11, 61, 0
11, 75842, Note_on_c, 11, 59, 87
11, 75865, Control_c, 11, 11, 60
11, 75913, Control_c, 11, 11, 61
11, 75961, Control_c, 11, 11, 62
11, 75962, Note_on_c, 11, 59, 0
11, 75962, Note_on_c, 11, 57, 87
11, 76082, Note_on_c, 11, 57, 0
11, 76082, Note_on_c, 11, 59, 87
11, 76202, Note_on_c, 11, 59, 0
11, 76202, Note_on_c, 11, 62, 87
11, 76262, Note_on_c, 11, 62, 0
11, 76322, Note_on_c, 11, 61, 87
11, 76442, Note_on_c, 11, 61, 0
11, 76562, Note_on_c, 11, 63, 87
11, 76682, Note_on_c, 11, 63, 0
11, 76682, Note_on_c, 11, 64, 87
11, 76682, Control_c, 11, 11, 62
11, 76706, Control_c, 11, 11, 63
11, 76730, Control_c, 11, 11, 64
11, 76754, Control_c, 11, 11, 65
11, 76778, Control_c, 11, 11, 66
11, 76802, Control_c, 11, 11, 67
11, 76826, Control_c, 11, 11, 68
11, 76850, Control_c, 11, 11, 69
11, 76874, Control_c, 11, 11, 70
11, 76898, Control_c, 11, 11, 71
11, 76922, Control_c, 11, 11, 72
11, 76946, Control_c, 11, 11, 73
11, 76970, Control_c, 11, 11, 74
11, 76994, Control_c, 11, 11, 75
11, 77018, Control_c, 11, 11, 76
11, 77042, Control_c, 11, 11, 79
11, 77056, Control_c, 11, 11, 82
11, 77070, Control_c, 11, 11, 85
11, 77085, Control_c, 11, 11, 88
11, 77102, Control_c, 11, 11, 87
11, 77120, Control_c, 11, 11, 84
11, 77138, Control_c, 11, 11, 81
11, 77156, Control_c, 11, 11, 78
11, 77162, Note_on_c, 11, 64, 0
11, 77162, Note_on_c, 11, 62, 87
11, 77174, Control_c, 11, 11, 76
11, 77198, Control_c, 11, 11, 74
11, 77222, Control_c, 11, 11, 72
11, 77246, Control_c, 11, 11, 70
11, 77270, Control_c, 11, 11, 68
11, 77282, Note_on_c, 11, 62, 0
11, 77282, Note_on_c, 11, 61, 87
11, 77294, Control_c, 11, 11, 66
11, 77318, Control_c, 11, 11, 64
11, 77342, Control_c, 11, 11, 62
11, 77366, Control_c, 11, 11, 60
11, 77390, Control_c, 11, 11, 58
11, 77402, Note_on_c, 11, 61, 0
11, 77402, Note_on_c, 11, 62, 87
11, 77522, Note_on_c, 11, 62, 0
11, 77522, Note_on_c, 11, 64, 87
11, 77642, Note_on_c, 11, 64, 0
11, 77642, Note_on_c, 11, 61, 87
11, 77702, Note_on_c, 11, 61, 0
11, 77762, Note_on_c, 11, 62, 87
11, 77882, Note_on_c, 11, 62, 0
11, 78002, Note_on_c, 11, 61, 87
11, 78062, Note_on_c, 11, 61, 0
11, 78122, Note_on_c, 11, 62, 87
11, 78242, Note_on_c, 11, 62, 0
11, 78242, Note_on_c, 11, 64, 87
11, 78362, Note_on_c, 11, 64, 0
11, 78362, Note_on_c, 11, 61, 87
11, 78422, Note_on_c, 11, 61, 0
11, 78482, Control_c, 11, 11, 57
11, 78482, Note_on_c, 11, 62, 87
11, 78554, Control_c, 11, 11, 58
11, 78602, Note_on_c, 11, 62, 0
11, 78626, Control_c, 11, 11, 59
11, 78698, Control_c, 11, 11, 60
11, 78722, Note_on_c, 11, 61, 87
11, 78770, Control_c, 11, 11, 61
11, 78782, Note_on_c, 11, 61, 0
11, 78842, Control_c, 11, 11, 62
11, 78842, Note_on_c, 11, 62, 87
11, 78902, Note_on_c, 11, 62, 0
11, 78914, Control_c, 11, 11, 63
11, 78986, Control_c, 11, 11, 64
11, 79058, Control_c, 11, 11, 65
11, 79082, Note_on_c, 11, 61, 87
11, 79130, Control_c, 11, 11, 66
11, 79142, Note_on_c, 11, 61, 0
11, 79202, Control_c, 11, 11, 67
11, 79202, Note_on_c, 11, 62, 87
11, 79262, Note_on_c, 11, 62, 0
11, 79442, Note_on_c, 11, 64, 87
11, 79442, Control_c, 11, 11, 37
11, 79466, Control_c, 11, 11, 39
11, 79490, Control_c, 11, 11, 41
11, 79502, Note_on_c, 11, 64, 0
11, 79514, Control_c, 11, 11, 43
11, 79538, Control_c, 11, 11, 45
11, 79562, Note_on_c, 11, 66, 87
11, 79562, Control_c, 11, 11, 47
11, 79682, Note_on_c, 11, 66, 0
11, 79682, Note_on_c, 11, 67, 87
11, 79802, Note_on_c, 11, 67, 0
11, 79802, Note_on_c, 11, 64, 87
11, 79862, Note_on_c, 11, 64, 0
11, 79922, Note_on_c, 11, 66, 87
11, 80042, Note_on_c, 11, 66, 0
11, 80282, Note_on_c, 11, 66, 102
11, 80282, Control_c, 11, 11, 87
11, 80432, Note_on_c, 11, 66, 0
11, 80642, Note_on_c, 11, 66, 102
11, 80642, Control_c, 11, 11, 107
11, 80702, Control_c, 11, 11, 104
11, 80720, Control_c, 11, 11, 101
11, 80738, Control_c, 11, 11, 98
11, 80756, Control_c, 11, 11, 95
11, 80774, Control_c, 11, 11, 92
11, 80792, Note_on_c, 11, 66, 0
11, 80792, Control_c, 11, 11, 89
11, 81002, Note_on_c, 11, 66, 102
11, 81062, Note_on_c, 11, 66, 0
11, 81062, Note_on_c, 11, 65, 102
11, 81102, Note_on_c, 11, 65, 0
11, 81122, Note_on_c, 11, 66, 102
11, 81182, Note_on_c, 11, 66, 0
11, 81182, Note_on_c, 11, 65, 102
11, 81222, Note_on_c, 11, 65, 0
11, 81242, Note_on_c, 11, 66, 102
11, 81302, Note_on_c, 11, 66, 0
11, 81302, Note_on_c, 11, 65, 102
11, 81342, Note_on_c, 11, 65, 0
11, 81362, Note_on_c, 11, 66, 102
11, 81422, Note_on_c, 11, 66, 0
11, 81422, Note_on_c, 11, 65, 102
11, 81462, Note_on_c, 11, 65, 0
11, 81482, Note_on_c, 11, 66, 102
11, 81542, Note_on_c, 11, 66, 0
11, 81542, Note_on_c, 11, 65, 102
11, 81582, Note_on_c, 11, 65, 0
11, 81602, Note_on_c, 11, 66, 102
11, 81662, Note_on_c, 11, 66, 0
11, 81662, Note_on_c, 11, 65, 102
11, 81702, Note_on_c, 11, 65, 0
11, 81722, Note_on_c, 11, 66, 102
11, 81767, Note_on_c, 11, 66, 0
11, 81782, Note_on_c, 11, 66, 102
11, 81827, Note_on_c, 11, 66, 0
11, 81842, Note_on_c, 11, 70, 102
11, 81887, Note_on_c, 11, 70, 0
11, 81902, Note_on_c, 11, 70, 102
11, 81947, Note_on_c, 11, 70, 0
11, 81962, Note_on_c, 11, 73, 102
11, 82007, Note_on_c, 11, 73, 0
11, 82022, Note_on_c, 11, 73, 102
11, 82067, Note_on_c, 11, 73, 0
11, 82082, Control_c, 11, 11, 107
11, 82082, Note_on_c, 11, 78, 102
11, 82099, Control_c, 11, 11, 104
11, 82117, Control_c, 11, 11, 101
11, 82127, Note_on_c, 11, 78, 0
11, 82135, Control_c, 11, 11, 98
11, 82142, Note_on_c, 11, 78, 102
11, 82153, Control_c, 11, 11, 95
11, 82171, Control_c, 11, 11, 92
11, 82187, Note_on_c, 11, 78, 0
11, 82189, Control_c, 11, 11, 89
11, 82202, Note_on_c, 11, 73, 102
11, 82247, Note_on_c, 11, 73, 0
11, 82262, Note_on_c, 11, 73, 102
11, 82307, Note_on_c, 11, 73, 0
11, 82322, Note_on_c, 11, 70, 102
11, 82367, Note_on_c, 11, 70, 0
11, 82382, Note_on_c, 11, 70, 102
11, 82427, Note_on_c, 11, 70, 0
11, 82442, Note_on_c, 11, 66, 102
11, 82487, Note_on_c, 11, 66, 0
11, 82502, Note_on_c, 11, 66, 102
11, 82547, Note_on_c, 11, 66, 0
11, 82562, Note_on_c, 11, 70, 102
11, 82607, Note_on_c, 11, 70, 0
11, 82622, Note_on_c, 11, 70, 102
11, 82667, Note_on_c, 11, 70, 0
11, 82682, Note_on_c, 11, 73, 102
11, 82727, Note_on_c, 11, 73, 0
11, 82742, Note_on_c, 11, 73, 102
11, 82787, Note_on_c, 11, 73, 0
11, 82802, Control_c, 11, 11, 107
11, 82802, Note_on_c, 11, 78, 102
11, 82819, Control_c, 11, 11, 104
11, 82837, Control_c, 11, 11, 101
11, 82847, Note_on_c, 11, 78, 0
11, 82855, Control_c, 11, 11, 98
11, 82862, Note_on_c, 11, 78, 102
11, 82873, Control_c, 11, 11, 95
11, 82891, Control_c, 11, 11, 92
11, 82907, Note_on_c, 11, 78, 0
11, 82909, Control_c, 11, 11, 89
11, 82922, Note_on_c, 11, 73, 102
11, 82967, Note_on_c, 11, 73, 0
11, 82982, Note_on_c, 11, 73, 102
11, 83027, Note_on_c, 11, 73, 0
11, 83042, Note_on_c, 11, 70, 102
11, 83087, Note_on_c, 11, 70, 0
11, 83102, Control_c, 11, 11, 87
11, 83102, Note_on_c, 11, 70, 102
11, 83111, Control_c, 11, 11, 84
11, 83120, Control_c, 11, 11, 81
11, 83129, Control_c, 11, 11, 78
11, 83138, Control_c, 11, 11, 75
11, 83147, Note_on_c, 11, 70, 0
11, 83147, Control_c, 11, 11, 72
11, 83156, Control_c, 11, 11, 69
11, 83162, Note_on_c, 11, 66, 102
11, 83165, Control_c, 11, 11, 66
11, 83174, Control_c, 11, 11, 63
11, 83183, Control_c, 11, 11, 60
11, 83192, Control_c, 11, 11, 57
11, 83201, Control_c, 11, 11, 54
11, 83207, Note_on_c, 11, 66, 0
11, 83210, Control_c, 11, 11, 51
11, 83219, Control_c, 11, 11, 48
11, 83222, Note_on_c, 11, 66, 102
11, 83267, Note_on_c, 11, 66, 0
11, 83282, Note_on_c, 11, 66, 102
11, 83282, Control_c, 11, 11, 47
11, 83327, Note_on_c, 11, 66, 0
11, 83342, Note_on_c, 11, 66, 102
11, 83348, Control_c, 11, 11, 46
11, 83387, Note_on_c, 11, 66, 0
11, 83402, Note_on_c, 11, 66, 102
11, 83414, Control_c, 11, 11, 45
11, 83447, Note_on_c, 11, 66, 0
11, 83462, Note_on_c, 11, 66, 102
11, 83480, Control_c, 11, 11, 44
11, 83507, Note_on_c, 11, 66, 0
11, 83522, Note_on_c, 11, 66, 102
11, 83546, Control_c, 11, 11, 43
11, 83567, Note_on_c, 11, 66, 0
11, 83582, Note_on_c, 11, 66, 102
11, 83612, Control_c, 11, 11, 42
11, 83627, Note_on_c, 11, 66, 0
11, 83642, Note_on_c, 11, 66, 102
11, 83678, Control_c, 11, 11, 41
11, 83687, Note_on_c, 11, 66, 0
11, 83702, Note_on_c, 11, 66, 102
11, 83744, Control_c, 11, 11, 40
11, 83747, Note_on_c, 11, 66, 0
11, 83762, Note_on_c, 11, 66, 102
11, 83807, Note_on_c, 11, 66, 0
11, 83810, Control_c, 11, 11, 39
11, 83822, Note_on_c, 11, 66, 102
11, 83867, Note_on_c, 11, 66, 0
11, 83876, Control_c, 11, 11, 38
11, 83882, Note_on_c, 11, 66, 102
11, 83927, Note_on_c, 11, 66, 0
11, 83942, Control_c, 11, 11, 37
11, 83942, Note_on_c, 11, 66, 102
11, 83987, Note_on_c, 11, 66, 0
11, 84002, Note_on_c, 11, 66, 102
11, 84008, Control_c, 11, 11, 36
11, 84047, Note_on_c, 11, 66, 0
11, 84062, Note_on_c, 11, 66, 102
11, 84074, Control_c, 11, 11, 35
11, 84107, Note_on_c, 11, 66, 0
11, 84122, Note_on_c, 11, 66, 102
11, 84140, Control_c, 11, 11, 34
11, 84167, Note_on_c, 11, 66, 0
11, 84182, Note_on_c, 11, 66, 102
11, 84206, Control_c, 11, 11, 33
11, 84227, Note_on_c, 11, 66, 0
11, 84242, Note_on_c, 11, 66, 102
11, 84272, Control_c, 11, 11, 32
11, 84287, Note_on_c, 11, 66, 0
11, 84302, Note_on_c, 11, 66, 102
11, 84338, Control_c, 11, 11, 31
11, 84347, Note_on_c, 11, 66, 0
11, 84362, Note_on_c, 11, 66, 102
11, 84404, Control_c, 11, 11, 30
11, 84407, Note_on_c, 11, 66, 0
11, 84422, Note_on_c, 11, 66, 102
11, 84467, Note_on_c, 11, 66, 0
11, 84470, Control_c, 11, 11, 29
11, 84482, Note_on_c, 11, 66, 102
11, 84527, Note_on_c, 11, 66, 0
11, 84536, Control_c, 11, 11, 28
11, 84542, Note_on_c, 11, 66, 102
11, 84587, Note_on_c, 11, 66, 0
11, 84602, Control_c, 11, 11, 27
11, 84602, Note_on_c, 11, 66, 102
11, 84681, Control_c, 11, 11, 26
11, 84761, Control_c, 11, 11, 25
11, 84841, Control_c, 11, 11, 24
11, 84921, Control_c, 11, 11, 23
11, 85001, Control_c, 11, 11, 22
11, 85081, Control_c, 11, 11, 21
11, 85161, Control_c, 11, 11, 20
11, 85241, Control_c, 11, 11, 19
11, 85292, Note_on_c, 11, 66, 0
11, 85321, Control_c, 11, 11, 18
11, 85922, Note_on_c, 11, 57, 102
11, 85922, Control_c, 11, 11, 102
11, 86041, Control_c, 11, 11, 87
11, 86042, Note_on_c, 11, 57, 0
11, 86042, Control_c, 11, 11, 84
11, 86042, Note_on_c, 11, 62, 102
11, 86044, Control_c, 11, 11, 79
11, 86046, Control_c, 11, 11, 74
11, 86048, Control_c, 11, 11, 69
11, 86050, Control_c, 11, 11, 64
11, 86052, Control_c, 11, 11, 59
11, 86054, Control_c, 11, 11, 54
11, 86056, Control_c, 11, 11, 49
11, 86162, Note_on_c, 11, 62, 0
11, 88922, Note_on_c, 11, 62, 87
11, 88922, Control_c, 11, 11, 47
11, 88969, Control_c, 11, 11, 48
11, 89017, Control_c, 11, 11, 49
11, 89065, Control_c, 11, 11, 50
11, 89113, Control_c, 11, 11, 51
11, 89161, Control_c, 11, 11, 52
11, 89209, Control_c, 11, 11, 53
11, 89257, Control_c, 11, 11, 54
11, 89305, Control_c, 11, 11, 55
11, 89353, Control_c, 11, 11, 56
11, 89401, Control_c, 11, 11, 57
11, 89402, Note_on_c, 11, 62, 0
11, 89402, Note_on_c, 11, 61, 87
11, 89449, Control_c, 11, 11, 58
11, 89497, Control_c, 11, 11, 59
11, 89522, Note_on_c, 11, 61, 0
11, 89522, Note_on_c, 11, 59, 87
11, 89545, Control_c, 11, 11, 60
11, 89593, Control_c, 11, 11, 61
11, 89641, Control_c, 11, 11, 62
11, 89642, Note_on_c, 11, 59, 0
11, 89642, Note_on_c, 11, 57, 87
11, 89762, Note_on_c, 11, 57, 0
11, 89762, Note_on_c, 11, 59, 87
11, 89882, Note_on_c, 11, 59, 0
11, 89882, Note_on_c, 11, 62, 87
11, 89942, Note_on_c, 11, 62, 0
11, 90002, Note_on_c, 11, 61, 87
11, 90122, Note_on_c, 11, 61, 0
11, 90242, Note_on_c, 11, 63, 87
11, 90362, Note_on_c, 11, 63, 0
11, 90362, Note_on_c, 11, 64, 87
11, 90362, Control_c, 11, 11, 62
11, 90386, Control_c, 11, 11, 63
11, 90410, Control_c, 11, 11, 64
11, 90434, Control_c, 11, 11, 65
11, 90458, Control_c, 11, 11, 66
11, 90482, Control_c, 11, 11, 67
11, 90506, Control_c, 11, 11, 68
11, 90530, Control_c, 11, 11, 69
11, 90554, Control_c, 11, 11, 70
11, 90578, Control_c, 11, 11, 71
11, 90602, Control_c, 11, 11, 72
11, 90626, Control_c, 11, 11, 73
11, 90650, Control_c, 11, 11, 74
11, 90674, Control_c, 11, 11, 75
11, 90698, Control_c, 11, 11, 76
11, 90722, Control_c, 11, 11, 79
11, 90736, Control_c, 11, 11, 82
11, 90750, Control_c, 11, 11, 85
11, 90765, Control_c, 11, 11, 88
11, 90782, Control_c, 11, 11, 87
11, 90800, Control_c, 11, 11, 84
11, 90818, Control_c, 11, 11, 81
11, 90836, Control_c, 11, 11, 78
11, 90842, Note_on_c, 11, 64, 0
11, 90842, Note_on_c, 11, 62, 87
11, 90854, Control_c, 11, 11, 76
11, 90878, Control_c, 11, 11, 74
11, 90902, Control_c, 11, 11, 72
11, 90926, Control_c, 11, 11, 70
11, 90950, Control_c, 11, 11, 68
11, 90962, Note_on_c, 11, 62, 0
11, 90962, Note_on_c, 11, 61, 87
11, 90974, Control_c, 11, 11, 66
11, 90998, Control_c, 11, 11, 64
11, 91022, Control_c, 11, 11, 62
11, 91046, Control_c, 11, 11, 60
11, 91070, Control_c, 11, 11, 58
11, 91082, Note_on_c, 11, 61, 0
11, 91082, Note_on_c, 11, 62, 87
11, 91202, Note_on_c, 11, 62, 0
11, 91202, Note_on_c, 11, 64, 87
11, 91322, Note_on_c, 11, 64, 0
11, 91322, Note_on_c, 11, 61, 87
11, 91382, Note_on_c, 11, 61, 0
11, 91442, Note_on_c, 11, 62, 87
11, 91562, Note_on_c, 11, 62, 0
11, 91682, Note_on_c, 11, 61, 87
11, 91742, Note_on_c, 11, 61, 0
11, 91802, Note_on_c, 11, 62, 87
11, 91922, Note_on_c, 11, 62, 0
11, 91922, Note_on_c, 11, 64, 87
11, 92042, Note_on_c, 11, 64, 0
11, 92042, Note_on_c, 11, 61, 87
11, 92102, Note_on_c, 11, 61, 0
11, 92162, Control_c, 11, 11, 57
11, 92162, Note_on_c, 11, 62, 87
11, 92234, Control_c, 11, 11, 58
11, 92282, Note_on_c, 11, 62, 0
11, 92306, Control_c, 11, 11, 59
11, 92378, Control_c, 11, 11, 60
11, 92402, Note_on_c, 11, 61, 87
11, 92450, Control_c, 11, 11, 61
11, 92462, Note_on_c, 11, 61, 0
11, 92522, Control_c, 11, 11, 62
11, 92522, Note_on_c, 11, 62, 87
11, 92582, Note_on_c, 11, 62, 0
11, 92594, Control_c, 11, 11, 63
11, 92666, Control_c, 11, 11, 64
11, 92738, Control_c, 11, 11, 65
11, 92762, Note_on_c, 11, 61, 87
11, 92810, Control_c, 11, 11, 66
11, 92822, Note_on_c, 11, 61, 0
11, 92882, Note_on_c, 11, 62, 87
11, 92882, Control_c, 11, 11, 67
11, 92942, Note_on_c, 11, 62, 0
11, 93122, Control_c, 11, 11, 37
11, 93122, Note_on_c, 11, 64, 87
11, 93146, Control_c, 11, 11, 39
11, 93170, Control_c, 11, 11, 41
11, 93182, Note_on_c, 11, 64, 0
11, 93194, Control_c, 11, 11, 43
11, 93218, Control_c, 11, 11, 45
11, 93242, Note_on_c, 11, 66, 87
11, 93362, Note_on_c, 11, 66, 0
11, 93362, Note_on_c, 11, 67, 87
11, 93482, Note_on_c, 11, 67, 0
11, 93482, Note_on_c, 11, 64, 87
11, 93542, Note_on_c, 11, 64, 0
11, 93602, Note_on_c, 11, 66, 87
11, 93722, Note_on_c, 11, 66, 0
11, 93962, Control_c, 11, 11, 87
11, 93962, Note_on_c, 11, 62, 102
11, 93985, Control_c, 11, 11, 86
11, 94008, Control_c, 11, 11, 85
11, 94031, Control_c, 11, 11, 84
11, 94054, Control_c, 11, 11, 83
11, 94077, Control_c, 11, 11, 82
11, 94100, Control_c, 11, 11, 81
11, 94123, Control_c, 11, 11, 80
11, 94146, Control_c, 11, 11, 79
11, 94169, Control_c, 11, 11, 78
11, 94192, Control_c, 11, 11, 77
11, 94215, Control_c, 11, 11, 76
11, 94238, Control_c, 11, 11, 75
11, 94261, Control_c, 11, 11, 74
11, 94284, Control_c, 11, 11, 73
11, 94307, Note_on_c, 11, 62, 0
11, 94307, Control_c, 11, 11, 72
11, 94682, Note_on_c, 11, 62, 102
11, 94682, Note_on_c, 11, 59, 102
11, 94682, Control_c, 11, 11, 87
11, 94705, Control_c, 11, 11, 86
11, 94728, Control_c, 11, 11, 85
11, 94751, Control_c, 11, 11, 84
11, 94774, Control_c, 11, 11, 83
11, 94797, Control_c, 11, 11, 82
11, 94820, Control_c, 11, 11, 81
11, 94843, Control_c, 11, 11, 80
11, 94866, Control_c, 11, 11, 79
11, 94889, Control_c, 11, 11, 78
11, 94912, Control_c, 11, 11, 77
11, 94935, Control_c, 11, 11, 76
11, 94958, Control_c, 11, 11, 75
11, 94981, Control_c, 11, 11, 74
11, 95004, Control_c, 11, 11, 73
11, 95027, Note_on_c, 11, 59, 0
11, 95027, Note_on_c, 11, 62, 0
11, 95027, Control_c, 11, 11, 72
11, 95762, Control_c, 11, 11, 47
11, 95762, Note_on_c, 11, 69, 102
11, 95813, Note_on_c, 11, 69, 0
11, 95882, Note_on_c, 11, 74, 102
11, 95933, Note_on_c, 11, 74, 0
11, 96002, Note_on_c, 11, 76, 102
11, 96053, Note_on_c, 11, 76, 0
11, 96482, Note_on_c, 11, 69, 102
11, 96482, Control_c, 11, 11, 102
11, 96482, Note_on_c, 11, 78, 102
11, 96542, Note_on_c, 11, 78, 0
11, 96542, Note_on_c, 11, 69, 0
11, 96602, Note_on_c, 11, 79, 102
11, 96602, Note_on_c, 11, 69, 102
11, 96662, Note_on_c, 11, 69, 0
11, 96662, Note_on_c, 11, 79, 0
11, 96722, Note_on_c, 11, 69, 102
11, 96722, Note_on_c, 11, 78, 102
11, 96782, Note_on_c, 11, 78, 0
11, 96782, Note_on_c, 11, 69, 0
11, 96842, Note_on_c, 11, 62, 102
11, 96842, Control_c, 11, 11, 87
11, 96865, Control_c, 11, 11, 86
11, 96888, Control_c, 11, 11, 85
11, 96911, Control_c, 11, 11, 84
11, 96934, Control_c, 11, 11, 83
11, 96957, Control_c, 11, 11, 82
11, 96980, Control_c, 11, 11, 81
11, 97003, Control_c, 11, 11, 80
11, 97026, Control_c, 11, 11, 79
11, 97049, Control_c, 11, 11, 78
11, 97072, Control_c, 11, 11, 77
11, 97095, Control_c, 11, 11, 76
11, 97118, Control_c, 11, 11, 75
11, 97141, Control_c, 11, 11, 74
11, 97164, Control_c, 11, 11, 73
11, 97187, Note_on_c, 11, 62, 0
11, 97187, Control_c, 11, 11, 72
11, 97562, Note_on_c, 11, 62, 102
11, 97562, Control_c, 11, 11, 87
11, 97585, Control_c, 11, 11, 86
11, 97608, Control_c, 11, 11, 85
11, 97631, Control_c, 11, 11, 84
11, 97654, Control_c, 11, 11, 83
11, 97677, Control_c, 11, 11, 82
11, 97700, Control_c, 11, 11, 81
11, 97723, Control_c, 11, 11, 80
11, 97746, Control_c, 11, 11, 79
11, 97769, Control_c, 11, 11, 78
11, 97792, Control_c, 11, 11, 77
11, 97815, Control_c, 11, 11, 76
11, 97838, Control_c, 11, 11, 75
11, 97861, Control_c, 11, 11, 74
11, 97884, Control_c, 11, 11, 73
11, 97907, Note_on_c, 11, 62, 0
11, 97907, Control_c, 11, 11, 72
11, 98282, Control_c, 11, 11, 47
11, 98282, Note_on_c, 11, 61, 102
11, 98333, Note_on_c, 11, 61, 0
11, 98402, Note_on_c, 11, 62, 102
11, 98453, Note_on_c, 11, 62, 0
11, 98522, Note_on_c, 11, 64, 102
11, 98573, Note_on_c, 11, 64, 0
11, 98642, Note_on_c, 11, 76, 102
11, 98693, Note_on_c, 11, 76, 0
11, 98762, Note_on_c, 11, 81, 102
11, 98813, Note_on_c, 11, 81, 0
11, 98882, Note_on_c, 11, 83, 102
11, 98933, Note_on_c, 11, 83, 0
11, 99362, Control_c, 11, 11, 102
11, 99362, Note_on_c, 11, 64, 102
11, 99362, Note_on_c, 11, 73, 102
11, 99422, Note_on_c, 11, 73, 0
11, 99422, Note_on_c, 11, 64, 0
11, 99482, Note_on_c, 11, 64, 102
11, 99482, Note_on_c, 11, 74, 102
11, 99542, Note_on_c, 11, 74, 0
11, 99542, Note_on_c, 11, 64, 0
11, 99602, Note_on_c, 11, 73, 102
11, 99602, Note_on_c, 11, 64, 102
11, 99662, Note_on_c, 11, 64, 0
11, 99662, Note_on_c, 11, 73, 0
11, 99722, Note_on_c, 11, 62, 102
11, 99722, Control_c, 11, 11, 87
11, 99745, Control_c, 11, 11, 86
11, 99768, Control_c, 11, 11, 85
11, 99791, Control_c, 11, 11, 84
11, 99814, Control_c, 11, 11, 83
11, 99837, Control_c, 11, 11, 82
11, 99860, Control_c, 11, 11, 81
11, 99883, Control_c, 11, 11, 80
11, 99906, Control_c, 11, 11, 79
11, 99929, Control_c, 11, 11, 78
11, 99952, Control_c, 11, 11, 77
11, 99975, Control_c, 11, 11, 76
11, 99998, Control_c, 11, 11, 75
11, 100021, Control_c, 11, 11, 74
11, 100044, Control_c, 11, 11, 73
11, 100067, Note_on_c, 11, 62, 0
11, 100067, Control_c, 11, 11, 72
11, 100442, Note_on_c, 11, 59, 102
11, 100442, Note_on_c, 11, 62, 102
11, 100442, Control_c, 11, 11, 87
11, 100465, Control_c, 11, 11, 86
11, 100488, Control_c, 11, 11, 85
11, 100511, Control_c, 11, 11, 84
11, 100534, Control_c, 11, 11, 83
11, 100557, Control_c, 11, 11, 82
11, 100580, Control_c, 11, 11, 81
11, 100603, Control_c, 11, 11, 80
11, 100626, Control_c, 11, 11, 79
11, 100649, Control_c, 11, 11, 78
11, 100672, Control_c, 11, 11, 77
11, 100695, Control_c, 11, 11, 76
11, 100718, Control_c, 11, 11, 75
11, 100741, Control_c, 11, 11, 74
11, 100764, Control_c, 11, 11, 73
11, 100787, Note_on_c, 11, 62, 0
11, 100787, Note_on_c, 11, 59, 0
11, 100787, Control_c, 11, 11, 72
11, 101522, Control_c, 11, 11, 47
11, 101522, Note_on_c, 11, 69, 102
11, 101573, Note_on_c, 11, 69, 0
11, 101642, Note_on_c, 11, 74, 102
11, 101693, Note_on_c, 11, 74, 0
11, 101762, Note_on_c, 11, 76, 102
11, 101813, Note_on_c, 11, 76, 0
11, 102242, Control_c, 11, 11, 102
11, 102242, Note_on_c, 11, 78, 102
11, 102242, Note_on_c, 11, 69, 102
11, 102302, Note_on_c, 11, 69, 0
11, 102302, Note_on_c, 11, 78, 0
11, 102362, Note_on_c, 11, 79, 102
11, 102362, Note_on_c, 11, 69, 102
11, 102422, Note_on_c, 11, 69, 0
11, 102422, Note_on_c, 11, 79, 0
11, 102482, Note_on_c, 11, 78, 102
11, 102482, Note_on_c, 11, 69, 102
11, 102542, Note_on_c, 11, 69, 0
11, 102542, Note_on_c, 11, 78, 0
11, 102602, Control_c, 11, 11, 87
11, 102602, Note_on_c, 11, 62, 102
11, 102625, Control_c, 11, 11, 86
11, 102648, Control_c, 11, 11, 85
11, 102671, Control_c, 11, 11, 84
11, 102694, Control_c, 11, 11, 83
11, 102717, Control_c, 11, 11, 82
11, 102740, Control_c, 11, 11, 81
11, 102763, Control_c, 11, 11, 80
11, 102786, Control_c, 11, 11, 79
11, 102809, Control_c, 11, 11, 78
11, 102832, Control_c, 11, 11, 77
11, 102855, Control_c, 11, 11, 76
11, 102878, Control_c, 11, 11, 75
11, 102901, Control_c, 11, 11, 74
11, 102924, Control_c, 11, 11, 73
11, 102947, Note_on_c, 11, 62, 0
11, 102947, Control_c, 11, 11, 72
11, 103322, Note_on_c, 11, 62, 102
11, 103322, Control_c, 11, 11, 87
11, 103345, Control_c, 11, 11, 86
11, 103368, Control_c, 11, 11, 85
11, 103391, Control_c, 11, 11, 84
11, 103414, Control_c, 11, 11, 83
11, 103437, Control_c, 11, 11, 82
11, 103460, Control_c, 11, 11, 81
11, 103483, Control_c, 11, 11, 80
11, 103506, Control_c, 11, 11, 79
11, 103529, Control_c, 11, 11, 78
11, 103552, Control_c, 11, 11, 77
11, 103575, Control_c, 11, 11, 76
11, 103598, Control_c, 11, 11, 75
11, 103621, Control_c, 11, 11, 74
11, 103644, Control_c, 11, 11, 73
11, 103667, Note_on_c, 11, 62, 0
11, 103667, Control_c, 11, 11, 72
11, 104042, Note_on_c, 11, 61, 102
11, 104042, Control_c, 11, 11, 47
11, 104093, Note_on_c, 11, 61, 0
11, 104162, Note_on_c, 11, 62, 102
11, 104213, Note_on_c, 11, 62, 0
11, 104282, Note_on_c, 11, 64, 102
11, 104333, Note_on_c, 11, 64, 0
11, 104402, Note_on_c, 11, 76, 102
11, 104453, Note_on_c, 11, 76, 0
11, 104522, Note_on_c, 11, 81, 102
11, 104573, Note_on_c, 11, 81, 0
11, 104642, Note_on_c, 11, 83, 102
11, 104693, Note_on_c, 11, 83, 0
11, 105122, Control_c, 11, 11, 102
11, 105122, Note_on_c, 11, 64, 102
11, 105122, Note_on_c, 11, 73, 102
11, 105182, Note_on_c, 11, 73, 0
11, 105182, Note_on_c, 11, 64, 0
11, 105242, Note_on_c, 11, 74, 102
11, 105242, Note_on_c, 11, 64, 102
11, 105302, Note_on_c, 11, 64, 0
11, 105302, Note_on_c, 11, 74, 0
11, 105362, Note_on_c, 11, 73, 102
11, 105362, Note_on_c, 11, 64, 102
11, 105422, Note_on_c, 11, 64, 0
11, 105422, Note_on_c, 11, 73, 0
11, 105482, Control_c, 11, 11, 47
11, 105482, Note_on_c, 11, 61, 102
11, 105542, Note_on_c, 11, 61, 0
11, 105602, Note_on_c, 11, 62, 102
11, 105662, Note_on_c, 11, 62, 0
11, 105722, Note_on_c, 11, 64, 102
11, 105782, Note_on_c, 11, 64, 0
11, 105842, Note_on_c, 11, 65, 102
11, 105962, Note_on_c, 11, 65, 0
11, 106202, Note_on_c, 11, 57, 102
11, 106262, Note_on_c, 11, 57, 0
11, 106322, Note_on_c, 11, 58, 102
11, 106382, Note_on_c, 11, 58, 0
11, 106442, Note_on_c, 11, 60, 102
11, 106502, Note_on_c, 11, 60, 0
11, 106562, Note_on_c, 11, 62, 102
11, 106682, Note_on_c, 11, 62, 0
11, 106922, Note_on_c, 11, 62, 102
11, 106922, Note_on_c, 11, 58, 102
11, 106982, Note_on_c, 11, 58, 0
11, 106982, Note_on_c, 11, 62, 0
11, 107042, Note_on_c, 11, 58, 102
11, 107042, Note_on_c, 11, 62, 102
11, 107042, Control_c, 11, 11, 72
11, 107050, Control_c, 11, 11, 75
11, 107059, Control_c, 11, 11, 78
11, 107068, Control_c, 11, 11, 81
11, 107083, Control_c, 11, 11, 80
11, 107101, Control_c, 11, 11, 77
11, 107119, Control_c, 11, 11, 74
11, 107137, Control_c, 11, 11, 71
11, 107155, Control_c, 11, 11, 68
11, 107173, Control_c, 11, 11, 65
11, 107191, Control_c, 11, 11, 62
11, 107209, Control_c, 11, 11, 59
11, 107227, Control_c, 11, 11, 56
11, 107245, Control_c, 11, 11, 53
11, 107263, Control_c, 11, 11, 50
11, 107281, Control_c, 11, 11, 47
11, 107622, Note_on_c, 11, 62, 0
11, 107622, Note_on_c, 11, 58, 0
11, 107642, Note_on_c, 11, 60, 102
11, 107642, Note_on_c, 11, 63, 102
11, 107742, Note_on_c, 11, 63, 0
11, 107742, Note_on_c, 11, 60, 0
11, 107762, Note_on_c, 11, 60, 102
11, 107762, Note_on_c, 11, 63, 102
11, 107862, Note_on_c, 11, 63, 0
11, 107862, Note_on_c, 11, 60, 0
11, 107882, Note_on_c, 11, 60, 102
11, 107882, Note_on_c, 11, 63, 102
11, 107982, Note_on_c, 11, 63, 0
11, 107982, Note_on_c, 11, 60, 0
11, 108002, Note_on_c, 11, 60, 102
11, 108002, Note_on_c, 11, 63, 102
11, 108102, Note_on_c, 11, 63, 0
11, 108102, Note_on_c, 11, 60, 0
11, 108122, Note_on_c, 11, 60, 102
11, 108122, Note_on_c, 11, 63, 102
11, 108222, Note_on_c, 11, 63, 0
11, 108222, Note_on_c, 11, 60, 0
11, 108242, Note_on_c, 11, 63, 102
11, 108242, Note_on_c, 11, 60, 102
11, 108342, Note_on_c, 11, 60, 0
11, 108342, Note_on_c, 11, 63, 0
11, 108362, Note_on_c, 11, 58, 102
11, 108362, Note_on_c, 11, 62, 102
11, 108422, Note_on_c, 11, 62, 0
11, 108422, Note_on_c, 11, 58, 0
11, 108482, Note_on_c, 11, 58, 102
11, 108482, Note_on_c, 11, 62, 102
11, 108482, Control_c, 11, 11, 72
11, 108490, Control_c, 11, 11, 75
11, 108499, Control_c, 11, 11, 78
11, 108508, Control_c, 11, 11, 81
11, 108523, Control_c, 11, 11, 80
11, 108541, Control_c, 11, 11, 77
11, 108559, Control_c, 11, 11, 74
11, 108577, Control_c, 11, 11, 71
11, 108595, Control_c, 11, 11, 68
11, 108613, Control_c, 11, 11, 65
11, 108631, Control_c, 11, 11, 62
11, 108649, Control_c, 11, 11, 59
11, 108667, Control_c, 11, 11, 56
11, 108685, Control_c, 11, 11, 53
11, 108703, Control_c, 11, 11, 50
11, 108721, Control_c, 11, 11, 47
11, 109062, Note_on_c, 11, 62, 0
11, 109062, Note_on_c, 11, 58, 0
11, 109082, Note_on_c, 11, 63, 102
11, 109082, Note_on_c, 11, 60, 102
11, 109182, Note_on_c, 11, 60, 0
11, 109182, Note_on_c, 11, 63, 0
11, 109202, Note_on_c, 11, 60, 102
11, 109202, Note_on_c, 11, 63, 102
11, 109302, Note_on_c, 11, 63, 0
11, 109302, Note_on_c, 11, 60, 0
11, 109322, Note_on_c, 11, 60, 102
11, 109322, Note_on_c, 11, 63, 102
11, 109422, Note_on_c, 11, 63, 0
11, 109422, Note_on_c, 11, 60, 0
11, 109442, Note_on_c, 11, 60, 102
11, 109442, Note_on_c, 11, 63, 102
11, 109542, Note_on_c, 11, 63, 0
11, 109542, Note_on_c, 11, 60, 0
11, 109562, Note_on_c, 11, 63, 102
11, 109562, Note_on_c, 11, 60, 102
11, 109662, Note_on_c, 11, 60, 0
11, 109662, Note_on_c, 11, 63, 0
11, 109682, Note_on_c, 11, 60, 102
11, 109682, Note_on_c, 11, 63, 102
11, 109782, Note_on_c, 11, 63, 0
11, 109782, Note_on_c, 11, 60, 0
11, 109802, Note_on_c, 11, 58, 102
11, 109802, Note_on_c, 11, 62, 102
11, 109862, Note_on_c, 11, 62, 0
11, 109862, Note_on_c, 11, 58, 0
11, 109922, Note_on_c, 11, 62, 102
11, 110042, Note_on_c, 11, 62, 0
11, 110042, Note_on_c, 11, 65, 102
11, 110162, Note_on_c, 11, 65, 0
11, 110282, Note_on_c, 11, 62, 102
11, 110402, Note_on_c, 11, 62, 0
11, 110402, Note_on_c, 11, 65, 102
11, 110522, Note_on_c, 11, 65, 0
11, 110642, Note_on_c, 11, 62, 102
11, 110762, Note_on_c, 11, 62, 0
11, 110762, Note_on_c, 11, 65, 102
11, 110882, Note_on_c, 11, 65, 0
11, 110882, Control_c, 11, 11, 47
11, 110882, Note_on_c, 11, 65, 102
11, 110918, Control_c, 11, 11, 46
11, 110942, Note_on_c, 11, 65, 0
11, 110954, Control_c, 11, 11, 45
11, 110990, Control_c, 11, 11, 44
11, 111002, Note_on_c, 11, 65, 102
11, 111026, Control_c, 11, 11, 43
11, 111062, Note_on_c, 11, 65, 0
11, 111062, Control_c, 11, 11, 42
11, 111098, Control_c, 11, 11, 41
11, 111122, Note_on_c, 11, 65, 102
11, 111134, Control_c, 11, 11, 40
11, 111170, Control_c, 11, 11, 39
11, 111182, Note_on_c, 11, 65, 0
11, 111206, Control_c, 11, 11, 38
11, 111242, Note_on_c, 11, 64, 102
11, 111242, Control_c, 11, 11, 37
11, 111362, Note_on_c, 11, 64, 0
11, 112202, Note_on_c, 11, 61, 102
11, 112322, Note_on_c, 11, 61, 0
11, 112322, Note_on_c, 11, 62, 102
11, 112442, Note_on_c, 11, 62, 0
11, 112442, Control_c, 11, 11, 27
11, 112442, Note_on_c, 11, 65, 102
11, 112458, Control_c, 11, 11, 28
11, 112474, Control_c, 11, 11, 29
11, 112490, Control_c, 11, 11, 30
11, 112506, Control_c, 11, 11, 31
11, 112522, Control_c, 11, 11, 32
11, 112538, Control_c, 11, 11, 33
11, 112554, Control_c, 11, 11, 34
11, 112562, Note_on_c, 11, 65, 0
11, 112562, Note_on_c, 11, 68, 102
11, 112570, Control_c, 11, 11, 35
11, 112586, Control_c, 11, 11, 36
11, 112602, Control_c, 11, 11, 37
11, 112618, Control_c, 11, 11, 38
11, 112634, Control_c, 11, 11, 39
11, 112650, Control_c, 11, 11, 40
11, 112662, Note_on_c, 11, 68, 0
11, 112666, Control_c, 11, 11, 41
11, 112682, Note_on_c, 11, 69, 102
11, 112682, Control_c, 11, 11, 42
11, 112698, Control_c, 11, 11, 43
11, 112714, Control_c, 11, 11, 44
11, 112730, Control_c, 11, 11, 45
11, 112742, Note_on_c, 11, 69, 0
11, 112746, Control_c, 11, 11, 46
11, 112762, Control_c, 11, 11, 47
11, 112778, Control_c, 11, 11, 48
11, 112794, Control_c, 11, 11, 49
11, 112802, Note_on_c, 11, 57, 102
11, 112810, Control_c, 11, 11, 50
11, 112826, Control_c, 11, 11, 51
11, 112842, Control_c, 11, 11, 52
11, 112858, Control_c, 11, 11, 53
11, 112874, Control_c, 11, 11, 54
11, 112890, Control_c, 11, 11, 55
11, 112906, Control_c, 11, 11, 56
11, 112922, Note_on_c, 11, 57, 0
11, 112922, Control_c, 11, 11, 57
11, 112922, Note_on_c, 11, 58, 102
11, 112938, Control_c, 11, 11, 58
11, 112954, Control_c, 11, 11, 59
11, 112970, Control_c, 11, 11, 60
11, 112986, Control_c, 11, 11, 61
11, 113002, Control_c, 11, 11, 62
11, 113018, Control_c, 11, 11, 63
11, 113034, Control_c, 11, 11, 64
11, 113042, Note_on_c, 11, 58, 0
11, 113042, Note_on_c, 11, 59, 102
11, 113050, Control_c, 11, 11, 65
11, 113066, Control_c, 11, 11, 66
11, 113082, Control_c, 11, 11, 67
11, 113098, Control_c, 11, 11, 68
11, 113114, Control_c, 11, 11, 69
11, 113130, Control_c, 11, 11, 70
11, 113146, Control_c, 11, 11, 71
11, 113162, Note_on_c, 11, 59, 0
11, 113162, Control_c, 11, 11, 72
11, 113162, Note_on_c, 11, 60, 102
11, 113178, Control_c, 11, 11, 73
11, 113194, Control_c, 11, 11, 74
11, 113210, Control_c, 11, 11, 75
11, 113226, Control_c, 11, 11, 76
11, 113242, Control_c, 11, 11, 77
11, 113258, Control_c, 11, 11, 78
11, 113274, Control_c, 11, 11, 79
11, 113282, Note_on_c, 11, 60, 0
11, 113282, Note_on_c, 11, 61, 102
11, 113290, Control_c, 11, 11, 80
11, 113306, Control_c, 11, 11, 81
11, 113322, Control_c, 11, 11, 82
11, 113338, Control_c, 11, 11, 83
11, 113354, Control_c, 11, 11, 84
11, 113370, Control_c, 11, 11, 85
11, 113382, Note_on_c, 11, 61, 0
11, 113386, Control_c, 11, 11, 86
11, 113402, Control_c, 11, 11, 87
11, 113402, Note_on_c, 11, 62, 102
11, 113425, Control_c, 11, 11, 86
11, 113448, Control_c, 11, 11, 85
11, 113471, Control_c, 11, 11, 84
11, 113494, Control_c, 11, 11, 83
11, 113517, Control_c, 11, 11, 82
11, 113540, Control_c, 11, 11, 81
11, 113563, Control_c, 11, 11, 80
11, 113586, Control_c, 11, 11, 79
11, 113609, Control_c, 11, 11, 78
11, 113632, Control_c, 11, 11, 77
11, 113655, Control_c, 11, 11, 76
11, 113678, Control_c, 11, 11, 75
11, 113701, Control_c, 11, 11, 74
11, 113724, Control_c, 11, 11, 73
11, 113742, Note_on_c, 11, 62, 0
11, 113747, Control_c, 11, 11, 72
11, 114122, Control_c, 11, 11, 87
11, 114122, Note_on_c, 11, 59, 102
11, 114122, Note_on_c, 11, 62, 102
11, 114145, Control_c, 11, 11, 86
11, 114168, Control_c, 11, 11, 85
11, 114191, Control_c, 11, 11, 84
11, 114214, Control_c, 11, 11, 83
11, 114237, Control_c, 11, 11, 82
11, 114260, Control_c, 11, 11, 81
11, 114283, Control_c, 11, 11, 80
11, 114306, Control_c, 11, 11, 79
11, 114329, Control_c, 11, 11, 78
11, 114352, Control_c, 11, 11, 77
11, 114375, Control_c, 11, 11, 76
11, 114398, Control_c, 11, 11, 75
11, 114421, Control_c, 11, 11, 74
11, 114444, Control_c, 11, 11, 73
11, 114462, Note_on_c, 11, 62, 0
11, 114462, Note_on_c, 11, 59, 0
11, 114467, Control_c, 11, 11, 72
11, 115202, Control_c, 11, 11, 47
11, 115202, Note_on_c, 11, 69, 102
11, 115253, Note_on_c, 11, 69, 0
11, 115322, Note_on_c, 11, 74, 102
11, 115373, Note_on_c, 11, 74, 0
11, 115442, Note_on_c, 11, 76, 102
11, 115493, Note_on_c, 11, 76, 0
11, 115922, Note_on_c, 11, 69, 102
11, 115922, Note_on_c, 11, 78, 102
11, 115922, Control_c, 11, 11, 102
11, 115982, Note_on_c, 11, 78, 0
11, 115982, Note_on_c, 11, 69, 0
11, 116042, Note_on_c, 11, 69, 102
11, 116042, Note_on_c, 11, 79, 102
11, 116102, Note_on_c, 11, 79, 0
11, 116102, Note_on_c, 11, 69, 0
11, 116162, Note_on_c, 11, 78, 102
11, 116162, Note_on_c, 11, 69, 102
11, 116222, Note_on_c, 11, 69, 0
11, 116222, Note_on_c, 11, 78, 0
11, 116282, Control_c, 11, 11, 87
11, 116282, Note_on_c, 11, 62, 102
11, 116305, Control_c, 11, 11, 86
11, 116328, Control_c, 11, 11, 85
11, 116351, Control_c, 11, 11, 84
11, 116374, Control_c, 11, 11, 83
11, 116397, Control_c, 11, 11, 82
11, 116420, Control_c, 11, 11, 81
11, 116443, Control_c, 11, 11, 80
11, 116466, Control_c, 11, 11, 79
11, 116489, Control_c, 11, 11, 78
11, 116512, Control_c, 11, 11, 77
11, 116535, Control_c, 11, 11, 76
11, 116558, Control_c, 11, 11, 75
11, 116581, Control_c, 11, 11, 74
11, 116604, Control_c, 11, 11, 73
11, 116622, Note_on_c, 11, 62, 0
11, 116627, Control_c, 11, 11, 72
11, 117002, Control_c, 11, 11, 87
11, 117002, Note_on_c, 11, 62, 102
11, 117002, Note_on_c, 11, 59, 102
11, 117025, Control_c, 11, 11, 86
11, 117048, Control_c, 11, 11, 85
11, 117071, Control_c, 11, 11, 84
11, 117094, Control_c, 11, 11, 83
11, 117117, Control_c, 11, 11, 82
11, 117140, Control_c, 11, 11, 81
11, 117163, Control_c, 11, 11, 80
11, 117186, Control_c, 11, 11, 79
11, 117209, Control_c, 11, 11, 78
11, 117232, Control_c, 11, 11, 77
11, 117255, Control_c, 11, 11, 76
11, 117278, Control_c, 11, 11, 75
11, 117301, Control_c, 11, 11, 74
11, 117324, Control_c, 11, 11, 73
11, 117342, Note_on_c, 11, 59, 0
11, 117342, Note_on_c, 11, 62, 0
11, 117347, Control_c, 11, 11, 72
11, 118082, Control_c, 11, 11, 47
11, 118082, Note_on_c, 11, 64, 102
11, 118133, Note_on_c, 11, 64, 0
11, 118202, Note_on_c, 11, 66, 102
11, 118253, Note_on_c, 11, 66, 0
11, 118322, Note_on_c, 11, 67, 102
11, 118373, Note_on_c, 11, 67, 0
11, 118802, Note_on_c, 11, 64, 102
11, 118853, Note_on_c, 11, 64, 0
11, 118922, Note_on_c, 11, 66, 102
11, 118973, Note_on_c, 11, 66, 0
11, 119042, Note_on_c, 11, 67, 102
11, 119093, Note_on_c, 11, 67, 0
11, 119162, Control_c, 11, 11, 47
11, 119258, Control_c, 11, 11, 46
11, 119354, Control_c, 11, 11, 45
11, 119450, Control_c, 11, 11, 44
11, 119522, Note_on_c, 11, 64, 102
11, 119546, Control_c, 11, 11, 43
11, 119573, Note_on_c, 11, 64, 0
11, 119642, Note_on_c, 11, 65, 102
11, 119642, Control_c, 11, 11, 42
11, 119693, Note_on_c, 11, 65, 0
11, 119738, Control_c, 11, 11, 41
11, 119762, Note_on_c, 11, 67, 102
11, 119813, Note_on_c, 11, 67, 0
11, 119834, Control_c, 11, 11, 40
11, 119882, Note_on_c, 11, 64, 102
11, 119930, Control_c, 11, 11, 39
11, 119933, Note_on_c, 11, 64, 0
11, 120002, Note_on_c, 11, 65, 102
11, 120026, Control_c, 11, 11, 38
11, 120053, Note_on_c, 11, 65, 0
11, 120122, Note_on_c, 11, 67, 102
11, 120122, Control_c, 11, 11, 37
11, 120173, Note_on_c, 11, 67, 0
11, 120218, Control_c, 11, 11, 36
11, 120242, Note_on_c, 11, 64, 102
11, 120293, Note_on_c, 11, 64, 0
11, 120314, Control_c, 11, 11, 35
11, 120362, Note_on_c, 11, 65, 102
11, 120410, Control_c, 11, 11, 34
11, 120413, Note_on_c, 11, 65, 0
11, 120482, Note_on_c, 11, 67, 102
11, 120506, Control_c, 11, 11, 33
11, 120533, Note_on_c, 11, 67, 0
11, 120602, Control_c, 11, 11, 32
11, 120602, Note_on_c, 11, 64, 102
11, 120653, Note_on_c, 11, 64, 0
11, 120722, Note_on_c, 11, 65, 102
11, 120773, Note_on_c, 11, 65, 0
11, 120842, Note_on_c, 11, 67, 102
11, 120893, Note_on_c, 11, 67, 0
11, 120962, Note_on_c, 11, 65, 102
11, 121082, Note_on_c, 11, 65, 0
11, 121322, Note_on_c, 11, 61, 102
11, 121373, Note_on_c, 11, 61, 0
11, 121442, Note_on_c, 11, 62, 102
11, 121493, Note_on_c, 11, 62, 0
11, 121562, Note_on_c, 11, 64, 102
11, 121613, Note_on_c, 11, 64, 0
11, 121682, Note_on_c, 11, 62, 102
11, 121802, Note_on_c, 11, 62, 0
11, 122042, Control_c, 11, 11, 32
11, 122042, Note_on_c, 11, 62, 102
11, 122068, Control_c, 11, 11, 34
11, 122094, Control_c, 11, 11, 36
11, 122120, Control_c, 11, 11, 38
11, 122146, Control_c, 11, 11, 40
11, 122162, Note_on_c, 11, 62, 0
11, 122162, Note_on_c, 11, 64, 102
11, 122172, Control_c, 11, 11, 42
11, 122199, Control_c, 11, 11, 44
11, 122225, Control_c, 11, 11, 46
11, 122251, Control_c, 11, 11, 48
11, 122277, Control_c, 11, 11, 50
11, 122282, Note_on_c, 11, 64, 0
11, 122282, Note_on_c, 11, 65, 102
11, 122303, Control_c, 11, 11, 52
11, 122330, Control_c, 11, 11, 54
11, 122356, Control_c, 11, 11, 56
11, 122382, Control_c, 11, 11, 58
11, 122402, Note_on_c, 11, 65, 0
11, 122402, Note_on_c, 11, 66, 102
11, 122408, Control_c, 11, 11, 60
11, 122434, Control_c, 11, 11, 62
11, 122460, Control_c, 11, 11, 64
11, 122487, Control_c, 11, 11, 66
11, 122513, Control_c, 11, 11, 68
11, 122522, Note_on_c, 11, 66, 0
11, 122522, Note_on_c, 11, 67, 102
11, 122539, Control_c, 11, 11, 70
11, 122565, Control_c, 11, 11, 72
11, 122591, Control_c, 11, 11, 74
11, 122618, Control_c, 11, 11, 76
11, 122642, Note_on_c, 11, 67, 0
11, 122642, Note_on_c, 11, 68, 102
11, 122644, Control_c, 11, 11, 78
11, 122670, Control_c, 11, 11, 80
11, 122696, Control_c, 11, 11, 82
11, 122722, Control_c, 11, 11, 84
11, 122742, Note_on_c, 11, 68, 0
11, 122748, Control_c, 11, 11, 86
11, 122762, Note_on_c, 11, 69, 102
11, 122882, Note_on_c, 11, 69, 0
11, 122882, Note_on_c, 11, 68, 102
11, 123002, Note_on_c, 11, 68, 0
11, 123002, Note_on_c, 11, 67, 102
11, 123102, Note_on_c, 11, 67, 0
11, 123122, Note_on_c, 11, 66, 102
11, 123182, Note_on_c, 11, 66, 0
11, 123242, Note_on_c, 11, 64, 102
11, 123302, Note_on_c, 11, 64, 0
11, 123362, Note_on_c, 11, 62, 102
11, 123422, Note_on_c, 11, 62, 0
11, 123482, Control_c, 11, 11, 32
11, 123482, Note_on_c, 11, 67, 102
11, 123542, Note_on_c, 11, 67, 0
11, 123602, Note_on_c, 11, 69, 102
11, 123662, Note_on_c, 11, 69, 0
11, 123722, Note_on_c, 11, 70, 102
11, 123782, Note_on_c, 11, 70, 0
11, 123842, Note_on_c, 11, 69, 102
11, 123962, Note_on_c, 11, 69, 0
11, 124202, Note_on_c, 11, 64, 102
11, 124262, Note_on_c, 11, 64, 0
11, 124322, Note_on_c, 11, 65, 102
11, 124382, Note_on_c, 11, 65, 0
11, 124442, Note_on_c, 11, 67, 102
11, 124502, Note_on_c, 11, 67, 0
11, 124562, Note_on_c, 11, 65, 102
11, 124682, Note_on_c, 11, 65, 0
11, 124922, Control_c, 11, 11, 32
11, 124922, Note_on_c, 11, 62, 102
11, 124948, Control_c, 11, 11, 34
11, 124974, Control_c, 11, 11, 36
11, 125000, Control_c, 11, 11, 38
11, 125026, Control_c, 11, 11, 40
11, 125042, Note_on_c, 11, 62, 0
11, 125042, Note_on_c, 11, 64, 102
11, 125052, Control_c, 11, 11, 42
11, 125079, Control_c, 11, 11, 44
11, 125105, Control_c, 11, 11, 46
11, 125131, Control_c, 11, 11, 48
11, 125157, Control_c, 11, 11, 50
11, 125162, Note_on_c, 11, 64, 0
11, 125162, Note_on_c, 11, 65, 102
11, 125183, Control_c, 11, 11, 52
11, 125210, Control_c, 11, 11, 54
11, 125236, Control_c, 11, 11, 56
11, 125262, Control_c, 11, 11, 58
11, 125282, Note_on_c, 11, 65, 0
11, 125282, Note_on_c, 11, 66, 102
11, 125288, Control_c, 11, 11, 60
11, 125314, Control_c, 11, 11, 62
11, 125340, Control_c, 11, 11, 64
11, 125367, Control_c, 11, 11, 66
11, 125393, Control_c, 11, 11, 68
11, 125402, Note_on_c, 11, 66, 0
11, 125402, Note_on_c, 11, 67, 102
11, 125419, Control_c, 11, 11, 70
11, 125445, Control_c, 11, 11, 72
11, 125471, Control_c, 11, 11, 74
11, 125498, Control_c, 11, 11, 76
11, 125522, Note_on_c, 11, 67, 0
11, 125522, Note_on_c, 11, 68, 102
11, 125524, Control_c, 11, 11, 78
11, 125550, Control_c, 11, 11, 80
11, 125576, Control_c, 11, 11, 82
11, 125602, Control_c, 11, 11, 84
11, 125622, Note_on_c, 11, 68, 0
11, 125628, Control_c, 11, 11, 86
11, 125642, Note_on_c, 11, 69, 102
11, 125762, Note_on_c, 11, 69, 0
11, 125762, Note_on_c, 11, 68, 102
11, 125882, Note_on_c, 11, 68, 0
11, 125882, Note_on_c, 11, 67, 102
11, 125982, Note_on_c, 11, 67, 0
11, 126002, Note_on_c, 11, 66, 102
11, 126062, Note_on_c, 11, 66, 0
11, 126122, Note_on_c, 11, 64, 102
11, 126182, Note_on_c, 11, 64, 0
11, 126242, Note_on_c, 11, 62, 102
11, 126302, Note_on_c, 11, 62, 0
11, 126362, Control_c, 11, 11, 47
11, 126362, Note_on_c, 11, 62, 102
11, 126380, Control_c, 11, 11, 48
11, 126398, Control_c, 11, 11, 49
11, 126416, Control_c, 11, 11, 50
11, 126434, Control_c, 11, 11, 51
11, 126452, Control_c, 11, 11, 52
11, 126470, Control_c, 11, 11, 53
11, 126482, Note_on_c, 11, 62, 0
11, 126482, Note_on_c, 11, 64, 102
11, 126488, Control_c, 11, 11, 54
11, 126506, Control_c, 11, 11, 55
11, 126524, Control_c, 11, 11, 56
11, 126542, Control_c, 11, 11, 57
11, 126560, Control_c, 11, 11, 58
11, 126578, Control_c, 11, 11, 59
11, 126596, Control_c, 11, 11, 60
11, 126602, Note_on_c, 11, 64, 0
11, 126602, Note_on_c, 11, 65, 102
11, 126614, Control_c, 11, 11, 61
11, 126632, Control_c, 11, 11, 62
11, 126650, Control_c, 11, 11, 63
11, 126668, Control_c, 11, 11, 64
11, 126686, Control_c, 11, 11, 65
11, 126704, Control_c, 11, 11, 66
11, 126722, Note_on_c, 11, 65, 0
11, 126722, Control_c, 11, 11, 67
11, 126722, Note_on_c, 11, 66, 102
11, 126740, Control_c, 11, 11, 68
11, 126758, Control_c, 11, 11, 69
11, 126776, Control_c, 11, 11, 70
11, 126794, Control_c, 11, 11, 71
11, 126812, Control_c, 11, 11, 72
11, 126830, Control_c, 11, 11, 73
11, 126842, Note_on_c, 11, 66, 0
11, 126842, Note_on_c, 11, 67, 102
11, 126848, Control_c, 11, 11, 74
11, 126866, Control_c, 11, 11, 75
11, 126884, Control_c, 11, 11, 76
11, 126902, Control_c, 11, 11, 77
11, 126920, Control_c, 11, 11, 78
11, 126938, Control_c, 11, 11, 79
11, 126956, Control_c, 11, 11, 80
11, 126962, Note_on_c, 11, 67, 0
11, 126962, Note_on_c, 11, 68, 102
11, 126974, Control_c, 11, 11, 81
11, 126992, Control_c, 11, 11, 82
11, 127010, Control_c, 11, 11, 83
11, 127028, Control_c, 11, 11, 84
11, 127046, Control_c, 11, 11, 85
11, 127062, Note_on_c, 11, 68, 0
11, 127064, Control_c, 11, 11, 86
11, 127082, Control_c, 11, 11, 93
11, 127082, Note_on_c, 11, 69, 102
11, 127092, Control_c, 11, 11, 96
11, 127103, Control_c, 11, 11, 99
11, 127113, Control_c, 11, 11, 102
11, 127135, Control_c, 11, 11, 101
11, 127153, Control_c, 11, 11, 99
11, 127171, Control_c, 11, 11, 97
11, 127189, Control_c, 11, 11, 95
11, 127202, Note_on_c, 11, 69, 0
11, 127202, Note_on_c, 11, 68, 102
11, 127207, Control_c, 11, 11, 93
11, 127225, Control_c, 11, 11, 91
11, 127243, Control_c, 11, 11, 89
11, 127261, Control_c, 11, 11, 87
11, 127322, Note_on_c, 11, 68, 0
11, 127322, Note_on_c, 11, 67, 102
11, 127422, Note_on_c, 11, 67, 0
11, 127442, Note_on_c, 11, 66, 102
11, 127502, Note_on_c, 11, 66, 0
11, 127562, Note_on_c, 11, 62, 102
11, 127622, Note_on_c, 11, 62, 0
11, 127682, Note_on_c, 11, 66, 102
11, 127742, Note_on_c, 11, 66, 0
11, 127802, Note_on_c, 11, 69, 102
11, 127802, Control_c, 11, 11, 93
11, 127812, Control_c, 11, 11, 96
11, 127823, Control_c, 11, 11, 99
11, 127833, Control_c, 11, 11, 102
11, 127855, Control_c, 11, 11, 101
11, 127873, Control_c, 11, 11, 99
11, 127891, Control_c, 11, 11, 97
11, 127909, Control_c, 11, 11, 95
11, 127922, Note_on_c, 11, 69, 0
11, 127922, Note_on_c, 11, 68, 102
11, 127927, Control_c, 11, 11, 93
11, 127945, Control_c, 11, 11, 91
11, 127963, Control_c, 11, 11, 89
11, 127981, Control_c, 11, 11, 87
11, 128042, Note_on_c, 11, 68, 0
11, 128042, Note_on_c, 11, 67, 102
11, 128142, Note_on_c, 11, 67, 0
11, 128162, Note_on_c, 11, 66, 102
11, 128222, Note_on_c, 11, 66, 0
11, 128282, Note_on_c, 11, 62, 102
11, 128342, Note_on_c, 11, 62, 0
11, 128402, Note_on_c, 11, 66, 102
11, 128462, Note_on_c, 11, 66, 0
11, 128522, Control_c, 11, 11, 102
11, 128522, Note_on_c, 11, 61, 102
11, 128642, Note_on_c, 11, 61, 0
11, 128642, Note_on_c, 11, 64, 102
11, 128762, Note_on_c, 11, 64, 0
11, 128762, Note_on_c, 11, 69, 102
11, 128882, Note_on_c, 11, 69, 0
11, 128882, Note_on_c, 11, 73, 102
11, 129002, Note_on_c, 11, 73, 0
11, 129002, Note_on_c, 11, 74, 102
11, 129122, Note_on_c, 11, 74, 0
11, 129122, Note_on_c, 11, 76, 102
11, 129222, Note_on_c, 11, 76, 0
11, 129242, Note_on_c, 11, 78, 102
11, 129362, Note_on_c, 11, 78, 0
11, 129482, Note_on_c, 11, 79, 102
11, 129482, Note_on_c, 11, 69, 102
11, 129542, Note_on_c, 11, 69, 0
11, 129542, Note_on_c, 11, 79, 0
11, 129602, Note_on_c, 11, 69, 102
11, 129602, Note_on_c, 11, 78, 102
11, 129602, Note_on_c, 11, 62, 102
11, 129662, Note_on_c, 11, 62, 0
11, 129662, Note_on_c, 11, 78, 0
11, 129662, Note_on_c, 11, 69, 0
11, 129962, Control_c, 11, 121, 0
11, 129962, End_track
12, 0, Start_track
12, 0, MIDI_port, 0
12, 0, Title_t, "Viola"
12, 0, Program_c, 12, 48
12, 0, Control_c, 12, 10, 40
12, 6, Control_c, 12, 121, 0
12, 11, Program_c, 12, 48
12, 16, Pitch_bend_c, 12, 8492
12, 21, Control_c, 12, 11, 87
12, 26, Control_c, 12, 7, 127
12, 31, Control_c, 12, 91, 25
12, 36, Control_c, 12, 93, 0
12, 366, Control_c, 12, 11, 87
12, 366, Note_on_c, 12, 62, 102
12, 426, Note_on_c, 12, 62, 0
12, 486, Note_on_c, 12, 64, 102
12, 546, Note_on_c, 12, 64, 0
12, 606, Note_on_c, 12, 66, 102
12, 666, Note_on_c, 12, 66, 0
12, 1086, Note_on_c, 12, 55, 102
12, 1146, Note_on_c, 12, 55, 0
12, 1206, Note_on_c, 12, 57, 102
12, 1266, Note_on_c, 12, 57, 0
12, 1326, Note_on_c, 12, 59, 102
12, 1386, Note_on_c, 12, 59, 0
12, 2886, Control_c, 12, 11, 102
12, 2886, Note_on_c, 12, 62, 102
12, 2946, Note_on_c, 12, 62, 0
12, 3006, Note_on_c, 12, 57, 102
12, 3066, Note_on_c, 12, 57, 0
12, 3126, Note_on_c, 12, 62, 102
12, 3186, Note_on_c, 12, 62, 0
12, 3246, Control_c, 12, 11, 87
12, 3246, Note_on_c, 12, 62, 102
12, 3306, Note_on_c, 12, 62, 0
12, 3366, Note_on_c, 12, 64, 102
12, 3426, Note_on_c, 12, 64, 0
12, 3486, Note_on_c, 12, 66, 102
12, 3546, Note_on_c, 12, 66, 0
12, 3966, Note_on_c, 12, 56, 102
12, 4026, Note_on_c, 12, 56, 0
12, 4086, Note_on_c, 12, 57, 102
12, 4146, Note_on_c, 12, 57, 0
12, 4206, Note_on_c, 12, 59, 102
12, 4266, Note_on_c, 12, 59, 0
12, 4686, Control_c, 12, 11, 47
12, 4686, Note_on_c, 12, 57, 102
12, 4737, Note_on_c, 12, 57, 0
12, 4806, Note_on_c, 12, 59, 102
12, 4857, Note_on_c, 12, 59, 0
12, 4926, Note_on_c, 12, 61, 102
12, 4977, Note_on_c, 12, 61, 0
12, 6126, Control_c, 12, 11, 87
12, 6126, Note_on_c, 12, 62, 102
12, 6186, Note_on_c, 12, 62, 0
12, 6246, Note_on_c, 12, 64, 102
12, 6306, Note_on_c, 12, 64, 0
12, 6366, Note_on_c, 12, 66, 102
12, 6426, Note_on_c, 12, 66, 0
12, 6846, Note_on_c, 12, 55, 102
12, 6906, Note_on_c, 12, 55, 0
12, 6966, Note_on_c, 12, 57, 102
12, 7026, Note_on_c, 12, 57, 0
12, 7086, Note_on_c, 12, 59, 102
12, 7146, Note_on_c, 12, 59, 0
12, 8646, Control_c, 12, 11, 102
12, 8646, Note_on_c, 12, 62, 102
12, 8706, Note_on_c, 12, 62, 0
12, 8766, Note_on_c, 12, 57, 102
12, 8826, Note_on_c, 12, 57, 0
12, 8886, Note_on_c, 12, 62, 102
12, 8946, Note_on_c, 12, 62, 0
12, 9006, Control_c, 12, 11, 87
12, 9006, Note_on_c, 12, 62, 102
12, 9066, Note_on_c, 12, 62, 0
12, 9126, Note_on_c, 12, 64, 102
12, 9186, Note_on_c, 12, 64, 0
12, 9246, Note_on_c, 12, 66, 102
12, 9306, Note_on_c, 12, 66, 0
12, 9726, Note_on_c, 12, 56, 102
12, 9786, Note_on_c, 12, 56, 0
12, 9846, Note_on_c, 12, 57, 102
12, 9906, Note_on_c, 12, 57, 0
12, 9966, Note_on_c, 12, 59, 102
12, 10026, Note_on_c, 12, 59, 0
12, 10446, Control_c, 12, 11, 47
12, 10446, Note_on_c, 12, 57, 102
12, 10497, Note_on_c, 12, 57, 0
12, 10566, Note_on_c, 12, 59, 102
12, 10617, Note_on_c, 12, 59, 0
12, 10686, Note_on_c, 12, 61, 102
12, 10737, Note_on_c, 12, 61, 0
12, 11886, Control_c, 12, 11, 47
12, 11886, Note_on_c, 12, 57, 102
12, 11946, Note_on_c, 12, 57, 0
12, 12006, Note_on_c, 12, 59, 102
12, 12066, Note_on_c, 12, 59, 0
12, 12126, Note_on_c, 12, 61, 102
12, 12186, Note_on_c, 12, 61, 0
12, 12246, Note_on_c, 12, 62, 102
12, 12366, Note_on_c, 12, 62, 0
12, 12606, Note_on_c, 12, 53, 102
12, 12666, Note_on_c, 12, 53, 0
12, 12726, Note_on_c, 12, 55, 102
12, 12786, Note_on_c, 12, 55, 0
12, 12846, Note_on_c, 12, 57, 102
12, 12906, Note_on_c, 12, 57, 0
12, 12966, Note_on_c, 12, 58, 102
12, 13086, Note_on_c, 12, 58, 0
12, 13326, Note_on_c, 12, 53, 102
12, 13386, Note_on_c, 12, 53, 0
12, 13446, Control_c, 12, 11, 72
12, 13446, Note_on_c, 12, 53, 102
12, 13454, Control_c, 12, 11, 75
12, 13463, Control_c, 12, 11, 78
12, 13472, Control_c, 12, 11, 81
12, 13487, Control_c, 12, 11, 80
12, 13505, Control_c, 12, 11, 77
12, 13523, Control_c, 12, 11, 74
12, 13541, Control_c, 12, 11, 71
12, 13559, Control_c, 12, 11, 68
12, 13577, Control_c, 12, 11, 65
12, 13595, Control_c, 12, 11, 62
12, 13613, Control_c, 12, 11, 59
12, 13631, Control_c, 12, 11, 56
12, 13649, Control_c, 12, 11, 53
12, 13667, Control_c, 12, 11, 50
12, 13685, Control_c, 12, 11, 47
12, 14146, Note_on_c, 12, 53, 0
12, 14166, Note_on_c, 12, 53, 102
12, 14266, Note_on_c, 12, 53, 0
12, 14286, Note_on_c, 12, 53, 102
12, 14386, Note_on_c, 12, 53, 0
12, 14406, Note_on_c, 12, 53, 102
12, 14506, Note_on_c, 12, 53, 0
12, 14526, Note_on_c, 12, 53, 102
12, 14626, Note_on_c, 12, 53, 0
12, 14646, Note_on_c, 12, 53, 102
12, 14746, Note_on_c, 12, 53, 0
12, 14766, Note_on_c, 12, 53, 102
12, 14826, Note_on_c, 12, 53, 0
12, 14886, Control_c, 12, 11, 72
12, 14886, Note_on_c, 12, 53, 102
12, 14894, Control_c, 12, 11, 75
12, 14903, Control_c, 12, 11, 78
12, 14912, Control_c, 12, 11, 81
12, 14927, Control_c, 12, 11, 80
12, 14945, Control_c, 12, 11, 77
12, 14963, Control_c, 12, 11, 74
12, 14981, Control_c, 12, 11, 71
12, 14999, Control_c, 12, 11, 68
12, 15017, Control_c, 12, 11, 65
12, 15035, Control_c, 12, 11, 62
12, 15053, Control_c, 12, 11, 59
12, 15071, Control_c, 12, 11, 56
12, 15089, Control_c, 12, 11, 53
12, 15107, Control_c, 12, 11, 50
12, 15125, Control_c, 12, 11, 47
12, 15586, Note_on_c, 12, 53, 0
12, 15606, Note_on_c, 12, 53, 102
12, 15706, Note_on_c, 12, 53, 0
12, 15726, Note_on_c, 12, 53, 102
12, 15826, Note_on_c, 12, 53, 0
12, 15846, Note_on_c, 12, 53, 102
12, 15946, Note_on_c, 12, 53, 0
12, 15966, Note_on_c, 12, 53, 102
12, 16066, Note_on_c, 12, 53, 0
12, 16086, Note_on_c, 12, 53, 102
12, 16186, Note_on_c, 12, 53, 0
12, 16206, Note_on_c, 12, 53, 102
12, 16266, Note_on_c, 12, 53, 0
12, 16326, Note_on_c, 12, 58, 102
12, 16446, Note_on_c, 12, 58, 0
12, 16446, Note_on_c, 12, 62, 102
12, 16566, Note_on_c, 12, 62, 0
12, 16686, Note_on_c, 12, 57, 102
12, 16806, Note_on_c, 12, 57, 0
12, 16806, Note_on_c, 12, 62, 102
12, 16926, Note_on_c, 12, 62, 0
12, 17046, Note_on_c, 12, 59, 102
12, 17166, Note_on_c, 12, 59, 0
12, 17166, Note_on_c, 12, 62, 102
12, 17286, Note_on_c, 12, 62, 0
12, 17286, Control_c, 12, 11, 47
12, 17286, Note_on_c, 12, 56, 102
12, 17286, Note_on_c, 12, 59, 102
12, 17322, Control_c, 12, 11, 46
12, 17346, Note_on_c, 12, 59, 0
12, 17346, Note_on_c, 12, 56, 0
12, 17358, Control_c, 12, 11, 45
12, 17394, Control_c, 12, 11, 44
12, 17406, Note_on_c, 12, 56, 102
12, 17406, Note_on_c, 12, 59, 102
12, 17430, Control_c, 12, 11, 43
12, 17466, Note_on_c, 12, 59, 0
12, 17466, Note_on_c, 12, 56, 0
12, 17466, Control_c, 12, 11, 42
12, 17502, Control_c, 12, 11, 41
12, 17526, Note_on_c, 12, 56, 102
12, 17526, Note_on_c, 12, 59, 102
12, 17538, Control_c, 12, 11, 40
12, 17574, Control_c, 12, 11, 39
12, 17586, Note_on_c, 12, 59, 0
12, 17586, Note_on_c, 12, 56, 0
12, 17610, Control_c, 12, 11, 38
12, 17646, Control_c, 12, 11, 37
12, 17646, Note_on_c, 12, 61, 102
12, 17646, Note_on_c, 12, 57, 102
12, 17766, Note_on_c, 12, 57, 0
12, 17766, Note_on_c, 12, 61, 0
12, 17886, Note_on_c, 12, 49, 102
12, 18006, Note_on_c, 12, 49, 0
12, 18006, Control_c, 12, 11, 37
12, 18006, Note_on_c, 12, 50, 102
12, 18042, Control_c, 12, 11, 36
12, 18078, Control_c, 12, 11, 35
12, 18114, Control_c, 12, 11, 34
12, 18126, Note_on_c, 12, 50, 0
12, 18126, Note_on_c, 12, 53, 102
12, 18150, Control_c, 12, 11, 33
12, 18186, Control_c, 12, 11, 32
12, 18222, Control_c, 12, 11, 31
12, 18246, Note_on_c, 12, 53, 0
12, 18246, Note_on_c, 12, 56, 102
12, 18258, Control_c, 12, 11, 30
12, 18294, Control_c, 12, 11, 29
12, 18330, Control_c, 12, 11, 28
12, 18346, Note_on_c, 12, 56, 0
12, 18366, Control_c, 12, 11, 27
12, 18366, Note_on_c, 12, 57, 102
12, 18426, Note_on_c, 12, 57, 0
12, 18606, Note_on_c, 12, 49, 102
12, 18726, Note_on_c, 12, 49, 0
12, 18726, Note_on_c, 12, 50, 102
12, 18846, Note_on_c, 12, 50, 0
12, 18846, Control_c, 12, 11, 27
12, 18846, Note_on_c, 12, 53, 102
12, 18862, Control_c, 12, 11, 28
12, 18878, Control_c, 12, 11, 29
12, 18894, Control_c, 12, 11, 30
12, 18910, Control_c, 12, 11, 31
12, 18926, Control_c, 12, 11, 32
12, 18942, Control_c, 12, 11, 33
12, 18958, Control_c, 12, 11, 34
12, 18966, Note_on_c, 12, 53, 0
12, 18966, Note_on_c, 12, 56, 102
12, 18974, Control_c, 12, 11, 35
12, 18990, Control_c, 12, 11, 36
12, 19006, Control_c, 12, 11, 37
12, 19022, Control_c, 12, 11, 38
12, 19038, Control_c, 12, 11, 39
12, 19054, Control_c, 12, 11, 40
12, 19066, Note_on_c, 12, 56, 0
12, 19070, Control_c, 12, 11, 41
12, 19086, Control_c, 12, 11, 42
12, 19086, Note_on_c, 12, 57, 102
12, 19102, Control_c, 12, 11, 43
12, 19118, Control_c, 12, 11, 44
12, 19134, Control_c, 12, 11, 45
12, 19146, Note_on_c, 12, 57, 0
12, 19150, Control_c, 12, 11, 46
12, 19166, Control_c, 12, 11, 47
12, 19182, Control_c, 12, 11, 48
12, 19198, Control_c, 12, 11, 49
12, 19214, Control_c, 12, 11, 50
12, 19230, Control_c, 12, 11, 51
12, 19246, Control_c, 12, 11, 52
12, 19262, Control_c, 12, 11, 53
12, 19278, Control_c, 12, 11, 54
12, 19294, Control_c, 12, 11, 55
12, 19310, Control_c, 12, 11, 56
12, 19326, Control_c, 12, 11, 57
12, 19342, Control_c, 12, 11, 58
12, 19358, Control_c, 12, 11, 59
12, 19374, Control_c, 12, 11, 60
12, 19390, Control_c, 12, 11, 61
12, 19406, Control_c, 12, 11, 62
12, 19422, Control_c, 12, 11, 63
12, 19438, Control_c, 12, 11, 64
12, 19454, Control_c, 12, 11, 65
12, 19470, Control_c, 12, 11, 66
12, 19486, Control_c, 12, 11, 67
12, 19502, Control_c, 12, 11, 68
12, 19518, Control_c, 12, 11, 69
12, 19534, Control_c, 12, 11, 70
12, 19550, Control_c, 12, 11, 71
12, 19566, Control_c, 12, 11, 72
12, 19582, Control_c, 12, 11, 73
12, 19598, Control_c, 12, 11, 74
12, 19614, Control_c, 12, 11, 75
12, 19630, Control_c, 12, 11, 76
12, 19646, Control_c, 12, 11, 77
12, 19662, Control_c, 12, 11, 78
12, 19678, Control_c, 12, 11, 79
12, 19694, Control_c, 12, 11, 80
12, 19710, Control_c, 12, 11, 81
12, 19726, Control_c, 12, 11, 82
12, 19742, Control_c, 12, 11, 83
12, 19758, Control_c, 12, 11, 84
12, 19774, Control_c, 12, 11, 85
12, 19790, Control_c, 12, 11, 86
12, 19806, Control_c, 12, 11, 87
12, 19806, Note_on_c, 12, 62, 102
12, 19866, Note_on_c, 12, 62, 0
12, 19926, Note_on_c, 12, 64, 102
12, 19986, Note_on_c, 12, 64, 0
12, 20046, Note_on_c, 12, 66, 102
12, 20106, Note_on_c, 12, 66, 0
12, 20526, Control_c, 12, 11, 87
12, 20526, Note_on_c, 12, 67, 102
12, 20586, Note_on_c, 12, 67, 0
12, 20646, Note_on_c, 12, 69, 102
12, 20706, Note_on_c, 12, 69, 0
12, 20766, Note_on_c, 12, 71, 102
12, 20826, Note_on_c, 12, 71, 0
12, 22326, Control_c, 12, 11, 102
12, 22326, Note_on_c, 12, 62, 102
12, 22386, Note_on_c, 12, 62, 0
12, 22446, Note_on_c, 12, 57, 102
12, 22506, Note_on_c, 12, 57, 0
12, 22566, Note_on_c, 12, 62, 102
12, 22626, Note_on_c, 12, 62, 0
12, 22686, Control_c, 12, 11, 87
12, 22686, Note_on_c, 12, 62, 102
12, 22746, Note_on_c, 12, 62, 0
12, 22806, Note_on_c, 12, 64, 102
12, 22866, Note_on_c, 12, 64, 0
12, 22926, Note_on_c, 12, 66, 102
12, 22986, Note_on_c, 12, 66, 0
12, 23406, Control_c, 12, 11, 87
12, 23406, Note_on_c, 12, 55, 102
12, 23466, Note_on_c, 12, 55, 0
12, 23526, Note_on_c, 12, 57, 102
12, 23586, Note_on_c, 12, 57, 0
12, 23646, Note_on_c, 12, 59, 102
12, 23706, Note_on_c, 12, 59, 0
12, 27006, Control_c, 12, 11, 32
12, 27006, Note_on_c, 12, 60, 102
12, 27126, Note_on_c, 12, 60, 0
12, 27366, Note_on_c, 12, 53, 102
12, 27486, Note_on_c, 12, 53, 0
12, 27726, Note_on_c, 12, 57, 102
12, 27846, Note_on_c, 12, 57, 0
12, 28086, Note_on_c, 12, 50, 102
12, 28206, Note_on_c, 12, 50, 0
12, 28446, Control_c, 12, 11, 32
12, 28446, Note_on_c, 12, 50, 102
12, 28472, Control_c, 12, 11, 34
12, 28498, Control_c, 12, 11, 36
12, 28524, Control_c, 12, 11, 38
12, 28550, Control_c, 12, 11, 40
12, 28566, Note_on_c, 12, 50, 0
12, 28566, Note_on_c, 12, 52, 102
12, 28576, Control_c, 12, 11, 42
12, 28603, Control_c, 12, 11, 44
12, 28629, Control_c, 12, 11, 46
12, 28655, Control_c, 12, 11, 48
12, 28681, Control_c, 12, 11, 50
12, 28686, Note_on_c, 12, 52, 0
12, 28686, Note_on_c, 12, 53, 102
12, 28707, Control_c, 12, 11, 52
12, 28734, Control_c, 12, 11, 54
12, 28760, Control_c, 12, 11, 56
12, 28786, Control_c, 12, 11, 58
12, 28806, Note_on_c, 12, 53, 0
12, 28806, Note_on_c, 12, 54, 102
12, 28812, Control_c, 12, 11, 60
12, 28838, Control_c, 12, 11, 62
12, 28864, Control_c, 12, 11, 64
12, 28891, Control_c, 12, 11, 66
12, 28917, Control_c, 12, 11, 68
12, 28926, Note_on_c, 12, 54, 0
12, 28926, Note_on_c, 12, 55, 102
12, 28943, Control_c, 12, 11, 70
12, 28969, Control_c, 12, 11, 72
12, 28995, Control_c, 12, 11, 74
12, 29022, Control_c, 12, 11, 76
12, 29046, Note_on_c, 12, 55, 0
12, 29046, Note_on_c, 12, 56, 102
12, 29048, Control_c, 12, 11, 78
12, 29074, Control_c, 12, 11, 80
12, 29100, Control_c, 12, 11, 82
12, 29126, Control_c, 12, 11, 84
12, 29146, Note_on_c, 12, 56, 0
12, 29152, Control_c, 12, 11, 86
12, 29166, Note_on_c, 12, 57, 102
12, 29266, Note_on_c, 12, 57, 0
12, 29286, Note_on_c, 12, 69, 102
12, 29386, Note_on_c, 12, 69, 0
12, 29406, Note_on_c, 12, 69, 102
12, 29506, Note_on_c, 12, 69, 0
12, 29526, Note_on_c, 12, 62, 102
12, 29646, Note_on_c, 12, 62, 0
12, 29886, Control_c, 12, 11, 32
12, 29886, Note_on_c, 12, 64, 102
12, 29946, Note_on_c, 12, 64, 0
12, 30006, Note_on_c, 12, 65, 102
12, 30066, Note_on_c, 12, 65, 0
12, 30126, Note_on_c, 12, 67, 102
12, 30186, Note_on_c, 12, 67, 0
12, 30246, Note_on_c, 12, 65, 102
12, 30366, Note_on_c, 12, 65, 0
12, 30606, Note_on_c, 12, 61, 102
12, 30666, Note_on_c, 12, 61, 0
12, 30726, Note_on_c, 12, 62, 102
12, 30786, Note_on_c, 12, 62, 0
12, 30846, Note_on_c, 12, 64, 102
12, 30906, Note_on_c, 12, 64, 0
12, 30966, Note_on_c, 12, 62, 102
12, 31086, Note_on_c, 12, 62, 0
12, 31326, Control_c, 12, 11, 32
12, 31326, Note_on_c, 12, 50, 102
12, 31352, Control_c, 12, 11, 34
12, 31378, Control_c, 12, 11, 36
12, 31404, Control_c, 12, 11, 38
12, 31430, Control_c, 12, 11, 40
12, 31446, Note_on_c, 12, 50, 0
12, 31446, Note_on_c, 12, 52, 102
12, 31456, Control_c, 12, 11, 42
12, 31483, Control_c, 12, 11, 44
12, 31509, Control_c, 12, 11, 46
12, 31535, Control_c, 12, 11, 48
12, 31561, Control_c, 12, 11, 50
12, 31566, Note_on_c, 12, 52, 0
12, 31566, Note_on_c, 12, 53, 102
12, 31587, Control_c, 12, 11, 52
12, 31614, Control_c, 12, 11, 54
12, 31640, Control_c, 12, 11, 56
12, 31666, Control_c, 12, 11, 58
12, 31686, Note_on_c, 12, 53, 0
12, 31686, Note_on_c, 12, 54, 102
12, 31692, Control_c, 12, 11, 60
12, 31718, Control_c, 12, 11, 62
12, 31744, Control_c, 12, 11, 64
12, 31771, Control_c, 12, 11, 66
12, 31797, Control_c, 12, 11, 68
12, 31806, Note_on_c, 12, 54, 0
12, 31806, Note_on_c, 12, 55, 102
12, 31823, Control_c, 12, 11, 70
12, 31849, Control_c, 12, 11, 72
12, 31875, Control_c, 12, 11, 74
12, 31902, Control_c, 12, 11, 76
12, 31926, Note_on_c, 12, 55, 0
12, 31926, Note_on_c, 12, 56, 102
12, 31928, Control_c, 12, 11, 78
12, 31954, Control_c, 12, 11, 80
12, 31980, Control_c, 12, 11, 82
12, 32006, Control_c, 12, 11, 84
12, 32026, Note_on_c, 12, 56, 0
12, 32032, Control_c, 12, 11, 86
12, 32046, Note_on_c, 12, 57, 102
12, 32146, Note_on_c, 12, 57, 0
12, 32166, Note_on_c, 12, 69, 102
12, 32266, Note_on_c, 12, 69, 0
12, 32286, Note_on_c, 12, 69, 102
12, 32386, Note_on_c, 12, 69, 0
12, 32406, Note_on_c, 12, 62, 102
12, 32526, Note_on_c, 12, 62, 0
12, 32766, Control_c, 12, 11, 47
12, 32766, Note_on_c, 12, 50, 102
12, 32784, Control_c, 12, 11, 48
12, 32802, Control_c, 12, 11, 49
12, 32820, Control_c, 12, 11, 50
12, 32838, Control_c, 12, 11, 51
12, 32856, Control_c, 12, 11, 52
12, 32874, Control_c, 12, 11, 53
12, 32886, Note_on_c, 12, 50, 0
12, 32886, Note_on_c, 12, 52, 102
12, 32892, Control_c, 12, 11, 54
12, 32910, Control_c, 12, 11, 55
12, 32928, Control_c, 12, 11, 56
12, 32946, Control_c, 12, 11, 57
12, 32964, Control_c, 12, 11, 58
12, 32982, Control_c, 12, 11, 59
12, 33000, Control_c, 12, 11, 60
12, 33006, Note_on_c, 12, 52, 0
12, 33006, Note_on_c, 12, 53, 102
12, 33018, Control_c, 12, 11, 61
12, 33036, Control_c, 12, 11, 62
12, 33054, Control_c, 12, 11, 63
12, 33072, Control_c, 12, 11, 64
12, 33090, Control_c, 12, 11, 65
12, 33108, Control_c, 12, 11, 66
12, 33126, Note_on_c, 12, 53, 0
12, 33126, Control_c, 12, 11, 67
12, 33126, Note_on_c, 12, 54, 102
12, 33144, Control_c, 12, 11, 68
12, 33162, Control_c, 12, 11, 69
12, 33180, Control_c, 12, 11, 70
12, 33198, Control_c, 12, 11, 71
12, 33216, Control_c, 12, 11, 72
12, 33234, Control_c, 12, 11, 73
12, 33246, Note_on_c, 12, 54, 0
12, 33246, Note_on_c, 12, 55, 102
12, 33252, Control_c, 12, 11, 74
12, 33270, Control_c, 12, 11, 75
12, 33288, Control_c, 12, 11, 76
12, 33306, Control_c, 12, 11, 77
12, 33324, Control_c, 12, 11, 78
12, 33342, Control_c, 12, 11, 79
12, 33360, Control_c, 12, 11, 80
12, 33366, Note_on_c, 12, 55, 0
12, 33366, Note_on_c, 12, 56, 102
12, 33378, Control_c, 12, 11, 81
12, 33396, Control_c, 12, 11, 82
12, 33414, Control_c, 12, 11, 83
12, 33432, Control_c, 12, 11, 84
12, 33450, Control_c, 12, 11, 85
12, 33466, Note_on_c, 12, 56, 0
12, 33468, Control_c, 12, 11, 86
12, 33486, Control_c, 12, 11, 93
12, 33486, Note_on_c, 12, 57, 102
12, 33496, Control_c, 12, 11, 96
12, 33507, Control_c, 12, 11, 99
12, 33517, Control_c, 12, 11, 102
12, 33539, Control_c, 12, 11, 101
12, 33557, Control_c, 12, 11, 99
12, 33575, Control_c, 12, 11, 97
12, 33586, Note_on_c, 12, 57, 0
12, 33593, Control_c, 12, 11, 95
12, 33606, Note_on_c, 12, 69, 102
12, 33611, Control_c, 12, 11, 93
12, 33629, Control_c, 12, 11, 91
12, 33647, Control_c, 12, 11, 89
12, 33665, Control_c, 12, 11, 87
12, 33706, Note_on_c, 12, 69, 0
12, 33726, Note_on_c, 12, 69, 102
12, 33826, Note_on_c, 12, 69, 0
12, 33846, Note_on_c, 12, 74, 102
12, 33966, Note_on_c, 12, 74, 0
12, 34206, Note_on_c, 12, 57, 102
12, 34206, Control_c, 12, 11, 93
12, 34216, Control_c, 12, 11, 96
12, 34227, Control_c, 12, 11, 99
12, 34237, Control_c, 12, 11, 102
12, 34259, Control_c, 12, 11, 101
12, 34277, Control_c, 12, 11, 99
12, 34295, Control_c, 12, 11, 97
12, 34306, Note_on_c, 12, 57, 0
12, 34313, Control_c, 12, 11, 95
12, 34326, Note_on_c, 12, 69, 102
12, 34331, Control_c, 12, 11, 93
12, 34349, Control_c, 12, 11, 91
12, 34367, Control_c, 12, 11, 89
12, 34385, Control_c, 12, 11, 87
12, 34426, Note_on_c, 12, 69, 0
12, 34446, Note_on_c, 12, 69, 102
12, 34546, Note_on_c, 12, 69, 0
12, 34566, Note_on_c, 12, 74, 102
12, 34686, Note_on_c, 12, 74, 0
12, 34926, Control_c, 12, 11, 102
12, 34926, Note_on_c, 12, 57, 102
12, 35046, Note_on_c, 12, 57, 0
12, 35046, Note_on_c, 12, 61, 102
12, 35166, Note_on_c, 12, 61, 0
12, 35166, Note_on_c, 12, 64, 102
12, 35286, Note_on_c, 12, 64, 0
12, 35286, Note_on_c, 12, 69, 102
12, 35406, Note_on_c, 12, 69, 0
12, 35406, Note_on_c, 12, 71, 102
12, 35526, Note_on_c, 12, 71, 0
12, 35526, Note_on_c, 12, 73, 102
12, 35626, Note_on_c, 12, 73, 0
12, 35646, Note_on_c, 12, 74, 102
12, 35766, Note_on_c, 12, 74, 0
12, 35886, Note_on_c, 12, 69, 102
12, 35946, Note_on_c, 12, 69, 0
12, 36006, Note_on_c, 12, 62, 102
12, 36066, Note_on_c, 12, 62, 0
12, 36366, Control_c, 12, 11, 47
12, 36366, Note_on_c, 12, 57, 102
12, 36426, Note_on_c, 12, 57, 0
12, 36486, Note_on_c, 12, 59, 102
12, 36546, Note_on_c, 12, 59, 0
12, 36606, Note_on_c, 12, 61, 102
12, 36666, Note_on_c, 12, 61, 0
12, 36726, Note_on_c, 12, 62, 102
12, 36846, Note_on_c, 12, 62, 0
12, 37086, Note_on_c, 12, 53, 102
12, 37146, Note_on_c, 12, 53, 0
12, 37206, Note_on_c, 12, 55, 102
12, 37266, Note_on_c, 12, 55, 0
12, 37326, Note_on_c, 12, 57, 102
12, 37386, Note_on_c, 12, 57, 0
12, 37446, Note_on_c, 12, 58, 102
12, 37566, Note_on_c, 12, 58, 0
12, 37806, Note_on_c, 12, 53, 102
12, 37866, Note_on_c, 12, 53, 0
12, 37926, Control_c, 12, 11, 72
12, 37926, Note_on_c, 12, 53, 102
12, 37934, Control_c, 12, 11, 75
12, 37943, Control_c, 12, 11, 78
12, 37952, Control_c, 12, 11, 81
12, 37967, Control_c, 12, 11, 80
12, 37985, Control_c, 12, 11, 77
12, 38003, Control_c, 12, 11, 74
12, 38021, Control_c, 12, 11, 71
12, 38039, Control_c, 12, 11, 68
12, 38057, Control_c, 12, 11, 65
12, 38075, Control_c, 12, 11, 62
12, 38093, Control_c, 12, 11, 59
12, 38111, Control_c, 12, 11, 56
12, 38129, Control_c, 12, 11, 53
12, 38147, Control_c, 12, 11, 50
12, 38165, Control_c, 12, 11, 47
12, 38626, Note_on_c, 12, 53, 0
12, 38646, Note_on_c, 12, 53, 102
12, 38746, Note_on_c, 12, 53, 0
12, 38766, Note_on_c, 12, 53, 102
12, 38866, Note_on_c, 12, 53, 0
12, 38886, Note_on_c, 12, 53, 102
12, 38986, Note_on_c, 12, 53, 0
12, 39006, Note_on_c, 12, 53, 102
12, 39106, Note_on_c, 12, 53, 0
12, 39126, Note_on_c, 12, 53, 102
12, 39226, Note_on_c, 12, 53, 0
12, 39246, Note_on_c, 12, 53, 102
12, 39306, Note_on_c, 12, 53, 0
12, 39366, Control_c, 12, 11, 72
12, 39366, Note_on_c, 12, 53, 102
12, 39374, Control_c, 12, 11, 75
12, 39383, Control_c, 12, 11, 78
12, 39392, Control_c, 12, 11, 81
12, 39407, Control_c, 12, 11, 80
12, 39425, Control_c, 12, 11, 77
12, 39443, Control_c, 12, 11, 74
12, 39461, Control_c, 12, 11, 71
12, 39479, Control_c, 12, 11, 68
12, 39497, Control_c, 12, 11, 65
12, 39515, Control_c, 12, 11, 62
12, 39533, Control_c, 12, 11, 59
12, 39551, Control_c, 12, 11, 56
12, 39569, Control_c, 12, 11, 53
12, 39587, Control_c, 12, 11, 50
12, 39605, Control_c, 12, 11, 47
12, 40066, Note_on_c, 12, 53, 0
12, 40086, Note_on_c, 12, 53, 102
12, 40186, Note_on_c, 12, 53, 0
12, 40206, Note_on_c, 12, 53, 102
12, 40306, Note_on_c, 12, 53, 0
12, 40326, Note_on_c, 12, 53, 102
12, 40426, Note_on_c, 12, 53, 0
12, 40446, Note_on_c, 12, 53, 102
12, 40546, Note_on_c, 12, 53, 0
12, 40566, Note_on_c, 12, 53, 102
12, 40666, Note_on_c, 12, 53, 0
12, 40686, Note_on_c, 12, 53, 102
12, 40746, Note_on_c, 12, 53, 0
12, 40806, Note_on_c, 12, 58, 102
12, 40926, Note_on_c, 12, 58, 0
12, 40926, Note_on_c, 12, 62, 102
12, 41046, Note_on_c, 12, 62, 0
12, 41166, Note_on_c, 12, 57, 102
12, 41286, Note_on_c, 12, 57, 0
12, 41286, Note_on_c, 12, 62, 102
12, 41406, Note_on_c, 12, 62, 0
12, 41526, Note_on_c, 12, 59, 102
12, 41646, Note_on_c, 12, 59, 0
12, 41646, Note_on_c, 12, 62, 102
12, 41766, Note_on_c, 12, 62, 0
12, 41766, Control_c, 12, 11, 47
12, 41766, Note_on_c, 12, 56, 102
12, 41766, Note_on_c, 12, 59, 102
12, 41802, Control_c, 12, 11, 46
12, 41826, Note_on_c, 12, 59, 0
12, 41826, Note_on_c, 12, 56, 0
12, 41838, Control_c, 12, 11, 45
12, 41874, Control_c, 12, 11, 44
12, 41886, Note_on_c, 12, 56, 102
12, 41886, Note_on_c, 12, 59, 102
12, 41910, Control_c, 12, 11, 43
12, 41946, Note_on_c, 12, 59, 0
12, 41946, Note_on_c, 12, 56, 0
12, 41946, Control_c, 12, 11, 42
12, 41982, Control_c, 12, 11, 41
12, 42006, Note_on_c, 12, 56, 102
12, 42006, Note_on_c, 12, 59, 102
12, 42018, Control_c, 12, 11, 40
12, 42054, Control_c, 12, 11, 39
12, 42066, Note_on_c, 12, 59, 0
12, 42066, Note_on_c, 12, 56, 0
12, 42090, Control_c, 12, 11, 38
12, 42126, Control_c, 12, 11, 37
12, 42126, Note_on_c, 12, 61, 102
12, 42126, Note_on_c, 12, 57, 102
12, 42246, Note_on_c, 12, 57, 0
12, 42246, Note_on_c, 12, 61, 0
12, 42366, Note_on_c, 12, 49, 102
12, 42486, Note_on_c, 12, 49, 0
12, 42486, Control_c, 12, 11, 37
12, 42486, Note_on_c, 12, 50, 102
12, 42522, Control_c, 12, 11, 36
12, 42558, Control_c, 12, 11, 35
12, 42594, Control_c, 12, 11, 34
12, 42606, Note_on_c, 12, 50, 0
12, 42606, Note_on_c, 12, 53, 102
12, 42630, Control_c, 12, 11, 33
12, 42666, Control_c, 12, 11, 32
12, 42702, Control_c, 12, 11, 31
12, 42726, Note_on_c, 12, 53, 0
12, 42726, Note_on_c, 12, 56, 102
12, 42738, Control_c, 12, 11, 30
12, 42774, Control_c, 12, 11, 29
12, 42810, Control_c, 12, 11, 28
12, 42826, Note_on_c, 12, 56, 0
12, 42846, Control_c, 12, 11, 27
12, 42846, Note_on_c, 12, 57, 102
12, 42906, Note_on_c, 12, 57, 0
12, 43086, Note_on_c, 12, 49, 102
12, 43206, Note_on_c, 12, 49, 0
12, 43206, Note_on_c, 12, 50, 102
12, 43326, Note_on_c, 12, 50, 0
12, 43326, Control_c, 12, 11, 27
12, 43326, Note_on_c, 12, 53, 102
12, 43342, Control_c, 12, 11, 28
12, 43358, Control_c, 12, 11, 29
12, 43374, Control_c, 12, 11, 30
12, 43390, Control_c, 12, 11, 31
12, 43406, Control_c, 12, 11, 32
12, 43422, Control_c, 12, 11, 33
12, 43438, Control_c, 12, 11, 34
12, 43446, Note_on_c, 12, 53, 0
12, 43446, Note_on_c, 12, 56, 102
12, 43454, Control_c, 12, 11, 35
12, 43470, Control_c, 12, 11, 36
12, 43486, Control_c, 12, 11, 37
12, 43502, Control_c, 12, 11, 38
12, 43518, Control_c, 12, 11, 39
12, 43534, Control_c, 12, 11, 40
12, 43546, Note_on_c, 12, 56, 0
12, 43550, Control_c, 12, 11, 41
12, 43566, Control_c, 12, 11, 42
12, 43566, Note_on_c, 12, 57, 102
12, 43582, Control_c, 12, 11, 43
12, 43598, Control_c, 12, 11, 44
12, 43614, Control_c, 12, 11, 45
12, 43626, Note_on_c, 12, 57, 0
12, 43630, Control_c, 12, 11, 46
12, 43646, Control_c, 12, 11, 47
12, 43662, Control_c, 12, 11, 48
12, 43678, Control_c, 12, 11, 49
12, 43694, Control_c, 12, 11, 50
12, 43710, Control_c, 12, 11, 51
12, 43726, Control_c, 12, 11, 52
12, 43742, Control_c, 12, 11, 53
12, 43758, Control_c, 12, 11, 54
12, 43774, Control_c, 12, 11, 55
12, 43790, Control_c, 12, 11, 56
12, 43806, Control_c, 12, 11, 57
12, 43822, Control_c, 12, 11, 58
12, 43838, Control_c, 12, 11, 59
12, 43854, Control_c, 12, 11, 60
12, 43870, Control_c, 12, 11, 61
12, 43886, Control_c, 12, 11, 62
12, 43902, Control_c, 12, 11, 63
12, 43918, Control_c, 12, 11, 64
12, 43934, Control_c, 12, 11, 65
12, 43950, Control_c, 12, 11, 66
12, 43966, Control_c, 12, 11, 67
12, 43982, Control_c, 12, 11, 68
12, 43998, Control_c, 12, 11, 69
12, 44014, Control_c, 12, 11, 70
12, 44030, Control_c, 12, 11, 71
12, 44046, Control_c, 12, 11, 72
12, 44062, Control_c, 12, 11, 73
12, 44078, Control_c, 12, 11, 74
12, 44094, Control_c, 12, 11, 75
12, 44110, Control_c, 12, 11, 76
12, 44126, Control_c, 12, 11, 77
12, 44142, Control_c, 12, 11, 78
12, 44158, Control_c, 12, 11, 79
12, 44174, Control_c, 12, 11, 80
12, 44190, Control_c, 12, 11, 81
12, 44206, Control_c, 12, 11, 82
12, 44222, Control_c, 12, 11, 83
12, 44238, Control_c, 12, 11, 84
12, 44254, Control_c, 12, 11, 85
12, 44270, Control_c, 12, 11, 86
12, 44286, Control_c, 12, 11, 87
12, 44286, Note_on_c, 12, 62, 102
12, 44346, Note_on_c, 12, 62, 0
12, 44406, Note_on_c, 12, 64, 102
12, 44466, Note_on_c, 12, 64, 0
12, 44526, Note_on_c, 12, 66, 102
12, 44586, Note_on_c, 12, 66, 0
12, 45006, Control_c, 12, 11, 87
12, 45006, Note_on_c, 12, 67, 102
12, 45066, Note_on_c, 12, 67, 0
12, 45126, Note_on_c, 12, 69, 102
12, 45186, Note_on_c, 12, 69, 0
12, 45246, Note_on_c, 12, 71, 102
12, 45306, Note_on_c, 12, 71, 0
12, 46806, Control_c, 12, 11, 102
12, 46806, Note_on_c, 12, 62, 102
12, 46866, Note_on_c, 12, 62, 0
12, 46926, Note_on_c, 12, 57, 102
12, 46986, Note_on_c, 12, 57, 0
12, 47046, Note_on_c, 12, 62, 102
12, 47106, Note_on_c, 12, 62, 0
12, 47166, Control_c, 12, 11, 87
12, 47166, Note_on_c, 12, 62, 102
12, 47226, Note_on_c, 12, 62, 0
12, 47286, Note_on_c, 12, 64, 102
12, 47346, Note_on_c, 12, 64, 0
12, 47406, Note_on_c, 12, 66, 102
12, 47466, Note_on_c, 12, 66, 0
12, 47886, Control_c, 12, 11, 87
12, 47886, Note_on_c, 12, 55, 102
12, 47946, Note_on_c, 12, 55, 0
12, 48006, Note_on_c, 12, 57, 102
12, 48066, Note_on_c, 12, 57, 0
12, 48126, Note_on_c, 12, 59, 102
12, 48186, Note_on_c, 12, 59, 0
12, 51486, Control_c, 12, 11, 32
12, 51486, Note_on_c, 12, 60, 102
12, 51606, Note_on_c, 12, 60, 0
12, 51846, Note_on_c, 12, 53, 102
12, 51966, Note_on_c, 12, 53, 0
12, 52206, Note_on_c, 12, 57, 102
12, 52326, Note_on_c, 12, 57, 0
12, 52566, Note_on_c, 12, 50, 102
12, 52686, Note_on_c, 12, 50, 0
12, 52926, Control_c, 12, 11, 32
12, 52926, Note_on_c, 12, 50, 102
12, 52952, Control_c, 12, 11, 34
12, 52978, Control_c, 12, 11, 36
12, 53004, Control_c, 12, 11, 38
12, 53030, Control_c, 12, 11, 40
12, 53046, Note_on_c, 12, 50, 0
12, 53046, Note_on_c, 12, 52, 102
12, 53056, Control_c, 12, 11, 42
12, 53083, Control_c, 12, 11, 44
12, 53109, Control_c, 12, 11, 46
12, 53135, Control_c, 12, 11, 48
12, 53161, Control_c, 12, 11, 50
12, 53166, Note_on_c, 12, 52, 0
12, 53166, Note_on_c, 12, 53, 102
12, 53187, Control_c, 12, 11, 52
12, 53214, Control_c, 12, 11, 54
12, 53240, Control_c, 12, 11, 56
12, 53266, Control_c, 12, 11, 58
12, 53286, Note_on_c, 12, 53, 0
12, 53286, Note_on_c, 12, 54, 102
12, 53292, Control_c, 12, 11, 60
12, 53318, Control_c, 12, 11, 62
12, 53344, Control_c, 12, 11, 64
12, 53371, Control_c, 12, 11, 66
12, 53397, Control_c, 12, 11, 68
12, 53406, Note_on_c, 12, 54, 0
12, 53406, Note_on_c, 12, 55, 102
12, 53423, Control_c, 12, 11, 70
12, 53449, Control_c, 12, 11, 72
12, 53475, Control_c, 12, 11, 74
12, 53502, Control_c, 12, 11, 76
12, 53526, Note_on_c, 12, 55, 0
12, 53526, Note_on_c, 12, 56, 102
12, 53528, Control_c, 12, 11, 78
12, 53554, Control_c, 12, 11, 80
12, 53580, Control_c, 12, 11, 82
12, 53606, Control_c, 12, 11, 84
12, 53626, Note_on_c, 12, 56, 0
12, 53632, Control_c, 12, 11, 86
12, 53646, Note_on_c, 12, 57, 102
12, 53746, Note_on_c, 12, 57, 0
12, 53766, Note_on_c, 12, 69, 102
12, 53866, Note_on_c, 12, 69, 0
12, 53886, Note_on_c, 12, 69, 102
12, 53986, Note_on_c, 12, 69, 0
12, 54006, Note_on_c, 12, 62, 102
12, 54126, Note_on_c, 12, 62, 0
12, 54366, Control_c, 12, 11, 32
12, 54366, Note_on_c, 12, 64, 102
12, 54426, Note_on_c, 12, 64, 0
12, 54486, Note_on_c, 12, 65, 102
12, 54546, Note_on_c, 12, 65, 0
12, 54606, Note_on_c, 12, 67, 102
12, 54666, Note_on_c, 12, 67, 0
12, 54726, Note_on_c, 12, 65, 102
12, 54846, Note_on_c, 12, 65, 0
12, 55086, Note_on_c, 12, 61, 102
12, 55146, Note_on_c, 12, 61, 0
12, 55206, Note_on_c, 12, 62, 102
12, 55266, Note_on_c, 12, 62, 0
12, 55326, Note_on_c, 12, 64, 102
12, 55386, Note_on_c, 12, 64, 0
12, 55446, Note_on_c, 12, 62, 102
12, 55566, Note_on_c, 12, 62, 0
12, 55806, Control_c, 12, 11, 32
12, 55806, Note_on_c, 12, 50, 102
12, 55832, Control_c, 12, 11, 34
12, 55858, Control_c, 12, 11, 36
12, 55884, Control_c, 12, 11, 38
12, 55910, Control_c, 12, 11, 40
12, 55926, Note_on_c, 12, 50, 0
12, 55926, Note_on_c, 12, 52, 102
12, 55936, Control_c, 12, 11, 42
12, 55963, Control_c, 12, 11, 44
12, 55989, Control_c, 12, 11, 46
12, 56015, Control_c, 12, 11, 48
12, 56041, Control_c, 12, 11, 50
12, 56046, Note_on_c, 12, 52, 0
12, 56046, Note_on_c, 12, 53, 102
12, 56067, Control_c, 12, 11, 52
12, 56094, Control_c, 12, 11, 54
12, 56120, Control_c, 12, 11, 56
12, 56146, Control_c, 12, 11, 58
12, 56166, Note_on_c, 12, 53, 0
12, 56166, Note_on_c, 12, 54, 102
12, 56172, Control_c, 12, 11, 60
12, 56198, Control_c, 12, 11, 62
12, 56224, Control_c, 12, 11, 64
12, 56251, Control_c, 12, 11, 66
12, 56277, Control_c, 12, 11, 68
12, 56286, Note_on_c, 12, 54, 0
12, 56286, Note_on_c, 12, 55, 102
12, 56303, Control_c, 12, 11, 70
12, 56329, Control_c, 12, 11, 72
12, 56355, Control_c, 12, 11, 74
12, 56382, Control_c, 12, 11, 76
12, 56406, Note_on_c, 12, 55, 0
12, 56406, Note_on_c, 12, 56, 102
12, 56408, Control_c, 12, 11, 78
12, 56434, Control_c, 12, 11, 80
12, 56460, Control_c, 12, 11, 82
12, 56486, Control_c, 12, 11, 84
12, 56506, Note_on_c, 12, 56, 0
12, 56512, Control_c, 12, 11, 86
12, 56526, Note_on_c, 12, 57, 102
12, 56626, Note_on_c, 12, 57, 0
12, 56646, Note_on_c, 12, 69, 102
12, 56746, Note_on_c, 12, 69, 0
12, 56766, Note_on_c, 12, 69, 102
12, 56866, Note_on_c, 12, 69, 0
12, 56886, Note_on_c, 12, 62, 102
12, 57006, Note_on_c, 12, 62, 0
12, 57246, Control_c, 12, 11, 47
12, 57246, Note_on_c, 12, 50, 102
12, 57264, Control_c, 12, 11, 48
12, 57282, Control_c, 12, 11, 49
12, 57300, Control_c, 12, 11, 50
12, 57318, Control_c, 12, 11, 51
12, 57336, Control_c, 12, 11, 52
12, 57354, Control_c, 12, 11, 53
12, 57366, Note_on_c, 12, 50, 0
12, 57366, Note_on_c, 12, 52, 102
12, 57372, Control_c, 12, 11, 54
12, 57390, Control_c, 12, 11, 55
12, 57408, Control_c, 12, 11, 56
12, 57426, Control_c, 12, 11, 57
12, 57444, Control_c, 12, 11, 58
12, 57462, Control_c, 12, 11, 59
12, 57480, Control_c, 12, 11, 60
12, 57486, Note_on_c, 12, 52, 0
12, 57486, Note_on_c, 12, 53, 102
12, 57498, Control_c, 12, 11, 61
12, 57516, Control_c, 12, 11, 62
12, 57534, Control_c, 12, 11, 63
12, 57552, Control_c, 12, 11, 64
12, 57570, Control_c, 12, 11, 65
12, 57588, Control_c, 12, 11, 66
12, 57606, Note_on_c, 12, 53, 0
12, 57606, Control_c, 12, 11, 67
12, 57606, Note_on_c, 12, 54, 102
12, 57624, Control_c, 12, 11, 68
12, 57642, Control_c, 12, 11, 69
12, 57660, Control_c, 12, 11, 70
12, 57678, Control_c, 12, 11, 71
12, 57696, Control_c, 12, 11, 72
12, 57714, Control_c, 12, 11, 73
12, 57726, Note_on_c, 12, 54, 0
12, 57726, Note_on_c, 12, 55, 102
12, 57732, Control_c, 12, 11, 74
12, 57750, Control_c, 12, 11, 75
12, 57768, Control_c, 12, 11, 76
12, 57786, Control_c, 12, 11, 77
12, 57804, Control_c, 12, 11, 78
12, 57822, Control_c, 12, 11, 79
12, 57840, Control_c, 12, 11, 80
12, 57846, Note_on_c, 12, 55, 0
12, 57846, Note_on_c, 12, 56, 102
12, 57858, Control_c, 12, 11, 81
12, 57876, Control_c, 12, 11, 82
12, 57894, Control_c, 12, 11, 83
12, 57912, Control_c, 12, 11, 84
12, 57930, Control_c, 12, 11, 85
12, 57946, Note_on_c, 12, 56, 0
12, 57948, Control_c, 12, 11, 86
12, 57966, Control_c, 12, 11, 93
12, 57966, Note_on_c, 12, 57, 102
12, 57976, Control_c, 12, 11, 96
12, 57987, Control_c, 12, 11, 99
12, 57997, Control_c, 12, 11, 102
12, 58019, Control_c, 12, 11, 101
12, 58037, Control_c, 12, 11, 99
12, 58055, Control_c, 12, 11, 97
12, 58066, Note_on_c, 12, 57, 0
12, 58073, Control_c, 12, 11, 95
12, 58086, Note_on_c, 12, 69, 102
12, 58091, Control_c, 12, 11, 93
12, 58109, Control_c, 12, 11, 91
12, 58127, Control_c, 12, 11, 89
12, 58145, Control_c, 12, 11, 87
12, 58186, Note_on_c, 12, 69, 0
12, 58206, Note_on_c, 12, 69, 102
12, 58306, Note_on_c, 12, 69, 0
12, 58326, Note_on_c, 12, 74, 102
12, 58446, Note_on_c, 12, 74, 0
12, 58686, Note_on_c, 12, 57, 102
12, 58686, Control_c, 12, 11, 93
12, 58696, Control_c, 12, 11, 96
12, 58707, Control_c, 12, 11, 99
12, 58717, Control_c, 12, 11, 102
12, 58739, Control_c, 12, 11, 101
12, 58757, Control_c, 12, 11, 99
12, 58775, Control_c, 12, 11, 97
12, 58786, Note_on_c, 12, 57, 0
12, 58793, Control_c, 12, 11, 95
12, 58806, Note_on_c, 12, 69, 102
12, 58811, Control_c, 12, 11, 93
12, 58829, Control_c, 12, 11, 91
12, 58847, Control_c, 12, 11, 89
12, 58865, Control_c, 12, 11, 87
12, 58906, Note_on_c, 12, 69, 0
12, 58926, Note_on_c, 12, 69, 102
12, 59026, Note_on_c, 12, 69, 0
12, 59046, Note_on_c, 12, 74, 102
12, 59166, Note_on_c, 12, 74, 0
12, 59406, Control_c, 12, 11, 102
12, 59406, Note_on_c, 12, 57, 102
12, 59526, Note_on_c, 12, 57, 0
12, 59526, Note_on_c, 12, 61, 102
12, 59646, Note_on_c, 12, 61, 0
12, 59646, Note_on_c, 12, 64, 102
12, 59766, Note_on_c, 12, 64, 0
12, 59766, Note_on_c, 12, 69, 102
12, 59886, Note_on_c, 12, 69, 0
12, 59886, Note_on_c, 12, 71, 102
12, 60006, Note_on_c, 12, 71, 0
12, 60006, Note_on_c, 12, 73, 102
12, 60106, Note_on_c, 12, 73, 0
12, 60126, Note_on_c, 12, 74, 102
12, 60246, Note_on_c, 12, 74, 0
12, 60366, Note_on_c, 12, 69, 102
12, 60426, Note_on_c, 12, 69, 0
12, 60486, Note_on_c, 12, 62, 102
12, 60546, Note_on_c, 12, 62, 0
12, 66606, Control_c, 12, 11, 87
12, 66606, Note_on_c, 12, 54, 102
12, 66756, Note_on_c, 12, 54, 0
12, 66966, Control_c, 12, 11, 107
12, 66966, Note_on_c, 12, 54, 102
12, 67026, Control_c, 12, 11, 104
12, 67044, Control_c, 12, 11, 101
12, 67062, Control_c, 12, 11, 98
12, 67080, Control_c, 12, 11, 95
12, 67098, Control_c, 12, 11, 92
12, 67116, Note_on_c, 12, 54, 0
12, 67116, Control_c, 12, 11, 89
12, 67326, Note_on_c, 12, 54, 102
12, 67386, Note_on_c, 12, 54, 0
12, 67386, Note_on_c, 12, 53, 102
12, 67426, Note_on_c, 12, 53, 0
12, 67446, Note_on_c, 12, 54, 102
12, 67506, Note_on_c, 12, 54, 0
12, 67506, Note_on_c, 12, 53, 102
12, 67546, Note_on_c, 12, 53, 0
12, 67566, Note_on_c, 12, 54, 102
12, 67626, Note_on_c, 12, 54, 0
12, 67626, Note_on_c, 12, 53, 102
12, 67666, Note_on_c, 12, 53, 0
12, 67686, Note_on_c, 12, 54, 102
12, 67746, Note_on_c, 12, 54, 0
12, 67746, Note_on_c, 12, 53, 102
12, 67786, Note_on_c, 12, 53, 0
12, 67806, Note_on_c, 12, 54, 102
12, 67866, Note_on_c, 12, 54, 0
12, 67866, Note_on_c, 12, 53, 102
12, 67906, Note_on_c, 12, 53, 0
12, 67926, Note_on_c, 12, 54, 102
12, 67986, Note_on_c, 12, 54, 0
12, 67986, Note_on_c, 12, 53, 102
12, 68026, Note_on_c, 12, 53, 0
12, 68046, Note_on_c, 12, 54, 102
12, 68106, Note_on_c, 12, 54, 0
12, 68166, Note_on_c, 12, 58, 102
12, 68226, Note_on_c, 12, 58, 0
12, 68286, Note_on_c, 12, 61, 102
12, 68346, Note_on_c, 12, 61, 0
12, 68406, Control_c, 12, 11, 107
12, 68406, Note_on_c, 12, 66, 102
12, 68423, Control_c, 12, 11, 104
12, 68441, Control_c, 12, 11, 101
12, 68459, Control_c, 12, 11, 98
12, 68466, Note_on_c, 12, 66, 0
12, 68477, Control_c, 12, 11, 95
12, 68495, Control_c, 12, 11, 92
12, 68513, Control_c, 12, 11, 89
12, 68526, Note_on_c, 12, 61, 102
12, 68586, Note_on_c, 12, 61, 0
12, 68646, Note_on_c, 12, 58, 102
12, 68706, Note_on_c, 12, 58, 0
12, 68766, Note_on_c, 12, 54, 102
12, 68826, Note_on_c, 12, 54, 0
12, 68886, Note_on_c, 12, 58, 102
12, 68946, Note_on_c, 12, 58, 0
12, 69006, Note_on_c, 12, 61, 102
12, 69066, Note_on_c, 12, 61, 0
12, 69126, Control_c, 12, 11, 107
12, 69126, Note_on_c, 12, 66, 102
12, 69143, Control_c, 12, 11, 104
12, 69161, Control_c, 12, 11, 101
12, 69179, Control_c, 12, 11, 98
12, 69186, Note_on_c, 12, 66, 0
12, 69197, Control_c, 12, 11, 95
12, 69215, Control_c, 12, 11, 92
12, 69233, Control_c, 12, 11, 89
12, 69246, Note_on_c, 12, 61, 102
12, 69306, Note_on_c, 12, 61, 0
12, 69366, Note_on_c, 12, 58, 102
12, 69426, Note_on_c, 12, 58, 0
12, 69426, Control_c, 12, 11, 87
12, 69435, Control_c, 12, 11, 84
12, 69444, Control_c, 12, 11, 81
12, 69453, Control_c, 12, 11, 78
12, 69462, Control_c, 12, 11, 75
12, 69471, Control_c, 12, 11, 72
12, 69480, Control_c, 12, 11, 69
12, 69486, Note_on_c, 12, 54, 102
12, 69489, Control_c, 12, 11, 66
12, 69498, Control_c, 12, 11, 63
12, 69507, Control_c, 12, 11, 60
12, 69516, Control_c, 12, 11, 57
12, 69525, Control_c, 12, 11, 54
12, 69531, Note_on_c, 12, 54, 0
12, 69534, Control_c, 12, 11, 51
12, 69543, Control_c, 12, 11, 48
12, 69546, Note_on_c, 12, 54, 102
12, 69591, Note_on_c, 12, 54, 0
12, 69606, Control_c, 12, 11, 47
12, 69606, Note_on_c, 12, 54, 102
12, 69651, Note_on_c, 12, 54, 0
12, 69666, Note_on_c, 12, 54, 102
12, 69672, Control_c, 12, 11, 46
12, 69711, Note_on_c, 12, 54, 0
12, 69726, Note_on_c, 12, 54, 102
12, 69738, Control_c, 12, 11, 45
12, 69771, Note_on_c, 12, 54, 0
12, 69786, Note_on_c, 12, 54, 102
12, 69804, Control_c, 12, 11, 44
12, 69831, Note_on_c, 12, 54, 0
12, 69846, Note_on_c, 12, 54, 102
12, 69870, Control_c, 12, 11, 43
12, 69891, Note_on_c, 12, 54, 0
12, 69906, Note_on_c, 12, 54, 102
12, 69936, Control_c, 12, 11, 42
12, 69951, Note_on_c, 12, 54, 0
12, 69966, Note_on_c, 12, 54, 102
12, 70002, Control_c, 12, 11, 41
12, 70011, Note_on_c, 12, 54, 0
12, 70026, Note_on_c, 12, 54, 102
12, 70068, Control_c, 12, 11, 40
12, 70071, Note_on_c, 12, 54, 0
12, 70086, Note_on_c, 12, 54, 102
12, 70131, Note_on_c, 12, 54, 0
12, 70134, Control_c, 12, 11, 39
12, 70146, Note_on_c, 12, 54, 102
12, 70191, Note_on_c, 12, 54, 0
12, 70200, Control_c, 12, 11, 38
12, 70206, Note_on_c, 12, 54, 102
12, 70251, Note_on_c, 12, 54, 0
12, 70266, Control_c, 12, 11, 37
12, 70266, Note_on_c, 12, 54, 102
12, 70311, Note_on_c, 12, 54, 0
12, 70326, Note_on_c, 12, 54, 102
12, 70332, Control_c, 12, 11, 36
12, 70371, Note_on_c, 12, 54, 0
12, 70386, Note_on_c, 12, 54, 102
12, 70398, Control_c, 12, 11, 35
12, 70431, Note_on_c, 12, 54, 0
12, 70446, Note_on_c, 12, 54, 102
12, 70464, Control_c, 12, 11, 34
12, 70491, Note_on_c, 12, 54, 0
12, 70506, Note_on_c, 12, 54, 102
12, 70530, Control_c, 12, 11, 33
12, 70551, Note_on_c, 12, 54, 0
12, 70566, Note_on_c, 12, 54, 102
12, 70596, Control_c, 12, 11, 32
12, 70611, Note_on_c, 12, 54, 0
12, 70626, Note_on_c, 12, 54, 102
12, 70662, Control_c, 12, 11, 31
12, 70671, Note_on_c, 12, 54, 0
12, 70686, Note_on_c, 12, 54, 102
12, 70728, Control_c, 12, 11, 30
12, 70731, Note_on_c, 12, 54, 0
12, 70746, Note_on_c, 12, 54, 102
12, 70791, Note_on_c, 12, 54, 0
12, 70794, Control_c, 12, 11, 29
12, 70806, Note_on_c, 12, 54, 102
12, 70851, Note_on_c, 12, 54, 0
12, 70860, Control_c, 12, 11, 28
12, 70866, Note_on_c, 12, 54, 102
12, 70911, Note_on_c, 12, 54, 0
12, 70926, Control_c, 12, 11, 27
12, 70926, Note_on_c, 12, 54, 102
12, 71005, Control_c, 12, 11, 26
12, 71085, Control_c, 12, 11, 25
12, 71165, Control_c, 12, 11, 24
12, 71245, Control_c, 12, 11, 23
12, 71325, Control_c, 12, 11, 22
12, 71405, Control_c, 12, 11, 21
12, 71485, Control_c, 12, 11, 20
12, 71565, Control_c, 12, 11, 19
12, 71616, Note_on_c, 12, 54, 0
12, 71645, Control_c, 12, 11, 18
12, 72246, Control_c, 12, 11, 102
12, 72246, Note_on_c, 12, 57, 102
12, 72365, Control_c, 12, 11, 87
12, 72366, Note_on_c, 12, 57, 0
12, 72366, Control_c, 12, 11, 84
12, 72366, Note_on_c, 12, 62, 102
12, 72368, Control_c, 12, 11, 79
12, 72370, Control_c, 12, 11, 74
12, 72372, Control_c, 12, 11, 69
12, 72374, Control_c, 12, 11, 64
12, 72376, Control_c, 12, 11, 59
12, 72378, Control_c, 12, 11, 54
12, 72380, Control_c, 12, 11, 49
12, 72486, Note_on_c, 12, 62, 0
12, 75245, Program_c, 12, 45
12, 75246, Control_c, 12, 11, 100
12, 75246, Note_on_c, 12, 50, 24
12, 75366, Note_on_c, 12, 50, 0
12, 75366, Note_on_c, 12, 62, 24
12, 75486, Note_on_c, 12, 62, 0
12, 75486, Note_on_c, 12, 61, 24
12, 75606, Note_on_c, 12, 61, 0
12, 75606, Note_on_c, 12, 59, 24
12, 75726, Note_on_c, 12, 59, 0
12, 75726, Note_on_c, 12, 57, 24
12, 75846, Note_on_c, 12, 57, 0
12, 75846, Note_on_c, 12, 55, 24
12, 75966, Note_on_c, 12, 55, 0
12, 75966, Note_on_c, 12, 54, 24
12, 76086, Note_on_c, 12, 54, 0
12, 76086, Note_on_c, 12, 52, 24
12, 76206, Note_on_c, 12, 52, 0
12, 76206, Note_on_c, 12, 50, 24
12, 76326, Note_on_c, 12, 50, 0
12, 76326, Note_on_c, 12, 57, 24
12, 76446, Note_on_c, 12, 57, 0
12, 76566, Note_on_c, 12, 54, 24
12, 76686, Note_on_c, 12, 54, 0
12, 76686, Note_on_c, 12, 52, 24
12, 76806, Note_on_c, 12, 52, 0
12, 76806, Note_on_c, 12, 64, 29
12, 76926, Note_on_c, 12, 64, 0
12, 76926, Note_on_c, 12, 62, 36
12, 77046, Note_on_c, 12, 62, 0
12, 77046, Note_on_c, 12, 61, 51
12, 77166, Note_on_c, 12, 61, 0
12, 77166, Note_on_c, 12, 59, 42
12, 77286, Note_on_c, 12, 59, 0
12, 77286, Note_on_c, 12, 57, 42
12, 77406, Note_on_c, 12, 57, 0
12, 77406, Note_on_c, 12, 62, 24
12, 77526, Note_on_c, 12, 62, 0
12, 77526, Note_on_c, 12, 55, 24
12, 77646, Note_on_c, 12, 55, 0
12, 77646, Note_on_c, 12, 57, 24
12, 77766, Note_on_c, 12, 57, 0
12, 77766, Note_on_c, 12, 50, 24
12, 77886, Note_on_c, 12, 50, 0
12, 78006, Note_on_c, 12, 57, 24
12, 78126, Note_on_c, 12, 57, 0
12, 78126, Note_on_c, 12, 62, 24
12, 78246, Note_on_c, 12, 62, 0
12, 78246, Note_on_c, 12, 55, 24
12, 78366, Note_on_c, 12, 55, 0
12, 78366, Note_on_c, 12, 57, 24
12, 78486, Note_on_c, 12, 57, 0
12, 78486, Note_on_c, 12, 50, 24
12, 78606, Note_on_c, 12, 50, 0
12, 78726, Note_on_c, 12, 57, 33
12, 78846, Note_on_c, 12, 57, 0
12, 78846, Note_on_c, 12, 62, 38
12, 78966, Note_on_c, 12, 62, 0
12, 79086, Note_on_c, 12, 57, 47
12, 79206, Note_on_c, 12, 57, 0
12, 79206, Note_on_c, 12, 62, 51
12, 79326, Note_on_c, 12, 62, 0
12, 79446, Note_on_c, 12, 57, 24
12, 79566, Note_on_c, 12, 57, 0
12, 79566, Note_on_c, 12, 62, 24
12, 79686, Note_on_c, 12, 62, 0
12, 79686, Note_on_c, 12, 55, 24
12, 79806, Note_on_c, 12, 55, 0
12, 79806, Note_on_c, 12, 57, 24
12, 79926, Note_on_c, 12, 57, 0
12, 79926, Note_on_c, 12, 50, 24
12, 80046, Note_on_c, 12, 50, 0
12, 80285, Program_c, 12, 48
12, 80286, Control_c, 12, 11, 87
12, 80286, Note_on_c, 12, 54, 102
12, 80436, Note_on_c, 12, 54, 0
12, 80646, Control_c, 12, 11, 107
12, 80646, Note_on_c, 12, 54, 102
12, 80706, Control_c, 12, 11, 104
12, 80724, Control_c, 12, 11, 101
12, 80742, Control_c, 12, 11, 98
12, 80760, Control_c, 12, 11, 95
12, 80778, Control_c, 12, 11, 92
12, 80796, Note_on_c, 12, 54, 0
12, 80796, Control_c, 12, 11, 89
12, 81006, Note_on_c, 12, 54, 102
12, 81066, Note_on_c, 12, 54, 0
12, 81066, Note_on_c, 12, 53, 102
12, 81106, Note_on_c, 12, 53, 0
12, 81126, Note_on_c, 12, 54, 102
12, 81186, Note_on_c, 12, 54, 0
12, 81186, Note_on_c, 12, 53, 102
12, 81226, Note_on_c, 12, 53, 0
12, 81246, Note_on_c, 12, 54, 102
12, 81306, Note_on_c, 12, 54, 0
12, 81306, Note_on_c, 12, 53, 102
12, 81346, Note_on_c, 12, 53, 0
12, 81366, Note_on_c, 12, 54, 102
12, 81426, Note_on_c, 12, 54, 0
12, 81426, Note_on_c, 12, 53, 102
12, 81466, Note_on_c, 12, 53, 0
12, 81486, Note_on_c, 12, 54, 102
12, 81546, Note_on_c, 12, 54, 0
12, 81546, Note_on_c, 12, 53, 102
12, 81586, Note_on_c, 12, 53, 0
12, 81606, Note_on_c, 12, 54, 102
12, 81666, Note_on_c, 12, 54, 0
12, 81666, Note_on_c, 12, 53, 102
12, 81706, Note_on_c, 12, 53, 0
12, 81726, Note_on_c, 12, 54, 102
12, 81786, Note_on_c, 12, 54, 0
12, 81846, Note_on_c, 12, 58, 102
12, 81906, Note_on_c, 12, 58, 0
12, 81966, Note_on_c, 12, 61, 102
12, 82026, Note_on_c, 12, 61, 0
12, 82086, Control_c, 12, 11, 107
12, 82086, Note_on_c, 12, 66, 102
12, 82103, Control_c, 12, 11, 104
12, 82121, Control_c, 12, 11, 101
12, 82139, Control_c, 12, 11, 98
12, 82146, Note_on_c, 12, 66, 0
12, 82157, Control_c, 12, 11, 95
12, 82175, Control_c, 12, 11, 92
12, 82193, Control_c, 12, 11, 89
12, 82206, Note_on_c, 12, 61, 102
12, 82266, Note_on_c, 12, 61, 0
12, 82326, Note_on_c, 12, 58, 102
12, 82386, Note_on_c, 12, 58, 0
12, 82446, Note_on_c, 12, 54, 102
12, 82506, Note_on_c, 12, 54, 0
12, 82566, Note_on_c, 12, 58, 102
12, 82626, Note_on_c, 12, 58, 0
12, 82686, Note_on_c, 12, 61, 102
12, 82746, Note_on_c, 12, 61, 0
12, 82806, Control_c, 12, 11, 107
12, 82806, Note_on_c, 12, 66, 102
12, 82823, Control_c, 12, 11, 104
12, 82841, Control_c, 12, 11, 101
12, 82859, Control_c, 12, 11, 98
12, 82866, Note_on_c, 12, 66, 0
12, 82877, Control_c, 12, 11, 95
12, 82895, Control_c, 12, 11, 92
12, 82913, Control_c, 12, 11, 89
12, 82926, Note_on_c, 12, 61, 102
12, 82986, Note_on_c, 12, 61, 0
12, 83046, Note_on_c, 12, 58, 102
12, 83106, Note_on_c, 12, 58, 0
12, 83106, Control_c, 12, 11, 87
12, 83115, Control_c, 12, 11, 84
12, 83124, Control_c, 12, 11, 81
12, 83133, Control_c, 12, 11, 78
12, 83142, Control_c, 12, 11, 75
12, 83151, Control_c, 12, 11, 72
12, 83160, Control_c, 12, 11, 69
12, 83166, Note_on_c, 12, 54, 102
12, 83169, Control_c, 12, 11, 66
12, 83178, Control_c, 12, 11, 63
12, 83187, Control_c, 12, 11, 60
12, 83196, Control_c, 12, 11, 57
12, 83205, Control_c, 12, 11, 54
12, 83211, Note_on_c, 12, 54, 0
12, 83214, Control_c, 12, 11, 51
12, 83223, Control_c, 12, 11, 48
12, 83226, Note_on_c, 12, 54, 102
12, 83271, Note_on_c, 12, 54, 0
12, 83286, Control_c, 12, 11, 47
12, 83286, Note_on_c, 12, 54, 102
12, 83331, Note_on_c, 12, 54, 0
12, 83346, Note_on_c, 12, 54, 102
12, 83352, Control_c, 12, 11, 46
12, 83391, Note_on_c, 12, 54, 0
12, 83406, Note_on_c, 12, 54, 102
12, 83418, Control_c, 12, 11, 45
12, 83451, Note_on_c, 12, 54, 0
12, 83466, Note_on_c, 12, 54, 102
12, 83484, Control_c, 12, 11, 44
12, 83511, Note_on_c, 12, 54, 0
12, 83526, Note_on_c, 12, 54, 102
12, 83550, Control_c, 12, 11, 43
12, 83571, Note_on_c, 12, 54, 0
12, 83586, Note_on_c, 12, 54, 102
12, 83616, Control_c, 12, 11, 42
12, 83631, Note_on_c, 12, 54, 0
12, 83646, Note_on_c, 12, 54, 102
12, 83682, Control_c, 12, 11, 41
12, 83691, Note_on_c, 12, 54, 0
12, 83706, Note_on_c, 12, 54, 102
12, 83748, Control_c, 12, 11, 40
12, 83751, Note_on_c, 12, 54, 0
12, 83766, Note_on_c, 12, 54, 102
12, 83811, Note_on_c, 12, 54, 0
12, 83814, Control_c, 12, 11, 39
12, 83826, Note_on_c, 12, 54, 102
12, 83871, Note_on_c, 12, 54, 0
12, 83880, Control_c, 12, 11, 38
12, 83886, Note_on_c, 12, 54, 102
12, 83931, Note_on_c, 12, 54, 0
12, 83946, Control_c, 12, 11, 37
12, 83946, Note_on_c, 12, 54, 102
12, 83991, Note_on_c, 12, 54, 0
12, 84006, Note_on_c, 12, 54, 102
12, 84012, Control_c, 12, 11, 36
12, 84051, Note_on_c, 12, 54, 0
12, 84066, Note_on_c, 12, 54, 102
12, 84078, Control_c, 12, 11, 35
12, 84111, Note_on_c, 12, 54, 0
12, 84126, Note_on_c, 12, 54, 102
12, 84144, Control_c, 12, 11, 34
12, 84171, Note_on_c, 12, 54, 0
12, 84186, Note_on_c, 12, 54, 102
12, 84210, Control_c, 12, 11, 33
12, 84231, Note_on_c, 12, 54, 0
12, 84246, Note_on_c, 12, 54, 102
12, 84276, Control_c, 12, 11, 32
12, 84291, Note_on_c, 12, 54, 0
12, 84306, Note_on_c, 12, 54, 102
12, 84342, Control_c, 12, 11, 31
12, 84351, Note_on_c, 12, 54, 0
12, 84366, Note_on_c, 12, 54, 102
12, 84408, Control_c, 12, 11, 30
12, 84411, Note_on_c, 12, 54, 0
12, 84426, Note_on_c, 12, 54, 102
12, 84471, Note_on_c, 12, 54, 0
12, 84474, Control_c, 12, 11, 29
12, 84486, Note_on_c, 12, 54, 102
12, 84531, Note_on_c, 12, 54, 0
12, 84540, Control_c, 12, 11, 28
12, 84546, Note_on_c, 12, 54, 102
12, 84591, Note_on_c, 12, 54, 0
12, 84606, Control_c, 12, 11, 27
12, 84606, Note_on_c, 12, 54, 102
12, 84685, Control_c, 12, 11, 26
12, 84765, Control_c, 12, 11, 25
12, 84845, Control_c, 12, 11, 24
12, 84925, Control_c, 12, 11, 23
12, 85005, Control_c, 12, 11, 22
12, 85085, Control_c, 12, 11, 21
12, 85165, Control_c, 12, 11, 20
12, 85245, Control_c, 12, 11, 19
12, 85296, Note_on_c, 12, 54, 0
12, 85325, Control_c, 12, 11, 18
12, 85926, Control_c, 12, 11, 102
12, 85926, Note_on_c, 12, 57, 102
12, 86045, Control_c, 12, 11, 87
12, 86046, Note_on_c, 12, 57, 0
12, 86046, Control_c, 12, 11, 84
12, 86046, Note_on_c, 12, 62, 102
12, 86048, Control_c, 12, 11, 79
12, 86050, Control_c, 12, 11, 74
12, 86052, Control_c, 12, 11, 69
12, 86054, Control_c, 12, 11, 64
12, 86056, Control_c, 12, 11, 59
12, 86058, Control_c, 12, 11, 54
12, 86060, Control_c, 12, 11, 49
12, 86166, Note_on_c, 12, 62, 0
12, 88925, Program_c, 12, 45
12, 88926, Control_c, 12, 11, 100
12, 88926, Note_on_c, 12, 50, 24
12, 89046, Note_on_c, 12, 50, 0
12, 89046, Note_on_c, 12, 62, 24
12, 89166, Note_on_c, 12, 62, 0
12, 89166, Note_on_c, 12, 61, 24
12, 89286, Note_on_c, 12, 61, 0
12, 89286, Note_on_c, 12, 59, 24
12, 89406, Note_on_c, 12, 59, 0
12, 89406, Note_on_c, 12, 57, 24
12, 89526, Note_on_c, 12, 57, 0
12, 89526, Note_on_c, 12, 55, 24
12, 89646, Note_on_c, 12, 55, 0
12, 89646, Note_on_c, 12, 54, 24
12, 89766, Note_on_c, 12, 54, 0
12, 89766, Note_on_c, 12, 52, 24
12, 89886, Note_on_c, 12, 52, 0
12, 89886, Note_on_c, 12, 50, 24
12, 90006, Note_on_c, 12, 50, 0
12, 90006, Note_on_c, 12, 57, 24
12, 90126, Note_on_c, 12, 57, 0
12, 90246, Note_on_c, 12, 54, 24
12, 90366, Note_on_c, 12, 54, 0
12, 90366, Note_on_c, 12, 52, 24
12, 90486, Note_on_c, 12, 52, 0
12, 90486, Note_on_c, 12, 64, 29
12, 90606, Note_on_c, 12, 64, 0
12, 90606, Note_on_c, 12, 62, 36
12, 90726, Note_on_c, 12, 62, 0
12, 90726, Note_on_c, 12, 61, 51
12, 90846, Note_on_c, 12, 61, 0
12, 90846, Note_on_c, 12, 59, 42
12, 90966, Note_on_c, 12, 59, 0
12, 90966, Note_on_c, 12, 57, 42
12, 91086, Note_on_c, 12, 57, 0
12, 91086, Note_on_c, 12, 62, 24
12, 91206, Note_on_c, 12, 62, 0
12, 91206, Note_on_c, 12, 55, 24
12, 91326, Note_on_c, 12, 55, 0
12, 91326, Note_on_c, 12, 57, 24
12, 91446, Note_on_c, 12, 57, 0
12, 91446, Note_on_c, 12, 50, 24
12, 91566, Note_on_c, 12, 50, 0
12, 91686, Note_on_c, 12, 57, 24
12, 91806, Note_on_c, 12, 57, 0
12, 91806, Note_on_c, 12, 62, 24
12, 91926, Note_on_c, 12, 62, 0
12, 91926, Note_on_c, 12, 55, 24
12, 92046, Note_on_c, 12, 55, 0
12, 92046, Note_on_c, 12, 57, 24
12, 92166, Note_on_c, 12, 57, 0
12, 92166, Note_on_c, 12, 50, 24
12, 92286, Note_on_c, 12, 50, 0
12, 92406, Note_on_c, 12, 57, 33
12, 92526, Note_on_c, 12, 57, 0
12, 92526, Note_on_c, 12, 62, 38
12, 92646, Note_on_c, 12, 62, 0
12, 92766, Note_on_c, 12, 57, 47
12, 92886, Note_on_c, 12, 57, 0
12, 92886, Note_on_c, 12, 62, 51
12, 93006, Note_on_c, 12, 62, 0
12, 93126, Note_on_c, 12, 57, 24
12, 93246, Note_on_c, 12, 57, 0
12, 93246, Note_on_c, 12, 62, 24
12, 93366, Note_on_c, 12, 62, 0
12, 93366, Note_on_c, 12, 55, 24
12, 93486, Note_on_c, 12, 55, 0
12, 93486, Note_on_c, 12, 57, 24
12, 93606, Note_on_c, 12, 57, 0
12, 93606, Note_on_c, 12, 50, 24
12, 93726, Note_on_c, 12, 50, 0
12, 93965, Program_c, 12, 48
12, 93966, Control_c, 12, 11, 87
12, 93966, Note_on_c, 12, 62, 102
12, 94026, Note_on_c, 12, 62, 0
12, 94086, Note_on_c, 12, 64, 102
12, 94146, Note_on_c, 12, 64, 0
12, 94206, Note_on_c, 12, 66, 102
12, 94266, Note_on_c, 12, 66, 0
12, 94686, Note_on_c, 12, 55, 102
12, 94746, Note_on_c, 12, 55, 0
12, 94806, Note_on_c, 12, 57, 102
12, 94866, Note_on_c, 12, 57, 0
12, 94926, Note_on_c, 12, 59, 102
12, 94986, Note_on_c, 12, 59, 0
12, 96486, Control_c, 12, 11, 102
12, 96486, Note_on_c, 12, 62, 102
12, 96546, Note_on_c, 12, 62, 0
12, 96606, Note_on_c, 12, 57, 102
12, 96666, Note_on_c, 12, 57, 0
12, 96726, Note_on_c, 12, 62, 102
12, 96786, Note_on_c, 12, 62, 0
12, 96846, Control_c, 12, 11, 87
12, 96846, Note_on_c, 12, 62, 102
12, 96906, Note_on_c, 12, 62, 0
12, 96966, Note_on_c, 12, 64, 102
12, 97026, Note_on_c, 12, 64, 0
12, 97086, Note_on_c, 12, 66, 102
12, 97146, Note_on_c, 12, 66, 0
12, 97566, Note_on_c, 12, 56, 102
12, 97626, Note_on_c, 12, 56, 0
12, 97686, Note_on_c, 12, 57, 102
12, 97746, Note_on_c, 12, 57, 0
12, 97806, Note_on_c, 12, 59, 102
12, 97866, Note_on_c, 12, 59, 0
12, 98286, Control_c, 12, 11, 47
12, 98286, Note_on_c, 12, 57, 102
12, 98337, Note_on_c, 12, 57, 0
12, 98406, Note_on_c, 12, 59, 102
12, 98457, Note_on_c, 12, 59, 0
12, 98526, Note_on_c, 12, 61, 102
12, 98577, Note_on_c, 12, 61, 0
12, 99726, Control_c, 12, 11, 87
12, 99726, Note_on_c, 12, 62, 102
12, 99786, Note_on_c, 12, 62, 0
12, 99846, Note_on_c, 12, 64, 102
12, 99906, Note_on_c, 12, 64, 0
12, 99966, Note_on_c, 12, 66, 102
12, 100026, Note_on_c, 12, 66, 0
12, 100446, Note_on_c, 12, 55, 102
12, 100506, Note_on_c, 12, 55, 0
12, 100566, Note_on_c, 12, 57, 102
12, 100626, Note_on_c, 12, 57, 0
12, 100686, Note_on_c, 12, 59, 102
12, 100746, Note_on_c, 12, 59, 0
12, 102246, Control_c, 12, 11, 102
12, 102246, Note_on_c, 12, 62, 102
12, 102306, Note_on_c, 12, 62, 0
12, 102366, Note_on_c, 12, 57, 102
12, 102426, Note_on_c, 12, 57, 0
12, 102486, Note_on_c, 12, 62, 102
12, 102546, Note_on_c, 12, 62, 0
12, 102606, Control_c, 12, 11, 87
12, 102606, Note_on_c, 12, 62, 102
12, 102666, Note_on_c, 12, 62, 0
12, 102726, Note_on_c, 12, 64, 102
12, 102786, Note_on_c, 12, 64, 0
12, 102846, Note_on_c, 12, 66, 102
12, 102906, Note_on_c, 12, 66, 0
12, 103326, Note_on_c, 12, 56, 102
12, 103386, Note_on_c, 12, 56, 0
12, 103446, Note_on_c, 12, 57, 102
12, 103506, Note_on_c, 12, 57, 0
12, 103566, Note_on_c, 12, 59, 102
12, 103626, Note_on_c, 12, 59, 0
12, 104046, Control_c, 12, 11, 47
12, 104046, Note_on_c, 12, 57, 102
12, 104097, Note_on_c, 12, 57, 0
12, 104166, Note_on_c, 12, 59, 102
12, 104217, Note_on_c, 12, 59, 0
12, 104286, Note_on_c, 12, 61, 102
12, 104337, Note_on_c, 12, 61, 0
12, 105486, Control_c, 12, 11, 47
12, 105486, Note_on_c, 12, 57, 102
12, 105546, Note_on_c, 12, 57, 0
12, 105606, Note_on_c, 12, 59, 102
12, 105666, Note_on_c, 12, 59, 0
12, 105726, Note_on_c, 12, 61, 102
12, 105786, Note_on_c, 12, 61, 0
12, 105846, Note_on_c, 12, 62, 102
12, 105966, Note_on_c, 12, 62, 0
12, 106206, Note_on_c, 12, 53, 102
12, 106266, Note_on_c, 12, 53, 0
12, 106326, Note_on_c, 12, 55, 102
12, 106386, Note_on_c, 12, 55, 0
12, 106446, Note_on_c, 12, 57, 102
12, 106506, Note_on_c, 12, 57, 0
12, 106566, Note_on_c, 12, 58, 102
12, 106686, Note_on_c, 12, 58, 0
12, 106926, Note_on_c, 12, 53, 102
12, 106986, Note_on_c, 12, 53, 0
12, 107046, Control_c, 12, 11, 72
12, 107046, Note_on_c, 12, 53, 102
12, 107054, Control_c, 12, 11, 75
12, 107063, Control_c, 12, 11, 78
12, 107072, Control_c, 12, 11, 81
12, 107087, Control_c, 12, 11, 80
12, 107105, Control_c, 12, 11, 77
12, 107123, Control_c, 12, 11, 74
12, 107141, Control_c, 12, 11, 71
12, 107159, Control_c, 12, 11, 68
12, 107177, Control_c, 12, 11, 65
12, 107195, Control_c, 12, 11, 62
12, 107213, Control_c, 12, 11, 59
12, 107231, Control_c, 12, 11, 56
12, 107249, Control_c, 12, 11, 53
12, 107267, Control_c, 12, 11, 50
12, 107285, Control_c, 12, 11, 47
12, 107746, Note_on_c, 12, 53, 0
12, 107766, Note_on_c, 12, 53, 102
12, 107866, Note_on_c, 12, 53, 0
12, 107886, Note_on_c, 12, 53, 102
12, 107986, Note_on_c, 12, 53, 0
12, 108006, Note_on_c, 12, 53, 102
12, 108106, Note_on_c, 12, 53, 0
12, 108126, Note_on_c, 12, 53, 102
12, 108226, Note_on_c, 12, 53, 0
12, 108246, Note_on_c, 12, 53, 102
12, 108346, Note_on_c, 12, 53, 0
12, 108366, Note_on_c, 12, 53, 102
12, 108426, Note_on_c, 12, 53, 0
12, 108486, Control_c, 12, 11, 72
12, 108486, Note_on_c, 12, 53, 102
12, 108494, Control_c, 12, 11, 75
12, 108503, Control_c, 12, 11, 78
12, 108512, Control_c, 12, 11, 81
12, 108527, Control_c, 12, 11, 80
12, 108545, Control_c, 12, 11, 77
12, 108563, Control_c, 12, 11, 74
12, 108581, Control_c, 12, 11, 71
12, 108599, Control_c, 12, 11, 68
12, 108617, Control_c, 12, 11, 65
12, 108635, Control_c, 12, 11, 62
12, 108653, Control_c, 12, 11, 59
12, 108671, Control_c, 12, 11, 56
12, 108689, Control_c, 12, 11, 53
12, 108707, Control_c, 12, 11, 50
12, 108725, Control_c, 12, 11, 47
12, 109186, Note_on_c, 12, 53, 0
12, 109206, Note_on_c, 12, 53, 102
12, 109306, Note_on_c, 12, 53, 0
12, 109326, Note_on_c, 12, 53, 102
12, 109426, Note_on_c, 12, 53, 0
12, 109446, Note_on_c, 12, 53, 102
12, 109546, Note_on_c, 12, 53, 0
12, 109566, Note_on_c, 12, 53, 102
12, 109666, Note_on_c, 12, 53, 0
12, 109686, Note_on_c, 12, 53, 102
12, 109786, Note_on_c, 12, 53, 0
12, 109806, Note_on_c, 12, 53, 102
12, 109866, Note_on_c, 12, 53, 0
12, 109926, Note_on_c, 12, 58, 102
12, 110046, Note_on_c, 12, 58, 0
12, 110046, Note_on_c, 12, 62, 102
12, 110166, Note_on_c, 12, 62, 0
12, 110286, Note_on_c, 12, 57, 102
12, 110406, Note_on_c, 12, 57, 0
12, 110406, Note_on_c, 12, 62, 102
12, 110526, Note_on_c, 12, 62, 0
12, 110646, Note_on_c, 12, 59, 102
12, 110766, Note_on_c, 12, 59, 0
12, 110766, Note_on_c, 12, 62, 102
12, 110886, Note_on_c, 12, 62, 0
12, 110886, Control_c, 12, 11, 47
12, 110886, Note_on_c, 12, 56, 102
12, 110886, Note_on_c, 12, 59, 102
12, 110922, Control_c, 12, 11, 46
12, 110946, Note_on_c, 12, 59, 0
12, 110946, Note_on_c, 12, 56, 0
12, 110958, Control_c, 12, 11, 45
12, 110994, Control_c, 12, 11, 44
12, 111006, Note_on_c, 12, 56, 102
12, 111006, Note_on_c, 12, 59, 102
12, 111030, Control_c, 12, 11, 43
12, 111066, Note_on_c, 12, 59, 0
12, 111066, Note_on_c, 12, 56, 0
12, 111066, Control_c, 12, 11, 42
12, 111102, Control_c, 12, 11, 41
12, 111126, Note_on_c, 12, 56, 102
12, 111126, Note_on_c, 12, 59, 102
12, 111138, Control_c, 12, 11, 40
12, 111174, Control_c, 12, 11, 39
12, 111186, Note_on_c, 12, 59, 0
12, 111186, Note_on_c, 12, 56, 0
12, 111210, Control_c, 12, 11, 38
12, 111246, Control_c, 12, 11, 37
12, 111246, Note_on_c, 12, 61, 102
12, 111246, Note_on_c, 12, 57, 102
12, 111366, Note_on_c, 12, 57, 0
12, 111366, Note_on_c, 12, 61, 0
12, 111486, Note_on_c, 12, 49, 102
12, 111606, Note_on_c, 12, 49, 0
12, 111606, Control_c, 12, 11, 37
12, 111606, Note_on_c, 12, 50, 102
12, 111642, Control_c, 12, 11, 36
12, 111678, Control_c, 12, 11, 35
12, 111714, Control_c, 12, 11, 34
12, 111726, Note_on_c, 12, 50, 0
12, 111726, Note_on_c, 12, 53, 102
12, 111750, Control_c, 12, 11, 33
12, 111786, Control_c, 12, 11, 32
12, 111822, Control_c, 12, 11, 31
12, 111846, Note_on_c, 12, 53, 0
12, 111846, Note_on_c, 12, 56, 102
12, 111858, Control_c, 12, 11, 30
12, 111894, Control_c, 12, 11, 29
12, 111930, Control_c, 12, 11, 28
12, 111946, Note_on_c, 12, 56, 0
12, 111966, Control_c, 12, 11, 27
12, 111966, Note_on_c, 12, 57, 102
12, 112026, Note_on_c, 12, 57, 0
12, 112206, Note_on_c, 12, 49, 102
12, 112326, Note_on_c, 12, 49, 0
12, 112326, Note_on_c, 12, 50, 102
12, 112446, Note_on_c, 12, 50, 0
12, 112446, Control_c, 12, 11, 27
12, 112446, Note_on_c, 12, 53, 102
12, 112462, Control_c, 12, 11, 28
12, 112478, Control_c, 12, 11, 29
12, 112494, Control_c, 12, 11, 30
12, 112510, Control_c, 12, 11, 31
12, 112526, Control_c, 12, 11, 32
12, 112542, Control_c, 12, 11, 33
12, 112558, Control_c, 12, 11, 34
12, 112566, Note_on_c, 12, 53, 0
12, 112566, Note_on_c, 12, 56, 102
12, 112574, Control_c, 12, 11, 35
12, 112590, Control_c, 12, 11, 36
12, 112606, Control_c, 12, 11, 37
12, 112622, Control_c, 12, 11, 38
12, 112638, Control_c, 12, 11, 39
12, 112654, Control_c, 12, 11, 40
12, 112666, Note_on_c, 12, 56, 0
12, 112670, Control_c, 12, 11, 41
12, 112686, Control_c, 12, 11, 42
12, 112686, Note_on_c, 12, 57, 102
12, 112702, Control_c, 12, 11, 43
12, 112718, Control_c, 12, 11, 44
12, 112734, Control_c, 12, 11, 45
12, 112746, Note_on_c, 12, 57, 0
12, 112750, Control_c, 12, 11, 46
12, 112766, Control_c, 12, 11, 47
12, 112782, Control_c, 12, 11, 48
12, 112798, Control_c, 12, 11, 49
12, 112814, Control_c, 12, 11, 50
12, 112830, Control_c, 12, 11, 51
12, 112846, Control_c, 12, 11, 52
12, 112862, Control_c, 12, 11, 53
12, 112878, Control_c, 12, 11, 54
12, 112894, Control_c, 12, 11, 55
12, 112910, Control_c, 12, 11, 56
12, 112926, Control_c, 12, 11, 57
12, 112942, Control_c, 12, 11, 58
12, 112958, Control_c, 12, 11, 59
12, 112974, Control_c, 12, 11, 60
12, 112990, Control_c, 12, 11, 61
12, 113006, Control_c, 12, 11, 62
12, 113022, Control_c, 12, 11, 63
12, 113038, Control_c, 12, 11, 64
12, 113054, Control_c, 12, 11, 65
12, 113070, Control_c, 12, 11, 66
12, 113086, Control_c, 12, 11, 67
12, 113102, Control_c, 12, 11, 68
12, 113118, Control_c, 12, 11, 69
12, 113134, Control_c, 12, 11, 70
12, 113150, Control_c, 12, 11, 71
12, 113166, Control_c, 12, 11, 72
12, 113182, Control_c, 12, 11, 73
12, 113198, Control_c, 12, 11, 74
12, 113214, Control_c, 12, 11, 75
12, 113230, Control_c, 12, 11, 76
12, 113246, Control_c, 12, 11, 77
12, 113262, Control_c, 12, 11, 78
12, 113278, Control_c, 12, 11, 79
12, 113294, Control_c, 12, 11, 80
12, 113310, Control_c, 12, 11, 81
12, 113326, Control_c, 12, 11, 82
12, 113342, Control_c, 12, 11, 83
12, 113358, Control_c, 12, 11, 84
12, 113374, Control_c, 12, 11, 85
12, 113390, Control_c, 12, 11, 86
12, 113406, Control_c, 12, 11, 87
12, 113406, Note_on_c, 12, 62, 102
12, 113466, Note_on_c, 12, 62, 0
12, 113526, Note_on_c, 12, 64, 102
12, 113586, Note_on_c, 12, 64, 0
12, 113646, Note_on_c, 12, 66, 102
12, 113706, Note_on_c, 12, 66, 0
12, 114126, Control_c, 12, 11, 87
12, 114126, Note_on_c, 12, 67, 102
12, 114186, Note_on_c, 12, 67, 0
12, 114246, Note_on_c, 12, 69, 102
12, 114306, Note_on_c, 12, 69, 0
12, 114366, Note_on_c, 12, 71, 102
12, 114426, Note_on_c, 12, 71, 0
12, 115926, Control_c, 12, 11, 102
12, 115926, Note_on_c, 12, 62, 102
12, 115986, Note_on_c, 12, 62, 0
12, 116046, Note_on_c, 12, 57, 102
12, 116106, Note_on_c, 12, 57, 0
12, 116166, Note_on_c, 12, 62, 102
12, 116226, Note_on_c, 12, 62, 0
12, 116286, Control_c, 12, 11, 87
12, 116286, Note_on_c, 12, 62, 102
12, 116346, Note_on_c, 12, 62, 0
12, 116406, Note_on_c, 12, 64, 102
12, 116466, Note_on_c, 12, 64, 0
12, 116526, Note_on_c, 12, 66, 102
12, 116586, Note_on_c, 12, 66, 0
12, 117006, Control_c, 12, 11, 87
12, 117006, Note_on_c, 12, 55, 102
12, 117066, Note_on_c, 12, 55, 0
12, 117126, Note_on_c, 12, 57, 102
12, 117186, Note_on_c, 12, 57, 0
12, 117246, Note_on_c, 12, 59, 102
12, 117306, Note_on_c, 12, 59, 0
12, 120606, Control_c, 12, 11, 32
12, 120606, Note_on_c, 12, 60, 102
12, 120726, Note_on_c, 12, 60, 0
12, 120966, Note_on_c, 12, 53, 102
12, 121086, Note_on_c, 12, 53, 0
12, 121326, Note_on_c, 12, 57, 102
12, 121446, Note_on_c, 12, 57, 0
12, 121686, Note_on_c, 12, 50, 102
12, 121806, Note_on_c, 12, 50, 0
12, 122046, Control_c, 12, 11, 32
12, 122046, Note_on_c, 12, 50, 102
12, 122072, Control_c, 12, 11, 34
12, 122098, Control_c, 12, 11, 36
12, 122124, Control_c, 12, 11, 38
12, 122150, Control_c, 12, 11, 40
12, 122166, Note_on_c, 12, 50, 0
12, 122166, Note_on_c, 12, 52, 102
12, 122176, Control_c, 12, 11, 42
12, 122203, Control_c, 12, 11, 44
12, 122229, Control_c, 12, 11, 46
12, 122255, Control_c, 12, 11, 48
12, 122281, Control_c, 12, 11, 50
12, 122286, Note_on_c, 12, 52, 0
12, 122286, Note_on_c, 12, 53, 102
12, 122307, Control_c, 12, 11, 52
12, 122334, Control_c, 12, 11, 54
12, 122360, Control_c, 12, 11, 56
12, 122386, Control_c, 12, 11, 58
12, 122406, Note_on_c, 12, 53, 0
12, 122406, Note_on_c, 12, 54, 102
12, 122412, Control_c, 12, 11, 60
12, 122438, Control_c, 12, 11, 62
12, 122464, Control_c, 12, 11, 64
12, 122491, Control_c, 12, 11, 66
12, 122517, Control_c, 12, 11, 68
12, 122526, Note_on_c, 12, 54, 0
12, 122526, Note_on_c, 12, 55, 102
12, 122543, Control_c, 12, 11, 70
12, 122569, Control_c, 12, 11, 72
12, 122595, Control_c, 12, 11, 74
12, 122622, Control_c, 12, 11, 76
12, 122646, Note_on_c, 12, 55, 0
12, 122646, Note_on_c, 12, 56, 102
12, 122648, Control_c, 12, 11, 78
12, 122674, Control_c, 12, 11, 80
12, 122700, Control_c, 12, 11, 82
12, 122726, Control_c, 12, 11, 84
12, 122746, Note_on_c, 12, 56, 0
12, 122752, Control_c, 12, 11, 86
12, 122766, Note_on_c, 12, 57, 102
12, 122866, Note_on_c, 12, 57, 0
12, 122886, Note_on_c, 12, 69, 102
12, 122986, Note_on_c, 12, 69, 0
12, 123006, Note_on_c, 12, 69, 102
12, 123106, Note_on_c, 12, 69, 0
12, 123126, Note_on_c, 12, 62, 102
12, 123246, Note_on_c, 12, 62, 0
12, 123486, Control_c, 12, 11, 32
12, 123486, Note_on_c, 12, 64, 102
12, 123546, Note_on_c, 12, 64, 0
12, 123606, Note_on_c, 12, 65, 102
12, 123666, Note_on_c, 12, 65, 0
12, 123726, Note_on_c, 12, 67, 102
12, 123786, Note_on_c, 12, 67, 0
12, 123846, Note_on_c, 12, 65, 102
12, 123966, Note_on_c, 12, 65, 0
12, 124206, Note_on_c, 12, 61, 102
12, 124266, Note_on_c, 12, 61, 0
12, 124326, Note_on_c, 12, 62, 102
12, 124386, Note_on_c, 12, 62, 0
12, 124446, Note_on_c, 12, 64, 102
12, 124506, Note_on_c, 12, 64, 0
12, 124566, Note_on_c, 12, 62, 102
12, 124686, Note_on_c, 12, 62, 0
12, 124926, Control_c, 12, 11, 32
12, 124926, Note_on_c, 12, 50, 102
12, 124952, Control_c, 12, 11, 34
12, 124978, Control_c, 12, 11, 36
12, 125004, Control_c, 12, 11, 38
12, 125030, Control_c, 12, 11, 40
12, 125046, Note_on_c, 12, 50, 0
12, 125046, Note_on_c, 12, 52, 102
12, 125056, Control_c, 12, 11, 42
12, 125083, Control_c, 12, 11, 44
12, 125109, Control_c, 12, 11, 46
12, 125135, Control_c, 12, 11, 48
12, 125161, Control_c, 12, 11, 50
12, 125166, Note_on_c, 12, 52, 0
12, 125166, Note_on_c, 12, 53, 102
12, 125187, Control_c, 12, 11, 52
12, 125214, Control_c, 12, 11, 54
12, 125240, Control_c, 12, 11, 56
12, 125266, Control_c, 12, 11, 58
12, 125286, Note_on_c, 12, 53, 0
12, 125286, Note_on_c, 12, 54, 102
12, 125292, Control_c, 12, 11, 60
12, 125318, Control_c, 12, 11, 62
12, 125344, Control_c, 12, 11, 64
12, 125371, Control_c, 12, 11, 66
12, 125397, Control_c, 12, 11, 68
12, 125406, Note_on_c, 12, 54, 0
12, 125406, Note_on_c, 12, 55, 102
12, 125423, Control_c, 12, 11, 70
12, 125449, Control_c, 12, 11, 72
12, 125475, Control_c, 12, 11, 74
12, 125502, Control_c, 12, 11, 76
12, 125526, Note_on_c, 12, 55, 0
12, 125526, Note_on_c, 12, 56, 102
12, 125528, Control_c, 12, 11, 78
12, 125554, Control_c, 12, 11, 80
12, 125580, Control_c, 12, 11, 82
12, 125606, Control_c, 12, 11, 84
12, 125626, Note_on_c, 12, 56, 0
12, 125632, Control_c, 12, 11, 86
12, 125646, Note_on_c, 12, 57, 102
12, 125746, Note_on_c, 12, 57, 0
12, 125766, Note_on_c, 12, 69, 102
12, 125866, Note_on_c, 12, 69, 0
12, 125886, Note_on_c, 12, 69, 102
12, 125986, Note_on_c, 12, 69, 0
12, 126006, Note_on_c, 12, 62, 102
12, 126126, Note_on_c, 12, 62, 0
12, 126366, Control_c, 12, 11, 47
12, 126366, Note_on_c, 12, 50, 102
12, 126384, Control_c, 12, 11, 48
12, 126402, Control_c, 12, 11, 49
12, 126420, Control_c, 12, 11, 50
12, 126438, Control_c, 12, 11, 51
12, 126456, Control_c, 12, 11, 52
12, 126474, Control_c, 12, 11, 53
12, 126486, Note_on_c, 12, 50, 0
12, 126486, Note_on_c, 12, 52, 102
12, 126492, Control_c, 12, 11, 54
12, 126510, Control_c, 12, 11, 55
12, 126528, Control_c, 12, 11, 56
12, 126546, Control_c, 12, 11, 57
12, 126564, Control_c, 12, 11, 58
12, 126582, Control_c, 12, 11, 59
12, 126600, Control_c, 12, 11, 60
12, 126606, Note_on_c, 12, 52, 0
12, 126606, Note_on_c, 12, 53, 102
12, 126618, Control_c, 12, 11, 61
12, 126636, Control_c, 12, 11, 62
12, 126654, Control_c, 12, 11, 63
12, 126672, Control_c, 12, 11, 64
12, 126690, Control_c, 12, 11, 65
12, 126708, Control_c, 12, 11, 66
12, 126726, Note_on_c, 12, 53, 0
12, 126726, Control_c, 12, 11, 67
12, 126726, Note_on_c, 12, 54, 102
12, 126744, Control_c, 12, 11, 68
12, 126762, Control_c, 12, 11, 69
12, 126780, Control_c, 12, 11, 70
12, 126798, Control_c, 12, 11, 71
12, 126816, Control_c, 12, 11, 72
12, 126834, Control_c, 12, 11, 73
12, 126846, Note_on_c, 12, 54, 0
12, 126846, Note_on_c, 12, 55, 102
12, 126852, Control_c, 12, 11, 74
12, 126870, Control_c, 12, 11, 75
12, 126888, Control_c, 12, 11, 76
12, 126906, Control_c, 12, 11, 77
12, 126924, Control_c, 12, 11, 78
12, 126942, Control_c, 12, 11, 79
12, 126960, Control_c, 12, 11, 80
12, 126966, Note_on_c, 12, 55, 0
12, 126966, Note_on_c, 12, 56, 102
12, 126978, Control_c, 12, 11, 81
12, 126996, Control_c, 12, 11, 82
12, 127014, Control_c, 12, 11, 83
12, 127032, Control_c, 12, 11, 84
12, 127050, Control_c, 12, 11, 85
12, 127066, Note_on_c, 12, 56, 0
12, 127068, Control_c, 12, 11, 86
12, 127086, Control_c, 12, 11, 93
12, 127086, Note_on_c, 12, 57, 102
12, 127096, Control_c, 12, 11, 96
12, 127107, Control_c, 12, 11, 99
12, 127117, Control_c, 12, 11, 102
12, 127139, Control_c, 12, 11, 101
12, 127157, Control_c, 12, 11, 99
12, 127175, Control_c, 12, 11, 97
12, 127186, Note_on_c, 12, 57, 0
12, 127193, Control_c, 12, 11, 95
12, 127206, Note_on_c, 12, 69, 102
12, 127211, Control_c, 12, 11, 93
12, 127229, Control_c, 12, 11, 91
12, 127247, Control_c, 12, 11, 89
12, 127265, Control_c, 12, 11, 87
12, 127306, Note_on_c, 12, 69, 0
12, 127326, Note_on_c, 12, 69, 102
12, 127426, Note_on_c, 12, 69, 0
12, 127446, Note_on_c, 12, 74, 102
12, 127566, Note_on_c, 12, 74, 0
12, 127806, Note_on_c, 12, 57, 102
12, 127806, Control_c, 12, 11, 93
12, 127816, Control_c, 12, 11, 96
12, 127827, Control_c, 12, 11, 99
12, 127837, Control_c, 12, 11, 102
12, 127859, Control_c, 12, 11, 101
12, 127877, Control_c, 12, 11, 99
12, 127895, Control_c, 12, 11, 97
12, 127906, Note_on_c, 12, 57, 0
12, 127913, Control_c, 12, 11, 95
12, 127926, Note_on_c, 12, 69, 102
12, 127931, Control_c, 12, 11, 93
12, 127949, Control_c, 12, 11, 91
12, 127967, Control_c, 12, 11, 89
12, 127985, Control_c, 12, 11, 87
12, 128026, Note_on_c, 12, 69, 0
12, 128046, Note_on_c, 12, 69, 102
12, 128146, Note_on_c, 12, 69, 0
12, 128166, Note_on_c, 12, 74, 102
12, 128286, Note_on_c, 12, 74, 0
12, 128526, Control_c, 12, 11, 102
12, 128526, Note_on_c, 12, 57, 102
12, 128646, Note_on_c, 12, 57, 0
12, 128646, Note_on_c, 12, 61, 102
12, 128766, Note_on_c, 12, 61, 0
12, 128766, Note_on_c, 12, 64, 102
12, 128886, Note_on_c, 12, 64, 0
12, 128886, Note_on_c, 12, 69, 102
12, 129006, Note_on_c, 12, 69, 0
12, 129006, Note_on_c, 12, 71, 102
12, 129126, Note_on_c, 12, 71, 0
12, 129126, Note_on_c, 12, 73, 102
12, 129226, Note_on_c, 12, 73, 0
12, 129246, Note_on_c, 12, 74, 102
12, 129366, Note_on_c, 12, 74, 0
12, 129486, Note_on_c, 12, 69, 102
12, 129546, Note_on_c, 12, 69, 0
12, 129606, Note_on_c, 12, 62, 102
12, 129666, Note_on_c, 12, 62, 0
12, 129966, Control_c, 12, 121, 0
12, 129966, End_track
13, 0, Start_track
13, 0, MIDI_port, 0
13, 0, Title_t, "Violoncelle"
13, 0, Program_c, 13, 48
13, 0, Control_c, 13, 10, 100
13, 10, Control_c, 13, 121, 0
13, 15, Program_c, 13, 48
13, 20, Pitch_bend_c, 13, 7892
13, 25, Control_c, 13, 11, 87
13, 30, Control_c, 13, 7, 127
13, 35, Control_c, 13, 91, 35
13, 40, Control_c, 13, 93, 0
13, 370, Control_c, 13, 11, 87
13, 370, Note_on_c, 13, 50, 104
13, 430, Note_on_c, 13, 50, 0
13, 490, Note_on_c, 13, 52, 104
13, 550, Note_on_c, 13, 52, 0
13, 610, Note_on_c, 13, 54, 104
13, 670, Note_on_c, 13, 54, 0
13, 1090, Note_on_c, 13, 55, 104
13, 1150, Note_on_c, 13, 55, 0
13, 1210, Note_on_c, 13, 57, 104
13, 1270, Note_on_c, 13, 57, 0
13, 1330, Note_on_c, 13, 59, 104
13, 1390, Note_on_c, 13, 59, 0
13, 2890, Control_c, 13, 11, 102
13, 2890, Note_on_c, 13, 50, 104
13, 2950, Note_on_c, 13, 50, 0
13, 3010, Note_on_c, 13, 45, 104
13, 3070, Note_on_c, 13, 45, 0
13, 3130, Note_on_c, 13, 50, 104
13, 3190, Note_on_c, 13, 50, 0
13, 3250, Control_c, 13, 11, 87
13, 3250, Note_on_c, 13, 50, 104
13, 3310, Note_on_c, 13, 50, 0
13, 3370, Note_on_c, 13, 52, 104
13, 3430, Note_on_c, 13, 52, 0
13, 3490, Note_on_c, 13, 54, 104
13, 3550, Note_on_c, 13, 54, 0
13, 3970, Note_on_c, 13, 56, 104
13, 4030, Note_on_c, 13, 56, 0
13, 4090, Note_on_c, 13, 57, 104
13, 4150, Note_on_c, 13, 57, 0
13, 4210, Note_on_c, 13, 59, 104
13, 4270, Note_on_c, 13, 59, 0
13, 5770, Control_c, 13, 11, 102
13, 5770, Note_on_c, 13, 57, 104
13, 5830, Note_on_c, 13, 57, 0
13, 5890, Note_on_c, 13, 52, 104
13, 5950, Note_on_c, 13, 52, 0
13, 6010, Note_on_c, 13, 57, 104
13, 6070, Note_on_c, 13, 57, 0
13, 6130, Control_c, 13, 11, 87
13, 6130, Note_on_c, 13, 50, 104
13, 6190, Note_on_c, 13, 50, 0
13, 6250, Note_on_c, 13, 52, 104
13, 6310, Note_on_c, 13, 52, 0
13, 6370, Note_on_c, 13, 54, 104
13, 6430, Note_on_c, 13, 54, 0
13, 6850, Note_on_c, 13, 55, 104
13, 6910, Note_on_c, 13, 55, 0
13, 6970, Note_on_c, 13, 57, 104
13, 7030, Note_on_c, 13, 57, 0
13, 7090, Note_on_c, 13, 59, 104
13, 7150, Note_on_c, 13, 59, 0
13, 8650, Control_c, 13, 11, 102
13, 8650, Note_on_c, 13, 50, 104
13, 8710, Note_on_c, 13, 50, 0
13, 8770, Note_on_c, 13, 45, 104
13, 8830, Note_on_c, 13, 45, 0
13, 8890, Note_on_c, 13, 50, 104
13, 8950, Note_on_c, 13, 50, 0
13, 9010, Control_c, 13, 11, 87
13, 9010, Note_on_c, 13, 50, 104
13, 9070, Note_on_c, 13, 50, 0
13, 9130, Note_on_c, 13, 52, 104
13, 9190, Note_on_c, 13, 52, 0
13, 9250, Note_on_c, 13, 54, 104
13, 9310, Note_on_c, 13, 54, 0
13, 9730, Note_on_c, 13, 56, 104
13, 9790, Note_on_c, 13, 56, 0
13, 9850, Note_on_c, 13, 57, 104
13, 9910, Note_on_c, 13, 57, 0
13, 9970, Note_on_c, 13, 59, 104
13, 10030, Note_on_c, 13, 59, 0
13, 11530, Control_c, 13, 11, 102
13, 11530, Note_on_c, 13, 57, 104
13, 11590, Note_on_c, 13, 57, 0
13, 11650, Note_on_c, 13, 52, 104
13, 11710, Note_on_c, 13, 52, 0
13, 11770, Note_on_c, 13, 57, 104
13, 11830, Note_on_c, 13, 57, 0
13, 11890, Control_c, 13, 11, 47
13, 11890, Note_on_c, 13, 57, 104
13, 11950, Note_on_c, 13, 57, 0
13, 12010, Note_on_c, 13, 59, 104
13, 12070, Note_on_c, 13, 59, 0
13, 12130, Note_on_c, 13, 61, 104
13, 12190, Note_on_c, 13, 61, 0
13, 12250, Note_on_c, 13, 62, 104
13, 12370, Note_on_c, 13, 62, 0
13, 12610, Note_on_c, 13, 53, 104
13, 12670, Note_on_c, 13, 53, 0
13, 12730, Note_on_c, 13, 55, 104
13, 12790, Note_on_c, 13, 55, 0
13, 12850, Note_on_c, 13, 57, 104
13, 12910, Note_on_c, 13, 57, 0
13, 12970, Note_on_c, 13, 58, 104
13, 13090, Note_on_c, 13, 58, 0
13, 13330, Note_on_c, 13, 46, 104
13, 13390, Note_on_c, 13, 46, 0
13, 13450, Control_c, 13, 11, 72
13, 13450, Note_on_c, 13, 46, 104
13, 13458, Control_c, 13, 11, 75
13, 13467, Control_c, 13, 11, 78
13, 13476, Control_c, 13, 11, 81
13, 13491, Control_c, 13, 11, 80
13, 13509, Control_c, 13, 11, 77
13, 13527, Control_c, 13, 11, 74
13, 13545, Control_c, 13, 11, 71
13, 13563, Control_c, 13, 11, 68
13, 13581, Control_c, 13, 11, 65
13, 13599, Control_c, 13, 11, 62
13, 13617, Control_c, 13, 11, 59
13, 13635, Control_c, 13, 11, 56
13, 13653, Control_c, 13, 11, 53
13, 13671, Control_c, 13, 11, 50
13, 13689, Control_c, 13, 11, 47
13, 14150, Note_on_c, 13, 46, 0
13, 14170, Note_on_c, 13, 46, 104
13, 14270, Note_on_c, 13, 46, 0
13, 14290, Note_on_c, 13, 46, 104
13, 14390, Note_on_c, 13, 46, 0
13, 14410, Note_on_c, 13, 46, 104
13, 14510, Note_on_c, 13, 46, 0
13, 14530, Note_on_c, 13, 46, 104
13, 14630, Note_on_c, 13, 46, 0
13, 14650, Note_on_c, 13, 46, 104
13, 14750, Note_on_c, 13, 46, 0
13, 14770, Note_on_c, 13, 46, 104
13, 14830, Note_on_c, 13, 46, 0
13, 14890, Control_c, 13, 11, 72
13, 14890, Note_on_c, 13, 46, 104
13, 14898, Control_c, 13, 11, 75
13, 14907, Control_c, 13, 11, 78
13, 14916, Control_c, 13, 11, 81
13, 14931, Control_c, 13, 11, 80
13, 14949, Control_c, 13, 11, 77
13, 14967, Control_c, 13, 11, 74
13, 14985, Control_c, 13, 11, 71
13, 15003, Control_c, 13, 11, 68
13, 15021, Control_c, 13, 11, 65
13, 15039, Control_c, 13, 11, 62
13, 15057, Control_c, 13, 11, 59
13, 15075, Control_c, 13, 11, 56
13, 15093, Control_c, 13, 11, 53
13, 15111, Control_c, 13, 11, 50
13, 15129, Control_c, 13, 11, 47
13, 15590, Note_on_c, 13, 46, 0
13, 15610, Note_on_c, 13, 46, 104
13, 15710, Note_on_c, 13, 46, 0
13, 15730, Note_on_c, 13, 46, 104
13, 15830, Note_on_c, 13, 46, 0
13, 15850, Note_on_c, 13, 46, 104
13, 15950, Note_on_c, 13, 46, 0
13, 15970, Note_on_c, 13, 46, 104
13, 16070, Note_on_c, 13, 46, 0
13, 16090, Note_on_c, 13, 46, 104
13, 16190, Note_on_c, 13, 46, 0
13, 16210, Note_on_c, 13, 46, 104
13, 16330, Note_on_c, 13, 46, 0
13, 16570, Note_on_c, 13, 45, 104
13, 16690, Note_on_c, 13, 45, 0
13, 16930, Note_on_c, 13, 44, 104
13, 17050, Note_on_c, 13, 44, 0
13, 17290, Control_c, 13, 11, 47
13, 17290, Note_on_c, 13, 56, 104
13, 17326, Control_c, 13, 11, 46
13, 17362, Control_c, 13, 11, 45
13, 17398, Control_c, 13, 11, 44
13, 17410, Note_on_c, 13, 56, 0
13, 17434, Control_c, 13, 11, 43
13, 17470, Control_c, 13, 11, 42
13, 17506, Control_c, 13, 11, 41
13, 17542, Control_c, 13, 11, 40
13, 17578, Control_c, 13, 11, 39
13, 17614, Control_c, 13, 11, 38
13, 17650, Control_c, 13, 11, 37
13, 17650, Note_on_c, 13, 57, 104
13, 17710, Note_on_c, 13, 57, 0
13, 17890, Note_on_c, 13, 49, 104
13, 18010, Note_on_c, 13, 49, 0
13, 18010, Control_c, 13, 11, 37
13, 18010, Note_on_c, 13, 50, 104
13, 18046, Control_c, 13, 11, 36
13, 18082, Control_c, 13, 11, 35
13, 18118, Control_c, 13, 11, 34
13, 18130, Note_on_c, 13, 50, 0
13, 18130, Note_on_c, 13, 53, 104
13, 18154, Control_c, 13, 11, 33
13, 18190, Control_c, 13, 11, 32
13, 18226, Control_c, 13, 11, 31
13, 18250, Note_on_c, 13, 53, 0
13, 18250, Note_on_c, 13, 56, 104
13, 18262, Control_c, 13, 11, 30
13, 18298, Control_c, 13, 11, 29
13, 18334, Control_c, 13, 11, 28
13, 18350, Note_on_c, 13, 56, 0
13, 18370, Control_c, 13, 11, 27
13, 18370, Note_on_c, 13, 57, 104
13, 18430, Note_on_c, 13, 57, 0
13, 18610, Note_on_c, 13, 49, 104
13, 18730, Note_on_c, 13, 49, 0
13, 18730, Note_on_c, 13, 50, 104
13, 18850, Note_on_c, 13, 50, 0
13, 18850, Control_c, 13, 11, 27
13, 18850, Note_on_c, 13, 53, 104
13, 18866, Control_c, 13, 11, 28
13, 18882, Control_c, 13, 11, 29
13, 18898, Control_c, 13, 11, 30
13, 18914, Control_c, 13, 11, 31
13, 18930, Control_c, 13, 11, 32
13, 18946, Control_c, 13, 11, 33
13, 18962, Control_c, 13, 11, 34
13, 18970, Note_on_c, 13, 53, 0
13, 18970, Note_on_c, 13, 56, 104
13, 18978, Control_c, 13, 11, 35
13, 18994, Control_c, 13, 11, 36
13, 19010, Control_c, 13, 11, 37
13, 19026, Control_c, 13, 11, 38
13, 19042, Control_c, 13, 11, 39
13, 19058, Control_c, 13, 11, 40
13, 19070, Note_on_c, 13, 56, 0
13, 19074, Control_c, 13, 11, 41
13, 19090, Control_c, 13, 11, 42
13, 19090, Note_on_c, 13, 57, 104
13, 19106, Control_c, 13, 11, 43
13, 19122, Control_c, 13, 11, 44
13, 19138, Control_c, 13, 11, 45
13, 19150, Note_on_c, 13, 57, 0
13, 19154, Control_c, 13, 11, 46
13, 19170, Control_c, 13, 11, 47
13, 19186, Control_c, 13, 11, 48
13, 19202, Control_c, 13, 11, 49
13, 19218, Control_c, 13, 11, 50
13, 19234, Control_c, 13, 11, 51
13, 19250, Control_c, 13, 11, 52
13, 19266, Control_c, 13, 11, 53
13, 19282, Control_c, 13, 11, 54
13, 19298, Control_c, 13, 11, 55
13, 19314, Control_c, 13, 11, 56
13, 19330, Control_c, 13, 11, 57
13, 19346, Control_c, 13, 11, 58
13, 19362, Control_c, 13, 11, 59
13, 19378, Control_c, 13, 11, 60
13, 19394, Control_c, 13, 11, 61
13, 19410, Control_c, 13, 11, 62
13, 19426, Control_c, 13, 11, 63
13, 19442, Control_c, 13, 11, 64
13, 19458, Control_c, 13, 11, 65
13, 19474, Control_c, 13, 11, 66
13, 19490, Control_c, 13, 11, 67
13, 19506, Control_c, 13, 11, 68
13, 19522, Control_c, 13, 11, 69
13, 19538, Control_c, 13, 11, 70
13, 19554, Control_c, 13, 11, 71
13, 19570, Control_c, 13, 11, 72
13, 19586, Control_c, 13, 11, 73
13, 19602, Control_c, 13, 11, 74
13, 19618, Control_c, 13, 11, 75
13, 19634, Control_c, 13, 11, 76
13, 19650, Control_c, 13, 11, 77
13, 19666, Control_c, 13, 11, 78
13, 19682, Control_c, 13, 11, 79
13, 19698, Control_c, 13, 11, 80
13, 19714, Control_c, 13, 11, 81
13, 19730, Control_c, 13, 11, 82
13, 19746, Control_c, 13, 11, 83
13, 19762, Control_c, 13, 11, 84
13, 19778, Control_c, 13, 11, 85
13, 19794, Control_c, 13, 11, 86
13, 19810, Control_c, 13, 11, 87
13, 19810, Note_on_c, 13, 50, 104
13, 19870, Note_on_c, 13, 50, 0
13, 19930, Note_on_c, 13, 52, 104
13, 19990, Note_on_c, 13, 52, 0
13, 20050, Note_on_c, 13, 54, 104
13, 20110, Note_on_c, 13, 54, 0
13, 20530, Control_c, 13, 11, 87
13, 20530, Note_on_c, 13, 55, 104
13, 20590, Note_on_c, 13, 55, 0
13, 20650, Note_on_c, 13, 57, 104
13, 20710, Note_on_c, 13, 57, 0
13, 20770, Note_on_c, 13, 59, 104
13, 20830, Note_on_c, 13, 59, 0
13, 22330, Control_c, 13, 11, 102
13, 22330, Note_on_c, 13, 50, 104
13, 22390, Note_on_c, 13, 50, 0
13, 22450, Note_on_c, 13, 45, 104
13, 22510, Note_on_c, 13, 45, 0
13, 22570, Note_on_c, 13, 50, 104
13, 22630, Note_on_c, 13, 50, 0
13, 22690, Control_c, 13, 11, 87
13, 22690, Note_on_c, 13, 50, 104
13, 22750, Note_on_c, 13, 50, 0
13, 22810, Note_on_c, 13, 52, 104
13, 22870, Note_on_c, 13, 52, 0
13, 22930, Note_on_c, 13, 54, 104
13, 22990, Note_on_c, 13, 54, 0
13, 23410, Control_c, 13, 11, 87
13, 23410, Note_on_c, 13, 55, 104
13, 23470, Note_on_c, 13, 55, 0
13, 23530, Note_on_c, 13, 57, 104
13, 23590, Note_on_c, 13, 57, 0
13, 23650, Note_on_c, 13, 59, 104
13, 23710, Note_on_c, 13, 59, 0
13, 27010, Control_c, 13, 11, 32
13, 27010, Note_on_c, 13, 60, 104
13, 27130, Note_on_c, 13, 60, 0
13, 27370, Note_on_c, 13, 53, 104
13, 27490, Note_on_c, 13, 53, 0
13, 27730, Note_on_c, 13, 57, 104
13, 27850, Note_on_c, 13, 57, 0
13, 28090, Note_on_c, 13, 50, 104
13, 28210, Note_on_c, 13, 50, 0
13, 28450, Control_c, 13, 11, 32
13, 28450, Note_on_c, 13, 50, 104
13, 28476, Control_c, 13, 11, 34
13, 28502, Control_c, 13, 11, 36
13, 28528, Control_c, 13, 11, 38
13, 28554, Control_c, 13, 11, 40
13, 28570, Note_on_c, 13, 50, 0
13, 28570, Note_on_c, 13, 52, 104
13, 28580, Control_c, 13, 11, 42
13, 28607, Control_c, 13, 11, 44
13, 28633, Control_c, 13, 11, 46
13, 28659, Control_c, 13, 11, 48
13, 28685, Control_c, 13, 11, 50
13, 28690, Note_on_c, 13, 52, 0
13, 28690, Note_on_c, 13, 53, 104
13, 28711, Control_c, 13, 11, 52
13, 28738, Control_c, 13, 11, 54
13, 28764, Control_c, 13, 11, 56
13, 28790, Control_c, 13, 11, 58
13, 28810, Note_on_c, 13, 53, 0
13, 28810, Note_on_c, 13, 54, 104
13, 28816, Control_c, 13, 11, 60
13, 28842, Control_c, 13, 11, 62
13, 28868, Control_c, 13, 11, 64
13, 28895, Control_c, 13, 11, 66
13, 28921, Control_c, 13, 11, 68
13, 28930, Note_on_c, 13, 54, 0
13, 28930, Note_on_c, 13, 55, 104
13, 28947, Control_c, 13, 11, 70
13, 28973, Control_c, 13, 11, 72
13, 28999, Control_c, 13, 11, 74
13, 29026, Control_c, 13, 11, 76
13, 29050, Note_on_c, 13, 55, 0
13, 29050, Note_on_c, 13, 56, 104
13, 29052, Control_c, 13, 11, 78
13, 29078, Control_c, 13, 11, 80
13, 29104, Control_c, 13, 11, 82
13, 29130, Control_c, 13, 11, 84
13, 29150, Note_on_c, 13, 56, 0
13, 29156, Control_c, 13, 11, 86
13, 29170, Note_on_c, 13, 57, 104
13, 29270, Note_on_c, 13, 57, 0
13, 29290, Note_on_c, 13, 57, 104
13, 29390, Note_on_c, 13, 57, 0
13, 29410, Note_on_c, 13, 57, 104
13, 29510, Note_on_c, 13, 57, 0
13, 29530, Note_on_c, 13, 50, 104
13, 29650, Note_on_c, 13, 50, 0
13, 29890, Control_c, 13, 11, 32
13, 29890, Note_on_c, 13, 60, 104
13, 30010, Note_on_c, 13, 60, 0
13, 30250, Note_on_c, 13, 53, 104
13, 30370, Note_on_c, 13, 53, 0
13, 30610, Note_on_c, 13, 57, 104
13, 30730, Note_on_c, 13, 57, 0
13, 30970, Note_on_c, 13, 50, 104
13, 31090, Note_on_c, 13, 50, 0
13, 31330, Control_c, 13, 11, 32
13, 31330, Note_on_c, 13, 50, 104
13, 31356, Control_c, 13, 11, 34
13, 31382, Control_c, 13, 11, 36
13, 31408, Control_c, 13, 11, 38
13, 31434, Control_c, 13, 11, 40
13, 31450, Note_on_c, 13, 50, 0
13, 31450, Note_on_c, 13, 52, 104
13, 31460, Control_c, 13, 11, 42
13, 31487, Control_c, 13, 11, 44
13, 31513, Control_c, 13, 11, 46
13, 31539, Control_c, 13, 11, 48
13, 31565, Control_c, 13, 11, 50
13, 31570, Note_on_c, 13, 52, 0
13, 31570, Note_on_c, 13, 53, 104
13, 31591, Control_c, 13, 11, 52
13, 31618, Control_c, 13, 11, 54
13, 31644, Control_c, 13, 11, 56
13, 31670, Control_c, 13, 11, 58
13, 31690, Note_on_c, 13, 53, 0
13, 31690, Note_on_c, 13, 54, 104
13, 31696, Control_c, 13, 11, 60
13, 31722, Control_c, 13, 11, 62
13, 31748, Control_c, 13, 11, 64
13, 31775, Control_c, 13, 11, 66
13, 31801, Control_c, 13, 11, 68
13, 31810, Note_on_c, 13, 54, 0
13, 31810, Note_on_c, 13, 55, 104
13, 31827, Control_c, 13, 11, 70
13, 31853, Control_c, 13, 11, 72
13, 31879, Control_c, 13, 11, 74
13, 31906, Control_c, 13, 11, 76
13, 31930, Note_on_c, 13, 55, 0
13, 31930, Note_on_c, 13, 56, 104
13, 31932, Control_c, 13, 11, 78
13, 31958, Control_c, 13, 11, 80
13, 31984, Control_c, 13, 11, 82
13, 32010, Control_c, 13, 11, 84
13, 32030, Note_on_c, 13, 56, 0
13, 32036, Control_c, 13, 11, 86
13, 32050, Note_on_c, 13, 57, 104
13, 32150, Note_on_c, 13, 57, 0
13, 32170, Note_on_c, 13, 57, 104
13, 32270, Note_on_c, 13, 57, 0
13, 32290, Note_on_c, 13, 57, 104
13, 32390, Note_on_c, 13, 57, 0
13, 32410, Note_on_c, 13, 62, 104
13, 32530, Note_on_c, 13, 62, 0
13, 32770, Control_c, 13, 11, 47
13, 32770, Note_on_c, 13, 50, 104
13, 32788, Control_c, 13, 11, 48
13, 32806, Control_c, 13, 11, 49
13, 32824, Control_c, 13, 11, 50
13, 32842, Control_c, 13, 11, 51
13, 32860, Control_c, 13, 11, 52
13, 32878, Control_c, 13, 11, 53
13, 32890, Note_on_c, 13, 50, 0
13, 32890, Note_on_c, 13, 52, 104
13, 32896, Control_c, 13, 11, 54
13, 32914, Control_c, 13, 11, 55
13, 32932, Control_c, 13, 11, 56
13, 32950, Control_c, 13, 11, 57
13, 32968, Control_c, 13, 11, 58
13, 32986, Control_c, 13, 11, 59
13, 33004, Control_c, 13, 11, 60
13, 33010, Note_on_c, 13, 52, 0
13, 33010, Note_on_c, 13, 53, 104
13, 33022, Control_c, 13, 11, 61
13, 33040, Control_c, 13, 11, 62
13, 33058, Control_c, 13, 11, 63
13, 33076, Control_c, 13, 11, 64
13, 33094, Control_c, 13, 11, 65
13, 33112, Control_c, 13, 11, 66
13, 33130, Note_on_c, 13, 53, 0
13, 33130, Control_c, 13, 11, 67
13, 33130, Note_on_c, 13, 54, 104
13, 33148, Control_c, 13, 11, 68
13, 33166, Control_c, 13, 11, 69
13, 33184, Control_c, 13, 11, 70
13, 33202, Control_c, 13, 11, 71
13, 33220, Control_c, 13, 11, 72
13, 33238, Control_c, 13, 11, 73
13, 33250, Note_on_c, 13, 54, 0
13, 33250, Note_on_c, 13, 55, 104
13, 33256, Control_c, 13, 11, 74
13, 33274, Control_c, 13, 11, 75
13, 33292, Control_c, 13, 11, 76
13, 33310, Control_c, 13, 11, 77
13, 33328, Control_c, 13, 11, 78
13, 33346, Control_c, 13, 11, 79
13, 33364, Control_c, 13, 11, 80
13, 33370, Note_on_c, 13, 55, 0
13, 33370, Note_on_c, 13, 56, 104
13, 33382, Control_c, 13, 11, 81
13, 33400, Control_c, 13, 11, 82
13, 33418, Control_c, 13, 11, 83
13, 33436, Control_c, 13, 11, 84
13, 33454, Control_c, 13, 11, 85
13, 33470, Note_on_c, 13, 56, 0
13, 33472, Control_c, 13, 11, 86
13, 33490, Control_c, 13, 11, 93
13, 33490, Note_on_c, 13, 57, 104
13, 33500, Control_c, 13, 11, 96
13, 33511, Control_c, 13, 11, 99
13, 33521, Control_c, 13, 11, 102
13, 33543, Control_c, 13, 11, 101
13, 33561, Control_c, 13, 11, 99
13, 33579, Control_c, 13, 11, 97
13, 33590, Note_on_c, 13, 57, 0
13, 33597, Control_c, 13, 11, 95
13, 33610, Note_on_c, 13, 57, 104
13, 33615, Control_c, 13, 11, 93
13, 33633, Control_c, 13, 11, 91
13, 33651, Control_c, 13, 11, 89
13, 33669, Control_c, 13, 11, 87
13, 33710, Note_on_c, 13, 57, 0
13, 33730, Note_on_c, 13, 57, 104
13, 33830, Note_on_c, 13, 57, 0
13, 33850, Note_on_c, 13, 62, 104
13, 33970, Note_on_c, 13, 62, 0
13, 34210, Note_on_c, 13, 45, 104
13, 34210, Control_c, 13, 11, 93
13, 34220, Control_c, 13, 11, 96
13, 34231, Control_c, 13, 11, 99
13, 34241, Control_c, 13, 11, 102
13, 34263, Control_c, 13, 11, 101
13, 34281, Control_c, 13, 11, 99
13, 34299, Control_c, 13, 11, 97
13, 34310, Note_on_c, 13, 45, 0
13, 34317, Control_c, 13, 11, 95
13, 34330, Note_on_c, 13, 57, 104
13, 34335, Control_c, 13, 11, 93
13, 34353, Control_c, 13, 11, 91
13, 34371, Control_c, 13, 11, 89
13, 34389, Control_c, 13, 11, 87
13, 34430, Note_on_c, 13, 57, 0
13, 34450, Note_on_c, 13, 57, 104
13, 34550, Note_on_c, 13, 57, 0
13, 34570, Note_on_c, 13, 62, 104
13, 34690, Note_on_c, 13, 62, 0
13, 34930, Control_c, 13, 11, 102
13, 34930, Note_on_c, 13, 45, 104
13, 35050, Note_on_c, 13, 45, 0
13, 35050, Note_on_c, 13, 57, 104
13, 35170, Note_on_c, 13, 57, 0
13, 35170, Note_on_c, 13, 57, 104
13, 35290, Note_on_c, 13, 57, 0
13, 35290, Note_on_c, 13, 57, 104
13, 35410, Note_on_c, 13, 57, 0
13, 35410, Note_on_c, 13, 57, 104
13, 35530, Note_on_c, 13, 57, 0
13, 35530, Note_on_c, 13, 57, 104
13, 35630, Note_on_c, 13, 57, 0
13, 35650, Note_on_c, 13, 62, 104
13, 35770, Note_on_c, 13, 62, 0
13, 35890, Note_on_c, 13, 57, 104
13, 35950, Note_on_c, 13, 57, 0
13, 36010, Note_on_c, 13, 50, 104
13, 36070, Note_on_c, 13, 50, 0
13, 36370, Control_c, 13, 11, 47
13, 36370, Note_on_c, 13, 57, 104
13, 36430, Note_on_c, 13, 57, 0
13, 36490, Note_on_c, 13, 59, 104
13, 36550, Note_on_c, 13, 59, 0
13, 36610, Note_on_c, 13, 61, 104
13, 36670, Note_on_c, 13, 61, 0
13, 36730, Note_on_c, 13, 62, 104
13, 36850, Note_on_c, 13, 62, 0
13, 37090, Note_on_c, 13, 53, 104
13, 37150, Note_on_c, 13, 53, 0
13, 37210, Note_on_c, 13, 55, 104
13, 37270, Note_on_c, 13, 55, 0
13, 37330, Note_on_c, 13, 57, 104
13, 37390, Note_on_c, 13, 57, 0
13, 37450, Note_on_c, 13, 58, 104
13, 37570, Note_on_c, 13, 58, 0
13, 37810, Note_on_c, 13, 46, 104
13, 37870, Note_on_c, 13, 46, 0
13, 37930, Control_c, 13, 11, 72
13, 37930, Note_on_c, 13, 46, 104
13, 37938, Control_c, 13, 11, 75
13, 37947, Control_c, 13, 11, 78
13, 37956, Control_c, 13, 11, 81
13, 37971, Control_c, 13, 11, 80
13, 37989, Control_c, 13, 11, 77
13, 38007, Control_c, 13, 11, 74
13, 38025, Control_c, 13, 11, 71
13, 38043, Control_c, 13, 11, 68
13, 38061, Control_c, 13, 11, 65
13, 38079, Control_c, 13, 11, 62
13, 38097, Control_c, 13, 11, 59
13, 38115, Control_c, 13, 11, 56
13, 38133, Control_c, 13, 11, 53
13, 38151, Control_c, 13, 11, 50
13, 38169, Control_c, 13, 11, 47
13, 38630, Note_on_c, 13, 46, 0
13, 38650, Note_on_c, 13, 46, 104
13, 38750, Note_on_c, 13, 46, 0
13, 38770, Note_on_c, 13, 46, 104
13, 38870, Note_on_c, 13, 46, 0
13, 38890, Note_on_c, 13, 46, 104
13, 38990, Note_on_c, 13, 46, 0
13, 39010, Note_on_c, 13, 46, 104
13, 39110, Note_on_c, 13, 46, 0
13, 39130, Note_on_c, 13, 46, 104
13, 39230, Note_on_c, 13, 46, 0
13, 39250, Note_on_c, 13, 46, 104
13, 39310, Note_on_c, 13, 46, 0
13, 39370, Control_c, 13, 11, 72
13, 39370, Note_on_c, 13, 46, 104
13, 39378, Control_c, 13, 11, 75
13, 39387, Control_c, 13, 11, 78
13, 39396, Control_c, 13, 11, 81
13, 39411, Control_c, 13, 11, 80
13, 39429, Control_c, 13, 11, 77
13, 39447, Control_c, 13, 11, 74
13, 39465, Control_c, 13, 11, 71
13, 39483, Control_c, 13, 11, 68
13, 39501, Control_c, 13, 11, 65
13, 39519, Control_c, 13, 11, 62
13, 39537, Control_c, 13, 11, 59
13, 39555, Control_c, 13, 11, 56
13, 39573, Control_c, 13, 11, 53
13, 39591, Control_c, 13, 11, 50
13, 39609, Control_c, 13, 11, 47
13, 40070, Note_on_c, 13, 46, 0
13, 40090, Note_on_c, 13, 46, 104
13, 40190, Note_on_c, 13, 46, 0
13, 40210, Note_on_c, 13, 46, 104
13, 40310, Note_on_c, 13, 46, 0
13, 40330, Note_on_c, 13, 46, 104
13, 40430, Note_on_c, 13, 46, 0
13, 40450, Note_on_c, 13, 46, 104
13, 40550, Note_on_c, 13, 46, 0
13, 40570, Note_on_c, 13, 46, 104
13, 40670, Note_on_c, 13, 46, 0
13, 40690, Note_on_c, 13, 46, 104
13, 40810, Note_on_c, 13, 46, 0
13, 41050, Note_on_c, 13, 45, 104
13, 41170, Note_on_c, 13, 45, 0
13, 41410, Note_on_c, 13, 44, 104
13, 41530, Note_on_c, 13, 44, 0
13, 41770, Control_c, 13, 11, 47
13, 41770, Note_on_c, 13, 56, 104
13, 41806, Control_c, 13, 11, 46
13, 41842, Control_c, 13, 11, 45
13, 41878, Control_c, 13, 11, 44
13, 41890, Note_on_c, 13, 56, 0
13, 41914, Control_c, 13, 11, 43
13, 41950, Control_c, 13, 11, 42
13, 41986, Control_c, 13, 11, 41
13, 42022, Control_c, 13, 11, 40
13, 42058, Control_c, 13, 11, 39
13, 42094, Control_c, 13, 11, 38
13, 42130, Control_c, 13, 11, 37
13, 42130, Note_on_c, 13, 57, 104
13, 42190, Note_on_c, 13, 57, 0
13, 42370, Note_on_c, 13, 49, 104
13, 42490, Note_on_c, 13, 49, 0
13, 42490, Control_c, 13, 11, 37
13, 42490, Note_on_c, 13, 50, 104
13, 42526, Control_c, 13, 11, 36
13, 42562, Control_c, 13, 11, 35
13, 42598, Control_c, 13, 11, 34
13, 42610, Note_on_c, 13, 50, 0
13, 42610, Note_on_c, 13, 53, 104
13, 42634, Control_c, 13, 11, 33
13, 42670, Control_c, 13, 11, 32
13, 42706, Control_c, 13, 11, 31
13, 42730, Note_on_c, 13, 53, 0
13, 42730, Note_on_c, 13, 56, 104
13, 42742, Control_c, 13, 11, 30
13, 42778, Control_c, 13, 11, 29
13, 42814, Control_c, 13, 11, 28
13, 42830, Note_on_c, 13, 56, 0
13, 42850, Control_c, 13, 11, 27
13, 42850, Note_on_c, 13, 57, 104
13, 42910, Note_on_c, 13, 57, 0
13, 43090, Note_on_c, 13, 49, 104
13, 43210, Note_on_c, 13, 49, 0
13, 43210, Note_on_c, 13, 50, 104
13, 43330, Note_on_c, 13, 50, 0
13, 43330, Control_c, 13, 11, 27
13, 43330, Note_on_c, 13, 53, 104
13, 43346, Control_c, 13, 11, 28
13, 43362, Control_c, 13, 11, 29
13, 43378, Control_c, 13, 11, 30
13, 43394, Control_c, 13, 11, 31
13, 43410, Control_c, 13, 11, 32
13, 43426, Control_c, 13, 11, 33
13, 43442, Control_c, 13, 11, 34
13, 43450, Note_on_c, 13, 53, 0
13, 43450, Note_on_c, 13, 56, 104
13, 43458, Control_c, 13, 11, 35
13, 43474, Control_c, 13, 11, 36
13, 43490, Control_c, 13, 11, 37
13, 43506, Control_c, 13, 11, 38
13, 43522, Control_c, 13, 11, 39
13, 43538, Control_c, 13, 11, 40
13, 43550, Note_on_c, 13, 56, 0
13, 43554, Control_c, 13, 11, 41
13, 43570, Control_c, 13, 11, 42
13, 43570, Note_on_c, 13, 57, 104
13, 43586, Control_c, 13, 11, 43
13, 43602, Control_c, 13, 11, 44
13, 43618, Control_c, 13, 11, 45
13, 43630, Note_on_c, 13, 57, 0
13, 43634, Control_c, 13, 11, 46
13, 43650, Control_c, 13, 11, 47
13, 43666, Control_c, 13, 11, 48
13, 43682, Control_c, 13, 11, 49
13, 43698, Control_c, 13, 11, 50
13, 43714, Control_c, 13, 11, 51
13, 43730, Control_c, 13, 11, 52
13, 43746, Control_c, 13, 11, 53
13, 43762, Control_c, 13, 11, 54
13, 43778, Control_c, 13, 11, 55
13, 43794, Control_c, 13, 11, 56
13, 43810, Control_c, 13, 11, 57
13, 43826, Control_c, 13, 11, 58
13, 43842, Control_c, 13, 11, 59
13, 43858, Control_c, 13, 11, 60
13, 43874, Control_c, 13, 11, 61
13, 43890, Control_c, 13, 11, 62
13, 43906, Control_c, 13, 11, 63
13, 43922, Control_c, 13, 11, 64
13, 43938, Control_c, 13, 11, 65
13, 43954, Control_c, 13, 11, 66
13, 43970, Control_c, 13, 11, 67
13, 43986, Control_c, 13, 11, 68
13, 44002, Control_c, 13, 11, 69
13, 44018, Control_c, 13, 11, 70
13, 44034, Control_c, 13, 11, 71
13, 44050, Control_c, 13, 11, 72
13, 44066, Control_c, 13, 11, 73
13, 44082, Control_c, 13, 11, 74
13, 44098, Control_c, 13, 11, 75
13, 44114, Control_c, 13, 11, 76
13, 44130, Control_c, 13, 11, 77
13, 44146, Control_c, 13, 11, 78
13, 44162, Control_c, 13, 11, 79
13, 44178, Control_c, 13, 11, 80
13, 44194, Control_c, 13, 11, 81
13, 44210, Control_c, 13, 11, 82
13, 44226, Control_c, 13, 11, 83
13, 44242, Control_c, 13, 11, 84
13, 44258, Control_c, 13, 11, 85
13, 44274, Control_c, 13, 11, 86
13, 44290, Control_c, 13, 11, 87
13, 44290, Note_on_c, 13, 50, 104
13, 44350, Note_on_c, 13, 50, 0
13, 44410, Note_on_c, 13, 52, 104
13, 44470, Note_on_c, 13, 52, 0
13, 44530, Note_on_c, 13, 54, 104
13, 44590, Note_on_c, 13, 54, 0
13, 45010, Control_c, 13, 11, 87
13, 45010, Note_on_c, 13, 55, 104
13, 45070, Note_on_c, 13, 55, 0
13, 45130, Note_on_c, 13, 57, 104
13, 45190, Note_on_c, 13, 57, 0
13, 45250, Note_on_c, 13, 59, 104
13, 45310, Note_on_c, 13, 59, 0
13, 46810, Control_c, 13, 11, 102
13, 46810, Note_on_c, 13, 50, 104
13, 46870, Note_on_c, 13, 50, 0
13, 46930, Note_on_c, 13, 45, 104
13, 46990, Note_on_c, 13, 45, 0
13, 47050, Note_on_c, 13, 50, 104
13, 47110, Note_on_c, 13, 50, 0
13, 47170, Control_c, 13, 11, 87
13, 47170, Note_on_c, 13, 50, 104
13, 47230, Note_on_c, 13, 50, 0
13, 47290, Note_on_c, 13, 52, 104
13, 47350, Note_on_c, 13, 52, 0
13, 47410, Note_on_c, 13, 54, 104
13, 47470, Note_on_c, 13, 54, 0
13, 47890, Control_c, 13, 11, 87
13, 47890, Note_on_c, 13, 55, 104
13, 47950, Note_on_c, 13, 55, 0
13, 48010, Note_on_c, 13, 57, 104
13, 48070, Note_on_c, 13, 57, 0
13, 48130, Note_on_c, 13, 59, 104
13, 48190, Note_on_c, 13, 59, 0
13, 51490, Control_c, 13, 11, 32
13, 51490, Note_on_c, 13, 60, 104
13, 51610, Note_on_c, 13, 60, 0
13, 51850, Note_on_c, 13, 53, 104
13, 51970, Note_on_c, 13, 53, 0
13, 52210, Note_on_c, 13, 57, 104
13, 52330, Note_on_c, 13, 57, 0
13, 52570, Note_on_c, 13, 50, 104
13, 52690, Note_on_c, 13, 50, 0
13, 52930, Control_c, 13, 11, 32
13, 52930, Note_on_c, 13, 50, 104
13, 52956, Control_c, 13, 11, 34
13, 52982, Control_c, 13, 11, 36
13, 53008, Control_c, 13, 11, 38
13, 53034, Control_c, 13, 11, 40
13, 53050, Note_on_c, 13, 50, 0
13, 53050, Note_on_c, 13, 52, 104
13, 53060, Control_c, 13, 11, 42
13, 53087, Control_c, 13, 11, 44
13, 53113, Control_c, 13, 11, 46
13, 53139, Control_c, 13, 11, 48
13, 53165, Control_c, 13, 11, 50
13, 53170, Note_on_c, 13, 52, 0
13, 53170, Note_on_c, 13, 53, 104
13, 53191, Control_c, 13, 11, 52
13, 53218, Control_c, 13, 11, 54
13, 53244, Control_c, 13, 11, 56
13, 53270, Control_c, 13, 11, 58
13, 53290, Note_on_c, 13, 53, 0
13, 53290, Note_on_c, 13, 54, 104
13, 53296, Control_c, 13, 11, 60
13, 53322, Control_c, 13, 11, 62
13, 53348, Control_c, 13, 11, 64
13, 53375, Control_c, 13, 11, 66
13, 53401, Control_c, 13, 11, 68
13, 53410, Note_on_c, 13, 54, 0
13, 53410, Note_on_c, 13, 55, 104
13, 53427, Control_c, 13, 11, 70
13, 53453, Control_c, 13, 11, 72
13, 53479, Control_c, 13, 11, 74
13, 53506, Control_c, 13, 11, 76
13, 53530, Note_on_c, 13, 55, 0
13, 53530, Note_on_c, 13, 56, 104
13, 53532, Control_c, 13, 11, 78
13, 53558, Control_c, 13, 11, 80
13, 53584, Control_c, 13, 11, 82
13, 53610, Control_c, 13, 11, 84
13, 53630, Note_on_c, 13, 56, 0
13, 53636, Control_c, 13, 11, 86
13, 53650, Note_on_c, 13, 57, 104
13, 53750, Note_on_c, 13, 57, 0
13, 53770, Note_on_c, 13, 57, 104
13, 53870, Note_on_c, 13, 57, 0
13, 53890, Note_on_c, 13, 57, 104
13, 53990, Note_on_c, 13, 57, 0
13, 54010, Note_on_c, 13, 50, 104
13, 54130, Note_on_c, 13, 50, 0
13, 54370, Control_c, 13, 11, 32
13, 54370, Note_on_c, 13, 60, 104
13, 54490, Note_on_c, 13, 60, 0
13, 54730, Note_on_c, 13, 53, 104
13, 54850, Note_on_c, 13, 53, 0
13, 55090, Note_on_c, 13, 57, 104
13, 55210, Note_on_c, 13, 57, 0
13, 55450, Note_on_c, 13, 50, 104
13, 55570, Note_on_c, 13, 50, 0
13, 55810, Control_c, 13, 11, 32
13, 55810, Note_on_c, 13, 50, 104
13, 55836, Control_c, 13, 11, 34
13, 55862, Control_c, 13, 11, 36
13, 55888, Control_c, 13, 11, 38
13, 55914, Control_c, 13, 11, 40
13, 55930, Note_on_c, 13, 50, 0
13, 55930, Note_on_c, 13, 52, 104
13, 55940, Control_c, 13, 11, 42
13, 55967, Control_c, 13, 11, 44
13, 55993, Control_c, 13, 11, 46
13, 56019, Control_c, 13, 11, 48
13, 56045, Control_c, 13, 11, 50
13, 56050, Note_on_c, 13, 52, 0
13, 56050, Note_on_c, 13, 53, 104
13, 56071, Control_c, 13, 11, 52
13, 56098, Control_c, 13, 11, 54
13, 56124, Control_c, 13, 11, 56
13, 56150, Control_c, 13, 11, 58
13, 56170, Note_on_c, 13, 53, 0
13, 56170, Note_on_c, 13, 54, 104
13, 56176, Control_c, 13, 11, 60
13, 56202, Control_c, 13, 11, 62
13, 56228, Control_c, 13, 11, 64
13, 56255, Control_c, 13, 11, 66
13, 56281, Control_c, 13, 11, 68
13, 56290, Note_on_c, 13, 54, 0
13, 56290, Note_on_c, 13, 55, 104
13, 56307, Control_c, 13, 11, 70
13, 56333, Control_c, 13, 11, 72
13, 56359, Control_c, 13, 11, 74
13, 56386, Control_c, 13, 11, 76
13, 56410, Note_on_c, 13, 55, 0
13, 56410, Note_on_c, 13, 56, 104
13, 56412, Control_c, 13, 11, 78
13, 56438, Control_c, 13, 11, 80
13, 56464, Control_c, 13, 11, 82
13, 56490, Control_c, 13, 11, 84
13, 56510, Note_on_c, 13, 56, 0
13, 56516, Control_c, 13, 11, 86
13, 56530, Note_on_c, 13, 57, 104
13, 56630, Note_on_c, 13, 57, 0
13, 56650, Note_on_c, 13, 57, 104
13, 56750, Note_on_c, 13, 57, 0
13, 56770, Note_on_c, 13, 57, 104
13, 56870, Note_on_c, 13, 57, 0
13, 56890, Note_on_c, 13, 62, 104
13, 57010, Note_on_c, 13, 62, 0
13, 57250, Control_c, 13, 11, 47
13, 57250, Note_on_c, 13, 50, 104
13, 57268, Control_c, 13, 11, 48
13, 57286, Control_c, 13, 11, 49
13, 57304, Control_c, 13, 11, 50
13, 57322, Control_c, 13, 11, 51
13, 57340, Control_c, 13, 11, 52
13, 57358, Control_c, 13, 11, 53
13, 57370, Note_on_c, 13, 50, 0
13, 57370, Note_on_c, 13, 52, 104
13, 57376, Control_c, 13, 11, 54
13, 57394, Control_c, 13, 11, 55
13, 57412, Control_c, 13, 11, 56
13, 57430, Control_c, 13, 11, 57
13, 57448, Control_c, 13, 11, 58
13, 57466, Control_c, 13, 11, 59
13, 57484, Control_c, 13, 11, 60
13, 57490, Note_on_c, 13, 52, 0
13, 57490, Note_on_c, 13, 53, 104
13, 57502, Control_c, 13, 11, 61
13, 57520, Control_c, 13, 11, 62
13, 57538, Control_c, 13, 11, 63
13, 57556, Control_c, 13, 11, 64
13, 57574, Control_c, 13, 11, 65
13, 57592, Control_c, 13, 11, 66
13, 57610, Note_on_c, 13, 53, 0
13, 57610, Control_c, 13, 11, 67
13, 57610, Note_on_c, 13, 54, 104
13, 57628, Control_c, 13, 11, 68
13, 57646, Control_c, 13, 11, 69
13, 57664, Control_c, 13, 11, 70
13, 57682, Control_c, 13, 11, 71
13, 57700, Control_c, 13, 11, 72
13, 57718, Control_c, 13, 11, 73
13, 57730, Note_on_c, 13, 54, 0
13, 57730, Note_on_c, 13, 55, 104
13, 57736, Control_c, 13, 11, 74
13, 57754, Control_c, 13, 11, 75
13, 57772, Control_c, 13, 11, 76
13, 57790, Control_c, 13, 11, 77
13, 57808, Control_c, 13, 11, 78
13, 57826, Control_c, 13, 11, 79
13, 57844, Control_c, 13, 11, 80
13, 57850, Note_on_c, 13, 55, 0
13, 57850, Note_on_c, 13, 56, 104
13, 57862, Control_c, 13, 11, 81
13, 57880, Control_c, 13, 11, 82
13, 57898, Control_c, 13, 11, 83
13, 57916, Control_c, 13, 11, 84
13, 57934, Control_c, 13, 11, 85
13, 57950, Note_on_c, 13, 56, 0
13, 57952, Control_c, 13, 11, 86
13, 57970, Control_c, 13, 11, 93
13, 57970, Note_on_c, 13, 57, 104
13, 57980, Control_c, 13, 11, 96
13, 57991, Control_c, 13, 11, 99
13, 58001, Control_c, 13, 11, 102
13, 58023, Control_c, 13, 11, 101
13, 58041, Control_c, 13, 11, 99
13, 58059, Control_c, 13, 11, 97
13, 58070, Note_on_c, 13, 57, 0
13, 58077, Control_c, 13, 11, 95
13, 58090, Note_on_c, 13, 57, 104
13, 58095, Control_c, 13, 11, 93
13, 58113, Control_c, 13, 11, 91
13, 58131, Control_c, 13, 11, 89
13, 58149, Control_c, 13, 11, 87
13, 58190, Note_on_c, 13, 57, 0
13, 58210, Note_on_c, 13, 57, 104
13, 58310, Note_on_c, 13, 57, 0
13, 58330, Note_on_c, 13, 62, 104
13, 58450, Note_on_c, 13, 62, 0
13, 58690, Note_on_c, 13, 45, 104
13, 58690, Control_c, 13, 11, 93
13, 58700, Control_c, 13, 11, 96
13, 58711, Control_c, 13, 11, 99
13, 58721, Control_c, 13, 11, 102
13, 58743, Control_c, 13, 11, 101
13, 58761, Control_c, 13, 11, 99
13, 58779, Control_c, 13, 11, 97
13, 58790, Note_on_c, 13, 45, 0
13, 58797, Control_c, 13, 11, 95
13, 58810, Note_on_c, 13, 57, 104
13, 58815, Control_c, 13, 11, 93
13, 58833, Control_c, 13, 11, 91
13, 58851, Control_c, 13, 11, 89
13, 58869, Control_c, 13, 11, 87
13, 58910, Note_on_c, 13, 57, 0
13, 58930, Note_on_c, 13, 57, 104
13, 59030, Note_on_c, 13, 57, 0
13, 59050, Note_on_c, 13, 62, 104
13, 59170, Note_on_c, 13, 62, 0
13, 59410, Control_c, 13, 11, 102
13, 59410, Note_on_c, 13, 45, 104
13, 59530, Note_on_c, 13, 45, 0
13, 59530, Note_on_c, 13, 57, 104
13, 59650, Note_on_c, 13, 57, 0
13, 59650, Note_on_c, 13, 57, 104
13, 59770, Note_on_c, 13, 57, 0
13, 59770, Note_on_c, 13, 57, 104
13, 59890, Note_on_c, 13, 57, 0
13, 59890, Note_on_c, 13, 57, 104
13, 60010, Note_on_c, 13, 57, 0
13, 60010, Note_on_c, 13, 57, 104
13, 60110, Note_on_c, 13, 57, 0
13, 60130, Note_on_c, 13, 62, 104
13, 60250, Note_on_c, 13, 62, 0
13, 60370, Note_on_c, 13, 57, 104
13, 60430, Note_on_c, 13, 57, 0
13, 60490, Note_on_c, 13, 50, 104
13, 60550, Note_on_c, 13, 50, 0
13, 66610, Control_c, 13, 11, 87
13, 66610, Note_on_c, 13, 54, 104
13, 66760, Note_on_c, 13, 54, 0
13, 66970, Control_c, 13, 11, 107
13, 66970, Note_on_c, 13, 54, 104
13, 67030, Control_c, 13, 11, 104
13, 67048, Control_c, 13, 11, 101
13, 67066, Control_c, 13, 11, 98
13, 67084, Control_c, 13, 11, 95
13, 67102, Control_c, 13, 11, 92
13, 67120, Note_on_c, 13, 54, 0
13, 67120, Control_c, 13, 11, 89
13, 67330, Note_on_c, 13, 54, 104
13, 67390, Note_on_c, 13, 54, 0
13, 67390, Note_on_c, 13, 53, 104
13, 67430, Note_on_c, 13, 53, 0
13, 67450, Note_on_c, 13, 54, 104
13, 67510, Note_on_c, 13, 54, 0
13, 67510, Note_on_c, 13, 53, 104
13, 67550, Note_on_c, 13, 53, 0
13, 67570, Note_on_c, 13, 54, 104
13, 67630, Note_on_c, 13, 54, 0
13, 67630, Note_on_c, 13, 53, 104
13, 67670, Note_on_c, 13, 53, 0
13, 67690, Note_on_c, 13, 54, 104
13, 67750, Note_on_c, 13, 54, 0
13, 67750, Note_on_c, 13, 53, 104
13, 67790, Note_on_c, 13, 53, 0
13, 67810, Note_on_c, 13, 54, 104
13, 67870, Note_on_c, 13, 54, 0
13, 67870, Note_on_c, 13, 53, 104
13, 67910, Note_on_c, 13, 53, 0
13, 67930, Note_on_c, 13, 54, 104
13, 67990, Note_on_c, 13, 54, 0
13, 67990, Note_on_c, 13, 53, 104
13, 68030, Note_on_c, 13, 53, 0
13, 68050, Note_on_c, 13, 54, 104
13, 68110, Note_on_c, 13, 54, 0
13, 68170, Note_on_c, 13, 46, 104
13, 68230, Note_on_c, 13, 46, 0
13, 68290, Note_on_c, 13, 49, 104
13, 68350, Note_on_c, 13, 49, 0
13, 68410, Control_c, 13, 11, 107
13, 68410, Note_on_c, 13, 54, 104
13, 68427, Control_c, 13, 11, 104
13, 68445, Control_c, 13, 11, 101
13, 68463, Control_c, 13, 11, 98
13, 68470, Note_on_c, 13, 54, 0
13, 68481, Control_c, 13, 11, 95
13, 68499, Control_c, 13, 11, 92
13, 68517, Control_c, 13, 11, 89
13, 68530, Note_on_c, 13, 49, 104
13, 68590, Note_on_c, 13, 49, 0
13, 68650, Note_on_c, 13, 46, 104
13, 68710, Note_on_c, 13, 46, 0
13, 68770, Note_on_c, 13, 42, 104
13, 68830, Note_on_c, 13, 42, 0
13, 68890, Note_on_c, 13, 46, 104
13, 68950, Note_on_c, 13, 46, 0
13, 69010, Note_on_c, 13, 49, 104
13, 69070, Note_on_c, 13, 49, 0
13, 69130, Control_c, 13, 11, 107
13, 69130, Note_on_c, 13, 54, 104
13, 69147, Control_c, 13, 11, 104
13, 69165, Control_c, 13, 11, 101
13, 69183, Control_c, 13, 11, 98
13, 69190, Note_on_c, 13, 54, 0
13, 69201, Control_c, 13, 11, 95
13, 69219, Control_c, 13, 11, 92
13, 69237, Control_c, 13, 11, 89
13, 69250, Note_on_c, 13, 49, 104
13, 69310, Note_on_c, 13, 49, 0
13, 69370, Note_on_c, 13, 46, 104
13, 69430, Note_on_c, 13, 46, 0
13, 69430, Control_c, 13, 11, 87
13, 69439, Control_c, 13, 11, 84
13, 69448, Control_c, 13, 11, 81
13, 69457, Control_c, 13, 11, 78
13, 69466, Control_c, 13, 11, 75
13, 69475, Control_c, 13, 11, 72
13, 69484, Control_c, 13, 11, 69
13, 69490, Note_on_c, 13, 42, 104
13, 69493, Control_c, 13, 11, 66
13, 69502, Control_c, 13, 11, 63
13, 69511, Control_c, 13, 11, 60
13, 69520, Control_c, 13, 11, 57
13, 69529, Control_c, 13, 11, 54
13, 69535, Note_on_c, 13, 42, 0
13, 69538, Control_c, 13, 11, 51
13, 69547, Control_c, 13, 11, 48
13, 69550, Note_on_c, 13, 42, 104
13, 69595, Note_on_c, 13, 42, 0
13, 69610, Control_c, 13, 11, 47
13, 69610, Note_on_c, 13, 42, 104
13, 69655, Note_on_c, 13, 42, 0
13, 69670, Note_on_c, 13, 42, 104
13, 69676, Control_c, 13, 11, 46
13, 69715, Note_on_c, 13, 42, 0
13, 69730, Note_on_c, 13, 42, 104
13, 69742, Control_c, 13, 11, 45
13, 69775, Note_on_c, 13, 42, 0
13, 69790, Note_on_c, 13, 42, 104
13, 69808, Control_c, 13, 11, 44
13, 69835, Note_on_c, 13, 42, 0
13, 69850, Note_on_c, 13, 54, 104
13, 69874, Control_c, 13, 11, 43
13, 69895, Note_on_c, 13, 54, 0
13, 69910, Note_on_c, 13, 54, 104
13, 69940, Control_c, 13, 11, 42
13, 69955, Note_on_c, 13, 54, 0
13, 69970, Note_on_c, 13, 54, 104
13, 70006, Control_c, 13, 11, 41
13, 70015, Note_on_c, 13, 54, 0
13, 70030, Note_on_c, 13, 54, 104
13, 70072, Control_c, 13, 11, 40
13, 70075, Note_on_c, 13, 54, 0
13, 70090, Note_on_c, 13, 54, 104
13, 70135, Note_on_c, 13, 54, 0
13, 70138, Control_c, 13, 11, 39
13, 70150, Note_on_c, 13, 54, 104
13, 70195, Note_on_c, 13, 54, 0
13, 70204, Control_c, 13, 11, 38
13, 70210, Note_on_c, 13, 42, 104
13, 70255, Note_on_c, 13, 42, 0
13, 70270, Control_c, 13, 11, 37
13, 70270, Note_on_c, 13, 42, 104
13, 70315, Note_on_c, 13, 42, 0
13, 70330, Note_on_c, 13, 42, 104
13, 70336, Control_c, 13, 11, 36
13, 70375, Note_on_c, 13, 42, 0
13, 70390, Note_on_c, 13, 42, 104
13, 70402, Control_c, 13, 11, 35
13, 70435, Note_on_c, 13, 42, 0
13, 70450, Note_on_c, 13, 42, 104
13, 70468, Control_c, 13, 11, 34
13, 70495, Note_on_c, 13, 42, 0
13, 70510, Note_on_c, 13, 42, 104
13, 70534, Control_c, 13, 11, 33
13, 70555, Note_on_c, 13, 42, 0
13, 70570, Note_on_c, 13, 42, 104
13, 70600, Control_c, 13, 11, 32
13, 70615, Note_on_c, 13, 42, 0
13, 70630, Note_on_c, 13, 42, 104
13, 70666, Control_c, 13, 11, 31
13, 70675, Note_on_c, 13, 42, 0
13, 70690, Note_on_c, 13, 42, 104
13, 70732, Control_c, 13, 11, 30
13, 70735, Note_on_c, 13, 42, 0
13, 70750, Note_on_c, 13, 42, 104
13, 70795, Note_on_c, 13, 42, 0
13, 70798, Control_c, 13, 11, 29
13, 70810, Note_on_c, 13, 42, 104
13, 70855, Note_on_c, 13, 42, 0
13, 70864, Control_c, 13, 11, 28
13, 70870, Note_on_c, 13, 42, 104
13, 70915, Note_on_c, 13, 42, 0
13, 70930, Control_c, 13, 11, 27
13, 70930, Note_on_c, 13, 42, 104
13, 71009, Control_c, 13, 11, 26
13, 71089, Control_c, 13, 11, 25
13, 71169, Control_c, 13, 11, 24
13, 71249, Control_c, 13, 11, 23
13, 71329, Control_c, 13, 11, 22
13, 71409, Control_c, 13, 11, 21
13, 71489, Control_c, 13, 11, 20
13, 71569, Control_c, 13, 11, 19
13, 71620, Note_on_c, 13, 42, 0
13, 71649, Control_c, 13, 11, 18
13, 72250, Control_c, 13, 11, 102
13, 72250, Note_on_c, 13, 45, 104
13, 72369, Control_c, 13, 11, 87
13, 72370, Note_on_c, 13, 45, 0
13, 72370, Control_c, 13, 11, 84
13, 72370, Note_on_c, 13, 50, 104
13, 72372, Control_c, 13, 11, 79
13, 72374, Control_c, 13, 11, 74
13, 72376, Control_c, 13, 11, 69
13, 72378, Control_c, 13, 11, 64
13, 72380, Control_c, 13, 11, 59
13, 72382, Control_c, 13, 11, 54
13, 72384, Control_c, 13, 11, 49
13, 72490, Note_on_c, 13, 50, 0
13, 75249, Program_c, 13, 45
13, 75250, Control_c, 13, 11, 100
13, 75250, Note_on_c, 13, 50, 26
13, 75370, Note_on_c, 13, 50, 0
13, 75370, Note_on_c, 13, 62, 26
13, 75490, Note_on_c, 13, 62, 0
13, 75490, Note_on_c, 13, 61, 26
13, 75610, Note_on_c, 13, 61, 0
13, 75610, Note_on_c, 13, 59, 26
13, 75730, Note_on_c, 13, 59, 0
13, 75730, Note_on_c, 13, 57, 26
13, 75850, Note_on_c, 13, 57, 0
13, 75850, Note_on_c, 13, 55, 26
13, 75970, Note_on_c, 13, 55, 0
13, 75970, Note_on_c, 13, 54, 26
13, 76090, Note_on_c, 13, 54, 0
13, 76090, Note_on_c, 13, 52, 26
13, 76210, Note_on_c, 13, 52, 0
13, 76210, Note_on_c, 13, 50, 26
13, 76330, Note_on_c, 13, 50, 0
13, 76330, Note_on_c, 13, 57, 26
13, 76450, Note_on_c, 13, 57, 0
13, 76570, Note_on_c, 13, 54, 26
13, 76690, Note_on_c, 13, 54, 0
13, 76690, Note_on_c, 13, 52, 26
13, 76810, Note_on_c, 13, 52, 0
13, 76810, Note_on_c, 13, 64, 31
13, 76930, Note_on_c, 13, 64, 0
13, 76930, Note_on_c, 13, 62, 38
13, 77050, Note_on_c, 13, 62, 0
13, 77050, Note_on_c, 13, 61, 53
13, 77170, Note_on_c, 13, 61, 0
13, 77170, Note_on_c, 13, 59, 44
13, 77290, Note_on_c, 13, 59, 0
13, 77290, Note_on_c, 13, 57, 44
13, 77410, Note_on_c, 13, 57, 0
13, 77410, Note_on_c, 13, 62, 26
13, 77530, Note_on_c, 13, 62, 0
13, 77530, Note_on_c, 13, 55, 26
13, 77650, Note_on_c, 13, 55, 0
13, 77650, Note_on_c, 13, 57, 26
13, 77770, Note_on_c, 13, 57, 0
13, 77770, Note_on_c, 13, 50, 26
13, 77890, Note_on_c, 13, 50, 0
13, 78010, Note_on_c, 13, 57, 26
13, 78130, Note_on_c, 13, 57, 0
13, 78130, Note_on_c, 13, 62, 26
13, 78250, Note_on_c, 13, 62, 0
13, 78250, Note_on_c, 13, 55, 26
13, 78370, Note_on_c, 13, 55, 0
13, 78370, Note_on_c, 13, 57, 26
13, 78490, Note_on_c, 13, 57, 0
13, 78490, Note_on_c, 13, 50, 26
13, 78610, Note_on_c, 13, 50, 0
13, 78730, Note_on_c, 13, 57, 35
13, 78850, Note_on_c, 13, 57, 0
13, 78850, Note_on_c, 13, 62, 40
13, 78970, Note_on_c, 13, 62, 0
13, 79090, Note_on_c, 13, 57, 49
13, 79210, Note_on_c, 13, 57, 0
13, 79210, Note_on_c, 13, 62, 53
13, 79330, Note_on_c, 13, 62, 0
13, 79450, Note_on_c, 13, 57, 26
13, 79570, Note_on_c, 13, 57, 0
13, 79570, Note_on_c, 13, 62, 26
13, 79690, Note_on_c, 13, 62, 0
13, 79690, Note_on_c, 13, 55, 26
13, 79810, Note_on_c, 13, 55, 0
13, 79810, Note_on_c, 13, 57, 26
13, 79930, Note_on_c, 13, 57, 0
13, 79930, Note_on_c, 13, 50, 26
13, 80050, Note_on_c, 13, 50, 0
13, 80289, Program_c, 13, 48
13, 80290, Control_c, 13, 11, 87
13, 80290, Note_on_c, 13, 54, 104
13, 80440, Note_on_c, 13, 54, 0
13, 80650, Control_c, 13, 11, 107
13, 80650, Note_on_c, 13, 54, 104
13, 80710, Control_c, 13, 11, 104
13, 80728, Control_c, 13, 11, 101
13, 80746, Control_c, 13, 11, 98
13, 80764, Control_c, 13, 11, 95
13, 80782, Control_c, 13, 11, 92
13, 80800, Note_on_c, 13, 54, 0
13, 80800, Control_c, 13, 11, 89
13, 81010, Note_on_c, 13, 54, 104
13, 81070, Note_on_c, 13, 54, 0
13, 81070, Note_on_c, 13, 53, 104
13, 81110, Note_on_c, 13, 53, 0
13, 81130, Note_on_c, 13, 54, 104
13, 81190, Note_on_c, 13, 54, 0
13, 81190, Note_on_c, 13, 53, 104
13, 81230, Note_on_c, 13, 53, 0
13, 81250, Note_on_c, 13, 54, 104
13, 81310, Note_on_c, 13, 54, 0
13, 81310, Note_on_c, 13, 53, 104
13, 81350, Note_on_c, 13, 53, 0
13, 81370, Note_on_c, 13, 54, 104
13, 81430, Note_on_c, 13, 54, 0
13, 81430, Note_on_c, 13, 53, 104
13, 81470, Note_on_c, 13, 53, 0
13, 81490, Note_on_c, 13, 54, 104
13, 81550, Note_on_c, 13, 54, 0
13, 81550, Note_on_c, 13, 53, 104
13, 81590, Note_on_c, 13, 53, 0
13, 81610, Note_on_c, 13, 54, 104
13, 81670, Note_on_c, 13, 54, 0
13, 81670, Note_on_c, 13, 53, 104
13, 81710, Note_on_c, 13, 53, 0
13, 81730, Note_on_c, 13, 54, 104
13, 81790, Note_on_c, 13, 54, 0
13, 81850, Note_on_c, 13, 46, 104
13, 81910, Note_on_c, 13, 46, 0
13, 81970, Note_on_c, 13, 49, 104
13, 82030, Note_on_c, 13, 49, 0
13, 82090, Control_c, 13, 11, 107
13, 82090, Note_on_c, 13, 54, 104
13, 82107, Control_c, 13, 11, 104
13, 82125, Control_c, 13, 11, 101
13, 82143, Control_c, 13, 11, 98
13, 82150, Note_on_c, 13, 54, 0
13, 82161, Control_c, 13, 11, 95
13, 82179, Control_c, 13, 11, 92
13, 82197, Control_c, 13, 11, 89
13, 82210, Note_on_c, 13, 49, 104
13, 82270, Note_on_c, 13, 49, 0
13, 82330, Note_on_c, 13, 46, 104
13, 82390, Note_on_c, 13, 46, 0
13, 82450, Note_on_c, 13, 42, 104
13, 82510, Note_on_c, 13, 42, 0
13, 82570, Note_on_c, 13, 46, 104
13, 82630, Note_on_c, 13, 46, 0
13, 82690, Note_on_c, 13, 49, 104
13, 82750, Note_on_c, 13, 49, 0
13, 82810, Control_c, 13, 11, 107
13, 82810, Note_on_c, 13, 54, 104
13, 82827, Control_c, 13, 11, 104
13, 82845, Control_c, 13, 11, 101
13, 82863, Control_c, 13, 11, 98
13, 82870, Note_on_c, 13, 54, 0
13, 82881, Control_c, 13, 11, 95
13, 82899, Control_c, 13, 11, 92
13, 82917, Control_c, 13, 11, 89
13, 82930, Note_on_c, 13, 49, 104
13, 82990, Note_on_c, 13, 49, 0
13, 83050, Note_on_c, 13, 46, 104
13, 83110, Note_on_c, 13, 46, 0
13, 83110, Control_c, 13, 11, 87
13, 83119, Control_c, 13, 11, 84
13, 83128, Control_c, 13, 11, 81
13, 83137, Control_c, 13, 11, 78
13, 83146, Control_c, 13, 11, 75
13, 83155, Control_c, 13, 11, 72
13, 83164, Control_c, 13, 11, 69
13, 83170, Note_on_c, 13, 42, 104
13, 83173, Control_c, 13, 11, 66
13, 83182, Control_c, 13, 11, 63
13, 83191, Control_c, 13, 11, 60
13, 83200, Control_c, 13, 11, 57
13, 83209, Control_c, 13, 11, 54
13, 83215, Note_on_c, 13, 42, 0
13, 83218, Control_c, 13, 11, 51
13, 83227, Control_c, 13, 11, 48
13, 83230, Note_on_c, 13, 42, 104
13, 83275, Note_on_c, 13, 42, 0
13, 83290, Control_c, 13, 11, 47
13, 83290, Note_on_c, 13, 42, 104
13, 83335, Note_on_c, 13, 42, 0
13, 83350, Note_on_c, 13, 42, 104
13, 83356, Control_c, 13, 11, 46
13, 83395, Note_on_c, 13, 42, 0
13, 83410, Note_on_c, 13, 42, 104
13, 83422, Control_c, 13, 11, 45
13, 83455, Note_on_c, 13, 42, 0
13, 83470, Note_on_c, 13, 42, 104
13, 83488, Control_c, 13, 11, 44
13, 83515, Note_on_c, 13, 42, 0
13, 83530, Note_on_c, 13, 54, 104
13, 83554, Control_c, 13, 11, 43
13, 83575, Note_on_c, 13, 54, 0
13, 83590, Note_on_c, 13, 54, 104
13, 83620, Control_c, 13, 11, 42
13, 83635, Note_on_c, 13, 54, 0
13, 83650, Note_on_c, 13, 54, 104
13, 83686, Control_c, 13, 11, 41
13, 83695, Note_on_c, 13, 54, 0
13, 83710, Note_on_c, 13, 54, 104
13, 83752, Control_c, 13, 11, 40
13, 83755, Note_on_c, 13, 54, 0
13, 83770, Note_on_c, 13, 54, 104
13, 83815, Note_on_c, 13, 54, 0
13, 83818, Control_c, 13, 11, 39
13, 83830, Note_on_c, 13, 54, 104
13, 83875, Note_on_c, 13, 54, 0
13, 83884, Control_c, 13, 11, 38
13, 83890, Note_on_c, 13, 42, 104
13, 83935, Note_on_c, 13, 42, 0
13, 83950, Control_c, 13, 11, 37
13, 83950, Note_on_c, 13, 42, 104
13, 83995, Note_on_c, 13, 42, 0
13, 84010, Note_on_c, 13, 42, 104
13, 84016, Control_c, 13, 11, 36
13, 84055, Note_on_c, 13, 42, 0
13, 84070, Note_on_c, 13, 42, 104
13, 84082, Control_c, 13, 11, 35
13, 84115, Note_on_c, 13, 42, 0
13, 84130, Note_on_c, 13, 42, 104
13, 84148, Control_c, 13, 11, 34
13, 84175, Note_on_c, 13, 42, 0
13, 84190, Note_on_c, 13, 42, 104
13, 84214, Control_c, 13, 11, 33
13, 84235, Note_on_c, 13, 42, 0
13, 84250, Note_on_c, 13, 42, 104
13, 84280, Control_c, 13, 11, 32
13, 84295, Note_on_c, 13, 42, 0
13, 84310, Note_on_c, 13, 42, 104
13, 84346, Control_c, 13, 11, 31
13, 84355, Note_on_c, 13, 42, 0
13, 84370, Note_on_c, 13, 42, 104
13, 84412, Control_c, 13, 11, 30
13, 84415, Note_on_c, 13, 42, 0
13, 84430, Note_on_c, 13, 42, 104
13, 84475, Note_on_c, 13, 42, 0
13, 84478, Control_c, 13, 11, 29
13, 84490, Note_on_c, 13, 42, 104
13, 84535, Note_on_c, 13, 42, 0
13, 84544, Control_c, 13, 11, 28
13, 84550, Note_on_c, 13, 42, 104
13, 84595, Note_on_c, 13, 42, 0
13, 84610, Control_c, 13, 11, 27
13, 84610, Note_on_c, 13, 42, 104
13, 84689, Control_c, 13, 11, 26
13, 84769, Control_c, 13, 11, 25
13, 84849, Control_c, 13, 11, 24
13, 84929, Control_c, 13, 11, 23
13, 85009, Control_c, 13, 11, 22
13, 85089, Control_c, 13, 11, 21
13, 85169, Control_c, 13, 11, 20
13, 85249, Control_c, 13, 11, 19
13, 85300, Note_on_c, 13, 42, 0
13, 85329, Control_c, 13, 11, 18
13, 85930, Control_c, 13, 11, 102
13, 85930, Note_on_c, 13, 45, 104
13, 86049, Control_c, 13, 11, 87
13, 86050, Note_on_c, 13, 45, 0
13, 86050, Control_c, 13, 11, 84
13, 86050, Note_on_c, 13, 50, 104
13, 86052, Control_c, 13, 11, 79
13, 86054, Control_c, 13, 11, 74
13, 86056, Control_c, 13, 11, 69
13, 86058, Control_c, 13, 11, 64
13, 86060, Control_c, 13, 11, 59
13, 86062, Control_c, 13, 11, 54
13, 86064, Control_c, 13, 11, 49
13, 86170, Note_on_c, 13, 50, 0
13, 88929, Program_c, 13, 45
13, 88930, Control_c, 13, 11, 100
13, 88930, Note_on_c, 13, 50, 26
13, 89050, Note_on_c, 13, 50, 0
13, 89050, Note_on_c, 13, 62, 26
13, 89170, Note_on_c, 13, 62, 0
13, 89170, Note_on_c, 13, 61, 26
13, 89290, Note_on_c, 13, 61, 0
13, 89290, Note_on_c, 13, 59, 26
13, 89410, Note_on_c, 13, 59, 0
13, 89410, Note_on_c, 13, 57, 26
13, 89530, Note_on_c, 13, 57, 0
13, 89530, Note_on_c, 13, 55, 26
13, 89650, Note_on_c, 13, 55, 0
13, 89650, Note_on_c, 13, 54, 26
13, 89770, Note_on_c, 13, 54, 0
13, 89770, Note_on_c, 13, 52, 26
13, 89890, Note_on_c, 13, 52, 0
13, 89890, Note_on_c, 13, 50, 26
13, 90010, Note_on_c, 13, 50, 0
13, 90010, Note_on_c, 13, 57, 26
13, 90130, Note_on_c, 13, 57, 0
13, 90250, Note_on_c, 13, 54, 26
13, 90370, Note_on_c, 13, 54, 0
13, 90370, Note_on_c, 13, 52, 26
13, 90490, Note_on_c, 13, 52, 0
13, 90490, Note_on_c, 13, 64, 31
13, 90610, Note_on_c, 13, 64, 0
13, 90610, Note_on_c, 13, 62, 38
13, 90730, Note_on_c, 13, 62, 0
13, 90730, Note_on_c, 13, 61, 53
13, 90850, Note_on_c, 13, 61, 0
13, 90850, Note_on_c, 13, 59, 44
13, 90970, Note_on_c, 13, 59, 0
13, 90970, Note_on_c, 13, 57, 44
13, 91090, Note_on_c, 13, 57, 0
13, 91090, Note_on_c, 13, 62, 26
13, 91210, Note_on_c, 13, 62, 0
13, 91210, Note_on_c, 13, 55, 26
13, 91330, Note_on_c, 13, 55, 0
13, 91330, Note_on_c, 13, 57, 26
13, 91450, Note_on_c, 13, 57, 0
13, 91450, Note_on_c, 13, 50, 26
13, 91570, Note_on_c, 13, 50, 0
13, 91690, Note_on_c, 13, 57, 26
13, 91810, Note_on_c, 13, 57, 0
13, 91810, Note_on_c, 13, 62, 26
13, 91930, Note_on_c, 13, 62, 0
13, 91930, Note_on_c, 13, 55, 26
13, 92050, Note_on_c, 13, 55, 0
13, 92050, Note_on_c, 13, 57, 26
13, 92170, Note_on_c, 13, 57, 0
13, 92170, Note_on_c, 13, 50, 26
13, 92290, Note_on_c, 13, 50, 0
13, 92410, Note_on_c, 13, 57, 35
13, 92530, Note_on_c, 13, 57, 0
13, 92530, Note_on_c, 13, 62, 40
13, 92650, Note_on_c, 13, 62, 0
13, 92770, Note_on_c, 13, 57, 49
13, 92890, Note_on_c, 13, 57, 0
13, 92890, Note_on_c, 13, 62, 53
13, 93010, Note_on_c, 13, 62, 0
13, 93130, Note_on_c, 13, 57, 26
13, 93250, Note_on_c, 13, 57, 0
13, 93250, Note_on_c, 13, 62, 26
13, 93370, Note_on_c, 13, 62, 0
13, 93370, Note_on_c, 13, 55, 26
13, 93490, Note_on_c, 13, 55, 0
13, 93490, Note_on_c, 13, 57, 26
13, 93610, Note_on_c, 13, 57, 0
13, 93610, Note_on_c, 13, 50, 26
13, 93730, Note_on_c, 13, 50, 0
13, 93969, Program_c, 13, 48
13, 93970, Control_c, 13, 11, 87
13, 93970, Note_on_c, 13, 50, 104
13, 94030, Note_on_c, 13, 50, 0
13, 94090, Note_on_c, 13, 52, 104
13, 94150, Note_on_c, 13, 52, 0
13, 94210, Note_on_c, 13, 54, 104
13, 94270, Note_on_c, 13, 54, 0
13, 94690, Note_on_c, 13, 55, 104
13, 94750, Note_on_c, 13, 55, 0
13, 94810, Note_on_c, 13, 57, 104
13, 94870, Note_on_c, 13, 57, 0
13, 94930, Note_on_c, 13, 59, 104
13, 94990, Note_on_c, 13, 59, 0
13, 96490, Control_c, 13, 11, 102
13, 96490, Note_on_c, 13, 50, 104
13, 96550, Note_on_c, 13, 50, 0
13, 96610, Note_on_c, 13, 45, 104
13, 96670, Note_on_c, 13, 45, 0
13, 96730, Note_on_c, 13, 50, 104
13, 96790, Note_on_c, 13, 50, 0
13, 96850, Control_c, 13, 11, 87
13, 96850, Note_on_c, 13, 50, 104
13, 96910, Note_on_c, 13, 50, 0
13, 96970, Note_on_c, 13, 52, 104
13, 97030, Note_on_c, 13, 52, 0
13, 97090, Note_on_c, 13, 54, 104
13, 97150, Note_on_c, 13, 54, 0
13, 97570, Note_on_c, 13, 56, 104
13, 97630, Note_on_c, 13, 56, 0
13, 97690, Note_on_c, 13, 57, 104
13, 97750, Note_on_c, 13, 57, 0
13, 97810, Note_on_c, 13, 59, 104
13, 97870, Note_on_c, 13, 59, 0
13, 99370, Control_c, 13, 11, 102
13, 99370, Note_on_c, 13, 57, 104
13, 99430, Note_on_c, 13, 57, 0
13, 99490, Note_on_c, 13, 52, 104
13, 99550, Note_on_c, 13, 52, 0
13, 99610, Note_on_c, 13, 57, 104
13, 99670, Note_on_c, 13, 57, 0
13, 99730, Control_c, 13, 11, 87
13, 99730, Note_on_c, 13, 50, 104
13, 99790, Note_on_c, 13, 50, 0
13, 99850, Note_on_c, 13, 52, 104
13, 99910, Note_on_c, 13, 52, 0
13, 99970, Note_on_c, 13, 54, 104
13, 100030, Note_on_c, 13, 54, 0
13, 100450, Note_on_c, 13, 55, 104
13, 100510, Note_on_c, 13, 55, 0
13, 100570, Note_on_c, 13, 57, 104
13, 100630, Note_on_c, 13, 57, 0
13, 100690, Note_on_c, 13, 59, 104
13, 100750, Note_on_c, 13, 59, 0
13, 102250, Control_c, 13, 11, 102
13, 102250, Note_on_c, 13, 50, 104
13, 102310, Note_on_c, 13, 50, 0
13, 102370, Note_on_c, 13, 45, 104
13, 102430, Note_on_c, 13, 45, 0
13, 102490, Note_on_c, 13, 50, 104
13, 102550, Note_on_c, 13, 50, 0
13, 102610, Control_c, 13, 11, 87
13, 102610, Note_on_c, 13, 50, 104
13, 102670, Note_on_c, 13, 50, 0
13, 102730, Note_on_c, 13, 52, 104
13, 102790, Note_on_c, 13, 52, 0
13, 102850, Note_on_c, 13, 54, 104
13, 102910, Note_on_c, 13, 54, 0
13, 103330, Note_on_c, 13, 56, 104
13, 103390, Note_on_c, 13, 56, 0
13, 103450, Note_on_c, 13, 57, 104
13, 103510, Note_on_c, 13, 57, 0
13, 103570, Note_on_c, 13, 59, 104
13, 103630, Note_on_c, 13, 59, 0
13, 105130, Control_c, 13, 11, 102
13, 105130, Note_on_c, 13, 57, 104
13, 105190, Note_on_c, 13, 57, 0
13, 105250, Note_on_c, 13, 52, 104
13, 105310, Note_on_c, 13, 52, 0
13, 105370, Note_on_c, 13, 57, 104
13, 105430, Note_on_c, 13, 57, 0
13, 105490, Control_c, 13, 11, 47
13, 105490, Note_on_c, 13, 57, 104
13, 105550, Note_on_c, 13, 57, 0
13, 105610, Note_on_c, 13, 59, 104
13, 105670, Note_on_c, 13, 59, 0
13, 105730, Note_on_c, 13, 61, 104
13, 105790, Note_on_c, 13, 61, 0
13, 105850, Note_on_c, 13, 62, 104
13, 105970, Note_on_c, 13, 62, 0
13, 106210, Note_on_c, 13, 53, 104
13, 106270, Note_on_c, 13, 53, 0
13, 106330, Note_on_c, 13, 55, 104
13, 106390, Note_on_c, 13, 55, 0
13, 106450, Note_on_c, 13, 57, 104
13, 106510, Note_on_c, 13, 57, 0
13, 106570, Note_on_c, 13, 58, 104
13, 106690, Note_on_c, 13, 58, 0
13, 106930, Note_on_c, 13, 46, 104
13, 106990, Note_on_c, 13, 46, 0
13, 107050, Control_c, 13, 11, 72
13, 107050, Note_on_c, 13, 46, 104
13, 107058, Control_c, 13, 11, 75
13, 107067, Control_c, 13, 11, 78
13, 107076, Control_c, 13, 11, 81
13, 107091, Control_c, 13, 11, 80
13, 107109, Control_c, 13, 11, 77
13, 107127, Control_c, 13, 11, 74
13, 107145, Control_c, 13, 11, 71
13, 107163, Control_c, 13, 11, 68
13, 107181, Control_c, 13, 11, 65
13, 107199, Control_c, 13, 11, 62
13, 107217, Control_c, 13, 11, 59
13, 107235, Control_c, 13, 11, 56
13, 107253, Control_c, 13, 11, 53
13, 107271, Control_c, 13, 11, 50
13, 107289, Control_c, 13, 11, 47
13, 107750, Note_on_c, 13, 46, 0
13, 107770, Note_on_c, 13, 46, 104
13, 107870, Note_on_c, 13, 46, 0
13, 107890, Note_on_c, 13, 46, 104
13, 107990, Note_on_c, 13, 46, 0
13, 108010, Note_on_c, 13, 46, 104
13, 108110, Note_on_c, 13, 46, 0
13, 108130, Note_on_c, 13, 46, 104
13, 108230, Note_on_c, 13, 46, 0
13, 108250, Note_on_c, 13, 46, 104
13, 108350, Note_on_c, 13, 46, 0
13, 108370, Note_on_c, 13, 46, 104
13, 108430, Note_on_c, 13, 46, 0
13, 108490, Control_c, 13, 11, 72
13, 108490, Note_on_c, 13, 46, 104
13, 108498, Control_c, 13, 11, 75
13, 108507, Control_c, 13, 11, 78
13, 108516, Control_c, 13, 11, 81
13, 108531, Control_c, 13, 11, 80
13, 108549, Control_c, 13, 11, 77
13, 108567, Control_c, 13, 11, 74
13, 108585, Control_c, 13, 11, 71
13, 108603, Control_c, 13, 11, 68
13, 108621, Control_c, 13, 11, 65
13, 108639, Control_c, 13, 11, 62
13, 108657, Control_c, 13, 11, 59
13, 108675, Control_c, 13, 11, 56
13, 108693, Control_c, 13, 11, 53
13, 108711, Control_c, 13, 11, 50
13, 108729, Control_c, 13, 11, 47
13, 109190, Note_on_c, 13, 46, 0
13, 109210, Note_on_c, 13, 46, 104
13, 109310, Note_on_c, 13, 46, 0
13, 109330, Note_on_c, 13, 46, 104
13, 109430, Note_on_c, 13, 46, 0
13, 109450, Note_on_c, 13, 46, 104
13, 109550, Note_on_c, 13, 46, 0
13, 109570, Note_on_c, 13, 46, 104
13, 109670, Note_on_c, 13, 46, 0
13, 109690, Note_on_c, 13, 46, 104
13, 109790, Note_on_c, 13, 46, 0
13, 109810, Note_on_c, 13, 46, 104
13, 109930, Note_on_c, 13, 46, 0
13, 110170, Note_on_c, 13, 45, 104
13, 110290, Note_on_c, 13, 45, 0
13, 110530, Note_on_c, 13, 44, 104
13, 110650, Note_on_c, 13, 44, 0
13, 110890, Control_c, 13, 11, 47
13, 110890, Note_on_c, 13, 56, 104
13, 110926, Control_c, 13, 11, 46
13, 110962, Control_c, 13, 11, 45
13, 110998, Control_c, 13, 11, 44
13, 111010, Note_on_c, 13, 56, 0
13, 111034, Control_c, 13, 11, 43
13, 111070, Control_c, 13, 11, 42
13, 111106, Control_c, 13, 11, 41
13, 111142, Control_c, 13, 11, 40
13, 111178, Control_c, 13, 11, 39
13, 111214, Control_c, 13, 11, 38
13, 111250, Control_c, 13, 11, 37
13, 111250, Note_on_c, 13, 57, 104
13, 111310, Note_on_c, 13, 57, 0
13, 111490, Note_on_c, 13, 49, 104
13, 111610, Note_on_c, 13, 49, 0
13, 111610, Control_c, 13, 11, 37
13, 111610, Note_on_c, 13, 50, 104
13, 111646, Control_c, 13, 11, 36
13, 111682, Control_c, 13, 11, 35
13, 111718, Control_c, 13, 11, 34
13, 111730, Note_on_c, 13, 50, 0
13, 111730, Note_on_c, 13, 53, 104
13, 111754, Control_c, 13, 11, 33
13, 111790, Control_c, 13, 11, 32
13, 111826, Control_c, 13, 11, 31
13, 111850, Note_on_c, 13, 53, 0
13, 111850, Note_on_c, 13, 56, 104
13, 111862, Control_c, 13, 11, 30
13, 111898, Control_c, 13, 11, 29
13, 111934, Control_c, 13, 11, 28
13, 111950, Note_on_c, 13, 56, 0
13, 111970, Control_c, 13, 11, 27
13, 111970, Note_on_c, 13, 57, 104
13, 112030, Note_on_c, 13, 57, 0
13, 112210, Note_on_c, 13, 49, 104
13, 112330, Note_on_c, 13, 49, 0
13, 112330, Note_on_c, 13, 50, 104
13, 112450, Note_on_c, 13, 50, 0
13, 112450, Control_c, 13, 11, 27
13, 112450, Note_on_c, 13, 53, 104
13, 112466, Control_c, 13, 11, 28
13, 112482, Control_c, 13, 11, 29
13, 112498, Control_c, 13, 11, 30
13, 112514, Control_c, 13, 11, 31
13, 112530, Control_c, 13, 11, 32
13, 112546, Control_c, 13, 11, 33
13, 112562, Control_c, 13, 11, 34
13, 112570, Note_on_c, 13, 53, 0
13, 112570, Note_on_c, 13, 56, 104
13, 112578, Control_c, 13, 11, 35
13, 112594, Control_c, 13, 11, 36
13, 112610, Control_c, 13, 11, 37
13, 112626, Control_c, 13, 11, 38
13, 112642, Control_c, 13, 11, 39
13, 112658, Control_c, 13, 11, 40
13, 112670, Note_on_c, 13, 56, 0
13, 112674, Control_c, 13, 11, 41
13, 112690, Control_c, 13, 11, 42
13, 112690, Note_on_c, 13, 57, 104
13, 112706, Control_c, 13, 11, 43
13, 112722, Control_c, 13, 11, 44
13, 112738, Control_c, 13, 11, 45
13, 112750, Note_on_c, 13, 57, 0
13, 112754, Control_c, 13, 11, 46
13, 112770, Control_c, 13, 11, 47
13, 112786, Control_c, 13, 11, 48
13, 112802, Control_c, 13, 11, 49
13, 112818, Control_c, 13, 11, 50
13, 112834, Control_c, 13, 11, 51
13, 112850, Control_c, 13, 11, 52
13, 112866, Control_c, 13, 11, 53
13, 112882, Control_c, 13, 11, 54
13, 112898, Control_c, 13, 11, 55
13, 112914, Control_c, 13, 11, 56
13, 112930, Control_c, 13, 11, 57
13, 112946, Control_c, 13, 11, 58
13, 112962, Control_c, 13, 11, 59
13, 112978, Control_c, 13, 11, 60
13, 112994, Control_c, 13, 11, 61
13, 113010, Control_c, 13, 11, 62
13, 113026, Control_c, 13, 11, 63
13, 113042, Control_c, 13, 11, 64
13, 113058, Control_c, 13, 11, 65
13, 113074, Control_c, 13, 11, 66
13, 113090, Control_c, 13, 11, 67
13, 113106, Control_c, 13, 11, 68
13, 113122, Control_c, 13, 11, 69
13, 113138, Control_c, 13, 11, 70
13, 113154, Control_c, 13, 11, 71
13, 113170, Control_c, 13, 11, 72
13, 113186, Control_c, 13, 11, 73
13, 113202, Control_c, 13, 11, 74
13, 113218, Control_c, 13, 11, 75
13, 113234, Control_c, 13, 11, 76
13, 113250, Control_c, 13, 11, 77
13, 113266, Control_c, 13, 11, 78
13, 113282, Control_c, 13, 11, 79
13, 113298, Control_c, 13, 11, 80
13, 113314, Control_c, 13, 11, 81
13, 113330, Control_c, 13, 11, 82
13, 113346, Control_c, 13, 11, 83
13, 113362, Control_c, 13, 11, 84
13, 113378, Control_c, 13, 11, 85
13, 113394, Control_c, 13, 11, 86
13, 113410, Control_c, 13, 11, 87
13, 113410, Note_on_c, 13, 50, 104
13, 113470, Note_on_c, 13, 50, 0
13, 113530, Note_on_c, 13, 52, 104
13, 113590, Note_on_c, 13, 52, 0
13, 113650, Note_on_c, 13, 54, 104
13, 113710, Note_on_c, 13, 54, 0
13, 114130, Control_c, 13, 11, 87
13, 114130, Note_on_c, 13, 55, 104
13, 114190, Note_on_c, 13, 55, 0
13, 114250, Note_on_c, 13, 57, 104
13, 114310, Note_on_c, 13, 57, 0
13, 114370, Note_on_c, 13, 59, 104
13, 114430, Note_on_c, 13, 59, 0
13, 115930, Control_c, 13, 11, 102
13, 115930, Note_on_c, 13, 50, 104
13, 115990, Note_on_c, 13, 50, 0
13, 116050, Note_on_c, 13, 45, 104
13, 116110, Note_on_c, 13, 45, 0
13, 116170, Note_on_c, 13, 50, 104
13, 116230, Note_on_c, 13, 50, 0
13, 116290, Control_c, 13, 11, 87
13, 116290, Note_on_c, 13, 50, 104
13, 116350, Note_on_c, 13, 50, 0
13, 116410, Note_on_c, 13, 52, 104
13, 116470, Note_on_c, 13, 52, 0
13, 116530, Note_on_c, 13, 54, 104
13, 116590, Note_on_c, 13, 54, 0
13, 117010, Control_c, 13, 11, 87
13, 117010, Note_on_c, 13, 55, 104
13, 117070, Note_on_c, 13, 55, 0
13, 117130, Note_on_c, 13, 57, 104
13, 117190, Note_on_c, 13, 57, 0
13, 117250, Note_on_c, 13, 59, 104
13, 117310, Note_on_c, 13, 59, 0
13, 120610, Control_c, 13, 11, 32
13, 120610, Note_on_c, 13, 60, 104
13, 120730, Note_on_c, 13, 60, 0
13, 120970, Note_on_c, 13, 53, 104
13, 121090, Note_on_c, 13, 53, 0
13, 121330, Note_on_c, 13, 57, 104
13, 121450, Note_on_c, 13, 57, 0
13, 121690, Note_on_c, 13, 50, 104
13, 121810, Note_on_c, 13, 50, 0
13, 122050, Control_c, 13, 11, 32
13, 122050, Note_on_c, 13, 50, 104
13, 122076, Control_c, 13, 11, 34
13, 122102, Control_c, 13, 11, 36
13, 122128, Control_c, 13, 11, 38
13, 122154, Control_c, 13, 11, 40
13, 122170, Note_on_c, 13, 50, 0
13, 122170, Note_on_c, 13, 52, 104
13, 122180, Control_c, 13, 11, 42
13, 122207, Control_c, 13, 11, 44
13, 122233, Control_c, 13, 11, 46
13, 122259, Control_c, 13, 11, 48
13, 122285, Control_c, 13, 11, 50
13, 122290, Note_on_c, 13, 52, 0
13, 122290, Note_on_c, 13, 53, 104
13, 122311, Control_c, 13, 11, 52
13, 122338, Control_c, 13, 11, 54
13, 122364, Control_c, 13, 11, 56
13, 122390, Control_c, 13, 11, 58
13, 122410, Note_on_c, 13, 53, 0
13, 122410, Note_on_c, 13, 54, 104
13, 122416, Control_c, 13, 11, 60
13, 122442, Control_c, 13, 11, 62
13, 122468, Control_c, 13, 11, 64
13, 122495, Control_c, 13, 11, 66
13, 122521, Control_c, 13, 11, 68
13, 122530, Note_on_c, 13, 54, 0
13, 122530, Note_on_c, 13, 55, 104
13, 122547, Control_c, 13, 11, 70
13, 122573, Control_c, 13, 11, 72
13, 122599, Control_c, 13, 11, 74
13, 122626, Control_c, 13, 11, 76
13, 122650, Note_on_c, 13, 55, 0
13, 122650, Note_on_c, 13, 56, 104
13, 122652, Control_c, 13, 11, 78
13, 122678, Control_c, 13, 11, 80
13, 122704, Control_c, 13, 11, 82
13, 122730, Control_c, 13, 11, 84
13, 122750, Note_on_c, 13, 56, 0
13, 122756, Control_c, 13, 11, 86
13, 122770, Note_on_c, 13, 57, 104
13, 122870, Note_on_c, 13, 57, 0
13, 122890, Note_on_c, 13, 57, 104
13, 122990, Note_on_c, 13, 57, 0
13, 123010, Note_on_c, 13, 57, 104
13, 123110, Note_on_c, 13, 57, 0
13, 123130, Note_on_c, 13, 50, 104
13, 123250, Note_on_c, 13, 50, 0
13, 123490, Control_c, 13, 11, 32
13, 123490, Note_on_c, 13, 60, 104
13, 123610, Note_on_c, 13, 60, 0
13, 123850, Note_on_c, 13, 53, 104
13, 123970, Note_on_c, 13, 53, 0
13, 124210, Note_on_c, 13, 57, 104
13, 124330, Note_on_c, 13, 57, 0
13, 124570, Note_on_c, 13, 50, 104
13, 124690, Note_on_c, 13, 50, 0
13, 124930, Control_c, 13, 11, 32
13, 124930, Note_on_c, 13, 50, 104
13, 124956, Control_c, 13, 11, 34
13, 124982, Control_c, 13, 11, 36
13, 125008, Control_c, 13, 11, 38
13, 125034, Control_c, 13, 11, 40
13, 125050, Note_on_c, 13, 50, 0
13, 125050, Note_on_c, 13, 52, 104
13, 125060, Control_c, 13, 11, 42
13, 125087, Control_c, 13, 11, 44
13, 125113, Control_c, 13, 11, 46
13, 125139, Control_c, 13, 11, 48
13, 125165, Control_c, 13, 11, 50
13, 125170, Note_on_c, 13, 52, 0
13, 125170, Note_on_c, 13, 53, 104
13, 125191, Control_c, 13, 11, 52
13, 125218, Control_c, 13, 11, 54
13, 125244, Control_c, 13, 11, 56
13, 125270, Control_c, 13, 11, 58
13, 125290, Note_on_c, 13, 53, 0
13, 125290, Note_on_c, 13, 54, 104
13, 125296, Control_c, 13, 11, 60
13, 125322, Control_c, 13, 11, 62
13, 125348, Control_c, 13, 11, 64
13, 125375, Control_c, 13, 11, 66
13, 125401, Control_c, 13, 11, 68
13, 125410, Note_on_c, 13, 54, 0
13, 125410, Note_on_c, 13, 55, 104
13, 125427, Control_c, 13, 11, 70
13, 125453, Control_c, 13, 11, 72
13, 125479, Control_c, 13, 11, 74
13, 125506, Control_c, 13, 11, 76
13, 125530, Note_on_c, 13, 55, 0
13, 125530, Note_on_c, 13, 56, 104
13, 125532, Control_c, 13, 11, 78
13, 125558, Control_c, 13, 11, 80
13, 125584, Control_c, 13, 11, 82
13, 125610, Control_c, 13, 11, 84
13, 125630, Note_on_c, 13, 56, 0
13, 125636, Control_c, 13, 11, 86
13, 125650, Note_on_c, 13, 57, 104
13, 125750, Note_on_c, 13, 57, 0
13, 125770, Note_on_c, 13, 57, 104
13, 125870, Note_on_c, 13, 57, 0
13, 125890, Note_on_c, 13, 57, 104
13, 125990, Note_on_c, 13, 57, 0
13, 126010, Note_on_c, 13, 62, 104
13, 126130, Note_on_c, 13, 62, 0
13, 126370, Control_c, 13, 11, 47
13, 126370, Note_on_c, 13, 50, 104
13, 126388, Control_c, 13, 11, 48
13, 126406, Control_c, 13, 11, 49
13, 126424, Control_c, 13, 11, 50
13, 126442, Control_c, 13, 11, 51
13, 126460, Control_c, 13, 11, 52
13, 126478, Control_c, 13, 11, 53
13, 126490, Note_on_c, 13, 50, 0
13, 126490, Note_on_c, 13, 52, 104
13, 126496, Control_c, 13, 11, 54
13, 126514, Control_c, 13, 11, 55
13, 126532, Control_c, 13, 11, 56
13, 126550, Control_c, 13, 11, 57
13, 126568, Control_c, 13, 11, 58
13, 126586, Control_c, 13, 11, 59
13, 126604, Control_c, 13, 11, 60
13, 126610, Note_on_c, 13, 52, 0
13, 126610, Note_on_c, 13, 53, 104
13, 126622, Control_c, 13, 11, 61
13, 126640, Control_c, 13, 11, 62
13, 126658, Control_c, 13, 11, 63
13, 126676, Control_c, 13, 11, 64
13, 126694, Control_c, 13, 11, 65
13, 126712, Control_c, 13, 11, 66
13, 126730, Note_on_c, 13, 53, 0
13, 126730, Control_c, 13, 11, 67
13, 126730, Note_on_c, 13, 54, 104
13, 126748, Control_c, 13, 11, 68
13, 126766, Control_c, 13, 11, 69
13, 126784, Control_c, 13, 11, 70
13, 126802, Control_c, 13, 11, 71
13, 126820, Control_c, 13, 11, 72
13, 126838, Control_c, 13, 11, 73
13, 126850, Note_on_c, 13, 54, 0
13, 126850, Note_on_c, 13, 55, 104
13, 126856, Control_c, 13, 11, 74
13, 126874, Control_c, 13, 11, 75
13, 126892, Control_c, 13, 11, 76
13, 126910, Control_c, 13, 11, 77
13, 126928, Control_c, 13, 11, 78
13, 126946, Control_c, 13, 11, 79
13, 126964, Control_c, 13, 11, 80
13, 126970, Note_on_c, 13, 55, 0
13, 126970, Note_on_c, 13, 56, 104
13, 126982, Control_c, 13, 11, 81
13, 127000, Control_c, 13, 11, 82
13, 127018, Control_c, 13, 11, 83
13, 127036, Control_c, 13, 11, 84
13, 127054, Control_c, 13, 11, 85
13, 127070, Note_on_c, 13, 56, 0
13, 127072, Control_c, 13, 11, 86
13, 127090, Control_c, 13, 11, 93
13, 127090, Note_on_c, 13, 57, 104
13, 127100, Control_c, 13, 11, 96
13, 127111, Control_c, 13, 11, 99
13, 127121, Control_c, 13, 11, 102
13, 127143, Control_c, 13, 11, 101
13, 127161, Control_c, 13, 11, 99
13, 127179, Control_c, 13, 11, 97
13, 127190, Note_on_c, 13, 57, 0
13, 127197, Control_c, 13, 11, 95
13, 127210, Note_on_c, 13, 57, 104
13, 127215, Control_c, 13, 11, 93
13, 127233, Control_c, 13, 11, 91
13, 127251, Control_c, 13, 11, 89
13, 127269, Control_c, 13, 11, 87
13, 127310, Note_on_c, 13, 57, 0
13, 127330, Note_on_c, 13, 57, 104
13, 127430, Note_on_c, 13, 57, 0
13, 127450, Note_on_c, 13, 62, 104
13, 127570, Note_on_c, 13, 62, 0
13, 127810, Note_on_c, 13, 45, 104
13, 127810, Control_c, 13, 11, 93
13, 127820, Control_c, 13, 11, 96
13, 127831, Control_c, 13, 11, 99
13, 127841, Control_c, 13, 11, 102
13, 127863, Control_c, 13, 11, 101
13, 127881, Control_c, 13, 11, 99
13, 127899, Control_c, 13, 11, 97
13, 127910, Note_on_c, 13, 45, 0
13, 127917, Control_c, 13, 11, 95
13, 127930, Note_on_c, 13, 57, 104
13, 127935, Control_c, 13, 11, 93
13, 127953, Control_c, 13, 11, 91
13, 127971, Control_c, 13, 11, 89
13, 127989, Control_c, 13, 11, 87
13, 128030, Note_on_c, 13, 57, 0
13, 128050, Note_on_c, 13, 57, 104
13, 128150, Note_on_c, 13, 57, 0
13, 128170, Note_on_c, 13, 62, 104
13, 128290, Note_on_c, 13, 62, 0
13, 128530, Control_c, 13, 11, 102
13, 128530, Note_on_c, 13, 45, 104
13, 128650, Note_on_c, 13, 45, 0
13, 128650, Note_on_c, 13, 57, 104
13, 128770, Note_on_c, 13, 57, 0
13, 128770, Note_on_c, 13, 57, 104
13, 128890, Note_on_c, 13, 57, 0
13, 128890, Note_on_c, 13, 57, 104
13, 129010, Note_on_c, 13, 57, 0
13, 129010, Note_on_c, 13, 57, 104
13, 129130, Note_on_c, 13, 57, 0
13, 129130, Note_on_c, 13, 57, 104
13, 129230, Note_on_c, 13, 57, 0
13, 129250, Note_on_c, 13, 62, 104
13, 129370, Note_on_c, 13, 62, 0
13, 129490, Note_on_c, 13, 57, 104
13, 129550, Note_on_c, 13, 57, 0
13, 129610, Note_on_c, 13, 50, 104
13, 129670, Note_on_c, 13, 50, 0
13, 129970, Control_c, 13, 121, 0
13, 129970, End_track
14, 0, Start_track
14, 0, MIDI_port, 0
14, 0, Title_t, "Contrabasse"
14, 0, Program_c, 14, 48
14, 0, Control_c, 14, 10, 127
14, 12, Control_c, 14, 121, 0
14, 17, Program_c, 14, 48
14, 22, Pitch_bend_c, 14, 8492
14, 27, Control_c, 14, 11, 87
14, 32, Control_c, 14, 7, 127
14, 37, Control_c, 14, 91, 55
14, 42, Control_c, 14, 93, 0
14, 372, Control_c, 14, 11, 87
14, 372, Note_on_c, 14, 38, 106
14, 432, Note_on_c, 14, 38, 0
14, 492, Note_on_c, 14, 40, 106
14, 552, Note_on_c, 14, 40, 0
14, 612, Note_on_c, 14, 42, 106
14, 672, Note_on_c, 14, 42, 0
14, 1092, Note_on_c, 14, 43, 106
14, 1152, Note_on_c, 14, 43, 0
14, 1212, Note_on_c, 14, 45, 106
14, 1272, Note_on_c, 14, 45, 0
14, 1332, Note_on_c, 14, 47, 106
14, 1392, Note_on_c, 14, 47, 0
14, 2892, Control_c, 14, 11, 102
14, 2892, Note_on_c, 14, 38, 106
14, 2952, Note_on_c, 14, 38, 0
14, 3012, Note_on_c, 14, 33, 106
14, 3072, Note_on_c, 14, 33, 0
14, 3132, Note_on_c, 14, 38, 106
14, 3192, Note_on_c, 14, 38, 0
14, 3252, Control_c, 14, 11, 87
14, 3252, Note_on_c, 14, 38, 106
14, 3312, Note_on_c, 14, 38, 0
14, 3372, Note_on_c, 14, 40, 106
14, 3432, Note_on_c, 14, 40, 0
14, 3492, Note_on_c, 14, 42, 106
14, 3552, Note_on_c, 14, 42, 0
14, 3972, Note_on_c, 14, 44, 106
14, 4032, Note_on_c, 14, 44, 0
14, 4092, Note_on_c, 14, 45, 106
14, 4152, Note_on_c, 14, 45, 0
14, 4212, Note_on_c, 14, 47, 106
14, 4272, Note_on_c, 14, 47, 0
14, 5772, Control_c, 14, 11, 102
14, 5772, Note_on_c, 14, 45, 106
14, 5832, Note_on_c, 14, 45, 0
14, 5892, Note_on_c, 14, 40, 106
14, 5952, Note_on_c, 14, 40, 0
14, 6012, Note_on_c, 14, 45, 106
14, 6072, Note_on_c, 14, 45, 0
14, 6132, Control_c, 14, 11, 87
14, 6132, Note_on_c, 14, 38, 106
14, 6192, Note_on_c, 14, 38, 0
14, 6252, Note_on_c, 14, 40, 106
14, 6312, Note_on_c, 14, 40, 0
14, 6372, Note_on_c, 14, 42, 106
14, 6432, Note_on_c, 14, 42, 0
14, 6852, Note_on_c, 14, 43, 106
14, 6912, Note_on_c, 14, 43, 0
14, 6972, Note_on_c, 14, 45, 106
14, 7032, Note_on_c, 14, 45, 0
14, 7092, Note_on_c, 14, 47, 106
14, 7152, Note_on_c, 14, 47, 0
14, 8652, Control_c, 14, 11, 102
14, 8652, Note_on_c, 14, 38, 106
14, 8712, Note_on_c, 14, 38, 0
14, 8772, Note_on_c, 14, 33, 106
14, 8832, Note_on_c, 14, 33, 0
14, 8892, Note_on_c, 14, 38, 106
14, 8952, Note_on_c, 14, 38, 0
14, 9012, Control_c, 14, 11, 87
14, 9012, Note_on_c, 14, 38, 106
14, 9072, Note_on_c, 14, 38, 0
14, 9132, Note_on_c, 14, 40, 106
14, 9192, Note_on_c, 14, 40, 0
14, 9252, Note_on_c, 14, 42, 106
14, 9312, Note_on_c, 14, 42, 0
14, 9732, Note_on_c, 14, 44, 106
14, 9792, Note_on_c, 14, 44, 0
14, 9852, Note_on_c, 14, 45, 106
14, 9912, Note_on_c, 14, 45, 0
14, 9972, Note_on_c, 14, 47, 106
14, 10032, Note_on_c, 14, 47, 0
14, 11532, Control_c, 14, 11, 102
14, 11532, Note_on_c, 14, 45, 106
14, 11592, Note_on_c, 14, 45, 0
14, 11652, Note_on_c, 14, 40, 106
14, 11712, Note_on_c, 14, 40, 0
14, 11772, Note_on_c, 14, 45, 106
14, 11832, Note_on_c, 14, 45, 0
14, 11892, Control_c, 14, 11, 47
14, 11892, Note_on_c, 14, 45, 106
14, 11952, Note_on_c, 14, 45, 0
14, 12012, Note_on_c, 14, 47, 106
14, 12072, Note_on_c, 14, 47, 0
14, 12132, Note_on_c, 14, 49, 106
14, 12192, Note_on_c, 14, 49, 0
14, 12252, Note_on_c, 14, 50, 106
14, 12372, Note_on_c, 14, 50, 0
14, 12612, Note_on_c, 14, 41, 106
14, 12672, Note_on_c, 14, 41, 0
14, 12732, Note_on_c, 14, 43, 106
14, 12792, Note_on_c, 14, 43, 0
14, 12852, Note_on_c, 14, 45, 106
14, 12912, Note_on_c, 14, 45, 0
14, 12972, Note_on_c, 14, 46, 106
14, 13092, Note_on_c, 14, 46, 0
14, 13332, Note_on_c, 14, 34, 106
14, 13392, Note_on_c, 14, 34, 0
14, 13452, Control_c, 14, 11, 72
14, 13452, Note_on_c, 14, 34, 106
14, 13460, Control_c, 14, 11, 75
14, 13469, Control_c, 14, 11, 78
14, 13478, Control_c, 14, 11, 81
14, 13493, Control_c, 14, 11, 80
14, 13511, Control_c, 14, 11, 77
14, 13529, Control_c, 14, 11, 74
14, 13547, Control_c, 14, 11, 71
14, 13565, Control_c, 14, 11, 68
14, 13583, Control_c, 14, 11, 65
14, 13601, Control_c, 14, 11, 62
14, 13619, Control_c, 14, 11, 59
14, 13637, Control_c, 14, 11, 56
14, 13655, Control_c, 14, 11, 53
14, 13673, Control_c, 14, 11, 50
14, 13691, Control_c, 14, 11, 47
14, 14152, Note_on_c, 14, 34, 0
14, 14172, Note_on_c, 14, 34, 106
14, 14272, Note_on_c, 14, 34, 0
14, 14292, Note_on_c, 14, 34, 106
14, 14392, Note_on_c, 14, 34, 0
14, 14412, Note_on_c, 14, 34, 106
14, 14512, Note_on_c, 14, 34, 0
14, 14532, Note_on_c, 14, 34, 106
14, 14632, Note_on_c, 14, 34, 0
14, 14652, Note_on_c, 14, 34, 106
14, 14752, Note_on_c, 14, 34, 0
14, 14772, Note_on_c, 14, 34, 106
14, 14832, Note_on_c, 14, 34, 0
14, 14892, Control_c, 14, 11, 72
14, 14892, Note_on_c, 14, 34, 106
14, 14900, Control_c, 14, 11, 75
14, 14909, Control_c, 14, 11, 78
14, 14918, Control_c, 14, 11, 81
14, 14933, Control_c, 14, 11, 80
14, 14951, Control_c, 14, 11, 77
14, 14969, Control_c, 14, 11, 74
14, 14987, Control_c, 14, 11, 71
14, 15005, Control_c, 14, 11, 68
14, 15023, Control_c, 14, 11, 65
14, 15041, Control_c, 14, 11, 62
14, 15059, Control_c, 14, 11, 59
14, 15077, Control_c, 14, 11, 56
14, 15095, Control_c, 14, 11, 53
14, 15113, Control_c, 14, 11, 50
14, 15131, Control_c, 14, 11, 47
14, 15592, Note_on_c, 14, 34, 0
14, 15612, Note_on_c, 14, 34, 106
14, 15712, Note_on_c, 14, 34, 0
14, 15732, Note_on_c, 14, 34, 106
14, 15832, Note_on_c, 14, 34, 0
14, 15852, Note_on_c, 14, 34, 106
14, 15952, Note_on_c, 14, 34, 0
14, 15972, Note_on_c, 14, 34, 106
14, 16072, Note_on_c, 14, 34, 0
14, 16092, Note_on_c, 14, 34, 106
14, 16192, Note_on_c, 14, 34, 0
14, 16212, Note_on_c, 14, 34, 106
14, 16332, Note_on_c, 14, 34, 0
14, 16572, Note_on_c, 14, 33, 106
14, 16692, Note_on_c, 14, 33, 0
14, 16932, Note_on_c, 14, 32, 106
14, 17052, Note_on_c, 14, 32, 0
14, 17292, Control_c, 14, 11, 47
14, 17292, Note_on_c, 14, 44, 106
14, 17328, Control_c, 14, 11, 46
14, 17364, Control_c, 14, 11, 45
14, 17400, Control_c, 14, 11, 44
14, 17412, Note_on_c, 14, 44, 0
14, 17436, Control_c, 14, 11, 43
14, 17472, Control_c, 14, 11, 42
14, 17508, Control_c, 14, 11, 41
14, 17544, Control_c, 14, 11, 40
14, 17580, Control_c, 14, 11, 39
14, 17616, Control_c, 14, 11, 38
14, 17652, Control_c, 14, 11, 37
14, 17652, Note_on_c, 14, 33, 106
14, 18012, Control_c, 14, 11, 37
14, 18048, Control_c, 14, 11, 36
14, 18084, Control_c, 14, 11, 35
14, 18120, Control_c, 14, 11, 34
14, 18156, Control_c, 14, 11, 33
14, 18192, Control_c, 14, 11, 32
14, 18228, Control_c, 14, 11, 31
14, 18264, Control_c, 14, 11, 30
14, 18300, Control_c, 14, 11, 29
14, 18336, Control_c, 14, 11, 28
14, 18372, Control_c, 14, 11, 27
14, 18852, Control_c, 14, 11, 27
14, 18868, Control_c, 14, 11, 28
14, 18884, Control_c, 14, 11, 29
14, 18900, Control_c, 14, 11, 30
14, 18916, Control_c, 14, 11, 31
14, 18932, Control_c, 14, 11, 32
14, 18948, Control_c, 14, 11, 33
14, 18964, Control_c, 14, 11, 34
14, 18980, Control_c, 14, 11, 35
14, 18996, Control_c, 14, 11, 36
14, 19012, Control_c, 14, 11, 37
14, 19028, Control_c, 14, 11, 38
14, 19044, Control_c, 14, 11, 39
14, 19060, Control_c, 14, 11, 40
14, 19076, Control_c, 14, 11, 41
14, 19092, Control_c, 14, 11, 42
14, 19108, Control_c, 14, 11, 43
14, 19124, Control_c, 14, 11, 44
14, 19140, Control_c, 14, 11, 45
14, 19156, Control_c, 14, 11, 46
14, 19172, Control_c, 14, 11, 47
14, 19188, Control_c, 14, 11, 48
14, 19204, Control_c, 14, 11, 49
14, 19212, Note_on_c, 14, 33, 0
14, 19220, Control_c, 14, 11, 50
14, 19236, Control_c, 14, 11, 51
14, 19252, Control_c, 14, 11, 52
14, 19268, Control_c, 14, 11, 53
14, 19284, Control_c, 14, 11, 54
14, 19300, Control_c, 14, 11, 55
14, 19316, Control_c, 14, 11, 56
14, 19332, Control_c, 14, 11, 57
14, 19348, Control_c, 14, 11, 58
14, 19364, Control_c, 14, 11, 59
14, 19380, Control_c, 14, 11, 60
14, 19396, Control_c, 14, 11, 61
14, 19412, Control_c, 14, 11, 62
14, 19428, Control_c, 14, 11, 63
14, 19444, Control_c, 14, 11, 64
14, 19460, Control_c, 14, 11, 65
14, 19476, Control_c, 14, 11, 66
14, 19492, Control_c, 14, 11, 67
14, 19508, Control_c, 14, 11, 68
14, 19524, Control_c, 14, 11, 69
14, 19540, Control_c, 14, 11, 70
14, 19556, Control_c, 14, 11, 71
14, 19572, Control_c, 14, 11, 72
14, 19588, Control_c, 14, 11, 73
14, 19604, Control_c, 14, 11, 74
14, 19620, Control_c, 14, 11, 75
14, 19636, Control_c, 14, 11, 76
14, 19652, Control_c, 14, 11, 77
14, 19668, Control_c, 14, 11, 78
14, 19684, Control_c, 14, 11, 79
14, 19700, Control_c, 14, 11, 80
14, 19716, Control_c, 14, 11, 81
14, 19732, Control_c, 14, 11, 82
14, 19748, Control_c, 14, 11, 83
14, 19764, Control_c, 14, 11, 84
14, 19780, Control_c, 14, 11, 85
14, 19796, Control_c, 14, 11, 86
14, 19812, Control_c, 14, 11, 87
14, 19812, Note_on_c, 14, 38, 106
14, 19872, Note_on_c, 14, 38, 0
14, 19932, Note_on_c, 14, 40, 106
14, 19992, Note_on_c, 14, 40, 0
14, 20052, Note_on_c, 14, 42, 106
14, 20112, Note_on_c, 14, 42, 0
14, 20532, Control_c, 14, 11, 87
14, 20532, Note_on_c, 14, 43, 106
14, 20592, Note_on_c, 14, 43, 0
14, 20652, Note_on_c, 14, 45, 106
14, 20712, Note_on_c, 14, 45, 0
14, 20772, Note_on_c, 14, 47, 106
14, 20832, Note_on_c, 14, 47, 0
14, 22332, Control_c, 14, 11, 102
14, 22332, Note_on_c, 14, 38, 106
14, 22392, Note_on_c, 14, 38, 0
14, 22452, Note_on_c, 14, 33, 106
14, 22512, Note_on_c, 14, 33, 0
14, 22572, Note_on_c, 14, 38, 106
14, 22632, Note_on_c, 14, 38, 0
14, 22692, Control_c, 14, 11, 87
14, 22692, Note_on_c, 14, 38, 106
14, 22752, Note_on_c, 14, 38, 0
14, 22812, Note_on_c, 14, 40, 106
14, 22872, Note_on_c, 14, 40, 0
14, 22932, Note_on_c, 14, 42, 106
14, 22992, Note_on_c, 14, 42, 0
14, 23412, Control_c, 14, 11, 87
14, 23412, Note_on_c, 14, 43, 106
14, 23472, Note_on_c, 14, 43, 0
14, 23532, Note_on_c, 14, 45, 106
14, 23592, Note_on_c, 14, 45, 0
14, 23652, Note_on_c, 14, 47, 106
14, 23712, Note_on_c, 14, 47, 0
14, 27012, Control_c, 14, 11, 32
14, 27012, Note_on_c, 14, 48, 106
14, 27132, Note_on_c, 14, 48, 0
14, 27372, Note_on_c, 14, 41, 106
14, 27492, Note_on_c, 14, 41, 0
14, 27732, Note_on_c, 14, 45, 106
14, 27852, Note_on_c, 14, 45, 0
14, 28092, Note_on_c, 14, 38, 106
14, 28212, Note_on_c, 14, 38, 0
14, 28452, Control_c, 14, 11, 32
14, 28452, Note_on_c, 14, 34, 106
14, 28478, Control_c, 14, 11, 34
14, 28504, Control_c, 14, 11, 36
14, 28530, Control_c, 14, 11, 38
14, 28556, Control_c, 14, 11, 40
14, 28582, Control_c, 14, 11, 42
14, 28609, Control_c, 14, 11, 44
14, 28635, Control_c, 14, 11, 46
14, 28661, Control_c, 14, 11, 48
14, 28687, Control_c, 14, 11, 50
14, 28713, Control_c, 14, 11, 52
14, 28740, Control_c, 14, 11, 54
14, 28766, Control_c, 14, 11, 56
14, 28792, Control_c, 14, 11, 58
14, 28818, Control_c, 14, 11, 60
14, 28844, Control_c, 14, 11, 62
14, 28870, Control_c, 14, 11, 64
14, 28897, Control_c, 14, 11, 66
14, 28923, Control_c, 14, 11, 68
14, 28949, Control_c, 14, 11, 70
14, 28975, Control_c, 14, 11, 72
14, 29001, Control_c, 14, 11, 74
14, 29028, Control_c, 14, 11, 76
14, 29054, Control_c, 14, 11, 78
14, 29080, Control_c, 14, 11, 80
14, 29106, Control_c, 14, 11, 82
14, 29132, Control_c, 14, 11, 84
14, 29152, Note_on_c, 14, 34, 0
14, 29158, Control_c, 14, 11, 86
14, 29172, Note_on_c, 14, 33, 106
14, 29272, Note_on_c, 14, 33, 0
14, 29292, Note_on_c, 14, 45, 106
14, 29392, Note_on_c, 14, 45, 0
14, 29412, Note_on_c, 14, 45, 106
14, 29512, Note_on_c, 14, 45, 0
14, 29532, Note_on_c, 14, 38, 106
14, 29652, Note_on_c, 14, 38, 0
14, 29892, Control_c, 14, 11, 32
14, 29892, Note_on_c, 14, 48, 106
14, 30012, Note_on_c, 14, 48, 0
14, 30252, Note_on_c, 14, 41, 106
14, 30372, Note_on_c, 14, 41, 0
14, 30612, Note_on_c, 14, 45, 106
14, 30732, Note_on_c, 14, 45, 0
14, 30972, Note_on_c, 14, 38, 106
14, 31092, Note_on_c, 14, 38, 0
14, 31332, Control_c, 14, 11, 32
14, 31332, Note_on_c, 14, 34, 106
14, 31358, Control_c, 14, 11, 34
14, 31384, Control_c, 14, 11, 36
14, 31410, Control_c, 14, 11, 38
14, 31436, Control_c, 14, 11, 40
14, 31462, Control_c, 14, 11, 42
14, 31489, Control_c, 14, 11, 44
14, 31515, Control_c, 14, 11, 46
14, 31541, Control_c, 14, 11, 48
14, 31567, Control_c, 14, 11, 50
14, 31593, Control_c, 14, 11, 52
14, 31620, Control_c, 14, 11, 54
14, 31646, Control_c, 14, 11, 56
14, 31672, Control_c, 14, 11, 58
14, 31698, Control_c, 14, 11, 60
14, 31724, Control_c, 14, 11, 62
14, 31750, Control_c, 14, 11, 64
14, 31777, Control_c, 14, 11, 66
14, 31803, Control_c, 14, 11, 68
14, 31829, Control_c, 14, 11, 70
14, 31855, Control_c, 14, 11, 72
14, 31881, Control_c, 14, 11, 74
14, 31908, Control_c, 14, 11, 76
14, 31934, Control_c, 14, 11, 78
14, 31960, Control_c, 14, 11, 80
14, 31986, Control_c, 14, 11, 82
14, 32012, Control_c, 14, 11, 84
14, 32032, Note_on_c, 14, 34, 0
14, 32038, Control_c, 14, 11, 86
14, 32052, Note_on_c, 14, 33, 106
14, 32152, Note_on_c, 14, 33, 0
14, 32172, Note_on_c, 14, 45, 106
14, 32272, Note_on_c, 14, 45, 0
14, 32292, Note_on_c, 14, 45, 106
14, 32392, Note_on_c, 14, 45, 0
14, 32412, Note_on_c, 14, 50, 106
14, 32532, Note_on_c, 14, 50, 0
14, 32772, Control_c, 14, 11, 47
14, 32772, Note_on_c, 14, 34, 106
14, 32790, Control_c, 14, 11, 48
14, 32808, Control_c, 14, 11, 49
14, 32826, Control_c, 14, 11, 50
14, 32844, Control_c, 14, 11, 51
14, 32862, Control_c, 14, 11, 52
14, 32880, Control_c, 14, 11, 53
14, 32898, Control_c, 14, 11, 54
14, 32916, Control_c, 14, 11, 55
14, 32934, Control_c, 14, 11, 56
14, 32952, Control_c, 14, 11, 57
14, 32970, Control_c, 14, 11, 58
14, 32988, Control_c, 14, 11, 59
14, 33006, Control_c, 14, 11, 60
14, 33024, Control_c, 14, 11, 61
14, 33042, Control_c, 14, 11, 62
14, 33060, Control_c, 14, 11, 63
14, 33078, Control_c, 14, 11, 64
14, 33096, Control_c, 14, 11, 65
14, 33114, Control_c, 14, 11, 66
14, 33132, Control_c, 14, 11, 67
14, 33150, Control_c, 14, 11, 68
14, 33168, Control_c, 14, 11, 69
14, 33186, Control_c, 14, 11, 70
14, 33204, Control_c, 14, 11, 71
14, 33222, Control_c, 14, 11, 72
14, 33240, Control_c, 14, 11, 73
14, 33258, Control_c, 14, 11, 74
14, 33276, Control_c, 14, 11, 75
14, 33294, Control_c, 14, 11, 76
14, 33312, Control_c, 14, 11, 77
14, 33330, Control_c, 14, 11, 78
14, 33348, Control_c, 14, 11, 79
14, 33366, Control_c, 14, 11, 80
14, 33384, Control_c, 14, 11, 81
14, 33402, Control_c, 14, 11, 82
14, 33420, Control_c, 14, 11, 83
14, 33438, Control_c, 14, 11, 84
14, 33456, Control_c, 14, 11, 85
14, 33472, Note_on_c, 14, 34, 0
14, 33474, Control_c, 14, 11, 86
14, 33492, Control_c, 14, 11, 93
14, 33492, Note_on_c, 14, 33, 106
14, 33502, Control_c, 14, 11, 96
14, 33513, Control_c, 14, 11, 99
14, 33523, Control_c, 14, 11, 102
14, 33545, Control_c, 14, 11, 101
14, 33563, Control_c, 14, 11, 99
14, 33581, Control_c, 14, 11, 97
14, 33592, Note_on_c, 14, 33, 0
14, 33599, Control_c, 14, 11, 95
14, 33612, Note_on_c, 14, 45, 106
14, 33617, Control_c, 14, 11, 93
14, 33635, Control_c, 14, 11, 91
14, 33653, Control_c, 14, 11, 89
14, 33671, Control_c, 14, 11, 87
14, 33712, Note_on_c, 14, 45, 0
14, 33732, Note_on_c, 14, 45, 106
14, 33832, Note_on_c, 14, 45, 0
14, 33852, Note_on_c, 14, 50, 106
14, 33972, Note_on_c, 14, 50, 0
14, 34212, Note_on_c, 14, 33, 106
14, 34212, Control_c, 14, 11, 93
14, 34222, Control_c, 14, 11, 96
14, 34233, Control_c, 14, 11, 99
14, 34243, Control_c, 14, 11, 102
14, 34265, Control_c, 14, 11, 101
14, 34283, Control_c, 14, 11, 99
14, 34301, Control_c, 14, 11, 97
14, 34312, Note_on_c, 14, 33, 0
14, 34319, Control_c, 14, 11, 95
14, 34332, Note_on_c, 14, 45, 106
14, 34337, Control_c, 14, 11, 93
14, 34355, Control_c, 14, 11, 91
14, 34373, Control_c, 14, 11, 89
14, 34391, Control_c, 14, 11, 87
14, 34432, Note_on_c, 14, 45, 0
14, 34452, Note_on_c, 14, 45, 106
14, 34552, Note_on_c, 14, 45, 0
14, 34572, Note_on_c, 14, 50, 106
14, 34692, Note_on_c, 14, 50, 0
14, 34932, Control_c, 14, 11, 102
14, 34932, Note_on_c, 14, 33, 106
14, 35052, Note_on_c, 14, 33, 0
14, 35052, Note_on_c, 14, 45, 106
14, 35172, Note_on_c, 14, 45, 0
14, 35172, Note_on_c, 14, 45, 106
14, 35292, Note_on_c, 14, 45, 0
14, 35292, Note_on_c, 14, 45, 106
14, 35412, Note_on_c, 14, 45, 0
14, 35412, Note_on_c, 14, 45, 106
14, 35532, Note_on_c, 14, 45, 0
14, 35532, Note_on_c, 14, 45, 106
14, 35632, Note_on_c, 14, 45, 0
14, 35652, Note_on_c, 14, 50, 106
14, 35772, Note_on_c, 14, 50, 0
14, 35892, Note_on_c, 14, 45, 106
14, 35952, Note_on_c, 14, 45, 0
14, 36012, Note_on_c, 14, 38, 106
14, 36072, Note_on_c, 14, 38, 0
14, 36372, Control_c, 14, 11, 47
14, 36372, Note_on_c, 14, 45, 106
14, 36432, Note_on_c, 14, 45, 0
14, 36492, Note_on_c, 14, 47, 106
14, 36552, Note_on_c, 14, 47, 0
14, 36612, Note_on_c, 14, 49, 106
14, 36672, Note_on_c, 14, 49, 0
14, 36732, Note_on_c, 14, 50, 106
14, 36852, Note_on_c, 14, 50, 0
14, 37092, Note_on_c, 14, 41, 106
14, 37152, Note_on_c, 14, 41, 0
14, 37212, Note_on_c, 14, 43, 106
14, 37272, Note_on_c, 14, 43, 0
14, 37332, Note_on_c, 14, 45, 106
14, 37392, Note_on_c, 14, 45, 0
14, 37452, Note_on_c, 14, 46, 106
14, 37572, Note_on_c, 14, 46, 0
14, 37812, Note_on_c, 14, 34, 106
14, 37872, Note_on_c, 14, 34, 0
14, 37932, Control_c, 14, 11, 72
14, 37932, Note_on_c, 14, 34, 106
14, 37940, Control_c, 14, 11, 75
14, 37949, Control_c, 14, 11, 78
14, 37958, Control_c, 14, 11, 81
14, 37973, Control_c, 14, 11, 80
14, 37991, Control_c, 14, 11, 77
14, 38009, Control_c, 14, 11, 74
14, 38027, Control_c, 14, 11, 71
14, 38045, Control_c, 14, 11, 68
14, 38063, Control_c, 14, 11, 65
14, 38081, Control_c, 14, 11, 62
14, 38099, Control_c, 14, 11, 59
14, 38117, Control_c, 14, 11, 56
14, 38135, Control_c, 14, 11, 53
14, 38153, Control_c, 14, 11, 50
14, 38171, Control_c, 14, 11, 47
14, 38632, Note_on_c, 14, 34, 0
14, 38652, Note_on_c, 14, 34, 106
14, 38752, Note_on_c, 14, 34, 0
14, 38772, Note_on_c, 14, 34, 106
14, 38872, Note_on_c, 14, 34, 0
14, 38892, Note_on_c, 14, 34, 106
14, 38992, Note_on_c, 14, 34, 0
14, 39012, Note_on_c, 14, 34, 106
14, 39112, Note_on_c, 14, 34, 0
14, 39132, Note_on_c, 14, 34, 106
14, 39232, Note_on_c, 14, 34, 0
14, 39252, Note_on_c, 14, 34, 106
14, 39312, Note_on_c, 14, 34, 0
14, 39372, Control_c, 14, 11, 72
14, 39372, Note_on_c, 14, 34, 106
14, 39380, Control_c, 14, 11, 75
14, 39389, Control_c, 14, 11, 78
14, 39398, Control_c, 14, 11, 81
14, 39413, Control_c, 14, 11, 80
14, 39431, Control_c, 14, 11, 77
14, 39449, Control_c, 14, 11, 74
14, 39467, Control_c, 14, 11, 71
14, 39485, Control_c, 14, 11, 68
14, 39503, Control_c, 14, 11, 65
14, 39521, Control_c, 14, 11, 62
14, 39539, Control_c, 14, 11, 59
14, 39557, Control_c, 14, 11, 56
14, 39575, Control_c, 14, 11, 53
14, 39593, Control_c, 14, 11, 50
14, 39611, Control_c, 14, 11, 47
14, 40072, Note_on_c, 14, 34, 0
14, 40092, Note_on_c, 14, 34, 106
14, 40192, Note_on_c, 14, 34, 0
14, 40212, Note_on_c, 14, 34, 106
14, 40312, Note_on_c, 14, 34, 0
14, 40332, Note_on_c, 14, 34, 106
14, 40432, Note_on_c, 14, 34, 0
14, 40452, Note_on_c, 14, 34, 106
14, 40552, Note_on_c, 14, 34, 0
14, 40572, Note_on_c, 14, 34, 106
14, 40672, Note_on_c, 14, 34, 0
14, 40692, Note_on_c, 14, 34, 106
14, 40812, Note_on_c, 14, 34, 0
14, 41052, Note_on_c, 14, 33, 106
14, 41172, Note_on_c, 14, 33, 0
14, 41412, Note_on_c, 14, 32, 106
14, 41532, Note_on_c, 14, 32, 0
14, 41772, Control_c, 14, 11, 47
14, 41772, Note_on_c, 14, 44, 106
14, 41808, Control_c, 14, 11, 46
14, 41844, Control_c, 14, 11, 45
14, 41880, Control_c, 14, 11, 44
14, 41892, Note_on_c, 14, 44, 0
14, 41916, Control_c, 14, 11, 43
14, 41952, Control_c, 14, 11, 42
14, 41988, Control_c, 14, 11, 41
14, 42024, Control_c, 14, 11, 40
14, 42060, Control_c, 14, 11, 39
14, 42096, Control_c, 14, 11, 38
14, 42132, Control_c, 14, 11, 37
14, 42132, Note_on_c, 14, 33, 106
14, 42492, Control_c, 14, 11, 37
14, 42528, Control_c, 14, 11, 36
14, 42564, Control_c, 14, 11, 35
14, 42600, Control_c, 14, 11, 34
14, 42636, Control_c, 14, 11, 33
14, 42672, Control_c, 14, 11, 32
14, 42708, Control_c, 14, 11, 31
14, 42744, Control_c, 14, 11, 30
14, 42780, Control_c, 14, 11, 29
14, 42816, Control_c, 14, 11, 28
14, 42852, Control_c, 14, 11, 27
14, 43332, Control_c, 14, 11, 27
14, 43348, Control_c, 14, 11, 28
14, 43364, Control_c, 14, 11, 29
14, 43380, Control_c, 14, 11, 30
14, 43396, Control_c, 14, 11, 31
14, 43412, Control_c, 14, 11, 32
14, 43428, Control_c, 14, 11, 33
14, 43444, Control_c, 14, 11, 34
14, 43460, Control_c, 14, 11, 35
14, 43476, Control_c, 14, 11, 36
14, 43492, Control_c, 14, 11, 37
14, 43508, Control_c, 14, 11, 38
14, 43524, Control_c, 14, 11, 39
14, 43540, Control_c, 14, 11, 40
14, 43556, Control_c, 14, 11, 41
14, 43572, Control_c, 14, 11, 42
14, 43588, Control_c, 14, 11, 43
14, 43604, Control_c, 14, 11, 44
14, 43620, Control_c, 14, 11, 45
14, 43636, Control_c, 14, 11, 46
14, 43652, Control_c, 14, 11, 47
14, 43668, Control_c, 14, 11, 48
14, 43684, Control_c, 14, 11, 49
14, 43692, Note_on_c, 14, 33, 0
14, 43700, Control_c, 14, 11, 50
14, 43716, Control_c, 14, 11, 51
14, 43732, Control_c, 14, 11, 52
14, 43748, Control_c, 14, 11, 53
14, 43764, Control_c, 14, 11, 54
14, 43780, Control_c, 14, 11, 55
14, 43796, Control_c, 14, 11, 56
14, 43812, Control_c, 14, 11, 57
14, 43828, Control_c, 14, 11, 58
14, 43844, Control_c, 14, 11, 59
14, 43860, Control_c, 14, 11, 60
14, 43876, Control_c, 14, 11, 61
14, 43892, Control_c, 14, 11, 62
14, 43908, Control_c, 14, 11, 63
14, 43924, Control_c, 14, 11, 64
14, 43940, Control_c, 14, 11, 65
14, 43956, Control_c, 14, 11, 66
14, 43972, Control_c, 14, 11, 67
14, 43988, Control_c, 14, 11, 68
14, 44004, Control_c, 14, 11, 69
14, 44020, Control_c, 14, 11, 70
14, 44036, Control_c, 14, 11, 71
14, 44052, Control_c, 14, 11, 72
14, 44068, Control_c, 14, 11, 73
14, 44084, Control_c, 14, 11, 74
14, 44100, Control_c, 14, 11, 75
14, 44116, Control_c, 14, 11, 76
14, 44132, Control_c, 14, 11, 77
14, 44148, Control_c, 14, 11, 78
14, 44164, Control_c, 14, 11, 79
14, 44180, Control_c, 14, 11, 80
14, 44196, Control_c, 14, 11, 81
14, 44212, Control_c, 14, 11, 82
14, 44228, Control_c, 14, 11, 83
14, 44244, Control_c, 14, 11, 84
14, 44260, Control_c, 14, 11, 85
14, 44276, Control_c, 14, 11, 86
14, 44292, Control_c, 14, 11, 87
14, 44292, Note_on_c, 14, 38, 106
14, 44352, Note_on_c, 14, 38, 0
14, 44412, Note_on_c, 14, 40, 106
14, 44472, Note_on_c, 14, 40, 0
14, 44532, Note_on_c, 14, 42, 106
14, 44592, Note_on_c, 14, 42, 0
14, 45012, Control_c, 14, 11, 87
14, 45012, Note_on_c, 14, 43, 106
14, 45072, Note_on_c, 14, 43, 0
14, 45132, Note_on_c, 14, 45, 106
14, 45192, Note_on_c, 14, 45, 0
14, 45252, Note_on_c, 14, 47, 106
14, 45312, Note_on_c, 14, 47, 0
14, 46812, Control_c, 14, 11, 102
14, 46812, Note_on_c, 14, 38, 106
14, 46872, Note_on_c, 14, 38, 0
14, 46932, Note_on_c, 14, 33, 106
14, 46992, Note_on_c, 14, 33, 0
14, 47052, Note_on_c, 14, 38, 106
14, 47112, Note_on_c, 14, 38, 0
14, 47172, Control_c, 14, 11, 87
14, 47172, Note_on_c, 14, 38, 106
14, 47232, Note_on_c, 14, 38, 0
14, 47292, Note_on_c, 14, 40, 106
14, 47352, Note_on_c, 14, 40, 0
14, 47412, Note_on_c, 14, 42, 106
14, 47472, Note_on_c, 14, 42, 0
14, 47892, Control_c, 14, 11, 87
14, 47892, Note_on_c, 14, 43, 106
14, 47952, Note_on_c, 14, 43, 0
14, 48012, Note_on_c, 14, 45, 106
14, 48072, Note_on_c, 14, 45, 0
14, 48132, Note_on_c, 14, 47, 106
14, 48192, Note_on_c, 14, 47, 0
14, 51492, Control_c, 14, 11, 32
14, 51492, Note_on_c, 14, 48, 106
14, 51612, Note_on_c, 14, 48, 0
14, 51852, Note_on_c, 14, 41, 106
14, 51972, Note_on_c, 14, 41, 0
14, 52212, Note_on_c, 14, 45, 106
14, 52332, Note_on_c, 14, 45, 0
14, 52572, Note_on_c, 14, 38, 106
14, 52692, Note_on_c, 14, 38, 0
14, 52932, Control_c, 14, 11, 32
14, 52932, Note_on_c, 14, 34, 106
14, 52958, Control_c, 14, 11, 34
14, 52984, Control_c, 14, 11, 36
14, 53010, Control_c, 14, 11, 38
14, 53036, Control_c, 14, 11, 40
14, 53062, Control_c, 14, 11, 42
14, 53089, Control_c, 14, 11, 44
14, 53115, Control_c, 14, 11, 46
14, 53141, Control_c, 14, 11, 48
14, 53167, Control_c, 14, 11, 50
14, 53193, Control_c, 14, 11, 52
14, 53220, Control_c, 14, 11, 54
14, 53246, Control_c, 14, 11, 56
14, 53272, Control_c, 14, 11, 58
14, 53298, Control_c, 14, 11, 60
14, 53324, Control_c, 14, 11, 62
14, 53350, Control_c, 14, 11, 64
14, 53377, Control_c, 14, 11, 66
14, 53403, Control_c, 14, 11, 68
14, 53429, Control_c, 14, 11, 70
14, 53455, Control_c, 14, 11, 72
14, 53481, Control_c, 14, 11, 74
14, 53508, Control_c, 14, 11, 76
14, 53534, Control_c, 14, 11, 78
14, 53560, Control_c, 14, 11, 80
14, 53586, Control_c, 14, 11, 82
14, 53612, Control_c, 14, 11, 84
14, 53632, Note_on_c, 14, 34, 0
14, 53638, Control_c, 14, 11, 86
14, 53652, Note_on_c, 14, 33, 106
14, 53752, Note_on_c, 14, 33, 0
14, 53772, Note_on_c, 14, 45, 106
14, 53872, Note_on_c, 14, 45, 0
14, 53892, Note_on_c, 14, 45, 106
14, 53992, Note_on_c, 14, 45, 0
14, 54012, Note_on_c, 14, 38, 106
14, 54132, Note_on_c, 14, 38, 0
14, 54372, Control_c, 14, 11, 32
14, 54372, Note_on_c, 14, 48, 106
14, 54492, Note_on_c, 14, 48, 0
14, 54732, Note_on_c, 14, 41, 106
14, 54852, Note_on_c, 14, 41, 0
14, 55092, Note_on_c, 14, 45, 106
14, 55212, Note_on_c, 14, 45, 0
14, 55452, Note_on_c, 14, 38, 106
14, 55572, Note_on_c, 14, 38, 0
14, 55812, Control_c, 14, 11, 32
14, 55812, Note_on_c, 14, 34, 106
14, 55838, Control_c, 14, 11, 34
14, 55864, Control_c, 14, 11, 36
14, 55890, Control_c, 14, 11, 38
14, 55916, Control_c, 14, 11, 40
14, 55942, Control_c, 14, 11, 42
14, 55969, Control_c, 14, 11, 44
14, 55995, Control_c, 14, 11, 46
14, 56021, Control_c, 14, 11, 48
14, 56047, Control_c, 14, 11, 50
14, 56073, Control_c, 14, 11, 52
14, 56100, Control_c, 14, 11, 54
14, 56126, Control_c, 14, 11, 56
14, 56152, Control_c, 14, 11, 58
14, 56178, Control_c, 14, 11, 60
14, 56204, Control_c, 14, 11, 62
14, 56230, Control_c, 14, 11, 64
14, 56257, Control_c, 14, 11, 66
14, 56283, Control_c, 14, 11, 68
14, 56309, Control_c, 14, 11, 70
14, 56335, Control_c, 14, 11, 72
14, 56361, Control_c, 14, 11, 74
14, 56388, Control_c, 14, 11, 76
14, 56414, Control_c, 14, 11, 78
14, 56440, Control_c, 14, 11, 80
14, 56466, Control_c, 14, 11, 82
14, 56492, Control_c, 14, 11, 84
14, 56512, Note_on_c, 14, 34, 0
14, 56518, Control_c, 14, 11, 86
14, 56532, Note_on_c, 14, 33, 106
14, 56632, Note_on_c, 14, 33, 0
14, 56652, Note_on_c, 14, 45, 106
14, 56752, Note_on_c, 14, 45, 0
14, 56772, Note_on_c, 14, 45, 106
14, 56872, Note_on_c, 14, 45, 0
14, 56892, Note_on_c, 14, 50, 106
14, 57012, Note_on_c, 14, 50, 0
14, 57252, Control_c, 14, 11, 47
14, 57252, Note_on_c, 14, 34, 106
14, 57270, Control_c, 14, 11, 48
14, 57288, Control_c, 14, 11, 49
14, 57306, Control_c, 14, 11, 50
14, 57324, Control_c, 14, 11, 51
14, 57342, Control_c, 14, 11, 52
14, 57360, Control_c, 14, 11, 53
14, 57378, Control_c, 14, 11, 54
14, 57396, Control_c, 14, 11, 55
14, 57414, Control_c, 14, 11, 56
14, 57432, Control_c, 14, 11, 57
14, 57450, Control_c, 14, 11, 58
14, 57468, Control_c, 14, 11, 59
14, 57486, Control_c, 14, 11, 60
14, 57504, Control_c, 14, 11, 61
14, 57522, Control_c, 14, 11, 62
14, 57540, Control_c, 14, 11, 63
14, 57558, Control_c, 14, 11, 64
14, 57576, Control_c, 14, 11, 65
14, 57594, Control_c, 14, 11, 66
14, 57612, Control_c, 14, 11, 67
14, 57630, Control_c, 14, 11, 68
14, 57648, Control_c, 14, 11, 69
14, 57666, Control_c, 14, 11, 70
14, 57684, Control_c, 14, 11, 71
14, 57702, Control_c, 14, 11, 72
14, 57720, Control_c, 14, 11, 73
14, 57738, Control_c, 14, 11, 74
14, 57756, Control_c, 14, 11, 75
14, 57774, Control_c, 14, 11, 76
14, 57792, Control_c, 14, 11, 77
14, 57810, Control_c, 14, 11, 78
14, 57828, Control_c, 14, 11, 79
14, 57846, Control_c, 14, 11, 80
14, 57864, Control_c, 14, 11, 81
14, 57882, Control_c, 14, 11, 82
14, 57900, Control_c, 14, 11, 83
14, 57918, Control_c, 14, 11, 84
14, 57936, Control_c, 14, 11, 85
14, 57952, Note_on_c, 14, 34, 0
14, 57954, Control_c, 14, 11, 86
14, 57972, Control_c, 14, 11, 93
14, 57972, Note_on_c, 14, 33, 106
14, 57982, Control_c, 14, 11, 96
14, 57993, Control_c, 14, 11, 99
14, 58003, Control_c, 14, 11, 102
14, 58025, Control_c, 14, 11, 101
14, 58043, Control_c, 14, 11, 99
14, 58061, Control_c, 14, 11, 97
14, 58072, Note_on_c, 14, 33, 0
14, 58079, Control_c, 14, 11, 95
14, 58092, Note_on_c, 14, 45, 106
14, 58097, Control_c, 14, 11, 93
14, 58115, Control_c, 14, 11, 91
14, 58133, Control_c, 14, 11, 89
14, 58151, Control_c, 14, 11, 87
14, 58192, Note_on_c, 14, 45, 0
14, 58212, Note_on_c, 14, 45, 106
14, 58312, Note_on_c, 14, 45, 0
14, 58332, Note_on_c, 14, 50, 106
14, 58452, Note_on_c, 14, 50, 0
14, 58692, Note_on_c, 14, 33, 106
14, 58692, Control_c, 14, 11, 93
14, 58702, Control_c, 14, 11, 96
14, 58713, Control_c, 14, 11, 99
14, 58723, Control_c, 14, 11, 102
14, 58745, Control_c, 14, 11, 101
14, 58763, Control_c, 14, 11, 99
14, 58781, Control_c, 14, 11, 97
14, 58792, Note_on_c, 14, 33, 0
14, 58799, Control_c, 14, 11, 95
14, 58812, Note_on_c, 14, 45, 106
14, 58817, Control_c, 14, 11, 93
14, 58835, Control_c, 14, 11, 91
14, 58853, Control_c, 14, 11, 89
14, 58871, Control_c, 14, 11, 87
14, 58912, Note_on_c, 14, 45, 0
14, 58932, Note_on_c, 14, 45, 106
14, 59032, Note_on_c, 14, 45, 0
14, 59052, Note_on_c, 14, 50, 106
14, 59172, Note_on_c, 14, 50, 0
14, 59412, Control_c, 14, 11, 102
14, 59412, Note_on_c, 14, 33, 106
14, 59532, Note_on_c, 14, 33, 0
14, 59532, Note_on_c, 14, 45, 106
14, 59652, Note_on_c, 14, 45, 0
14, 59652, Note_on_c, 14, 45, 106
14, 59772, Note_on_c, 14, 45, 0
14, 59772, Note_on_c, 14, 45, 106
14, 59892, Note_on_c, 14, 45, 0
14, 59892, Note_on_c, 14, 45, 106
14, 60012, Note_on_c, 14, 45, 0
14, 60012, Note_on_c, 14, 45, 106
14, 60112, Note_on_c, 14, 45, 0
14, 60132, Note_on_c, 14, 50, 106
14, 60252, Note_on_c, 14, 50, 0
14, 60372, Note_on_c, 14, 45, 106
14, 60432, Note_on_c, 14, 45, 0
14, 60492, Note_on_c, 14, 38, 106
14, 60552, Note_on_c, 14, 38, 0
14, 66612, Control_c, 14, 11, 87
14, 66612, Note_on_c, 14, 42, 106
14, 66762, Note_on_c, 14, 42, 0
14, 66972, Control_c, 14, 11, 107
14, 66972, Note_on_c, 14, 42, 106
14, 67032, Control_c, 14, 11, 104
14, 67050, Control_c, 14, 11, 101
14, 67068, Control_c, 14, 11, 98
14, 67086, Control_c, 14, 11, 95
14, 67104, Control_c, 14, 11, 92
14, 67122, Note_on_c, 14, 42, 0
14, 67122, Control_c, 14, 11, 89
14, 67332, Note_on_c, 14, 42, 106
14, 67392, Note_on_c, 14, 42, 0
14, 67392, Note_on_c, 14, 41, 106
14, 67432, Note_on_c, 14, 41, 0
14, 67452, Note_on_c, 14, 42, 106
14, 67512, Note_on_c, 14, 42, 0
14, 67512, Note_on_c, 14, 41, 106
14, 67552, Note_on_c, 14, 41, 0
14, 67572, Note_on_c, 14, 42, 106
14, 67632, Note_on_c, 14, 42, 0
14, 67632, Note_on_c, 14, 41, 106
14, 67672, Note_on_c, 14, 41, 0
14, 67692, Note_on_c, 14, 42, 106
14, 67752, Note_on_c, 14, 42, 0
14, 67752, Note_on_c, 14, 41, 106
14, 67792, Note_on_c, 14, 41, 0
14, 67812, Note_on_c, 14, 42, 106
14, 67872, Note_on_c, 14, 42, 0
14, 67872, Note_on_c, 14, 41, 106
14, 67912, Note_on_c, 14, 41, 0
14, 67932, Note_on_c, 14, 42, 106
14, 67992, Note_on_c, 14, 42, 0
14, 67992, Note_on_c, 14, 41, 106
14, 68032, Note_on_c, 14, 41, 0
14, 68052, Note_on_c, 14, 42, 106
14, 68112, Note_on_c, 14, 42, 0
14, 68172, Note_on_c, 14, 34, 106
14, 68232, Note_on_c, 14, 34, 0
14, 68292, Note_on_c, 14, 37, 106
14, 68352, Note_on_c, 14, 37, 0
14, 68412, Control_c, 14, 11, 107
14, 68412, Note_on_c, 14, 42, 106
14, 68429, Control_c, 14, 11, 104
14, 68447, Control_c, 14, 11, 101
14, 68465, Control_c, 14, 11, 98
14, 68472, Note_on_c, 14, 42, 0
14, 68483, Control_c, 14, 11, 95
14, 68501, Control_c, 14, 11, 92
14, 68519, Control_c, 14, 11, 89
14, 68532, Note_on_c, 14, 37, 106
14, 68592, Note_on_c, 14, 37, 0
14, 68652, Note_on_c, 14, 34, 106
14, 68712, Note_on_c, 14, 34, 0
14, 68772, Note_on_c, 14, 30, 106
14, 68832, Note_on_c, 14, 30, 0
14, 68892, Note_on_c, 14, 34, 106
14, 68952, Note_on_c, 14, 34, 0
14, 69012, Note_on_c, 14, 37, 106
14, 69072, Note_on_c, 14, 37, 0
14, 69132, Control_c, 14, 11, 107
14, 69132, Note_on_c, 14, 42, 106
14, 69149, Control_c, 14, 11, 104
14, 69167, Control_c, 14, 11, 101
14, 69185, Control_c, 14, 11, 98
14, 69192, Note_on_c, 14, 42, 0
14, 69203, Control_c, 14, 11, 95
14, 69221, Control_c, 14, 11, 92
14, 69239, Control_c, 14, 11, 89
14, 69252, Note_on_c, 14, 37, 106
14, 69312, Note_on_c, 14, 37, 0
14, 69372, Note_on_c, 14, 34, 106
14, 69432, Note_on_c, 14, 34, 0
14, 69432, Control_c, 14, 11, 87
14, 69441, Control_c, 14, 11, 84
14, 69450, Control_c, 14, 11, 81
14, 69459, Control_c, 14, 11, 78
14, 69468, Control_c, 14, 11, 75
14, 69477, Control_c, 14, 11, 72
14, 69486, Control_c, 14, 11, 69
14, 69492, Note_on_c, 14, 30, 106
14, 69495, Control_c, 14, 11, 66
14, 69504, Control_c, 14, 11, 63
14, 69513, Control_c, 14, 11, 60
14, 69522, Control_c, 14, 11, 57
14, 69531, Control_c, 14, 11, 54
14, 69537, Note_on_c, 14, 30, 0
14, 69540, Control_c, 14, 11, 51
14, 69549, Control_c, 14, 11, 48
14, 69552, Note_on_c, 14, 30, 106
14, 69597, Note_on_c, 14, 30, 0
14, 69612, Control_c, 14, 11, 47
14, 69612, Note_on_c, 14, 30, 106
14, 69657, Note_on_c, 14, 30, 0
14, 69672, Note_on_c, 14, 30, 106
14, 69678, Control_c, 14, 11, 46
14, 69717, Note_on_c, 14, 30, 0
14, 69732, Note_on_c, 14, 30, 106
14, 69744, Control_c, 14, 11, 45
14, 69777, Note_on_c, 14, 30, 0
14, 69792, Note_on_c, 14, 30, 106
14, 69810, Control_c, 14, 11, 44
14, 69837, Note_on_c, 14, 30, 0
14, 69852, Note_on_c, 14, 42, 106
14, 69876, Control_c, 14, 11, 43
14, 69897, Note_on_c, 14, 42, 0
14, 69912, Note_on_c, 14, 42, 106
14, 69942, Control_c, 14, 11, 42
14, 69957, Note_on_c, 14, 42, 0
14, 69972, Note_on_c, 14, 42, 106
14, 70008, Control_c, 14, 11, 41
14, 70017, Note_on_c, 14, 42, 0
14, 70032, Note_on_c, 14, 42, 106
14, 70074, Control_c, 14, 11, 40
14, 70077, Note_on_c, 14, 42, 0
14, 70092, Note_on_c, 14, 42, 106
14, 70137, Note_on_c, 14, 42, 0
14, 70140, Control_c, 14, 11, 39
14, 70152, Note_on_c, 14, 42, 106
14, 70197, Note_on_c, 14, 42, 0
14, 70206, Control_c, 14, 11, 38
14, 70212, Note_on_c, 14, 30, 106
14, 70257, Note_on_c, 14, 30, 0
14, 70272, Control_c, 14, 11, 37
14, 70272, Note_on_c, 14, 30, 106
14, 70317, Note_on_c, 14, 30, 0
14, 70332, Note_on_c, 14, 30, 106
14, 70338, Control_c, 14, 11, 36
14, 70377, Note_on_c, 14, 30, 0
14, 70392, Note_on_c, 14, 30, 106
14, 70404, Control_c, 14, 11, 35
14, 70437, Note_on_c, 14, 30, 0
14, 70452, Note_on_c, 14, 30, 106
14, 70470, Control_c, 14, 11, 34
14, 70497, Note_on_c, 14, 30, 0
14, 70512, Note_on_c, 14, 30, 106
14, 70536, Control_c, 14, 11, 33
14, 70557, Note_on_c, 14, 30, 0
14, 70572, Note_on_c, 14, 30, 106
14, 70602, Control_c, 14, 11, 32
14, 70617, Note_on_c, 14, 30, 0
14, 70632, Note_on_c, 14, 30, 106
14, 70668, Control_c, 14, 11, 31
14, 70677, Note_on_c, 14, 30, 0
14, 70692, Note_on_c, 14, 30, 106
14, 70734, Control_c, 14, 11, 30
14, 70737, Note_on_c, 14, 30, 0
14, 70752, Note_on_c, 14, 30, 106
14, 70797, Note_on_c, 14, 30, 0
14, 70800, Control_c, 14, 11, 29
14, 70812, Note_on_c, 14, 30, 106
14, 70857, Note_on_c, 14, 30, 0
14, 70866, Control_c, 14, 11, 28
14, 70872, Note_on_c, 14, 30, 106
14, 70917, Note_on_c, 14, 30, 0
14, 70932, Control_c, 14, 11, 27
14, 70932, Note_on_c, 14, 30, 106
14, 71011, Control_c, 14, 11, 26
14, 71091, Control_c, 14, 11, 25
14, 71171, Control_c, 14, 11, 24
14, 71251, Control_c, 14, 11, 23
14, 71331, Control_c, 14, 11, 22
14, 71411, Control_c, 14, 11, 21
14, 71491, Control_c, 14, 11, 20
14, 71571, Control_c, 14, 11, 19
14, 71622, Note_on_c, 14, 30, 0
14, 71651, Control_c, 14, 11, 18
14, 72252, Control_c, 14, 11, 102
14, 72252, Note_on_c, 14, 33, 106
14, 72371, Control_c, 14, 11, 87
14, 72372, Note_on_c, 14, 33, 0
14, 72372, Control_c, 14, 11, 84
14, 72372, Note_on_c, 14, 38, 106
14, 72374, Control_c, 14, 11, 79
14, 72376, Control_c, 14, 11, 74
14, 72378, Control_c, 14, 11, 69
14, 72380, Control_c, 14, 11, 64
14, 72382, Control_c, 14, 11, 59
14, 72384, Control_c, 14, 11, 54
14, 72386, Control_c, 14, 11, 49
14, 72492, Note_on_c, 14, 38, 0
14, 75251, Program_c, 14, 45
14, 75252, Note_on_c, 14, 38, 28
14, 75252, Control_c, 14, 11, 100
14, 75372, Note_on_c, 14, 38, 0
14, 75372, Note_on_c, 14, 50, 28
14, 75492, Note_on_c, 14, 50, 0
14, 75492, Note_on_c, 14, 49, 28
14, 75612, Note_on_c, 14, 49, 0
14, 75612, Note_on_c, 14, 47, 28
14, 75732, Note_on_c, 14, 47, 0
14, 75732, Note_on_c, 14, 45, 28
14, 75852, Note_on_c, 14, 45, 0
14, 75852, Note_on_c, 14, 43, 28
14, 75972, Note_on_c, 14, 43, 0
14, 75972, Note_on_c, 14, 42, 28
14, 76092, Note_on_c, 14, 42, 0
14, 76092, Note_on_c, 14, 40, 28
14, 76212, Note_on_c, 14, 40, 0
14, 76212, Note_on_c, 14, 38, 28
14, 76332, Note_on_c, 14, 38, 0
14, 76332, Note_on_c, 14, 45, 28
14, 76452, Note_on_c, 14, 45, 0
14, 76572, Note_on_c, 14, 42, 28
14, 76692, Note_on_c, 14, 42, 0
14, 76692, Note_on_c, 14, 40, 28
14, 76812, Note_on_c, 14, 40, 0
14, 76812, Note_on_c, 14, 52, 33
14, 76932, Note_on_c, 14, 52, 0
14, 76932, Note_on_c, 14, 50, 40
14, 77052, Note_on_c, 14, 50, 0
14, 77052, Note_on_c, 14, 49, 55
14, 77172, Note_on_c, 14, 49, 0
14, 77172, Note_on_c, 14, 47, 46
14, 77292, Note_on_c, 14, 47, 0
14, 77292, Note_on_c, 14, 45, 46
14, 77412, Note_on_c, 14, 45, 0
14, 77412, Note_on_c, 14, 50, 28
14, 77532, Note_on_c, 14, 50, 0
14, 77532, Note_on_c, 14, 43, 28
14, 77652, Note_on_c, 14, 43, 0
14, 77652, Note_on_c, 14, 45, 28
14, 77772, Note_on_c, 14, 45, 0
14, 77772, Note_on_c, 14, 38, 28
14, 77892, Note_on_c, 14, 38, 0
14, 78012, Note_on_c, 14, 45, 28
14, 78132, Note_on_c, 14, 45, 0
14, 78132, Note_on_c, 14, 50, 28
14, 78252, Note_on_c, 14, 50, 0
14, 78252, Note_on_c, 14, 43, 28
14, 78372, Note_on_c, 14, 43, 0
14, 78372, Note_on_c, 14, 45, 28
14, 78492, Note_on_c, 14, 45, 0
14, 78492, Note_on_c, 14, 38, 28
14, 78612, Note_on_c, 14, 38, 0
14, 78732, Note_on_c, 14, 45, 37
14, 78852, Note_on_c, 14, 45, 0
14, 78852, Note_on_c, 14, 50, 42
14, 78972, Note_on_c, 14, 50, 0
14, 79092, Note_on_c, 14, 45, 51
14, 79212, Note_on_c, 14, 45, 0
14, 79212, Note_on_c, 14, 50, 55
14, 79332, Note_on_c, 14, 50, 0
14, 79452, Note_on_c, 14, 45, 28
14, 79572, Note_on_c, 14, 45, 0
14, 79572, Note_on_c, 14, 50, 28
14, 79692, Note_on_c, 14, 50, 0
14, 79692, Note_on_c, 14, 43, 28
14, 79812, Note_on_c, 14, 43, 0
14, 79812, Note_on_c, 14, 45, 28
14, 79932, Note_on_c, 14, 45, 0
14, 79932, Note_on_c, 14, 38, 28
14, 80052, Note_on_c, 14, 38, 0
14, 80291, Program_c, 14, 48
14, 80292, Control_c, 14, 11, 87
14, 80292, Note_on_c, 14, 42, 106
14, 80442, Note_on_c, 14, 42, 0
14, 80652, Control_c, 14, 11, 107
14, 80652, Note_on_c, 14, 42, 106
14, 80712, Control_c, 14, 11, 104
14, 80730, Control_c, 14, 11, 101
14, 80748, Control_c, 14, 11, 98
14, 80766, Control_c, 14, 11, 95
14, 80784, Control_c, 14, 11, 92
14, 80802, Note_on_c, 14, 42, 0
14, 80802, Control_c, 14, 11, 89
14, 81012, Note_on_c, 14, 42, 106
14, 81072, Note_on_c, 14, 42, 0
14, 81072, Note_on_c, 14, 41, 106
14, 81112, Note_on_c, 14, 41, 0
14, 81132, Note_on_c, 14, 42, 106
14, 81192, Note_on_c, 14, 42, 0
14, 81192, Note_on_c, 14, 41, 106
14, 81232, Note_on_c, 14, 41, 0
14, 81252, Note_on_c, 14, 42, 106
14, 81312, Note_on_c, 14, 42, 0
14, 81312, Note_on_c, 14, 41, 106
14, 81352, Note_on_c, 14, 41, 0
14, 81372, Note_on_c, 14, 42, 106
14, 81432, Note_on_c, 14, 42, 0
14, 81432, Note_on_c, 14, 41, 106
14, 81472, Note_on_c, 14, 41, 0
14, 81492, Note_on_c, 14, 42, 106
14, 81552, Note_on_c, 14, 42, 0
14, 81552, Note_on_c, 14, 41, 106
14, 81592, Note_on_c, 14, 41, 0
14, 81612, Note_on_c, 14, 42, 106
14, 81672, Note_on_c, 14, 42, 0
14, 81672, Note_on_c, 14, 41, 106
14, 81712, Note_on_c, 14, 41, 0
14, 81732, Note_on_c, 14, 42, 106
14, 81792, Note_on_c, 14, 42, 0
14, 81852, Note_on_c, 14, 34, 106
14, 81912, Note_on_c, 14, 34, 0
14, 81972, Note_on_c, 14, 37, 106
14, 82032, Note_on_c, 14, 37, 0
14, 82092, Control_c, 14, 11, 107
14, 82092, Note_on_c, 14, 42, 106
14, 82109, Control_c, 14, 11, 104
14, 82127, Control_c, 14, 11, 101
14, 82145, Control_c, 14, 11, 98
14, 82152, Note_on_c, 14, 42, 0
14, 82163, Control_c, 14, 11, 95
14, 82181, Control_c, 14, 11, 92
14, 82199, Control_c, 14, 11, 89
14, 82212, Note_on_c, 14, 37, 106
14, 82272, Note_on_c, 14, 37, 0
14, 82332, Note_on_c, 14, 34, 106
14, 82392, Note_on_c, 14, 34, 0
14, 82452, Note_on_c, 14, 30, 106
14, 82512, Note_on_c, 14, 30, 0
14, 82572, Note_on_c, 14, 34, 106
14, 82632, Note_on_c, 14, 34, 0
14, 82692, Note_on_c, 14, 37, 106
14, 82752, Note_on_c, 14, 37, 0
14, 82812, Control_c, 14, 11, 107
14, 82812, Note_on_c, 14, 42, 106
14, 82829, Control_c, 14, 11, 104
14, 82847, Control_c, 14, 11, 101
14, 82865, Control_c, 14, 11, 98
14, 82872, Note_on_c, 14, 42, 0
14, 82883, Control_c, 14, 11, 95
14, 82901, Control_c, 14, 11, 92
14, 82919, Control_c, 14, 11, 89
14, 82932, Note_on_c, 14, 37, 106
14, 82992, Note_on_c, 14, 37, 0
14, 83052, Note_on_c, 14, 34, 106
14, 83112, Note_on_c, 14, 34, 0
14, 83112, Control_c, 14, 11, 87
14, 83121, Control_c, 14, 11, 84
14, 83130, Control_c, 14, 11, 81
14, 83139, Control_c, 14, 11, 78
14, 83148, Control_c, 14, 11, 75
14, 83157, Control_c, 14, 11, 72
14, 83166, Control_c, 14, 11, 69
14, 83172, Note_on_c, 14, 30, 106
14, 83175, Control_c, 14, 11, 66
14, 83184, Control_c, 14, 11, 63
14, 83193, Control_c, 14, 11, 60
14, 83202, Control_c, 14, 11, 57
14, 83211, Control_c, 14, 11, 54
14, 83217, Note_on_c, 14, 30, 0
14, 83220, Control_c, 14, 11, 51
14, 83229, Control_c, 14, 11, 48
14, 83232, Note_on_c, 14, 30, 106
14, 83277, Note_on_c, 14, 30, 0
14, 83292, Control_c, 14, 11, 47
14, 83292, Note_on_c, 14, 30, 106
14, 83337, Note_on_c, 14, 30, 0
14, 83352, Note_on_c, 14, 30, 106
14, 83358, Control_c, 14, 11, 46
14, 83397, Note_on_c, 14, 30, 0
14, 83412, Note_on_c, 14, 30, 106
14, 83424, Control_c, 14, 11, 45
14, 83457, Note_on_c, 14, 30, 0
14, 83472, Note_on_c, 14, 30, 106
14, 83490, Control_c, 14, 11, 44
14, 83517, Note_on_c, 14, 30, 0
14, 83532, Note_on_c, 14, 42, 106
14, 83556, Control_c, 14, 11, 43
14, 83577, Note_on_c, 14, 42, 0
14, 83592, Note_on_c, 14, 42, 106
14, 83622, Control_c, 14, 11, 42
14, 83637, Note_on_c, 14, 42, 0
14, 83652, Note_on_c, 14, 42, 106
14, 83688, Control_c, 14, 11, 41
14, 83697, Note_on_c, 14, 42, 0
14, 83712, Note_on_c, 14, 42, 106
14, 83754, Control_c, 14, 11, 40
14, 83757, Note_on_c, 14, 42, 0
14, 83772, Note_on_c, 14, 42, 106
14, 83817, Note_on_c, 14, 42, 0
14, 83820, Control_c, 14, 11, 39
14, 83832, Note_on_c, 14, 42, 106
14, 83877, Note_on_c, 14, 42, 0
14, 83886, Control_c, 14, 11, 38
14, 83892, Note_on_c, 14, 30, 106
14, 83937, Note_on_c, 14, 30, 0
14, 83952, Control_c, 14, 11, 37
14, 83952, Note_on_c, 14, 30, 106
14, 83997, Note_on_c, 14, 30, 0
14, 84012, Note_on_c, 14, 30, 106
14, 84018, Control_c, 14, 11, 36
14, 84057, Note_on_c, 14, 30, 0
14, 84072, Note_on_c, 14, 30, 106
14, 84084, Control_c, 14, 11, 35
14, 84117, Note_on_c, 14, 30, 0
14, 84132, Note_on_c, 14, 30, 106
14, 84150, Control_c, 14, 11, 34
14, 84177, Note_on_c, 14, 30, 0
14, 84192, Note_on_c, 14, 30, 106
14, 84216, Control_c, 14, 11, 33
14, 84237, Note_on_c, 14, 30, 0
14, 84252, Note_on_c, 14, 30, 106
14, 84282, Control_c, 14, 11, 32
14, 84297, Note_on_c, 14, 30, 0
14, 84312, Note_on_c, 14, 30, 106
14, 84348, Control_c, 14, 11, 31
14, 84357, Note_on_c, 14, 30, 0
14, 84372, Note_on_c, 14, 30, 106
14, 84414, Control_c, 14, 11, 30
14, 84417, Note_on_c, 14, 30, 0
14, 84432, Note_on_c, 14, 30, 106
14, 84477, Note_on_c, 14, 30, 0
14, 84480, Control_c, 14, 11, 29
14, 84492, Note_on_c, 14, 30, 106
14, 84537, Note_on_c, 14, 30, 0
14, 84546, Control_c, 14, 11, 28
14, 84552, Note_on_c, 14, 30, 106
14, 84597, Note_on_c, 14, 30, 0
14, 84612, Control_c, 14, 11, 27
14, 84612, Note_on_c, 14, 30, 106
14, 84691, Control_c, 14, 11, 26
14, 84771, Control_c, 14, 11, 25
14, 84851, Control_c, 14, 11, 24
14, 84931, Control_c, 14, 11, 23
14, 85011, Control_c, 14, 11, 22
14, 85091, Control_c, 14, 11, 21
14, 85171, Control_c, 14, 11, 20
14, 85251, Control_c, 14, 11, 19
14, 85302, Note_on_c, 14, 30, 0
14, 85331, Control_c, 14, 11, 18
14, 85932, Control_c, 14, 11, 102
14, 85932, Note_on_c, 14, 33, 106
14, 86051, Control_c, 14, 11, 87
14, 86052, Note_on_c, 14, 33, 0
14, 86052, Control_c, 14, 11, 84
14, 86052, Note_on_c, 14, 38, 106
14, 86054, Control_c, 14, 11, 79
14, 86056, Control_c, 14, 11, 74
14, 86058, Control_c, 14, 11, 69
14, 86060, Control_c, 14, 11, 64
14, 86062, Control_c, 14, 11, 59
14, 86064, Control_c, 14, 11, 54
14, 86066, Control_c, 14, 11, 49
14, 86172, Note_on_c, 14, 38, 0
14, 88931, Program_c, 14, 45
14, 88932, Note_on_c, 14, 38, 28
14, 88932, Control_c, 14, 11, 100
14, 89052, Note_on_c, 14, 38, 0
14, 89052, Note_on_c, 14, 50, 28
14, 89172, Note_on_c, 14, 50, 0
14, 89172, Note_on_c, 14, 49, 28
14, 89292, Note_on_c, 14, 49, 0
14, 89292, Note_on_c, 14, 47, 28
14, 89412, Note_on_c, 14, 47, 0
14, 89412, Note_on_c, 14, 45, 28
14, 89532, Note_on_c, 14, 45, 0
14, 89532, Note_on_c, 14, 43, 28
14, 89652, Note_on_c, 14, 43, 0
14, 89652, Note_on_c, 14, 42, 28
14, 89772, Note_on_c, 14, 42, 0
14, 89772, Note_on_c, 14, 40, 28
14, 89892, Note_on_c, 14, 40, 0
14, 89892, Note_on_c, 14, 38, 28
14, 90012, Note_on_c, 14, 38, 0
14, 90012, Note_on_c, 14, 45, 28
14, 90132, Note_on_c, 14, 45, 0
14, 90252, Note_on_c, 14, 42, 28
14, 90372, Note_on_c, 14, 42, 0
14, 90372, Note_on_c, 14, 40, 28
14, 90492, Note_on_c, 14, 40, 0
14, 90492, Note_on_c, 14, 52, 33
14, 90612, Note_on_c, 14, 52, 0
14, 90612, Note_on_c, 14, 50, 40
14, 90732, Note_on_c, 14, 50, 0
14, 90732, Note_on_c, 14, 49, 55
14, 90852, Note_on_c, 14, 49, 0
14, 90852, Note_on_c, 14, 47, 46
14, 90972, Note_on_c, 14, 47, 0
14, 90972, Note_on_c, 14, 45, 46
14, 91092, Note_on_c, 14, 45, 0
14, 91092, Note_on_c, 14, 50, 28
14, 91212, Note_on_c, 14, 50, 0
14, 91212, Note_on_c, 14, 43, 28
14, 91332, Note_on_c, 14, 43, 0
14, 91332, Note_on_c, 14, 45, 28
14, 91452, Note_on_c, 14, 45, 0
14, 91452, Note_on_c, 14, 38, 28
14, 91572, Note_on_c, 14, 38, 0
14, 91692, Note_on_c, 14, 45, 28
14, 91812, Note_on_c, 14, 45, 0
14, 91812, Note_on_c, 14, 50, 28
14, 91932, Note_on_c, 14, 50, 0
14, 91932, Note_on_c, 14, 43, 28
14, 92052, Note_on_c, 14, 43, 0
14, 92052, Note_on_c, 14, 45, 28
14, 92172, Note_on_c, 14, 45, 0
14, 92172, Note_on_c, 14, 38, 28
14, 92292, Note_on_c, 14, 38, 0
14, 92412, Note_on_c, 14, 45, 37
14, 92532, Note_on_c, 14, 45, 0
14, 92532, Note_on_c, 14, 50, 42
14, 92652, Note_on_c, 14, 50, 0
14, 92772, Note_on_c, 14, 45, 51
14, 92892, Note_on_c, 14, 45, 0
14, 92892, Note_on_c, 14, 50, 55
14, 93012, Note_on_c, 14, 50, 0
14, 93132, Note_on_c, 14, 45, 28
14, 93252, Note_on_c, 14, 45, 0
14, 93252, Note_on_c, 14, 50, 28
14, 93372, Note_on_c, 14, 50, 0
14, 93372, Note_on_c, 14, 43, 28
14, 93492, Note_on_c, 14, 43, 0
14, 93492, Note_on_c, 14, 45, 28
14, 93612, Note_on_c, 14, 45, 0
14, 93612, Note_on_c, 14, 38, 28
14, 93732, Note_on_c, 14, 38, 0
14, 93971, Program_c, 14, 48
14, 93972, Control_c, 14, 11, 87
14, 93972, Note_on_c, 14, 38, 106
14, 94032, Note_on_c, 14, 38, 0
14, 94092, Note_on_c, 14, 40, 106
14, 94152, Note_on_c, 14, 40, 0
14, 94212, Note_on_c, 14, 42, 106
14, 94272, Note_on_c, 14, 42, 0
14, 94692, Note_on_c, 14, 43, 106
14, 94752, Note_on_c, 14, 43, 0
14, 94812, Note_on_c, 14, 45, 106
14, 94872, Note_on_c, 14, 45, 0
14, 94932, Note_on_c, 14, 47, 106
14, 94992, Note_on_c, 14, 47, 0
14, 96492, Control_c, 14, 11, 102
14, 96492, Note_on_c, 14, 38, 106
14, 96552, Note_on_c, 14, 38, 0
14, 96612, Note_on_c, 14, 33, 106
14, 96672, Note_on_c, 14, 33, 0
14, 96732, Note_on_c, 14, 38, 106
14, 96792, Note_on_c, 14, 38, 0
14, 96852, Control_c, 14, 11, 87
14, 96852, Note_on_c, 14, 38, 106
14, 96912, Note_on_c, 14, 38, 0
14, 96972, Note_on_c, 14, 40, 106
14, 97032, Note_on_c, 14, 40, 0
14, 97092, Note_on_c, 14, 42, 106
14, 97152, Note_on_c, 14, 42, 0
14, 97572, Note_on_c, 14, 44, 106
14, 97632, Note_on_c, 14, 44, 0
14, 97692, Note_on_c, 14, 45, 106
14, 97752, Note_on_c, 14, 45, 0
14, 97812, Note_on_c, 14, 47, 106
14, 97872, Note_on_c, 14, 47, 0
14, 99372, Control_c, 14, 11, 102
14, 99372, Note_on_c, 14, 45, 106
14, 99432, Note_on_c, 14, 45, 0
14, 99492, Note_on_c, 14, 40, 106
14, 99552, Note_on_c, 14, 40, 0
14, 99612, Note_on_c, 14, 45, 106
14, 99672, Note_on_c, 14, 45, 0
14, 99732, Control_c, 14, 11, 87
14, 99732, Note_on_c, 14, 38, 106
14, 99792, Note_on_c, 14, 38, 0
14, 99852, Note_on_c, 14, 40, 106
14, 99912, Note_on_c, 14, 40, 0
14, 99972, Note_on_c, 14, 42, 106
14, 100032, Note_on_c, 14, 42, 0
14, 100452, Note_on_c, 14, 43, 106
14, 100512, Note_on_c, 14, 43, 0
14, 100572, Note_on_c, 14, 45, 106
14, 100632, Note_on_c, 14, 45, 0
14, 100692, Note_on_c, 14, 47, 106
14, 100752, Note_on_c, 14, 47, 0
14, 102252, Control_c, 14, 11, 102
14, 102252, Note_on_c, 14, 38, 106
14, 102312, Note_on_c, 14, 38, 0
14, 102372, Note_on_c, 14, 33, 106
14, 102432, Note_on_c, 14, 33, 0
14, 102492, Note_on_c, 14, 38, 106
14, 102552, Note_on_c, 14, 38, 0
14, 102612, Control_c, 14, 11, 87
14, 102612, Note_on_c, 14, 38, 106
14, 102672, Note_on_c, 14, 38, 0
14, 102732, Note_on_c, 14, 40, 106
14, 102792, Note_on_c, 14, 40, 0
14, 102852, Note_on_c, 14, 42, 106
14, 102912, Note_on_c, 14, 42, 0
14, 103332, Note_on_c, 14, 44, 106
14, 103392, Note_on_c, 14, 44, 0
14, 103452, Note_on_c, 14, 45, 106
14, 103512, Note_on_c, 14, 45, 0
14, 103572, Note_on_c, 14, 47, 106
14, 103632, Note_on_c, 14, 47, 0
14, 105132, Control_c, 14, 11, 102
14, 105132, Note_on_c, 14, 45, 106
14, 105192, Note_on_c, 14, 45, 0
14, 105252, Note_on_c, 14, 40, 106
14, 105312, Note_on_c, 14, 40, 0
14, 105372, Note_on_c, 14, 45, 106
14, 105432, Note_on_c, 14, 45, 0
14, 105492, Control_c, 14, 11, 47
14, 105492, Note_on_c, 14, 45, 106
14, 105552, Note_on_c, 14, 45, 0
14, 105612, Note_on_c, 14, 47, 106
14, 105672, Note_on_c, 14, 47, 0
14, 105732, Note_on_c, 14, 49, 106
14, 105792, Note_on_c, 14, 49, 0
14, 105852, Note_on_c, 14, 50, 106
14, 105972, Note_on_c, 14, 50, 0
14, 106212, Note_on_c, 14, 41, 106
14, 106272, Note_on_c, 14, 41, 0
14, 106332, Note_on_c, 14, 43, 106
14, 106392, Note_on_c, 14, 43, 0
14, 106452, Note_on_c, 14, 45, 106
14, 106512, Note_on_c, 14, 45, 0
14, 106572, Note_on_c, 14, 46, 106
14, 106692, Note_on_c, 14, 46, 0
14, 106932, Note_on_c, 14, 34, 106
14, 106992, Note_on_c, 14, 34, 0
14, 107052, Control_c, 14, 11, 72
14, 107052, Note_on_c, 14, 34, 106
14, 107060, Control_c, 14, 11, 75
14, 107069, Control_c, 14, 11, 78
14, 107078, Control_c, 14, 11, 81
14, 107093, Control_c, 14, 11, 80
14, 107111, Control_c, 14, 11, 77
14, 107129, Control_c, 14, 11, 74
14, 107147, Control_c, 14, 11, 71
14, 107165, Control_c, 14, 11, 68
14, 107183, Control_c, 14, 11, 65
14, 107201, Control_c, 14, 11, 62
14, 107219, Control_c, 14, 11, 59
14, 107237, Control_c, 14, 11, 56
14, 107255, Control_c, 14, 11, 53
14, 107273, Control_c, 14, 11, 50
14, 107291, Control_c, 14, 11, 47
14, 107752, Note_on_c, 14, 34, 0
14, 107772, Note_on_c, 14, 34, 106
14, 107872, Note_on_c, 14, 34, 0
14, 107892, Note_on_c, 14, 34, 106
14, 107992, Note_on_c, 14, 34, 0
14, 108012, Note_on_c, 14, 34, 106
14, 108112, Note_on_c, 14, 34, 0
14, 108132, Note_on_c, 14, 34, 106
14, 108232, Note_on_c, 14, 34, 0
14, 108252, Note_on_c, 14, 34, 106
14, 108352, Note_on_c, 14, 34, 0
14, 108372, Note_on_c, 14, 34, 106
14, 108432, Note_on_c, 14, 34, 0
14, 108492, Control_c, 14, 11, 72
14, 108492, Note_on_c, 14, 34, 106
14, 108500, Control_c, 14, 11, 75
14, 108509, Control_c, 14, 11, 78
14, 108518, Control_c, 14, 11, 81
14, 108533, Control_c, 14, 11, 80
14, 108551, Control_c, 14, 11, 77
14, 108569, Control_c, 14, 11, 74
14, 108587, Control_c, 14, 11, 71
14, 108605, Control_c, 14, 11, 68
14, 108623, Control_c, 14, 11, 65
14, 108641, Control_c, 14, 11, 62
14, 108659, Control_c, 14, 11, 59
14, 108677, Control_c, 14, 11, 56
14, 108695, Control_c, 14, 11, 53
14, 108713, Control_c, 14, 11, 50
14, 108731, Control_c, 14, 11, 47
14, 109192, Note_on_c, 14, 34, 0
14, 109212, Note_on_c, 14, 34, 106
14, 109312, Note_on_c, 14, 34, 0
14, 109332, Note_on_c, 14, 34, 106
14, 109432, Note_on_c, 14, 34, 0
14, 109452, Note_on_c, 14, 34, 106
14, 109552, Note_on_c, 14, 34, 0
14, 109572, Note_on_c, 14, 34, 106
14, 109672, Note_on_c, 14, 34, 0
14, 109692, Note_on_c, 14, 34, 106
14, 109792, Note_on_c, 14, 34, 0
14, 109812, Note_on_c, 14, 34, 106
14, 109932, Note_on_c, 14, 34, 0
14, 110172, Note_on_c, 14, 33, 106
14, 110292, Note_on_c, 14, 33, 0
14, 110532, Note_on_c, 14, 32, 106
14, 110652, Note_on_c, 14, 32, 0
14, 110892, Control_c, 14, 11, 47
14, 110892, Note_on_c, 14, 44, 106
14, 110928, Control_c, 14, 11, 46
14, 110964, Control_c, 14, 11, 45
14, 111000, Control_c, 14, 11, 44
14, 111012, Note_on_c, 14, 44, 0
14, 111036, Control_c, 14, 11, 43
14, 111072, Control_c, 14, 11, 42
14, 111108, Control_c, 14, 11, 41
14, 111144, Control_c, 14, 11, 40
14, 111180, Control_c, 14, 11, 39
14, 111216, Control_c, 14, 11, 38
14, 111252, Control_c, 14, 11, 37
14, 111252, Note_on_c, 14, 33, 106
14, 111612, Control_c, 14, 11, 37
14, 111648, Control_c, 14, 11, 36
14, 111684, Control_c, 14, 11, 35
14, 111720, Control_c, 14, 11, 34
14, 111756, Control_c, 14, 11, 33
14, 111792, Control_c, 14, 11, 32
14, 111828, Control_c, 14, 11, 31
14, 111864, Control_c, 14, 11, 30
14, 111900, Control_c, 14, 11, 29
14, 111936, Control_c, 14, 11, 28
14, 111972, Control_c, 14, 11, 27
14, 112452, Control_c, 14, 11, 27
14, 112468, Control_c, 14, 11, 28
14, 112484, Control_c, 14, 11, 29
14, 112500, Control_c, 14, 11, 30
14, 112516, Control_c, 14, 11, 31
14, 112532, Control_c, 14, 11, 32
14, 112548, Control_c, 14, 11, 33
14, 112564, Control_c, 14, 11, 34
14, 112580, Control_c, 14, 11, 35
14, 112596, Control_c, 14, 11, 36
14, 112612, Control_c, 14, 11, 37
14, 112628, Control_c, 14, 11, 38
14, 112644, Control_c, 14, 11, 39
14, 112660, Control_c, 14, 11, 40
14, 112676, Control_c, 14, 11, 41
14, 112692, Control_c, 14, 11, 42
14, 112708, Control_c, 14, 11, 43
14, 112724, Control_c, 14, 11, 44
14, 112740, Control_c, 14, 11, 45
14, 112756, Control_c, 14, 11, 46
14, 112772, Control_c, 14, 11, 47
14, 112788, Control_c, 14, 11, 48
14, 112804, Control_c, 14, 11, 49
14, 112812, Note_on_c, 14, 33, 0
14, 112820, Control_c, 14, 11, 50
14, 112836, Control_c, 14, 11, 51
14, 112852, Control_c, 14, 11, 52
14, 112868, Control_c, 14, 11, 53
14, 112884, Control_c, 14, 11, 54
14, 112900, Control_c, 14, 11, 55
14, 112916, Control_c, 14, 11, 56
14, 112932, Control_c, 14, 11, 57
14, 112948, Control_c, 14, 11, 58
14, 112964, Control_c, 14, 11, 59
14, 112980, Control_c, 14, 11, 60
14, 112996, Control_c, 14, 11, 61
14, 113012, Control_c, 14, 11, 62
14, 113028, Control_c, 14, 11, 63
14, 113044, Control_c, 14, 11, 64
14, 113060, Control_c, 14, 11, 65
14, 113076, Control_c, 14, 11, 66
14, 113092, Control_c, 14, 11, 67
14, 113108, Control_c, 14, 11, 68
14, 113124, Control_c, 14, 11, 69
14, 113140, Control_c, 14, 11, 70
14, 113156, Control_c, 14, 11, 71
14, 113172, Control_c, 14, 11, 72
14, 113188, Control_c, 14, 11, 73
14, 113204, Control_c, 14, 11, 74
14, 113220, Control_c, 14, 11, 75
14, 113236, Control_c, 14, 11, 76
14, 113252, Control_c, 14, 11, 77
14, 113268, Control_c, 14, 11, 78
14, 113284, Control_c, 14, 11, 79
14, 113300, Control_c, 14, 11, 80
14, 113316, Control_c, 14, 11, 81
14, 113332, Control_c, 14, 11, 82
14, 113348, Control_c, 14, 11, 83
14, 113364, Control_c, 14, 11, 84
14, 113380, Control_c, 14, 11, 85
14, 113396, Control_c, 14, 11, 86
14, 113412, Control_c, 14, 11, 87
14, 113412, Note_on_c, 14, 38, 106
14, 113472, Note_on_c, 14, 38, 0
14, 113532, Note_on_c, 14, 40, 106
14, 113592, Note_on_c, 14, 40, 0
14, 113652, Note_on_c, 14, 42, 106
14, 113712, Note_on_c, 14, 42, 0
14, 114132, Control_c, 14, 11, 87
14, 114132, Note_on_c, 14, 43, 106
14, 114192, Note_on_c, 14, 43, 0
14, 114252, Note_on_c, 14, 45, 106
14, 114312, Note_on_c, 14, 45, 0
14, 114372, Note_on_c, 14, 47, 106
14, 114432, Note_on_c, 14, 47, 0
14, 115932, Control_c, 14, 11, 102
14, 115932, Note_on_c, 14, 38, 106
14, 115992, Note_on_c, 14, 38, 0
14, 116052, Note_on_c, 14, 33, 106
14, 116112, Note_on_c, 14, 33, 0
14, 116172, Note_on_c, 14, 38, 106
14, 116232, Note_on_c, 14, 38, 0
14, 116292, Control_c, 14, 11, 87
14, 116292, Note_on_c, 14, 38, 106
14, 116352, Note_on_c, 14, 38, 0
14, 116412, Note_on_c, 14, 40, 106
14, 116472, Note_on_c, 14, 40, 0
14, 116532, Note_on_c, 14, 42, 106
14, 116592, Note_on_c, 14, 42, 0
14, 117012, Control_c, 14, 11, 87
14, 117012, Note_on_c, 14, 43, 106
14, 117072, Note_on_c, 14, 43, 0
14, 117132, Note_on_c, 14, 45, 106
14, 117192, Note_on_c, 14, 45, 0
14, 117252, Note_on_c, 14, 47, 106
14, 117312, Note_on_c, 14, 47, 0
14, 120612, Control_c, 14, 11, 32
14, 120612, Note_on_c, 14, 48, 106
14, 120732, Note_on_c, 14, 48, 0
14, 120972, Note_on_c, 14, 41, 106
14, 121092, Note_on_c, 14, 41, 0
14, 121332, Note_on_c, 14, 45, 106
14, 121452, Note_on_c, 14, 45, 0
14, 121692, Note_on_c, 14, 38, 106
14, 121812, Note_on_c, 14, 38, 0
14, 122052, Control_c, 14, 11, 32
14, 122052, Note_on_c, 14, 34, 106
14, 122078, Control_c, 14, 11, 34
14, 122104, Control_c, 14, 11, 36
14, 122130, Control_c, 14, 11, 38
14, 122156, Control_c, 14, 11, 40
14, 122182, Control_c, 14, 11, 42
14, 122209, Control_c, 14, 11, 44
14, 122235, Control_c, 14, 11, 46
14, 122261, Control_c, 14, 11, 48
14, 122287, Control_c, 14, 11, 50
14, 122313, Control_c, 14, 11, 52
14, 122340, Control_c, 14, 11, 54
14, 122366, Control_c, 14, 11, 56
14, 122392, Control_c, 14, 11, 58
14, 122418, Control_c, 14, 11, 60
14, 122444, Control_c, 14, 11, 62
14, 122470, Control_c, 14, 11, 64
14, 122497, Control_c, 14, 11, 66
14, 122523, Control_c, 14, 11, 68
14, 122549, Control_c, 14, 11, 70
14, 122575, Control_c, 14, 11, 72
14, 122601, Control_c, 14, 11, 74
14, 122628, Control_c, 14, 11, 76
14, 122654, Control_c, 14, 11, 78
14, 122680, Control_c, 14, 11, 80
14, 122706, Control_c, 14, 11, 82
14, 122732, Control_c, 14, 11, 84
14, 122752, Note_on_c, 14, 34, 0
14, 122758, Control_c, 14, 11, 86
14, 122772, Note_on_c, 14, 33, 106
14, 122872, Note_on_c, 14, 33, 0
14, 122892, Note_on_c, 14, 45, 106
14, 122992, Note_on_c, 14, 45, 0
14, 123012, Note_on_c, 14, 45, 106
14, 123112, Note_on_c, 14, 45, 0
14, 123132, Note_on_c, 14, 38, 106
14, 123252, Note_on_c, 14, 38, 0
14, 123492, Control_c, 14, 11, 32
14, 123492, Note_on_c, 14, 48, 106
14, 123612, Note_on_c, 14, 48, 0
14, 123852, Note_on_c, 14, 41, 106
14, 123972, Note_on_c, 14, 41, 0
14, 124212, Note_on_c, 14, 45, 106
14, 124332, Note_on_c, 14, 45, 0
14, 124572, Note_on_c, 14, 38, 106
14, 124692, Note_on_c, 14, 38, 0
14, 124932, Control_c, 14, 11, 32
14, 124932, Note_on_c, 14, 34, 106
14, 124958, Control_c, 14, 11, 34
14, 124984, Control_c, 14, 11, 36
14, 125010, Control_c, 14, 11, 38
14, 125036, Control_c, 14, 11, 40
14, 125062, Control_c, 14, 11, 42
14, 125089, Control_c, 14, 11, 44
14, 125115, Control_c, 14, 11, 46
14, 125141, Control_c, 14, 11, 48
14, 125167, Control_c, 14, 11, 50
14, 125193, Control_c, 14, 11, 52
14, 125220, Control_c, 14, 11, 54
14, 125246, Control_c, 14, 11, 56
14, 125272, Control_c, 14, 11, 58
14, 125298, Control_c, 14, 11, 60
14, 125324, Control_c, 14, 11, 62
14, 125350, Control_c, 14, 11, 64
14, 125377, Control_c, 14, 11, 66
14, 125403, Control_c, 14, 11, 68
14, 125429, Control_c, 14, 11, 70
14, 125455, Control_c, 14, 11, 72
14, 125481, Control_c, 14, 11, 74
14, 125508, Control_c, 14, 11, 76
14, 125534, Control_c, 14, 11, 78
14, 125560, Control_c, 14, 11, 80
14, 125586, Control_c, 14, 11, 82
14, 125612, Control_c, 14, 11, 84
14, 125632, Note_on_c, 14, 34, 0
14, 125638, Control_c, 14, 11, 86
14, 125652, Note_on_c, 14, 33, 106
14, 125752, Note_on_c, 14, 33, 0
14, 125772, Note_on_c, 14, 45, 106
14, 125872, Note_on_c, 14, 45, 0
14, 125892, Note_on_c, 14, 45, 106
14, 125992, Note_on_c, 14, 45, 0
14, 126012, Note_on_c, 14, 50, 106
14, 126132, Note_on_c, 14, 50, 0
14, 126372, Control_c, 14, 11, 47
14, 126372, Note_on_c, 14, 34, 106
14, 126390, Control_c, 14, 11, 48
14, 126408, Control_c, 14, 11, 49
14, 126426, Control_c, 14, 11, 50
14, 126444, Control_c, 14, 11, 51
14, 126462, Control_c, 14, 11, 52
14, 126480, Control_c, 14, 11, 53
14, 126498, Control_c, 14, 11, 54
14, 126516, Control_c, 14, 11, 55
14, 126534, Control_c, 14, 11, 56
14, 126552, Control_c, 14, 11, 57
14, 126570, Control_c, 14, 11, 58
14, 126588, Control_c, 14, 11, 59
14, 126606, Control_c, 14, 11, 60
14, 126624, Control_c, 14, 11, 61
14, 126642, Control_c, 14, 11, 62
14, 126660, Control_c, 14, 11, 63
14, 126678, Control_c, 14, 11, 64
14, 126696, Control_c, 14, 11, 65
14, 126714, Control_c, 14, 11, 66
14, 126732, Control_c, 14, 11, 67
14, 126750, Control_c, 14, 11, 68
14, 126768, Control_c, 14, 11, 69
14, 126786, Control_c, 14, 11, 70
14, 126804, Control_c, 14, 11, 71
14, 126822, Control_c, 14, 11, 72
14, 126840, Control_c, 14, 11, 73
14, 126858, Control_c, 14, 11, 74
14, 126876, Control_c, 14, 11, 75
14, 126894, Control_c, 14, 11, 76
14, 126912, Control_c, 14, 11, 77
14, 126930, Control_c, 14, 11, 78
14, 126948, Control_c, 14, 11, 79
14, 126966, Control_c, 14, 11, 80
14, 126984, Control_c, 14, 11, 81
14, 127002, Control_c, 14, 11, 82
14, 127020, Control_c, 14, 11, 83
14, 127038, Control_c, 14, 11, 84
14, 127056, Control_c, 14, 11, 85
14, 127072, Note_on_c, 14, 34, 0
14, 127074, Control_c, 14, 11, 86
14, 127092, Control_c, 14, 11, 93
14, 127092, Note_on_c, 14, 33, 106
14, 127102, Control_c, 14, 11, 96
14, 127113, Control_c, 14, 11, 99
14, 127123, Control_c, 14, 11, 102
14, 127145, Control_c, 14, 11, 101
14, 127163, Control_c, 14, 11, 99
14, 127181, Control_c, 14, 11, 97
14, 127192, Note_on_c, 14, 33, 0
14, 127199, Control_c, 14, 11, 95
14, 127212, Note_on_c, 14, 45, 106
14, 127217, Control_c, 14, 11, 93
14, 127235, Control_c, 14, 11, 91
14, 127253, Control_c, 14, 11, 89
14, 127271, Control_c, 14, 11, 87
14, 127312, Note_on_c, 14, 45, 0
14, 127332, Note_on_c, 14, 45, 106
14, 127432, Note_on_c, 14, 45, 0
14, 127452, Note_on_c, 14, 50, 106
14, 127572, Note_on_c, 14, 50, 0
14, 127812, Note_on_c, 14, 33, 106
14, 127812, Control_c, 14, 11, 93
14, 127822, Control_c, 14, 11, 96
14, 127833, Control_c, 14, 11, 99
14, 127843, Control_c, 14, 11, 102
14, 127865, Control_c, 14, 11, 101
14, 127883, Control_c, 14, 11, 99
14, 127901, Control_c, 14, 11, 97
14, 127912, Note_on_c, 14, 33, 0
14, 127919, Control_c, 14, 11, 95
14, 127932, Note_on_c, 14, 45, 106
14, 127937, Control_c, 14, 11, 93
14, 127955, Control_c, 14, 11, 91
14, 127973, Control_c, 14, 11, 89
14, 127991, Control_c, 14, 11, 87
14, 128032, Note_on_c, 14, 45, 0
14, 128052, Note_on_c, 14, 45, 106
14, 128152, Note_on_c, 14, 45, 0
14, 128172, Note_on_c, 14, 50, 106
14, 128292, Note_on_c, 14, 50, 0
14, 128532, Control_c, 14, 11, 102
14, 128532, Note_on_c, 14, 33, 106
14, 128652, Note_on_c, 14, 33, 0
14, 128652, Note_on_c, 14, 45, 106
14, 128772, Note_on_c, 14, 45, 0
14, 128772, Note_on_c, 14, 45, 106
14, 128892, Note_on_c, 14, 45, 0
14, 128892, Note_on_c, 14, 45, 106
14, 129012, Note_on_c, 14, 45, 0
14, 129012, Note_on_c, 14, 45, 106
14, 129132, Note_on_c, 14, 45, 0
14, 129132, Note_on_c, 14, 45, 106
14, 129232, Note_on_c, 14, 45, 0
14, 129252, Note_on_c, 14, 50, 106
14, 129372, Note_on_c, 14, 50, 0
14, 129492, Note_on_c, 14, 45, 106
14, 129552, Note_on_c, 14, 45, 0
14, 129612, Note_on_c, 14, 38, 106
14, 129672, Note_on_c, 14, 38, 0
14, 129972, Control_c, 14, 121, 0
14, 129972, End_track
15, 0, Start_track
15, 0, MIDI_port, 0
15, 0, Title_t, "Sequ. by J.F.Lucarelli"
15, 0, End_track
16, 0, Start_track
16, 0, MIDI_port, 0
16, 0, Title_t, "j-f.lucarelli@infonie.be  --  http://perso.infonie.fr/espace-midi"
16, 0, End_track
17, 0, Start_track
17, 0, MIDI_port, 0
17, 0, Title_t, "Optimized for AWE 64  + 8 MB memory"
17, 0, End_track
18, 0, Start_track
18, 0, MIDI_port, 0
18, 0, Title_t, "(c) January 2001"
18, 0, End_track
19, 0, Start_track
19, 0, MIDI_port, 0
19, 0, Title_t, "Beethoven - Symphony no 2 in D - Scherzo : Allegro"
19, 0, End_track
20, 0, Start_track
20, 1, Copyright_t, "___________________________________________________\012\012KUNSTDERFUGE.COM LARGE CLASSICAL MIDI COLLECTION\012ONCLASSICAL BY ALESSANDRO SIMONETTO, PROPRIETOR\012___________________________________________________\012\012! Attention: this file is under copyright !\012\012(c)onclassical, (c)lucarelli, 2010\012___________________________________________________\012\012NO ONE MAY REPUBLISH THIS FILE WITHOUT PERMISSION\012COMMERCIAL USES OF THIS FILE IS STRICTLY PROHIBITED\012___________________________________________________\012\012Files & contributor's list: http://kunstderfuge.com/\012Terms and conditions: http://kunstderfuge.com/notes.htm"
20, 1, End_track
0, 0, End_of_file
