0, 0, Header, 1, 17, 120
1, 0, Start_track
1, 0, Sequencer_specific, 3, 0, 0, 65
1, 0, Time_signature, 3, 2, 24, 8
1, 0, Key_signature, -3, "major"
1, 0, Tempo, 333333
1, 0, Marker_t, "Beethoven Symphony No.3(""Eroica"") 1st Movement Allegro con brio"
1, 0, End_track
2, 0, Start_track
2, 0, MIDI_port, 0
2, 0, Title_t, "Flutes"
2, 0, Program_c, 0, 73
2, 0, Control_c, 0, 7, 127
2, 0, Control_c, 0, 10, 48
2, 0, Control_c, 0, 93, 0
2, 0, Control_c, 0, 91, 0
2, 0, Note_on_c, 0, 87, 96
2, 0, Note_on_c, 0, 82, 96
2, 59, Note_on_c, 0, 82, 0
2, 59, Note_on_c, 0, 87, 0
2, 360, Note_on_c, 0, 82, 96
2, 360, Note_on_c, 0, 87, 96
2, 419, Note_on_c, 0, 87, 0
2, 419, Note_on_c, 0, 82, 0
2, 4560, Note_on_c, 0, 82, 48
2, 4800, Note_on_c, 0, 84, 48
2, 4809, Note_on_c, 0, 82, 0
2, 4920, Note_on_c, 0, 86, 56
2, 4929, Note_on_c, 0, 84, 0
2, 5039, Note_on_c, 0, 86, 0
2, 5040, Note_on_c, 0, 87, 48
2, 5280, Note_on_c, 0, 91, 48
2, 5289, Note_on_c, 0, 87, 0
2, 5400, Note_on_c, 0, 87, 48
2, 5409, Note_on_c, 0, 91, 0
2, 5640, Note_on_c, 0, 82, 48
2, 5649, Note_on_c, 0, 87, 0
2, 5760, Note_on_c, 0, 87, 48
2, 5769, Note_on_c, 0, 82, 0
2, 5879, Note_on_c, 0, 87, 0
2, 7080, Note_on_c, 0, 79, 48
2, 7200, Note_on_c, 0, 80, 48
2, 7209, Note_on_c, 0, 79, 0
2, 7320, Note_on_c, 0, 84, 48
2, 7329, Note_on_c, 0, 80, 0
2, 7440, Note_on_c, 0, 75, 48
2, 7440, Note_on_c, 0, 87, 48
2, 7449, Note_on_c, 0, 84, 0
2, 7559, Note_on_c, 0, 75, 0
2, 7560, Note_on_c, 0, 80, 48
2, 7569, Note_on_c, 0, 87, 0
2, 7680, Note_on_c, 0, 75, 48
2, 7799, Note_on_c, 0, 75, 0
2, 7800, Note_on_c, 0, 81, 64
2, 7800, Note_on_c, 0, 75, 64
2, 7809, Note_on_c, 0, 80, 0
2, 7919, Note_on_c, 0, 75, 0
2, 7920, Note_on_c, 0, 74, 96
2, 7920, Note_on_c, 0, 82, 96
2, 7929, Note_on_c, 0, 81, 0
2, 7949, Note_on_c, 0, 82, 0
2, 7949, Note_on_c, 0, 74, 0
2, 7950, Note_on_c, 0, 82, 48
2, 7950, Note_on_c, 0, 74, 48
2, 8519, Note_on_c, 0, 74, 0
2, 8519, Note_on_c, 0, 82, 0
2, 8520, Note_on_c, 0, 80, 48
2, 8520, Note_on_c, 0, 86, 48
2, 8639, Note_on_c, 0, 86, 0
2, 8639, Note_on_c, 0, 80, 0
2, 8640, Note_on_c, 0, 87, 48
2, 8640, Note_on_c, 0, 79, 48
2, 8699, Note_on_c, 0, 79, 0
2, 8699, Note_on_c, 0, 87, 0
2, 8760, Note_on_c, 0, 87, 96
2, 8760, Note_on_c, 0, 81, 96
2, 8999, Note_on_c, 0, 81, 0
2, 8999, Note_on_c, 0, 87, 0
2, 9000, Note_on_c, 0, 87, 96
2, 9000, Note_on_c, 0, 81, 96
2, 9239, Note_on_c, 0, 81, 0
2, 9239, Note_on_c, 0, 87, 0
2, 9240, Note_on_c, 0, 87, 96
2, 9240, Note_on_c, 0, 81, 96
2, 9359, Note_on_c, 0, 81, 0
2, 9359, Note_on_c, 0, 87, 0
2, 9360, Note_on_c, 0, 86, 96
2, 9360, Note_on_c, 0, 82, 96
2, 9389, Note_on_c, 0, 82, 0
2, 9389, Note_on_c, 0, 86, 0
2, 9390, Note_on_c, 0, 82, 48
2, 9390, Note_on_c, 0, 86, 48
2, 9959, Note_on_c, 0, 86, 0
2, 9959, Note_on_c, 0, 82, 0
2, 9960, Note_on_c, 0, 82, 96
2, 10199, Note_on_c, 0, 82, 0
2, 10200, Note_on_c, 0, 86, 96
2, 10200, Note_on_c, 0, 82, 96
2, 10439, Note_on_c, 0, 82, 0
2, 10439, Note_on_c, 0, 86, 0
2, 10440, Note_on_c, 0, 86, 96
2, 10440, Note_on_c, 0, 82, 96
2, 10679, Note_on_c, 0, 82, 0
2, 10679, Note_on_c, 0, 86, 0
2, 10680, Note_on_c, 0, 86, 96
2, 10680, Note_on_c, 0, 82, 96
2, 10919, Note_on_c, 0, 82, 0
2, 10919, Note_on_c, 0, 86, 0
2, 10920, Note_on_c, 0, 82, 96
2, 10920, Note_on_c, 0, 87, 96
2, 11159, Note_on_c, 0, 87, 0
2, 11159, Note_on_c, 0, 82, 0
2, 11160, Note_on_c, 0, 82, 96
2, 11160, Note_on_c, 0, 87, 96
2, 11399, Note_on_c, 0, 87, 0
2, 11399, Note_on_c, 0, 82, 0
2, 11400, Note_on_c, 0, 82, 96
2, 11400, Note_on_c, 0, 87, 96
2, 11639, Note_on_c, 0, 87, 0
2, 11639, Note_on_c, 0, 82, 0
2, 11640, Note_on_c, 0, 86, 90
2, 11640, Note_on_c, 0, 82, 90
2, 11699, Note_on_c, 0, 82, 0
2, 11699, Note_on_c, 0, 86, 0
2, 11760, Note_on_c, 0, 86, 96
2, 11760, Note_on_c, 0, 82, 96
2, 11999, Note_on_c, 0, 82, 0
2, 11999, Note_on_c, 0, 86, 0
2, 12000, Note_on_c, 0, 86, 90
2, 12000, Note_on_c, 0, 82, 90
2, 12059, Note_on_c, 0, 82, 0
2, 12059, Note_on_c, 0, 86, 0
2, 12120, Note_on_c, 0, 82, 96
2, 12120, Note_on_c, 0, 87, 96
2, 12240, Note_on_c, 0, 86, 96
2, 12249, Note_on_c, 0, 87, 0
2, 12359, Note_on_c, 0, 86, 0
2, 12359, Note_on_c, 0, 82, 0
2, 12360, Note_on_c, 0, 70, 96
2, 12389, Note_on_c, 0, 70, 0
2, 12420, Note_on_c, 0, 72, 99
2, 12449, Note_on_c, 0, 72, 0
2, 12480, Note_on_c, 0, 74, 102
2, 12509, Note_on_c, 0, 74, 0
2, 12540, Note_on_c, 0, 75, 105
2, 12569, Note_on_c, 0, 75, 0
2, 12600, Note_on_c, 0, 77, 108
2, 12629, Note_on_c, 0, 77, 0
2, 12660, Note_on_c, 0, 79, 111
2, 12689, Note_on_c, 0, 79, 0
2, 12720, Note_on_c, 0, 80, 114
2, 12749, Note_on_c, 0, 80, 0
2, 12780, Note_on_c, 0, 82, 117
2, 12809, Note_on_c, 0, 82, 0
2, 12840, Note_on_c, 0, 84, 120
2, 12869, Note_on_c, 0, 84, 0
2, 12900, Note_on_c, 0, 86, 123
2, 12929, Note_on_c, 0, 86, 0
2, 12960, Note_on_c, 0, 87, 127
2, 13200, Note_on_c, 0, 79, 127
2, 13200, Note_on_c, 0, 91, 127
2, 13209, Note_on_c, 0, 87, 0
2, 13320, Note_on_c, 0, 87, 127
2, 13320, Note_on_c, 0, 75, 127
2, 13329, Note_on_c, 0, 91, 0
2, 13329, Note_on_c, 0, 79, 0
2, 13560, Note_on_c, 0, 70, 127
2, 13560, Note_on_c, 0, 82, 127
2, 13569, Note_on_c, 0, 87, 0
2, 13569, Note_on_c, 0, 75, 0
2, 13680, Note_on_c, 0, 87, 127
2, 13680, Note_on_c, 0, 75, 127
2, 13689, Note_on_c, 0, 70, 0
2, 13689, Note_on_c, 0, 82, 0
2, 13799, Note_on_c, 0, 87, 0
2, 13800, Note_on_c, 0, 87, 127
2, 13800, Note_on_c, 0, 91, 127
2, 13809, Note_on_c, 0, 75, 0
2, 13919, Note_on_c, 0, 91, 0
2, 13919, Note_on_c, 0, 87, 0
2, 13920, Note_on_c, 0, 87, 127
2, 13920, Note_on_c, 0, 91, 127
2, 14039, Note_on_c, 0, 91, 0
2, 14039, Note_on_c, 0, 87, 0
2, 14040, Note_on_c, 0, 91, 127
2, 14040, Note_on_c, 0, 87, 127
2, 14519, Note_on_c, 0, 87, 0
2, 14519, Note_on_c, 0, 91, 0
2, 14520, Note_on_c, 0, 91, 127
2, 14520, Note_on_c, 0, 87, 127
2, 14639, Note_on_c, 0, 87, 0
2, 14639, Note_on_c, 0, 91, 0
2, 14640, Note_on_c, 0, 87, 127
2, 14640, Note_on_c, 0, 91, 127
2, 14759, Note_on_c, 0, 91, 0
2, 14759, Note_on_c, 0, 87, 0
2, 14760, Note_on_c, 0, 91, 127
2, 14760, Note_on_c, 0, 87, 127
2, 14999, Note_on_c, 0, 87, 0
2, 14999, Note_on_c, 0, 91, 0
2, 15000, Note_on_c, 0, 91, 127
2, 15000, Note_on_c, 0, 85, 127
2, 15119, Note_on_c, 0, 85, 0
2, 15119, Note_on_c, 0, 91, 0
2, 15120, Note_on_c, 0, 92, 127
2, 15120, Note_on_c, 0, 84, 127
2, 15240, Note_on_c, 0, 87, 127
2, 15249, Note_on_c, 0, 92, 0
2, 15359, Note_on_c, 0, 87, 0
2, 15360, Note_on_c, 0, 87, 127
2, 15479, Note_on_c, 0, 87, 0
2, 15480, Note_on_c, 0, 88, 127
2, 15540, Note_on_c, 0, 82, 127
2, 15549, Note_on_c, 0, 84, 0
2, 15600, Note_on_c, 0, 81, 127
2, 15609, Note_on_c, 0, 82, 0
2, 15660, Note_on_c, 0, 82, 127
2, 15669, Note_on_c, 0, 81, 0
2, 15720, Note_on_c, 0, 84, 127
2, 15729, Note_on_c, 0, 82, 0
2, 15780, Note_on_c, 0, 82, 127
2, 15789, Note_on_c, 0, 84, 0
2, 15840, Note_on_c, 0, 81, 127
2, 15840, Note_on_c, 0, 89, 127
2, 15849, Note_on_c, 0, 82, 0
2, 15849, Note_on_c, 0, 88, 0
2, 15959, Note_on_c, 0, 81, 0
2, 15959, Note_on_c, 0, 89, 0
2, 16680, Note_on_c, 0, 87, 48
2, 16860, Note_on_c, 0, 84, 48
2, 16869, Note_on_c, 0, 87, 0
2, 16920, Note_on_c, 0, 81, 48
2, 16929, Note_on_c, 0, 84, 0
2, 17039, Note_on_c, 0, 81, 0
2, 18120, Note_on_c, 0, 86, 48
2, 18300, Note_on_c, 0, 82, 48
2, 18309, Note_on_c, 0, 86, 0
2, 18360, Note_on_c, 0, 77, 48
2, 18369, Note_on_c, 0, 82, 0
2, 18479, Note_on_c, 0, 77, 0
2, 19560, Note_on_c, 0, 91, 127
2, 19560, Note_on_c, 0, 79, 127
2, 19739, Note_on_c, 0, 79, 0
2, 19739, Note_on_c, 0, 91, 0
2, 19740, Note_on_c, 0, 77, 127
2, 19740, Note_on_c, 0, 89, 127
2, 19799, Note_on_c, 0, 89, 0
2, 19799, Note_on_c, 0, 77, 0
2, 19800, Note_on_c, 0, 87, 127
2, 19800, Note_on_c, 0, 75, 127
2, 19859, Note_on_c, 0, 75, 0
2, 19859, Note_on_c, 0, 87, 0
2, 19920, Note_on_c, 0, 86, 127
2, 19920, Note_on_c, 0, 74, 127
2, 19979, Note_on_c, 0, 74, 0
2, 19979, Note_on_c, 0, 86, 0
2, 20040, Note_on_c, 0, 84, 127
2, 20040, Note_on_c, 0, 72, 127
2, 20099, Note_on_c, 0, 72, 0
2, 20099, Note_on_c, 0, 84, 0
2, 20160, Note_on_c, 0, 82, 48
2, 20160, Note_on_c, 0, 70, 48
2, 20279, Note_on_c, 0, 70, 0
2, 20279, Note_on_c, 0, 82, 0
2, 21600, Note_on_c, 0, 70, 48
2, 21600, Note_on_c, 0, 82, 48
2, 22379, Note_on_c, 0, 82, 0
2, 22379, Note_on_c, 0, 70, 0
2, 22380, Note_on_c, 0, 82, 74
2, 22380, Note_on_c, 0, 74, 74
2, 22409, Note_on_c, 0, 74, 0
2, 22409, Note_on_c, 0, 82, 0
2, 22440, Note_on_c, 0, 72, 76
2, 22440, Note_on_c, 0, 81, 76
2, 22469, Note_on_c, 0, 81, 0
2, 22469, Note_on_c, 0, 72, 0
2, 22500, Note_on_c, 0, 82, 78
2, 22500, Note_on_c, 0, 74, 78
2, 22529, Note_on_c, 0, 74, 0
2, 22529, Note_on_c, 0, 82, 0
2, 22560, Note_on_c, 0, 81, 80
2, 22560, Note_on_c, 0, 84, 80
2, 22589, Note_on_c, 0, 84, 0
2, 22589, Note_on_c, 0, 81, 0
2, 22620, Note_on_c, 0, 82, 82
2, 22620, Note_on_c, 0, 86, 82
2, 22649, Note_on_c, 0, 86, 0
2, 22649, Note_on_c, 0, 82, 0
2, 22680, Note_on_c, 0, 87, 84
2, 22680, Note_on_c, 0, 84, 84
2, 22709, Note_on_c, 0, 84, 0
2, 22709, Note_on_c, 0, 87, 0
2, 22740, Note_on_c, 0, 87, 86
2, 22740, Note_on_c, 0, 84, 86
2, 22769, Note_on_c, 0, 84, 0
2, 22769, Note_on_c, 0, 87, 0
2, 22800, Note_on_c, 0, 87, 88
2, 22800, Note_on_c, 0, 84, 88
2, 22829, Note_on_c, 0, 84, 0
2, 22829, Note_on_c, 0, 87, 0
2, 22860, Note_on_c, 0, 87, 90
2, 22860, Note_on_c, 0, 84, 90
2, 22889, Note_on_c, 0, 84, 0
2, 22889, Note_on_c, 0, 87, 0
2, 22920, Note_on_c, 0, 87, 92
2, 22920, Note_on_c, 0, 84, 92
2, 22949, Note_on_c, 0, 84, 0
2, 22949, Note_on_c, 0, 87, 0
2, 22980, Note_on_c, 0, 87, 94
2, 22980, Note_on_c, 0, 84, 94
2, 23009, Note_on_c, 0, 84, 0
2, 23009, Note_on_c, 0, 87, 0
2, 23040, Note_on_c, 0, 84, 96
2, 23040, Note_on_c, 0, 87, 96
2, 23099, Note_on_c, 0, 87, 0
2, 23099, Note_on_c, 0, 84, 0
2, 23160, Note_on_c, 0, 84, 96
2, 23160, Note_on_c, 0, 87, 96
2, 23219, Note_on_c, 0, 87, 0
2, 23219, Note_on_c, 0, 84, 0
2, 23700, Note_on_c, 0, 87, 96
2, 23700, Note_on_c, 0, 81, 96
2, 23729, Note_on_c, 0, 81, 0
2, 23729, Note_on_c, 0, 87, 0
2, 23760, Note_on_c, 0, 82, 96
2, 23760, Note_on_c, 0, 86, 96
2, 23819, Note_on_c, 0, 86, 0
2, 23819, Note_on_c, 0, 82, 0
2, 23880, Note_on_c, 0, 86, 96
2, 23880, Note_on_c, 0, 82, 96
2, 23939, Note_on_c, 0, 82, 0
2, 23939, Note_on_c, 0, 86, 0
2, 24420, Note_on_c, 0, 82, 96
2, 24420, Note_on_c, 0, 86, 96
2, 24449, Note_on_c, 0, 86, 0
2, 24449, Note_on_c, 0, 82, 0
2, 24480, Note_on_c, 0, 86, 96
2, 24480, Note_on_c, 0, 83, 96
2, 24539, Note_on_c, 0, 83, 0
2, 24539, Note_on_c, 0, 86, 0
2, 24600, Note_on_c, 0, 83, 96
2, 24600, Note_on_c, 0, 86, 96
2, 24659, Note_on_c, 0, 86, 0
2, 24659, Note_on_c, 0, 83, 0
2, 25140, Note_on_c, 0, 83, 96
2, 25140, Note_on_c, 0, 74, 96
2, 25169, Note_on_c, 0, 74, 0
2, 25169, Note_on_c, 0, 83, 0
2, 25200, Note_on_c, 0, 79, 96
2, 25200, Note_on_c, 0, 84, 96
2, 25229, Note_on_c, 0, 84, 0
2, 25229, Note_on_c, 0, 79, 0
2, 25260, Note_on_c, 0, 84, 96
2, 25260, Note_on_c, 0, 79, 96
2, 25379, Note_on_c, 0, 79, 0
2, 25379, Note_on_c, 0, 84, 0
2, 25380, Note_on_c, 0, 79, 96
2, 25380, Note_on_c, 0, 84, 96
2, 25409, Note_on_c, 0, 84, 0
2, 25409, Note_on_c, 0, 79, 0
2, 25440, Note_on_c, 0, 84, 96
2, 25440, Note_on_c, 0, 81, 96
2, 25469, Note_on_c, 0, 81, 0
2, 25469, Note_on_c, 0, 84, 0
2, 25500, Note_on_c, 0, 81, 96
2, 25500, Note_on_c, 0, 86, 96
2, 25529, Note_on_c, 0, 86, 0
2, 25529, Note_on_c, 0, 81, 0
2, 25560, Note_on_c, 0, 86, 96
2, 25560, Note_on_c, 0, 82, 96
2, 25589, Note_on_c, 0, 82, 0
2, 25589, Note_on_c, 0, 86, 0
2, 25620, Note_on_c, 0, 82, 96
2, 25620, Note_on_c, 0, 87, 96
2, 25739, Note_on_c, 0, 87, 0
2, 25739, Note_on_c, 0, 82, 0
2, 25740, Note_on_c, 0, 87, 96
2, 25740, Note_on_c, 0, 82, 96
2, 25769, Note_on_c, 0, 82, 0
2, 25769, Note_on_c, 0, 87, 0
2, 25800, Note_on_c, 0, 84, 96
2, 25800, Note_on_c, 0, 87, 96
2, 25829, Note_on_c, 0, 87, 0
2, 25829, Note_on_c, 0, 84, 0
2, 25860, Note_on_c, 0, 89, 96
2, 25860, Note_on_c, 0, 84, 96
2, 25889, Note_on_c, 0, 84, 0
2, 25889, Note_on_c, 0, 89, 0
2, 25920, Note_on_c, 0, 86, 96
2, 25920, Note_on_c, 0, 82, 96
2, 26039, Note_on_c, 0, 82, 0
2, 26039, Note_on_c, 0, 86, 0
2, 26040, Note_on_c, 0, 82, 96
2, 26040, Note_on_c, 0, 86, 96
2, 26159, Note_on_c, 0, 82, 0
2, 26160, Note_on_c, 0, 82, 96
2, 26160, Note_on_c, 0, 87, 96
2, 26169, Note_on_c, 0, 86, 0
2, 26279, Note_on_c, 0, 82, 0
2, 26280, Note_on_c, 0, 82, 96
2, 26280, Note_on_c, 0, 88, 96
2, 26289, Note_on_c, 0, 87, 0
2, 26399, Note_on_c, 0, 82, 0
2, 26400, Note_on_c, 0, 82, 96
2, 26400, Note_on_c, 0, 89, 96
2, 26409, Note_on_c, 0, 88, 0
2, 26520, Note_on_c, 0, 91, 96
2, 26529, Note_on_c, 0, 89, 0
2, 26580, Note_on_c, 0, 90, 96
2, 26589, Note_on_c, 0, 91, 0
2, 26640, Note_on_c, 0, 91, 96
2, 26649, Note_on_c, 0, 90, 0
2, 26700, Note_on_c, 0, 90, 96
2, 26709, Note_on_c, 0, 91, 0
2, 26760, Note_on_c, 0, 83, 96
2, 26760, Note_on_c, 0, 91, 96
2, 26769, Note_on_c, 0, 90, 0
2, 26769, Note_on_c, 0, 82, 0
2, 26820, Note_on_c, 0, 86, 96
2, 26829, Note_on_c, 0, 91, 0
2, 26879, Note_on_c, 0, 86, 0
2, 26879, Note_on_c, 0, 83, 0
2, 26880, Note_on_c, 0, 84, 96
2, 26880, Note_on_c, 0, 87, 96
2, 26940, Note_on_c, 0, 86, 96
2, 26940, Note_on_c, 0, 79, 96
2, 26949, Note_on_c, 0, 87, 0
2, 26949, Note_on_c, 0, 84, 0
2, 26999, Note_on_c, 0, 79, 0
2, 27000, Note_on_c, 0, 79, 96
2, 27000, Note_on_c, 0, 89, 96
2, 27009, Note_on_c, 0, 86, 0
2, 27059, Note_on_c, 0, 79, 0
2, 27060, Note_on_c, 0, 87, 96
2, 27060, Note_on_c, 0, 79, 96
2, 27069, Note_on_c, 0, 89, 0
2, 27119, Note_on_c, 0, 79, 0
2, 27120, Note_on_c, 0, 77, 96
2, 27120, Note_on_c, 0, 86, 96
2, 27129, Note_on_c, 0, 87, 0
2, 27180, Note_on_c, 0, 84, 96
2, 27180, Note_on_c, 0, 75, 96
2, 27189, Note_on_c, 0, 86, 0
2, 27189, Note_on_c, 0, 77, 0
2, 27240, Note_on_c, 0, 82, 96
2, 27240, Note_on_c, 0, 74, 96
2, 27249, Note_on_c, 0, 84, 0
2, 27249, Note_on_c, 0, 75, 0
2, 27359, Note_on_c, 0, 82, 0
2, 27359, Note_on_c, 0, 74, 0
2, 28080, Note_on_c, 0, 89, 96
2, 28859, Note_on_c, 0, 89, 0
2, 28860, Note_on_c, 0, 88, 127
2, 28889, Note_on_c, 0, 88, 0
2, 28920, Note_on_c, 0, 87, 127
2, 28949, Note_on_c, 0, 87, 0
2, 28980, Note_on_c, 0, 86, 127
2, 29009, Note_on_c, 0, 86, 0
2, 29040, Note_on_c, 0, 84, 127
2, 29069, Note_on_c, 0, 84, 0
2, 29100, Note_on_c, 0, 82, 127
2, 29129, Note_on_c, 0, 82, 0
2, 29160, Note_on_c, 0, 81, 127
2, 29189, Note_on_c, 0, 81, 0
2, 29220, Note_on_c, 0, 91, 127
2, 29220, Note_on_c, 0, 79, 127
2, 29249, Note_on_c, 0, 79, 0
2, 29249, Note_on_c, 0, 91, 0
2, 29280, Note_on_c, 0, 89, 127
2, 29280, Note_on_c, 0, 77, 127
2, 29309, Note_on_c, 0, 77, 0
2, 29309, Note_on_c, 0, 89, 0
2, 29340, Note_on_c, 0, 75, 127
2, 29340, Note_on_c, 0, 87, 127
2, 29369, Note_on_c, 0, 87, 0
2, 29369, Note_on_c, 0, 75, 0
2, 29400, Note_on_c, 0, 86, 127
2, 29400, Note_on_c, 0, 74, 127
2, 29429, Note_on_c, 0, 74, 0
2, 29429, Note_on_c, 0, 86, 0
2, 29460, Note_on_c, 0, 84, 127
2, 29460, Note_on_c, 0, 72, 127
2, 29489, Note_on_c, 0, 72, 0
2, 29489, Note_on_c, 0, 84, 0
2, 29520, Note_on_c, 0, 82, 127
2, 29520, Note_on_c, 0, 70, 127
2, 29639, Note_on_c, 0, 70, 0
2, 29639, Note_on_c, 0, 82, 0
2, 30360, Note_on_c, 0, 86, 88
2, 30449, Note_on_c, 0, 86, 0
2, 30480, Note_on_c, 0, 86, 96
2, 30569, Note_on_c, 0, 86, 0
2, 30600, Note_on_c, 0, 86, 88
2, 30840, Note_on_c, 0, 84, 64
2, 30849, Note_on_c, 0, 86, 0
2, 30959, Note_on_c, 0, 84, 0
2, 32280, Note_on_c, 0, 89, 96
2, 32520, Note_on_c, 0, 87, 96
2, 32529, Note_on_c, 0, 89, 0
2, 32580, Note_on_c, 0, 86, 88
2, 32589, Note_on_c, 0, 87, 0
2, 32640, Note_on_c, 0, 84, 80
2, 32649, Note_on_c, 0, 86, 0
2, 32700, Note_on_c, 0, 82, 72
2, 32709, Note_on_c, 0, 84, 0
2, 32759, Note_on_c, 0, 82, 0
2, 35040, Note_on_c, 0, 84, 56
2, 35040, Note_on_c, 0, 82, 56
2, 35129, Note_on_c, 0, 82, 0
2, 35129, Note_on_c, 0, 84, 0
2, 35160, Note_on_c, 0, 84, 56
2, 35160, Note_on_c, 0, 82, 56
2, 35249, Note_on_c, 0, 82, 0
2, 35249, Note_on_c, 0, 84, 0
2, 35280, Note_on_c, 0, 84, 48
2, 35280, Note_on_c, 0, 81, 48
2, 35399, Note_on_c, 0, 81, 0
2, 35399, Note_on_c, 0, 84, 0
2, 38400, Note_on_c, 0, 75, 75
2, 38400, Note_on_c, 0, 72, 75
2, 38429, Note_on_c, 0, 72, 0
2, 38429, Note_on_c, 0, 75, 0
2, 38460, Note_on_c, 0, 77, 78
2, 38460, Note_on_c, 0, 74, 78
2, 38489, Note_on_c, 0, 74, 0
2, 38489, Note_on_c, 0, 77, 0
2, 38520, Note_on_c, 0, 79, 80
2, 38520, Note_on_c, 0, 75, 80
2, 38549, Note_on_c, 0, 75, 0
2, 38549, Note_on_c, 0, 79, 0
2, 38580, Note_on_c, 0, 81, 83
2, 38580, Note_on_c, 0, 77, 83
2, 38609, Note_on_c, 0, 77, 0
2, 38609, Note_on_c, 0, 81, 0
2, 38640, Note_on_c, 0, 82, 86
2, 38640, Note_on_c, 0, 79, 86
2, 38669, Note_on_c, 0, 79, 0
2, 38669, Note_on_c, 0, 82, 0
2, 38700, Note_on_c, 0, 84, 89
2, 38700, Note_on_c, 0, 81, 89
2, 38729, Note_on_c, 0, 81, 0
2, 38729, Note_on_c, 0, 84, 0
2, 38760, Note_on_c, 0, 86, 92
2, 38760, Note_on_c, 0, 82, 92
2, 38789, Note_on_c, 0, 82, 0
2, 38789, Note_on_c, 0, 86, 0
2, 38820, Note_on_c, 0, 87, 94
2, 38820, Note_on_c, 0, 84, 94
2, 38849, Note_on_c, 0, 84, 0
2, 38849, Note_on_c, 0, 87, 0
2, 38880, Note_on_c, 0, 89, 96
2, 38880, Note_on_c, 0, 86, 96
2, 38999, Note_on_c, 0, 86, 0
2, 38999, Note_on_c, 0, 89, 0
2, 39000, Note_on_c, 0, 86, 112
2, 39000, Note_on_c, 0, 89, 112
2, 39239, Note_on_c, 0, 89, 0
2, 39239, Note_on_c, 0, 86, 0
2, 39360, Note_on_c, 0, 89, 112
2, 39360, Note_on_c, 0, 86, 112
2, 39599, Note_on_c, 0, 86, 0
2, 39599, Note_on_c, 0, 89, 0
2, 39720, Note_on_c, 0, 89, 112
2, 39720, Note_on_c, 0, 87, 112
2, 39959, Note_on_c, 0, 87, 0
2, 39959, Note_on_c, 0, 89, 0
2, 40080, Note_on_c, 0, 89, 112
2, 40080, Note_on_c, 0, 81, 112
2, 40199, Note_on_c, 0, 81, 0
2, 40199, Note_on_c, 0, 89, 0
2, 40200, Note_on_c, 0, 84, 96
2, 40200, Note_on_c, 0, 89, 96
2, 40319, Note_on_c, 0, 89, 0
2, 40319, Note_on_c, 0, 84, 0
2, 40320, Note_on_c, 0, 89, 127
2, 40320, Note_on_c, 0, 86, 127
2, 40379, Note_on_c, 0, 86, 0
2, 40379, Note_on_c, 0, 89, 0
2, 40440, Note_on_c, 0, 89, 127
2, 40619, Note_on_c, 0, 89, 0
2, 40620, Note_on_c, 0, 86, 127
2, 40679, Note_on_c, 0, 86, 0
2, 40680, Note_on_c, 0, 82, 127
2, 40739, Note_on_c, 0, 82, 0
2, 40800, Note_on_c, 0, 86, 127
2, 40979, Note_on_c, 0, 86, 0
2, 40980, Note_on_c, 0, 77, 127
2, 41039, Note_on_c, 0, 77, 0
2, 41040, Note_on_c, 0, 84, 127
2, 41099, Note_on_c, 0, 84, 0
2, 41160, Note_on_c, 0, 87, 127
2, 41339, Note_on_c, 0, 87, 0
2, 41340, Note_on_c, 0, 77, 127
2, 41399, Note_on_c, 0, 77, 0
2, 41400, Note_on_c, 0, 81, 127
2, 41459, Note_on_c, 0, 81, 0
2, 41520, Note_on_c, 0, 84, 127
2, 41699, Note_on_c, 0, 84, 0
2, 41700, Note_on_c, 0, 81, 127
2, 41759, Note_on_c, 0, 81, 0
2, 41760, Note_on_c, 0, 89, 127
2, 41760, Note_on_c, 0, 82, 127
2, 42060, Note_on_c, 0, 88, 127
2, 42069, Note_on_c, 0, 89, 0
2, 42120, Note_on_c, 0, 89, 127
2, 42129, Note_on_c, 0, 88, 0
2, 42179, Note_on_c, 0, 89, 0
2, 42179, Note_on_c, 0, 82, 0
2, 43620, Note_on_c, 0, 86, 127
2, 43620, Note_on_c, 0, 81, 127
2, 43649, Note_on_c, 0, 81, 0
2, 43649, Note_on_c, 0, 86, 0
2, 43680, Note_on_c, 0, 82, 127
2, 43680, Note_on_c, 0, 86, 127
2, 43709, Note_on_c, 0, 86, 0
2, 43709, Note_on_c, 0, 82, 0
2, 43740, Note_on_c, 0, 91, 127
2, 43740, Note_on_c, 0, 83, 127
2, 43769, Note_on_c, 0, 83, 0
2, 43769, Note_on_c, 0, 91, 0
2, 43800, Note_on_c, 0, 84, 127
2, 43800, Note_on_c, 0, 91, 127
2, 43829, Note_on_c, 0, 91, 0
2, 43829, Note_on_c, 0, 84, 0
2, 43860, Note_on_c, 0, 91, 127
2, 43860, Note_on_c, 0, 85, 127
2, 43889, Note_on_c, 0, 85, 0
2, 43889, Note_on_c, 0, 91, 0
2, 43920, Note_on_c, 0, 90, 127
2, 43920, Note_on_c, 0, 86, 127
2, 43979, Note_on_c, 0, 86, 0
2, 43979, Note_on_c, 0, 90, 0
2, 44040, Note_on_c, 0, 86, 127
2, 44040, Note_on_c, 0, 84, 127
2, 44099, Note_on_c, 0, 84, 0
2, 44099, Note_on_c, 0, 86, 0
2, 44160, Note_on_c, 0, 86, 127
2, 44160, Note_on_c, 0, 82, 127
2, 44219, Note_on_c, 0, 82, 0
2, 44219, Note_on_c, 0, 86, 0
2, 44400, Note_on_c, 0, 83, 127
2, 44400, Note_on_c, 0, 80, 127
2, 44459, Note_on_c, 0, 80, 0
2, 44459, Note_on_c, 0, 83, 0
2, 44520, Note_on_c, 0, 84, 127
2, 44520, Note_on_c, 0, 79, 127
2, 44579, Note_on_c, 0, 79, 0
2, 44579, Note_on_c, 0, 84, 0
2, 44760, Note_on_c, 0, 84, 127
2, 44760, Note_on_c, 0, 82, 127
2, 44819, Note_on_c, 0, 82, 0
2, 44819, Note_on_c, 0, 84, 0
2, 44880, Note_on_c, 0, 81, 127
2, 44880, Note_on_c, 0, 84, 127
2, 44939, Note_on_c, 0, 84, 0
2, 44939, Note_on_c, 0, 81, 0
2, 45120, Note_on_c, 0, 86, 127
2, 45120, Note_on_c, 0, 84, 127
2, 45179, Note_on_c, 0, 84, 0
2, 45179, Note_on_c, 0, 86, 0
2, 45240, Note_on_c, 0, 82, 127
2, 45240, Note_on_c, 0, 86, 127
2, 45299, Note_on_c, 0, 86, 0
2, 45299, Note_on_c, 0, 82, 0
2, 45480, Note_on_c, 0, 83, 127
2, 45480, Note_on_c, 0, 80, 127
2, 45539, Note_on_c, 0, 80, 0
2, 45539, Note_on_c, 0, 83, 0
2, 45600, Note_on_c, 0, 79, 127
2, 45600, Note_on_c, 0, 84, 127
2, 45659, Note_on_c, 0, 84, 0
2, 45659, Note_on_c, 0, 79, 0
2, 45840, Note_on_c, 0, 84, 127
2, 45840, Note_on_c, 0, 82, 127
2, 45899, Note_on_c, 0, 82, 0
2, 45899, Note_on_c, 0, 84, 0
2, 46080, Note_on_c, 0, 82, 127
2, 46080, Note_on_c, 0, 84, 127
2, 46139, Note_on_c, 0, 84, 0
2, 46139, Note_on_c, 0, 82, 0
2, 46320, Note_on_c, 0, 84, 127
2, 46320, Note_on_c, 0, 82, 127
2, 46379, Note_on_c, 0, 82, 0
2, 46379, Note_on_c, 0, 84, 0
2, 46560, Note_on_c, 0, 82, 127
2, 46560, Note_on_c, 0, 84, 127
2, 46619, Note_on_c, 0, 84, 0
2, 46619, Note_on_c, 0, 82, 0
2, 46800, Note_on_c, 0, 84, 127
2, 46800, Note_on_c, 0, 82, 127
2, 46859, Note_on_c, 0, 82, 0
2, 46859, Note_on_c, 0, 84, 0
2, 47040, Note_on_c, 0, 82, 127
2, 47040, Note_on_c, 0, 84, 127
2, 47099, Note_on_c, 0, 84, 0
2, 47099, Note_on_c, 0, 82, 0
2, 47520, Note_on_c, 0, 82, 96
2, 47549, Note_on_c, 0, 82, 0
2, 47550, Note_on_c, 0, 82, 48
2, 47640, Note_on_c, 0, 85, 48
2, 47649, Note_on_c, 0, 82, 0
2, 47760, Note_on_c, 0, 88, 48
2, 47769, Note_on_c, 0, 85, 0
2, 47880, Note_on_c, 0, 89, 48
2, 47889, Note_on_c, 0, 88, 0
2, 48239, Note_on_c, 0, 89, 0
2, 48240, Note_on_c, 0, 82, 96
2, 48269, Note_on_c, 0, 82, 0
2, 48270, Note_on_c, 0, 82, 48
2, 48360, Note_on_c, 0, 85, 48
2, 48369, Note_on_c, 0, 82, 0
2, 48480, Note_on_c, 0, 88, 48
2, 48489, Note_on_c, 0, 85, 0
2, 48720, Note_on_c, 0, 87, 48
2, 48729, Note_on_c, 0, 88, 0
2, 48840, Note_on_c, 0, 85, 48
2, 48849, Note_on_c, 0, 87, 0
2, 49080, Note_on_c, 0, 83, 48
2, 49089, Note_on_c, 0, 85, 0
2, 49200, Note_on_c, 0, 84, 48
2, 49209, Note_on_c, 0, 83, 0
2, 49440, Note_on_c, 0, 77, 48
2, 49449, Note_on_c, 0, 84, 0
2, 49560, Note_on_c, 0, 87, 48
2, 49569, Note_on_c, 0, 77, 0
2, 49800, Note_on_c, 0, 85, 48
2, 49809, Note_on_c, 0, 87, 0
2, 49920, Note_on_c, 0, 86, 48
2, 49929, Note_on_c, 0, 85, 0
2, 50100, Note_on_c, 0, 78, 52
2, 50109, Note_on_c, 0, 86, 0
2, 50160, Note_on_c, 0, 79, 55
2, 50169, Note_on_c, 0, 78, 0
2, 50220, Note_on_c, 0, 83, 58
2, 50229, Note_on_c, 0, 79, 0
2, 50280, Note_on_c, 0, 84, 65
2, 50289, Note_on_c, 0, 83, 0
2, 50340, Note_on_c, 0, 86, 69
2, 50349, Note_on_c, 0, 84, 0
2, 50400, Note_on_c, 0, 87, 72
2, 50409, Note_on_c, 0, 86, 0
2, 50460, Note_on_c, 0, 90, 75
2, 50469, Note_on_c, 0, 87, 0
2, 50520, Note_on_c, 0, 91, 79
2, 50529, Note_on_c, 0, 90, 0
2, 50580, Note_on_c, 0, 87, 81
2, 50589, Note_on_c, 0, 91, 0
2, 50640, Note_on_c, 0, 86, 83
2, 50649, Note_on_c, 0, 87, 0
2, 50700, Note_on_c, 0, 84, 88
2, 50709, Note_on_c, 0, 86, 0
2, 50759, Note_on_c, 0, 84, 0
2, 50760, Note_on_c, 0, 82, 91
2, 50819, Note_on_c, 0, 82, 0
2, 50820, Note_on_c, 0, 86, 93
2, 50879, Note_on_c, 0, 86, 0
2, 50880, Note_on_c, 0, 89, 97
2, 50939, Note_on_c, 0, 89, 0
2, 50940, Note_on_c, 0, 89, 101
2, 50999, Note_on_c, 0, 89, 0
2, 51000, Note_on_c, 0, 89, 105
2, 51059, Note_on_c, 0, 89, 0
2, 51060, Note_on_c, 0, 89, 109
2, 51119, Note_on_c, 0, 89, 0
2, 51120, Note_on_c, 0, 87, 127
2, 51120, Note_on_c, 0, 89, 127
2, 51359, Note_on_c, 0, 87, 0
2, 51360, Note_on_c, 0, 81, 127
2, 51479, Note_on_c, 0, 81, 0
2, 51479, Note_on_c, 0, 89, 0
2, 51480, Note_on_c, 0, 82, 96
2, 51539, Note_on_c, 0, 82, 0
2, 51840, Note_on_c, 0, 82, 96
2, 51899, Note_on_c, 0, 82, 0
2, 52200, Note_on_c, 0, 82, 96
2, 52259, Note_on_c, 0, 82, 0
2, 52560, Note_on_c, 0, 87, 96
2, 52560, Note_on_c, 0, 82, 96
2, 52619, Note_on_c, 0, 82, 0
2, 52619, Note_on_c, 0, 87, 0
2, 52680, Note_on_c, 0, 82, 96
2, 52680, Note_on_c, 0, 87, 96
2, 52739, Note_on_c, 0, 87, 0
2, 52739, Note_on_c, 0, 82, 0
2, 52800, Note_on_c, 0, 87, 96
2, 52800, Note_on_c, 0, 82, 96
2, 52859, Note_on_c, 0, 82, 0
2, 52859, Note_on_c, 0, 87, 0
2, 52920, Note_on_c, 0, 82, 96
2, 52920, Note_on_c, 0, 86, 96
2, 52979, Note_on_c, 0, 86, 0
2, 52979, Note_on_c, 0, 82, 0
2, 54960, Note_on_c, 0, 80, 96
2, 54960, Note_on_c, 0, 74, 96
2, 54989, Note_on_c, 0, 74, 0
2, 54989, Note_on_c, 0, 80, 0
2, 54990, Note_on_c, 0, 74, 48
2, 54990, Note_on_c, 0, 80, 48
2, 55080, Note_on_c, 0, 79, 48
2, 55080, Note_on_c, 0, 75, 48
2, 55089, Note_on_c, 0, 80, 0
2, 55089, Note_on_c, 0, 74, 0
2, 55199, Note_on_c, 0, 79, 0
2, 55199, Note_on_c, 0, 75, 0
2, 58920, Note_on_c, 0, 82, 48
2, 59160, Note_on_c, 0, 84, 48
2, 59169, Note_on_c, 0, 82, 0
2, 59280, Note_on_c, 0, 86, 56
2, 59289, Note_on_c, 0, 84, 0
2, 59399, Note_on_c, 0, 86, 0
2, 59400, Note_on_c, 0, 87, 48
2, 59640, Note_on_c, 0, 91, 48
2, 59649, Note_on_c, 0, 87, 0
2, 59760, Note_on_c, 0, 87, 48
2, 59769, Note_on_c, 0, 91, 0
2, 60000, Note_on_c, 0, 82, 48
2, 60009, Note_on_c, 0, 87, 0
2, 60120, Note_on_c, 0, 87, 48
2, 60129, Note_on_c, 0, 82, 0
2, 60239, Note_on_c, 0, 87, 0
2, 61440, Note_on_c, 0, 79, 48
2, 61560, Note_on_c, 0, 80, 48
2, 61569, Note_on_c, 0, 79, 0
2, 61680, Note_on_c, 0, 84, 48
2, 61689, Note_on_c, 0, 80, 0
2, 61800, Note_on_c, 0, 75, 48
2, 61800, Note_on_c, 0, 87, 48
2, 61809, Note_on_c, 0, 84, 0
2, 61919, Note_on_c, 0, 75, 0
2, 61920, Note_on_c, 0, 80, 48
2, 61929, Note_on_c, 0, 87, 0
2, 62040, Note_on_c, 0, 75, 48
2, 62159, Note_on_c, 0, 75, 0
2, 62160, Note_on_c, 0, 81, 64
2, 62160, Note_on_c, 0, 75, 64
2, 62169, Note_on_c, 0, 80, 0
2, 62279, Note_on_c, 0, 75, 0
2, 62280, Note_on_c, 0, 74, 96
2, 62280, Note_on_c, 0, 82, 96
2, 62289, Note_on_c, 0, 81, 0
2, 62309, Note_on_c, 0, 82, 0
2, 62309, Note_on_c, 0, 74, 0
2, 62310, Note_on_c, 0, 82, 48
2, 62310, Note_on_c, 0, 74, 48
2, 62879, Note_on_c, 0, 74, 0
2, 62879, Note_on_c, 0, 82, 0
2, 62880, Note_on_c, 0, 80, 48
2, 62880, Note_on_c, 0, 86, 48
2, 62999, Note_on_c, 0, 86, 0
2, 62999, Note_on_c, 0, 80, 0
2, 63000, Note_on_c, 0, 87, 48
2, 63000, Note_on_c, 0, 79, 48
2, 63059, Note_on_c, 0, 79, 0
2, 63059, Note_on_c, 0, 87, 0
2, 63120, Note_on_c, 0, 87, 96
2, 63120, Note_on_c, 0, 81, 96
2, 63359, Note_on_c, 0, 81, 0
2, 63359, Note_on_c, 0, 87, 0
2, 63360, Note_on_c, 0, 87, 96
2, 63360, Note_on_c, 0, 81, 96
2, 63599, Note_on_c, 0, 81, 0
2, 63599, Note_on_c, 0, 87, 0
2, 63600, Note_on_c, 0, 87, 96
2, 63600, Note_on_c, 0, 81, 96
2, 63719, Note_on_c, 0, 81, 0
2, 63719, Note_on_c, 0, 87, 0
2, 63720, Note_on_c, 0, 86, 96
2, 63720, Note_on_c, 0, 82, 96
2, 63749, Note_on_c, 0, 82, 0
2, 63749, Note_on_c, 0, 86, 0
2, 63750, Note_on_c, 0, 82, 48
2, 63750, Note_on_c, 0, 86, 48
2, 64319, Note_on_c, 0, 86, 0
2, 64319, Note_on_c, 0, 82, 0
2, 64320, Note_on_c, 0, 82, 96
2, 64559, Note_on_c, 0, 82, 0
2, 64560, Note_on_c, 0, 86, 96
2, 64560, Note_on_c, 0, 82, 96
2, 64799, Note_on_c, 0, 82, 0
2, 64799, Note_on_c, 0, 86, 0
2, 64800, Note_on_c, 0, 86, 96
2, 64800, Note_on_c, 0, 82, 96
2, 65039, Note_on_c, 0, 82, 0
2, 65039, Note_on_c, 0, 86, 0
2, 65040, Note_on_c, 0, 86, 96
2, 65040, Note_on_c, 0, 82, 96
2, 65279, Note_on_c, 0, 82, 0
2, 65279, Note_on_c, 0, 86, 0
2, 65280, Note_on_c, 0, 82, 96
2, 65280, Note_on_c, 0, 87, 96
2, 65519, Note_on_c, 0, 87, 0
2, 65519, Note_on_c, 0, 82, 0
2, 65520, Note_on_c, 0, 82, 96
2, 65520, Note_on_c, 0, 87, 96
2, 65759, Note_on_c, 0, 87, 0
2, 65759, Note_on_c, 0, 82, 0
2, 65760, Note_on_c, 0, 82, 96
2, 65760, Note_on_c, 0, 87, 96
2, 65999, Note_on_c, 0, 87, 0
2, 65999, Note_on_c, 0, 82, 0
2, 66000, Note_on_c, 0, 86, 90
2, 66000, Note_on_c, 0, 82, 90
2, 66059, Note_on_c, 0, 82, 0
2, 66059, Note_on_c, 0, 86, 0
2, 66120, Note_on_c, 0, 86, 96
2, 66120, Note_on_c, 0, 82, 96
2, 66359, Note_on_c, 0, 82, 0
2, 66359, Note_on_c, 0, 86, 0
2, 66360, Note_on_c, 0, 86, 90
2, 66360, Note_on_c, 0, 82, 90
2, 66419, Note_on_c, 0, 82, 0
2, 66419, Note_on_c, 0, 86, 0
2, 66480, Note_on_c, 0, 82, 96
2, 66480, Note_on_c, 0, 87, 96
2, 66600, Note_on_c, 0, 86, 96
2, 66609, Note_on_c, 0, 87, 0
2, 66719, Note_on_c, 0, 86, 0
2, 66719, Note_on_c, 0, 82, 0
2, 66720, Note_on_c, 0, 70, 96
2, 66749, Note_on_c, 0, 70, 0
2, 66780, Note_on_c, 0, 72, 99
2, 66809, Note_on_c, 0, 72, 0
2, 66840, Note_on_c, 0, 74, 102
2, 66869, Note_on_c, 0, 74, 0
2, 66900, Note_on_c, 0, 75, 105
2, 66929, Note_on_c, 0, 75, 0
2, 66960, Note_on_c, 0, 77, 108
2, 66989, Note_on_c, 0, 77, 0
2, 67020, Note_on_c, 0, 79, 111
2, 67049, Note_on_c, 0, 79, 0
2, 67080, Note_on_c, 0, 80, 114
2, 67109, Note_on_c, 0, 80, 0
2, 67140, Note_on_c, 0, 82, 117
2, 67169, Note_on_c, 0, 82, 0
2, 67200, Note_on_c, 0, 84, 120
2, 67229, Note_on_c, 0, 84, 0
2, 67260, Note_on_c, 0, 86, 123
2, 67289, Note_on_c, 0, 86, 0
2, 67320, Note_on_c, 0, 87, 127
2, 67560, Note_on_c, 0, 79, 127
2, 67560, Note_on_c, 0, 91, 127
2, 67569, Note_on_c, 0, 87, 0
2, 67680, Note_on_c, 0, 87, 127
2, 67680, Note_on_c, 0, 75, 127
2, 67689, Note_on_c, 0, 91, 0
2, 67689, Note_on_c, 0, 79, 0
2, 67920, Note_on_c, 0, 70, 127
2, 67920, Note_on_c, 0, 82, 127
2, 67929, Note_on_c, 0, 87, 0
2, 67929, Note_on_c, 0, 75, 0
2, 68040, Note_on_c, 0, 87, 127
2, 68040, Note_on_c, 0, 75, 127
2, 68049, Note_on_c, 0, 70, 0
2, 68049, Note_on_c, 0, 82, 0
2, 68159, Note_on_c, 0, 87, 0
2, 68160, Note_on_c, 0, 87, 127
2, 68160, Note_on_c, 0, 91, 127
2, 68169, Note_on_c, 0, 75, 0
2, 68279, Note_on_c, 0, 91, 0
2, 68279, Note_on_c, 0, 87, 0
2, 68280, Note_on_c, 0, 87, 127
2, 68280, Note_on_c, 0, 91, 127
2, 68399, Note_on_c, 0, 91, 0
2, 68399, Note_on_c, 0, 87, 0
2, 68400, Note_on_c, 0, 91, 127
2, 68400, Note_on_c, 0, 87, 127
2, 68879, Note_on_c, 0, 87, 0
2, 68879, Note_on_c, 0, 91, 0
2, 68880, Note_on_c, 0, 91, 127
2, 68880, Note_on_c, 0, 87, 127
2, 68999, Note_on_c, 0, 87, 0
2, 68999, Note_on_c, 0, 91, 0
2, 69000, Note_on_c, 0, 87, 127
2, 69000, Note_on_c, 0, 91, 127
2, 69119, Note_on_c, 0, 91, 0
2, 69119, Note_on_c, 0, 87, 0
2, 69120, Note_on_c, 0, 91, 127
2, 69120, Note_on_c, 0, 87, 127
2, 69359, Note_on_c, 0, 87, 0
2, 69359, Note_on_c, 0, 91, 0
2, 69360, Note_on_c, 0, 91, 127
2, 69360, Note_on_c, 0, 85, 127
2, 69479, Note_on_c, 0, 85, 0
2, 69479, Note_on_c, 0, 91, 0
2, 69480, Note_on_c, 0, 92, 127
2, 69480, Note_on_c, 0, 84, 127
2, 69600, Note_on_c, 0, 87, 127
2, 69609, Note_on_c, 0, 92, 0
2, 69719, Note_on_c, 0, 87, 0
2, 69720, Note_on_c, 0, 87, 127
2, 69839, Note_on_c, 0, 87, 0
2, 69840, Note_on_c, 0, 88, 127
2, 69900, Note_on_c, 0, 82, 127
2, 69909, Note_on_c, 0, 84, 0
2, 69960, Note_on_c, 0, 81, 127
2, 69969, Note_on_c, 0, 82, 0
2, 70020, Note_on_c, 0, 82, 127
2, 70029, Note_on_c, 0, 81, 0
2, 70080, Note_on_c, 0, 84, 127
2, 70089, Note_on_c, 0, 82, 0
2, 70140, Note_on_c, 0, 82, 127
2, 70149, Note_on_c, 0, 84, 0
2, 70200, Note_on_c, 0, 81, 127
2, 70200, Note_on_c, 0, 89, 127
2, 70209, Note_on_c, 0, 82, 0
2, 70209, Note_on_c, 0, 88, 0
2, 70319, Note_on_c, 0, 81, 0
2, 70319, Note_on_c, 0, 89, 0
2, 71040, Note_on_c, 0, 87, 48
2, 71220, Note_on_c, 0, 84, 48
2, 71229, Note_on_c, 0, 87, 0
2, 71280, Note_on_c, 0, 81, 48
2, 71289, Note_on_c, 0, 84, 0
2, 71399, Note_on_c, 0, 81, 0
2, 72480, Note_on_c, 0, 86, 48
2, 72660, Note_on_c, 0, 82, 48
2, 72669, Note_on_c, 0, 86, 0
2, 72720, Note_on_c, 0, 77, 48
2, 72729, Note_on_c, 0, 82, 0
2, 72839, Note_on_c, 0, 77, 0
2, 73920, Note_on_c, 0, 91, 127
2, 73920, Note_on_c, 0, 79, 127
2, 74099, Note_on_c, 0, 79, 0
2, 74099, Note_on_c, 0, 91, 0
2, 74100, Note_on_c, 0, 77, 127
2, 74100, Note_on_c, 0, 89, 127
2, 74159, Note_on_c, 0, 89, 0
2, 74159, Note_on_c, 0, 77, 0
2, 74160, Note_on_c, 0, 87, 127
2, 74160, Note_on_c, 0, 75, 127
2, 74219, Note_on_c, 0, 75, 0
2, 74219, Note_on_c, 0, 87, 0
2, 74280, Note_on_c, 0, 86, 127
2, 74280, Note_on_c, 0, 74, 127
2, 74339, Note_on_c, 0, 74, 0
2, 74339, Note_on_c, 0, 86, 0
2, 74400, Note_on_c, 0, 84, 127
2, 74400, Note_on_c, 0, 72, 127
2, 74459, Note_on_c, 0, 72, 0
2, 74459, Note_on_c, 0, 84, 0
2, 74520, Note_on_c, 0, 82, 48
2, 74520, Note_on_c, 0, 70, 48
2, 74639, Note_on_c, 0, 70, 0
2, 74639, Note_on_c, 0, 82, 0
2, 75960, Note_on_c, 0, 70, 48
2, 75960, Note_on_c, 0, 82, 48
2, 76739, Note_on_c, 0, 82, 0
2, 76739, Note_on_c, 0, 70, 0
2, 76740, Note_on_c, 0, 82, 74
2, 76740, Note_on_c, 0, 74, 74
2, 76769, Note_on_c, 0, 74, 0
2, 76769, Note_on_c, 0, 82, 0
2, 76800, Note_on_c, 0, 72, 76
2, 76800, Note_on_c, 0, 81, 76
2, 76829, Note_on_c, 0, 81, 0
2, 76829, Note_on_c, 0, 72, 0
2, 76860, Note_on_c, 0, 82, 78
2, 76860, Note_on_c, 0, 74, 78
2, 76889, Note_on_c, 0, 74, 0
2, 76889, Note_on_c, 0, 82, 0
2, 76920, Note_on_c, 0, 81, 80
2, 76920, Note_on_c, 0, 84, 80
2, 76949, Note_on_c, 0, 84, 0
2, 76949, Note_on_c, 0, 81, 0
2, 76980, Note_on_c, 0, 82, 82
2, 76980, Note_on_c, 0, 86, 82
2, 77009, Note_on_c, 0, 86, 0
2, 77009, Note_on_c, 0, 82, 0
2, 77040, Note_on_c, 0, 87, 84
2, 77040, Note_on_c, 0, 84, 84
2, 77069, Note_on_c, 0, 84, 0
2, 77069, Note_on_c, 0, 87, 0
2, 77100, Note_on_c, 0, 87, 86
2, 77100, Note_on_c, 0, 84, 86
2, 77129, Note_on_c, 0, 84, 0
2, 77129, Note_on_c, 0, 87, 0
2, 77160, Note_on_c, 0, 87, 88
2, 77160, Note_on_c, 0, 84, 88
2, 77189, Note_on_c, 0, 84, 0
2, 77189, Note_on_c, 0, 87, 0
2, 77220, Note_on_c, 0, 87, 90
2, 77220, Note_on_c, 0, 84, 90
2, 77249, Note_on_c, 0, 84, 0
2, 77249, Note_on_c, 0, 87, 0
2, 77280, Note_on_c, 0, 87, 92
2, 77280, Note_on_c, 0, 84, 92
2, 77309, Note_on_c, 0, 84, 0
2, 77309, Note_on_c, 0, 87, 0
2, 77340, Note_on_c, 0, 87, 94
2, 77340, Note_on_c, 0, 84, 94
2, 77369, Note_on_c, 0, 84, 0
2, 77369, Note_on_c, 0, 87, 0
2, 77400, Note_on_c, 0, 84, 96
2, 77400, Note_on_c, 0, 87, 96
2, 77459, Note_on_c, 0, 87, 0
2, 77459, Note_on_c, 0, 84, 0
2, 77520, Note_on_c, 0, 84, 96
2, 77520, Note_on_c, 0, 87, 96
2, 77579, Note_on_c, 0, 87, 0
2, 77579, Note_on_c, 0, 84, 0
2, 78060, Note_on_c, 0, 87, 96
2, 78060, Note_on_c, 0, 81, 96
2, 78089, Note_on_c, 0, 81, 0
2, 78089, Note_on_c, 0, 87, 0
2, 78120, Note_on_c, 0, 82, 96
2, 78120, Note_on_c, 0, 86, 96
2, 78179, Note_on_c, 0, 86, 0
2, 78179, Note_on_c, 0, 82, 0
2, 78240, Note_on_c, 0, 86, 96
2, 78240, Note_on_c, 0, 82, 96
2, 78299, Note_on_c, 0, 82, 0
2, 78299, Note_on_c, 0, 86, 0
2, 78780, Note_on_c, 0, 82, 96
2, 78780, Note_on_c, 0, 86, 96
2, 78809, Note_on_c, 0, 86, 0
2, 78809, Note_on_c, 0, 82, 0
2, 78840, Note_on_c, 0, 86, 96
2, 78840, Note_on_c, 0, 83, 96
2, 78899, Note_on_c, 0, 83, 0
2, 78899, Note_on_c, 0, 86, 0
2, 78960, Note_on_c, 0, 83, 96
2, 78960, Note_on_c, 0, 86, 96
2, 79019, Note_on_c, 0, 86, 0
2, 79019, Note_on_c, 0, 83, 0
2, 79500, Note_on_c, 0, 83, 96
2, 79500, Note_on_c, 0, 74, 96
2, 79529, Note_on_c, 0, 74, 0
2, 79529, Note_on_c, 0, 83, 0
2, 79560, Note_on_c, 0, 79, 96
2, 79560, Note_on_c, 0, 84, 96
2, 79589, Note_on_c, 0, 84, 0
2, 79589, Note_on_c, 0, 79, 0
2, 79620, Note_on_c, 0, 84, 96
2, 79620, Note_on_c, 0, 79, 96
2, 79739, Note_on_c, 0, 79, 0
2, 79739, Note_on_c, 0, 84, 0
2, 79740, Note_on_c, 0, 79, 96
2, 79740, Note_on_c, 0, 84, 96
2, 79769, Note_on_c, 0, 84, 0
2, 79769, Note_on_c, 0, 79, 0
2, 79800, Note_on_c, 0, 84, 96
2, 79800, Note_on_c, 0, 81, 96
2, 79829, Note_on_c, 0, 81, 0
2, 79829, Note_on_c, 0, 84, 0
2, 79860, Note_on_c, 0, 81, 96
2, 79860, Note_on_c, 0, 86, 96
2, 79889, Note_on_c, 0, 86, 0
2, 79889, Note_on_c, 0, 81, 0
2, 79920, Note_on_c, 0, 86, 96
2, 79920, Note_on_c, 0, 82, 96
2, 79949, Note_on_c, 0, 82, 0
2, 79949, Note_on_c, 0, 86, 0
2, 79980, Note_on_c, 0, 82, 96
2, 79980, Note_on_c, 0, 87, 96
2, 80099, Note_on_c, 0, 87, 0
2, 80099, Note_on_c, 0, 82, 0
2, 80100, Note_on_c, 0, 87, 96
2, 80100, Note_on_c, 0, 82, 96
2, 80129, Note_on_c, 0, 82, 0
2, 80129, Note_on_c, 0, 87, 0
2, 80160, Note_on_c, 0, 84, 96
2, 80160, Note_on_c, 0, 87, 96
2, 80189, Note_on_c, 0, 87, 0
2, 80189, Note_on_c, 0, 84, 0
2, 80220, Note_on_c, 0, 89, 96
2, 80220, Note_on_c, 0, 84, 96
2, 80249, Note_on_c, 0, 84, 0
2, 80249, Note_on_c, 0, 89, 0
2, 80280, Note_on_c, 0, 86, 96
2, 80280, Note_on_c, 0, 82, 96
2, 80399, Note_on_c, 0, 82, 0
2, 80399, Note_on_c, 0, 86, 0
2, 80400, Note_on_c, 0, 82, 96
2, 80400, Note_on_c, 0, 86, 96
2, 80519, Note_on_c, 0, 82, 0
2, 80520, Note_on_c, 0, 82, 96
2, 80520, Note_on_c, 0, 87, 96
2, 80529, Note_on_c, 0, 86, 0
2, 80639, Note_on_c, 0, 82, 0
2, 80640, Note_on_c, 0, 82, 96
2, 80640, Note_on_c, 0, 88, 96
2, 80649, Note_on_c, 0, 87, 0
2, 80759, Note_on_c, 0, 82, 0
2, 80760, Note_on_c, 0, 82, 96
2, 80760, Note_on_c, 0, 89, 96
2, 80769, Note_on_c, 0, 88, 0
2, 80880, Note_on_c, 0, 91, 96
2, 80889, Note_on_c, 0, 89, 0
2, 80940, Note_on_c, 0, 90, 96
2, 80949, Note_on_c, 0, 91, 0
2, 81000, Note_on_c, 0, 91, 96
2, 81009, Note_on_c, 0, 90, 0
2, 81060, Note_on_c, 0, 90, 96
2, 81069, Note_on_c, 0, 91, 0
2, 81120, Note_on_c, 0, 83, 96
2, 81120, Note_on_c, 0, 91, 96
2, 81129, Note_on_c, 0, 90, 0
2, 81129, Note_on_c, 0, 82, 0
2, 81180, Note_on_c, 0, 86, 96
2, 81189, Note_on_c, 0, 91, 0
2, 81239, Note_on_c, 0, 86, 0
2, 81239, Note_on_c, 0, 83, 0
2, 81240, Note_on_c, 0, 84, 96
2, 81240, Note_on_c, 0, 87, 96
2, 81300, Note_on_c, 0, 86, 96
2, 81300, Note_on_c, 0, 79, 96
2, 81309, Note_on_c, 0, 87, 0
2, 81309, Note_on_c, 0, 84, 0
2, 81359, Note_on_c, 0, 79, 0
2, 81360, Note_on_c, 0, 79, 96
2, 81360, Note_on_c, 0, 89, 96
2, 81369, Note_on_c, 0, 86, 0
2, 81419, Note_on_c, 0, 79, 0
2, 81420, Note_on_c, 0, 87, 96
2, 81420, Note_on_c, 0, 79, 96
2, 81429, Note_on_c, 0, 89, 0
2, 81479, Note_on_c, 0, 79, 0
2, 81480, Note_on_c, 0, 77, 96
2, 81480, Note_on_c, 0, 86, 96
2, 81489, Note_on_c, 0, 87, 0
2, 81540, Note_on_c, 0, 84, 96
2, 81540, Note_on_c, 0, 75, 96
2, 81549, Note_on_c, 0, 86, 0
2, 81549, Note_on_c, 0, 77, 0
2, 81600, Note_on_c, 0, 82, 96
2, 81600, Note_on_c, 0, 74, 96
2, 81609, Note_on_c, 0, 84, 0
2, 81609, Note_on_c, 0, 75, 0
2, 81719, Note_on_c, 0, 82, 0
2, 81719, Note_on_c, 0, 74, 0
2, 82440, Note_on_c, 0, 89, 96
2, 83219, Note_on_c, 0, 89, 0
2, 83220, Note_on_c, 0, 88, 127
2, 83249, Note_on_c, 0, 88, 0
2, 83280, Note_on_c, 0, 87, 127
2, 83309, Note_on_c, 0, 87, 0
2, 83340, Note_on_c, 0, 86, 127
2, 83369, Note_on_c, 0, 86, 0
2, 83400, Note_on_c, 0, 84, 127
2, 83429, Note_on_c, 0, 84, 0
2, 83460, Note_on_c, 0, 82, 127
2, 83489, Note_on_c, 0, 82, 0
2, 83520, Note_on_c, 0, 81, 127
2, 83549, Note_on_c, 0, 81, 0
2, 83580, Note_on_c, 0, 91, 127
2, 83580, Note_on_c, 0, 79, 127
2, 83609, Note_on_c, 0, 79, 0
2, 83609, Note_on_c, 0, 91, 0
2, 83640, Note_on_c, 0, 89, 127
2, 83640, Note_on_c, 0, 77, 127
2, 83669, Note_on_c, 0, 77, 0
2, 83669, Note_on_c, 0, 89, 0
2, 83700, Note_on_c, 0, 75, 127
2, 83700, Note_on_c, 0, 87, 127
2, 83729, Note_on_c, 0, 87, 0
2, 83729, Note_on_c, 0, 75, 0
2, 83760, Note_on_c, 0, 86, 127
2, 83760, Note_on_c, 0, 74, 127
2, 83789, Note_on_c, 0, 74, 0
2, 83789, Note_on_c, 0, 86, 0
2, 83820, Note_on_c, 0, 84, 127
2, 83820, Note_on_c, 0, 72, 127
2, 83849, Note_on_c, 0, 72, 0
2, 83849, Note_on_c, 0, 84, 0
2, 83880, Note_on_c, 0, 82, 127
2, 83880, Note_on_c, 0, 70, 127
2, 83999, Note_on_c, 0, 70, 0
2, 83999, Note_on_c, 0, 82, 0
2, 84720, Note_on_c, 0, 86, 88
2, 84809, Note_on_c, 0, 86, 0
2, 84840, Note_on_c, 0, 86, 96
2, 84929, Note_on_c, 0, 86, 0
2, 84960, Note_on_c, 0, 86, 88
2, 85200, Note_on_c, 0, 84, 64
2, 85209, Note_on_c, 0, 86, 0
2, 85319, Note_on_c, 0, 84, 0
2, 86640, Note_on_c, 0, 89, 96
2, 86880, Note_on_c, 0, 87, 96
2, 86889, Note_on_c, 0, 89, 0
2, 86940, Note_on_c, 0, 86, 88
2, 86949, Note_on_c, 0, 87, 0
2, 87000, Note_on_c, 0, 84, 80
2, 87009, Note_on_c, 0, 86, 0
2, 87060, Note_on_c, 0, 82, 72
2, 87069, Note_on_c, 0, 84, 0
2, 87119, Note_on_c, 0, 82, 0
2, 89400, Note_on_c, 0, 84, 56
2, 89400, Note_on_c, 0, 82, 56
2, 89489, Note_on_c, 0, 82, 0
2, 89489, Note_on_c, 0, 84, 0
2, 89520, Note_on_c, 0, 84, 56
2, 89520, Note_on_c, 0, 82, 56
2, 89609, Note_on_c, 0, 82, 0
2, 89609, Note_on_c, 0, 84, 0
2, 89640, Note_on_c, 0, 84, 48
2, 89640, Note_on_c, 0, 81, 48
2, 89759, Note_on_c, 0, 81, 0
2, 89759, Note_on_c, 0, 84, 0
2, 92760, Note_on_c, 0, 75, 75
2, 92760, Note_on_c, 0, 72, 75
2, 92789, Note_on_c, 0, 72, 0
2, 92789, Note_on_c, 0, 75, 0
2, 92820, Note_on_c, 0, 77, 78
2, 92820, Note_on_c, 0, 74, 78
2, 92849, Note_on_c, 0, 74, 0
2, 92849, Note_on_c, 0, 77, 0
2, 92880, Note_on_c, 0, 79, 80
2, 92880, Note_on_c, 0, 75, 80
2, 92909, Note_on_c, 0, 75, 0
2, 92909, Note_on_c, 0, 79, 0
2, 92940, Note_on_c, 0, 81, 83
2, 92940, Note_on_c, 0, 77, 83
2, 92969, Note_on_c, 0, 77, 0
2, 92969, Note_on_c, 0, 81, 0
2, 93000, Note_on_c, 0, 82, 86
2, 93000, Note_on_c, 0, 79, 86
2, 93029, Note_on_c, 0, 79, 0
2, 93029, Note_on_c, 0, 82, 0
2, 93060, Note_on_c, 0, 84, 89
2, 93060, Note_on_c, 0, 81, 89
2, 93089, Note_on_c, 0, 81, 0
2, 93089, Note_on_c, 0, 84, 0
2, 93120, Note_on_c, 0, 86, 92
2, 93120, Note_on_c, 0, 82, 92
2, 93149, Note_on_c, 0, 82, 0
2, 93149, Note_on_c, 0, 86, 0
2, 93180, Note_on_c, 0, 87, 94
2, 93180, Note_on_c, 0, 84, 94
2, 93209, Note_on_c, 0, 84, 0
2, 93209, Note_on_c, 0, 87, 0
2, 93240, Note_on_c, 0, 89, 96
2, 93240, Note_on_c, 0, 86, 96
2, 93359, Note_on_c, 0, 86, 0
2, 93359, Note_on_c, 0, 89, 0
2, 93360, Note_on_c, 0, 86, 112
2, 93360, Note_on_c, 0, 89, 112
2, 93599, Note_on_c, 0, 89, 0
2, 93599, Note_on_c, 0, 86, 0
2, 93720, Note_on_c, 0, 89, 112
2, 93720, Note_on_c, 0, 86, 112
2, 93959, Note_on_c, 0, 86, 0
2, 93959, Note_on_c, 0, 89, 0
2, 94080, Note_on_c, 0, 89, 112
2, 94080, Note_on_c, 0, 87, 112
2, 94319, Note_on_c, 0, 87, 0
2, 94319, Note_on_c, 0, 89, 0
2, 94440, Note_on_c, 0, 89, 112
2, 94440, Note_on_c, 0, 81, 112
2, 94559, Note_on_c, 0, 81, 0
2, 94559, Note_on_c, 0, 89, 0
2, 94560, Note_on_c, 0, 84, 96
2, 94560, Note_on_c, 0, 89, 96
2, 94679, Note_on_c, 0, 89, 0
2, 94679, Note_on_c, 0, 84, 0
2, 94680, Note_on_c, 0, 89, 127
2, 94680, Note_on_c, 0, 86, 127
2, 94739, Note_on_c, 0, 86, 0
2, 94739, Note_on_c, 0, 89, 0
2, 94800, Note_on_c, 0, 89, 127
2, 94979, Note_on_c, 0, 89, 0
2, 94980, Note_on_c, 0, 86, 127
2, 95039, Note_on_c, 0, 86, 0
2, 95040, Note_on_c, 0, 82, 127
2, 95099, Note_on_c, 0, 82, 0
2, 95160, Note_on_c, 0, 86, 127
2, 95339, Note_on_c, 0, 86, 0
2, 95340, Note_on_c, 0, 77, 127
2, 95399, Note_on_c, 0, 77, 0
2, 95400, Note_on_c, 0, 84, 127
2, 95459, Note_on_c, 0, 84, 0
2, 95520, Note_on_c, 0, 87, 127
2, 95699, Note_on_c, 0, 87, 0
2, 95700, Note_on_c, 0, 77, 127
2, 95759, Note_on_c, 0, 77, 0
2, 95760, Note_on_c, 0, 81, 127
2, 95819, Note_on_c, 0, 81, 0
2, 95880, Note_on_c, 0, 84, 127
2, 96059, Note_on_c, 0, 84, 0
2, 96060, Note_on_c, 0, 81, 127
2, 96119, Note_on_c, 0, 81, 0
2, 96120, Note_on_c, 0, 89, 127
2, 96120, Note_on_c, 0, 82, 127
2, 96420, Note_on_c, 0, 88, 127
2, 96429, Note_on_c, 0, 89, 0
2, 96480, Note_on_c, 0, 89, 127
2, 96489, Note_on_c, 0, 88, 0
2, 96539, Note_on_c, 0, 89, 0
2, 96539, Note_on_c, 0, 82, 0
2, 97980, Note_on_c, 0, 86, 127
2, 97980, Note_on_c, 0, 81, 127
2, 98009, Note_on_c, 0, 81, 0
2, 98009, Note_on_c, 0, 86, 0
2, 98040, Note_on_c, 0, 82, 127
2, 98040, Note_on_c, 0, 86, 127
2, 98069, Note_on_c, 0, 86, 0
2, 98069, Note_on_c, 0, 82, 0
2, 98100, Note_on_c, 0, 91, 127
2, 98100, Note_on_c, 0, 83, 127
2, 98129, Note_on_c, 0, 83, 0
2, 98129, Note_on_c, 0, 91, 0
2, 98160, Note_on_c, 0, 84, 127
2, 98160, Note_on_c, 0, 91, 127
2, 98189, Note_on_c, 0, 91, 0
2, 98189, Note_on_c, 0, 84, 0
2, 98220, Note_on_c, 0, 91, 127
2, 98220, Note_on_c, 0, 85, 127
2, 98249, Note_on_c, 0, 85, 0
2, 98249, Note_on_c, 0, 91, 0
2, 98280, Note_on_c, 0, 90, 127
2, 98280, Note_on_c, 0, 86, 127
2, 98339, Note_on_c, 0, 86, 0
2, 98339, Note_on_c, 0, 90, 0
2, 98400, Note_on_c, 0, 86, 127
2, 98400, Note_on_c, 0, 84, 127
2, 98459, Note_on_c, 0, 84, 0
2, 98459, Note_on_c, 0, 86, 0
2, 98520, Note_on_c, 0, 86, 127
2, 98520, Note_on_c, 0, 82, 127
2, 98579, Note_on_c, 0, 82, 0
2, 98579, Note_on_c, 0, 86, 0
2, 98760, Note_on_c, 0, 83, 127
2, 98760, Note_on_c, 0, 80, 127
2, 98819, Note_on_c, 0, 80, 0
2, 98819, Note_on_c, 0, 83, 0
2, 98880, Note_on_c, 0, 84, 127
2, 98880, Note_on_c, 0, 79, 127
2, 98939, Note_on_c, 0, 79, 0
2, 98939, Note_on_c, 0, 84, 0
2, 99120, Note_on_c, 0, 84, 127
2, 99120, Note_on_c, 0, 82, 127
2, 99179, Note_on_c, 0, 82, 0
2, 99179, Note_on_c, 0, 84, 0
2, 99240, Note_on_c, 0, 81, 127
2, 99240, Note_on_c, 0, 84, 127
2, 99299, Note_on_c, 0, 84, 0
2, 99299, Note_on_c, 0, 81, 0
2, 99480, Note_on_c, 0, 86, 127
2, 99480, Note_on_c, 0, 84, 127
2, 99539, Note_on_c, 0, 84, 0
2, 99539, Note_on_c, 0, 86, 0
2, 99600, Note_on_c, 0, 82, 127
2, 99600, Note_on_c, 0, 86, 127
2, 99659, Note_on_c, 0, 86, 0
2, 99659, Note_on_c, 0, 82, 0
2, 99840, Note_on_c, 0, 83, 127
2, 99840, Note_on_c, 0, 80, 127
2, 99899, Note_on_c, 0, 80, 0
2, 99899, Note_on_c, 0, 83, 0
2, 99960, Note_on_c, 0, 79, 127
2, 99960, Note_on_c, 0, 84, 127
2, 100019, Note_on_c, 0, 84, 0
2, 100019, Note_on_c, 0, 79, 0
2, 100200, Note_on_c, 0, 84, 127
2, 100200, Note_on_c, 0, 82, 127
2, 100259, Note_on_c, 0, 82, 0
2, 100259, Note_on_c, 0, 84, 0
2, 100440, Note_on_c, 0, 82, 127
2, 100440, Note_on_c, 0, 84, 127
2, 100499, Note_on_c, 0, 84, 0
2, 100499, Note_on_c, 0, 82, 0
2, 100680, Note_on_c, 0, 84, 127
2, 100680, Note_on_c, 0, 82, 127
2, 100739, Note_on_c, 0, 82, 0
2, 100739, Note_on_c, 0, 84, 0
2, 100920, Note_on_c, 0, 82, 127
2, 100920, Note_on_c, 0, 84, 127
2, 100979, Note_on_c, 0, 84, 0
2, 100979, Note_on_c, 0, 82, 0
2, 101160, Note_on_c, 0, 84, 127
2, 101160, Note_on_c, 0, 82, 127
2, 101219, Note_on_c, 0, 82, 0
2, 101219, Note_on_c, 0, 84, 0
2, 101400, Note_on_c, 0, 82, 127
2, 101400, Note_on_c, 0, 84, 127
2, 101459, Note_on_c, 0, 84, 0
2, 101459, Note_on_c, 0, 82, 0
2, 101880, Note_on_c, 0, 82, 96
2, 101909, Note_on_c, 0, 82, 0
2, 101910, Note_on_c, 0, 82, 48
2, 102000, Note_on_c, 0, 85, 48
2, 102009, Note_on_c, 0, 82, 0
2, 102120, Note_on_c, 0, 88, 48
2, 102129, Note_on_c, 0, 85, 0
2, 102240, Note_on_c, 0, 89, 48
2, 102249, Note_on_c, 0, 88, 0
2, 102599, Note_on_c, 0, 89, 0
2, 102600, Note_on_c, 0, 82, 96
2, 102629, Note_on_c, 0, 82, 0
2, 102630, Note_on_c, 0, 82, 48
2, 102720, Note_on_c, 0, 85, 48
2, 102729, Note_on_c, 0, 82, 0
2, 102840, Note_on_c, 0, 88, 48
2, 102849, Note_on_c, 0, 85, 0
2, 103080, Note_on_c, 0, 87, 48
2, 103089, Note_on_c, 0, 88, 0
2, 103200, Note_on_c, 0, 85, 48
2, 103209, Note_on_c, 0, 87, 0
2, 103440, Note_on_c, 0, 83, 48
2, 103449, Note_on_c, 0, 85, 0
2, 103560, Note_on_c, 0, 84, 48
2, 103569, Note_on_c, 0, 83, 0
2, 103800, Note_on_c, 0, 77, 48
2, 103809, Note_on_c, 0, 84, 0
2, 103920, Note_on_c, 0, 87, 48
2, 103929, Note_on_c, 0, 77, 0
2, 104160, Note_on_c, 0, 85, 48
2, 104169, Note_on_c, 0, 87, 0
2, 104280, Note_on_c, 0, 86, 48
2, 104289, Note_on_c, 0, 85, 0
2, 104460, Note_on_c, 0, 78, 52
2, 104469, Note_on_c, 0, 86, 0
2, 104520, Note_on_c, 0, 79, 55
2, 104529, Note_on_c, 0, 78, 0
2, 104580, Note_on_c, 0, 83, 58
2, 104589, Note_on_c, 0, 79, 0
2, 104640, Note_on_c, 0, 84, 65
2, 104649, Note_on_c, 0, 83, 0
2, 104700, Note_on_c, 0, 86, 69
2, 104709, Note_on_c, 0, 84, 0
2, 104760, Note_on_c, 0, 87, 72
2, 104769, Note_on_c, 0, 86, 0
2, 104820, Note_on_c, 0, 90, 75
2, 104829, Note_on_c, 0, 87, 0
2, 104880, Note_on_c, 0, 91, 79
2, 104889, Note_on_c, 0, 90, 0
2, 104940, Note_on_c, 0, 87, 81
2, 104949, Note_on_c, 0, 91, 0
2, 105000, Note_on_c, 0, 86, 83
2, 105009, Note_on_c, 0, 87, 0
2, 105060, Note_on_c, 0, 84, 88
2, 105069, Note_on_c, 0, 86, 0
2, 105119, Note_on_c, 0, 84, 0
2, 105120, Note_on_c, 0, 82, 91
2, 105179, Note_on_c, 0, 82, 0
2, 105180, Note_on_c, 0, 86, 93
2, 105239, Note_on_c, 0, 86, 0
2, 105240, Note_on_c, 0, 89, 97
2, 105299, Note_on_c, 0, 89, 0
2, 105300, Note_on_c, 0, 89, 101
2, 105359, Note_on_c, 0, 89, 0
2, 105360, Note_on_c, 0, 89, 105
2, 105419, Note_on_c, 0, 89, 0
2, 105420, Note_on_c, 0, 89, 109
2, 105479, Note_on_c, 0, 89, 0
2, 105480, Note_on_c, 0, 87, 127
2, 105480, Note_on_c, 0, 89, 127
2, 105719, Note_on_c, 0, 87, 0
2, 105720, Note_on_c, 0, 81, 127
2, 105839, Note_on_c, 0, 81, 0
2, 105839, Note_on_c, 0, 89, 0
2, 105840, Note_on_c, 0, 82, 96
2, 105899, Note_on_c, 0, 82, 0
2, 106200, Note_on_c, 0, 82, 96
2, 106259, Note_on_c, 0, 82, 0
2, 106560, Note_on_c, 0, 82, 96
2, 106619, Note_on_c, 0, 82, 0
2, 106920, Note_on_c, 0, 87, 96
2, 106920, Note_on_c, 0, 82, 96
2, 106979, Note_on_c, 0, 82, 0
2, 106979, Note_on_c, 0, 87, 0
2, 107040, Note_on_c, 0, 82, 96
2, 107040, Note_on_c, 0, 87, 96
2, 107099, Note_on_c, 0, 87, 0
2, 107099, Note_on_c, 0, 82, 0
2, 107160, Note_on_c, 0, 87, 96
2, 107160, Note_on_c, 0, 82, 96
2, 107219, Note_on_c, 0, 82, 0
2, 107219, Note_on_c, 0, 87, 0
2, 107280, Note_on_c, 0, 82, 96
2, 107280, Note_on_c, 0, 86, 96
2, 107339, Note_on_c, 0, 86, 0
2, 107339, Note_on_c, 0, 82, 0
2, 114600, Note_on_c, 0, 89, 48
2, 114780, Note_on_c, 0, 86, 48
2, 114789, Note_on_c, 0, 89, 0
2, 114840, Note_on_c, 0, 83, 48
2, 114849, Note_on_c, 0, 86, 0
2, 114959, Note_on_c, 0, 83, 0
2, 114960, Note_on_c, 0, 86, 48
2, 115140, Note_on_c, 0, 77, 48
2, 115149, Note_on_c, 0, 86, 0
2, 115200, Note_on_c, 0, 76, 48
2, 115209, Note_on_c, 0, 77, 0
2, 115319, Note_on_c, 0, 76, 0
2, 116040, Note_on_c, 0, 88, 48
2, 116220, Note_on_c, 0, 84, 48
2, 116229, Note_on_c, 0, 88, 0
2, 116280, Note_on_c, 0, 79, 48
2, 116289, Note_on_c, 0, 84, 0
2, 116399, Note_on_c, 0, 79, 0
2, 116400, Note_on_c, 0, 84, 48
2, 116580, Note_on_c, 0, 76, 48
2, 116589, Note_on_c, 0, 84, 0
2, 116640, Note_on_c, 0, 77, 48
2, 116649, Note_on_c, 0, 76, 0
2, 116759, Note_on_c, 0, 77, 0
2, 117120, Note_on_c, 0, 79, 96
2, 117299, Note_on_c, 0, 79, 0
2, 117300, Note_on_c, 0, 81, 48
2, 117359, Note_on_c, 0, 81, 0
2, 117360, Note_on_c, 0, 83, 48
2, 117389, Note_on_c, 0, 83, 0
2, 117420, Note_on_c, 0, 84, 48
2, 117449, Note_on_c, 0, 84, 0
2, 117480, Note_on_c, 0, 86, 48
2, 117509, Note_on_c, 0, 86, 0
2, 117540, Note_on_c, 0, 88, 48
2, 117569, Note_on_c, 0, 88, 0
2, 117600, Note_on_c, 0, 89, 48
2, 117719, Note_on_c, 0, 89, 0
2, 117840, Note_on_c, 0, 86, 48
2, 118020, Note_on_c, 0, 77, 48
2, 118029, Note_on_c, 0, 86, 0
2, 118080, Note_on_c, 0, 75, 32
2, 118089, Note_on_c, 0, 77, 0
2, 118199, Note_on_c, 0, 75, 0
2, 119160, Note_on_c, 0, 80, 32
2, 119639, Note_on_c, 0, 80, 0
2, 120600, Note_on_c, 0, 81, 72
2, 121079, Note_on_c, 0, 81, 0
2, 121080, Note_on_c, 0, 89, 127
2, 121080, Note_on_c, 0, 86, 127
2, 121139, Note_on_c, 0, 86, 0
2, 121139, Note_on_c, 0, 89, 0
2, 121200, Note_on_c, 0, 86, 127
2, 121200, Note_on_c, 0, 89, 127
2, 121259, Note_on_c, 0, 89, 0
2, 121259, Note_on_c, 0, 86, 0
2, 121320, Note_on_c, 0, 89, 127
2, 121320, Note_on_c, 0, 86, 127
2, 121379, Note_on_c, 0, 86, 0
2, 121379, Note_on_c, 0, 89, 0
2, 121440, Note_on_c, 0, 86, 127
2, 121440, Note_on_c, 0, 89, 127
2, 121499, Note_on_c, 0, 89, 0
2, 121499, Note_on_c, 0, 86, 0
2, 121560, Note_on_c, 0, 86, 127
2, 121560, Note_on_c, 0, 89, 127
2, 121619, Note_on_c, 0, 89, 0
2, 121619, Note_on_c, 0, 86, 0
2, 121680, Note_on_c, 0, 86, 127
2, 121680, Note_on_c, 0, 89, 127
2, 122399, Note_on_c, 0, 89, 0
2, 122399, Note_on_c, 0, 86, 0
2, 122400, Note_on_c, 0, 91, 127
2, 122400, Note_on_c, 0, 85, 127
2, 122459, Note_on_c, 0, 85, 0
2, 122459, Note_on_c, 0, 91, 0
2, 122520, Note_on_c, 0, 85, 127
2, 122520, Note_on_c, 0, 91, 127
2, 122579, Note_on_c, 0, 91, 0
2, 122579, Note_on_c, 0, 85, 0
2, 122640, Note_on_c, 0, 91, 127
2, 122640, Note_on_c, 0, 85, 127
2, 122699, Note_on_c, 0, 85, 0
2, 122699, Note_on_c, 0, 91, 0
2, 122760, Note_on_c, 0, 85, 127
2, 122760, Note_on_c, 0, 91, 127
2, 122819, Note_on_c, 0, 91, 0
2, 122819, Note_on_c, 0, 85, 0
2, 122880, Note_on_c, 0, 91, 127
2, 122880, Note_on_c, 0, 85, 127
2, 122939, Note_on_c, 0, 85, 0
2, 122939, Note_on_c, 0, 91, 0
2, 123000, Note_on_c, 0, 85, 127
2, 123000, Note_on_c, 0, 91, 127
2, 123059, Note_on_c, 0, 91, 0
2, 123059, Note_on_c, 0, 85, 0
2, 123120, Note_on_c, 0, 91, 127
2, 123120, Note_on_c, 0, 85, 127
2, 123719, Note_on_c, 0, 85, 0
2, 123719, Note_on_c, 0, 91, 0
2, 123720, Note_on_c, 0, 88, 127
2, 123720, Note_on_c, 0, 85, 127
2, 123839, Note_on_c, 0, 85, 0
2, 123839, Note_on_c, 0, 88, 0
2, 123840, Note_on_c, 0, 86, 48
2, 123899, Note_on_c, 0, 86, 0
2, 124020, Note_on_c, 0, 86, 48
2, 124079, Note_on_c, 0, 86, 0
2, 124080, Note_on_c, 0, 86, 48
2, 124139, Note_on_c, 0, 86, 0
2, 124380, Note_on_c, 0, 86, 48
2, 124439, Note_on_c, 0, 86, 0
2, 124440, Note_on_c, 0, 86, 48
2, 124499, Note_on_c, 0, 86, 0
2, 124620, Note_on_c, 0, 86, 54
2, 124679, Note_on_c, 0, 86, 0
2, 124680, Note_on_c, 0, 86, 61
2, 124739, Note_on_c, 0, 86, 0
2, 124740, Note_on_c, 0, 86, 67
2, 124799, Note_on_c, 0, 86, 0
2, 124800, Note_on_c, 0, 86, 73
2, 124859, Note_on_c, 0, 86, 0
2, 124860, Note_on_c, 0, 86, 80
2, 124919, Note_on_c, 0, 86, 0
2, 124920, Note_on_c, 0, 86, 86
2, 125039, Note_on_c, 0, 86, 0
2, 125280, Note_on_c, 0, 86, 127
2, 125280, Note_on_c, 0, 82, 127
2, 125339, Note_on_c, 0, 82, 0
2, 125339, Note_on_c, 0, 86, 0
2, 125400, Note_on_c, 0, 82, 127
2, 125400, Note_on_c, 0, 86, 127
2, 125459, Note_on_c, 0, 86, 0
2, 125459, Note_on_c, 0, 82, 0
2, 125520, Note_on_c, 0, 86, 127
2, 125520, Note_on_c, 0, 82, 127
2, 125579, Note_on_c, 0, 82, 0
2, 125579, Note_on_c, 0, 86, 0
2, 125640, Note_on_c, 0, 82, 127
2, 125640, Note_on_c, 0, 86, 127
2, 125699, Note_on_c, 0, 86, 0
2, 125699, Note_on_c, 0, 82, 0
2, 125760, Note_on_c, 0, 86, 127
2, 125760, Note_on_c, 0, 82, 127
2, 125819, Note_on_c, 0, 82, 0
2, 125819, Note_on_c, 0, 86, 0
2, 125880, Note_on_c, 0, 82, 127
2, 125880, Note_on_c, 0, 86, 127
2, 125939, Note_on_c, 0, 86, 0
2, 125939, Note_on_c, 0, 82, 0
2, 126000, Note_on_c, 0, 86, 127
2, 126000, Note_on_c, 0, 82, 127
2, 126719, Note_on_c, 0, 82, 0
2, 126719, Note_on_c, 0, 86, 0
2, 126720, Note_on_c, 0, 86, 127
2, 126720, Note_on_c, 0, 84, 127
2, 126779, Note_on_c, 0, 84, 0
2, 126779, Note_on_c, 0, 86, 0
2, 126840, Note_on_c, 0, 84, 127
2, 126840, Note_on_c, 0, 86, 127
2, 126899, Note_on_c, 0, 86, 0
2, 126899, Note_on_c, 0, 84, 0
2, 126960, Note_on_c, 0, 86, 127
2, 126960, Note_on_c, 0, 84, 127
2, 127019, Note_on_c, 0, 84, 0
2, 127019, Note_on_c, 0, 86, 0
2, 127080, Note_on_c, 0, 84, 127
2, 127080, Note_on_c, 0, 86, 127
2, 127139, Note_on_c, 0, 86, 0
2, 127139, Note_on_c, 0, 84, 0
2, 127200, Note_on_c, 0, 86, 127
2, 127200, Note_on_c, 0, 84, 127
2, 127259, Note_on_c, 0, 84, 0
2, 127259, Note_on_c, 0, 86, 0
2, 127320, Note_on_c, 0, 84, 127
2, 127320, Note_on_c, 0, 86, 127
2, 127379, Note_on_c, 0, 86, 0
2, 127379, Note_on_c, 0, 84, 0
2, 127440, Note_on_c, 0, 86, 127
2, 127440, Note_on_c, 0, 84, 127
2, 128039, Note_on_c, 0, 84, 0
2, 128039, Note_on_c, 0, 86, 0
2, 128040, Note_on_c, 0, 78, 127
2, 128040, Note_on_c, 0, 86, 127
2, 128159, Note_on_c, 0, 86, 0
2, 128159, Note_on_c, 0, 78, 0
2, 128160, Note_on_c, 0, 86, 48
2, 128160, Note_on_c, 0, 79, 48
2, 128279, Note_on_c, 0, 79, 0
2, 128279, Note_on_c, 0, 86, 0
2, 129780, Note_on_c, 0, 84, 48
2, 129839, Note_on_c, 0, 84, 0
2, 129840, Note_on_c, 0, 84, 48
2, 129899, Note_on_c, 0, 84, 0
2, 130140, Note_on_c, 0, 84, 48
2, 130199, Note_on_c, 0, 84, 0
2, 130200, Note_on_c, 0, 84, 48
2, 130259, Note_on_c, 0, 84, 0
2, 130380, Note_on_c, 0, 84, 51
2, 130439, Note_on_c, 0, 84, 0
2, 130440, Note_on_c, 0, 84, 54
2, 130499, Note_on_c, 0, 84, 0
2, 130500, Note_on_c, 0, 84, 57
2, 130559, Note_on_c, 0, 84, 0
2, 130560, Note_on_c, 0, 84, 61
2, 130619, Note_on_c, 0, 84, 0
2, 130620, Note_on_c, 0, 84, 64
2, 130679, Note_on_c, 0, 84, 0
2, 130680, Note_on_c, 0, 84, 67
2, 130799, Note_on_c, 0, 84, 0
2, 131220, Note_on_c, 0, 89, 96
2, 131279, Note_on_c, 0, 89, 0
2, 131280, Note_on_c, 0, 89, 96
2, 131339, Note_on_c, 0, 89, 0
2, 131580, Note_on_c, 0, 82, 96
2, 131639, Note_on_c, 0, 82, 0
2, 131640, Note_on_c, 0, 82, 96
2, 131699, Note_on_c, 0, 82, 0
2, 131940, Note_on_c, 0, 87, 96
2, 131999, Note_on_c, 0, 87, 0
2, 132000, Note_on_c, 0, 87, 96
2, 132059, Note_on_c, 0, 87, 0
2, 132180, Note_on_c, 0, 80, 96
2, 132239, Note_on_c, 0, 80, 0
2, 132240, Note_on_c, 0, 80, 96
2, 132299, Note_on_c, 0, 80, 0
2, 132300, Note_on_c, 0, 80, 96
2, 132359, Note_on_c, 0, 80, 0
2, 132360, Note_on_c, 0, 80, 96
2, 132419, Note_on_c, 0, 80, 0
2, 132420, Note_on_c, 0, 80, 96
2, 132479, Note_on_c, 0, 80, 0
2, 132480, Note_on_c, 0, 85, 127
2, 132480, Note_on_c, 0, 80, 127
2, 132839, Note_on_c, 0, 80, 0
2, 132839, Note_on_c, 0, 85, 0
2, 132840, Note_on_c, 0, 80, 127
2, 132840, Note_on_c, 0, 86, 127
2, 133199, Note_on_c, 0, 86, 0
2, 133199, Note_on_c, 0, 80, 0
2, 133200, Note_on_c, 0, 87, 127
2, 133200, Note_on_c, 0, 79, 127
2, 133319, Note_on_c, 0, 79, 0
2, 133319, Note_on_c, 0, 87, 0
2, 134040, Note_on_c, 0, 85, 48
2, 134220, Note_on_c, 0, 82, 48
2, 134229, Note_on_c, 0, 85, 0
2, 134280, Note_on_c, 0, 79, 48
2, 134289, Note_on_c, 0, 82, 0
2, 134399, Note_on_c, 0, 79, 0
2, 135480, Note_on_c, 0, 84, 48
2, 135660, Note_on_c, 0, 80, 48
2, 135669, Note_on_c, 0, 84, 0
2, 135720, Note_on_c, 0, 75, 48
2, 135729, Note_on_c, 0, 80, 0
2, 135839, Note_on_c, 0, 75, 0
2, 136440, Note_on_c, 0, 75, 96
2, 136469, Note_on_c, 0, 75, 0
2, 136470, Note_on_c, 0, 75, 48
2, 136859, Note_on_c, 0, 75, 0
2, 136860, Note_on_c, 0, 77, 48
2, 136889, Note_on_c, 0, 77, 0
2, 136920, Note_on_c, 0, 79, 48
2, 136949, Note_on_c, 0, 79, 0
2, 136980, Note_on_c, 0, 80, 48
2, 137009, Note_on_c, 0, 80, 0
2, 137040, Note_on_c, 0, 82, 48
2, 137069, Note_on_c, 0, 82, 0
2, 137100, Note_on_c, 0, 84, 48
2, 137129, Note_on_c, 0, 84, 0
2, 137160, Note_on_c, 0, 85, 48
2, 137189, Note_on_c, 0, 85, 0
2, 137220, Note_on_c, 0, 84, 48
2, 137249, Note_on_c, 0, 84, 0
2, 137280, Note_on_c, 0, 85, 48
2, 137309, Note_on_c, 0, 85, 0
2, 137340, Note_on_c, 0, 87, 48
2, 137369, Note_on_c, 0, 87, 0
2, 137400, Note_on_c, 0, 89, 48
2, 137429, Note_on_c, 0, 89, 0
2, 137460, Note_on_c, 0, 91, 48
2, 137489, Note_on_c, 0, 91, 0
2, 137520, Note_on_c, 0, 92, 48
2, 137639, Note_on_c, 0, 92, 0
2, 137760, Note_on_c, 0, 72, 48
2, 137939, Note_on_c, 0, 72, 0
2, 137940, Note_on_c, 0, 74, 48
2, 137969, Note_on_c, 0, 74, 0
2, 138000, Note_on_c, 0, 76, 48
2, 138029, Note_on_c, 0, 76, 0
2, 138060, Note_on_c, 0, 77, 48
2, 138089, Note_on_c, 0, 77, 0
2, 138120, Note_on_c, 0, 79, 48
2, 138149, Note_on_c, 0, 79, 0
2, 138180, Note_on_c, 0, 80, 48
2, 138209, Note_on_c, 0, 80, 0
2, 138240, Note_on_c, 0, 82, 48
2, 138359, Note_on_c, 0, 82, 0
2, 138660, Note_on_c, 0, 85, 48
2, 138720, Note_on_c, 0, 84, 48
2, 138729, Note_on_c, 0, 85, 0
2, 138780, Note_on_c, 0, 82, 48
2, 138789, Note_on_c, 0, 84, 0
2, 138840, Note_on_c, 0, 80, 48
2, 138849, Note_on_c, 0, 82, 0
2, 138900, Note_on_c, 0, 79, 48
2, 138909, Note_on_c, 0, 80, 0
2, 138960, Note_on_c, 0, 80, 48
2, 138969, Note_on_c, 0, 79, 0
2, 139079, Note_on_c, 0, 80, 0
2, 142320, Note_on_c, 0, 81, 85
2, 142320, Note_on_c, 0, 77, 85
2, 142379, Note_on_c, 0, 77, 0
2, 142379, Note_on_c, 0, 81, 0
2, 142440, Note_on_c, 0, 89, 112
2, 142440, Note_on_c, 0, 93, 112
2, 142680, Note_on_c, 0, 88, 100
2, 142680, Note_on_c, 0, 91, 100
2, 142689, Note_on_c, 0, 93, 0
2, 142689, Note_on_c, 0, 89, 0
2, 142799, Note_on_c, 0, 88, 0
2, 142799, Note_on_c, 0, 91, 0
2, 143040, Note_on_c, 0, 89, 115
2, 143040, Note_on_c, 0, 86, 115
2, 143069, Note_on_c, 0, 86, 0
2, 143069, Note_on_c, 0, 89, 0
2, 143100, Note_on_c, 0, 89, 118
2, 143100, Note_on_c, 0, 86, 118
2, 143129, Note_on_c, 0, 86, 0
2, 143129, Note_on_c, 0, 89, 0
2, 143160, Note_on_c, 0, 89, 120
2, 143160, Note_on_c, 0, 86, 120
2, 143189, Note_on_c, 0, 86, 0
2, 143189, Note_on_c, 0, 89, 0
2, 143220, Note_on_c, 0, 89, 123
2, 143220, Note_on_c, 0, 86, 123
2, 143249, Note_on_c, 0, 86, 0
2, 143249, Note_on_c, 0, 89, 0
2, 143280, Note_on_c, 0, 86, 125
2, 143280, Note_on_c, 0, 89, 125
2, 143339, Note_on_c, 0, 89, 0
2, 143339, Note_on_c, 0, 86, 0
2, 143400, Note_on_c, 0, 89, 127
2, 143400, Note_on_c, 0, 83, 127
2, 144119, Note_on_c, 0, 83, 0
2, 144119, Note_on_c, 0, 89, 0
2, 144120, Note_on_c, 0, 83, 127
2, 144120, Note_on_c, 0, 89, 127
2, 144359, Note_on_c, 0, 89, 0
2, 144359, Note_on_c, 0, 83, 0
2, 144360, Note_on_c, 0, 83, 127
2, 144360, Note_on_c, 0, 89, 127
2, 144599, Note_on_c, 0, 89, 0
2, 144599, Note_on_c, 0, 83, 0
2, 144600, Note_on_c, 0, 83, 127
2, 144600, Note_on_c, 0, 89, 127
2, 144839, Note_on_c, 0, 89, 0
2, 144839, Note_on_c, 0, 83, 0
2, 144840, Note_on_c, 0, 83, 127
2, 144840, Note_on_c, 0, 89, 127
2, 145079, Note_on_c, 0, 89, 0
2, 145079, Note_on_c, 0, 83, 0
2, 145080, Note_on_c, 0, 83, 127
2, 145080, Note_on_c, 0, 89, 127
2, 145319, Note_on_c, 0, 89, 0
2, 145319, Note_on_c, 0, 83, 0
2, 145320, Note_on_c, 0, 83, 127
2, 145320, Note_on_c, 0, 89, 127
2, 145439, Note_on_c, 0, 89, 0
2, 145439, Note_on_c, 0, 83, 0
2, 145560, Note_on_c, 0, 88, 127
2, 145560, Note_on_c, 0, 84, 127
2, 146279, Note_on_c, 0, 84, 0
2, 146279, Note_on_c, 0, 88, 0
2, 146280, Note_on_c, 0, 81, 127
2, 146280, Note_on_c, 0, 88, 127
2, 146519, Note_on_c, 0, 88, 0
2, 146519, Note_on_c, 0, 81, 0
2, 146520, Note_on_c, 0, 81, 127
2, 146520, Note_on_c, 0, 88, 127
2, 146759, Note_on_c, 0, 88, 0
2, 146759, Note_on_c, 0, 81, 0
2, 146760, Note_on_c, 0, 81, 127
2, 146760, Note_on_c, 0, 88, 127
2, 146999, Note_on_c, 0, 88, 0
2, 146999, Note_on_c, 0, 81, 0
2, 147000, Note_on_c, 0, 81, 127
2, 147000, Note_on_c, 0, 88, 127
2, 147239, Note_on_c, 0, 88, 0
2, 147239, Note_on_c, 0, 81, 0
2, 147240, Note_on_c, 0, 81, 127
2, 147240, Note_on_c, 0, 88, 127
2, 147479, Note_on_c, 0, 88, 0
2, 147479, Note_on_c, 0, 81, 0
2, 147480, Note_on_c, 0, 81, 127
2, 147480, Note_on_c, 0, 88, 127
2, 147599, Note_on_c, 0, 88, 0
2, 147599, Note_on_c, 0, 81, 0
2, 147720, Note_on_c, 0, 87, 127
2, 147720, Note_on_c, 0, 81, 127
2, 148439, Note_on_c, 0, 81, 0
2, 148439, Note_on_c, 0, 87, 0
2, 148440, Note_on_c, 0, 81, 127
2, 148440, Note_on_c, 0, 87, 127
2, 148679, Note_on_c, 0, 87, 0
2, 148679, Note_on_c, 0, 81, 0
2, 148680, Note_on_c, 0, 81, 127
2, 148680, Note_on_c, 0, 87, 127
2, 148919, Note_on_c, 0, 87, 0
2, 148919, Note_on_c, 0, 81, 0
2, 148920, Note_on_c, 0, 81, 127
2, 148920, Note_on_c, 0, 87, 127
2, 149159, Note_on_c, 0, 87, 0
2, 149159, Note_on_c, 0, 81, 0
2, 149160, Note_on_c, 0, 81, 127
2, 149160, Note_on_c, 0, 87, 127
2, 149399, Note_on_c, 0, 87, 0
2, 149399, Note_on_c, 0, 81, 0
2, 149400, Note_on_c, 0, 81, 127
2, 149400, Note_on_c, 0, 87, 127
2, 149639, Note_on_c, 0, 87, 0
2, 149639, Note_on_c, 0, 81, 0
2, 149640, Note_on_c, 0, 81, 127
2, 149640, Note_on_c, 0, 87, 127
2, 149759, Note_on_c, 0, 87, 0
2, 149759, Note_on_c, 0, 81, 0
2, 149880, Note_on_c, 0, 88, 127
2, 149880, Note_on_c, 0, 85, 127
2, 150599, Note_on_c, 0, 85, 0
2, 150599, Note_on_c, 0, 88, 0
2, 150600, Note_on_c, 0, 85, 127
2, 150600, Note_on_c, 0, 88, 127
2, 150839, Note_on_c, 0, 88, 0
2, 150839, Note_on_c, 0, 85, 0
2, 150840, Note_on_c, 0, 85, 127
2, 150840, Note_on_c, 0, 88, 127
2, 151079, Note_on_c, 0, 88, 0
2, 151079, Note_on_c, 0, 85, 0
2, 151080, Note_on_c, 0, 85, 127
2, 151080, Note_on_c, 0, 88, 127
2, 151319, Note_on_c, 0, 88, 0
2, 151319, Note_on_c, 0, 85, 0
2, 151320, Note_on_c, 0, 85, 127
2, 151320, Note_on_c, 0, 88, 127
2, 151559, Note_on_c, 0, 88, 0
2, 151559, Note_on_c, 0, 85, 0
2, 151560, Note_on_c, 0, 85, 127
2, 151560, Note_on_c, 0, 88, 127
2, 151799, Note_on_c, 0, 88, 0
2, 151799, Note_on_c, 0, 85, 0
2, 151800, Note_on_c, 0, 85, 127
2, 151800, Note_on_c, 0, 88, 127
2, 151919, Note_on_c, 0, 88, 0
2, 151919, Note_on_c, 0, 85, 0
2, 152040, Note_on_c, 0, 87, 127
2, 152040, Note_on_c, 0, 84, 127
2, 152279, Note_on_c, 0, 84, 0
2, 152279, Note_on_c, 0, 87, 0
2, 152280, Note_on_c, 0, 87, 127
2, 152280, Note_on_c, 0, 84, 127
2, 152519, Note_on_c, 0, 84, 0
2, 152519, Note_on_c, 0, 87, 0
2, 152520, Note_on_c, 0, 87, 127
2, 152520, Note_on_c, 0, 84, 127
2, 152639, Note_on_c, 0, 84, 0
2, 152639, Note_on_c, 0, 87, 0
2, 152760, Note_on_c, 0, 88, 127
2, 152760, Note_on_c, 0, 84, 127
2, 152999, Note_on_c, 0, 84, 0
2, 152999, Note_on_c, 0, 88, 0
2, 153000, Note_on_c, 0, 84, 127
2, 153000, Note_on_c, 0, 88, 127
2, 153239, Note_on_c, 0, 88, 0
2, 153239, Note_on_c, 0, 84, 0
2, 153240, Note_on_c, 0, 88, 127
2, 153240, Note_on_c, 0, 84, 127
2, 153299, Note_on_c, 0, 84, 0
2, 153299, Note_on_c, 0, 88, 0
2, 153360, Note_on_c, 0, 89, 96
2, 153360, Note_on_c, 0, 88, 96
2, 153599, Note_on_c, 0, 88, 0
2, 153599, Note_on_c, 0, 89, 0
2, 153720, Note_on_c, 0, 88, 96
2, 153720, Note_on_c, 0, 89, 96
2, 153959, Note_on_c, 0, 89, 0
2, 153959, Note_on_c, 0, 88, 0
2, 153960, Note_on_c, 0, 89, 96
2, 153960, Note_on_c, 0, 88, 96
2, 154199, Note_on_c, 0, 88, 0
2, 154199, Note_on_c, 0, 89, 0
2, 154200, Note_on_c, 0, 88, 96
2, 154200, Note_on_c, 0, 89, 96
2, 154259, Note_on_c, 0, 89, 0
2, 154259, Note_on_c, 0, 88, 0
2, 156360, Note_on_c, 0, 71, 48
2, 156479, Note_on_c, 0, 71, 0
2, 156480, Note_on_c, 0, 71, 48
2, 156599, Note_on_c, 0, 71, 0
2, 156600, Note_on_c, 0, 71, 96
2, 156629, Note_on_c, 0, 71, 0
2, 156630, Note_on_c, 0, 71, 48
2, 156779, Note_on_c, 0, 71, 0
2, 156780, Note_on_c, 0, 71, 48
2, 156839, Note_on_c, 0, 71, 0
2, 156840, Note_on_c, 0, 71, 48
2, 156959, Note_on_c, 0, 71, 0
2, 156960, Note_on_c, 0, 71, 48
2, 157079, Note_on_c, 0, 71, 0
2, 157800, Note_on_c, 0, 71, 48
2, 157919, Note_on_c, 0, 71, 0
2, 157920, Note_on_c, 0, 71, 48
2, 158039, Note_on_c, 0, 71, 0
2, 158040, Note_on_c, 0, 71, 96
2, 158069, Note_on_c, 0, 71, 0
2, 158070, Note_on_c, 0, 71, 48
2, 158219, Note_on_c, 0, 71, 0
2, 158220, Note_on_c, 0, 71, 48
2, 158279, Note_on_c, 0, 71, 0
2, 158280, Note_on_c, 0, 71, 48
2, 158399, Note_on_c, 0, 71, 0
2, 158400, Note_on_c, 0, 71, 48
2, 158519, Note_on_c, 0, 71, 0
2, 163800, Note_on_c, 0, 84, 96
2, 163859, Note_on_c, 0, 84, 0
2, 163920, Note_on_c, 0, 88, 96
2, 163979, Note_on_c, 0, 88, 0
2, 164040, Note_on_c, 0, 91, 112
2, 164219, Note_on_c, 0, 91, 0
2, 164220, Note_on_c, 0, 89, 96
2, 164249, Note_on_c, 0, 89, 0
2, 164280, Note_on_c, 0, 86, 96
2, 164309, Note_on_c, 0, 86, 0
2, 164340, Note_on_c, 0, 83, 96
2, 164369, Note_on_c, 0, 83, 0
2, 164400, Note_on_c, 0, 79, 96
2, 164429, Note_on_c, 0, 79, 0
2, 164460, Note_on_c, 0, 77, 96
2, 164489, Note_on_c, 0, 77, 0
2, 164520, Note_on_c, 0, 74, 96
2, 164549, Note_on_c, 0, 74, 0
2, 164580, Note_on_c, 0, 77, 96
2, 164609, Note_on_c, 0, 77, 0
2, 164640, Note_on_c, 0, 74, 96
2, 164669, Note_on_c, 0, 74, 0
2, 164700, Note_on_c, 0, 71, 96
2, 164729, Note_on_c, 0, 71, 0
2, 164760, Note_on_c, 0, 67, 96
2, 164789, Note_on_c, 0, 67, 0
2, 164820, Note_on_c, 0, 71, 96
2, 164849, Note_on_c, 0, 71, 0
2, 164880, Note_on_c, 0, 72, 96
2, 164939, Note_on_c, 0, 72, 0
2, 165000, Note_on_c, 0, 75, 96
2, 165059, Note_on_c, 0, 75, 0
2, 165120, Note_on_c, 0, 79, 96
2, 165179, Note_on_c, 0, 79, 0
2, 165240, Note_on_c, 0, 84, 96
2, 165299, Note_on_c, 0, 84, 0
2, 165360, Note_on_c, 0, 87, 96
2, 165419, Note_on_c, 0, 87, 0
2, 165480, Note_on_c, 0, 91, 112
2, 165659, Note_on_c, 0, 91, 0
2, 165660, Note_on_c, 0, 89, 96
2, 165689, Note_on_c, 0, 89, 0
2, 165720, Note_on_c, 0, 86, 96
2, 165749, Note_on_c, 0, 86, 0
2, 165780, Note_on_c, 0, 83, 96
2, 165809, Note_on_c, 0, 83, 0
2, 165840, Note_on_c, 0, 79, 96
2, 165869, Note_on_c, 0, 79, 0
2, 165900, Note_on_c, 0, 77, 96
2, 165929, Note_on_c, 0, 77, 0
2, 165960, Note_on_c, 0, 74, 96
2, 165989, Note_on_c, 0, 74, 0
2, 166020, Note_on_c, 0, 77, 96
2, 166049, Note_on_c, 0, 77, 0
2, 166080, Note_on_c, 0, 74, 96
2, 166109, Note_on_c, 0, 74, 0
2, 166140, Note_on_c, 0, 71, 96
2, 166169, Note_on_c, 0, 71, 0
2, 166200, Note_on_c, 0, 67, 96
2, 166229, Note_on_c, 0, 67, 0
2, 166260, Note_on_c, 0, 71, 96
2, 166289, Note_on_c, 0, 71, 0
2, 166320, Note_on_c, 0, 72, 96
2, 166440, Note_on_c, 0, 75, 96
2, 166449, Note_on_c, 0, 72, 0
2, 166560, Note_on_c, 0, 79, 96
2, 166569, Note_on_c, 0, 75, 0
2, 166679, Note_on_c, 0, 79, 0
2, 166680, Note_on_c, 0, 80, 112
2, 166920, Note_on_c, 0, 72, 96
2, 166929, Note_on_c, 0, 80, 0
2, 167039, Note_on_c, 0, 72, 0
2, 167040, Note_on_c, 0, 73, 96
2, 167160, Note_on_c, 0, 77, 96
2, 167169, Note_on_c, 0, 73, 0
2, 167280, Note_on_c, 0, 81, 96
2, 167289, Note_on_c, 0, 77, 0
2, 167399, Note_on_c, 0, 81, 0
2, 167400, Note_on_c, 0, 82, 112
2, 167640, Note_on_c, 0, 74, 96
2, 167649, Note_on_c, 0, 82, 0
2, 167759, Note_on_c, 0, 74, 0
2, 167760, Note_on_c, 0, 75, 96
2, 167819, Note_on_c, 0, 75, 0
2, 167880, Note_on_c, 0, 82, 96
2, 167939, Note_on_c, 0, 82, 0
2, 168000, Note_on_c, 0, 82, 96
2, 168059, Note_on_c, 0, 82, 0
2, 168120, Note_on_c, 0, 82, 96
2, 168179, Note_on_c, 0, 82, 0
2, 168240, Note_on_c, 0, 82, 96
2, 168299, Note_on_c, 0, 82, 0
2, 168360, Note_on_c, 0, 82, 112
2, 168539, Note_on_c, 0, 82, 0
2, 168540, Note_on_c, 0, 80, 96
2, 168569, Note_on_c, 0, 80, 0
2, 168600, Note_on_c, 0, 89, 96
2, 168629, Note_on_c, 0, 89, 0
2, 168660, Note_on_c, 0, 86, 96
2, 168689, Note_on_c, 0, 86, 0
2, 168720, Note_on_c, 0, 82, 96
2, 168749, Note_on_c, 0, 82, 0
2, 168780, Note_on_c, 0, 80, 96
2, 168809, Note_on_c, 0, 80, 0
2, 168840, Note_on_c, 0, 77, 96
2, 168869, Note_on_c, 0, 77, 0
2, 168900, Note_on_c, 0, 80, 96
2, 168929, Note_on_c, 0, 80, 0
2, 168960, Note_on_c, 0, 77, 96
2, 168989, Note_on_c, 0, 77, 0
2, 169020, Note_on_c, 0, 74, 96
2, 169049, Note_on_c, 0, 74, 0
2, 169080, Note_on_c, 0, 70, 96
2, 169109, Note_on_c, 0, 70, 0
2, 169140, Note_on_c, 0, 74, 96
2, 169169, Note_on_c, 0, 74, 0
2, 169200, Note_on_c, 0, 75, 127
2, 169319, Note_on_c, 0, 75, 0
2, 169320, Note_on_c, 0, 82, 127
2, 169439, Note_on_c, 0, 82, 0
2, 169440, Note_on_c, 0, 82, 127
2, 169559, Note_on_c, 0, 82, 0
2, 169560, Note_on_c, 0, 82, 127
2, 169679, Note_on_c, 0, 82, 0
2, 169680, Note_on_c, 0, 75, 127
2, 169680, Note_on_c, 0, 87, 127
2, 169799, Note_on_c, 0, 87, 0
2, 169799, Note_on_c, 0, 75, 0
2, 169800, Note_on_c, 0, 75, 127
2, 169800, Note_on_c, 0, 87, 127
2, 169919, Note_on_c, 0, 87, 0
2, 169919, Note_on_c, 0, 75, 0
2, 169920, Note_on_c, 0, 75, 127
2, 169920, Note_on_c, 0, 87, 127
2, 170039, Note_on_c, 0, 87, 0
2, 170039, Note_on_c, 0, 75, 0
2, 172920, Note_on_c, 0, 78, 48
2, 173040, Note_on_c, 0, 80, 48
2, 173049, Note_on_c, 0, 78, 0
2, 173160, Note_on_c, 0, 82, 48
2, 173169, Note_on_c, 0, 80, 0
2, 173340, Note_on_c, 0, 80, 48
2, 173349, Note_on_c, 0, 82, 0
2, 173400, Note_on_c, 0, 78, 48
2, 173409, Note_on_c, 0, 80, 0
2, 173519, Note_on_c, 0, 78, 0
2, 173520, Note_on_c, 0, 77, 48
2, 174239, Note_on_c, 0, 77, 0
2, 174240, Note_on_c, 0, 78, 48
2, 174359, Note_on_c, 0, 78, 0
2, 176400, Note_on_c, 0, 86, 48
2, 176400, Note_on_c, 0, 82, 48
2, 176639, Note_on_c, 0, 86, 0
2, 176640, Note_on_c, 0, 89, 48
2, 176640, Note_on_c, 0, 86, 48
2, 176649, Note_on_c, 0, 82, 0
2, 176759, Note_on_c, 0, 86, 0
2, 176760, Note_on_c, 0, 82, 48
2, 176760, Note_on_c, 0, 86, 48
2, 176769, Note_on_c, 0, 89, 0
2, 176999, Note_on_c, 0, 82, 0
2, 177000, Note_on_c, 0, 82, 48
2, 177000, Note_on_c, 0, 77, 48
2, 177009, Note_on_c, 0, 86, 0
2, 177119, Note_on_c, 0, 77, 0
2, 177119, Note_on_c, 0, 82, 0
2, 177120, Note_on_c, 0, 82, 48
2, 177120, Note_on_c, 0, 78, 48
2, 177239, Note_on_c, 0, 82, 0
2, 177240, Note_on_c, 0, 82, 48
2, 177240, Note_on_c, 0, 90, 48
2, 177249, Note_on_c, 0, 78, 0
2, 177359, Note_on_c, 0, 90, 0
2, 177360, Note_on_c, 0, 87, 48
2, 177360, Note_on_c, 0, 90, 48
2, 177369, Note_on_c, 0, 82, 0
2, 177479, Note_on_c, 0, 90, 0
2, 177479, Note_on_c, 0, 87, 0
2, 177480, Note_on_c, 0, 90, 48
2, 177480, Note_on_c, 0, 87, 48
2, 177599, Note_on_c, 0, 87, 0
2, 177599, Note_on_c, 0, 90, 0
2, 177840, Note_on_c, 0, 87, 48
2, 177840, Note_on_c, 0, 82, 48
2, 178079, Note_on_c, 0, 87, 0
2, 178080, Note_on_c, 0, 90, 48
2, 178080, Note_on_c, 0, 87, 48
2, 178089, Note_on_c, 0, 82, 0
2, 178199, Note_on_c, 0, 87, 0
2, 178200, Note_on_c, 0, 82, 48
2, 178200, Note_on_c, 0, 87, 48
2, 178209, Note_on_c, 0, 90, 0
2, 178439, Note_on_c, 0, 82, 0
2, 178440, Note_on_c, 0, 78, 48
2, 178440, Note_on_c, 0, 82, 48
2, 178449, Note_on_c, 0, 87, 0
2, 178559, Note_on_c, 0, 82, 0
2, 178559, Note_on_c, 0, 78, 0
2, 178560, Note_on_c, 0, 80, 48
2, 178560, Note_on_c, 0, 78, 48
2, 178679, Note_on_c, 0, 80, 0
2, 178680, Note_on_c, 0, 90, 48
2, 178680, Note_on_c, 0, 80, 48
2, 178689, Note_on_c, 0, 78, 0
2, 178799, Note_on_c, 0, 90, 0
2, 178800, Note_on_c, 0, 87, 48
2, 178800, Note_on_c, 0, 90, 48
2, 178809, Note_on_c, 0, 80, 0
2, 178919, Note_on_c, 0, 90, 0
2, 178919, Note_on_c, 0, 87, 0
2, 178920, Note_on_c, 0, 90, 48
2, 178920, Note_on_c, 0, 87, 48
2, 179039, Note_on_c, 0, 87, 0
2, 179039, Note_on_c, 0, 90, 0
2, 179280, Note_on_c, 0, 87, 48
2, 179280, Note_on_c, 0, 80, 48
2, 179519, Note_on_c, 0, 87, 0
2, 179520, Note_on_c, 0, 90, 48
2, 179520, Note_on_c, 0, 87, 48
2, 179529, Note_on_c, 0, 80, 0
2, 179639, Note_on_c, 0, 87, 0
2, 179640, Note_on_c, 0, 87, 48
2, 179640, Note_on_c, 0, 80, 48
2, 179649, Note_on_c, 0, 90, 0
2, 179879, Note_on_c, 0, 80, 0
2, 179880, Note_on_c, 0, 78, 48
2, 179880, Note_on_c, 0, 80, 48
2, 179889, Note_on_c, 0, 87, 0
2, 179999, Note_on_c, 0, 80, 0
2, 179999, Note_on_c, 0, 78, 0
2, 180000, Note_on_c, 0, 80, 48
2, 180000, Note_on_c, 0, 77, 48
2, 180119, Note_on_c, 0, 80, 0
2, 180120, Note_on_c, 0, 80, 48
2, 180120, Note_on_c, 0, 85, 48
2, 180129, Note_on_c, 0, 77, 0
2, 180239, Note_on_c, 0, 85, 0
2, 180240, Note_on_c, 0, 85, 48
2, 180240, Note_on_c, 0, 89, 48
2, 180249, Note_on_c, 0, 80, 0
2, 180359, Note_on_c, 0, 89, 0
2, 180359, Note_on_c, 0, 85, 0
2, 180360, Note_on_c, 0, 85, 48
2, 180360, Note_on_c, 0, 89, 48
2, 180479, Note_on_c, 0, 89, 0
2, 180479, Note_on_c, 0, 85, 0
2, 180720, Note_on_c, 0, 85, 48
2, 180720, Note_on_c, 0, 80, 48
2, 180959, Note_on_c, 0, 85, 0
2, 180960, Note_on_c, 0, 85, 48
2, 180960, Note_on_c, 0, 89, 48
2, 180969, Note_on_c, 0, 80, 0
2, 181079, Note_on_c, 0, 85, 0
2, 181080, Note_on_c, 0, 80, 48
2, 181080, Note_on_c, 0, 85, 48
2, 181089, Note_on_c, 0, 89, 0
2, 181319, Note_on_c, 0, 80, 0
2, 181320, Note_on_c, 0, 80, 48
2, 181320, Note_on_c, 0, 77, 48
2, 181329, Note_on_c, 0, 85, 0
2, 181439, Note_on_c, 0, 77, 0
2, 181439, Note_on_c, 0, 80, 0
2, 181440, Note_on_c, 0, 77, 48
2, 181440, Note_on_c, 0, 80, 48
2, 181559, Note_on_c, 0, 80, 0
2, 181560, Note_on_c, 0, 82, 49
2, 181560, Note_on_c, 0, 80, 49
2, 181569, Note_on_c, 0, 77, 0
2, 181679, Note_on_c, 0, 82, 0
2, 181680, Note_on_c, 0, 89, 50
2, 181680, Note_on_c, 0, 82, 50
2, 181689, Note_on_c, 0, 80, 0
2, 181799, Note_on_c, 0, 82, 0
2, 181799, Note_on_c, 0, 89, 0
2, 181800, Note_on_c, 0, 89, 51
2, 181800, Note_on_c, 0, 82, 51
2, 181919, Note_on_c, 0, 82, 0
2, 181919, Note_on_c, 0, 89, 0
2, 182160, Note_on_c, 0, 82, 54
2, 182160, Note_on_c, 0, 80, 54
2, 182399, Note_on_c, 0, 82, 0
2, 182400, Note_on_c, 0, 89, 56
2, 182400, Note_on_c, 0, 82, 56
2, 182409, Note_on_c, 0, 80, 0
2, 182519, Note_on_c, 0, 82, 0
2, 182520, Note_on_c, 0, 80, 57
2, 182520, Note_on_c, 0, 82, 57
2, 182529, Note_on_c, 0, 89, 0
2, 182759, Note_on_c, 0, 80, 0
2, 182760, Note_on_c, 0, 80, 59
2, 182760, Note_on_c, 0, 77, 59
2, 182769, Note_on_c, 0, 82, 0
2, 182879, Note_on_c, 0, 77, 0
2, 182879, Note_on_c, 0, 80, 0
2, 183240, Note_on_c, 0, 87, 72
2, 183240, Note_on_c, 0, 75, 72
2, 183480, Note_on_c, 0, 78, 68
2, 183480, Note_on_c, 0, 90, 68
2, 183489, Note_on_c, 0, 75, 0
2, 183489, Note_on_c, 0, 87, 0
2, 183599, Note_on_c, 0, 78, 0
2, 183599, Note_on_c, 0, 90, 0
2, 183960, Note_on_c, 0, 87, 96
2, 183960, Note_on_c, 0, 75, 96
2, 184200, Note_on_c, 0, 78, 96
2, 184200, Note_on_c, 0, 90, 96
2, 184209, Note_on_c, 0, 75, 0
2, 184209, Note_on_c, 0, 87, 0
2, 184319, Note_on_c, 0, 78, 0
2, 184319, Note_on_c, 0, 90, 0
2, 184320, Note_on_c, 0, 90, 127
2, 184320, Note_on_c, 0, 87, 127
2, 185159, Note_on_c, 0, 87, 0
2, 185159, Note_on_c, 0, 90, 0
2, 185160, Note_on_c, 0, 90, 127
2, 185160, Note_on_c, 0, 87, 127
2, 185279, Note_on_c, 0, 87, 0
2, 185279, Note_on_c, 0, 90, 0
2, 185280, Note_on_c, 0, 87, 127
2, 185280, Note_on_c, 0, 90, 127
2, 185399, Note_on_c, 0, 90, 0
2, 185399, Note_on_c, 0, 87, 0
2, 185400, Note_on_c, 0, 90, 127
2, 185400, Note_on_c, 0, 87, 127
2, 185519, Note_on_c, 0, 87, 0
2, 185519, Note_on_c, 0, 90, 0
2, 185520, Note_on_c, 0, 90, 127
2, 185520, Note_on_c, 0, 87, 127
2, 185639, Note_on_c, 0, 87, 0
2, 185639, Note_on_c, 0, 90, 0
2, 185640, Note_on_c, 0, 90, 127
2, 185640, Note_on_c, 0, 87, 127
2, 185759, Note_on_c, 0, 87, 0
2, 185759, Note_on_c, 0, 90, 0
2, 185760, Note_on_c, 0, 90, 127
2, 185760, Note_on_c, 0, 87, 127
2, 185879, Note_on_c, 0, 87, 0
2, 185879, Note_on_c, 0, 90, 0
2, 196560, Note_on_c, 0, 86, 96
2, 196560, Note_on_c, 0, 80, 96
2, 196919, Note_on_c, 0, 80, 0
2, 196919, Note_on_c, 0, 86, 0
2, 196920, Note_on_c, 0, 80, 127
2, 196920, Note_on_c, 0, 89, 127
2, 197279, Note_on_c, 0, 89, 0
2, 197279, Note_on_c, 0, 80, 0
2, 197280, Note_on_c, 0, 87, 127
2, 197280, Note_on_c, 0, 79, 127
2, 197399, Note_on_c, 0, 79, 0
2, 197399, Note_on_c, 0, 87, 0
2, 203760, Note_on_c, 0, 73, 56
2, 204000, Note_on_c, 0, 77, 56
2, 204009, Note_on_c, 0, 73, 0
2, 204120, Note_on_c, 0, 73, 56
2, 204129, Note_on_c, 0, 77, 0
2, 204360, Note_on_c, 0, 68, 56
2, 204369, Note_on_c, 0, 73, 0
2, 204479, Note_on_c, 0, 68, 0
2, 204480, Note_on_c, 0, 73, 56
2, 204600, Note_on_c, 0, 77, 56
2, 204609, Note_on_c, 0, 73, 0
2, 204720, Note_on_c, 0, 80, 56
2, 204729, Note_on_c, 0, 77, 0
2, 204839, Note_on_c, 0, 80, 0
2, 204840, Note_on_c, 0, 80, 56
2, 205319, Note_on_c, 0, 80, 0
2, 205320, Note_on_c, 0, 80, 48
2, 205439, Note_on_c, 0, 80, 0
2, 205440, Note_on_c, 0, 80, 48
2, 205559, Note_on_c, 0, 80, 0
2, 205560, Note_on_c, 0, 80, 48
2, 206759, Note_on_c, 0, 80, 0
2, 206760, Note_on_c, 0, 70, 32
2, 206880, Note_on_c, 0, 74, 32
2, 206889, Note_on_c, 0, 70, 0
2, 207000, Note_on_c, 0, 70, 32
2, 207009, Note_on_c, 0, 74, 0
2, 207240, Note_on_c, 0, 65, 32
2, 207249, Note_on_c, 0, 70, 0
2, 207359, Note_on_c, 0, 65, 0
2, 207360, Note_on_c, 0, 70, 32
2, 207389, Note_on_c, 0, 70, 0
2, 207420, Note_on_c, 0, 74, 34
2, 207449, Note_on_c, 0, 74, 0
2, 207480, Note_on_c, 0, 77, 36
2, 207509, Note_on_c, 0, 77, 0
2, 207540, Note_on_c, 0, 70, 38
2, 207569, Note_on_c, 0, 70, 0
2, 207600, Note_on_c, 0, 74, 40
2, 207629, Note_on_c, 0, 74, 0
2, 207660, Note_on_c, 0, 77, 42
2, 207689, Note_on_c, 0, 77, 0
2, 207720, Note_on_c, 0, 80, 44
2, 207749, Note_on_c, 0, 80, 0
2, 207780, Note_on_c, 0, 74, 46
2, 207809, Note_on_c, 0, 74, 0
2, 207840, Note_on_c, 0, 77, 48
2, 207869, Note_on_c, 0, 77, 0
2, 207900, Note_on_c, 0, 80, 50
2, 207929, Note_on_c, 0, 80, 0
2, 207960, Note_on_c, 0, 84, 52
2, 207989, Note_on_c, 0, 84, 0
2, 208020, Note_on_c, 0, 82, 54
2, 208049, Note_on_c, 0, 82, 0
2, 208080, Note_on_c, 0, 80, 56
2, 208109, Note_on_c, 0, 80, 0
2, 208140, Note_on_c, 0, 82, 58
2, 208169, Note_on_c, 0, 82, 0
2, 208200, Note_on_c, 0, 80, 60
2, 208229, Note_on_c, 0, 80, 0
2, 208260, Note_on_c, 0, 79, 62
2, 208289, Note_on_c, 0, 79, 0
2, 208320, Note_on_c, 0, 80, 64
2, 208320, Note_on_c, 0, 82, 64
2, 208349, Note_on_c, 0, 82, 0
2, 208349, Note_on_c, 0, 80, 0
2, 208380, Note_on_c, 0, 79, 68
2, 208380, Note_on_c, 0, 84, 68
2, 208409, Note_on_c, 0, 84, 0
2, 208409, Note_on_c, 0, 79, 0
2, 208440, Note_on_c, 0, 77, 72
2, 208440, Note_on_c, 0, 86, 72
2, 208469, Note_on_c, 0, 86, 0
2, 208469, Note_on_c, 0, 77, 0
2, 208500, Note_on_c, 0, 75, 76
2, 208500, Note_on_c, 0, 87, 76
2, 208529, Note_on_c, 0, 87, 0
2, 208529, Note_on_c, 0, 75, 0
2, 208560, Note_on_c, 0, 74, 80
2, 208560, Note_on_c, 0, 89, 80
2, 208589, Note_on_c, 0, 89, 0
2, 208589, Note_on_c, 0, 74, 0
2, 208620, Note_on_c, 0, 75, 84
2, 208620, Note_on_c, 0, 91, 84
2, 208649, Note_on_c, 0, 91, 0
2, 208649, Note_on_c, 0, 75, 0
2, 208680, Note_on_c, 0, 77, 88
2, 208680, Note_on_c, 0, 92, 88
2, 208709, Note_on_c, 0, 92, 0
2, 208709, Note_on_c, 0, 77, 0
2, 208740, Note_on_c, 0, 80, 88
2, 208740, Note_on_c, 0, 86, 88
2, 208769, Note_on_c, 0, 86, 0
2, 208769, Note_on_c, 0, 80, 0
2, 208800, Note_on_c, 0, 79, 96
2, 208800, Note_on_c, 0, 87, 96
2, 208920, Note_on_c, 0, 75, 96
2, 208929, Note_on_c, 0, 79, 0
2, 209040, Note_on_c, 0, 79, 96
2, 209040, Note_on_c, 0, 91, 96
2, 209049, Note_on_c, 0, 75, 0
2, 209049, Note_on_c, 0, 87, 0
2, 209160, Note_on_c, 0, 75, 96
2, 209160, Note_on_c, 0, 87, 96
2, 209169, Note_on_c, 0, 79, 0
2, 209169, Note_on_c, 0, 91, 0
2, 209400, Note_on_c, 0, 70, 96
2, 209400, Note_on_c, 0, 82, 96
2, 209409, Note_on_c, 0, 75, 0
2, 209409, Note_on_c, 0, 87, 0
2, 209519, Note_on_c, 0, 70, 0
2, 209519, Note_on_c, 0, 82, 0
2, 209520, Note_on_c, 0, 75, 96
2, 209520, Note_on_c, 0, 87, 96
2, 209639, Note_on_c, 0, 87, 0
2, 209639, Note_on_c, 0, 75, 0
2, 209640, Note_on_c, 0, 87, 96
2, 209759, Note_on_c, 0, 87, 0
2, 209760, Note_on_c, 0, 87, 96
2, 209879, Note_on_c, 0, 87, 0
2, 209880, Note_on_c, 0, 87, 96
2, 210119, Note_on_c, 0, 87, 0
2, 210120, Note_on_c, 0, 82, 112
2, 210120, Note_on_c, 0, 88, 112
2, 210239, Note_on_c, 0, 88, 0
2, 210239, Note_on_c, 0, 82, 0
2, 210240, Note_on_c, 0, 80, 96
2, 210240, Note_on_c, 0, 89, 96
2, 210359, Note_on_c, 0, 89, 0
2, 210359, Note_on_c, 0, 80, 0
2, 210360, Note_on_c, 0, 80, 96
2, 210360, Note_on_c, 0, 89, 96
2, 210479, Note_on_c, 0, 89, 0
2, 210479, Note_on_c, 0, 80, 0
2, 210480, Note_on_c, 0, 80, 96
2, 210480, Note_on_c, 0, 89, 96
2, 210599, Note_on_c, 0, 89, 0
2, 210599, Note_on_c, 0, 80, 0
2, 210600, Note_on_c, 0, 80, 96
2, 210600, Note_on_c, 0, 89, 96
2, 210839, Note_on_c, 0, 89, 0
2, 210839, Note_on_c, 0, 80, 0
2, 210840, Note_on_c, 0, 81, 96
2, 210840, Note_on_c, 0, 90, 96
2, 210959, Note_on_c, 0, 90, 0
2, 210959, Note_on_c, 0, 81, 0
2, 210960, Note_on_c, 0, 82, 112
2, 210960, Note_on_c, 0, 91, 112
2, 211319, Note_on_c, 0, 91, 0
2, 211319, Note_on_c, 0, 82, 0
2, 211320, Note_on_c, 0, 84, 112
2, 211320, Note_on_c, 0, 92, 112
2, 211679, Note_on_c, 0, 92, 0
2, 211679, Note_on_c, 0, 84, 0
2, 211680, Note_on_c, 0, 86, 112
2, 211680, Note_on_c, 0, 92, 112
2, 212159, Note_on_c, 0, 92, 0
2, 212159, Note_on_c, 0, 86, 0
2, 212160, Note_on_c, 0, 92, 112
2, 212160, Note_on_c, 0, 86, 112
2, 212279, Note_on_c, 0, 86, 0
2, 212279, Note_on_c, 0, 92, 0
2, 212280, Note_on_c, 0, 92, 112
2, 212280, Note_on_c, 0, 86, 112
2, 212399, Note_on_c, 0, 86, 0
2, 212399, Note_on_c, 0, 92, 0
2, 212400, Note_on_c, 0, 87, 127
2, 212400, Note_on_c, 0, 91, 127
2, 212639, Note_on_c, 0, 91, 0
2, 212639, Note_on_c, 0, 87, 0
2, 212640, Note_on_c, 0, 91, 127
2, 212640, Note_on_c, 0, 87, 127
2, 212759, Note_on_c, 0, 87, 0
2, 212759, Note_on_c, 0, 91, 0
2, 212760, Note_on_c, 0, 87, 127
2, 212760, Note_on_c, 0, 91, 127
2, 212999, Note_on_c, 0, 91, 0
2, 212999, Note_on_c, 0, 87, 0
2, 213000, Note_on_c, 0, 91, 127
2, 213000, Note_on_c, 0, 87, 127
2, 213239, Note_on_c, 0, 87, 0
2, 213239, Note_on_c, 0, 91, 0
2, 213240, Note_on_c, 0, 87, 127
2, 213240, Note_on_c, 0, 91, 127
2, 213359, Note_on_c, 0, 91, 0
2, 213359, Note_on_c, 0, 87, 0
2, 213360, Note_on_c, 0, 91, 127
2, 213360, Note_on_c, 0, 87, 127
2, 213479, Note_on_c, 0, 87, 0
2, 213479, Note_on_c, 0, 91, 0
2, 213480, Note_on_c, 0, 87, 127
2, 213480, Note_on_c, 0, 91, 127
2, 213719, Note_on_c, 0, 91, 0
2, 213719, Note_on_c, 0, 87, 0
2, 213720, Note_on_c, 0, 91, 127
2, 213720, Note_on_c, 0, 87, 127
2, 213959, Note_on_c, 0, 87, 0
2, 213959, Note_on_c, 0, 91, 0
2, 213960, Note_on_c, 0, 87, 127
2, 213960, Note_on_c, 0, 91, 127
2, 214079, Note_on_c, 0, 91, 0
2, 214079, Note_on_c, 0, 87, 0
2, 214080, Note_on_c, 0, 91, 127
2, 214080, Note_on_c, 0, 87, 127
2, 214199, Note_on_c, 0, 87, 0
2, 214199, Note_on_c, 0, 91, 0
2, 214200, Note_on_c, 0, 87, 127
2, 214200, Note_on_c, 0, 91, 127
2, 214439, Note_on_c, 0, 87, 0
2, 214440, Note_on_c, 0, 88, 127
2, 214559, Note_on_c, 0, 88, 0
2, 214559, Note_on_c, 0, 91, 0
2, 214560, Note_on_c, 0, 91, 127
2, 214560, Note_on_c, 0, 84, 127
2, 214620, Note_on_c, 0, 89, 127
2, 214629, Note_on_c, 0, 91, 0
2, 214680, Note_on_c, 0, 88, 127
2, 214689, Note_on_c, 0, 89, 0
2, 214740, Note_on_c, 0, 89, 127
2, 214749, Note_on_c, 0, 88, 0
2, 214800, Note_on_c, 0, 91, 127
2, 214809, Note_on_c, 0, 89, 0
2, 214860, Note_on_c, 0, 89, 127
2, 214869, Note_on_c, 0, 91, 0
2, 214919, Note_on_c, 0, 89, 0
2, 214919, Note_on_c, 0, 84, 0
2, 214920, Note_on_c, 0, 89, 127
2, 214920, Note_on_c, 0, 84, 127
2, 214980, Note_on_c, 0, 87, 127
2, 214989, Note_on_c, 0, 89, 0
2, 215040, Note_on_c, 0, 86, 127
2, 215049, Note_on_c, 0, 87, 0
2, 215100, Note_on_c, 0, 87, 127
2, 215109, Note_on_c, 0, 86, 0
2, 215160, Note_on_c, 0, 89, 127
2, 215169, Note_on_c, 0, 87, 0
2, 215220, Note_on_c, 0, 87, 127
2, 215229, Note_on_c, 0, 89, 0
2, 215279, Note_on_c, 0, 84, 0
2, 215280, Note_on_c, 0, 86, 127
2, 215280, Note_on_c, 0, 77, 127
2, 215289, Note_on_c, 0, 87, 0
2, 215399, Note_on_c, 0, 77, 0
2, 215399, Note_on_c, 0, 86, 0
2, 215400, Note_on_c, 0, 84, 48
2, 215580, Note_on_c, 0, 82, 48
2, 215589, Note_on_c, 0, 84, 0
2, 215640, Note_on_c, 0, 81, 48
2, 215649, Note_on_c, 0, 82, 0
2, 215759, Note_on_c, 0, 81, 0
2, 216840, Note_on_c, 0, 84, 48
2, 217020, Note_on_c, 0, 82, 48
2, 217029, Note_on_c, 0, 84, 0
2, 217080, Note_on_c, 0, 81, 48
2, 217089, Note_on_c, 0, 82, 0
2, 217199, Note_on_c, 0, 81, 0
2, 218640, Note_on_c, 0, 83, 96
2, 218820, Note_on_c, 0, 82, 48
2, 218829, Note_on_c, 0, 83, 0
2, 218880, Note_on_c, 0, 80, 48
2, 218889, Note_on_c, 0, 82, 0
2, 218999, Note_on_c, 0, 80, 0
2, 219000, Note_on_c, 0, 84, 127
2, 219179, Note_on_c, 0, 84, 0
2, 219180, Note_on_c, 0, 82, 127
2, 219209, Note_on_c, 0, 82, 0
2, 219240, Note_on_c, 0, 80, 127
2, 219299, Note_on_c, 0, 80, 0
2, 219360, Note_on_c, 0, 79, 127
2, 219419, Note_on_c, 0, 79, 0
2, 219480, Note_on_c, 0, 77, 127
2, 219539, Note_on_c, 0, 77, 0
2, 219600, Note_on_c, 0, 75, 48
2, 219719, Note_on_c, 0, 75, 0
2, 221040, Note_on_c, 0, 87, 56
2, 221040, Note_on_c, 0, 75, 56
2, 221819, Note_on_c, 0, 75, 0
2, 221819, Note_on_c, 0, 87, 0
2, 221820, Note_on_c, 0, 82, 74
2, 221849, Note_on_c, 0, 82, 0
2, 221880, Note_on_c, 0, 82, 76
2, 221909, Note_on_c, 0, 82, 0
2, 221940, Note_on_c, 0, 75, 78
2, 221940, Note_on_c, 0, 82, 78
2, 221969, Note_on_c, 0, 82, 0
2, 221969, Note_on_c, 0, 75, 0
2, 222000, Note_on_c, 0, 77, 80
2, 222000, Note_on_c, 0, 86, 80
2, 222029, Note_on_c, 0, 86, 0
2, 222029, Note_on_c, 0, 77, 0
2, 222060, Note_on_c, 0, 79, 82
2, 222060, Note_on_c, 0, 87, 82
2, 222089, Note_on_c, 0, 87, 0
2, 222089, Note_on_c, 0, 79, 0
2, 222120, Note_on_c, 0, 80, 84
2, 222120, Note_on_c, 0, 89, 84
2, 222479, Note_on_c, 0, 89, 0
2, 222479, Note_on_c, 0, 80, 0
2, 222480, Note_on_c, 0, 89, 96
2, 222480, Note_on_c, 0, 80, 96
2, 222539, Note_on_c, 0, 80, 0
2, 222539, Note_on_c, 0, 89, 0
2, 222600, Note_on_c, 0, 86, 96
2, 222600, Note_on_c, 0, 89, 96
2, 222659, Note_on_c, 0, 89, 0
2, 222659, Note_on_c, 0, 86, 0
2, 223140, Note_on_c, 0, 89, 96
2, 223140, Note_on_c, 0, 86, 96
2, 223199, Note_on_c, 0, 86, 0
2, 223199, Note_on_c, 0, 89, 0
2, 223200, Note_on_c, 0, 84, 96
2, 223200, Note_on_c, 0, 87, 96
2, 223259, Note_on_c, 0, 87, 0
2, 223259, Note_on_c, 0, 84, 0
2, 223320, Note_on_c, 0, 87, 96
2, 223320, Note_on_c, 0, 84, 96
2, 223379, Note_on_c, 0, 84, 0
2, 223379, Note_on_c, 0, 87, 0
2, 223860, Note_on_c, 0, 84, 96
2, 223860, Note_on_c, 0, 79, 96
2, 223919, Note_on_c, 0, 79, 0
2, 223919, Note_on_c, 0, 84, 0
2, 223920, Note_on_c, 0, 79, 96
2, 223920, Note_on_c, 0, 85, 96
2, 223979, Note_on_c, 0, 85, 0
2, 223979, Note_on_c, 0, 79, 0
2, 224040, Note_on_c, 0, 79, 96
2, 224040, Note_on_c, 0, 76, 96
2, 224099, Note_on_c, 0, 76, 0
2, 224099, Note_on_c, 0, 79, 0
2, 224580, Note_on_c, 0, 85, 96
2, 224580, Note_on_c, 0, 79, 96
2, 224609, Note_on_c, 0, 79, 0
2, 224609, Note_on_c, 0, 85, 0
2, 224640, Note_on_c, 0, 80, 96
2, 224640, Note_on_c, 0, 84, 96
2, 224669, Note_on_c, 0, 84, 0
2, 224669, Note_on_c, 0, 80, 0
2, 224700, Note_on_c, 0, 72, 96
2, 224700, Note_on_c, 0, 84, 96
2, 224819, Note_on_c, 0, 84, 0
2, 224819, Note_on_c, 0, 72, 0
2, 224820, Note_on_c, 0, 84, 96
2, 224820, Note_on_c, 0, 75, 96
2, 224849, Note_on_c, 0, 75, 0
2, 224849, Note_on_c, 0, 84, 0
2, 224880, Note_on_c, 0, 86, 96
2, 224880, Note_on_c, 0, 74, 96
2, 224909, Note_on_c, 0, 74, 0
2, 224909, Note_on_c, 0, 86, 0
2, 224940, Note_on_c, 0, 79, 96
2, 224940, Note_on_c, 0, 77, 96
2, 224969, Note_on_c, 0, 77, 0
2, 224969, Note_on_c, 0, 79, 0
2, 225000, Note_on_c, 0, 79, 96
2, 225000, Note_on_c, 0, 75, 96
2, 225029, Note_on_c, 0, 75, 0
2, 225029, Note_on_c, 0, 79, 0
2, 225060, Note_on_c, 0, 87, 96
2, 225060, Note_on_c, 0, 80, 96
2, 225179, Note_on_c, 0, 80, 0
2, 225179, Note_on_c, 0, 87, 0
2, 225180, Note_on_c, 0, 80, 96
2, 225180, Note_on_c, 0, 87, 96
2, 225209, Note_on_c, 0, 87, 0
2, 225209, Note_on_c, 0, 80, 0
2, 225240, Note_on_c, 0, 89, 96
2, 225240, Note_on_c, 0, 80, 96
2, 225269, Note_on_c, 0, 80, 0
2, 225269, Note_on_c, 0, 89, 0
2, 225300, Note_on_c, 0, 82, 96
2, 225300, Note_on_c, 0, 80, 96
2, 225329, Note_on_c, 0, 80, 0
2, 225329, Note_on_c, 0, 82, 0
2, 225360, Note_on_c, 0, 82, 96
2, 225360, Note_on_c, 0, 79, 96
2, 225479, Note_on_c, 0, 79, 0
2, 225479, Note_on_c, 0, 82, 0
2, 225480, Note_on_c, 0, 87, 96
2, 225480, Note_on_c, 0, 79, 96
2, 225599, Note_on_c, 0, 87, 0
2, 225600, Note_on_c, 0, 80, 96
2, 225600, Note_on_c, 0, 87, 96
2, 225609, Note_on_c, 0, 79, 0
2, 225719, Note_on_c, 0, 87, 0
2, 225719, Note_on_c, 0, 80, 0
2, 225720, Note_on_c, 0, 87, 96
2, 225720, Note_on_c, 0, 81, 96
2, 225839, Note_on_c, 0, 87, 0
2, 225840, Note_on_c, 0, 87, 96
2, 225840, Note_on_c, 0, 82, 96
2, 225849, Note_on_c, 0, 81, 0
2, 225959, Note_on_c, 0, 87, 0
2, 225960, Note_on_c, 0, 87, 96
2, 225960, Note_on_c, 0, 83, 96
2, 225969, Note_on_c, 0, 82, 0
2, 226079, Note_on_c, 0, 83, 0
2, 226079, Note_on_c, 0, 87, 0
2, 226080, Note_on_c, 0, 84, 96
2, 226080, Note_on_c, 0, 87, 96
2, 226320, Note_on_c, 0, 88, 96
2, 226329, Note_on_c, 0, 87, 0
2, 226440, Note_on_c, 0, 89, 96
2, 226449, Note_on_c, 0, 88, 0
2, 226559, Note_on_c, 0, 89, 0
2, 226559, Note_on_c, 0, 84, 0
2, 227520, Note_on_c, 0, 82, 112
2, 228299, Note_on_c, 0, 82, 0
2, 228300, Note_on_c, 0, 81, 127
2, 228329, Note_on_c, 0, 81, 0
2, 228360, Note_on_c, 0, 80, 127
2, 228389, Note_on_c, 0, 80, 0
2, 228420, Note_on_c, 0, 91, 127
2, 228420, Note_on_c, 0, 79, 127
2, 228449, Note_on_c, 0, 79, 0
2, 228449, Note_on_c, 0, 91, 0
2, 228480, Note_on_c, 0, 89, 127
2, 228480, Note_on_c, 0, 77, 127
2, 228509, Note_on_c, 0, 77, 0
2, 228509, Note_on_c, 0, 89, 0
2, 228540, Note_on_c, 0, 87, 127
2, 228540, Note_on_c, 0, 75, 127
2, 228569, Note_on_c, 0, 75, 0
2, 228569, Note_on_c, 0, 87, 0
2, 228600, Note_on_c, 0, 86, 127
2, 228600, Note_on_c, 0, 74, 127
2, 228629, Note_on_c, 0, 74, 0
2, 228629, Note_on_c, 0, 86, 0
2, 228660, Note_on_c, 0, 84, 127
2, 228660, Note_on_c, 0, 72, 127
2, 228689, Note_on_c, 0, 72, 0
2, 228689, Note_on_c, 0, 84, 0
2, 228720, Note_on_c, 0, 82, 127
2, 228720, Note_on_c, 0, 70, 127
2, 228749, Note_on_c, 0, 70, 0
2, 228749, Note_on_c, 0, 82, 0
2, 228780, Note_on_c, 0, 80, 127
2, 228809, Note_on_c, 0, 80, 0
2, 228840, Note_on_c, 0, 79, 127
2, 228869, Note_on_c, 0, 79, 0
2, 228900, Note_on_c, 0, 77, 127
2, 228929, Note_on_c, 0, 77, 0
2, 228960, Note_on_c, 0, 75, 127
2, 229079, Note_on_c, 0, 75, 0
2, 231720, Note_on_c, 0, 82, 96
2, 231960, Note_on_c, 0, 80, 84
2, 231969, Note_on_c, 0, 82, 0
2, 232020, Note_on_c, 0, 78, 72
2, 232029, Note_on_c, 0, 80, 0
2, 232080, Note_on_c, 0, 77, 64
2, 232089, Note_on_c, 0, 78, 0
2, 232140, Note_on_c, 0, 75, 56
2, 232149, Note_on_c, 0, 77, 0
2, 232199, Note_on_c, 0, 75, 0
2, 232680, Note_on_c, 0, 83, 48
2, 232769, Note_on_c, 0, 83, 0
2, 232800, Note_on_c, 0, 83, 64
2, 232889, Note_on_c, 0, 83, 0
2, 232920, Note_on_c, 0, 83, 96
2, 233279, Note_on_c, 0, 83, 0
2, 237840, Note_on_c, 0, 68, 78
2, 237869, Note_on_c, 0, 68, 0
2, 237900, Note_on_c, 0, 70, 80
2, 237929, Note_on_c, 0, 70, 0
2, 237960, Note_on_c, 0, 72, 82
2, 237989, Note_on_c, 0, 72, 0
2, 238020, Note_on_c, 0, 74, 84
2, 238049, Note_on_c, 0, 74, 0
2, 238080, Note_on_c, 0, 75, 87
2, 238109, Note_on_c, 0, 75, 0
2, 238140, Note_on_c, 0, 77, 89
2, 238169, Note_on_c, 0, 77, 0
2, 238200, Note_on_c, 0, 79, 92
2, 238229, Note_on_c, 0, 79, 0
2, 238260, Note_on_c, 0, 80, 94
2, 238289, Note_on_c, 0, 80, 0
2, 238320, Note_on_c, 0, 82, 96
2, 238439, Note_on_c, 0, 82, 0
2, 238440, Note_on_c, 0, 82, 112
2, 238679, Note_on_c, 0, 82, 0
2, 238800, Note_on_c, 0, 82, 112
2, 239039, Note_on_c, 0, 82, 0
2, 239160, Note_on_c, 0, 82, 112
2, 239399, Note_on_c, 0, 82, 0
2, 239520, Note_on_c, 0, 82, 112
2, 239639, Note_on_c, 0, 82, 0
2, 239640, Note_on_c, 0, 82, 96
2, 239759, Note_on_c, 0, 82, 0
2, 239760, Note_on_c, 0, 82, 127
2, 239819, Note_on_c, 0, 82, 0
2, 239880, Note_on_c, 0, 82, 127
2, 240059, Note_on_c, 0, 82, 0
2, 240060, Note_on_c, 0, 91, 127
2, 240060, Note_on_c, 0, 79, 127
2, 240119, Note_on_c, 0, 79, 0
2, 240119, Note_on_c, 0, 91, 0
2, 240120, Note_on_c, 0, 87, 127
2, 240120, Note_on_c, 0, 75, 127
2, 240179, Note_on_c, 0, 75, 0
2, 240179, Note_on_c, 0, 87, 0
2, 240240, Note_on_c, 0, 91, 127
2, 240240, Note_on_c, 0, 79, 127
2, 240419, Note_on_c, 0, 79, 0
2, 240419, Note_on_c, 0, 91, 0
2, 240420, Note_on_c, 0, 82, 127
2, 240420, Note_on_c, 0, 70, 127
2, 240479, Note_on_c, 0, 70, 0
2, 240479, Note_on_c, 0, 82, 0
2, 240480, Note_on_c, 0, 89, 127
2, 240480, Note_on_c, 0, 77, 127
2, 240539, Note_on_c, 0, 77, 0
2, 240539, Note_on_c, 0, 89, 0
2, 240600, Note_on_c, 0, 80, 127
2, 240600, Note_on_c, 0, 92, 127
2, 240779, Note_on_c, 0, 92, 0
2, 240779, Note_on_c, 0, 80, 0
2, 240780, Note_on_c, 0, 82, 127
2, 240780, Note_on_c, 0, 70, 127
2, 240839, Note_on_c, 0, 70, 0
2, 240839, Note_on_c, 0, 82, 0
2, 240840, Note_on_c, 0, 86, 127
2, 240840, Note_on_c, 0, 74, 127
2, 240899, Note_on_c, 0, 74, 0
2, 240899, Note_on_c, 0, 86, 0
2, 240960, Note_on_c, 0, 77, 127
2, 240960, Note_on_c, 0, 89, 127
2, 241139, Note_on_c, 0, 89, 0
2, 241139, Note_on_c, 0, 77, 0
2, 241140, Note_on_c, 0, 82, 127
2, 241140, Note_on_c, 0, 70, 127
2, 241199, Note_on_c, 0, 70, 0
2, 241199, Note_on_c, 0, 82, 0
2, 241200, Note_on_c, 0, 87, 127
2, 241200, Note_on_c, 0, 75, 127
2, 241499, Note_on_c, 0, 75, 0
2, 241500, Note_on_c, 0, 81, 127
2, 241560, Note_on_c, 0, 82, 127
2, 241569, Note_on_c, 0, 81, 0
2, 241679, Note_on_c, 0, 82, 0
2, 241679, Note_on_c, 0, 87, 0
2, 242940, Note_on_c, 0, 83, 127
2, 242940, Note_on_c, 0, 79, 127
2, 242999, Note_on_c, 0, 79, 0
2, 242999, Note_on_c, 0, 83, 0
2, 243000, Note_on_c, 0, 79, 127
2, 243000, Note_on_c, 0, 84, 127
2, 243029, Note_on_c, 0, 84, 0
2, 243029, Note_on_c, 0, 79, 0
2, 243060, Note_on_c, 0, 86, 127
2, 243060, Note_on_c, 0, 79, 127
2, 243089, Note_on_c, 0, 79, 0
2, 243089, Note_on_c, 0, 86, 0
2, 243120, Note_on_c, 0, 79, 127
2, 243120, Note_on_c, 0, 87, 127
2, 243149, Note_on_c, 0, 87, 0
2, 243149, Note_on_c, 0, 79, 0
2, 243180, Note_on_c, 0, 88, 127
2, 243180, Note_on_c, 0, 84, 127
2, 243209, Note_on_c, 0, 84, 0
2, 243209, Note_on_c, 0, 88, 0
2, 243240, Note_on_c, 0, 84, 127
2, 243240, Note_on_c, 0, 89, 127
2, 243269, Note_on_c, 0, 89, 0
2, 243269, Note_on_c, 0, 84, 0
2, 243300, Note_on_c, 0, 84, 127
2, 243300, Note_on_c, 0, 90, 127
2, 243329, Note_on_c, 0, 90, 0
2, 243329, Note_on_c, 0, 84, 0
2, 243360, Note_on_c, 0, 91, 127
2, 243360, Note_on_c, 0, 83, 127
2, 243419, Note_on_c, 0, 83, 0
2, 243419, Note_on_c, 0, 91, 0
2, 243480, Note_on_c, 0, 89, 127
2, 243539, Note_on_c, 0, 89, 0
2, 243600, Note_on_c, 0, 87, 127
2, 243659, Note_on_c, 0, 87, 0
2, 243840, Note_on_c, 0, 85, 127
2, 243899, Note_on_c, 0, 85, 0
2, 243960, Note_on_c, 0, 84, 127
2, 244019, Note_on_c, 0, 84, 0
2, 244200, Note_on_c, 0, 87, 127
2, 244259, Note_on_c, 0, 87, 0
2, 244320, Note_on_c, 0, 86, 127
2, 244379, Note_on_c, 0, 86, 0
2, 244560, Note_on_c, 0, 89, 127
2, 244619, Note_on_c, 0, 89, 0
2, 244680, Note_on_c, 0, 87, 127
2, 244739, Note_on_c, 0, 87, 0
2, 244920, Note_on_c, 0, 85, 127
2, 244979, Note_on_c, 0, 85, 0
2, 245040, Note_on_c, 0, 84, 127
2, 245099, Note_on_c, 0, 84, 0
2, 245280, Note_on_c, 0, 87, 127
2, 245339, Note_on_c, 0, 87, 0
2, 245520, Note_on_c, 0, 87, 127
2, 245579, Note_on_c, 0, 87, 0
2, 245760, Note_on_c, 0, 87, 127
2, 245819, Note_on_c, 0, 87, 0
2, 246000, Note_on_c, 0, 87, 127
2, 246059, Note_on_c, 0, 87, 0
2, 246240, Note_on_c, 0, 87, 127
2, 246299, Note_on_c, 0, 87, 0
2, 246480, Note_on_c, 0, 87, 127
2, 246539, Note_on_c, 0, 87, 0
2, 248280, Note_on_c, 0, 78, 48
2, 248339, Note_on_c, 0, 78, 0
2, 248520, Note_on_c, 0, 77, 48
2, 248579, Note_on_c, 0, 77, 0
2, 248760, Note_on_c, 0, 80, 48
2, 248819, Note_on_c, 0, 80, 0
2, 249000, Note_on_c, 0, 80, 48
2, 249059, Note_on_c, 0, 80, 0
2, 249240, Note_on_c, 0, 79, 48
2, 249299, Note_on_c, 0, 79, 0
2, 249480, Note_on_c, 0, 84, 64
2, 249480, Note_on_c, 0, 72, 64
2, 250019, Note_on_c, 0, 72, 0
2, 250019, Note_on_c, 0, 84, 0
2, 250020, Note_on_c, 0, 80, 87
2, 250020, Note_on_c, 0, 84, 87
2, 250080, Note_on_c, 0, 79, 92
2, 250080, Note_on_c, 0, 82, 92
2, 250089, Note_on_c, 0, 84, 0
2, 250089, Note_on_c, 0, 80, 0
2, 250140, Note_on_c, 0, 77, 97
2, 250140, Note_on_c, 0, 80, 97
2, 250149, Note_on_c, 0, 79, 0
2, 250149, Note_on_c, 0, 82, 0
2, 250199, Note_on_c, 0, 77, 0
2, 250199, Note_on_c, 0, 80, 0
2, 250200, Note_on_c, 0, 79, 102
2, 250200, Note_on_c, 0, 75, 102
2, 250229, Note_on_c, 0, 75, 0
2, 250229, Note_on_c, 0, 79, 0
2, 250260, Note_on_c, 0, 75, 107
2, 250289, Note_on_c, 0, 75, 0
2, 250320, Note_on_c, 0, 75, 107
2, 250320, Note_on_c, 0, 79, 107
2, 250349, Note_on_c, 0, 79, 0
2, 250349, Note_on_c, 0, 75, 0
2, 250380, Note_on_c, 0, 82, 112
2, 250380, Note_on_c, 0, 79, 107
2, 250409, Note_on_c, 0, 79, 0
2, 250409, Note_on_c, 0, 82, 0
2, 250440, Note_on_c, 0, 79, 117
2, 250440, Note_on_c, 0, 87, 117
2, 250469, Note_on_c, 0, 87, 0
2, 250469, Note_on_c, 0, 79, 0
2, 250500, Note_on_c, 0, 91, 122
2, 250500, Note_on_c, 0, 82, 122
2, 250529, Note_on_c, 0, 82, 0
2, 250529, Note_on_c, 0, 91, 0
2, 250560, Note_on_c, 0, 82, 127
2, 250919, Note_on_c, 0, 82, 0
2, 250920, Note_on_c, 0, 75, 96
2, 251039, Note_on_c, 0, 75, 0
2, 251280, Note_on_c, 0, 87, 96
2, 251399, Note_on_c, 0, 87, 0
2, 251640, Note_on_c, 0, 87, 96
2, 251759, Note_on_c, 0, 87, 0
2, 252000, Note_on_c, 0, 86, 96
2, 252000, Note_on_c, 0, 87, 96
2, 252059, Note_on_c, 0, 87, 0
2, 252059, Note_on_c, 0, 86, 0
2, 252120, Note_on_c, 0, 86, 96
2, 252120, Note_on_c, 0, 87, 96
2, 252179, Note_on_c, 0, 87, 0
2, 252179, Note_on_c, 0, 86, 0
2, 252240, Note_on_c, 0, 86, 96
2, 252240, Note_on_c, 0, 87, 96
2, 252299, Note_on_c, 0, 87, 0
2, 252299, Note_on_c, 0, 86, 0
2, 252360, Note_on_c, 0, 87, 96
2, 252479, Note_on_c, 0, 87, 0
2, 252900, Note_on_c, 0, 75, 48
2, 252960, Note_on_c, 0, 79, 48
2, 252969, Note_on_c, 0, 75, 0
2, 253020, Note_on_c, 0, 82, 48
2, 253029, Note_on_c, 0, 79, 0
2, 253079, Note_on_c, 0, 82, 0
2, 253080, Note_on_c, 0, 87, 48
2, 253320, Note_on_c, 0, 91, 48
2, 253329, Note_on_c, 0, 87, 0
2, 253440, Note_on_c, 0, 87, 48
2, 253449, Note_on_c, 0, 91, 0
2, 253680, Note_on_c, 0, 82, 48
2, 253689, Note_on_c, 0, 87, 0
2, 253800, Note_on_c, 0, 87, 48
2, 253809, Note_on_c, 0, 82, 0
2, 253919, Note_on_c, 0, 87, 0
2, 254520, Note_on_c, 0, 89, 96
2, 254520, Note_on_c, 0, 85, 96
2, 255239, Note_on_c, 0, 85, 0
2, 255240, Note_on_c, 0, 85, 48
2, 255249, Note_on_c, 0, 89, 0
2, 255359, Note_on_c, 0, 85, 0
2, 255960, Note_on_c, 0, 84, 127
2, 256019, Note_on_c, 0, 84, 0
2, 256020, Note_on_c, 0, 84, 127
2, 256079, Note_on_c, 0, 84, 0
2, 256080, Note_on_c, 0, 84, 127
2, 256139, Note_on_c, 0, 84, 0
2, 256140, Note_on_c, 0, 84, 127
2, 256199, Note_on_c, 0, 84, 0
2, 256200, Note_on_c, 0, 88, 127
2, 256259, Note_on_c, 0, 88, 0
2, 256260, Note_on_c, 0, 88, 127
2, 256319, Note_on_c, 0, 88, 0
2, 256320, Note_on_c, 0, 84, 127
2, 256379, Note_on_c, 0, 84, 0
2, 256380, Note_on_c, 0, 84, 127
2, 256439, Note_on_c, 0, 84, 0
2, 256440, Note_on_c, 0, 84, 127
2, 256499, Note_on_c, 0, 84, 0
2, 256500, Note_on_c, 0, 84, 127
2, 256559, Note_on_c, 0, 84, 0
2, 256560, Note_on_c, 0, 79, 127
2, 256619, Note_on_c, 0, 79, 0
2, 256620, Note_on_c, 0, 79, 127
2, 256679, Note_on_c, 0, 79, 0
2, 256680, Note_on_c, 0, 84, 48
2, 256799, Note_on_c, 0, 84, 0
2, 265680, Note_on_c, 0, 82, 64
2, 266159, Note_on_c, 0, 82, 0
2, 266160, Note_on_c, 0, 87, 48
2, 266280, Note_on_c, 0, 86, 48
2, 266289, Note_on_c, 0, 87, 0
2, 266400, Note_on_c, 0, 87, 64
2, 266409, Note_on_c, 0, 86, 0
2, 266580, Note_on_c, 0, 89, 48
2, 266589, Note_on_c, 0, 87, 0
2, 266640, Note_on_c, 0, 90, 48
2, 266649, Note_on_c, 0, 89, 0
2, 266759, Note_on_c, 0, 90, 0
2, 267300, Note_on_c, 0, 82, 48
2, 267360, Note_on_c, 0, 84, 48
2, 267369, Note_on_c, 0, 82, 0
2, 267420, Note_on_c, 0, 86, 48
2, 267429, Note_on_c, 0, 84, 0
2, 267479, Note_on_c, 0, 86, 0
2, 267480, Note_on_c, 0, 87, 48
2, 267599, Note_on_c, 0, 87, 0
2, 267600, Note_on_c, 0, 87, 48
2, 267720, Note_on_c, 0, 86, 48
2, 267729, Note_on_c, 0, 87, 0
2, 267840, Note_on_c, 0, 87, 64
2, 267849, Note_on_c, 0, 86, 0
2, 268020, Note_on_c, 0, 89, 48
2, 268029, Note_on_c, 0, 87, 0
2, 268080, Note_on_c, 0, 90, 48
2, 268089, Note_on_c, 0, 89, 0
2, 268199, Note_on_c, 0, 90, 0
2, 268200, Note_on_c, 0, 89, 48
2, 268319, Note_on_c, 0, 89, 0
2, 271800, Note_on_c, 0, 82, 32
2, 272400, Note_on_c, 0, 83, 32
2, 272409, Note_on_c, 0, 82, 0
2, 272520, Note_on_c, 0, 84, 32
2, 272529, Note_on_c, 0, 83, 0
2, 272639, Note_on_c, 0, 84, 0
2, 273240, Note_on_c, 0, 84, 32
2, 273840, Note_on_c, 0, 85, 32
2, 273849, Note_on_c, 0, 84, 0
2, 273960, Note_on_c, 0, 86, 32
2, 273969, Note_on_c, 0, 85, 0
2, 274079, Note_on_c, 0, 86, 0
2, 276960, Note_on_c, 0, 86, 48
2, 277319, Note_on_c, 0, 86, 0
2, 277320, Note_on_c, 0, 86, 56
2, 277679, Note_on_c, 0, 86, 0
2, 277680, Note_on_c, 0, 86, 64
2, 277799, Note_on_c, 0, 86, 0
2, 277800, Note_on_c, 0, 86, 60
2, 277919, Note_on_c, 0, 86, 0
2, 277920, Note_on_c, 0, 86, 56
2, 278040, Note_on_c, 0, 87, 52
2, 278049, Note_on_c, 0, 86, 0
2, 278160, Note_on_c, 0, 89, 48
2, 278169, Note_on_c, 0, 87, 0
2, 278340, Note_on_c, 0, 87, 48
2, 278349, Note_on_c, 0, 89, 0
2, 278400, Note_on_c, 0, 86, 48
2, 278409, Note_on_c, 0, 87, 0
2, 278460, Note_on_c, 0, 87, 48
2, 278469, Note_on_c, 0, 86, 0
2, 278520, Note_on_c, 0, 89, 48
2, 278529, Note_on_c, 0, 87, 0
2, 278580, Note_on_c, 0, 87, 48
2, 278589, Note_on_c, 0, 89, 0
2, 278639, Note_on_c, 0, 87, 0
2, 278700, Note_on_c, 0, 87, 48
2, 278760, Note_on_c, 0, 86, 48
2, 278769, Note_on_c, 0, 87, 0
2, 278820, Note_on_c, 0, 87, 48
2, 278829, Note_on_c, 0, 86, 0
2, 278880, Note_on_c, 0, 89, 48
2, 278889, Note_on_c, 0, 87, 0
2, 278940, Note_on_c, 0, 87, 48
2, 278949, Note_on_c, 0, 89, 0
2, 278999, Note_on_c, 0, 87, 0
2, 279060, Note_on_c, 0, 84, 48
2, 279120, Note_on_c, 0, 83, 48
2, 279129, Note_on_c, 0, 84, 0
2, 279180, Note_on_c, 0, 84, 48
2, 279189, Note_on_c, 0, 83, 0
2, 279240, Note_on_c, 0, 86, 48
2, 279249, Note_on_c, 0, 84, 0
2, 279300, Note_on_c, 0, 84, 48
2, 279309, Note_on_c, 0, 86, 0
2, 279359, Note_on_c, 0, 84, 0
2, 279420, Note_on_c, 0, 84, 48
2, 279480, Note_on_c, 0, 83, 48
2, 279489, Note_on_c, 0, 84, 0
2, 279540, Note_on_c, 0, 84, 48
2, 279549, Note_on_c, 0, 83, 0
2, 279600, Note_on_c, 0, 86, 48
2, 279609, Note_on_c, 0, 84, 0
2, 279660, Note_on_c, 0, 84, 48
2, 279669, Note_on_c, 0, 86, 0
2, 279719, Note_on_c, 0, 84, 0
2, 279720, Note_on_c, 0, 82, 48
2, 280199, Note_on_c, 0, 82, 0
2, 280200, Note_on_c, 0, 79, 56
2, 280200, Note_on_c, 0, 87, 56
2, 280259, Note_on_c, 0, 87, 0
2, 280259, Note_on_c, 0, 79, 0
2, 280320, Note_on_c, 0, 79, 58
2, 280320, Note_on_c, 0, 87, 58
2, 280379, Note_on_c, 0, 87, 0
2, 280379, Note_on_c, 0, 79, 0
2, 280440, Note_on_c, 0, 77, 60
2, 280440, Note_on_c, 0, 86, 60
2, 280499, Note_on_c, 0, 86, 0
2, 280499, Note_on_c, 0, 77, 0
2, 280560, Note_on_c, 0, 80, 62
2, 280560, Note_on_c, 0, 89, 62
2, 280619, Note_on_c, 0, 89, 0
2, 280619, Note_on_c, 0, 80, 0
2, 280680, Note_on_c, 0, 80, 64
2, 280680, Note_on_c, 0, 89, 64
2, 280739, Note_on_c, 0, 89, 0
2, 280739, Note_on_c, 0, 80, 0
2, 280800, Note_on_c, 0, 80, 48
2, 280800, Note_on_c, 0, 86, 48
2, 280859, Note_on_c, 0, 86, 0
2, 280859, Note_on_c, 0, 80, 0
2, 280920, Note_on_c, 0, 80, 48
2, 280920, Note_on_c, 0, 86, 48
2, 280979, Note_on_c, 0, 86, 0
2, 280979, Note_on_c, 0, 80, 0
2, 281040, Note_on_c, 0, 80, 48
2, 281040, Note_on_c, 0, 86, 48
2, 281099, Note_on_c, 0, 86, 0
2, 281099, Note_on_c, 0, 80, 0
2, 281160, Note_on_c, 0, 79, 48
2, 281160, Note_on_c, 0, 87, 48
2, 281219, Note_on_c, 0, 87, 0
2, 281219, Note_on_c, 0, 79, 0
2, 285480, Note_on_c, 0, 82, 48
2, 286979, Note_on_c, 0, 82, 0
2, 286980, Note_on_c, 0, 79, 49
2, 287010, Note_on_c, 0, 80, 49
2, 287019, Note_on_c, 0, 79, 0
2, 287040, Note_on_c, 0, 82, 50
2, 287049, Note_on_c, 0, 80, 0
2, 287069, Note_on_c, 0, 82, 0
2, 287100, Note_on_c, 0, 82, 51
2, 287129, Note_on_c, 0, 82, 0
2, 287160, Note_on_c, 0, 84, 52
2, 287189, Note_on_c, 0, 84, 0
2, 287220, Note_on_c, 0, 86, 53
2, 287249, Note_on_c, 0, 86, 0
2, 287280, Note_on_c, 0, 87, 54
2, 287309, Note_on_c, 0, 87, 0
2, 287340, Note_on_c, 0, 82, 55
2, 287369, Note_on_c, 0, 82, 0
2, 287400, Note_on_c, 0, 84, 56
2, 287429, Note_on_c, 0, 84, 0
2, 287460, Note_on_c, 0, 86, 57
2, 287489, Note_on_c, 0, 86, 0
2, 287520, Note_on_c, 0, 87, 58
2, 287549, Note_on_c, 0, 87, 0
2, 287580, Note_on_c, 0, 89, 59
2, 287609, Note_on_c, 0, 89, 0
2, 287640, Note_on_c, 0, 91, 76
2, 287669, Note_on_c, 0, 91, 0
2, 287700, Note_on_c, 0, 91, 61
2, 287730, Note_on_c, 0, 89, 61
2, 287739, Note_on_c, 0, 91, 0
2, 287760, Note_on_c, 0, 87, 62
2, 287769, Note_on_c, 0, 89, 0
2, 287789, Note_on_c, 0, 87, 0
2, 287820, Note_on_c, 0, 86, 63
2, 287849, Note_on_c, 0, 86, 0
2, 287880, Note_on_c, 0, 84, 64
2, 287909, Note_on_c, 0, 84, 0
2, 287940, Note_on_c, 0, 82, 65
2, 287969, Note_on_c, 0, 82, 0
2, 288000, Note_on_c, 0, 80, 66
2, 288029, Note_on_c, 0, 80, 0
2, 288060, Note_on_c, 0, 79, 67
2, 288089, Note_on_c, 0, 79, 0
2, 288120, Note_on_c, 0, 77, 68
2, 288149, Note_on_c, 0, 77, 0
2, 288180, Note_on_c, 0, 75, 69
2, 288209, Note_on_c, 0, 75, 0
2, 288240, Note_on_c, 0, 74, 70
2, 288269, Note_on_c, 0, 74, 0
2, 288300, Note_on_c, 0, 72, 71
2, 288329, Note_on_c, 0, 72, 0
2, 288360, Note_on_c, 0, 70, 72
2, 288389, Note_on_c, 0, 70, 0
2, 288420, Note_on_c, 0, 70, 73
2, 288450, Note_on_c, 0, 72, 73
2, 288459, Note_on_c, 0, 70, 0
2, 288480, Note_on_c, 0, 74, 74
2, 288489, Note_on_c, 0, 72, 0
2, 288509, Note_on_c, 0, 74, 0
2, 288540, Note_on_c, 0, 75, 75
2, 288569, Note_on_c, 0, 75, 0
2, 288600, Note_on_c, 0, 77, 76
2, 288629, Note_on_c, 0, 77, 0
2, 288660, Note_on_c, 0, 79, 77
2, 288689, Note_on_c, 0, 79, 0
2, 288720, Note_on_c, 0, 80, 78
2, 288749, Note_on_c, 0, 80, 0
2, 288780, Note_on_c, 0, 70, 79
2, 288780, Note_on_c, 0, 82, 79
2, 288810, Note_on_c, 0, 72, 79
2, 288810, Note_on_c, 0, 84, 79
2, 288819, Note_on_c, 0, 82, 0
2, 288819, Note_on_c, 0, 70, 0
2, 288840, Note_on_c, 0, 74, 80
2, 288840, Note_on_c, 0, 86, 80
2, 288849, Note_on_c, 0, 72, 0
2, 288849, Note_on_c, 0, 84, 0
2, 288869, Note_on_c, 0, 74, 0
2, 288869, Note_on_c, 0, 86, 0
2, 288900, Note_on_c, 0, 75, 81
2, 288900, Note_on_c, 0, 87, 81
2, 288929, Note_on_c, 0, 87, 0
2, 288929, Note_on_c, 0, 75, 0
2, 288960, Note_on_c, 0, 77, 82
2, 288960, Note_on_c, 0, 89, 82
2, 288989, Note_on_c, 0, 89, 0
2, 288989, Note_on_c, 0, 77, 0
2, 289020, Note_on_c, 0, 79, 83
2, 289020, Note_on_c, 0, 91, 83
2, 289049, Note_on_c, 0, 91, 0
2, 289049, Note_on_c, 0, 79, 0
2, 289080, Note_on_c, 0, 80, 100
2, 289080, Note_on_c, 0, 92, 100
2, 289109, Note_on_c, 0, 92, 0
2, 289109, Note_on_c, 0, 80, 0
2, 289140, Note_on_c, 0, 79, 85
2, 289140, Note_on_c, 0, 91, 85
2, 289169, Note_on_c, 0, 91, 0
2, 289169, Note_on_c, 0, 79, 0
2, 289200, Note_on_c, 0, 77, 86
2, 289200, Note_on_c, 0, 89, 86
2, 289229, Note_on_c, 0, 89, 0
2, 289229, Note_on_c, 0, 77, 0
2, 289260, Note_on_c, 0, 87, 87
2, 289289, Note_on_c, 0, 87, 0
2, 289320, Note_on_c, 0, 86, 88
2, 289349, Note_on_c, 0, 86, 0
2, 289380, Note_on_c, 0, 84, 89
2, 289409, Note_on_c, 0, 84, 0
2, 289440, Note_on_c, 0, 82, 90
2, 289469, Note_on_c, 0, 82, 0
2, 289500, Note_on_c, 0, 84, 91
2, 289529, Note_on_c, 0, 84, 0
2, 289560, Note_on_c, 0, 82, 92
2, 289589, Note_on_c, 0, 82, 0
2, 289620, Note_on_c, 0, 80, 93
2, 289649, Note_on_c, 0, 80, 0
2, 289680, Note_on_c, 0, 79, 94
2, 289709, Note_on_c, 0, 79, 0
2, 289740, Note_on_c, 0, 77, 95
2, 289769, Note_on_c, 0, 77, 0
2, 289800, Note_on_c, 0, 75, 96
2, 289859, Note_on_c, 0, 75, 0
2, 289860, Note_on_c, 0, 87, 96
2, 289919, Note_on_c, 0, 87, 0
2, 289920, Note_on_c, 0, 87, 96
2, 289979, Note_on_c, 0, 87, 0
2, 289980, Note_on_c, 0, 87, 96
2, 290039, Note_on_c, 0, 87, 0
2, 290040, Note_on_c, 0, 91, 96
2, 290099, Note_on_c, 0, 91, 0
2, 290100, Note_on_c, 0, 91, 96
2, 290159, Note_on_c, 0, 91, 0
2, 290160, Note_on_c, 0, 87, 96
2, 290219, Note_on_c, 0, 87, 0
2, 290220, Note_on_c, 0, 87, 96
2, 290279, Note_on_c, 0, 87, 0
2, 290280, Note_on_c, 0, 87, 96
2, 290339, Note_on_c, 0, 87, 0
2, 290340, Note_on_c, 0, 87, 96
2, 290399, Note_on_c, 0, 87, 0
2, 290400, Note_on_c, 0, 82, 96
2, 290459, Note_on_c, 0, 82, 0
2, 290460, Note_on_c, 0, 82, 96
2, 290519, Note_on_c, 0, 82, 0
2, 290520, Note_on_c, 0, 87, 96
2, 290579, Note_on_c, 0, 87, 0
2, 290580, Note_on_c, 0, 87, 96
2, 290639, Note_on_c, 0, 87, 0
2, 290640, Note_on_c, 0, 91, 96
2, 290699, Note_on_c, 0, 91, 0
2, 290700, Note_on_c, 0, 91, 96
2, 290759, Note_on_c, 0, 91, 0
2, 290760, Note_on_c, 0, 82, 96
2, 290819, Note_on_c, 0, 82, 0
2, 290820, Note_on_c, 0, 82, 96
2, 290879, Note_on_c, 0, 82, 0
2, 290880, Note_on_c, 0, 82, 96
2, 290939, Note_on_c, 0, 82, 0
2, 290940, Note_on_c, 0, 82, 96
2, 290999, Note_on_c, 0, 82, 0
2, 291000, Note_on_c, 0, 82, 96
2, 291059, Note_on_c, 0, 82, 0
2, 291060, Note_on_c, 0, 82, 96
2, 291119, Note_on_c, 0, 82, 0
2, 291120, Note_on_c, 0, 82, 96
2, 291179, Note_on_c, 0, 82, 0
2, 291180, Note_on_c, 0, 82, 96
2, 291239, Note_on_c, 0, 82, 0
2, 291240, Note_on_c, 0, 77, 96
2, 291240, Note_on_c, 0, 89, 96
2, 291299, Note_on_c, 0, 89, 0
2, 291299, Note_on_c, 0, 77, 0
2, 291300, Note_on_c, 0, 77, 96
2, 291300, Note_on_c, 0, 89, 96
2, 291359, Note_on_c, 0, 89, 0
2, 291359, Note_on_c, 0, 77, 0
2, 291360, Note_on_c, 0, 77, 96
2, 291360, Note_on_c, 0, 89, 96
2, 291419, Note_on_c, 0, 89, 0
2, 291419, Note_on_c, 0, 77, 0
2, 291420, Note_on_c, 0, 77, 96
2, 291420, Note_on_c, 0, 89, 96
2, 291479, Note_on_c, 0, 89, 0
2, 291479, Note_on_c, 0, 77, 0
2, 291480, Note_on_c, 0, 80, 96
2, 291480, Note_on_c, 0, 92, 96
2, 291539, Note_on_c, 0, 92, 0
2, 291539, Note_on_c, 0, 80, 0
2, 291540, Note_on_c, 0, 80, 96
2, 291540, Note_on_c, 0, 92, 96
2, 291599, Note_on_c, 0, 92, 0
2, 291599, Note_on_c, 0, 80, 0
2, 291600, Note_on_c, 0, 77, 96
2, 291600, Note_on_c, 0, 89, 96
2, 291659, Note_on_c, 0, 89, 0
2, 291659, Note_on_c, 0, 77, 0
2, 291660, Note_on_c, 0, 77, 96
2, 291660, Note_on_c, 0, 89, 96
2, 291719, Note_on_c, 0, 89, 0
2, 291719, Note_on_c, 0, 77, 0
2, 291720, Note_on_c, 0, 77, 96
2, 291720, Note_on_c, 0, 89, 96
2, 291779, Note_on_c, 0, 89, 0
2, 291779, Note_on_c, 0, 77, 0
2, 291780, Note_on_c, 0, 77, 96
2, 291780, Note_on_c, 0, 89, 96
2, 291839, Note_on_c, 0, 89, 0
2, 291839, Note_on_c, 0, 77, 0
2, 291840, Note_on_c, 0, 70, 96
2, 291840, Note_on_c, 0, 82, 96
2, 291899, Note_on_c, 0, 82, 0
2, 291899, Note_on_c, 0, 70, 0
2, 291900, Note_on_c, 0, 70, 96
2, 291900, Note_on_c, 0, 82, 96
2, 291959, Note_on_c, 0, 82, 0
2, 291959, Note_on_c, 0, 70, 0
2, 291960, Note_on_c, 0, 77, 96
2, 291960, Note_on_c, 0, 89, 96
2, 292019, Note_on_c, 0, 89, 0
2, 292019, Note_on_c, 0, 77, 0
2, 292020, Note_on_c, 0, 77, 96
2, 292020, Note_on_c, 0, 89, 96
2, 292079, Note_on_c, 0, 89, 0
2, 292079, Note_on_c, 0, 77, 0
2, 292080, Note_on_c, 0, 80, 96
2, 292080, Note_on_c, 0, 92, 96
2, 292139, Note_on_c, 0, 92, 0
2, 292139, Note_on_c, 0, 80, 0
2, 292140, Note_on_c, 0, 80, 96
2, 292140, Note_on_c, 0, 92, 96
2, 292199, Note_on_c, 0, 92, 0
2, 292199, Note_on_c, 0, 80, 0
2, 292200, Note_on_c, 0, 82, 96
2, 292259, Note_on_c, 0, 82, 0
2, 292260, Note_on_c, 0, 82, 96
2, 292319, Note_on_c, 0, 82, 0
2, 292320, Note_on_c, 0, 82, 96
2, 292379, Note_on_c, 0, 82, 0
2, 292380, Note_on_c, 0, 82, 96
2, 292439, Note_on_c, 0, 82, 0
2, 292440, Note_on_c, 0, 82, 96
2, 292499, Note_on_c, 0, 82, 0
2, 292500, Note_on_c, 0, 82, 96
2, 292559, Note_on_c, 0, 82, 0
2, 292560, Note_on_c, 0, 82, 96
2, 292619, Note_on_c, 0, 82, 0
2, 292620, Note_on_c, 0, 82, 96
2, 292679, Note_on_c, 0, 82, 0
2, 292680, Note_on_c, 0, 82, 96
2, 292739, Note_on_c, 0, 82, 0
2, 292740, Note_on_c, 0, 82, 96
2, 292799, Note_on_c, 0, 82, 0
2, 292800, Note_on_c, 0, 88, 96
2, 292800, Note_on_c, 0, 82, 96
2, 292859, Note_on_c, 0, 82, 0
2, 292859, Note_on_c, 0, 88, 0
2, 292860, Note_on_c, 0, 88, 96
2, 292860, Note_on_c, 0, 82, 96
2, 292919, Note_on_c, 0, 82, 0
2, 292919, Note_on_c, 0, 88, 0
2, 292920, Note_on_c, 0, 88, 96
2, 292920, Note_on_c, 0, 82, 96
2, 292979, Note_on_c, 0, 82, 0
2, 292979, Note_on_c, 0, 88, 0
2, 292980, Note_on_c, 0, 88, 96
2, 292980, Note_on_c, 0, 82, 96
2, 293039, Note_on_c, 0, 82, 0
2, 293039, Note_on_c, 0, 88, 0
2, 293040, Note_on_c, 0, 82, 96
2, 293040, Note_on_c, 0, 88, 96
2, 293399, Note_on_c, 0, 88, 0
2, 293399, Note_on_c, 0, 82, 0
2, 293400, Note_on_c, 0, 89, 96
2, 293400, Note_on_c, 0, 84, 96
2, 293519, Note_on_c, 0, 84, 0
2, 293519, Note_on_c, 0, 89, 0
2, 293520, Note_on_c, 0, 84, 112
2, 293520, Note_on_c, 0, 89, 112
2, 293759, Note_on_c, 0, 89, 0
2, 293759, Note_on_c, 0, 84, 0
2, 293880, Note_on_c, 0, 90, 112
2, 293880, Note_on_c, 0, 84, 112
2, 294119, Note_on_c, 0, 84, 0
2, 294119, Note_on_c, 0, 90, 0
2, 294240, Note_on_c, 0, 87, 112
2, 294240, Note_on_c, 0, 91, 112
2, 294479, Note_on_c, 0, 91, 0
2, 294479, Note_on_c, 0, 87, 0
2, 294600, Note_on_c, 0, 92, 96
2, 294600, Note_on_c, 0, 86, 96
2, 294839, Note_on_c, 0, 86, 0
2, 294839, Note_on_c, 0, 92, 0
2, 294960, Note_on_c, 0, 87, 96
2, 294960, Note_on_c, 0, 91, 96
2, 295199, Note_on_c, 0, 91, 0
2, 295199, Note_on_c, 0, 87, 0
2, 295320, Note_on_c, 0, 89, 96
2, 295320, Note_on_c, 0, 87, 96
2, 295559, Note_on_c, 0, 87, 0
2, 295559, Note_on_c, 0, 89, 0
2, 295560, Note_on_c, 0, 91, 127
2, 295560, Note_on_c, 0, 87, 127
2, 295919, Note_on_c, 0, 87, 0
2, 295919, Note_on_c, 0, 91, 0
2, 295920, Note_on_c, 0, 92, 127
2, 295920, Note_on_c, 0, 86, 127
2, 296159, Note_on_c, 0, 92, 0
2, 296160, Note_on_c, 0, 89, 127
2, 296279, Note_on_c, 0, 89, 0
2, 296279, Note_on_c, 0, 86, 0
2, 296280, Note_on_c, 0, 79, 48
2, 296280, Note_on_c, 0, 87, 48
2, 296399, Note_on_c, 0, 87, 0
2, 296399, Note_on_c, 0, 79, 0
2, 297720, Note_on_c, 0, 75, 48
2, 297720, Note_on_c, 0, 87, 48
2, 298499, Note_on_c, 0, 87, 0
2, 298499, Note_on_c, 0, 75, 0
2, 298500, Note_on_c, 0, 82, 74
2, 298500, Note_on_c, 0, 75, 74
2, 298529, Note_on_c, 0, 75, 0
2, 298529, Note_on_c, 0, 82, 0
2, 298560, Note_on_c, 0, 74, 76
2, 298560, Note_on_c, 0, 82, 76
2, 298589, Note_on_c, 0, 82, 0
2, 298589, Note_on_c, 0, 74, 0
2, 298620, Note_on_c, 0, 82, 78
2, 298620, Note_on_c, 0, 75, 78
2, 298649, Note_on_c, 0, 75, 0
2, 298649, Note_on_c, 0, 82, 0
2, 298680, Note_on_c, 0, 77, 80
2, 298680, Note_on_c, 0, 86, 80
2, 298709, Note_on_c, 0, 86, 0
2, 298709, Note_on_c, 0, 77, 0
2, 298740, Note_on_c, 0, 87, 82
2, 298740, Note_on_c, 0, 79, 82
2, 298769, Note_on_c, 0, 79, 0
2, 298769, Note_on_c, 0, 87, 0
2, 298800, Note_on_c, 0, 89, 84
2, 298800, Note_on_c, 0, 80, 84
2, 298829, Note_on_c, 0, 80, 0
2, 298829, Note_on_c, 0, 89, 0
2, 298860, Note_on_c, 0, 80, 86
2, 298860, Note_on_c, 0, 89, 86
2, 298889, Note_on_c, 0, 89, 0
2, 298889, Note_on_c, 0, 80, 0
2, 298920, Note_on_c, 0, 89, 88
2, 298920, Note_on_c, 0, 80, 88
2, 298949, Note_on_c, 0, 80, 0
2, 298949, Note_on_c, 0, 89, 0
2, 298980, Note_on_c, 0, 80, 90
2, 298980, Note_on_c, 0, 89, 90
2, 299009, Note_on_c, 0, 89, 0
2, 299009, Note_on_c, 0, 80, 0
2, 299040, Note_on_c, 0, 89, 92
2, 299040, Note_on_c, 0, 80, 92
2, 299069, Note_on_c, 0, 80, 0
2, 299069, Note_on_c, 0, 89, 0
2, 299100, Note_on_c, 0, 80, 94
2, 299100, Note_on_c, 0, 89, 94
2, 299129, Note_on_c, 0, 89, 0
2, 299129, Note_on_c, 0, 80, 0
2, 299160, Note_on_c, 0, 89, 96
2, 299160, Note_on_c, 0, 80, 96
2, 299279, Note_on_c, 0, 80, 0
2, 299279, Note_on_c, 0, 89, 0
2, 299280, Note_on_c, 0, 77, 96
2, 299280, Note_on_c, 0, 80, 96
2, 299639, Note_on_c, 0, 80, 0
2, 299639, Note_on_c, 0, 77, 0
2, 299640, Note_on_c, 0, 86, 96
2, 299640, Note_on_c, 0, 80, 96
2, 299999, Note_on_c, 0, 80, 0
2, 299999, Note_on_c, 0, 86, 0
2, 300000, Note_on_c, 0, 89, 96
2, 300000, Note_on_c, 0, 86, 96
2, 300239, Note_on_c, 0, 86, 0
2, 300239, Note_on_c, 0, 89, 0
2, 300240, Note_on_c, 0, 86, 96
2, 300240, Note_on_c, 0, 89, 96
2, 300479, Note_on_c, 0, 89, 0
2, 300479, Note_on_c, 0, 86, 0
2, 300480, Note_on_c, 0, 89, 96
2, 300480, Note_on_c, 0, 86, 96
2, 300539, Note_on_c, 0, 86, 0
2, 300539, Note_on_c, 0, 89, 0
2, 300600, Note_on_c, 0, 86, 96
2, 300600, Note_on_c, 0, 89, 96
2, 300659, Note_on_c, 0, 89, 0
2, 300659, Note_on_c, 0, 86, 0
2, 300720, Note_on_c, 0, 82, 127
2, 300720, Note_on_c, 0, 89, 127
2, 300779, Note_on_c, 0, 89, 0
2, 300779, Note_on_c, 0, 82, 0
2, 300840, Note_on_c, 0, 82, 127
2, 300840, Note_on_c, 0, 89, 127
2, 300899, Note_on_c, 0, 89, 0
2, 300899, Note_on_c, 0, 82, 0
2, 300960, Note_on_c, 0, 82, 127
2, 300960, Note_on_c, 0, 89, 127
2, 301019, Note_on_c, 0, 89, 0
2, 301019, Note_on_c, 0, 82, 0
2, 301080, Note_on_c, 0, 82, 127
2, 301080, Note_on_c, 0, 89, 127
2, 301139, Note_on_c, 0, 89, 0
2, 301139, Note_on_c, 0, 82, 0
2, 301200, Note_on_c, 0, 82, 127
2, 301200, Note_on_c, 0, 89, 127
2, 301259, Note_on_c, 0, 89, 0
2, 301259, Note_on_c, 0, 82, 0
2, 301320, Note_on_c, 0, 82, 127
2, 301320, Note_on_c, 0, 89, 127
2, 301379, Note_on_c, 0, 89, 0
2, 301379, Note_on_c, 0, 82, 0
2, 301440, Note_on_c, 0, 82, 127
2, 301440, Note_on_c, 0, 89, 127
2, 301499, Note_on_c, 0, 89, 0
2, 301499, Note_on_c, 0, 82, 0
2, 301560, Note_on_c, 0, 82, 127
2, 301560, Note_on_c, 0, 89, 127
2, 301619, Note_on_c, 0, 89, 0
2, 301619, Note_on_c, 0, 82, 0
2, 301680, Note_on_c, 0, 82, 127
2, 301680, Note_on_c, 0, 89, 127
2, 301739, Note_on_c, 0, 89, 0
2, 301739, Note_on_c, 0, 82, 0
2, 301800, Note_on_c, 0, 82, 127
2, 301800, Note_on_c, 0, 89, 127
2, 301859, Note_on_c, 0, 89, 0
2, 301859, Note_on_c, 0, 82, 0
2, 301920, Note_on_c, 0, 82, 127
2, 301920, Note_on_c, 0, 89, 127
2, 301979, Note_on_c, 0, 89, 0
2, 301979, Note_on_c, 0, 82, 0
2, 302040, Note_on_c, 0, 91, 127
2, 302040, Note_on_c, 0, 87, 127
2, 302159, Note_on_c, 0, 87, 0
2, 302159, Note_on_c, 0, 91, 0
2, 302400, Note_on_c, 0, 82, 127
2, 302400, Note_on_c, 0, 91, 127
2, 302519, Note_on_c, 0, 91, 0
2, 302519, Note_on_c, 0, 82, 0
2, 302760, Note_on_c, 0, 75, 127
2, 302879, Note_on_c, 0, 75, 0
2, 302879, End_track
3, 0, Start_track
3, 0, MIDI_port, 0
3, 0, Title_t, "Oboes"
3, 0, Program_c, 1, 68
3, 0, Control_c, 1, 7, 127
3, 0, Control_c, 1, 10, 52
3, 0, Control_c, 1, 93, 0
3, 0, Control_c, 1, 91, 0
3, 0, Note_on_c, 1, 79, 96
3, 0, Note_on_c, 1, 75, 96
3, 59, Note_on_c, 1, 75, 0
3, 59, Note_on_c, 1, 79, 0
3, 360, Note_on_c, 1, 75, 96
3, 360, Note_on_c, 1, 79, 96
3, 419, Note_on_c, 1, 79, 0
3, 419, Note_on_c, 1, 75, 0
3, 4320, Note_on_c, 1, 79, 48
3, 4320, Note_on_c, 1, 75, 48
3, 4680, Note_on_c, 1, 80, 48
3, 4680, Note_on_c, 1, 77, 48
3, 4689, Note_on_c, 1, 75, 0
3, 4689, Note_on_c, 1, 79, 0
3, 4800, Note_on_c, 1, 79, 48
3, 4800, Note_on_c, 1, 75, 48
3, 4809, Note_on_c, 1, 80, 0
3, 4809, Note_on_c, 1, 77, 0
3, 4920, Note_on_c, 1, 77, 48
3, 4920, Note_on_c, 1, 74, 48
3, 4929, Note_on_c, 1, 79, 0
3, 4929, Note_on_c, 1, 75, 0
3, 5040, Note_on_c, 1, 75, 48
3, 5049, Note_on_c, 1, 77, 0
3, 5049, Note_on_c, 1, 74, 0
3, 5159, Note_on_c, 1, 75, 0
3, 7920, Note_on_c, 1, 74, 96
3, 7920, Note_on_c, 1, 70, 96
3, 7949, Note_on_c, 1, 70, 0
3, 7949, Note_on_c, 1, 74, 0
3, 7950, Note_on_c, 1, 70, 48
3, 7950, Note_on_c, 1, 74, 48
3, 8279, Note_on_c, 1, 74, 0
3, 8280, Note_on_c, 1, 77, 48
3, 8280, Note_on_c, 1, 74, 48
3, 8289, Note_on_c, 1, 70, 0
3, 8520, Note_on_c, 1, 81, 48
3, 8529, Note_on_c, 1, 77, 0
3, 8639, Note_on_c, 1, 81, 0
3, 8639, Note_on_c, 1, 74, 0
3, 8640, Note_on_c, 1, 75, 48
3, 8640, Note_on_c, 1, 79, 48
3, 8699, Note_on_c, 1, 79, 0
3, 8699, Note_on_c, 1, 75, 0
3, 8760, Note_on_c, 1, 78, 96
3, 8760, Note_on_c, 1, 75, 96
3, 8999, Note_on_c, 1, 75, 0
3, 8999, Note_on_c, 1, 78, 0
3, 9000, Note_on_c, 1, 75, 96
3, 9000, Note_on_c, 1, 78, 96
3, 9239, Note_on_c, 1, 78, 0
3, 9239, Note_on_c, 1, 75, 0
3, 9240, Note_on_c, 1, 78, 96
3, 9240, Note_on_c, 1, 75, 96
3, 9359, Note_on_c, 1, 75, 0
3, 9359, Note_on_c, 1, 78, 0
3, 9360, Note_on_c, 1, 74, 96
3, 9360, Note_on_c, 1, 77, 96
3, 9389, Note_on_c, 1, 77, 0
3, 9389, Note_on_c, 1, 74, 0
3, 9390, Note_on_c, 1, 77, 48
3, 9390, Note_on_c, 1, 74, 48
3, 9959, Note_on_c, 1, 74, 0
3, 9959, Note_on_c, 1, 77, 0
3, 9960, Note_on_c, 1, 74, 96
3, 9960, Note_on_c, 1, 77, 96
3, 10199, Note_on_c, 1, 77, 0
3, 10199, Note_on_c, 1, 74, 0
3, 10200, Note_on_c, 1, 77, 96
3, 10200, Note_on_c, 1, 74, 96
3, 10439, Note_on_c, 1, 74, 0
3, 10439, Note_on_c, 1, 77, 0
3, 10440, Note_on_c, 1, 77, 96
3, 10440, Note_on_c, 1, 74, 96
3, 10679, Note_on_c, 1, 74, 0
3, 10679, Note_on_c, 1, 77, 0
3, 10680, Note_on_c, 1, 77, 96
3, 10680, Note_on_c, 1, 74, 96
3, 10919, Note_on_c, 1, 74, 0
3, 10919, Note_on_c, 1, 77, 0
3, 10920, Note_on_c, 1, 75, 96
3, 10920, Note_on_c, 1, 79, 96
3, 11159, Note_on_c, 1, 79, 0
3, 11159, Note_on_c, 1, 75, 0
3, 11160, Note_on_c, 1, 79, 96
3, 11160, Note_on_c, 1, 75, 96
3, 11399, Note_on_c, 1, 75, 0
3, 11399, Note_on_c, 1, 79, 0
3, 11400, Note_on_c, 1, 79, 96
3, 11400, Note_on_c, 1, 75, 96
3, 11639, Note_on_c, 1, 75, 0
3, 11639, Note_on_c, 1, 79, 0
3, 11640, Note_on_c, 1, 74, 90
3, 11640, Note_on_c, 1, 77, 90
3, 11699, Note_on_c, 1, 77, 0
3, 11699, Note_on_c, 1, 74, 0
3, 11760, Note_on_c, 1, 77, 96
3, 11760, Note_on_c, 1, 74, 96
3, 11999, Note_on_c, 1, 74, 0
3, 11999, Note_on_c, 1, 77, 0
3, 12000, Note_on_c, 1, 79, 90
3, 12000, Note_on_c, 1, 75, 90
3, 12059, Note_on_c, 1, 75, 0
3, 12059, Note_on_c, 1, 79, 0
3, 12120, Note_on_c, 1, 79, 96
3, 12120, Note_on_c, 1, 75, 96
3, 12240, Note_on_c, 1, 80, 96
3, 12240, Note_on_c, 1, 74, 96
3, 12249, Note_on_c, 1, 75, 0
3, 12249, Note_on_c, 1, 79, 0
3, 12359, Note_on_c, 1, 80, 0
3, 12359, Note_on_c, 1, 74, 0
3, 12360, Note_on_c, 1, 70, 96
3, 12389, Note_on_c, 1, 70, 0
3, 12420, Note_on_c, 1, 72, 99
3, 12449, Note_on_c, 1, 72, 0
3, 12480, Note_on_c, 1, 74, 102
3, 12509, Note_on_c, 1, 74, 0
3, 12540, Note_on_c, 1, 75, 105
3, 12569, Note_on_c, 1, 75, 0
3, 12600, Note_on_c, 1, 77, 108
3, 12629, Note_on_c, 1, 77, 0
3, 12660, Note_on_c, 1, 79, 111
3, 12689, Note_on_c, 1, 79, 0
3, 12720, Note_on_c, 1, 68, 114
3, 12749, Note_on_c, 1, 68, 0
3, 12780, Note_on_c, 1, 70, 117
3, 12809, Note_on_c, 1, 70, 0
3, 12840, Note_on_c, 1, 72, 120
3, 12869, Note_on_c, 1, 72, 0
3, 12900, Note_on_c, 1, 74, 123
3, 12929, Note_on_c, 1, 74, 0
3, 12960, Note_on_c, 1, 75, 127
3, 13200, Note_on_c, 1, 79, 127
3, 13209, Note_on_c, 1, 75, 0
3, 13320, Note_on_c, 1, 75, 127
3, 13329, Note_on_c, 1, 79, 0
3, 13560, Note_on_c, 1, 70, 127
3, 13569, Note_on_c, 1, 75, 0
3, 13679, Note_on_c, 1, 70, 0
3, 13680, Note_on_c, 1, 75, 127
3, 13800, Note_on_c, 1, 70, 127
3, 13800, Note_on_c, 1, 82, 127
3, 13809, Note_on_c, 1, 75, 0
3, 13919, Note_on_c, 1, 82, 0
3, 13919, Note_on_c, 1, 70, 0
3, 13920, Note_on_c, 1, 70, 127
3, 13920, Note_on_c, 1, 82, 127
3, 14039, Note_on_c, 1, 82, 0
3, 14039, Note_on_c, 1, 70, 0
3, 14040, Note_on_c, 1, 82, 127
3, 14040, Note_on_c, 1, 70, 127
3, 14280, Note_on_c, 1, 71, 127
3, 14280, Note_on_c, 1, 83, 127
3, 14289, Note_on_c, 1, 70, 0
3, 14289, Note_on_c, 1, 82, 0
3, 14399, Note_on_c, 1, 71, 0
3, 14399, Note_on_c, 1, 83, 0
3, 14400, Note_on_c, 1, 84, 127
3, 14400, Note_on_c, 1, 72, 127
3, 14519, Note_on_c, 1, 72, 0
3, 14519, Note_on_c, 1, 84, 0
3, 14520, Note_on_c, 1, 84, 127
3, 14520, Note_on_c, 1, 72, 127
3, 14639, Note_on_c, 1, 72, 0
3, 14639, Note_on_c, 1, 84, 0
3, 14640, Note_on_c, 1, 84, 127
3, 14640, Note_on_c, 1, 72, 127
3, 14759, Note_on_c, 1, 72, 0
3, 14759, Note_on_c, 1, 84, 0
3, 14760, Note_on_c, 1, 84, 127
3, 14760, Note_on_c, 1, 72, 127
3, 14999, Note_on_c, 1, 72, 0
3, 14999, Note_on_c, 1, 84, 0
3, 15000, Note_on_c, 1, 82, 127
3, 15000, Note_on_c, 1, 75, 127
3, 15119, Note_on_c, 1, 75, 0
3, 15119, Note_on_c, 1, 82, 0
3, 15120, Note_on_c, 1, 80, 127
3, 15120, Note_on_c, 1, 75, 127
3, 15479, Note_on_c, 1, 75, 0
3, 15479, Note_on_c, 1, 80, 0
3, 15480, Note_on_c, 1, 82, 127
3, 15480, Note_on_c, 1, 76, 127
3, 15599, Note_on_c, 1, 76, 0
3, 15599, Note_on_c, 1, 82, 0
3, 15960, Note_on_c, 1, 79, 48
3, 16140, Note_on_c, 1, 77, 48
3, 16149, Note_on_c, 1, 79, 0
3, 16200, Note_on_c, 1, 76, 48
3, 16209, Note_on_c, 1, 77, 0
3, 16319, Note_on_c, 1, 76, 0
3, 17400, Note_on_c, 1, 79, 48
3, 17580, Note_on_c, 1, 77, 48
3, 17589, Note_on_c, 1, 79, 0
3, 17640, Note_on_c, 1, 76, 48
3, 17649, Note_on_c, 1, 77, 0
3, 17759, Note_on_c, 1, 76, 0
3, 18840, Note_on_c, 1, 78, 64
3, 19020, Note_on_c, 1, 77, 56
3, 19029, Note_on_c, 1, 78, 0
3, 19080, Note_on_c, 1, 75, 56
3, 19089, Note_on_c, 1, 77, 0
3, 19199, Note_on_c, 1, 75, 0
3, 19560, Note_on_c, 1, 79, 127
3, 19739, Note_on_c, 1, 79, 0
3, 19740, Note_on_c, 1, 77, 127
3, 19799, Note_on_c, 1, 77, 0
3, 19800, Note_on_c, 1, 75, 127
3, 19859, Note_on_c, 1, 75, 0
3, 19920, Note_on_c, 1, 74, 127
3, 19979, Note_on_c, 1, 74, 0
3, 20040, Note_on_c, 1, 72, 127
3, 20099, Note_on_c, 1, 72, 0
3, 20160, Note_on_c, 1, 70, 48
3, 21060, Note_on_c, 1, 65, 48
3, 21119, Note_on_c, 1, 70, 0
3, 21120, Note_on_c, 1, 69, 48
3, 21120, Note_on_c, 1, 72, 48
3, 21129, Note_on_c, 1, 65, 0
3, 21180, Note_on_c, 1, 74, 48
3, 21180, Note_on_c, 1, 70, 48
3, 21189, Note_on_c, 1, 72, 0
3, 21189, Note_on_c, 1, 69, 0
3, 21240, Note_on_c, 1, 75, 48
3, 21240, Note_on_c, 1, 72, 48
3, 21249, Note_on_c, 1, 74, 0
3, 21249, Note_on_c, 1, 70, 0
3, 21329, Note_on_c, 1, 75, 0
3, 21329, Note_on_c, 1, 72, 0
3, 21360, Note_on_c, 1, 75, 48
3, 21360, Note_on_c, 1, 72, 48
3, 21449, Note_on_c, 1, 72, 0
3, 21449, Note_on_c, 1, 75, 0
3, 21480, Note_on_c, 1, 75, 48
3, 21480, Note_on_c, 1, 72, 48
3, 21569, Note_on_c, 1, 72, 0
3, 21569, Note_on_c, 1, 75, 0
3, 21600, Note_on_c, 1, 74, 48
3, 21600, Note_on_c, 1, 70, 48
3, 21719, Note_on_c, 1, 70, 0
3, 21719, Note_on_c, 1, 74, 0
3, 23040, Note_on_c, 1, 75, 96
3, 23040, Note_on_c, 1, 72, 96
3, 23099, Note_on_c, 1, 72, 0
3, 23099, Note_on_c, 1, 75, 0
3, 23160, Note_on_c, 1, 72, 96
3, 23160, Note_on_c, 1, 75, 96
3, 23219, Note_on_c, 1, 75, 0
3, 23219, Note_on_c, 1, 72, 0
3, 23700, Note_on_c, 1, 75, 96
3, 23700, Note_on_c, 1, 72, 96
3, 23729, Note_on_c, 1, 72, 0
3, 23729, Note_on_c, 1, 75, 0
3, 23760, Note_on_c, 1, 70, 96
3, 23760, Note_on_c, 1, 74, 96
3, 23819, Note_on_c, 1, 74, 0
3, 23819, Note_on_c, 1, 70, 0
3, 23880, Note_on_c, 1, 82, 96
3, 23880, Note_on_c, 1, 74, 96
3, 23939, Note_on_c, 1, 74, 0
3, 23939, Note_on_c, 1, 82, 0
3, 24420, Note_on_c, 1, 79, 96
3, 24420, Note_on_c, 1, 70, 96
3, 24449, Note_on_c, 1, 70, 0
3, 24449, Note_on_c, 1, 79, 0
3, 24480, Note_on_c, 1, 80, 96
3, 24480, Note_on_c, 1, 71, 96
3, 24539, Note_on_c, 1, 71, 0
3, 24539, Note_on_c, 1, 80, 0
3, 24600, Note_on_c, 1, 71, 96
3, 24600, Note_on_c, 1, 80, 96
3, 24659, Note_on_c, 1, 80, 0
3, 24659, Note_on_c, 1, 71, 0
3, 25140, Note_on_c, 1, 80, 96
3, 25140, Note_on_c, 1, 71, 96
3, 25169, Note_on_c, 1, 71, 0
3, 25169, Note_on_c, 1, 80, 0
3, 25200, Note_on_c, 1, 72, 96
3, 25200, Note_on_c, 1, 79, 96
3, 25229, Note_on_c, 1, 79, 0
3, 25229, Note_on_c, 1, 72, 0
3, 25260, Note_on_c, 1, 70, 96
3, 25260, Note_on_c, 1, 72, 96
3, 25379, Note_on_c, 1, 72, 0
3, 25379, Note_on_c, 1, 70, 0
3, 25380, Note_on_c, 1, 72, 96
3, 25380, Note_on_c, 1, 70, 96
3, 25409, Note_on_c, 1, 70, 0
3, 25409, Note_on_c, 1, 72, 0
3, 25440, Note_on_c, 1, 69, 96
3, 25440, Note_on_c, 1, 72, 96
3, 25469, Note_on_c, 1, 72, 0
3, 25469, Note_on_c, 1, 69, 0
3, 25500, Note_on_c, 1, 74, 96
3, 25500, Note_on_c, 1, 69, 96
3, 25529, Note_on_c, 1, 69, 0
3, 25529, Note_on_c, 1, 74, 0
3, 25560, Note_on_c, 1, 70, 96
3, 25560, Note_on_c, 1, 74, 96
3, 25589, Note_on_c, 1, 74, 0
3, 25589, Note_on_c, 1, 70, 0
3, 25620, Note_on_c, 1, 75, 96
3, 25620, Note_on_c, 1, 70, 96
3, 25739, Note_on_c, 1, 70, 0
3, 25739, Note_on_c, 1, 75, 0
3, 25740, Note_on_c, 1, 70, 96
3, 25740, Note_on_c, 1, 75, 96
3, 25769, Note_on_c, 1, 75, 0
3, 25769, Note_on_c, 1, 70, 0
3, 25800, Note_on_c, 1, 75, 96
3, 25800, Note_on_c, 1, 72, 96
3, 25829, Note_on_c, 1, 72, 0
3, 25829, Note_on_c, 1, 75, 0
3, 25860, Note_on_c, 1, 72, 96
3, 25860, Note_on_c, 1, 77, 96
3, 25889, Note_on_c, 1, 77, 0
3, 25889, Note_on_c, 1, 72, 0
3, 25920, Note_on_c, 1, 77, 96
3, 25920, Note_on_c, 1, 74, 96
3, 26039, Note_on_c, 1, 74, 0
3, 26039, Note_on_c, 1, 77, 0
3, 26040, Note_on_c, 1, 82, 96
3, 26040, Note_on_c, 1, 70, 96
3, 26159, Note_on_c, 1, 70, 0
3, 26159, Note_on_c, 1, 82, 0
3, 26160, Note_on_c, 1, 70, 96
3, 26160, Note_on_c, 1, 82, 96
3, 26279, Note_on_c, 1, 82, 0
3, 26279, Note_on_c, 1, 70, 0
3, 26280, Note_on_c, 1, 82, 96
3, 26280, Note_on_c, 1, 70, 96
3, 26399, Note_on_c, 1, 70, 0
3, 26399, Note_on_c, 1, 82, 0
3, 26400, Note_on_c, 1, 70, 96
3, 26400, Note_on_c, 1, 82, 96
3, 26519, Note_on_c, 1, 82, 0
3, 26519, Note_on_c, 1, 70, 0
3, 26520, Note_on_c, 1, 82, 96
3, 26520, Note_on_c, 1, 70, 96
3, 26880, Note_on_c, 1, 71, 96
3, 26880, Note_on_c, 1, 83, 96
3, 26889, Note_on_c, 1, 70, 0
3, 26889, Note_on_c, 1, 82, 0
3, 27000, Note_on_c, 1, 84, 96
3, 27000, Note_on_c, 1, 72, 96
3, 27009, Note_on_c, 1, 71, 0
3, 27009, Note_on_c, 1, 83, 0
3, 27060, Note_on_c, 1, 79, 96
3, 27060, Note_on_c, 1, 74, 96
3, 27069, Note_on_c, 1, 84, 0
3, 27069, Note_on_c, 1, 72, 0
3, 27120, Note_on_c, 1, 77, 96
3, 27129, Note_on_c, 1, 74, 0
3, 27179, Note_on_c, 1, 79, 0
3, 27180, Note_on_c, 1, 79, 96
3, 27180, Note_on_c, 1, 75, 96
3, 27189, Note_on_c, 1, 77, 0
3, 27240, Note_on_c, 1, 77, 96
3, 27240, Note_on_c, 1, 74, 96
3, 27249, Note_on_c, 1, 75, 0
3, 27249, Note_on_c, 1, 79, 0
3, 27300, Note_on_c, 1, 75, 96
3, 27300, Note_on_c, 1, 72, 96
3, 27309, Note_on_c, 1, 77, 0
3, 27309, Note_on_c, 1, 74, 0
3, 27360, Note_on_c, 1, 74, 96
3, 27360, Note_on_c, 1, 70, 96
3, 27369, Note_on_c, 1, 75, 0
3, 27369, Note_on_c, 1, 72, 0
3, 27479, Note_on_c, 1, 74, 0
3, 27479, Note_on_c, 1, 70, 0
3, 28080, Note_on_c, 1, 77, 96
3, 28859, Note_on_c, 1, 77, 0
3, 28860, Note_on_c, 1, 76, 127
3, 28889, Note_on_c, 1, 76, 0
3, 28920, Note_on_c, 1, 75, 127
3, 28949, Note_on_c, 1, 75, 0
3, 28980, Note_on_c, 1, 74, 127
3, 29009, Note_on_c, 1, 74, 0
3, 29040, Note_on_c, 1, 72, 127
3, 29069, Note_on_c, 1, 72, 0
3, 29100, Note_on_c, 1, 70, 127
3, 29129, Note_on_c, 1, 70, 0
3, 29160, Note_on_c, 1, 69, 127
3, 29189, Note_on_c, 1, 69, 0
3, 29220, Note_on_c, 1, 79, 127
3, 29220, Note_on_c, 1, 67, 127
3, 29249, Note_on_c, 1, 67, 0
3, 29249, Note_on_c, 1, 79, 0
3, 29280, Note_on_c, 1, 77, 127
3, 29280, Note_on_c, 1, 65, 127
3, 29309, Note_on_c, 1, 65, 0
3, 29309, Note_on_c, 1, 77, 0
3, 29340, Note_on_c, 1, 75, 127
3, 29340, Note_on_c, 1, 63, 127
3, 29369, Note_on_c, 1, 63, 0
3, 29369, Note_on_c, 1, 75, 0
3, 29400, Note_on_c, 1, 74, 127
3, 29400, Note_on_c, 1, 62, 127
3, 29429, Note_on_c, 1, 62, 0
3, 29429, Note_on_c, 1, 74, 0
3, 29460, Note_on_c, 1, 72, 127
3, 29460, Note_on_c, 1, 60, 127
3, 29489, Note_on_c, 1, 60, 0
3, 29489, Note_on_c, 1, 72, 0
3, 29520, Note_on_c, 1, 70, 127
3, 29639, Note_on_c, 1, 70, 0
3, 30000, Note_on_c, 1, 77, 64
3, 30089, Note_on_c, 1, 77, 0
3, 30120, Note_on_c, 1, 77, 72
3, 30209, Note_on_c, 1, 77, 0
3, 30240, Note_on_c, 1, 77, 80
3, 30329, Note_on_c, 1, 77, 0
3, 30360, Note_on_c, 1, 77, 88
3, 30449, Note_on_c, 1, 77, 0
3, 30480, Note_on_c, 1, 70, 96
3, 30480, Note_on_c, 1, 78, 96
3, 30569, Note_on_c, 1, 78, 0
3, 30600, Note_on_c, 1, 79, 88
3, 30720, Note_on_c, 1, 71, 80
3, 30729, Note_on_c, 1, 70, 0
3, 30840, Note_on_c, 1, 72, 64
3, 30849, Note_on_c, 1, 71, 0
3, 30959, Note_on_c, 1, 72, 0
3, 30959, Note_on_c, 1, 79, 0
3, 31920, Note_on_c, 1, 79, 96
3, 32160, Note_on_c, 1, 77, 96
3, 32169, Note_on_c, 1, 79, 0
3, 32220, Note_on_c, 1, 75, 84
3, 32229, Note_on_c, 1, 77, 0
3, 32280, Note_on_c, 1, 74, 72
3, 32289, Note_on_c, 1, 75, 0
3, 32340, Note_on_c, 1, 72, 64
3, 32349, Note_on_c, 1, 74, 0
3, 32400, Note_on_c, 1, 70, 48
3, 32409, Note_on_c, 1, 72, 0
3, 32519, Note_on_c, 1, 70, 0
3, 32880, Note_on_c, 1, 75, 64
3, 32969, Note_on_c, 1, 75, 0
3, 33000, Note_on_c, 1, 75, 72
3, 33089, Note_on_c, 1, 75, 0
3, 33120, Note_on_c, 1, 75, 80
3, 33209, Note_on_c, 1, 75, 0
3, 33240, Note_on_c, 1, 78, 88
3, 33240, Note_on_c, 1, 75, 88
3, 33329, Note_on_c, 1, 75, 0
3, 33329, Note_on_c, 1, 78, 0
3, 33360, Note_on_c, 1, 78, 88
3, 33360, Note_on_c, 1, 75, 88
3, 33449, Note_on_c, 1, 75, 0
3, 33449, Note_on_c, 1, 78, 0
3, 33480, Note_on_c, 1, 78, 96
3, 33480, Note_on_c, 1, 75, 96
3, 33839, Note_on_c, 1, 75, 0
3, 33839, Note_on_c, 1, 78, 0
3, 34680, Note_on_c, 1, 82, 48
3, 34800, Note_on_c, 1, 79, 48
3, 34809, Note_on_c, 1, 82, 0
3, 34920, Note_on_c, 1, 77, 56
3, 34929, Note_on_c, 1, 79, 0
3, 35160, Note_on_c, 1, 76, 56
3, 35169, Note_on_c, 1, 77, 0
3, 35280, Note_on_c, 1, 75, 48
3, 35289, Note_on_c, 1, 76, 0
3, 35399, Note_on_c, 1, 75, 0
3, 38700, Note_on_c, 1, 81, 89
3, 38700, Note_on_c, 1, 72, 89
3, 38729, Note_on_c, 1, 72, 0
3, 38729, Note_on_c, 1, 81, 0
3, 38760, Note_on_c, 1, 82, 92
3, 38760, Note_on_c, 1, 74, 92
3, 38789, Note_on_c, 1, 74, 0
3, 38789, Note_on_c, 1, 82, 0
3, 38820, Note_on_c, 1, 84, 94
3, 38820, Note_on_c, 1, 75, 94
3, 38849, Note_on_c, 1, 75, 0
3, 38849, Note_on_c, 1, 84, 0
3, 38880, Note_on_c, 1, 86, 96
3, 38880, Note_on_c, 1, 77, 96
3, 38999, Note_on_c, 1, 77, 0
3, 38999, Note_on_c, 1, 86, 0
3, 39000, Note_on_c, 1, 74, 112
3, 39000, Note_on_c, 1, 77, 112
3, 39239, Note_on_c, 1, 77, 0
3, 39239, Note_on_c, 1, 74, 0
3, 39360, Note_on_c, 1, 74, 112
3, 39360, Note_on_c, 1, 77, 112
3, 39599, Note_on_c, 1, 77, 0
3, 39599, Note_on_c, 1, 74, 0
3, 39720, Note_on_c, 1, 77, 112
3, 39720, Note_on_c, 1, 75, 112
3, 39959, Note_on_c, 1, 75, 0
3, 39959, Note_on_c, 1, 77, 0
3, 40080, Note_on_c, 1, 77, 112
3, 40080, Note_on_c, 1, 69, 112
3, 40199, Note_on_c, 1, 69, 0
3, 40199, Note_on_c, 1, 77, 0
3, 40200, Note_on_c, 1, 72, 96
3, 40200, Note_on_c, 1, 77, 96
3, 40319, Note_on_c, 1, 77, 0
3, 40319, Note_on_c, 1, 72, 0
3, 40320, Note_on_c, 1, 77, 127
3, 40320, Note_on_c, 1, 74, 127
3, 40439, Note_on_c, 1, 74, 0
3, 41519, Note_on_c, 1, 77, 0
3, 41520, Note_on_c, 1, 77, 127
3, 41639, Note_on_c, 1, 77, 0
3, 41640, Note_on_c, 1, 77, 127
3, 41759, Note_on_c, 1, 77, 0
3, 41760, Note_on_c, 1, 77, 127
3, 42000, Note_on_c, 1, 82, 127
3, 42060, Note_on_c, 1, 76, 127
3, 42069, Note_on_c, 1, 77, 0
3, 42120, Note_on_c, 1, 77, 127
3, 42129, Note_on_c, 1, 76, 0
3, 42179, Note_on_c, 1, 77, 0
3, 42179, Note_on_c, 1, 82, 0
3, 43740, Note_on_c, 1, 79, 127
3, 43740, Note_on_c, 1, 71, 127
3, 43769, Note_on_c, 1, 71, 0
3, 43769, Note_on_c, 1, 79, 0
3, 43800, Note_on_c, 1, 72, 127
3, 43800, Note_on_c, 1, 79, 127
3, 43829, Note_on_c, 1, 79, 0
3, 43829, Note_on_c, 1, 72, 0
3, 43860, Note_on_c, 1, 73, 127
3, 43860, Note_on_c, 1, 79, 127
3, 43889, Note_on_c, 1, 79, 0
3, 43889, Note_on_c, 1, 73, 0
3, 43920, Note_on_c, 1, 78, 127
3, 43920, Note_on_c, 1, 74, 127
3, 43979, Note_on_c, 1, 74, 0
3, 43979, Note_on_c, 1, 78, 0
3, 44040, Note_on_c, 1, 81, 127
3, 44040, Note_on_c, 1, 74, 127
3, 44099, Note_on_c, 1, 74, 0
3, 44099, Note_on_c, 1, 81, 0
3, 44160, Note_on_c, 1, 74, 127
3, 44160, Note_on_c, 1, 79, 127
3, 44219, Note_on_c, 1, 79, 0
3, 44219, Note_on_c, 1, 74, 0
3, 44400, Note_on_c, 1, 77, 127
3, 44400, Note_on_c, 1, 71, 127
3, 44459, Note_on_c, 1, 71, 0
3, 44459, Note_on_c, 1, 77, 0
3, 44520, Note_on_c, 1, 75, 127
3, 44520, Note_on_c, 1, 72, 127
3, 44579, Note_on_c, 1, 72, 0
3, 44579, Note_on_c, 1, 75, 0
3, 44760, Note_on_c, 1, 79, 127
3, 44760, Note_on_c, 1, 72, 127
3, 44819, Note_on_c, 1, 72, 0
3, 44819, Note_on_c, 1, 79, 0
3, 44880, Note_on_c, 1, 72, 127
3, 44880, Note_on_c, 1, 77, 127
3, 44939, Note_on_c, 1, 77, 0
3, 44939, Note_on_c, 1, 72, 0
3, 45120, Note_on_c, 1, 74, 127
3, 45120, Note_on_c, 1, 81, 127
3, 45179, Note_on_c, 1, 81, 0
3, 45179, Note_on_c, 1, 74, 0
3, 45240, Note_on_c, 1, 74, 127
3, 45240, Note_on_c, 1, 79, 127
3, 45299, Note_on_c, 1, 79, 0
3, 45299, Note_on_c, 1, 74, 0
3, 45480, Note_on_c, 1, 77, 127
3, 45480, Note_on_c, 1, 71, 127
3, 45539, Note_on_c, 1, 71, 0
3, 45539, Note_on_c, 1, 77, 0
3, 45600, Note_on_c, 1, 72, 127
3, 45600, Note_on_c, 1, 75, 127
3, 45659, Note_on_c, 1, 75, 0
3, 45659, Note_on_c, 1, 72, 0
3, 45840, Note_on_c, 1, 79, 127
3, 45840, Note_on_c, 1, 72, 127
3, 45899, Note_on_c, 1, 72, 0
3, 45899, Note_on_c, 1, 79, 0
3, 46080, Note_on_c, 1, 72, 127
3, 46080, Note_on_c, 1, 79, 127
3, 46139, Note_on_c, 1, 79, 0
3, 46139, Note_on_c, 1, 72, 0
3, 46320, Note_on_c, 1, 79, 127
3, 46320, Note_on_c, 1, 72, 127
3, 46379, Note_on_c, 1, 72, 0
3, 46379, Note_on_c, 1, 79, 0
3, 46560, Note_on_c, 1, 72, 127
3, 46560, Note_on_c, 1, 79, 127
3, 46619, Note_on_c, 1, 79, 0
3, 46619, Note_on_c, 1, 72, 0
3, 46800, Note_on_c, 1, 79, 127
3, 46800, Note_on_c, 1, 72, 127
3, 46859, Note_on_c, 1, 72, 0
3, 46859, Note_on_c, 1, 79, 0
3, 47040, Note_on_c, 1, 72, 127
3, 47040, Note_on_c, 1, 79, 127
3, 47099, Note_on_c, 1, 79, 0
3, 47099, Note_on_c, 1, 72, 0
3, 47520, Note_on_c, 1, 76, 96
3, 47520, Note_on_c, 1, 70, 96
3, 47549, Note_on_c, 1, 70, 0
3, 47549, Note_on_c, 1, 76, 0
3, 47550, Note_on_c, 1, 70, 48
3, 47550, Note_on_c, 1, 76, 48
3, 47880, Note_on_c, 1, 77, 48
3, 47889, Note_on_c, 1, 76, 0
3, 48239, Note_on_c, 1, 77, 0
3, 48239, Note_on_c, 1, 70, 0
3, 48240, Note_on_c, 1, 76, 96
3, 48240, Note_on_c, 1, 70, 96
3, 48269, Note_on_c, 1, 70, 0
3, 48269, Note_on_c, 1, 76, 0
3, 48270, Note_on_c, 1, 70, 48
3, 48270, Note_on_c, 1, 76, 48
3, 48719, Note_on_c, 1, 76, 0
3, 48719, Note_on_c, 1, 70, 0
3, 48720, Note_on_c, 1, 75, 48
3, 48720, Note_on_c, 1, 70, 48
3, 48779, Note_on_c, 1, 70, 0
3, 48779, Note_on_c, 1, 75, 0
3, 48960, Note_on_c, 1, 72, 48
3, 48960, Note_on_c, 1, 75, 48
3, 49019, Note_on_c, 1, 75, 0
3, 49019, Note_on_c, 1, 72, 0
3, 49200, Note_on_c, 1, 75, 48
3, 49200, Note_on_c, 1, 72, 48
3, 49259, Note_on_c, 1, 72, 0
3, 49259, Note_on_c, 1, 75, 0
3, 49440, Note_on_c, 1, 77, 48
3, 49440, Note_on_c, 1, 75, 48
3, 49499, Note_on_c, 1, 75, 0
3, 49499, Note_on_c, 1, 77, 0
3, 49680, Note_on_c, 1, 74, 48
3, 49680, Note_on_c, 1, 77, 48
3, 49739, Note_on_c, 1, 77, 0
3, 49739, Note_on_c, 1, 74, 0
3, 49920, Note_on_c, 1, 77, 48
3, 49920, Note_on_c, 1, 74, 48
3, 49979, Note_on_c, 1, 74, 0
3, 49980, Note_on_c, 1, 78, 48
3, 49989, Note_on_c, 1, 77, 0
3, 50040, Note_on_c, 1, 79, 64
3, 50049, Note_on_c, 1, 78, 0
3, 50400, Note_on_c, 1, 75, 72
3, 50579, Note_on_c, 1, 75, 0
3, 50579, Note_on_c, 1, 79, 0
3, 50580, Note_on_c, 1, 79, 81
3, 50580, Note_on_c, 1, 75, 81
3, 50640, Note_on_c, 1, 74, 83
3, 50640, Note_on_c, 1, 77, 83
3, 50649, Note_on_c, 1, 75, 0
3, 50649, Note_on_c, 1, 79, 0
3, 50700, Note_on_c, 1, 75, 86
3, 50700, Note_on_c, 1, 72, 86
3, 50709, Note_on_c, 1, 74, 0
3, 50709, Note_on_c, 1, 77, 0
3, 50759, Note_on_c, 1, 75, 0
3, 50759, Note_on_c, 1, 72, 0
3, 50760, Note_on_c, 1, 74, 88
3, 50760, Note_on_c, 1, 70, 88
3, 50819, Note_on_c, 1, 70, 0
3, 50819, Note_on_c, 1, 74, 0
3, 50820, Note_on_c, 1, 77, 93
3, 50820, Note_on_c, 1, 74, 93
3, 50879, Note_on_c, 1, 74, 0
3, 50879, Note_on_c, 1, 77, 0
3, 50880, Note_on_c, 1, 82, 97
3, 50880, Note_on_c, 1, 74, 97
3, 50939, Note_on_c, 1, 74, 0
3, 50939, Note_on_c, 1, 82, 0
3, 50940, Note_on_c, 1, 74, 101
3, 50940, Note_on_c, 1, 82, 101
3, 50999, Note_on_c, 1, 82, 0
3, 50999, Note_on_c, 1, 74, 0
3, 51000, Note_on_c, 1, 82, 105
3, 51000, Note_on_c, 1, 74, 105
3, 51059, Note_on_c, 1, 74, 0
3, 51059, Note_on_c, 1, 82, 0
3, 51060, Note_on_c, 1, 82, 109
3, 51060, Note_on_c, 1, 74, 109
3, 51119, Note_on_c, 1, 74, 0
3, 51119, Note_on_c, 1, 82, 0
3, 51120, Note_on_c, 1, 72, 127
3, 51120, Note_on_c, 1, 81, 127
3, 51479, Note_on_c, 1, 81, 0
3, 51479, Note_on_c, 1, 72, 0
3, 51480, Note_on_c, 1, 82, 96
3, 51480, Note_on_c, 1, 74, 96
3, 51539, Note_on_c, 1, 74, 0
3, 51539, Note_on_c, 1, 82, 0
3, 51840, Note_on_c, 1, 70, 96
3, 51899, Note_on_c, 1, 70, 0
3, 52200, Note_on_c, 1, 70, 96
3, 52259, Note_on_c, 1, 70, 0
3, 52560, Note_on_c, 1, 78, 96
3, 52560, Note_on_c, 1, 69, 96
3, 52619, Note_on_c, 1, 69, 0
3, 52619, Note_on_c, 1, 78, 0
3, 52680, Note_on_c, 1, 69, 96
3, 52680, Note_on_c, 1, 78, 96
3, 52739, Note_on_c, 1, 78, 0
3, 52739, Note_on_c, 1, 69, 0
3, 52800, Note_on_c, 1, 78, 96
3, 52800, Note_on_c, 1, 69, 96
3, 52859, Note_on_c, 1, 69, 0
3, 52859, Note_on_c, 1, 78, 0
3, 52920, Note_on_c, 1, 70, 96
3, 52920, Note_on_c, 1, 77, 96
3, 52979, Note_on_c, 1, 77, 0
3, 52979, Note_on_c, 1, 70, 0
3, 58680, Note_on_c, 1, 79, 48
3, 58680, Note_on_c, 1, 75, 48
3, 59040, Note_on_c, 1, 80, 48
3, 59040, Note_on_c, 1, 77, 48
3, 59049, Note_on_c, 1, 75, 0
3, 59049, Note_on_c, 1, 79, 0
3, 59160, Note_on_c, 1, 79, 48
3, 59160, Note_on_c, 1, 75, 48
3, 59169, Note_on_c, 1, 80, 0
3, 59169, Note_on_c, 1, 77, 0
3, 59280, Note_on_c, 1, 77, 48
3, 59280, Note_on_c, 1, 74, 48
3, 59289, Note_on_c, 1, 79, 0
3, 59289, Note_on_c, 1, 75, 0
3, 59400, Note_on_c, 1, 75, 48
3, 59409, Note_on_c, 1, 77, 0
3, 59409, Note_on_c, 1, 74, 0
3, 59519, Note_on_c, 1, 75, 0
3, 62280, Note_on_c, 1, 74, 96
3, 62280, Note_on_c, 1, 70, 96
3, 62309, Note_on_c, 1, 70, 0
3, 62309, Note_on_c, 1, 74, 0
3, 62310, Note_on_c, 1, 70, 48
3, 62310, Note_on_c, 1, 74, 48
3, 62639, Note_on_c, 1, 74, 0
3, 62640, Note_on_c, 1, 77, 48
3, 62640, Note_on_c, 1, 74, 48
3, 62649, Note_on_c, 1, 70, 0
3, 62880, Note_on_c, 1, 81, 48
3, 62889, Note_on_c, 1, 77, 0
3, 62999, Note_on_c, 1, 81, 0
3, 62999, Note_on_c, 1, 74, 0
3, 63000, Note_on_c, 1, 75, 48
3, 63000, Note_on_c, 1, 79, 48
3, 63059, Note_on_c, 1, 79, 0
3, 63059, Note_on_c, 1, 75, 0
3, 63120, Note_on_c, 1, 78, 96
3, 63120, Note_on_c, 1, 75, 96
3, 63359, Note_on_c, 1, 75, 0
3, 63359, Note_on_c, 1, 78, 0
3, 63360, Note_on_c, 1, 75, 96
3, 63360, Note_on_c, 1, 78, 96
3, 63599, Note_on_c, 1, 78, 0
3, 63599, Note_on_c, 1, 75, 0
3, 63600, Note_on_c, 1, 78, 96
3, 63600, Note_on_c, 1, 75, 96
3, 63719, Note_on_c, 1, 75, 0
3, 63719, Note_on_c, 1, 78, 0
3, 63720, Note_on_c, 1, 74, 96
3, 63720, Note_on_c, 1, 77, 96
3, 63749, Note_on_c, 1, 77, 0
3, 63749, Note_on_c, 1, 74, 0
3, 63750, Note_on_c, 1, 77, 48
3, 63750, Note_on_c, 1, 74, 48
3, 64319, Note_on_c, 1, 74, 0
3, 64319, Note_on_c, 1, 77, 0
3, 64320, Note_on_c, 1, 74, 96
3, 64320, Note_on_c, 1, 77, 96
3, 64559, Note_on_c, 1, 77, 0
3, 64559, Note_on_c, 1, 74, 0
3, 64560, Note_on_c, 1, 77, 96
3, 64560, Note_on_c, 1, 74, 96
3, 64799, Note_on_c, 1, 74, 0
3, 64799, Note_on_c, 1, 77, 0
3, 64800, Note_on_c, 1, 77, 96
3, 64800, Note_on_c, 1, 74, 96
3, 65039, Note_on_c, 1, 74, 0
3, 65039, Note_on_c, 1, 77, 0
3, 65040, Note_on_c, 1, 77, 96
3, 65040, Note_on_c, 1, 74, 96
3, 65279, Note_on_c, 1, 74, 0
3, 65279, Note_on_c, 1, 77, 0
3, 65280, Note_on_c, 1, 75, 96
3, 65280, Note_on_c, 1, 79, 96
3, 65519, Note_on_c, 1, 79, 0
3, 65519, Note_on_c, 1, 75, 0
3, 65520, Note_on_c, 1, 79, 96
3, 65520, Note_on_c, 1, 75, 96
3, 65759, Note_on_c, 1, 75, 0
3, 65759, Note_on_c, 1, 79, 0
3, 65760, Note_on_c, 1, 79, 96
3, 65760, Note_on_c, 1, 75, 96
3, 65999, Note_on_c, 1, 75, 0
3, 65999, Note_on_c, 1, 79, 0
3, 66000, Note_on_c, 1, 74, 90
3, 66000, Note_on_c, 1, 77, 90
3, 66059, Note_on_c, 1, 77, 0
3, 66059, Note_on_c, 1, 74, 0
3, 66120, Note_on_c, 1, 77, 96
3, 66120, Note_on_c, 1, 74, 96
3, 66359, Note_on_c, 1, 74, 0
3, 66359, Note_on_c, 1, 77, 0
3, 66360, Note_on_c, 1, 79, 90
3, 66360, Note_on_c, 1, 75, 90
3, 66419, Note_on_c, 1, 75, 0
3, 66419, Note_on_c, 1, 79, 0
3, 66480, Note_on_c, 1, 79, 96
3, 66480, Note_on_c, 1, 75, 96
3, 66600, Note_on_c, 1, 80, 96
3, 66600, Note_on_c, 1, 74, 96
3, 66609, Note_on_c, 1, 75, 0
3, 66609, Note_on_c, 1, 79, 0
3, 66719, Note_on_c, 1, 80, 0
3, 66719, Note_on_c, 1, 74, 0
3, 66720, Note_on_c, 1, 70, 96
3, 66749, Note_on_c, 1, 70, 0
3, 66780, Note_on_c, 1, 72, 99
3, 66809, Note_on_c, 1, 72, 0
3, 66840, Note_on_c, 1, 74, 102
3, 66869, Note_on_c, 1, 74, 0
3, 66900, Note_on_c, 1, 75, 105
3, 66929, Note_on_c, 1, 75, 0
3, 66960, Note_on_c, 1, 77, 108
3, 66989, Note_on_c, 1, 77, 0
3, 67020, Note_on_c, 1, 79, 111
3, 67049, Note_on_c, 1, 79, 0
3, 67080, Note_on_c, 1, 68, 114
3, 67109, Note_on_c, 1, 68, 0
3, 67140, Note_on_c, 1, 70, 117
3, 67169, Note_on_c, 1, 70, 0
3, 67200, Note_on_c, 1, 72, 120
3, 67229, Note_on_c, 1, 72, 0
3, 67260, Note_on_c, 1, 74, 123
3, 67289, Note_on_c, 1, 74, 0
3, 67320, Note_on_c, 1, 75, 127
3, 67560, Note_on_c, 1, 79, 127
3, 67569, Note_on_c, 1, 75, 0
3, 67680, Note_on_c, 1, 75, 127
3, 67689, Note_on_c, 1, 79, 0
3, 67920, Note_on_c, 1, 70, 127
3, 67929, Note_on_c, 1, 75, 0
3, 68039, Note_on_c, 1, 70, 0
3, 68040, Note_on_c, 1, 75, 127
3, 68160, Note_on_c, 1, 70, 127
3, 68160, Note_on_c, 1, 82, 127
3, 68169, Note_on_c, 1, 75, 0
3, 68279, Note_on_c, 1, 82, 0
3, 68279, Note_on_c, 1, 70, 0
3, 68280, Note_on_c, 1, 70, 127
3, 68280, Note_on_c, 1, 82, 127
3, 68399, Note_on_c, 1, 82, 0
3, 68399, Note_on_c, 1, 70, 0
3, 68400, Note_on_c, 1, 82, 127
3, 68400, Note_on_c, 1, 70, 127
3, 68640, Note_on_c, 1, 71, 127
3, 68640, Note_on_c, 1, 83, 127
3, 68649, Note_on_c, 1, 70, 0
3, 68649, Note_on_c, 1, 82, 0
3, 68759, Note_on_c, 1, 71, 0
3, 68759, Note_on_c, 1, 83, 0
3, 68760, Note_on_c, 1, 84, 127
3, 68760, Note_on_c, 1, 72, 127
3, 68879, Note_on_c, 1, 72, 0
3, 68879, Note_on_c, 1, 84, 0
3, 68880, Note_on_c, 1, 84, 127
3, 68880, Note_on_c, 1, 72, 127
3, 68999, Note_on_c, 1, 72, 0
3, 68999, Note_on_c, 1, 84, 0
3, 69000, Note_on_c, 1, 84, 127
3, 69000, Note_on_c, 1, 72, 127
3, 69119, Note_on_c, 1, 72, 0
3, 69119, Note_on_c, 1, 84, 0
3, 69120, Note_on_c, 1, 84, 127
3, 69120, Note_on_c, 1, 72, 127
3, 69359, Note_on_c, 1, 72, 0
3, 69359, Note_on_c, 1, 84, 0
3, 69360, Note_on_c, 1, 82, 127
3, 69360, Note_on_c, 1, 75, 127
3, 69479, Note_on_c, 1, 75, 0
3, 69479, Note_on_c, 1, 82, 0
3, 69480, Note_on_c, 1, 80, 127
3, 69480, Note_on_c, 1, 75, 127
3, 69839, Note_on_c, 1, 75, 0
3, 69839, Note_on_c, 1, 80, 0
3, 69840, Note_on_c, 1, 82, 127
3, 69840, Note_on_c, 1, 76, 127
3, 69959, Note_on_c, 1, 76, 0
3, 69959, Note_on_c, 1, 82, 0
3, 70320, Note_on_c, 1, 79, 48
3, 70500, Note_on_c, 1, 77, 48
3, 70509, Note_on_c, 1, 79, 0
3, 70560, Note_on_c, 1, 76, 48
3, 70569, Note_on_c, 1, 77, 0
3, 70679, Note_on_c, 1, 76, 0
3, 71760, Note_on_c, 1, 79, 48
3, 71940, Note_on_c, 1, 77, 48
3, 71949, Note_on_c, 1, 79, 0
3, 72000, Note_on_c, 1, 76, 48
3, 72009, Note_on_c, 1, 77, 0
3, 72119, Note_on_c, 1, 76, 0
3, 73200, Note_on_c, 1, 78, 64
3, 73380, Note_on_c, 1, 77, 56
3, 73389, Note_on_c, 1, 78, 0
3, 73440, Note_on_c, 1, 75, 56
3, 73449, Note_on_c, 1, 77, 0
3, 73559, Note_on_c, 1, 75, 0
3, 73920, Note_on_c, 1, 79, 127
3, 74099, Note_on_c, 1, 79, 0
3, 74100, Note_on_c, 1, 77, 127
3, 74159, Note_on_c, 1, 77, 0
3, 74160, Note_on_c, 1, 75, 127
3, 74219, Note_on_c, 1, 75, 0
3, 74280, Note_on_c, 1, 74, 127
3, 74339, Note_on_c, 1, 74, 0
3, 74400, Note_on_c, 1, 72, 127
3, 74459, Note_on_c, 1, 72, 0
3, 74520, Note_on_c, 1, 70, 48
3, 75420, Note_on_c, 1, 65, 48
3, 75479, Note_on_c, 1, 70, 0
3, 75480, Note_on_c, 1, 69, 48
3, 75480, Note_on_c, 1, 72, 48
3, 75489, Note_on_c, 1, 65, 0
3, 75540, Note_on_c, 1, 74, 48
3, 75540, Note_on_c, 1, 70, 48
3, 75549, Note_on_c, 1, 72, 0
3, 75549, Note_on_c, 1, 69, 0
3, 75600, Note_on_c, 1, 75, 48
3, 75600, Note_on_c, 1, 72, 48
3, 75609, Note_on_c, 1, 74, 0
3, 75609, Note_on_c, 1, 70, 0
3, 75689, Note_on_c, 1, 75, 0
3, 75689, Note_on_c, 1, 72, 0
3, 75720, Note_on_c, 1, 75, 48
3, 75720, Note_on_c, 1, 72, 48
3, 75809, Note_on_c, 1, 72, 0
3, 75809, Note_on_c, 1, 75, 0
3, 75840, Note_on_c, 1, 75, 48
3, 75840, Note_on_c, 1, 72, 48
3, 75929, Note_on_c, 1, 72, 0
3, 75929, Note_on_c, 1, 75, 0
3, 75960, Note_on_c, 1, 74, 48
3, 75960, Note_on_c, 1, 70, 48
3, 76079, Note_on_c, 1, 70, 0
3, 76079, Note_on_c, 1, 74, 0
3, 77400, Note_on_c, 1, 75, 96
3, 77400, Note_on_c, 1, 72, 96
3, 77459, Note_on_c, 1, 72, 0
3, 77459, Note_on_c, 1, 75, 0
3, 77520, Note_on_c, 1, 72, 96
3, 77520, Note_on_c, 1, 75, 96
3, 77579, Note_on_c, 1, 75, 0
3, 77579, Note_on_c, 1, 72, 0
3, 78060, Note_on_c, 1, 75, 96
3, 78060, Note_on_c, 1, 72, 96
3, 78089, Note_on_c, 1, 72, 0
3, 78089, Note_on_c, 1, 75, 0
3, 78120, Note_on_c, 1, 70, 96
3, 78120, Note_on_c, 1, 74, 96
3, 78179, Note_on_c, 1, 74, 0
3, 78179, Note_on_c, 1, 70, 0
3, 78240, Note_on_c, 1, 82, 96
3, 78240, Note_on_c, 1, 74, 96
3, 78299, Note_on_c, 1, 74, 0
3, 78299, Note_on_c, 1, 82, 0
3, 78780, Note_on_c, 1, 79, 96
3, 78780, Note_on_c, 1, 70, 96
3, 78809, Note_on_c, 1, 70, 0
3, 78809, Note_on_c, 1, 79, 0
3, 78840, Note_on_c, 1, 80, 96
3, 78840, Note_on_c, 1, 71, 96
3, 78899, Note_on_c, 1, 71, 0
3, 78899, Note_on_c, 1, 80, 0
3, 78960, Note_on_c, 1, 71, 96
3, 78960, Note_on_c, 1, 80, 96
3, 79019, Note_on_c, 1, 80, 0
3, 79019, Note_on_c, 1, 71, 0
3, 79500, Note_on_c, 1, 80, 96
3, 79500, Note_on_c, 1, 71, 96
3, 79529, Note_on_c, 1, 71, 0
3, 79529, Note_on_c, 1, 80, 0
3, 79560, Note_on_c, 1, 72, 96
3, 79560, Note_on_c, 1, 79, 96
3, 79589, Note_on_c, 1, 79, 0
3, 79589, Note_on_c, 1, 72, 0
3, 79620, Note_on_c, 1, 70, 96
3, 79620, Note_on_c, 1, 72, 96
3, 79739, Note_on_c, 1, 72, 0
3, 79739, Note_on_c, 1, 70, 0
3, 79740, Note_on_c, 1, 72, 96
3, 79740, Note_on_c, 1, 70, 96
3, 79769, Note_on_c, 1, 70, 0
3, 79769, Note_on_c, 1, 72, 0
3, 79800, Note_on_c, 1, 69, 96
3, 79800, Note_on_c, 1, 72, 96
3, 79829, Note_on_c, 1, 72, 0
3, 79829, Note_on_c, 1, 69, 0
3, 79860, Note_on_c, 1, 74, 96
3, 79860, Note_on_c, 1, 69, 96
3, 79889, Note_on_c, 1, 69, 0
3, 79889, Note_on_c, 1, 74, 0
3, 79920, Note_on_c, 1, 70, 96
3, 79920, Note_on_c, 1, 74, 96
3, 79949, Note_on_c, 1, 74, 0
3, 79949, Note_on_c, 1, 70, 0
3, 79980, Note_on_c, 1, 75, 96
3, 79980, Note_on_c, 1, 70, 96
3, 80099, Note_on_c, 1, 70, 0
3, 80099, Note_on_c, 1, 75, 0
3, 80100, Note_on_c, 1, 70, 96
3, 80100, Note_on_c, 1, 75, 96
3, 80129, Note_on_c, 1, 75, 0
3, 80129, Note_on_c, 1, 70, 0
3, 80160, Note_on_c, 1, 75, 96
3, 80160, Note_on_c, 1, 72, 96
3, 80189, Note_on_c, 1, 72, 0
3, 80189, Note_on_c, 1, 75, 0
3, 80220, Note_on_c, 1, 72, 96
3, 80220, Note_on_c, 1, 77, 96
3, 80249, Note_on_c, 1, 77, 0
3, 80249, Note_on_c, 1, 72, 0
3, 80280, Note_on_c, 1, 77, 96
3, 80280, Note_on_c, 1, 74, 96
3, 80399, Note_on_c, 1, 74, 0
3, 80399, Note_on_c, 1, 77, 0
3, 80400, Note_on_c, 1, 82, 96
3, 80400, Note_on_c, 1, 70, 96
3, 80519, Note_on_c, 1, 70, 0
3, 80519, Note_on_c, 1, 82, 0
3, 80520, Note_on_c, 1, 70, 96
3, 80520, Note_on_c, 1, 82, 96
3, 80639, Note_on_c, 1, 82, 0
3, 80639, Note_on_c, 1, 70, 0
3, 80640, Note_on_c, 1, 82, 96
3, 80640, Note_on_c, 1, 70, 96
3, 80759, Note_on_c, 1, 70, 0
3, 80759, Note_on_c, 1, 82, 0
3, 80760, Note_on_c, 1, 70, 96
3, 80760, Note_on_c, 1, 82, 96
3, 80879, Note_on_c, 1, 82, 0
3, 80879, Note_on_c, 1, 70, 0
3, 80880, Note_on_c, 1, 82, 96
3, 80880, Note_on_c, 1, 70, 96
3, 81240, Note_on_c, 1, 71, 96
3, 81240, Note_on_c, 1, 83, 96
3, 81249, Note_on_c, 1, 70, 0
3, 81249, Note_on_c, 1, 82, 0
3, 81360, Note_on_c, 1, 84, 96
3, 81360, Note_on_c, 1, 72, 96
3, 81369, Note_on_c, 1, 71, 0
3, 81369, Note_on_c, 1, 83, 0
3, 81420, Note_on_c, 1, 79, 96
3, 81420, Note_on_c, 1, 74, 96
3, 81429, Note_on_c, 1, 84, 0
3, 81429, Note_on_c, 1, 72, 0
3, 81480, Note_on_c, 1, 77, 96
3, 81489, Note_on_c, 1, 74, 0
3, 81539, Note_on_c, 1, 79, 0
3, 81540, Note_on_c, 1, 79, 96
3, 81540, Note_on_c, 1, 75, 96
3, 81549, Note_on_c, 1, 77, 0
3, 81600, Note_on_c, 1, 77, 96
3, 81600, Note_on_c, 1, 74, 96
3, 81609, Note_on_c, 1, 75, 0
3, 81609, Note_on_c, 1, 79, 0
3, 81660, Note_on_c, 1, 75, 96
3, 81660, Note_on_c, 1, 72, 96
3, 81669, Note_on_c, 1, 77, 0
3, 81669, Note_on_c, 1, 74, 0
3, 81720, Note_on_c, 1, 74, 96
3, 81720, Note_on_c, 1, 70, 96
3, 81729, Note_on_c, 1, 75, 0
3, 81729, Note_on_c, 1, 72, 0
3, 81839, Note_on_c, 1, 74, 0
3, 81839, Note_on_c, 1, 70, 0
3, 82440, Note_on_c, 1, 77, 96
3, 83219, Note_on_c, 1, 77, 0
3, 83220, Note_on_c, 1, 76, 127
3, 83249, Note_on_c, 1, 76, 0
3, 83280, Note_on_c, 1, 75, 127
3, 83309, Note_on_c, 1, 75, 0
3, 83340, Note_on_c, 1, 74, 127
3, 83369, Note_on_c, 1, 74, 0
3, 83400, Note_on_c, 1, 72, 127
3, 83429, Note_on_c, 1, 72, 0
3, 83460, Note_on_c, 1, 70, 127
3, 83489, Note_on_c, 1, 70, 0
3, 83520, Note_on_c, 1, 69, 127
3, 83549, Note_on_c, 1, 69, 0
3, 83580, Note_on_c, 1, 79, 127
3, 83580, Note_on_c, 1, 67, 127
3, 83609, Note_on_c, 1, 67, 0
3, 83609, Note_on_c, 1, 79, 0
3, 83640, Note_on_c, 1, 77, 127
3, 83640, Note_on_c, 1, 65, 127
3, 83669, Note_on_c, 1, 65, 0
3, 83669, Note_on_c, 1, 77, 0
3, 83700, Note_on_c, 1, 75, 127
3, 83700, Note_on_c, 1, 63, 127
3, 83729, Note_on_c, 1, 63, 0
3, 83729, Note_on_c, 1, 75, 0
3, 83760, Note_on_c, 1, 74, 127
3, 83760, Note_on_c, 1, 62, 127
3, 83789, Note_on_c, 1, 62, 0
3, 83789, Note_on_c, 1, 74, 0
3, 83820, Note_on_c, 1, 72, 127
3, 83820, Note_on_c, 1, 60, 127
3, 83849, Note_on_c, 1, 60, 0
3, 83849, Note_on_c, 1, 72, 0
3, 83880, Note_on_c, 1, 70, 127
3, 83999, Note_on_c, 1, 70, 0
3, 84360, Note_on_c, 1, 77, 64
3, 84449, Note_on_c, 1, 77, 0
3, 84480, Note_on_c, 1, 77, 72
3, 84569, Note_on_c, 1, 77, 0
3, 84600, Note_on_c, 1, 77, 80
3, 84689, Note_on_c, 1, 77, 0
3, 84720, Note_on_c, 1, 77, 88
3, 84809, Note_on_c, 1, 77, 0
3, 84840, Note_on_c, 1, 70, 96
3, 84840, Note_on_c, 1, 78, 96
3, 84929, Note_on_c, 1, 78, 0
3, 84960, Note_on_c, 1, 79, 88
3, 85080, Note_on_c, 1, 71, 80
3, 85089, Note_on_c, 1, 70, 0
3, 85200, Note_on_c, 1, 72, 64
3, 85209, Note_on_c, 1, 71, 0
3, 85319, Note_on_c, 1, 72, 0
3, 85319, Note_on_c, 1, 79, 0
3, 86280, Note_on_c, 1, 79, 96
3, 86520, Note_on_c, 1, 77, 96
3, 86529, Note_on_c, 1, 79, 0
3, 86580, Note_on_c, 1, 75, 84
3, 86589, Note_on_c, 1, 77, 0
3, 86640, Note_on_c, 1, 74, 72
3, 86649, Note_on_c, 1, 75, 0
3, 86700, Note_on_c, 1, 72, 64
3, 86709, Note_on_c, 1, 74, 0
3, 86760, Note_on_c, 1, 70, 48
3, 86769, Note_on_c, 1, 72, 0
3, 86879, Note_on_c, 1, 70, 0
3, 87240, Note_on_c, 1, 75, 64
3, 87329, Note_on_c, 1, 75, 0
3, 87360, Note_on_c, 1, 75, 72
3, 87449, Note_on_c, 1, 75, 0
3, 87480, Note_on_c, 1, 75, 80
3, 87569, Note_on_c, 1, 75, 0
3, 87600, Note_on_c, 1, 78, 88
3, 87600, Note_on_c, 1, 75, 88
3, 87689, Note_on_c, 1, 75, 0
3, 87689, Note_on_c, 1, 78, 0
3, 87720, Note_on_c, 1, 78, 88
3, 87720, Note_on_c, 1, 75, 88
3, 87809, Note_on_c, 1, 75, 0
3, 87809, Note_on_c, 1, 78, 0
3, 87840, Note_on_c, 1, 78, 96
3, 87840, Note_on_c, 1, 75, 96
3, 88199, Note_on_c, 1, 75, 0
3, 88199, Note_on_c, 1, 78, 0
3, 89040, Note_on_c, 1, 82, 48
3, 89160, Note_on_c, 1, 79, 48
3, 89169, Note_on_c, 1, 82, 0
3, 89280, Note_on_c, 1, 77, 56
3, 89289, Note_on_c, 1, 79, 0
3, 89520, Note_on_c, 1, 76, 56
3, 89529, Note_on_c, 1, 77, 0
3, 89640, Note_on_c, 1, 75, 48
3, 89649, Note_on_c, 1, 76, 0
3, 89759, Note_on_c, 1, 75, 0
3, 93060, Note_on_c, 1, 81, 89
3, 93060, Note_on_c, 1, 72, 89
3, 93089, Note_on_c, 1, 72, 0
3, 93089, Note_on_c, 1, 81, 0
3, 93120, Note_on_c, 1, 82, 92
3, 93120, Note_on_c, 1, 74, 92
3, 93149, Note_on_c, 1, 74, 0
3, 93149, Note_on_c, 1, 82, 0
3, 93180, Note_on_c, 1, 84, 94
3, 93180, Note_on_c, 1, 75, 94
3, 93209, Note_on_c, 1, 75, 0
3, 93209, Note_on_c, 1, 84, 0
3, 93240, Note_on_c, 1, 86, 96
3, 93240, Note_on_c, 1, 77, 96
3, 93359, Note_on_c, 1, 77, 0
3, 93359, Note_on_c, 1, 86, 0
3, 93360, Note_on_c, 1, 74, 112
3, 93360, Note_on_c, 1, 77, 112
3, 93599, Note_on_c, 1, 77, 0
3, 93599, Note_on_c, 1, 74, 0
3, 93720, Note_on_c, 1, 74, 112
3, 93720, Note_on_c, 1, 77, 112
3, 93959, Note_on_c, 1, 77, 0
3, 93959, Note_on_c, 1, 74, 0
3, 94080, Note_on_c, 1, 77, 112
3, 94080, Note_on_c, 1, 75, 112
3, 94319, Note_on_c, 1, 75, 0
3, 94319, Note_on_c, 1, 77, 0
3, 94440, Note_on_c, 1, 77, 112
3, 94440, Note_on_c, 1, 69, 112
3, 94559, Note_on_c, 1, 69, 0
3, 94559, Note_on_c, 1, 77, 0
3, 94560, Note_on_c, 1, 72, 96
3, 94560, Note_on_c, 1, 77, 96
3, 94679, Note_on_c, 1, 77, 0
3, 94679, Note_on_c, 1, 72, 0
3, 94680, Note_on_c, 1, 77, 127
3, 94680, Note_on_c, 1, 74, 127
3, 94799, Note_on_c, 1, 74, 0
3, 95879, Note_on_c, 1, 77, 0
3, 95880, Note_on_c, 1, 77, 127
3, 95999, Note_on_c, 1, 77, 0
3, 96000, Note_on_c, 1, 77, 127
3, 96119, Note_on_c, 1, 77, 0
3, 96120, Note_on_c, 1, 77, 127
3, 96360, Note_on_c, 1, 82, 127
3, 96420, Note_on_c, 1, 76, 127
3, 96429, Note_on_c, 1, 77, 0
3, 96480, Note_on_c, 1, 77, 127
3, 96489, Note_on_c, 1, 76, 0
3, 96539, Note_on_c, 1, 77, 0
3, 96539, Note_on_c, 1, 82, 0
3, 98100, Note_on_c, 1, 79, 127
3, 98100, Note_on_c, 1, 71, 127
3, 98129, Note_on_c, 1, 71, 0
3, 98129, Note_on_c, 1, 79, 0
3, 98160, Note_on_c, 1, 72, 127
3, 98160, Note_on_c, 1, 79, 127
3, 98189, Note_on_c, 1, 79, 0
3, 98189, Note_on_c, 1, 72, 0
3, 98220, Note_on_c, 1, 73, 127
3, 98220, Note_on_c, 1, 79, 127
3, 98249, Note_on_c, 1, 79, 0
3, 98249, Note_on_c, 1, 73, 0
3, 98280, Note_on_c, 1, 78, 127
3, 98280, Note_on_c, 1, 74, 127
3, 98339, Note_on_c, 1, 74, 0
3, 98339, Note_on_c, 1, 78, 0
3, 98400, Note_on_c, 1, 81, 127
3, 98400, Note_on_c, 1, 74, 127
3, 98459, Note_on_c, 1, 74, 0
3, 98459, Note_on_c, 1, 81, 0
3, 98520, Note_on_c, 1, 74, 127
3, 98520, Note_on_c, 1, 79, 127
3, 98579, Note_on_c, 1, 79, 0
3, 98579, Note_on_c, 1, 74, 0
3, 98760, Note_on_c, 1, 77, 127
3, 98760, Note_on_c, 1, 71, 127
3, 98819, Note_on_c, 1, 71, 0
3, 98819, Note_on_c, 1, 77, 0
3, 98880, Note_on_c, 1, 75, 127
3, 98880, Note_on_c, 1, 72, 127
3, 98939, Note_on_c, 1, 72, 0
3, 98939, Note_on_c, 1, 75, 0
3, 99120, Note_on_c, 1, 79, 127
3, 99120, Note_on_c, 1, 72, 127
3, 99179, Note_on_c, 1, 72, 0
3, 99179, Note_on_c, 1, 79, 0
3, 99240, Note_on_c, 1, 72, 127
3, 99240, Note_on_c, 1, 77, 127
3, 99299, Note_on_c, 1, 77, 0
3, 99299, Note_on_c, 1, 72, 0
3, 99480, Note_on_c, 1, 74, 127
3, 99480, Note_on_c, 1, 81, 127
3, 99539, Note_on_c, 1, 81, 0
3, 99539, Note_on_c, 1, 74, 0
3, 99600, Note_on_c, 1, 74, 127
3, 99600, Note_on_c, 1, 79, 127
3, 99659, Note_on_c, 1, 79, 0
3, 99659, Note_on_c, 1, 74, 0
3, 99840, Note_on_c, 1, 77, 127
3, 99840, Note_on_c, 1, 71, 127
3, 99899, Note_on_c, 1, 71, 0
3, 99899, Note_on_c, 1, 77, 0
3, 99960, Note_on_c, 1, 72, 127
3, 99960, Note_on_c, 1, 75, 127
3, 100019, Note_on_c, 1, 75, 0
3, 100019, Note_on_c, 1, 72, 0
3, 100200, Note_on_c, 1, 79, 127
3, 100200, Note_on_c, 1, 72, 127
3, 100259, Note_on_c, 1, 72, 0
3, 100259, Note_on_c, 1, 79, 0
3, 100440, Note_on_c, 1, 72, 127
3, 100440, Note_on_c, 1, 79, 127
3, 100499, Note_on_c, 1, 79, 0
3, 100499, Note_on_c, 1, 72, 0
3, 100680, Note_on_c, 1, 79, 127
3, 100680, Note_on_c, 1, 72, 127
3, 100739, Note_on_c, 1, 72, 0
3, 100739, Note_on_c, 1, 79, 0
3, 100920, Note_on_c, 1, 72, 127
3, 100920, Note_on_c, 1, 79, 127
3, 100979, Note_on_c, 1, 79, 0
3, 100979, Note_on_c, 1, 72, 0
3, 101160, Note_on_c, 1, 79, 127
3, 101160, Note_on_c, 1, 72, 127
3, 101219, Note_on_c, 1, 72, 0
3, 101219, Note_on_c, 1, 79, 0
3, 101400, Note_on_c, 1, 72, 127
3, 101400, Note_on_c, 1, 79, 127
3, 101459, Note_on_c, 1, 79, 0
3, 101459, Note_on_c, 1, 72, 0
3, 101880, Note_on_c, 1, 76, 96
3, 101880, Note_on_c, 1, 70, 96
3, 101909, Note_on_c, 1, 70, 0
3, 101909, Note_on_c, 1, 76, 0
3, 101910, Note_on_c, 1, 70, 48
3, 101910, Note_on_c, 1, 76, 48
3, 102240, Note_on_c, 1, 77, 48
3, 102249, Note_on_c, 1, 76, 0
3, 102599, Note_on_c, 1, 77, 0
3, 102599, Note_on_c, 1, 70, 0
3, 102600, Note_on_c, 1, 76, 96
3, 102600, Note_on_c, 1, 70, 96
3, 102629, Note_on_c, 1, 70, 0
3, 102629, Note_on_c, 1, 76, 0
3, 102630, Note_on_c, 1, 70, 48
3, 102630, Note_on_c, 1, 76, 48
3, 103079, Note_on_c, 1, 76, 0
3, 103079, Note_on_c, 1, 70, 0
3, 103080, Note_on_c, 1, 75, 48
3, 103080, Note_on_c, 1, 70, 48
3, 103139, Note_on_c, 1, 70, 0
3, 103139, Note_on_c, 1, 75, 0
3, 103320, Note_on_c, 1, 72, 48
3, 103320, Note_on_c, 1, 75, 48
3, 103379, Note_on_c, 1, 75, 0
3, 103379, Note_on_c, 1, 72, 0
3, 103560, Note_on_c, 1, 75, 48
3, 103560, Note_on_c, 1, 72, 48
3, 103619, Note_on_c, 1, 72, 0
3, 103619, Note_on_c, 1, 75, 0
3, 103800, Note_on_c, 1, 77, 48
3, 103800, Note_on_c, 1, 75, 48
3, 103859, Note_on_c, 1, 75, 0
3, 103859, Note_on_c, 1, 77, 0
3, 104040, Note_on_c, 1, 74, 48
3, 104040, Note_on_c, 1, 77, 48
3, 104099, Note_on_c, 1, 77, 0
3, 104099, Note_on_c, 1, 74, 0
3, 104280, Note_on_c, 1, 77, 48
3, 104280, Note_on_c, 1, 74, 48
3, 104339, Note_on_c, 1, 74, 0
3, 104340, Note_on_c, 1, 78, 48
3, 104349, Note_on_c, 1, 77, 0
3, 104400, Note_on_c, 1, 79, 64
3, 104409, Note_on_c, 1, 78, 0
3, 104760, Note_on_c, 1, 75, 72
3, 104939, Note_on_c, 1, 75, 0
3, 104939, Note_on_c, 1, 79, 0
3, 104940, Note_on_c, 1, 79, 81
3, 104940, Note_on_c, 1, 75, 81
3, 105000, Note_on_c, 1, 74, 83
3, 105000, Note_on_c, 1, 77, 83
3, 105009, Note_on_c, 1, 75, 0
3, 105009, Note_on_c, 1, 79, 0
3, 105060, Note_on_c, 1, 75, 86
3, 105060, Note_on_c, 1, 72, 86
3, 105069, Note_on_c, 1, 74, 0
3, 105069, Note_on_c, 1, 77, 0
3, 105119, Note_on_c, 1, 75, 0
3, 105119, Note_on_c, 1, 72, 0
3, 105120, Note_on_c, 1, 74, 88
3, 105120, Note_on_c, 1, 70, 88
3, 105179, Note_on_c, 1, 70, 0
3, 105179, Note_on_c, 1, 74, 0
3, 105180, Note_on_c, 1, 77, 93
3, 105180, Note_on_c, 1, 74, 93
3, 105239, Note_on_c, 1, 74, 0
3, 105239, Note_on_c, 1, 77, 0
3, 105240, Note_on_c, 1, 82, 97
3, 105240, Note_on_c, 1, 74, 97
3, 105299, Note_on_c, 1, 74, 0
3, 105299, Note_on_c, 1, 82, 0
3, 105300, Note_on_c, 1, 74, 101
3, 105300, Note_on_c, 1, 82, 101
3, 105359, Note_on_c, 1, 82, 0
3, 105359, Note_on_c, 1, 74, 0
3, 105360, Note_on_c, 1, 82, 105
3, 105360, Note_on_c, 1, 74, 105
3, 105419, Note_on_c, 1, 74, 0
3, 105419, Note_on_c, 1, 82, 0
3, 105420, Note_on_c, 1, 82, 109
3, 105420, Note_on_c, 1, 74, 109
3, 105479, Note_on_c, 1, 74, 0
3, 105479, Note_on_c, 1, 82, 0
3, 105480, Note_on_c, 1, 72, 127
3, 105480, Note_on_c, 1, 81, 127
3, 105839, Note_on_c, 1, 81, 0
3, 105839, Note_on_c, 1, 72, 0
3, 105840, Note_on_c, 1, 82, 96
3, 105840, Note_on_c, 1, 74, 96
3, 105899, Note_on_c, 1, 74, 0
3, 105899, Note_on_c, 1, 82, 0
3, 106200, Note_on_c, 1, 70, 96
3, 106259, Note_on_c, 1, 70, 0
3, 106560, Note_on_c, 1, 70, 96
3, 106619, Note_on_c, 1, 70, 0
3, 106920, Note_on_c, 1, 78, 96
3, 106920, Note_on_c, 1, 69, 96
3, 106979, Note_on_c, 1, 69, 0
3, 106979, Note_on_c, 1, 78, 0
3, 107040, Note_on_c, 1, 69, 96
3, 107040, Note_on_c, 1, 78, 96
3, 107099, Note_on_c, 1, 78, 0
3, 107099, Note_on_c, 1, 69, 0
3, 107160, Note_on_c, 1, 78, 96
3, 107160, Note_on_c, 1, 69, 96
3, 107219, Note_on_c, 1, 69, 0
3, 107219, Note_on_c, 1, 78, 0
3, 107280, Note_on_c, 1, 70, 96
3, 107280, Note_on_c, 1, 77, 96
3, 107339, Note_on_c, 1, 77, 0
3, 107339, Note_on_c, 1, 70, 0
3, 110400, Note_on_c, 1, 79, 32
3, 110520, Note_on_c, 1, 76, 32
3, 110529, Note_on_c, 1, 79, 0
3, 110760, Note_on_c, 1, 77, 32
3, 110769, Note_on_c, 1, 76, 0
3, 110879, Note_on_c, 1, 77, 0
3, 110880, Note_on_c, 1, 77, 32
3, 110999, Note_on_c, 1, 77, 0
3, 113880, Note_on_c, 1, 81, 48
3, 114060, Note_on_c, 1, 79, 48
3, 114069, Note_on_c, 1, 81, 0
3, 114120, Note_on_c, 1, 78, 48
3, 114129, Note_on_c, 1, 79, 0
3, 114239, Note_on_c, 1, 78, 0
3, 115320, Note_on_c, 1, 81, 48
3, 115500, Note_on_c, 1, 79, 48
3, 115509, Note_on_c, 1, 81, 0
3, 115560, Note_on_c, 1, 78, 48
3, 115569, Note_on_c, 1, 79, 0
3, 115679, Note_on_c, 1, 78, 0
3, 116760, Note_on_c, 1, 67, 96
3, 117059, Note_on_c, 1, 67, 0
3, 117060, Note_on_c, 1, 71, 48
3, 117089, Note_on_c, 1, 71, 0
3, 117120, Note_on_c, 1, 71, 48
3, 117149, Note_on_c, 1, 71, 0
3, 117180, Note_on_c, 1, 72, 48
3, 117209, Note_on_c, 1, 72, 0
3, 117240, Note_on_c, 1, 74, 48
3, 117269, Note_on_c, 1, 74, 0
3, 117300, Note_on_c, 1, 76, 48
3, 117329, Note_on_c, 1, 76, 0
3, 117360, Note_on_c, 1, 77, 48
3, 117479, Note_on_c, 1, 77, 0
3, 118680, Note_on_c, 1, 79, 48
3, 119160, Note_on_c, 1, 80, 56
3, 119169, Note_on_c, 1, 79, 0
3, 119639, Note_on_c, 1, 80, 0
3, 120120, Note_on_c, 1, 80, 48
3, 120600, Note_on_c, 1, 81, 64
3, 120609, Note_on_c, 1, 80, 0
3, 120840, Note_on_c, 1, 73, 80
3, 120960, Note_on_c, 1, 74, 96
3, 120969, Note_on_c, 1, 73, 0
3, 121079, Note_on_c, 1, 74, 0
3, 121079, Note_on_c, 1, 81, 0
3, 121080, Note_on_c, 1, 77, 127
3, 121080, Note_on_c, 1, 74, 127
3, 121139, Note_on_c, 1, 74, 0
3, 121139, Note_on_c, 1, 77, 0
3, 121200, Note_on_c, 1, 74, 127
3, 121200, Note_on_c, 1, 77, 127
3, 121259, Note_on_c, 1, 77, 0
3, 121259, Note_on_c, 1, 74, 0
3, 121320, Note_on_c, 1, 77, 127
3, 121320, Note_on_c, 1, 74, 127
3, 121379, Note_on_c, 1, 74, 0
3, 121379, Note_on_c, 1, 77, 0
3, 121440, Note_on_c, 1, 74, 127
3, 121440, Note_on_c, 1, 77, 127
3, 121499, Note_on_c, 1, 77, 0
3, 121499, Note_on_c, 1, 74, 0
3, 121560, Note_on_c, 1, 77, 127
3, 121560, Note_on_c, 1, 74, 127
3, 121619, Note_on_c, 1, 74, 0
3, 121619, Note_on_c, 1, 77, 0
3, 121680, Note_on_c, 1, 74, 127
3, 121680, Note_on_c, 1, 77, 127
3, 122399, Note_on_c, 1, 77, 0
3, 122399, Note_on_c, 1, 74, 0
3, 122400, Note_on_c, 1, 79, 127
3, 122400, Note_on_c, 1, 73, 127
3, 122459, Note_on_c, 1, 73, 0
3, 122459, Note_on_c, 1, 79, 0
3, 122520, Note_on_c, 1, 73, 127
3, 122520, Note_on_c, 1, 79, 127
3, 122579, Note_on_c, 1, 79, 0
3, 122579, Note_on_c, 1, 73, 0
3, 122640, Note_on_c, 1, 79, 127
3, 122640, Note_on_c, 1, 73, 127
3, 122699, Note_on_c, 1, 73, 0
3, 122699, Note_on_c, 1, 79, 0
3, 122760, Note_on_c, 1, 73, 127
3, 122760, Note_on_c, 1, 79, 127
3, 122819, Note_on_c, 1, 79, 0
3, 122819, Note_on_c, 1, 73, 0
3, 122880, Note_on_c, 1, 79, 127
3, 122880, Note_on_c, 1, 73, 127
3, 122939, Note_on_c, 1, 73, 0
3, 122939, Note_on_c, 1, 79, 0
3, 123000, Note_on_c, 1, 73, 127
3, 123000, Note_on_c, 1, 79, 127
3, 123059, Note_on_c, 1, 79, 0
3, 123059, Note_on_c, 1, 73, 0
3, 123120, Note_on_c, 1, 79, 127
3, 123120, Note_on_c, 1, 73, 127
3, 123719, Note_on_c, 1, 73, 0
3, 123719, Note_on_c, 1, 79, 0
3, 123720, Note_on_c, 1, 76, 127
3, 123720, Note_on_c, 1, 73, 127
3, 123839, Note_on_c, 1, 73, 0
3, 123839, Note_on_c, 1, 76, 0
3, 125280, Note_on_c, 1, 79, 127
3, 125280, Note_on_c, 1, 74, 127
3, 125339, Note_on_c, 1, 74, 0
3, 125339, Note_on_c, 1, 79, 0
3, 125400, Note_on_c, 1, 74, 127
3, 125400, Note_on_c, 1, 79, 127
3, 125459, Note_on_c, 1, 79, 0
3, 125459, Note_on_c, 1, 74, 0
3, 125520, Note_on_c, 1, 79, 127
3, 125520, Note_on_c, 1, 74, 127
3, 125579, Note_on_c, 1, 74, 0
3, 125579, Note_on_c, 1, 79, 0
3, 125640, Note_on_c, 1, 74, 127
3, 125640, Note_on_c, 1, 79, 127
3, 125699, Note_on_c, 1, 79, 0
3, 125699, Note_on_c, 1, 74, 0
3, 125760, Note_on_c, 1, 79, 127
3, 125760, Note_on_c, 1, 74, 127
3, 125819, Note_on_c, 1, 74, 0
3, 125819, Note_on_c, 1, 79, 0
3, 125880, Note_on_c, 1, 74, 127
3, 125880, Note_on_c, 1, 79, 127
3, 125939, Note_on_c, 1, 79, 0
3, 125939, Note_on_c, 1, 74, 0
3, 126000, Note_on_c, 1, 79, 127
3, 126000, Note_on_c, 1, 74, 127
3, 126719, Note_on_c, 1, 74, 0
3, 126719, Note_on_c, 1, 79, 0
3, 126720, Note_on_c, 1, 74, 127
3, 126720, Note_on_c, 1, 78, 127
3, 126779, Note_on_c, 1, 78, 0
3, 126779, Note_on_c, 1, 74, 0
3, 126840, Note_on_c, 1, 78, 127
3, 126840, Note_on_c, 1, 74, 127
3, 126899, Note_on_c, 1, 74, 0
3, 126899, Note_on_c, 1, 78, 0
3, 126960, Note_on_c, 1, 74, 127
3, 126960, Note_on_c, 1, 78, 127
3, 127019, Note_on_c, 1, 78, 0
3, 127019, Note_on_c, 1, 74, 0
3, 127080, Note_on_c, 1, 78, 127
3, 127080, Note_on_c, 1, 74, 127
3, 127139, Note_on_c, 1, 74, 0
3, 127139, Note_on_c, 1, 78, 0
3, 127200, Note_on_c, 1, 74, 127
3, 127200, Note_on_c, 1, 78, 127
3, 127259, Note_on_c, 1, 78, 0
3, 127259, Note_on_c, 1, 74, 0
3, 127320, Note_on_c, 1, 78, 127
3, 127320, Note_on_c, 1, 74, 127
3, 127379, Note_on_c, 1, 74, 0
3, 127379, Note_on_c, 1, 78, 0
3, 127440, Note_on_c, 1, 74, 127
3, 127440, Note_on_c, 1, 78, 127
3, 128039, Note_on_c, 1, 78, 0
3, 128039, Note_on_c, 1, 74, 0
3, 128040, Note_on_c, 1, 81, 127
3, 128040, Note_on_c, 1, 74, 127
3, 128159, Note_on_c, 1, 74, 0
3, 128159, Note_on_c, 1, 81, 0
3, 128160, Note_on_c, 1, 74, 48
3, 128160, Note_on_c, 1, 79, 48
3, 128279, Note_on_c, 1, 79, 0
3, 128279, Note_on_c, 1, 74, 0
3, 128340, Note_on_c, 1, 79, 48
3, 128399, Note_on_c, 1, 79, 0
3, 128400, Note_on_c, 1, 79, 48
3, 128459, Note_on_c, 1, 79, 0
3, 128700, Note_on_c, 1, 79, 48
3, 128759, Note_on_c, 1, 79, 0
3, 128760, Note_on_c, 1, 79, 48
3, 128819, Note_on_c, 1, 79, 0
3, 128940, Note_on_c, 1, 79, 54
3, 128999, Note_on_c, 1, 79, 0
3, 129000, Note_on_c, 1, 79, 61
3, 129059, Note_on_c, 1, 79, 0
3, 129060, Note_on_c, 1, 79, 67
3, 129119, Note_on_c, 1, 79, 0
3, 129120, Note_on_c, 1, 79, 73
3, 129179, Note_on_c, 1, 79, 0
3, 129180, Note_on_c, 1, 79, 80
3, 129239, Note_on_c, 1, 79, 0
3, 129240, Note_on_c, 1, 79, 86
3, 129359, Note_on_c, 1, 79, 0
3, 131220, Note_on_c, 1, 77, 96
3, 131279, Note_on_c, 1, 77, 0
3, 131280, Note_on_c, 1, 77, 96
3, 131339, Note_on_c, 1, 77, 0
3, 131580, Note_on_c, 1, 70, 96
3, 131580, Note_on_c, 1, 82, 96
3, 131639, Note_on_c, 1, 82, 0
3, 131639, Note_on_c, 1, 70, 0
3, 131640, Note_on_c, 1, 70, 96
3, 131640, Note_on_c, 1, 82, 96
3, 131699, Note_on_c, 1, 82, 0
3, 131699, Note_on_c, 1, 70, 0
3, 132480, Note_on_c, 1, 80, 127
3, 132480, Note_on_c, 1, 73, 127
3, 132839, Note_on_c, 1, 73, 0
3, 132839, Note_on_c, 1, 80, 0
3, 132840, Note_on_c, 1, 74, 127
3, 132840, Note_on_c, 1, 80, 127
3, 133199, Note_on_c, 1, 80, 0
3, 133199, Note_on_c, 1, 74, 0
3, 133200, Note_on_c, 1, 79, 127
3, 133200, Note_on_c, 1, 75, 127
3, 133319, Note_on_c, 1, 75, 0
3, 133319, Note_on_c, 1, 79, 0
3, 133920, Note_on_c, 1, 75, 96
3, 133949, Note_on_c, 1, 75, 0
3, 133950, Note_on_c, 1, 75, 48
3, 134339, Note_on_c, 1, 75, 0
3, 134340, Note_on_c, 1, 75, 48
3, 134369, Note_on_c, 1, 75, 0
3, 134400, Note_on_c, 1, 77, 48
3, 134429, Note_on_c, 1, 77, 0
3, 134460, Note_on_c, 1, 79, 48
3, 134489, Note_on_c, 1, 79, 0
3, 134520, Note_on_c, 1, 80, 48
3, 134549, Note_on_c, 1, 80, 0
3, 134580, Note_on_c, 1, 82, 48
3, 134609, Note_on_c, 1, 82, 0
3, 134640, Note_on_c, 1, 84, 48
3, 134759, Note_on_c, 1, 84, 0
3, 135360, Note_on_c, 1, 75, 96
3, 135389, Note_on_c, 1, 75, 0
3, 135390, Note_on_c, 1, 75, 48
3, 135779, Note_on_c, 1, 75, 0
3, 135780, Note_on_c, 1, 74, 48
3, 135809, Note_on_c, 1, 74, 0
3, 135840, Note_on_c, 1, 75, 48
3, 135869, Note_on_c, 1, 75, 0
3, 135900, Note_on_c, 1, 77, 48
3, 135929, Note_on_c, 1, 77, 0
3, 135960, Note_on_c, 1, 79, 48
3, 135989, Note_on_c, 1, 79, 0
3, 136020, Note_on_c, 1, 80, 48
3, 136049, Note_on_c, 1, 80, 0
3, 136080, Note_on_c, 1, 82, 48
3, 136199, Note_on_c, 1, 82, 0
3, 138240, Note_on_c, 1, 70, 96
3, 138269, Note_on_c, 1, 70, 0
3, 138270, Note_on_c, 1, 70, 48
3, 138659, Note_on_c, 1, 70, 0
3, 138660, Note_on_c, 1, 72, 48
3, 138689, Note_on_c, 1, 72, 0
3, 138720, Note_on_c, 1, 74, 48
3, 138749, Note_on_c, 1, 74, 0
3, 138780, Note_on_c, 1, 76, 48
3, 138809, Note_on_c, 1, 76, 0
3, 138840, Note_on_c, 1, 77, 48
3, 138869, Note_on_c, 1, 77, 0
3, 138900, Note_on_c, 1, 79, 48
3, 138929, Note_on_c, 1, 79, 0
3, 138960, Note_on_c, 1, 80, 48
3, 139079, Note_on_c, 1, 80, 0
3, 141960, Note_on_c, 1, 70, 70
3, 141960, Note_on_c, 1, 67, 70
3, 142019, Note_on_c, 1, 67, 0
3, 142019, Note_on_c, 1, 70, 0
3, 142080, Note_on_c, 1, 82, 96
3, 142080, Note_on_c, 1, 79, 96
3, 142320, Note_on_c, 1, 81, 85
3, 142320, Note_on_c, 1, 77, 85
3, 142329, Note_on_c, 1, 79, 0
3, 142329, Note_on_c, 1, 82, 0
3, 142439, Note_on_c, 1, 81, 0
3, 142439, Note_on_c, 1, 77, 0
3, 143400, Note_on_c, 1, 77, 127
3, 143400, Note_on_c, 1, 68, 127
3, 144119, Note_on_c, 1, 68, 0
3, 144119, Note_on_c, 1, 77, 0
3, 144120, Note_on_c, 1, 68, 127
3, 144120, Note_on_c, 1, 77, 127
3, 144359, Note_on_c, 1, 77, 0
3, 144359, Note_on_c, 1, 68, 0
3, 144360, Note_on_c, 1, 77, 127
3, 144360, Note_on_c, 1, 68, 127
3, 144599, Note_on_c, 1, 68, 0
3, 144599, Note_on_c, 1, 77, 0
3, 144600, Note_on_c, 1, 68, 127
3, 144600, Note_on_c, 1, 77, 127
3, 144839, Note_on_c, 1, 77, 0
3, 144839, Note_on_c, 1, 68, 0
3, 144840, Note_on_c, 1, 77, 127
3, 144840, Note_on_c, 1, 68, 127
3, 145079, Note_on_c, 1, 68, 0
3, 145079, Note_on_c, 1, 77, 0
3, 145080, Note_on_c, 1, 68, 127
3, 145080, Note_on_c, 1, 77, 127
3, 145319, Note_on_c, 1, 77, 0
3, 145319, Note_on_c, 1, 68, 0
3, 145320, Note_on_c, 1, 77, 127
3, 145320, Note_on_c, 1, 68, 127
3, 145439, Note_on_c, 1, 68, 0
3, 145439, Note_on_c, 1, 77, 0
3, 145560, Note_on_c, 1, 76, 127
3, 145560, Note_on_c, 1, 69, 127
3, 146279, Note_on_c, 1, 69, 0
3, 146279, Note_on_c, 1, 76, 0
3, 146280, Note_on_c, 1, 69, 127
3, 146280, Note_on_c, 1, 76, 127
3, 146519, Note_on_c, 1, 76, 0
3, 146519, Note_on_c, 1, 69, 0
3, 146520, Note_on_c, 1, 76, 127
3, 146520, Note_on_c, 1, 69, 127
3, 146759, Note_on_c, 1, 69, 0
3, 146759, Note_on_c, 1, 76, 0
3, 146760, Note_on_c, 1, 69, 127
3, 146760, Note_on_c, 1, 76, 127
3, 146999, Note_on_c, 1, 76, 0
3, 146999, Note_on_c, 1, 69, 0
3, 147000, Note_on_c, 1, 76, 127
3, 147000, Note_on_c, 1, 69, 127
3, 147239, Note_on_c, 1, 69, 0
3, 147239, Note_on_c, 1, 76, 0
3, 147240, Note_on_c, 1, 69, 127
3, 147240, Note_on_c, 1, 76, 127
3, 147479, Note_on_c, 1, 76, 0
3, 147479, Note_on_c, 1, 69, 0
3, 147480, Note_on_c, 1, 76, 127
3, 147480, Note_on_c, 1, 69, 127
3, 147599, Note_on_c, 1, 69, 0
3, 147599, Note_on_c, 1, 76, 0
3, 147720, Note_on_c, 1, 78, 127
3, 147720, Note_on_c, 1, 75, 127
3, 148439, Note_on_c, 1, 75, 0
3, 148439, Note_on_c, 1, 78, 0
3, 148440, Note_on_c, 1, 78, 127
3, 148440, Note_on_c, 1, 75, 127
3, 148679, Note_on_c, 1, 75, 0
3, 148679, Note_on_c, 1, 78, 0
3, 148680, Note_on_c, 1, 75, 127
3, 148680, Note_on_c, 1, 78, 127
3, 148919, Note_on_c, 1, 78, 0
3, 148919, Note_on_c, 1, 75, 0
3, 148920, Note_on_c, 1, 78, 127
3, 148920, Note_on_c, 1, 75, 127
3, 149159, Note_on_c, 1, 75, 0
3, 149159, Note_on_c, 1, 78, 0
3, 149160, Note_on_c, 1, 75, 127
3, 149160, Note_on_c, 1, 78, 127
3, 149399, Note_on_c, 1, 78, 0
3, 149399, Note_on_c, 1, 75, 0
3, 149400, Note_on_c, 1, 78, 127
3, 149400, Note_on_c, 1, 75, 127
3, 149639, Note_on_c, 1, 75, 0
3, 149639, Note_on_c, 1, 78, 0
3, 149640, Note_on_c, 1, 75, 127
3, 149640, Note_on_c, 1, 78, 127
3, 149759, Note_on_c, 1, 78, 0
3, 149759, Note_on_c, 1, 75, 0
3, 149880, Note_on_c, 1, 79, 127
3, 149880, Note_on_c, 1, 76, 127
3, 150599, Note_on_c, 1, 76, 0
3, 150599, Note_on_c, 1, 79, 0
3, 150600, Note_on_c, 1, 76, 127
3, 150600, Note_on_c, 1, 79, 127
3, 150839, Note_on_c, 1, 79, 0
3, 150839, Note_on_c, 1, 76, 0
3, 150840, Note_on_c, 1, 79, 127
3, 150840, Note_on_c, 1, 76, 127
3, 151079, Note_on_c, 1, 76, 0
3, 151079, Note_on_c, 1, 79, 0
3, 151080, Note_on_c, 1, 76, 127
3, 151080, Note_on_c, 1, 79, 127
3, 151319, Note_on_c, 1, 79, 0
3, 151319, Note_on_c, 1, 76, 0
3, 151320, Note_on_c, 1, 79, 127
3, 151320, Note_on_c, 1, 76, 127
3, 151559, Note_on_c, 1, 76, 0
3, 151559, Note_on_c, 1, 79, 0
3, 151560, Note_on_c, 1, 79, 127
3, 151560, Note_on_c, 1, 76, 127
3, 151799, Note_on_c, 1, 76, 0
3, 151799, Note_on_c, 1, 79, 0
3, 151800, Note_on_c, 1, 76, 127
3, 151800, Note_on_c, 1, 79, 127
3, 151919, Note_on_c, 1, 79, 0
3, 151919, Note_on_c, 1, 76, 0
3, 152040, Note_on_c, 1, 78, 127
3, 152040, Note_on_c, 1, 75, 127
3, 152279, Note_on_c, 1, 75, 0
3, 152279, Note_on_c, 1, 78, 0
3, 152280, Note_on_c, 1, 75, 127
3, 152280, Note_on_c, 1, 78, 127
3, 152519, Note_on_c, 1, 78, 0
3, 152519, Note_on_c, 1, 75, 0
3, 152520, Note_on_c, 1, 78, 127
3, 152520, Note_on_c, 1, 75, 127
3, 152639, Note_on_c, 1, 75, 0
3, 152639, Note_on_c, 1, 78, 0
3, 152760, Note_on_c, 1, 79, 127
3, 152760, Note_on_c, 1, 76, 127
3, 152999, Note_on_c, 1, 76, 0
3, 152999, Note_on_c, 1, 79, 0
3, 153000, Note_on_c, 1, 76, 127
3, 153000, Note_on_c, 1, 79, 127
3, 153239, Note_on_c, 1, 79, 0
3, 153239, Note_on_c, 1, 76, 0
3, 153240, Note_on_c, 1, 79, 127
3, 153240, Note_on_c, 1, 76, 127
3, 153299, Note_on_c, 1, 76, 0
3, 153299, Note_on_c, 1, 79, 0
3, 153360, Note_on_c, 1, 84, 96
3, 153360, Note_on_c, 1, 76, 96
3, 153599, Note_on_c, 1, 76, 0
3, 153599, Note_on_c, 1, 84, 0
3, 153720, Note_on_c, 1, 76, 96
3, 153720, Note_on_c, 1, 84, 96
3, 153959, Note_on_c, 1, 84, 0
3, 153959, Note_on_c, 1, 76, 0
3, 154080, Note_on_c, 1, 84, 96
3, 154080, Note_on_c, 1, 76, 96
3, 154319, Note_on_c, 1, 76, 0
3, 154319, Note_on_c, 1, 84, 0
3, 154440, Note_on_c, 1, 76, 96
3, 154440, Note_on_c, 1, 84, 96
3, 154679, Note_on_c, 1, 84, 0
3, 154679, Note_on_c, 1, 76, 0
3, 154680, Note_on_c, 1, 84, 96
3, 154680, Note_on_c, 1, 76, 96
3, 154739, Note_on_c, 1, 76, 0
3, 154739, Note_on_c, 1, 84, 0
3, 156360, Note_on_c, 1, 67, 56
3, 156360, Note_on_c, 1, 76, 56
3, 156480, Note_on_c, 1, 69, 56
3, 156480, Note_on_c, 1, 75, 56
3, 156489, Note_on_c, 1, 76, 0
3, 156489, Note_on_c, 1, 67, 0
3, 156600, Note_on_c, 1, 71, 96
3, 156600, Note_on_c, 1, 76, 96
3, 156609, Note_on_c, 1, 69, 0
3, 156609, Note_on_c, 1, 75, 0
3, 156629, Note_on_c, 1, 71, 0
3, 156629, Note_on_c, 1, 76, 0
3, 156630, Note_on_c, 1, 76, 56
3, 156630, Note_on_c, 1, 71, 56
3, 156780, Note_on_c, 1, 75, 56
3, 156780, Note_on_c, 1, 78, 56
3, 156789, Note_on_c, 1, 71, 0
3, 156789, Note_on_c, 1, 76, 0
3, 156840, Note_on_c, 1, 76, 56
3, 156840, Note_on_c, 1, 79, 56
3, 156849, Note_on_c, 1, 75, 0
3, 156849, Note_on_c, 1, 78, 0
3, 156959, Note_on_c, 1, 76, 0
3, 156959, Note_on_c, 1, 79, 0
3, 156960, Note_on_c, 1, 71, 56
3, 156960, Note_on_c, 1, 78, 56
3, 157080, Note_on_c, 1, 78, 56
3, 157080, Note_on_c, 1, 83, 56
3, 157089, Note_on_c, 1, 78, 0
3, 157089, Note_on_c, 1, 71, 0
3, 157200, Note_on_c, 1, 76, 56
3, 157200, Note_on_c, 1, 82, 56
3, 157209, Note_on_c, 1, 78, 0
3, 157209, Note_on_c, 1, 83, 0
3, 157320, Note_on_c, 1, 75, 96
3, 157320, Note_on_c, 1, 83, 96
3, 157329, Note_on_c, 1, 76, 0
3, 157329, Note_on_c, 1, 82, 0
3, 157349, Note_on_c, 1, 75, 0
3, 157349, Note_on_c, 1, 83, 0
3, 157350, Note_on_c, 1, 75, 48
3, 157350, Note_on_c, 1, 83, 48
3, 157500, Note_on_c, 1, 81, 56
3, 157509, Note_on_c, 1, 83, 0
3, 157560, Note_on_c, 1, 76, 48
3, 157560, Note_on_c, 1, 79, 56
3, 157569, Note_on_c, 1, 81, 0
3, 157569, Note_on_c, 1, 75, 0
3, 157620, Note_on_c, 1, 71, 48
3, 157620, Note_on_c, 1, 78, 56
3, 157629, Note_on_c, 1, 76, 0
3, 157629, Note_on_c, 1, 79, 0
3, 157679, Note_on_c, 1, 71, 0
3, 157679, Note_on_c, 1, 78, 0
3, 157680, Note_on_c, 1, 67, 56
3, 157680, Note_on_c, 1, 76, 56
3, 157799, Note_on_c, 1, 76, 0
3, 157799, Note_on_c, 1, 67, 0
3, 157800, Note_on_c, 1, 67, 56
3, 157800, Note_on_c, 1, 76, 56
3, 157920, Note_on_c, 1, 69, 56
3, 157920, Note_on_c, 1, 75, 56
3, 157929, Note_on_c, 1, 76, 0
3, 157929, Note_on_c, 1, 67, 0
3, 158040, Note_on_c, 1, 71, 96
3, 158040, Note_on_c, 1, 76, 96
3, 158049, Note_on_c, 1, 69, 0
3, 158049, Note_on_c, 1, 75, 0
3, 158069, Note_on_c, 1, 71, 0
3, 158069, Note_on_c, 1, 76, 0
3, 158070, Note_on_c, 1, 76, 56
3, 158070, Note_on_c, 1, 71, 56
3, 158220, Note_on_c, 1, 75, 56
3, 158220, Note_on_c, 1, 78, 56
3, 158229, Note_on_c, 1, 71, 0
3, 158229, Note_on_c, 1, 76, 0
3, 158280, Note_on_c, 1, 76, 56
3, 158280, Note_on_c, 1, 79, 56
3, 158289, Note_on_c, 1, 75, 0
3, 158289, Note_on_c, 1, 78, 0
3, 158399, Note_on_c, 1, 76, 0
3, 158399, Note_on_c, 1, 79, 0
3, 158400, Note_on_c, 1, 71, 56
3, 158400, Note_on_c, 1, 78, 56
3, 158520, Note_on_c, 1, 78, 56
3, 158520, Note_on_c, 1, 83, 56
3, 158529, Note_on_c, 1, 78, 0
3, 158529, Note_on_c, 1, 71, 0
3, 158640, Note_on_c, 1, 76, 56
3, 158640, Note_on_c, 1, 82, 56
3, 158649, Note_on_c, 1, 78, 0
3, 158649, Note_on_c, 1, 83, 0
3, 158759, Note_on_c, 1, 76, 0
3, 158759, Note_on_c, 1, 82, 0
3, 158760, Note_on_c, 1, 74, 56
3, 158760, Note_on_c, 1, 83, 56
3, 158940, Note_on_c, 1, 77, 58
3, 158949, Note_on_c, 1, 74, 0
3, 159000, Note_on_c, 1, 76, 60
3, 159000, Note_on_c, 1, 80, 60
3, 159009, Note_on_c, 1, 77, 0
3, 159009, Note_on_c, 1, 83, 0
3, 159060, Note_on_c, 1, 74, 54
3, 159069, Note_on_c, 1, 76, 0
3, 159119, Note_on_c, 1, 74, 0
3, 159119, Note_on_c, 1, 80, 0
3, 159120, Note_on_c, 1, 72, 48
3, 159120, Note_on_c, 1, 81, 48
3, 159239, Note_on_c, 1, 81, 0
3, 159239, Note_on_c, 1, 72, 0
3, 162000, Note_on_c, 1, 72, 96
3, 162240, Note_on_c, 1, 76, 96
3, 162249, Note_on_c, 1, 72, 0
3, 162360, Note_on_c, 1, 72, 96
3, 162369, Note_on_c, 1, 76, 0
3, 162600, Note_on_c, 1, 67, 96
3, 162609, Note_on_c, 1, 72, 0
3, 162719, Note_on_c, 1, 67, 0
3, 162720, Note_on_c, 1, 72, 96
3, 162779, Note_on_c, 1, 72, 0
3, 162840, Note_on_c, 1, 76, 96
3, 162899, Note_on_c, 1, 76, 0
3, 162960, Note_on_c, 1, 79, 96
3, 163019, Note_on_c, 1, 79, 0
3, 163080, Note_on_c, 1, 72, 96
3, 163320, Note_on_c, 1, 67, 96
3, 163329, Note_on_c, 1, 72, 0
3, 163439, Note_on_c, 1, 67, 0
3, 163440, Note_on_c, 1, 72, 96
3, 163499, Note_on_c, 1, 72, 0
3, 163560, Note_on_c, 1, 76, 96
3, 163619, Note_on_c, 1, 76, 0
3, 163680, Note_on_c, 1, 79, 96
3, 163739, Note_on_c, 1, 79, 0
3, 163800, Note_on_c, 1, 72, 96
3, 163859, Note_on_c, 1, 72, 0
3, 163920, Note_on_c, 1, 76, 96
3, 163979, Note_on_c, 1, 76, 0
3, 164040, Note_on_c, 1, 79, 112
3, 164219, Note_on_c, 1, 79, 0
3, 164220, Note_on_c, 1, 77, 96
3, 164249, Note_on_c, 1, 77, 0
3, 164280, Note_on_c, 1, 74, 96
3, 164309, Note_on_c, 1, 74, 0
3, 164340, Note_on_c, 1, 71, 96
3, 164369, Note_on_c, 1, 71, 0
3, 164400, Note_on_c, 1, 79, 96
3, 164429, Note_on_c, 1, 79, 0
3, 164460, Note_on_c, 1, 77, 96
3, 164489, Note_on_c, 1, 77, 0
3, 164520, Note_on_c, 1, 74, 96
3, 164549, Note_on_c, 1, 74, 0
3, 164580, Note_on_c, 1, 77, 96
3, 164609, Note_on_c, 1, 77, 0
3, 164640, Note_on_c, 1, 74, 96
3, 164669, Note_on_c, 1, 74, 0
3, 164700, Note_on_c, 1, 71, 96
3, 164729, Note_on_c, 1, 71, 0
3, 164760, Note_on_c, 1, 67, 96
3, 164789, Note_on_c, 1, 67, 0
3, 164820, Note_on_c, 1, 71, 96
3, 164849, Note_on_c, 1, 71, 0
3, 164880, Note_on_c, 1, 72, 96
3, 164939, Note_on_c, 1, 72, 0
3, 165240, Note_on_c, 1, 72, 96
3, 165299, Note_on_c, 1, 72, 0
3, 165360, Note_on_c, 1, 75, 96
3, 165419, Note_on_c, 1, 75, 0
3, 165480, Note_on_c, 1, 79, 112
3, 165659, Note_on_c, 1, 79, 0
3, 165660, Note_on_c, 1, 77, 96
3, 165689, Note_on_c, 1, 77, 0
3, 165720, Note_on_c, 1, 74, 96
3, 165749, Note_on_c, 1, 74, 0
3, 165780, Note_on_c, 1, 71, 96
3, 165809, Note_on_c, 1, 71, 0
3, 165840, Note_on_c, 1, 79, 96
3, 165869, Note_on_c, 1, 79, 0
3, 165900, Note_on_c, 1, 77, 96
3, 165929, Note_on_c, 1, 77, 0
3, 165960, Note_on_c, 1, 74, 96
3, 165989, Note_on_c, 1, 74, 0
3, 166020, Note_on_c, 1, 77, 96
3, 166049, Note_on_c, 1, 77, 0
3, 166080, Note_on_c, 1, 74, 96
3, 166109, Note_on_c, 1, 74, 0
3, 166140, Note_on_c, 1, 71, 96
3, 166169, Note_on_c, 1, 71, 0
3, 166200, Note_on_c, 1, 67, 96
3, 166229, Note_on_c, 1, 67, 0
3, 166260, Note_on_c, 1, 71, 96
3, 166289, Note_on_c, 1, 71, 0
3, 166320, Note_on_c, 1, 72, 96
3, 166440, Note_on_c, 1, 75, 96
3, 166449, Note_on_c, 1, 72, 0
3, 166560, Note_on_c, 1, 79, 96
3, 166569, Note_on_c, 1, 75, 0
3, 166679, Note_on_c, 1, 79, 0
3, 166680, Note_on_c, 1, 80, 96
3, 166920, Note_on_c, 1, 72, 96
3, 166929, Note_on_c, 1, 80, 0
3, 167039, Note_on_c, 1, 72, 0
3, 167040, Note_on_c, 1, 73, 96
3, 167160, Note_on_c, 1, 77, 96
3, 167169, Note_on_c, 1, 73, 0
3, 167280, Note_on_c, 1, 81, 96
3, 167289, Note_on_c, 1, 77, 0
3, 167399, Note_on_c, 1, 81, 0
3, 167400, Note_on_c, 1, 82, 112
3, 167640, Note_on_c, 1, 74, 96
3, 167649, Note_on_c, 1, 82, 0
3, 167759, Note_on_c, 1, 74, 0
3, 167760, Note_on_c, 1, 75, 96
3, 167819, Note_on_c, 1, 75, 0
3, 167880, Note_on_c, 1, 82, 96
3, 167880, Note_on_c, 1, 70, 96
3, 167939, Note_on_c, 1, 70, 0
3, 167939, Note_on_c, 1, 82, 0
3, 168000, Note_on_c, 1, 82, 96
3, 168000, Note_on_c, 1, 70, 96
3, 168059, Note_on_c, 1, 70, 0
3, 168059, Note_on_c, 1, 82, 0
3, 168120, Note_on_c, 1, 82, 96
3, 168120, Note_on_c, 1, 70, 96
3, 168179, Note_on_c, 1, 70, 0
3, 168179, Note_on_c, 1, 82, 0
3, 168240, Note_on_c, 1, 82, 96
3, 168240, Note_on_c, 1, 70, 96
3, 168299, Note_on_c, 1, 70, 0
3, 168299, Note_on_c, 1, 82, 0
3, 168360, Note_on_c, 1, 82, 112
3, 168360, Note_on_c, 1, 70, 112
3, 169319, Note_on_c, 1, 70, 0
3, 169319, Note_on_c, 1, 82, 0
3, 169320, Note_on_c, 1, 82, 127
3, 169320, Note_on_c, 1, 70, 127
3, 169439, Note_on_c, 1, 70, 0
3, 169439, Note_on_c, 1, 82, 0
3, 169440, Note_on_c, 1, 82, 127
3, 169440, Note_on_c, 1, 70, 127
3, 169559, Note_on_c, 1, 70, 0
3, 169559, Note_on_c, 1, 82, 0
3, 169560, Note_on_c, 1, 82, 127
3, 169560, Note_on_c, 1, 70, 127
3, 169679, Note_on_c, 1, 70, 0
3, 169679, Note_on_c, 1, 82, 0
3, 169680, Note_on_c, 1, 75, 127
3, 169799, Note_on_c, 1, 75, 0
3, 169800, Note_on_c, 1, 75, 127
3, 169919, Note_on_c, 1, 75, 0
3, 169920, Note_on_c, 1, 75, 127
3, 170039, Note_on_c, 1, 75, 0
3, 176400, Note_on_c, 1, 77, 48
3, 176639, Note_on_c, 1, 77, 0
3, 176640, Note_on_c, 1, 82, 48
3, 176640, Note_on_c, 1, 77, 48
3, 176759, Note_on_c, 1, 77, 0
3, 176760, Note_on_c, 1, 77, 48
3, 176769, Note_on_c, 1, 82, 0
3, 177000, Note_on_c, 1, 74, 48
3, 177009, Note_on_c, 1, 77, 0
3, 177119, Note_on_c, 1, 74, 0
3, 177120, Note_on_c, 1, 75, 48
3, 177239, Note_on_c, 1, 75, 0
3, 177240, Note_on_c, 1, 78, 48
3, 177240, Note_on_c, 1, 75, 48
3, 177359, Note_on_c, 1, 78, 0
3, 177360, Note_on_c, 1, 82, 48
3, 177360, Note_on_c, 1, 78, 48
3, 177369, Note_on_c, 1, 75, 0
3, 177479, Note_on_c, 1, 78, 0
3, 177479, Note_on_c, 1, 82, 0
3, 177480, Note_on_c, 1, 78, 48
3, 177480, Note_on_c, 1, 82, 48
3, 177599, Note_on_c, 1, 82, 0
3, 177599, Note_on_c, 1, 78, 0
3, 177840, Note_on_c, 1, 78, 48
3, 178080, Note_on_c, 1, 82, 48
3, 178089, Note_on_c, 1, 78, 0
3, 178200, Note_on_c, 1, 78, 48
3, 178209, Note_on_c, 1, 82, 0
3, 178440, Note_on_c, 1, 75, 48
3, 178449, Note_on_c, 1, 78, 0
3, 178559, Note_on_c, 1, 75, 0
3, 178560, Note_on_c, 1, 75, 48
3, 178679, Note_on_c, 1, 75, 0
3, 178680, Note_on_c, 1, 78, 48
3, 178680, Note_on_c, 1, 75, 48
3, 178799, Note_on_c, 1, 78, 0
3, 178800, Note_on_c, 1, 80, 48
3, 178800, Note_on_c, 1, 78, 48
3, 178809, Note_on_c, 1, 75, 0
3, 178919, Note_on_c, 1, 78, 0
3, 178919, Note_on_c, 1, 80, 0
3, 178920, Note_on_c, 1, 78, 48
3, 178920, Note_on_c, 1, 80, 48
3, 179039, Note_on_c, 1, 80, 0
3, 179039, Note_on_c, 1, 78, 0
3, 179280, Note_on_c, 1, 78, 48
3, 179520, Note_on_c, 1, 80, 48
3, 179529, Note_on_c, 1, 78, 0
3, 179640, Note_on_c, 1, 78, 48
3, 179649, Note_on_c, 1, 80, 0
3, 179880, Note_on_c, 1, 75, 48
3, 179889, Note_on_c, 1, 78, 0
3, 179999, Note_on_c, 1, 75, 0
3, 180000, Note_on_c, 1, 77, 48
3, 180120, Note_on_c, 1, 73, 48
3, 180120, Note_on_c, 1, 80, 48
3, 180129, Note_on_c, 1, 77, 0
3, 180239, Note_on_c, 1, 80, 0
3, 180240, Note_on_c, 1, 77, 48
3, 180240, Note_on_c, 1, 80, 48
3, 180249, Note_on_c, 1, 73, 0
3, 180359, Note_on_c, 1, 80, 0
3, 180359, Note_on_c, 1, 77, 0
3, 180360, Note_on_c, 1, 77, 48
3, 180360, Note_on_c, 1, 80, 48
3, 180479, Note_on_c, 1, 80, 0
3, 180479, Note_on_c, 1, 77, 0
3, 180720, Note_on_c, 1, 77, 48
3, 180959, Note_on_c, 1, 77, 0
3, 180960, Note_on_c, 1, 80, 48
3, 180960, Note_on_c, 1, 77, 48
3, 181079, Note_on_c, 1, 77, 0
3, 181079, Note_on_c, 1, 80, 0
3, 181080, Note_on_c, 1, 77, 48
3, 181080, Note_on_c, 1, 80, 48
3, 181319, Note_on_c, 1, 77, 0
3, 181320, Note_on_c, 1, 77, 48
3, 181320, Note_on_c, 1, 73, 48
3, 181329, Note_on_c, 1, 80, 0
3, 181439, Note_on_c, 1, 73, 0
3, 181439, Note_on_c, 1, 77, 0
3, 181440, Note_on_c, 1, 77, 48
3, 181440, Note_on_c, 1, 70, 48
3, 181559, Note_on_c, 1, 70, 0
3, 181560, Note_on_c, 1, 70, 49
3, 181560, Note_on_c, 1, 80, 49
3, 181569, Note_on_c, 1, 77, 0
3, 181679, Note_on_c, 1, 80, 0
3, 181679, Note_on_c, 1, 70, 0
3, 181680, Note_on_c, 1, 80, 50
3, 181680, Note_on_c, 1, 82, 50
3, 181799, Note_on_c, 1, 82, 0
3, 181799, Note_on_c, 1, 80, 0
3, 181800, Note_on_c, 1, 80, 51
3, 181800, Note_on_c, 1, 82, 51
3, 181919, Note_on_c, 1, 82, 0
3, 181919, Note_on_c, 1, 80, 0
3, 182160, Note_on_c, 1, 77, 54
3, 182400, Note_on_c, 1, 80, 56
3, 182409, Note_on_c, 1, 77, 0
3, 182520, Note_on_c, 1, 77, 48
3, 182529, Note_on_c, 1, 80, 0
3, 182760, Note_on_c, 1, 70, 48
3, 182769, Note_on_c, 1, 77, 0
3, 182879, Note_on_c, 1, 70, 0
3, 182880, Note_on_c, 1, 75, 96
3, 183120, Note_on_c, 1, 78, 56
3, 183129, Note_on_c, 1, 75, 0
3, 183239, Note_on_c, 1, 78, 0
3, 183600, Note_on_c, 1, 75, 96
3, 183840, Note_on_c, 1, 78, 92
3, 183849, Note_on_c, 1, 75, 0
3, 183959, Note_on_c, 1, 78, 0
3, 184320, Note_on_c, 1, 78, 127
3, 184320, Note_on_c, 1, 75, 127
3, 185159, Note_on_c, 1, 75, 0
3, 185159, Note_on_c, 1, 78, 0
3, 185160, Note_on_c, 1, 78, 127
3, 185160, Note_on_c, 1, 75, 127
3, 185279, Note_on_c, 1, 75, 0
3, 185279, Note_on_c, 1, 78, 0
3, 185280, Note_on_c, 1, 75, 127
3, 185280, Note_on_c, 1, 78, 127
3, 185399, Note_on_c, 1, 78, 0
3, 185399, Note_on_c, 1, 75, 0
3, 185400, Note_on_c, 1, 78, 127
3, 185400, Note_on_c, 1, 75, 127
3, 185519, Note_on_c, 1, 75, 0
3, 185519, Note_on_c, 1, 78, 0
3, 185520, Note_on_c, 1, 78, 127
3, 185520, Note_on_c, 1, 75, 127
3, 185639, Note_on_c, 1, 75, 0
3, 185639, Note_on_c, 1, 78, 0
3, 185640, Note_on_c, 1, 78, 127
3, 185640, Note_on_c, 1, 75, 127
3, 185759, Note_on_c, 1, 75, 0
3, 185759, Note_on_c, 1, 78, 0
3, 185760, Note_on_c, 1, 75, 96
3, 185760, Note_on_c, 1, 78, 96
3, 186119, Note_on_c, 1, 78, 0
3, 186119, Note_on_c, 1, 75, 0
3, 186120, Note_on_c, 1, 78, 96
3, 186120, Note_on_c, 1, 75, 96
3, 186479, Note_on_c, 1, 75, 0
3, 186479, Note_on_c, 1, 78, 0
3, 186480, Note_on_c, 1, 78, 96
3, 186480, Note_on_c, 1, 75, 96
3, 186839, Note_on_c, 1, 75, 0
3, 186839, Note_on_c, 1, 78, 0
3, 186840, Note_on_c, 1, 75, 96
3, 186840, Note_on_c, 1, 78, 96
3, 187199, Note_on_c, 1, 78, 0
3, 187199, Note_on_c, 1, 75, 0
3, 187200, Note_on_c, 1, 78, 48
3, 187559, Note_on_c, 1, 78, 0
3, 187560, Note_on_c, 1, 78, 48
3, 187919, Note_on_c, 1, 78, 0
3, 187920, Note_on_c, 1, 78, 48
3, 188279, Note_on_c, 1, 78, 0
3, 188280, Note_on_c, 1, 78, 48
3, 188639, Note_on_c, 1, 78, 0
3, 188640, Note_on_c, 1, 78, 48
3, 188999, Note_on_c, 1, 78, 0
3, 189000, Note_on_c, 1, 77, 44
3, 189359, Note_on_c, 1, 77, 0
3, 189360, Note_on_c, 1, 77, 40
3, 189719, Note_on_c, 1, 77, 0
3, 189720, Note_on_c, 1, 75, 36
3, 190079, Note_on_c, 1, 75, 0
3, 190080, Note_on_c, 1, 75, 32
3, 190439, Note_on_c, 1, 75, 0
3, 190440, Note_on_c, 1, 75, 32
3, 190799, Note_on_c, 1, 75, 0
3, 190800, Note_on_c, 1, 74, 32
3, 191159, Note_on_c, 1, 74, 0
3, 191160, Note_on_c, 1, 74, 32
3, 191519, Note_on_c, 1, 74, 0
3, 192240, Note_on_c, 1, 74, 32
3, 192599, Note_on_c, 1, 74, 0
3, 192600, Note_on_c, 1, 74, 32
3, 192959, Note_on_c, 1, 74, 0
3, 193680, Note_on_c, 1, 74, 32
3, 194039, Note_on_c, 1, 74, 0
3, 194040, Note_on_c, 1, 74, 32
3, 194399, Note_on_c, 1, 74, 0
3, 196560, Note_on_c, 1, 74, 96
3, 196560, Note_on_c, 1, 68, 96
3, 196919, Note_on_c, 1, 68, 0
3, 196919, Note_on_c, 1, 74, 0
3, 196920, Note_on_c, 1, 80, 127
3, 196920, Note_on_c, 1, 74, 127
3, 197279, Note_on_c, 1, 74, 0
3, 197279, Note_on_c, 1, 80, 0
3, 197280, Note_on_c, 1, 79, 127
3, 197280, Note_on_c, 1, 75, 127
3, 197399, Note_on_c, 1, 75, 0
3, 197399, Note_on_c, 1, 79, 0
3, 205920, Note_on_c, 1, 77, 48
3, 206280, Note_on_c, 1, 75, 56
3, 206289, Note_on_c, 1, 77, 0
3, 206640, Note_on_c, 1, 74, 32
3, 206649, Note_on_c, 1, 75, 0
3, 206759, Note_on_c, 1, 74, 0
3, 208320, Note_on_c, 1, 70, 64
3, 208349, Note_on_c, 1, 70, 0
3, 208380, Note_on_c, 1, 72, 68
3, 208409, Note_on_c, 1, 72, 0
3, 208440, Note_on_c, 1, 74, 72
3, 208469, Note_on_c, 1, 74, 0
3, 208500, Note_on_c, 1, 75, 76
3, 208529, Note_on_c, 1, 75, 0
3, 208560, Note_on_c, 1, 77, 80
3, 208589, Note_on_c, 1, 77, 0
3, 208620, Note_on_c, 1, 79, 84
3, 208649, Note_on_c, 1, 79, 0
3, 208680, Note_on_c, 1, 80, 88
3, 208709, Note_on_c, 1, 80, 0
3, 208740, Note_on_c, 1, 74, 92
3, 208769, Note_on_c, 1, 74, 0
3, 208800, Note_on_c, 1, 75, 96
3, 209040, Note_on_c, 1, 79, 96
3, 209049, Note_on_c, 1, 75, 0
3, 209160, Note_on_c, 1, 75, 96
3, 209169, Note_on_c, 1, 79, 0
3, 209400, Note_on_c, 1, 70, 96
3, 209409, Note_on_c, 1, 75, 0
3, 209519, Note_on_c, 1, 70, 0
3, 209520, Note_on_c, 1, 75, 96
3, 209639, Note_on_c, 1, 75, 0
3, 209640, Note_on_c, 1, 75, 96
3, 209759, Note_on_c, 1, 75, 0
3, 209760, Note_on_c, 1, 75, 96
3, 209879, Note_on_c, 1, 75, 0
3, 209880, Note_on_c, 1, 75, 96
3, 210119, Note_on_c, 1, 75, 0
3, 210120, Note_on_c, 1, 76, 112
3, 210120, Note_on_c, 1, 73, 112
3, 210239, Note_on_c, 1, 73, 0
3, 210239, Note_on_c, 1, 76, 0
3, 210240, Note_on_c, 1, 77, 96
3, 210240, Note_on_c, 1, 72, 96
3, 210359, Note_on_c, 1, 72, 0
3, 210359, Note_on_c, 1, 77, 0
3, 210360, Note_on_c, 1, 77, 96
3, 210360, Note_on_c, 1, 72, 96
3, 210479, Note_on_c, 1, 72, 0
3, 210479, Note_on_c, 1, 77, 0
3, 210480, Note_on_c, 1, 77, 96
3, 210480, Note_on_c, 1, 72, 96
3, 210599, Note_on_c, 1, 72, 0
3, 210599, Note_on_c, 1, 77, 0
3, 210600, Note_on_c, 1, 77, 96
3, 210600, Note_on_c, 1, 72, 96
3, 210839, Note_on_c, 1, 72, 0
3, 210839, Note_on_c, 1, 77, 0
3, 210840, Note_on_c, 1, 78, 112
3, 210840, Note_on_c, 1, 72, 112
3, 210959, Note_on_c, 1, 72, 0
3, 210959, Note_on_c, 1, 78, 0
3, 210960, Note_on_c, 1, 79, 112
3, 210960, Note_on_c, 1, 70, 112
3, 211319, Note_on_c, 1, 70, 0
3, 211319, Note_on_c, 1, 79, 0
3, 211320, Note_on_c, 1, 80, 112
3, 211320, Note_on_c, 1, 72, 112
3, 211679, Note_on_c, 1, 72, 0
3, 211679, Note_on_c, 1, 80, 0
3, 211680, Note_on_c, 1, 80, 112
3, 211680, Note_on_c, 1, 71, 112
3, 212159, Note_on_c, 1, 71, 0
3, 212159, Note_on_c, 1, 80, 0
3, 212160, Note_on_c, 1, 70, 112
3, 212160, Note_on_c, 1, 80, 112
3, 212279, Note_on_c, 1, 80, 0
3, 212279, Note_on_c, 1, 70, 0
3, 212280, Note_on_c, 1, 80, 112
3, 212280, Note_on_c, 1, 70, 112
3, 212399, Note_on_c, 1, 70, 0
3, 212399, Note_on_c, 1, 80, 0
3, 212400, Note_on_c, 1, 79, 127
3, 212400, Note_on_c, 1, 70, 127
3, 212639, Note_on_c, 1, 70, 0
3, 212639, Note_on_c, 1, 79, 0
3, 212640, Note_on_c, 1, 82, 127
3, 212640, Note_on_c, 1, 79, 127
3, 212759, Note_on_c, 1, 79, 0
3, 212759, Note_on_c, 1, 82, 0
3, 212760, Note_on_c, 1, 79, 127
3, 212760, Note_on_c, 1, 82, 127
3, 212999, Note_on_c, 1, 82, 0
3, 212999, Note_on_c, 1, 79, 0
3, 213000, Note_on_c, 1, 82, 127
3, 213000, Note_on_c, 1, 79, 127
3, 213239, Note_on_c, 1, 79, 0
3, 213239, Note_on_c, 1, 82, 0
3, 213240, Note_on_c, 1, 79, 127
3, 213240, Note_on_c, 1, 82, 127
3, 213359, Note_on_c, 1, 82, 0
3, 213359, Note_on_c, 1, 79, 0
3, 213360, Note_on_c, 1, 82, 127
3, 213360, Note_on_c, 1, 79, 127
3, 213479, Note_on_c, 1, 79, 0
3, 213479, Note_on_c, 1, 82, 0
3, 213480, Note_on_c, 1, 79, 127
3, 213480, Note_on_c, 1, 82, 127
3, 213719, Note_on_c, 1, 82, 0
3, 213719, Note_on_c, 1, 79, 0
3, 213720, Note_on_c, 1, 83, 127
3, 213720, Note_on_c, 1, 79, 127
3, 213840, Note_on_c, 1, 84, 127
3, 213849, Note_on_c, 1, 83, 0
3, 213959, Note_on_c, 1, 84, 0
3, 213959, Note_on_c, 1, 79, 0
3, 213960, Note_on_c, 1, 79, 127
3, 213960, Note_on_c, 1, 84, 127
3, 214079, Note_on_c, 1, 84, 0
3, 214079, Note_on_c, 1, 79, 0
3, 214080, Note_on_c, 1, 84, 127
3, 214080, Note_on_c, 1, 79, 127
3, 214199, Note_on_c, 1, 79, 0
3, 214199, Note_on_c, 1, 84, 0
3, 214200, Note_on_c, 1, 79, 127
3, 214200, Note_on_c, 1, 84, 127
3, 214439, Note_on_c, 1, 84, 0
3, 214439, Note_on_c, 1, 79, 0
3, 214440, Note_on_c, 1, 84, 127
3, 214440, Note_on_c, 1, 79, 127
3, 214559, Note_on_c, 1, 79, 0
3, 214559, Note_on_c, 1, 84, 0
3, 214560, Note_on_c, 1, 84, 127
3, 214560, Note_on_c, 1, 77, 127
3, 214919, Note_on_c, 1, 77, 0
3, 214919, Note_on_c, 1, 84, 0
3, 214920, Note_on_c, 1, 84, 127
3, 214920, Note_on_c, 1, 75, 127
3, 215279, Note_on_c, 1, 75, 0
3, 215279, Note_on_c, 1, 84, 0
3, 215280, Note_on_c, 1, 82, 127
3, 215280, Note_on_c, 1, 74, 127
3, 215399, Note_on_c, 1, 74, 0
3, 215399, Note_on_c, 1, 82, 0
3, 215760, Note_on_c, 1, 82, 48
3, 215940, Note_on_c, 1, 80, 48
3, 215949, Note_on_c, 1, 82, 0
3, 216000, Note_on_c, 1, 77, 48
3, 216009, Note_on_c, 1, 80, 0
3, 216119, Note_on_c, 1, 77, 0
3, 217200, Note_on_c, 1, 82, 48
3, 217380, Note_on_c, 1, 79, 48
3, 217389, Note_on_c, 1, 82, 0
3, 217440, Note_on_c, 1, 75, 48
3, 217449, Note_on_c, 1, 79, 0
3, 217559, Note_on_c, 1, 75, 0
3, 219000, Note_on_c, 1, 84, 127
3, 219000, Note_on_c, 1, 72, 127
3, 219179, Note_on_c, 1, 72, 0
3, 219179, Note_on_c, 1, 84, 0
3, 219180, Note_on_c, 1, 82, 127
3, 219180, Note_on_c, 1, 70, 127
3, 219209, Note_on_c, 1, 70, 0
3, 219209, Note_on_c, 1, 82, 0
3, 219240, Note_on_c, 1, 80, 127
3, 219240, Note_on_c, 1, 68, 127
3, 219299, Note_on_c, 1, 68, 0
3, 219299, Note_on_c, 1, 80, 0
3, 219360, Note_on_c, 1, 79, 127
3, 219360, Note_on_c, 1, 67, 127
3, 219419, Note_on_c, 1, 67, 0
3, 219419, Note_on_c, 1, 79, 0
3, 219480, Note_on_c, 1, 77, 127
3, 219480, Note_on_c, 1, 65, 127
3, 219539, Note_on_c, 1, 65, 0
3, 219539, Note_on_c, 1, 77, 0
3, 219600, Note_on_c, 1, 75, 48
3, 220320, Note_on_c, 1, 70, 48
3, 220560, Note_on_c, 1, 77, 48
3, 220560, Note_on_c, 1, 74, 48
3, 220569, Note_on_c, 1, 70, 0
3, 220569, Note_on_c, 1, 75, 0
3, 220620, Note_on_c, 1, 79, 48
3, 220620, Note_on_c, 1, 75, 48
3, 220629, Note_on_c, 1, 77, 0
3, 220629, Note_on_c, 1, 74, 0
3, 220679, Note_on_c, 1, 79, 0
3, 220679, Note_on_c, 1, 75, 0
3, 220680, Note_on_c, 1, 80, 48
3, 220680, Note_on_c, 1, 77, 48
3, 220769, Note_on_c, 1, 77, 0
3, 220769, Note_on_c, 1, 80, 0
3, 220800, Note_on_c, 1, 80, 48
3, 220800, Note_on_c, 1, 77, 48
3, 220889, Note_on_c, 1, 77, 0
3, 220889, Note_on_c, 1, 80, 0
3, 220920, Note_on_c, 1, 80, 48
3, 220920, Note_on_c, 1, 77, 48
3, 221009, Note_on_c, 1, 77, 0
3, 221009, Note_on_c, 1, 80, 0
3, 221040, Note_on_c, 1, 79, 48
3, 221040, Note_on_c, 1, 75, 48
3, 221159, Note_on_c, 1, 75, 0
3, 221159, Note_on_c, 1, 79, 0
3, 222480, Note_on_c, 1, 80, 96
3, 222480, Note_on_c, 1, 74, 96
3, 222539, Note_on_c, 1, 74, 0
3, 222539, Note_on_c, 1, 80, 0
3, 222600, Note_on_c, 1, 77, 96
3, 222600, Note_on_c, 1, 80, 96
3, 222659, Note_on_c, 1, 80, 0
3, 222659, Note_on_c, 1, 77, 0
3, 223140, Note_on_c, 1, 80, 96
3, 223140, Note_on_c, 1, 77, 96
3, 223199, Note_on_c, 1, 77, 0
3, 223199, Note_on_c, 1, 80, 0
3, 223200, Note_on_c, 1, 75, 96
3, 223200, Note_on_c, 1, 79, 96
3, 223259, Note_on_c, 1, 79, 0
3, 223259, Note_on_c, 1, 75, 0
3, 223320, Note_on_c, 1, 79, 96
3, 223320, Note_on_c, 1, 75, 96
3, 223379, Note_on_c, 1, 75, 0
3, 223379, Note_on_c, 1, 79, 0
3, 223860, Note_on_c, 1, 72, 96
3, 223860, Note_on_c, 1, 75, 96
3, 223919, Note_on_c, 1, 75, 0
3, 223919, Note_on_c, 1, 72, 0
3, 223920, Note_on_c, 1, 75, 96
3, 223920, Note_on_c, 1, 73, 96
3, 223979, Note_on_c, 1, 73, 0
3, 223979, Note_on_c, 1, 75, 0
3, 224040, Note_on_c, 1, 73, 96
3, 224040, Note_on_c, 1, 75, 96
3, 224099, Note_on_c, 1, 75, 0
3, 224099, Note_on_c, 1, 73, 0
3, 224580, Note_on_c, 1, 79, 96
3, 224580, Note_on_c, 1, 73, 96
3, 224609, Note_on_c, 1, 73, 0
3, 224609, Note_on_c, 1, 79, 0
3, 224640, Note_on_c, 1, 72, 96
3, 224640, Note_on_c, 1, 80, 96
3, 224669, Note_on_c, 1, 80, 0
3, 224669, Note_on_c, 1, 72, 0
3, 224700, Note_on_c, 1, 72, 96
3, 224819, Note_on_c, 1, 72, 0
3, 224820, Note_on_c, 1, 75, 96
3, 224820, Note_on_c, 1, 72, 96
3, 224849, Note_on_c, 1, 72, 0
3, 224849, Note_on_c, 1, 75, 0
3, 224880, Note_on_c, 1, 74, 96
3, 224909, Note_on_c, 1, 74, 0
3, 224940, Note_on_c, 1, 67, 96
3, 224940, Note_on_c, 1, 74, 96
3, 224969, Note_on_c, 1, 74, 0
3, 224969, Note_on_c, 1, 67, 0
3, 225000, Note_on_c, 1, 75, 96
3, 225000, Note_on_c, 1, 67, 96
3, 225029, Note_on_c, 1, 67, 0
3, 225029, Note_on_c, 1, 75, 0
3, 225060, Note_on_c, 1, 75, 96
3, 225179, Note_on_c, 1, 75, 0
3, 225180, Note_on_c, 1, 75, 96
3, 225209, Note_on_c, 1, 75, 0
3, 225240, Note_on_c, 1, 70, 96
3, 225240, Note_on_c, 1, 77, 96
3, 225269, Note_on_c, 1, 77, 0
3, 225269, Note_on_c, 1, 70, 0
3, 225300, Note_on_c, 1, 77, 96
3, 225300, Note_on_c, 1, 70, 96
3, 225329, Note_on_c, 1, 70, 0
3, 225329, Note_on_c, 1, 77, 0
3, 225360, Note_on_c, 1, 70, 96
3, 225360, Note_on_c, 1, 79, 96
3, 225479, Note_on_c, 1, 79, 0
3, 225479, Note_on_c, 1, 70, 0
3, 225480, Note_on_c, 1, 75, 96
3, 225480, Note_on_c, 1, 67, 96
3, 225599, Note_on_c, 1, 75, 0
3, 225600, Note_on_c, 1, 68, 96
3, 225600, Note_on_c, 1, 75, 96
3, 225609, Note_on_c, 1, 67, 0
3, 225719, Note_on_c, 1, 75, 0
3, 225719, Note_on_c, 1, 68, 0
3, 225720, Note_on_c, 1, 75, 96
3, 225720, Note_on_c, 1, 69, 96
3, 225839, Note_on_c, 1, 75, 0
3, 225840, Note_on_c, 1, 75, 96
3, 225840, Note_on_c, 1, 70, 96
3, 225849, Note_on_c, 1, 69, 0
3, 225959, Note_on_c, 1, 75, 0
3, 225960, Note_on_c, 1, 75, 96
3, 225960, Note_on_c, 1, 71, 96
3, 225969, Note_on_c, 1, 70, 0
3, 226079, Note_on_c, 1, 71, 0
3, 226079, Note_on_c, 1, 75, 0
3, 226080, Note_on_c, 1, 75, 96
3, 226080, Note_on_c, 1, 72, 96
3, 226320, Note_on_c, 1, 76, 96
3, 226329, Note_on_c, 1, 75, 0
3, 226439, Note_on_c, 1, 76, 0
3, 226440, Note_on_c, 1, 77, 96
3, 226500, Note_on_c, 1, 79, 96
3, 226509, Note_on_c, 1, 77, 0
3, 226560, Note_on_c, 1, 82, 96
3, 226569, Note_on_c, 1, 79, 0
3, 226619, Note_on_c, 1, 72, 0
3, 226620, Note_on_c, 1, 72, 96
3, 226620, Note_on_c, 1, 80, 96
3, 226629, Note_on_c, 1, 82, 0
3, 226680, Note_on_c, 1, 70, 96
3, 226680, Note_on_c, 1, 79, 96
3, 226689, Note_on_c, 1, 80, 0
3, 226689, Note_on_c, 1, 72, 0
3, 226740, Note_on_c, 1, 68, 96
3, 226740, Note_on_c, 1, 77, 96
3, 226749, Note_on_c, 1, 70, 0
3, 226749, Note_on_c, 1, 79, 0
3, 226799, Note_on_c, 1, 68, 0
3, 226799, Note_on_c, 1, 77, 0
3, 226800, Note_on_c, 1, 67, 96
3, 226800, Note_on_c, 1, 75, 96
3, 226919, Note_on_c, 1, 75, 0
3, 226919, Note_on_c, 1, 67, 0
3, 227520, Note_on_c, 1, 70, 112
3, 227520, Note_on_c, 1, 82, 112
3, 228299, Note_on_c, 1, 82, 0
3, 228299, Note_on_c, 1, 70, 0
3, 228300, Note_on_c, 1, 81, 127
3, 228329, Note_on_c, 1, 81, 0
3, 228360, Note_on_c, 1, 80, 127
3, 228389, Note_on_c, 1, 80, 0
3, 228420, Note_on_c, 1, 79, 127
3, 228449, Note_on_c, 1, 79, 0
3, 228480, Note_on_c, 1, 77, 127
3, 228509, Note_on_c, 1, 77, 0
3, 228540, Note_on_c, 1, 75, 127
3, 228569, Note_on_c, 1, 75, 0
3, 228600, Note_on_c, 1, 74, 127
3, 228629, Note_on_c, 1, 74, 0
3, 228660, Note_on_c, 1, 72, 127
3, 228689, Note_on_c, 1, 72, 0
3, 228720, Note_on_c, 1, 70, 127
3, 228749, Note_on_c, 1, 70, 0
3, 228780, Note_on_c, 1, 80, 127
3, 228780, Note_on_c, 1, 68, 127
3, 228809, Note_on_c, 1, 68, 0
3, 228809, Note_on_c, 1, 80, 0
3, 228840, Note_on_c, 1, 79, 127
3, 228840, Note_on_c, 1, 67, 127
3, 228869, Note_on_c, 1, 67, 0
3, 228869, Note_on_c, 1, 79, 0
3, 228900, Note_on_c, 1, 77, 127
3, 228900, Note_on_c, 1, 65, 127
3, 228929, Note_on_c, 1, 65, 0
3, 228929, Note_on_c, 1, 77, 0
3, 228960, Note_on_c, 1, 75, 127
3, 228960, Note_on_c, 1, 63, 127
3, 229079, Note_on_c, 1, 63, 0
3, 229079, Note_on_c, 1, 75, 0
3, 229800, Note_on_c, 1, 82, 48
3, 229920, Note_on_c, 1, 83, 48
3, 229929, Note_on_c, 1, 82, 0
3, 230040, Note_on_c, 1, 84, 96
3, 230049, Note_on_c, 1, 83, 0
3, 230399, Note_on_c, 1, 84, 0
3, 232320, Note_on_c, 1, 80, 56
3, 232409, Note_on_c, 1, 80, 0
3, 232440, Note_on_c, 1, 80, 64
3, 232529, Note_on_c, 1, 80, 0
3, 232560, Note_on_c, 1, 80, 72
3, 232649, Note_on_c, 1, 80, 0
3, 232680, Note_on_c, 1, 80, 80
3, 232769, Note_on_c, 1, 80, 0
3, 232800, Note_on_c, 1, 80, 88
3, 232889, Note_on_c, 1, 80, 0
3, 232920, Note_on_c, 1, 80, 96
3, 233279, Note_on_c, 1, 80, 0
3, 234480, Note_on_c, 1, 78, 48
3, 234480, Note_on_c, 1, 75, 48
3, 234569, Note_on_c, 1, 75, 0
3, 234569, Note_on_c, 1, 78, 0
3, 234600, Note_on_c, 1, 77, 56
3, 234600, Note_on_c, 1, 75, 56
3, 234689, Note_on_c, 1, 75, 0
3, 234689, Note_on_c, 1, 77, 0
3, 234720, Note_on_c, 1, 74, 48
3, 234839, Note_on_c, 1, 74, 0
3, 237840, Note_on_c, 1, 65, 78
3, 237869, Note_on_c, 1, 65, 0
3, 237900, Note_on_c, 1, 67, 80
3, 237929, Note_on_c, 1, 67, 0
3, 237960, Note_on_c, 1, 68, 82
3, 237989, Note_on_c, 1, 68, 0
3, 238020, Note_on_c, 1, 70, 84
3, 238049, Note_on_c, 1, 70, 0
3, 238080, Note_on_c, 1, 72, 87
3, 238109, Note_on_c, 1, 72, 0
3, 238140, Note_on_c, 1, 74, 89
3, 238169, Note_on_c, 1, 74, 0
3, 238200, Note_on_c, 1, 75, 92
3, 238229, Note_on_c, 1, 75, 0
3, 238260, Note_on_c, 1, 77, 94
3, 238289, Note_on_c, 1, 77, 0
3, 238320, Note_on_c, 1, 79, 96
3, 238439, Note_on_c, 1, 79, 0
3, 238440, Note_on_c, 1, 75, 112
3, 238440, Note_on_c, 1, 79, 112
3, 238679, Note_on_c, 1, 79, 0
3, 238679, Note_on_c, 1, 75, 0
3, 238800, Note_on_c, 1, 79, 112
3, 238800, Note_on_c, 1, 75, 112
3, 239039, Note_on_c, 1, 75, 0
3, 239039, Note_on_c, 1, 79, 0
3, 239160, Note_on_c, 1, 80, 112
3, 239160, Note_on_c, 1, 77, 112
3, 239399, Note_on_c, 1, 77, 0
3, 239399, Note_on_c, 1, 80, 0
3, 239520, Note_on_c, 1, 74, 112
3, 239520, Note_on_c, 1, 77, 112
3, 239639, Note_on_c, 1, 77, 0
3, 239639, Note_on_c, 1, 74, 0
3, 239640, Note_on_c, 1, 80, 96
3, 239640, Note_on_c, 1, 77, 96
3, 239759, Note_on_c, 1, 77, 0
3, 239759, Note_on_c, 1, 80, 0
3, 239760, Note_on_c, 1, 75, 127
3, 239760, Note_on_c, 1, 79, 127
3, 239819, Note_on_c, 1, 79, 0
3, 239819, Note_on_c, 1, 75, 0
3, 239880, Note_on_c, 1, 82, 127
3, 240059, Note_on_c, 1, 82, 0
3, 240060, Note_on_c, 1, 79, 127
3, 240119, Note_on_c, 1, 79, 0
3, 240120, Note_on_c, 1, 75, 127
3, 240179, Note_on_c, 1, 75, 0
3, 240240, Note_on_c, 1, 79, 127
3, 240419, Note_on_c, 1, 79, 0
3, 240420, Note_on_c, 1, 70, 127
3, 240479, Note_on_c, 1, 70, 0
3, 240480, Note_on_c, 1, 77, 127
3, 240539, Note_on_c, 1, 77, 0
3, 240600, Note_on_c, 1, 80, 127
3, 240779, Note_on_c, 1, 80, 0
3, 240780, Note_on_c, 1, 70, 127
3, 240839, Note_on_c, 1, 70, 0
3, 240840, Note_on_c, 1, 74, 127
3, 240899, Note_on_c, 1, 74, 0
3, 240960, Note_on_c, 1, 77, 127
3, 241139, Note_on_c, 1, 77, 0
3, 241140, Note_on_c, 1, 70, 127
3, 241199, Note_on_c, 1, 70, 0
3, 241200, Note_on_c, 1, 82, 127
3, 241200, Note_on_c, 1, 75, 127
3, 241500, Note_on_c, 1, 81, 127
3, 241509, Note_on_c, 1, 82, 0
3, 241560, Note_on_c, 1, 82, 127
3, 241569, Note_on_c, 1, 81, 0
3, 241679, Note_on_c, 1, 82, 0
3, 241679, Note_on_c, 1, 75, 0
3, 242940, Note_on_c, 1, 77, 127
3, 242940, Note_on_c, 1, 79, 127
3, 242999, Note_on_c, 1, 79, 0
3, 242999, Note_on_c, 1, 77, 0
3, 243000, Note_on_c, 1, 75, 127
3, 243000, Note_on_c, 1, 79, 127
3, 243029, Note_on_c, 1, 79, 0
3, 243029, Note_on_c, 1, 75, 0
3, 243060, Note_on_c, 1, 79, 127
3, 243060, Note_on_c, 1, 74, 127
3, 243089, Note_on_c, 1, 74, 0
3, 243089, Note_on_c, 1, 79, 0
3, 243120, Note_on_c, 1, 79, 127
3, 243120, Note_on_c, 1, 75, 127
3, 243149, Note_on_c, 1, 75, 0
3, 243149, Note_on_c, 1, 79, 0
3, 243180, Note_on_c, 1, 79, 127
3, 243180, Note_on_c, 1, 72, 127
3, 243209, Note_on_c, 1, 72, 0
3, 243209, Note_on_c, 1, 79, 0
3, 243240, Note_on_c, 1, 72, 127
3, 243240, Note_on_c, 1, 77, 127
3, 243269, Note_on_c, 1, 77, 0
3, 243269, Note_on_c, 1, 72, 0
3, 243300, Note_on_c, 1, 78, 127
3, 243300, Note_on_c, 1, 72, 127
3, 243329, Note_on_c, 1, 72, 0
3, 243329, Note_on_c, 1, 78, 0
3, 243360, Note_on_c, 1, 71, 127
3, 243360, Note_on_c, 1, 79, 127
3, 243419, Note_on_c, 1, 79, 0
3, 243419, Note_on_c, 1, 71, 0
3, 243480, Note_on_c, 1, 86, 127
3, 243480, Note_on_c, 1, 79, 127
3, 243539, Note_on_c, 1, 79, 0
3, 243539, Note_on_c, 1, 86, 0
3, 243600, Note_on_c, 1, 79, 127
3, 243600, Note_on_c, 1, 84, 127
3, 243659, Note_on_c, 1, 84, 0
3, 243659, Note_on_c, 1, 79, 0
3, 243840, Note_on_c, 1, 75, 127
3, 243840, Note_on_c, 1, 82, 127
3, 243899, Note_on_c, 1, 82, 0
3, 243899, Note_on_c, 1, 75, 0
3, 243960, Note_on_c, 1, 80, 127
3, 243960, Note_on_c, 1, 75, 127
3, 244019, Note_on_c, 1, 75, 0
3, 244019, Note_on_c, 1, 80, 0
3, 244200, Note_on_c, 1, 84, 127
3, 244200, Note_on_c, 1, 77, 127
3, 244259, Note_on_c, 1, 77, 0
3, 244259, Note_on_c, 1, 84, 0
3, 244320, Note_on_c, 1, 77, 127
3, 244320, Note_on_c, 1, 82, 127
3, 244379, Note_on_c, 1, 82, 0
3, 244379, Note_on_c, 1, 77, 0
3, 244560, Note_on_c, 1, 86, 127
3, 244560, Note_on_c, 1, 79, 127
3, 244619, Note_on_c, 1, 79, 0
3, 244619, Note_on_c, 1, 86, 0
3, 244680, Note_on_c, 1, 79, 127
3, 244680, Note_on_c, 1, 84, 127
3, 244739, Note_on_c, 1, 84, 0
3, 244739, Note_on_c, 1, 79, 0
3, 244920, Note_on_c, 1, 82, 127
3, 244920, Note_on_c, 1, 75, 127
3, 244979, Note_on_c, 1, 75, 0
3, 244979, Note_on_c, 1, 82, 0
3, 245040, Note_on_c, 1, 75, 127
3, 245040, Note_on_c, 1, 80, 127
3, 245099, Note_on_c, 1, 80, 0
3, 245099, Note_on_c, 1, 75, 0
3, 245280, Note_on_c, 1, 78, 127
3, 245280, Note_on_c, 1, 75, 127
3, 245339, Note_on_c, 1, 75, 0
3, 245339, Note_on_c, 1, 78, 0
3, 245520, Note_on_c, 1, 75, 127
3, 245520, Note_on_c, 1, 78, 127
3, 245579, Note_on_c, 1, 78, 0
3, 245579, Note_on_c, 1, 75, 0
3, 245760, Note_on_c, 1, 78, 127
3, 245760, Note_on_c, 1, 75, 127
3, 245819, Note_on_c, 1, 75, 0
3, 245819, Note_on_c, 1, 78, 0
3, 246000, Note_on_c, 1, 75, 127
3, 246000, Note_on_c, 1, 78, 127
3, 246059, Note_on_c, 1, 78, 0
3, 246059, Note_on_c, 1, 75, 0
3, 246240, Note_on_c, 1, 78, 127
3, 246240, Note_on_c, 1, 75, 127
3, 246299, Note_on_c, 1, 75, 0
3, 246299, Note_on_c, 1, 78, 0
3, 246480, Note_on_c, 1, 75, 127
3, 246480, Note_on_c, 1, 78, 127
3, 246539, Note_on_c, 1, 78, 0
3, 246539, Note_on_c, 1, 75, 0
3, 248280, Note_on_c, 1, 75, 48
3, 248339, Note_on_c, 1, 75, 0
3, 248520, Note_on_c, 1, 73, 48
3, 248579, Note_on_c, 1, 73, 0
3, 248760, Note_on_c, 1, 77, 48
3, 248819, Note_on_c, 1, 77, 0
3, 249000, Note_on_c, 1, 77, 48
3, 249059, Note_on_c, 1, 77, 0
3, 249240, Note_on_c, 1, 75, 48
3, 249299, Note_on_c, 1, 75, 0
3, 249480, Note_on_c, 1, 72, 64
3, 250019, Note_on_c, 1, 72, 0
3, 250020, Note_on_c, 1, 80, 87
3, 250020, Note_on_c, 1, 72, 87
3, 250080, Note_on_c, 1, 79, 92
3, 250080, Note_on_c, 1, 70, 92
3, 250089, Note_on_c, 1, 72, 0
3, 250089, Note_on_c, 1, 80, 0
3, 250140, Note_on_c, 1, 77, 97
3, 250140, Note_on_c, 1, 68, 97
3, 250149, Note_on_c, 1, 79, 0
3, 250149, Note_on_c, 1, 70, 0
3, 250199, Note_on_c, 1, 77, 0
3, 250199, Note_on_c, 1, 68, 0
3, 250200, Note_on_c, 1, 75, 102
3, 250200, Note_on_c, 1, 67, 102
3, 250319, Note_on_c, 1, 67, 0
3, 250319, Note_on_c, 1, 75, 0
3, 250380, Note_on_c, 1, 75, 112
3, 250380, Note_on_c, 1, 79, 112
3, 250409, Note_on_c, 1, 79, 0
3, 250409, Note_on_c, 1, 75, 0
3, 250440, Note_on_c, 1, 79, 117
3, 250440, Note_on_c, 1, 75, 117
3, 250469, Note_on_c, 1, 75, 0
3, 250469, Note_on_c, 1, 79, 0
3, 250500, Note_on_c, 1, 75, 122
3, 250500, Note_on_c, 1, 79, 122
3, 250529, Note_on_c, 1, 79, 0
3, 250529, Note_on_c, 1, 75, 0
3, 250560, Note_on_c, 1, 74, 127
3, 250560, Note_on_c, 1, 80, 127
3, 250919, Note_on_c, 1, 80, 0
3, 250919, Note_on_c, 1, 74, 0
3, 250920, Note_on_c, 1, 79, 96
3, 250920, Note_on_c, 1, 75, 96
3, 251039, Note_on_c, 1, 75, 0
3, 251039, Note_on_c, 1, 79, 0
3, 251280, Note_on_c, 1, 75, 96
3, 251399, Note_on_c, 1, 75, 0
3, 251640, Note_on_c, 1, 75, 96
3, 251759, Note_on_c, 1, 75, 0
3, 252000, Note_on_c, 1, 80, 96
3, 252000, Note_on_c, 1, 71, 96
3, 252059, Note_on_c, 1, 71, 0
3, 252059, Note_on_c, 1, 80, 0
3, 252120, Note_on_c, 1, 71, 96
3, 252120, Note_on_c, 1, 80, 96
3, 252179, Note_on_c, 1, 80, 0
3, 252179, Note_on_c, 1, 71, 0
3, 252240, Note_on_c, 1, 80, 96
3, 252240, Note_on_c, 1, 71, 96
3, 252299, Note_on_c, 1, 71, 0
3, 252299, Note_on_c, 1, 80, 0
3, 252360, Note_on_c, 1, 70, 96
3, 252360, Note_on_c, 1, 79, 96
3, 252479, Note_on_c, 1, 79, 0
3, 252479, Note_on_c, 1, 70, 0
3, 254520, Note_on_c, 1, 80, 96
3, 254520, Note_on_c, 1, 77, 96
3, 255240, Note_on_c, 1, 73, 48
3, 255249, Note_on_c, 1, 77, 0
3, 255249, Note_on_c, 1, 80, 0
3, 255359, Note_on_c, 1, 73, 0
3, 255960, Note_on_c, 1, 72, 127
3, 256019, Note_on_c, 1, 72, 0
3, 256020, Note_on_c, 1, 72, 127
3, 256079, Note_on_c, 1, 72, 0
3, 256080, Note_on_c, 1, 72, 127
3, 256139, Note_on_c, 1, 72, 0
3, 256140, Note_on_c, 1, 72, 127
3, 256199, Note_on_c, 1, 72, 0
3, 256200, Note_on_c, 1, 76, 127
3, 256259, Note_on_c, 1, 76, 0
3, 256260, Note_on_c, 1, 76, 127
3, 256319, Note_on_c, 1, 76, 0
3, 256320, Note_on_c, 1, 72, 127
3, 256379, Note_on_c, 1, 72, 0
3, 256380, Note_on_c, 1, 72, 127
3, 256439, Note_on_c, 1, 72, 0
3, 256440, Note_on_c, 1, 72, 127
3, 256499, Note_on_c, 1, 72, 0
3, 256500, Note_on_c, 1, 72, 127
3, 256559, Note_on_c, 1, 72, 0
3, 256560, Note_on_c, 1, 67, 127
3, 256619, Note_on_c, 1, 67, 0
3, 256620, Note_on_c, 1, 67, 127
3, 256679, Note_on_c, 1, 67, 0
3, 256680, Note_on_c, 1, 72, 48
3, 256799, Note_on_c, 1, 72, 0
3, 259080, Note_on_c, 1, 67, 32
3, 259200, Note_on_c, 1, 74, 32
3, 259209, Note_on_c, 1, 67, 0
3, 259440, Note_on_c, 1, 77, 32
3, 259449, Note_on_c, 1, 74, 0
3, 259559, Note_on_c, 1, 77, 0
3, 259800, Note_on_c, 1, 67, 32
3, 259920, Note_on_c, 1, 74, 32
3, 259929, Note_on_c, 1, 67, 0
3, 260160, Note_on_c, 1, 77, 32
3, 260169, Note_on_c, 1, 74, 0
3, 260279, Note_on_c, 1, 77, 0
3, 260520, Note_on_c, 1, 79, 32
3, 260640, Note_on_c, 1, 76, 32
3, 260649, Note_on_c, 1, 79, 0
3, 260880, Note_on_c, 1, 72, 32
3, 260889, Note_on_c, 1, 76, 0
3, 260999, Note_on_c, 1, 72, 0
3, 261240, Note_on_c, 1, 80, 32
3, 261360, Note_on_c, 1, 77, 32
3, 261369, Note_on_c, 1, 80, 0
3, 261600, Note_on_c, 1, 72, 32
3, 261609, Note_on_c, 1, 77, 0
3, 261719, Note_on_c, 1, 72, 0
3, 261720, Note_on_c, 1, 82, 32
3, 261839, Note_on_c, 1, 82, 0
3, 263280, Note_on_c, 1, 77, 48
3, 263280, Note_on_c, 1, 72, 48
3, 263399, Note_on_c, 1, 72, 0
3, 263400, Note_on_c, 1, 76, 48
3, 263400, Note_on_c, 1, 72, 48
3, 263409, Note_on_c, 1, 77, 0
3, 263519, Note_on_c, 1, 72, 0
3, 263520, Note_on_c, 1, 77, 64
3, 263520, Note_on_c, 1, 72, 64
3, 263529, Note_on_c, 1, 76, 0
3, 263700, Note_on_c, 1, 79, 48
3, 263700, Note_on_c, 1, 76, 48
3, 263709, Note_on_c, 1, 72, 0
3, 263709, Note_on_c, 1, 77, 0
3, 263760, Note_on_c, 1, 80, 48
3, 263760, Note_on_c, 1, 77, 48
3, 263769, Note_on_c, 1, 79, 0
3, 263769, Note_on_c, 1, 76, 0
3, 263879, Note_on_c, 1, 80, 0
3, 263879, Note_on_c, 1, 77, 0
3, 263880, Note_on_c, 1, 72, 48
3, 263880, Note_on_c, 1, 79, 48
3, 263999, Note_on_c, 1, 79, 0
3, 264000, Note_on_c, 1, 84, 48
3, 264000, Note_on_c, 1, 79, 48
3, 264009, Note_on_c, 1, 72, 0
3, 264120, Note_on_c, 1, 77, 48
3, 264120, Note_on_c, 1, 83, 48
3, 264129, Note_on_c, 1, 79, 0
3, 264129, Note_on_c, 1, 84, 0
3, 264240, Note_on_c, 1, 84, 64
3, 264240, Note_on_c, 1, 76, 64
3, 264249, Note_on_c, 1, 77, 0
3, 264249, Note_on_c, 1, 83, 0
3, 264420, Note_on_c, 1, 82, 48
3, 264429, Note_on_c, 1, 84, 0
3, 264480, Note_on_c, 1, 77, 48
3, 264480, Note_on_c, 1, 80, 48
3, 264489, Note_on_c, 1, 82, 0
3, 264489, Note_on_c, 1, 76, 0
3, 264540, Note_on_c, 1, 72, 48
3, 264540, Note_on_c, 1, 79, 48
3, 264549, Note_on_c, 1, 77, 0
3, 264549, Note_on_c, 1, 80, 0
3, 264599, Note_on_c, 1, 72, 0
3, 264599, Note_on_c, 1, 79, 0
3, 264600, Note_on_c, 1, 77, 48
3, 264600, Note_on_c, 1, 72, 48
3, 264719, Note_on_c, 1, 72, 0
3, 264719, Note_on_c, 1, 77, 0
3, 264720, Note_on_c, 1, 72, 48
3, 264720, Note_on_c, 1, 77, 48
3, 264839, Note_on_c, 1, 72, 0
3, 264840, Note_on_c, 1, 76, 48
3, 264840, Note_on_c, 1, 72, 48
3, 264849, Note_on_c, 1, 77, 0
3, 264959, Note_on_c, 1, 72, 0
3, 264960, Note_on_c, 1, 77, 64
3, 264960, Note_on_c, 1, 72, 64
3, 264969, Note_on_c, 1, 76, 0
3, 265140, Note_on_c, 1, 79, 48
3, 265140, Note_on_c, 1, 76, 48
3, 265149, Note_on_c, 1, 72, 0
3, 265149, Note_on_c, 1, 77, 0
3, 265200, Note_on_c, 1, 80, 48
3, 265200, Note_on_c, 1, 77, 48
3, 265209, Note_on_c, 1, 79, 0
3, 265209, Note_on_c, 1, 76, 0
3, 265319, Note_on_c, 1, 80, 0
3, 265319, Note_on_c, 1, 77, 0
3, 265320, Note_on_c, 1, 80, 48
3, 265680, Note_on_c, 1, 70, 48
3, 266040, Note_on_c, 1, 78, 48
3, 266049, Note_on_c, 1, 80, 0
3, 266159, Note_on_c, 1, 78, 0
3, 266159, Note_on_c, 1, 70, 0
3, 266160, Note_on_c, 1, 70, 48
3, 266279, Note_on_c, 1, 70, 0
3, 266280, Note_on_c, 1, 70, 48
3, 266399, Note_on_c, 1, 70, 0
3, 266400, Note_on_c, 1, 70, 64
3, 266639, Note_on_c, 1, 70, 0
3, 266640, Note_on_c, 1, 70, 48
3, 266759, Note_on_c, 1, 70, 0
3, 266760, Note_on_c, 1, 70, 48
3, 266879, Note_on_c, 1, 70, 0
3, 267600, Note_on_c, 1, 70, 48
3, 267719, Note_on_c, 1, 70, 0
3, 267720, Note_on_c, 1, 70, 48
3, 267839, Note_on_c, 1, 70, 0
3, 267840, Note_on_c, 1, 70, 64
3, 268019, Note_on_c, 1, 70, 0
3, 268020, Note_on_c, 1, 70, 48
3, 268079, Note_on_c, 1, 70, 0
3, 268080, Note_on_c, 1, 70, 48
3, 268199, Note_on_c, 1, 70, 0
3, 268200, Note_on_c, 1, 70, 48
3, 268319, Note_on_c, 1, 70, 0
3, 271800, Note_on_c, 1, 70, 32
3, 272400, Note_on_c, 1, 71, 32
3, 272409, Note_on_c, 1, 70, 0
3, 272520, Note_on_c, 1, 72, 32
3, 272529, Note_on_c, 1, 71, 0
3, 272639, Note_on_c, 1, 72, 0
3, 276960, Note_on_c, 1, 80, 48
3, 276960, Note_on_c, 1, 74, 48
3, 277319, Note_on_c, 1, 74, 0
3, 277319, Note_on_c, 1, 80, 0
3, 277320, Note_on_c, 1, 74, 56
3, 277320, Note_on_c, 1, 80, 56
3, 277679, Note_on_c, 1, 80, 0
3, 277679, Note_on_c, 1, 74, 0
3, 277680, Note_on_c, 1, 74, 64
3, 277680, Note_on_c, 1, 80, 64
3, 277799, Note_on_c, 1, 80, 0
3, 277799, Note_on_c, 1, 74, 0
3, 277800, Note_on_c, 1, 80, 60
3, 277800, Note_on_c, 1, 74, 60
3, 277919, Note_on_c, 1, 74, 0
3, 277919, Note_on_c, 1, 80, 0
3, 277920, Note_on_c, 1, 74, 56
3, 277920, Note_on_c, 1, 80, 56
3, 278040, Note_on_c, 1, 75, 52
3, 278049, Note_on_c, 1, 74, 0
3, 278160, Note_on_c, 1, 77, 48
3, 278169, Note_on_c, 1, 75, 0
3, 278279, Note_on_c, 1, 77, 0
3, 278279, Note_on_c, 1, 80, 0
3, 278280, Note_on_c, 1, 79, 48
3, 278280, Note_on_c, 1, 75, 48
3, 278339, Note_on_c, 1, 75, 0
3, 278339, Note_on_c, 1, 79, 0
3, 278520, Note_on_c, 1, 75, 48
3, 278520, Note_on_c, 1, 79, 48
3, 278579, Note_on_c, 1, 79, 0
3, 278579, Note_on_c, 1, 75, 0
3, 278760, Note_on_c, 1, 79, 48
3, 278760, Note_on_c, 1, 75, 48
3, 278819, Note_on_c, 1, 75, 0
3, 278819, Note_on_c, 1, 79, 0
3, 279000, Note_on_c, 1, 77, 48
3, 279000, Note_on_c, 1, 75, 48
3, 279059, Note_on_c, 1, 75, 0
3, 279059, Note_on_c, 1, 77, 0
3, 279240, Note_on_c, 1, 75, 48
3, 279240, Note_on_c, 1, 77, 48
3, 279299, Note_on_c, 1, 77, 0
3, 279299, Note_on_c, 1, 75, 0
3, 279480, Note_on_c, 1, 77, 48
3, 279480, Note_on_c, 1, 75, 48
3, 279539, Note_on_c, 1, 75, 0
3, 279539, Note_on_c, 1, 77, 0
3, 279720, Note_on_c, 1, 79, 48
3, 279720, Note_on_c, 1, 75, 48
3, 280199, Note_on_c, 1, 75, 0
3, 280199, Note_on_c, 1, 79, 0
3, 280200, Note_on_c, 1, 70, 56
3, 280200, Note_on_c, 1, 75, 56
3, 280259, Note_on_c, 1, 75, 0
3, 280259, Note_on_c, 1, 70, 0
3, 280320, Note_on_c, 1, 75, 58
3, 280320, Note_on_c, 1, 70, 58
3, 280379, Note_on_c, 1, 70, 0
3, 280379, Note_on_c, 1, 75, 0
3, 280440, Note_on_c, 1, 70, 60
3, 280440, Note_on_c, 1, 74, 60
3, 280499, Note_on_c, 1, 74, 0
3, 280499, Note_on_c, 1, 70, 0
3, 280560, Note_on_c, 1, 77, 62
3, 280560, Note_on_c, 1, 74, 62
3, 280619, Note_on_c, 1, 74, 0
3, 280619, Note_on_c, 1, 77, 0
3, 280680, Note_on_c, 1, 74, 64
3, 280680, Note_on_c, 1, 77, 64
3, 280739, Note_on_c, 1, 77, 0
3, 280739, Note_on_c, 1, 74, 0
3, 280800, Note_on_c, 1, 77, 48
3, 280800, Note_on_c, 1, 74, 48
3, 280859, Note_on_c, 1, 74, 0
3, 280859, Note_on_c, 1, 77, 0
3, 280920, Note_on_c, 1, 74, 48
3, 280920, Note_on_c, 1, 77, 48
3, 280979, Note_on_c, 1, 77, 0
3, 280979, Note_on_c, 1, 74, 0
3, 281040, Note_on_c, 1, 77, 48
3, 281040, Note_on_c, 1, 74, 48
3, 281099, Note_on_c, 1, 74, 0
3, 281099, Note_on_c, 1, 77, 0
3, 281160, Note_on_c, 1, 70, 48
3, 281160, Note_on_c, 1, 75, 48
3, 281219, Note_on_c, 1, 75, 0
3, 281219, Note_on_c, 1, 70, 0
3, 282240, Note_on_c, 1, 75, 48
3, 282360, Note_on_c, 1, 79, 48
3, 282369, Note_on_c, 1, 75, 0
3, 282479, Note_on_c, 1, 79, 0
3, 282480, Note_on_c, 1, 82, 48
3, 282539, Note_on_c, 1, 82, 0
3, 282600, Note_on_c, 1, 82, 48
3, 282719, Note_on_c, 1, 82, 0
3, 283680, Note_on_c, 1, 77, 48
3, 283800, Note_on_c, 1, 80, 48
3, 283809, Note_on_c, 1, 77, 0
3, 283919, Note_on_c, 1, 80, 0
3, 283920, Note_on_c, 1, 82, 48
3, 283979, Note_on_c, 1, 82, 0
3, 284040, Note_on_c, 1, 70, 48
3, 284040, Note_on_c, 1, 82, 48
3, 287039, Note_on_c, 1, 82, 0
3, 287039, Note_on_c, 1, 70, 0
3, 287880, Note_on_c, 1, 84, 64
3, 287880, Note_on_c, 1, 72, 64
3, 287909, Note_on_c, 1, 72, 0
3, 287909, Note_on_c, 1, 84, 0
3, 287940, Note_on_c, 1, 82, 65
3, 287969, Note_on_c, 1, 82, 0
3, 288000, Note_on_c, 1, 80, 66
3, 288029, Note_on_c, 1, 80, 0
3, 288060, Note_on_c, 1, 79, 67
3, 288089, Note_on_c, 1, 79, 0
3, 288120, Note_on_c, 1, 77, 68
3, 288149, Note_on_c, 1, 77, 0
3, 288180, Note_on_c, 1, 75, 69
3, 288209, Note_on_c, 1, 75, 0
3, 288240, Note_on_c, 1, 74, 70
3, 288269, Note_on_c, 1, 74, 0
3, 288300, Note_on_c, 1, 72, 71
3, 288329, Note_on_c, 1, 72, 0
3, 288360, Note_on_c, 1, 70, 72
3, 288479, Note_on_c, 1, 70, 0
3, 288780, Note_on_c, 1, 70, 79
3, 288810, Note_on_c, 1, 72, 79
3, 288819, Note_on_c, 1, 70, 0
3, 288840, Note_on_c, 1, 74, 80
3, 288849, Note_on_c, 1, 72, 0
3, 288869, Note_on_c, 1, 74, 0
3, 288900, Note_on_c, 1, 75, 81
3, 288929, Note_on_c, 1, 75, 0
3, 288960, Note_on_c, 1, 77, 82
3, 288989, Note_on_c, 1, 77, 0
3, 289020, Note_on_c, 1, 79, 83
3, 289049, Note_on_c, 1, 79, 0
3, 289080, Note_on_c, 1, 80, 100
3, 289109, Note_on_c, 1, 80, 0
3, 289140, Note_on_c, 1, 79, 85
3, 289169, Note_on_c, 1, 79, 0
3, 289200, Note_on_c, 1, 77, 86
3, 289229, Note_on_c, 1, 77, 0
3, 289260, Note_on_c, 1, 75, 87
3, 289289, Note_on_c, 1, 75, 0
3, 289320, Note_on_c, 1, 74, 88
3, 289349, Note_on_c, 1, 74, 0
3, 289380, Note_on_c, 1, 72, 89
3, 289409, Note_on_c, 1, 72, 0
3, 289440, Note_on_c, 1, 70, 90
3, 289469, Note_on_c, 1, 70, 0
3, 289500, Note_on_c, 1, 72, 91
3, 289529, Note_on_c, 1, 72, 0
3, 289560, Note_on_c, 1, 70, 92
3, 289589, Note_on_c, 1, 70, 0
3, 289620, Note_on_c, 1, 80, 93
3, 289620, Note_on_c, 1, 68, 93
3, 289649, Note_on_c, 1, 68, 0
3, 289649, Note_on_c, 1, 80, 0
3, 289680, Note_on_c, 1, 79, 94
3, 289680, Note_on_c, 1, 67, 94
3, 289709, Note_on_c, 1, 67, 0
3, 289709, Note_on_c, 1, 79, 0
3, 289740, Note_on_c, 1, 77, 95
3, 289740, Note_on_c, 1, 65, 95
3, 289769, Note_on_c, 1, 65, 0
3, 289769, Note_on_c, 1, 77, 0
3, 289800, Note_on_c, 1, 75, 96
3, 289800, Note_on_c, 1, 63, 96
3, 289859, Note_on_c, 1, 63, 0
3, 289859, Note_on_c, 1, 75, 0
3, 289860, Note_on_c, 1, 75, 96
3, 289919, Note_on_c, 1, 75, 0
3, 289920, Note_on_c, 1, 75, 96
3, 289979, Note_on_c, 1, 75, 0
3, 289980, Note_on_c, 1, 75, 96
3, 290039, Note_on_c, 1, 75, 0
3, 290040, Note_on_c, 1, 79, 96
3, 290099, Note_on_c, 1, 79, 0
3, 290100, Note_on_c, 1, 79, 96
3, 290159, Note_on_c, 1, 79, 0
3, 290160, Note_on_c, 1, 75, 96
3, 290219, Note_on_c, 1, 75, 0
3, 290220, Note_on_c, 1, 75, 96
3, 290279, Note_on_c, 1, 75, 0
3, 290280, Note_on_c, 1, 75, 96
3, 290339, Note_on_c, 1, 75, 0
3, 290340, Note_on_c, 1, 75, 96
3, 290399, Note_on_c, 1, 75, 0
3, 290400, Note_on_c, 1, 70, 96
3, 290459, Note_on_c, 1, 70, 0
3, 290460, Note_on_c, 1, 70, 96
3, 290519, Note_on_c, 1, 70, 0
3, 290520, Note_on_c, 1, 75, 96
3, 290579, Note_on_c, 1, 75, 0
3, 290580, Note_on_c, 1, 75, 96
3, 290639, Note_on_c, 1, 75, 0
3, 290640, Note_on_c, 1, 79, 96
3, 290699, Note_on_c, 1, 79, 0
3, 290700, Note_on_c, 1, 79, 96
3, 290759, Note_on_c, 1, 79, 0
3, 290760, Note_on_c, 1, 82, 96
3, 290819, Note_on_c, 1, 82, 0
3, 290820, Note_on_c, 1, 82, 96
3, 290879, Note_on_c, 1, 82, 0
3, 290880, Note_on_c, 1, 82, 96
3, 290939, Note_on_c, 1, 82, 0
3, 290940, Note_on_c, 1, 82, 96
3, 290999, Note_on_c, 1, 82, 0
3, 291000, Note_on_c, 1, 82, 96
3, 291059, Note_on_c, 1, 82, 0
3, 291060, Note_on_c, 1, 82, 96
3, 291119, Note_on_c, 1, 82, 0
3, 291120, Note_on_c, 1, 82, 96
3, 291179, Note_on_c, 1, 82, 0
3, 291180, Note_on_c, 1, 82, 96
3, 291239, Note_on_c, 1, 82, 0
3, 291240, Note_on_c, 1, 77, 96
3, 291299, Note_on_c, 1, 77, 0
3, 291300, Note_on_c, 1, 77, 96
3, 291359, Note_on_c, 1, 77, 0
3, 291360, Note_on_c, 1, 77, 96
3, 291419, Note_on_c, 1, 77, 0
3, 291420, Note_on_c, 1, 77, 96
3, 291479, Note_on_c, 1, 77, 0
3, 291480, Note_on_c, 1, 80, 96
3, 291539, Note_on_c, 1, 80, 0
3, 291540, Note_on_c, 1, 80, 96
3, 291599, Note_on_c, 1, 80, 0
3, 291600, Note_on_c, 1, 77, 96
3, 291659, Note_on_c, 1, 77, 0
3, 291660, Note_on_c, 1, 77, 96
3, 291719, Note_on_c, 1, 77, 0
3, 291720, Note_on_c, 1, 77, 96
3, 291779, Note_on_c, 1, 77, 0
3, 291780, Note_on_c, 1, 77, 96
3, 291839, Note_on_c, 1, 77, 0
3, 291840, Note_on_c, 1, 70, 96
3, 291899, Note_on_c, 1, 70, 0
3, 291900, Note_on_c, 1, 70, 96
3, 291959, Note_on_c, 1, 70, 0
3, 291960, Note_on_c, 1, 77, 96
3, 292019, Note_on_c, 1, 77, 0
3, 292020, Note_on_c, 1, 77, 96
3, 292079, Note_on_c, 1, 77, 0
3, 292080, Note_on_c, 1, 80, 96
3, 292139, Note_on_c, 1, 80, 0
3, 292140, Note_on_c, 1, 80, 96
3, 292199, Note_on_c, 1, 80, 0
3, 292200, Note_on_c, 1, 82, 96
3, 292259, Note_on_c, 1, 82, 0
3, 292260, Note_on_c, 1, 82, 96
3, 292319, Note_on_c, 1, 82, 0
3, 292320, Note_on_c, 1, 82, 96
3, 292379, Note_on_c, 1, 82, 0
3, 292380, Note_on_c, 1, 82, 96
3, 292439, Note_on_c, 1, 82, 0
3, 292440, Note_on_c, 1, 82, 96
3, 292499, Note_on_c, 1, 82, 0
3, 292500, Note_on_c, 1, 82, 96
3, 292559, Note_on_c, 1, 82, 0
3, 292560, Note_on_c, 1, 82, 96
3, 292619, Note_on_c, 1, 82, 0
3, 292620, Note_on_c, 1, 82, 96
3, 292679, Note_on_c, 1, 82, 0
3, 292680, Note_on_c, 1, 82, 96
3, 292739, Note_on_c, 1, 82, 0
3, 292740, Note_on_c, 1, 82, 96
3, 292799, Note_on_c, 1, 82, 0
3, 292800, Note_on_c, 1, 76, 96
3, 292800, Note_on_c, 1, 82, 96
3, 292859, Note_on_c, 1, 82, 0
3, 292859, Note_on_c, 1, 76, 0
3, 292860, Note_on_c, 1, 76, 96
3, 292860, Note_on_c, 1, 82, 96
3, 292919, Note_on_c, 1, 82, 0
3, 292919, Note_on_c, 1, 76, 0
3, 292920, Note_on_c, 1, 76, 96
3, 292920, Note_on_c, 1, 82, 96
3, 292979, Note_on_c, 1, 82, 0
3, 292979, Note_on_c, 1, 76, 0
3, 292980, Note_on_c, 1, 76, 96
3, 292980, Note_on_c, 1, 82, 96
3, 293039, Note_on_c, 1, 82, 0
3, 293039, Note_on_c, 1, 76, 0
3, 293040, Note_on_c, 1, 82, 96
3, 293040, Note_on_c, 1, 76, 96
3, 293399, Note_on_c, 1, 76, 0
3, 293399, Note_on_c, 1, 82, 0
3, 293400, Note_on_c, 1, 72, 96
3, 293400, Note_on_c, 1, 84, 96
3, 293519, Note_on_c, 1, 84, 0
3, 293519, Note_on_c, 1, 72, 0
3, 293520, Note_on_c, 1, 84, 96
3, 293520, Note_on_c, 1, 77, 96
3, 293759, Note_on_c, 1, 77, 0
3, 293759, Note_on_c, 1, 84, 0
3, 293880, Note_on_c, 1, 75, 96
3, 293880, Note_on_c, 1, 84, 96
3, 294119, Note_on_c, 1, 84, 0
3, 294119, Note_on_c, 1, 75, 0
3, 294240, Note_on_c, 1, 79, 96
3, 294240, Note_on_c, 1, 75, 96
3, 294479, Note_on_c, 1, 75, 0
3, 294479, Note_on_c, 1, 79, 0
3, 294600, Note_on_c, 1, 80, 96
3, 294600, Note_on_c, 1, 74, 96
3, 294839, Note_on_c, 1, 74, 0
3, 294839, Note_on_c, 1, 80, 0
3, 294960, Note_on_c, 1, 79, 96
3, 294960, Note_on_c, 1, 75, 96
3, 295199, Note_on_c, 1, 75, 0
3, 295199, Note_on_c, 1, 79, 0
3, 295320, Note_on_c, 1, 84, 96
3, 295320, Note_on_c, 1, 75, 96
3, 295559, Note_on_c, 1, 75, 0
3, 295559, Note_on_c, 1, 84, 0
3, 295560, Note_on_c, 1, 79, 127
3, 295560, Note_on_c, 1, 75, 127
3, 295919, Note_on_c, 1, 75, 0
3, 295919, Note_on_c, 1, 79, 0
3, 295920, Note_on_c, 1, 80, 127
3, 295920, Note_on_c, 1, 74, 127
3, 296159, Note_on_c, 1, 80, 0
3, 296160, Note_on_c, 1, 77, 127
3, 296279, Note_on_c, 1, 77, 0
3, 296279, Note_on_c, 1, 74, 0
3, 296280, Note_on_c, 1, 67, 48
3, 296280, Note_on_c, 1, 75, 48
3, 296399, Note_on_c, 1, 67, 0
3, 297000, Note_on_c, 1, 70, 48
3, 297240, Note_on_c, 1, 77, 48
3, 297240, Note_on_c, 1, 74, 48
3, 297249, Note_on_c, 1, 70, 0
3, 297249, Note_on_c, 1, 75, 0
3, 297300, Note_on_c, 1, 79, 48
3, 297300, Note_on_c, 1, 75, 48
3, 297309, Note_on_c, 1, 77, 0
3, 297309, Note_on_c, 1, 74, 0
3, 297360, Note_on_c, 1, 80, 48
3, 297360, Note_on_c, 1, 77, 48
3, 297369, Note_on_c, 1, 79, 0
3, 297369, Note_on_c, 1, 75, 0
3, 297449, Note_on_c, 1, 80, 0
3, 297449, Note_on_c, 1, 77, 0
3, 297480, Note_on_c, 1, 80, 48
3, 297480, Note_on_c, 1, 77, 48
3, 297569, Note_on_c, 1, 77, 0
3, 297569, Note_on_c, 1, 80, 0
3, 297600, Note_on_c, 1, 80, 48
3, 297600, Note_on_c, 1, 77, 48
3, 297689, Note_on_c, 1, 77, 0
3, 297689, Note_on_c, 1, 80, 0
3, 297720, Note_on_c, 1, 79, 48
3, 297720, Note_on_c, 1, 75, 48
3, 297839, Note_on_c, 1, 75, 0
3, 297839, Note_on_c, 1, 79, 0
3, 298620, Note_on_c, 1, 70, 78
3, 298620, Note_on_c, 1, 75, 78
3, 298649, Note_on_c, 1, 75, 0
3, 298649, Note_on_c, 1, 70, 0
3, 298680, Note_on_c, 1, 77, 80
3, 298680, Note_on_c, 1, 74, 80
3, 298709, Note_on_c, 1, 74, 0
3, 298709, Note_on_c, 1, 77, 0
3, 298740, Note_on_c, 1, 79, 82
3, 298740, Note_on_c, 1, 75, 82
3, 298769, Note_on_c, 1, 75, 0
3, 298769, Note_on_c, 1, 79, 0
3, 298800, Note_on_c, 1, 77, 84
3, 298800, Note_on_c, 1, 80, 84
3, 298829, Note_on_c, 1, 80, 0
3, 298829, Note_on_c, 1, 77, 0
3, 298860, Note_on_c, 1, 77, 86
3, 298860, Note_on_c, 1, 80, 86
3, 298889, Note_on_c, 1, 80, 0
3, 298889, Note_on_c, 1, 77, 0
3, 298920, Note_on_c, 1, 77, 88
3, 298920, Note_on_c, 1, 80, 88
3, 298949, Note_on_c, 1, 80, 0
3, 298949, Note_on_c, 1, 77, 0
3, 298980, Note_on_c, 1, 77, 90
3, 298980, Note_on_c, 1, 80, 90
3, 299009, Note_on_c, 1, 80, 0
3, 299009, Note_on_c, 1, 77, 0
3, 299040, Note_on_c, 1, 77, 92
3, 299040, Note_on_c, 1, 80, 92
3, 299069, Note_on_c, 1, 80, 0
3, 299069, Note_on_c, 1, 77, 0
3, 299100, Note_on_c, 1, 77, 94
3, 299100, Note_on_c, 1, 80, 94
3, 299129, Note_on_c, 1, 80, 0
3, 299129, Note_on_c, 1, 77, 0
3, 299160, Note_on_c, 1, 77, 96
3, 299160, Note_on_c, 1, 80, 96
3, 299279, Note_on_c, 1, 80, 0
3, 299279, Note_on_c, 1, 77, 0
3, 299280, Note_on_c, 1, 68, 96
3, 299280, Note_on_c, 1, 74, 96
3, 299639, Note_on_c, 1, 74, 0
3, 299639, Note_on_c, 1, 68, 0
3, 299640, Note_on_c, 1, 77, 96
3, 299640, Note_on_c, 1, 74, 96
3, 299999, Note_on_c, 1, 74, 0
3, 299999, Note_on_c, 1, 77, 0
3, 300000, Note_on_c, 1, 77, 96
3, 300000, Note_on_c, 1, 80, 96
3, 300239, Note_on_c, 1, 80, 0
3, 300239, Note_on_c, 1, 77, 0
3, 300240, Note_on_c, 1, 80, 96
3, 300240, Note_on_c, 1, 77, 96
3, 300479, Note_on_c, 1, 77, 0
3, 300479, Note_on_c, 1, 80, 0
3, 300480, Note_on_c, 1, 77, 96
3, 300480, Note_on_c, 1, 80, 96
3, 300539, Note_on_c, 1, 80, 0
3, 300539, Note_on_c, 1, 77, 0
3, 300600, Note_on_c, 1, 80, 96
3, 300600, Note_on_c, 1, 77, 96
3, 300659, Note_on_c, 1, 77, 0
3, 300659, Note_on_c, 1, 80, 0
3, 300720, Note_on_c, 1, 74, 127
3, 300720, Note_on_c, 1, 80, 127
3, 300779, Note_on_c, 1, 80, 0
3, 300779, Note_on_c, 1, 74, 0
3, 300840, Note_on_c, 1, 74, 127
3, 300840, Note_on_c, 1, 80, 127
3, 300899, Note_on_c, 1, 80, 0
3, 300899, Note_on_c, 1, 74, 0
3, 300960, Note_on_c, 1, 74, 127
3, 300960, Note_on_c, 1, 80, 127
3, 301019, Note_on_c, 1, 80, 0
3, 301019, Note_on_c, 1, 74, 0
3, 301080, Note_on_c, 1, 74, 127
3, 301080, Note_on_c, 1, 80, 127
3, 301139, Note_on_c, 1, 80, 0
3, 301139, Note_on_c, 1, 74, 0
3, 301200, Note_on_c, 1, 74, 127
3, 301200, Note_on_c, 1, 80, 127
3, 301259, Note_on_c, 1, 80, 0
3, 301259, Note_on_c, 1, 74, 0
3, 301320, Note_on_c, 1, 74, 127
3, 301320, Note_on_c, 1, 80, 127
3, 301379, Note_on_c, 1, 80, 0
3, 301379, Note_on_c, 1, 74, 0
3, 301440, Note_on_c, 1, 74, 127
3, 301440, Note_on_c, 1, 80, 127
3, 301499, Note_on_c, 1, 80, 0
3, 301499, Note_on_c, 1, 74, 0
3, 301560, Note_on_c, 1, 74, 127
3, 301560, Note_on_c, 1, 80, 127
3, 301619, Note_on_c, 1, 80, 0
3, 301619, Note_on_c, 1, 74, 0
3, 301680, Note_on_c, 1, 74, 127
3, 301680, Note_on_c, 1, 80, 127
3, 301739, Note_on_c, 1, 80, 0
3, 301739, Note_on_c, 1, 74, 0
3, 301800, Note_on_c, 1, 74, 127
3, 301800, Note_on_c, 1, 80, 127
3, 301859, Note_on_c, 1, 80, 0
3, 301859, Note_on_c, 1, 74, 0
3, 301920, Note_on_c, 1, 74, 127
3, 301920, Note_on_c, 1, 80, 127
3, 301979, Note_on_c, 1, 80, 0
3, 301979, Note_on_c, 1, 74, 0
3, 302040, Note_on_c, 1, 75, 127
3, 302040, Note_on_c, 1, 79, 127
3, 302159, Note_on_c, 1, 79, 0
3, 302159, Note_on_c, 1, 75, 0
3, 302400, Note_on_c, 1, 75, 127
3, 302519, Note_on_c, 1, 75, 0
3, 302760, Note_on_c, 1, 75, 127
3, 302879, Note_on_c, 1, 75, 0
3, 302879, End_track
4, 0, Start_track
4, 0, MIDI_port, 0
4, 0, Title_t, "Clarinets"
4, 0, Program_c, 2, 71
4, 0, Control_c, 2, 7, 127
4, 0, Control_c, 2, 10, 59
4, 0, Control_c, 2, 93, 0
4, 0, Control_c, 2, 91, 0
4, 0, Note_on_c, 2, 67, 96
4, 0, Note_on_c, 2, 75, 96
4, 59, Note_on_c, 2, 75, 0
4, 59, Note_on_c, 2, 67, 0
4, 360, Note_on_c, 2, 75, 96
4, 360, Note_on_c, 2, 67, 96
4, 419, Note_on_c, 2, 67, 0
4, 419, Note_on_c, 2, 75, 0
4, 4560, Note_on_c, 2, 70, 48
4, 4800, Note_on_c, 2, 72, 48
4, 4809, Note_on_c, 2, 70, 0
4, 4920, Note_on_c, 2, 74, 56
4, 4929, Note_on_c, 2, 72, 0
4, 5039, Note_on_c, 2, 74, 0
4, 5040, Note_on_c, 2, 75, 48
4, 5280, Note_on_c, 2, 79, 48
4, 5289, Note_on_c, 2, 75, 0
4, 5400, Note_on_c, 2, 75, 48
4, 5409, Note_on_c, 2, 79, 0
4, 5640, Note_on_c, 2, 70, 48
4, 5649, Note_on_c, 2, 75, 0
4, 5759, Note_on_c, 2, 70, 0
4, 5760, Note_on_c, 2, 75, 48
4, 5880, Note_on_c, 2, 79, 48
4, 5889, Note_on_c, 2, 75, 0
4, 6000, Note_on_c, 2, 82, 48
4, 6009, Note_on_c, 2, 79, 0
4, 6120, Note_on_c, 2, 75, 48
4, 6129, Note_on_c, 2, 82, 0
4, 6239, Note_on_c, 2, 75, 0
4, 7080, Note_on_c, 2, 67, 48
4, 7200, Note_on_c, 2, 68, 48
4, 7209, Note_on_c, 2, 67, 0
4, 7320, Note_on_c, 2, 72, 48
4, 7329, Note_on_c, 2, 68, 0
4, 7440, Note_on_c, 2, 75, 48
4, 7449, Note_on_c, 2, 72, 0
4, 7559, Note_on_c, 2, 75, 0
4, 7560, Note_on_c, 2, 68, 48
4, 7680, Note_on_c, 2, 63, 48
4, 7799, Note_on_c, 2, 63, 0
4, 7800, Note_on_c, 2, 69, 64
4, 7800, Note_on_c, 2, 63, 64
4, 7809, Note_on_c, 2, 68, 0
4, 7919, Note_on_c, 2, 63, 0
4, 7920, Note_on_c, 2, 70, 96
4, 7929, Note_on_c, 2, 69, 0
4, 7949, Note_on_c, 2, 70, 0
4, 7950, Note_on_c, 2, 70, 48
4, 8159, Note_on_c, 2, 70, 0
4, 8160, Note_on_c, 2, 77, 48
4, 8160, Note_on_c, 2, 65, 48
4, 8280, Note_on_c, 2, 62, 48
4, 8280, Note_on_c, 2, 74, 48
4, 8289, Note_on_c, 2, 65, 0
4, 8289, Note_on_c, 2, 77, 0
4, 8400, Note_on_c, 2, 58, 48
4, 8400, Note_on_c, 2, 70, 48
4, 8409, Note_on_c, 2, 62, 0
4, 8409, Note_on_c, 2, 74, 0
4, 8520, Note_on_c, 2, 68, 48
4, 8520, Note_on_c, 2, 77, 48
4, 8529, Note_on_c, 2, 58, 0
4, 8529, Note_on_c, 2, 70, 0
4, 8639, Note_on_c, 2, 68, 0
4, 8639, Note_on_c, 2, 77, 0
4, 8640, Note_on_c, 2, 67, 48
4, 8640, Note_on_c, 2, 75, 48
4, 8699, Note_on_c, 2, 75, 0
4, 8699, Note_on_c, 2, 67, 0
4, 8760, Note_on_c, 2, 75, 96
4, 8760, Note_on_c, 2, 66, 96
4, 8999, Note_on_c, 2, 66, 0
4, 8999, Note_on_c, 2, 75, 0
4, 9000, Note_on_c, 2, 75, 96
4, 9000, Note_on_c, 2, 66, 96
4, 9239, Note_on_c, 2, 66, 0
4, 9239, Note_on_c, 2, 75, 0
4, 9240, Note_on_c, 2, 75, 96
4, 9240, Note_on_c, 2, 66, 96
4, 9359, Note_on_c, 2, 66, 0
4, 9359, Note_on_c, 2, 75, 0
4, 9360, Note_on_c, 2, 65, 96
4, 9360, Note_on_c, 2, 74, 96
4, 9419, Note_on_c, 2, 74, 0
4, 9419, Note_on_c, 2, 65, 0
4, 9480, Note_on_c, 2, 70, 48
4, 9480, Note_on_c, 2, 82, 48
4, 9600, Note_on_c, 2, 65, 48
4, 9600, Note_on_c, 2, 77, 48
4, 9609, Note_on_c, 2, 82, 0
4, 9609, Note_on_c, 2, 70, 0
4, 9720, Note_on_c, 2, 74, 48
4, 9720, Note_on_c, 2, 62, 48
4, 9729, Note_on_c, 2, 65, 0
4, 9729, Note_on_c, 2, 77, 0
4, 9840, Note_on_c, 2, 58, 48
4, 9840, Note_on_c, 2, 70, 48
4, 9849, Note_on_c, 2, 74, 0
4, 9849, Note_on_c, 2, 62, 0
4, 9959, Note_on_c, 2, 58, 0
4, 9959, Note_on_c, 2, 70, 0
4, 9960, Note_on_c, 2, 70, 96
4, 9960, Note_on_c, 2, 65, 96
4, 10199, Note_on_c, 2, 65, 0
4, 10199, Note_on_c, 2, 70, 0
4, 10200, Note_on_c, 2, 65, 96
4, 10200, Note_on_c, 2, 74, 96
4, 10439, Note_on_c, 2, 74, 0
4, 10439, Note_on_c, 2, 65, 0
4, 10440, Note_on_c, 2, 74, 96
4, 10440, Note_on_c, 2, 65, 96
4, 10679, Note_on_c, 2, 65, 0
4, 10679, Note_on_c, 2, 74, 0
4, 10680, Note_on_c, 2, 74, 96
4, 10680, Note_on_c, 2, 65, 96
4, 10919, Note_on_c, 2, 65, 0
4, 10919, Note_on_c, 2, 74, 0
4, 10920, Note_on_c, 2, 67, 96
4, 10920, Note_on_c, 2, 75, 96
4, 11159, Note_on_c, 2, 75, 0
4, 11159, Note_on_c, 2, 67, 0
4, 11160, Note_on_c, 2, 75, 96
4, 11160, Note_on_c, 2, 67, 96
4, 11399, Note_on_c, 2, 67, 0
4, 11399, Note_on_c, 2, 75, 0
4, 11400, Note_on_c, 2, 67, 96
4, 11400, Note_on_c, 2, 75, 96
4, 11639, Note_on_c, 2, 75, 0
4, 11639, Note_on_c, 2, 67, 0
4, 11640, Note_on_c, 2, 74, 90
4, 11640, Note_on_c, 2, 65, 90
4, 11699, Note_on_c, 2, 65, 0
4, 11699, Note_on_c, 2, 74, 0
4, 11760, Note_on_c, 2, 65, 96
4, 11760, Note_on_c, 2, 74, 96
4, 11880, Note_on_c, 2, 70, 90
4, 11889, Note_on_c, 2, 65, 0
4, 11999, Note_on_c, 2, 70, 0
4, 11999, Note_on_c, 2, 74, 0
4, 12000, Note_on_c, 2, 75, 90
4, 12000, Note_on_c, 2, 70, 90
4, 12059, Note_on_c, 2, 70, 0
4, 12059, Note_on_c, 2, 75, 0
4, 12120, Note_on_c, 2, 70, 96
4, 12120, Note_on_c, 2, 75, 96
4, 12240, Note_on_c, 2, 74, 96
4, 12249, Note_on_c, 2, 75, 0
4, 12359, Note_on_c, 2, 74, 0
4, 12359, Note_on_c, 2, 70, 0
4, 12360, Note_on_c, 2, 58, 96
4, 12389, Note_on_c, 2, 58, 0
4, 12420, Note_on_c, 2, 60, 98
4, 12449, Note_on_c, 2, 60, 0
4, 12480, Note_on_c, 2, 62, 101
4, 12509, Note_on_c, 2, 62, 0
4, 12540, Note_on_c, 2, 63, 104
4, 12569, Note_on_c, 2, 63, 0
4, 12600, Note_on_c, 2, 65, 106
4, 12629, Note_on_c, 2, 65, 0
4, 12660, Note_on_c, 2, 67, 109
4, 12689, Note_on_c, 2, 67, 0
4, 12720, Note_on_c, 2, 68, 112
4, 12749, Note_on_c, 2, 68, 0
4, 12780, Note_on_c, 2, 70, 115
4, 12809, Note_on_c, 2, 70, 0
4, 12840, Note_on_c, 2, 72, 118
4, 12869, Note_on_c, 2, 72, 0
4, 12900, Note_on_c, 2, 74, 121
4, 12929, Note_on_c, 2, 74, 0
4, 12960, Note_on_c, 2, 75, 127
4, 13200, Note_on_c, 2, 79, 127
4, 13209, Note_on_c, 2, 75, 0
4, 13320, Note_on_c, 2, 75, 127
4, 13329, Note_on_c, 2, 79, 0
4, 13560, Note_on_c, 2, 70, 127
4, 13569, Note_on_c, 2, 75, 0
4, 13680, Note_on_c, 2, 75, 127
4, 13689, Note_on_c, 2, 70, 0
4, 13800, Note_on_c, 2, 79, 127
4, 13809, Note_on_c, 2, 75, 0
4, 13920, Note_on_c, 2, 82, 127
4, 13929, Note_on_c, 2, 79, 0
4, 14040, Note_on_c, 2, 75, 127
4, 14049, Note_on_c, 2, 82, 0
4, 14279, Note_on_c, 2, 75, 0
4, 14280, Note_on_c, 2, 79, 127
4, 14280, Note_on_c, 2, 75, 127
4, 14519, Note_on_c, 2, 75, 0
4, 14519, Note_on_c, 2, 79, 0
4, 14520, Note_on_c, 2, 75, 127
4, 14520, Note_on_c, 2, 79, 127
4, 14639, Note_on_c, 2, 79, 0
4, 14639, Note_on_c, 2, 75, 0
4, 14640, Note_on_c, 2, 79, 127
4, 14640, Note_on_c, 2, 75, 127
4, 14759, Note_on_c, 2, 75, 0
4, 14759, Note_on_c, 2, 79, 0
4, 14760, Note_on_c, 2, 75, 127
4, 14760, Note_on_c, 2, 79, 127
4, 14999, Note_on_c, 2, 75, 0
4, 15000, Note_on_c, 2, 73, 127
4, 15119, Note_on_c, 2, 73, 0
4, 15119, Note_on_c, 2, 79, 0
4, 15120, Note_on_c, 2, 80, 127
4, 15120, Note_on_c, 2, 72, 127
4, 15240, Note_on_c, 2, 75, 127
4, 15249, Note_on_c, 2, 80, 0
4, 15359, Note_on_c, 2, 75, 0
4, 15360, Note_on_c, 2, 75, 127
4, 15479, Note_on_c, 2, 75, 0
4, 15480, Note_on_c, 2, 76, 127
4, 15540, Note_on_c, 2, 70, 127
4, 15549, Note_on_c, 2, 72, 0
4, 15600, Note_on_c, 2, 69, 127
4, 15609, Note_on_c, 2, 70, 0
4, 15660, Note_on_c, 2, 70, 127
4, 15669, Note_on_c, 2, 69, 0
4, 15720, Note_on_c, 2, 72, 127
4, 15729, Note_on_c, 2, 70, 0
4, 15780, Note_on_c, 2, 70, 127
4, 15789, Note_on_c, 2, 72, 0
4, 15839, Note_on_c, 2, 76, 0
4, 15840, Note_on_c, 2, 69, 127
4, 15849, Note_on_c, 2, 70, 0
4, 15959, Note_on_c, 2, 69, 0
4, 16320, Note_on_c, 2, 77, 48
4, 16500, Note_on_c, 2, 75, 48
4, 16509, Note_on_c, 2, 77, 0
4, 16560, Note_on_c, 2, 72, 48
4, 16569, Note_on_c, 2, 75, 0
4, 16679, Note_on_c, 2, 72, 0
4, 17760, Note_on_c, 2, 77, 48
4, 17940, Note_on_c, 2, 74, 48
4, 17949, Note_on_c, 2, 77, 0
4, 18000, Note_on_c, 2, 70, 48
4, 18009, Note_on_c, 2, 74, 0
4, 18119, Note_on_c, 2, 70, 0
4, 19200, Note_on_c, 2, 78, 64
4, 19380, Note_on_c, 2, 77, 56
4, 19389, Note_on_c, 2, 78, 0
4, 19440, Note_on_c, 2, 75, 56
4, 19449, Note_on_c, 2, 77, 0
4, 19559, Note_on_c, 2, 75, 0
4, 19560, Note_on_c, 2, 67, 127
4, 19560, Note_on_c, 2, 79, 127
4, 19739, Note_on_c, 2, 79, 0
4, 19739, Note_on_c, 2, 67, 0
4, 19740, Note_on_c, 2, 77, 127
4, 19740, Note_on_c, 2, 65, 127
4, 19799, Note_on_c, 2, 65, 0
4, 19799, Note_on_c, 2, 77, 0
4, 19800, Note_on_c, 2, 63, 127
4, 19800, Note_on_c, 2, 75, 127
4, 19859, Note_on_c, 2, 75, 0
4, 19859, Note_on_c, 2, 63, 0
4, 19920, Note_on_c, 2, 74, 127
4, 19920, Note_on_c, 2, 62, 127
4, 19979, Note_on_c, 2, 62, 0
4, 19979, Note_on_c, 2, 74, 0
4, 20040, Note_on_c, 2, 72, 127
4, 20040, Note_on_c, 2, 60, 127
4, 20099, Note_on_c, 2, 60, 0
4, 20099, Note_on_c, 2, 72, 0
4, 20160, Note_on_c, 2, 62, 48
4, 20160, Note_on_c, 2, 58, 48
4, 20400, Note_on_c, 2, 60, 60
4, 20400, Note_on_c, 2, 63, 60
4, 20409, Note_on_c, 2, 58, 0
4, 20409, Note_on_c, 2, 62, 0
4, 20460, Note_on_c, 2, 65, 62
4, 20460, Note_on_c, 2, 62, 62
4, 20469, Note_on_c, 2, 60, 0
4, 20469, Note_on_c, 2, 63, 0
4, 20520, Note_on_c, 2, 63, 64
4, 20520, Note_on_c, 2, 67, 64
4, 20529, Note_on_c, 2, 65, 0
4, 20529, Note_on_c, 2, 62, 0
4, 20640, Note_on_c, 2, 69, 56
4, 20640, Note_on_c, 2, 65, 56
4, 20649, Note_on_c, 2, 63, 0
4, 20649, Note_on_c, 2, 67, 0
4, 20760, Note_on_c, 2, 67, 52
4, 20760, Note_on_c, 2, 70, 52
4, 20769, Note_on_c, 2, 69, 0
4, 20769, Note_on_c, 2, 65, 0
4, 20879, Note_on_c, 2, 67, 0
4, 20879, Note_on_c, 2, 70, 0
4, 20880, Note_on_c, 2, 65, 48
4, 20880, Note_on_c, 2, 70, 48
4, 21059, Note_on_c, 2, 70, 0
4, 21059, Note_on_c, 2, 65, 0
4, 21060, Note_on_c, 2, 53, 48
4, 21060, Note_on_c, 2, 58, 48
4, 21120, Note_on_c, 2, 60, 48
4, 21120, Note_on_c, 2, 57, 48
4, 21129, Note_on_c, 2, 58, 0
4, 21129, Note_on_c, 2, 53, 0
4, 21180, Note_on_c, 2, 58, 48
4, 21180, Note_on_c, 2, 62, 48
4, 21189, Note_on_c, 2, 60, 0
4, 21189, Note_on_c, 2, 57, 0
4, 21239, Note_on_c, 2, 58, 0
4, 21239, Note_on_c, 2, 62, 0
4, 21240, Note_on_c, 2, 63, 48
4, 21240, Note_on_c, 2, 60, 48
4, 21329, Note_on_c, 2, 60, 0
4, 21329, Note_on_c, 2, 63, 0
4, 21360, Note_on_c, 2, 60, 48
4, 21360, Note_on_c, 2, 63, 48
4, 21449, Note_on_c, 2, 63, 0
4, 21449, Note_on_c, 2, 60, 0
4, 21480, Note_on_c, 2, 63, 48
4, 21480, Note_on_c, 2, 60, 48
4, 21569, Note_on_c, 2, 60, 0
4, 21569, Note_on_c, 2, 63, 0
4, 21600, Note_on_c, 2, 62, 48
4, 21600, Note_on_c, 2, 58, 48
4, 21719, Note_on_c, 2, 58, 0
4, 21719, Note_on_c, 2, 62, 0
4, 23040, Note_on_c, 2, 75, 96
4, 23040, Note_on_c, 2, 69, 96
4, 23099, Note_on_c, 2, 69, 0
4, 23099, Note_on_c, 2, 75, 0
4, 23160, Note_on_c, 2, 75, 96
4, 23160, Note_on_c, 2, 69, 96
4, 23219, Note_on_c, 2, 69, 0
4, 23219, Note_on_c, 2, 75, 0
4, 23700, Note_on_c, 2, 69, 96
4, 23700, Note_on_c, 2, 72, 96
4, 23729, Note_on_c, 2, 72, 0
4, 23729, Note_on_c, 2, 69, 0
4, 23760, Note_on_c, 2, 70, 96
4, 23819, Note_on_c, 2, 70, 0
4, 23880, Note_on_c, 2, 70, 96
4, 23939, Note_on_c, 2, 70, 0
4, 24420, Note_on_c, 2, 74, 96
4, 24420, Note_on_c, 2, 70, 96
4, 24449, Note_on_c, 2, 70, 0
4, 24449, Note_on_c, 2, 74, 0
4, 24480, Note_on_c, 2, 71, 96
4, 24480, Note_on_c, 2, 74, 96
4, 24539, Note_on_c, 2, 74, 0
4, 24539, Note_on_c, 2, 71, 0
4, 24600, Note_on_c, 2, 74, 96
4, 24600, Note_on_c, 2, 71, 96
4, 24659, Note_on_c, 2, 71, 0
4, 24659, Note_on_c, 2, 74, 0
4, 25320, Note_on_c, 2, 72, 96
4, 25440, Note_on_c, 2, 74, 96
4, 25559, Note_on_c, 2, 72, 0
4, 25560, Note_on_c, 2, 70, 96
4, 25619, Note_on_c, 2, 74, 0
4, 25620, Note_on_c, 2, 75, 96
4, 25679, Note_on_c, 2, 75, 0
4, 25679, Note_on_c, 2, 70, 0
4, 25680, Note_on_c, 2, 75, 96
4, 25800, Note_on_c, 2, 77, 96
4, 25919, Note_on_c, 2, 77, 0
4, 25919, Note_on_c, 2, 75, 0
4, 25920, Note_on_c, 2, 74, 96
4, 25920, Note_on_c, 2, 77, 96
4, 26039, Note_on_c, 2, 77, 0
4, 26039, Note_on_c, 2, 74, 0
4, 26520, Note_on_c, 2, 70, 96
4, 26520, Note_on_c, 2, 78, 96
4, 26640, Note_on_c, 2, 79, 96
4, 26649, Note_on_c, 2, 78, 0
4, 26700, Note_on_c, 2, 78, 96
4, 26709, Note_on_c, 2, 79, 0
4, 26760, Note_on_c, 2, 79, 96
4, 26769, Note_on_c, 2, 78, 0
4, 26820, Note_on_c, 2, 78, 96
4, 26829, Note_on_c, 2, 79, 0
4, 26880, Note_on_c, 2, 71, 96
4, 26880, Note_on_c, 2, 79, 96
4, 26889, Note_on_c, 2, 78, 0
4, 26889, Note_on_c, 2, 70, 0
4, 26940, Note_on_c, 2, 74, 96
4, 26949, Note_on_c, 2, 79, 0
4, 26999, Note_on_c, 2, 74, 0
4, 26999, Note_on_c, 2, 71, 0
4, 27000, Note_on_c, 2, 72, 96
4, 27000, Note_on_c, 2, 75, 96
4, 27059, Note_on_c, 2, 72, 0
4, 27060, Note_on_c, 2, 67, 96
4, 27060, Note_on_c, 2, 74, 96
4, 27069, Note_on_c, 2, 75, 0
4, 27120, Note_on_c, 2, 77, 96
4, 27129, Note_on_c, 2, 74, 0
4, 27179, Note_on_c, 2, 67, 0
4, 27180, Note_on_c, 2, 67, 96
4, 27180, Note_on_c, 2, 75, 96
4, 27189, Note_on_c, 2, 77, 0
4, 27240, Note_on_c, 2, 65, 96
4, 27240, Note_on_c, 2, 74, 96
4, 27249, Note_on_c, 2, 75, 0
4, 27249, Note_on_c, 2, 67, 0
4, 27300, Note_on_c, 2, 63, 96
4, 27300, Note_on_c, 2, 72, 96
4, 27309, Note_on_c, 2, 65, 0
4, 27309, Note_on_c, 2, 74, 0
4, 27359, Note_on_c, 2, 72, 0
4, 27360, Note_on_c, 2, 62, 96
4, 27360, Note_on_c, 2, 70, 96
4, 27369, Note_on_c, 2, 63, 0
4, 27479, Note_on_c, 2, 70, 0
4, 27479, Note_on_c, 2, 62, 0
4, 29640, Note_on_c, 2, 74, 48
4, 29640, Note_on_c, 2, 65, 48
4, 29729, Note_on_c, 2, 65, 0
4, 29729, Note_on_c, 2, 74, 0
4, 29760, Note_on_c, 2, 65, 48
4, 29760, Note_on_c, 2, 74, 48
4, 29849, Note_on_c, 2, 74, 0
4, 29849, Note_on_c, 2, 65, 0
4, 29880, Note_on_c, 2, 74, 56
4, 29880, Note_on_c, 2, 65, 56
4, 29969, Note_on_c, 2, 65, 0
4, 29969, Note_on_c, 2, 74, 0
4, 30000, Note_on_c, 2, 65, 64
4, 30000, Note_on_c, 2, 74, 64
4, 30089, Note_on_c, 2, 74, 0
4, 30089, Note_on_c, 2, 65, 0
4, 30120, Note_on_c, 2, 65, 72
4, 30120, Note_on_c, 2, 74, 72
4, 30209, Note_on_c, 2, 74, 0
4, 30209, Note_on_c, 2, 65, 0
4, 30240, Note_on_c, 2, 74, 80
4, 30240, Note_on_c, 2, 65, 80
4, 30329, Note_on_c, 2, 65, 0
4, 30329, Note_on_c, 2, 74, 0
4, 30360, Note_on_c, 2, 65, 88
4, 30360, Note_on_c, 2, 74, 88
4, 30449, Note_on_c, 2, 74, 0
4, 30449, Note_on_c, 2, 65, 0
4, 30480, Note_on_c, 2, 74, 88
4, 30480, Note_on_c, 2, 66, 88
4, 30569, Note_on_c, 2, 66, 0
4, 30569, Note_on_c, 2, 74, 0
4, 30600, Note_on_c, 2, 67, 96
4, 30600, Note_on_c, 2, 74, 96
4, 30840, Note_on_c, 2, 72, 64
4, 30849, Note_on_c, 2, 74, 0
4, 30959, Note_on_c, 2, 72, 0
4, 30959, Note_on_c, 2, 67, 0
4, 32520, Note_on_c, 2, 73, 48
4, 32520, Note_on_c, 2, 65, 48
4, 32609, Note_on_c, 2, 65, 0
4, 32609, Note_on_c, 2, 73, 0
4, 32640, Note_on_c, 2, 65, 48
4, 32640, Note_on_c, 2, 73, 48
4, 32729, Note_on_c, 2, 73, 0
4, 32729, Note_on_c, 2, 65, 0
4, 32760, Note_on_c, 2, 73, 56
4, 32760, Note_on_c, 2, 65, 56
4, 32849, Note_on_c, 2, 65, 0
4, 32849, Note_on_c, 2, 73, 0
4, 32880, Note_on_c, 2, 66, 64
4, 32880, Note_on_c, 2, 73, 64
4, 32969, Note_on_c, 2, 73, 0
4, 32969, Note_on_c, 2, 66, 0
4, 33000, Note_on_c, 2, 73, 72
4, 33000, Note_on_c, 2, 66, 72
4, 33089, Note_on_c, 2, 66, 0
4, 33089, Note_on_c, 2, 73, 0
4, 33120, Note_on_c, 2, 73, 80
4, 33120, Note_on_c, 2, 66, 80
4, 33209, Note_on_c, 2, 66, 0
4, 33209, Note_on_c, 2, 73, 0
4, 33240, Note_on_c, 2, 66, 88
4, 33240, Note_on_c, 2, 73, 88
4, 33329, Note_on_c, 2, 73, 0
4, 33329, Note_on_c, 2, 66, 0
4, 33360, Note_on_c, 2, 73, 88
4, 33360, Note_on_c, 2, 66, 88
4, 33449, Note_on_c, 2, 66, 0
4, 33449, Note_on_c, 2, 73, 0
4, 33480, Note_on_c, 2, 66, 96
4, 33480, Note_on_c, 2, 73, 96
4, 33720, Note_on_c, 2, 72, 64
4, 33729, Note_on_c, 2, 73, 0
4, 33839, Note_on_c, 2, 72, 0
4, 33839, Note_on_c, 2, 66, 0
4, 35040, Note_on_c, 2, 72, 56
4, 35040, Note_on_c, 2, 70, 56
4, 35129, Note_on_c, 2, 70, 0
4, 35129, Note_on_c, 2, 72, 0
4, 35160, Note_on_c, 2, 72, 56
4, 35160, Note_on_c, 2, 70, 56
4, 35249, Note_on_c, 2, 70, 0
4, 35249, Note_on_c, 2, 72, 0
4, 35280, Note_on_c, 2, 72, 48
4, 35280, Note_on_c, 2, 69, 48
4, 35399, Note_on_c, 2, 69, 0
4, 35399, Note_on_c, 2, 72, 0
4, 38400, Note_on_c, 2, 63, 75
4, 38400, Note_on_c, 2, 60, 75
4, 38429, Note_on_c, 2, 60, 0
4, 38429, Note_on_c, 2, 63, 0
4, 38460, Note_on_c, 2, 65, 78
4, 38460, Note_on_c, 2, 62, 78
4, 38489, Note_on_c, 2, 62, 0
4, 38489, Note_on_c, 2, 65, 0
4, 38520, Note_on_c, 2, 67, 80
4, 38520, Note_on_c, 2, 63, 80
4, 38549, Note_on_c, 2, 63, 0
4, 38549, Note_on_c, 2, 67, 0
4, 38580, Note_on_c, 2, 69, 83
4, 38580, Note_on_c, 2, 65, 83
4, 38609, Note_on_c, 2, 65, 0
4, 38609, Note_on_c, 2, 69, 0
4, 38640, Note_on_c, 2, 70, 86
4, 38640, Note_on_c, 2, 67, 86
4, 38669, Note_on_c, 2, 67, 0
4, 38669, Note_on_c, 2, 70, 0
4, 38700, Note_on_c, 2, 72, 89
4, 38700, Note_on_c, 2, 69, 89
4, 38729, Note_on_c, 2, 69, 0
4, 38729, Note_on_c, 2, 72, 0
4, 38760, Note_on_c, 2, 74, 92
4, 38760, Note_on_c, 2, 70, 92
4, 38789, Note_on_c, 2, 70, 0
4, 38789, Note_on_c, 2, 74, 0
4, 38820, Note_on_c, 2, 75, 94
4, 38820, Note_on_c, 2, 72, 94
4, 38849, Note_on_c, 2, 72, 0
4, 38849, Note_on_c, 2, 75, 0
4, 38880, Note_on_c, 2, 77, 96
4, 38880, Note_on_c, 2, 74, 96
4, 38999, Note_on_c, 2, 74, 0
4, 38999, Note_on_c, 2, 77, 0
4, 39000, Note_on_c, 2, 70, 112
4, 39000, Note_on_c, 2, 65, 112
4, 39239, Note_on_c, 2, 65, 0
4, 39239, Note_on_c, 2, 70, 0
4, 39360, Note_on_c, 2, 65, 112
4, 39360, Note_on_c, 2, 70, 112
4, 39599, Note_on_c, 2, 70, 0
4, 39599, Note_on_c, 2, 65, 0
4, 39720, Note_on_c, 2, 72, 112
4, 39720, Note_on_c, 2, 65, 112
4, 39959, Note_on_c, 2, 65, 0
4, 39959, Note_on_c, 2, 72, 0
4, 40080, Note_on_c, 2, 65, 112
4, 40080, Note_on_c, 2, 72, 112
4, 40199, Note_on_c, 2, 72, 0
4, 40199, Note_on_c, 2, 65, 0
4, 40200, Note_on_c, 2, 72, 96
4, 40200, Note_on_c, 2, 65, 96
4, 40319, Note_on_c, 2, 65, 0
4, 40319, Note_on_c, 2, 72, 0
4, 40320, Note_on_c, 2, 65, 127
4, 40320, Note_on_c, 2, 74, 127
4, 40379, Note_on_c, 2, 74, 0
4, 40379, Note_on_c, 2, 65, 0
4, 40440, Note_on_c, 2, 77, 127
4, 40619, Note_on_c, 2, 77, 0
4, 40620, Note_on_c, 2, 74, 127
4, 40679, Note_on_c, 2, 74, 0
4, 40680, Note_on_c, 2, 70, 127
4, 40739, Note_on_c, 2, 70, 0
4, 40800, Note_on_c, 2, 74, 127
4, 40979, Note_on_c, 2, 74, 0
4, 40980, Note_on_c, 2, 65, 127
4, 41039, Note_on_c, 2, 65, 0
4, 41040, Note_on_c, 2, 72, 127
4, 41099, Note_on_c, 2, 72, 0
4, 41160, Note_on_c, 2, 75, 127
4, 41339, Note_on_c, 2, 75, 0
4, 41340, Note_on_c, 2, 65, 127
4, 41399, Note_on_c, 2, 65, 0
4, 41400, Note_on_c, 2, 69, 127
4, 41459, Note_on_c, 2, 69, 0
4, 41520, Note_on_c, 2, 72, 127
4, 41699, Note_on_c, 2, 72, 0
4, 41700, Note_on_c, 2, 65, 127
4, 41759, Note_on_c, 2, 65, 0
4, 41760, Note_on_c, 2, 65, 127
4, 41760, Note_on_c, 2, 70, 127
4, 42060, Note_on_c, 2, 64, 127
4, 42069, Note_on_c, 2, 65, 0
4, 42120, Note_on_c, 2, 65, 127
4, 42129, Note_on_c, 2, 64, 0
4, 42179, Note_on_c, 2, 65, 0
4, 42179, Note_on_c, 2, 70, 0
4, 43740, Note_on_c, 2, 67, 127
4, 43769, Note_on_c, 2, 67, 0
4, 43800, Note_on_c, 2, 67, 127
4, 43829, Note_on_c, 2, 67, 0
4, 43860, Note_on_c, 2, 67, 127
4, 43889, Note_on_c, 2, 67, 0
4, 43920, Note_on_c, 2, 69, 127
4, 43920, Note_on_c, 2, 66, 127
4, 43979, Note_on_c, 2, 66, 0
4, 43979, Note_on_c, 2, 69, 0
4, 44040, Note_on_c, 2, 72, 127
4, 44040, Note_on_c, 2, 69, 127
4, 44099, Note_on_c, 2, 69, 0
4, 44099, Note_on_c, 2, 72, 0
4, 44160, Note_on_c, 2, 67, 127
4, 44160, Note_on_c, 2, 70, 127
4, 44219, Note_on_c, 2, 70, 0
4, 44219, Note_on_c, 2, 67, 0
4, 44400, Note_on_c, 2, 68, 127
4, 44400, Note_on_c, 2, 65, 127
4, 44459, Note_on_c, 2, 65, 0
4, 44459, Note_on_c, 2, 68, 0
4, 44520, Note_on_c, 2, 67, 127
4, 44520, Note_on_c, 2, 63, 127
4, 44579, Note_on_c, 2, 63, 0
4, 44579, Note_on_c, 2, 67, 0
4, 44760, Note_on_c, 2, 70, 127
4, 44760, Note_on_c, 2, 67, 127
4, 44819, Note_on_c, 2, 67, 0
4, 44819, Note_on_c, 2, 70, 0
4, 44880, Note_on_c, 2, 65, 127
4, 44880, Note_on_c, 2, 69, 127
4, 44939, Note_on_c, 2, 69, 0
4, 44939, Note_on_c, 2, 65, 0
4, 45120, Note_on_c, 2, 69, 127
4, 45120, Note_on_c, 2, 72, 127
4, 45179, Note_on_c, 2, 72, 0
4, 45179, Note_on_c, 2, 69, 0
4, 45240, Note_on_c, 2, 67, 127
4, 45240, Note_on_c, 2, 70, 127
4, 45299, Note_on_c, 2, 70, 0
4, 45299, Note_on_c, 2, 67, 0
4, 45480, Note_on_c, 2, 65, 127
4, 45480, Note_on_c, 2, 68, 127
4, 45539, Note_on_c, 2, 68, 0
4, 45539, Note_on_c, 2, 65, 0
4, 45600, Note_on_c, 2, 67, 127
4, 45600, Note_on_c, 2, 63, 127
4, 45659, Note_on_c, 2, 63, 0
4, 45659, Note_on_c, 2, 67, 0
4, 45840, Note_on_c, 2, 70, 127
4, 45840, Note_on_c, 2, 67, 127
4, 45899, Note_on_c, 2, 67, 0
4, 45899, Note_on_c, 2, 70, 0
4, 46080, Note_on_c, 2, 67, 127
4, 46080, Note_on_c, 2, 70, 127
4, 46139, Note_on_c, 2, 70, 0
4, 46139, Note_on_c, 2, 67, 0
4, 46320, Note_on_c, 2, 70, 127
4, 46320, Note_on_c, 2, 67, 127
4, 46379, Note_on_c, 2, 67, 0
4, 46379, Note_on_c, 2, 70, 0
4, 46560, Note_on_c, 2, 67, 127
4, 46560, Note_on_c, 2, 70, 127
4, 46619, Note_on_c, 2, 70, 0
4, 46619, Note_on_c, 2, 67, 0
4, 46800, Note_on_c, 2, 70, 127
4, 46800, Note_on_c, 2, 67, 127
4, 46859, Note_on_c, 2, 67, 0
4, 46859, Note_on_c, 2, 70, 0
4, 47040, Note_on_c, 2, 67, 127
4, 47040, Note_on_c, 2, 70, 127
4, 47099, Note_on_c, 2, 70, 0
4, 47099, Note_on_c, 2, 67, 0
4, 48720, Note_on_c, 2, 74, 48
4, 48720, Note_on_c, 2, 70, 48
4, 48779, Note_on_c, 2, 70, 0
4, 48779, Note_on_c, 2, 74, 0
4, 48960, Note_on_c, 2, 72, 48
4, 48960, Note_on_c, 2, 68, 48
4, 49019, Note_on_c, 2, 68, 0
4, 49019, Note_on_c, 2, 72, 0
4, 49200, Note_on_c, 2, 68, 48
4, 49200, Note_on_c, 2, 72, 48
4, 49259, Note_on_c, 2, 72, 0
4, 49259, Note_on_c, 2, 68, 0
4, 49440, Note_on_c, 2, 75, 48
4, 49440, Note_on_c, 2, 72, 48
4, 49499, Note_on_c, 2, 72, 0
4, 49499, Note_on_c, 2, 75, 0
4, 49680, Note_on_c, 2, 74, 48
4, 49680, Note_on_c, 2, 70, 48
4, 49739, Note_on_c, 2, 70, 0
4, 49739, Note_on_c, 2, 74, 0
4, 49920, Note_on_c, 2, 70, 48
4, 49920, Note_on_c, 2, 74, 48
4, 49979, Note_on_c, 2, 74, 0
4, 49979, Note_on_c, 2, 70, 0
4, 50040, Note_on_c, 2, 67, 64
4, 50400, Note_on_c, 2, 63, 72
4, 50579, Note_on_c, 2, 63, 0
4, 50579, Note_on_c, 2, 67, 0
4, 50580, Note_on_c, 2, 72, 81
4, 50580, Note_on_c, 2, 67, 81
4, 50640, Note_on_c, 2, 65, 83
4, 50640, Note_on_c, 2, 71, 83
4, 50649, Note_on_c, 2, 67, 0
4, 50649, Note_on_c, 2, 72, 0
4, 50700, Note_on_c, 2, 63, 86
4, 50700, Note_on_c, 2, 72, 86
4, 50709, Note_on_c, 2, 65, 0
4, 50709, Note_on_c, 2, 71, 0
4, 50759, Note_on_c, 2, 63, 0
4, 50759, Note_on_c, 2, 72, 0
4, 50760, Note_on_c, 2, 70, 88
4, 50760, Note_on_c, 2, 62, 88
4, 50819, Note_on_c, 2, 62, 0
4, 50819, Note_on_c, 2, 70, 0
4, 50820, Note_on_c, 2, 74, 93
4, 50820, Note_on_c, 2, 70, 93
4, 50879, Note_on_c, 2, 70, 0
4, 50879, Note_on_c, 2, 74, 0
4, 50880, Note_on_c, 2, 77, 97
4, 50880, Note_on_c, 2, 74, 97
4, 50939, Note_on_c, 2, 74, 0
4, 50939, Note_on_c, 2, 77, 0
4, 50940, Note_on_c, 2, 70, 101
4, 50940, Note_on_c, 2, 74, 101
4, 50999, Note_on_c, 2, 74, 0
4, 50999, Note_on_c, 2, 70, 0
4, 51000, Note_on_c, 2, 74, 105
4, 51000, Note_on_c, 2, 70, 105
4, 51059, Note_on_c, 2, 70, 0
4, 51059, Note_on_c, 2, 74, 0
4, 51060, Note_on_c, 2, 70, 109
4, 51060, Note_on_c, 2, 74, 109
4, 51119, Note_on_c, 2, 74, 0
4, 51119, Note_on_c, 2, 70, 0
4, 51120, Note_on_c, 2, 77, 127
4, 51120, Note_on_c, 2, 71, 127
4, 51479, Note_on_c, 2, 71, 0
4, 51479, Note_on_c, 2, 77, 0
4, 51480, Note_on_c, 2, 70, 96
4, 51480, Note_on_c, 2, 74, 96
4, 51539, Note_on_c, 2, 74, 0
4, 51539, Note_on_c, 2, 70, 0
4, 51840, Note_on_c, 2, 70, 96
4, 51899, Note_on_c, 2, 70, 0
4, 52200, Note_on_c, 2, 70, 96
4, 52259, Note_on_c, 2, 70, 0
4, 52560, Note_on_c, 2, 66, 96
4, 52560, Note_on_c, 2, 75, 96
4, 52619, Note_on_c, 2, 75, 0
4, 52619, Note_on_c, 2, 66, 0
4, 52680, Note_on_c, 2, 75, 96
4, 52680, Note_on_c, 2, 66, 96
4, 52739, Note_on_c, 2, 66, 0
4, 52739, Note_on_c, 2, 75, 0
4, 52800, Note_on_c, 2, 66, 96
4, 52800, Note_on_c, 2, 75, 96
4, 52859, Note_on_c, 2, 75, 0
4, 52859, Note_on_c, 2, 66, 0
4, 52920, Note_on_c, 2, 65, 96
4, 52920, Note_on_c, 2, 74, 96
4, 52979, Note_on_c, 2, 74, 0
4, 52979, Note_on_c, 2, 65, 0
4, 54960, Note_on_c, 2, 74, 96
4, 54960, Note_on_c, 2, 68, 96
4, 54989, Note_on_c, 2, 68, 0
4, 54989, Note_on_c, 2, 74, 0
4, 54990, Note_on_c, 2, 74, 48
4, 54990, Note_on_c, 2, 68, 48
4, 55080, Note_on_c, 2, 67, 48
4, 55080, Note_on_c, 2, 75, 48
4, 55089, Note_on_c, 2, 68, 0
4, 55089, Note_on_c, 2, 74, 0
4, 55199, Note_on_c, 2, 67, 0
4, 55199, Note_on_c, 2, 75, 0
4, 58920, Note_on_c, 2, 70, 48
4, 59160, Note_on_c, 2, 72, 48
4, 59169, Note_on_c, 2, 70, 0
4, 59280, Note_on_c, 2, 74, 56
4, 59289, Note_on_c, 2, 72, 0
4, 59399, Note_on_c, 2, 74, 0
4, 59400, Note_on_c, 2, 75, 48
4, 59640, Note_on_c, 2, 79, 48
4, 59649, Note_on_c, 2, 75, 0
4, 59760, Note_on_c, 2, 75, 48
4, 59769, Note_on_c, 2, 79, 0
4, 60000, Note_on_c, 2, 70, 48
4, 60009, Note_on_c, 2, 75, 0
4, 60119, Note_on_c, 2, 70, 0
4, 60120, Note_on_c, 2, 75, 48
4, 60240, Note_on_c, 2, 79, 48
4, 60249, Note_on_c, 2, 75, 0
4, 60360, Note_on_c, 2, 82, 48
4, 60369, Note_on_c, 2, 79, 0
4, 60480, Note_on_c, 2, 75, 48
4, 60489, Note_on_c, 2, 82, 0
4, 60599, Note_on_c, 2, 75, 0
4, 61440, Note_on_c, 2, 67, 48
4, 61560, Note_on_c, 2, 68, 48
4, 61569, Note_on_c, 2, 67, 0
4, 61680, Note_on_c, 2, 72, 48
4, 61689, Note_on_c, 2, 68, 0
4, 61800, Note_on_c, 2, 75, 48
4, 61809, Note_on_c, 2, 72, 0
4, 61919, Note_on_c, 2, 75, 0
4, 61920, Note_on_c, 2, 68, 48
4, 62040, Note_on_c, 2, 63, 48
4, 62159, Note_on_c, 2, 63, 0
4, 62160, Note_on_c, 2, 69, 64
4, 62160, Note_on_c, 2, 63, 64
4, 62169, Note_on_c, 2, 68, 0
4, 62279, Note_on_c, 2, 63, 0
4, 62280, Note_on_c, 2, 70, 96
4, 62289, Note_on_c, 2, 69, 0
4, 62309, Note_on_c, 2, 70, 0
4, 62310, Note_on_c, 2, 70, 48
4, 62519, Note_on_c, 2, 70, 0
4, 62520, Note_on_c, 2, 77, 48
4, 62520, Note_on_c, 2, 65, 48
4, 62640, Note_on_c, 2, 62, 48
4, 62640, Note_on_c, 2, 74, 48
4, 62649, Note_on_c, 2, 65, 0
4, 62649, Note_on_c, 2, 77, 0
4, 62760, Note_on_c, 2, 58, 48
4, 62760, Note_on_c, 2, 70, 48
4, 62769, Note_on_c, 2, 62, 0
4, 62769, Note_on_c, 2, 74, 0
4, 62880, Note_on_c, 2, 68, 48
4, 62880, Note_on_c, 2, 77, 48
4, 62889, Note_on_c, 2, 58, 0
4, 62889, Note_on_c, 2, 70, 0
4, 62999, Note_on_c, 2, 68, 0
4, 62999, Note_on_c, 2, 77, 0
4, 63000, Note_on_c, 2, 67, 48
4, 63000, Note_on_c, 2, 75, 48
4, 63059, Note_on_c, 2, 75, 0
4, 63059, Note_on_c, 2, 67, 0
4, 63120, Note_on_c, 2, 75, 96
4, 63120, Note_on_c, 2, 66, 96
4, 63359, Note_on_c, 2, 66, 0
4, 63359, Note_on_c, 2, 75, 0
4, 63360, Note_on_c, 2, 75, 96
4, 63360, Note_on_c, 2, 66, 96
4, 63599, Note_on_c, 2, 66, 0
4, 63599, Note_on_c, 2, 75, 0
4, 63600, Note_on_c, 2, 75, 96
4, 63600, Note_on_c, 2, 66, 96
4, 63719, Note_on_c, 2, 66, 0
4, 63719, Note_on_c, 2, 75, 0
4, 63720, Note_on_c, 2, 65, 96
4, 63720, Note_on_c, 2, 74, 96
4, 63779, Note_on_c, 2, 74, 0
4, 63779, Note_on_c, 2, 65, 0
4, 63840, Note_on_c, 2, 70, 48
4, 63840, Note_on_c, 2, 82, 48
4, 63960, Note_on_c, 2, 65, 48
4, 63960, Note_on_c, 2, 77, 48
4, 63969, Note_on_c, 2, 82, 0
4, 63969, Note_on_c, 2, 70, 0
4, 64080, Note_on_c, 2, 74, 48
4, 64080, Note_on_c, 2, 62, 48
4, 64089, Note_on_c, 2, 65, 0
4, 64089, Note_on_c, 2, 77, 0
4, 64200, Note_on_c, 2, 58, 48
4, 64200, Note_on_c, 2, 70, 48
4, 64209, Note_on_c, 2, 74, 0
4, 64209, Note_on_c, 2, 62, 0
4, 64319, Note_on_c, 2, 58, 0
4, 64319, Note_on_c, 2, 70, 0
4, 64320, Note_on_c, 2, 70, 96
4, 64320, Note_on_c, 2, 65, 96
4, 64559, Note_on_c, 2, 65, 0
4, 64559, Note_on_c, 2, 70, 0
4, 64560, Note_on_c, 2, 65, 96
4, 64560, Note_on_c, 2, 74, 96
4, 64799, Note_on_c, 2, 74, 0
4, 64799, Note_on_c, 2, 65, 0
4, 64800, Note_on_c, 2, 74, 96
4, 64800, Note_on_c, 2, 65, 96
4, 65039, Note_on_c, 2, 65, 0
4, 65039, Note_on_c, 2, 74, 0
4, 65040, Note_on_c, 2, 74, 96
4, 65040, Note_on_c, 2, 65, 96
4, 65279, Note_on_c, 2, 65, 0
4, 65279, Note_on_c, 2, 74, 0
4, 65280, Note_on_c, 2, 67, 96
4, 65280, Note_on_c, 2, 75, 96
4, 65519, Note_on_c, 2, 75, 0
4, 65519, Note_on_c, 2, 67, 0
4, 65520, Note_on_c, 2, 75, 96
4, 65520, Note_on_c, 2, 67, 96
4, 65759, Note_on_c, 2, 67, 0
4, 65759, Note_on_c, 2, 75, 0
4, 65760, Note_on_c, 2, 67, 96
4, 65760, Note_on_c, 2, 75, 96
4, 65999, Note_on_c, 2, 75, 0
4, 65999, Note_on_c, 2, 67, 0
4, 66000, Note_on_c, 2, 74, 90
4, 66000, Note_on_c, 2, 65, 90
4, 66059, Note_on_c, 2, 65, 0
4, 66059, Note_on_c, 2, 74, 0
4, 66120, Note_on_c, 2, 65, 96
4, 66120, Note_on_c, 2, 74, 96
4, 66240, Note_on_c, 2, 70, 90
4, 66249, Note_on_c, 2, 65, 0
4, 66359, Note_on_c, 2, 70, 0
4, 66359, Note_on_c, 2, 74, 0
4, 66360, Note_on_c, 2, 75, 90
4, 66360, Note_on_c, 2, 70, 90
4, 66419, Note_on_c, 2, 70, 0
4, 66419, Note_on_c, 2, 75, 0
4, 66480, Note_on_c, 2, 70, 96
4, 66480, Note_on_c, 2, 75, 96
4, 66600, Note_on_c, 2, 74, 96
4, 66609, Note_on_c, 2, 75, 0
4, 66719, Note_on_c, 2, 74, 0
4, 66719, Note_on_c, 2, 70, 0
4, 66720, Note_on_c, 2, 58, 96
4, 66749, Note_on_c, 2, 58, 0
4, 66780, Note_on_c, 2, 60, 98
4, 66809, Note_on_c, 2, 60, 0
4, 66840, Note_on_c, 2, 62, 101
4, 66869, Note_on_c, 2, 62, 0
4, 66900, Note_on_c, 2, 63, 104
4, 66929, Note_on_c, 2, 63, 0
4, 66960, Note_on_c, 2, 65, 106
4, 66989, Note_on_c, 2, 65, 0
4, 67020, Note_on_c, 2, 67, 109
4, 67049, Note_on_c, 2, 67, 0
4, 67080, Note_on_c, 2, 68, 112
4, 67109, Note_on_c, 2, 68, 0
4, 67140, Note_on_c, 2, 70, 115
4, 67169, Note_on_c, 2, 70, 0
4, 67200, Note_on_c, 2, 72, 118
4, 67229, Note_on_c, 2, 72, 0
4, 67260, Note_on_c, 2, 74, 121
4, 67289, Note_on_c, 2, 74, 0
4, 67320, Note_on_c, 2, 75, 127
4, 67560, Note_on_c, 2, 79, 127
4, 67569, Note_on_c, 2, 75, 0
4, 67680, Note_on_c, 2, 75, 127
4, 67689, Note_on_c, 2, 79, 0
4, 67920, Note_on_c, 2, 70, 127
4, 67929, Note_on_c, 2, 75, 0
4, 68040, Note_on_c, 2, 75, 127
4, 68049, Note_on_c, 2, 70, 0
4, 68160, Note_on_c, 2, 79, 127
4, 68169, Note_on_c, 2, 75, 0
4, 68280, Note_on_c, 2, 82, 127
4, 68289, Note_on_c, 2, 79, 0
4, 68400, Note_on_c, 2, 75, 127
4, 68409, Note_on_c, 2, 82, 0
4, 68639, Note_on_c, 2, 75, 0
4, 68640, Note_on_c, 2, 79, 127
4, 68640, Note_on_c, 2, 75, 127
4, 68879, Note_on_c, 2, 75, 0
4, 68879, Note_on_c, 2, 79, 0
4, 68880, Note_on_c, 2, 75, 127
4, 68880, Note_on_c, 2, 79, 127
4, 68999, Note_on_c, 2, 79, 0
4, 68999, Note_on_c, 2, 75, 0
4, 69000, Note_on_c, 2, 79, 127
4, 69000, Note_on_c, 2, 75, 127
4, 69119, Note_on_c, 2, 75, 0
4, 69119, Note_on_c, 2, 79, 0
4, 69120, Note_on_c, 2, 75, 127
4, 69120, Note_on_c, 2, 79, 127
4, 69359, Note_on_c, 2, 75, 0
4, 69360, Note_on_c, 2, 73, 127
4, 69479, Note_on_c, 2, 73, 0
4, 69479, Note_on_c, 2, 79, 0
4, 69480, Note_on_c, 2, 80, 127
4, 69480, Note_on_c, 2, 72, 127
4, 69600, Note_on_c, 2, 75, 127
4, 69609, Note_on_c, 2, 80, 0
4, 69719, Note_on_c, 2, 75, 0
4, 69720, Note_on_c, 2, 75, 127
4, 69839, Note_on_c, 2, 75, 0
4, 69840, Note_on_c, 2, 76, 127
4, 69900, Note_on_c, 2, 70, 127
4, 69909, Note_on_c, 2, 72, 0
4, 69960, Note_on_c, 2, 69, 127
4, 69969, Note_on_c, 2, 70, 0
4, 70020, Note_on_c, 2, 70, 127
4, 70029, Note_on_c, 2, 69, 0
4, 70080, Note_on_c, 2, 72, 127
4, 70089, Note_on_c, 2, 70, 0
4, 70140, Note_on_c, 2, 70, 127
4, 70149, Note_on_c, 2, 72, 0
4, 70199, Note_on_c, 2, 76, 0
4, 70200, Note_on_c, 2, 69, 127
4, 70209, Note_on_c, 2, 70, 0
4, 70319, Note_on_c, 2, 69, 0
4, 70680, Note_on_c, 2, 77, 48
4, 70860, Note_on_c, 2, 75, 48
4, 70869, Note_on_c, 2, 77, 0
4, 70920, Note_on_c, 2, 72, 48
4, 70929, Note_on_c, 2, 75, 0
4, 71039, Note_on_c, 2, 72, 0
4, 72120, Note_on_c, 2, 77, 48
4, 72300, Note_on_c, 2, 74, 48
4, 72309, Note_on_c, 2, 77, 0
4, 72360, Note_on_c, 2, 70, 48
4, 72369, Note_on_c, 2, 74, 0
4, 72479, Note_on_c, 2, 70, 0
4, 73560, Note_on_c, 2, 78, 64
4, 73740, Note_on_c, 2, 77, 56
4, 73749, Note_on_c, 2, 78, 0
4, 73800, Note_on_c, 2, 75, 56
4, 73809, Note_on_c, 2, 77, 0
4, 73919, Note_on_c, 2, 75, 0
4, 73920, Note_on_c, 2, 67, 127
4, 73920, Note_on_c, 2, 79, 127
4, 74099, Note_on_c, 2, 79, 0
4, 74099, Note_on_c, 2, 67, 0
4, 74100, Note_on_c, 2, 77, 127
4, 74100, Note_on_c, 2, 65, 127
4, 74159, Note_on_c, 2, 65, 0
4, 74159, Note_on_c, 2, 77, 0
4, 74160, Note_on_c, 2, 63, 127
4, 74160, Note_on_c, 2, 75, 127
4, 74219, Note_on_c, 2, 75, 0
4, 74219, Note_on_c, 2, 63, 0
4, 74280, Note_on_c, 2, 74, 127
4, 74280, Note_on_c, 2, 62, 127
4, 74339, Note_on_c, 2, 62, 0
4, 74339, Note_on_c, 2, 74, 0
4, 74400, Note_on_c, 2, 72, 127
4, 74400, Note_on_c, 2, 60, 127
4, 74459, Note_on_c, 2, 60, 0
4, 74459, Note_on_c, 2, 72, 0
4, 74520, Note_on_c, 2, 62, 48
4, 74520, Note_on_c, 2, 58, 48
4, 74760, Note_on_c, 2, 60, 60
4, 74760, Note_on_c, 2, 63, 60
4, 74769, Note_on_c, 2, 58, 0
4, 74769, Note_on_c, 2, 62, 0
4, 74820, Note_on_c, 2, 65, 62
4, 74820, Note_on_c, 2, 62, 62
4, 74829, Note_on_c, 2, 60, 0
4, 74829, Note_on_c, 2, 63, 0
4, 74880, Note_on_c, 2, 63, 64
4, 74880, Note_on_c, 2, 67, 64
4, 74889, Note_on_c, 2, 65, 0
4, 74889, Note_on_c, 2, 62, 0
4, 75000, Note_on_c, 2, 69, 56
4, 75000, Note_on_c, 2, 65, 56
4, 75009, Note_on_c, 2, 63, 0
4, 75009, Note_on_c, 2, 67, 0
4, 75120, Note_on_c, 2, 67, 52
4, 75120, Note_on_c, 2, 70, 52
4, 75129, Note_on_c, 2, 69, 0
4, 75129, Note_on_c, 2, 65, 0
4, 75239, Note_on_c, 2, 67, 0
4, 75239, Note_on_c, 2, 70, 0
4, 75240, Note_on_c, 2, 65, 48
4, 75240, Note_on_c, 2, 70, 48
4, 75419, Note_on_c, 2, 70, 0
4, 75419, Note_on_c, 2, 65, 0
4, 75420, Note_on_c, 2, 53, 48
4, 75420, Note_on_c, 2, 58, 48
4, 75480, Note_on_c, 2, 60, 48
4, 75480, Note_on_c, 2, 57, 48
4, 75489, Note_on_c, 2, 58, 0
4, 75489, Note_on_c, 2, 53, 0
4, 75540, Note_on_c, 2, 58, 48
4, 75540, Note_on_c, 2, 62, 48
4, 75549, Note_on_c, 2, 60, 0
4, 75549, Note_on_c, 2, 57, 0
4, 75599, Note_on_c, 2, 58, 0
4, 75599, Note_on_c, 2, 62, 0
4, 75600, Note_on_c, 2, 63, 48
4, 75600, Note_on_c, 2, 60, 48
4, 75689, Note_on_c, 2, 60, 0
4, 75689, Note_on_c, 2, 63, 0
4, 75720, Note_on_c, 2, 60, 48
4, 75720, Note_on_c, 2, 63, 48
4, 75809, Note_on_c, 2, 63, 0
4, 75809, Note_on_c, 2, 60, 0
4, 75840, Note_on_c, 2, 63, 48
4, 75840, Note_on_c, 2, 60, 48
4, 75929, Note_on_c, 2, 60, 0
4, 75929, Note_on_c, 2, 63, 0
4, 75960, Note_on_c, 2, 62, 48
4, 75960, Note_on_c, 2, 58, 48
4, 76079, Note_on_c, 2, 58, 0
4, 76079, Note_on_c, 2, 62, 0
4, 77400, Note_on_c, 2, 75, 96
4, 77400, Note_on_c, 2, 69, 96
4, 77459, Note_on_c, 2, 69, 0
4, 77459, Note_on_c, 2, 75, 0
4, 77520, Note_on_c, 2, 75, 96
4, 77520, Note_on_c, 2, 69, 96
4, 77579, Note_on_c, 2, 69, 0
4, 77579, Note_on_c, 2, 75, 0
4, 78060, Note_on_c, 2, 69, 96
4, 78060, Note_on_c, 2, 72, 96
4, 78089, Note_on_c, 2, 72, 0
4, 78089, Note_on_c, 2, 69, 0
4, 78120, Note_on_c, 2, 70, 96
4, 78179, Note_on_c, 2, 70, 0
4, 78240, Note_on_c, 2, 70, 96
4, 78299, Note_on_c, 2, 70, 0
4, 78780, Note_on_c, 2, 74, 96
4, 78780, Note_on_c, 2, 70, 96
4, 78809, Note_on_c, 2, 70, 0
4, 78809, Note_on_c, 2, 74, 0
4, 78840, Note_on_c, 2, 71, 96
4, 78840, Note_on_c, 2, 74, 96
4, 78899, Note_on_c, 2, 74, 0
4, 78899, Note_on_c, 2, 71, 0
4, 78960, Note_on_c, 2, 74, 96
4, 78960, Note_on_c, 2, 71, 96
4, 79019, Note_on_c, 2, 71, 0
4, 79019, Note_on_c, 2, 74, 0
4, 79680, Note_on_c, 2, 72, 96
4, 79800, Note_on_c, 2, 74, 96
4, 79919, Note_on_c, 2, 72, 0
4, 79920, Note_on_c, 2, 70, 96
4, 79979, Note_on_c, 2, 74, 0
4, 79980, Note_on_c, 2, 75, 96
4, 80039, Note_on_c, 2, 75, 0
4, 80039, Note_on_c, 2, 70, 0
4, 80040, Note_on_c, 2, 75, 96
4, 80160, Note_on_c, 2, 77, 96
4, 80279, Note_on_c, 2, 77, 0
4, 80279, Note_on_c, 2, 75, 0
4, 80280, Note_on_c, 2, 74, 96
4, 80280, Note_on_c, 2, 77, 96
4, 80399, Note_on_c, 2, 77, 0
4, 80399, Note_on_c, 2, 74, 0
4, 80880, Note_on_c, 2, 70, 96
4, 80880, Note_on_c, 2, 78, 96
4, 81000, Note_on_c, 2, 79, 96
4, 81009, Note_on_c, 2, 78, 0
4, 81060, Note_on_c, 2, 78, 96
4, 81069, Note_on_c, 2, 79, 0
4, 81120, Note_on_c, 2, 79, 96
4, 81129, Note_on_c, 2, 78, 0
4, 81180, Note_on_c, 2, 78, 96
4, 81189, Note_on_c, 2, 79, 0
4, 81240, Note_on_c, 2, 71, 96
4, 81240, Note_on_c, 2, 79, 96
4, 81249, Note_on_c, 2, 78, 0
4, 81249, Note_on_c, 2, 70, 0
4, 81300, Note_on_c, 2, 74, 96
4, 81309, Note_on_c, 2, 79, 0
4, 81359, Note_on_c, 2, 74, 0
4, 81359, Note_on_c, 2, 71, 0
4, 81360, Note_on_c, 2, 72, 96
4, 81360, Note_on_c, 2, 75, 96
4, 81419, Note_on_c, 2, 72, 0
4, 81420, Note_on_c, 2, 67, 96
4, 81420, Note_on_c, 2, 74, 96
4, 81429, Note_on_c, 2, 75, 0
4, 81480, Note_on_c, 2, 77, 96
4, 81489, Note_on_c, 2, 74, 0
4, 81539, Note_on_c, 2, 67, 0
4, 81540, Note_on_c, 2, 67, 96
4, 81540, Note_on_c, 2, 75, 96
4, 81549, Note_on_c, 2, 77, 0
4, 81600, Note_on_c, 2, 65, 96
4, 81600, Note_on_c, 2, 74, 96
4, 81609, Note_on_c, 2, 75, 0
4, 81609, Note_on_c, 2, 67, 0
4, 81660, Note_on_c, 2, 63, 96
4, 81660, Note_on_c, 2, 72, 96
4, 81669, Note_on_c, 2, 65, 0
4, 81669, Note_on_c, 2, 74, 0
4, 81719, Note_on_c, 2, 72, 0
4, 81720, Note_on_c, 2, 62, 96
4, 81720, Note_on_c, 2, 70, 96
4, 81729, Note_on_c, 2, 63, 0
4, 81839, Note_on_c, 2, 70, 0
4, 81839, Note_on_c, 2, 62, 0
4, 84000, Note_on_c, 2, 74, 48
4, 84000, Note_on_c, 2, 65, 48
4, 84089, Note_on_c, 2, 65, 0
4, 84089, Note_on_c, 2, 74, 0
4, 84120, Note_on_c, 2, 65, 48
4, 84120, Note_on_c, 2, 74, 48
4, 84209, Note_on_c, 2, 74, 0
4, 84209, Note_on_c, 2, 65, 0
4, 84240, Note_on_c, 2, 74, 56
4, 84240, Note_on_c, 2, 65, 56
4, 84329, Note_on_c, 2, 65, 0
4, 84329, Note_on_c, 2, 74, 0
4, 84360, Note_on_c, 2, 65, 64
4, 84360, Note_on_c, 2, 74, 64
4, 84449, Note_on_c, 2, 74, 0
4, 84449, Note_on_c, 2, 65, 0
4, 84480, Note_on_c, 2, 65, 72
4, 84480, Note_on_c, 2, 74, 72
4, 84569, Note_on_c, 2, 74, 0
4, 84569, Note_on_c, 2, 65, 0
4, 84600, Note_on_c, 2, 74, 80
4, 84600, Note_on_c, 2, 65, 80
4, 84689, Note_on_c, 2, 65, 0
4, 84689, Note_on_c, 2, 74, 0
4, 84720, Note_on_c, 2, 65, 88
4, 84720, Note_on_c, 2, 74, 88
4, 84809, Note_on_c, 2, 74, 0
4, 84809, Note_on_c, 2, 65, 0
4, 84840, Note_on_c, 2, 74, 88
4, 84840, Note_on_c, 2, 66, 88
4, 84929, Note_on_c, 2, 66, 0
4, 84929, Note_on_c, 2, 74, 0
4, 84960, Note_on_c, 2, 67, 96
4, 84960, Note_on_c, 2, 74, 96
4, 85200, Note_on_c, 2, 72, 64
4, 85209, Note_on_c, 2, 74, 0
4, 85319, Note_on_c, 2, 72, 0
4, 85319, Note_on_c, 2, 67, 0
4, 86880, Note_on_c, 2, 73, 48
4, 86880, Note_on_c, 2, 65, 48
4, 86969, Note_on_c, 2, 65, 0
4, 86969, Note_on_c, 2, 73, 0
4, 87000, Note_on_c, 2, 65, 48
4, 87000, Note_on_c, 2, 73, 48
4, 87089, Note_on_c, 2, 73, 0
4, 87089, Note_on_c, 2, 65, 0
4, 87120, Note_on_c, 2, 73, 56
4, 87120, Note_on_c, 2, 65, 56
4, 87209, Note_on_c, 2, 65, 0
4, 87209, Note_on_c, 2, 73, 0
4, 87240, Note_on_c, 2, 66, 64
4, 87240, Note_on_c, 2, 73, 64
4, 87329, Note_on_c, 2, 73, 0
4, 87329, Note_on_c, 2, 66, 0
4, 87360, Note_on_c, 2, 73, 72
4, 87360, Note_on_c, 2, 66, 72
4, 87449, Note_on_c, 2, 66, 0
4, 87449, Note_on_c, 2, 73, 0
4, 87480, Note_on_c, 2, 73, 80
4, 87480, Note_on_c, 2, 66, 80
4, 87569, Note_on_c, 2, 66, 0
4, 87569, Note_on_c, 2, 73, 0
4, 87600, Note_on_c, 2, 66, 88
4, 87600, Note_on_c, 2, 73, 88
4, 87689, Note_on_c, 2, 73, 0
4, 87689, Note_on_c, 2, 66, 0
4, 87720, Note_on_c, 2, 73, 88
4, 87720, Note_on_c, 2, 66, 88
4, 87809, Note_on_c, 2, 66, 0
4, 87809, Note_on_c, 2, 73, 0
4, 87840, Note_on_c, 2, 66, 96
4, 87840, Note_on_c, 2, 73, 96
4, 88080, Note_on_c, 2, 72, 64
4, 88089, Note_on_c, 2, 73, 0
4, 88199, Note_on_c, 2, 72, 0
4, 88199, Note_on_c, 2, 66, 0
4, 89400, Note_on_c, 2, 72, 56
4, 89400, Note_on_c, 2, 70, 56
4, 89489, Note_on_c, 2, 70, 0
4, 89489, Note_on_c, 2, 72, 0
4, 89520, Note_on_c, 2, 72, 56
4, 89520, Note_on_c, 2, 70, 56
4, 89609, Note_on_c, 2, 70, 0
4, 89609, Note_on_c, 2, 72, 0
4, 89640, Note_on_c, 2, 72, 48
4, 89640, Note_on_c, 2, 69, 48
4, 89759, Note_on_c, 2, 69, 0
4, 89759, Note_on_c, 2, 72, 0
4, 92760, Note_on_c, 2, 63, 75
4, 92760, Note_on_c, 2, 60, 75
4, 92789, Note_on_c, 2, 60, 0
4, 92789, Note_on_c, 2, 63, 0
4, 92820, Note_on_c, 2, 65, 78
4, 92820, Note_on_c, 2, 62, 78
4, 92849, Note_on_c, 2, 62, 0
4, 92849, Note_on_c, 2, 65, 0
4, 92880, Note_on_c, 2, 67, 80
4, 92880, Note_on_c, 2, 63, 80
4, 92909, Note_on_c, 2, 63, 0
4, 92909, Note_on_c, 2, 67, 0
4, 92940, Note_on_c, 2, 69, 83
4, 92940, Note_on_c, 2, 65, 83
4, 92969, Note_on_c, 2, 65, 0
4, 92969, Note_on_c, 2, 69, 0
4, 93000, Note_on_c, 2, 70, 86
4, 93000, Note_on_c, 2, 67, 86
4, 93029, Note_on_c, 2, 67, 0
4, 93029, Note_on_c, 2, 70, 0
4, 93060, Note_on_c, 2, 72, 89
4, 93060, Note_on_c, 2, 69, 89
4, 93089, Note_on_c, 2, 69, 0
4, 93089, Note_on_c, 2, 72, 0
4, 93120, Note_on_c, 2, 74, 92
4, 93120, Note_on_c, 2, 70, 92
4, 93149, Note_on_c, 2, 70, 0
4, 93149, Note_on_c, 2, 74, 0
4, 93180, Note_on_c, 2, 75, 94
4, 93180, Note_on_c, 2, 72, 94
4, 93209, Note_on_c, 2, 72, 0
4, 93209, Note_on_c, 2, 75, 0
4, 93240, Note_on_c, 2, 77, 96
4, 93240, Note_on_c, 2, 74, 96
4, 93359, Note_on_c, 2, 74, 0
4, 93359, Note_on_c, 2, 77, 0
4, 93360, Note_on_c, 2, 70, 112
4, 93360, Note_on_c, 2, 65, 112
4, 93599, Note_on_c, 2, 65, 0
4, 93599, Note_on_c, 2, 70, 0
4, 93720, Note_on_c, 2, 65, 112
4, 93720, Note_on_c, 2, 70, 112
4, 93959, Note_on_c, 2, 70, 0
4, 93959, Note_on_c, 2, 65, 0
4, 94080, Note_on_c, 2, 72, 112
4, 94080, Note_on_c, 2, 65, 112
4, 94319, Note_on_c, 2, 65, 0
4, 94319, Note_on_c, 2, 72, 0
4, 94440, Note_on_c, 2, 65, 112
4, 94440, Note_on_c, 2, 72, 112
4, 94559, Note_on_c, 2, 72, 0
4, 94559, Note_on_c, 2, 65, 0
4, 94560, Note_on_c, 2, 72, 96
4, 94560, Note_on_c, 2, 65, 96
4, 94679, Note_on_c, 2, 65, 0
4, 94679, Note_on_c, 2, 72, 0
4, 94680, Note_on_c, 2, 65, 127
4, 94680, Note_on_c, 2, 74, 127
4, 94739, Note_on_c, 2, 74, 0
4, 94739, Note_on_c, 2, 65, 0
4, 94800, Note_on_c, 2, 77, 127
4, 94979, Note_on_c, 2, 77, 0
4, 94980, Note_on_c, 2, 74, 127
4, 95039, Note_on_c, 2, 74, 0
4, 95040, Note_on_c, 2, 70, 127
4, 95099, Note_on_c, 2, 70, 0
4, 95160, Note_on_c, 2, 74, 127
4, 95339, Note_on_c, 2, 74, 0
4, 95340, Note_on_c, 2, 65, 127
4, 95399, Note_on_c, 2, 65, 0
4, 95400, Note_on_c, 2, 72, 127
4, 95459, Note_on_c, 2, 72, 0
4, 95520, Note_on_c, 2, 75, 127
4, 95699, Note_on_c, 2, 75, 0
4, 95700, Note_on_c, 2, 65, 127
4, 95759, Note_on_c, 2, 65, 0
4, 95760, Note_on_c, 2, 69, 127
4, 95819, Note_on_c, 2, 69, 0
4, 95880, Note_on_c, 2, 72, 127
4, 96059, Note_on_c, 2, 72, 0
4, 96060, Note_on_c, 2, 65, 127
4, 96119, Note_on_c, 2, 65, 0
4, 96120, Note_on_c, 2, 65, 127
4, 96120, Note_on_c, 2, 70, 127
4, 96420, Note_on_c, 2, 64, 127
4, 96429, Note_on_c, 2, 65, 0
4, 96480, Note_on_c, 2, 65, 127
4, 96489, Note_on_c, 2, 64, 0
4, 96539, Note_on_c, 2, 65, 0
4, 96539, Note_on_c, 2, 70, 0
4, 98100, Note_on_c, 2, 67, 127
4, 98129, Note_on_c, 2, 67, 0
4, 98160, Note_on_c, 2, 67, 127
4, 98189, Note_on_c, 2, 67, 0
4, 98220, Note_on_c, 2, 67, 127
4, 98249, Note_on_c, 2, 67, 0
4, 98280, Note_on_c, 2, 69, 127
4, 98280, Note_on_c, 2, 66, 127
4, 98339, Note_on_c, 2, 66, 0
4, 98339, Note_on_c, 2, 69, 0
4, 98400, Note_on_c, 2, 72, 127
4, 98400, Note_on_c, 2, 69, 127
4, 98459, Note_on_c, 2, 69, 0
4, 98459, Note_on_c, 2, 72, 0
4, 98520, Note_on_c, 2, 67, 127
4, 98520, Note_on_c, 2, 70, 127
4, 98579, Note_on_c, 2, 70, 0
4, 98579, Note_on_c, 2, 67, 0
4, 98760, Note_on_c, 2, 68, 127
4, 98760, Note_on_c, 2, 65, 127
4, 98819, Note_on_c, 2, 65, 0
4, 98819, Note_on_c, 2, 68, 0
4, 98880, Note_on_c, 2, 67, 127
4, 98880, Note_on_c, 2, 63, 127
4, 98939, Note_on_c, 2, 63, 0
4, 98939, Note_on_c, 2, 67, 0
4, 99120, Note_on_c, 2, 70, 127
4, 99120, Note_on_c, 2, 67, 127
4, 99179, Note_on_c, 2, 67, 0
4, 99179, Note_on_c, 2, 70, 0
4, 99240, Note_on_c, 2, 65, 127
4, 99240, Note_on_c, 2, 69, 127
4, 99299, Note_on_c, 2, 69, 0
4, 99299, Note_on_c, 2, 65, 0
4, 99480, Note_on_c, 2, 69, 127
4, 99480, Note_on_c, 2, 72, 127
4, 99539, Note_on_c, 2, 72, 0
4, 99539, Note_on_c, 2, 69, 0
4, 99600, Note_on_c, 2, 67, 127
4, 99600, Note_on_c, 2, 70, 127
4, 99659, Note_on_c, 2, 70, 0
4, 99659, Note_on_c, 2, 67, 0
4, 99840, Note_on_c, 2, 65, 127
4, 99840, Note_on_c, 2, 68, 127
4, 99899, Note_on_c, 2, 68, 0
4, 99899, Note_on_c, 2, 65, 0
4, 99960, Note_on_c, 2, 67, 127
4, 99960, Note_on_c, 2, 63, 127
4, 100019, Note_on_c, 2, 63, 0
4, 100019, Note_on_c, 2, 67, 0
4, 100200, Note_on_c, 2, 70, 127
4, 100200, Note_on_c, 2, 67, 127
4, 100259, Note_on_c, 2, 67, 0
4, 100259, Note_on_c, 2, 70, 0
4, 100440, Note_on_c, 2, 67, 127
4, 100440, Note_on_c, 2, 70, 127
4, 100499, Note_on_c, 2, 70, 0
4, 100499, Note_on_c, 2, 67, 0
4, 100680, Note_on_c, 2, 70, 127
4, 100680, Note_on_c, 2, 67, 127
4, 100739, Note_on_c, 2, 67, 0
4, 100739, Note_on_c, 2, 70, 0
4, 100920, Note_on_c, 2, 67, 127
4, 100920, Note_on_c, 2, 70, 127
4, 100979, Note_on_c, 2, 70, 0
4, 100979, Note_on_c, 2, 67, 0
4, 101160, Note_on_c, 2, 70, 127
4, 101160, Note_on_c, 2, 67, 127
4, 101219, Note_on_c, 2, 67, 0
4, 101219, Note_on_c, 2, 70, 0
4, 101400, Note_on_c, 2, 67, 127
4, 101400, Note_on_c, 2, 70, 127
4, 101459, Note_on_c, 2, 70, 0
4, 101459, Note_on_c, 2, 67, 0
4, 103080, Note_on_c, 2, 74, 48
4, 103080, Note_on_c, 2, 70, 48
4, 103139, Note_on_c, 2, 70, 0
4, 103139, Note_on_c, 2, 74, 0
4, 103320, Note_on_c, 2, 72, 48
4, 103320, Note_on_c, 2, 68, 48
4, 103379, Note_on_c, 2, 68, 0
4, 103379, Note_on_c, 2, 72, 0
4, 103560, Note_on_c, 2, 68, 48
4, 103560, Note_on_c, 2, 72, 48
4, 103619, Note_on_c, 2, 72, 0
4, 103619, Note_on_c, 2, 68, 0
4, 103800, Note_on_c, 2, 75, 48
4, 103800, Note_on_c, 2, 72, 48
4, 103859, Note_on_c, 2, 72, 0
4, 103859, Note_on_c, 2, 75, 0
4, 104040, Note_on_c, 2, 74, 48
4, 104040, Note_on_c, 2, 70, 48
4, 104099, Note_on_c, 2, 70, 0
4, 104099, Note_on_c, 2, 74, 0
4, 104280, Note_on_c, 2, 70, 48
4, 104280, Note_on_c, 2, 74, 48
4, 104339, Note_on_c, 2, 74, 0
4, 104339, Note_on_c, 2, 70, 0
4, 104400, Note_on_c, 2, 67, 64
4, 104760, Note_on_c, 2, 63, 72
4, 104939, Note_on_c, 2, 63, 0
4, 104939, Note_on_c, 2, 67, 0
4, 104940, Note_on_c, 2, 72, 81
4, 104940, Note_on_c, 2, 67, 81
4, 105000, Note_on_c, 2, 65, 83
4, 105000, Note_on_c, 2, 71, 83
4, 105009, Note_on_c, 2, 67, 0
4, 105009, Note_on_c, 2, 72, 0
4, 105060, Note_on_c, 2, 63, 86
4, 105060, Note_on_c, 2, 72, 86
4, 105069, Note_on_c, 2, 65, 0
4, 105069, Note_on_c, 2, 71, 0
4, 105119, Note_on_c, 2, 63, 0
4, 105119, Note_on_c, 2, 72, 0
4, 105120, Note_on_c, 2, 70, 88
4, 105120, Note_on_c, 2, 62, 88
4, 105179, Note_on_c, 2, 62, 0
4, 105179, Note_on_c, 2, 70, 0
4, 105180, Note_on_c, 2, 74, 93
4, 105180, Note_on_c, 2, 70, 93
4, 105239, Note_on_c, 2, 70, 0
4, 105239, Note_on_c, 2, 74, 0
4, 105240, Note_on_c, 2, 77, 97
4, 105240, Note_on_c, 2, 74, 97
4, 105299, Note_on_c, 2, 74, 0
4, 105299, Note_on_c, 2, 77, 0
4, 105300, Note_on_c, 2, 70, 101
4, 105300, Note_on_c, 2, 74, 101
4, 105359, Note_on_c, 2, 74, 0
4, 105359, Note_on_c, 2, 70, 0
4, 105360, Note_on_c, 2, 74, 105
4, 105360, Note_on_c, 2, 70, 105
4, 105419, Note_on_c, 2, 70, 0
4, 105419, Note_on_c, 2, 74, 0
4, 105420, Note_on_c, 2, 70, 109
4, 105420, Note_on_c, 2, 74, 109
4, 105479, Note_on_c, 2, 74, 0
4, 105479, Note_on_c, 2, 70, 0
4, 105480, Note_on_c, 2, 77, 127
4, 105480, Note_on_c, 2, 71, 127
4, 105839, Note_on_c, 2, 71, 0
4, 105839, Note_on_c, 2, 77, 0
4, 105840, Note_on_c, 2, 70, 96
4, 105840, Note_on_c, 2, 74, 96
4, 105899, Note_on_c, 2, 74, 0
4, 105899, Note_on_c, 2, 70, 0
4, 106200, Note_on_c, 2, 70, 96
4, 106259, Note_on_c, 2, 70, 0
4, 106560, Note_on_c, 2, 70, 96
4, 106619, Note_on_c, 2, 70, 0
4, 106920, Note_on_c, 2, 66, 96
4, 106920, Note_on_c, 2, 75, 96
4, 106979, Note_on_c, 2, 75, 0
4, 106979, Note_on_c, 2, 66, 0
4, 107040, Note_on_c, 2, 75, 96
4, 107040, Note_on_c, 2, 66, 96
4, 107099, Note_on_c, 2, 66, 0
4, 107099, Note_on_c, 2, 75, 0
4, 107160, Note_on_c, 2, 66, 96
4, 107160, Note_on_c, 2, 75, 96
4, 107219, Note_on_c, 2, 75, 0
4, 107219, Note_on_c, 2, 66, 0
4, 107280, Note_on_c, 2, 65, 96
4, 107280, Note_on_c, 2, 74, 96
4, 107339, Note_on_c, 2, 74, 0
4, 107339, Note_on_c, 2, 65, 0
4, 120840, Note_on_c, 2, 77, 110
4, 120840, Note_on_c, 2, 65, 110
4, 121079, Note_on_c, 2, 65, 0
4, 121079, Note_on_c, 2, 77, 0
4, 121080, Note_on_c, 2, 69, 127
4, 121080, Note_on_c, 2, 65, 127
4, 121139, Note_on_c, 2, 65, 0
4, 121139, Note_on_c, 2, 69, 0
4, 121200, Note_on_c, 2, 65, 127
4, 121200, Note_on_c, 2, 69, 127
4, 121259, Note_on_c, 2, 69, 0
4, 121259, Note_on_c, 2, 65, 0
4, 121320, Note_on_c, 2, 69, 127
4, 121320, Note_on_c, 2, 65, 127
4, 121379, Note_on_c, 2, 65, 0
4, 121379, Note_on_c, 2, 69, 0
4, 121440, Note_on_c, 2, 65, 127
4, 121440, Note_on_c, 2, 69, 127
4, 121499, Note_on_c, 2, 69, 0
4, 121499, Note_on_c, 2, 65, 0
4, 121560, Note_on_c, 2, 69, 127
4, 121560, Note_on_c, 2, 65, 127
4, 121619, Note_on_c, 2, 65, 0
4, 121619, Note_on_c, 2, 69, 0
4, 121680, Note_on_c, 2, 65, 127
4, 121680, Note_on_c, 2, 69, 127
4, 122399, Note_on_c, 2, 69, 0
4, 122399, Note_on_c, 2, 65, 0
4, 122400, Note_on_c, 2, 69, 127
4, 122400, Note_on_c, 2, 67, 127
4, 122459, Note_on_c, 2, 67, 0
4, 122459, Note_on_c, 2, 69, 0
4, 122520, Note_on_c, 2, 67, 127
4, 122520, Note_on_c, 2, 69, 127
4, 122579, Note_on_c, 2, 69, 0
4, 122579, Note_on_c, 2, 67, 0
4, 122640, Note_on_c, 2, 69, 127
4, 122640, Note_on_c, 2, 67, 127
4, 122699, Note_on_c, 2, 67, 0
4, 122699, Note_on_c, 2, 69, 0
4, 122760, Note_on_c, 2, 67, 127
4, 122760, Note_on_c, 2, 69, 127
4, 122819, Note_on_c, 2, 69, 0
4, 122819, Note_on_c, 2, 67, 0
4, 122880, Note_on_c, 2, 69, 127
4, 122880, Note_on_c, 2, 67, 127
4, 122939, Note_on_c, 2, 67, 0
4, 122939, Note_on_c, 2, 69, 0
4, 123000, Note_on_c, 2, 67, 127
4, 123000, Note_on_c, 2, 69, 127
4, 123059, Note_on_c, 2, 69, 0
4, 123059, Note_on_c, 2, 67, 0
4, 123120, Note_on_c, 2, 69, 127
4, 123120, Note_on_c, 2, 67, 127
4, 123719, Note_on_c, 2, 67, 0
4, 123719, Note_on_c, 2, 69, 0
4, 123720, Note_on_c, 2, 69, 127
4, 123720, Note_on_c, 2, 64, 127
4, 123839, Note_on_c, 2, 64, 0
4, 123839, Note_on_c, 2, 69, 0
4, 125280, Note_on_c, 2, 70, 127
4, 125280, Note_on_c, 2, 67, 127
4, 125339, Note_on_c, 2, 67, 0
4, 125339, Note_on_c, 2, 70, 0
4, 125400, Note_on_c, 2, 67, 127
4, 125400, Note_on_c, 2, 70, 127
4, 125459, Note_on_c, 2, 70, 0
4, 125459, Note_on_c, 2, 67, 0
4, 125520, Note_on_c, 2, 70, 127
4, 125520, Note_on_c, 2, 67, 127
4, 125579, Note_on_c, 2, 67, 0
4, 125579, Note_on_c, 2, 70, 0
4, 125640, Note_on_c, 2, 67, 127
4, 125640, Note_on_c, 2, 70, 127
4, 125699, Note_on_c, 2, 70, 0
4, 125699, Note_on_c, 2, 67, 0
4, 125760, Note_on_c, 2, 70, 127
4, 125760, Note_on_c, 2, 67, 127
4, 125819, Note_on_c, 2, 67, 0
4, 125819, Note_on_c, 2, 70, 0
4, 125880, Note_on_c, 2, 67, 127
4, 125880, Note_on_c, 2, 70, 127
4, 125939, Note_on_c, 2, 70, 0
4, 125939, Note_on_c, 2, 67, 0
4, 126000, Note_on_c, 2, 70, 127
4, 126000, Note_on_c, 2, 67, 127
4, 126719, Note_on_c, 2, 67, 0
4, 126719, Note_on_c, 2, 70, 0
4, 126720, Note_on_c, 2, 66, 127
4, 126720, Note_on_c, 2, 72, 127
4, 126779, Note_on_c, 2, 72, 0
4, 126779, Note_on_c, 2, 66, 0
4, 126840, Note_on_c, 2, 72, 127
4, 126840, Note_on_c, 2, 66, 127
4, 126899, Note_on_c, 2, 66, 0
4, 126899, Note_on_c, 2, 72, 0
4, 126960, Note_on_c, 2, 66, 127
4, 126960, Note_on_c, 2, 72, 127
4, 127019, Note_on_c, 2, 72, 0
4, 127019, Note_on_c, 2, 66, 0
4, 127080, Note_on_c, 2, 72, 127
4, 127080, Note_on_c, 2, 66, 127
4, 127139, Note_on_c, 2, 66, 0
4, 127139, Note_on_c, 2, 72, 0
4, 127200, Note_on_c, 2, 66, 127
4, 127200, Note_on_c, 2, 72, 127
4, 127259, Note_on_c, 2, 72, 0
4, 127259, Note_on_c, 2, 66, 0
4, 127320, Note_on_c, 2, 72, 127
4, 127320, Note_on_c, 2, 66, 127
4, 127379, Note_on_c, 2, 66, 0
4, 127379, Note_on_c, 2, 72, 0
4, 127440, Note_on_c, 2, 66, 127
4, 127440, Note_on_c, 2, 72, 127
4, 128039, Note_on_c, 2, 72, 0
4, 128039, Note_on_c, 2, 66, 0
4, 128040, Note_on_c, 2, 69, 127
4, 128040, Note_on_c, 2, 66, 127
4, 128159, Note_on_c, 2, 66, 0
4, 128159, Note_on_c, 2, 69, 0
4, 128160, Note_on_c, 2, 62, 48
4, 128160, Note_on_c, 2, 67, 48
4, 128279, Note_on_c, 2, 67, 0
4, 128279, Note_on_c, 2, 62, 0
4, 131580, Note_on_c, 2, 70, 96
4, 131639, Note_on_c, 2, 70, 0
4, 131640, Note_on_c, 2, 70, 96
4, 131699, Note_on_c, 2, 70, 0
4, 131940, Note_on_c, 2, 63, 96
4, 131940, Note_on_c, 2, 75, 96
4, 131999, Note_on_c, 2, 75, 0
4, 131999, Note_on_c, 2, 63, 0
4, 132000, Note_on_c, 2, 75, 96
4, 132000, Note_on_c, 2, 63, 96
4, 132059, Note_on_c, 2, 63, 0
4, 132059, Note_on_c, 2, 75, 0
4, 132180, Note_on_c, 2, 68, 96
4, 132239, Note_on_c, 2, 68, 0
4, 132240, Note_on_c, 2, 68, 96
4, 132299, Note_on_c, 2, 68, 0
4, 132300, Note_on_c, 2, 68, 96
4, 132359, Note_on_c, 2, 68, 0
4, 132360, Note_on_c, 2, 68, 96
4, 132419, Note_on_c, 2, 68, 0
4, 132420, Note_on_c, 2, 68, 96
4, 132479, Note_on_c, 2, 68, 0
4, 132480, Note_on_c, 2, 73, 127
4, 132480, Note_on_c, 2, 68, 127
4, 132839, Note_on_c, 2, 68, 0
4, 132839, Note_on_c, 2, 73, 0
4, 132840, Note_on_c, 2, 68, 127
4, 132840, Note_on_c, 2, 74, 127
4, 133199, Note_on_c, 2, 74, 0
4, 133199, Note_on_c, 2, 68, 0
4, 133200, Note_on_c, 2, 75, 127
4, 133200, Note_on_c, 2, 67, 127
4, 133319, Note_on_c, 2, 67, 0
4, 133319, Note_on_c, 2, 75, 0
4, 133320, Note_on_c, 2, 77, 48
4, 133500, Note_on_c, 2, 75, 48
4, 133509, Note_on_c, 2, 77, 0
4, 133560, Note_on_c, 2, 74, 48
4, 133569, Note_on_c, 2, 75, 0
4, 133679, Note_on_c, 2, 74, 0
4, 133680, Note_on_c, 2, 75, 48
4, 133860, Note_on_c, 2, 73, 48
4, 133869, Note_on_c, 2, 75, 0
4, 133920, Note_on_c, 2, 70, 48
4, 133929, Note_on_c, 2, 73, 0
4, 134039, Note_on_c, 2, 70, 0
4, 134040, Note_on_c, 2, 75, 48
4, 134220, Note_on_c, 2, 72, 48
4, 134229, Note_on_c, 2, 75, 0
4, 134280, Note_on_c, 2, 67, 48
4, 134289, Note_on_c, 2, 72, 0
4, 134399, Note_on_c, 2, 67, 0
4, 134760, Note_on_c, 2, 77, 48
4, 134940, Note_on_c, 2, 75, 48
4, 134949, Note_on_c, 2, 77, 0
4, 135000, Note_on_c, 2, 74, 48
4, 135009, Note_on_c, 2, 75, 0
4, 135119, Note_on_c, 2, 74, 0
4, 135120, Note_on_c, 2, 75, 48
4, 135300, Note_on_c, 2, 72, 48
4, 135309, Note_on_c, 2, 75, 0
4, 135360, Note_on_c, 2, 68, 48
4, 135369, Note_on_c, 2, 72, 0
4, 135479, Note_on_c, 2, 68, 0
4, 135480, Note_on_c, 2, 72, 48
4, 135660, Note_on_c, 2, 68, 48
4, 135669, Note_on_c, 2, 72, 0
4, 135720, Note_on_c, 2, 63, 48
4, 135729, Note_on_c, 2, 68, 0
4, 135839, Note_on_c, 2, 63, 0
4, 136080, Note_on_c, 2, 63, 96
4, 136109, Note_on_c, 2, 63, 0
4, 136110, Note_on_c, 2, 63, 48
4, 136500, Note_on_c, 2, 65, 48
4, 136529, Note_on_c, 2, 65, 0
4, 136560, Note_on_c, 2, 67, 48
4, 136589, Note_on_c, 2, 67, 0
4, 136619, Note_on_c, 2, 63, 0
4, 136620, Note_on_c, 2, 65, 48
4, 136620, Note_on_c, 2, 68, 48
4, 136649, Note_on_c, 2, 68, 0
4, 136649, Note_on_c, 2, 65, 0
4, 136680, Note_on_c, 2, 70, 48
4, 136680, Note_on_c, 2, 67, 48
4, 136709, Note_on_c, 2, 67, 0
4, 136709, Note_on_c, 2, 70, 0
4, 136740, Note_on_c, 2, 68, 48
4, 136740, Note_on_c, 2, 72, 48
4, 136769, Note_on_c, 2, 72, 0
4, 136769, Note_on_c, 2, 68, 0
4, 136800, Note_on_c, 2, 73, 48
4, 136800, Note_on_c, 2, 70, 48
4, 136919, Note_on_c, 2, 70, 0
4, 136919, Note_on_c, 2, 73, 0
4, 138480, Note_on_c, 2, 73, 96
4, 138509, Note_on_c, 2, 73, 0
4, 138510, Note_on_c, 2, 73, 48
4, 138720, Note_on_c, 2, 72, 48
4, 138729, Note_on_c, 2, 73, 0
4, 138780, Note_on_c, 2, 70, 48
4, 138789, Note_on_c, 2, 72, 0
4, 138840, Note_on_c, 2, 68, 48
4, 138849, Note_on_c, 2, 70, 0
4, 138900, Note_on_c, 2, 67, 48
4, 138909, Note_on_c, 2, 68, 0
4, 138959, Note_on_c, 2, 67, 0
4, 138960, Note_on_c, 2, 65, 48
4, 139079, Note_on_c, 2, 65, 0
4, 141960, Note_on_c, 2, 68, 70
4, 141960, Note_on_c, 2, 65, 70
4, 142019, Note_on_c, 2, 65, 0
4, 142019, Note_on_c, 2, 68, 0
4, 142080, Note_on_c, 2, 80, 75
4, 142080, Note_on_c, 2, 77, 75
4, 142320, Note_on_c, 2, 75, 85
4, 142320, Note_on_c, 2, 79, 85
4, 142329, Note_on_c, 2, 77, 0
4, 142329, Note_on_c, 2, 80, 0
4, 142439, Note_on_c, 2, 75, 0
4, 142439, Note_on_c, 2, 79, 0
4, 143040, Note_on_c, 2, 65, 115
4, 143040, Note_on_c, 2, 62, 115
4, 143099, Note_on_c, 2, 62, 0
4, 143099, Note_on_c, 2, 65, 0
4, 143160, Note_on_c, 2, 74, 120
4, 143160, Note_on_c, 2, 77, 120
4, 143399, Note_on_c, 2, 77, 0
4, 143399, Note_on_c, 2, 74, 0
4, 143400, Note_on_c, 2, 74, 127
4, 143400, Note_on_c, 2, 62, 127
4, 143999, Note_on_c, 2, 62, 0
4, 143999, Note_on_c, 2, 74, 0
4, 149880, Note_on_c, 2, 73, 127
4, 149880, Note_on_c, 2, 67, 127
4, 150599, Note_on_c, 2, 67, 0
4, 150599, Note_on_c, 2, 73, 0
4, 150600, Note_on_c, 2, 67, 127
4, 150600, Note_on_c, 2, 73, 127
4, 150839, Note_on_c, 2, 73, 0
4, 150839, Note_on_c, 2, 67, 0
4, 150840, Note_on_c, 2, 73, 127
4, 150840, Note_on_c, 2, 67, 127
4, 151079, Note_on_c, 2, 67, 0
4, 151079, Note_on_c, 2, 73, 0
4, 151080, Note_on_c, 2, 67, 127
4, 151080, Note_on_c, 2, 73, 127
4, 151319, Note_on_c, 2, 73, 0
4, 151319, Note_on_c, 2, 67, 0
4, 151320, Note_on_c, 2, 73, 127
4, 151320, Note_on_c, 2, 67, 127
4, 151559, Note_on_c, 2, 67, 0
4, 151559, Note_on_c, 2, 73, 0
4, 151560, Note_on_c, 2, 67, 127
4, 151560, Note_on_c, 2, 73, 127
4, 151799, Note_on_c, 2, 73, 0
4, 151799, Note_on_c, 2, 67, 0
4, 151800, Note_on_c, 2, 73, 127
4, 151800, Note_on_c, 2, 67, 127
4, 151919, Note_on_c, 2, 67, 0
4, 151919, Note_on_c, 2, 73, 0
4, 152040, Note_on_c, 2, 72, 127
4, 152040, Note_on_c, 2, 66, 127
4, 152279, Note_on_c, 2, 66, 0
4, 152279, Note_on_c, 2, 72, 0
4, 152280, Note_on_c, 2, 66, 127
4, 152280, Note_on_c, 2, 72, 127
4, 152519, Note_on_c, 2, 72, 0
4, 152519, Note_on_c, 2, 66, 0
4, 152520, Note_on_c, 2, 72, 127
4, 152520, Note_on_c, 2, 66, 127
4, 152639, Note_on_c, 2, 66, 0
4, 152639, Note_on_c, 2, 72, 0
4, 152760, Note_on_c, 2, 72, 127
4, 152760, Note_on_c, 2, 64, 127
4, 152999, Note_on_c, 2, 64, 0
4, 152999, Note_on_c, 2, 72, 0
4, 153000, Note_on_c, 2, 64, 127
4, 153000, Note_on_c, 2, 72, 127
4, 153239, Note_on_c, 2, 72, 0
4, 153239, Note_on_c, 2, 64, 0
4, 153240, Note_on_c, 2, 72, 127
4, 153240, Note_on_c, 2, 64, 127
4, 153299, Note_on_c, 2, 64, 0
4, 153299, Note_on_c, 2, 72, 0
4, 153360, Note_on_c, 2, 64, 96
4, 153360, Note_on_c, 2, 72, 96
4, 153599, Note_on_c, 2, 72, 0
4, 153599, Note_on_c, 2, 64, 0
4, 153720, Note_on_c, 2, 72, 96
4, 153720, Note_on_c, 2, 64, 96
4, 153959, Note_on_c, 2, 64, 0
4, 153959, Note_on_c, 2, 72, 0
4, 154080, Note_on_c, 2, 64, 96
4, 154080, Note_on_c, 2, 72, 96
4, 154319, Note_on_c, 2, 72, 0
4, 154319, Note_on_c, 2, 64, 0
4, 154440, Note_on_c, 2, 72, 96
4, 154440, Note_on_c, 2, 64, 96
4, 154679, Note_on_c, 2, 64, 0
4, 154679, Note_on_c, 2, 72, 0
4, 154680, Note_on_c, 2, 64, 96
4, 154680, Note_on_c, 2, 72, 96
4, 154739, Note_on_c, 2, 72, 0
4, 154739, Note_on_c, 2, 64, 0
4, 166320, Note_on_c, 2, 60, 96
4, 166440, Note_on_c, 2, 63, 96
4, 166449, Note_on_c, 2, 60, 0
4, 166560, Note_on_c, 2, 67, 96
4, 166569, Note_on_c, 2, 63, 0
4, 166679, Note_on_c, 2, 67, 0
4, 166680, Note_on_c, 2, 68, 112
4, 166920, Note_on_c, 2, 60, 96
4, 166929, Note_on_c, 2, 68, 0
4, 167039, Note_on_c, 2, 60, 0
4, 167040, Note_on_c, 2, 61, 96
4, 167160, Note_on_c, 2, 65, 96
4, 167169, Note_on_c, 2, 61, 0
4, 167280, Note_on_c, 2, 69, 96
4, 167289, Note_on_c, 2, 65, 0
4, 167399, Note_on_c, 2, 69, 0
4, 167400, Note_on_c, 2, 70, 112
4, 167640, Note_on_c, 2, 62, 96
4, 167649, Note_on_c, 2, 70, 0
4, 167759, Note_on_c, 2, 62, 0
4, 167760, Note_on_c, 2, 63, 96
4, 167819, Note_on_c, 2, 63, 0
4, 167880, Note_on_c, 2, 67, 96
4, 167939, Note_on_c, 2, 67, 0
4, 168000, Note_on_c, 2, 70, 96
4, 168059, Note_on_c, 2, 70, 0
4, 168120, Note_on_c, 2, 63, 96
4, 168120, Note_on_c, 2, 75, 96
4, 168179, Note_on_c, 2, 75, 0
4, 168179, Note_on_c, 2, 63, 0
4, 168240, Note_on_c, 2, 67, 96
4, 168240, Note_on_c, 2, 79, 96
4, 168299, Note_on_c, 2, 79, 0
4, 168299, Note_on_c, 2, 67, 0
4, 168360, Note_on_c, 2, 70, 112
4, 168360, Note_on_c, 2, 82, 112
4, 168539, Note_on_c, 2, 82, 0
4, 168539, Note_on_c, 2, 70, 0
4, 168540, Note_on_c, 2, 68, 96
4, 168540, Note_on_c, 2, 80, 96
4, 168569, Note_on_c, 2, 80, 0
4, 168569, Note_on_c, 2, 68, 0
4, 168600, Note_on_c, 2, 65, 96
4, 168600, Note_on_c, 2, 77, 96
4, 168629, Note_on_c, 2, 77, 0
4, 168629, Note_on_c, 2, 65, 0
4, 168660, Note_on_c, 2, 62, 96
4, 168660, Note_on_c, 2, 74, 96
4, 168689, Note_on_c, 2, 74, 0
4, 168689, Note_on_c, 2, 62, 0
4, 168720, Note_on_c, 2, 58, 96
4, 168720, Note_on_c, 2, 70, 96
4, 168749, Note_on_c, 2, 70, 0
4, 168749, Note_on_c, 2, 58, 0
4, 168780, Note_on_c, 2, 68, 96
4, 168809, Note_on_c, 2, 68, 0
4, 168840, Note_on_c, 2, 65, 96
4, 168869, Note_on_c, 2, 65, 0
4, 168900, Note_on_c, 2, 68, 96
4, 168929, Note_on_c, 2, 68, 0
4, 168960, Note_on_c, 2, 65, 96
4, 168989, Note_on_c, 2, 65, 0
4, 169020, Note_on_c, 2, 62, 96
4, 169049, Note_on_c, 2, 62, 0
4, 169080, Note_on_c, 2, 58, 96
4, 169109, Note_on_c, 2, 58, 0
4, 169140, Note_on_c, 2, 62, 96
4, 169169, Note_on_c, 2, 62, 0
4, 169200, Note_on_c, 2, 63, 127
4, 169319, Note_on_c, 2, 63, 0
4, 170040, Note_on_c, 2, 75, 48
4, 170040, Note_on_c, 2, 66, 48
4, 170160, Note_on_c, 2, 68, 48
4, 170160, Note_on_c, 2, 74, 48
4, 170169, Note_on_c, 2, 66, 0
4, 170169, Note_on_c, 2, 75, 0
4, 170280, Note_on_c, 2, 75, 56
4, 170280, Note_on_c, 2, 70, 56
4, 170289, Note_on_c, 2, 68, 0
4, 170289, Note_on_c, 2, 74, 0
4, 170460, Note_on_c, 2, 74, 48
4, 170460, Note_on_c, 2, 77, 48
4, 170469, Note_on_c, 2, 75, 0
4, 170469, Note_on_c, 2, 70, 0
4, 170520, Note_on_c, 2, 78, 48
4, 170520, Note_on_c, 2, 75, 48
4, 170529, Note_on_c, 2, 74, 0
4, 170529, Note_on_c, 2, 77, 0
4, 170639, Note_on_c, 2, 78, 0
4, 170639, Note_on_c, 2, 75, 0
4, 170640, Note_on_c, 2, 77, 48
4, 170640, Note_on_c, 2, 70, 48
4, 170759, Note_on_c, 2, 77, 0
4, 170760, Note_on_c, 2, 82, 48
4, 170760, Note_on_c, 2, 77, 48
4, 170769, Note_on_c, 2, 70, 0
4, 170880, Note_on_c, 2, 81, 48
4, 170880, Note_on_c, 2, 75, 48
4, 170889, Note_on_c, 2, 77, 0
4, 170889, Note_on_c, 2, 82, 0
4, 171000, Note_on_c, 2, 82, 56
4, 171000, Note_on_c, 2, 74, 56
4, 171009, Note_on_c, 2, 81, 0
4, 171009, Note_on_c, 2, 75, 0
4, 171180, Note_on_c, 2, 80, 48
4, 171189, Note_on_c, 2, 82, 0
4, 171240, Note_on_c, 2, 78, 48
4, 171240, Note_on_c, 2, 75, 48
4, 171249, Note_on_c, 2, 80, 0
4, 171249, Note_on_c, 2, 74, 0
4, 171300, Note_on_c, 2, 77, 48
4, 171309, Note_on_c, 2, 78, 0
4, 171309, Note_on_c, 2, 75, 0
4, 171359, Note_on_c, 2, 77, 0
4, 171360, Note_on_c, 2, 75, 48
4, 171360, Note_on_c, 2, 66, 48
4, 171479, Note_on_c, 2, 66, 0
4, 171479, Note_on_c, 2, 75, 0
4, 171480, Note_on_c, 2, 75, 48
4, 171600, Note_on_c, 2, 77, 48
4, 171609, Note_on_c, 2, 75, 0
4, 171720, Note_on_c, 2, 78, 48
4, 171729, Note_on_c, 2, 77, 0
4, 171900, Note_on_c, 2, 77, 40
4, 171909, Note_on_c, 2, 78, 0
4, 171960, Note_on_c, 2, 75, 32
4, 171969, Note_on_c, 2, 77, 0
4, 172079, Note_on_c, 2, 75, 0
4, 172080, Note_on_c, 2, 73, 40
4, 172500, Note_on_c, 2, 71, 48
4, 172509, Note_on_c, 2, 73, 0
4, 172560, Note_on_c, 2, 70, 48
4, 172569, Note_on_c, 2, 71, 0
4, 172620, Note_on_c, 2, 71, 48
4, 172629, Note_on_c, 2, 70, 0
4, 172680, Note_on_c, 2, 73, 48
4, 172689, Note_on_c, 2, 71, 0
4, 172740, Note_on_c, 2, 71, 48
4, 172749, Note_on_c, 2, 73, 0
4, 172800, Note_on_c, 2, 70, 48
4, 172809, Note_on_c, 2, 71, 0
4, 172919, Note_on_c, 2, 70, 0
4, 176040, Note_on_c, 2, 70, 48
4, 176280, Note_on_c, 2, 74, 48
4, 176289, Note_on_c, 2, 70, 0
4, 176400, Note_on_c, 2, 70, 48
4, 176409, Note_on_c, 2, 74, 0
4, 176640, Note_on_c, 2, 65, 48
4, 176649, Note_on_c, 2, 70, 0
4, 176759, Note_on_c, 2, 65, 0
4, 176760, Note_on_c, 2, 70, 48
4, 176880, Note_on_c, 2, 74, 48
4, 176889, Note_on_c, 2, 70, 0
4, 177000, Note_on_c, 2, 77, 48
4, 177009, Note_on_c, 2, 74, 0
4, 177120, Note_on_c, 2, 78, 48
4, 177129, Note_on_c, 2, 77, 0
4, 177239, Note_on_c, 2, 78, 0
4, 177480, Note_on_c, 2, 70, 48
4, 177480, Note_on_c, 2, 66, 48
4, 177719, Note_on_c, 2, 70, 0
4, 177720, Note_on_c, 2, 75, 48
4, 177720, Note_on_c, 2, 70, 48
4, 177729, Note_on_c, 2, 66, 0
4, 177839, Note_on_c, 2, 70, 0
4, 177839, Note_on_c, 2, 75, 0
4, 177840, Note_on_c, 2, 70, 48
4, 177840, Note_on_c, 2, 66, 48
4, 178079, Note_on_c, 2, 66, 0
4, 178080, Note_on_c, 2, 66, 48
4, 178080, Note_on_c, 2, 63, 48
4, 178089, Note_on_c, 2, 70, 0
4, 178199, Note_on_c, 2, 63, 0
4, 178199, Note_on_c, 2, 66, 0
4, 178200, Note_on_c, 2, 70, 48
4, 178200, Note_on_c, 2, 66, 48
4, 178319, Note_on_c, 2, 70, 0
4, 178320, Note_on_c, 2, 75, 48
4, 178320, Note_on_c, 2, 70, 48
4, 178329, Note_on_c, 2, 66, 0
4, 178439, Note_on_c, 2, 75, 0
4, 178440, Note_on_c, 2, 78, 48
4, 178440, Note_on_c, 2, 75, 48
4, 178449, Note_on_c, 2, 70, 0
4, 178559, Note_on_c, 2, 75, 0
4, 178559, Note_on_c, 2, 78, 0
4, 178560, Note_on_c, 2, 78, 48
4, 178560, Note_on_c, 2, 75, 48
4, 178679, Note_on_c, 2, 75, 0
4, 178679, Note_on_c, 2, 78, 0
4, 178920, Note_on_c, 2, 68, 48
4, 179160, Note_on_c, 2, 75, 48
4, 179169, Note_on_c, 2, 68, 0
4, 179280, Note_on_c, 2, 68, 48
4, 179289, Note_on_c, 2, 75, 0
4, 179520, Note_on_c, 2, 66, 48
4, 179529, Note_on_c, 2, 68, 0
4, 179639, Note_on_c, 2, 66, 0
4, 179640, Note_on_c, 2, 68, 48
4, 179760, Note_on_c, 2, 75, 48
4, 179769, Note_on_c, 2, 68, 0
4, 179879, Note_on_c, 2, 75, 0
4, 179880, Note_on_c, 2, 78, 48
4, 179880, Note_on_c, 2, 75, 48
4, 179999, Note_on_c, 2, 75, 0
4, 179999, Note_on_c, 2, 78, 0
4, 180000, Note_on_c, 2, 77, 48
4, 180000, Note_on_c, 2, 73, 48
4, 180119, Note_on_c, 2, 73, 0
4, 180119, Note_on_c, 2, 77, 0
4, 180360, Note_on_c, 2, 73, 48
4, 180360, Note_on_c, 2, 68, 48
4, 180599, Note_on_c, 2, 68, 0
4, 180600, Note_on_c, 2, 77, 48
4, 180600, Note_on_c, 2, 68, 48
4, 180609, Note_on_c, 2, 73, 0
4, 180719, Note_on_c, 2, 68, 0
4, 180720, Note_on_c, 2, 73, 48
4, 180720, Note_on_c, 2, 68, 48
4, 180729, Note_on_c, 2, 77, 0
4, 180959, Note_on_c, 2, 68, 0
4, 180960, Note_on_c, 2, 68, 48
4, 180960, Note_on_c, 2, 65, 48
4, 180969, Note_on_c, 2, 73, 0
4, 181079, Note_on_c, 2, 65, 0
4, 181079, Note_on_c, 2, 68, 0
4, 181080, Note_on_c, 2, 68, 48
4, 181080, Note_on_c, 2, 65, 48
4, 181199, Note_on_c, 2, 68, 0
4, 181200, Note_on_c, 2, 73, 48
4, 181200, Note_on_c, 2, 68, 48
4, 181209, Note_on_c, 2, 65, 0
4, 181319, Note_on_c, 2, 73, 0
4, 181320, Note_on_c, 2, 77, 48
4, 181320, Note_on_c, 2, 73, 48
4, 181329, Note_on_c, 2, 68, 0
4, 181439, Note_on_c, 2, 73, 0
4, 181439, Note_on_c, 2, 77, 0
4, 181440, Note_on_c, 2, 77, 48
4, 181440, Note_on_c, 2, 70, 48
4, 181559, Note_on_c, 2, 70, 0
4, 181559, Note_on_c, 2, 77, 0
4, 181800, Note_on_c, 2, 70, 48
4, 181800, Note_on_c, 2, 68, 48
4, 182039, Note_on_c, 2, 70, 0
4, 182040, Note_on_c, 2, 77, 48
4, 182040, Note_on_c, 2, 70, 48
4, 182049, Note_on_c, 2, 68, 0
4, 182159, Note_on_c, 2, 70, 0
4, 182159, Note_on_c, 2, 77, 0
4, 182160, Note_on_c, 2, 70, 48
4, 182160, Note_on_c, 2, 68, 48
4, 182399, Note_on_c, 2, 68, 0
4, 182400, Note_on_c, 2, 68, 48
4, 182400, Note_on_c, 2, 65, 48
4, 182409, Note_on_c, 2, 70, 0
4, 182519, Note_on_c, 2, 65, 0
4, 182519, Note_on_c, 2, 68, 0
4, 182520, Note_on_c, 2, 70, 48
4, 182520, Note_on_c, 2, 68, 48
4, 182639, Note_on_c, 2, 70, 0
4, 182640, Note_on_c, 2, 77, 48
4, 182640, Note_on_c, 2, 70, 48
4, 182649, Note_on_c, 2, 68, 0
4, 182759, Note_on_c, 2, 77, 0
4, 182760, Note_on_c, 2, 80, 48
4, 182760, Note_on_c, 2, 77, 48
4, 182769, Note_on_c, 2, 70, 0
4, 182879, Note_on_c, 2, 77, 0
4, 182879, Note_on_c, 2, 80, 0
4, 183240, Note_on_c, 2, 63, 72
4, 183240, Note_on_c, 2, 75, 72
4, 183480, Note_on_c, 2, 78, 68
4, 183480, Note_on_c, 2, 66, 68
4, 183489, Note_on_c, 2, 75, 0
4, 183489, Note_on_c, 2, 63, 0
4, 183599, Note_on_c, 2, 78, 0
4, 183599, Note_on_c, 2, 66, 0
4, 183960, Note_on_c, 2, 63, 96
4, 183960, Note_on_c, 2, 75, 96
4, 184200, Note_on_c, 2, 78, 96
4, 184200, Note_on_c, 2, 66, 96
4, 184209, Note_on_c, 2, 75, 0
4, 184209, Note_on_c, 2, 63, 0
4, 184319, Note_on_c, 2, 78, 0
4, 184319, Note_on_c, 2, 66, 0
4, 184320, Note_on_c, 2, 75, 127
4, 184320, Note_on_c, 2, 66, 127
4, 185159, Note_on_c, 2, 66, 0
4, 185159, Note_on_c, 2, 75, 0
4, 185160, Note_on_c, 2, 75, 127
4, 185160, Note_on_c, 2, 66, 127
4, 185279, Note_on_c, 2, 66, 0
4, 185279, Note_on_c, 2, 75, 0
4, 185280, Note_on_c, 2, 75, 127
4, 185280, Note_on_c, 2, 66, 127
4, 185399, Note_on_c, 2, 66, 0
4, 185399, Note_on_c, 2, 75, 0
4, 185400, Note_on_c, 2, 75, 127
4, 185400, Note_on_c, 2, 66, 127
4, 185519, Note_on_c, 2, 66, 0
4, 185519, Note_on_c, 2, 75, 0
4, 185520, Note_on_c, 2, 75, 127
4, 185520, Note_on_c, 2, 66, 127
4, 185639, Note_on_c, 2, 66, 0
4, 185639, Note_on_c, 2, 75, 0
4, 185640, Note_on_c, 2, 75, 127
4, 185640, Note_on_c, 2, 66, 127
4, 185759, Note_on_c, 2, 66, 0
4, 185759, Note_on_c, 2, 75, 0
4, 185760, Note_on_c, 2, 75, 127
4, 185760, Note_on_c, 2, 66, 127
4, 185879, Note_on_c, 2, 66, 0
4, 185879, Note_on_c, 2, 75, 0
4, 187200, Note_on_c, 2, 69, 48
4, 187559, Note_on_c, 2, 69, 0
4, 187560, Note_on_c, 2, 69, 48
4, 187919, Note_on_c, 2, 69, 0
4, 187920, Note_on_c, 2, 69, 48
4, 188279, Note_on_c, 2, 69, 0
4, 188280, Note_on_c, 2, 69, 48
4, 188639, Note_on_c, 2, 69, 0
4, 188640, Note_on_c, 2, 68, 48
4, 188999, Note_on_c, 2, 68, 0
4, 189000, Note_on_c, 2, 68, 44
4, 189359, Note_on_c, 2, 68, 0
4, 189360, Note_on_c, 2, 66, 40
4, 189719, Note_on_c, 2, 66, 0
4, 189720, Note_on_c, 2, 66, 36
4, 190079, Note_on_c, 2, 66, 0
4, 190080, Note_on_c, 2, 68, 32
4, 190080, Note_on_c, 2, 65, 32
4, 190439, Note_on_c, 2, 65, 0
4, 190439, Note_on_c, 2, 68, 0
4, 190440, Note_on_c, 2, 65, 32
4, 190440, Note_on_c, 2, 68, 32
4, 190799, Note_on_c, 2, 68, 0
4, 190799, Note_on_c, 2, 65, 0
4, 190800, Note_on_c, 2, 68, 32
4, 190800, Note_on_c, 2, 65, 32
4, 191159, Note_on_c, 2, 65, 0
4, 191159, Note_on_c, 2, 68, 0
4, 191160, Note_on_c, 2, 65, 32
4, 191160, Note_on_c, 2, 68, 32
4, 191519, Note_on_c, 2, 68, 0
4, 191519, Note_on_c, 2, 65, 0
4, 192240, Note_on_c, 2, 71, 32
4, 192240, Note_on_c, 2, 68, 32
4, 192599, Note_on_c, 2, 68, 0
4, 192599, Note_on_c, 2, 71, 0
4, 192600, Note_on_c, 2, 68, 32
4, 192600, Note_on_c, 2, 71, 32
4, 192959, Note_on_c, 2, 71, 0
4, 192959, Note_on_c, 2, 68, 0
4, 193680, Note_on_c, 2, 70, 32
4, 193680, Note_on_c, 2, 68, 32
4, 194039, Note_on_c, 2, 68, 0
4, 194039, Note_on_c, 2, 70, 0
4, 194040, Note_on_c, 2, 68, 32
4, 194040, Note_on_c, 2, 70, 32
4, 194399, Note_on_c, 2, 70, 0
4, 194399, Note_on_c, 2, 68, 0
4, 196560, Note_on_c, 2, 68, 96
4, 196560, Note_on_c, 2, 65, 96
4, 196919, Note_on_c, 2, 65, 0
4, 196919, Note_on_c, 2, 68, 0
4, 196920, Note_on_c, 2, 77, 127
4, 196920, Note_on_c, 2, 68, 127
4, 197279, Note_on_c, 2, 68, 0
4, 197279, Note_on_c, 2, 77, 0
4, 197280, Note_on_c, 2, 67, 127
4, 197280, Note_on_c, 2, 75, 127
4, 197399, Note_on_c, 2, 75, 0
4, 197399, Note_on_c, 2, 67, 0
4, 203760, Note_on_c, 2, 68, 48
4, 203760, Note_on_c, 2, 65, 48
4, 205199, Note_on_c, 2, 65, 0
4, 205199, Note_on_c, 2, 68, 0
4, 205200, Note_on_c, 2, 68, 48
4, 205200, Note_on_c, 2, 66, 48
4, 205919, Note_on_c, 2, 66, 0
4, 205919, Note_on_c, 2, 68, 0
4, 205920, Note_on_c, 2, 68, 48
4, 205920, Note_on_c, 2, 65, 48
4, 206280, Note_on_c, 2, 63, 56
4, 206289, Note_on_c, 2, 65, 0
4, 206640, Note_on_c, 2, 62, 32
4, 206649, Note_on_c, 2, 63, 0
4, 206759, Note_on_c, 2, 62, 0
4, 206759, Note_on_c, 2, 68, 0
4, 207960, Note_on_c, 2, 72, 53
4, 207989, Note_on_c, 2, 72, 0
4, 208020, Note_on_c, 2, 70, 55
4, 208049, Note_on_c, 2, 70, 0
4, 208080, Note_on_c, 2, 68, 58
4, 208109, Note_on_c, 2, 68, 0
4, 208140, Note_on_c, 2, 70, 60
4, 208169, Note_on_c, 2, 70, 0
4, 208200, Note_on_c, 2, 68, 62
4, 208229, Note_on_c, 2, 68, 0
4, 208260, Note_on_c, 2, 67, 64
4, 208289, Note_on_c, 2, 67, 0
4, 208320, Note_on_c, 2, 68, 64
4, 208349, Note_on_c, 2, 68, 0
4, 208380, Note_on_c, 2, 67, 68
4, 208409, Note_on_c, 2, 67, 0
4, 208440, Note_on_c, 2, 65, 72
4, 208469, Note_on_c, 2, 65, 0
4, 208500, Note_on_c, 2, 63, 76
4, 208529, Note_on_c, 2, 63, 0
4, 208560, Note_on_c, 2, 62, 80
4, 208589, Note_on_c, 2, 62, 0
4, 208620, Note_on_c, 2, 63, 84
4, 208649, Note_on_c, 2, 63, 0
4, 208680, Note_on_c, 2, 65, 88
4, 208709, Note_on_c, 2, 65, 0
4, 208740, Note_on_c, 2, 68, 92
4, 208769, Note_on_c, 2, 68, 0
4, 208800, Note_on_c, 2, 67, 96
4, 208919, Note_on_c, 2, 67, 0
4, 208920, Note_on_c, 2, 70, 96
4, 208920, Note_on_c, 2, 67, 96
4, 209039, Note_on_c, 2, 67, 0
4, 209039, Note_on_c, 2, 70, 0
4, 209040, Note_on_c, 2, 70, 96
4, 209040, Note_on_c, 2, 67, 96
4, 209159, Note_on_c, 2, 67, 0
4, 209159, Note_on_c, 2, 70, 0
4, 209160, Note_on_c, 2, 70, 96
4, 209160, Note_on_c, 2, 67, 96
4, 209399, Note_on_c, 2, 67, 0
4, 209399, Note_on_c, 2, 70, 0
4, 209400, Note_on_c, 2, 70, 96
4, 209400, Note_on_c, 2, 67, 96
4, 209519, Note_on_c, 2, 67, 0
4, 209519, Note_on_c, 2, 70, 0
4, 209520, Note_on_c, 2, 70, 96
4, 209520, Note_on_c, 2, 67, 96
4, 209639, Note_on_c, 2, 67, 0
4, 209639, Note_on_c, 2, 70, 0
4, 209640, Note_on_c, 2, 70, 96
4, 209640, Note_on_c, 2, 67, 96
4, 209759, Note_on_c, 2, 67, 0
4, 209759, Note_on_c, 2, 70, 0
4, 209760, Note_on_c, 2, 70, 96
4, 209760, Note_on_c, 2, 67, 96
4, 209879, Note_on_c, 2, 67, 0
4, 209879, Note_on_c, 2, 70, 0
4, 209880, Note_on_c, 2, 70, 96
4, 209880, Note_on_c, 2, 67, 96
4, 210119, Note_on_c, 2, 67, 0
4, 210119, Note_on_c, 2, 70, 0
4, 210120, Note_on_c, 2, 70, 112
4, 210120, Note_on_c, 2, 67, 112
4, 210239, Note_on_c, 2, 67, 0
4, 210239, Note_on_c, 2, 70, 0
4, 210240, Note_on_c, 2, 72, 96
4, 210240, Note_on_c, 2, 68, 96
4, 210359, Note_on_c, 2, 68, 0
4, 210359, Note_on_c, 2, 72, 0
4, 210360, Note_on_c, 2, 72, 96
4, 210360, Note_on_c, 2, 68, 96
4, 210479, Note_on_c, 2, 68, 0
4, 210479, Note_on_c, 2, 72, 0
4, 210480, Note_on_c, 2, 72, 96
4, 210480, Note_on_c, 2, 68, 96
4, 210599, Note_on_c, 2, 68, 0
4, 210599, Note_on_c, 2, 72, 0
4, 210600, Note_on_c, 2, 72, 96
4, 210600, Note_on_c, 2, 68, 96
4, 210839, Note_on_c, 2, 68, 0
4, 210839, Note_on_c, 2, 72, 0
4, 210840, Note_on_c, 2, 72, 112
4, 210840, Note_on_c, 2, 69, 112
4, 210959, Note_on_c, 2, 69, 0
4, 210959, Note_on_c, 2, 72, 0
4, 210960, Note_on_c, 2, 73, 112
4, 210960, Note_on_c, 2, 70, 112
4, 211319, Note_on_c, 2, 70, 0
4, 211319, Note_on_c, 2, 73, 0
4, 211320, Note_on_c, 2, 72, 112
4, 211320, Note_on_c, 2, 68, 112
4, 211679, Note_on_c, 2, 68, 0
4, 211679, Note_on_c, 2, 72, 0
4, 211680, Note_on_c, 2, 71, 112
4, 211680, Note_on_c, 2, 68, 112
4, 212159, Note_on_c, 2, 68, 0
4, 212159, Note_on_c, 2, 71, 0
4, 212160, Note_on_c, 2, 70, 112
4, 212160, Note_on_c, 2, 68, 112
4, 212279, Note_on_c, 2, 68, 0
4, 212279, Note_on_c, 2, 70, 0
4, 212280, Note_on_c, 2, 70, 112
4, 212280, Note_on_c, 2, 68, 112
4, 212399, Note_on_c, 2, 68, 0
4, 212399, Note_on_c, 2, 70, 0
4, 212400, Note_on_c, 2, 70, 127
4, 212400, Note_on_c, 2, 67, 127
4, 212639, Note_on_c, 2, 67, 0
4, 212639, Note_on_c, 2, 70, 0
4, 212640, Note_on_c, 2, 75, 127
4, 212640, Note_on_c, 2, 67, 127
4, 212759, Note_on_c, 2, 67, 0
4, 212759, Note_on_c, 2, 75, 0
4, 212760, Note_on_c, 2, 75, 127
4, 212760, Note_on_c, 2, 67, 127
4, 212999, Note_on_c, 2, 67, 0
4, 212999, Note_on_c, 2, 75, 0
4, 213000, Note_on_c, 2, 75, 127
4, 213000, Note_on_c, 2, 67, 127
4, 213239, Note_on_c, 2, 67, 0
4, 213239, Note_on_c, 2, 75, 0
4, 213240, Note_on_c, 2, 75, 127
4, 213240, Note_on_c, 2, 67, 127
4, 213359, Note_on_c, 2, 67, 0
4, 213359, Note_on_c, 2, 75, 0
4, 213360, Note_on_c, 2, 75, 127
4, 213360, Note_on_c, 2, 67, 127
4, 213479, Note_on_c, 2, 67, 0
4, 213479, Note_on_c, 2, 75, 0
4, 213480, Note_on_c, 2, 75, 127
4, 213480, Note_on_c, 2, 67, 127
4, 213719, Note_on_c, 2, 67, 0
4, 213719, Note_on_c, 2, 75, 0
4, 213720, Note_on_c, 2, 75, 127
4, 213720, Note_on_c, 2, 67, 127
4, 213959, Note_on_c, 2, 67, 0
4, 213959, Note_on_c, 2, 75, 0
4, 213960, Note_on_c, 2, 75, 127
4, 213960, Note_on_c, 2, 67, 127
4, 214079, Note_on_c, 2, 67, 0
4, 214079, Note_on_c, 2, 75, 0
4, 214080, Note_on_c, 2, 75, 127
4, 214080, Note_on_c, 2, 67, 127
4, 214199, Note_on_c, 2, 67, 0
4, 214199, Note_on_c, 2, 75, 0
4, 214200, Note_on_c, 2, 75, 127
4, 214200, Note_on_c, 2, 67, 127
4, 214439, Note_on_c, 2, 67, 0
4, 214439, Note_on_c, 2, 75, 0
4, 214440, Note_on_c, 2, 76, 127
4, 214440, Note_on_c, 2, 67, 127
4, 214559, Note_on_c, 2, 67, 0
4, 214559, Note_on_c, 2, 76, 0
4, 214560, Note_on_c, 2, 77, 127
4, 214560, Note_on_c, 2, 72, 127
4, 214919, Note_on_c, 2, 72, 0
4, 214919, Note_on_c, 2, 77, 0
4, 214920, Note_on_c, 2, 76, 127
4, 214920, Note_on_c, 2, 72, 127
4, 215279, Note_on_c, 2, 72, 0
4, 215279, Note_on_c, 2, 76, 0
4, 215280, Note_on_c, 2, 74, 127
4, 215280, Note_on_c, 2, 70, 127
4, 215399, Note_on_c, 2, 70, 0
4, 215399, Note_on_c, 2, 74, 0
4, 216120, Note_on_c, 2, 80, 48
4, 216300, Note_on_c, 2, 77, 48
4, 216309, Note_on_c, 2, 80, 0
4, 216360, Note_on_c, 2, 74, 48
4, 216369, Note_on_c, 2, 77, 0
4, 216479, Note_on_c, 2, 74, 0
4, 217560, Note_on_c, 2, 79, 48
4, 217740, Note_on_c, 2, 75, 48
4, 217749, Note_on_c, 2, 79, 0
4, 217800, Note_on_c, 2, 70, 48
4, 217809, Note_on_c, 2, 75, 0
4, 217919, Note_on_c, 2, 70, 0
4, 218280, Note_on_c, 2, 71, 96
4, 218460, Note_on_c, 2, 70, 48
4, 218469, Note_on_c, 2, 71, 0
4, 218520, Note_on_c, 2, 68, 48
4, 218529, Note_on_c, 2, 70, 0
4, 218639, Note_on_c, 2, 68, 0
4, 218640, Note_on_c, 2, 71, 96
4, 218820, Note_on_c, 2, 70, 48
4, 218829, Note_on_c, 2, 71, 0
4, 218880, Note_on_c, 2, 68, 48
4, 218889, Note_on_c, 2, 70, 0
4, 218999, Note_on_c, 2, 68, 0
4, 219600, Note_on_c, 2, 67, 48
4, 219600, Note_on_c, 2, 63, 48
4, 219840, Note_on_c, 2, 68, 54
4, 219840, Note_on_c, 2, 65, 54
4, 219849, Note_on_c, 2, 63, 0
4, 219849, Note_on_c, 2, 67, 0
4, 219900, Note_on_c, 2, 70, 56
4, 219900, Note_on_c, 2, 67, 56
4, 219909, Note_on_c, 2, 68, 0
4, 219909, Note_on_c, 2, 65, 0
4, 219960, Note_on_c, 2, 72, 56
4, 219960, Note_on_c, 2, 68, 56
4, 219969, Note_on_c, 2, 70, 0
4, 219969, Note_on_c, 2, 67, 0
4, 220080, Note_on_c, 2, 74, 53
4, 220080, Note_on_c, 2, 70, 53
4, 220089, Note_on_c, 2, 72, 0
4, 220089, Note_on_c, 2, 68, 0
4, 220200, Note_on_c, 2, 75, 50
4, 220200, Note_on_c, 2, 72, 50
4, 220209, Note_on_c, 2, 74, 0
4, 220209, Note_on_c, 2, 70, 0
4, 220319, Note_on_c, 2, 75, 0
4, 220319, Note_on_c, 2, 72, 0
4, 220320, Note_on_c, 2, 75, 48
4, 220320, Note_on_c, 2, 70, 48
4, 220439, Note_on_c, 2, 70, 0
4, 220439, Note_on_c, 2, 75, 0
4, 220500, Note_on_c, 2, 63, 48
4, 220500, Note_on_c, 2, 58, 48
4, 220560, Note_on_c, 2, 65, 48
4, 220560, Note_on_c, 2, 62, 48
4, 220569, Note_on_c, 2, 58, 0
4, 220569, Note_on_c, 2, 63, 0
4, 220620, Note_on_c, 2, 67, 48
4, 220620, Note_on_c, 2, 63, 48
4, 220629, Note_on_c, 2, 65, 0
4, 220629, Note_on_c, 2, 62, 0
4, 220679, Note_on_c, 2, 67, 0
4, 220679, Note_on_c, 2, 63, 0
4, 220680, Note_on_c, 2, 68, 48
4, 220680, Note_on_c, 2, 65, 48
4, 220769, Note_on_c, 2, 65, 0
4, 220769, Note_on_c, 2, 68, 0
4, 220800, Note_on_c, 2, 68, 48
4, 220800, Note_on_c, 2, 65, 48
4, 220889, Note_on_c, 2, 65, 0
4, 220889, Note_on_c, 2, 68, 0
4, 220920, Note_on_c, 2, 68, 48
4, 220920, Note_on_c, 2, 65, 48
4, 221009, Note_on_c, 2, 65, 0
4, 221009, Note_on_c, 2, 68, 0
4, 221040, Note_on_c, 2, 67, 48
4, 221040, Note_on_c, 2, 63, 48
4, 221159, Note_on_c, 2, 63, 0
4, 221159, Note_on_c, 2, 67, 0
4, 222480, Note_on_c, 2, 74, 96
4, 222480, Note_on_c, 2, 65, 96
4, 222539, Note_on_c, 2, 65, 0
4, 222539, Note_on_c, 2, 74, 0
4, 222600, Note_on_c, 2, 74, 96
4, 222600, Note_on_c, 2, 68, 96
4, 222659, Note_on_c, 2, 68, 0
4, 222659, Note_on_c, 2, 74, 0
4, 223140, Note_on_c, 2, 68, 96
4, 223140, Note_on_c, 2, 74, 96
4, 223199, Note_on_c, 2, 74, 0
4, 223199, Note_on_c, 2, 68, 0
4, 223200, Note_on_c, 2, 75, 96
4, 223200, Note_on_c, 2, 67, 96
4, 223259, Note_on_c, 2, 67, 0
4, 223259, Note_on_c, 2, 75, 0
4, 223320, Note_on_c, 2, 67, 96
4, 223320, Note_on_c, 2, 75, 96
4, 223379, Note_on_c, 2, 75, 0
4, 223379, Note_on_c, 2, 67, 0
4, 223860, Note_on_c, 2, 67, 96
4, 223860, Note_on_c, 2, 72, 96
4, 223919, Note_on_c, 2, 72, 0
4, 223919, Note_on_c, 2, 67, 0
4, 223920, Note_on_c, 2, 73, 96
4, 223920, Note_on_c, 2, 67, 96
4, 223979, Note_on_c, 2, 67, 0
4, 223979, Note_on_c, 2, 73, 0
4, 224040, Note_on_c, 2, 67, 96
4, 224040, Note_on_c, 2, 73, 96
4, 224099, Note_on_c, 2, 73, 0
4, 224099, Note_on_c, 2, 67, 0
4, 224580, Note_on_c, 2, 67, 96
4, 224580, Note_on_c, 2, 73, 96
4, 224609, Note_on_c, 2, 73, 0
4, 224609, Note_on_c, 2, 67, 0
4, 224640, Note_on_c, 2, 72, 96
4, 224640, Note_on_c, 2, 68, 96
4, 224669, Note_on_c, 2, 68, 0
4, 224669, Note_on_c, 2, 72, 0
4, 227520, Note_on_c, 2, 70, 112
4, 227520, Note_on_c, 2, 58, 112
4, 228299, Note_on_c, 2, 58, 0
4, 228299, Note_on_c, 2, 70, 0
4, 228300, Note_on_c, 2, 69, 127
4, 228329, Note_on_c, 2, 69, 0
4, 228360, Note_on_c, 2, 68, 127
4, 228389, Note_on_c, 2, 68, 0
4, 228420, Note_on_c, 2, 67, 127
4, 228449, Note_on_c, 2, 67, 0
4, 228480, Note_on_c, 2, 65, 127
4, 228509, Note_on_c, 2, 65, 0
4, 228540, Note_on_c, 2, 63, 127
4, 228569, Note_on_c, 2, 63, 0
4, 228600, Note_on_c, 2, 62, 127
4, 228629, Note_on_c, 2, 62, 0
4, 228660, Note_on_c, 2, 72, 127
4, 228689, Note_on_c, 2, 72, 0
4, 228720, Note_on_c, 2, 70, 127
4, 228749, Note_on_c, 2, 70, 0
4, 228780, Note_on_c, 2, 68, 127
4, 228809, Note_on_c, 2, 68, 0
4, 228840, Note_on_c, 2, 67, 127
4, 228869, Note_on_c, 2, 67, 0
4, 228900, Note_on_c, 2, 65, 127
4, 228929, Note_on_c, 2, 65, 0
4, 228960, Note_on_c, 2, 63, 127
4, 229079, Note_on_c, 2, 63, 0
4, 229080, Note_on_c, 2, 79, 48
4, 229080, Note_on_c, 2, 70, 48
4, 229169, Note_on_c, 2, 70, 0
4, 229169, Note_on_c, 2, 79, 0
4, 229200, Note_on_c, 2, 79, 48
4, 229200, Note_on_c, 2, 70, 48
4, 229289, Note_on_c, 2, 70, 0
4, 229289, Note_on_c, 2, 79, 0
4, 229320, Note_on_c, 2, 70, 56
4, 229320, Note_on_c, 2, 79, 56
4, 229409, Note_on_c, 2, 79, 0
4, 229409, Note_on_c, 2, 70, 0
4, 229440, Note_on_c, 2, 79, 64
4, 229440, Note_on_c, 2, 70, 64
4, 229529, Note_on_c, 2, 70, 0
4, 229529, Note_on_c, 2, 79, 0
4, 229560, Note_on_c, 2, 79, 72
4, 229560, Note_on_c, 2, 70, 72
4, 229649, Note_on_c, 2, 70, 0
4, 229649, Note_on_c, 2, 79, 0
4, 229680, Note_on_c, 2, 79, 80
4, 229680, Note_on_c, 2, 70, 80
4, 229769, Note_on_c, 2, 70, 0
4, 229769, Note_on_c, 2, 79, 0
4, 229800, Note_on_c, 2, 70, 88
4, 229800, Note_on_c, 2, 79, 88
4, 229889, Note_on_c, 2, 79, 0
4, 229889, Note_on_c, 2, 70, 0
4, 229920, Note_on_c, 2, 79, 96
4, 229920, Note_on_c, 2, 71, 96
4, 230040, Note_on_c, 2, 72, 96
4, 230049, Note_on_c, 2, 71, 0
4, 230280, Note_on_c, 2, 77, 56
4, 230289, Note_on_c, 2, 79, 0
4, 230399, Note_on_c, 2, 77, 0
4, 230399, Note_on_c, 2, 72, 0
4, 231960, Note_on_c, 2, 78, 48
4, 231960, Note_on_c, 2, 70, 48
4, 232049, Note_on_c, 2, 70, 0
4, 232049, Note_on_c, 2, 78, 0
4, 232080, Note_on_c, 2, 78, 48
4, 232080, Note_on_c, 2, 70, 48
4, 232169, Note_on_c, 2, 70, 0
4, 232169, Note_on_c, 2, 78, 0
4, 232200, Note_on_c, 2, 78, 56
4, 232200, Note_on_c, 2, 70, 56
4, 232289, Note_on_c, 2, 70, 0
4, 232289, Note_on_c, 2, 78, 0
4, 232320, Note_on_c, 2, 78, 64
4, 232320, Note_on_c, 2, 71, 64
4, 232409, Note_on_c, 2, 71, 0
4, 232409, Note_on_c, 2, 78, 0
4, 232440, Note_on_c, 2, 78, 72
4, 232440, Note_on_c, 2, 71, 72
4, 232529, Note_on_c, 2, 71, 0
4, 232529, Note_on_c, 2, 78, 0
4, 232560, Note_on_c, 2, 78, 80
4, 232560, Note_on_c, 2, 71, 80
4, 232649, Note_on_c, 2, 71, 0
4, 232649, Note_on_c, 2, 78, 0
4, 232680, Note_on_c, 2, 78, 85
4, 232680, Note_on_c, 2, 71, 85
4, 232769, Note_on_c, 2, 71, 0
4, 232769, Note_on_c, 2, 78, 0
4, 232800, Note_on_c, 2, 78, 92
4, 232800, Note_on_c, 2, 71, 92
4, 232889, Note_on_c, 2, 71, 0
4, 232889, Note_on_c, 2, 78, 0
4, 232920, Note_on_c, 2, 78, 96
4, 232920, Note_on_c, 2, 71, 96
4, 233160, Note_on_c, 2, 77, 56
4, 233169, Note_on_c, 2, 78, 0
4, 233279, Note_on_c, 2, 77, 0
4, 233279, Note_on_c, 2, 71, 0
4, 234120, Note_on_c, 2, 75, 48
4, 234240, Note_on_c, 2, 72, 48
4, 234249, Note_on_c, 2, 75, 0
4, 234360, Note_on_c, 2, 70, 48
4, 234369, Note_on_c, 2, 72, 0
4, 234480, Note_on_c, 2, 63, 48
4, 234569, Note_on_c, 2, 63, 0
4, 234600, Note_on_c, 2, 63, 56
4, 234600, Note_on_c, 2, 69, 56
4, 234609, Note_on_c, 2, 70, 0
4, 234689, Note_on_c, 2, 63, 0
4, 234719, Note_on_c, 2, 69, 0
4, 234720, Note_on_c, 2, 65, 48
4, 234720, Note_on_c, 2, 68, 48
4, 234839, Note_on_c, 2, 68, 0
4, 234839, Note_on_c, 2, 65, 0
4, 237840, Note_on_c, 2, 56, 78
4, 237840, Note_on_c, 2, 53, 78
4, 237869, Note_on_c, 2, 53, 0
4, 237869, Note_on_c, 2, 56, 0
4, 237900, Note_on_c, 2, 58, 80
4, 237900, Note_on_c, 2, 55, 80
4, 237929, Note_on_c, 2, 55, 0
4, 237929, Note_on_c, 2, 58, 0
4, 237960, Note_on_c, 2, 60, 82
4, 237960, Note_on_c, 2, 56, 82
4, 237989, Note_on_c, 2, 56, 0
4, 237989, Note_on_c, 2, 60, 0
4, 238020, Note_on_c, 2, 62, 84
4, 238020, Note_on_c, 2, 58, 84
4, 238049, Note_on_c, 2, 58, 0
4, 238049, Note_on_c, 2, 62, 0
4, 238080, Note_on_c, 2, 63, 87
4, 238080, Note_on_c, 2, 60, 87
4, 238109, Note_on_c, 2, 60, 0
4, 238109, Note_on_c, 2, 63, 0
4, 238140, Note_on_c, 2, 65, 89
4, 238140, Note_on_c, 2, 62, 89
4, 238169, Note_on_c, 2, 62, 0
4, 238169, Note_on_c, 2, 65, 0
4, 238200, Note_on_c, 2, 67, 92
4, 238200, Note_on_c, 2, 63, 92
4, 238229, Note_on_c, 2, 63, 0
4, 238229, Note_on_c, 2, 67, 0
4, 238260, Note_on_c, 2, 68, 94
4, 238260, Note_on_c, 2, 65, 94
4, 238289, Note_on_c, 2, 65, 0
4, 238289, Note_on_c, 2, 68, 0
4, 238320, Note_on_c, 2, 70, 96
4, 238320, Note_on_c, 2, 67, 96
4, 238439, Note_on_c, 2, 67, 0
4, 238439, Note_on_c, 2, 70, 0
4, 238440, Note_on_c, 2, 67, 96
4, 238440, Note_on_c, 2, 70, 96
4, 238679, Note_on_c, 2, 70, 0
4, 238679, Note_on_c, 2, 67, 0
4, 238800, Note_on_c, 2, 70, 96
4, 238800, Note_on_c, 2, 67, 96
4, 239039, Note_on_c, 2, 67, 0
4, 239039, Note_on_c, 2, 70, 0
4, 239160, Note_on_c, 2, 68, 96
4, 239160, Note_on_c, 2, 70, 96
4, 239399, Note_on_c, 2, 70, 0
4, 239399, Note_on_c, 2, 68, 0
4, 239520, Note_on_c, 2, 65, 96
4, 239520, Note_on_c, 2, 70, 96
4, 239639, Note_on_c, 2, 70, 0
4, 239639, Note_on_c, 2, 65, 0
4, 239640, Note_on_c, 2, 70, 96
4, 239640, Note_on_c, 2, 65, 96
4, 239759, Note_on_c, 2, 65, 0
4, 239759, Note_on_c, 2, 70, 0
4, 239760, Note_on_c, 2, 67, 127
4, 239760, Note_on_c, 2, 70, 127
4, 239879, Note_on_c, 2, 70, 0
4, 239879, Note_on_c, 2, 67, 0
4, 240480, Note_on_c, 2, 77, 127
4, 240480, Note_on_c, 2, 65, 127
4, 240539, Note_on_c, 2, 65, 0
4, 240539, Note_on_c, 2, 77, 0
4, 240600, Note_on_c, 2, 68, 127
4, 240600, Note_on_c, 2, 80, 127
4, 240779, Note_on_c, 2, 80, 0
4, 240779, Note_on_c, 2, 68, 0
4, 240780, Note_on_c, 2, 58, 127
4, 240780, Note_on_c, 2, 70, 127
4, 240839, Note_on_c, 2, 70, 0
4, 240839, Note_on_c, 2, 58, 0
4, 240840, Note_on_c, 2, 74, 127
4, 240840, Note_on_c, 2, 62, 127
4, 240899, Note_on_c, 2, 62, 0
4, 240899, Note_on_c, 2, 74, 0
4, 240960, Note_on_c, 2, 77, 127
4, 240960, Note_on_c, 2, 65, 127
4, 241139, Note_on_c, 2, 65, 0
4, 241139, Note_on_c, 2, 77, 0
4, 241140, Note_on_c, 2, 58, 127
4, 241140, Note_on_c, 2, 70, 127
4, 241199, Note_on_c, 2, 70, 0
4, 241199, Note_on_c, 2, 58, 0
4, 241200, Note_on_c, 2, 70, 127
4, 241200, Note_on_c, 2, 75, 127
4, 241500, Note_on_c, 2, 69, 127
4, 241509, Note_on_c, 2, 70, 0
4, 241560, Note_on_c, 2, 70, 127
4, 241569, Note_on_c, 2, 69, 0
4, 241679, Note_on_c, 2, 70, 0
4, 241679, Note_on_c, 2, 75, 0
4, 242940, Note_on_c, 2, 67, 127
4, 242940, Note_on_c, 2, 71, 127
4, 242999, Note_on_c, 2, 71, 0
4, 242999, Note_on_c, 2, 67, 0
4, 243000, Note_on_c, 2, 72, 127
4, 243000, Note_on_c, 2, 67, 127
4, 243029, Note_on_c, 2, 67, 0
4, 243029, Note_on_c, 2, 72, 0
4, 243060, Note_on_c, 2, 74, 127
4, 243060, Note_on_c, 2, 67, 127
4, 243089, Note_on_c, 2, 67, 0
4, 243089, Note_on_c, 2, 74, 0
4, 243120, Note_on_c, 2, 75, 127
4, 243120, Note_on_c, 2, 67, 127
4, 243149, Note_on_c, 2, 67, 0
4, 243149, Note_on_c, 2, 75, 0
4, 243180, Note_on_c, 2, 76, 127
4, 243180, Note_on_c, 2, 72, 127
4, 243209, Note_on_c, 2, 72, 0
4, 243209, Note_on_c, 2, 76, 0
4, 243240, Note_on_c, 2, 77, 127
4, 243240, Note_on_c, 2, 72, 127
4, 243269, Note_on_c, 2, 72, 0
4, 243269, Note_on_c, 2, 77, 0
4, 243300, Note_on_c, 2, 78, 127
4, 243300, Note_on_c, 2, 72, 127
4, 243329, Note_on_c, 2, 72, 0
4, 243329, Note_on_c, 2, 78, 0
4, 243360, Note_on_c, 2, 71, 127
4, 243360, Note_on_c, 2, 79, 127
4, 243419, Note_on_c, 2, 79, 0
4, 243419, Note_on_c, 2, 71, 0
4, 243480, Note_on_c, 2, 74, 127
4, 243480, Note_on_c, 2, 77, 127
4, 243539, Note_on_c, 2, 77, 0
4, 243539, Note_on_c, 2, 74, 0
4, 243600, Note_on_c, 2, 72, 127
4, 243600, Note_on_c, 2, 75, 127
4, 243659, Note_on_c, 2, 75, 0
4, 243659, Note_on_c, 2, 72, 0
4, 243840, Note_on_c, 2, 70, 127
4, 243840, Note_on_c, 2, 73, 127
4, 243899, Note_on_c, 2, 73, 0
4, 243899, Note_on_c, 2, 70, 0
4, 243960, Note_on_c, 2, 72, 127
4, 243960, Note_on_c, 2, 68, 127
4, 244019, Note_on_c, 2, 68, 0
4, 244019, Note_on_c, 2, 72, 0
4, 244200, Note_on_c, 2, 75, 127
4, 244200, Note_on_c, 2, 72, 127
4, 244259, Note_on_c, 2, 72, 0
4, 244259, Note_on_c, 2, 75, 0
4, 244320, Note_on_c, 2, 70, 127
4, 244320, Note_on_c, 2, 74, 127
4, 244379, Note_on_c, 2, 74, 0
4, 244379, Note_on_c, 2, 70, 0
4, 244560, Note_on_c, 2, 77, 127
4, 244560, Note_on_c, 2, 74, 127
4, 244619, Note_on_c, 2, 74, 0
4, 244619, Note_on_c, 2, 77, 0
4, 244680, Note_on_c, 2, 72, 127
4, 244680, Note_on_c, 2, 75, 127
4, 244739, Note_on_c, 2, 75, 0
4, 244739, Note_on_c, 2, 72, 0
4, 244920, Note_on_c, 2, 73, 127
4, 244920, Note_on_c, 2, 70, 127
4, 244979, Note_on_c, 2, 70, 0
4, 244979, Note_on_c, 2, 73, 0
4, 245040, Note_on_c, 2, 68, 127
4, 245040, Note_on_c, 2, 72, 127
4, 245099, Note_on_c, 2, 72, 0
4, 245099, Note_on_c, 2, 68, 0
4, 245280, Note_on_c, 2, 75, 127
4, 245280, Note_on_c, 2, 66, 127
4, 245339, Note_on_c, 2, 66, 0
4, 245339, Note_on_c, 2, 75, 0
4, 245520, Note_on_c, 2, 66, 127
4, 245520, Note_on_c, 2, 75, 127
4, 245579, Note_on_c, 2, 75, 0
4, 245579, Note_on_c, 2, 66, 0
4, 245760, Note_on_c, 2, 75, 127
4, 245760, Note_on_c, 2, 66, 127
4, 245819, Note_on_c, 2, 66, 0
4, 245819, Note_on_c, 2, 75, 0
4, 246000, Note_on_c, 2, 66, 127
4, 246000, Note_on_c, 2, 75, 127
4, 246059, Note_on_c, 2, 75, 0
4, 246059, Note_on_c, 2, 66, 0
4, 246240, Note_on_c, 2, 75, 127
4, 246240, Note_on_c, 2, 66, 127
4, 246299, Note_on_c, 2, 66, 0
4, 246299, Note_on_c, 2, 75, 0
4, 246480, Note_on_c, 2, 66, 127
4, 246480, Note_on_c, 2, 75, 127
4, 246539, Note_on_c, 2, 75, 0
4, 246539, Note_on_c, 2, 66, 0
4, 246960, Note_on_c, 2, 63, 96
4, 246960, Note_on_c, 2, 69, 96
4, 246989, Note_on_c, 2, 69, 0
4, 246989, Note_on_c, 2, 63, 0
4, 246990, Note_on_c, 2, 69, 48
4, 246990, Note_on_c, 2, 63, 48
4, 247319, Note_on_c, 2, 69, 0
4, 247320, Note_on_c, 2, 70, 48
4, 247679, Note_on_c, 2, 70, 0
4, 247679, Note_on_c, 2, 63, 0
4, 247680, Note_on_c, 2, 63, 96
4, 247680, Note_on_c, 2, 69, 96
4, 247709, Note_on_c, 2, 69, 0
4, 247709, Note_on_c, 2, 63, 0
4, 247710, Note_on_c, 2, 69, 48
4, 247710, Note_on_c, 2, 63, 48
4, 248160, Note_on_c, 2, 68, 48
4, 248169, Note_on_c, 2, 69, 0
4, 248279, Note_on_c, 2, 68, 0
4, 248279, Note_on_c, 2, 63, 0
4, 248280, Note_on_c, 2, 68, 48
4, 248339, Note_on_c, 2, 68, 0
4, 248520, Note_on_c, 2, 68, 48
4, 248579, Note_on_c, 2, 68, 0
4, 248760, Note_on_c, 2, 68, 48
4, 248760, Note_on_c, 2, 70, 48
4, 248819, Note_on_c, 2, 70, 0
4, 248819, Note_on_c, 2, 68, 0
4, 249000, Note_on_c, 2, 70, 48
4, 249000, Note_on_c, 2, 68, 48
4, 249059, Note_on_c, 2, 68, 0
4, 249059, Note_on_c, 2, 70, 0
4, 249240, Note_on_c, 2, 70, 48
4, 249240, Note_on_c, 2, 67, 48
4, 249299, Note_on_c, 2, 67, 0
4, 249299, Note_on_c, 2, 70, 0
4, 250020, Note_on_c, 2, 68, 87
4, 250020, Note_on_c, 2, 72, 87
4, 250080, Note_on_c, 2, 67, 92
4, 250080, Note_on_c, 2, 70, 92
4, 250089, Note_on_c, 2, 72, 0
4, 250089, Note_on_c, 2, 68, 0
4, 250140, Note_on_c, 2, 65, 97
4, 250140, Note_on_c, 2, 68, 97
4, 250149, Note_on_c, 2, 67, 0
4, 250149, Note_on_c, 2, 70, 0
4, 250199, Note_on_c, 2, 65, 0
4, 250199, Note_on_c, 2, 68, 0
4, 250200, Note_on_c, 2, 67, 102
4, 250200, Note_on_c, 2, 63, 102
4, 250229, Note_on_c, 2, 63, 0
4, 250229, Note_on_c, 2, 67, 0
4, 250260, Note_on_c, 2, 63, 107
4, 250289, Note_on_c, 2, 63, 0
4, 250320, Note_on_c, 2, 63, 112
4, 250320, Note_on_c, 2, 67, 112
4, 250349, Note_on_c, 2, 67, 0
4, 250349, Note_on_c, 2, 63, 0
4, 250380, Note_on_c, 2, 70, 117
4, 250380, Note_on_c, 2, 67, 117
4, 250409, Note_on_c, 2, 67, 0
4, 250409, Note_on_c, 2, 70, 0
4, 250440, Note_on_c, 2, 67, 117
4, 250440, Note_on_c, 2, 75, 117
4, 250469, Note_on_c, 2, 75, 0
4, 250469, Note_on_c, 2, 67, 0
4, 250500, Note_on_c, 2, 70, 122
4, 250500, Note_on_c, 2, 79, 122
4, 250529, Note_on_c, 2, 79, 0
4, 250529, Note_on_c, 2, 70, 0
4, 250560, Note_on_c, 2, 68, 127
4, 250560, Note_on_c, 2, 74, 127
4, 250919, Note_on_c, 2, 74, 0
4, 250919, Note_on_c, 2, 68, 0
4, 250920, Note_on_c, 2, 75, 96
4, 250920, Note_on_c, 2, 67, 96
4, 251039, Note_on_c, 2, 67, 0
4, 251039, Note_on_c, 2, 75, 0
4, 251280, Note_on_c, 2, 75, 96
4, 251399, Note_on_c, 2, 75, 0
4, 251640, Note_on_c, 2, 75, 96
4, 251759, Note_on_c, 2, 75, 0
4, 252000, Note_on_c, 2, 65, 96
4, 252000, Note_on_c, 2, 74, 96
4, 252059, Note_on_c, 2, 74, 0
4, 252059, Note_on_c, 2, 65, 0
4, 252120, Note_on_c, 2, 65, 96
4, 252120, Note_on_c, 2, 74, 96
4, 252179, Note_on_c, 2, 74, 0
4, 252179, Note_on_c, 2, 65, 0
4, 252240, Note_on_c, 2, 65, 96
4, 252240, Note_on_c, 2, 74, 96
4, 252299, Note_on_c, 2, 74, 0
4, 252299, Note_on_c, 2, 65, 0
4, 252360, Note_on_c, 2, 67, 96
4, 252360, Note_on_c, 2, 75, 96
4, 252479, Note_on_c, 2, 75, 0
4, 252479, Note_on_c, 2, 67, 0
4, 252900, Note_on_c, 2, 63, 48
4, 252960, Note_on_c, 2, 67, 48
4, 252969, Note_on_c, 2, 63, 0
4, 253020, Note_on_c, 2, 70, 48
4, 253029, Note_on_c, 2, 67, 0
4, 253079, Note_on_c, 2, 70, 0
4, 253080, Note_on_c, 2, 75, 48
4, 253320, Note_on_c, 2, 79, 48
4, 253329, Note_on_c, 2, 75, 0
4, 253440, Note_on_c, 2, 75, 48
4, 253449, Note_on_c, 2, 79, 0
4, 253680, Note_on_c, 2, 70, 48
4, 253689, Note_on_c, 2, 75, 0
4, 253800, Note_on_c, 2, 75, 48
4, 253809, Note_on_c, 2, 70, 0
4, 253919, Note_on_c, 2, 75, 0
4, 254520, Note_on_c, 2, 65, 96
4, 254520, Note_on_c, 2, 73, 96
4, 255239, Note_on_c, 2, 73, 0
4, 255240, Note_on_c, 2, 73, 48
4, 255240, Note_on_c, 2, 61, 48
4, 255249, Note_on_c, 2, 65, 0
4, 255359, Note_on_c, 2, 61, 0
4, 255359, Note_on_c, 2, 73, 0
4, 255960, Note_on_c, 2, 72, 127
4, 255960, Note_on_c, 2, 64, 127
4, 256679, Note_on_c, 2, 64, 0
4, 256679, Note_on_c, 2, 72, 0
4, 256680, Note_on_c, 2, 64, 48
4, 256680, Note_on_c, 2, 72, 48
4, 256799, Note_on_c, 2, 72, 0
4, 256799, Note_on_c, 2, 64, 0
4, 260280, Note_on_c, 2, 60, 32
4, 260280, Note_on_c, 2, 72, 32
4, 261839, Note_on_c, 2, 72, 0
4, 261839, Note_on_c, 2, 60, 0
4, 263280, Note_on_c, 2, 68, 48
4, 263400, Note_on_c, 2, 70, 48
4, 263409, Note_on_c, 2, 68, 0
4, 263520, Note_on_c, 2, 72, 64
4, 263529, Note_on_c, 2, 70, 0
4, 263700, Note_on_c, 2, 70, 48
4, 263709, Note_on_c, 2, 72, 0
4, 263760, Note_on_c, 2, 68, 48
4, 263769, Note_on_c, 2, 70, 0
4, 263879, Note_on_c, 2, 68, 0
4, 263880, Note_on_c, 2, 67, 48
4, 264000, Note_on_c, 2, 72, 48
4, 264009, Note_on_c, 2, 67, 0
4, 264119, Note_on_c, 2, 72, 0
4, 264120, Note_on_c, 2, 72, 48
4, 264239, Note_on_c, 2, 72, 0
4, 264240, Note_on_c, 2, 72, 64
4, 264540, Note_on_c, 2, 70, 48
4, 264549, Note_on_c, 2, 72, 0
4, 264600, Note_on_c, 2, 68, 48
4, 264609, Note_on_c, 2, 70, 0
4, 264719, Note_on_c, 2, 68, 0
4, 264720, Note_on_c, 2, 68, 48
4, 264840, Note_on_c, 2, 70, 48
4, 264849, Note_on_c, 2, 68, 0
4, 264960, Note_on_c, 2, 72, 64
4, 264969, Note_on_c, 2, 70, 0
4, 265140, Note_on_c, 2, 70, 48
4, 265149, Note_on_c, 2, 72, 0
4, 265200, Note_on_c, 2, 68, 48
4, 265209, Note_on_c, 2, 70, 0
4, 265319, Note_on_c, 2, 68, 0
4, 265680, Note_on_c, 2, 58, 64
4, 265680, Note_on_c, 2, 70, 64
4, 266159, Note_on_c, 2, 70, 0
4, 266159, Note_on_c, 2, 58, 0
4, 266160, Note_on_c, 2, 75, 48
4, 266160, Note_on_c, 2, 66, 48
4, 266280, Note_on_c, 2, 74, 48
4, 266280, Note_on_c, 2, 68, 48
4, 266289, Note_on_c, 2, 66, 0
4, 266289, Note_on_c, 2, 75, 0
4, 266400, Note_on_c, 2, 75, 64
4, 266400, Note_on_c, 2, 70, 64
4, 266409, Note_on_c, 2, 74, 0
4, 266409, Note_on_c, 2, 68, 0
4, 266580, Note_on_c, 2, 77, 48
4, 266580, Note_on_c, 2, 74, 48
4, 266589, Note_on_c, 2, 75, 0
4, 266589, Note_on_c, 2, 70, 0
4, 266640, Note_on_c, 2, 78, 48
4, 266640, Note_on_c, 2, 75, 48
4, 266649, Note_on_c, 2, 77, 0
4, 266649, Note_on_c, 2, 74, 0
4, 266759, Note_on_c, 2, 78, 0
4, 266759, Note_on_c, 2, 75, 0
4, 266760, Note_on_c, 2, 77, 48
4, 266760, Note_on_c, 2, 70, 48
4, 266879, Note_on_c, 2, 77, 0
4, 266880, Note_on_c, 2, 82, 48
4, 266880, Note_on_c, 2, 77, 48
4, 266889, Note_on_c, 2, 70, 0
4, 267000, Note_on_c, 2, 81, 48
4, 267000, Note_on_c, 2, 75, 48
4, 267009, Note_on_c, 2, 77, 0
4, 267009, Note_on_c, 2, 82, 0
4, 267120, Note_on_c, 2, 82, 64
4, 267120, Note_on_c, 2, 74, 64
4, 267129, Note_on_c, 2, 81, 0
4, 267129, Note_on_c, 2, 75, 0
4, 267300, Note_on_c, 2, 80, 48
4, 267309, Note_on_c, 2, 82, 0
4, 267360, Note_on_c, 2, 78, 48
4, 267360, Note_on_c, 2, 75, 48
4, 267369, Note_on_c, 2, 80, 0
4, 267369, Note_on_c, 2, 74, 0
4, 267420, Note_on_c, 2, 77, 48
4, 267420, Note_on_c, 2, 70, 48
4, 267429, Note_on_c, 2, 78, 0
4, 267429, Note_on_c, 2, 75, 0
4, 267479, Note_on_c, 2, 77, 0
4, 267479, Note_on_c, 2, 70, 0
4, 267480, Note_on_c, 2, 75, 48
4, 267480, Note_on_c, 2, 66, 48
4, 267599, Note_on_c, 2, 66, 0
4, 267599, Note_on_c, 2, 75, 0
4, 267600, Note_on_c, 2, 75, 48
4, 267600, Note_on_c, 2, 66, 48
4, 267720, Note_on_c, 2, 74, 48
4, 267720, Note_on_c, 2, 68, 48
4, 267729, Note_on_c, 2, 66, 0
4, 267729, Note_on_c, 2, 75, 0
4, 267840, Note_on_c, 2, 75, 64
4, 267840, Note_on_c, 2, 70, 64
4, 267849, Note_on_c, 2, 74, 0
4, 267849, Note_on_c, 2, 68, 0
4, 268020, Note_on_c, 2, 77, 48
4, 268020, Note_on_c, 2, 74, 48
4, 268029, Note_on_c, 2, 75, 0
4, 268029, Note_on_c, 2, 70, 0
4, 268080, Note_on_c, 2, 78, 48
4, 268080, Note_on_c, 2, 75, 48
4, 268089, Note_on_c, 2, 77, 0
4, 268089, Note_on_c, 2, 74, 0
4, 268199, Note_on_c, 2, 78, 0
4, 268199, Note_on_c, 2, 75, 0
4, 268200, Note_on_c, 2, 77, 48
4, 268200, Note_on_c, 2, 74, 48
4, 268319, Note_on_c, 2, 74, 0
4, 268319, Note_on_c, 2, 77, 0
4, 273240, Note_on_c, 2, 72, 32
4, 273840, Note_on_c, 2, 73, 32
4, 273849, Note_on_c, 2, 72, 0
4, 273960, Note_on_c, 2, 74, 32
4, 273969, Note_on_c, 2, 73, 0
4, 274439, Note_on_c, 2, 74, 0
4, 274440, Note_on_c, 2, 74, 32
4, 274499, Note_on_c, 2, 74, 0
4, 274560, Note_on_c, 2, 70, 32
4, 274619, Note_on_c, 2, 70, 0
4, 274680, Note_on_c, 2, 77, 32
4, 274800, Note_on_c, 2, 75, 32
4, 274809, Note_on_c, 2, 77, 0
4, 275159, Note_on_c, 2, 75, 0
4, 275160, Note_on_c, 2, 75, 32
4, 275219, Note_on_c, 2, 75, 0
4, 275280, Note_on_c, 2, 70, 32
4, 275339, Note_on_c, 2, 70, 0
4, 275400, Note_on_c, 2, 78, 32
4, 275519, Note_on_c, 2, 78, 0
4, 275520, Note_on_c, 2, 78, 34
4, 275879, Note_on_c, 2, 78, 0
4, 275880, Note_on_c, 2, 78, 36
4, 276239, Note_on_c, 2, 78, 0
4, 276240, Note_on_c, 2, 78, 40
4, 276329, Note_on_c, 2, 78, 0
4, 276360, Note_on_c, 2, 78, 42
4, 276449, Note_on_c, 2, 78, 0
4, 276480, Note_on_c, 2, 78, 43
4, 276600, Note_on_c, 2, 77, 44
4, 276609, Note_on_c, 2, 78, 0
4, 276720, Note_on_c, 2, 75, 46
4, 276729, Note_on_c, 2, 77, 0
4, 276839, Note_on_c, 2, 75, 0
4, 276840, Note_on_c, 2, 74, 48
4, 276959, Note_on_c, 2, 74, 0
4, 278520, Note_on_c, 2, 72, 48
4, 278520, Note_on_c, 2, 67, 48
4, 278579, Note_on_c, 2, 67, 0
4, 278579, Note_on_c, 2, 72, 0
4, 278760, Note_on_c, 2, 67, 48
4, 278760, Note_on_c, 2, 72, 48
4, 278819, Note_on_c, 2, 72, 0
4, 278819, Note_on_c, 2, 67, 0
4, 279000, Note_on_c, 2, 72, 48
4, 279000, Note_on_c, 2, 65, 48
4, 279059, Note_on_c, 2, 65, 0
4, 279059, Note_on_c, 2, 72, 0
4, 279240, Note_on_c, 2, 65, 48
4, 279240, Note_on_c, 2, 72, 48
4, 279299, Note_on_c, 2, 72, 0
4, 279299, Note_on_c, 2, 65, 0
4, 279480, Note_on_c, 2, 72, 48
4, 279480, Note_on_c, 2, 65, 48
4, 279539, Note_on_c, 2, 65, 0
4, 279539, Note_on_c, 2, 72, 0
4, 279720, Note_on_c, 2, 70, 48
4, 279720, Note_on_c, 2, 67, 48
4, 280199, Note_on_c, 2, 67, 0
4, 280199, Note_on_c, 2, 70, 0
4, 280200, Note_on_c, 2, 63, 56
4, 280200, Note_on_c, 2, 67, 56
4, 280259, Note_on_c, 2, 67, 0
4, 280259, Note_on_c, 2, 63, 0
4, 280320, Note_on_c, 2, 63, 58
4, 280320, Note_on_c, 2, 67, 58
4, 280379, Note_on_c, 2, 67, 0
4, 280379, Note_on_c, 2, 63, 0
4, 280440, Note_on_c, 2, 62, 60
4, 280440, Note_on_c, 2, 65, 60
4, 280499, Note_on_c, 2, 65, 0
4, 280499, Note_on_c, 2, 62, 0
4, 280560, Note_on_c, 2, 62, 62
4, 280560, Note_on_c, 2, 65, 62
4, 280619, Note_on_c, 2, 65, 0
4, 280619, Note_on_c, 2, 62, 0
4, 280680, Note_on_c, 2, 62, 64
4, 280680, Note_on_c, 2, 65, 64
4, 280739, Note_on_c, 2, 65, 0
4, 280739, Note_on_c, 2, 62, 0
4, 280800, Note_on_c, 2, 62, 48
4, 280800, Note_on_c, 2, 65, 48
4, 280859, Note_on_c, 2, 65, 0
4, 280859, Note_on_c, 2, 62, 0
4, 280920, Note_on_c, 2, 62, 48
4, 280920, Note_on_c, 2, 65, 48
4, 280979, Note_on_c, 2, 65, 0
4, 280979, Note_on_c, 2, 62, 0
4, 281040, Note_on_c, 2, 62, 48
4, 281040, Note_on_c, 2, 65, 48
4, 281099, Note_on_c, 2, 65, 0
4, 281099, Note_on_c, 2, 62, 0
4, 281160, Note_on_c, 2, 63, 48
4, 281160, Note_on_c, 2, 67, 48
4, 281219, Note_on_c, 2, 67, 0
4, 281219, Note_on_c, 2, 63, 0
4, 284040, Note_on_c, 2, 55, 48
4, 284040, Note_on_c, 2, 70, 48
4, 284100, Note_on_c, 2, 58, 48
4, 284109, Note_on_c, 2, 55, 0
4, 284160, Note_on_c, 2, 63, 48
4, 284169, Note_on_c, 2, 58, 0
4, 284220, Note_on_c, 2, 58, 48
4, 284229, Note_on_c, 2, 63, 0
4, 284280, Note_on_c, 2, 55, 48
4, 284289, Note_on_c, 2, 58, 0
4, 284340, Note_on_c, 2, 58, 48
4, 284349, Note_on_c, 2, 55, 0
4, 284399, Note_on_c, 2, 58, 0
4, 284400, Note_on_c, 2, 55, 48
4, 284460, Note_on_c, 2, 58, 48
4, 284469, Note_on_c, 2, 55, 0
4, 284520, Note_on_c, 2, 63, 48
4, 284529, Note_on_c, 2, 58, 0
4, 284580, Note_on_c, 2, 58, 48
4, 284589, Note_on_c, 2, 63, 0
4, 284640, Note_on_c, 2, 55, 48
4, 284649, Note_on_c, 2, 58, 0
4, 284700, Note_on_c, 2, 58, 48
4, 284709, Note_on_c, 2, 55, 0
4, 284759, Note_on_c, 2, 58, 0
4, 284760, Note_on_c, 2, 55, 48
4, 284820, Note_on_c, 2, 58, 48
4, 284829, Note_on_c, 2, 55, 0
4, 284880, Note_on_c, 2, 63, 48
4, 284889, Note_on_c, 2, 58, 0
4, 284940, Note_on_c, 2, 58, 48
4, 284949, Note_on_c, 2, 63, 0
4, 285000, Note_on_c, 2, 55, 48
4, 285009, Note_on_c, 2, 58, 0
4, 285060, Note_on_c, 2, 58, 48
4, 285069, Note_on_c, 2, 55, 0
4, 285119, Note_on_c, 2, 58, 0
4, 285120, Note_on_c, 2, 55, 48
4, 285180, Note_on_c, 2, 58, 48
4, 285189, Note_on_c, 2, 55, 0
4, 285240, Note_on_c, 2, 63, 48
4, 285249, Note_on_c, 2, 58, 0
4, 285300, Note_on_c, 2, 58, 48
4, 285309, Note_on_c, 2, 63, 0
4, 285360, Note_on_c, 2, 55, 48
4, 285369, Note_on_c, 2, 58, 0
4, 285420, Note_on_c, 2, 58, 48
4, 285429, Note_on_c, 2, 55, 0
4, 285479, Note_on_c, 2, 58, 0
4, 285480, Note_on_c, 2, 56, 48
4, 285540, Note_on_c, 2, 58, 48
4, 285549, Note_on_c, 2, 56, 0
4, 285600, Note_on_c, 2, 65, 48
4, 285609, Note_on_c, 2, 58, 0
4, 285660, Note_on_c, 2, 58, 48
4, 285669, Note_on_c, 2, 65, 0
4, 285720, Note_on_c, 2, 56, 48
4, 285729, Note_on_c, 2, 58, 0
4, 285780, Note_on_c, 2, 58, 48
4, 285789, Note_on_c, 2, 56, 0
4, 285839, Note_on_c, 2, 58, 0
4, 285840, Note_on_c, 2, 56, 48
4, 285900, Note_on_c, 2, 58, 48
4, 285909, Note_on_c, 2, 56, 0
4, 285960, Note_on_c, 2, 65, 48
4, 285969, Note_on_c, 2, 58, 0
4, 286020, Note_on_c, 2, 58, 48
4, 286029, Note_on_c, 2, 65, 0
4, 286080, Note_on_c, 2, 56, 48
4, 286089, Note_on_c, 2, 58, 0
4, 286140, Note_on_c, 2, 58, 48
4, 286149, Note_on_c, 2, 56, 0
4, 286199, Note_on_c, 2, 58, 0
4, 286200, Note_on_c, 2, 56, 48
4, 286260, Note_on_c, 2, 58, 48
4, 286269, Note_on_c, 2, 56, 0
4, 286320, Note_on_c, 2, 62, 48
4, 286329, Note_on_c, 2, 58, 0
4, 286380, Note_on_c, 2, 58, 48
4, 286389, Note_on_c, 2, 62, 0
4, 286440, Note_on_c, 2, 56, 48
4, 286449, Note_on_c, 2, 58, 0
4, 286500, Note_on_c, 2, 58, 48
4, 286509, Note_on_c, 2, 56, 0
4, 286559, Note_on_c, 2, 58, 0
4, 286560, Note_on_c, 2, 56, 48
4, 286620, Note_on_c, 2, 58, 48
4, 286629, Note_on_c, 2, 56, 0
4, 286680, Note_on_c, 2, 62, 48
4, 286689, Note_on_c, 2, 58, 0
4, 286740, Note_on_c, 2, 58, 48
4, 286749, Note_on_c, 2, 62, 0
4, 286800, Note_on_c, 2, 56, 48
4, 286809, Note_on_c, 2, 58, 0
4, 286860, Note_on_c, 2, 58, 48
4, 286869, Note_on_c, 2, 56, 0
4, 286919, Note_on_c, 2, 58, 0
4, 286920, Note_on_c, 2, 55, 48
4, 286979, Note_on_c, 2, 55, 0
4, 286979, Note_on_c, 2, 70, 0
4, 286980, Note_on_c, 2, 67, 49
4, 287010, Note_on_c, 2, 68, 49
4, 287019, Note_on_c, 2, 67, 0
4, 287040, Note_on_c, 2, 70, 50
4, 287049, Note_on_c, 2, 68, 0
4, 287069, Note_on_c, 2, 70, 0
4, 287100, Note_on_c, 2, 70, 51
4, 287129, Note_on_c, 2, 70, 0
4, 287160, Note_on_c, 2, 72, 52
4, 287189, Note_on_c, 2, 72, 0
4, 287220, Note_on_c, 2, 74, 53
4, 287249, Note_on_c, 2, 74, 0
4, 287280, Note_on_c, 2, 75, 54
4, 287309, Note_on_c, 2, 75, 0
4, 287340, Note_on_c, 2, 70, 55
4, 287369, Note_on_c, 2, 70, 0
4, 287400, Note_on_c, 2, 72, 56
4, 287429, Note_on_c, 2, 72, 0
4, 287460, Note_on_c, 2, 74, 57
4, 287489, Note_on_c, 2, 74, 0
4, 287520, Note_on_c, 2, 75, 58
4, 287549, Note_on_c, 2, 75, 0
4, 287580, Note_on_c, 2, 77, 59
4, 287609, Note_on_c, 2, 77, 0
4, 287640, Note_on_c, 2, 79, 76
4, 287669, Note_on_c, 2, 79, 0
4, 287700, Note_on_c, 2, 79, 61
4, 287730, Note_on_c, 2, 77, 61
4, 287739, Note_on_c, 2, 79, 0
4, 287760, Note_on_c, 2, 75, 62
4, 287769, Note_on_c, 2, 77, 0
4, 287789, Note_on_c, 2, 75, 0
4, 287820, Note_on_c, 2, 74, 63
4, 287849, Note_on_c, 2, 74, 0
4, 287880, Note_on_c, 2, 72, 64
4, 287909, Note_on_c, 2, 72, 0
4, 287940, Note_on_c, 2, 70, 65
4, 287969, Note_on_c, 2, 70, 0
4, 288000, Note_on_c, 2, 68, 66
4, 288029, Note_on_c, 2, 68, 0
4, 288060, Note_on_c, 2, 67, 67
4, 288089, Note_on_c, 2, 67, 0
4, 288120, Note_on_c, 2, 65, 68
4, 288149, Note_on_c, 2, 65, 0
4, 288180, Note_on_c, 2, 63, 69
4, 288209, Note_on_c, 2, 63, 0
4, 288240, Note_on_c, 2, 62, 70
4, 288269, Note_on_c, 2, 62, 0
4, 288300, Note_on_c, 2, 60, 71
4, 288329, Note_on_c, 2, 60, 0
4, 288360, Note_on_c, 2, 58, 72
4, 288389, Note_on_c, 2, 58, 0
4, 288420, Note_on_c, 2, 58, 73
4, 288450, Note_on_c, 2, 60, 73
4, 288459, Note_on_c, 2, 58, 0
4, 288480, Note_on_c, 2, 62, 74
4, 288489, Note_on_c, 2, 60, 0
4, 288509, Note_on_c, 2, 62, 0
4, 288540, Note_on_c, 2, 63, 75
4, 288569, Note_on_c, 2, 63, 0
4, 288600, Note_on_c, 2, 65, 76
4, 288629, Note_on_c, 2, 65, 0
4, 288660, Note_on_c, 2, 67, 77
4, 288689, Note_on_c, 2, 67, 0
4, 288720, Note_on_c, 2, 68, 78
4, 288839, Note_on_c, 2, 68, 0
4, 288900, Note_on_c, 2, 75, 81
4, 288900, Note_on_c, 2, 63, 81
4, 288929, Note_on_c, 2, 63, 0
4, 288929, Note_on_c, 2, 75, 0
4, 288960, Note_on_c, 2, 77, 82
4, 288960, Note_on_c, 2, 65, 82
4, 288989, Note_on_c, 2, 65, 0
4, 288989, Note_on_c, 2, 77, 0
4, 289020, Note_on_c, 2, 79, 83
4, 289020, Note_on_c, 2, 67, 83
4, 289049, Note_on_c, 2, 67, 0
4, 289049, Note_on_c, 2, 79, 0
4, 289080, Note_on_c, 2, 80, 100
4, 289080, Note_on_c, 2, 68, 100
4, 289109, Note_on_c, 2, 68, 0
4, 289109, Note_on_c, 2, 80, 0
4, 289140, Note_on_c, 2, 79, 85
4, 289140, Note_on_c, 2, 67, 85
4, 289169, Note_on_c, 2, 67, 0
4, 289169, Note_on_c, 2, 79, 0
4, 289200, Note_on_c, 2, 77, 86
4, 289200, Note_on_c, 2, 65, 86
4, 289229, Note_on_c, 2, 65, 0
4, 289229, Note_on_c, 2, 77, 0
4, 289260, Note_on_c, 2, 75, 87
4, 289260, Note_on_c, 2, 63, 87
4, 289289, Note_on_c, 2, 63, 0
4, 289289, Note_on_c, 2, 75, 0
4, 289320, Note_on_c, 2, 74, 88
4, 289320, Note_on_c, 2, 62, 88
4, 289349, Note_on_c, 2, 62, 0
4, 289349, Note_on_c, 2, 74, 0
4, 289380, Note_on_c, 2, 72, 89
4, 289380, Note_on_c, 2, 60, 89
4, 289409, Note_on_c, 2, 60, 0
4, 289409, Note_on_c, 2, 72, 0
4, 289440, Note_on_c, 2, 70, 90
4, 289440, Note_on_c, 2, 58, 90
4, 289469, Note_on_c, 2, 58, 0
4, 289469, Note_on_c, 2, 70, 0
4, 289500, Note_on_c, 2, 72, 91
4, 289500, Note_on_c, 2, 60, 91
4, 289529, Note_on_c, 2, 60, 0
4, 289529, Note_on_c, 2, 72, 0
4, 289560, Note_on_c, 2, 70, 92
4, 289560, Note_on_c, 2, 58, 92
4, 289589, Note_on_c, 2, 58, 0
4, 289589, Note_on_c, 2, 70, 0
4, 289620, Note_on_c, 2, 68, 93
4, 289649, Note_on_c, 2, 68, 0
4, 289680, Note_on_c, 2, 67, 94
4, 289709, Note_on_c, 2, 67, 0
4, 289740, Note_on_c, 2, 65, 95
4, 289769, Note_on_c, 2, 65, 0
4, 289800, Note_on_c, 2, 63, 96
4, 289859, Note_on_c, 2, 63, 0
4, 289860, Note_on_c, 2, 75, 96
4, 289860, Note_on_c, 2, 63, 96
4, 289919, Note_on_c, 2, 63, 0
4, 289919, Note_on_c, 2, 75, 0
4, 289920, Note_on_c, 2, 75, 96
4, 289920, Note_on_c, 2, 63, 96
4, 289979, Note_on_c, 2, 63, 0
4, 289979, Note_on_c, 2, 75, 0
4, 289980, Note_on_c, 2, 75, 96
4, 289980, Note_on_c, 2, 63, 96
4, 290039, Note_on_c, 2, 63, 0
4, 290039, Note_on_c, 2, 75, 0
4, 290040, Note_on_c, 2, 79, 96
4, 290040, Note_on_c, 2, 67, 96
4, 290099, Note_on_c, 2, 67, 0
4, 290099, Note_on_c, 2, 79, 0
4, 290100, Note_on_c, 2, 79, 96
4, 290100, Note_on_c, 2, 67, 96
4, 290159, Note_on_c, 2, 67, 0
4, 290159, Note_on_c, 2, 79, 0
4, 290160, Note_on_c, 2, 75, 96
4, 290160, Note_on_c, 2, 63, 96
4, 290219, Note_on_c, 2, 63, 0
4, 290219, Note_on_c, 2, 75, 0
4, 290220, Note_on_c, 2, 75, 96
4, 290220, Note_on_c, 2, 63, 96
4, 290279, Note_on_c, 2, 63, 0
4, 290279, Note_on_c, 2, 75, 0
4, 290280, Note_on_c, 2, 75, 96
4, 290280, Note_on_c, 2, 63, 96
4, 290339, Note_on_c, 2, 63, 0
4, 290339, Note_on_c, 2, 75, 0
4, 290340, Note_on_c, 2, 75, 96
4, 290340, Note_on_c, 2, 63, 96
4, 290399, Note_on_c, 2, 63, 0
4, 290399, Note_on_c, 2, 75, 0
4, 290400, Note_on_c, 2, 70, 96
4, 290400, Note_on_c, 2, 58, 96
4, 290459, Note_on_c, 2, 58, 0
4, 290459, Note_on_c, 2, 70, 0
4, 290460, Note_on_c, 2, 70, 96
4, 290460, Note_on_c, 2, 58, 96
4, 290519, Note_on_c, 2, 58, 0
4, 290519, Note_on_c, 2, 70, 0
4, 290520, Note_on_c, 2, 75, 96
4, 290520, Note_on_c, 2, 63, 96
4, 290579, Note_on_c, 2, 63, 0
4, 290579, Note_on_c, 2, 75, 0
4, 290580, Note_on_c, 2, 75, 96
4, 290580, Note_on_c, 2, 63, 96
4, 290639, Note_on_c, 2, 63, 0
4, 290639, Note_on_c, 2, 75, 0
4, 290640, Note_on_c, 2, 67, 96
4, 290699, Note_on_c, 2, 67, 0
4, 290700, Note_on_c, 2, 67, 96
4, 290759, Note_on_c, 2, 67, 0
4, 290760, Note_on_c, 2, 70, 96
4, 290819, Note_on_c, 2, 70, 0
4, 290820, Note_on_c, 2, 70, 96
4, 290879, Note_on_c, 2, 70, 0
4, 290880, Note_on_c, 2, 70, 96
4, 290939, Note_on_c, 2, 70, 0
4, 290940, Note_on_c, 2, 70, 96
4, 290999, Note_on_c, 2, 70, 0
4, 291000, Note_on_c, 2, 70, 96
4, 291059, Note_on_c, 2, 70, 0
4, 291060, Note_on_c, 2, 70, 96
4, 291119, Note_on_c, 2, 70, 0
4, 291120, Note_on_c, 2, 70, 96
4, 291179, Note_on_c, 2, 70, 0
4, 291180, Note_on_c, 2, 70, 96
4, 291239, Note_on_c, 2, 70, 0
4, 291240, Note_on_c, 2, 77, 96
4, 291240, Note_on_c, 2, 65, 96
4, 291299, Note_on_c, 2, 65, 0
4, 291299, Note_on_c, 2, 77, 0
4, 291300, Note_on_c, 2, 77, 96
4, 291300, Note_on_c, 2, 65, 96
4, 291359, Note_on_c, 2, 65, 0
4, 291359, Note_on_c, 2, 77, 0
4, 291360, Note_on_c, 2, 77, 96
4, 291360, Note_on_c, 2, 65, 96
4, 291419, Note_on_c, 2, 65, 0
4, 291419, Note_on_c, 2, 77, 0
4, 291420, Note_on_c, 2, 77, 96
4, 291420, Note_on_c, 2, 65, 96
4, 291479, Note_on_c, 2, 65, 0
4, 291479, Note_on_c, 2, 77, 0
4, 291480, Note_on_c, 2, 80, 96
4, 291480, Note_on_c, 2, 68, 96
4, 291539, Note_on_c, 2, 68, 0
4, 291539, Note_on_c, 2, 80, 0
4, 291540, Note_on_c, 2, 80, 96
4, 291540, Note_on_c, 2, 68, 96
4, 291599, Note_on_c, 2, 68, 0
4, 291599, Note_on_c, 2, 80, 0
4, 291600, Note_on_c, 2, 77, 96
4, 291600, Note_on_c, 2, 65, 96
4, 291659, Note_on_c, 2, 65, 0
4, 291659, Note_on_c, 2, 77, 0
4, 291660, Note_on_c, 2, 77, 96
4, 291660, Note_on_c, 2, 65, 96
4, 291719, Note_on_c, 2, 65, 0
4, 291719, Note_on_c, 2, 77, 0
4, 291720, Note_on_c, 2, 77, 96
4, 291720, Note_on_c, 2, 65, 96
4, 291779, Note_on_c, 2, 65, 0
4, 291779, Note_on_c, 2, 77, 0
4, 291780, Note_on_c, 2, 77, 96
4, 291780, Note_on_c, 2, 65, 96
4, 291839, Note_on_c, 2, 65, 0
4, 291839, Note_on_c, 2, 77, 0
4, 291840, Note_on_c, 2, 70, 96
4, 291840, Note_on_c, 2, 58, 96
4, 291899, Note_on_c, 2, 58, 0
4, 291899, Note_on_c, 2, 70, 0
4, 291900, Note_on_c, 2, 70, 96
4, 291900, Note_on_c, 2, 58, 96
4, 291959, Note_on_c, 2, 58, 0
4, 291959, Note_on_c, 2, 70, 0
4, 291960, Note_on_c, 2, 77, 96
4, 291960, Note_on_c, 2, 65, 96
4, 292019, Note_on_c, 2, 65, 0
4, 292019, Note_on_c, 2, 77, 0
4, 292020, Note_on_c, 2, 77, 96
4, 292020, Note_on_c, 2, 65, 96
4, 292079, Note_on_c, 2, 65, 0
4, 292079, Note_on_c, 2, 77, 0
4, 292080, Note_on_c, 2, 68, 96
4, 292139, Note_on_c, 2, 68, 0
4, 292140, Note_on_c, 2, 68, 96
4, 292199, Note_on_c, 2, 68, 0
4, 292200, Note_on_c, 2, 70, 96
4, 292259, Note_on_c, 2, 70, 0
4, 292260, Note_on_c, 2, 70, 96
4, 292319, Note_on_c, 2, 70, 0
4, 292320, Note_on_c, 2, 70, 96
4, 292379, Note_on_c, 2, 70, 0
4, 292380, Note_on_c, 2, 70, 96
4, 292439, Note_on_c, 2, 70, 0
4, 292440, Note_on_c, 2, 70, 96
4, 292499, Note_on_c, 2, 70, 0
4, 292500, Note_on_c, 2, 70, 96
4, 292559, Note_on_c, 2, 70, 0
4, 292560, Note_on_c, 2, 70, 96
4, 292619, Note_on_c, 2, 70, 0
4, 292620, Note_on_c, 2, 70, 96
4, 292679, Note_on_c, 2, 70, 0
4, 292680, Note_on_c, 2, 70, 96
4, 292739, Note_on_c, 2, 70, 0
4, 292740, Note_on_c, 2, 70, 96
4, 292799, Note_on_c, 2, 70, 0
4, 292800, Note_on_c, 2, 79, 96
4, 292800, Note_on_c, 2, 70, 96
4, 292859, Note_on_c, 2, 70, 0
4, 292859, Note_on_c, 2, 79, 0
4, 292860, Note_on_c, 2, 79, 96
4, 292860, Note_on_c, 2, 70, 96
4, 292919, Note_on_c, 2, 70, 0
4, 292919, Note_on_c, 2, 79, 0
4, 292920, Note_on_c, 2, 79, 96
4, 292920, Note_on_c, 2, 70, 96
4, 292979, Note_on_c, 2, 70, 0
4, 292979, Note_on_c, 2, 79, 0
4, 292980, Note_on_c, 2, 79, 96
4, 292980, Note_on_c, 2, 70, 96
4, 293039, Note_on_c, 2, 70, 0
4, 293039, Note_on_c, 2, 79, 0
4, 293040, Note_on_c, 2, 70, 96
4, 293040, Note_on_c, 2, 79, 96
4, 293399, Note_on_c, 2, 79, 0
4, 293399, Note_on_c, 2, 70, 0
4, 293400, Note_on_c, 2, 77, 96
4, 293400, Note_on_c, 2, 72, 96
4, 293519, Note_on_c, 2, 72, 0
4, 293519, Note_on_c, 2, 77, 0
4, 293520, Note_on_c, 2, 72, 112
4, 293520, Note_on_c, 2, 77, 112
4, 293759, Note_on_c, 2, 77, 0
4, 293759, Note_on_c, 2, 72, 0
4, 293880, Note_on_c, 2, 78, 112
4, 293880, Note_on_c, 2, 72, 112
4, 294119, Note_on_c, 2, 72, 0
4, 294119, Note_on_c, 2, 78, 0
4, 294240, Note_on_c, 2, 70, 112
4, 294240, Note_on_c, 2, 67, 112
4, 294479, Note_on_c, 2, 67, 0
4, 294479, Note_on_c, 2, 70, 0
4, 294600, Note_on_c, 2, 68, 96
4, 294600, Note_on_c, 2, 65, 96
4, 294839, Note_on_c, 2, 65, 0
4, 294839, Note_on_c, 2, 68, 0
4, 294960, Note_on_c, 2, 67, 96
4, 294960, Note_on_c, 2, 63, 96
4, 295199, Note_on_c, 2, 63, 0
4, 295199, Note_on_c, 2, 67, 0
4, 295320, Note_on_c, 2, 72, 96
4, 295320, Note_on_c, 2, 63, 96
4, 295559, Note_on_c, 2, 63, 0
4, 295559, Note_on_c, 2, 72, 0
4, 295560, Note_on_c, 2, 67, 127
4, 295560, Note_on_c, 2, 75, 127
4, 295919, Note_on_c, 2, 75, 0
4, 295919, Note_on_c, 2, 67, 0
4, 295920, Note_on_c, 2, 68, 127
4, 295920, Note_on_c, 2, 74, 127
4, 296159, Note_on_c, 2, 68, 0
4, 296160, Note_on_c, 2, 65, 127
4, 296279, Note_on_c, 2, 65, 0
4, 296279, Note_on_c, 2, 74, 0
4, 296280, Note_on_c, 2, 67, 48
4, 296280, Note_on_c, 2, 63, 48
4, 296520, Note_on_c, 2, 68, 52
4, 296520, Note_on_c, 2, 65, 52
4, 296529, Note_on_c, 2, 63, 0
4, 296529, Note_on_c, 2, 67, 0
4, 296580, Note_on_c, 2, 70, 56
4, 296580, Note_on_c, 2, 67, 56
4, 296589, Note_on_c, 2, 68, 0
4, 296589, Note_on_c, 2, 65, 0
4, 296640, Note_on_c, 2, 72, 56
4, 296640, Note_on_c, 2, 68, 56
4, 296649, Note_on_c, 2, 70, 0
4, 296649, Note_on_c, 2, 67, 0
4, 296760, Note_on_c, 2, 74, 52
4, 296760, Note_on_c, 2, 70, 52
4, 296769, Note_on_c, 2, 72, 0
4, 296769, Note_on_c, 2, 68, 0
4, 296880, Note_on_c, 2, 75, 48
4, 296880, Note_on_c, 2, 72, 48
4, 296889, Note_on_c, 2, 74, 0
4, 296889, Note_on_c, 2, 70, 0
4, 296999, Note_on_c, 2, 75, 0
4, 296999, Note_on_c, 2, 72, 0
4, 297000, Note_on_c, 2, 75, 48
4, 297000, Note_on_c, 2, 70, 48
4, 297119, Note_on_c, 2, 70, 0
4, 297119, Note_on_c, 2, 75, 0
4, 297180, Note_on_c, 2, 58, 48
4, 297180, Note_on_c, 2, 63, 48
4, 297240, Note_on_c, 2, 62, 48
4, 297240, Note_on_c, 2, 65, 48
4, 297249, Note_on_c, 2, 63, 0
4, 297249, Note_on_c, 2, 58, 0
4, 297300, Note_on_c, 2, 67, 48
4, 297300, Note_on_c, 2, 63, 48
4, 297309, Note_on_c, 2, 62, 0
4, 297309, Note_on_c, 2, 65, 0
4, 297359, Note_on_c, 2, 67, 0
4, 297359, Note_on_c, 2, 63, 0
4, 297360, Note_on_c, 2, 65, 48
4, 297360, Note_on_c, 2, 68, 48
4, 297449, Note_on_c, 2, 68, 0
4, 297449, Note_on_c, 2, 65, 0
4, 297480, Note_on_c, 2, 68, 48
4, 297480, Note_on_c, 2, 65, 48
4, 297569, Note_on_c, 2, 65, 0
4, 297569, Note_on_c, 2, 68, 0
4, 297600, Note_on_c, 2, 65, 48
4, 297600, Note_on_c, 2, 68, 48
4, 297689, Note_on_c, 2, 68, 0
4, 297689, Note_on_c, 2, 65, 0
4, 297720, Note_on_c, 2, 67, 48
4, 297720, Note_on_c, 2, 63, 48
4, 297839, Note_on_c, 2, 63, 0
4, 297839, Note_on_c, 2, 67, 0
4, 298620, Note_on_c, 2, 70, 78
4, 298649, Note_on_c, 2, 70, 0
4, 298680, Note_on_c, 2, 68, 80
4, 298709, Note_on_c, 2, 68, 0
4, 298740, Note_on_c, 2, 67, 82
4, 298769, Note_on_c, 2, 67, 0
4, 298800, Note_on_c, 2, 65, 84
4, 298829, Note_on_c, 2, 65, 0
4, 298860, Note_on_c, 2, 67, 86
4, 298889, Note_on_c, 2, 67, 0
4, 298920, Note_on_c, 2, 68, 88
4, 298949, Note_on_c, 2, 68, 0
4, 298980, Note_on_c, 2, 67, 90
4, 299009, Note_on_c, 2, 67, 0
4, 299040, Note_on_c, 2, 65, 92
4, 299069, Note_on_c, 2, 65, 0
4, 299100, Note_on_c, 2, 63, 94
4, 299129, Note_on_c, 2, 63, 0
4, 299160, Note_on_c, 2, 62, 96
4, 299279, Note_on_c, 2, 62, 0
4, 299280, Note_on_c, 2, 65, 96
4, 299280, Note_on_c, 2, 62, 96
4, 299639, Note_on_c, 2, 62, 0
4, 299639, Note_on_c, 2, 65, 0
4, 299640, Note_on_c, 2, 68, 96
4, 299640, Note_on_c, 2, 65, 96
4, 299999, Note_on_c, 2, 65, 0
4, 299999, Note_on_c, 2, 68, 0
4, 300000, Note_on_c, 2, 74, 96
4, 300000, Note_on_c, 2, 68, 96
4, 300239, Note_on_c, 2, 68, 0
4, 300239, Note_on_c, 2, 74, 0
4, 300240, Note_on_c, 2, 68, 96
4, 300240, Note_on_c, 2, 74, 96
4, 300479, Note_on_c, 2, 74, 0
4, 300479, Note_on_c, 2, 68, 0
4, 300480, Note_on_c, 2, 74, 96
4, 300480, Note_on_c, 2, 68, 96
4, 300539, Note_on_c, 2, 68, 0
4, 300539, Note_on_c, 2, 74, 0
4, 300600, Note_on_c, 2, 68, 96
4, 300600, Note_on_c, 2, 74, 96
4, 300659, Note_on_c, 2, 74, 0
4, 300659, Note_on_c, 2, 68, 0
4, 300720, Note_on_c, 2, 77, 127
4, 300720, Note_on_c, 2, 68, 127
4, 300779, Note_on_c, 2, 68, 0
4, 300779, Note_on_c, 2, 77, 0
4, 300840, Note_on_c, 2, 77, 127
4, 300840, Note_on_c, 2, 68, 127
4, 300899, Note_on_c, 2, 68, 0
4, 300899, Note_on_c, 2, 77, 0
4, 300960, Note_on_c, 2, 77, 127
4, 300960, Note_on_c, 2, 68, 127
4, 301019, Note_on_c, 2, 68, 0
4, 301019, Note_on_c, 2, 77, 0
4, 301080, Note_on_c, 2, 77, 127
4, 301080, Note_on_c, 2, 68, 127
4, 301139, Note_on_c, 2, 68, 0
4, 301139, Note_on_c, 2, 77, 0
4, 301200, Note_on_c, 2, 77, 127
4, 301200, Note_on_c, 2, 68, 127
4, 301259, Note_on_c, 2, 68, 0
4, 301259, Note_on_c, 2, 77, 0
4, 301320, Note_on_c, 2, 77, 127
4, 301320, Note_on_c, 2, 68, 127
4, 301379, Note_on_c, 2, 68, 0
4, 301379, Note_on_c, 2, 77, 0
4, 301440, Note_on_c, 2, 77, 127
4, 301440, Note_on_c, 2, 68, 127
4, 301499, Note_on_c, 2, 68, 0
4, 301499, Note_on_c, 2, 77, 0
4, 301560, Note_on_c, 2, 77, 127
4, 301560, Note_on_c, 2, 68, 127
4, 301619, Note_on_c, 2, 68, 0
4, 301619, Note_on_c, 2, 77, 0
4, 301680, Note_on_c, 2, 77, 127
4, 301680, Note_on_c, 2, 68, 127
4, 301739, Note_on_c, 2, 68, 0
4, 301739, Note_on_c, 2, 77, 0
4, 301800, Note_on_c, 2, 77, 127
4, 301800, Note_on_c, 2, 68, 127
4, 301859, Note_on_c, 2, 68, 0
4, 301859, Note_on_c, 2, 77, 0
4, 301920, Note_on_c, 2, 77, 127
4, 301920, Note_on_c, 2, 68, 127
4, 301979, Note_on_c, 2, 68, 0
4, 301979, Note_on_c, 2, 77, 0
4, 302040, Note_on_c, 2, 75, 127
4, 302040, Note_on_c, 2, 67, 127
4, 302159, Note_on_c, 2, 67, 0
4, 302159, Note_on_c, 2, 75, 0
4, 302400, Note_on_c, 2, 67, 127
4, 302400, Note_on_c, 2, 75, 127
4, 302519, Note_on_c, 2, 75, 0
4, 302519, Note_on_c, 2, 67, 0
4, 302760, Note_on_c, 2, 63, 127
4, 302879, Note_on_c, 2, 63, 0
4, 302879, End_track
5, 0, Start_track
5, 0, MIDI_port, 0
5, 0, Title_t, "Bassoons"
5, 0, Program_c, 3, 70
5, 0, Control_c, 3, 7, 127
5, 0, Control_c, 3, 10, 70
5, 0, Control_c, 3, 93, 0
5, 0, Control_c, 3, 91, 0
5, 0, Note_on_c, 3, 51, 96
5, 0, Note_on_c, 3, 63, 96
5, 59, Note_on_c, 3, 63, 0
5, 59, Note_on_c, 3, 51, 0
5, 360, Note_on_c, 3, 63, 96
5, 360, Note_on_c, 3, 51, 96
5, 419, Note_on_c, 3, 51, 0
5, 419, Note_on_c, 3, 63, 0
5, 7080, Note_on_c, 3, 51, 48
5, 7200, Note_on_c, 3, 56, 48
5, 7209, Note_on_c, 3, 51, 0
5, 7320, Note_on_c, 3, 60, 48
5, 7329, Note_on_c, 3, 56, 0
5, 7440, Note_on_c, 3, 63, 48
5, 7449, Note_on_c, 3, 60, 0
5, 7559, Note_on_c, 3, 63, 0
5, 7560, Note_on_c, 3, 56, 48
5, 7800, Note_on_c, 3, 57, 64
5, 7809, Note_on_c, 3, 56, 0
5, 7919, Note_on_c, 3, 57, 0
5, 7920, Note_on_c, 3, 58, 96
5, 7949, Note_on_c, 3, 58, 0
5, 7950, Note_on_c, 3, 58, 48
5, 8280, Note_on_c, 3, 62, 48
5, 8520, Note_on_c, 3, 56, 48
5, 8520, Note_on_c, 3, 65, 48
5, 8529, Note_on_c, 3, 62, 0
5, 8529, Note_on_c, 3, 58, 0
5, 8639, Note_on_c, 3, 56, 0
5, 8639, Note_on_c, 3, 65, 0
5, 8640, Note_on_c, 3, 63, 48
5, 8640, Note_on_c, 3, 55, 48
5, 8699, Note_on_c, 3, 55, 0
5, 8699, Note_on_c, 3, 63, 0
5, 8760, Note_on_c, 3, 60, 96
5, 8760, Note_on_c, 3, 54, 96
5, 8999, Note_on_c, 3, 54, 0
5, 8999, Note_on_c, 3, 60, 0
5, 9000, Note_on_c, 3, 54, 96
5, 9000, Note_on_c, 3, 60, 96
5, 9239, Note_on_c, 3, 60, 0
5, 9239, Note_on_c, 3, 54, 0
5, 9240, Note_on_c, 3, 54, 96
5, 9240, Note_on_c, 3, 60, 96
5, 9359, Note_on_c, 3, 60, 0
5, 9359, Note_on_c, 3, 54, 0
5, 9360, Note_on_c, 3, 53, 90
5, 9360, Note_on_c, 3, 62, 90
5, 9419, Note_on_c, 3, 62, 0
5, 9419, Note_on_c, 3, 53, 0
5, 9960, Note_on_c, 3, 58, 96
5, 9960, Note_on_c, 3, 62, 96
5, 10080, Note_on_c, 3, 56, 96
5, 10089, Note_on_c, 3, 58, 0
5, 10199, Note_on_c, 3, 56, 0
5, 10199, Note_on_c, 3, 62, 0
5, 10200, Note_on_c, 3, 62, 96
5, 10200, Note_on_c, 3, 56, 96
5, 10439, Note_on_c, 3, 56, 0
5, 10439, Note_on_c, 3, 62, 0
5, 10440, Note_on_c, 3, 56, 96
5, 10440, Note_on_c, 3, 62, 96
5, 10679, Note_on_c, 3, 62, 0
5, 10679, Note_on_c, 3, 56, 0
5, 10680, Note_on_c, 3, 56, 96
5, 10680, Note_on_c, 3, 62, 96
5, 10919, Note_on_c, 3, 62, 0
5, 10919, Note_on_c, 3, 56, 0
5, 10920, Note_on_c, 3, 55, 96
5, 10920, Note_on_c, 3, 63, 96
5, 11159, Note_on_c, 3, 63, 0
5, 11159, Note_on_c, 3, 55, 0
5, 11160, Note_on_c, 3, 55, 96
5, 11160, Note_on_c, 3, 63, 96
5, 11399, Note_on_c, 3, 63, 0
5, 11399, Note_on_c, 3, 55, 0
5, 11400, Note_on_c, 3, 55, 96
5, 11400, Note_on_c, 3, 63, 96
5, 11639, Note_on_c, 3, 63, 0
5, 11639, Note_on_c, 3, 55, 0
5, 11640, Note_on_c, 3, 56, 90
5, 11640, Note_on_c, 3, 62, 90
5, 11699, Note_on_c, 3, 62, 0
5, 11699, Note_on_c, 3, 56, 0
5, 11760, Note_on_c, 3, 56, 96
5, 11760, Note_on_c, 3, 62, 96
5, 11999, Note_on_c, 3, 62, 0
5, 11999, Note_on_c, 3, 56, 0
5, 12000, Note_on_c, 3, 55, 90
5, 12000, Note_on_c, 3, 63, 90
5, 12059, Note_on_c, 3, 63, 0
5, 12059, Note_on_c, 3, 55, 0
5, 12120, Note_on_c, 3, 55, 96
5, 12120, Note_on_c, 3, 63, 96
5, 12240, Note_on_c, 3, 56, 90
5, 12240, Note_on_c, 3, 62, 90
5, 12249, Note_on_c, 3, 63, 0
5, 12249, Note_on_c, 3, 55, 0
5, 12359, Note_on_c, 3, 56, 0
5, 12359, Note_on_c, 3, 62, 0
5, 12360, Note_on_c, 3, 46, 96
5, 12389, Note_on_c, 3, 46, 0
5, 12420, Note_on_c, 3, 48, 99
5, 12449, Note_on_c, 3, 48, 0
5, 12480, Note_on_c, 3, 50, 101
5, 12509, Note_on_c, 3, 50, 0
5, 12540, Note_on_c, 3, 51, 104
5, 12569, Note_on_c, 3, 51, 0
5, 12600, Note_on_c, 3, 53, 106
5, 12629, Note_on_c, 3, 53, 0
5, 12660, Note_on_c, 3, 55, 109
5, 12689, Note_on_c, 3, 55, 0
5, 12720, Note_on_c, 3, 56, 111
5, 12749, Note_on_c, 3, 56, 0
5, 12780, Note_on_c, 3, 58, 114
5, 12809, Note_on_c, 3, 58, 0
5, 12840, Note_on_c, 3, 60, 116
5, 12869, Note_on_c, 3, 60, 0
5, 12900, Note_on_c, 3, 62, 125
5, 12929, Note_on_c, 3, 62, 0
5, 12960, Note_on_c, 3, 51, 127
5, 12960, Note_on_c, 3, 63, 127
5, 13200, Note_on_c, 3, 67, 127
5, 13200, Note_on_c, 3, 55, 127
5, 13209, Note_on_c, 3, 63, 0
5, 13209, Note_on_c, 3, 51, 0
5, 13320, Note_on_c, 3, 51, 127
5, 13320, Note_on_c, 3, 63, 127
5, 13329, Note_on_c, 3, 67, 0
5, 13329, Note_on_c, 3, 55, 0
5, 13560, Note_on_c, 3, 46, 127
5, 13560, Note_on_c, 3, 58, 127
5, 13569, Note_on_c, 3, 51, 0
5, 13569, Note_on_c, 3, 63, 0
5, 13679, Note_on_c, 3, 46, 0
5, 13679, Note_on_c, 3, 58, 0
5, 13680, Note_on_c, 3, 63, 127
5, 13680, Note_on_c, 3, 51, 127
5, 13800, Note_on_c, 3, 55, 127
5, 13809, Note_on_c, 3, 51, 0
5, 13809, Note_on_c, 3, 63, 0
5, 13920, Note_on_c, 3, 58, 127
5, 13929, Note_on_c, 3, 55, 0
5, 14040, Note_on_c, 3, 51, 127
5, 14049, Note_on_c, 3, 58, 0
5, 14279, Note_on_c, 3, 51, 0
5, 14280, Note_on_c, 3, 55, 127
5, 14280, Note_on_c, 3, 43, 127
5, 14399, Note_on_c, 3, 43, 0
5, 14399, Note_on_c, 3, 55, 0
5, 14400, Note_on_c, 3, 60, 127
5, 14400, Note_on_c, 3, 48, 127
5, 14520, Note_on_c, 3, 51, 127
5, 14520, Note_on_c, 3, 63, 127
5, 14529, Note_on_c, 3, 48, 0
5, 14529, Note_on_c, 3, 60, 0
5, 14640, Note_on_c, 3, 67, 127
5, 14640, Note_on_c, 3, 55, 127
5, 14649, Note_on_c, 3, 51, 0
5, 14649, Note_on_c, 3, 63, 0
5, 14759, Note_on_c, 3, 67, 0
5, 14759, Note_on_c, 3, 55, 0
5, 14760, Note_on_c, 3, 60, 127
5, 14760, Note_on_c, 3, 48, 127
5, 14999, Note_on_c, 3, 48, 0
5, 14999, Note_on_c, 3, 60, 0
5, 15000, Note_on_c, 3, 61, 127
5, 15000, Note_on_c, 3, 51, 127
5, 15119, Note_on_c, 3, 51, 0
5, 15119, Note_on_c, 3, 61, 0
5, 15120, Note_on_c, 3, 56, 127
5, 15120, Note_on_c, 3, 60, 127
5, 15479, Note_on_c, 3, 56, 0
5, 15480, Note_on_c, 3, 54, 127
5, 15540, Note_on_c, 3, 58, 127
5, 15549, Note_on_c, 3, 60, 0
5, 15600, Note_on_c, 3, 57, 127
5, 15609, Note_on_c, 3, 58, 0
5, 15660, Note_on_c, 3, 58, 127
5, 15669, Note_on_c, 3, 57, 0
5, 15720, Note_on_c, 3, 60, 127
5, 15729, Note_on_c, 3, 58, 0
5, 15780, Note_on_c, 3, 58, 127
5, 15789, Note_on_c, 3, 60, 0
5, 15840, Note_on_c, 3, 57, 127
5, 15840, Note_on_c, 3, 53, 127
5, 15849, Note_on_c, 3, 58, 0
5, 15849, Note_on_c, 3, 54, 0
5, 15959, Note_on_c, 3, 57, 0
5, 15959, Note_on_c, 3, 53, 0
5, 19200, Note_on_c, 3, 66, 64
5, 19380, Note_on_c, 3, 65, 56
5, 19389, Note_on_c, 3, 66, 0
5, 19440, Note_on_c, 3, 63, 56
5, 19449, Note_on_c, 3, 65, 0
5, 19559, Note_on_c, 3, 63, 0
5, 19560, Note_on_c, 3, 67, 127
5, 19560, Note_on_c, 3, 55, 127
5, 19739, Note_on_c, 3, 55, 0
5, 19739, Note_on_c, 3, 67, 0
5, 19740, Note_on_c, 3, 65, 127
5, 19740, Note_on_c, 3, 53, 127
5, 19799, Note_on_c, 3, 53, 0
5, 19799, Note_on_c, 3, 65, 0
5, 19800, Note_on_c, 3, 51, 127
5, 19800, Note_on_c, 3, 63, 127
5, 19859, Note_on_c, 3, 63, 0
5, 19859, Note_on_c, 3, 51, 0
5, 19920, Note_on_c, 3, 62, 127
5, 19920, Note_on_c, 3, 50, 127
5, 19979, Note_on_c, 3, 50, 0
5, 19979, Note_on_c, 3, 62, 0
5, 20040, Note_on_c, 3, 48, 127
5, 20040, Note_on_c, 3, 60, 127
5, 20099, Note_on_c, 3, 60, 0
5, 20099, Note_on_c, 3, 48, 0
5, 20160, Note_on_c, 3, 58, 48
5, 20400, Note_on_c, 3, 57, 60
5, 20460, Note_on_c, 3, 56, 62
5, 20469, Note_on_c, 3, 57, 0
5, 20520, Note_on_c, 3, 55, 64
5, 20529, Note_on_c, 3, 56, 0
5, 20640, Note_on_c, 3, 57, 57
5, 20640, Note_on_c, 3, 53, 57
5, 20649, Note_on_c, 3, 55, 0
5, 20649, Note_on_c, 3, 58, 0
5, 20760, Note_on_c, 3, 51, 52
5, 20760, Note_on_c, 3, 55, 52
5, 20769, Note_on_c, 3, 57, 0
5, 20769, Note_on_c, 3, 53, 0
5, 20879, Note_on_c, 3, 51, 0
5, 20879, Note_on_c, 3, 55, 0
5, 20880, Note_on_c, 3, 53, 48
5, 20880, Note_on_c, 3, 50, 48
5, 21120, Note_on_c, 3, 48, 48
5, 21120, Note_on_c, 3, 51, 48
5, 21129, Note_on_c, 3, 50, 0
5, 21129, Note_on_c, 3, 53, 0
5, 21180, Note_on_c, 3, 46, 48
5, 21180, Note_on_c, 3, 50, 48
5, 21189, Note_on_c, 3, 48, 0
5, 21189, Note_on_c, 3, 51, 0
5, 21240, Note_on_c, 3, 48, 48
5, 21240, Note_on_c, 3, 45, 48
5, 21249, Note_on_c, 3, 46, 0
5, 21249, Note_on_c, 3, 50, 0
5, 21359, Note_on_c, 3, 48, 0
5, 21359, Note_on_c, 3, 45, 0
5, 21360, Note_on_c, 3, 57, 48
5, 21360, Note_on_c, 3, 53, 48
5, 21449, Note_on_c, 3, 53, 0
5, 21449, Note_on_c, 3, 57, 0
5, 21480, Note_on_c, 3, 53, 48
5, 21480, Note_on_c, 3, 57, 48
5, 21569, Note_on_c, 3, 57, 0
5, 21569, Note_on_c, 3, 53, 0
5, 21600, Note_on_c, 3, 58, 48
5, 21600, Note_on_c, 3, 46, 48
5, 21719, Note_on_c, 3, 46, 0
5, 21719, Note_on_c, 3, 58, 0
5, 22380, Note_on_c, 3, 65, 74
5, 22409, Note_on_c, 3, 65, 0
5, 22440, Note_on_c, 3, 63, 76
5, 22469, Note_on_c, 3, 63, 0
5, 22500, Note_on_c, 3, 62, 78
5, 22529, Note_on_c, 3, 62, 0
5, 22560, Note_on_c, 3, 60, 80
5, 22589, Note_on_c, 3, 60, 0
5, 22620, Note_on_c, 3, 58, 82
5, 22649, Note_on_c, 3, 58, 0
5, 22680, Note_on_c, 3, 57, 84
5, 22709, Note_on_c, 3, 57, 0
5, 22740, Note_on_c, 3, 62, 86
5, 22740, Note_on_c, 3, 58, 86
5, 22769, Note_on_c, 3, 58, 0
5, 22769, Note_on_c, 3, 62, 0
5, 22800, Note_on_c, 3, 63, 88
5, 22800, Note_on_c, 3, 60, 88
5, 22829, Note_on_c, 3, 60, 0
5, 22829, Note_on_c, 3, 63, 0
5, 22860, Note_on_c, 3, 62, 90
5, 22860, Note_on_c, 3, 58, 90
5, 22889, Note_on_c, 3, 58, 0
5, 22889, Note_on_c, 3, 62, 0
5, 22920, Note_on_c, 3, 60, 92
5, 22920, Note_on_c, 3, 57, 92
5, 22949, Note_on_c, 3, 57, 0
5, 22949, Note_on_c, 3, 60, 0
5, 22980, Note_on_c, 3, 58, 94
5, 22980, Note_on_c, 3, 55, 94
5, 23009, Note_on_c, 3, 55, 0
5, 23009, Note_on_c, 3, 58, 0
5, 23040, Note_on_c, 3, 57, 96
5, 23040, Note_on_c, 3, 54, 96
5, 23099, Note_on_c, 3, 54, 0
5, 23099, Note_on_c, 3, 57, 0
5, 23160, Note_on_c, 3, 57, 96
5, 23160, Note_on_c, 3, 54, 96
5, 23219, Note_on_c, 3, 54, 0
5, 23219, Note_on_c, 3, 57, 0
5, 23700, Note_on_c, 3, 54, 96
5, 23700, Note_on_c, 3, 57, 96
5, 23729, Note_on_c, 3, 57, 0
5, 23729, Note_on_c, 3, 54, 0
5, 23760, Note_on_c, 3, 58, 96
5, 23760, Note_on_c, 3, 55, 96
5, 23819, Note_on_c, 3, 55, 0
5, 23819, Note_on_c, 3, 58, 0
5, 23880, Note_on_c, 3, 58, 96
5, 23880, Note_on_c, 3, 55, 96
5, 23939, Note_on_c, 3, 55, 0
5, 23939, Note_on_c, 3, 58, 0
5, 24420, Note_on_c, 3, 58, 96
5, 24420, Note_on_c, 3, 55, 96
5, 24449, Note_on_c, 3, 55, 0
5, 24449, Note_on_c, 3, 58, 0
5, 24480, Note_on_c, 3, 56, 96
5, 24480, Note_on_c, 3, 53, 96
5, 24539, Note_on_c, 3, 53, 0
5, 24539, Note_on_c, 3, 56, 0
5, 24600, Note_on_c, 3, 53, 96
5, 24600, Note_on_c, 3, 56, 96
5, 24659, Note_on_c, 3, 56, 0
5, 24659, Note_on_c, 3, 53, 0
5, 25140, Note_on_c, 3, 65, 96
5, 25140, Note_on_c, 3, 53, 96
5, 25169, Note_on_c, 3, 53, 0
5, 25169, Note_on_c, 3, 65, 0
5, 25200, Note_on_c, 3, 63, 96
5, 25200, Note_on_c, 3, 51, 96
5, 25229, Note_on_c, 3, 51, 0
5, 25229, Note_on_c, 3, 63, 0
5, 25260, Note_on_c, 3, 58, 96
5, 25260, Note_on_c, 3, 51, 96
5, 25379, Note_on_c, 3, 51, 0
5, 25379, Note_on_c, 3, 58, 0
5, 25380, Note_on_c, 3, 58, 96
5, 25380, Note_on_c, 3, 52, 96
5, 25409, Note_on_c, 3, 52, 0
5, 25409, Note_on_c, 3, 58, 0
5, 25440, Note_on_c, 3, 57, 96
5, 25440, Note_on_c, 3, 53, 96
5, 25469, Note_on_c, 3, 53, 0
5, 25469, Note_on_c, 3, 57, 0
5, 25500, Note_on_c, 3, 54, 96
5, 25500, Note_on_c, 3, 60, 96
5, 25529, Note_on_c, 3, 60, 0
5, 25529, Note_on_c, 3, 54, 0
5, 25560, Note_on_c, 3, 58, 96
5, 25560, Note_on_c, 3, 55, 96
5, 25589, Note_on_c, 3, 55, 0
5, 25589, Note_on_c, 3, 58, 0
5, 25620, Note_on_c, 3, 55, 96
5, 25620, Note_on_c, 3, 61, 96
5, 25739, Note_on_c, 3, 61, 0
5, 25739, Note_on_c, 3, 55, 0
5, 25740, Note_on_c, 3, 61, 96
5, 25740, Note_on_c, 3, 55, 96
5, 25769, Note_on_c, 3, 55, 0
5, 25769, Note_on_c, 3, 61, 0
5, 25800, Note_on_c, 3, 60, 96
5, 25800, Note_on_c, 3, 56, 96
5, 25829, Note_on_c, 3, 56, 0
5, 25829, Note_on_c, 3, 60, 0
5, 25860, Note_on_c, 3, 57, 96
5, 25860, Note_on_c, 3, 60, 96
5, 25889, Note_on_c, 3, 60, 0
5, 25889, Note_on_c, 3, 57, 0
5, 25920, Note_on_c, 3, 62, 96
5, 25920, Note_on_c, 3, 58, 96
5, 26039, Note_on_c, 3, 58, 0
5, 26039, Note_on_c, 3, 62, 0
5, 26520, Note_on_c, 3, 58, 96
5, 26520, Note_on_c, 3, 50, 96
5, 26640, Note_on_c, 3, 51, 96
5, 26649, Note_on_c, 3, 50, 0
5, 26880, Note_on_c, 3, 59, 96
5, 26889, Note_on_c, 3, 58, 0
5, 27000, Note_on_c, 3, 60, 96
5, 27009, Note_on_c, 3, 59, 0
5, 27060, Note_on_c, 3, 59, 96
5, 27069, Note_on_c, 3, 60, 0
5, 27120, Note_on_c, 3, 62, 96
5, 27129, Note_on_c, 3, 59, 0
5, 27180, Note_on_c, 3, 55, 96
5, 27180, Note_on_c, 3, 60, 96
5, 27189, Note_on_c, 3, 62, 0
5, 27189, Note_on_c, 3, 51, 0
5, 27240, Note_on_c, 3, 59, 96
5, 27240, Note_on_c, 3, 65, 96
5, 27249, Note_on_c, 3, 55, 0
5, 27249, Note_on_c, 3, 60, 0
5, 27300, Note_on_c, 3, 60, 96
5, 27300, Note_on_c, 3, 63, 96
5, 27309, Note_on_c, 3, 59, 0
5, 27309, Note_on_c, 3, 65, 0
5, 27360, Note_on_c, 3, 58, 96
5, 27360, Note_on_c, 3, 62, 96
5, 27369, Note_on_c, 3, 60, 0
5, 27369, Note_on_c, 3, 63, 0
5, 27479, Note_on_c, 3, 58, 0
5, 27479, Note_on_c, 3, 62, 0
5, 28080, Note_on_c, 3, 65, 96
5, 28859, Note_on_c, 3, 65, 0
5, 28860, Note_on_c, 3, 64, 127
5, 28889, Note_on_c, 3, 64, 0
5, 28920, Note_on_c, 3, 63, 127
5, 28949, Note_on_c, 3, 63, 0
5, 28980, Note_on_c, 3, 62, 127
5, 29009, Note_on_c, 3, 62, 0
5, 29040, Note_on_c, 3, 60, 127
5, 29069, Note_on_c, 3, 60, 0
5, 29100, Note_on_c, 3, 58, 127
5, 29129, Note_on_c, 3, 58, 0
5, 29160, Note_on_c, 3, 57, 127
5, 29189, Note_on_c, 3, 57, 0
5, 29220, Note_on_c, 3, 67, 127
5, 29220, Note_on_c, 3, 55, 127
5, 29249, Note_on_c, 3, 55, 0
5, 29249, Note_on_c, 3, 67, 0
5, 29280, Note_on_c, 3, 65, 127
5, 29280, Note_on_c, 3, 53, 127
5, 29309, Note_on_c, 3, 53, 0
5, 29309, Note_on_c, 3, 65, 0
5, 29340, Note_on_c, 3, 63, 127
5, 29340, Note_on_c, 3, 51, 127
5, 29369, Note_on_c, 3, 51, 0
5, 29369, Note_on_c, 3, 63, 0
5, 29400, Note_on_c, 3, 62, 127
5, 29400, Note_on_c, 3, 50, 127
5, 29429, Note_on_c, 3, 50, 0
5, 29429, Note_on_c, 3, 62, 0
5, 29460, Note_on_c, 3, 60, 127
5, 29460, Note_on_c, 3, 48, 127
5, 29489, Note_on_c, 3, 48, 0
5, 29489, Note_on_c, 3, 60, 0
5, 29520, Note_on_c, 3, 58, 127
5, 29520, Note_on_c, 3, 46, 127
5, 29639, Note_on_c, 3, 46, 0
5, 29639, Note_on_c, 3, 58, 0
5, 29640, Note_on_c, 3, 62, 48
5, 29640, Note_on_c, 3, 58, 48
5, 29729, Note_on_c, 3, 58, 0
5, 29729, Note_on_c, 3, 62, 0
5, 29760, Note_on_c, 3, 58, 48
5, 29760, Note_on_c, 3, 62, 48
5, 29849, Note_on_c, 3, 62, 0
5, 29849, Note_on_c, 3, 58, 0
5, 29880, Note_on_c, 3, 62, 56
5, 29880, Note_on_c, 3, 58, 56
5, 29969, Note_on_c, 3, 58, 0
5, 29969, Note_on_c, 3, 62, 0
5, 30000, Note_on_c, 3, 58, 64
5, 30000, Note_on_c, 3, 62, 64
5, 30089, Note_on_c, 3, 62, 0
5, 30089, Note_on_c, 3, 58, 0
5, 30120, Note_on_c, 3, 62, 72
5, 30120, Note_on_c, 3, 58, 72
5, 30209, Note_on_c, 3, 58, 0
5, 30209, Note_on_c, 3, 62, 0
5, 30240, Note_on_c, 3, 62, 80
5, 30240, Note_on_c, 3, 58, 80
5, 30329, Note_on_c, 3, 58, 0
5, 30329, Note_on_c, 3, 62, 0
5, 30360, Note_on_c, 3, 58, 88
5, 30360, Note_on_c, 3, 62, 88
5, 30449, Note_on_c, 3, 62, 0
5, 30449, Note_on_c, 3, 58, 0
5, 30480, Note_on_c, 3, 58, 96
5, 30480, Note_on_c, 3, 46, 96
5, 30599, Note_on_c, 3, 46, 0
5, 30600, Note_on_c, 3, 51, 96
5, 30720, Note_on_c, 3, 59, 72
5, 30729, Note_on_c, 3, 58, 0
5, 30840, Note_on_c, 3, 60, 64
5, 30849, Note_on_c, 3, 59, 0
5, 30959, Note_on_c, 3, 60, 0
5, 30959, Note_on_c, 3, 51, 0
5, 31920, Note_on_c, 3, 67, 96
5, 32160, Note_on_c, 3, 65, 96
5, 32169, Note_on_c, 3, 67, 0
5, 32220, Note_on_c, 3, 63, 84
5, 32229, Note_on_c, 3, 65, 0
5, 32280, Note_on_c, 3, 62, 72
5, 32289, Note_on_c, 3, 63, 0
5, 32340, Note_on_c, 3, 60, 60
5, 32349, Note_on_c, 3, 62, 0
5, 32400, Note_on_c, 3, 58, 48
5, 32409, Note_on_c, 3, 60, 0
5, 32519, Note_on_c, 3, 58, 0
5, 32520, Note_on_c, 3, 61, 48
5, 32520, Note_on_c, 3, 58, 48
5, 32609, Note_on_c, 3, 58, 0
5, 32609, Note_on_c, 3, 61, 0
5, 32640, Note_on_c, 3, 58, 48
5, 32640, Note_on_c, 3, 61, 48
5, 32729, Note_on_c, 3, 61, 0
5, 32729, Note_on_c, 3, 58, 0
5, 32760, Note_on_c, 3, 61, 56
5, 32760, Note_on_c, 3, 58, 56
5, 32849, Note_on_c, 3, 58, 0
5, 32849, Note_on_c, 3, 61, 0
5, 32880, Note_on_c, 3, 58, 64
5, 32880, Note_on_c, 3, 61, 64
5, 32969, Note_on_c, 3, 61, 0
5, 32969, Note_on_c, 3, 58, 0
5, 33000, Note_on_c, 3, 61, 72
5, 33000, Note_on_c, 3, 58, 72
5, 33089, Note_on_c, 3, 58, 0
5, 33089, Note_on_c, 3, 61, 0
5, 33120, Note_on_c, 3, 61, 80
5, 33120, Note_on_c, 3, 58, 80
5, 33209, Note_on_c, 3, 58, 0
5, 33209, Note_on_c, 3, 61, 0
5, 33240, Note_on_c, 3, 56, 88
5, 33240, Note_on_c, 3, 61, 88
5, 33329, Note_on_c, 3, 61, 0
5, 33329, Note_on_c, 3, 56, 0
5, 33360, Note_on_c, 3, 56, 88
5, 33360, Note_on_c, 3, 61, 88
5, 33449, Note_on_c, 3, 61, 0
5, 33449, Note_on_c, 3, 56, 0
5, 33480, Note_on_c, 3, 61, 96
5, 33480, Note_on_c, 3, 56, 96
5, 33720, Note_on_c, 3, 60, 84
5, 33729, Note_on_c, 3, 61, 0
5, 33839, Note_on_c, 3, 60, 0
5, 33839, Note_on_c, 3, 56, 0
5, 34560, Note_on_c, 3, 60, 48
5, 34560, Note_on_c, 3, 48, 48
5, 34679, Note_on_c, 3, 48, 0
5, 34679, Note_on_c, 3, 60, 0
5, 35040, Note_on_c, 3, 67, 56
5, 35040, Note_on_c, 3, 60, 56
5, 35129, Note_on_c, 3, 60, 0
5, 35129, Note_on_c, 3, 67, 0
5, 35160, Note_on_c, 3, 67, 56
5, 35160, Note_on_c, 3, 60, 56
5, 35249, Note_on_c, 3, 60, 0
5, 35249, Note_on_c, 3, 67, 0
5, 35280, Note_on_c, 3, 65, 48
5, 35280, Note_on_c, 3, 53, 48
5, 35399, Note_on_c, 3, 53, 0
5, 35399, Note_on_c, 3, 65, 0
5, 38400, Note_on_c, 3, 63, 75
5, 38400, Note_on_c, 3, 60, 75
5, 38429, Note_on_c, 3, 60, 0
5, 38429, Note_on_c, 3, 63, 0
5, 38460, Note_on_c, 3, 62, 78
5, 38460, Note_on_c, 3, 58, 78
5, 38489, Note_on_c, 3, 58, 0
5, 38489, Note_on_c, 3, 62, 0
5, 38520, Note_on_c, 3, 60, 80
5, 38520, Note_on_c, 3, 57, 80
5, 38549, Note_on_c, 3, 57, 0
5, 38549, Note_on_c, 3, 60, 0
5, 38580, Note_on_c, 3, 58, 83
5, 38580, Note_on_c, 3, 55, 83
5, 38609, Note_on_c, 3, 55, 0
5, 38609, Note_on_c, 3, 58, 0
5, 38640, Note_on_c, 3, 57, 86
5, 38640, Note_on_c, 3, 53, 86
5, 38669, Note_on_c, 3, 53, 0
5, 38669, Note_on_c, 3, 57, 0
5, 38700, Note_on_c, 3, 55, 89
5, 38700, Note_on_c, 3, 51, 89
5, 38729, Note_on_c, 3, 51, 0
5, 38729, Note_on_c, 3, 55, 0
5, 38760, Note_on_c, 3, 53, 92
5, 38760, Note_on_c, 3, 50, 92
5, 38789, Note_on_c, 3, 50, 0
5, 38789, Note_on_c, 3, 53, 0
5, 38820, Note_on_c, 3, 51, 94
5, 38820, Note_on_c, 3, 48, 94
5, 38849, Note_on_c, 3, 48, 0
5, 38849, Note_on_c, 3, 51, 0
5, 38880, Note_on_c, 3, 50, 96
5, 38880, Note_on_c, 3, 46, 96
5, 38999, Note_on_c, 3, 46, 0
5, 38999, Note_on_c, 3, 50, 0
5, 39000, Note_on_c, 3, 58, 112
5, 39000, Note_on_c, 3, 53, 112
5, 39239, Note_on_c, 3, 53, 0
5, 39239, Note_on_c, 3, 58, 0
5, 39360, Note_on_c, 3, 53, 112
5, 39360, Note_on_c, 3, 58, 112
5, 39599, Note_on_c, 3, 58, 0
5, 39599, Note_on_c, 3, 53, 0
5, 39720, Note_on_c, 3, 57, 112
5, 39720, Note_on_c, 3, 53, 112
5, 39959, Note_on_c, 3, 53, 0
5, 39959, Note_on_c, 3, 57, 0
5, 40080, Note_on_c, 3, 63, 112
5, 40080, Note_on_c, 3, 51, 112
5, 40199, Note_on_c, 3, 51, 0
5, 40199, Note_on_c, 3, 63, 0
5, 40200, Note_on_c, 3, 57, 96
5, 40200, Note_on_c, 3, 53, 96
5, 40319, Note_on_c, 3, 53, 0
5, 40319, Note_on_c, 3, 57, 0
5, 40320, Note_on_c, 3, 58, 127
5, 40320, Note_on_c, 3, 46, 127
5, 40379, Note_on_c, 3, 46, 0
5, 40379, Note_on_c, 3, 58, 0
5, 40380, Note_on_c, 3, 41, 127
5, 40439, Note_on_c, 3, 41, 0
5, 40440, Note_on_c, 3, 65, 127
5, 40440, Note_on_c, 3, 46, 127
5, 40499, Note_on_c, 3, 46, 0
5, 40500, Note_on_c, 3, 41, 127
5, 40559, Note_on_c, 3, 41, 0
5, 40560, Note_on_c, 3, 46, 127
5, 40619, Note_on_c, 3, 46, 0
5, 40619, Note_on_c, 3, 65, 0
5, 40620, Note_on_c, 3, 62, 127
5, 40620, Note_on_c, 3, 41, 127
5, 40679, Note_on_c, 3, 41, 0
5, 40679, Note_on_c, 3, 62, 0
5, 40680, Note_on_c, 3, 58, 127
5, 40680, Note_on_c, 3, 46, 127
5, 40739, Note_on_c, 3, 46, 0
5, 40739, Note_on_c, 3, 58, 0
5, 40740, Note_on_c, 3, 41, 127
5, 40799, Note_on_c, 3, 41, 0
5, 40800, Note_on_c, 3, 62, 127
5, 40800, Note_on_c, 3, 46, 127
5, 40859, Note_on_c, 3, 46, 0
5, 40860, Note_on_c, 3, 41, 127
5, 40919, Note_on_c, 3, 41, 0
5, 40920, Note_on_c, 3, 46, 127
5, 40979, Note_on_c, 3, 46, 0
5, 40979, Note_on_c, 3, 62, 0
5, 40980, Note_on_c, 3, 53, 127
5, 40980, Note_on_c, 3, 41, 127
5, 41039, Note_on_c, 3, 41, 0
5, 41039, Note_on_c, 3, 53, 0
5, 41040, Note_on_c, 3, 60, 127
5, 41040, Note_on_c, 3, 45, 127
5, 41099, Note_on_c, 3, 45, 0
5, 41099, Note_on_c, 3, 60, 0
5, 41100, Note_on_c, 3, 41, 127
5, 41159, Note_on_c, 3, 41, 0
5, 41160, Note_on_c, 3, 63, 127
5, 41160, Note_on_c, 3, 45, 127
5, 41219, Note_on_c, 3, 45, 0
5, 41220, Note_on_c, 3, 41, 127
5, 41279, Note_on_c, 3, 41, 0
5, 41280, Note_on_c, 3, 45, 127
5, 41339, Note_on_c, 3, 45, 0
5, 41339, Note_on_c, 3, 63, 0
5, 41340, Note_on_c, 3, 53, 127
5, 41340, Note_on_c, 3, 41, 127
5, 41399, Note_on_c, 3, 41, 0
5, 41399, Note_on_c, 3, 53, 0
5, 41400, Note_on_c, 3, 57, 127
5, 41400, Note_on_c, 3, 48, 127
5, 41459, Note_on_c, 3, 48, 0
5, 41459, Note_on_c, 3, 57, 0
5, 41460, Note_on_c, 3, 41, 127
5, 41519, Note_on_c, 3, 41, 0
5, 41520, Note_on_c, 3, 60, 127
5, 41520, Note_on_c, 3, 51, 127
5, 41579, Note_on_c, 3, 51, 0
5, 41580, Note_on_c, 3, 53, 127
5, 41639, Note_on_c, 3, 53, 0
5, 41640, Note_on_c, 3, 51, 127
5, 41699, Note_on_c, 3, 51, 0
5, 41699, Note_on_c, 3, 60, 0
5, 41700, Note_on_c, 3, 53, 127
5, 41759, Note_on_c, 3, 53, 0
5, 41760, Note_on_c, 3, 50, 127
5, 41760, Note_on_c, 3, 62, 127
5, 42060, Note_on_c, 3, 61, 127
5, 42060, Note_on_c, 3, 49, 127
5, 42069, Note_on_c, 3, 62, 0
5, 42069, Note_on_c, 3, 50, 0
5, 42120, Note_on_c, 3, 50, 127
5, 42120, Note_on_c, 3, 62, 127
5, 42129, Note_on_c, 3, 61, 0
5, 42129, Note_on_c, 3, 49, 0
5, 42179, Note_on_c, 3, 50, 0
5, 42179, Note_on_c, 3, 62, 0
5, 43620, Note_on_c, 3, 66, 127
5, 43620, Note_on_c, 3, 54, 127
5, 43649, Note_on_c, 3, 54, 0
5, 43649, Note_on_c, 3, 66, 0
5, 43680, Note_on_c, 3, 67, 127
5, 43680, Note_on_c, 3, 55, 127
5, 43709, Note_on_c, 3, 55, 0
5, 43709, Note_on_c, 3, 67, 0
5, 43740, Note_on_c, 3, 65, 127
5, 43740, Note_on_c, 3, 53, 127
5, 43769, Note_on_c, 3, 53, 0
5, 43769, Note_on_c, 3, 65, 0
5, 43800, Note_on_c, 3, 64, 127
5, 43800, Note_on_c, 3, 52, 127
5, 43829, Note_on_c, 3, 52, 0
5, 43829, Note_on_c, 3, 64, 0
5, 43860, Note_on_c, 3, 63, 127
5, 43860, Note_on_c, 3, 51, 127
5, 43889, Note_on_c, 3, 51, 0
5, 43889, Note_on_c, 3, 63, 0
5, 43920, Note_on_c, 3, 62, 127
5, 43920, Note_on_c, 3, 50, 127
5, 43979, Note_on_c, 3, 50, 0
5, 43979, Note_on_c, 3, 62, 0
5, 44040, Note_on_c, 3, 60, 127
5, 44040, Note_on_c, 3, 57, 127
5, 44099, Note_on_c, 3, 57, 0
5, 44099, Note_on_c, 3, 60, 0
5, 44160, Note_on_c, 3, 58, 127
5, 44160, Note_on_c, 3, 55, 127
5, 44219, Note_on_c, 3, 55, 0
5, 44219, Note_on_c, 3, 58, 0
5, 44400, Note_on_c, 3, 59, 127
5, 44400, Note_on_c, 3, 53, 127
5, 44459, Note_on_c, 3, 53, 0
5, 44459, Note_on_c, 3, 59, 0
5, 44520, Note_on_c, 3, 60, 127
5, 44520, Note_on_c, 3, 55, 127
5, 44579, Note_on_c, 3, 55, 0
5, 44579, Note_on_c, 3, 60, 0
5, 44760, Note_on_c, 3, 60, 127
5, 44760, Note_on_c, 3, 58, 127
5, 44819, Note_on_c, 3, 58, 0
5, 44819, Note_on_c, 3, 60, 0
5, 44880, Note_on_c, 3, 57, 127
5, 44880, Note_on_c, 3, 60, 127
5, 44939, Note_on_c, 3, 60, 0
5, 44939, Note_on_c, 3, 57, 0
5, 45120, Note_on_c, 3, 60, 127
5, 45120, Note_on_c, 3, 57, 127
5, 45179, Note_on_c, 3, 57, 0
5, 45179, Note_on_c, 3, 60, 0
5, 45240, Note_on_c, 3, 58, 127
5, 45240, Note_on_c, 3, 55, 127
5, 45299, Note_on_c, 3, 55, 0
5, 45299, Note_on_c, 3, 58, 0
5, 45480, Note_on_c, 3, 59, 127
5, 45480, Note_on_c, 3, 53, 127
5, 45539, Note_on_c, 3, 53, 0
5, 45539, Note_on_c, 3, 59, 0
5, 45600, Note_on_c, 3, 55, 127
5, 45600, Note_on_c, 3, 60, 127
5, 45659, Note_on_c, 3, 60, 0
5, 45659, Note_on_c, 3, 55, 0
5, 45840, Note_on_c, 3, 58, 127
5, 45840, Note_on_c, 3, 60, 127
5, 45899, Note_on_c, 3, 60, 0
5, 45899, Note_on_c, 3, 58, 0
5, 46080, Note_on_c, 3, 60, 127
5, 46080, Note_on_c, 3, 58, 127
5, 46139, Note_on_c, 3, 58, 0
5, 46139, Note_on_c, 3, 60, 0
5, 46320, Note_on_c, 3, 58, 127
5, 46320, Note_on_c, 3, 60, 127
5, 46379, Note_on_c, 3, 60, 0
5, 46379, Note_on_c, 3, 58, 0
5, 46560, Note_on_c, 3, 60, 127
5, 46560, Note_on_c, 3, 58, 127
5, 46619, Note_on_c, 3, 58, 0
5, 46619, Note_on_c, 3, 60, 0
5, 46800, Note_on_c, 3, 58, 127
5, 46800, Note_on_c, 3, 60, 127
5, 46859, Note_on_c, 3, 60, 0
5, 46859, Note_on_c, 3, 58, 0
5, 47040, Note_on_c, 3, 60, 127
5, 47099, Note_on_c, 3, 60, 0
5, 47520, Note_on_c, 3, 61, 96
5, 47520, Note_on_c, 3, 54, 96
5, 47549, Note_on_c, 3, 54, 0
5, 47549, Note_on_c, 3, 61, 0
5, 47550, Note_on_c, 3, 54, 48
5, 47550, Note_on_c, 3, 61, 48
5, 47880, Note_on_c, 3, 53, 48
5, 47880, Note_on_c, 3, 62, 48
5, 47889, Note_on_c, 3, 61, 0
5, 47889, Note_on_c, 3, 54, 0
5, 48239, Note_on_c, 3, 53, 0
5, 48239, Note_on_c, 3, 62, 0
5, 48240, Note_on_c, 3, 61, 96
5, 48240, Note_on_c, 3, 55, 96
5, 48269, Note_on_c, 3, 55, 0
5, 48269, Note_on_c, 3, 61, 0
5, 48270, Note_on_c, 3, 55, 48
5, 48270, Note_on_c, 3, 61, 48
5, 48839, Note_on_c, 3, 61, 0
5, 48839, Note_on_c, 3, 55, 0
5, 48840, Note_on_c, 3, 61, 48
5, 48840, Note_on_c, 3, 58, 48
5, 48899, Note_on_c, 3, 58, 0
5, 48899, Note_on_c, 3, 61, 0
5, 49080, Note_on_c, 3, 56, 48
5, 49080, Note_on_c, 3, 60, 48
5, 49139, Note_on_c, 3, 60, 0
5, 49139, Note_on_c, 3, 56, 0
5, 49320, Note_on_c, 3, 60, 48
5, 49320, Note_on_c, 3, 57, 48
5, 49379, Note_on_c, 3, 57, 0
5, 49379, Note_on_c, 3, 60, 0
5, 49560, Note_on_c, 3, 57, 48
5, 49560, Note_on_c, 3, 60, 48
5, 49619, Note_on_c, 3, 60, 0
5, 49619, Note_on_c, 3, 57, 0
5, 49800, Note_on_c, 3, 62, 48
5, 49800, Note_on_c, 3, 58, 48
5, 49859, Note_on_c, 3, 58, 0
5, 49859, Note_on_c, 3, 62, 0
5, 50040, Note_on_c, 3, 51, 64
5, 50040, Note_on_c, 3, 63, 64
5, 50399, Note_on_c, 3, 63, 0
5, 50399, Note_on_c, 3, 51, 0
5, 50400, Note_on_c, 3, 48, 72
5, 50400, Note_on_c, 3, 60, 72
5, 50579, Note_on_c, 3, 60, 0
5, 50579, Note_on_c, 3, 48, 0
5, 50580, Note_on_c, 3, 55, 81
5, 50580, Note_on_c, 3, 48, 81
5, 50640, Note_on_c, 3, 50, 83
5, 50640, Note_on_c, 3, 59, 83
5, 50649, Note_on_c, 3, 48, 0
5, 50649, Note_on_c, 3, 55, 0
5, 50700, Note_on_c, 3, 60, 86
5, 50700, Note_on_c, 3, 51, 86
5, 50709, Note_on_c, 3, 50, 0
5, 50709, Note_on_c, 3, 59, 0
5, 50759, Note_on_c, 3, 60, 0
5, 50759, Note_on_c, 3, 51, 0
5, 50760, Note_on_c, 3, 53, 88
5, 50760, Note_on_c, 3, 58, 88
5, 50819, Note_on_c, 3, 58, 0
5, 50819, Note_on_c, 3, 53, 0
5, 50820, Note_on_c, 3, 65, 93
5, 50820, Note_on_c, 3, 53, 93
5, 50879, Note_on_c, 3, 53, 0
5, 50879, Note_on_c, 3, 65, 0
5, 50880, Note_on_c, 3, 65, 97
5, 50880, Note_on_c, 3, 53, 97
5, 50939, Note_on_c, 3, 53, 0
5, 50939, Note_on_c, 3, 65, 0
5, 50940, Note_on_c, 3, 65, 101
5, 50940, Note_on_c, 3, 53, 101
5, 50999, Note_on_c, 3, 53, 0
5, 50999, Note_on_c, 3, 65, 0
5, 51000, Note_on_c, 3, 62, 105
5, 51000, Note_on_c, 3, 50, 105
5, 51059, Note_on_c, 3, 50, 0
5, 51059, Note_on_c, 3, 62, 0
5, 51060, Note_on_c, 3, 58, 109
5, 51060, Note_on_c, 3, 46, 109
5, 51119, Note_on_c, 3, 46, 0
5, 51119, Note_on_c, 3, 58, 0
5, 51120, Note_on_c, 3, 60, 127
5, 51120, Note_on_c, 3, 53, 127
5, 51479, Note_on_c, 3, 53, 0
5, 51479, Note_on_c, 3, 60, 0
5, 51480, Note_on_c, 3, 46, 96
5, 51480, Note_on_c, 3, 58, 96
5, 51539, Note_on_c, 3, 58, 0
5, 51539, Note_on_c, 3, 46, 0
5, 51840, Note_on_c, 3, 58, 96
5, 51840, Note_on_c, 3, 46, 96
5, 51899, Note_on_c, 3, 46, 0
5, 51899, Note_on_c, 3, 58, 0
5, 52200, Note_on_c, 3, 46, 96
5, 52200, Note_on_c, 3, 58, 96
5, 52259, Note_on_c, 3, 58, 0
5, 52259, Note_on_c, 3, 46, 0
5, 52560, Note_on_c, 3, 63, 96
5, 52560, Note_on_c, 3, 60, 96
5, 52619, Note_on_c, 3, 60, 0
5, 52619, Note_on_c, 3, 63, 0
5, 52680, Note_on_c, 3, 60, 96
5, 52680, Note_on_c, 3, 63, 96
5, 52739, Note_on_c, 3, 63, 0
5, 52739, Note_on_c, 3, 60, 0
5, 52800, Note_on_c, 3, 63, 96
5, 52800, Note_on_c, 3, 60, 96
5, 52859, Note_on_c, 3, 60, 0
5, 52859, Note_on_c, 3, 63, 0
5, 52920, Note_on_c, 3, 62, 96
5, 52920, Note_on_c, 3, 58, 96
5, 52979, Note_on_c, 3, 58, 0
5, 52979, Note_on_c, 3, 62, 0
5, 61440, Note_on_c, 3, 51, 48
5, 61560, Note_on_c, 3, 56, 48
5, 61569, Note_on_c, 3, 51, 0
5, 61680, Note_on_c, 3, 60, 48
5, 61689, Note_on_c, 3, 56, 0
5, 61800, Note_on_c, 3, 63, 48
5, 61809, Note_on_c, 3, 60, 0
5, 61919, Note_on_c, 3, 63, 0
5, 61920, Note_on_c, 3, 56, 48
5, 62160, Note_on_c, 3, 57, 64
5, 62169, Note_on_c, 3, 56, 0
5, 62279, Note_on_c, 3, 57, 0
5, 62280, Note_on_c, 3, 58, 96
5, 62309, Note_on_c, 3, 58, 0
5, 62310, Note_on_c, 3, 58, 48
5, 62640, Note_on_c, 3, 62, 48
5, 62880, Note_on_c, 3, 56, 48
5, 62880, Note_on_c, 3, 65, 48
5, 62889, Note_on_c, 3, 62, 0
5, 62889, Note_on_c, 3, 58, 0
5, 62999, Note_on_c, 3, 56, 0
5, 62999, Note_on_c, 3, 65, 0
5, 63000, Note_on_c, 3, 63, 48
5, 63000, Note_on_c, 3, 55, 48
5, 63059, Note_on_c, 3, 55, 0
5, 63059, Note_on_c, 3, 63, 0
5, 63120, Note_on_c, 3, 60, 96
5, 63120, Note_on_c, 3, 54, 96
5, 63359, Note_on_c, 3, 54, 0
5, 63359, Note_on_c, 3, 60, 0
5, 63360, Note_on_c, 3, 54, 96
5, 63360, Note_on_c, 3, 60, 96
5, 63599, Note_on_c, 3, 60, 0
5, 63599, Note_on_c, 3, 54, 0
5, 63600, Note_on_c, 3, 54, 96
5, 63600, Note_on_c, 3, 60, 96
5, 63719, Note_on_c, 3, 60, 0
5, 63719, Note_on_c, 3, 54, 0
5, 63720, Note_on_c, 3, 53, 90
5, 63720, Note_on_c, 3, 62, 90
5, 63779, Note_on_c, 3, 62, 0
5, 63779, Note_on_c, 3, 53, 0
5, 64320, Note_on_c, 3, 58, 96
5, 64320, Note_on_c, 3, 62, 96
5, 64440, Note_on_c, 3, 56, 96
5, 64449, Note_on_c, 3, 58, 0
5, 64559, Note_on_c, 3, 56, 0
5, 64559, Note_on_c, 3, 62, 0
5, 64560, Note_on_c, 3, 62, 96
5, 64560, Note_on_c, 3, 56, 96
5, 64799, Note_on_c, 3, 56, 0
5, 64799, Note_on_c, 3, 62, 0
5, 64800, Note_on_c, 3, 56, 96
5, 64800, Note_on_c, 3, 62, 96
5, 65039, Note_on_c, 3, 62, 0
5, 65039, Note_on_c, 3, 56, 0
5, 65040, Note_on_c, 3, 56, 96
5, 65040, Note_on_c, 3, 62, 96
5, 65279, Note_on_c, 3, 62, 0
5, 65279, Note_on_c, 3, 56, 0
5, 65280, Note_on_c, 3, 55, 96
5, 65280, Note_on_c, 3, 63, 96
5, 65519, Note_on_c, 3, 63, 0
5, 65519, Note_on_c, 3, 55, 0
5, 65520, Note_on_c, 3, 55, 96
5, 65520, Note_on_c, 3, 63, 96
5, 65759, Note_on_c, 3, 63, 0
5, 65759, Note_on_c, 3, 55, 0
5, 65760, Note_on_c, 3, 55, 96
5, 65760, Note_on_c, 3, 63, 96
5, 65999, Note_on_c, 3, 63, 0
5, 65999, Note_on_c, 3, 55, 0
5, 66000, Note_on_c, 3, 56, 90
5, 66000, Note_on_c, 3, 62, 90
5, 66059, Note_on_c, 3, 62, 0
5, 66059, Note_on_c, 3, 56, 0
5, 66120, Note_on_c, 3, 56, 96
5, 66120, Note_on_c, 3, 62, 96
5, 66359, Note_on_c, 3, 62, 0
5, 66359, Note_on_c, 3, 56, 0
5, 66360, Note_on_c, 3, 55, 90
5, 66360, Note_on_c, 3, 63, 90
5, 66419, Note_on_c, 3, 63, 0
5, 66419, Note_on_c, 3, 55, 0
5, 66480, Note_on_c, 3, 55, 96
5, 66480, Note_on_c, 3, 63, 96
5, 66600, Note_on_c, 3, 56, 90
5, 66600, Note_on_c, 3, 62, 90
5, 66609, Note_on_c, 3, 63, 0
5, 66609, Note_on_c, 3, 55, 0
5, 66719, Note_on_c, 3, 56, 0
5, 66719, Note_on_c, 3, 62, 0
5, 66720, Note_on_c, 3, 46, 96
5, 66749, Note_on_c, 3, 46, 0
5, 66780, Note_on_c, 3, 48, 99
5, 66809, Note_on_c, 3, 48, 0
5, 66840, Note_on_c, 3, 50, 101
5, 66869, Note_on_c, 3, 50, 0
5, 66900, Note_on_c, 3, 51, 104
5, 66929, Note_on_c, 3, 51, 0
5, 66960, Note_on_c, 3, 53, 106
5, 66989, Note_on_c, 3, 53, 0
5, 67020, Note_on_c, 3, 55, 109
5, 67049, Note_on_c, 3, 55, 0
5, 67080, Note_on_c, 3, 56, 111
5, 67109, Note_on_c, 3, 56, 0
5, 67140, Note_on_c, 3, 58, 114
5, 67169, Note_on_c, 3, 58, 0
5, 67200, Note_on_c, 3, 60, 116
5, 67229, Note_on_c, 3, 60, 0
5, 67260, Note_on_c, 3, 62, 125
5, 67289, Note_on_c, 3, 62, 0
5, 67320, Note_on_c, 3, 51, 127
5, 67320, Note_on_c, 3, 63, 127
5, 67560, Note_on_c, 3, 67, 127
5, 67560, Note_on_c, 3, 55, 127
5, 67569, Note_on_c, 3, 63, 0
5, 67569, Note_on_c, 3, 51, 0
5, 67680, Note_on_c, 3, 51, 127
5, 67680, Note_on_c, 3, 63, 127
5, 67689, Note_on_c, 3, 67, 0
5, 67689, Note_on_c, 3, 55, 0
5, 67920, Note_on_c, 3, 46, 127
5, 67920, Note_on_c, 3, 58, 127
5, 67929, Note_on_c, 3, 51, 0
5, 67929, Note_on_c, 3, 63, 0
5, 68039, Note_on_c, 3, 46, 0
5, 68039, Note_on_c, 3, 58, 0
5, 68040, Note_on_c, 3, 63, 127
5, 68040, Note_on_c, 3, 51, 127
5, 68160, Note_on_c, 3, 55, 127
5, 68169, Note_on_c, 3, 51, 0
5, 68169, Note_on_c, 3, 63, 0
5, 68280, Note_on_c, 3, 58, 127
5, 68289, Note_on_c, 3, 55, 0
5, 68400, Note_on_c, 3, 51, 127
5, 68409, Note_on_c, 3, 58, 0
5, 68639, Note_on_c, 3, 51, 0
5, 68640, Note_on_c, 3, 55, 127
5, 68640, Note_on_c, 3, 43, 127
5, 68759, Note_on_c, 3, 43, 0
5, 68759, Note_on_c, 3, 55, 0
5, 68760, Note_on_c, 3, 60, 127
5, 68760, Note_on_c, 3, 48, 127
5, 68880, Note_on_c, 3, 51, 127
5, 68880, Note_on_c, 3, 63, 127
5, 68889, Note_on_c, 3, 48, 0
5, 68889, Note_on_c, 3, 60, 0
5, 69000, Note_on_c, 3, 67, 127
5, 69000, Note_on_c, 3, 55, 127
5, 69009, Note_on_c, 3, 51, 0
5, 69009, Note_on_c, 3, 63, 0
5, 69119, Note_on_c, 3, 67, 0
5, 69119, Note_on_c, 3, 55, 0
5, 69120, Note_on_c, 3, 60, 127
5, 69120, Note_on_c, 3, 48, 127
5, 69359, Note_on_c, 3, 48, 0
5, 69359, Note_on_c, 3, 60, 0
5, 69360, Note_on_c, 3, 61, 127
5, 69360, Note_on_c, 3, 51, 127
5, 69479, Note_on_c, 3, 51, 0
5, 69479, Note_on_c, 3, 61, 0
5, 69480, Note_on_c, 3, 56, 127
5, 69480, Note_on_c, 3, 60, 127
5, 69839, Note_on_c, 3, 56, 0
5, 69840, Note_on_c, 3, 54, 127
5, 69900, Note_on_c, 3, 58, 127
5, 69909, Note_on_c, 3, 60, 0
5, 69960, Note_on_c, 3, 57, 127
5, 69969, Note_on_c, 3, 58, 0
5, 70020, Note_on_c, 3, 58, 127
5, 70029, Note_on_c, 3, 57, 0
5, 70080, Note_on_c, 3, 60, 127
5, 70089, Note_on_c, 3, 58, 0
5, 70140, Note_on_c, 3, 58, 127
5, 70149, Note_on_c, 3, 60, 0
5, 70200, Note_on_c, 3, 57, 127
5, 70200, Note_on_c, 3, 53, 127
5, 70209, Note_on_c, 3, 58, 0
5, 70209, Note_on_c, 3, 54, 0
5, 70319, Note_on_c, 3, 57, 0
5, 70319, Note_on_c, 3, 53, 0
5, 73560, Note_on_c, 3, 66, 64
5, 73740, Note_on_c, 3, 65, 56
5, 73749, Note_on_c, 3, 66, 0
5, 73800, Note_on_c, 3, 63, 56
5, 73809, Note_on_c, 3, 65, 0
5, 73919, Note_on_c, 3, 63, 0
5, 73920, Note_on_c, 3, 67, 127
5, 73920, Note_on_c, 3, 55, 127
5, 74099, Note_on_c, 3, 55, 0
5, 74099, Note_on_c, 3, 67, 0
5, 74100, Note_on_c, 3, 65, 127
5, 74100, Note_on_c, 3, 53, 127
5, 74159, Note_on_c, 3, 53, 0
5, 74159, Note_on_c, 3, 65, 0
5, 74160, Note_on_c, 3, 51, 127
5, 74160, Note_on_c, 3, 63, 127
5, 74219, Note_on_c, 3, 63, 0
5, 74219, Note_on_c, 3, 51, 0
5, 74280, Note_on_c, 3, 62, 127
5, 74280, Note_on_c, 3, 50, 127
5, 74339, Note_on_c, 3, 50, 0
5, 74339, Note_on_c, 3, 62, 0
5, 74400, Note_on_c, 3, 48, 127
5, 74400, Note_on_c, 3, 60, 127
5, 74459, Note_on_c, 3, 60, 0
5, 74459, Note_on_c, 3, 48, 0
5, 74520, Note_on_c, 3, 58, 48
5, 74760, Note_on_c, 3, 57, 60
5, 74820, Note_on_c, 3, 56, 62
5, 74829, Note_on_c, 3, 57, 0
5, 74880, Note_on_c, 3, 55, 64
5, 74889, Note_on_c, 3, 56, 0
5, 75000, Note_on_c, 3, 57, 57
5, 75000, Note_on_c, 3, 53, 57
5, 75009, Note_on_c, 3, 55, 0
5, 75009, Note_on_c, 3, 58, 0
5, 75120, Note_on_c, 3, 51, 52
5, 75120, Note_on_c, 3, 55, 52
5, 75129, Note_on_c, 3, 57, 0
5, 75129, Note_on_c, 3, 53, 0
5, 75239, Note_on_c, 3, 51, 0
5, 75239, Note_on_c, 3, 55, 0
5, 75240, Note_on_c, 3, 53, 48
5, 75240, Note_on_c, 3, 50, 48
5, 75480, Note_on_c, 3, 48, 48
5, 75480, Note_on_c, 3, 51, 48
5, 75489, Note_on_c, 3, 50, 0
5, 75489, Note_on_c, 3, 53, 0
5, 75540, Note_on_c, 3, 46, 48
5, 75540, Note_on_c, 3, 50, 48
5, 75549, Note_on_c, 3, 48, 0
5, 75549, Note_on_c, 3, 51, 0
5, 75600, Note_on_c, 3, 48, 48
5, 75600, Note_on_c, 3, 45, 48
5, 75609, Note_on_c, 3, 46, 0
5, 75609, Note_on_c, 3, 50, 0
5, 75719, Note_on_c, 3, 48, 0
5, 75719, Note_on_c, 3, 45, 0
5, 75720, Note_on_c, 3, 57, 48
5, 75720, Note_on_c, 3, 53, 48
5, 75809, Note_on_c, 3, 53, 0
5, 75809, Note_on_c, 3, 57, 0
5, 75840, Note_on_c, 3, 53, 48
5, 75840, Note_on_c, 3, 57, 48
5, 75929, Note_on_c, 3, 57, 0
5, 75929, Note_on_c, 3, 53, 0
5, 75960, Note_on_c, 3, 58, 48
5, 75960, Note_on_c, 3, 46, 48
5, 76079, Note_on_c, 3, 46, 0
5, 76079, Note_on_c, 3, 58, 0
5, 76740, Note_on_c, 3, 65, 74
5, 76769, Note_on_c, 3, 65, 0
5, 76800, Note_on_c, 3, 63, 76
5, 76829, Note_on_c, 3, 63, 0
5, 76860, Note_on_c, 3, 62, 78
5, 76889, Note_on_c, 3, 62, 0
5, 76920, Note_on_c, 3, 60, 80
5, 76949, Note_on_c, 3, 60, 0
5, 76980, Note_on_c, 3, 58, 82
5, 77009, Note_on_c, 3, 58, 0
5, 77040, Note_on_c, 3, 57, 84
5, 77069, Note_on_c, 3, 57, 0
5, 77100, Note_on_c, 3, 62, 86
5, 77100, Note_on_c, 3, 58, 86
5, 77129, Note_on_c, 3, 58, 0
5, 77129, Note_on_c, 3, 62, 0
5, 77160, Note_on_c, 3, 63, 88
5, 77160, Note_on_c, 3, 60, 88
5, 77189, Note_on_c, 3, 60, 0
5, 77189, Note_on_c, 3, 63, 0
5, 77220, Note_on_c, 3, 62, 90
5, 77220, Note_on_c, 3, 58, 90
5, 77249, Note_on_c, 3, 58, 0
5, 77249, Note_on_c, 3, 62, 0
5, 77280, Note_on_c, 3, 60, 92
5, 77280, Note_on_c, 3, 57, 92
5, 77309, Note_on_c, 3, 57, 0
5, 77309, Note_on_c, 3, 60, 0
5, 77340, Note_on_c, 3, 58, 94
5, 77340, Note_on_c, 3, 55, 94
5, 77369, Note_on_c, 3, 55, 0
5, 77369, Note_on_c, 3, 58, 0
5, 77400, Note_on_c, 3, 57, 96
5, 77400, Note_on_c, 3, 54, 96
5, 77459, Note_on_c, 3, 54, 0
5, 77459, Note_on_c, 3, 57, 0
5, 77520, Note_on_c, 3, 57, 96
5, 77520, Note_on_c, 3, 54, 96
5, 77579, Note_on_c, 3, 54, 0
5, 77579, Note_on_c, 3, 57, 0
5, 78060, Note_on_c, 3, 54, 96
5, 78060, Note_on_c, 3, 57, 96
5, 78089, Note_on_c, 3, 57, 0
5, 78089, Note_on_c, 3, 54, 0
5, 78120, Note_on_c, 3, 58, 96
5, 78120, Note_on_c, 3, 55, 96
5, 78179, Note_on_c, 3, 55, 0
5, 78179, Note_on_c, 3, 58, 0
5, 78240, Note_on_c, 3, 58, 96
5, 78240, Note_on_c, 3, 55, 96
5, 78299, Note_on_c, 3, 55, 0
5, 78299, Note_on_c, 3, 58, 0
5, 78780, Note_on_c, 3, 58, 96
5, 78780, Note_on_c, 3, 55, 96
5, 78809, Note_on_c, 3, 55, 0
5, 78809, Note_on_c, 3, 58, 0
5, 78840, Note_on_c, 3, 56, 96
5, 78840, Note_on_c, 3, 53, 96
5, 78899, Note_on_c, 3, 53, 0
5, 78899, Note_on_c, 3, 56, 0
5, 78960, Note_on_c, 3, 53, 96
5, 78960, Note_on_c, 3, 56, 96
5, 79019, Note_on_c, 3, 56, 0
5, 79019, Note_on_c, 3, 53, 0
5, 79500, Note_on_c, 3, 65, 96
5, 79500, Note_on_c, 3, 53, 96
5, 79529, Note_on_c, 3, 53, 0
5, 79529, Note_on_c, 3, 65, 0
5, 79560, Note_on_c, 3, 63, 96
5, 79560, Note_on_c, 3, 51, 96
5, 79589, Note_on_c, 3, 51, 0
5, 79589, Note_on_c, 3, 63, 0
5, 79620, Note_on_c, 3, 58, 96
5, 79620, Note_on_c, 3, 51, 96
5, 79739, Note_on_c, 3, 51, 0
5, 79739, Note_on_c, 3, 58, 0
5, 79740, Note_on_c, 3, 58, 96
5, 79740, Note_on_c, 3, 52, 96
5, 79769, Note_on_c, 3, 52, 0
5, 79769, Note_on_c, 3, 58, 0
5, 79800, Note_on_c, 3, 57, 96
5, 79800, Note_on_c, 3, 53, 96
5, 79829, Note_on_c, 3, 53, 0
5, 79829, Note_on_c, 3, 57, 0
5, 79860, Note_on_c, 3, 54, 96
5, 79860, Note_on_c, 3, 60, 96
5, 79889, Note_on_c, 3, 60, 0
5, 79889, Note_on_c, 3, 54, 0
5, 79920, Note_on_c, 3, 58, 96
5, 79920, Note_on_c, 3, 55, 96
5, 79949, Note_on_c, 3, 55, 0
5, 79949, Note_on_c, 3, 58, 0
5, 79980, Note_on_c, 3, 55, 96
5, 79980, Note_on_c, 3, 61, 96
5, 80099, Note_on_c, 3, 61, 0
5, 80099, Note_on_c, 3, 55, 0
5, 80100, Note_on_c, 3, 61, 96
5, 80100, Note_on_c, 3, 55, 96
5, 80129, Note_on_c, 3, 55, 0
5, 80129, Note_on_c, 3, 61, 0
5, 80160, Note_on_c, 3, 60, 96
5, 80160, Note_on_c, 3, 56, 96
5, 80189, Note_on_c, 3, 56, 0
5, 80189, Note_on_c, 3, 60, 0
5, 80220, Note_on_c, 3, 57, 96
5, 80220, Note_on_c, 3, 60, 96
5, 80249, Note_on_c, 3, 60, 0
5, 80249, Note_on_c, 3, 57, 0
5, 80280, Note_on_c, 3, 62, 96
5, 80280, Note_on_c, 3, 58, 96
5, 80399, Note_on_c, 3, 58, 0
5, 80399, Note_on_c, 3, 62, 0
5, 80880, Note_on_c, 3, 58, 96
5, 80880, Note_on_c, 3, 50, 96
5, 81000, Note_on_c, 3, 51, 96
5, 81009, Note_on_c, 3, 50, 0
5, 81240, Note_on_c, 3, 59, 96
5, 81249, Note_on_c, 3, 58, 0
5, 81360, Note_on_c, 3, 60, 96
5, 81369, Note_on_c, 3, 59, 0
5, 81420, Note_on_c, 3, 59, 96
5, 81429, Note_on_c, 3, 60, 0
5, 81480, Note_on_c, 3, 62, 96
5, 81489, Note_on_c, 3, 59, 0
5, 81540, Note_on_c, 3, 55, 96
5, 81540, Note_on_c, 3, 60, 96
5, 81549, Note_on_c, 3, 62, 0
5, 81549, Note_on_c, 3, 51, 0
5, 81600, Note_on_c, 3, 59, 96
5, 81600, Note_on_c, 3, 65, 96
5, 81609, Note_on_c, 3, 55, 0
5, 81609, Note_on_c, 3, 60, 0
5, 81660, Note_on_c, 3, 60, 96
5, 81660, Note_on_c, 3, 63, 96
5, 81669, Note_on_c, 3, 59, 0
5, 81669, Note_on_c, 3, 65, 0
5, 81720, Note_on_c, 3, 58, 96
5, 81720, Note_on_c, 3, 62, 96
5, 81729, Note_on_c, 3, 60, 0
5, 81729, Note_on_c, 3, 63, 0
5, 81839, Note_on_c, 3, 58, 0
5, 81839, Note_on_c, 3, 62, 0
5, 82440, Note_on_c, 3, 65, 96
5, 83219, Note_on_c, 3, 65, 0
5, 83220, Note_on_c, 3, 64, 127
5, 83249, Note_on_c, 3, 64, 0
5, 83280, Note_on_c, 3, 63, 127
5, 83309, Note_on_c, 3, 63, 0
5, 83340, Note_on_c, 3, 62, 127
5, 83369, Note_on_c, 3, 62, 0
5, 83400, Note_on_c, 3, 60, 127
5, 83429, Note_on_c, 3, 60, 0
5, 83460, Note_on_c, 3, 58, 127
5, 83489, Note_on_c, 3, 58, 0
5, 83520, Note_on_c, 3, 57, 127
5, 83549, Note_on_c, 3, 57, 0
5, 83580, Note_on_c, 3, 67, 127
5, 83580, Note_on_c, 3, 55, 127
5, 83609, Note_on_c, 3, 55, 0
5, 83609, Note_on_c, 3, 67, 0
5, 83640, Note_on_c, 3, 65, 127
5, 83640, Note_on_c, 3, 53, 127
5, 83669, Note_on_c, 3, 53, 0
5, 83669, Note_on_c, 3, 65, 0
5, 83700, Note_on_c, 3, 63, 127
5, 83700, Note_on_c, 3, 51, 127
5, 83729, Note_on_c, 3, 51, 0
5, 83729, Note_on_c, 3, 63, 0
5, 83760, Note_on_c, 3, 62, 127
5, 83760, Note_on_c, 3, 50, 127
5, 83789, Note_on_c, 3, 50, 0
5, 83789, Note_on_c, 3, 62, 0
5, 83820, Note_on_c, 3, 60, 127
5, 83820, Note_on_c, 3, 48, 127
5, 83849, Note_on_c, 3, 48, 0
5, 83849, Note_on_c, 3, 60, 0
5, 83880, Note_on_c, 3, 58, 127
5, 83880, Note_on_c, 3, 46, 127
5, 83999, Note_on_c, 3, 46, 0
5, 83999, Note_on_c, 3, 58, 0
5, 84000, Note_on_c, 3, 62, 48
5, 84000, Note_on_c, 3, 58, 48
5, 84089, Note_on_c, 3, 58, 0
5, 84089, Note_on_c, 3, 62, 0
5, 84120, Note_on_c, 3, 58, 48
5, 84120, Note_on_c, 3, 62, 48
5, 84209, Note_on_c, 3, 62, 0
5, 84209, Note_on_c, 3, 58, 0
5, 84240, Note_on_c, 3, 62, 56
5, 84240, Note_on_c, 3, 58, 56
5, 84329, Note_on_c, 3, 58, 0
5, 84329, Note_on_c, 3, 62, 0
5, 84360, Note_on_c, 3, 58, 64
5, 84360, Note_on_c, 3, 62, 64
5, 84449, Note_on_c, 3, 62, 0
5, 84449, Note_on_c, 3, 58, 0
5, 84480, Note_on_c, 3, 62, 72
5, 84480, Note_on_c, 3, 58, 72
5, 84569, Note_on_c, 3, 58, 0
5, 84569, Note_on_c, 3, 62, 0
5, 84600, Note_on_c, 3, 62, 80
5, 84600, Note_on_c, 3, 58, 80
5, 84689, Note_on_c, 3, 58, 0
5, 84689, Note_on_c, 3, 62, 0
5, 84720, Note_on_c, 3, 58, 88
5, 84720, Note_on_c, 3, 62, 88
5, 84809, Note_on_c, 3, 62, 0
5, 84809, Note_on_c, 3, 58, 0
5, 84840, Note_on_c, 3, 58, 96
5, 84840, Note_on_c, 3, 46, 96
5, 84959, Note_on_c, 3, 46, 0
5, 84960, Note_on_c, 3, 51, 96
5, 85080, Note_on_c, 3, 59, 72
5, 85089, Note_on_c, 3, 58, 0
5, 85200, Note_on_c, 3, 60, 64
5, 85209, Note_on_c, 3, 59, 0
5, 85319, Note_on_c, 3, 60, 0
5, 85319, Note_on_c, 3, 51, 0
5, 86280, Note_on_c, 3, 67, 96
5, 86520, Note_on_c, 3, 65, 96
5, 86529, Note_on_c, 3, 67, 0
5, 86580, Note_on_c, 3, 63, 84
5, 86589, Note_on_c, 3, 65, 0
5, 86640, Note_on_c, 3, 62, 72
5, 86649, Note_on_c, 3, 63, 0
5, 86700, Note_on_c, 3, 60, 60
5, 86709, Note_on_c, 3, 62, 0
5, 86760, Note_on_c, 3, 58, 48
5, 86769, Note_on_c, 3, 60, 0
5, 86879, Note_on_c, 3, 58, 0
5, 86880, Note_on_c, 3, 61, 48
5, 86880, Note_on_c, 3, 58, 48
5, 86969, Note_on_c, 3, 58, 0
5, 86969, Note_on_c, 3, 61, 0
5, 87000, Note_on_c, 3, 58, 48
5, 87000, Note_on_c, 3, 61, 48
5, 87089, Note_on_c, 3, 61, 0
5, 87089, Note_on_c, 3, 58, 0
5, 87120, Note_on_c, 3, 61, 56
5, 87120, Note_on_c, 3, 58, 56
5, 87209, Note_on_c, 3, 58, 0
5, 87209, Note_on_c, 3, 61, 0
5, 87240, Note_on_c, 3, 58, 64
5, 87240, Note_on_c, 3, 61, 64
5, 87329, Note_on_c, 3, 61, 0
5, 87329, Note_on_c, 3, 58, 0
5, 87360, Note_on_c, 3, 61, 72
5, 87360, Note_on_c, 3, 58, 72
5, 87449, Note_on_c, 3, 58, 0
5, 87449, Note_on_c, 3, 61, 0
5, 87480, Note_on_c, 3, 61, 80
5, 87480, Note_on_c, 3, 58, 80
5, 87569, Note_on_c, 3, 58, 0
5, 87569, Note_on_c, 3, 61, 0
5, 87600, Note_on_c, 3, 56, 88
5, 87600, Note_on_c, 3, 61, 88
5, 87689, Note_on_c, 3, 61, 0
5, 87689, Note_on_c, 3, 56, 0
5, 87720, Note_on_c, 3, 56, 88
5, 87720, Note_on_c, 3, 61, 88
5, 87809, Note_on_c, 3, 61, 0
5, 87809, Note_on_c, 3, 56, 0
5, 87840, Note_on_c, 3, 61, 96
5, 87840, Note_on_c, 3, 56, 96
5, 88080, Note_on_c, 3, 60, 84
5, 88089, Note_on_c, 3, 61, 0
5, 88199, Note_on_c, 3, 60, 0
5, 88199, Note_on_c, 3, 56, 0
5, 88920, Note_on_c, 3, 60, 48
5, 88920, Note_on_c, 3, 48, 48
5, 89039, Note_on_c, 3, 48, 0
5, 89039, Note_on_c, 3, 60, 0
5, 89400, Note_on_c, 3, 67, 56
5, 89400, Note_on_c, 3, 60, 56
5, 89489, Note_on_c, 3, 60, 0
5, 89489, Note_on_c, 3, 67, 0
5, 89520, Note_on_c, 3, 67, 56
5, 89520, Note_on_c, 3, 60, 56
5, 89609, Note_on_c, 3, 60, 0
5, 89609, Note_on_c, 3, 67, 0
5, 89640, Note_on_c, 3, 65, 48
5, 89640, Note_on_c, 3, 53, 48
5, 89759, Note_on_c, 3, 53, 0
5, 89759, Note_on_c, 3, 65, 0
5, 92760, Note_on_c, 3, 63, 75
5, 92760, Note_on_c, 3, 60, 75
5, 92789, Note_on_c, 3, 60, 0
5, 92789, Note_on_c, 3, 63, 0
5, 92820, Note_on_c, 3, 62, 78
5, 92820, Note_on_c, 3, 58, 78
5, 92849, Note_on_c, 3, 58, 0
5, 92849, Note_on_c, 3, 62, 0
5, 92880, Note_on_c, 3, 60, 80
5, 92880, Note_on_c, 3, 57, 80
5, 92909, Note_on_c, 3, 57, 0
5, 92909, Note_on_c, 3, 60, 0
5, 92940, Note_on_c, 3, 58, 83
5, 92940, Note_on_c, 3, 55, 83
5, 92969, Note_on_c, 3, 55, 0
5, 92969, Note_on_c, 3, 58, 0
5, 93000, Note_on_c, 3, 57, 86
5, 93000, Note_on_c, 3, 53, 86
5, 93029, Note_on_c, 3, 53, 0
5, 93029, Note_on_c, 3, 57, 0
5, 93060, Note_on_c, 3, 55, 89
5, 93060, Note_on_c, 3, 51, 89
5, 93089, Note_on_c, 3, 51, 0
5, 93089, Note_on_c, 3, 55, 0
5, 93120, Note_on_c, 3, 53, 92
5, 93120, Note_on_c, 3, 50, 92
5, 93149, Note_on_c, 3, 50, 0
5, 93149, Note_on_c, 3, 53, 0
5, 93180, Note_on_c, 3, 51, 94
5, 93180, Note_on_c, 3, 48, 94
5, 93209, Note_on_c, 3, 48, 0
5, 93209, Note_on_c, 3, 51, 0
5, 93240, Note_on_c, 3, 50, 96
5, 93240, Note_on_c, 3, 46, 96
5, 93359, Note_on_c, 3, 46, 0
5, 93359, Note_on_c, 3, 50, 0
5, 93360, Note_on_c, 3, 58, 112
5, 93360, Note_on_c, 3, 53, 112
5, 93599, Note_on_c, 3, 53, 0
5, 93599, Note_on_c, 3, 58, 0
5, 93720, Note_on_c, 3, 53, 112
5, 93720, Note_on_c, 3, 58, 112
5, 93959, Note_on_c, 3, 58, 0
5, 93959, Note_on_c, 3, 53, 0
5, 94080, Note_on_c, 3, 57, 112
5, 94080, Note_on_c, 3, 53, 112
5, 94319, Note_on_c, 3, 53, 0
5, 94319, Note_on_c, 3, 57, 0
5, 94440, Note_on_c, 3, 63, 112
5, 94440, Note_on_c, 3, 51, 112
5, 94559, Note_on_c, 3, 51, 0
5, 94559, Note_on_c, 3, 63, 0
5, 94560, Note_on_c, 3, 57, 96
5, 94560, Note_on_c, 3, 53, 96
5, 94679, Note_on_c, 3, 53, 0
5, 94679, Note_on_c, 3, 57, 0
5, 94680, Note_on_c, 3, 58, 127
5, 94680, Note_on_c, 3, 46, 127
5, 94739, Note_on_c, 3, 46, 0
5, 94739, Note_on_c, 3, 58, 0
5, 94740, Note_on_c, 3, 41, 127
5, 94799, Note_on_c, 3, 41, 0
5, 94800, Note_on_c, 3, 65, 127
5, 94800, Note_on_c, 3, 46, 127
5, 94859, Note_on_c, 3, 46, 0
5, 94860, Note_on_c, 3, 41, 127
5, 94919, Note_on_c, 3, 41, 0
5, 94920, Note_on_c, 3, 46, 127
5, 94979, Note_on_c, 3, 46, 0
5, 94979, Note_on_c, 3, 65, 0
5, 94980, Note_on_c, 3, 62, 127
5, 94980, Note_on_c, 3, 41, 127
5, 95039, Note_on_c, 3, 41, 0
5, 95039, Note_on_c, 3, 62, 0
5, 95040, Note_on_c, 3, 58, 127
5, 95040, Note_on_c, 3, 46, 127
5, 95099, Note_on_c, 3, 46, 0
5, 95099, Note_on_c, 3, 58, 0
5, 95100, Note_on_c, 3, 41, 127
5, 95159, Note_on_c, 3, 41, 0
5, 95160, Note_on_c, 3, 62, 127
5, 95160, Note_on_c, 3, 46, 127
5, 95219, Note_on_c, 3, 46, 0
5, 95220, Note_on_c, 3, 41, 127
5, 95279, Note_on_c, 3, 41, 0
5, 95280, Note_on_c, 3, 46, 127
5, 95339, Note_on_c, 3, 46, 0
5, 95339, Note_on_c, 3, 62, 0
5, 95340, Note_on_c, 3, 53, 127
5, 95340, Note_on_c, 3, 41, 127
5, 95399, Note_on_c, 3, 41, 0
5, 95399, Note_on_c, 3, 53, 0
5, 95400, Note_on_c, 3, 60, 127
5, 95400, Note_on_c, 3, 45, 127
5, 95459, Note_on_c, 3, 45, 0
5, 95459, Note_on_c, 3, 60, 0
5, 95460, Note_on_c, 3, 41, 127
5, 95519, Note_on_c, 3, 41, 0
5, 95520, Note_on_c, 3, 63, 127
5, 95520, Note_on_c, 3, 45, 127
5, 95579, Note_on_c, 3, 45, 0
5, 95580, Note_on_c, 3, 41, 127
5, 95639, Note_on_c, 3, 41, 0
5, 95640, Note_on_c, 3, 45, 127
5, 95699, Note_on_c, 3, 45, 0
5, 95699, Note_on_c, 3, 63, 0
5, 95700, Note_on_c, 3, 53, 127
5, 95700, Note_on_c, 3, 41, 127
5, 95759, Note_on_c, 3, 41, 0
5, 95759, Note_on_c, 3, 53, 0
5, 95760, Note_on_c, 3, 57, 127
5, 95760, Note_on_c, 3, 48, 127
5, 95819, Note_on_c, 3, 48, 0
5, 95819, Note_on_c, 3, 57, 0
5, 95820, Note_on_c, 3, 41, 127
5, 95879, Note_on_c, 3, 41, 0
5, 95880, Note_on_c, 3, 60, 127
5, 95880, Note_on_c, 3, 51, 127
5, 95939, Note_on_c, 3, 51, 0
5, 95940, Note_on_c, 3, 53, 127
5, 95999, Note_on_c, 3, 53, 0
5, 96000, Note_on_c, 3, 51, 127
5, 96059, Note_on_c, 3, 51, 0
5, 96059, Note_on_c, 3, 60, 0
5, 96060, Note_on_c, 3, 53, 127
5, 96119, Note_on_c, 3, 53, 0
5, 96120, Note_on_c, 3, 50, 127
5, 96120, Note_on_c, 3, 62, 127
5, 96420, Note_on_c, 3, 61, 127
5, 96420, Note_on_c, 3, 49, 127
5, 96429, Note_on_c, 3, 62, 0
5, 96429, Note_on_c, 3, 50, 0
5, 96480, Note_on_c, 3, 50, 127
5, 96480, Note_on_c, 3, 62, 127
5, 96489, Note_on_c, 3, 61, 0
5, 96489, Note_on_c, 3, 49, 0
5, 96539, Note_on_c, 3, 50, 0
5, 96539, Note_on_c, 3, 62, 0
5, 97980, Note_on_c, 3, 66, 127
5, 97980, Note_on_c, 3, 54, 127
5, 98009, Note_on_c, 3, 54, 0
5, 98009, Note_on_c, 3, 66, 0
5, 98040, Note_on_c, 3, 67, 127
5, 98040, Note_on_c, 3, 55, 127
5, 98069, Note_on_c, 3, 55, 0
5, 98069, Note_on_c, 3, 67, 0
5, 98100, Note_on_c, 3, 65, 127
5, 98100, Note_on_c, 3, 53, 127
5, 98129, Note_on_c, 3, 53, 0
5, 98129, Note_on_c, 3, 65, 0
5, 98160, Note_on_c, 3, 64, 127
5, 98160, Note_on_c, 3, 52, 127
5, 98189, Note_on_c, 3, 52, 0
5, 98189, Note_on_c, 3, 64, 0
5, 98220, Note_on_c, 3, 63, 127
5, 98220, Note_on_c, 3, 51, 127
5, 98249, Note_on_c, 3, 51, 0
5, 98249, Note_on_c, 3, 63, 0
5, 98280, Note_on_c, 3, 62, 127
5, 98280, Note_on_c, 3, 50, 127
5, 98339, Note_on_c, 3, 50, 0
5, 98339, Note_on_c, 3, 62, 0
5, 98400, Note_on_c, 3, 60, 127
5, 98400, Note_on_c, 3, 57, 127
5, 98459, Note_on_c, 3, 57, 0
5, 98459, Note_on_c, 3, 60, 0
5, 98520, Note_on_c, 3, 58, 127
5, 98520, Note_on_c, 3, 55, 127
5, 98579, Note_on_c, 3, 55, 0
5, 98579, Note_on_c, 3, 58, 0
5, 98760, Note_on_c, 3, 59, 127
5, 98760, Note_on_c, 3, 53, 127
5, 98819, Note_on_c, 3, 53, 0
5, 98819, Note_on_c, 3, 59, 0
5, 98880, Note_on_c, 3, 60, 127
5, 98880, Note_on_c, 3, 55, 127
5, 98939, Note_on_c, 3, 55, 0
5, 98939, Note_on_c, 3, 60, 0
5, 99120, Note_on_c, 3, 60, 127
5, 99120, Note_on_c, 3, 58, 127
5, 99179, Note_on_c, 3, 58, 0
5, 99179, Note_on_c, 3, 60, 0
5, 99240, Note_on_c, 3, 57, 127
5, 99240, Note_on_c, 3, 60, 127
5, 99299, Note_on_c, 3, 60, 0
5, 99299, Note_on_c, 3, 57, 0
5, 99480, Note_on_c, 3, 60, 127
5, 99480, Note_on_c, 3, 57, 127
5, 99539, Note_on_c, 3, 57, 0
5, 99539, Note_on_c, 3, 60, 0
5, 99600, Note_on_c, 3, 58, 127
5, 99600, Note_on_c, 3, 55, 127
5, 99659, Note_on_c, 3, 55, 0
5, 99659, Note_on_c, 3, 58, 0
5, 99840, Note_on_c, 3, 59, 127
5, 99840, Note_on_c, 3, 53, 127
5, 99899, Note_on_c, 3, 53, 0
5, 99899, Note_on_c, 3, 59, 0
5, 99960, Note_on_c, 3, 55, 127
5, 99960, Note_on_c, 3, 60, 127
5, 100019, Note_on_c, 3, 60, 0
5, 100019, Note_on_c, 3, 55, 0
5, 100200, Note_on_c, 3, 58, 127
5, 100200, Note_on_c, 3, 60, 127
5, 100259, Note_on_c, 3, 60, 0
5, 100259, Note_on_c, 3, 58, 0
5, 100440, Note_on_c, 3, 60, 127
5, 100440, Note_on_c, 3, 58, 127
5, 100499, Note_on_c, 3, 58, 0
5, 100499, Note_on_c, 3, 60, 0
5, 100680, Note_on_c, 3, 58, 127
5, 100680, Note_on_c, 3, 60, 127
5, 100739, Note_on_c, 3, 60, 0
5, 100739, Note_on_c, 3, 58, 0
5, 100920, Note_on_c, 3, 60, 127
5, 100920, Note_on_c, 3, 58, 127
5, 100979, Note_on_c, 3, 58, 0
5, 100979, Note_on_c, 3, 60, 0
5, 101160, Note_on_c, 3, 58, 127
5, 101160, Note_on_c, 3, 60, 127
5, 101219, Note_on_c, 3, 60, 0
5, 101219, Note_on_c, 3, 58, 0
5, 101400, Note_on_c, 3, 60, 127
5, 101459, Note_on_c, 3, 60, 0
5, 101880, Note_on_c, 3, 61, 96
5, 101880, Note_on_c, 3, 54, 96
5, 101909, Note_on_c, 3, 54, 0
5, 101909, Note_on_c, 3, 61, 0
5, 101910, Note_on_c, 3, 54, 48
5, 101910, Note_on_c, 3, 61, 48
5, 102240, Note_on_c, 3, 53, 48
5, 102240, Note_on_c, 3, 62, 48
5, 102249, Note_on_c, 3, 61, 0
5, 102249, Note_on_c, 3, 54, 0
5, 102599, Note_on_c, 3, 53, 0
5, 102599, Note_on_c, 3, 62, 0
5, 102600, Note_on_c, 3, 61, 96
5, 102600, Note_on_c, 3, 55, 96
5, 102629, Note_on_c, 3, 55, 0
5, 102629, Note_on_c, 3, 61, 0
5, 102630, Note_on_c, 3, 55, 48
5, 102630, Note_on_c, 3, 61, 48
5, 103199, Note_on_c, 3, 61, 0
5, 103199, Note_on_c, 3, 55, 0
5, 103200, Note_on_c, 3, 61, 48
5, 103200, Note_on_c, 3, 58, 48
5, 103259, Note_on_c, 3, 58, 0
5, 103259, Note_on_c, 3, 61, 0
5, 103440, Note_on_c, 3, 56, 48
5, 103440, Note_on_c, 3, 60, 48
5, 103499, Note_on_c, 3, 60, 0
5, 103499, Note_on_c, 3, 56, 0
5, 103680, Note_on_c, 3, 60, 48
5, 103680, Note_on_c, 3, 57, 48
5, 103739, Note_on_c, 3, 57, 0
5, 103739, Note_on_c, 3, 60, 0
5, 103920, Note_on_c, 3, 57, 48
5, 103920, Note_on_c, 3, 60, 48
5, 103979, Note_on_c, 3, 60, 0
5, 103979, Note_on_c, 3, 57, 0
5, 104160, Note_on_c, 3, 62, 48
5, 104160, Note_on_c, 3, 58, 48
5, 104219, Note_on_c, 3, 58, 0
5, 104219, Note_on_c, 3, 62, 0
5, 104400, Note_on_c, 3, 51, 64
5, 104400, Note_on_c, 3, 63, 64
5, 104759, Note_on_c, 3, 63, 0
5, 104759, Note_on_c, 3, 51, 0
5, 104760, Note_on_c, 3, 48, 72
5, 104760, Note_on_c, 3, 60, 72
5, 104939, Note_on_c, 3, 60, 0
5, 104939, Note_on_c, 3, 48, 0
5, 104940, Note_on_c, 3, 55, 81
5, 104940, Note_on_c, 3, 48, 81
5, 105000, Note_on_c, 3, 50, 83
5, 105000, Note_on_c, 3, 59, 83
5, 105009, Note_on_c, 3, 48, 0
5, 105009, Note_on_c, 3, 55, 0
5, 105060, Note_on_c, 3, 60, 86
5, 105060, Note_on_c, 3, 51, 86
5, 105069, Note_on_c, 3, 50, 0
5, 105069, Note_on_c, 3, 59, 0
5, 105119, Note_on_c, 3, 60, 0
5, 105119, Note_on_c, 3, 51, 0
5, 105120, Note_on_c, 3, 53, 88
5, 105120, Note_on_c, 3, 58, 88
5, 105179, Note_on_c, 3, 58, 0
5, 105179, Note_on_c, 3, 53, 0
5, 105180, Note_on_c, 3, 65, 93
5, 105180, Note_on_c, 3, 53, 93
5, 105239, Note_on_c, 3, 53, 0
5, 105239, Note_on_c, 3, 65, 0
5, 105240, Note_on_c, 3, 65, 97
5, 105240, Note_on_c, 3, 53, 97
5, 105299, Note_on_c, 3, 53, 0
5, 105299, Note_on_c, 3, 65, 0
5, 105300, Note_on_c, 3, 65, 101
5, 105300, Note_on_c, 3, 53, 101
5, 105359, Note_on_c, 3, 53, 0
5, 105359, Note_on_c, 3, 65, 0
5, 105360, Note_on_c, 3, 62, 105
5, 105360, Note_on_c, 3, 50, 105
5, 105419, Note_on_c, 3, 50, 0
5, 105419, Note_on_c, 3, 62, 0
5, 105420, Note_on_c, 3, 58, 109
5, 105420, Note_on_c, 3, 46, 109
5, 105479, Note_on_c, 3, 46, 0
5, 105479, Note_on_c, 3, 58, 0
5, 105480, Note_on_c, 3, 60, 127
5, 105480, Note_on_c, 3, 53, 127
5, 105839, Note_on_c, 3, 53, 0
5, 105839, Note_on_c, 3, 60, 0
5, 105840, Note_on_c, 3, 46, 96
5, 105840, Note_on_c, 3, 58, 96
5, 105899, Note_on_c, 3, 58, 0
5, 105899, Note_on_c, 3, 46, 0
5, 106200, Note_on_c, 3, 58, 96
5, 106200, Note_on_c, 3, 46, 96
5, 106259, Note_on_c, 3, 46, 0
5, 106259, Note_on_c, 3, 58, 0
5, 106560, Note_on_c, 3, 46, 96
5, 106560, Note_on_c, 3, 58, 96
5, 106619, Note_on_c, 3, 58, 0
5, 106619, Note_on_c, 3, 46, 0
5, 106920, Note_on_c, 3, 63, 96
5, 106920, Note_on_c, 3, 60, 96
5, 106979, Note_on_c, 3, 60, 0
5, 106979, Note_on_c, 3, 63, 0
5, 107040, Note_on_c, 3, 60, 96
5, 107040, Note_on_c, 3, 63, 96
5, 107099, Note_on_c, 3, 63, 0
5, 107099, Note_on_c, 3, 60, 0
5, 107160, Note_on_c, 3, 63, 96
5, 107160, Note_on_c, 3, 60, 96
5, 107219, Note_on_c, 3, 60, 0
5, 107219, Note_on_c, 3, 63, 0
5, 107280, Note_on_c, 3, 62, 96
5, 107280, Note_on_c, 3, 58, 96
5, 107339, Note_on_c, 3, 58, 0
5, 107339, Note_on_c, 3, 62, 0
5, 110400, Note_on_c, 3, 67, 32
5, 110520, Note_on_c, 3, 64, 32
5, 110529, Note_on_c, 3, 67, 0
5, 110760, Note_on_c, 3, 65, 32
5, 110769, Note_on_c, 3, 64, 0
5, 110879, Note_on_c, 3, 65, 0
5, 110880, Note_on_c, 3, 65, 32
5, 110999, Note_on_c, 3, 65, 0
5, 111960, Note_on_c, 3, 55, 48
5, 113280, Note_on_c, 3, 56, 80
5, 113289, Note_on_c, 3, 55, 0
5, 113400, Note_on_c, 3, 57, 96
5, 113409, Note_on_c, 3, 56, 0
5, 113759, Note_on_c, 3, 57, 0
5, 113760, Note_on_c, 3, 59, 48
5, 113879, Note_on_c, 3, 59, 0
5, 114240, Note_on_c, 3, 67, 48
5, 114420, Note_on_c, 3, 65, 48
5, 114429, Note_on_c, 3, 67, 0
5, 114480, Note_on_c, 3, 62, 48
5, 114489, Note_on_c, 3, 65, 0
5, 114599, Note_on_c, 3, 62, 0
5, 114600, Note_on_c, 3, 55, 96
5, 114629, Note_on_c, 3, 55, 0
5, 114630, Note_on_c, 3, 55, 48
5, 114899, Note_on_c, 3, 55, 0
5, 114900, Note_on_c, 3, 55, 48
5, 114929, Note_on_c, 3, 55, 0
5, 114960, Note_on_c, 3, 57, 48
5, 114989, Note_on_c, 3, 57, 0
5, 115020, Note_on_c, 3, 59, 48
5, 115049, Note_on_c, 3, 59, 0
5, 115080, Note_on_c, 3, 60, 48
5, 115109, Note_on_c, 3, 60, 0
5, 115140, Note_on_c, 3, 62, 48
5, 115169, Note_on_c, 3, 62, 0
5, 115200, Note_on_c, 3, 64, 48
5, 115319, Note_on_c, 3, 64, 0
5, 115680, Note_on_c, 3, 67, 48
5, 115860, Note_on_c, 3, 64, 48
5, 115869, Note_on_c, 3, 67, 0
5, 115920, Note_on_c, 3, 60, 48
5, 115929, Note_on_c, 3, 64, 0
5, 116039, Note_on_c, 3, 60, 0
5, 116040, Note_on_c, 3, 55, 96
5, 116339, Note_on_c, 3, 55, 0
5, 116340, Note_on_c, 3, 57, 48
5, 116369, Note_on_c, 3, 57, 0
5, 116400, Note_on_c, 3, 59, 48
5, 116429, Note_on_c, 3, 59, 0
5, 116460, Note_on_c, 3, 60, 48
5, 116489, Note_on_c, 3, 60, 0
5, 116520, Note_on_c, 3, 62, 48
5, 116549, Note_on_c, 3, 62, 0
5, 116580, Note_on_c, 3, 64, 48
5, 116609, Note_on_c, 3, 64, 0
5, 116640, Note_on_c, 3, 65, 48
5, 116759, Note_on_c, 3, 65, 0
5, 116880, Note_on_c, 3, 55, 96
5, 117119, Note_on_c, 3, 55, 0
5, 117120, Note_on_c, 3, 55, 48
5, 117149, Note_on_c, 3, 55, 0
5, 117180, Note_on_c, 3, 57, 48
5, 117209, Note_on_c, 3, 57, 0
5, 117240, Note_on_c, 3, 59, 48
5, 117269, Note_on_c, 3, 59, 0
5, 117300, Note_on_c, 3, 60, 48
5, 117329, Note_on_c, 3, 60, 0
5, 117360, Note_on_c, 3, 62, 48
5, 117389, Note_on_c, 3, 62, 0
5, 117420, Note_on_c, 3, 65, 48
5, 117449, Note_on_c, 3, 65, 0
5, 117480, Note_on_c, 3, 65, 48
5, 117509, Note_on_c, 3, 65, 0
5, 117540, Note_on_c, 3, 64, 48
5, 117569, Note_on_c, 3, 64, 0
5, 117600, Note_on_c, 3, 62, 48
5, 117629, Note_on_c, 3, 62, 0
5, 117660, Note_on_c, 3, 60, 48
5, 117689, Note_on_c, 3, 60, 0
5, 117720, Note_on_c, 3, 59, 48
5, 117749, Note_on_c, 3, 59, 0
5, 117780, Note_on_c, 3, 57, 48
5, 117809, Note_on_c, 3, 57, 0
5, 117840, Note_on_c, 3, 55, 48
5, 117869, Note_on_c, 3, 55, 0
5, 117900, Note_on_c, 3, 53, 48
5, 117929, Note_on_c, 3, 53, 0
5, 117960, Note_on_c, 3, 52, 48
5, 117989, Note_on_c, 3, 52, 0
5, 118020, Note_on_c, 3, 50, 48
5, 118049, Note_on_c, 3, 50, 0
5, 118080, Note_on_c, 3, 48, 32
5, 118199, Note_on_c, 3, 48, 0
5, 120840, Note_on_c, 3, 61, 102
5, 120840, Note_on_c, 3, 65, 115
5, 120960, Note_on_c, 3, 62, 127
5, 120969, Note_on_c, 3, 61, 0
5, 121079, Note_on_c, 3, 62, 0
5, 121079, Note_on_c, 3, 65, 0
5, 121080, Note_on_c, 3, 62, 127
5, 121080, Note_on_c, 3, 57, 127
5, 121139, Note_on_c, 3, 57, 0
5, 121139, Note_on_c, 3, 62, 0
5, 121200, Note_on_c, 3, 57, 127
5, 121200, Note_on_c, 3, 62, 127
5, 121259, Note_on_c, 3, 62, 0
5, 121259, Note_on_c, 3, 57, 0
5, 121320, Note_on_c, 3, 62, 127
5, 121320, Note_on_c, 3, 57, 127
5, 121379, Note_on_c, 3, 57, 0
5, 121379, Note_on_c, 3, 62, 0
5, 121440, Note_on_c, 3, 57, 127
5, 121440, Note_on_c, 3, 62, 127
5, 121499, Note_on_c, 3, 62, 0
5, 121499, Note_on_c, 3, 57, 0
5, 121560, Note_on_c, 3, 62, 127
5, 121560, Note_on_c, 3, 57, 127
5, 121619, Note_on_c, 3, 57, 0
5, 121619, Note_on_c, 3, 62, 0
5, 121680, Note_on_c, 3, 57, 127
5, 121680, Note_on_c, 3, 62, 127
5, 122399, Note_on_c, 3, 62, 0
5, 122399, Note_on_c, 3, 57, 0
5, 122400, Note_on_c, 3, 64, 127
5, 122400, Note_on_c, 3, 57, 127
5, 122459, Note_on_c, 3, 57, 0
5, 122459, Note_on_c, 3, 64, 0
5, 122520, Note_on_c, 3, 57, 127
5, 122520, Note_on_c, 3, 64, 127
5, 122579, Note_on_c, 3, 64, 0
5, 122579, Note_on_c, 3, 57, 0
5, 122640, Note_on_c, 3, 64, 127
5, 122640, Note_on_c, 3, 57, 127
5, 122699, Note_on_c, 3, 57, 0
5, 122699, Note_on_c, 3, 64, 0
5, 122760, Note_on_c, 3, 57, 127
5, 122760, Note_on_c, 3, 64, 127
5, 122819, Note_on_c, 3, 64, 0
5, 122819, Note_on_c, 3, 57, 0
5, 122880, Note_on_c, 3, 64, 127
5, 122880, Note_on_c, 3, 57, 127
5, 122939, Note_on_c, 3, 57, 0
5, 122939, Note_on_c, 3, 64, 0
5, 123000, Note_on_c, 3, 64, 127
5, 123000, Note_on_c, 3, 57, 127
5, 123059, Note_on_c, 3, 57, 0
5, 123059, Note_on_c, 3, 64, 0
5, 123120, Note_on_c, 3, 57, 127
5, 123120, Note_on_c, 3, 64, 127
5, 123719, Note_on_c, 3, 64, 0
5, 123719, Note_on_c, 3, 57, 0
5, 123720, Note_on_c, 3, 57, 127
5, 123720, Note_on_c, 3, 64, 127
5, 123839, Note_on_c, 3, 64, 0
5, 123839, Note_on_c, 3, 57, 0
5, 123840, Note_on_c, 3, 62, 48
5, 123840, Note_on_c, 3, 57, 48
5, 123899, Note_on_c, 3, 57, 0
5, 123899, Note_on_c, 3, 62, 0
5, 124020, Note_on_c, 3, 62, 48
5, 124079, Note_on_c, 3, 62, 0
5, 124080, Note_on_c, 3, 62, 48
5, 124139, Note_on_c, 3, 62, 0
5, 124380, Note_on_c, 3, 62, 48
5, 124439, Note_on_c, 3, 62, 0
5, 124440, Note_on_c, 3, 62, 48
5, 124499, Note_on_c, 3, 62, 0
5, 124620, Note_on_c, 3, 62, 54
5, 124679, Note_on_c, 3, 62, 0
5, 124680, Note_on_c, 3, 62, 61
5, 124739, Note_on_c, 3, 62, 0
5, 124740, Note_on_c, 3, 62, 67
5, 124799, Note_on_c, 3, 62, 0
5, 124800, Note_on_c, 3, 62, 73
5, 124859, Note_on_c, 3, 62, 0
5, 124860, Note_on_c, 3, 62, 80
5, 124919, Note_on_c, 3, 62, 0
5, 124920, Note_on_c, 3, 62, 86
5, 125039, Note_on_c, 3, 62, 0
5, 125280, Note_on_c, 3, 58, 127
5, 125280, Note_on_c, 3, 55, 127
5, 125339, Note_on_c, 3, 55, 0
5, 125339, Note_on_c, 3, 58, 0
5, 125400, Note_on_c, 3, 55, 127
5, 125400, Note_on_c, 3, 58, 127
5, 125459, Note_on_c, 3, 58, 0
5, 125459, Note_on_c, 3, 55, 0
5, 125520, Note_on_c, 3, 58, 127
5, 125520, Note_on_c, 3, 55, 127
5, 125579, Note_on_c, 3, 55, 0
5, 125579, Note_on_c, 3, 58, 0
5, 125640, Note_on_c, 3, 55, 127
5, 125640, Note_on_c, 3, 58, 127
5, 125699, Note_on_c, 3, 58, 0
5, 125699, Note_on_c, 3, 55, 0
5, 125760, Note_on_c, 3, 58, 127
5, 125760, Note_on_c, 3, 55, 127
5, 125819, Note_on_c, 3, 55, 0
5, 125819, Note_on_c, 3, 58, 0
5, 125880, Note_on_c, 3, 55, 127
5, 125880, Note_on_c, 3, 58, 127
5, 125939, Note_on_c, 3, 58, 0
5, 125939, Note_on_c, 3, 55, 0
5, 126000, Note_on_c, 3, 58, 127
5, 126000, Note_on_c, 3, 55, 127
5, 126719, Note_on_c, 3, 55, 0
5, 126719, Note_on_c, 3, 58, 0
5, 126720, Note_on_c, 3, 60, 127
5, 126720, Note_on_c, 3, 57, 127
5, 126779, Note_on_c, 3, 57, 0
5, 126779, Note_on_c, 3, 60, 0
5, 126840, Note_on_c, 3, 57, 127
5, 126840, Note_on_c, 3, 60, 127
5, 126899, Note_on_c, 3, 60, 0
5, 126899, Note_on_c, 3, 57, 0
5, 126960, Note_on_c, 3, 57, 127
5, 126960, Note_on_c, 3, 60, 127
5, 127019, Note_on_c, 3, 60, 0
5, 127019, Note_on_c, 3, 57, 0
5, 127080, Note_on_c, 3, 60, 127
5, 127080, Note_on_c, 3, 57, 127
5, 127139, Note_on_c, 3, 57, 0
5, 127139, Note_on_c, 3, 60, 0
5, 127200, Note_on_c, 3, 57, 127
5, 127200, Note_on_c, 3, 60, 127
5, 127259, Note_on_c, 3, 60, 0
5, 127259, Note_on_c, 3, 57, 0
5, 127320, Note_on_c, 3, 60, 127
5, 127320, Note_on_c, 3, 57, 127
5, 127379, Note_on_c, 3, 57, 0
5, 127379, Note_on_c, 3, 60, 0
5, 127440, Note_on_c, 3, 57, 127
5, 127440, Note_on_c, 3, 60, 127
5, 128039, Note_on_c, 3, 60, 0
5, 128039, Note_on_c, 3, 57, 0
5, 128040, Note_on_c, 3, 60, 127
5, 128159, Note_on_c, 3, 60, 0
5, 128160, Note_on_c, 3, 59, 48
5, 128219, Note_on_c, 3, 59, 0
5, 129780, Note_on_c, 3, 60, 48
5, 129839, Note_on_c, 3, 60, 0
5, 129840, Note_on_c, 3, 60, 48
5, 129899, Note_on_c, 3, 60, 0
5, 130140, Note_on_c, 3, 60, 48
5, 130199, Note_on_c, 3, 60, 0
5, 130200, Note_on_c, 3, 60, 48
5, 130259, Note_on_c, 3, 60, 0
5, 130380, Note_on_c, 3, 60, 52
5, 130439, Note_on_c, 3, 60, 0
5, 130440, Note_on_c, 3, 60, 54
5, 130499, Note_on_c, 3, 60, 0
5, 130500, Note_on_c, 3, 60, 57
5, 130559, Note_on_c, 3, 60, 0
5, 130560, Note_on_c, 3, 60, 60
5, 130619, Note_on_c, 3, 60, 0
5, 130620, Note_on_c, 3, 60, 63
5, 130679, Note_on_c, 3, 60, 0
5, 130680, Note_on_c, 3, 60, 66
5, 130799, Note_on_c, 3, 60, 0
5, 131220, Note_on_c, 3, 65, 96
5, 131279, Note_on_c, 3, 65, 0
5, 131280, Note_on_c, 3, 65, 96
5, 131339, Note_on_c, 3, 65, 0
5, 131580, Note_on_c, 3, 46, 96
5, 131580, Note_on_c, 3, 58, 96
5, 131639, Note_on_c, 3, 58, 0
5, 131639, Note_on_c, 3, 46, 0
5, 131640, Note_on_c, 3, 58, 96
5, 131640, Note_on_c, 3, 46, 96
5, 131699, Note_on_c, 3, 46, 0
5, 131699, Note_on_c, 3, 58, 0
5, 131940, Note_on_c, 3, 63, 96
5, 131940, Note_on_c, 3, 51, 96
5, 131999, Note_on_c, 3, 51, 0
5, 131999, Note_on_c, 3, 63, 0
5, 132000, Note_on_c, 3, 51, 96
5, 132000, Note_on_c, 3, 63, 96
5, 132059, Note_on_c, 3, 63, 0
5, 132059, Note_on_c, 3, 51, 0
5, 132180, Note_on_c, 3, 56, 96
5, 132239, Note_on_c, 3, 56, 0
5, 132240, Note_on_c, 3, 56, 96
5, 132299, Note_on_c, 3, 56, 0
5, 132300, Note_on_c, 3, 56, 96
5, 132359, Note_on_c, 3, 56, 0
5, 132360, Note_on_c, 3, 56, 96
5, 132419, Note_on_c, 3, 56, 0
5, 132420, Note_on_c, 3, 56, 96
5, 132479, Note_on_c, 3, 56, 0
5, 132480, Note_on_c, 3, 65, 127
5, 132480, Note_on_c, 3, 53, 127
5, 132839, Note_on_c, 3, 53, 0
5, 132839, Note_on_c, 3, 65, 0
5, 132840, Note_on_c, 3, 52, 127
5, 132840, Note_on_c, 3, 64, 127
5, 133199, Note_on_c, 3, 64, 0
5, 133199, Note_on_c, 3, 52, 0
5, 133200, Note_on_c, 3, 51, 127
5, 133200, Note_on_c, 3, 63, 127
5, 133319, Note_on_c, 3, 63, 0
5, 133319, Note_on_c, 3, 51, 0
5, 133680, Note_on_c, 3, 63, 48
5, 133860, Note_on_c, 3, 61, 48
5, 133869, Note_on_c, 3, 63, 0
5, 133920, Note_on_c, 3, 58, 48
5, 133929, Note_on_c, 3, 61, 0
5, 134039, Note_on_c, 3, 58, 0
5, 135120, Note_on_c, 3, 63, 48
5, 135300, Note_on_c, 3, 60, 48
5, 135309, Note_on_c, 3, 63, 0
5, 135360, Note_on_c, 3, 56, 48
5, 135369, Note_on_c, 3, 60, 0
5, 135479, Note_on_c, 3, 56, 0
5, 135720, Note_on_c, 3, 51, 96
5, 135749, Note_on_c, 3, 51, 0
5, 135750, Note_on_c, 3, 51, 48
5, 136139, Note_on_c, 3, 51, 0
5, 136140, Note_on_c, 3, 53, 48
5, 136169, Note_on_c, 3, 53, 0
5, 136200, Note_on_c, 3, 55, 48
5, 136229, Note_on_c, 3, 55, 0
5, 136260, Note_on_c, 3, 56, 48
5, 136289, Note_on_c, 3, 56, 0
5, 136320, Note_on_c, 3, 58, 48
5, 136349, Note_on_c, 3, 58, 0
5, 136380, Note_on_c, 3, 60, 48
5, 136409, Note_on_c, 3, 60, 0
5, 136440, Note_on_c, 3, 61, 48
5, 136619, Note_on_c, 3, 61, 0
5, 136620, Note_on_c, 3, 60, 48
5, 136649, Note_on_c, 3, 60, 0
5, 136680, Note_on_c, 3, 58, 48
5, 136709, Note_on_c, 3, 58, 0
5, 136740, Note_on_c, 3, 56, 48
5, 136769, Note_on_c, 3, 56, 0
5, 136800, Note_on_c, 3, 55, 48
5, 136829, Note_on_c, 3, 55, 0
5, 136860, Note_on_c, 3, 56, 48
5, 136889, Note_on_c, 3, 56, 0
5, 136920, Note_on_c, 3, 58, 48
5, 136949, Note_on_c, 3, 58, 0
5, 136980, Note_on_c, 3, 56, 48
5, 137009, Note_on_c, 3, 56, 0
5, 137040, Note_on_c, 3, 55, 48
5, 137069, Note_on_c, 3, 55, 0
5, 137100, Note_on_c, 3, 53, 48
5, 137129, Note_on_c, 3, 53, 0
5, 137160, Note_on_c, 3, 51, 48
5, 137279, Note_on_c, 3, 51, 0
5, 141600, Note_on_c, 3, 55, 55
5, 141659, Note_on_c, 3, 55, 0
5, 141720, Note_on_c, 3, 67, 96
5, 141960, Note_on_c, 3, 64, 70
5, 142079, Note_on_c, 3, 64, 0
5, 142079, Note_on_c, 3, 67, 0
5, 142680, Note_on_c, 3, 55, 100
5, 142680, Note_on_c, 3, 52, 100
5, 142739, Note_on_c, 3, 52, 0
5, 142739, Note_on_c, 3, 55, 0
5, 142800, Note_on_c, 3, 67, 118
5, 142800, Note_on_c, 3, 64, 118
5, 142980, Note_on_c, 3, 62, 113
5, 142980, Note_on_c, 3, 65, 113
5, 142989, Note_on_c, 3, 64, 0
5, 142989, Note_on_c, 3, 67, 0
5, 143039, Note_on_c, 3, 62, 0
5, 143039, Note_on_c, 3, 65, 0
5, 143040, Note_on_c, 3, 65, 115
5, 143040, Note_on_c, 3, 62, 115
5, 143069, Note_on_c, 3, 62, 0
5, 143069, Note_on_c, 3, 65, 0
5, 143100, Note_on_c, 3, 60, 118
5, 143100, Note_on_c, 3, 64, 118
5, 143129, Note_on_c, 3, 64, 0
5, 143129, Note_on_c, 3, 60, 0
5, 143160, Note_on_c, 3, 58, 120
5, 143160, Note_on_c, 3, 62, 120
5, 143189, Note_on_c, 3, 62, 0
5, 143189, Note_on_c, 3, 58, 0
5, 143220, Note_on_c, 3, 57, 123
5, 143220, Note_on_c, 3, 60, 123
5, 143249, Note_on_c, 3, 60, 0
5, 143249, Note_on_c, 3, 57, 0
5, 143280, Note_on_c, 3, 59, 125
5, 143280, Note_on_c, 3, 56, 125
5, 143339, Note_on_c, 3, 56, 0
5, 143339, Note_on_c, 3, 59, 0
5, 143400, Note_on_c, 3, 59, 127
5, 143400, Note_on_c, 3, 56, 127
5, 144119, Note_on_c, 3, 56, 0
5, 144119, Note_on_c, 3, 59, 0
5, 144120, Note_on_c, 3, 59, 127
5, 144120, Note_on_c, 3, 56, 127
5, 144359, Note_on_c, 3, 56, 0
5, 144359, Note_on_c, 3, 59, 0
5, 144360, Note_on_c, 3, 56, 127
5, 144360, Note_on_c, 3, 59, 127
5, 144599, Note_on_c, 3, 59, 0
5, 144599, Note_on_c, 3, 56, 0
5, 144600, Note_on_c, 3, 59, 127
5, 144600, Note_on_c, 3, 56, 127
5, 144839, Note_on_c, 3, 56, 0
5, 144839, Note_on_c, 3, 59, 0
5, 144840, Note_on_c, 3, 59, 127
5, 144840, Note_on_c, 3, 56, 127
5, 145079, Note_on_c, 3, 56, 0
5, 145079, Note_on_c, 3, 59, 0
5, 145080, Note_on_c, 3, 59, 127
5, 145080, Note_on_c, 3, 56, 127
5, 145319, Note_on_c, 3, 56, 0
5, 145319, Note_on_c, 3, 59, 0
5, 145320, Note_on_c, 3, 59, 127
5, 145320, Note_on_c, 3, 56, 127
5, 145439, Note_on_c, 3, 56, 0
5, 145439, Note_on_c, 3, 59, 0
5, 145560, Note_on_c, 3, 60, 127
5, 145560, Note_on_c, 3, 57, 127
5, 146279, Note_on_c, 3, 57, 0
5, 146279, Note_on_c, 3, 60, 0
5, 146280, Note_on_c, 3, 60, 127
5, 146280, Note_on_c, 3, 57, 127
5, 146519, Note_on_c, 3, 57, 0
5, 146519, Note_on_c, 3, 60, 0
5, 146520, Note_on_c, 3, 60, 127
5, 146520, Note_on_c, 3, 57, 127
5, 146759, Note_on_c, 3, 57, 0
5, 146759, Note_on_c, 3, 60, 0
5, 146760, Note_on_c, 3, 60, 127
5, 146760, Note_on_c, 3, 57, 127
5, 146999, Note_on_c, 3, 57, 0
5, 146999, Note_on_c, 3, 60, 0
5, 147000, Note_on_c, 3, 60, 127
5, 147000, Note_on_c, 3, 57, 127
5, 147239, Note_on_c, 3, 57, 0
5, 147239, Note_on_c, 3, 60, 0
5, 147240, Note_on_c, 3, 60, 127
5, 147240, Note_on_c, 3, 57, 127
5, 147479, Note_on_c, 3, 57, 0
5, 147479, Note_on_c, 3, 60, 0
5, 147480, Note_on_c, 3, 60, 127
5, 147480, Note_on_c, 3, 57, 127
5, 147599, Note_on_c, 3, 57, 0
5, 147599, Note_on_c, 3, 60, 0
5, 147720, Note_on_c, 3, 57, 127
5, 147720, Note_on_c, 3, 59, 127
5, 148439, Note_on_c, 3, 59, 0
5, 148439, Note_on_c, 3, 57, 0
5, 148440, Note_on_c, 3, 59, 127
5, 148440, Note_on_c, 3, 57, 127
5, 148679, Note_on_c, 3, 57, 0
5, 148679, Note_on_c, 3, 59, 0
5, 148680, Note_on_c, 3, 57, 127
5, 148680, Note_on_c, 3, 59, 127
5, 148919, Note_on_c, 3, 59, 0
5, 148919, Note_on_c, 3, 57, 0
5, 148920, Note_on_c, 3, 59, 127
5, 148920, Note_on_c, 3, 57, 127
5, 149159, Note_on_c, 3, 57, 0
5, 149159, Note_on_c, 3, 59, 0
5, 149160, Note_on_c, 3, 59, 127
5, 149160, Note_on_c, 3, 57, 127
5, 149399, Note_on_c, 3, 57, 0
5, 149399, Note_on_c, 3, 59, 0
5, 149400, Note_on_c, 3, 59, 127
5, 149400, Note_on_c, 3, 57, 127
5, 149639, Note_on_c, 3, 57, 0
5, 149639, Note_on_c, 3, 59, 0
5, 149640, Note_on_c, 3, 59, 127
5, 149640, Note_on_c, 3, 57, 127
5, 149759, Note_on_c, 3, 57, 0
5, 149759, Note_on_c, 3, 59, 0
5, 149880, Note_on_c, 3, 46, 127
5, 149880, Note_on_c, 3, 58, 127
5, 150599, Note_on_c, 3, 58, 0
5, 150599, Note_on_c, 3, 46, 0
5, 150600, Note_on_c, 3, 58, 127
5, 150600, Note_on_c, 3, 46, 127
5, 150839, Note_on_c, 3, 46, 0
5, 150839, Note_on_c, 3, 58, 0
5, 150840, Note_on_c, 3, 46, 127
5, 150840, Note_on_c, 3, 58, 127
5, 151079, Note_on_c, 3, 58, 0
5, 151079, Note_on_c, 3, 46, 0
5, 151080, Note_on_c, 3, 58, 127
5, 151080, Note_on_c, 3, 46, 127
5, 151319, Note_on_c, 3, 46, 0
5, 151319, Note_on_c, 3, 58, 0
5, 151320, Note_on_c, 3, 46, 127
5, 151320, Note_on_c, 3, 58, 127
5, 151559, Note_on_c, 3, 58, 0
5, 151559, Note_on_c, 3, 46, 0
5, 151560, Note_on_c, 3, 58, 127
5, 151560, Note_on_c, 3, 46, 127
5, 151799, Note_on_c, 3, 46, 0
5, 151799, Note_on_c, 3, 58, 0
5, 151800, Note_on_c, 3, 46, 127
5, 151800, Note_on_c, 3, 58, 127
5, 151919, Note_on_c, 3, 58, 0
5, 151919, Note_on_c, 3, 46, 0
5, 152040, Note_on_c, 3, 60, 127
5, 152040, Note_on_c, 3, 57, 127
5, 152279, Note_on_c, 3, 57, 0
5, 152279, Note_on_c, 3, 60, 0
5, 152280, Note_on_c, 3, 57, 127
5, 152280, Note_on_c, 3, 60, 127
5, 152519, Note_on_c, 3, 60, 0
5, 152519, Note_on_c, 3, 57, 0
5, 152520, Note_on_c, 3, 60, 127
5, 152520, Note_on_c, 3, 57, 127
5, 152639, Note_on_c, 3, 57, 0
5, 152639, Note_on_c, 3, 60, 0
5, 152760, Note_on_c, 3, 60, 127
5, 152760, Note_on_c, 3, 55, 127
5, 152999, Note_on_c, 3, 55, 0
5, 152999, Note_on_c, 3, 60, 0
5, 153000, Note_on_c, 3, 55, 127
5, 153000, Note_on_c, 3, 60, 127
5, 153239, Note_on_c, 3, 60, 0
5, 153239, Note_on_c, 3, 55, 0
5, 153240, Note_on_c, 3, 60, 127
5, 153240, Note_on_c, 3, 55, 127
5, 153299, Note_on_c, 3, 55, 0
5, 153299, Note_on_c, 3, 60, 0
5, 153360, Note_on_c, 3, 60, 96
5, 153360, Note_on_c, 3, 57, 96
5, 153599, Note_on_c, 3, 57, 0
5, 153599, Note_on_c, 3, 60, 0
5, 153720, Note_on_c, 3, 57, 96
5, 153720, Note_on_c, 3, 60, 96
5, 153959, Note_on_c, 3, 60, 0
5, 153959, Note_on_c, 3, 57, 0
5, 154080, Note_on_c, 3, 60, 96
5, 154080, Note_on_c, 3, 57, 96
5, 154319, Note_on_c, 3, 57, 0
5, 154319, Note_on_c, 3, 60, 0
5, 154440, Note_on_c, 3, 57, 96
5, 154440, Note_on_c, 3, 60, 96
5, 154679, Note_on_c, 3, 60, 0
5, 154679, Note_on_c, 3, 57, 0
5, 154680, Note_on_c, 3, 60, 96
5, 154680, Note_on_c, 3, 57, 96
5, 154739, Note_on_c, 3, 57, 0
5, 154739, Note_on_c, 3, 60, 0
5, 158940, Note_on_c, 3, 62, 50
5, 159000, Note_on_c, 3, 60, 52
5, 159009, Note_on_c, 3, 62, 0
5, 159060, Note_on_c, 3, 59, 50
5, 159069, Note_on_c, 3, 60, 0
5, 159119, Note_on_c, 3, 59, 0
5, 159120, Note_on_c, 3, 57, 50
5, 159239, Note_on_c, 3, 57, 0
5, 159240, Note_on_c, 3, 60, 52
5, 159240, Note_on_c, 3, 57, 52
5, 159360, Note_on_c, 3, 62, 52
5, 159360, Note_on_c, 3, 59, 52
5, 159369, Note_on_c, 3, 57, 0
5, 159369, Note_on_c, 3, 60, 0
5, 159480, Note_on_c, 3, 60, 64
5, 159480, Note_on_c, 3, 64, 64
5, 159489, Note_on_c, 3, 62, 0
5, 159489, Note_on_c, 3, 59, 0
5, 159660, Note_on_c, 3, 59, 52
5, 159660, Note_on_c, 3, 62, 52
5, 159669, Note_on_c, 3, 60, 0
5, 159669, Note_on_c, 3, 64, 0
5, 159720, Note_on_c, 3, 57, 52
5, 159720, Note_on_c, 3, 60, 52
5, 159729, Note_on_c, 3, 59, 0
5, 159729, Note_on_c, 3, 62, 0
5, 159839, Note_on_c, 3, 57, 0
5, 159839, Note_on_c, 3, 60, 0
5, 159840, Note_on_c, 3, 59, 52
5, 159840, Note_on_c, 3, 56, 52
5, 159959, Note_on_c, 3, 59, 0
5, 159960, Note_on_c, 3, 59, 52
5, 159960, Note_on_c, 3, 55, 52
5, 159969, Note_on_c, 3, 56, 0
5, 160080, Note_on_c, 3, 57, 52
5, 160080, Note_on_c, 3, 54, 52
5, 160089, Note_on_c, 3, 55, 0
5, 160089, Note_on_c, 3, 59, 0
5, 160200, Note_on_c, 3, 56, 64
5, 160200, Note_on_c, 3, 52, 64
5, 160209, Note_on_c, 3, 57, 0
5, 160209, Note_on_c, 3, 54, 0
5, 160440, Note_on_c, 3, 57, 52
5, 160440, Note_on_c, 3, 54, 52
5, 160449, Note_on_c, 3, 56, 0
5, 160449, Note_on_c, 3, 52, 0
5, 160500, Note_on_c, 3, 59, 52
5, 160500, Note_on_c, 3, 56, 52
5, 160509, Note_on_c, 3, 57, 0
5, 160509, Note_on_c, 3, 54, 0
5, 160559, Note_on_c, 3, 59, 0
5, 160559, Note_on_c, 3, 56, 0
5, 160560, Note_on_c, 3, 57, 52
5, 160560, Note_on_c, 3, 60, 52
5, 160679, Note_on_c, 3, 60, 0
5, 160679, Note_on_c, 3, 57, 0
5, 160680, Note_on_c, 3, 60, 52
5, 160680, Note_on_c, 3, 57, 52
5, 160800, Note_on_c, 3, 62, 52
5, 160800, Note_on_c, 3, 59, 52
5, 160809, Note_on_c, 3, 57, 0
5, 160809, Note_on_c, 3, 60, 0
5, 160920, Note_on_c, 3, 64, 52
5, 160920, Note_on_c, 3, 60, 52
5, 160929, Note_on_c, 3, 62, 0
5, 160929, Note_on_c, 3, 59, 0
5, 161100, Note_on_c, 3, 59, 52
5, 161100, Note_on_c, 3, 62, 52
5, 161109, Note_on_c, 3, 64, 0
5, 161109, Note_on_c, 3, 60, 0
5, 161160, Note_on_c, 3, 60, 52
5, 161160, Note_on_c, 3, 57, 52
5, 161169, Note_on_c, 3, 59, 0
5, 161169, Note_on_c, 3, 62, 0
5, 161279, Note_on_c, 3, 60, 0
5, 161279, Note_on_c, 3, 57, 0
5, 161280, Note_on_c, 3, 59, 52
5, 161280, Note_on_c, 3, 56, 52
5, 161399, Note_on_c, 3, 59, 0
5, 161400, Note_on_c, 3, 59, 52
5, 161400, Note_on_c, 3, 55, 52
5, 161409, Note_on_c, 3, 56, 0
5, 161520, Note_on_c, 3, 57, 52
5, 161520, Note_on_c, 3, 54, 52
5, 161529, Note_on_c, 3, 55, 0
5, 161529, Note_on_c, 3, 59, 0
5, 161640, Note_on_c, 3, 55, 52
5, 161640, Note_on_c, 3, 52, 52
5, 161649, Note_on_c, 3, 57, 0
5, 161649, Note_on_c, 3, 54, 0
5, 161699, Note_on_c, 3, 55, 0
5, 161699, Note_on_c, 3, 52, 0
5, 161700, Note_on_c, 3, 52, 56
5, 161760, Note_on_c, 3, 55, 64
5, 161769, Note_on_c, 3, 52, 0
5, 161820, Note_on_c, 3, 53, 72
5, 161829, Note_on_c, 3, 55, 0
5, 161880, Note_on_c, 3, 52, 80
5, 161889, Note_on_c, 3, 53, 0
5, 161940, Note_on_c, 3, 50, 88
5, 161949, Note_on_c, 3, 52, 0
5, 161999, Note_on_c, 3, 50, 0
5, 162000, Note_on_c, 3, 48, 96
5, 162119, Note_on_c, 3, 48, 0
5, 162120, Note_on_c, 3, 60, 96
5, 162120, Note_on_c, 3, 48, 96
5, 162240, Note_on_c, 3, 52, 96
5, 162240, Note_on_c, 3, 64, 96
5, 162249, Note_on_c, 3, 48, 0
5, 162249, Note_on_c, 3, 60, 0
5, 162360, Note_on_c, 3, 60, 96
5, 162360, Note_on_c, 3, 48, 96
5, 162369, Note_on_c, 3, 52, 0
5, 162369, Note_on_c, 3, 64, 0
5, 162600, Note_on_c, 3, 43, 96
5, 162600, Note_on_c, 3, 55, 96
5, 162609, Note_on_c, 3, 60, 0
5, 162609, Note_on_c, 3, 48, 0
5, 162719, Note_on_c, 3, 43, 0
5, 162719, Note_on_c, 3, 55, 0
5, 162720, Note_on_c, 3, 60, 96
5, 162720, Note_on_c, 3, 48, 96
5, 162779, Note_on_c, 3, 48, 0
5, 162779, Note_on_c, 3, 60, 0
5, 162840, Note_on_c, 3, 64, 96
5, 162840, Note_on_c, 3, 52, 96
5, 162899, Note_on_c, 3, 52, 0
5, 162899, Note_on_c, 3, 64, 0
5, 162960, Note_on_c, 3, 67, 96
5, 162960, Note_on_c, 3, 55, 96
5, 163019, Note_on_c, 3, 55, 0
5, 163019, Note_on_c, 3, 67, 0
5, 163080, Note_on_c, 3, 60, 96
5, 163080, Note_on_c, 3, 48, 96
5, 163319, Note_on_c, 3, 48, 0
5, 163319, Note_on_c, 3, 60, 0
5, 163320, Note_on_c, 3, 43, 96
5, 163439, Note_on_c, 3, 43, 0
5, 163440, Note_on_c, 3, 48, 96
5, 163499, Note_on_c, 3, 48, 0
5, 163560, Note_on_c, 3, 52, 96
5, 163619, Note_on_c, 3, 52, 0
5, 163680, Note_on_c, 3, 55, 96
5, 163739, Note_on_c, 3, 55, 0
5, 163800, Note_on_c, 3, 60, 96
5, 163859, Note_on_c, 3, 60, 0
5, 163920, Note_on_c, 3, 64, 96
5, 163979, Note_on_c, 3, 64, 0
5, 164040, Note_on_c, 3, 67, 112
5, 164219, Note_on_c, 3, 67, 0
5, 164220, Note_on_c, 3, 65, 96
5, 164249, Note_on_c, 3, 65, 0
5, 164280, Note_on_c, 3, 62, 96
5, 164309, Note_on_c, 3, 62, 0
5, 164340, Note_on_c, 3, 59, 96
5, 164369, Note_on_c, 3, 59, 0
5, 164400, Note_on_c, 3, 55, 96
5, 164429, Note_on_c, 3, 55, 0
5, 164460, Note_on_c, 3, 53, 96
5, 164489, Note_on_c, 3, 53, 0
5, 164520, Note_on_c, 3, 50, 96
5, 164549, Note_on_c, 3, 50, 0
5, 164580, Note_on_c, 3, 53, 96
5, 164609, Note_on_c, 3, 53, 0
5, 164640, Note_on_c, 3, 50, 96
5, 164669, Note_on_c, 3, 50, 0
5, 164700, Note_on_c, 3, 47, 96
5, 164729, Note_on_c, 3, 47, 0
5, 164760, Note_on_c, 3, 43, 96
5, 164789, Note_on_c, 3, 43, 0
5, 164820, Note_on_c, 3, 47, 96
5, 164849, Note_on_c, 3, 47, 0
5, 164880, Note_on_c, 3, 48, 96
5, 164939, Note_on_c, 3, 48, 0
5, 165000, Note_on_c, 3, 51, 96
5, 165059, Note_on_c, 3, 51, 0
5, 165120, Note_on_c, 3, 55, 96
5, 165179, Note_on_c, 3, 55, 0
5, 165240, Note_on_c, 3, 60, 96
5, 165299, Note_on_c, 3, 60, 0
5, 165360, Note_on_c, 3, 63, 96
5, 165419, Note_on_c, 3, 63, 0
5, 165480, Note_on_c, 3, 67, 112
5, 165659, Note_on_c, 3, 67, 0
5, 165660, Note_on_c, 3, 65, 96
5, 165689, Note_on_c, 3, 65, 0
5, 165720, Note_on_c, 3, 62, 96
5, 165749, Note_on_c, 3, 62, 0
5, 165780, Note_on_c, 3, 59, 96
5, 165809, Note_on_c, 3, 59, 0
5, 165840, Note_on_c, 3, 55, 96
5, 165869, Note_on_c, 3, 55, 0
5, 165900, Note_on_c, 3, 53, 96
5, 165929, Note_on_c, 3, 53, 0
5, 165960, Note_on_c, 3, 50, 96
5, 165989, Note_on_c, 3, 50, 0
5, 166020, Note_on_c, 3, 53, 96
5, 166049, Note_on_c, 3, 53, 0
5, 166080, Note_on_c, 3, 50, 96
5, 166109, Note_on_c, 3, 50, 0
5, 166140, Note_on_c, 3, 47, 96
5, 166169, Note_on_c, 3, 47, 0
5, 166200, Note_on_c, 3, 43, 96
5, 166229, Note_on_c, 3, 43, 0
5, 166260, Note_on_c, 3, 47, 96
5, 166289, Note_on_c, 3, 47, 0
5, 166320, Note_on_c, 3, 48, 96
5, 166440, Note_on_c, 3, 51, 96
5, 166449, Note_on_c, 3, 48, 0
5, 166560, Note_on_c, 3, 55, 96
5, 166569, Note_on_c, 3, 51, 0
5, 166679, Note_on_c, 3, 55, 0
5, 166680, Note_on_c, 3, 56, 112
5, 166920, Note_on_c, 3, 48, 96
5, 166929, Note_on_c, 3, 56, 0
5, 167039, Note_on_c, 3, 48, 0
5, 167040, Note_on_c, 3, 49, 96
5, 167160, Note_on_c, 3, 53, 96
5, 167169, Note_on_c, 3, 49, 0
5, 167280, Note_on_c, 3, 57, 96
5, 167289, Note_on_c, 3, 53, 0
5, 167399, Note_on_c, 3, 57, 0
5, 167400, Note_on_c, 3, 58, 112
5, 167640, Note_on_c, 3, 50, 96
5, 167649, Note_on_c, 3, 58, 0
5, 167759, Note_on_c, 3, 50, 0
5, 167760, Note_on_c, 3, 51, 96
5, 167819, Note_on_c, 3, 51, 0
5, 167880, Note_on_c, 3, 43, 96
5, 167939, Note_on_c, 3, 43, 0
5, 168000, Note_on_c, 3, 46, 96
5, 168059, Note_on_c, 3, 46, 0
5, 168120, Note_on_c, 3, 51, 96
5, 168179, Note_on_c, 3, 51, 0
5, 168240, Note_on_c, 3, 55, 96
5, 168299, Note_on_c, 3, 55, 0
5, 168360, Note_on_c, 3, 58, 112
5, 168539, Note_on_c, 3, 58, 0
5, 168540, Note_on_c, 3, 56, 96
5, 168569, Note_on_c, 3, 56, 0
5, 168600, Note_on_c, 3, 53, 96
5, 168629, Note_on_c, 3, 53, 0
5, 168660, Note_on_c, 3, 50, 96
5, 168689, Note_on_c, 3, 50, 0
5, 168720, Note_on_c, 3, 46, 96
5, 168749, Note_on_c, 3, 46, 0
5, 168780, Note_on_c, 3, 44, 96
5, 168809, Note_on_c, 3, 44, 0
5, 168840, Note_on_c, 3, 41, 96
5, 168869, Note_on_c, 3, 41, 0
5, 168900, Note_on_c, 3, 56, 96
5, 168929, Note_on_c, 3, 56, 0
5, 168960, Note_on_c, 3, 53, 96
5, 168989, Note_on_c, 3, 53, 0
5, 169020, Note_on_c, 3, 50, 96
5, 169049, Note_on_c, 3, 50, 0
5, 169080, Note_on_c, 3, 46, 96
5, 169109, Note_on_c, 3, 46, 0
5, 169140, Note_on_c, 3, 50, 96
5, 169169, Note_on_c, 3, 50, 0
5, 169200, Note_on_c, 3, 51, 127
5, 169259, Note_on_c, 3, 51, 0
5, 169320, Note_on_c, 3, 42, 127
5, 169379, Note_on_c, 3, 42, 0
5, 169440, Note_on_c, 3, 46, 127
5, 169499, Note_on_c, 3, 46, 0
5, 169560, Note_on_c, 3, 51, 127
5, 169619, Note_on_c, 3, 51, 0
5, 169680, Note_on_c, 3, 54, 127
5, 169739, Note_on_c, 3, 54, 0
5, 169800, Note_on_c, 3, 58, 127
5, 169859, Note_on_c, 3, 58, 0
5, 169920, Note_on_c, 3, 63, 127
5, 170039, Note_on_c, 3, 63, 0
5, 170040, Note_on_c, 3, 63, 48
5, 170160, Note_on_c, 3, 65, 48
5, 170169, Note_on_c, 3, 63, 0
5, 170280, Note_on_c, 3, 66, 56
5, 170289, Note_on_c, 3, 65, 0
5, 170460, Note_on_c, 3, 65, 48
5, 170469, Note_on_c, 3, 66, 0
5, 170520, Note_on_c, 3, 63, 48
5, 170529, Note_on_c, 3, 65, 0
5, 170639, Note_on_c, 3, 63, 0
5, 170640, Note_on_c, 3, 62, 48
5, 170760, Note_on_c, 3, 61, 48
5, 170769, Note_on_c, 3, 62, 0
5, 170880, Note_on_c, 3, 60, 48
5, 170889, Note_on_c, 3, 61, 0
5, 171000, Note_on_c, 3, 58, 56
5, 171009, Note_on_c, 3, 60, 0
5, 171240, Note_on_c, 3, 60, 48
5, 171249, Note_on_c, 3, 58, 0
5, 171300, Note_on_c, 3, 62, 48
5, 171309, Note_on_c, 3, 60, 0
5, 171359, Note_on_c, 3, 62, 0
5, 171360, Note_on_c, 3, 63, 48
5, 171479, Note_on_c, 3, 63, 0
5, 171480, Note_on_c, 3, 63, 48
5, 171600, Note_on_c, 3, 65, 48
5, 171609, Note_on_c, 3, 63, 0
5, 171720, Note_on_c, 3, 66, 56
5, 171729, Note_on_c, 3, 65, 0
5, 171900, Note_on_c, 3, 65, 40
5, 171909, Note_on_c, 3, 66, 0
5, 171960, Note_on_c, 3, 63, 32
5, 171969, Note_on_c, 3, 65, 0
5, 172079, Note_on_c, 3, 63, 0
5, 172080, Note_on_c, 3, 61, 40
5, 172500, Note_on_c, 3, 59, 48
5, 172509, Note_on_c, 3, 61, 0
5, 172560, Note_on_c, 3, 58, 48
5, 172569, Note_on_c, 3, 59, 0
5, 172620, Note_on_c, 3, 59, 48
5, 172629, Note_on_c, 3, 58, 0
5, 172680, Note_on_c, 3, 61, 48
5, 172689, Note_on_c, 3, 59, 0
5, 172740, Note_on_c, 3, 59, 48
5, 172749, Note_on_c, 3, 61, 0
5, 172800, Note_on_c, 3, 58, 48
5, 172809, Note_on_c, 3, 59, 0
5, 172919, Note_on_c, 3, 58, 0
5, 175680, Note_on_c, 3, 58, 48
5, 175920, Note_on_c, 3, 62, 48
5, 175929, Note_on_c, 3, 58, 0
5, 176040, Note_on_c, 3, 58, 48
5, 176049, Note_on_c, 3, 62, 0
5, 176280, Note_on_c, 3, 53, 48
5, 176289, Note_on_c, 3, 58, 0
5, 176399, Note_on_c, 3, 53, 0
5, 176400, Note_on_c, 3, 58, 48
5, 176520, Note_on_c, 3, 62, 48
5, 176529, Note_on_c, 3, 58, 0
5, 176640, Note_on_c, 3, 65, 48
5, 176649, Note_on_c, 3, 62, 0
5, 176759, Note_on_c, 3, 65, 0
5, 176760, Note_on_c, 3, 65, 48
5, 177119, Note_on_c, 3, 65, 0
5, 177120, Note_on_c, 3, 58, 48
5, 177360, Note_on_c, 3, 63, 48
5, 177369, Note_on_c, 3, 58, 0
5, 177480, Note_on_c, 3, 58, 48
5, 177489, Note_on_c, 3, 63, 0
5, 177720, Note_on_c, 3, 54, 48
5, 177729, Note_on_c, 3, 58, 0
5, 177839, Note_on_c, 3, 54, 0
5, 177840, Note_on_c, 3, 58, 48
5, 177960, Note_on_c, 3, 63, 48
5, 177969, Note_on_c, 3, 58, 0
5, 178080, Note_on_c, 3, 66, 48
5, 178089, Note_on_c, 3, 63, 0
5, 178199, Note_on_c, 3, 66, 0
5, 178200, Note_on_c, 3, 66, 48
5, 178559, Note_on_c, 3, 66, 0
5, 178560, Note_on_c, 3, 60, 48
5, 178800, Note_on_c, 3, 63, 48
5, 178809, Note_on_c, 3, 60, 0
5, 178920, Note_on_c, 3, 60, 48
5, 178929, Note_on_c, 3, 63, 0
5, 179160, Note_on_c, 3, 56, 48
5, 179169, Note_on_c, 3, 60, 0
5, 179279, Note_on_c, 3, 56, 0
5, 179280, Note_on_c, 3, 60, 48
5, 179400, Note_on_c, 3, 63, 48
5, 179409, Note_on_c, 3, 60, 0
5, 179520, Note_on_c, 3, 68, 48
5, 179529, Note_on_c, 3, 63, 0
5, 179639, Note_on_c, 3, 68, 0
5, 179640, Note_on_c, 3, 68, 48
5, 179999, Note_on_c, 3, 68, 0
5, 180000, Note_on_c, 3, 61, 48
5, 180240, Note_on_c, 3, 65, 48
5, 180249, Note_on_c, 3, 61, 0
5, 180360, Note_on_c, 3, 61, 48
5, 180369, Note_on_c, 3, 65, 0
5, 180600, Note_on_c, 3, 56, 48
5, 180609, Note_on_c, 3, 61, 0
5, 180719, Note_on_c, 3, 56, 0
5, 180720, Note_on_c, 3, 56, 48
5, 180840, Note_on_c, 3, 61, 48
5, 180849, Note_on_c, 3, 56, 0
5, 180960, Note_on_c, 3, 65, 48
5, 180969, Note_on_c, 3, 61, 0
5, 181079, Note_on_c, 3, 65, 0
5, 181080, Note_on_c, 3, 65, 48
5, 181439, Note_on_c, 3, 65, 0
5, 181440, Note_on_c, 3, 62, 48
5, 181680, Note_on_c, 3, 65, 50
5, 181689, Note_on_c, 3, 62, 0
5, 181800, Note_on_c, 3, 62, 51
5, 181809, Note_on_c, 3, 65, 0
5, 182040, Note_on_c, 3, 58, 53
5, 182049, Note_on_c, 3, 62, 0
5, 182159, Note_on_c, 3, 58, 0
5, 182160, Note_on_c, 3, 58, 54
5, 182280, Note_on_c, 3, 62, 55
5, 182289, Note_on_c, 3, 58, 0
5, 182400, Note_on_c, 3, 65, 56
5, 182409, Note_on_c, 3, 62, 0
5, 182519, Note_on_c, 3, 65, 0
5, 182520, Note_on_c, 3, 65, 96
5, 182879, Note_on_c, 3, 65, 0
5, 182880, Note_on_c, 3, 63, 96
5, 182999, Note_on_c, 3, 63, 0
5, 183240, Note_on_c, 3, 51, 96
5, 183240, Note_on_c, 3, 63, 96
5, 183480, Note_on_c, 3, 54, 72
5, 183480, Note_on_c, 3, 66, 72
5, 183489, Note_on_c, 3, 63, 0
5, 183489, Note_on_c, 3, 51, 0
5, 183599, Note_on_c, 3, 54, 0
5, 183599, Note_on_c, 3, 66, 0
5, 183960, Note_on_c, 3, 51, 96
5, 183960, Note_on_c, 3, 63, 96
5, 184200, Note_on_c, 3, 66, 96
5, 184200, Note_on_c, 3, 54, 96
5, 184209, Note_on_c, 3, 63, 0
5, 184209, Note_on_c, 3, 51, 0
5, 184319, Note_on_c, 3, 66, 0
5, 184319, Note_on_c, 3, 54, 0
5, 184320, Note_on_c, 3, 47, 127
5, 184320, Note_on_c, 3, 59, 127
5, 185519, Note_on_c, 3, 59, 0
5, 185519, Note_on_c, 3, 47, 0
5, 185520, Note_on_c, 3, 59, 127
5, 185520, Note_on_c, 3, 47, 127
5, 185639, Note_on_c, 3, 47, 0
5, 185639, Note_on_c, 3, 59, 0
5, 185640, Note_on_c, 3, 59, 127
5, 185640, Note_on_c, 3, 47, 127
5, 185759, Note_on_c, 3, 47, 0
5, 185759, Note_on_c, 3, 59, 0
5, 185760, Note_on_c, 3, 63, 96
5, 185760, Note_on_c, 3, 59, 96
5, 186119, Note_on_c, 3, 59, 0
5, 186119, Note_on_c, 3, 63, 0
5, 186120, Note_on_c, 3, 59, 96
5, 186120, Note_on_c, 3, 63, 96
5, 186479, Note_on_c, 3, 63, 0
5, 186479, Note_on_c, 3, 59, 0
5, 186480, Note_on_c, 3, 63, 96
5, 186480, Note_on_c, 3, 59, 96
5, 186839, Note_on_c, 3, 59, 0
5, 186839, Note_on_c, 3, 63, 0
5, 186840, Note_on_c, 3, 59, 96
5, 186840, Note_on_c, 3, 63, 96
5, 187199, Note_on_c, 3, 63, 0
5, 187199, Note_on_c, 3, 59, 0
5, 187200, Note_on_c, 3, 63, 48
5, 187200, Note_on_c, 3, 60, 48
5, 187559, Note_on_c, 3, 60, 0
5, 187559, Note_on_c, 3, 63, 0
5, 187560, Note_on_c, 3, 60, 48
5, 187560, Note_on_c, 3, 63, 48
5, 187919, Note_on_c, 3, 63, 0
5, 187919, Note_on_c, 3, 60, 0
5, 187920, Note_on_c, 3, 63, 48
5, 187920, Note_on_c, 3, 60, 48
5, 188279, Note_on_c, 3, 60, 0
5, 188279, Note_on_c, 3, 63, 0
5, 188280, Note_on_c, 3, 48, 48
5, 188280, Note_on_c, 3, 63, 48
5, 188639, Note_on_c, 3, 63, 0
5, 188639, Note_on_c, 3, 48, 0
5, 188640, Note_on_c, 3, 58, 48
5, 188640, Note_on_c, 3, 50, 48
5, 188999, Note_on_c, 3, 50, 0
5, 188999, Note_on_c, 3, 58, 0
5, 189000, Note_on_c, 3, 50, 44
5, 189000, Note_on_c, 3, 58, 44
5, 189359, Note_on_c, 3, 58, 0
5, 189359, Note_on_c, 3, 50, 0
5, 189360, Note_on_c, 3, 58, 40
5, 189360, Note_on_c, 3, 51, 40
5, 189719, Note_on_c, 3, 51, 0
5, 189719, Note_on_c, 3, 58, 0
5, 189720, Note_on_c, 3, 51, 36
5, 189720, Note_on_c, 3, 58, 36
5, 190079, Note_on_c, 3, 58, 0
5, 190079, Note_on_c, 3, 51, 0
5, 190080, Note_on_c, 3, 58, 32
5, 190080, Note_on_c, 3, 46, 32
5, 190439, Note_on_c, 3, 46, 0
5, 190439, Note_on_c, 3, 58, 0
5, 190440, Note_on_c, 3, 46, 32
5, 190440, Note_on_c, 3, 58, 32
5, 190799, Note_on_c, 3, 58, 0
5, 190799, Note_on_c, 3, 46, 0
5, 190800, Note_on_c, 3, 58, 32
5, 190800, Note_on_c, 3, 46, 32
5, 191159, Note_on_c, 3, 46, 0
5, 191159, Note_on_c, 3, 58, 0
5, 191160, Note_on_c, 3, 46, 32
5, 191160, Note_on_c, 3, 58, 32
5, 191519, Note_on_c, 3, 58, 0
5, 191519, Note_on_c, 3, 46, 0
5, 192240, Note_on_c, 3, 58, 32
5, 192240, Note_on_c, 3, 46, 32
5, 192599, Note_on_c, 3, 46, 0
5, 192599, Note_on_c, 3, 58, 0
5, 192600, Note_on_c, 3, 46, 32
5, 192600, Note_on_c, 3, 58, 32
5, 192959, Note_on_c, 3, 58, 0
5, 192959, Note_on_c, 3, 46, 0
5, 193680, Note_on_c, 3, 58, 32
5, 193680, Note_on_c, 3, 46, 32
5, 194039, Note_on_c, 3, 46, 0
5, 194039, Note_on_c, 3, 58, 0
5, 194040, Note_on_c, 3, 46, 32
5, 194040, Note_on_c, 3, 58, 32
5, 194399, Note_on_c, 3, 58, 0
5, 194399, Note_on_c, 3, 46, 0
5, 196560, Note_on_c, 3, 62, 96
5, 196560, Note_on_c, 3, 58, 96
5, 196919, Note_on_c, 3, 58, 0
5, 196919, Note_on_c, 3, 62, 0
5, 196920, Note_on_c, 3, 58, 127
5, 196920, Note_on_c, 3, 62, 127
5, 197279, Note_on_c, 3, 62, 0
5, 197279, Note_on_c, 3, 58, 0
5, 197280, Note_on_c, 3, 63, 127
5, 197280, Note_on_c, 3, 51, 127
5, 197399, Note_on_c, 3, 51, 0
5, 197399, Note_on_c, 3, 63, 0
5, 205920, Note_on_c, 3, 53, 48
5, 205920, Note_on_c, 3, 49, 48
5, 206280, Note_on_c, 3, 47, 56
5, 206280, Note_on_c, 3, 51, 56
5, 206289, Note_on_c, 3, 49, 0
5, 206289, Note_on_c, 3, 53, 0
5, 206640, Note_on_c, 3, 53, 32
5, 206640, Note_on_c, 3, 46, 32
5, 206649, Note_on_c, 3, 47, 0
5, 206649, Note_on_c, 3, 51, 0
5, 206759, Note_on_c, 3, 53, 0
5, 206759, Note_on_c, 3, 46, 0
5, 207960, Note_on_c, 3, 60, 53
5, 207989, Note_on_c, 3, 60, 0
5, 208020, Note_on_c, 3, 58, 55
5, 208049, Note_on_c, 3, 58, 0
5, 208080, Note_on_c, 3, 56, 58
5, 208109, Note_on_c, 3, 56, 0
5, 208140, Note_on_c, 3, 58, 60
5, 208169, Note_on_c, 3, 58, 0
5, 208200, Note_on_c, 3, 56, 62
5, 208229, Note_on_c, 3, 56, 0
5, 208260, Note_on_c, 3, 55, 64
5, 208289, Note_on_c, 3, 55, 0
5, 208320, Note_on_c, 3, 56, 64
5, 208320, Note_on_c, 3, 53, 64
5, 208349, Note_on_c, 3, 53, 0
5, 208349, Note_on_c, 3, 56, 0
5, 208380, Note_on_c, 3, 55, 68
5, 208380, Note_on_c, 3, 51, 68
5, 208409, Note_on_c, 3, 51, 0
5, 208409, Note_on_c, 3, 55, 0
5, 208440, Note_on_c, 3, 53, 72
5, 208440, Note_on_c, 3, 50, 72
5, 208469, Note_on_c, 3, 50, 0
5, 208469, Note_on_c, 3, 53, 0
5, 208500, Note_on_c, 3, 51, 76
5, 208500, Note_on_c, 3, 48, 76
5, 208529, Note_on_c, 3, 48, 0
5, 208529, Note_on_c, 3, 51, 0
5, 208560, Note_on_c, 3, 50, 80
5, 208560, Note_on_c, 3, 46, 80
5, 208589, Note_on_c, 3, 46, 0
5, 208589, Note_on_c, 3, 50, 0
5, 208620, Note_on_c, 3, 58, 84
5, 208649, Note_on_c, 3, 58, 0
5, 208680, Note_on_c, 3, 58, 88
5, 208709, Note_on_c, 3, 58, 0
5, 208740, Note_on_c, 3, 58, 92
5, 208769, Note_on_c, 3, 58, 0
5, 208800, Note_on_c, 3, 58, 96
5, 208800, Note_on_c, 3, 51, 96
5, 208919, Note_on_c, 3, 51, 0
5, 208919, Note_on_c, 3, 58, 0
5, 208920, Note_on_c, 3, 58, 96
5, 208920, Note_on_c, 3, 55, 96
5, 209039, Note_on_c, 3, 55, 0
5, 209039, Note_on_c, 3, 58, 0
5, 209040, Note_on_c, 3, 58, 96
5, 209040, Note_on_c, 3, 55, 96
5, 209159, Note_on_c, 3, 55, 0
5, 209159, Note_on_c, 3, 58, 0
5, 209160, Note_on_c, 3, 58, 96
5, 209160, Note_on_c, 3, 55, 96
5, 209399, Note_on_c, 3, 55, 0
5, 209399, Note_on_c, 3, 58, 0
5, 209400, Note_on_c, 3, 58, 96
5, 209400, Note_on_c, 3, 55, 96
5, 209519, Note_on_c, 3, 55, 0
5, 209519, Note_on_c, 3, 58, 0
5, 209520, Note_on_c, 3, 58, 96
5, 209520, Note_on_c, 3, 55, 96
5, 209639, Note_on_c, 3, 55, 0
5, 209639, Note_on_c, 3, 58, 0
5, 209640, Note_on_c, 3, 58, 96
5, 209640, Note_on_c, 3, 55, 96
5, 209759, Note_on_c, 3, 55, 0
5, 209759, Note_on_c, 3, 58, 0
5, 209760, Note_on_c, 3, 58, 96
5, 209760, Note_on_c, 3, 55, 96
5, 209879, Note_on_c, 3, 55, 0
5, 209879, Note_on_c, 3, 58, 0
5, 209880, Note_on_c, 3, 58, 96
5, 209880, Note_on_c, 3, 55, 96
5, 210119, Note_on_c, 3, 55, 0
5, 210119, Note_on_c, 3, 58, 0
5, 210120, Note_on_c, 3, 61, 112
5, 210120, Note_on_c, 3, 55, 112
5, 210239, Note_on_c, 3, 55, 0
5, 210239, Note_on_c, 3, 61, 0
5, 210240, Note_on_c, 3, 60, 96
5, 210240, Note_on_c, 3, 56, 96
5, 210359, Note_on_c, 3, 56, 0
5, 210359, Note_on_c, 3, 60, 0
5, 210360, Note_on_c, 3, 60, 96
5, 210360, Note_on_c, 3, 56, 96
5, 210479, Note_on_c, 3, 56, 0
5, 210479, Note_on_c, 3, 60, 0
5, 210480, Note_on_c, 3, 60, 96
5, 210480, Note_on_c, 3, 56, 96
5, 210599, Note_on_c, 3, 56, 0
5, 210599, Note_on_c, 3, 60, 0
5, 210600, Note_on_c, 3, 60, 96
5, 210600, Note_on_c, 3, 56, 96
5, 210839, Note_on_c, 3, 56, 0
5, 210839, Note_on_c, 3, 60, 0
5, 210840, Note_on_c, 3, 60, 112
5, 210840, Note_on_c, 3, 57, 112
5, 210959, Note_on_c, 3, 57, 0
5, 210959, Note_on_c, 3, 60, 0
5, 210960, Note_on_c, 3, 58, 112
5, 210960, Note_on_c, 3, 61, 112
5, 211319, Note_on_c, 3, 61, 0
5, 211319, Note_on_c, 3, 58, 0
5, 211320, Note_on_c, 3, 63, 112
5, 211320, Note_on_c, 3, 60, 112
5, 211679, Note_on_c, 3, 60, 0
5, 211679, Note_on_c, 3, 63, 0
5, 211680, Note_on_c, 3, 59, 112
5, 211680, Note_on_c, 3, 62, 112
5, 212159, Note_on_c, 3, 62, 0
5, 212159, Note_on_c, 3, 59, 0
5, 212160, Note_on_c, 3, 62, 112
5, 212160, Note_on_c, 3, 58, 112
5, 212279, Note_on_c, 3, 58, 0
5, 212279, Note_on_c, 3, 62, 0
5, 212280, Note_on_c, 3, 58, 112
5, 212280, Note_on_c, 3, 65, 112
5, 212399, Note_on_c, 3, 65, 0
5, 212399, Note_on_c, 3, 58, 0
5, 212400, Note_on_c, 3, 63, 127
5, 212400, Note_on_c, 3, 58, 127
5, 212639, Note_on_c, 3, 58, 0
5, 212639, Note_on_c, 3, 63, 0
5, 212640, Note_on_c, 3, 58, 127
5, 212640, Note_on_c, 3, 63, 127
5, 212759, Note_on_c, 3, 63, 0
5, 212759, Note_on_c, 3, 58, 0
5, 212760, Note_on_c, 3, 58, 127
5, 212760, Note_on_c, 3, 63, 127
5, 212999, Note_on_c, 3, 63, 0
5, 212999, Note_on_c, 3, 58, 0
5, 213000, Note_on_c, 3, 58, 127
5, 213000, Note_on_c, 3, 63, 127
5, 213239, Note_on_c, 3, 63, 0
5, 213239, Note_on_c, 3, 58, 0
5, 213240, Note_on_c, 3, 58, 127
5, 213240, Note_on_c, 3, 63, 127
5, 213359, Note_on_c, 3, 63, 0
5, 213359, Note_on_c, 3, 58, 0
5, 213360, Note_on_c, 3, 58, 127
5, 213360, Note_on_c, 3, 63, 127
5, 213479, Note_on_c, 3, 63, 0
5, 213479, Note_on_c, 3, 58, 0
5, 213480, Note_on_c, 3, 58, 127
5, 213480, Note_on_c, 3, 63, 127
5, 213719, Note_on_c, 3, 63, 0
5, 213719, Note_on_c, 3, 58, 0
5, 213720, Note_on_c, 3, 59, 127
5, 213720, Note_on_c, 3, 63, 127
5, 213840, Note_on_c, 3, 60, 127
5, 213849, Note_on_c, 3, 59, 0
5, 213959, Note_on_c, 3, 60, 0
5, 213959, Note_on_c, 3, 63, 0
5, 213960, Note_on_c, 3, 60, 127
5, 213960, Note_on_c, 3, 63, 127
5, 214079, Note_on_c, 3, 63, 0
5, 214079, Note_on_c, 3, 60, 0
5, 214080, Note_on_c, 3, 60, 127
5, 214080, Note_on_c, 3, 63, 127
5, 214199, Note_on_c, 3, 63, 0
5, 214199, Note_on_c, 3, 60, 0
5, 214200, Note_on_c, 3, 60, 127
5, 214200, Note_on_c, 3, 63, 127
5, 214439, Note_on_c, 3, 63, 0
5, 214439, Note_on_c, 3, 60, 0
5, 214440, Note_on_c, 3, 58, 127
5, 214440, Note_on_c, 3, 60, 127
5, 214559, Note_on_c, 3, 60, 0
5, 214559, Note_on_c, 3, 58, 0
5, 214560, Note_on_c, 3, 56, 127
5, 214560, Note_on_c, 3, 60, 127
5, 214919, Note_on_c, 3, 60, 0
5, 214919, Note_on_c, 3, 56, 0
5, 214920, Note_on_c, 3, 57, 127
5, 214920, Note_on_c, 3, 60, 127
5, 215279, Note_on_c, 3, 60, 0
5, 215279, Note_on_c, 3, 57, 0
5, 215280, Note_on_c, 3, 58, 127
5, 215280, Note_on_c, 3, 62, 127
5, 215399, Note_on_c, 3, 62, 0
5, 215399, Note_on_c, 3, 58, 0
5, 218280, Note_on_c, 3, 59, 96
5, 218460, Note_on_c, 3, 58, 48
5, 218469, Note_on_c, 3, 59, 0
5, 218520, Note_on_c, 3, 56, 48
5, 218529, Note_on_c, 3, 58, 0
5, 218639, Note_on_c, 3, 56, 0
5, 218640, Note_on_c, 3, 59, 96
5, 218820, Note_on_c, 3, 58, 48
5, 218829, Note_on_c, 3, 59, 0
5, 218880, Note_on_c, 3, 56, 48
5, 218889, Note_on_c, 3, 58, 0
5, 218999, Note_on_c, 3, 56, 0
5, 219600, Note_on_c, 3, 63, 48
5, 219840, Note_on_c, 3, 62, 54
5, 219900, Note_on_c, 3, 61, 56
5, 219909, Note_on_c, 3, 62, 0
5, 219960, Note_on_c, 3, 60, 56
5, 219969, Note_on_c, 3, 61, 0
5, 220080, Note_on_c, 3, 62, 53
5, 220080, Note_on_c, 3, 58, 53
5, 220089, Note_on_c, 3, 60, 0
5, 220089, Note_on_c, 3, 63, 0
5, 220200, Note_on_c, 3, 60, 50
5, 220200, Note_on_c, 3, 56, 50
5, 220209, Note_on_c, 3, 62, 0
5, 220209, Note_on_c, 3, 58, 0
5, 220319, Note_on_c, 3, 60, 0
5, 220319, Note_on_c, 3, 56, 0
5, 220320, Note_on_c, 3, 58, 48
5, 220320, Note_on_c, 3, 55, 48
5, 220560, Note_on_c, 3, 56, 48
5, 220560, Note_on_c, 3, 53, 48
5, 220569, Note_on_c, 3, 55, 0
5, 220569, Note_on_c, 3, 58, 0
5, 220620, Note_on_c, 3, 55, 48
5, 220620, Note_on_c, 3, 51, 48
5, 220629, Note_on_c, 3, 56, 0
5, 220629, Note_on_c, 3, 53, 0
5, 220679, Note_on_c, 3, 55, 0
5, 220679, Note_on_c, 3, 51, 0
5, 220680, Note_on_c, 3, 53, 48
5, 220680, Note_on_c, 3, 50, 48
5, 220769, Note_on_c, 3, 50, 0
5, 220769, Note_on_c, 3, 53, 0
5, 220800, Note_on_c, 3, 58, 48
5, 220800, Note_on_c, 3, 50, 48
5, 220889, Note_on_c, 3, 50, 0
5, 220889, Note_on_c, 3, 58, 0
5, 220920, Note_on_c, 3, 58, 48
5, 220920, Note_on_c, 3, 50, 48
5, 221009, Note_on_c, 3, 50, 0
5, 221009, Note_on_c, 3, 58, 0
5, 221040, Note_on_c, 3, 58, 48
5, 221040, Note_on_c, 3, 51, 48
5, 221159, Note_on_c, 3, 51, 0
5, 221159, Note_on_c, 3, 58, 0
5, 222480, Note_on_c, 3, 59, 96
5, 222480, Note_on_c, 3, 47, 96
5, 222539, Note_on_c, 3, 47, 0
5, 222539, Note_on_c, 3, 59, 0
5, 222600, Note_on_c, 3, 62, 96
5, 222600, Note_on_c, 3, 59, 96
5, 222659, Note_on_c, 3, 59, 0
5, 222659, Note_on_c, 3, 62, 0
5, 223140, Note_on_c, 3, 47, 96
5, 223140, Note_on_c, 3, 59, 96
5, 223199, Note_on_c, 3, 59, 0
5, 223199, Note_on_c, 3, 47, 0
5, 223200, Note_on_c, 3, 60, 96
5, 223200, Note_on_c, 3, 48, 96
5, 223259, Note_on_c, 3, 48, 0
5, 223259, Note_on_c, 3, 60, 0
5, 223320, Note_on_c, 3, 60, 96
5, 223379, Note_on_c, 3, 60, 0
5, 223860, Note_on_c, 3, 48, 96
5, 223860, Note_on_c, 3, 60, 96
5, 223919, Note_on_c, 3, 60, 0
5, 223919, Note_on_c, 3, 48, 0
5, 223920, Note_on_c, 3, 58, 96
5, 223920, Note_on_c, 3, 46, 96
5, 223979, Note_on_c, 3, 46, 0
5, 223979, Note_on_c, 3, 58, 0
5, 224040, Note_on_c, 3, 61, 96
5, 224040, Note_on_c, 3, 58, 96
5, 224099, Note_on_c, 3, 58, 0
5, 224099, Note_on_c, 3, 61, 0
5, 224580, Note_on_c, 3, 46, 96
5, 224580, Note_on_c, 3, 58, 96
5, 224609, Note_on_c, 3, 58, 0
5, 224609, Note_on_c, 3, 46, 0
5, 224640, Note_on_c, 3, 56, 96
5, 224640, Note_on_c, 3, 44, 96
5, 224669, Note_on_c, 3, 44, 0
5, 224669, Note_on_c, 3, 56, 0
5, 224700, Note_on_c, 3, 44, 96
5, 224819, Note_on_c, 3, 44, 0
5, 224820, Note_on_c, 3, 45, 96
5, 224849, Note_on_c, 3, 45, 0
5, 224880, Note_on_c, 3, 46, 96
5, 224909, Note_on_c, 3, 46, 0
5, 224940, Note_on_c, 3, 47, 96
5, 224969, Note_on_c, 3, 47, 0
5, 225000, Note_on_c, 3, 48, 96
5, 225029, Note_on_c, 3, 48, 0
5, 225060, Note_on_c, 3, 48, 96
5, 225179, Note_on_c, 3, 48, 0
5, 225180, Note_on_c, 3, 48, 96
5, 225209, Note_on_c, 3, 48, 0
5, 225240, Note_on_c, 3, 50, 96
5, 225269, Note_on_c, 3, 50, 0
5, 225300, Note_on_c, 3, 50, 96
5, 225329, Note_on_c, 3, 50, 0
5, 225360, Note_on_c, 3, 51, 96
5, 225479, Note_on_c, 3, 51, 0
5, 225480, Note_on_c, 3, 61, 96
5, 225600, Note_on_c, 3, 60, 96
5, 225609, Note_on_c, 3, 61, 0
5, 225719, Note_on_c, 3, 60, 0
5, 225720, Note_on_c, 3, 59, 96
5, 225840, Note_on_c, 3, 58, 96
5, 225849, Note_on_c, 3, 59, 0
5, 225960, Note_on_c, 3, 55, 96
5, 225969, Note_on_c, 3, 58, 0
5, 226079, Note_on_c, 3, 55, 0
5, 226080, Note_on_c, 3, 56, 96
5, 226199, Note_on_c, 3, 56, 0
5, 226200, Note_on_c, 3, 63, 96
5, 226200, Note_on_c, 3, 60, 96
5, 226320, Note_on_c, 3, 64, 96
5, 226329, Note_on_c, 3, 63, 0
5, 226440, Note_on_c, 3, 65, 96
5, 226449, Note_on_c, 3, 64, 0
5, 226499, Note_on_c, 3, 65, 0
5, 226499, Note_on_c, 3, 60, 0
5, 226500, Note_on_c, 3, 60, 96
5, 226619, Note_on_c, 3, 60, 0
5, 226620, Note_on_c, 3, 60, 96
5, 226680, Note_on_c, 3, 64, 96
5, 226680, Note_on_c, 3, 58, 96
5, 226689, Note_on_c, 3, 60, 0
5, 226740, Note_on_c, 3, 65, 96
5, 226740, Note_on_c, 3, 56, 96
5, 226749, Note_on_c, 3, 58, 0
5, 226749, Note_on_c, 3, 64, 0
5, 226799, Note_on_c, 3, 65, 0
5, 226799, Note_on_c, 3, 56, 0
5, 226800, Note_on_c, 3, 63, 96
5, 226800, Note_on_c, 3, 55, 96
5, 226860, Note_on_c, 3, 58, 96
5, 226869, Note_on_c, 3, 55, 0
5, 226869, Note_on_c, 3, 63, 0
5, 226920, Note_on_c, 3, 57, 96
5, 226929, Note_on_c, 3, 58, 0
5, 226980, Note_on_c, 3, 56, 96
5, 226989, Note_on_c, 3, 57, 0
5, 227040, Note_on_c, 3, 55, 96
5, 227049, Note_on_c, 3, 56, 0
5, 227100, Note_on_c, 3, 53, 96
5, 227109, Note_on_c, 3, 55, 0
5, 227159, Note_on_c, 3, 53, 0
5, 227160, Note_on_c, 3, 51, 96
5, 227279, Note_on_c, 3, 51, 0
5, 228240, Note_on_c, 3, 58, 127
5, 228269, Note_on_c, 3, 58, 0
5, 228300, Note_on_c, 3, 57, 127
5, 228329, Note_on_c, 3, 57, 0
5, 228360, Note_on_c, 3, 56, 127
5, 228389, Note_on_c, 3, 56, 0
5, 228420, Note_on_c, 3, 55, 127
5, 228449, Note_on_c, 3, 55, 0
5, 228480, Note_on_c, 3, 53, 127
5, 228509, Note_on_c, 3, 53, 0
5, 228540, Note_on_c, 3, 51, 127
5, 228569, Note_on_c, 3, 51, 0
5, 228600, Note_on_c, 3, 50, 127
5, 228629, Note_on_c, 3, 50, 0
5, 228660, Note_on_c, 3, 48, 127
5, 228689, Note_on_c, 3, 48, 0
5, 228720, Note_on_c, 3, 46, 127
5, 228749, Note_on_c, 3, 46, 0
5, 228780, Note_on_c, 3, 44, 127
5, 228809, Note_on_c, 3, 44, 0
5, 228840, Note_on_c, 3, 43, 127
5, 228869, Note_on_c, 3, 43, 0
5, 228900, Note_on_c, 3, 41, 127
5, 228929, Note_on_c, 3, 41, 0
5, 228960, Note_on_c, 3, 39, 127
5, 229079, Note_on_c, 3, 39, 0
5, 229080, Note_on_c, 3, 67, 48
5, 229080, Note_on_c, 3, 63, 48
5, 229169, Note_on_c, 3, 63, 0
5, 229169, Note_on_c, 3, 67, 0
5, 229200, Note_on_c, 3, 67, 48
5, 229200, Note_on_c, 3, 63, 48
5, 229289, Note_on_c, 3, 63, 0
5, 229289, Note_on_c, 3, 67, 0
5, 229320, Note_on_c, 3, 67, 48
5, 229320, Note_on_c, 3, 63, 48
5, 229409, Note_on_c, 3, 63, 0
5, 229409, Note_on_c, 3, 67, 0
5, 229440, Note_on_c, 3, 67, 57
5, 229440, Note_on_c, 3, 63, 57
5, 229529, Note_on_c, 3, 63, 0
5, 229529, Note_on_c, 3, 67, 0
5, 229560, Note_on_c, 3, 67, 66
5, 229560, Note_on_c, 3, 63, 66
5, 229649, Note_on_c, 3, 63, 0
5, 229649, Note_on_c, 3, 67, 0
5, 229680, Note_on_c, 3, 67, 76
5, 229680, Note_on_c, 3, 63, 76
5, 229769, Note_on_c, 3, 63, 0
5, 229769, Note_on_c, 3, 67, 0
5, 229800, Note_on_c, 3, 67, 86
5, 229800, Note_on_c, 3, 63, 86
5, 229889, Note_on_c, 3, 63, 0
5, 229889, Note_on_c, 3, 67, 0
5, 229920, Note_on_c, 3, 63, 96
5, 230040, Note_on_c, 3, 56, 96
5, 230160, Note_on_c, 3, 64, 64
5, 230169, Note_on_c, 3, 63, 0
5, 230280, Note_on_c, 3, 65, 48
5, 230289, Note_on_c, 3, 64, 0
5, 230399, Note_on_c, 3, 65, 0
5, 230399, Note_on_c, 3, 56, 0
5, 231360, Note_on_c, 3, 60, 96
5, 231600, Note_on_c, 3, 58, 84
5, 231609, Note_on_c, 3, 60, 0
5, 231660, Note_on_c, 3, 56, 72
5, 231669, Note_on_c, 3, 58, 0
5, 231720, Note_on_c, 3, 55, 64
5, 231729, Note_on_c, 3, 56, 0
5, 231780, Note_on_c, 3, 53, 56
5, 231789, Note_on_c, 3, 55, 0
5, 231840, Note_on_c, 3, 51, 48
5, 231849, Note_on_c, 3, 53, 0
5, 231959, Note_on_c, 3, 51, 0
5, 231960, Note_on_c, 3, 66, 48
5, 231960, Note_on_c, 3, 63, 48
5, 232049, Note_on_c, 3, 63, 0
5, 232049, Note_on_c, 3, 66, 0
5, 232080, Note_on_c, 3, 63, 48
5, 232080, Note_on_c, 3, 66, 48
5, 232169, Note_on_c, 3, 66, 0
5, 232169, Note_on_c, 3, 63, 0
5, 232200, Note_on_c, 3, 66, 56
5, 232200, Note_on_c, 3, 63, 56
5, 232289, Note_on_c, 3, 63, 0
5, 232289, Note_on_c, 3, 66, 0
5, 232320, Note_on_c, 3, 66, 64
5, 232320, Note_on_c, 3, 63, 64
5, 232409, Note_on_c, 3, 63, 0
5, 232409, Note_on_c, 3, 66, 0
5, 232440, Note_on_c, 3, 66, 72
5, 232440, Note_on_c, 3, 63, 72
5, 232529, Note_on_c, 3, 63, 0
5, 232529, Note_on_c, 3, 66, 0
5, 232560, Note_on_c, 3, 66, 80
5, 232560, Note_on_c, 3, 63, 80
5, 232649, Note_on_c, 3, 63, 0
5, 232649, Note_on_c, 3, 66, 0
5, 232680, Note_on_c, 3, 66, 86
5, 232680, Note_on_c, 3, 61, 86
5, 232769, Note_on_c, 3, 61, 0
5, 232769, Note_on_c, 3, 66, 0
5, 232800, Note_on_c, 3, 66, 92
5, 232800, Note_on_c, 3, 61, 92
5, 232889, Note_on_c, 3, 61, 0
5, 232889, Note_on_c, 3, 66, 0
5, 232920, Note_on_c, 3, 66, 96
5, 232920, Note_on_c, 3, 61, 96
5, 233160, Note_on_c, 3, 65, 60
5, 233169, Note_on_c, 3, 66, 0
5, 233279, Note_on_c, 3, 65, 0
5, 233279, Note_on_c, 3, 61, 0
5, 234480, Note_on_c, 3, 53, 48
5, 234480, Note_on_c, 3, 60, 48
5, 234569, Note_on_c, 3, 60, 0
5, 234569, Note_on_c, 3, 53, 0
5, 234600, Note_on_c, 3, 53, 56
5, 234600, Note_on_c, 3, 60, 56
5, 234689, Note_on_c, 3, 60, 0
5, 234689, Note_on_c, 3, 53, 0
5, 234720, Note_on_c, 3, 46, 48
5, 234720, Note_on_c, 3, 58, 48
5, 234839, Note_on_c, 3, 58, 0
5, 234839, Note_on_c, 3, 46, 0
5, 238140, Note_on_c, 3, 56, 89
5, 238140, Note_on_c, 3, 60, 89
5, 238169, Note_on_c, 3, 60, 0
5, 238169, Note_on_c, 3, 56, 0
5, 238200, Note_on_c, 3, 55, 92
5, 238200, Note_on_c, 3, 58, 92
5, 238229, Note_on_c, 3, 58, 0
5, 238229, Note_on_c, 3, 55, 0
5, 238260, Note_on_c, 3, 53, 94
5, 238260, Note_on_c, 3, 56, 94
5, 238289, Note_on_c, 3, 56, 0
5, 238289, Note_on_c, 3, 53, 0
5, 238320, Note_on_c, 3, 51, 96
5, 238320, Note_on_c, 3, 55, 96
5, 238439, Note_on_c, 3, 55, 0
5, 238439, Note_on_c, 3, 51, 0
5, 238440, Note_on_c, 3, 63, 112
5, 238440, Note_on_c, 3, 55, 112
5, 238679, Note_on_c, 3, 55, 0
5, 238679, Note_on_c, 3, 63, 0
5, 238800, Note_on_c, 3, 55, 112
5, 238800, Note_on_c, 3, 63, 112
5, 239039, Note_on_c, 3, 63, 0
5, 239039, Note_on_c, 3, 55, 0
5, 239160, Note_on_c, 3, 62, 112
5, 239160, Note_on_c, 3, 56, 112
5, 239399, Note_on_c, 3, 56, 0
5, 239399, Note_on_c, 3, 62, 0
5, 239520, Note_on_c, 3, 65, 112
5, 239520, Note_on_c, 3, 56, 112
5, 239639, Note_on_c, 3, 56, 0
5, 239639, Note_on_c, 3, 65, 0
5, 239640, Note_on_c, 3, 56, 96
5, 239640, Note_on_c, 3, 53, 96
5, 239759, Note_on_c, 3, 53, 0
5, 239759, Note_on_c, 3, 56, 0
5, 239760, Note_on_c, 3, 55, 127
5, 239760, Note_on_c, 3, 51, 127
5, 239879, Note_on_c, 3, 51, 0
5, 239879, Note_on_c, 3, 55, 0
5, 240480, Note_on_c, 3, 53, 127
5, 240539, Note_on_c, 3, 53, 0
5, 240600, Note_on_c, 3, 56, 127
5, 240779, Note_on_c, 3, 56, 0
5, 240780, Note_on_c, 3, 46, 127
5, 240839, Note_on_c, 3, 46, 0
5, 240840, Note_on_c, 3, 62, 127
5, 240840, Note_on_c, 3, 50, 127
5, 240899, Note_on_c, 3, 50, 0
5, 240899, Note_on_c, 3, 62, 0
5, 240960, Note_on_c, 3, 65, 127
5, 240960, Note_on_c, 3, 53, 127
5, 241139, Note_on_c, 3, 53, 0
5, 241139, Note_on_c, 3, 65, 0
5, 241140, Note_on_c, 3, 58, 127
5, 241140, Note_on_c, 3, 46, 127
5, 241199, Note_on_c, 3, 46, 0
5, 241199, Note_on_c, 3, 58, 0
5, 241200, Note_on_c, 3, 67, 127
5, 241200, Note_on_c, 3, 55, 127
5, 241500, Note_on_c, 3, 66, 127
5, 241500, Note_on_c, 3, 54, 127
5, 241509, Note_on_c, 3, 55, 0
5, 241509, Note_on_c, 3, 67, 0
5, 241560, Note_on_c, 3, 67, 127
5, 241560, Note_on_c, 3, 55, 127
5, 241569, Note_on_c, 3, 66, 0
5, 241569, Note_on_c, 3, 54, 0
5, 241679, Note_on_c, 3, 67, 0
5, 241679, Note_on_c, 3, 55, 0
5, 242940, Note_on_c, 3, 65, 127
5, 242940, Note_on_c, 3, 62, 127
5, 242999, Note_on_c, 3, 62, 0
5, 242999, Note_on_c, 3, 65, 0
5, 243000, Note_on_c, 3, 60, 127
5, 243000, Note_on_c, 3, 63, 127
5, 243029, Note_on_c, 3, 63, 0
5, 243029, Note_on_c, 3, 60, 0
5, 243060, Note_on_c, 3, 62, 127
5, 243060, Note_on_c, 3, 65, 127
5, 243089, Note_on_c, 3, 65, 0
5, 243089, Note_on_c, 3, 62, 0
5, 243120, Note_on_c, 3, 60, 127
5, 243120, Note_on_c, 3, 63, 127
5, 243149, Note_on_c, 3, 63, 0
5, 243149, Note_on_c, 3, 60, 0
5, 243180, Note_on_c, 3, 58, 127
5, 243180, Note_on_c, 3, 60, 127
5, 243209, Note_on_c, 3, 60, 0
5, 243209, Note_on_c, 3, 58, 0
5, 243240, Note_on_c, 3, 57, 127
5, 243240, Note_on_c, 3, 60, 127
5, 243269, Note_on_c, 3, 60, 0
5, 243269, Note_on_c, 3, 57, 0
5, 243300, Note_on_c, 3, 56, 127
5, 243300, Note_on_c, 3, 60, 127
5, 243329, Note_on_c, 3, 60, 0
5, 243329, Note_on_c, 3, 56, 0
5, 243360, Note_on_c, 3, 59, 127
5, 243360, Note_on_c, 3, 55, 127
5, 243419, Note_on_c, 3, 55, 0
5, 243419, Note_on_c, 3, 59, 0
5, 243480, Note_on_c, 3, 62, 127
5, 243480, Note_on_c, 3, 59, 127
5, 243539, Note_on_c, 3, 59, 0
5, 243539, Note_on_c, 3, 62, 0
5, 243600, Note_on_c, 3, 63, 127
5, 243600, Note_on_c, 3, 60, 127
5, 243659, Note_on_c, 3, 60, 0
5, 243659, Note_on_c, 3, 63, 0
5, 243840, Note_on_c, 3, 55, 127
5, 243840, Note_on_c, 3, 58, 127
5, 243899, Note_on_c, 3, 58, 0
5, 243899, Note_on_c, 3, 55, 0
5, 243960, Note_on_c, 3, 60, 127
5, 243960, Note_on_c, 3, 56, 127
5, 244019, Note_on_c, 3, 56, 0
5, 244019, Note_on_c, 3, 60, 0
5, 244200, Note_on_c, 3, 57, 127
5, 244200, Note_on_c, 3, 60, 127
5, 244259, Note_on_c, 3, 60, 0
5, 244259, Note_on_c, 3, 57, 0
5, 244320, Note_on_c, 3, 62, 127
5, 244320, Note_on_c, 3, 58, 127
5, 244379, Note_on_c, 3, 58, 0
5, 244379, Note_on_c, 3, 62, 0
5, 244560, Note_on_c, 3, 59, 127
5, 244560, Note_on_c, 3, 62, 127
5, 244619, Note_on_c, 3, 62, 0
5, 244619, Note_on_c, 3, 59, 0
5, 244680, Note_on_c, 3, 63, 127
5, 244680, Note_on_c, 3, 60, 127
5, 244739, Note_on_c, 3, 60, 0
5, 244739, Note_on_c, 3, 63, 0
5, 244920, Note_on_c, 3, 58, 127
5, 244920, Note_on_c, 3, 55, 127
5, 244979, Note_on_c, 3, 55, 0
5, 244979, Note_on_c, 3, 58, 0
5, 245040, Note_on_c, 3, 60, 127
5, 245040, Note_on_c, 3, 56, 127
5, 245099, Note_on_c, 3, 56, 0
5, 245099, Note_on_c, 3, 60, 0
5, 245280, Note_on_c, 3, 60, 127
5, 245280, Note_on_c, 3, 57, 127
5, 245339, Note_on_c, 3, 57, 0
5, 245339, Note_on_c, 3, 60, 0
5, 245520, Note_on_c, 3, 57, 127
5, 245520, Note_on_c, 3, 60, 127
5, 245579, Note_on_c, 3, 60, 0
5, 245579, Note_on_c, 3, 57, 0
5, 245760, Note_on_c, 3, 60, 127
5, 245760, Note_on_c, 3, 57, 127
5, 245819, Note_on_c, 3, 57, 0
5, 245819, Note_on_c, 3, 60, 0
5, 246000, Note_on_c, 3, 57, 127
5, 246000, Note_on_c, 3, 60, 127
5, 246059, Note_on_c, 3, 60, 0
5, 246059, Note_on_c, 3, 57, 0
5, 246240, Note_on_c, 3, 60, 127
5, 246240, Note_on_c, 3, 57, 127
5, 246299, Note_on_c, 3, 57, 0
5, 246299, Note_on_c, 3, 60, 0
5, 246480, Note_on_c, 3, 57, 127
5, 246480, Note_on_c, 3, 60, 127
5, 246539, Note_on_c, 3, 60, 0
5, 246539, Note_on_c, 3, 57, 0
5, 246960, Note_on_c, 3, 47, 96
5, 246960, Note_on_c, 3, 54, 96
5, 246989, Note_on_c, 3, 54, 0
5, 246989, Note_on_c, 3, 47, 0
5, 246990, Note_on_c, 3, 54, 48
5, 246990, Note_on_c, 3, 47, 48
5, 247319, Note_on_c, 3, 47, 0
5, 247319, Note_on_c, 3, 54, 0
5, 247320, Note_on_c, 3, 55, 48
5, 247320, Note_on_c, 3, 46, 48
5, 247679, Note_on_c, 3, 46, 0
5, 247679, Note_on_c, 3, 55, 0
5, 247680, Note_on_c, 3, 54, 96
5, 247680, Note_on_c, 3, 48, 96
5, 247709, Note_on_c, 3, 48, 0
5, 247709, Note_on_c, 3, 54, 0
5, 247710, Note_on_c, 3, 54, 48
5, 247710, Note_on_c, 3, 48, 48
5, 248279, Note_on_c, 3, 48, 0
5, 248279, Note_on_c, 3, 54, 0
5, 248280, Note_on_c, 3, 63, 48
5, 248280, Note_on_c, 3, 60, 48
5, 248339, Note_on_c, 3, 60, 0
5, 248339, Note_on_c, 3, 63, 0
5, 248400, Note_on_c, 3, 65, 48
5, 248400, Note_on_c, 3, 61, 48
5, 248459, Note_on_c, 3, 61, 0
5, 248459, Note_on_c, 3, 65, 0
5, 248640, Note_on_c, 3, 61, 48
5, 248640, Note_on_c, 3, 65, 48
5, 248699, Note_on_c, 3, 65, 0
5, 248699, Note_on_c, 3, 61, 0
5, 248880, Note_on_c, 3, 65, 48
5, 248880, Note_on_c, 3, 62, 48
5, 248939, Note_on_c, 3, 62, 0
5, 248939, Note_on_c, 3, 65, 0
5, 249120, Note_on_c, 3, 67, 48
5, 249120, Note_on_c, 3, 63, 48
5, 249179, Note_on_c, 3, 63, 0
5, 249179, Note_on_c, 3, 67, 0
5, 249360, Note_on_c, 3, 63, 48
5, 249360, Note_on_c, 3, 67, 48
5, 249419, Note_on_c, 3, 67, 0
5, 249419, Note_on_c, 3, 63, 0
5, 249480, Note_on_c, 3, 60, 64
5, 249480, Note_on_c, 3, 56, 64
5, 250019, Note_on_c, 3, 56, 0
5, 250019, Note_on_c, 3, 60, 0
5, 250020, Note_on_c, 3, 56, 87
5, 250020, Note_on_c, 3, 60, 87
5, 250080, Note_on_c, 3, 64, 92
5, 250080, Note_on_c, 3, 58, 92
5, 250089, Note_on_c, 3, 60, 0
5, 250089, Note_on_c, 3, 56, 0
5, 250140, Note_on_c, 3, 60, 97
5, 250140, Note_on_c, 3, 65, 97
5, 250149, Note_on_c, 3, 64, 0
5, 250149, Note_on_c, 3, 58, 0
5, 250199, Note_on_c, 3, 60, 0
5, 250199, Note_on_c, 3, 65, 0
5, 250200, Note_on_c, 3, 58, 102
5, 250200, Note_on_c, 3, 63, 102
5, 250229, Note_on_c, 3, 63, 0
5, 250229, Note_on_c, 3, 58, 0
5, 250260, Note_on_c, 3, 51, 107
5, 250289, Note_on_c, 3, 51, 0
5, 250320, Note_on_c, 3, 51, 112
5, 250320, Note_on_c, 3, 55, 112
5, 250349, Note_on_c, 3, 55, 0
5, 250349, Note_on_c, 3, 51, 0
5, 250380, Note_on_c, 3, 55, 117
5, 250380, Note_on_c, 3, 58, 117
5, 250409, Note_on_c, 3, 58, 0
5, 250409, Note_on_c, 3, 55, 0
5, 250440, Note_on_c, 3, 55, 117
5, 250440, Note_on_c, 3, 63, 117
5, 250469, Note_on_c, 3, 63, 0
5, 250469, Note_on_c, 3, 55, 0
5, 250500, Note_on_c, 3, 58, 122
5, 250500, Note_on_c, 3, 67, 122
5, 250529, Note_on_c, 3, 67, 0
5, 250529, Note_on_c, 3, 58, 0
5, 250560, Note_on_c, 3, 46, 127
5, 250560, Note_on_c, 3, 58, 127
5, 250919, Note_on_c, 3, 58, 0
5, 250919, Note_on_c, 3, 46, 0
5, 250920, Note_on_c, 3, 63, 96
5, 250920, Note_on_c, 3, 51, 96
5, 251039, Note_on_c, 3, 51, 0
5, 251039, Note_on_c, 3, 63, 0
5, 251280, Note_on_c, 3, 51, 96
5, 251280, Note_on_c, 3, 63, 96
5, 251399, Note_on_c, 3, 63, 0
5, 251399, Note_on_c, 3, 51, 0
5, 251640, Note_on_c, 3, 63, 96
5, 251640, Note_on_c, 3, 51, 96
5, 251759, Note_on_c, 3, 51, 0
5, 251759, Note_on_c, 3, 63, 0
5, 252000, Note_on_c, 3, 56, 96
5, 252000, Note_on_c, 3, 59, 96
5, 252059, Note_on_c, 3, 59, 0
5, 252059, Note_on_c, 3, 56, 0
5, 252120, Note_on_c, 3, 59, 96
5, 252120, Note_on_c, 3, 56, 96
5, 252179, Note_on_c, 3, 56, 0
5, 252179, Note_on_c, 3, 59, 0
5, 252240, Note_on_c, 3, 56, 96
5, 252240, Note_on_c, 3, 59, 96
5, 252299, Note_on_c, 3, 59, 0
5, 252299, Note_on_c, 3, 56, 0
5, 252360, Note_on_c, 3, 55, 96
5, 252360, Note_on_c, 3, 58, 96
5, 252419, Note_on_c, 3, 58, 0
5, 252419, Note_on_c, 3, 55, 0
5, 252900, Note_on_c, 3, 51, 48
5, 252960, Note_on_c, 3, 55, 48
5, 252969, Note_on_c, 3, 51, 0
5, 253020, Note_on_c, 3, 58, 48
5, 253029, Note_on_c, 3, 55, 0
5, 253079, Note_on_c, 3, 58, 0
5, 253080, Note_on_c, 3, 63, 48
5, 253320, Note_on_c, 3, 67, 48
5, 253329, Note_on_c, 3, 63, 0
5, 253440, Note_on_c, 3, 63, 48
5, 253449, Note_on_c, 3, 67, 0
5, 253680, Note_on_c, 3, 58, 48
5, 253689, Note_on_c, 3, 63, 0
5, 253800, Note_on_c, 3, 63, 48
5, 253809, Note_on_c, 3, 58, 0
5, 253919, Note_on_c, 3, 63, 0
5, 254520, Note_on_c, 3, 53, 96
5, 254520, Note_on_c, 3, 56, 96
5, 255240, Note_on_c, 3, 61, 48
5, 255240, Note_on_c, 3, 49, 48
5, 255249, Note_on_c, 3, 56, 0
5, 255249, Note_on_c, 3, 53, 0
5, 255359, Note_on_c, 3, 61, 0
5, 255359, Note_on_c, 3, 49, 0
5, 255960, Note_on_c, 3, 60, 127
5, 255960, Note_on_c, 3, 48, 127
5, 256019, Note_on_c, 3, 60, 0
5, 256020, Note_on_c, 3, 60, 127
5, 256079, Note_on_c, 3, 60, 0
5, 256080, Note_on_c, 3, 60, 127
5, 256139, Note_on_c, 3, 60, 0
5, 256140, Note_on_c, 3, 60, 127
5, 256199, Note_on_c, 3, 60, 0
5, 256200, Note_on_c, 3, 64, 127
5, 256259, Note_on_c, 3, 64, 0
5, 256260, Note_on_c, 3, 64, 127
5, 256319, Note_on_c, 3, 64, 0
5, 256320, Note_on_c, 3, 60, 127
5, 256379, Note_on_c, 3, 60, 0
5, 256380, Note_on_c, 3, 60, 127
5, 256439, Note_on_c, 3, 60, 0
5, 256440, Note_on_c, 3, 60, 127
5, 256499, Note_on_c, 3, 60, 0
5, 256500, Note_on_c, 3, 60, 127
5, 256559, Note_on_c, 3, 60, 0
5, 256560, Note_on_c, 3, 55, 127
5, 256619, Note_on_c, 3, 55, 0
5, 256620, Note_on_c, 3, 55, 127
5, 256679, Note_on_c, 3, 55, 0
5, 256679, Note_on_c, 3, 48, 0
5, 256680, Note_on_c, 3, 60, 48
5, 256680, Note_on_c, 3, 48, 48
5, 256799, Note_on_c, 3, 48, 0
5, 256799, Note_on_c, 3, 60, 0
5, 264240, Note_on_c, 3, 60, 48
5, 264480, Note_on_c, 3, 62, 48
5, 264489, Note_on_c, 3, 60, 0
5, 264540, Note_on_c, 3, 64, 48
5, 264549, Note_on_c, 3, 62, 0
5, 264599, Note_on_c, 3, 64, 0
5, 264600, Note_on_c, 3, 65, 48
5, 264719, Note_on_c, 3, 65, 0
5, 264720, Note_on_c, 3, 65, 48
5, 264840, Note_on_c, 3, 67, 48
5, 264849, Note_on_c, 3, 65, 0
5, 264960, Note_on_c, 3, 68, 64
5, 264969, Note_on_c, 3, 67, 0
5, 265140, Note_on_c, 3, 67, 48
5, 265149, Note_on_c, 3, 68, 0
5, 265200, Note_on_c, 3, 65, 48
5, 265209, Note_on_c, 3, 67, 0
5, 265319, Note_on_c, 3, 65, 0
5, 265320, Note_on_c, 3, 65, 48
5, 266040, Note_on_c, 3, 63, 48
5, 266049, Note_on_c, 3, 65, 0
5, 266159, Note_on_c, 3, 63, 0
5, 266160, Note_on_c, 3, 63, 48
5, 266280, Note_on_c, 3, 65, 48
5, 266289, Note_on_c, 3, 63, 0
5, 266400, Note_on_c, 3, 66, 64
5, 266409, Note_on_c, 3, 65, 0
5, 266580, Note_on_c, 3, 65, 48
5, 266589, Note_on_c, 3, 66, 0
5, 266640, Note_on_c, 3, 63, 48
5, 266649, Note_on_c, 3, 65, 0
5, 266759, Note_on_c, 3, 63, 0
5, 266760, Note_on_c, 3, 62, 48
5, 266880, Note_on_c, 3, 61, 48
5, 266889, Note_on_c, 3, 62, 0
5, 267000, Note_on_c, 3, 60, 48
5, 267009, Note_on_c, 3, 61, 0
5, 267120, Note_on_c, 3, 58, 64
5, 267129, Note_on_c, 3, 60, 0
5, 267360, Note_on_c, 3, 60, 48
5, 267369, Note_on_c, 3, 58, 0
5, 267420, Note_on_c, 3, 62, 48
5, 267429, Note_on_c, 3, 60, 0
5, 267480, Note_on_c, 3, 63, 48
5, 267489, Note_on_c, 3, 62, 0
5, 267599, Note_on_c, 3, 63, 0
5, 267600, Note_on_c, 3, 63, 48
5, 267720, Note_on_c, 3, 65, 48
5, 267729, Note_on_c, 3, 63, 0
5, 267840, Note_on_c, 3, 66, 64
5, 267849, Note_on_c, 3, 65, 0
5, 268020, Note_on_c, 3, 65, 48
5, 268029, Note_on_c, 3, 66, 0
5, 268080, Note_on_c, 3, 63, 48
5, 268089, Note_on_c, 3, 65, 0
5, 268199, Note_on_c, 3, 63, 0
5, 268200, Note_on_c, 3, 62, 32
5, 268560, Note_on_c, 3, 61, 32
5, 268569, Note_on_c, 3, 62, 0
5, 268920, Note_on_c, 3, 60, 32
5, 268929, Note_on_c, 3, 61, 0
5, 269280, Note_on_c, 3, 59, 32
5, 269289, Note_on_c, 3, 60, 0
5, 269640, Note_on_c, 3, 58, 32
5, 269649, Note_on_c, 3, 59, 0
5, 269999, Note_on_c, 3, 58, 0
5, 270000, Note_on_c, 3, 58, 32
5, 270360, Note_on_c, 3, 57, 32
5, 270369, Note_on_c, 3, 58, 0
5, 270720, Note_on_c, 3, 56, 32
5, 270729, Note_on_c, 3, 57, 0
5, 271079, Note_on_c, 3, 56, 0
5, 271080, Note_on_c, 3, 56, 32
5, 271199, Note_on_c, 3, 56, 0
5, 271800, Note_on_c, 3, 58, 32
5, 272400, Note_on_c, 3, 59, 32
5, 272409, Note_on_c, 3, 58, 0
5, 272520, Note_on_c, 3, 60, 32
5, 272529, Note_on_c, 3, 59, 0
5, 272639, Note_on_c, 3, 60, 0
5, 273240, Note_on_c, 3, 60, 32
5, 273840, Note_on_c, 3, 61, 32
5, 273849, Note_on_c, 3, 60, 0
5, 273960, Note_on_c, 3, 62, 32
5, 273969, Note_on_c, 3, 61, 0
5, 274439, Note_on_c, 3, 62, 0
5, 274440, Note_on_c, 3, 62, 32
5, 274499, Note_on_c, 3, 62, 0
5, 274560, Note_on_c, 3, 58, 32
5, 274619, Note_on_c, 3, 58, 0
5, 274680, Note_on_c, 3, 65, 32
5, 274800, Note_on_c, 3, 63, 32
5, 274809, Note_on_c, 3, 65, 0
5, 275159, Note_on_c, 3, 63, 0
5, 275160, Note_on_c, 3, 63, 32
5, 275219, Note_on_c, 3, 63, 0
5, 275280, Note_on_c, 3, 58, 32
5, 275339, Note_on_c, 3, 58, 0
5, 275400, Note_on_c, 3, 66, 32
5, 275519, Note_on_c, 3, 66, 0
5, 275520, Note_on_c, 3, 66, 32
5, 275879, Note_on_c, 3, 66, 0
5, 275880, Note_on_c, 3, 66, 36
5, 276239, Note_on_c, 3, 66, 0
5, 276240, Note_on_c, 3, 66, 40
5, 276329, Note_on_c, 3, 66, 0
5, 276360, Note_on_c, 3, 66, 42
5, 276449, Note_on_c, 3, 66, 0
5, 276480, Note_on_c, 3, 66, 43
5, 276600, Note_on_c, 3, 65, 44
5, 276609, Note_on_c, 3, 66, 0
5, 276720, Note_on_c, 3, 63, 46
5, 276729, Note_on_c, 3, 65, 0
5, 276839, Note_on_c, 3, 63, 0
5, 276840, Note_on_c, 3, 62, 48
5, 276959, Note_on_c, 3, 62, 0
5, 276960, Note_on_c, 3, 65, 52
5, 276960, Note_on_c, 3, 58, 52
5, 277319, Note_on_c, 3, 58, 0
5, 277319, Note_on_c, 3, 65, 0
5, 277320, Note_on_c, 3, 58, 60
5, 277320, Note_on_c, 3, 65, 60
5, 277560, Note_on_c, 3, 59, 68
5, 277569, Note_on_c, 3, 58, 0
5, 277679, Note_on_c, 3, 59, 0
5, 277679, Note_on_c, 3, 65, 0
5, 277680, Note_on_c, 3, 65, 64
5, 277680, Note_on_c, 3, 59, 64
5, 277799, Note_on_c, 3, 59, 0
5, 277799, Note_on_c, 3, 65, 0
5, 277800, Note_on_c, 3, 65, 60
5, 277800, Note_on_c, 3, 59, 60
5, 277919, Note_on_c, 3, 59, 0
5, 277919, Note_on_c, 3, 65, 0
5, 277920, Note_on_c, 3, 65, 56
5, 277920, Note_on_c, 3, 59, 56
5, 278039, Note_on_c, 3, 59, 0
5, 278040, Note_on_c, 3, 63, 52
5, 278040, Note_on_c, 3, 59, 52
5, 278049, Note_on_c, 3, 65, 0
5, 278159, Note_on_c, 3, 59, 0
5, 278160, Note_on_c, 3, 62, 48
5, 278160, Note_on_c, 3, 59, 48
5, 278169, Note_on_c, 3, 63, 0
5, 278279, Note_on_c, 3, 59, 0
5, 278279, Note_on_c, 3, 62, 0
5, 278280, Note_on_c, 3, 63, 48
5, 278280, Note_on_c, 3, 60, 48
5, 278339, Note_on_c, 3, 60, 0
5, 278339, Note_on_c, 3, 63, 0
5, 278520, Note_on_c, 3, 60, 48
5, 278520, Note_on_c, 3, 63, 48
5, 278579, Note_on_c, 3, 63, 0
5, 278579, Note_on_c, 3, 60, 0
5, 278760, Note_on_c, 3, 63, 48
5, 278760, Note_on_c, 3, 60, 48
5, 278819, Note_on_c, 3, 60, 0
5, 278819, Note_on_c, 3, 63, 0
5, 279000, Note_on_c, 3, 56, 48
5, 279000, Note_on_c, 3, 60, 48
5, 279059, Note_on_c, 3, 60, 0
5, 279059, Note_on_c, 3, 56, 0
5, 279240, Note_on_c, 3, 60, 48
5, 279240, Note_on_c, 3, 56, 48
5, 279299, Note_on_c, 3, 56, 0
5, 279299, Note_on_c, 3, 60, 0
5, 279480, Note_on_c, 3, 60, 48
5, 279480, Note_on_c, 3, 56, 48
5, 279539, Note_on_c, 3, 56, 0
5, 279539, Note_on_c, 3, 60, 0
5, 279720, Note_on_c, 3, 63, 48
5, 279720, Note_on_c, 3, 58, 48
5, 280199, Note_on_c, 3, 58, 0
5, 280199, Note_on_c, 3, 63, 0
5, 280200, Note_on_c, 3, 55, 56
5, 280200, Note_on_c, 3, 58, 56
5, 280259, Note_on_c, 3, 58, 0
5, 280259, Note_on_c, 3, 55, 0
5, 280320, Note_on_c, 3, 55, 58
5, 280320, Note_on_c, 3, 58, 58
5, 280379, Note_on_c, 3, 58, 0
5, 280379, Note_on_c, 3, 55, 0
5, 280440, Note_on_c, 3, 56, 62
5, 280440, Note_on_c, 3, 58, 62
5, 280499, Note_on_c, 3, 58, 0
5, 280499, Note_on_c, 3, 56, 0
5, 280560, Note_on_c, 3, 56, 62
5, 280560, Note_on_c, 3, 58, 62
5, 280619, Note_on_c, 3, 58, 0
5, 280619, Note_on_c, 3, 56, 0
5, 280680, Note_on_c, 3, 56, 64
5, 280680, Note_on_c, 3, 58, 64
5, 280739, Note_on_c, 3, 58, 0
5, 280739, Note_on_c, 3, 56, 0
5, 280800, Note_on_c, 3, 56, 48
5, 280800, Note_on_c, 3, 58, 48
5, 280859, Note_on_c, 3, 58, 0
5, 280859, Note_on_c, 3, 56, 0
5, 280920, Note_on_c, 3, 56, 48
5, 280920, Note_on_c, 3, 58, 48
5, 280979, Note_on_c, 3, 58, 0
5, 280979, Note_on_c, 3, 56, 0
5, 281040, Note_on_c, 3, 56, 48
5, 281040, Note_on_c, 3, 58, 48
5, 281099, Note_on_c, 3, 58, 0
5, 281099, Note_on_c, 3, 56, 0
5, 281160, Note_on_c, 3, 55, 48
5, 281160, Note_on_c, 3, 58, 48
5, 281219, Note_on_c, 3, 58, 0
5, 281219, Note_on_c, 3, 55, 0
5, 286980, Note_on_c, 3, 55, 49
5, 287010, Note_on_c, 3, 56, 49
5, 287019, Note_on_c, 3, 55, 0
5, 287040, Note_on_c, 3, 58, 50
5, 287049, Note_on_c, 3, 56, 0
5, 287069, Note_on_c, 3, 58, 0
5, 287100, Note_on_c, 3, 58, 51
5, 287129, Note_on_c, 3, 58, 0
5, 287160, Note_on_c, 3, 60, 52
5, 287189, Note_on_c, 3, 60, 0
5, 287220, Note_on_c, 3, 62, 53
5, 287249, Note_on_c, 3, 62, 0
5, 287280, Note_on_c, 3, 63, 54
5, 287309, Note_on_c, 3, 63, 0
5, 287340, Note_on_c, 3, 58, 55
5, 287369, Note_on_c, 3, 58, 0
5, 287400, Note_on_c, 3, 60, 56
5, 287429, Note_on_c, 3, 60, 0
5, 287460, Note_on_c, 3, 62, 57
5, 287489, Note_on_c, 3, 62, 0
5, 287520, Note_on_c, 3, 63, 58
5, 287549, Note_on_c, 3, 63, 0
5, 287580, Note_on_c, 3, 65, 59
5, 287609, Note_on_c, 3, 65, 0
5, 287640, Note_on_c, 3, 67, 76
5, 287669, Note_on_c, 3, 67, 0
5, 287700, Note_on_c, 3, 65, 61
5, 287729, Note_on_c, 3, 65, 0
5, 287760, Note_on_c, 3, 63, 62
5, 287789, Note_on_c, 3, 63, 0
5, 287820, Note_on_c, 3, 62, 63
5, 287849, Note_on_c, 3, 62, 0
5, 287880, Note_on_c, 3, 60, 64
5, 287909, Note_on_c, 3, 60, 0
5, 287940, Note_on_c, 3, 58, 65
5, 287969, Note_on_c, 3, 58, 0
5, 288000, Note_on_c, 3, 56, 66
5, 288029, Note_on_c, 3, 56, 0
5, 288060, Note_on_c, 3, 55, 67
5, 288089, Note_on_c, 3, 55, 0
5, 288120, Note_on_c, 3, 53, 68
5, 288149, Note_on_c, 3, 53, 0
5, 288180, Note_on_c, 3, 51, 69
5, 288209, Note_on_c, 3, 51, 0
5, 288240, Note_on_c, 3, 50, 70
5, 288269, Note_on_c, 3, 50, 0
5, 288300, Note_on_c, 3, 48, 71
5, 288329, Note_on_c, 3, 48, 0
5, 288360, Note_on_c, 3, 46, 72
5, 288389, Note_on_c, 3, 46, 0
5, 288420, Note_on_c, 3, 46, 73
5, 288450, Note_on_c, 3, 48, 73
5, 288459, Note_on_c, 3, 46, 0
5, 288480, Note_on_c, 3, 50, 74
5, 288489, Note_on_c, 3, 48, 0
5, 288509, Note_on_c, 3, 50, 0
5, 288540, Note_on_c, 3, 51, 75
5, 288569, Note_on_c, 3, 51, 0
5, 288600, Note_on_c, 3, 53, 76
5, 288629, Note_on_c, 3, 53, 0
5, 288660, Note_on_c, 3, 55, 77
5, 288689, Note_on_c, 3, 55, 0
5, 288720, Note_on_c, 3, 56, 78
5, 288749, Note_on_c, 3, 56, 0
5, 288780, Note_on_c, 3, 58, 79
5, 288810, Note_on_c, 3, 60, 79
5, 288819, Note_on_c, 3, 58, 0
5, 288840, Note_on_c, 3, 62, 80
5, 288849, Note_on_c, 3, 60, 0
5, 288869, Note_on_c, 3, 62, 0
5, 288900, Note_on_c, 3, 51, 81
5, 288900, Note_on_c, 3, 63, 81
5, 288929, Note_on_c, 3, 63, 0
5, 288929, Note_on_c, 3, 51, 0
5, 288960, Note_on_c, 3, 53, 82
5, 288960, Note_on_c, 3, 65, 82
5, 288989, Note_on_c, 3, 65, 0
5, 288989, Note_on_c, 3, 53, 0
5, 289020, Note_on_c, 3, 55, 83
5, 289020, Note_on_c, 3, 67, 83
5, 289049, Note_on_c, 3, 67, 0
5, 289049, Note_on_c, 3, 55, 0
5, 289080, Note_on_c, 3, 56, 100
5, 289080, Note_on_c, 3, 68, 100
5, 289109, Note_on_c, 3, 68, 0
5, 289109, Note_on_c, 3, 56, 0
5, 289140, Note_on_c, 3, 55, 85
5, 289140, Note_on_c, 3, 67, 85
5, 289169, Note_on_c, 3, 67, 0
5, 289169, Note_on_c, 3, 55, 0
5, 289200, Note_on_c, 3, 53, 86
5, 289200, Note_on_c, 3, 65, 86
5, 289229, Note_on_c, 3, 65, 0
5, 289229, Note_on_c, 3, 53, 0
5, 289260, Note_on_c, 3, 51, 87
5, 289260, Note_on_c, 3, 63, 87
5, 289289, Note_on_c, 3, 63, 0
5, 289289, Note_on_c, 3, 51, 0
5, 289320, Note_on_c, 3, 50, 88
5, 289320, Note_on_c, 3, 62, 88
5, 289349, Note_on_c, 3, 62, 0
5, 289349, Note_on_c, 3, 50, 0
5, 289380, Note_on_c, 3, 48, 89
5, 289380, Note_on_c, 3, 60, 89
5, 289409, Note_on_c, 3, 60, 0
5, 289409, Note_on_c, 3, 48, 0
5, 289440, Note_on_c, 3, 46, 90
5, 289440, Note_on_c, 3, 58, 90
5, 289469, Note_on_c, 3, 58, 0
5, 289469, Note_on_c, 3, 46, 0
5, 289500, Note_on_c, 3, 60, 91
5, 289529, Note_on_c, 3, 60, 0
5, 289560, Note_on_c, 3, 58, 92
5, 289589, Note_on_c, 3, 58, 0
5, 289620, Note_on_c, 3, 56, 93
5, 289649, Note_on_c, 3, 56, 0
5, 289680, Note_on_c, 3, 55, 94
5, 289709, Note_on_c, 3, 55, 0
5, 289740, Note_on_c, 3, 53, 94
5, 289769, Note_on_c, 3, 53, 0
5, 289800, Note_on_c, 3, 51, 96
5, 289829, Note_on_c, 3, 51, 0
5, 289860, Note_on_c, 3, 51, 96
5, 289890, Note_on_c, 3, 53, 96
5, 289899, Note_on_c, 3, 51, 0
5, 289920, Note_on_c, 3, 55, 96
5, 289929, Note_on_c, 3, 53, 0
5, 289949, Note_on_c, 3, 55, 0
5, 289980, Note_on_c, 3, 55, 96
5, 290010, Note_on_c, 3, 56, 96
5, 290019, Note_on_c, 3, 55, 0
5, 290040, Note_on_c, 3, 58, 96
5, 290049, Note_on_c, 3, 56, 0
5, 290069, Note_on_c, 3, 58, 0
5, 290100, Note_on_c, 3, 60, 96
5, 290130, Note_on_c, 3, 62, 96
5, 290139, Note_on_c, 3, 60, 0
5, 290160, Note_on_c, 3, 63, 96
5, 290169, Note_on_c, 3, 62, 0
5, 290189, Note_on_c, 3, 63, 0
5, 290220, Note_on_c, 3, 55, 96
5, 290250, Note_on_c, 3, 56, 96
5, 290259, Note_on_c, 3, 55, 0
5, 290280, Note_on_c, 3, 58, 96
5, 290289, Note_on_c, 3, 56, 0
5, 290309, Note_on_c, 3, 58, 0
5, 290340, Note_on_c, 3, 58, 96
5, 290370, Note_on_c, 3, 60, 96
5, 290379, Note_on_c, 3, 58, 0
5, 290400, Note_on_c, 3, 62, 96
5, 290409, Note_on_c, 3, 60, 0
5, 290429, Note_on_c, 3, 62, 0
5, 290460, Note_on_c, 3, 63, 96
5, 290490, Note_on_c, 3, 65, 96
5, 290499, Note_on_c, 3, 63, 0
5, 290520, Note_on_c, 3, 67, 112
5, 290529, Note_on_c, 3, 65, 0
5, 290549, Note_on_c, 3, 67, 0
5, 290580, Note_on_c, 3, 65, 96
5, 290609, Note_on_c, 3, 65, 0
5, 290640, Note_on_c, 3, 63, 96
5, 290669, Note_on_c, 3, 63, 0
5, 290700, Note_on_c, 3, 62, 96
5, 290729, Note_on_c, 3, 62, 0
5, 290760, Note_on_c, 3, 60, 96
5, 290789, Note_on_c, 3, 60, 0
5, 290820, Note_on_c, 3, 58, 96
5, 290849, Note_on_c, 3, 58, 0
5, 290880, Note_on_c, 3, 56, 96
5, 290909, Note_on_c, 3, 56, 0
5, 290940, Note_on_c, 3, 55, 96
5, 290969, Note_on_c, 3, 55, 0
5, 291000, Note_on_c, 3, 53, 96
5, 291029, Note_on_c, 3, 53, 0
5, 291060, Note_on_c, 3, 51, 96
5, 291089, Note_on_c, 3, 51, 0
5, 291120, Note_on_c, 3, 50, 96
5, 291149, Note_on_c, 3, 50, 0
5, 291180, Note_on_c, 3, 48, 96
5, 291209, Note_on_c, 3, 48, 0
5, 291240, Note_on_c, 3, 53, 96
5, 291299, Note_on_c, 3, 53, 0
5, 291300, Note_on_c, 3, 53, 96
5, 291359, Note_on_c, 3, 53, 0
5, 291360, Note_on_c, 3, 53, 96
5, 291419, Note_on_c, 3, 53, 0
5, 291420, Note_on_c, 3, 53, 96
5, 291479, Note_on_c, 3, 53, 0
5, 291480, Note_on_c, 3, 56, 96
5, 291539, Note_on_c, 3, 56, 0
5, 291540, Note_on_c, 3, 56, 96
5, 291599, Note_on_c, 3, 56, 0
5, 291600, Note_on_c, 3, 53, 96
5, 291659, Note_on_c, 3, 53, 0
5, 291660, Note_on_c, 3, 53, 96
5, 291719, Note_on_c, 3, 53, 0
5, 291720, Note_on_c, 3, 53, 96
5, 291779, Note_on_c, 3, 53, 0
5, 291780, Note_on_c, 3, 53, 96
5, 291839, Note_on_c, 3, 53, 0
5, 291840, Note_on_c, 3, 46, 96
5, 291899, Note_on_c, 3, 46, 0
5, 291900, Note_on_c, 3, 46, 96
5, 291959, Note_on_c, 3, 46, 0
5, 291960, Note_on_c, 3, 53, 96
5, 292019, Note_on_c, 3, 53, 0
5, 292020, Note_on_c, 3, 53, 96
5, 292079, Note_on_c, 3, 53, 0
5, 292080, Note_on_c, 3, 56, 96
5, 292139, Note_on_c, 3, 56, 0
5, 292140, Note_on_c, 3, 56, 96
5, 292199, Note_on_c, 3, 56, 0
5, 292200, Note_on_c, 3, 58, 96
5, 292259, Note_on_c, 3, 58, 0
5, 292260, Note_on_c, 3, 58, 96
5, 292319, Note_on_c, 3, 58, 0
5, 292320, Note_on_c, 3, 58, 96
5, 292379, Note_on_c, 3, 58, 0
5, 292380, Note_on_c, 3, 58, 96
5, 292439, Note_on_c, 3, 58, 0
5, 292440, Note_on_c, 3, 58, 96
5, 292499, Note_on_c, 3, 58, 0
5, 292500, Note_on_c, 3, 58, 96
5, 292559, Note_on_c, 3, 58, 0
5, 292560, Note_on_c, 3, 58, 96
5, 292619, Note_on_c, 3, 58, 0
5, 292620, Note_on_c, 3, 58, 96
5, 292679, Note_on_c, 3, 58, 0
5, 292680, Note_on_c, 3, 58, 96
5, 292739, Note_on_c, 3, 58, 0
5, 292740, Note_on_c, 3, 58, 96
5, 292799, Note_on_c, 3, 58, 0
5, 292800, Note_on_c, 3, 61, 96
5, 292800, Note_on_c, 3, 58, 96
5, 292859, Note_on_c, 3, 58, 0
5, 292859, Note_on_c, 3, 61, 0
5, 292860, Note_on_c, 3, 61, 96
5, 292860, Note_on_c, 3, 58, 96
5, 292919, Note_on_c, 3, 58, 0
5, 292919, Note_on_c, 3, 61, 0
5, 292920, Note_on_c, 3, 61, 96
5, 292920, Note_on_c, 3, 58, 96
5, 292979, Note_on_c, 3, 58, 0
5, 292979, Note_on_c, 3, 61, 0
5, 292980, Note_on_c, 3, 61, 96
5, 292980, Note_on_c, 3, 58, 96
5, 293039, Note_on_c, 3, 58, 0
5, 293039, Note_on_c, 3, 61, 0
5, 293040, Note_on_c, 3, 58, 96
5, 293040, Note_on_c, 3, 61, 96
5, 293399, Note_on_c, 3, 61, 0
5, 293399, Note_on_c, 3, 58, 0
5, 293400, Note_on_c, 3, 60, 96
5, 293400, Note_on_c, 3, 56, 96
5, 293519, Note_on_c, 3, 56, 0
5, 293519, Note_on_c, 3, 60, 0
5, 293520, Note_on_c, 3, 56, 112
5, 293520, Note_on_c, 3, 60, 112
5, 293759, Note_on_c, 3, 60, 0
5, 293759, Note_on_c, 3, 56, 0
5, 293880, Note_on_c, 3, 60, 112
5, 293880, Note_on_c, 3, 57, 112
5, 294119, Note_on_c, 3, 57, 0
5, 294119, Note_on_c, 3, 60, 0
5, 294240, Note_on_c, 3, 46, 112
5, 294240, Note_on_c, 3, 58, 112
5, 294479, Note_on_c, 3, 58, 0
5, 294479, Note_on_c, 3, 46, 0
5, 294600, Note_on_c, 3, 47, 96
5, 294600, Note_on_c, 3, 59, 96
5, 294839, Note_on_c, 3, 59, 0
5, 294839, Note_on_c, 3, 47, 0
5, 294960, Note_on_c, 3, 60, 96
5, 294960, Note_on_c, 3, 48, 96
5, 295199, Note_on_c, 3, 48, 0
5, 295199, Note_on_c, 3, 60, 0
5, 295320, Note_on_c, 3, 44, 96
5, 295320, Note_on_c, 3, 56, 96
5, 295559, Note_on_c, 3, 56, 0
5, 295559, Note_on_c, 3, 44, 0
5, 295560, Note_on_c, 3, 46, 127
5, 295560, Note_on_c, 3, 58, 127
5, 296039, Note_on_c, 3, 58, 0
5, 296039, Note_on_c, 3, 46, 0
5, 296040, Note_on_c, 3, 58, 127
5, 296040, Note_on_c, 3, 46, 127
5, 296159, Note_on_c, 3, 46, 0
5, 296159, Note_on_c, 3, 58, 0
5, 296160, Note_on_c, 3, 58, 127
5, 296160, Note_on_c, 3, 46, 127
5, 296279, Note_on_c, 3, 46, 0
5, 296279, Note_on_c, 3, 58, 0
5, 296280, Note_on_c, 3, 63, 48
5, 296520, Note_on_c, 3, 62, 52
5, 296529, Note_on_c, 3, 63, 0
5, 296580, Note_on_c, 3, 61, 56
5, 296589, Note_on_c, 3, 62, 0
5, 296640, Note_on_c, 3, 63, 56
5, 296640, Note_on_c, 3, 60, 56
5, 296649, Note_on_c, 3, 61, 0
5, 296760, Note_on_c, 3, 62, 52
5, 296760, Note_on_c, 3, 58, 52
5, 296769, Note_on_c, 3, 60, 0
5, 296769, Note_on_c, 3, 63, 0
5, 296880, Note_on_c, 3, 60, 48
5, 296880, Note_on_c, 3, 56, 48
5, 296889, Note_on_c, 3, 62, 0
5, 296889, Note_on_c, 3, 58, 0
5, 296999, Note_on_c, 3, 60, 0
5, 296999, Note_on_c, 3, 56, 0
5, 297000, Note_on_c, 3, 58, 48
5, 297000, Note_on_c, 3, 55, 48
5, 297240, Note_on_c, 3, 56, 48
5, 297240, Note_on_c, 3, 53, 48
5, 297249, Note_on_c, 3, 55, 0
5, 297249, Note_on_c, 3, 58, 0
5, 297300, Note_on_c, 3, 55, 48
5, 297300, Note_on_c, 3, 51, 48
5, 297309, Note_on_c, 3, 56, 0
5, 297309, Note_on_c, 3, 53, 0
5, 297359, Note_on_c, 3, 55, 0
5, 297359, Note_on_c, 3, 51, 0
5, 297360, Note_on_c, 3, 53, 48
5, 297360, Note_on_c, 3, 50, 48
5, 297449, Note_on_c, 3, 50, 0
5, 297449, Note_on_c, 3, 53, 0
5, 297480, Note_on_c, 3, 58, 48
5, 297480, Note_on_c, 3, 50, 48
5, 297569, Note_on_c, 3, 50, 0
5, 297569, Note_on_c, 3, 58, 0
5, 297600, Note_on_c, 3, 58, 48
5, 297600, Note_on_c, 3, 50, 48
5, 297689, Note_on_c, 3, 50, 0
5, 297689, Note_on_c, 3, 58, 0
5, 297720, Note_on_c, 3, 58, 48
5, 297720, Note_on_c, 3, 51, 48
5, 297839, Note_on_c, 3, 51, 0
5, 297839, Note_on_c, 3, 58, 0
5, 298620, Note_on_c, 3, 55, 78
5, 298620, Note_on_c, 3, 58, 78
5, 298649, Note_on_c, 3, 58, 0
5, 298649, Note_on_c, 3, 55, 0
5, 298680, Note_on_c, 3, 53, 80
5, 298680, Note_on_c, 3, 56, 80
5, 298709, Note_on_c, 3, 56, 0
5, 298709, Note_on_c, 3, 53, 0
5, 298740, Note_on_c, 3, 51, 82
5, 298740, Note_on_c, 3, 55, 82
5, 298769, Note_on_c, 3, 55, 0
5, 298769, Note_on_c, 3, 51, 0
5, 298800, Note_on_c, 3, 50, 84
5, 298800, Note_on_c, 3, 53, 84
5, 298829, Note_on_c, 3, 53, 0
5, 298829, Note_on_c, 3, 50, 0
5, 298860, Note_on_c, 3, 51, 86
5, 298860, Note_on_c, 3, 55, 86
5, 298889, Note_on_c, 3, 55, 0
5, 298889, Note_on_c, 3, 51, 0
5, 298920, Note_on_c, 3, 53, 88
5, 298920, Note_on_c, 3, 56, 88
5, 298949, Note_on_c, 3, 56, 0
5, 298949, Note_on_c, 3, 53, 0
5, 298980, Note_on_c, 3, 51, 90
5, 298980, Note_on_c, 3, 55, 90
5, 299009, Note_on_c, 3, 55, 0
5, 299009, Note_on_c, 3, 51, 0
5, 299040, Note_on_c, 3, 50, 92
5, 299040, Note_on_c, 3, 53, 92
5, 299069, Note_on_c, 3, 53, 0
5, 299069, Note_on_c, 3, 50, 0
5, 299100, Note_on_c, 3, 48, 94
5, 299100, Note_on_c, 3, 51, 94
5, 299129, Note_on_c, 3, 51, 0
5, 299129, Note_on_c, 3, 48, 0
5, 299160, Note_on_c, 3, 46, 96
5, 299160, Note_on_c, 3, 50, 96
5, 299279, Note_on_c, 3, 50, 0
5, 299279, Note_on_c, 3, 46, 0
5, 299280, Note_on_c, 3, 58, 96
5, 299280, Note_on_c, 3, 46, 96
5, 299639, Note_on_c, 3, 46, 0
5, 299639, Note_on_c, 3, 58, 0
5, 299640, Note_on_c, 3, 46, 96
5, 299640, Note_on_c, 3, 58, 96
5, 299999, Note_on_c, 3, 58, 0
5, 299999, Note_on_c, 3, 46, 0
5, 300000, Note_on_c, 3, 58, 96
5, 300000, Note_on_c, 3, 46, 96
5, 300239, Note_on_c, 3, 46, 0
5, 300239, Note_on_c, 3, 58, 0
5, 300240, Note_on_c, 3, 46, 96
5, 300240, Note_on_c, 3, 58, 96
5, 300479, Note_on_c, 3, 58, 0
5, 300479, Note_on_c, 3, 46, 0
5, 300480, Note_on_c, 3, 58, 96
5, 300480, Note_on_c, 3, 46, 96
5, 300539, Note_on_c, 3, 46, 0
5, 300539, Note_on_c, 3, 58, 0
5, 300600, Note_on_c, 3, 46, 96
5, 300600, Note_on_c, 3, 58, 96
5, 300659, Note_on_c, 3, 58, 0
5, 300659, Note_on_c, 3, 46, 0
5, 300720, Note_on_c, 3, 62, 127
5, 300720, Note_on_c, 3, 46, 127
5, 300779, Note_on_c, 3, 46, 0
5, 300779, Note_on_c, 3, 62, 0
5, 300840, Note_on_c, 3, 62, 127
5, 300840, Note_on_c, 3, 46, 127
5, 300899, Note_on_c, 3, 46, 0
5, 300899, Note_on_c, 3, 62, 0
5, 300960, Note_on_c, 3, 62, 127
5, 300960, Note_on_c, 3, 46, 127
5, 301019, Note_on_c, 3, 46, 0
5, 301019, Note_on_c, 3, 62, 0
5, 301080, Note_on_c, 3, 62, 127
5, 301080, Note_on_c, 3, 46, 127
5, 301139, Note_on_c, 3, 46, 0
5, 301139, Note_on_c, 3, 62, 0
5, 301200, Note_on_c, 3, 62, 127
5, 301200, Note_on_c, 3, 46, 127
5, 301259, Note_on_c, 3, 46, 0
5, 301259, Note_on_c, 3, 62, 0
5, 301320, Note_on_c, 3, 62, 127
5, 301320, Note_on_c, 3, 46, 127
5, 301379, Note_on_c, 3, 46, 0
5, 301379, Note_on_c, 3, 62, 0
5, 301440, Note_on_c, 3, 62, 127
5, 301440, Note_on_c, 3, 46, 127
5, 301499, Note_on_c, 3, 46, 0
5, 301499, Note_on_c, 3, 62, 0
5, 301560, Note_on_c, 3, 62, 127
5, 301560, Note_on_c, 3, 46, 127
5, 301619, Note_on_c, 3, 46, 0
5, 301619, Note_on_c, 3, 62, 0
5, 301680, Note_on_c, 3, 62, 127
5, 301680, Note_on_c, 3, 46, 127
5, 301739, Note_on_c, 3, 46, 0
5, 301739, Note_on_c, 3, 62, 0
5, 301800, Note_on_c, 3, 62, 127
5, 301800, Note_on_c, 3, 46, 127
5, 301859, Note_on_c, 3, 46, 0
5, 301859, Note_on_c, 3, 62, 0
5, 301920, Note_on_c, 3, 62, 127
5, 301920, Note_on_c, 3, 46, 127
5, 301979, Note_on_c, 3, 46, 0
5, 301979, Note_on_c, 3, 62, 0
5, 302040, Note_on_c, 3, 63, 127
5, 302040, Note_on_c, 3, 51, 127
5, 302159, Note_on_c, 3, 51, 0
5, 302159, Note_on_c, 3, 63, 0
5, 302400, Note_on_c, 3, 51, 127
5, 302400, Note_on_c, 3, 63, 127
5, 302519, Note_on_c, 3, 63, 0
5, 302519, Note_on_c, 3, 51, 0
5, 302760, Note_on_c, 3, 51, 127
5, 302879, Note_on_c, 3, 51, 0
5, 302879, End_track
6, 0, Start_track
6, 0, MIDI_port, 0
6, 0, Title_t, "French Horns"
6, 0, Program_c, 4, 60
6, 0, Control_c, 4, 7, 127
6, 0, Control_c, 4, 10, 81
6, 0, Control_c, 4, 93, 0
6, 0, Control_c, 4, 91, 0
6, 0, Note_on_c, 4, 55, 96
6, 0, Note_on_c, 4, 63, 127
6, 59, Note_on_c, 4, 63, 0
6, 59, Note_on_c, 4, 55, 0
6, 360, Note_on_c, 4, 63, 127
6, 360, Note_on_c, 4, 55, 96
6, 419, Note_on_c, 4, 55, 0
6, 419, Note_on_c, 4, 63, 0
6, 4320, Note_on_c, 4, 67, 48
6, 4320, Note_on_c, 4, 63, 48
6, 4680, Note_on_c, 4, 65, 48
6, 4680, Note_on_c, 4, 68, 48
6, 4689, Note_on_c, 4, 63, 0
6, 4689, Note_on_c, 4, 67, 0
6, 4800, Note_on_c, 4, 63, 56
6, 4800, Note_on_c, 4, 67, 56
6, 4809, Note_on_c, 4, 65, 0
6, 4809, Note_on_c, 4, 68, 0
6, 4920, Note_on_c, 4, 65, 48
6, 4920, Note_on_c, 4, 58, 48
6, 4929, Note_on_c, 4, 63, 0
6, 4929, Note_on_c, 4, 67, 0
6, 5040, Note_on_c, 4, 55, 48
6, 5040, Note_on_c, 4, 63, 48
6, 5049, Note_on_c, 4, 65, 0
6, 5049, Note_on_c, 4, 58, 0
6, 5159, Note_on_c, 4, 55, 0
6, 5280, Note_on_c, 4, 67, 48
6, 5289, Note_on_c, 4, 63, 0
6, 5400, Note_on_c, 4, 63, 48
6, 5409, Note_on_c, 4, 67, 0
6, 5640, Note_on_c, 4, 58, 48
6, 5649, Note_on_c, 4, 63, 0
6, 5760, Note_on_c, 4, 63, 48
6, 5769, Note_on_c, 4, 58, 0
6, 5880, Note_on_c, 4, 67, 48
6, 5889, Note_on_c, 4, 63, 0
6, 6000, Note_on_c, 4, 70, 48
6, 6009, Note_on_c, 4, 67, 0
6, 6120, Note_on_c, 4, 63, 48
6, 6129, Note_on_c, 4, 70, 0
6, 6249, Note_on_c, 4, 63, 0
6, 7680, Note_on_c, 4, 51, 48
6, 7680, Note_on_c, 4, 63, 48
6, 7799, Note_on_c, 4, 63, 0
6, 7799, Note_on_c, 4, 51, 0
6, 7800, Note_on_c, 4, 63, 64
6, 7800, Note_on_c, 4, 51, 64
6, 7800, Note_on_c, 4, 65, 64
6, 7919, Note_on_c, 4, 65, 0
6, 7919, Note_on_c, 4, 51, 0
6, 7919, Note_on_c, 4, 63, 0
6, 7920, Note_on_c, 4, 46, 96
6, 7920, Note_on_c, 4, 58, 96
6, 7920, Note_on_c, 4, 65, 96
6, 7949, Note_on_c, 4, 65, 0
6, 7949, Note_on_c, 4, 58, 0
6, 7949, Note_on_c, 4, 46, 0
6, 7950, Note_on_c, 4, 58, 48
6, 7950, Note_on_c, 4, 46, 48
6, 7950, Note_on_c, 4, 65, 48
6, 8039, Note_on_c, 4, 65, 0
6, 8519, Note_on_c, 4, 46, 0
6, 8519, Note_on_c, 4, 58, 0
6, 8520, Note_on_c, 4, 58, 48
6, 8520, Note_on_c, 4, 65, 48
6, 8639, Note_on_c, 4, 65, 0
6, 8639, Note_on_c, 4, 58, 0
6, 8640, Note_on_c, 4, 51, 48
6, 8640, Note_on_c, 4, 63, 48
6, 8640, Note_on_c, 4, 67, 48
6, 8699, Note_on_c, 4, 67, 0
6, 8699, Note_on_c, 4, 63, 0
6, 8699, Note_on_c, 4, 51, 0
6, 8760, Note_on_c, 4, 63, 96
6, 8760, Note_on_c, 4, 51, 96
6, 8760, Note_on_c, 4, 66, 96
6, 8999, Note_on_c, 4, 66, 0
6, 8999, Note_on_c, 4, 51, 0
6, 8999, Note_on_c, 4, 63, 0
6, 9000, Note_on_c, 4, 51, 96
6, 9000, Note_on_c, 4, 63, 96
6, 9000, Note_on_c, 4, 66, 96
6, 9239, Note_on_c, 4, 66, 0
6, 9239, Note_on_c, 4, 63, 0
6, 9239, Note_on_c, 4, 51, 0
6, 9240, Note_on_c, 4, 63, 96
6, 9240, Note_on_c, 4, 51, 96
6, 9240, Note_on_c, 4, 66, 96
6, 9359, Note_on_c, 4, 66, 0
6, 9359, Note_on_c, 4, 51, 0
6, 9359, Note_on_c, 4, 63, 0
6, 9360, Note_on_c, 4, 46, 96
6, 9360, Note_on_c, 4, 58, 96
6, 9360, Note_on_c, 4, 65, 90
6, 9389, Note_on_c, 4, 58, 0
6, 9389, Note_on_c, 4, 46, 0
6, 9390, Note_on_c, 4, 58, 48
6, 9390, Note_on_c, 4, 46, 48
6, 9419, Note_on_c, 4, 65, 0
6, 9959, Note_on_c, 4, 46, 0
6, 9959, Note_on_c, 4, 58, 0
6, 9960, Note_on_c, 4, 65, 96
6, 9960, Note_on_c, 4, 46, 96
6, 9960, Note_on_c, 4, 58, 96
6, 10199, Note_on_c, 4, 58, 0
6, 10199, Note_on_c, 4, 46, 0
6, 10199, Note_on_c, 4, 65, 0
6, 10200, Note_on_c, 4, 65, 96
6, 10200, Note_on_c, 4, 46, 96
6, 10200, Note_on_c, 4, 58, 96
6, 10439, Note_on_c, 4, 58, 0
6, 10439, Note_on_c, 4, 46, 0
6, 10439, Note_on_c, 4, 65, 0
6, 10440, Note_on_c, 4, 65, 96
6, 10440, Note_on_c, 4, 46, 96
6, 10440, Note_on_c, 4, 58, 96
6, 10679, Note_on_c, 4, 58, 0
6, 10679, Note_on_c, 4, 46, 0
6, 10679, Note_on_c, 4, 65, 0
6, 10680, Note_on_c, 4, 65, 96
6, 10680, Note_on_c, 4, 46, 96
6, 10680, Note_on_c, 4, 58, 96
6, 10919, Note_on_c, 4, 58, 0
6, 10919, Note_on_c, 4, 46, 0
6, 10919, Note_on_c, 4, 65, 0
6, 10920, Note_on_c, 4, 67, 96
6, 10920, Note_on_c, 4, 46, 96
6, 10920, Note_on_c, 4, 63, 96
6, 11159, Note_on_c, 4, 63, 0
6, 11159, Note_on_c, 4, 46, 0
6, 11159, Note_on_c, 4, 67, 0
6, 11160, Note_on_c, 4, 67, 96
6, 11160, Note_on_c, 4, 46, 96
6, 11160, Note_on_c, 4, 63, 96
6, 11399, Note_on_c, 4, 63, 0
6, 11399, Note_on_c, 4, 46, 0
6, 11399, Note_on_c, 4, 67, 0
6, 11400, Note_on_c, 4, 67, 96
6, 11400, Note_on_c, 4, 46, 96
6, 11400, Note_on_c, 4, 63, 96
6, 11639, Note_on_c, 4, 63, 0
6, 11639, Note_on_c, 4, 46, 0
6, 11639, Note_on_c, 4, 67, 0
6, 11640, Note_on_c, 4, 65, 90
6, 11640, Note_on_c, 4, 46, 90
6, 11640, Note_on_c, 4, 58, 90
6, 11699, Note_on_c, 4, 58, 0
6, 11699, Note_on_c, 4, 46, 0
6, 11699, Note_on_c, 4, 65, 0
6, 11760, Note_on_c, 4, 65, 96
6, 11760, Note_on_c, 4, 46, 96
6, 11760, Note_on_c, 4, 58, 96
6, 11999, Note_on_c, 4, 58, 0
6, 11999, Note_on_c, 4, 46, 0
6, 11999, Note_on_c, 4, 65, 0
6, 12000, Note_on_c, 4, 67, 90
6, 12000, Note_on_c, 4, 46, 90
6, 12000, Note_on_c, 4, 63, 90
6, 12059, Note_on_c, 4, 63, 0
6, 12059, Note_on_c, 4, 46, 0
6, 12059, Note_on_c, 4, 67, 0
6, 12120, Note_on_c, 4, 67, 96
6, 12120, Note_on_c, 4, 46, 96
6, 12120, Note_on_c, 4, 63, 96
6, 12239, Note_on_c, 4, 63, 0
6, 12239, Note_on_c, 4, 46, 0
6, 12239, Note_on_c, 4, 67, 0
6, 12240, Note_on_c, 4, 68, 110
6, 12240, Note_on_c, 4, 46, 110
6, 12240, Note_on_c, 4, 58, 110
6, 12719, Note_on_c, 4, 58, 0
6, 12719, Note_on_c, 4, 46, 0
6, 12719, Note_on_c, 4, 68, 0
6, 12720, Note_on_c, 4, 68, 120
6, 12720, Note_on_c, 4, 58, 120
6, 12720, Note_on_c, 4, 65, 120
6, 12839, Note_on_c, 4, 65, 0
6, 12839, Note_on_c, 4, 58, 0
6, 12839, Note_on_c, 4, 68, 0
6, 12840, Note_on_c, 4, 68, 125
6, 12840, Note_on_c, 4, 58, 125
6, 12840, Note_on_c, 4, 65, 125
6, 12959, Note_on_c, 4, 65, 0
6, 12959, Note_on_c, 4, 58, 0
6, 12959, Note_on_c, 4, 68, 0
6, 12960, Note_on_c, 4, 67, 127
6, 12960, Note_on_c, 4, 58, 127
6, 12960, Note_on_c, 4, 63, 127
6, 13079, Note_on_c, 4, 63, 0
6, 13079, Note_on_c, 4, 58, 0
6, 13079, Note_on_c, 4, 67, 0
6, 13080, Note_on_c, 4, 51, 127
6, 13080, Note_on_c, 4, 63, 127
6, 13199, Note_on_c, 4, 63, 0
6, 13199, Note_on_c, 4, 51, 0
6, 13200, Note_on_c, 4, 55, 127
6, 13200, Note_on_c, 4, 67, 127
6, 13319, Note_on_c, 4, 67, 0
6, 13319, Note_on_c, 4, 55, 0
6, 13320, Note_on_c, 4, 51, 127
6, 13320, Note_on_c, 4, 63, 127
6, 13559, Note_on_c, 4, 63, 0
6, 13559, Note_on_c, 4, 51, 0
6, 13560, Note_on_c, 4, 46, 127
6, 13560, Note_on_c, 4, 58, 127
6, 13679, Note_on_c, 4, 58, 0
6, 13679, Note_on_c, 4, 46, 0
6, 13680, Note_on_c, 4, 51, 127
6, 13680, Note_on_c, 4, 63, 127
6, 13799, Note_on_c, 4, 63, 0
6, 13799, Note_on_c, 4, 51, 0
6, 13800, Note_on_c, 4, 55, 127
6, 13800, Note_on_c, 4, 67, 127
6, 13919, Note_on_c, 4, 67, 0
6, 13919, Note_on_c, 4, 55, 0
6, 13920, Note_on_c, 4, 70, 127
6, 13920, Note_on_c, 4, 58, 127
6, 13920, Note_on_c, 4, 67, 127
6, 14039, Note_on_c, 4, 67, 0
6, 14039, Note_on_c, 4, 58, 0
6, 14039, Note_on_c, 4, 70, 0
6, 14040, Note_on_c, 4, 51, 127
6, 14040, Note_on_c, 4, 63, 127
6, 14040, Note_on_c, 4, 67, 127
6, 14279, Note_on_c, 4, 67, 0
6, 14279, Note_on_c, 4, 63, 0
6, 14279, Note_on_c, 4, 51, 0
6, 14280, Note_on_c, 4, 55, 127
6, 14280, Note_on_c, 4, 67, 127
6, 14280, Note_on_c, 4, 63, 127
6, 14399, Note_on_c, 4, 63, 0
6, 14399, Note_on_c, 4, 67, 0
6, 14399, Note_on_c, 4, 55, 0
6, 14400, Note_on_c, 4, 55, 127
6, 14400, Note_on_c, 4, 67, 127
6, 14400, Note_on_c, 4, 63, 127
6, 14519, Note_on_c, 4, 63, 0
6, 14519, Note_on_c, 4, 67, 0
6, 14519, Note_on_c, 4, 55, 0
6, 14520, Note_on_c, 4, 55, 127
6, 14520, Note_on_c, 4, 67, 127
6, 14520, Note_on_c, 4, 63, 127
6, 14639, Note_on_c, 4, 63, 0
6, 14639, Note_on_c, 4, 67, 0
6, 14639, Note_on_c, 4, 55, 0
6, 14640, Note_on_c, 4, 55, 127
6, 14640, Note_on_c, 4, 67, 127
6, 14640, Note_on_c, 4, 63, 127
6, 14759, Note_on_c, 4, 63, 0
6, 14759, Note_on_c, 4, 67, 0
6, 14759, Note_on_c, 4, 55, 0
6, 14760, Note_on_c, 4, 55, 127
6, 14760, Note_on_c, 4, 67, 127
6, 14760, Note_on_c, 4, 63, 127
6, 14999, Note_on_c, 4, 63, 0
6, 14999, Note_on_c, 4, 67, 0
6, 14999, Note_on_c, 4, 55, 0
6, 15000, Note_on_c, 4, 51, 127
6, 15000, Note_on_c, 4, 63, 127
6, 15000, Note_on_c, 4, 61, 127
6, 15119, Note_on_c, 4, 61, 0
6, 15119, Note_on_c, 4, 63, 0
6, 15119, Note_on_c, 4, 51, 0
6, 15120, Note_on_c, 4, 51, 127
6, 15120, Note_on_c, 4, 63, 127
6, 15120, Note_on_c, 4, 60, 127
6, 15239, Note_on_c, 4, 60, 0
6, 15239, Note_on_c, 4, 63, 0
6, 15240, Note_on_c, 4, 63, 127
6, 15359, Note_on_c, 4, 63, 0
6, 15360, Note_on_c, 4, 63, 127
6, 15479, Note_on_c, 4, 63, 0
6, 15479, Note_on_c, 4, 51, 0
6, 15480, Note_on_c, 4, 46, 127
6, 15480, Note_on_c, 4, 58, 127
6, 15839, Note_on_c, 4, 58, 0
6, 15839, Note_on_c, 4, 46, 0
6, 15840, Note_on_c, 4, 65, 127
6, 15959, Note_on_c, 4, 65, 0
6, 16560, Note_on_c, 4, 65, 48
6, 17039, Note_on_c, 4, 65, 0
6, 17040, Note_on_c, 4, 65, 48
6, 17159, Note_on_c, 4, 65, 0
6, 17160, Note_on_c, 4, 65, 48
6, 17279, Note_on_c, 4, 65, 0
6, 17280, Note_on_c, 4, 65, 48
6, 17399, Note_on_c, 4, 65, 0
6, 18000, Note_on_c, 4, 65, 48
6, 18479, Note_on_c, 4, 65, 0
6, 18480, Note_on_c, 4, 65, 48
6, 18599, Note_on_c, 4, 65, 0
6, 18600, Note_on_c, 4, 65, 48
6, 18719, Note_on_c, 4, 65, 0
6, 18720, Note_on_c, 4, 65, 48
6, 18839, Note_on_c, 4, 65, 0
6, 19560, Note_on_c, 4, 65, 127
6, 19739, Note_on_c, 4, 65, 0
6, 19740, Note_on_c, 4, 65, 127
6, 19799, Note_on_c, 4, 65, 0
6, 19800, Note_on_c, 4, 65, 127
6, 19889, Note_on_c, 4, 65, 0
6, 19920, Note_on_c, 4, 65, 127
6, 20009, Note_on_c, 4, 65, 0
6, 20040, Note_on_c, 4, 65, 127
6, 20129, Note_on_c, 4, 65, 0
6, 20160, Note_on_c, 4, 46, 48
6, 20160, Note_on_c, 4, 58, 48
6, 21119, Note_on_c, 4, 58, 0
6, 21119, Note_on_c, 4, 46, 0
6, 21120, Note_on_c, 4, 65, 48
6, 21209, Note_on_c, 4, 65, 0
6, 21240, Note_on_c, 4, 65, 48
6, 21329, Note_on_c, 4, 65, 0
6, 21360, Note_on_c, 4, 65, 48
6, 21449, Note_on_c, 4, 65, 0
6, 21480, Note_on_c, 4, 65, 48
6, 21569, Note_on_c, 4, 65, 0
6, 21600, Note_on_c, 4, 46, 64
6, 21600, Note_on_c, 4, 58, 64
6, 22439, Note_on_c, 4, 58, 0
6, 22439, Note_on_c, 4, 46, 0
6, 22860, Note_on_c, 4, 63, 90
6, 22860, Note_on_c, 4, 51, 90
6, 22919, Note_on_c, 4, 51, 0
6, 22919, Note_on_c, 4, 63, 0
6, 22920, Note_on_c, 4, 63, 92
6, 22920, Note_on_c, 4, 51, 92
6, 22979, Note_on_c, 4, 51, 0
6, 22979, Note_on_c, 4, 63, 0
6, 22980, Note_on_c, 4, 63, 94
6, 22980, Note_on_c, 4, 51, 94
6, 23039, Note_on_c, 4, 51, 0
6, 23039, Note_on_c, 4, 63, 0
6, 23040, Note_on_c, 4, 63, 96
6, 23040, Note_on_c, 4, 51, 96
6, 23099, Note_on_c, 4, 51, 0
6, 23099, Note_on_c, 4, 63, 0
6, 23160, Note_on_c, 4, 63, 96
6, 23160, Note_on_c, 4, 51, 96
6, 23219, Note_on_c, 4, 51, 0
6, 23219, Note_on_c, 4, 63, 0
6, 23700, Note_on_c, 4, 51, 96
6, 23700, Note_on_c, 4, 63, 96
6, 23729, Note_on_c, 4, 63, 0
6, 23729, Note_on_c, 4, 51, 0
6, 23760, Note_on_c, 4, 67, 96
6, 23760, Note_on_c, 4, 46, 96
6, 23760, Note_on_c, 4, 58, 96
6, 23819, Note_on_c, 4, 58, 0
6, 23819, Note_on_c, 4, 46, 0
6, 23819, Note_on_c, 4, 67, 0
6, 23880, Note_on_c, 4, 67, 96
6, 23880, Note_on_c, 4, 58, 96
6, 23880, Note_on_c, 4, 46, 96
6, 23939, Note_on_c, 4, 46, 0
6, 23939, Note_on_c, 4, 58, 0
6, 23939, Note_on_c, 4, 67, 0
6, 24420, Note_on_c, 4, 55, 96
6, 24420, Note_on_c, 4, 67, 96
6, 24449, Note_on_c, 4, 67, 0
6, 24449, Note_on_c, 4, 55, 0
6, 24480, Note_on_c, 4, 65, 96
6, 24480, Note_on_c, 4, 68, 96
6, 24539, Note_on_c, 4, 68, 0
6, 24539, Note_on_c, 4, 65, 0
6, 24600, Note_on_c, 4, 68, 96
6, 24600, Note_on_c, 4, 65, 96
6, 24659, Note_on_c, 4, 65, 0
6, 24659, Note_on_c, 4, 68, 0
6, 25020, Note_on_c, 4, 65, 96
6, 25020, Note_on_c, 4, 68, 96
6, 25049, Note_on_c, 4, 68, 0
6, 25049, Note_on_c, 4, 65, 0
6, 25080, Note_on_c, 4, 65, 96
6, 25080, Note_on_c, 4, 68, 96
6, 25109, Note_on_c, 4, 68, 0
6, 25109, Note_on_c, 4, 65, 0
6, 25140, Note_on_c, 4, 65, 96
6, 25140, Note_on_c, 4, 68, 96
6, 25169, Note_on_c, 4, 68, 0
6, 25169, Note_on_c, 4, 65, 0
6, 25200, Note_on_c, 4, 67, 96
6, 25200, Note_on_c, 4, 63, 96
6, 25319, Note_on_c, 4, 63, 0
6, 25319, Note_on_c, 4, 67, 0
6, 25680, Note_on_c, 4, 67, 96
6, 25799, Note_on_c, 4, 67, 0
6, 25800, Note_on_c, 4, 65, 96
6, 25919, Note_on_c, 4, 65, 0
6, 25920, Note_on_c, 4, 65, 96
6, 26039, Note_on_c, 4, 65, 0
6, 26040, Note_on_c, 4, 46, 96
6, 26040, Note_on_c, 4, 70, 96
6, 26040, Note_on_c, 4, 58, 96
6, 26159, Note_on_c, 4, 58, 0
6, 26159, Note_on_c, 4, 70, 0
6, 26159, Note_on_c, 4, 46, 0
6, 26160, Note_on_c, 4, 46, 96
6, 26160, Note_on_c, 4, 70, 96
6, 26160, Note_on_c, 4, 58, 96
6, 26279, Note_on_c, 4, 58, 0
6, 26279, Note_on_c, 4, 70, 0
6, 26279, Note_on_c, 4, 46, 0
6, 26280, Note_on_c, 4, 46, 96
6, 26280, Note_on_c, 4, 70, 96
6, 26280, Note_on_c, 4, 58, 96
6, 26399, Note_on_c, 4, 58, 0
6, 26399, Note_on_c, 4, 70, 0
6, 26399, Note_on_c, 4, 46, 0
6, 26400, Note_on_c, 4, 46, 96
6, 26400, Note_on_c, 4, 70, 96
6, 26400, Note_on_c, 4, 58, 96
6, 26519, Note_on_c, 4, 58, 0
6, 26519, Note_on_c, 4, 70, 0
6, 26519, Note_on_c, 4, 46, 0
6, 26520, Note_on_c, 4, 46, 96
6, 26520, Note_on_c, 4, 70, 96
6, 26520, Note_on_c, 4, 58, 96
6, 26639, Note_on_c, 4, 58, 0
6, 26639, Note_on_c, 4, 70, 0
6, 26639, Note_on_c, 4, 46, 0
6, 26640, Note_on_c, 4, 70, 96
6, 26640, Note_on_c, 4, 58, 96
6, 26640, Note_on_c, 4, 46, 96
6, 26759, Note_on_c, 4, 46, 0
6, 26759, Note_on_c, 4, 58, 0
6, 26759, Note_on_c, 4, 70, 0
6, 26760, Note_on_c, 4, 55, 96
6, 26760, Note_on_c, 4, 67, 96
6, 26879, Note_on_c, 4, 67, 0
6, 26879, Note_on_c, 4, 55, 0
6, 26880, Note_on_c, 4, 65, 96
6, 26880, Note_on_c, 4, 67, 96
6, 26880, Note_on_c, 4, 55, 96
6, 26999, Note_on_c, 4, 55, 0
6, 26999, Note_on_c, 4, 67, 0
6, 26999, Note_on_c, 4, 65, 0
6, 27000, Note_on_c, 4, 55, 96
6, 27000, Note_on_c, 4, 67, 96
6, 27000, Note_on_c, 4, 63, 96
6, 27359, Note_on_c, 4, 63, 0
6, 27359, Note_on_c, 4, 67, 0
6, 27359, Note_on_c, 4, 55, 0
6, 27360, Note_on_c, 4, 65, 96
6, 27479, Note_on_c, 4, 65, 0
6, 28080, Note_on_c, 4, 65, 96
6, 28919, Note_on_c, 4, 65, 0
6, 28920, Note_on_c, 4, 65, 127
6, 29039, Note_on_c, 4, 65, 0
6, 29040, Note_on_c, 4, 65, 127
6, 29159, Note_on_c, 4, 65, 0
6, 29160, Note_on_c, 4, 65, 127
6, 29279, Note_on_c, 4, 65, 0
6, 29280, Note_on_c, 4, 65, 127
6, 29399, Note_on_c, 4, 65, 0
6, 29400, Note_on_c, 4, 65, 127
6, 29519, Note_on_c, 4, 65, 0
6, 29520, Note_on_c, 4, 46, 127
6, 29520, Note_on_c, 4, 70, 127
6, 29520, Note_on_c, 4, 58, 127
6, 29639, Note_on_c, 4, 58, 0
6, 29639, Note_on_c, 4, 70, 0
6, 29639, Note_on_c, 4, 46, 0
6, 32880, Note_on_c, 4, 63, 48
6, 32969, Note_on_c, 4, 63, 0
6, 33000, Note_on_c, 4, 63, 48
6, 33089, Note_on_c, 4, 63, 0
6, 33120, Note_on_c, 4, 63, 60
6, 33209, Note_on_c, 4, 63, 0
6, 33240, Note_on_c, 4, 66, 72
6, 33240, Note_on_c, 4, 63, 72
6, 33329, Note_on_c, 4, 63, 0
6, 33329, Note_on_c, 4, 66, 0
6, 33360, Note_on_c, 4, 66, 84
6, 33360, Note_on_c, 4, 63, 84
6, 33449, Note_on_c, 4, 63, 0
6, 33449, Note_on_c, 4, 66, 0
6, 33480, Note_on_c, 4, 66, 96
6, 33480, Note_on_c, 4, 63, 96
6, 33839, Note_on_c, 4, 63, 0
6, 33839, Note_on_c, 4, 66, 0
6, 38400, Note_on_c, 4, 65, 75
6, 38459, Note_on_c, 4, 65, 0
6, 38460, Note_on_c, 4, 65, 78
6, 38519, Note_on_c, 4, 65, 0
6, 38520, Note_on_c, 4, 65, 80
6, 38579, Note_on_c, 4, 65, 0
6, 38580, Note_on_c, 4, 65, 83
6, 38639, Note_on_c, 4, 65, 0
6, 38640, Note_on_c, 4, 65, 86
6, 38699, Note_on_c, 4, 65, 0
6, 38700, Note_on_c, 4, 65, 89
6, 38759, Note_on_c, 4, 65, 0
6, 38760, Note_on_c, 4, 65, 92
6, 38819, Note_on_c, 4, 65, 0
6, 38820, Note_on_c, 4, 65, 94
6, 38879, Note_on_c, 4, 65, 0
6, 38880, Note_on_c, 4, 65, 96
6, 38999, Note_on_c, 4, 65, 0
6, 39000, Note_on_c, 4, 58, 112
6, 39000, Note_on_c, 4, 70, 112
6, 39000, Note_on_c, 4, 65, 112
6, 39239, Note_on_c, 4, 65, 0
6, 39239, Note_on_c, 4, 70, 0
6, 39239, Note_on_c, 4, 58, 0
6, 39360, Note_on_c, 4, 70, 112
6, 39360, Note_on_c, 4, 58, 112
6, 39360, Note_on_c, 4, 65, 112
6, 39599, Note_on_c, 4, 65, 0
6, 39599, Note_on_c, 4, 58, 0
6, 39599, Note_on_c, 4, 70, 0
6, 39720, Note_on_c, 4, 63, 112
6, 39720, Note_on_c, 4, 72, 112
6, 39720, Note_on_c, 4, 65, 112
6, 39959, Note_on_c, 4, 65, 0
6, 39959, Note_on_c, 4, 72, 0
6, 39959, Note_on_c, 4, 63, 0
6, 40080, Note_on_c, 4, 72, 112
6, 40080, Note_on_c, 4, 63, 112
6, 40080, Note_on_c, 4, 65, 112
6, 40319, Note_on_c, 4, 65, 0
6, 40319, Note_on_c, 4, 63, 0
6, 40319, Note_on_c, 4, 72, 0
6, 40320, Note_on_c, 4, 58, 127
6, 40320, Note_on_c, 4, 70, 127
6, 40320, Note_on_c, 4, 65, 127
6, 40439, Note_on_c, 4, 65, 0
6, 40439, Note_on_c, 4, 70, 0
6, 40439, Note_on_c, 4, 58, 0
6, 40440, Note_on_c, 4, 70, 127
6, 40440, Note_on_c, 4, 58, 127
6, 40440, Note_on_c, 4, 65, 127
6, 40559, Note_on_c, 4, 65, 0
6, 40559, Note_on_c, 4, 58, 0
6, 40559, Note_on_c, 4, 70, 0
6, 40560, Note_on_c, 4, 58, 127
6, 40560, Note_on_c, 4, 70, 127
6, 40560, Note_on_c, 4, 65, 127
6, 40679, Note_on_c, 4, 65, 0
6, 40679, Note_on_c, 4, 70, 0
6, 40679, Note_on_c, 4, 58, 0
6, 40680, Note_on_c, 4, 70, 127
6, 40680, Note_on_c, 4, 58, 127
6, 40680, Note_on_c, 4, 65, 127
6, 40799, Note_on_c, 4, 65, 0
6, 40799, Note_on_c, 4, 58, 0
6, 40799, Note_on_c, 4, 70, 0
6, 40800, Note_on_c, 4, 58, 127
6, 40800, Note_on_c, 4, 70, 127
6, 40800, Note_on_c, 4, 65, 127
6, 40919, Note_on_c, 4, 65, 0
6, 40919, Note_on_c, 4, 70, 0
6, 40919, Note_on_c, 4, 58, 0
6, 40920, Note_on_c, 4, 70, 127
6, 40920, Note_on_c, 4, 58, 127
6, 40920, Note_on_c, 4, 65, 127
6, 41039, Note_on_c, 4, 65, 0
6, 41039, Note_on_c, 4, 58, 0
6, 41039, Note_on_c, 4, 70, 0
6, 41040, Note_on_c, 4, 72, 127
6, 41040, Note_on_c, 4, 63, 127
6, 41040, Note_on_c, 4, 65, 127
6, 41399, Note_on_c, 4, 65, 0
6, 41399, Note_on_c, 4, 63, 0
6, 41399, Note_on_c, 4, 72, 0
6, 41400, Note_on_c, 4, 63, 127
6, 41400, Note_on_c, 4, 72, 127
6, 41400, Note_on_c, 4, 65, 127
6, 41759, Note_on_c, 4, 65, 0
6, 41759, Note_on_c, 4, 72, 0
6, 41759, Note_on_c, 4, 63, 0
6, 41760, Note_on_c, 4, 70, 127
6, 41760, Note_on_c, 4, 58, 127
6, 41760, Note_on_c, 4, 65, 127
6, 41879, Note_on_c, 4, 65, 0
6, 41879, Note_on_c, 4, 58, 0
6, 41879, Note_on_c, 4, 70, 0
6, 41880, Note_on_c, 4, 46, 127
6, 41880, Note_on_c, 4, 70, 127
6, 41880, Note_on_c, 4, 58, 127
6, 41999, Note_on_c, 4, 58, 0
6, 41999, Note_on_c, 4, 70, 0
6, 41999, Note_on_c, 4, 46, 0
6, 42000, Note_on_c, 4, 46, 127
6, 42000, Note_on_c, 4, 70, 127
6, 42000, Note_on_c, 4, 58, 127
6, 42119, Note_on_c, 4, 58, 0
6, 42119, Note_on_c, 4, 70, 0
6, 42119, Note_on_c, 4, 46, 0
6, 42120, Note_on_c, 4, 46, 127
6, 42120, Note_on_c, 4, 70, 127
6, 42120, Note_on_c, 4, 58, 127
6, 42179, Note_on_c, 4, 58, 0
6, 42179, Note_on_c, 4, 70, 0
6, 42179, Note_on_c, 4, 46, 0
6, 43740, Note_on_c, 4, 55, 127
6, 43740, Note_on_c, 4, 67, 127
6, 43799, Note_on_c, 4, 67, 0
6, 43799, Note_on_c, 4, 55, 0
6, 43800, Note_on_c, 4, 55, 127
6, 43800, Note_on_c, 4, 67, 127
6, 43859, Note_on_c, 4, 67, 0
6, 43859, Note_on_c, 4, 55, 0
6, 43860, Note_on_c, 4, 67, 127
6, 43860, Note_on_c, 4, 55, 127
6, 43919, Note_on_c, 4, 55, 0
6, 43919, Note_on_c, 4, 67, 0
6, 44400, Note_on_c, 4, 68, 127
6, 44400, Note_on_c, 4, 65, 127
6, 44459, Note_on_c, 4, 65, 0
6, 44459, Note_on_c, 4, 68, 0
6, 44520, Note_on_c, 4, 67, 127
6, 44520, Note_on_c, 4, 63, 127
6, 44579, Note_on_c, 4, 63, 0
6, 44579, Note_on_c, 4, 67, 0
6, 44760, Note_on_c, 4, 67, 127
6, 44760, Note_on_c, 4, 55, 127
6, 44819, Note_on_c, 4, 55, 0
6, 44819, Note_on_c, 4, 67, 0
6, 44880, Note_on_c, 4, 65, 127
6, 44939, Note_on_c, 4, 65, 0
6, 45240, Note_on_c, 4, 55, 127
6, 45240, Note_on_c, 4, 67, 127
6, 45299, Note_on_c, 4, 67, 0
6, 45299, Note_on_c, 4, 55, 0
6, 45480, Note_on_c, 4, 56, 127
6, 45480, Note_on_c, 4, 53, 127
6, 45539, Note_on_c, 4, 53, 0
6, 45539, Note_on_c, 4, 56, 0
6, 45600, Note_on_c, 4, 55, 127
6, 45600, Note_on_c, 4, 51, 127
6, 45659, Note_on_c, 4, 51, 0
6, 45659, Note_on_c, 4, 55, 0
6, 45840, Note_on_c, 4, 46, 127
6, 45840, Note_on_c, 4, 70, 127
6, 45840, Note_on_c, 4, 67, 127
6, 45899, Note_on_c, 4, 67, 0
6, 45899, Note_on_c, 4, 70, 0
6, 45899, Note_on_c, 4, 46, 0
6, 46080, Note_on_c, 4, 67, 127
6, 46080, Note_on_c, 4, 70, 127
6, 46080, Note_on_c, 4, 46, 127
6, 46139, Note_on_c, 4, 46, 0
6, 46139, Note_on_c, 4, 70, 0
6, 46139, Note_on_c, 4, 67, 0
6, 46320, Note_on_c, 4, 67, 127
6, 46320, Note_on_c, 4, 70, 127
6, 46320, Note_on_c, 4, 46, 127
6, 46379, Note_on_c, 4, 46, 0
6, 46379, Note_on_c, 4, 70, 0
6, 46379, Note_on_c, 4, 67, 0
6, 46560, Note_on_c, 4, 67, 127
6, 46560, Note_on_c, 4, 70, 127
6, 46560, Note_on_c, 4, 46, 127
6, 46619, Note_on_c, 4, 46, 0
6, 46619, Note_on_c, 4, 70, 0
6, 46619, Note_on_c, 4, 67, 0
6, 46800, Note_on_c, 4, 67, 127
6, 46800, Note_on_c, 4, 70, 127
6, 46800, Note_on_c, 4, 46, 127
6, 46859, Note_on_c, 4, 46, 0
6, 46859, Note_on_c, 4, 70, 0
6, 46859, Note_on_c, 4, 67, 0
6, 47040, Note_on_c, 4, 67, 127
6, 47040, Note_on_c, 4, 70, 127
6, 47040, Note_on_c, 4, 46, 127
6, 47099, Note_on_c, 4, 46, 0
6, 47099, Note_on_c, 4, 70, 0
6, 47099, Note_on_c, 4, 67, 0
6, 48840, Note_on_c, 4, 63, 48
6, 48840, Note_on_c, 4, 51, 48
6, 48899, Note_on_c, 4, 51, 0
6, 48899, Note_on_c, 4, 63, 0
6, 49080, Note_on_c, 4, 63, 48
6, 49080, Note_on_c, 4, 51, 48
6, 49139, Note_on_c, 4, 51, 0
6, 49139, Note_on_c, 4, 63, 0
6, 49320, Note_on_c, 4, 51, 48
6, 49320, Note_on_c, 4, 63, 48
6, 49379, Note_on_c, 4, 63, 0
6, 49379, Note_on_c, 4, 51, 0
6, 49560, Note_on_c, 4, 63, 48
6, 49560, Note_on_c, 4, 51, 48
6, 49619, Note_on_c, 4, 51, 0
6, 49619, Note_on_c, 4, 63, 0
6, 49800, Note_on_c, 4, 65, 48
6, 49800, Note_on_c, 4, 58, 48
6, 49800, Note_on_c, 4, 46, 48
6, 49859, Note_on_c, 4, 46, 0
6, 49859, Note_on_c, 4, 58, 0
6, 49859, Note_on_c, 4, 65, 0
6, 50040, Note_on_c, 4, 51, 64
6, 50040, Note_on_c, 4, 67, 64
6, 50579, Note_on_c, 4, 67, 0
6, 50579, Note_on_c, 4, 51, 0
6, 50580, Note_on_c, 4, 55, 81
6, 50580, Note_on_c, 4, 67, 81
6, 50639, Note_on_c, 4, 67, 0
6, 50639, Note_on_c, 4, 55, 0
6, 50640, Note_on_c, 4, 67, 83
6, 50640, Note_on_c, 4, 55, 83
6, 50699, Note_on_c, 4, 55, 0
6, 50699, Note_on_c, 4, 67, 0
6, 50700, Note_on_c, 4, 55, 86
6, 50700, Note_on_c, 4, 67, 86
6, 50759, Note_on_c, 4, 67, 0
6, 50759, Note_on_c, 4, 55, 0
6, 50760, Note_on_c, 4, 65, 88
6, 50939, Note_on_c, 4, 65, 0
6, 50940, Note_on_c, 4, 65, 101
6, 50999, Note_on_c, 4, 65, 0
6, 51000, Note_on_c, 4, 65, 103
6, 51059, Note_on_c, 4, 65, 0
6, 51060, Note_on_c, 4, 65, 105
6, 51119, Note_on_c, 4, 65, 0
6, 51120, Note_on_c, 4, 63, 127
6, 51120, Note_on_c, 4, 65, 127
6, 51479, Note_on_c, 4, 65, 0
6, 51479, Note_on_c, 4, 63, 0
6, 51480, Note_on_c, 4, 70, 96
6, 51480, Note_on_c, 4, 58, 96
6, 51539, Note_on_c, 4, 58, 0
6, 51539, Note_on_c, 4, 70, 0
6, 51840, Note_on_c, 4, 58, 96
6, 51840, Note_on_c, 4, 70, 96
6, 51899, Note_on_c, 4, 70, 0
6, 51899, Note_on_c, 4, 58, 0
6, 52200, Note_on_c, 4, 70, 96
6, 52200, Note_on_c, 4, 58, 96
6, 52259, Note_on_c, 4, 58, 0
6, 52259, Note_on_c, 4, 70, 0
6, 52560, Note_on_c, 4, 66, 96
6, 52560, Note_on_c, 4, 46, 96
6, 52560, Note_on_c, 4, 63, 96
6, 52619, Note_on_c, 4, 63, 0
6, 52619, Note_on_c, 4, 46, 0
6, 52619, Note_on_c, 4, 66, 0
6, 52680, Note_on_c, 4, 66, 96
6, 52680, Note_on_c, 4, 63, 96
6, 52680, Note_on_c, 4, 46, 96
6, 52739, Note_on_c, 4, 46, 0
6, 52739, Note_on_c, 4, 63, 0
6, 52739, Note_on_c, 4, 66, 0
6, 52800, Note_on_c, 4, 66, 96
6, 52800, Note_on_c, 4, 63, 96
6, 52800, Note_on_c, 4, 46, 96
6, 52859, Note_on_c, 4, 46, 0
6, 52859, Note_on_c, 4, 63, 0
6, 52859, Note_on_c, 4, 66, 0
6, 52920, Note_on_c, 4, 58, 96
6, 52920, Note_on_c, 4, 46, 96
6, 52920, Note_on_c, 4, 65, 96
6, 52949, Note_on_c, 4, 46, 0
6, 52949, Note_on_c, 4, 58, 0
6, 52950, Note_on_c, 4, 46, 48
6, 52950, Note_on_c, 4, 58, 48
6, 52979, Note_on_c, 4, 65, 0
6, 54479, Note_on_c, 4, 58, 0
6, 54479, Note_on_c, 4, 46, 0
6, 54960, Note_on_c, 4, 65, 96
6, 54960, Note_on_c, 4, 58, 96
6, 54989, Note_on_c, 4, 58, 0
6, 54989, Note_on_c, 4, 65, 0
6, 54990, Note_on_c, 4, 65, 48
6, 54990, Note_on_c, 4, 58, 48
6, 55080, Note_on_c, 4, 55, 48
6, 55080, Note_on_c, 4, 63, 48
6, 55089, Note_on_c, 4, 65, 0
6, 55199, Note_on_c, 4, 58, 0
6, 55199, Note_on_c, 4, 55, 0
6, 55199, Note_on_c, 4, 63, 0
6, 58680, Note_on_c, 4, 67, 48
6, 58680, Note_on_c, 4, 63, 48
6, 59040, Note_on_c, 4, 65, 48
6, 59040, Note_on_c, 4, 68, 48
6, 59049, Note_on_c, 4, 63, 0
6, 59049, Note_on_c, 4, 67, 0
6, 59160, Note_on_c, 4, 63, 56
6, 59160, Note_on_c, 4, 67, 56
6, 59169, Note_on_c, 4, 65, 0
6, 59169, Note_on_c, 4, 68, 0
6, 59280, Note_on_c, 4, 65, 48
6, 59280, Note_on_c, 4, 58, 48
6, 59289, Note_on_c, 4, 63, 0
6, 59289, Note_on_c, 4, 67, 0
6, 59400, Note_on_c, 4, 55, 48
6, 59400, Note_on_c, 4, 63, 48
6, 59409, Note_on_c, 4, 65, 0
6, 59409, Note_on_c, 4, 58, 0
6, 59519, Note_on_c, 4, 55, 0
6, 59640, Note_on_c, 4, 67, 48
6, 59649, Note_on_c, 4, 63, 0
6, 59760, Note_on_c, 4, 63, 48
6, 59769, Note_on_c, 4, 67, 0
6, 60000, Note_on_c, 4, 58, 48
6, 60009, Note_on_c, 4, 63, 0
6, 60120, Note_on_c, 4, 63, 48
6, 60129, Note_on_c, 4, 58, 0
6, 60240, Note_on_c, 4, 67, 48
6, 60249, Note_on_c, 4, 63, 0
6, 60360, Note_on_c, 4, 70, 48
6, 60369, Note_on_c, 4, 67, 0
6, 60480, Note_on_c, 4, 63, 48
6, 60489, Note_on_c, 4, 70, 0
6, 60609, Note_on_c, 4, 63, 0
6, 62040, Note_on_c, 4, 51, 48
6, 62040, Note_on_c, 4, 63, 48
6, 62159, Note_on_c, 4, 63, 0
6, 62159, Note_on_c, 4, 51, 0
6, 62160, Note_on_c, 4, 63, 64
6, 62160, Note_on_c, 4, 51, 64
6, 62160, Note_on_c, 4, 65, 64
6, 62279, Note_on_c, 4, 65, 0
6, 62279, Note_on_c, 4, 51, 0
6, 62279, Note_on_c, 4, 63, 0
6, 62280, Note_on_c, 4, 46, 96
6, 62280, Note_on_c, 4, 58, 96
6, 62280, Note_on_c, 4, 65, 96
6, 62309, Note_on_c, 4, 65, 0
6, 62309, Note_on_c, 4, 58, 0
6, 62309, Note_on_c, 4, 46, 0
6, 62310, Note_on_c, 4, 58, 48
6, 62310, Note_on_c, 4, 46, 48
6, 62310, Note_on_c, 4, 65, 48
6, 62399, Note_on_c, 4, 65, 0
6, 62879, Note_on_c, 4, 46, 0
6, 62879, Note_on_c, 4, 58, 0
6, 62880, Note_on_c, 4, 58, 48
6, 62880, Note_on_c, 4, 65, 48
6, 62999, Note_on_c, 4, 65, 0
6, 62999, Note_on_c, 4, 58, 0
6, 63000, Note_on_c, 4, 51, 48
6, 63000, Note_on_c, 4, 63, 48
6, 63000, Note_on_c, 4, 67, 48
6, 63059, Note_on_c, 4, 67, 0
6, 63059, Note_on_c, 4, 63, 0
6, 63059, Note_on_c, 4, 51, 0
6, 63120, Note_on_c, 4, 63, 96
6, 63120, Note_on_c, 4, 51, 96
6, 63120, Note_on_c, 4, 66, 96
6, 63359, Note_on_c, 4, 66, 0
6, 63359, Note_on_c, 4, 51, 0
6, 63359, Note_on_c, 4, 63, 0
6, 63360, Note_on_c, 4, 51, 96
6, 63360, Note_on_c, 4, 63, 96
6, 63360, Note_on_c, 4, 66, 96
6, 63599, Note_on_c, 4, 66, 0
6, 63599, Note_on_c, 4, 63, 0
6, 63599, Note_on_c, 4, 51, 0
6, 63600, Note_on_c, 4, 63, 96
6, 63600, Note_on_c, 4, 51, 96
6, 63600, Note_on_c, 4, 66, 96
6, 63719, Note_on_c, 4, 66, 0
6, 63719, Note_on_c, 4, 51, 0
6, 63719, Note_on_c, 4, 63, 0
6, 63720, Note_on_c, 4, 46, 96
6, 63720, Note_on_c, 4, 58, 96
6, 63720, Note_on_c, 4, 65, 90
6, 63749, Note_on_c, 4, 58, 0
6, 63749, Note_on_c, 4, 46, 0
6, 63750, Note_on_c, 4, 58, 48
6, 63750, Note_on_c, 4, 46, 48
6, 63779, Note_on_c, 4, 65, 0
6, 64319, Note_on_c, 4, 46, 0
6, 64319, Note_on_c, 4, 58, 0
6, 64320, Note_on_c, 4, 65, 96
6, 64320, Note_on_c, 4, 46, 96
6, 64320, Note_on_c, 4, 58, 96
6, 64559, Note_on_c, 4, 58, 0
6, 64559, Note_on_c, 4, 46, 0
6, 64559, Note_on_c, 4, 65, 0
6, 64560, Note_on_c, 4, 65, 96
6, 64560, Note_on_c, 4, 46, 96
6, 64560, Note_on_c, 4, 58, 96
6, 64799, Note_on_c, 4, 58, 0
6, 64799, Note_on_c, 4, 46, 0
6, 64799, Note_on_c, 4, 65, 0
6, 64800, Note_on_c, 4, 65, 96
6, 64800, Note_on_c, 4, 46, 96
6, 64800, Note_on_c, 4, 58, 96
6, 65039, Note_on_c, 4, 58, 0
6, 65039, Note_on_c, 4, 46, 0
6, 65039, Note_on_c, 4, 65, 0
6, 65040, Note_on_c, 4, 65, 96
6, 65040, Note_on_c, 4, 46, 96
6, 65040, Note_on_c, 4, 58, 96
6, 65279, Note_on_c, 4, 58, 0
6, 65279, Note_on_c, 4, 46, 0
6, 65279, Note_on_c, 4, 65, 0
6, 65280, Note_on_c, 4, 67, 96
6, 65280, Note_on_c, 4, 46, 96
6, 65280, Note_on_c, 4, 63, 96
6, 65519, Note_on_c, 4, 63, 0
6, 65519, Note_on_c, 4, 46, 0
6, 65519, Note_on_c, 4, 67, 0
6, 65520, Note_on_c, 4, 67, 96
6, 65520, Note_on_c, 4, 46, 96
6, 65520, Note_on_c, 4, 63, 96
6, 65759, Note_on_c, 4, 63, 0
6, 65759, Note_on_c, 4, 46, 0
6, 65759, Note_on_c, 4, 67, 0
6, 65760, Note_on_c, 4, 67, 96
6, 65760, Note_on_c, 4, 46, 96
6, 65760, Note_on_c, 4, 63, 96
6, 65999, Note_on_c, 4, 63, 0
6, 65999, Note_on_c, 4, 46, 0
6, 65999, Note_on_c, 4, 67, 0
6, 66000, Note_on_c, 4, 65, 90
6, 66000, Note_on_c, 4, 46, 90
6, 66000, Note_on_c, 4, 58, 90
6, 66059, Note_on_c, 4, 58, 0
6, 66059, Note_on_c, 4, 46, 0
6, 66059, Note_on_c, 4, 65, 0
6, 66120, Note_on_c, 4, 65, 96
6, 66120, Note_on_c, 4, 46, 96
6, 66120, Note_on_c, 4, 58, 96
6, 66359, Note_on_c, 4, 58, 0
6, 66359, Note_on_c, 4, 46, 0
6, 66359, Note_on_c, 4, 65, 0
6, 66360, Note_on_c, 4, 67, 90
6, 66360, Note_on_c, 4, 46, 90
6, 66360, Note_on_c, 4, 63, 90
6, 66419, Note_on_c, 4, 63, 0
6, 66419, Note_on_c, 4, 46, 0
6, 66419, Note_on_c, 4, 67, 0
6, 66480, Note_on_c, 4, 67, 96
6, 66480, Note_on_c, 4, 46, 96
6, 66480, Note_on_c, 4, 63, 96
6, 66599, Note_on_c, 4, 63, 0
6, 66599, Note_on_c, 4, 46, 0
6, 66599, Note_on_c, 4, 67, 0
6, 66600, Note_on_c, 4, 68, 110
6, 66600, Note_on_c, 4, 46, 110
6, 66600, Note_on_c, 4, 58, 110
6, 67079, Note_on_c, 4, 58, 0
6, 67079, Note_on_c, 4, 46, 0
6, 67079, Note_on_c, 4, 68, 0
6, 67080, Note_on_c, 4, 68, 120
6, 67080, Note_on_c, 4, 58, 120
6, 67080, Note_on_c, 4, 65, 120
6, 67199, Note_on_c, 4, 65, 0
6, 67199, Note_on_c, 4, 58, 0
6, 67199, Note_on_c, 4, 68, 0
6, 67200, Note_on_c, 4, 68, 125
6, 67200, Note_on_c, 4, 58, 125
6, 67200, Note_on_c, 4, 65, 125
6, 67319, Note_on_c, 4, 65, 0
6, 67319, Note_on_c, 4, 58, 0
6, 67319, Note_on_c, 4, 68, 0
6, 67320, Note_on_c, 4, 67, 127
6, 67320, Note_on_c, 4, 58, 127
6, 67320, Note_on_c, 4, 63, 127
6, 67439, Note_on_c, 4, 63, 0
6, 67439, Note_on_c, 4, 58, 0
6, 67439, Note_on_c, 4, 67, 0
6, 67440, Note_on_c, 4, 51, 127
6, 67440, Note_on_c, 4, 63, 127
6, 67559, Note_on_c, 4, 63, 0
6, 67559, Note_on_c, 4, 51, 0
6, 67560, Note_on_c, 4, 55, 127
6, 67560, Note_on_c, 4, 67, 127
6, 67679, Note_on_c, 4, 67, 0
6, 67679, Note_on_c, 4, 55, 0
6, 67680, Note_on_c, 4, 51, 127
6, 67680, Note_on_c, 4, 63, 127
6, 67919, Note_on_c, 4, 63, 0
6, 67919, Note_on_c, 4, 51, 0
6, 67920, Note_on_c, 4, 46, 127
6, 67920, Note_on_c, 4, 58, 127
6, 68039, Note_on_c, 4, 58, 0
6, 68039, Note_on_c, 4, 46, 0
6, 68040, Note_on_c, 4, 51, 127
6, 68040, Note_on_c, 4, 63, 127
6, 68159, Note_on_c, 4, 63, 0
6, 68159, Note_on_c, 4, 51, 0
6, 68160, Note_on_c, 4, 55, 127
6, 68160, Note_on_c, 4, 67, 127
6, 68279, Note_on_c, 4, 67, 0
6, 68279, Note_on_c, 4, 55, 0
6, 68280, Note_on_c, 4, 70, 127
6, 68280, Note_on_c, 4, 58, 127
6, 68280, Note_on_c, 4, 67, 127
6, 68399, Note_on_c, 4, 67, 0
6, 68399, Note_on_c, 4, 58, 0
6, 68399, Note_on_c, 4, 70, 0
6, 68400, Note_on_c, 4, 51, 127
6, 68400, Note_on_c, 4, 63, 127
6, 68400, Note_on_c, 4, 67, 127
6, 68639, Note_on_c, 4, 67, 0
6, 68639, Note_on_c, 4, 63, 0
6, 68639, Note_on_c, 4, 51, 0
6, 68640, Note_on_c, 4, 55, 127
6, 68640, Note_on_c, 4, 67, 127
6, 68640, Note_on_c, 4, 63, 127
6, 68759, Note_on_c, 4, 63, 0
6, 68759, Note_on_c, 4, 67, 0
6, 68759, Note_on_c, 4, 55, 0
6, 68760, Note_on_c, 4, 55, 127
6, 68760, Note_on_c, 4, 67, 127
6, 68760, Note_on_c, 4, 63, 127
6, 68879, Note_on_c, 4, 63, 0
6, 68879, Note_on_c, 4, 67, 0
6, 68879, Note_on_c, 4, 55, 0
6, 68880, Note_on_c, 4, 55, 127
6, 68880, Note_on_c, 4, 67, 127
6, 68880, Note_on_c, 4, 63, 127
6, 68999, Note_on_c, 4, 63, 0
6, 68999, Note_on_c, 4, 67, 0
6, 68999, Note_on_c, 4, 55, 0
6, 69000, Note_on_c, 4, 55, 127
6, 69000, Note_on_c, 4, 67, 127
6, 69000, Note_on_c, 4, 63, 127
6, 69119, Note_on_c, 4, 63, 0
6, 69119, Note_on_c, 4, 67, 0
6, 69119, Note_on_c, 4, 55, 0
6, 69120, Note_on_c, 4, 55, 127
6, 69120, Note_on_c, 4, 67, 127
6, 69120, Note_on_c, 4, 63, 127
6, 69359, Note_on_c, 4, 63, 0
6, 69359, Note_on_c, 4, 67, 0
6, 69359, Note_on_c, 4, 55, 0
6, 69360, Note_on_c, 4, 51, 127
6, 69360, Note_on_c, 4, 63, 127
6, 69360, Note_on_c, 4, 61, 127
6, 69479, Note_on_c, 4, 61, 0
6, 69479, Note_on_c, 4, 63, 0
6, 69479, Note_on_c, 4, 51, 0
6, 69480, Note_on_c, 4, 51, 127
6, 69480, Note_on_c, 4, 63, 127
6, 69480, Note_on_c, 4, 60, 127
6, 69599, Note_on_c, 4, 60, 0
6, 69599, Note_on_c, 4, 63, 0
6, 69600, Note_on_c, 4, 63, 127
6, 69719, Note_on_c, 4, 63, 0
6, 69720, Note_on_c, 4, 63, 127
6, 69839, Note_on_c, 4, 63, 0
6, 69839, Note_on_c, 4, 51, 0
6, 69840, Note_on_c, 4, 46, 127
6, 69840, Note_on_c, 4, 58, 127
6, 70199, Note_on_c, 4, 58, 0
6, 70199, Note_on_c, 4, 46, 0
6, 70200, Note_on_c, 4, 65, 127
6, 70319, Note_on_c, 4, 65, 0
6, 70920, Note_on_c, 4, 65, 48
6, 71399, Note_on_c, 4, 65, 0
6, 71400, Note_on_c, 4, 65, 48
6, 71519, Note_on_c, 4, 65, 0
6, 71520, Note_on_c, 4, 65, 48
6, 71639, Note_on_c, 4, 65, 0
6, 71640, Note_on_c, 4, 65, 48
6, 71759, Note_on_c, 4, 65, 0
6, 72360, Note_on_c, 4, 65, 48
6, 72839, Note_on_c, 4, 65, 0
6, 72840, Note_on_c, 4, 65, 48
6, 72959, Note_on_c, 4, 65, 0
6, 72960, Note_on_c, 4, 65, 48
6, 73079, Note_on_c, 4, 65, 0
6, 73080, Note_on_c, 4, 65, 48
6, 73199, Note_on_c, 4, 65, 0
6, 73920, Note_on_c, 4, 65, 127
6, 74099, Note_on_c, 4, 65, 0
6, 74100, Note_on_c, 4, 65, 127
6, 74159, Note_on_c, 4, 65, 0
6, 74160, Note_on_c, 4, 65, 127
6, 74249, Note_on_c, 4, 65, 0
6, 74280, Note_on_c, 4, 65, 127
6, 74369, Note_on_c, 4, 65, 0
6, 74400, Note_on_c, 4, 65, 127
6, 74489, Note_on_c, 4, 65, 0
6, 74520, Note_on_c, 4, 46, 48
6, 74520, Note_on_c, 4, 58, 48
6, 75479, Note_on_c, 4, 58, 0
6, 75479, Note_on_c, 4, 46, 0
6, 75480, Note_on_c, 4, 65, 48
6, 75569, Note_on_c, 4, 65, 0
6, 75600, Note_on_c, 4, 65, 48
6, 75689, Note_on_c, 4, 65, 0
6, 75720, Note_on_c, 4, 65, 48
6, 75809, Note_on_c, 4, 65, 0
6, 75840, Note_on_c, 4, 65, 48
6, 75929, Note_on_c, 4, 65, 0
6, 75960, Note_on_c, 4, 46, 64
6, 75960, Note_on_c, 4, 58, 64
6, 76799, Note_on_c, 4, 58, 0
6, 76799, Note_on_c, 4, 46, 0
6, 77220, Note_on_c, 4, 63, 90
6, 77220, Note_on_c, 4, 51, 90
6, 77279, Note_on_c, 4, 51, 0
6, 77279, Note_on_c, 4, 63, 0
6, 77280, Note_on_c, 4, 63, 92
6, 77280, Note_on_c, 4, 51, 92
6, 77339, Note_on_c, 4, 51, 0
6, 77339, Note_on_c, 4, 63, 0
6, 77340, Note_on_c, 4, 63, 94
6, 77340, Note_on_c, 4, 51, 94
6, 77399, Note_on_c, 4, 51, 0
6, 77399, Note_on_c, 4, 63, 0
6, 77400, Note_on_c, 4, 63, 96
6, 77400, Note_on_c, 4, 51, 96
6, 77459, Note_on_c, 4, 51, 0
6, 77459, Note_on_c, 4, 63, 0
6, 77520, Note_on_c, 4, 63, 96
6, 77520, Note_on_c, 4, 51, 96
6, 77579, Note_on_c, 4, 51, 0
6, 77579, Note_on_c, 4, 63, 0
6, 78060, Note_on_c, 4, 51, 96
6, 78060, Note_on_c, 4, 63, 96
6, 78089, Note_on_c, 4, 63, 0
6, 78089, Note_on_c, 4, 51, 0
6, 78120, Note_on_c, 4, 67, 96
6, 78120, Note_on_c, 4, 46, 96
6, 78120, Note_on_c, 4, 58, 96
6, 78179, Note_on_c, 4, 58, 0
6, 78179, Note_on_c, 4, 46, 0
6, 78179, Note_on_c, 4, 67, 0
6, 78240, Note_on_c, 4, 67, 96
6, 78240, Note_on_c, 4, 58, 96
6, 78240, Note_on_c, 4, 46, 96
6, 78299, Note_on_c, 4, 46, 0
6, 78299, Note_on_c, 4, 58, 0
6, 78299, Note_on_c, 4, 67, 0
6, 78780, Note_on_c, 4, 55, 96
6, 78780, Note_on_c, 4, 67, 96
6, 78809, Note_on_c, 4, 67, 0
6, 78809, Note_on_c, 4, 55, 0
6, 78840, Note_on_c, 4, 65, 96
6, 78840, Note_on_c, 4, 68, 96
6, 78899, Note_on_c, 4, 68, 0
6, 78899, Note_on_c, 4, 65, 0
6, 78960, Note_on_c, 4, 68, 96
6, 78960, Note_on_c, 4, 65, 96
6, 79019, Note_on_c, 4, 65, 0
6, 79019, Note_on_c, 4, 68, 0
6, 79380, Note_on_c, 4, 65, 96
6, 79380, Note_on_c, 4, 68, 96
6, 79409, Note_on_c, 4, 68, 0
6, 79409, Note_on_c, 4, 65, 0
6, 79440, Note_on_c, 4, 65, 96
6, 79440, Note_on_c, 4, 68, 96
6, 79469, Note_on_c, 4, 68, 0
6, 79469, Note_on_c, 4, 65, 0
6, 79500, Note_on_c, 4, 65, 96
6, 79500, Note_on_c, 4, 68, 96
6, 79529, Note_on_c, 4, 68, 0
6, 79529, Note_on_c, 4, 65, 0
6, 79560, Note_on_c, 4, 67, 96
6, 79560, Note_on_c, 4, 63, 96
6, 79679, Note_on_c, 4, 63, 0
6, 79679, Note_on_c, 4, 67, 0
6, 80040, Note_on_c, 4, 67, 96
6, 80159, Note_on_c, 4, 67, 0
6, 80160, Note_on_c, 4, 65, 96
6, 80279, Note_on_c, 4, 65, 0
6, 80280, Note_on_c, 4, 65, 96
6, 80399, Note_on_c, 4, 65, 0
6, 80400, Note_on_c, 4, 46, 96
6, 80400, Note_on_c, 4, 70, 96
6, 80400, Note_on_c, 4, 58, 96
6, 80519, Note_on_c, 4, 58, 0
6, 80519, Note_on_c, 4, 70, 0
6, 80519, Note_on_c, 4, 46, 0
6, 80520, Note_on_c, 4, 46, 96
6, 80520, Note_on_c, 4, 70, 96
6, 80520, Note_on_c, 4, 58, 96
6, 80639, Note_on_c, 4, 58, 0
6, 80639, Note_on_c, 4, 70, 0
6, 80639, Note_on_c, 4, 46, 0
6, 80640, Note_on_c, 4, 46, 96
6, 80640, Note_on_c, 4, 70, 96
6, 80640, Note_on_c, 4, 58, 96
6, 80759, Note_on_c, 4, 58, 0
6, 80759, Note_on_c, 4, 70, 0
6, 80759, Note_on_c, 4, 46, 0
6, 80760, Note_on_c, 4, 46, 96
6, 80760, Note_on_c, 4, 70, 96
6, 80760, Note_on_c, 4, 58, 96
6, 80879, Note_on_c, 4, 58, 0
6, 80879, Note_on_c, 4, 70, 0
6, 80879, Note_on_c, 4, 46, 0
6, 80880, Note_on_c, 4, 46, 96
6, 80880, Note_on_c, 4, 70, 96
6, 80880, Note_on_c, 4, 58, 96
6, 80999, Note_on_c, 4, 58, 0
6, 80999, Note_on_c, 4, 70, 0
6, 80999, Note_on_c, 4, 46, 0
6, 81000, Note_on_c, 4, 70, 96
6, 81000, Note_on_c, 4, 58, 96
6, 81000, Note_on_c, 4, 46, 96
6, 81119, Note_on_c, 4, 46, 0
6, 81119, Note_on_c, 4, 58, 0
6, 81119, Note_on_c, 4, 70, 0
6, 81120, Note_on_c, 4, 55, 96
6, 81120, Note_on_c, 4, 67, 96
6, 81239, Note_on_c, 4, 67, 0
6, 81239, Note_on_c, 4, 55, 0
6, 81240, Note_on_c, 4, 65, 96
6, 81240, Note_on_c, 4, 67, 96
6, 81240, Note_on_c, 4, 55, 96
6, 81359, Note_on_c, 4, 55, 0
6, 81359, Note_on_c, 4, 67, 0
6, 81359, Note_on_c, 4, 65, 0
6, 81360, Note_on_c, 4, 55, 96
6, 81360, Note_on_c, 4, 67, 96
6, 81360, Note_on_c, 4, 63, 96
6, 81719, Note_on_c, 4, 63, 0
6, 81719, Note_on_c, 4, 67, 0
6, 81719, Note_on_c, 4, 55, 0
6, 81720, Note_on_c, 4, 65, 96
6, 81839, Note_on_c, 4, 65, 0
6, 82440, Note_on_c, 4, 65, 96
6, 83279, Note_on_c, 4, 65, 0
6, 83280, Note_on_c, 4, 65, 127
6, 83399, Note_on_c, 4, 65, 0
6, 83400, Note_on_c, 4, 65, 127
6, 83519, Note_on_c, 4, 65, 0
6, 83520, Note_on_c, 4, 65, 127
6, 83639, Note_on_c, 4, 65, 0
6, 83640, Note_on_c, 4, 65, 127
6, 83759, Note_on_c, 4, 65, 0
6, 83760, Note_on_c, 4, 65, 127
6, 83879, Note_on_c, 4, 65, 0
6, 83880, Note_on_c, 4, 46, 127
6, 83880, Note_on_c, 4, 70, 127
6, 83880, Note_on_c, 4, 58, 127
6, 83999, Note_on_c, 4, 58, 0
6, 83999, Note_on_c, 4, 70, 0
6, 83999, Note_on_c, 4, 46, 0
6, 87240, Note_on_c, 4, 63, 48
6, 87329, Note_on_c, 4, 63, 0
6, 87360, Note_on_c, 4, 63, 48
6, 87449, Note_on_c, 4, 63, 0
6, 87480, Note_on_c, 4, 63, 60
6, 87569, Note_on_c, 4, 63, 0
6, 87600, Note_on_c, 4, 66, 72
6, 87600, Note_on_c, 4, 63, 72
6, 87689, Note_on_c, 4, 63, 0
6, 87689, Note_on_c, 4, 66, 0
6, 87720, Note_on_c, 4, 66, 84
6, 87720, Note_on_c, 4, 63, 84
6, 87809, Note_on_c, 4, 63, 0
6, 87809, Note_on_c, 4, 66, 0
6, 87840, Note_on_c, 4, 66, 96
6, 87840, Note_on_c, 4, 63, 96
6, 88199, Note_on_c, 4, 63, 0
6, 88199, Note_on_c, 4, 66, 0
6, 92760, Note_on_c, 4, 65, 75
6, 92819, Note_on_c, 4, 65, 0
6, 92820, Note_on_c, 4, 65, 78
6, 92879, Note_on_c, 4, 65, 0
6, 92880, Note_on_c, 4, 65, 80
6, 92939, Note_on_c, 4, 65, 0
6, 92940, Note_on_c, 4, 65, 83
6, 92999, Note_on_c, 4, 65, 0
6, 93000, Note_on_c, 4, 65, 86
6, 93059, Note_on_c, 4, 65, 0
6, 93060, Note_on_c, 4, 65, 89
6, 93119, Note_on_c, 4, 65, 0
6, 93120, Note_on_c, 4, 65, 92
6, 93179, Note_on_c, 4, 65, 0
6, 93180, Note_on_c, 4, 65, 94
6, 93239, Note_on_c, 4, 65, 0
6, 93240, Note_on_c, 4, 65, 96
6, 93359, Note_on_c, 4, 65, 0
6, 93360, Note_on_c, 4, 58, 112
6, 93360, Note_on_c, 4, 70, 112
6, 93360, Note_on_c, 4, 65, 112
6, 93599, Note_on_c, 4, 65, 0
6, 93599, Note_on_c, 4, 70, 0
6, 93599, Note_on_c, 4, 58, 0
6, 93720, Note_on_c, 4, 70, 112
6, 93720, Note_on_c, 4, 58, 112
6, 93720, Note_on_c, 4, 65, 112
6, 93959, Note_on_c, 4, 65, 0
6, 93959, Note_on_c, 4, 58, 0
6, 93959, Note_on_c, 4, 70, 0
6, 94080, Note_on_c, 4, 63, 112
6, 94080, Note_on_c, 4, 72, 112
6, 94080, Note_on_c, 4, 65, 112
6, 94319, Note_on_c, 4, 65, 0
6, 94319, Note_on_c, 4, 72, 0
6, 94319, Note_on_c, 4, 63, 0
6, 94440, Note_on_c, 4, 72, 112
6, 94440, Note_on_c, 4, 63, 112
6, 94440, Note_on_c, 4, 65, 112
6, 94679, Note_on_c, 4, 65, 0
6, 94679, Note_on_c, 4, 63, 0
6, 94679, Note_on_c, 4, 72, 0
6, 94680, Note_on_c, 4, 58, 127
6, 94680, Note_on_c, 4, 70, 127
6, 94680, Note_on_c, 4, 65, 127
6, 94799, Note_on_c, 4, 65, 0
6, 94799, Note_on_c, 4, 70, 0
6, 94799, Note_on_c, 4, 58, 0
6, 94800, Note_on_c, 4, 70, 127
6, 94800, Note_on_c, 4, 58, 127
6, 94800, Note_on_c, 4, 65, 127
6, 94919, Note_on_c, 4, 65, 0
6, 94919, Note_on_c, 4, 58, 0
6, 94919, Note_on_c, 4, 70, 0
6, 94920, Note_on_c, 4, 58, 127
6, 94920, Note_on_c, 4, 70, 127
6, 94920, Note_on_c, 4, 65, 127
6, 95039, Note_on_c, 4, 65, 0
6, 95039, Note_on_c, 4, 70, 0
6, 95039, Note_on_c, 4, 58, 0
6, 95040, Note_on_c, 4, 70, 127
6, 95040, Note_on_c, 4, 58, 127
6, 95040, Note_on_c, 4, 65, 127
6, 95159, Note_on_c, 4, 65, 0
6, 95159, Note_on_c, 4, 58, 0
6, 95159, Note_on_c, 4, 70, 0
6, 95160, Note_on_c, 4, 58, 127
6, 95160, Note_on_c, 4, 70, 127
6, 95160, Note_on_c, 4, 65, 127
6, 95279, Note_on_c, 4, 65, 0
6, 95279, Note_on_c, 4, 70, 0
6, 95279, Note_on_c, 4, 58, 0
6, 95280, Note_on_c, 4, 70, 127
6, 95280, Note_on_c, 4, 58, 127
6, 95280, Note_on_c, 4, 65, 127
6, 95399, Note_on_c, 4, 65, 0
6, 95399, Note_on_c, 4, 58, 0
6, 95399, Note_on_c, 4, 70, 0
6, 95400, Note_on_c, 4, 72, 127
6, 95400, Note_on_c, 4, 63, 127
6, 95400, Note_on_c, 4, 65, 127
6, 95759, Note_on_c, 4, 65, 0
6, 95759, Note_on_c, 4, 63, 0
6, 95759, Note_on_c, 4, 72, 0
6, 95760, Note_on_c, 4, 63, 127
6, 95760, Note_on_c, 4, 72, 127
6, 95760, Note_on_c, 4, 65, 127
6, 96119, Note_on_c, 4, 65, 0
6, 96119, Note_on_c, 4, 72, 0
6, 96119, Note_on_c, 4, 63, 0
6, 96120, Note_on_c, 4, 70, 127
6, 96120, Note_on_c, 4, 58, 127
6, 96120, Note_on_c, 4, 65, 127
6, 96239, Note_on_c, 4, 65, 0
6, 96239, Note_on_c, 4, 58, 0
6, 96239, Note_on_c, 4, 70, 0
6, 96240, Note_on_c, 4, 46, 127
6, 96240, Note_on_c, 4, 70, 127
6, 96240, Note_on_c, 4, 58, 127
6, 96359, Note_on_c, 4, 58, 0
6, 96359, Note_on_c, 4, 70, 0
6, 96359, Note_on_c, 4, 46, 0
6, 96360, Note_on_c, 4, 46, 127
6, 96360, Note_on_c, 4, 70, 127
6, 96360, Note_on_c, 4, 58, 127
6, 96479, Note_on_c, 4, 58, 0
6, 96479, Note_on_c, 4, 70, 0
6, 96479, Note_on_c, 4, 46, 0
6, 96480, Note_on_c, 4, 46, 127
6, 96480, Note_on_c, 4, 70, 127
6, 96480, Note_on_c, 4, 58, 127
6, 96539, Note_on_c, 4, 58, 0
6, 96539, Note_on_c, 4, 70, 0
6, 96539, Note_on_c, 4, 46, 0
6, 98100, Note_on_c, 4, 55, 127
6, 98100, Note_on_c, 4, 67, 127
6, 98159, Note_on_c, 4, 67, 0
6, 98159, Note_on_c, 4, 55, 0
6, 98160, Note_on_c, 4, 55, 127
6, 98160, Note_on_c, 4, 67, 127
6, 98219, Note_on_c, 4, 67, 0
6, 98219, Note_on_c, 4, 55, 0
6, 98220, Note_on_c, 4, 67, 127
6, 98220, Note_on_c, 4, 55, 127
6, 98279, Note_on_c, 4, 55, 0
6, 98279, Note_on_c, 4, 67, 0
6, 98760, Note_on_c, 4, 68, 127
6, 98760, Note_on_c, 4, 65, 127
6, 98819, Note_on_c, 4, 65, 0
6, 98819, Note_on_c, 4, 68, 0
6, 98880, Note_on_c, 4, 67, 127
6, 98880, Note_on_c, 4, 63, 127
6, 98939, Note_on_c, 4, 63, 0
6, 98939, Note_on_c, 4, 67, 0
6, 99120, Note_on_c, 4, 67, 127
6, 99120, Note_on_c, 4, 55, 127
6, 99179, Note_on_c, 4, 55, 0
6, 99179, Note_on_c, 4, 67, 0
6, 99240, Note_on_c, 4, 65, 127
6, 99299, Note_on_c, 4, 65, 0
6, 99600, Note_on_c, 4, 55, 127
6, 99600, Note_on_c, 4, 67, 127
6, 99659, Note_on_c, 4, 67, 0
6, 99659, Note_on_c, 4, 55, 0
6, 99840, Note_on_c, 4, 56, 127
6, 99840, Note_on_c, 4, 53, 127
6, 99899, Note_on_c, 4, 53, 0
6, 99899, Note_on_c, 4, 56, 0
6, 99960, Note_on_c, 4, 55, 127
6, 99960, Note_on_c, 4, 51, 127
6, 100019, Note_on_c, 4, 51, 0
6, 100019, Note_on_c, 4, 55, 0
6, 100200, Note_on_c, 4, 46, 127
6, 100200, Note_on_c, 4, 70, 127
6, 100200, Note_on_c, 4, 67, 127
6, 100259, Note_on_c, 4, 67, 0
6, 100259, Note_on_c, 4, 70, 0
6, 100259, Note_on_c, 4, 46, 0
6, 100440, Note_on_c, 4, 67, 127
6, 100440, Note_on_c, 4, 70, 127
6, 100440, Note_on_c, 4, 46, 127
6, 100499, Note_on_c, 4, 46, 0
6, 100499, Note_on_c, 4, 70, 0
6, 100499, Note_on_c, 4, 67, 0
6, 100680, Note_on_c, 4, 67, 127
6, 100680, Note_on_c, 4, 70, 127
6, 100680, Note_on_c, 4, 46, 127
6, 100739, Note_on_c, 4, 46, 0
6, 100739, Note_on_c, 4, 70, 0
6, 100739, Note_on_c, 4, 67, 0
6, 100920, Note_on_c, 4, 67, 127
6, 100920, Note_on_c, 4, 70, 127
6, 100920, Note_on_c, 4, 46, 127
6, 100979, Note_on_c, 4, 46, 0
6, 100979, Note_on_c, 4, 70, 0
6, 100979, Note_on_c, 4, 67, 0
6, 101160, Note_on_c, 4, 67, 127
6, 101160, Note_on_c, 4, 70, 127
6, 101160, Note_on_c, 4, 46, 127
6, 101219, Note_on_c, 4, 46, 0
6, 101219, Note_on_c, 4, 70, 0
6, 101219, Note_on_c, 4, 67, 0
6, 101400, Note_on_c, 4, 67, 127
6, 101400, Note_on_c, 4, 70, 127
6, 101400, Note_on_c, 4, 46, 127
6, 101459, Note_on_c, 4, 46, 0
6, 101459, Note_on_c, 4, 70, 0
6, 101459, Note_on_c, 4, 67, 0
6, 103200, Note_on_c, 4, 63, 48
6, 103200, Note_on_c, 4, 51, 48
6, 103259, Note_on_c, 4, 51, 0
6, 103259, Note_on_c, 4, 63, 0
6, 103440, Note_on_c, 4, 63, 48
6, 103440, Note_on_c, 4, 51, 48
6, 103499, Note_on_c, 4, 51, 0
6, 103499, Note_on_c, 4, 63, 0
6, 103680, Note_on_c, 4, 51, 48
6, 103680, Note_on_c, 4, 63, 48
6, 103739, Note_on_c, 4, 63, 0
6, 103739, Note_on_c, 4, 51, 0
6, 103920, Note_on_c, 4, 63, 48
6, 103920, Note_on_c, 4, 51, 48
6, 103979, Note_on_c, 4, 51, 0
6, 103979, Note_on_c, 4, 63, 0
6, 104160, Note_on_c, 4, 65, 48
6, 104160, Note_on_c, 4, 58, 48
6, 104160, Note_on_c, 4, 46, 48
6, 104219, Note_on_c, 4, 46, 0
6, 104219, Note_on_c, 4, 58, 0
6, 104219, Note_on_c, 4, 65, 0
6, 104400, Note_on_c, 4, 51, 64
6, 104400, Note_on_c, 4, 67, 64
6, 104939, Note_on_c, 4, 67, 0
6, 104939, Note_on_c, 4, 51, 0
6, 104940, Note_on_c, 4, 55, 81
6, 104940, Note_on_c, 4, 67, 81
6, 104999, Note_on_c, 4, 67, 0
6, 104999, Note_on_c, 4, 55, 0
6, 105000, Note_on_c, 4, 67, 83
6, 105000, Note_on_c, 4, 55, 83
6, 105059, Note_on_c, 4, 55, 0
6, 105059, Note_on_c, 4, 67, 0
6, 105060, Note_on_c, 4, 55, 86
6, 105060, Note_on_c, 4, 67, 86
6, 105119, Note_on_c, 4, 67, 0
6, 105119, Note_on_c, 4, 55, 0
6, 105120, Note_on_c, 4, 65, 88
6, 105299, Note_on_c, 4, 65, 0
6, 105300, Note_on_c, 4, 65, 101
6, 105359, Note_on_c, 4, 65, 0
6, 105360, Note_on_c, 4, 65, 103
6, 105419, Note_on_c, 4, 65, 0
6, 105420, Note_on_c, 4, 65, 105
6, 105479, Note_on_c, 4, 65, 0
6, 105480, Note_on_c, 4, 63, 127
6, 105480, Note_on_c, 4, 65, 127
6, 105839, Note_on_c, 4, 65, 0
6, 105839, Note_on_c, 4, 63, 0
6, 105840, Note_on_c, 4, 70, 96
6, 105840, Note_on_c, 4, 58, 96
6, 105899, Note_on_c, 4, 58, 0
6, 105899, Note_on_c, 4, 70, 0
6, 106200, Note_on_c, 4, 58, 96
6, 106200, Note_on_c, 4, 70, 96
6, 106259, Note_on_c, 4, 70, 0
6, 106259, Note_on_c, 4, 58, 0
6, 106560, Note_on_c, 4, 70, 96
6, 106560, Note_on_c, 4, 58, 96
6, 106619, Note_on_c, 4, 58, 0
6, 106619, Note_on_c, 4, 70, 0
6, 106920, Note_on_c, 4, 66, 96
6, 106920, Note_on_c, 4, 46, 96
6, 106920, Note_on_c, 4, 63, 96
6, 106979, Note_on_c, 4, 63, 0
6, 106979, Note_on_c, 4, 46, 0
6, 106979, Note_on_c, 4, 66, 0
6, 107040, Note_on_c, 4, 66, 96
6, 107040, Note_on_c, 4, 63, 96
6, 107040, Note_on_c, 4, 46, 96
6, 107099, Note_on_c, 4, 46, 0
6, 107099, Note_on_c, 4, 63, 0
6, 107099, Note_on_c, 4, 66, 0
6, 107160, Note_on_c, 4, 66, 96
6, 107160, Note_on_c, 4, 63, 96
6, 107160, Note_on_c, 4, 46, 96
6, 107219, Note_on_c, 4, 46, 0
6, 107219, Note_on_c, 4, 63, 0
6, 107219, Note_on_c, 4, 66, 0
6, 107280, Note_on_c, 4, 58, 96
6, 107280, Note_on_c, 4, 46, 96
6, 107280, Note_on_c, 4, 65, 96
6, 107309, Note_on_c, 4, 46, 0
6, 107309, Note_on_c, 4, 58, 0
6, 107310, Note_on_c, 4, 46, 48
6, 107310, Note_on_c, 4, 58, 48
6, 107339, Note_on_c, 4, 65, 0
6, 108839, Note_on_c, 4, 58, 0
6, 108839, Note_on_c, 4, 46, 0
6, 113760, Note_on_c, 4, 55, 48
6, 113760, Note_on_c, 4, 67, 48
6, 114959, Note_on_c, 4, 67, 0
6, 114959, Note_on_c, 4, 55, 0
6, 114960, Note_on_c, 4, 55, 48
6, 114960, Note_on_c, 4, 67, 48
6, 115079, Note_on_c, 4, 67, 0
6, 115079, Note_on_c, 4, 55, 0
6, 115080, Note_on_c, 4, 67, 48
6, 115080, Note_on_c, 4, 55, 48
6, 115199, Note_on_c, 4, 55, 0
6, 115199, Note_on_c, 4, 67, 0
6, 115200, Note_on_c, 4, 55, 48
6, 115200, Note_on_c, 4, 67, 48
6, 116399, Note_on_c, 4, 67, 0
6, 116399, Note_on_c, 4, 55, 0
6, 116400, Note_on_c, 4, 67, 48
6, 116400, Note_on_c, 4, 55, 48
6, 116519, Note_on_c, 4, 55, 0
6, 116519, Note_on_c, 4, 67, 0
6, 116520, Note_on_c, 4, 55, 48
6, 116520, Note_on_c, 4, 67, 48
6, 116639, Note_on_c, 4, 67, 0
6, 116639, Note_on_c, 4, 55, 0
6, 116640, Note_on_c, 4, 67, 48
6, 116640, Note_on_c, 4, 55, 48
6, 117479, Note_on_c, 4, 55, 0
6, 117479, Note_on_c, 4, 67, 0
6, 117480, Note_on_c, 4, 55, 48
6, 117480, Note_on_c, 4, 67, 48
6, 117599, Note_on_c, 4, 67, 0
6, 117599, Note_on_c, 4, 55, 0
6, 117600, Note_on_c, 4, 67, 48
6, 117600, Note_on_c, 4, 55, 48
6, 117719, Note_on_c, 4, 55, 0
6, 117719, Note_on_c, 4, 67, 0
6, 117720, Note_on_c, 4, 55, 48
6, 117720, Note_on_c, 4, 67, 48
6, 117839, Note_on_c, 4, 67, 0
6, 117839, Note_on_c, 4, 55, 0
6, 117840, Note_on_c, 4, 67, 48
6, 117840, Note_on_c, 4, 55, 48
6, 117959, Note_on_c, 4, 55, 0
6, 117959, Note_on_c, 4, 67, 0
6, 117960, Note_on_c, 4, 55, 48
6, 117960, Note_on_c, 4, 67, 48
6, 118079, Note_on_c, 4, 67, 0
6, 118079, Note_on_c, 4, 55, 0
6, 118080, Note_on_c, 4, 67, 32
6, 118080, Note_on_c, 4, 55, 32
6, 118199, Note_on_c, 4, 55, 0
6, 118199, Note_on_c, 4, 67, 0
6, 121080, Note_on_c, 4, 65, 127
6, 121139, Note_on_c, 4, 65, 0
6, 121200, Note_on_c, 4, 65, 127
6, 121259, Note_on_c, 4, 65, 0
6, 121320, Note_on_c, 4, 65, 127
6, 121379, Note_on_c, 4, 65, 0
6, 121440, Note_on_c, 4, 65, 127
6, 121499, Note_on_c, 4, 65, 0
6, 121560, Note_on_c, 4, 65, 127
6, 121619, Note_on_c, 4, 65, 0
6, 121680, Note_on_c, 4, 65, 127
6, 122400, Note_on_c, 4, 67, 127
6, 122409, Note_on_c, 4, 65, 0
6, 122519, Note_on_c, 4, 67, 0
6, 122520, Note_on_c, 4, 55, 127
6, 122520, Note_on_c, 4, 67, 127
6, 122579, Note_on_c, 4, 67, 0
6, 122579, Note_on_c, 4, 55, 0
6, 122640, Note_on_c, 4, 67, 127
6, 122640, Note_on_c, 4, 55, 127
6, 122699, Note_on_c, 4, 55, 0
6, 122699, Note_on_c, 4, 67, 0
6, 122760, Note_on_c, 4, 67, 127
6, 122819, Note_on_c, 4, 67, 0
6, 122880, Note_on_c, 4, 67, 127
6, 122939, Note_on_c, 4, 67, 0
6, 123000, Note_on_c, 4, 67, 127
6, 123059, Note_on_c, 4, 67, 0
6, 123120, Note_on_c, 4, 67, 127
6, 123839, Note_on_c, 4, 67, 0
6, 125280, Note_on_c, 4, 67, 127
6, 125339, Note_on_c, 4, 67, 0
6, 125400, Note_on_c, 4, 67, 127
6, 125459, Note_on_c, 4, 67, 0
6, 125520, Note_on_c, 4, 67, 127
6, 125579, Note_on_c, 4, 67, 0
6, 125640, Note_on_c, 4, 67, 127
6, 125699, Note_on_c, 4, 67, 0
6, 125760, Note_on_c, 4, 67, 127
6, 125819, Note_on_c, 4, 67, 0
6, 125880, Note_on_c, 4, 67, 127
6, 125939, Note_on_c, 4, 67, 0
6, 126000, Note_on_c, 4, 67, 127
6, 126719, Note_on_c, 4, 67, 0
6, 128340, Note_on_c, 4, 55, 48
6, 128340, Note_on_c, 4, 67, 48
6, 128399, Note_on_c, 4, 67, 0
6, 128399, Note_on_c, 4, 55, 0
6, 128400, Note_on_c, 4, 67, 48
6, 128400, Note_on_c, 4, 55, 48
6, 128459, Note_on_c, 4, 55, 0
6, 128459, Note_on_c, 4, 67, 0
6, 128700, Note_on_c, 4, 55, 48
6, 128700, Note_on_c, 4, 67, 48
6, 128759, Note_on_c, 4, 67, 0
6, 128759, Note_on_c, 4, 55, 0
6, 128760, Note_on_c, 4, 67, 48
6, 128760, Note_on_c, 4, 55, 48
6, 128819, Note_on_c, 4, 55, 0
6, 128819, Note_on_c, 4, 67, 0
6, 128940, Note_on_c, 4, 55, 54
6, 128940, Note_on_c, 4, 67, 54
6, 128999, Note_on_c, 4, 67, 0
6, 128999, Note_on_c, 4, 55, 0
6, 129000, Note_on_c, 4, 55, 61
6, 129000, Note_on_c, 4, 67, 61
6, 129059, Note_on_c, 4, 67, 0
6, 129059, Note_on_c, 4, 55, 0
6, 129060, Note_on_c, 4, 55, 67
6, 129060, Note_on_c, 4, 67, 67
6, 129119, Note_on_c, 4, 67, 0
6, 129119, Note_on_c, 4, 55, 0
6, 129120, Note_on_c, 4, 67, 73
6, 129120, Note_on_c, 4, 55, 73
6, 129179, Note_on_c, 4, 55, 0
6, 129179, Note_on_c, 4, 67, 0
6, 129180, Note_on_c, 4, 55, 80
6, 129180, Note_on_c, 4, 67, 80
6, 129239, Note_on_c, 4, 67, 0
6, 129239, Note_on_c, 4, 55, 0
6, 129240, Note_on_c, 4, 55, 86
6, 129240, Note_on_c, 4, 67, 86
6, 129359, Note_on_c, 4, 67, 0
6, 129359, Note_on_c, 4, 55, 0
6, 131040, Note_on_c, 4, 65, 96
6, 131040, Note_on_c, 4, 63, 96
6, 131399, Note_on_c, 4, 63, 0
6, 131399, Note_on_c, 4, 65, 0
6, 131400, Note_on_c, 4, 65, 96
6, 131400, Note_on_c, 4, 70, 96
6, 131400, Note_on_c, 4, 61, 96
6, 131759, Note_on_c, 4, 61, 0
6, 131759, Note_on_c, 4, 70, 0
6, 131759, Note_on_c, 4, 65, 0
6, 131760, Note_on_c, 4, 67, 96
6, 131760, Note_on_c, 4, 61, 96
6, 131760, Note_on_c, 4, 63, 96
6, 132119, Note_on_c, 4, 63, 0
6, 132119, Note_on_c, 4, 61, 0
6, 132119, Note_on_c, 4, 67, 0
6, 132120, Note_on_c, 4, 68, 96
6, 132120, Note_on_c, 4, 63, 96
6, 132120, Note_on_c, 4, 60, 96
6, 132479, Note_on_c, 4, 60, 0
6, 132479, Note_on_c, 4, 63, 0
6, 132479, Note_on_c, 4, 68, 0
6, 132480, Note_on_c, 4, 68, 127
6, 132480, Note_on_c, 4, 65, 127
6, 132839, Note_on_c, 4, 65, 0
6, 132839, Note_on_c, 4, 68, 0
6, 132840, Note_on_c, 4, 68, 127
6, 132840, Note_on_c, 4, 64, 127
6, 133199, Note_on_c, 4, 64, 0
6, 133199, Note_on_c, 4, 68, 0
6, 133200, Note_on_c, 4, 67, 127
6, 133200, Note_on_c, 4, 63, 127
6, 133319, Note_on_c, 4, 63, 0
6, 133319, Note_on_c, 4, 67, 0
6, 133320, Note_on_c, 4, 51, 48
6, 133320, Note_on_c, 4, 63, 48
6, 133919, Note_on_c, 4, 51, 0
6, 133920, Note_on_c, 4, 51, 48
6, 134040, Note_on_c, 4, 55, 48
6, 134099, Note_on_c, 4, 55, 0
6, 134160, Note_on_c, 4, 58, 48
6, 134219, Note_on_c, 4, 58, 0
6, 134279, Note_on_c, 4, 63, 0
6, 134280, Note_on_c, 4, 63, 48
6, 134399, Note_on_c, 4, 63, 0
6, 134399, Note_on_c, 4, 51, 0
6, 134400, Note_on_c, 4, 51, 48
6, 134400, Note_on_c, 4, 63, 48
6, 134400, Note_on_c, 4, 67, 48
6, 134459, Note_on_c, 4, 67, 0
6, 134519, Note_on_c, 4, 63, 0
6, 134519, Note_on_c, 4, 51, 0
6, 134520, Note_on_c, 4, 63, 48
6, 134520, Note_on_c, 4, 51, 48
6, 134520, Note_on_c, 4, 70, 48
6, 134579, Note_on_c, 4, 70, 0
6, 134639, Note_on_c, 4, 51, 0
6, 134639, Note_on_c, 4, 63, 0
6, 134640, Note_on_c, 4, 51, 48
6, 134640, Note_on_c, 4, 63, 48
6, 135839, Note_on_c, 4, 63, 0
6, 135839, Note_on_c, 4, 51, 0
6, 135840, Note_on_c, 4, 63, 48
6, 135840, Note_on_c, 4, 51, 48
6, 135959, Note_on_c, 4, 51, 0
6, 135959, Note_on_c, 4, 63, 0
6, 135960, Note_on_c, 4, 51, 48
6, 135960, Note_on_c, 4, 63, 48
6, 136079, Note_on_c, 4, 63, 0
6, 136079, Note_on_c, 4, 51, 0
6, 136080, Note_on_c, 4, 51, 48
6, 136080, Note_on_c, 4, 63, 48
6, 136799, Note_on_c, 4, 51, 0
6, 136800, Note_on_c, 4, 51, 48
6, 136919, Note_on_c, 4, 51, 0
6, 136919, Note_on_c, 4, 63, 0
6, 136920, Note_on_c, 4, 55, 48
6, 136920, Note_on_c, 4, 63, 48
6, 136920, Note_on_c, 4, 51, 48
6, 136979, Note_on_c, 4, 55, 0
6, 137039, Note_on_c, 4, 51, 0
6, 137039, Note_on_c, 4, 63, 0
6, 137040, Note_on_c, 4, 58, 48
6, 137040, Note_on_c, 4, 51, 48
6, 137040, Note_on_c, 4, 63, 48
6, 137099, Note_on_c, 4, 58, 0
6, 137159, Note_on_c, 4, 63, 0
6, 137159, Note_on_c, 4, 51, 0
6, 137160, Note_on_c, 4, 51, 48
6, 137160, Note_on_c, 4, 63, 48
6, 137279, Note_on_c, 4, 63, 0
6, 137279, Note_on_c, 4, 51, 0
6, 137280, Note_on_c, 4, 67, 48
6, 137280, Note_on_c, 4, 63, 48
6, 137280, Note_on_c, 4, 51, 48
6, 137339, Note_on_c, 4, 67, 0
6, 137399, Note_on_c, 4, 51, 0
6, 137399, Note_on_c, 4, 63, 0
6, 137400, Note_on_c, 4, 51, 48
6, 137400, Note_on_c, 4, 63, 48
6, 137519, Note_on_c, 4, 63, 0
6, 137519, Note_on_c, 4, 51, 0
6, 137520, Note_on_c, 4, 63, 48
6, 137520, Note_on_c, 4, 51, 48
6, 137580, Note_on_c, 4, 60, 48
6, 137609, Note_on_c, 4, 60, 0
6, 137639, Note_on_c, 4, 51, 0
6, 137639, Note_on_c, 4, 63, 0
6, 137640, Note_on_c, 4, 61, 48
6, 137669, Note_on_c, 4, 61, 0
6, 137700, Note_on_c, 4, 63, 48
6, 137729, Note_on_c, 4, 63, 0
6, 137760, Note_on_c, 4, 65, 48
6, 137789, Note_on_c, 4, 65, 0
6, 137820, Note_on_c, 4, 67, 48
6, 137849, Note_on_c, 4, 67, 0
6, 137880, Note_on_c, 4, 68, 96
6, 138119, Note_on_c, 4, 68, 0
6, 138120, Note_on_c, 4, 68, 96
6, 138240, Note_on_c, 4, 70, 96
6, 138269, Note_on_c, 4, 70, 0
6, 138270, Note_on_c, 4, 70, 48
6, 138360, Note_on_c, 4, 67, 48
6, 138369, Note_on_c, 4, 68, 0
6, 138479, Note_on_c, 4, 67, 0
6, 138480, Note_on_c, 4, 67, 48
6, 138599, Note_on_c, 4, 67, 0
6, 138600, Note_on_c, 4, 67, 48
6, 138659, Note_on_c, 4, 70, 0
6, 138719, Note_on_c, 4, 67, 0
6, 138720, Note_on_c, 4, 67, 48
6, 138839, Note_on_c, 4, 67, 0
6, 138840, Note_on_c, 4, 67, 48
6, 138959, Note_on_c, 4, 67, 0
6, 138960, Note_on_c, 4, 68, 48
6, 138960, Note_on_c, 4, 65, 48
6, 139079, Note_on_c, 4, 65, 0
6, 139079, Note_on_c, 4, 68, 0
6, 143400, Note_on_c, 4, 68, 127
6, 143400, Note_on_c, 4, 65, 127
6, 144119, Note_on_c, 4, 65, 0
6, 144119, Note_on_c, 4, 68, 0
6, 144120, Note_on_c, 4, 65, 127
6, 144120, Note_on_c, 4, 68, 127
6, 144359, Note_on_c, 4, 68, 0
6, 144359, Note_on_c, 4, 65, 0
6, 144360, Note_on_c, 4, 68, 127
6, 144360, Note_on_c, 4, 65, 127
6, 144599, Note_on_c, 4, 65, 0
6, 144599, Note_on_c, 4, 68, 0
6, 144600, Note_on_c, 4, 65, 127
6, 144600, Note_on_c, 4, 68, 127
6, 144839, Note_on_c, 4, 68, 0
6, 144839, Note_on_c, 4, 65, 0
6, 144840, Note_on_c, 4, 68, 127
6, 144840, Note_on_c, 4, 65, 127
6, 145079, Note_on_c, 4, 65, 0
6, 145079, Note_on_c, 4, 68, 0
6, 145080, Note_on_c, 4, 65, 127
6, 145080, Note_on_c, 4, 68, 127
6, 145319, Note_on_c, 4, 68, 0
6, 145319, Note_on_c, 4, 65, 0
6, 145320, Note_on_c, 4, 68, 127
6, 145320, Note_on_c, 4, 65, 127
6, 145439, Note_on_c, 4, 65, 0
6, 145439, Note_on_c, 4, 68, 0
6, 147720, Note_on_c, 4, 66, 127
6, 147720, Note_on_c, 4, 63, 127
6, 148439, Note_on_c, 4, 63, 0
6, 148439, Note_on_c, 4, 66, 0
6, 148440, Note_on_c, 4, 63, 127
6, 148440, Note_on_c, 4, 66, 127
6, 148679, Note_on_c, 4, 66, 0
6, 148679, Note_on_c, 4, 63, 0
6, 148680, Note_on_c, 4, 66, 127
6, 148680, Note_on_c, 4, 63, 127
6, 148919, Note_on_c, 4, 63, 0
6, 148919, Note_on_c, 4, 66, 0
6, 148920, Note_on_c, 4, 63, 127
6, 148920, Note_on_c, 4, 66, 127
6, 149159, Note_on_c, 4, 66, 0
6, 149159, Note_on_c, 4, 63, 0
6, 149160, Note_on_c, 4, 66, 127
6, 149160, Note_on_c, 4, 63, 127
6, 149399, Note_on_c, 4, 63, 0
6, 149399, Note_on_c, 4, 66, 0
6, 149400, Note_on_c, 4, 63, 127
6, 149400, Note_on_c, 4, 66, 127
6, 149639, Note_on_c, 4, 66, 0
6, 149639, Note_on_c, 4, 63, 0
6, 149640, Note_on_c, 4, 63, 127
6, 149640, Note_on_c, 4, 66, 127
6, 149759, Note_on_c, 4, 66, 0
6, 149759, Note_on_c, 4, 63, 0
6, 149880, Note_on_c, 4, 55, 127
6, 149880, Note_on_c, 4, 67, 127
6, 150599, Note_on_c, 4, 67, 0
6, 150599, Note_on_c, 4, 55, 0
6, 150600, Note_on_c, 4, 67, 127
6, 150600, Note_on_c, 4, 55, 127
6, 150839, Note_on_c, 4, 55, 0
6, 150839, Note_on_c, 4, 67, 0
6, 150840, Note_on_c, 4, 67, 127
6, 150840, Note_on_c, 4, 55, 127
6, 151079, Note_on_c, 4, 55, 0
6, 151079, Note_on_c, 4, 67, 0
6, 151080, Note_on_c, 4, 55, 127
6, 151080, Note_on_c, 4, 67, 127
6, 151319, Note_on_c, 4, 67, 0
6, 151319, Note_on_c, 4, 55, 0
6, 151320, Note_on_c, 4, 67, 127
6, 151320, Note_on_c, 4, 55, 127
6, 151559, Note_on_c, 4, 55, 0
6, 151559, Note_on_c, 4, 67, 0
6, 151560, Note_on_c, 4, 55, 127
6, 151560, Note_on_c, 4, 67, 127
6, 151799, Note_on_c, 4, 67, 0
6, 151799, Note_on_c, 4, 55, 0
6, 151800, Note_on_c, 4, 67, 127
6, 151800, Note_on_c, 4, 55, 127
6, 151919, Note_on_c, 4, 55, 0
6, 151919, Note_on_c, 4, 67, 0
6, 152040, Note_on_c, 4, 51, 127
6, 152040, Note_on_c, 4, 66, 127
6, 152040, Note_on_c, 4, 63, 127
6, 152279, Note_on_c, 4, 63, 0
6, 152279, Note_on_c, 4, 66, 0
6, 152279, Note_on_c, 4, 51, 0
6, 152280, Note_on_c, 4, 66, 127
6, 152280, Note_on_c, 4, 63, 127
6, 152280, Note_on_c, 4, 51, 127
6, 152519, Note_on_c, 4, 51, 0
6, 152519, Note_on_c, 4, 63, 0
6, 152519, Note_on_c, 4, 66, 0
6, 152520, Note_on_c, 4, 51, 127
6, 152520, Note_on_c, 4, 63, 127
6, 152520, Note_on_c, 4, 66, 127
6, 152639, Note_on_c, 4, 66, 0
6, 152639, Note_on_c, 4, 63, 0
6, 152639, Note_on_c, 4, 51, 0
6, 152760, Note_on_c, 4, 67, 127
6, 152760, Note_on_c, 4, 55, 127
6, 152999, Note_on_c, 4, 55, 0
6, 152999, Note_on_c, 4, 67, 0
6, 153000, Note_on_c, 4, 55, 127
6, 153000, Note_on_c, 4, 67, 127
6, 153239, Note_on_c, 4, 67, 0
6, 153239, Note_on_c, 4, 55, 0
6, 153240, Note_on_c, 4, 67, 127
6, 153240, Note_on_c, 4, 55, 127
6, 153359, Note_on_c, 4, 55, 0
6, 153359, Note_on_c, 4, 67, 0
6, 153360, Note_on_c, 4, 65, 96
6, 153479, Note_on_c, 4, 65, 0
6, 153480, Note_on_c, 4, 65, 96
6, 153719, Note_on_c, 4, 65, 0
6, 153720, Note_on_c, 4, 65, 96
6, 153839, Note_on_c, 4, 65, 0
6, 153840, Note_on_c, 4, 65, 96
6, 154079, Note_on_c, 4, 65, 0
6, 154080, Note_on_c, 4, 65, 96
6, 154199, Note_on_c, 4, 65, 0
6, 154200, Note_on_c, 4, 65, 96
6, 154439, Note_on_c, 4, 65, 0
6, 154440, Note_on_c, 4, 65, 96
6, 154679, Note_on_c, 4, 65, 0
6, 154680, Note_on_c, 4, 65, 96
6, 154739, Note_on_c, 4, 65, 0
6, 163560, Note_on_c, 4, 55, 96
6, 163560, Note_on_c, 4, 67, 96
6, 163619, Note_on_c, 4, 67, 0
6, 163619, Note_on_c, 4, 55, 0
6, 163680, Note_on_c, 4, 67, 96
6, 163680, Note_on_c, 4, 55, 96
6, 163739, Note_on_c, 4, 55, 0
6, 163739, Note_on_c, 4, 67, 0
6, 163800, Note_on_c, 4, 55, 96
6, 163800, Note_on_c, 4, 67, 96
6, 163859, Note_on_c, 4, 67, 0
6, 163859, Note_on_c, 4, 55, 0
6, 163920, Note_on_c, 4, 67, 96
6, 163920, Note_on_c, 4, 55, 96
6, 163979, Note_on_c, 4, 55, 0
6, 163979, Note_on_c, 4, 67, 0
6, 164040, Note_on_c, 4, 55, 112
6, 164040, Note_on_c, 4, 67, 112
6, 164999, Note_on_c, 4, 67, 0
6, 164999, Note_on_c, 4, 55, 0
6, 165000, Note_on_c, 4, 67, 96
6, 165000, Note_on_c, 4, 55, 96
6, 165059, Note_on_c, 4, 55, 0
6, 165059, Note_on_c, 4, 67, 0
6, 165120, Note_on_c, 4, 55, 96
6, 165120, Note_on_c, 4, 67, 96
6, 165179, Note_on_c, 4, 67, 0
6, 165179, Note_on_c, 4, 55, 0
6, 165240, Note_on_c, 4, 67, 96
6, 165240, Note_on_c, 4, 55, 96
6, 165299, Note_on_c, 4, 55, 0
6, 165299, Note_on_c, 4, 67, 0
6, 165360, Note_on_c, 4, 55, 96
6, 165360, Note_on_c, 4, 67, 96
6, 165419, Note_on_c, 4, 67, 0
6, 165419, Note_on_c, 4, 55, 0
6, 165480, Note_on_c, 4, 67, 112
6, 165480, Note_on_c, 4, 55, 112
6, 166439, Note_on_c, 4, 55, 0
6, 166439, Note_on_c, 4, 67, 0
6, 167880, Note_on_c, 4, 55, 96
6, 167880, Note_on_c, 4, 46, 96
6, 167880, Note_on_c, 4, 58, 96
6, 167939, Note_on_c, 4, 55, 0
6, 167999, Note_on_c, 4, 58, 0
6, 167999, Note_on_c, 4, 46, 0
6, 168000, Note_on_c, 4, 58, 96
6, 168000, Note_on_c, 4, 46, 96
6, 168119, Note_on_c, 4, 46, 0
6, 168119, Note_on_c, 4, 58, 0
6, 168120, Note_on_c, 4, 63, 96
6, 168120, Note_on_c, 4, 46, 96
6, 168120, Note_on_c, 4, 58, 96
6, 168179, Note_on_c, 4, 63, 0
6, 168239, Note_on_c, 4, 58, 0
6, 168239, Note_on_c, 4, 46, 0
6, 168240, Note_on_c, 4, 67, 96
6, 168240, Note_on_c, 4, 58, 96
6, 168240, Note_on_c, 4, 46, 96
6, 168299, Note_on_c, 4, 67, 0
6, 168359, Note_on_c, 4, 46, 0
6, 168359, Note_on_c, 4, 58, 0
6, 168360, Note_on_c, 4, 70, 112
6, 168360, Note_on_c, 4, 46, 112
6, 168360, Note_on_c, 4, 58, 112
6, 168599, Note_on_c, 4, 58, 0
6, 168599, Note_on_c, 4, 70, 0
6, 168600, Note_on_c, 4, 58, 96
6, 168719, Note_on_c, 4, 58, 0
6, 168720, Note_on_c, 4, 58, 96
6, 168839, Note_on_c, 4, 58, 0
6, 168840, Note_on_c, 4, 58, 96
6, 168959, Note_on_c, 4, 58, 0
6, 168960, Note_on_c, 4, 58, 96
6, 169079, Note_on_c, 4, 58, 0
6, 169080, Note_on_c, 4, 58, 96
6, 169199, Note_on_c, 4, 58, 0
6, 169200, Note_on_c, 4, 58, 127
6, 169319, Note_on_c, 4, 58, 0
6, 169319, Note_on_c, 4, 46, 0
6, 169320, Note_on_c, 4, 63, 127
6, 169320, Note_on_c, 4, 58, 127
6, 169320, Note_on_c, 4, 46, 127
6, 169439, Note_on_c, 4, 46, 0
6, 169439, Note_on_c, 4, 58, 0
6, 169439, Note_on_c, 4, 63, 0
6, 169440, Note_on_c, 4, 63, 127
6, 169440, Note_on_c, 4, 46, 127
6, 169440, Note_on_c, 4, 58, 127
6, 169559, Note_on_c, 4, 58, 0
6, 169559, Note_on_c, 4, 46, 0
6, 169559, Note_on_c, 4, 63, 0
6, 169560, Note_on_c, 4, 63, 127
6, 169560, Note_on_c, 4, 58, 127
6, 169560, Note_on_c, 4, 46, 127
6, 169679, Note_on_c, 4, 46, 0
6, 169679, Note_on_c, 4, 58, 0
6, 169679, Note_on_c, 4, 63, 0
6, 169680, Note_on_c, 4, 51, 127
6, 169680, Note_on_c, 4, 63, 127
6, 169799, Note_on_c, 4, 63, 0
6, 169799, Note_on_c, 4, 51, 0
6, 169800, Note_on_c, 4, 63, 127
6, 169800, Note_on_c, 4, 51, 127
6, 169919, Note_on_c, 4, 51, 0
6, 169919, Note_on_c, 4, 63, 0
6, 169920, Note_on_c, 4, 51, 127
6, 169920, Note_on_c, 4, 63, 127
6, 170039, Note_on_c, 4, 63, 0
6, 170039, Note_on_c, 4, 51, 0
6, 177120, Note_on_c, 4, 63, 48
6, 177479, Note_on_c, 4, 63, 0
6, 177480, Note_on_c, 4, 63, 48
6, 177720, Note_on_c, 4, 66, 48
6, 177839, Note_on_c, 4, 63, 0
6, 177840, Note_on_c, 4, 63, 48
6, 177849, Note_on_c, 4, 66, 0
6, 178080, Note_on_c, 4, 58, 48
6, 178199, Note_on_c, 4, 58, 0
6, 178199, Note_on_c, 4, 63, 0
6, 178200, Note_on_c, 4, 63, 48
6, 178319, Note_on_c, 4, 63, 0
6, 178320, Note_on_c, 4, 63, 48
6, 178320, Note_on_c, 4, 66, 48
6, 178439, Note_on_c, 4, 66, 0
6, 178439, Note_on_c, 4, 63, 0
6, 178440, Note_on_c, 4, 70, 48
6, 178440, Note_on_c, 4, 66, 48
6, 178440, Note_on_c, 4, 63, 48
6, 178559, Note_on_c, 4, 63, 0
6, 178559, Note_on_c, 4, 66, 0
6, 178559, Note_on_c, 4, 70, 0
6, 178560, Note_on_c, 4, 63, 48
6, 178560, Note_on_c, 4, 66, 48
6, 178560, Note_on_c, 4, 68, 48
6, 178679, Note_on_c, 4, 68, 0
6, 178679, Note_on_c, 4, 66, 0
6, 178920, Note_on_c, 4, 66, 48
6, 179160, Note_on_c, 4, 68, 48
6, 179169, Note_on_c, 4, 66, 0
6, 179280, Note_on_c, 4, 66, 48
6, 179289, Note_on_c, 4, 68, 0
6, 179519, Note_on_c, 4, 63, 0
6, 179520, Note_on_c, 4, 63, 48
6, 179529, Note_on_c, 4, 66, 0
6, 179639, Note_on_c, 4, 63, 0
6, 179640, Note_on_c, 4, 63, 48
6, 179759, Note_on_c, 4, 63, 0
6, 179760, Note_on_c, 4, 66, 48
6, 179760, Note_on_c, 4, 63, 48
6, 179879, Note_on_c, 4, 63, 0
6, 179879, Note_on_c, 4, 66, 0
6, 179880, Note_on_c, 4, 63, 48
6, 179880, Note_on_c, 4, 68, 48
6, 179880, Note_on_c, 4, 66, 48
6, 179999, Note_on_c, 4, 66, 0
6, 179999, Note_on_c, 4, 68, 0
6, 179999, Note_on_c, 4, 63, 0
6, 180000, Note_on_c, 4, 68, 48
6, 180000, Note_on_c, 4, 65, 48
6, 181199, Note_on_c, 4, 65, 0
6, 181199, Note_on_c, 4, 68, 0
6, 181200, Note_on_c, 4, 65, 48
6, 181200, Note_on_c, 4, 68, 48
6, 181319, Note_on_c, 4, 68, 0
6, 181319, Note_on_c, 4, 65, 0
6, 181320, Note_on_c, 4, 68, 48
6, 181320, Note_on_c, 4, 65, 48
6, 181439, Note_on_c, 4, 65, 0
6, 181439, Note_on_c, 4, 68, 0
6, 181440, Note_on_c, 4, 68, 48
6, 181440, Note_on_c, 4, 70, 52
6, 181440, Note_on_c, 4, 65, 48
6, 181799, Note_on_c, 4, 65, 0
6, 181799, Note_on_c, 4, 68, 0
6, 181800, Note_on_c, 4, 65, 51
6, 182040, Note_on_c, 4, 68, 53
6, 182159, Note_on_c, 4, 65, 0
6, 182160, Note_on_c, 4, 65, 54
6, 182169, Note_on_c, 4, 68, 0
6, 182400, Note_on_c, 4, 58, 56
6, 182519, Note_on_c, 4, 65, 0
6, 182520, Note_on_c, 4, 65, 96
6, 182529, Note_on_c, 4, 58, 0
6, 182639, Note_on_c, 4, 65, 0
6, 182639, Note_on_c, 4, 70, 0
6, 182640, Note_on_c, 4, 70, 96
6, 182640, Note_on_c, 4, 68, 96
6, 182640, Note_on_c, 4, 65, 96
6, 182759, Note_on_c, 4, 65, 0
6, 182759, Note_on_c, 4, 70, 0
6, 182760, Note_on_c, 4, 65, 96
6, 182760, Note_on_c, 4, 70, 96
6, 182769, Note_on_c, 4, 68, 0
6, 182879, Note_on_c, 4, 70, 0
6, 182879, Note_on_c, 4, 65, 0
6, 182880, Note_on_c, 4, 70, 72
6, 182880, Note_on_c, 4, 66, 72
6, 182880, Note_on_c, 4, 63, 96
6, 183959, Note_on_c, 4, 63, 0
6, 183959, Note_on_c, 4, 66, 0
6, 183959, Note_on_c, 4, 70, 0
6, 183960, Note_on_c, 4, 51, 96
6, 183960, Note_on_c, 4, 63, 80
6, 184079, Note_on_c, 4, 63, 0
6, 184080, Note_on_c, 4, 63, 96
6, 184199, Note_on_c, 4, 63, 0
6, 184199, Note_on_c, 4, 51, 0
6, 184200, Note_on_c, 4, 54, 96
6, 184200, Note_on_c, 4, 66, 96
6, 184200, Note_on_c, 4, 63, 96
6, 184319, Note_on_c, 4, 63, 0
6, 184319, Note_on_c, 4, 66, 0
6, 184319, Note_on_c, 4, 54, 0
6, 184320, Note_on_c, 4, 63, 127
6, 184320, Note_on_c, 4, 51, 127
6, 184320, Note_on_c, 4, 66, 127
6, 185159, Note_on_c, 4, 66, 0
6, 185159, Note_on_c, 4, 51, 0
6, 185159, Note_on_c, 4, 63, 0
6, 185160, Note_on_c, 4, 66, 127
6, 185160, Note_on_c, 4, 63, 127
6, 185160, Note_on_c, 4, 51, 127
6, 185279, Note_on_c, 4, 51, 0
6, 185279, Note_on_c, 4, 63, 0
6, 185279, Note_on_c, 4, 66, 0
6, 185280, Note_on_c, 4, 66, 127
6, 185280, Note_on_c, 4, 63, 127
6, 185280, Note_on_c, 4, 51, 127
6, 185399, Note_on_c, 4, 51, 0
6, 185399, Note_on_c, 4, 63, 0
6, 185399, Note_on_c, 4, 66, 0
6, 185400, Note_on_c, 4, 66, 127
6, 185400, Note_on_c, 4, 63, 127
6, 185400, Note_on_c, 4, 51, 127
6, 185519, Note_on_c, 4, 51, 0
6, 185519, Note_on_c, 4, 63, 0
6, 185519, Note_on_c, 4, 66, 0
6, 185520, Note_on_c, 4, 66, 127
6, 185520, Note_on_c, 4, 63, 127
6, 185520, Note_on_c, 4, 51, 127
6, 185639, Note_on_c, 4, 51, 0
6, 185639, Note_on_c, 4, 63, 0
6, 185639, Note_on_c, 4, 66, 0
6, 185640, Note_on_c, 4, 66, 127
6, 185640, Note_on_c, 4, 63, 127
6, 185640, Note_on_c, 4, 51, 127
6, 185759, Note_on_c, 4, 51, 0
6, 185759, Note_on_c, 4, 63, 0
6, 185759, Note_on_c, 4, 66, 0
6, 185760, Note_on_c, 4, 66, 127
6, 185760, Note_on_c, 4, 63, 127
6, 185760, Note_on_c, 4, 51, 127
6, 185879, Note_on_c, 4, 51, 0
6, 185879, Note_on_c, 4, 63, 0
6, 185879, Note_on_c, 4, 66, 0
6, 188280, Note_on_c, 4, 51, 48
6, 188639, Note_on_c, 4, 51, 0
6, 188640, Note_on_c, 4, 58, 48
6, 188640, Note_on_c, 4, 50, 48
6, 188999, Note_on_c, 4, 50, 0
6, 188999, Note_on_c, 4, 58, 0
6, 189000, Note_on_c, 4, 58, 48
6, 189000, Note_on_c, 4, 50, 44
6, 189359, Note_on_c, 4, 50, 0
6, 189359, Note_on_c, 4, 58, 0
6, 189360, Note_on_c, 4, 63, 48
6, 189360, Note_on_c, 4, 51, 40
6, 189719, Note_on_c, 4, 51, 0
6, 189719, Note_on_c, 4, 63, 0
6, 189720, Note_on_c, 4, 63, 48
6, 189720, Note_on_c, 4, 51, 36
6, 190079, Note_on_c, 4, 51, 0
6, 190079, Note_on_c, 4, 63, 0
6, 190080, Note_on_c, 4, 65, 48
6, 190080, Note_on_c, 4, 46, 32
6, 190439, Note_on_c, 4, 46, 0
6, 190439, Note_on_c, 4, 65, 0
6, 190440, Note_on_c, 4, 65, 48
6, 190440, Note_on_c, 4, 46, 32
6, 190799, Note_on_c, 4, 46, 0
6, 190799, Note_on_c, 4, 65, 0
6, 190800, Note_on_c, 4, 65, 48
6, 190800, Note_on_c, 4, 46, 32
6, 191159, Note_on_c, 4, 46, 0
6, 191159, Note_on_c, 4, 65, 0
6, 191160, Note_on_c, 4, 65, 48
6, 191160, Note_on_c, 4, 46, 32
6, 191519, Note_on_c, 4, 46, 0
6, 191519, Note_on_c, 4, 65, 0
6, 192240, Note_on_c, 4, 65, 32
6, 192240, Note_on_c, 4, 46, 32
6, 192599, Note_on_c, 4, 46, 0
6, 192599, Note_on_c, 4, 65, 0
6, 192600, Note_on_c, 4, 65, 32
6, 192600, Note_on_c, 4, 46, 32
6, 192959, Note_on_c, 4, 46, 0
6, 192959, Note_on_c, 4, 65, 0
6, 193680, Note_on_c, 4, 65, 32
6, 193680, Note_on_c, 4, 46, 32
6, 194039, Note_on_c, 4, 46, 0
6, 194039, Note_on_c, 4, 65, 0
6, 194040, Note_on_c, 4, 65, 32
6, 194040, Note_on_c, 4, 46, 32
6, 194399, Note_on_c, 4, 46, 0
6, 194399, Note_on_c, 4, 65, 0
6, 195840, Note_on_c, 4, 51, 40
6, 196079, Note_on_c, 4, 51, 0
6, 196080, Note_on_c, 4, 55, 40
6, 196199, Note_on_c, 4, 55, 0
6, 196200, Note_on_c, 4, 51, 40
6, 196439, Note_on_c, 4, 51, 0
6, 196440, Note_on_c, 4, 46, 40
6, 196559, Note_on_c, 4, 46, 0
6, 196560, Note_on_c, 4, 65, 96
6, 196560, Note_on_c, 4, 46, 96
6, 196919, Note_on_c, 4, 46, 0
6, 196919, Note_on_c, 4, 65, 0
6, 196920, Note_on_c, 4, 65, 127
6, 196920, Note_on_c, 4, 58, 127
6, 197279, Note_on_c, 4, 58, 0
6, 197279, Note_on_c, 4, 65, 0
6, 197280, Note_on_c, 4, 63, 127
6, 197280, Note_on_c, 4, 55, 127
6, 197399, Note_on_c, 4, 55, 0
6, 197399, Note_on_c, 4, 63, 0
6, 200880, Note_on_c, 4, 65, 56
6, 201120, Note_on_c, 4, 69, 56
6, 201129, Note_on_c, 4, 65, 0
6, 201240, Note_on_c, 4, 65, 56
6, 201249, Note_on_c, 4, 69, 0
6, 201480, Note_on_c, 4, 60, 56
6, 201489, Note_on_c, 4, 65, 0
6, 201599, Note_on_c, 4, 60, 0
6, 201600, Note_on_c, 4, 65, 56
6, 201720, Note_on_c, 4, 69, 56
6, 201729, Note_on_c, 4, 65, 0
6, 201840, Note_on_c, 4, 72, 56
6, 201849, Note_on_c, 4, 69, 0
6, 201959, Note_on_c, 4, 72, 0
6, 201960, Note_on_c, 4, 72, 48
6, 202439, Note_on_c, 4, 72, 0
6, 202440, Note_on_c, 4, 72, 48
6, 202559, Note_on_c, 4, 72, 0
6, 202560, Note_on_c, 4, 72, 48
6, 202679, Note_on_c, 4, 72, 0
6, 202680, Note_on_c, 4, 72, 48
6, 203760, Note_on_c, 4, 73, 48
6, 203769, Note_on_c, 4, 72, 0
6, 203879, Note_on_c, 4, 73, 0
6, 206640, Note_on_c, 4, 70, 32
6, 206640, Note_on_c, 4, 58, 32
6, 208139, Note_on_c, 4, 58, 0
6, 208139, Note_on_c, 4, 70, 0
6, 208140, Note_on_c, 4, 58, 58
6, 208140, Note_on_c, 4, 70, 58
6, 208199, Note_on_c, 4, 70, 0
6, 208199, Note_on_c, 4, 58, 0
6, 208200, Note_on_c, 4, 58, 60
6, 208200, Note_on_c, 4, 70, 60
6, 208259, Note_on_c, 4, 70, 0
6, 208259, Note_on_c, 4, 58, 0
6, 208260, Note_on_c, 4, 58, 62
6, 208260, Note_on_c, 4, 70, 62
6, 208319, Note_on_c, 4, 70, 0
6, 208319, Note_on_c, 4, 58, 0
6, 208320, Note_on_c, 4, 58, 64
6, 208320, Note_on_c, 4, 70, 64
6, 208379, Note_on_c, 4, 70, 0
6, 208379, Note_on_c, 4, 58, 0
6, 208380, Note_on_c, 4, 58, 68
6, 208380, Note_on_c, 4, 70, 68
6, 208439, Note_on_c, 4, 70, 0
6, 208439, Note_on_c, 4, 58, 0
6, 208440, Note_on_c, 4, 70, 72
6, 208440, Note_on_c, 4, 58, 72
6, 208499, Note_on_c, 4, 58, 0
6, 208499, Note_on_c, 4, 70, 0
6, 208500, Note_on_c, 4, 70, 76
6, 208500, Note_on_c, 4, 58, 76
6, 208559, Note_on_c, 4, 58, 0
6, 208559, Note_on_c, 4, 70, 0
6, 208560, Note_on_c, 4, 70, 80
6, 208560, Note_on_c, 4, 58, 80
6, 208619, Note_on_c, 4, 58, 0
6, 208619, Note_on_c, 4, 70, 0
6, 208620, Note_on_c, 4, 70, 84
6, 208620, Note_on_c, 4, 58, 84
6, 208679, Note_on_c, 4, 58, 0
6, 208679, Note_on_c, 4, 70, 0
6, 208680, Note_on_c, 4, 58, 88
6, 208680, Note_on_c, 4, 65, 88
6, 208739, Note_on_c, 4, 65, 0
6, 208739, Note_on_c, 4, 58, 0
6, 208740, Note_on_c, 4, 58, 92
6, 208740, Note_on_c, 4, 65, 92
6, 208799, Note_on_c, 4, 65, 0
6, 208799, Note_on_c, 4, 58, 0
6, 208800, Note_on_c, 4, 63, 96
6, 208800, Note_on_c, 4, 55, 96
6, 209639, Note_on_c, 4, 55, 0
6, 209639, Note_on_c, 4, 63, 0
6, 209640, Note_on_c, 4, 55, 96
6, 209640, Note_on_c, 4, 63, 96
6, 209759, Note_on_c, 4, 63, 0
6, 209759, Note_on_c, 4, 55, 0
6, 209760, Note_on_c, 4, 55, 96
6, 209760, Note_on_c, 4, 63, 96
6, 209879, Note_on_c, 4, 63, 0
6, 209879, Note_on_c, 4, 55, 0
6, 209880, Note_on_c, 4, 63, 96
6, 209880, Note_on_c, 4, 55, 96
6, 210119, Note_on_c, 4, 55, 0
6, 210119, Note_on_c, 4, 63, 0
6, 210360, Note_on_c, 4, 51, 96
6, 210360, Note_on_c, 4, 63, 96
6, 210479, Note_on_c, 4, 63, 0
6, 210479, Note_on_c, 4, 51, 0
6, 210480, Note_on_c, 4, 63, 96
6, 210480, Note_on_c, 4, 51, 96
6, 210599, Note_on_c, 4, 51, 0
6, 210599, Note_on_c, 4, 63, 0
6, 210600, Note_on_c, 4, 63, 96
6, 210600, Note_on_c, 4, 51, 96
6, 210839, Note_on_c, 4, 51, 0
6, 210839, Note_on_c, 4, 63, 0
6, 210840, Note_on_c, 4, 51, 112
6, 210840, Note_on_c, 4, 63, 112
6, 210959, Note_on_c, 4, 63, 0
6, 210959, Note_on_c, 4, 51, 0
6, 210960, Note_on_c, 4, 63, 112
6, 210960, Note_on_c, 4, 51, 112
6, 211319, Note_on_c, 4, 51, 0
6, 211319, Note_on_c, 4, 63, 0
6, 211320, Note_on_c, 4, 51, 112
6, 211320, Note_on_c, 4, 63, 112
6, 211679, Note_on_c, 4, 63, 0
6, 211679, Note_on_c, 4, 51, 0
6, 211680, Note_on_c, 4, 63, 112
6, 211680, Note_on_c, 4, 51, 112
6, 212159, Note_on_c, 4, 51, 0
6, 212159, Note_on_c, 4, 63, 0
6, 212160, Note_on_c, 4, 51, 112
6, 212160, Note_on_c, 4, 63, 112
6, 212279, Note_on_c, 4, 63, 0
6, 212279, Note_on_c, 4, 51, 0
6, 212280, Note_on_c, 4, 63, 112
6, 212280, Note_on_c, 4, 51, 112
6, 212399, Note_on_c, 4, 51, 0
6, 212399, Note_on_c, 4, 63, 0
6, 212400, Note_on_c, 4, 51, 127
6, 212400, Note_on_c, 4, 63, 127
6, 212639, Note_on_c, 4, 63, 0
6, 212639, Note_on_c, 4, 51, 0
6, 212640, Note_on_c, 4, 67, 127
6, 212640, Note_on_c, 4, 55, 127
6, 212759, Note_on_c, 4, 55, 0
6, 212759, Note_on_c, 4, 67, 0
6, 212760, Note_on_c, 4, 51, 127
6, 212760, Note_on_c, 4, 63, 127
6, 212999, Note_on_c, 4, 63, 0
6, 212999, Note_on_c, 4, 51, 0
6, 213000, Note_on_c, 4, 58, 127
6, 213000, Note_on_c, 4, 46, 127
6, 213119, Note_on_c, 4, 46, 0
6, 213119, Note_on_c, 4, 58, 0
6, 213120, Note_on_c, 4, 51, 127
6, 213120, Note_on_c, 4, 63, 127
6, 213239, Note_on_c, 4, 63, 0
6, 213239, Note_on_c, 4, 51, 0
6, 213240, Note_on_c, 4, 67, 127
6, 213240, Note_on_c, 4, 55, 127
6, 213359, Note_on_c, 4, 55, 0
6, 213359, Note_on_c, 4, 67, 0
6, 213360, Note_on_c, 4, 58, 127
6, 213360, Note_on_c, 4, 70, 127
6, 213479, Note_on_c, 4, 70, 0
6, 213479, Note_on_c, 4, 58, 0
6, 213480, Note_on_c, 4, 63, 127
6, 213480, Note_on_c, 4, 51, 127
6, 213719, Note_on_c, 4, 51, 0
6, 213719, Note_on_c, 4, 63, 0
6, 213720, Note_on_c, 4, 55, 127
6, 213720, Note_on_c, 4, 67, 127
6, 213959, Note_on_c, 4, 67, 0
6, 213959, Note_on_c, 4, 55, 0
6, 213960, Note_on_c, 4, 67, 127
6, 213960, Note_on_c, 4, 55, 127
6, 214079, Note_on_c, 4, 55, 0
6, 214079, Note_on_c, 4, 67, 0
6, 214080, Note_on_c, 4, 55, 127
6, 214080, Note_on_c, 4, 67, 127
6, 214199, Note_on_c, 4, 67, 0
6, 214199, Note_on_c, 4, 55, 0
6, 214200, Note_on_c, 4, 67, 127
6, 214200, Note_on_c, 4, 55, 127
6, 214439, Note_on_c, 4, 55, 0
6, 214439, Note_on_c, 4, 67, 0
6, 214440, Note_on_c, 4, 55, 127
6, 214440, Note_on_c, 4, 67, 127
6, 214559, Note_on_c, 4, 67, 0
6, 214559, Note_on_c, 4, 55, 0
6, 214560, Note_on_c, 4, 65, 127
6, 214919, Note_on_c, 4, 65, 0
6, 214920, Note_on_c, 4, 63, 127
6, 214920, Note_on_c, 4, 65, 127
6, 215279, Note_on_c, 4, 65, 0
6, 215279, Note_on_c, 4, 63, 0
6, 215280, Note_on_c, 4, 58, 127
6, 215280, Note_on_c, 4, 65, 127
6, 215399, Note_on_c, 4, 65, 0
6, 215399, Note_on_c, 4, 58, 0
6, 215400, Note_on_c, 4, 46, 48
6, 215400, Note_on_c, 4, 58, 48
6, 216479, Note_on_c, 4, 58, 0
6, 216479, Note_on_c, 4, 46, 0
6, 216480, Note_on_c, 4, 46, 48
6, 216480, Note_on_c, 4, 58, 48
6, 216599, Note_on_c, 4, 58, 0
6, 216599, Note_on_c, 4, 46, 0
6, 216600, Note_on_c, 4, 46, 48
6, 216600, Note_on_c, 4, 58, 48
6, 216719, Note_on_c, 4, 58, 0
6, 216719, Note_on_c, 4, 46, 0
6, 216720, Note_on_c, 4, 46, 48
6, 216720, Note_on_c, 4, 58, 48
6, 217559, Note_on_c, 4, 58, 0
6, 217559, Note_on_c, 4, 46, 0
6, 217560, Note_on_c, 4, 55, 48
6, 217560, Note_on_c, 4, 67, 48
6, 217739, Note_on_c, 4, 67, 0
6, 217739, Note_on_c, 4, 55, 0
6, 217740, Note_on_c, 4, 63, 48
6, 217740, Note_on_c, 4, 51, 48
6, 217799, Note_on_c, 4, 51, 0
6, 217799, Note_on_c, 4, 63, 0
6, 217800, Note_on_c, 4, 46, 48
6, 217800, Note_on_c, 4, 58, 48
6, 217919, Note_on_c, 4, 58, 0
6, 217919, Note_on_c, 4, 46, 0
6, 217920, Note_on_c, 4, 58, 48
6, 217920, Note_on_c, 4, 46, 48
6, 218039, Note_on_c, 4, 46, 0
6, 218039, Note_on_c, 4, 58, 0
6, 218040, Note_on_c, 4, 58, 48
6, 218040, Note_on_c, 4, 46, 48
6, 218159, Note_on_c, 4, 46, 0
6, 218159, Note_on_c, 4, 58, 0
6, 218160, Note_on_c, 4, 58, 48
6, 218160, Note_on_c, 4, 46, 48
6, 218999, Note_on_c, 4, 46, 0
6, 218999, Note_on_c, 4, 58, 0
6, 219000, Note_on_c, 4, 46, 127
6, 219000, Note_on_c, 4, 58, 127
6, 219179, Note_on_c, 4, 58, 0
6, 219179, Note_on_c, 4, 46, 0
6, 219180, Note_on_c, 4, 46, 127
6, 219180, Note_on_c, 4, 58, 127
6, 219239, Note_on_c, 4, 58, 0
6, 219239, Note_on_c, 4, 46, 0
6, 219240, Note_on_c, 4, 46, 127
6, 219240, Note_on_c, 4, 58, 127
6, 219359, Note_on_c, 4, 58, 0
6, 219359, Note_on_c, 4, 46, 0
6, 219360, Note_on_c, 4, 46, 127
6, 219360, Note_on_c, 4, 58, 127
6, 219479, Note_on_c, 4, 58, 0
6, 219479, Note_on_c, 4, 46, 0
6, 219480, Note_on_c, 4, 46, 127
6, 219480, Note_on_c, 4, 58, 127
6, 219599, Note_on_c, 4, 58, 0
6, 219599, Note_on_c, 4, 46, 0
6, 219600, Note_on_c, 4, 51, 48
6, 219600, Note_on_c, 4, 63, 48
6, 220440, Note_on_c, 4, 70, 48
6, 220440, Note_on_c, 4, 58, 48
6, 220449, Note_on_c, 4, 63, 0
6, 220449, Note_on_c, 4, 51, 0
6, 220559, Note_on_c, 4, 70, 0
6, 220559, Note_on_c, 4, 58, 0
6, 220560, Note_on_c, 4, 58, 48
6, 220560, Note_on_c, 4, 70, 48
6, 220649, Note_on_c, 4, 70, 0
6, 220649, Note_on_c, 4, 58, 0
6, 220680, Note_on_c, 4, 58, 48
6, 220680, Note_on_c, 4, 70, 48
6, 220769, Note_on_c, 4, 70, 0
6, 220769, Note_on_c, 4, 58, 0
6, 220800, Note_on_c, 4, 58, 48
6, 220800, Note_on_c, 4, 70, 48
6, 220889, Note_on_c, 4, 70, 0
6, 220889, Note_on_c, 4, 58, 0
6, 220920, Note_on_c, 4, 58, 48
6, 220920, Note_on_c, 4, 70, 48
6, 221009, Note_on_c, 4, 70, 0
6, 221009, Note_on_c, 4, 58, 0
6, 221040, Note_on_c, 4, 58, 48
6, 221040, Note_on_c, 4, 70, 48
6, 221159, Note_on_c, 4, 70, 0
6, 221159, Note_on_c, 4, 58, 0
6, 222480, Note_on_c, 4, 65, 96
6, 222480, Note_on_c, 4, 68, 96
6, 222539, Note_on_c, 4, 68, 0
6, 222539, Note_on_c, 4, 65, 0
6, 222600, Note_on_c, 4, 65, 96
6, 222600, Note_on_c, 4, 68, 96
6, 222659, Note_on_c, 4, 68, 0
6, 222659, Note_on_c, 4, 65, 0
6, 223140, Note_on_c, 4, 68, 96
6, 223140, Note_on_c, 4, 65, 96
6, 223199, Note_on_c, 4, 65, 0
6, 223199, Note_on_c, 4, 68, 0
6, 223200, Note_on_c, 4, 51, 96
6, 223200, Note_on_c, 4, 63, 96
6, 223200, Note_on_c, 4, 67, 96
6, 223259, Note_on_c, 4, 67, 0
6, 223259, Note_on_c, 4, 63, 0
6, 223259, Note_on_c, 4, 51, 0
6, 223320, Note_on_c, 4, 67, 96
6, 223320, Note_on_c, 4, 63, 96
6, 223320, Note_on_c, 4, 51, 96
6, 223379, Note_on_c, 4, 51, 0
6, 223379, Note_on_c, 4, 63, 0
6, 223379, Note_on_c, 4, 67, 0
6, 223860, Note_on_c, 4, 51, 96
6, 223860, Note_on_c, 4, 63, 96
6, 223860, Note_on_c, 4, 67, 96
6, 223919, Note_on_c, 4, 67, 0
6, 223919, Note_on_c, 4, 63, 0
6, 223919, Note_on_c, 4, 51, 0
6, 223920, Note_on_c, 4, 67, 96
6, 223920, Note_on_c, 4, 58, 96
6, 223920, Note_on_c, 4, 46, 96
6, 223979, Note_on_c, 4, 46, 0
6, 223979, Note_on_c, 4, 58, 0
6, 223979, Note_on_c, 4, 67, 0
6, 224040, Note_on_c, 4, 46, 96
6, 224040, Note_on_c, 4, 58, 96
6, 224040, Note_on_c, 4, 67, 96
6, 224099, Note_on_c, 4, 67, 0
6, 224099, Note_on_c, 4, 58, 0
6, 224099, Note_on_c, 4, 46, 0
6, 224580, Note_on_c, 4, 67, 96
6, 224580, Note_on_c, 4, 55, 96
6, 224639, Note_on_c, 4, 55, 0
6, 224639, Note_on_c, 4, 67, 0
6, 224640, Note_on_c, 4, 65, 96
6, 224640, Note_on_c, 4, 68, 96
6, 224759, Note_on_c, 4, 68, 0
6, 224759, Note_on_c, 4, 65, 0
6, 225480, Note_on_c, 4, 51, 96
6, 225480, Note_on_c, 4, 63, 96
6, 225599, Note_on_c, 4, 63, 0
6, 225599, Note_on_c, 4, 51, 0
6, 225600, Note_on_c, 4, 63, 96
6, 225600, Note_on_c, 4, 51, 96
6, 225719, Note_on_c, 4, 51, 0
6, 225719, Note_on_c, 4, 63, 0
6, 225720, Note_on_c, 4, 51, 96
6, 225720, Note_on_c, 4, 63, 96
6, 225839, Note_on_c, 4, 63, 0
6, 225839, Note_on_c, 4, 51, 0
6, 225840, Note_on_c, 4, 63, 96
6, 225840, Note_on_c, 4, 51, 96
6, 225959, Note_on_c, 4, 51, 0
6, 225959, Note_on_c, 4, 63, 0
6, 225960, Note_on_c, 4, 51, 96
6, 225960, Note_on_c, 4, 63, 96
6, 226079, Note_on_c, 4, 63, 0
6, 226079, Note_on_c, 4, 51, 0
6, 226080, Note_on_c, 4, 63, 96
6, 226080, Note_on_c, 4, 51, 96
6, 226199, Note_on_c, 4, 51, 0
6, 226199, Note_on_c, 4, 63, 0
6, 227280, Note_on_c, 4, 63, 96
6, 227280, Note_on_c, 4, 55, 96
6, 227399, Note_on_c, 4, 55, 0
6, 227399, Note_on_c, 4, 63, 0
6, 227400, Note_on_c, 4, 55, 96
6, 227400, Note_on_c, 4, 63, 96
6, 227519, Note_on_c, 4, 63, 0
6, 227519, Note_on_c, 4, 55, 0
6, 227520, Note_on_c, 4, 46, 112
6, 227520, Note_on_c, 4, 58, 112
6, 228239, Note_on_c, 4, 58, 0
6, 228239, Note_on_c, 4, 46, 0
6, 228240, Note_on_c, 4, 58, 127
6, 228240, Note_on_c, 4, 46, 127
6, 228299, Note_on_c, 4, 46, 0
6, 228299, Note_on_c, 4, 58, 0
6, 228300, Note_on_c, 4, 58, 127
6, 228300, Note_on_c, 4, 46, 127
6, 228359, Note_on_c, 4, 46, 0
6, 228359, Note_on_c, 4, 58, 0
6, 228360, Note_on_c, 4, 58, 127
6, 228360, Note_on_c, 4, 46, 127
6, 228419, Note_on_c, 4, 46, 0
6, 228419, Note_on_c, 4, 58, 0
6, 228420, Note_on_c, 4, 58, 127
6, 228420, Note_on_c, 4, 46, 127
6, 228479, Note_on_c, 4, 46, 0
6, 228479, Note_on_c, 4, 58, 0
6, 228480, Note_on_c, 4, 58, 127
6, 228480, Note_on_c, 4, 46, 127
6, 228539, Note_on_c, 4, 46, 0
6, 228539, Note_on_c, 4, 58, 0
6, 228540, Note_on_c, 4, 58, 127
6, 228540, Note_on_c, 4, 46, 127
6, 228599, Note_on_c, 4, 46, 0
6, 228599, Note_on_c, 4, 58, 0
6, 228600, Note_on_c, 4, 58, 127
6, 228600, Note_on_c, 4, 46, 127
6, 228659, Note_on_c, 4, 46, 0
6, 228659, Note_on_c, 4, 58, 0
6, 228660, Note_on_c, 4, 58, 127
6, 228660, Note_on_c, 4, 46, 127
6, 228719, Note_on_c, 4, 46, 0
6, 228719, Note_on_c, 4, 58, 0
6, 228720, Note_on_c, 4, 58, 127
6, 228720, Note_on_c, 4, 46, 127
6, 228779, Note_on_c, 4, 46, 0
6, 228779, Note_on_c, 4, 58, 0
6, 228780, Note_on_c, 4, 58, 127
6, 228780, Note_on_c, 4, 46, 127
6, 228839, Note_on_c, 4, 46, 0
6, 228839, Note_on_c, 4, 58, 0
6, 228840, Note_on_c, 4, 58, 127
6, 228840, Note_on_c, 4, 46, 127
6, 228899, Note_on_c, 4, 46, 0
6, 228899, Note_on_c, 4, 58, 0
6, 228900, Note_on_c, 4, 58, 127
6, 228900, Note_on_c, 4, 46, 127
6, 228959, Note_on_c, 4, 46, 0
6, 228959, Note_on_c, 4, 58, 0
6, 228960, Note_on_c, 4, 63, 127
6, 228960, Note_on_c, 4, 51, 127
6, 229079, Note_on_c, 4, 51, 0
6, 229079, Note_on_c, 4, 63, 0
6, 232680, Note_on_c, 4, 68, 48
6, 232769, Note_on_c, 4, 68, 0
6, 232800, Note_on_c, 4, 68, 64
6, 232889, Note_on_c, 4, 68, 0
6, 232920, Note_on_c, 4, 68, 96
6, 233279, Note_on_c, 4, 68, 0
6, 234600, Note_on_c, 4, 65, 48
6, 234719, Note_on_c, 4, 65, 0
6, 234720, Note_on_c, 4, 58, 48
6, 234720, Note_on_c, 4, 65, 48
6, 234839, Note_on_c, 4, 65, 0
6, 234839, Note_on_c, 4, 58, 0
6, 236160, Note_on_c, 4, 46, 32
6, 236160, Note_on_c, 4, 58, 32
6, 237659, Note_on_c, 4, 58, 0
6, 237659, Note_on_c, 4, 46, 0
6, 237660, Note_on_c, 4, 70, 67
6, 237660, Note_on_c, 4, 46, 67
6, 237719, Note_on_c, 4, 46, 0
6, 237719, Note_on_c, 4, 70, 0
6, 237720, Note_on_c, 4, 70, 72
6, 237720, Note_on_c, 4, 46, 72
6, 237779, Note_on_c, 4, 46, 0
6, 237779, Note_on_c, 4, 70, 0
6, 237780, Note_on_c, 4, 70, 75
6, 237780, Note_on_c, 4, 46, 75
6, 237839, Note_on_c, 4, 46, 0
6, 237839, Note_on_c, 4, 70, 0
6, 237840, Note_on_c, 4, 70, 78
6, 237840, Note_on_c, 4, 46, 78
6, 237899, Note_on_c, 4, 46, 0
6, 237899, Note_on_c, 4, 70, 0
6, 237900, Note_on_c, 4, 70, 80
6, 237900, Note_on_c, 4, 46, 80
6, 237959, Note_on_c, 4, 46, 0
6, 237959, Note_on_c, 4, 70, 0
6, 237960, Note_on_c, 4, 70, 82
6, 237960, Note_on_c, 4, 46, 82
6, 238019, Note_on_c, 4, 46, 0
6, 238019, Note_on_c, 4, 70, 0
6, 238020, Note_on_c, 4, 70, 84
6, 238020, Note_on_c, 4, 46, 84
6, 238079, Note_on_c, 4, 46, 0
6, 238079, Note_on_c, 4, 70, 0
6, 238080, Note_on_c, 4, 70, 87
6, 238080, Note_on_c, 4, 46, 87
6, 238139, Note_on_c, 4, 46, 0
6, 238139, Note_on_c, 4, 70, 0
6, 238140, Note_on_c, 4, 70, 89
6, 238140, Note_on_c, 4, 46, 89
6, 238199, Note_on_c, 4, 46, 0
6, 238199, Note_on_c, 4, 70, 0
6, 238200, Note_on_c, 4, 70, 92
6, 238200, Note_on_c, 4, 46, 92
6, 238259, Note_on_c, 4, 46, 0
6, 238259, Note_on_c, 4, 70, 0
6, 238260, Note_on_c, 4, 70, 94
6, 238260, Note_on_c, 4, 46, 94
6, 238319, Note_on_c, 4, 46, 0
6, 238319, Note_on_c, 4, 70, 0
6, 238320, Note_on_c, 4, 58, 96
6, 238320, Note_on_c, 4, 46, 96
6, 238439, Note_on_c, 4, 46, 0
6, 238439, Note_on_c, 4, 58, 0
6, 238440, Note_on_c, 4, 67, 112
6, 238440, Note_on_c, 4, 46, 112
6, 238440, Note_on_c, 4, 70, 112
6, 238679, Note_on_c, 4, 70, 0
6, 238679, Note_on_c, 4, 46, 0
6, 238679, Note_on_c, 4, 67, 0
6, 238800, Note_on_c, 4, 46, 112
6, 238800, Note_on_c, 4, 70, 112
6, 238800, Note_on_c, 4, 67, 112
6, 239039, Note_on_c, 4, 67, 0
6, 239039, Note_on_c, 4, 70, 0
6, 239039, Note_on_c, 4, 46, 0
6, 239160, Note_on_c, 4, 72, 112
6, 239160, Note_on_c, 4, 68, 112
6, 239160, Note_on_c, 4, 46, 112
6, 239399, Note_on_c, 4, 46, 0
6, 239399, Note_on_c, 4, 68, 0
6, 239399, Note_on_c, 4, 72, 0
6, 239520, Note_on_c, 4, 46, 112
6, 239520, Note_on_c, 4, 58, 112
6, 239520, Note_on_c, 4, 65, 112
6, 239639, Note_on_c, 4, 65, 0
6, 239639, Note_on_c, 4, 58, 0
6, 239639, Note_on_c, 4, 46, 0
6, 239640, Note_on_c, 4, 46, 96
6, 239640, Note_on_c, 4, 58, 96
6, 239640, Note_on_c, 4, 65, 96
6, 239759, Note_on_c, 4, 65, 0
6, 239759, Note_on_c, 4, 58, 0
6, 239759, Note_on_c, 4, 46, 0
6, 239760, Note_on_c, 4, 63, 127
6, 239760, Note_on_c, 4, 51, 127
6, 239819, Note_on_c, 4, 51, 0
6, 239819, Note_on_c, 4, 63, 0
6, 239880, Note_on_c, 4, 58, 127
6, 239880, Note_on_c, 4, 70, 127
6, 240059, Note_on_c, 4, 70, 0
6, 240059, Note_on_c, 4, 58, 0
6, 240060, Note_on_c, 4, 55, 127
6, 240060, Note_on_c, 4, 70, 127
6, 240060, Note_on_c, 4, 67, 127
6, 240119, Note_on_c, 4, 67, 0
6, 240119, Note_on_c, 4, 70, 0
6, 240119, Note_on_c, 4, 55, 0
6, 240120, Note_on_c, 4, 70, 127
6, 240120, Note_on_c, 4, 51, 127
6, 240120, Note_on_c, 4, 63, 127
6, 240179, Note_on_c, 4, 63, 0
6, 240179, Note_on_c, 4, 51, 0
6, 240179, Note_on_c, 4, 70, 0
6, 240240, Note_on_c, 4, 55, 127
6, 240240, Note_on_c, 4, 70, 127
6, 240240, Note_on_c, 4, 67, 127
6, 240419, Note_on_c, 4, 67, 0
6, 240419, Note_on_c, 4, 70, 0
6, 240419, Note_on_c, 4, 55, 0
6, 240420, Note_on_c, 4, 70, 127
6, 240420, Note_on_c, 4, 46, 127
6, 240420, Note_on_c, 4, 58, 127
6, 240479, Note_on_c, 4, 58, 0
6, 240479, Note_on_c, 4, 46, 0
6, 240479, Note_on_c, 4, 70, 0
6, 240480, Note_on_c, 4, 46, 127
6, 240480, Note_on_c, 4, 65, 127
6, 240539, Note_on_c, 4, 65, 0
6, 240539, Note_on_c, 4, 46, 0
6, 240600, Note_on_c, 4, 46, 127
6, 240600, Note_on_c, 4, 68, 127
6, 240779, Note_on_c, 4, 68, 0
6, 240779, Note_on_c, 4, 46, 0
6, 240780, Note_on_c, 4, 46, 127
6, 240780, Note_on_c, 4, 58, 127
6, 240839, Note_on_c, 4, 58, 0
6, 240839, Note_on_c, 4, 46, 0
6, 240840, Note_on_c, 4, 46, 127
6, 240840, Note_on_c, 4, 65, 127
6, 240899, Note_on_c, 4, 65, 0
6, 240899, Note_on_c, 4, 46, 0
6, 240960, Note_on_c, 4, 46, 127
6, 240960, Note_on_c, 4, 65, 127
6, 241139, Note_on_c, 4, 65, 0
6, 241139, Note_on_c, 4, 46, 0
6, 241140, Note_on_c, 4, 46, 127
6, 241140, Note_on_c, 4, 58, 127
6, 241199, Note_on_c, 4, 58, 0
6, 241199, Note_on_c, 4, 46, 0
6, 241200, Note_on_c, 4, 51, 127
6, 241200, Note_on_c, 4, 63, 127
6, 241679, Note_on_c, 4, 63, 0
6, 241679, Note_on_c, 4, 51, 0
6, 242880, Note_on_c, 4, 63, 127
6, 242880, Note_on_c, 4, 67, 127
6, 242880, Note_on_c, 4, 55, 127
6, 242939, Note_on_c, 4, 55, 0
6, 242939, Note_on_c, 4, 67, 0
6, 242939, Note_on_c, 4, 63, 0
6, 242940, Note_on_c, 4, 65, 127
6, 242940, Note_on_c, 4, 67, 127
6, 242940, Note_on_c, 4, 55, 127
6, 242999, Note_on_c, 4, 55, 0
6, 242999, Note_on_c, 4, 67, 0
6, 242999, Note_on_c, 4, 65, 0
6, 243000, Note_on_c, 4, 63, 127
6, 243000, Note_on_c, 4, 67, 127
6, 243000, Note_on_c, 4, 55, 127
6, 243059, Note_on_c, 4, 55, 0
6, 243059, Note_on_c, 4, 67, 0
6, 243059, Note_on_c, 4, 63, 0
6, 243060, Note_on_c, 4, 67, 127
6, 243060, Note_on_c, 4, 55, 127
6, 243119, Note_on_c, 4, 55, 0
6, 243119, Note_on_c, 4, 67, 0
6, 243120, Note_on_c, 4, 67, 127
6, 243120, Note_on_c, 4, 55, 127
6, 243179, Note_on_c, 4, 55, 0
6, 243179, Note_on_c, 4, 67, 0
6, 243180, Note_on_c, 4, 67, 127
6, 243180, Note_on_c, 4, 55, 127
6, 243239, Note_on_c, 4, 55, 0
6, 243239, Note_on_c, 4, 67, 0
6, 243240, Note_on_c, 4, 67, 127
6, 243240, Note_on_c, 4, 55, 127
6, 243299, Note_on_c, 4, 55, 0
6, 243299, Note_on_c, 4, 67, 0
6, 243300, Note_on_c, 4, 67, 127
6, 243300, Note_on_c, 4, 55, 127
6, 243359, Note_on_c, 4, 55, 0
6, 243359, Note_on_c, 4, 67, 0
6, 243360, Note_on_c, 4, 67, 127
6, 243360, Note_on_c, 4, 55, 127
6, 243419, Note_on_c, 4, 55, 0
6, 243419, Note_on_c, 4, 67, 0
6, 243480, Note_on_c, 4, 67, 127
6, 243480, Note_on_c, 4, 55, 127
6, 243539, Note_on_c, 4, 55, 0
6, 243539, Note_on_c, 4, 67, 0
6, 243600, Note_on_c, 4, 55, 127
6, 243600, Note_on_c, 4, 67, 127
6, 243659, Note_on_c, 4, 67, 0
6, 243659, Note_on_c, 4, 55, 0
6, 243840, Note_on_c, 4, 61, 127
6, 243840, Note_on_c, 4, 63, 127
6, 243840, Note_on_c, 4, 51, 127
6, 243899, Note_on_c, 4, 51, 0
6, 243899, Note_on_c, 4, 63, 0
6, 243899, Note_on_c, 4, 61, 0
6, 243960, Note_on_c, 4, 60, 127
6, 243960, Note_on_c, 4, 51, 127
6, 243960, Note_on_c, 4, 63, 127
6, 244019, Note_on_c, 4, 63, 0
6, 244019, Note_on_c, 4, 51, 0
6, 244019, Note_on_c, 4, 60, 0
6, 244200, Note_on_c, 4, 63, 127
6, 244200, Note_on_c, 4, 51, 127
6, 244259, Note_on_c, 4, 51, 0
6, 244259, Note_on_c, 4, 63, 0
6, 244320, Note_on_c, 4, 58, 127
6, 244320, Note_on_c, 4, 63, 127
6, 244320, Note_on_c, 4, 46, 127
6, 244379, Note_on_c, 4, 46, 0
6, 244379, Note_on_c, 4, 63, 0
6, 244379, Note_on_c, 4, 58, 0
6, 244560, Note_on_c, 4, 67, 127
6, 244560, Note_on_c, 4, 65, 127
6, 244560, Note_on_c, 4, 55, 127
6, 244619, Note_on_c, 4, 55, 0
6, 244619, Note_on_c, 4, 65, 0
6, 244619, Note_on_c, 4, 67, 0
6, 244680, Note_on_c, 4, 55, 127
6, 244680, Note_on_c, 4, 63, 127
6, 244680, Note_on_c, 4, 67, 127
6, 244739, Note_on_c, 4, 67, 0
6, 244739, Note_on_c, 4, 63, 0
6, 244739, Note_on_c, 4, 55, 0
6, 244920, Note_on_c, 4, 63, 127
6, 244920, Note_on_c, 4, 61, 127
6, 244920, Note_on_c, 4, 51, 127
6, 244979, Note_on_c, 4, 51, 0
6, 244979, Note_on_c, 4, 61, 0
6, 244979, Note_on_c, 4, 63, 0
6, 245040, Note_on_c, 4, 51, 127
6, 245040, Note_on_c, 4, 60, 127
6, 245040, Note_on_c, 4, 63, 127
6, 245099, Note_on_c, 4, 63, 0
6, 245099, Note_on_c, 4, 60, 0
6, 245099, Note_on_c, 4, 51, 0
6, 245280, Note_on_c, 4, 63, 127
6, 245280, Note_on_c, 4, 51, 127
6, 245339, Note_on_c, 4, 51, 0
6, 245339, Note_on_c, 4, 63, 0
6, 245520, Note_on_c, 4, 51, 127
6, 245520, Note_on_c, 4, 63, 127
6, 245579, Note_on_c, 4, 63, 0
6, 245579, Note_on_c, 4, 51, 0
6, 245760, Note_on_c, 4, 63, 127
6, 245760, Note_on_c, 4, 51, 127
6, 245819, Note_on_c, 4, 51, 0
6, 245819, Note_on_c, 4, 63, 0
6, 246000, Note_on_c, 4, 51, 127
6, 246000, Note_on_c, 4, 63, 127
6, 246059, Note_on_c, 4, 63, 0
6, 246059, Note_on_c, 4, 51, 0
6, 246240, Note_on_c, 4, 63, 127
6, 246240, Note_on_c, 4, 51, 127
6, 246299, Note_on_c, 4, 51, 0
6, 246299, Note_on_c, 4, 63, 0
6, 246480, Note_on_c, 4, 51, 127
6, 246480, Note_on_c, 4, 63, 127
6, 246539, Note_on_c, 4, 63, 0
6, 246539, Note_on_c, 4, 51, 0
6, 246600, Note_on_c, 4, 51, 48
6, 246600, Note_on_c, 4, 63, 48
6, 246720, Note_on_c, 4, 67, 48
6, 246720, Note_on_c, 4, 55, 48
6, 246729, Note_on_c, 4, 63, 0
6, 246729, Note_on_c, 4, 51, 0
6, 246840, Note_on_c, 4, 58, 48
6, 246840, Note_on_c, 4, 70, 48
6, 246849, Note_on_c, 4, 67, 0
6, 246849, Note_on_c, 4, 55, 0
6, 246959, Note_on_c, 4, 58, 0
6, 246959, Note_on_c, 4, 70, 0
6, 246960, Note_on_c, 4, 51, 96
6, 246960, Note_on_c, 4, 63, 96
6, 246989, Note_on_c, 4, 63, 0
6, 246989, Note_on_c, 4, 51, 0
6, 246990, Note_on_c, 4, 63, 48
6, 246990, Note_on_c, 4, 51, 48
6, 247440, Note_on_c, 4, 67, 48
6, 247440, Note_on_c, 4, 55, 48
6, 247449, Note_on_c, 4, 51, 0
6, 247449, Note_on_c, 4, 63, 0
6, 247560, Note_on_c, 4, 58, 48
6, 247560, Note_on_c, 4, 70, 48
6, 247569, Note_on_c, 4, 67, 0
6, 247569, Note_on_c, 4, 55, 0
6, 247679, Note_on_c, 4, 58, 0
6, 247679, Note_on_c, 4, 70, 0
6, 247680, Note_on_c, 4, 63, 96
6, 247680, Note_on_c, 4, 51, 96
6, 247709, Note_on_c, 4, 51, 0
6, 247709, Note_on_c, 4, 63, 0
6, 247710, Note_on_c, 4, 51, 48
6, 247710, Note_on_c, 4, 63, 48
6, 248159, Note_on_c, 4, 63, 0
6, 248159, Note_on_c, 4, 51, 0
6, 248160, Note_on_c, 4, 63, 48
6, 248279, Note_on_c, 4, 63, 0
6, 248520, Note_on_c, 4, 65, 48
6, 248579, Note_on_c, 4, 65, 0
6, 248760, Note_on_c, 4, 58, 48
6, 248760, Note_on_c, 4, 65, 48
6, 248819, Note_on_c, 4, 65, 0
6, 248819, Note_on_c, 4, 58, 0
6, 249000, Note_on_c, 4, 65, 48
6, 249000, Note_on_c, 4, 58, 48
6, 249059, Note_on_c, 4, 58, 0
6, 249059, Note_on_c, 4, 65, 0
6, 249240, Note_on_c, 4, 63, 48
6, 249240, Note_on_c, 4, 67, 48
6, 249299, Note_on_c, 4, 67, 0
6, 249299, Note_on_c, 4, 63, 0
6, 250260, Note_on_c, 4, 67, 112
6, 250260, Note_on_c, 4, 58, 112
6, 250260, Note_on_c, 4, 70, 112
6, 250319, Note_on_c, 4, 70, 0
6, 250319, Note_on_c, 4, 58, 0
6, 250319, Note_on_c, 4, 67, 0
6, 250320, Note_on_c, 4, 67, 117
6, 250320, Note_on_c, 4, 58, 117
6, 250320, Note_on_c, 4, 70, 117
6, 250379, Note_on_c, 4, 70, 0
6, 250379, Note_on_c, 4, 58, 0
6, 250379, Note_on_c, 4, 67, 0
6, 250380, Note_on_c, 4, 67, 122
6, 250380, Note_on_c, 4, 58, 122
6, 250380, Note_on_c, 4, 70, 122
6, 250439, Note_on_c, 4, 70, 0
6, 250439, Note_on_c, 4, 58, 0
6, 250439, Note_on_c, 4, 67, 0
6, 250440, Note_on_c, 4, 55, 124
6, 250440, Note_on_c, 4, 67, 124
6, 250499, Note_on_c, 4, 67, 0
6, 250499, Note_on_c, 4, 55, 0
6, 250500, Note_on_c, 4, 67, 126
6, 250500, Note_on_c, 4, 51, 126
6, 250500, Note_on_c, 4, 63, 126
6, 250559, Note_on_c, 4, 63, 0
6, 250559, Note_on_c, 4, 51, 0
6, 250559, Note_on_c, 4, 67, 0
6, 250560, Note_on_c, 4, 46, 127
6, 250560, Note_on_c, 4, 68, 127
6, 250560, Note_on_c, 4, 65, 127
6, 250919, Note_on_c, 4, 65, 0
6, 250919, Note_on_c, 4, 68, 0
6, 250919, Note_on_c, 4, 46, 0
6, 250920, Note_on_c, 4, 67, 96
6, 250920, Note_on_c, 4, 63, 96
6, 250920, Note_on_c, 4, 51, 96
6, 251039, Note_on_c, 4, 51, 0
6, 251039, Note_on_c, 4, 63, 0
6, 251039, Note_on_c, 4, 67, 0
6, 251280, Note_on_c, 4, 51, 96
6, 251280, Note_on_c, 4, 63, 96
6, 251399, Note_on_c, 4, 63, 0
6, 251399, Note_on_c, 4, 51, 0
6, 251640, Note_on_c, 4, 63, 96
6, 251640, Note_on_c, 4, 51, 96
6, 251759, Note_on_c, 4, 51, 0
6, 251759, Note_on_c, 4, 63, 0
6, 252000, Note_on_c, 4, 51, 96
6, 252000, Note_on_c, 4, 63, 96
6, 252059, Note_on_c, 4, 63, 0
6, 252059, Note_on_c, 4, 51, 0
6, 252120, Note_on_c, 4, 63, 96
6, 252120, Note_on_c, 4, 51, 96
6, 252179, Note_on_c, 4, 51, 0
6, 252179, Note_on_c, 4, 63, 0
6, 252240, Note_on_c, 4, 51, 96
6, 252240, Note_on_c, 4, 63, 96
6, 252299, Note_on_c, 4, 63, 0
6, 252299, Note_on_c, 4, 51, 0
6, 252360, Note_on_c, 4, 63, 96
6, 252360, Note_on_c, 4, 51, 96
6, 252479, Note_on_c, 4, 51, 0
6, 252479, Note_on_c, 4, 63, 0
6, 253620, Note_on_c, 4, 51, 48
6, 253680, Note_on_c, 4, 55, 48
6, 253689, Note_on_c, 4, 51, 0
6, 253740, Note_on_c, 4, 58, 48
6, 253749, Note_on_c, 4, 55, 0
6, 253800, Note_on_c, 4, 63, 48
6, 253809, Note_on_c, 4, 58, 0
6, 253919, Note_on_c, 4, 63, 0
6, 254520, Note_on_c, 4, 68, 96
6, 254520, Note_on_c, 4, 65, 96
6, 255239, Note_on_c, 4, 65, 0
6, 255239, Note_on_c, 4, 68, 0
6, 255960, Note_on_c, 4, 67, 127
6, 255960, Note_on_c, 4, 55, 127
6, 256019, Note_on_c, 4, 55, 0
6, 256019, Note_on_c, 4, 67, 0
6, 256020, Note_on_c, 4, 67, 127
6, 256020, Note_on_c, 4, 55, 127
6, 256079, Note_on_c, 4, 55, 0
6, 256079, Note_on_c, 4, 67, 0
6, 256080, Note_on_c, 4, 67, 127
6, 256080, Note_on_c, 4, 55, 127
6, 256139, Note_on_c, 4, 55, 0
6, 256139, Note_on_c, 4, 67, 0
6, 256140, Note_on_c, 4, 67, 127
6, 256140, Note_on_c, 4, 55, 127
6, 256199, Note_on_c, 4, 55, 0
6, 256199, Note_on_c, 4, 67, 0
6, 256200, Note_on_c, 4, 67, 127
6, 256200, Note_on_c, 4, 55, 127
6, 256259, Note_on_c, 4, 55, 0
6, 256259, Note_on_c, 4, 67, 0
6, 256260, Note_on_c, 4, 67, 127
6, 256260, Note_on_c, 4, 55, 127
6, 256319, Note_on_c, 4, 55, 0
6, 256319, Note_on_c, 4, 67, 0
6, 256320, Note_on_c, 4, 67, 127
6, 256320, Note_on_c, 4, 55, 127
6, 256379, Note_on_c, 4, 55, 0
6, 256379, Note_on_c, 4, 67, 0
6, 256380, Note_on_c, 4, 67, 127
6, 256380, Note_on_c, 4, 55, 127
6, 256439, Note_on_c, 4, 55, 0
6, 256439, Note_on_c, 4, 67, 0
6, 256440, Note_on_c, 4, 67, 127
6, 256440, Note_on_c, 4, 55, 127
6, 256499, Note_on_c, 4, 55, 0
6, 256499, Note_on_c, 4, 67, 0
6, 256500, Note_on_c, 4, 67, 127
6, 256500, Note_on_c, 4, 55, 127
6, 256559, Note_on_c, 4, 55, 0
6, 256559, Note_on_c, 4, 67, 0
6, 256560, Note_on_c, 4, 67, 127
6, 256560, Note_on_c, 4, 55, 127
6, 256619, Note_on_c, 4, 55, 0
6, 256619, Note_on_c, 4, 67, 0
6, 256620, Note_on_c, 4, 67, 127
6, 256620, Note_on_c, 4, 55, 127
6, 256679, Note_on_c, 4, 55, 0
6, 256679, Note_on_c, 4, 67, 0
6, 256680, Note_on_c, 4, 55, 48
6, 256680, Note_on_c, 4, 67, 48
6, 256799, Note_on_c, 4, 67, 0
6, 256799, Note_on_c, 4, 55, 0
6, 258840, Note_on_c, 4, 55, 32
6, 258840, Note_on_c, 4, 67, 32
6, 260399, Note_on_c, 4, 67, 0
6, 260399, Note_on_c, 4, 55, 0
6, 265320, Note_on_c, 4, 46, 32
6, 265320, Note_on_c, 4, 58, 32
6, 266039, Note_on_c, 4, 58, 0
6, 266039, Note_on_c, 4, 46, 0
6, 266040, Note_on_c, 4, 58, 48
6, 266040, Note_on_c, 4, 46, 48
6, 266099, Note_on_c, 4, 46, 0
6, 266099, Note_on_c, 4, 58, 0
6, 266100, Note_on_c, 4, 58, 48
6, 266100, Note_on_c, 4, 46, 48
6, 266159, Note_on_c, 4, 46, 0
6, 266159, Note_on_c, 4, 58, 0
6, 266160, Note_on_c, 4, 63, 48
6, 266160, Note_on_c, 4, 58, 48
6, 266160, Note_on_c, 4, 46, 48
6, 266219, Note_on_c, 4, 46, 0
6, 266219, Note_on_c, 4, 58, 0
6, 266220, Note_on_c, 4, 58, 48
6, 266220, Note_on_c, 4, 46, 48
6, 266279, Note_on_c, 4, 46, 0
6, 266279, Note_on_c, 4, 58, 0
6, 266280, Note_on_c, 4, 65, 48
6, 266280, Note_on_c, 4, 58, 48
6, 266280, Note_on_c, 4, 46, 48
6, 266289, Note_on_c, 4, 63, 0
6, 266339, Note_on_c, 4, 46, 0
6, 266339, Note_on_c, 4, 58, 0
6, 266340, Note_on_c, 4, 58, 48
6, 266340, Note_on_c, 4, 46, 48
6, 266399, Note_on_c, 4, 46, 0
6, 266399, Note_on_c, 4, 58, 0
6, 266400, Note_on_c, 4, 66, 48
6, 266400, Note_on_c, 4, 58, 48
6, 266400, Note_on_c, 4, 46, 48
6, 266409, Note_on_c, 4, 65, 0
6, 266459, Note_on_c, 4, 46, 0
6, 266459, Note_on_c, 4, 58, 0
6, 266460, Note_on_c, 4, 58, 48
6, 266460, Note_on_c, 4, 46, 48
6, 266519, Note_on_c, 4, 46, 0
6, 266519, Note_on_c, 4, 58, 0
6, 266520, Note_on_c, 4, 58, 48
6, 266520, Note_on_c, 4, 46, 48
6, 266579, Note_on_c, 4, 46, 0
6, 266579, Note_on_c, 4, 58, 0
6, 266580, Note_on_c, 4, 65, 48
6, 266580, Note_on_c, 4, 58, 48
6, 266580, Note_on_c, 4, 46, 48
6, 266589, Note_on_c, 4, 66, 0
6, 266639, Note_on_c, 4, 46, 0
6, 266639, Note_on_c, 4, 58, 0
6, 266640, Note_on_c, 4, 63, 48
6, 266640, Note_on_c, 4, 58, 48
6, 266640, Note_on_c, 4, 46, 48
6, 266649, Note_on_c, 4, 65, 0
6, 266699, Note_on_c, 4, 46, 0
6, 266699, Note_on_c, 4, 58, 0
6, 266700, Note_on_c, 4, 58, 48
6, 266700, Note_on_c, 4, 46, 48
6, 266759, Note_on_c, 4, 46, 0
6, 266759, Note_on_c, 4, 58, 0
6, 266759, Note_on_c, 4, 63, 0
6, 266760, Note_on_c, 4, 62, 48
6, 266760, Note_on_c, 4, 58, 48
6, 266760, Note_on_c, 4, 46, 48
6, 266819, Note_on_c, 4, 46, 0
6, 266819, Note_on_c, 4, 58, 0
6, 266820, Note_on_c, 4, 58, 48
6, 266820, Note_on_c, 4, 46, 48
6, 266879, Note_on_c, 4, 46, 0
6, 266879, Note_on_c, 4, 58, 0
6, 266880, Note_on_c, 4, 61, 48
6, 266880, Note_on_c, 4, 58, 48
6, 266880, Note_on_c, 4, 46, 48
6, 266889, Note_on_c, 4, 62, 0
6, 266939, Note_on_c, 4, 46, 0
6, 266939, Note_on_c, 4, 58, 0
6, 266940, Note_on_c, 4, 58, 48
6, 266940, Note_on_c, 4, 46, 48
6, 266999, Note_on_c, 4, 46, 0
6, 266999, Note_on_c, 4, 58, 0
6, 267000, Note_on_c, 4, 60, 48
6, 267000, Note_on_c, 4, 58, 48
6, 267000, Note_on_c, 4, 46, 48
6, 267009, Note_on_c, 4, 61, 0
6, 267059, Note_on_c, 4, 46, 0
6, 267059, Note_on_c, 4, 58, 0
6, 267060, Note_on_c, 4, 58, 48
6, 267060, Note_on_c, 4, 46, 48
6, 267119, Note_on_c, 4, 46, 0
6, 267119, Note_on_c, 4, 58, 0
6, 267120, Note_on_c, 4, 58, 48
6, 267120, Note_on_c, 4, 46, 48
6, 267129, Note_on_c, 4, 60, 0
6, 267179, Note_on_c, 4, 46, 0
6, 267179, Note_on_c, 4, 58, 0
6, 267180, Note_on_c, 4, 58, 48
6, 267180, Note_on_c, 4, 46, 48
6, 267239, Note_on_c, 4, 46, 0
6, 267239, Note_on_c, 4, 58, 0
6, 267240, Note_on_c, 4, 58, 48
6, 267240, Note_on_c, 4, 46, 48
6, 267299, Note_on_c, 4, 46, 0
6, 267299, Note_on_c, 4, 58, 0
6, 267300, Note_on_c, 4, 58, 48
6, 267300, Note_on_c, 4, 46, 48
6, 267359, Note_on_c, 4, 46, 0
6, 267359, Note_on_c, 4, 58, 0
6, 267360, Note_on_c, 4, 60, 48
6, 267360, Note_on_c, 4, 58, 48
6, 267360, Note_on_c, 4, 46, 48
6, 267419, Note_on_c, 4, 46, 0
6, 267419, Note_on_c, 4, 58, 0
6, 267420, Note_on_c, 4, 62, 48
6, 267420, Note_on_c, 4, 58, 48
6, 267420, Note_on_c, 4, 46, 48
6, 267429, Note_on_c, 4, 60, 0
6, 267479, Note_on_c, 4, 46, 0
6, 267479, Note_on_c, 4, 58, 0
6, 267480, Note_on_c, 4, 63, 48
6, 267480, Note_on_c, 4, 58, 48
6, 267480, Note_on_c, 4, 46, 48
6, 267489, Note_on_c, 4, 62, 0
6, 267539, Note_on_c, 4, 46, 0
6, 267539, Note_on_c, 4, 58, 0
6, 267540, Note_on_c, 4, 58, 48
6, 267540, Note_on_c, 4, 46, 48
6, 267599, Note_on_c, 4, 46, 0
6, 267599, Note_on_c, 4, 58, 0
6, 267599, Note_on_c, 4, 63, 0
6, 267600, Note_on_c, 4, 63, 48
6, 267600, Note_on_c, 4, 58, 48
6, 267600, Note_on_c, 4, 46, 48
6, 267659, Note_on_c, 4, 46, 0
6, 267659, Note_on_c, 4, 58, 0
6, 267660, Note_on_c, 4, 58, 48
6, 267660, Note_on_c, 4, 46, 48
6, 267719, Note_on_c, 4, 46, 0
6, 267719, Note_on_c, 4, 58, 0
6, 267720, Note_on_c, 4, 65, 48
6, 267720, Note_on_c, 4, 58, 48
6, 267720, Note_on_c, 4, 46, 48
6, 267729, Note_on_c, 4, 63, 0
6, 267779, Note_on_c, 4, 46, 0
6, 267779, Note_on_c, 4, 58, 0
6, 267780, Note_on_c, 4, 58, 48
6, 267780, Note_on_c, 4, 46, 48
6, 267839, Note_on_c, 4, 46, 0
6, 267839, Note_on_c, 4, 58, 0
6, 267840, Note_on_c, 4, 66, 48
6, 267840, Note_on_c, 4, 58, 48
6, 267840, Note_on_c, 4, 46, 48
6, 267849, Note_on_c, 4, 65, 0
6, 267899, Note_on_c, 4, 46, 0
6, 267899, Note_on_c, 4, 58, 0
6, 267900, Note_on_c, 4, 58, 48
6, 267900, Note_on_c, 4, 46, 48
6, 267959, Note_on_c, 4, 46, 0
6, 267959, Note_on_c, 4, 58, 0
6, 267960, Note_on_c, 4, 58, 48
6, 267960, Note_on_c, 4, 46, 48
6, 268019, Note_on_c, 4, 46, 0
6, 268019, Note_on_c, 4, 58, 0
6, 268020, Note_on_c, 4, 65, 48
6, 268020, Note_on_c, 4, 58, 48
6, 268020, Note_on_c, 4, 46, 48
6, 268029, Note_on_c, 4, 66, 0
6, 268079, Note_on_c, 4, 46, 0
6, 268079, Note_on_c, 4, 58, 0
6, 268080, Note_on_c, 4, 63, 48
6, 268080, Note_on_c, 4, 58, 48
6, 268080, Note_on_c, 4, 46, 48
6, 268089, Note_on_c, 4, 65, 0
6, 268139, Note_on_c, 4, 46, 0
6, 268139, Note_on_c, 4, 58, 0
6, 268140, Note_on_c, 4, 58, 48
6, 268140, Note_on_c, 4, 46, 48
6, 268199, Note_on_c, 4, 46, 0
6, 268199, Note_on_c, 4, 58, 0
6, 268199, Note_on_c, 4, 63, 0
6, 268200, Note_on_c, 4, 62, 48
6, 268200, Note_on_c, 4, 46, 48
6, 268200, Note_on_c, 4, 58, 48
6, 268319, Note_on_c, 4, 58, 0
6, 268319, Note_on_c, 4, 46, 0
6, 268319, Note_on_c, 4, 62, 0
6, 271800, Note_on_c, 4, 58, 32
6, 271800, Note_on_c, 4, 46, 32
6, 272639, Note_on_c, 4, 46, 0
6, 272639, Note_on_c, 4, 58, 0
6, 273240, Note_on_c, 4, 46, 32
6, 273240, Note_on_c, 4, 58, 32
6, 274439, Note_on_c, 4, 58, 0
6, 274439, Note_on_c, 4, 46, 0
6, 274440, Note_on_c, 4, 58, 32
6, 274440, Note_on_c, 4, 46, 32
6, 274559, Note_on_c, 4, 46, 0
6, 274559, Note_on_c, 4, 58, 0
6, 274560, Note_on_c, 4, 58, 32
6, 274560, Note_on_c, 4, 46, 32
6, 274679, Note_on_c, 4, 46, 0
6, 274679, Note_on_c, 4, 58, 0
6, 274680, Note_on_c, 4, 58, 32
6, 274680, Note_on_c, 4, 46, 32
6, 275159, Note_on_c, 4, 46, 0
6, 275159, Note_on_c, 4, 58, 0
6, 275160, Note_on_c, 4, 58, 32
6, 275160, Note_on_c, 4, 46, 32
6, 275279, Note_on_c, 4, 46, 0
6, 275279, Note_on_c, 4, 58, 0
6, 275280, Note_on_c, 4, 58, 32
6, 275280, Note_on_c, 4, 46, 32
6, 275399, Note_on_c, 4, 46, 0
6, 275399, Note_on_c, 4, 58, 0
6, 275400, Note_on_c, 4, 63, 32
6, 275400, Note_on_c, 4, 51, 32
6, 275519, Note_on_c, 4, 51, 0
6, 275639, Note_on_c, 4, 63, 0
6, 275640, Note_on_c, 4, 66, 35
6, 275759, Note_on_c, 4, 66, 0
6, 275760, Note_on_c, 4, 63, 36
6, 275999, Note_on_c, 4, 63, 0
6, 276000, Note_on_c, 4, 51, 39
6, 276119, Note_on_c, 4, 51, 0
6, 276120, Note_on_c, 4, 63, 41
6, 276359, Note_on_c, 4, 63, 0
6, 276360, Note_on_c, 4, 66, 43
6, 276479, Note_on_c, 4, 66, 0
6, 276480, Note_on_c, 4, 63, 45
6, 276719, Note_on_c, 4, 63, 0
6, 276720, Note_on_c, 4, 51, 47
6, 276839, Note_on_c, 4, 51, 0
6, 276840, Note_on_c, 4, 65, 48
6, 277079, Note_on_c, 4, 65, 0
6, 277080, Note_on_c, 4, 68, 56
6, 277199, Note_on_c, 4, 68, 0
6, 277200, Note_on_c, 4, 65, 60
6, 277200, Note_on_c, 4, 58, 60
6, 277439, Note_on_c, 4, 58, 0
6, 277439, Note_on_c, 4, 65, 0
6, 277440, Note_on_c, 4, 46, 68
6, 277440, Note_on_c, 4, 58, 68
6, 277559, Note_on_c, 4, 58, 0
6, 277559, Note_on_c, 4, 46, 0
6, 277560, Note_on_c, 4, 65, 68
6, 277799, Note_on_c, 4, 65, 0
6, 277800, Note_on_c, 4, 68, 60
6, 277919, Note_on_c, 4, 68, 0
6, 277920, Note_on_c, 4, 65, 56
6, 277920, Note_on_c, 4, 68, 56
6, 278159, Note_on_c, 4, 68, 0
6, 278159, Note_on_c, 4, 65, 0
6, 278160, Note_on_c, 4, 65, 48
6, 278160, Note_on_c, 4, 68, 48
6, 278279, Note_on_c, 4, 68, 0
6, 278279, Note_on_c, 4, 65, 0
6, 278280, Note_on_c, 4, 63, 48
6, 278399, Note_on_c, 4, 63, 0
6, 278400, Note_on_c, 4, 67, 48
6, 278400, Note_on_c, 4, 51, 48
6, 278400, Note_on_c, 4, 63, 48
6, 278459, Note_on_c, 4, 63, 0
6, 278459, Note_on_c, 4, 51, 0
6, 278459, Note_on_c, 4, 67, 0
6, 278640, Note_on_c, 4, 51, 48
6, 278640, Note_on_c, 4, 63, 48
6, 278640, Note_on_c, 4, 67, 48
6, 278699, Note_on_c, 4, 67, 0
6, 278699, Note_on_c, 4, 63, 0
6, 278699, Note_on_c, 4, 51, 0
6, 278880, Note_on_c, 4, 67, 48
6, 278880, Note_on_c, 4, 63, 48
6, 278880, Note_on_c, 4, 51, 48
6, 278939, Note_on_c, 4, 51, 0
6, 278939, Note_on_c, 4, 63, 0
6, 278939, Note_on_c, 4, 67, 0
6, 279120, Note_on_c, 4, 51, 48
6, 279120, Note_on_c, 4, 63, 48
6, 279120, Note_on_c, 4, 65, 48
6, 279179, Note_on_c, 4, 65, 0
6, 279179, Note_on_c, 4, 63, 0
6, 279179, Note_on_c, 4, 51, 0
6, 279360, Note_on_c, 4, 65, 48
6, 279360, Note_on_c, 4, 63, 48
6, 279360, Note_on_c, 4, 51, 48
6, 279419, Note_on_c, 4, 51, 0
6, 279419, Note_on_c, 4, 63, 0
6, 279419, Note_on_c, 4, 65, 0
6, 279600, Note_on_c, 4, 51, 48
6, 279600, Note_on_c, 4, 63, 48
6, 279600, Note_on_c, 4, 65, 48
6, 279659, Note_on_c, 4, 65, 0
6, 279659, Note_on_c, 4, 63, 0
6, 279659, Note_on_c, 4, 51, 0
6, 279720, Note_on_c, 4, 67, 48
6, 279720, Note_on_c, 4, 63, 48
6, 279720, Note_on_c, 4, 51, 48
6, 279779, Note_on_c, 4, 51, 0
6, 279779, Note_on_c, 4, 63, 0
6, 279779, Note_on_c, 4, 67, 0
6, 280080, Note_on_c, 4, 55, 54
6, 280080, Note_on_c, 4, 46, 54
6, 280080, Note_on_c, 4, 63, 54
6, 280440, Note_on_c, 4, 65, 60
6, 280440, Note_on_c, 4, 58, 60
6, 280449, Note_on_c, 4, 63, 0
6, 280449, Note_on_c, 4, 55, 0
6, 280559, Note_on_c, 4, 46, 0
6, 280559, Note_on_c, 4, 65, 0
6, 280559, Note_on_c, 4, 58, 0
6, 280560, Note_on_c, 4, 65, 62
6, 280560, Note_on_c, 4, 46, 62
6, 280560, Note_on_c, 4, 58, 62
6, 280619, Note_on_c, 4, 58, 0
6, 280619, Note_on_c, 4, 46, 0
6, 280619, Note_on_c, 4, 65, 0
6, 280680, Note_on_c, 4, 65, 64
6, 280680, Note_on_c, 4, 46, 64
6, 280680, Note_on_c, 4, 58, 64
6, 280739, Note_on_c, 4, 58, 0
6, 280739, Note_on_c, 4, 46, 0
6, 280739, Note_on_c, 4, 65, 0
6, 280800, Note_on_c, 4, 46, 48
6, 280800, Note_on_c, 4, 58, 48
6, 280859, Note_on_c, 4, 58, 0
6, 280859, Note_on_c, 4, 46, 0
6, 280920, Note_on_c, 4, 58, 48
6, 280920, Note_on_c, 4, 46, 48
6, 280979, Note_on_c, 4, 46, 0
6, 280979, Note_on_c, 4, 58, 0
6, 281040, Note_on_c, 4, 46, 48
6, 281040, Note_on_c, 4, 58, 48
6, 281099, Note_on_c, 4, 46, 0
6, 281159, Note_on_c, 4, 58, 0
6, 281160, Note_on_c, 4, 63, 48
6, 281160, Note_on_c, 4, 51, 48
6, 281160, Note_on_c, 4, 58, 48
6, 281219, Note_on_c, 4, 58, 0
6, 281219, Note_on_c, 4, 51, 0
6, 281400, Note_on_c, 4, 67, 48
6, 281409, Note_on_c, 4, 63, 0
6, 281520, Note_on_c, 4, 63, 48
6, 281529, Note_on_c, 4, 67, 0
6, 281760, Note_on_c, 4, 58, 48
6, 281769, Note_on_c, 4, 63, 0
6, 281879, Note_on_c, 4, 58, 0
6, 281880, Note_on_c, 4, 63, 48
6, 282000, Note_on_c, 4, 67, 48
6, 282009, Note_on_c, 4, 63, 0
6, 282119, Note_on_c, 4, 67, 0
6, 282120, Note_on_c, 4, 70, 48
6, 282179, Note_on_c, 4, 70, 0
6, 282240, Note_on_c, 4, 58, 48
6, 282240, Note_on_c, 4, 70, 48
6, 282360, Note_on_c, 4, 63, 48
6, 282369, Note_on_c, 4, 58, 0
6, 282479, Note_on_c, 4, 63, 0
6, 282480, Note_on_c, 4, 67, 48
6, 282539, Note_on_c, 4, 67, 0
6, 282599, Note_on_c, 4, 70, 0
6, 282600, Note_on_c, 4, 65, 48
6, 282600, Note_on_c, 4, 68, 48
6, 282719, Note_on_c, 4, 68, 0
6, 282840, Note_on_c, 4, 68, 48
6, 282849, Note_on_c, 4, 65, 0
6, 282960, Note_on_c, 4, 65, 48
6, 282969, Note_on_c, 4, 68, 0
6, 283200, Note_on_c, 4, 58, 48
6, 283209, Note_on_c, 4, 65, 0
6, 283319, Note_on_c, 4, 58, 0
6, 283320, Note_on_c, 4, 65, 48
6, 283440, Note_on_c, 4, 68, 48
6, 283449, Note_on_c, 4, 65, 0
6, 283559, Note_on_c, 4, 68, 0
6, 283560, Note_on_c, 4, 70, 48
6, 283619, Note_on_c, 4, 70, 0
6, 283680, Note_on_c, 4, 58, 48
6, 283680, Note_on_c, 4, 70, 48
6, 283800, Note_on_c, 4, 65, 48
6, 283809, Note_on_c, 4, 58, 0
6, 283919, Note_on_c, 4, 65, 0
6, 283920, Note_on_c, 4, 68, 48
6, 283979, Note_on_c, 4, 68, 0
6, 284040, Note_on_c, 4, 67, 48
6, 284519, Note_on_c, 4, 67, 0
6, 284519, Note_on_c, 4, 70, 0
6, 284520, Note_on_c, 4, 55, 48
6, 284520, Note_on_c, 4, 58, 48
6, 284520, Note_on_c, 4, 63, 48
6, 284639, Note_on_c, 4, 63, 0
6, 284639, Note_on_c, 4, 58, 0
6, 284640, Note_on_c, 4, 67, 48
6, 284640, Note_on_c, 4, 58, 48
6, 284640, Note_on_c, 4, 63, 48
6, 284649, Note_on_c, 4, 55, 0
6, 284759, Note_on_c, 4, 67, 0
6, 284759, Note_on_c, 4, 58, 0
6, 284759, Note_on_c, 4, 63, 0
6, 284760, Note_on_c, 4, 55, 48
6, 284760, Note_on_c, 4, 58, 48
6, 284760, Note_on_c, 4, 63, 48
6, 284999, Note_on_c, 4, 58, 0
6, 284999, Note_on_c, 4, 55, 0
6, 285000, Note_on_c, 4, 58, 48
6, 285000, Note_on_c, 4, 55, 48
6, 285000, Note_on_c, 4, 51, 48
6, 285009, Note_on_c, 4, 63, 0
6, 285119, Note_on_c, 4, 58, 0
6, 285119, Note_on_c, 4, 55, 0
6, 285119, Note_on_c, 4, 51, 0
6, 285120, Note_on_c, 4, 55, 48
6, 285120, Note_on_c, 4, 58, 48
6, 285120, Note_on_c, 4, 63, 48
6, 285239, Note_on_c, 4, 63, 0
6, 285239, Note_on_c, 4, 58, 0
6, 285240, Note_on_c, 4, 58, 48
6, 285240, Note_on_c, 4, 63, 48
6, 285240, Note_on_c, 4, 67, 48
6, 285249, Note_on_c, 4, 55, 0
6, 285359, Note_on_c, 4, 58, 0
6, 285359, Note_on_c, 4, 63, 0
6, 285359, Note_on_c, 4, 67, 0
6, 285360, Note_on_c, 4, 67, 48
6, 285360, Note_on_c, 4, 63, 48
6, 285360, Note_on_c, 4, 70, 48
6, 285419, Note_on_c, 4, 70, 0
6, 285419, Note_on_c, 4, 63, 0
6, 285419, Note_on_c, 4, 67, 0
6, 285480, Note_on_c, 4, 68, 48
6, 285480, Note_on_c, 4, 65, 48
6, 285480, Note_on_c, 4, 70, 48
6, 285839, Note_on_c, 4, 70, 0
6, 285839, Note_on_c, 4, 65, 0
6, 285839, Note_on_c, 4, 68, 0
6, 285840, Note_on_c, 4, 65, 48
6, 285840, Note_on_c, 4, 46, 48
6, 285840, Note_on_c, 4, 58, 48
6, 286079, Note_on_c, 4, 58, 0
6, 286079, Note_on_c, 4, 65, 0
6, 286080, Note_on_c, 4, 58, 48
6, 286080, Note_on_c, 4, 68, 48
6, 286080, Note_on_c, 4, 65, 48
6, 286089, Note_on_c, 4, 46, 0
6, 286199, Note_on_c, 4, 58, 0
6, 286199, Note_on_c, 4, 68, 0
6, 286199, Note_on_c, 4, 65, 0
6, 286200, Note_on_c, 4, 65, 48
6, 286200, Note_on_c, 4, 46, 48
6, 286200, Note_on_c, 4, 58, 48
6, 286439, Note_on_c, 4, 58, 0
6, 286439, Note_on_c, 4, 46, 0
6, 286440, Note_on_c, 4, 46, 48
6, 286440, Note_on_c, 4, 58, 48
6, 286449, Note_on_c, 4, 65, 0
6, 286559, Note_on_c, 4, 58, 0
6, 286559, Note_on_c, 4, 46, 0
6, 286560, Note_on_c, 4, 65, 48
6, 286560, Note_on_c, 4, 46, 48
6, 286560, Note_on_c, 4, 58, 48
6, 286679, Note_on_c, 4, 58, 0
6, 286679, Note_on_c, 4, 65, 0
6, 286680, Note_on_c, 4, 68, 48
6, 286680, Note_on_c, 4, 58, 48
6, 286680, Note_on_c, 4, 65, 48
6, 286689, Note_on_c, 4, 46, 0
6, 286799, Note_on_c, 4, 68, 0
6, 286799, Note_on_c, 4, 58, 0
6, 286799, Note_on_c, 4, 65, 0
6, 286800, Note_on_c, 4, 65, 48
6, 286800, Note_on_c, 4, 70, 48
6, 286800, Note_on_c, 4, 68, 48
6, 286859, Note_on_c, 4, 68, 0
6, 286859, Note_on_c, 4, 70, 0
6, 286859, Note_on_c, 4, 65, 0
6, 286920, Note_on_c, 4, 67, 48
6, 286920, Note_on_c, 4, 70, 48
6, 286920, Note_on_c, 4, 63, 48
6, 287759, Note_on_c, 4, 63, 0
6, 287759, Note_on_c, 4, 70, 0
6, 287759, Note_on_c, 4, 67, 0
6, 287760, Note_on_c, 4, 70, 62
6, 287760, Note_on_c, 4, 67, 62
6, 287760, Note_on_c, 4, 63, 62
6, 287879, Note_on_c, 4, 63, 0
6, 287879, Note_on_c, 4, 67, 0
6, 287879, Note_on_c, 4, 70, 0
6, 287880, Note_on_c, 4, 63, 64
6, 287880, Note_on_c, 4, 67, 64
6, 287880, Note_on_c, 4, 70, 64
6, 287999, Note_on_c, 4, 70, 0
6, 287999, Note_on_c, 4, 67, 0
6, 287999, Note_on_c, 4, 63, 0
6, 288000, Note_on_c, 4, 70, 66
6, 288000, Note_on_c, 4, 67, 66
6, 288000, Note_on_c, 4, 63, 66
6, 288119, Note_on_c, 4, 63, 0
6, 288119, Note_on_c, 4, 67, 0
6, 288119, Note_on_c, 4, 70, 0
6, 288120, Note_on_c, 4, 70, 68
6, 288120, Note_on_c, 4, 67, 68
6, 288120, Note_on_c, 4, 63, 68
6, 288239, Note_on_c, 4, 63, 0
6, 288239, Note_on_c, 4, 67, 0
6, 288239, Note_on_c, 4, 70, 0
6, 288240, Note_on_c, 4, 70, 70
6, 288240, Note_on_c, 4, 67, 70
6, 288240, Note_on_c, 4, 63, 70
6, 288359, Note_on_c, 4, 63, 0
6, 288359, Note_on_c, 4, 67, 0
6, 288359, Note_on_c, 4, 70, 0
6, 288360, Note_on_c, 4, 68, 72
6, 288360, Note_on_c, 4, 58, 72
6, 288360, Note_on_c, 4, 70, 72
6, 289199, Note_on_c, 4, 70, 0
6, 289199, Note_on_c, 4, 58, 0
6, 289199, Note_on_c, 4, 68, 0
6, 289200, Note_on_c, 4, 68, 86
6, 289200, Note_on_c, 4, 70, 86
6, 289200, Note_on_c, 4, 58, 86
6, 289319, Note_on_c, 4, 58, 0
6, 289319, Note_on_c, 4, 70, 0
6, 289319, Note_on_c, 4, 68, 0
6, 289320, Note_on_c, 4, 68, 88
6, 289320, Note_on_c, 4, 70, 88
6, 289320, Note_on_c, 4, 58, 88
6, 289439, Note_on_c, 4, 58, 0
6, 289439, Note_on_c, 4, 70, 0
6, 289439, Note_on_c, 4, 68, 0
6, 289440, Note_on_c, 4, 68, 90
6, 289440, Note_on_c, 4, 70, 90
6, 289440, Note_on_c, 4, 58, 90
6, 289559, Note_on_c, 4, 58, 0
6, 289559, Note_on_c, 4, 70, 0
6, 289559, Note_on_c, 4, 68, 0
6, 289560, Note_on_c, 4, 68, 92
6, 289560, Note_on_c, 4, 70, 92
6, 289560, Note_on_c, 4, 58, 92
6, 289679, Note_on_c, 4, 58, 0
6, 289679, Note_on_c, 4, 70, 0
6, 289679, Note_on_c, 4, 68, 0
6, 289680, Note_on_c, 4, 68, 94
6, 289680, Note_on_c, 4, 70, 94
6, 289680, Note_on_c, 4, 58, 94
6, 289799, Note_on_c, 4, 58, 0
6, 289799, Note_on_c, 4, 70, 0
6, 289799, Note_on_c, 4, 68, 0
6, 289800, Note_on_c, 4, 58, 96
6, 289800, Note_on_c, 4, 70, 96
6, 289800, Note_on_c, 4, 67, 96
6, 289919, Note_on_c, 4, 67, 0
6, 289919, Note_on_c, 4, 70, 0
6, 289919, Note_on_c, 4, 58, 0
6, 289920, Note_on_c, 4, 63, 96
6, 289920, Note_on_c, 4, 51, 96
6, 289920, Note_on_c, 4, 70, 96
6, 289979, Note_on_c, 4, 51, 0
6, 289979, Note_on_c, 4, 63, 0
6, 289980, Note_on_c, 4, 51, 96
6, 289980, Note_on_c, 4, 63, 96
6, 290039, Note_on_c, 4, 63, 0
6, 290039, Note_on_c, 4, 51, 0
6, 290039, Note_on_c, 4, 70, 0
6, 290040, Note_on_c, 4, 67, 96
6, 290040, Note_on_c, 4, 55, 96
6, 290040, Note_on_c, 4, 70, 96
6, 290099, Note_on_c, 4, 55, 0
6, 290099, Note_on_c, 4, 67, 0
6, 290100, Note_on_c, 4, 55, 96
6, 290100, Note_on_c, 4, 67, 96
6, 290159, Note_on_c, 4, 67, 0
6, 290159, Note_on_c, 4, 55, 0
6, 290159, Note_on_c, 4, 70, 0
6, 290160, Note_on_c, 4, 63, 96
6, 290160, Note_on_c, 4, 51, 96
6, 290160, Note_on_c, 4, 70, 96
6, 290219, Note_on_c, 4, 51, 0
6, 290219, Note_on_c, 4, 63, 0
6, 290220, Note_on_c, 4, 51, 96
6, 290220, Note_on_c, 4, 63, 96
6, 290279, Note_on_c, 4, 63, 0
6, 290279, Note_on_c, 4, 51, 0
6, 290279, Note_on_c, 4, 70, 0
6, 290280, Note_on_c, 4, 63, 96
6, 290280, Note_on_c, 4, 51, 96
6, 290280, Note_on_c, 4, 70, 96
6, 290339, Note_on_c, 4, 51, 0
6, 290339, Note_on_c, 4, 63, 0
6, 290340, Note_on_c, 4, 51, 96
6, 290340, Note_on_c, 4, 63, 96
6, 290399, Note_on_c, 4, 63, 0
6, 290399, Note_on_c, 4, 51, 0
6, 290399, Note_on_c, 4, 70, 0
6, 290400, Note_on_c, 4, 46, 96
6, 290400, Note_on_c, 4, 58, 96
6, 290400, Note_on_c, 4, 70, 96
6, 290459, Note_on_c, 4, 58, 0
6, 290459, Note_on_c, 4, 46, 0
6, 290460, Note_on_c, 4, 58, 96
6, 290460, Note_on_c, 4, 46, 96
6, 290519, Note_on_c, 4, 46, 0
6, 290519, Note_on_c, 4, 58, 0
6, 290519, Note_on_c, 4, 70, 0
6, 290520, Note_on_c, 4, 51, 96
6, 290520, Note_on_c, 4, 63, 96
6, 290520, Note_on_c, 4, 70, 96
6, 290579, Note_on_c, 4, 63, 0
6, 290579, Note_on_c, 4, 51, 0
6, 290580, Note_on_c, 4, 63, 96
6, 290580, Note_on_c, 4, 51, 96
6, 290639, Note_on_c, 4, 51, 0
6, 290639, Note_on_c, 4, 63, 0
6, 290639, Note_on_c, 4, 70, 0
6, 290640, Note_on_c, 4, 55, 96
6, 290640, Note_on_c, 4, 67, 96
6, 290640, Note_on_c, 4, 70, 96
6, 290699, Note_on_c, 4, 67, 0
6, 290699, Note_on_c, 4, 55, 0
6, 290700, Note_on_c, 4, 67, 96
6, 290700, Note_on_c, 4, 55, 96
6, 290759, Note_on_c, 4, 55, 0
6, 290759, Note_on_c, 4, 67, 0
6, 290759, Note_on_c, 4, 70, 0
6, 290760, Note_on_c, 4, 58, 96
6, 290760, Note_on_c, 4, 70, 96
6, 290819, Note_on_c, 4, 70, 0
6, 290819, Note_on_c, 4, 58, 0
6, 290820, Note_on_c, 4, 70, 96
6, 290820, Note_on_c, 4, 58, 96
6, 290879, Note_on_c, 4, 58, 0
6, 290879, Note_on_c, 4, 70, 0
6, 290880, Note_on_c, 4, 58, 96
6, 290880, Note_on_c, 4, 70, 96
6, 290939, Note_on_c, 4, 70, 0
6, 290939, Note_on_c, 4, 58, 0
6, 290940, Note_on_c, 4, 58, 96
6, 290940, Note_on_c, 4, 70, 96
6, 290999, Note_on_c, 4, 70, 0
6, 290999, Note_on_c, 4, 58, 0
6, 291000, Note_on_c, 4, 58, 96
6, 291000, Note_on_c, 4, 70, 96
6, 291059, Note_on_c, 4, 70, 0
6, 291059, Note_on_c, 4, 58, 0
6, 291060, Note_on_c, 4, 58, 96
6, 291060, Note_on_c, 4, 70, 96
6, 291119, Note_on_c, 4, 70, 0
6, 291119, Note_on_c, 4, 58, 0
6, 291120, Note_on_c, 4, 58, 96
6, 291120, Note_on_c, 4, 70, 96
6, 291179, Note_on_c, 4, 70, 0
6, 291179, Note_on_c, 4, 58, 0
6, 291180, Note_on_c, 4, 58, 96
6, 291180, Note_on_c, 4, 70, 96
6, 291239, Note_on_c, 4, 70, 0
6, 291239, Note_on_c, 4, 58, 0
6, 291240, Note_on_c, 4, 65, 96
6, 291240, Note_on_c, 4, 70, 96
6, 291299, Note_on_c, 4, 65, 0
6, 291300, Note_on_c, 4, 46, 96
6, 291300, Note_on_c, 4, 58, 96
6, 291359, Note_on_c, 4, 58, 0
6, 291359, Note_on_c, 4, 46, 0
6, 291359, Note_on_c, 4, 70, 0
6, 291360, Note_on_c, 4, 58, 96
6, 291360, Note_on_c, 4, 46, 96
6, 291360, Note_on_c, 4, 70, 96
6, 291419, Note_on_c, 4, 46, 0
6, 291419, Note_on_c, 4, 58, 0
6, 291420, Note_on_c, 4, 58, 96
6, 291420, Note_on_c, 4, 46, 96
6, 291479, Note_on_c, 4, 46, 0
6, 291479, Note_on_c, 4, 58, 0
6, 291479, Note_on_c, 4, 70, 0
6, 291480, Note_on_c, 4, 58, 96
6, 291480, Note_on_c, 4, 46, 96
6, 291480, Note_on_c, 4, 70, 96
6, 291539, Note_on_c, 4, 46, 0
6, 291539, Note_on_c, 4, 58, 0
6, 291540, Note_on_c, 4, 58, 96
6, 291540, Note_on_c, 4, 46, 96
6, 291599, Note_on_c, 4, 46, 0
6, 291599, Note_on_c, 4, 58, 0
6, 291599, Note_on_c, 4, 70, 0
6, 291600, Note_on_c, 4, 58, 96
6, 291600, Note_on_c, 4, 46, 96
6, 291600, Note_on_c, 4, 70, 96
6, 291659, Note_on_c, 4, 46, 0
6, 291659, Note_on_c, 4, 58, 0
6, 291660, Note_on_c, 4, 58, 96
6, 291660, Note_on_c, 4, 46, 96
6, 291719, Note_on_c, 4, 46, 0
6, 291719, Note_on_c, 4, 58, 0
6, 291719, Note_on_c, 4, 70, 0
6, 291720, Note_on_c, 4, 58, 96
6, 291720, Note_on_c, 4, 46, 96
6, 291720, Note_on_c, 4, 70, 96
6, 291779, Note_on_c, 4, 46, 0
6, 291779, Note_on_c, 4, 58, 0
6, 291780, Note_on_c, 4, 58, 96
6, 291780, Note_on_c, 4, 46, 96
6, 291839, Note_on_c, 4, 46, 0
6, 291839, Note_on_c, 4, 58, 0
6, 291839, Note_on_c, 4, 70, 0
6, 291840, Note_on_c, 4, 58, 96
6, 291840, Note_on_c, 4, 46, 96
6, 291840, Note_on_c, 4, 70, 96
6, 291899, Note_on_c, 4, 46, 0
6, 291899, Note_on_c, 4, 58, 0
6, 291900, Note_on_c, 4, 58, 96
6, 291900, Note_on_c, 4, 46, 96
6, 291959, Note_on_c, 4, 46, 0
6, 291959, Note_on_c, 4, 58, 0
6, 291959, Note_on_c, 4, 70, 0
6, 291960, Note_on_c, 4, 58, 96
6, 291960, Note_on_c, 4, 46, 96
6, 291960, Note_on_c, 4, 70, 96
6, 292019, Note_on_c, 4, 46, 0
6, 292019, Note_on_c, 4, 58, 0
6, 292020, Note_on_c, 4, 58, 96
6, 292020, Note_on_c, 4, 46, 96
6, 292079, Note_on_c, 4, 46, 0
6, 292079, Note_on_c, 4, 58, 0
6, 292079, Note_on_c, 4, 70, 0
6, 292080, Note_on_c, 4, 58, 96
6, 292080, Note_on_c, 4, 46, 96
6, 292139, Note_on_c, 4, 46, 0
6, 292139, Note_on_c, 4, 58, 0
6, 292140, Note_on_c, 4, 58, 96
6, 292140, Note_on_c, 4, 46, 96
6, 292199, Note_on_c, 4, 46, 0
6, 292199, Note_on_c, 4, 58, 0
6, 292200, Note_on_c, 4, 58, 96
6, 292200, Note_on_c, 4, 46, 96
6, 292259, Note_on_c, 4, 46, 0
6, 292259, Note_on_c, 4, 58, 0
6, 292260, Note_on_c, 4, 58, 96
6, 292260, Note_on_c, 4, 46, 96
6, 292319, Note_on_c, 4, 46, 0
6, 292319, Note_on_c, 4, 58, 0
6, 292320, Note_on_c, 4, 58, 96
6, 292320, Note_on_c, 4, 46, 96
6, 292379, Note_on_c, 4, 46, 0
6, 292379, Note_on_c, 4, 58, 0
6, 292380, Note_on_c, 4, 58, 96
6, 292380, Note_on_c, 4, 46, 96
6, 292439, Note_on_c, 4, 46, 0
6, 292439, Note_on_c, 4, 58, 0
6, 292440, Note_on_c, 4, 58, 96
6, 292440, Note_on_c, 4, 46, 96
6, 292499, Note_on_c, 4, 46, 0
6, 292499, Note_on_c, 4, 58, 0
6, 292500, Note_on_c, 4, 58, 96
6, 292500, Note_on_c, 4, 46, 96
6, 292559, Note_on_c, 4, 46, 0
6, 292559, Note_on_c, 4, 58, 0
6, 292560, Note_on_c, 4, 58, 96
6, 292560, Note_on_c, 4, 46, 96
6, 292619, Note_on_c, 4, 46, 0
6, 292619, Note_on_c, 4, 58, 0
6, 292620, Note_on_c, 4, 58, 96
6, 292620, Note_on_c, 4, 46, 96
6, 292679, Note_on_c, 4, 46, 0
6, 292679, Note_on_c, 4, 58, 0
6, 292680, Note_on_c, 4, 61, 96
6, 292680, Note_on_c, 4, 58, 96
6, 292680, Note_on_c, 4, 46, 96
6, 292739, Note_on_c, 4, 46, 0
6, 292739, Note_on_c, 4, 58, 0
6, 292740, Note_on_c, 4, 58, 96
6, 292740, Note_on_c, 4, 46, 96
6, 292799, Note_on_c, 4, 46, 0
6, 292799, Note_on_c, 4, 58, 0
6, 292799, Note_on_c, 4, 61, 0
6, 292800, Note_on_c, 4, 67, 96
6, 292800, Note_on_c, 4, 55, 96
6, 292800, Note_on_c, 4, 61, 96
6, 292859, Note_on_c, 4, 55, 0
6, 292859, Note_on_c, 4, 67, 0
6, 292860, Note_on_c, 4, 67, 96
6, 292860, Note_on_c, 4, 55, 96
6, 292919, Note_on_c, 4, 55, 0
6, 292919, Note_on_c, 4, 67, 0
6, 292919, Note_on_c, 4, 61, 0
6, 292920, Note_on_c, 4, 55, 96
6, 292920, Note_on_c, 4, 67, 96
6, 292979, Note_on_c, 4, 67, 0
6, 292979, Note_on_c, 4, 55, 0
6, 292980, Note_on_c, 4, 55, 96
6, 292980, Note_on_c, 4, 67, 96
6, 293039, Note_on_c, 4, 67, 0
6, 293039, Note_on_c, 4, 55, 0
6, 293040, Note_on_c, 4, 61, 96
6, 293040, Note_on_c, 4, 67, 96
6, 293040, Note_on_c, 4, 55, 96
6, 293399, Note_on_c, 4, 55, 0
6, 293399, Note_on_c, 4, 67, 0
6, 293399, Note_on_c, 4, 61, 0
6, 293400, Note_on_c, 4, 65, 96
6, 293400, Note_on_c, 4, 60, 96
6, 293519, Note_on_c, 4, 60, 0
6, 293519, Note_on_c, 4, 65, 0
6, 293520, Note_on_c, 4, 51, 112
6, 293520, Note_on_c, 4, 63, 112
6, 293520, Note_on_c, 4, 65, 112
6, 293579, Note_on_c, 4, 65, 0
6, 293579, Note_on_c, 4, 63, 0
6, 293579, Note_on_c, 4, 51, 0
6, 293580, Note_on_c, 4, 51, 96
6, 293580, Note_on_c, 4, 63, 96
6, 293580, Note_on_c, 4, 65, 96
6, 293639, Note_on_c, 4, 65, 0
6, 293639, Note_on_c, 4, 63, 0
6, 293639, Note_on_c, 4, 51, 0
6, 293640, Note_on_c, 4, 63, 96
6, 293640, Note_on_c, 4, 51, 96
6, 293640, Note_on_c, 4, 65, 96
6, 293759, Note_on_c, 4, 65, 0
6, 293759, Note_on_c, 4, 51, 0
6, 293759, Note_on_c, 4, 63, 0
6, 293880, Note_on_c, 4, 51, 112
6, 293880, Note_on_c, 4, 63, 112
6, 293939, Note_on_c, 4, 63, 0
6, 293939, Note_on_c, 4, 51, 0
6, 293940, Note_on_c, 4, 51, 96
6, 293940, Note_on_c, 4, 63, 96
6, 293999, Note_on_c, 4, 63, 0
6, 293999, Note_on_c, 4, 51, 0
6, 294000, Note_on_c, 4, 63, 96
6, 294000, Note_on_c, 4, 51, 96
6, 294119, Note_on_c, 4, 51, 0
6, 294119, Note_on_c, 4, 63, 0
6, 294240, Note_on_c, 4, 51, 112
6, 294240, Note_on_c, 4, 67, 112
6, 294240, Note_on_c, 4, 63, 112
6, 294299, Note_on_c, 4, 63, 0
6, 294299, Note_on_c, 4, 67, 0
6, 294299, Note_on_c, 4, 51, 0
6, 294300, Note_on_c, 4, 51, 96
6, 294300, Note_on_c, 4, 67, 96
6, 294300, Note_on_c, 4, 63, 96
6, 294359, Note_on_c, 4, 63, 0
6, 294359, Note_on_c, 4, 67, 0
6, 294359, Note_on_c, 4, 51, 0
6, 294360, Note_on_c, 4, 67, 96
6, 294360, Note_on_c, 4, 51, 96
6, 294360, Note_on_c, 4, 63, 96
6, 294479, Note_on_c, 4, 63, 0
6, 294479, Note_on_c, 4, 51, 0
6, 294479, Note_on_c, 4, 67, 0
6, 294600, Note_on_c, 4, 68, 96
6, 294600, Note_on_c, 4, 65, 96
6, 294659, Note_on_c, 4, 65, 0
6, 294659, Note_on_c, 4, 68, 0
6, 294660, Note_on_c, 4, 68, 96
6, 294660, Note_on_c, 4, 65, 96
6, 294719, Note_on_c, 4, 65, 0
6, 294719, Note_on_c, 4, 68, 0
6, 294720, Note_on_c, 4, 68, 96
6, 294720, Note_on_c, 4, 65, 96
6, 294839, Note_on_c, 4, 65, 0
6, 294839, Note_on_c, 4, 68, 0
6, 294960, Note_on_c, 4, 51, 96
6, 294960, Note_on_c, 4, 63, 96
6, 294960, Note_on_c, 4, 67, 96
6, 295019, Note_on_c, 4, 67, 0
6, 295019, Note_on_c, 4, 63, 0
6, 295019, Note_on_c, 4, 51, 0
6, 295020, Note_on_c, 4, 51, 96
6, 295020, Note_on_c, 4, 63, 96
6, 295020, Note_on_c, 4, 67, 96
6, 295079, Note_on_c, 4, 67, 0
6, 295079, Note_on_c, 4, 63, 0
6, 295079, Note_on_c, 4, 51, 0
6, 295080, Note_on_c, 4, 51, 96
6, 295080, Note_on_c, 4, 63, 96
6, 295080, Note_on_c, 4, 67, 96
6, 295199, Note_on_c, 4, 67, 0
6, 295199, Note_on_c, 4, 63, 0
6, 295199, Note_on_c, 4, 51, 0
6, 295320, Note_on_c, 4, 65, 96
6, 295320, Note_on_c, 4, 51, 96
6, 295320, Note_on_c, 4, 63, 96
6, 295379, Note_on_c, 4, 63, 0
6, 295379, Note_on_c, 4, 51, 0
6, 295379, Note_on_c, 4, 65, 0
6, 295380, Note_on_c, 4, 65, 96
6, 295380, Note_on_c, 4, 51, 96
6, 295380, Note_on_c, 4, 63, 96
6, 295439, Note_on_c, 4, 63, 0
6, 295439, Note_on_c, 4, 51, 0
6, 295439, Note_on_c, 4, 65, 0
6, 295440, Note_on_c, 4, 65, 96
6, 295440, Note_on_c, 4, 51, 96
6, 295440, Note_on_c, 4, 63, 96
6, 295559, Note_on_c, 4, 63, 0
6, 295559, Note_on_c, 4, 51, 0
6, 295559, Note_on_c, 4, 65, 0
6, 295560, Note_on_c, 4, 63, 127
6, 295560, Note_on_c, 4, 51, 127
6, 295560, Note_on_c, 4, 67, 127
6, 295619, Note_on_c, 4, 67, 0
6, 295619, Note_on_c, 4, 51, 0
6, 295619, Note_on_c, 4, 63, 0
6, 295620, Note_on_c, 4, 58, 127
6, 295620, Note_on_c, 4, 63, 127
6, 295620, Note_on_c, 4, 67, 127
6, 295679, Note_on_c, 4, 67, 0
6, 295679, Note_on_c, 4, 63, 0
6, 295679, Note_on_c, 4, 58, 0
6, 295680, Note_on_c, 4, 58, 127
6, 295680, Note_on_c, 4, 63, 127
6, 295680, Note_on_c, 4, 67, 127
6, 295739, Note_on_c, 4, 67, 0
6, 295739, Note_on_c, 4, 63, 0
6, 295739, Note_on_c, 4, 58, 0
6, 295740, Note_on_c, 4, 58, 127
6, 295740, Note_on_c, 4, 63, 127
6, 295740, Note_on_c, 4, 67, 127
6, 295799, Note_on_c, 4, 67, 0
6, 295799, Note_on_c, 4, 63, 0
6, 295799, Note_on_c, 4, 58, 0
6, 295800, Note_on_c, 4, 58, 127
6, 295800, Note_on_c, 4, 63, 127
6, 295800, Note_on_c, 4, 67, 127
6, 295859, Note_on_c, 4, 67, 0
6, 295859, Note_on_c, 4, 63, 0
6, 295859, Note_on_c, 4, 58, 0
6, 295860, Note_on_c, 4, 58, 127
6, 295860, Note_on_c, 4, 63, 127
6, 295860, Note_on_c, 4, 67, 127
6, 295919, Note_on_c, 4, 67, 0
6, 295919, Note_on_c, 4, 63, 0
6, 295919, Note_on_c, 4, 58, 0
6, 295920, Note_on_c, 4, 65, 127
6, 295920, Note_on_c, 4, 58, 127
6, 295979, Note_on_c, 4, 58, 0
6, 295979, Note_on_c, 4, 65, 0
6, 295980, Note_on_c, 4, 65, 127
6, 295980, Note_on_c, 4, 58, 127
6, 296039, Note_on_c, 4, 58, 0
6, 296039, Note_on_c, 4, 65, 0
6, 296040, Note_on_c, 4, 65, 127
6, 296040, Note_on_c, 4, 58, 127
6, 296099, Note_on_c, 4, 58, 0
6, 296099, Note_on_c, 4, 65, 0
6, 296100, Note_on_c, 4, 65, 127
6, 296100, Note_on_c, 4, 58, 127
6, 296159, Note_on_c, 4, 58, 0
6, 296159, Note_on_c, 4, 65, 0
6, 296160, Note_on_c, 4, 65, 127
6, 296160, Note_on_c, 4, 58, 127
6, 296219, Note_on_c, 4, 58, 0
6, 296219, Note_on_c, 4, 65, 0
6, 296220, Note_on_c, 4, 65, 127
6, 296220, Note_on_c, 4, 58, 127
6, 296279, Note_on_c, 4, 58, 0
6, 296279, Note_on_c, 4, 65, 0
6, 296280, Note_on_c, 4, 51, 48
6, 296280, Note_on_c, 4, 63, 48
6, 297120, Note_on_c, 4, 46, 48
6, 297120, Note_on_c, 4, 58, 48
6, 297129, Note_on_c, 4, 63, 0
6, 297129, Note_on_c, 4, 51, 0
6, 297239, Note_on_c, 4, 46, 0
6, 297239, Note_on_c, 4, 58, 0
6, 297240, Note_on_c, 4, 58, 48
6, 297240, Note_on_c, 4, 46, 48
6, 297329, Note_on_c, 4, 46, 0
6, 297329, Note_on_c, 4, 58, 0
6, 297360, Note_on_c, 4, 58, 48
6, 297360, Note_on_c, 4, 46, 48
6, 297449, Note_on_c, 4, 46, 0
6, 297449, Note_on_c, 4, 58, 0
6, 297480, Note_on_c, 4, 58, 48
6, 297480, Note_on_c, 4, 46, 48
6, 297569, Note_on_c, 4, 46, 0
6, 297569, Note_on_c, 4, 58, 0
6, 297600, Note_on_c, 4, 58, 48
6, 297600, Note_on_c, 4, 46, 48
6, 297689, Note_on_c, 4, 46, 0
6, 297689, Note_on_c, 4, 58, 0
6, 297720, Note_on_c, 4, 51, 48
6, 297720, Note_on_c, 4, 63, 48
6, 297839, Note_on_c, 4, 63, 0
6, 297839, Note_on_c, 4, 51, 0
6, 299280, Note_on_c, 4, 65, 96
6, 299280, Note_on_c, 4, 46, 96
6, 299280, Note_on_c, 4, 58, 96
6, 299639, Note_on_c, 4, 58, 0
6, 299639, Note_on_c, 4, 46, 0
6, 299639, Note_on_c, 4, 65, 0
6, 299640, Note_on_c, 4, 46, 96
6, 299640, Note_on_c, 4, 58, 96
6, 299640, Note_on_c, 4, 65, 96
6, 299999, Note_on_c, 4, 65, 0
6, 299999, Note_on_c, 4, 58, 0
6, 299999, Note_on_c, 4, 46, 0
6, 300000, Note_on_c, 4, 65, 96
6, 300000, Note_on_c, 4, 58, 96
6, 300000, Note_on_c, 4, 46, 96
6, 300239, Note_on_c, 4, 46, 0
6, 300239, Note_on_c, 4, 58, 0
6, 300239, Note_on_c, 4, 65, 0
6, 300240, Note_on_c, 4, 46, 96
6, 300240, Note_on_c, 4, 58, 96
6, 300240, Note_on_c, 4, 65, 96
6, 300479, Note_on_c, 4, 65, 0
6, 300479, Note_on_c, 4, 58, 0
6, 300479, Note_on_c, 4, 46, 0
6, 300480, Note_on_c, 4, 65, 96
6, 300480, Note_on_c, 4, 58, 96
6, 300480, Note_on_c, 4, 46, 96
6, 300539, Note_on_c, 4, 46, 0
6, 300539, Note_on_c, 4, 58, 0
6, 300539, Note_on_c, 4, 65, 0
6, 300600, Note_on_c, 4, 46, 96
6, 300600, Note_on_c, 4, 58, 96
6, 300600, Note_on_c, 4, 65, 96
6, 300659, Note_on_c, 4, 65, 0
6, 300659, Note_on_c, 4, 58, 0
6, 300659, Note_on_c, 4, 46, 0
6, 300720, Note_on_c, 4, 68, 127
6, 300720, Note_on_c, 4, 65, 127
6, 300720, Note_on_c, 4, 46, 127
6, 300779, Note_on_c, 4, 46, 0
6, 300779, Note_on_c, 4, 65, 0
6, 300779, Note_on_c, 4, 68, 0
6, 300840, Note_on_c, 4, 68, 127
6, 300840, Note_on_c, 4, 65, 127
6, 300840, Note_on_c, 4, 46, 127
6, 300899, Note_on_c, 4, 46, 0
6, 300899, Note_on_c, 4, 65, 0
6, 300899, Note_on_c, 4, 68, 0
6, 300960, Note_on_c, 4, 68, 127
6, 300960, Note_on_c, 4, 65, 127
6, 300960, Note_on_c, 4, 46, 127
6, 301019, Note_on_c, 4, 46, 0
6, 301019, Note_on_c, 4, 65, 0
6, 301019, Note_on_c, 4, 68, 0
6, 301080, Note_on_c, 4, 68, 127
6, 301080, Note_on_c, 4, 65, 127
6, 301080, Note_on_c, 4, 46, 127
6, 301139, Note_on_c, 4, 46, 0
6, 301139, Note_on_c, 4, 65, 0
6, 301139, Note_on_c, 4, 68, 0
6, 301200, Note_on_c, 4, 68, 127
6, 301200, Note_on_c, 4, 65, 127
6, 301200, Note_on_c, 4, 46, 127
6, 301259, Note_on_c, 4, 46, 0
6, 301259, Note_on_c, 4, 65, 0
6, 301259, Note_on_c, 4, 68, 0
6, 301320, Note_on_c, 4, 68, 127
6, 301320, Note_on_c, 4, 65, 127
6, 301320, Note_on_c, 4, 46, 127
6, 301379, Note_on_c, 4, 46, 0
6, 301379, Note_on_c, 4, 65, 0
6, 301379, Note_on_c, 4, 68, 0
6, 301440, Note_on_c, 4, 68, 127
6, 301440, Note_on_c, 4, 65, 127
6, 301440, Note_on_c, 4, 46, 127
6, 301499, Note_on_c, 4, 46, 0
6, 301499, Note_on_c, 4, 65, 0
6, 301499, Note_on_c, 4, 68, 0
6, 301560, Note_on_c, 4, 68, 127
6, 301560, Note_on_c, 4, 65, 127
6, 301560, Note_on_c, 4, 46, 127
6, 301619, Note_on_c, 4, 46, 0
6, 301619, Note_on_c, 4, 65, 0
6, 301619, Note_on_c, 4, 68, 0
6, 301680, Note_on_c, 4, 68, 127
6, 301680, Note_on_c, 4, 65, 127
6, 301680, Note_on_c, 4, 46, 127
6, 301739, Note_on_c, 4, 46, 0
6, 301739, Note_on_c, 4, 65, 0
6, 301739, Note_on_c, 4, 68, 0
6, 301800, Note_on_c, 4, 68, 127
6, 301800, Note_on_c, 4, 65, 127
6, 301800, Note_on_c, 4, 46, 127
6, 301859, Note_on_c, 4, 46, 0
6, 301859, Note_on_c, 4, 65, 0
6, 301859, Note_on_c, 4, 68, 0
6, 301920, Note_on_c, 4, 68, 127
6, 301920, Note_on_c, 4, 65, 127
6, 301920, Note_on_c, 4, 46, 127
6, 301979, Note_on_c, 4, 46, 0
6, 301979, Note_on_c, 4, 65, 0
6, 301979, Note_on_c, 4, 68, 0
6, 302040, Note_on_c, 4, 67, 127
6, 302040, Note_on_c, 4, 51, 127
6, 302040, Note_on_c, 4, 63, 127
6, 302159, Note_on_c, 4, 63, 0
6, 302159, Note_on_c, 4, 51, 0
6, 302159, Note_on_c, 4, 67, 0
6, 302400, Note_on_c, 4, 63, 127
6, 302400, Note_on_c, 4, 67, 127
6, 302519, Note_on_c, 4, 67, 0
6, 302519, Note_on_c, 4, 63, 0
6, 302760, Note_on_c, 4, 55, 127
6, 302760, Note_on_c, 4, 63, 127
6, 302879, Note_on_c, 4, 63, 0
6, 302879, Note_on_c, 4, 55, 0
6, 302879, End_track
7, 0, Start_track
7, 0, MIDI_port, 0
7, 0, Title_t, "Trumpets"
7, 0, Program_c, 5, 56
7, 0, Control_c, 5, 7, 127
7, 0, Control_c, 5, 10, 74
7, 0, Control_c, 5, 93, 0
7, 0, Control_c, 5, 91, 0
7, 0, Note_on_c, 5, 63, 96
7, 0, Note_on_c, 5, 75, 96
7, 59, Note_on_c, 5, 75, 0
7, 59, Note_on_c, 5, 63, 0
7, 360, Note_on_c, 5, 75, 96
7, 360, Note_on_c, 5, 63, 96
7, 419, Note_on_c, 5, 63, 0
7, 419, Note_on_c, 5, 75, 0
7, 12960, Note_on_c, 5, 63, 127
7, 13199, Note_on_c, 5, 63, 0
7, 13200, Note_on_c, 5, 67, 127
7, 13319, Note_on_c, 5, 67, 0
7, 13320, Note_on_c, 5, 63, 127
7, 13559, Note_on_c, 5, 63, 0
7, 13560, Note_on_c, 5, 58, 127
7, 13679, Note_on_c, 5, 58, 0
7, 13680, Note_on_c, 5, 63, 127
7, 13799, Note_on_c, 5, 63, 0
7, 13800, Note_on_c, 5, 67, 127
7, 13919, Note_on_c, 5, 67, 0
7, 13920, Note_on_c, 5, 70, 127
7, 14039, Note_on_c, 5, 70, 0
7, 14040, Note_on_c, 5, 63, 127
7, 14279, Note_on_c, 5, 63, 0
7, 14280, Note_on_c, 5, 67, 127
7, 14399, Note_on_c, 5, 67, 0
7, 14400, Note_on_c, 5, 67, 127
7, 14519, Note_on_c, 5, 67, 0
7, 14520, Note_on_c, 5, 67, 127
7, 14639, Note_on_c, 5, 67, 0
7, 14640, Note_on_c, 5, 67, 127
7, 14759, Note_on_c, 5, 67, 0
7, 14760, Note_on_c, 5, 67, 127
7, 14999, Note_on_c, 5, 67, 0
7, 15000, Note_on_c, 5, 63, 127
7, 15119, Note_on_c, 5, 63, 0
7, 15120, Note_on_c, 5, 63, 127
7, 15120, Note_on_c, 5, 75, 127
7, 15479, Note_on_c, 5, 75, 0
7, 15479, Note_on_c, 5, 63, 0
7, 15480, Note_on_c, 5, 70, 127
7, 15480, Note_on_c, 5, 58, 127
7, 15839, Note_on_c, 5, 58, 0
7, 15839, Note_on_c, 5, 70, 0
7, 15840, Note_on_c, 5, 72, 127
7, 15959, Note_on_c, 5, 72, 0
7, 19560, Note_on_c, 5, 77, 127
7, 19739, Note_on_c, 5, 77, 0
7, 19740, Note_on_c, 5, 77, 127
7, 19799, Note_on_c, 5, 77, 0
7, 19800, Note_on_c, 5, 77, 127
7, 19859, Note_on_c, 5, 77, 0
7, 19920, Note_on_c, 5, 77, 127
7, 19979, Note_on_c, 5, 77, 0
7, 20040, Note_on_c, 5, 77, 127
7, 20099, Note_on_c, 5, 77, 0
7, 20160, Note_on_c, 5, 70, 48
7, 20279, Note_on_c, 5, 70, 0
7, 23040, Note_on_c, 5, 70, 96
7, 23040, Note_on_c, 5, 58, 96
7, 23099, Note_on_c, 5, 58, 0
7, 23099, Note_on_c, 5, 70, 0
7, 23160, Note_on_c, 5, 70, 96
7, 23160, Note_on_c, 5, 58, 96
7, 23219, Note_on_c, 5, 58, 0
7, 23219, Note_on_c, 5, 70, 0
7, 23700, Note_on_c, 5, 58, 96
7, 23700, Note_on_c, 5, 70, 96
7, 23729, Note_on_c, 5, 70, 0
7, 23729, Note_on_c, 5, 58, 0
7, 23760, Note_on_c, 5, 67, 96
7, 23760, Note_on_c, 5, 55, 96
7, 23819, Note_on_c, 5, 55, 0
7, 23819, Note_on_c, 5, 67, 0
7, 23880, Note_on_c, 5, 55, 96
7, 23880, Note_on_c, 5, 67, 96
7, 23939, Note_on_c, 5, 67, 0
7, 23939, Note_on_c, 5, 55, 0
7, 24420, Note_on_c, 5, 74, 96
7, 24420, Note_on_c, 5, 62, 96
7, 24449, Note_on_c, 5, 62, 0
7, 24449, Note_on_c, 5, 74, 0
7, 24480, Note_on_c, 5, 72, 96
7, 24539, Note_on_c, 5, 72, 0
7, 24600, Note_on_c, 5, 72, 96
7, 24659, Note_on_c, 5, 72, 0
7, 25140, Note_on_c, 5, 72, 96
7, 25169, Note_on_c, 5, 72, 0
7, 25200, Note_on_c, 5, 70, 96
7, 25319, Note_on_c, 5, 70, 0
7, 26040, Note_on_c, 5, 53, 96
7, 26040, Note_on_c, 5, 65, 96
7, 26159, Note_on_c, 5, 65, 0
7, 26159, Note_on_c, 5, 53, 0
7, 26160, Note_on_c, 5, 53, 96
7, 26160, Note_on_c, 5, 65, 96
7, 26279, Note_on_c, 5, 65, 0
7, 26279, Note_on_c, 5, 53, 0
7, 26280, Note_on_c, 5, 53, 96
7, 26280, Note_on_c, 5, 65, 96
7, 26399, Note_on_c, 5, 65, 0
7, 26399, Note_on_c, 5, 53, 0
7, 26400, Note_on_c, 5, 53, 96
7, 26400, Note_on_c, 5, 65, 96
7, 26519, Note_on_c, 5, 65, 0
7, 26519, Note_on_c, 5, 53, 0
7, 26520, Note_on_c, 5, 53, 96
7, 26520, Note_on_c, 5, 65, 96
7, 26639, Note_on_c, 5, 65, 0
7, 26639, Note_on_c, 5, 53, 0
7, 26640, Note_on_c, 5, 65, 96
7, 26640, Note_on_c, 5, 53, 96
7, 26759, Note_on_c, 5, 53, 0
7, 26759, Note_on_c, 5, 65, 0
7, 27000, Note_on_c, 5, 74, 96
7, 27000, Note_on_c, 5, 62, 96
7, 27359, Note_on_c, 5, 62, 0
7, 27359, Note_on_c, 5, 74, 0
7, 27360, Note_on_c, 5, 72, 96
7, 27479, Note_on_c, 5, 72, 0
7, 28080, Note_on_c, 5, 72, 96
7, 28919, Note_on_c, 5, 72, 0
7, 28920, Note_on_c, 5, 72, 127
7, 29039, Note_on_c, 5, 72, 0
7, 29040, Note_on_c, 5, 72, 127
7, 29159, Note_on_c, 5, 72, 0
7, 29160, Note_on_c, 5, 72, 127
7, 29279, Note_on_c, 5, 72, 0
7, 29280, Note_on_c, 5, 72, 127
7, 29399, Note_on_c, 5, 72, 0
7, 29400, Note_on_c, 5, 72, 127
7, 29519, Note_on_c, 5, 72, 0
7, 29520, Note_on_c, 5, 53, 127
7, 29520, Note_on_c, 5, 65, 127
7, 29639, Note_on_c, 5, 65, 0
7, 29639, Note_on_c, 5, 53, 0
7, 39000, Note_on_c, 5, 77, 112
7, 39239, Note_on_c, 5, 77, 0
7, 39360, Note_on_c, 5, 77, 112
7, 39599, Note_on_c, 5, 77, 0
7, 39720, Note_on_c, 5, 77, 112
7, 39959, Note_on_c, 5, 77, 0
7, 40080, Note_on_c, 5, 77, 112
7, 40199, Note_on_c, 5, 77, 0
7, 40200, Note_on_c, 5, 77, 96
7, 40319, Note_on_c, 5, 77, 0
7, 40320, Note_on_c, 5, 77, 127
7, 41519, Note_on_c, 5, 77, 0
7, 41520, Note_on_c, 5, 77, 127
7, 41639, Note_on_c, 5, 77, 0
7, 41640, Note_on_c, 5, 77, 127
7, 41759, Note_on_c, 5, 77, 0
7, 41760, Note_on_c, 5, 77, 127
7, 41879, Note_on_c, 5, 77, 0
7, 41880, Note_on_c, 5, 58, 127
7, 41880, Note_on_c, 5, 70, 127
7, 42179, Note_on_c, 5, 70, 0
7, 42179, Note_on_c, 5, 58, 0
7, 44520, Note_on_c, 5, 67, 127
7, 44520, Note_on_c, 5, 63, 127
7, 44579, Note_on_c, 5, 63, 0
7, 44579, Note_on_c, 5, 67, 0
7, 45240, Note_on_c, 5, 58, 127
7, 45240, Note_on_c, 5, 70, 127
7, 45299, Note_on_c, 5, 70, 0
7, 45299, Note_on_c, 5, 58, 0
7, 45600, Note_on_c, 5, 75, 127
7, 45600, Note_on_c, 5, 63, 127
7, 45659, Note_on_c, 5, 63, 0
7, 45659, Note_on_c, 5, 75, 0
7, 45840, Note_on_c, 5, 70, 127
7, 45840, Note_on_c, 5, 58, 127
7, 45899, Note_on_c, 5, 58, 0
7, 45899, Note_on_c, 5, 70, 0
7, 46080, Note_on_c, 5, 58, 127
7, 46080, Note_on_c, 5, 70, 127
7, 46139, Note_on_c, 5, 70, 0
7, 46139, Note_on_c, 5, 58, 0
7, 46320, Note_on_c, 5, 70, 127
7, 46320, Note_on_c, 5, 58, 127
7, 46379, Note_on_c, 5, 58, 0
7, 46379, Note_on_c, 5, 70, 0
7, 46560, Note_on_c, 5, 58, 127
7, 46560, Note_on_c, 5, 70, 127
7, 46619, Note_on_c, 5, 70, 0
7, 46619, Note_on_c, 5, 58, 0
7, 46800, Note_on_c, 5, 70, 127
7, 46800, Note_on_c, 5, 58, 127
7, 46859, Note_on_c, 5, 58, 0
7, 46859, Note_on_c, 5, 70, 0
7, 47040, Note_on_c, 5, 58, 127
7, 47040, Note_on_c, 5, 70, 127
7, 47099, Note_on_c, 5, 70, 0
7, 47099, Note_on_c, 5, 58, 0
7, 51120, Note_on_c, 5, 77, 127
7, 51479, Note_on_c, 5, 77, 0
7, 51480, Note_on_c, 5, 58, 96
7, 51480, Note_on_c, 5, 70, 96
7, 51539, Note_on_c, 5, 70, 0
7, 51539, Note_on_c, 5, 58, 0
7, 51840, Note_on_c, 5, 70, 96
7, 51840, Note_on_c, 5, 58, 96
7, 51899, Note_on_c, 5, 58, 0
7, 51899, Note_on_c, 5, 70, 0
7, 52200, Note_on_c, 5, 58, 96
7, 52200, Note_on_c, 5, 70, 96
7, 52259, Note_on_c, 5, 70, 0
7, 52259, Note_on_c, 5, 58, 0
7, 52560, Note_on_c, 5, 70, 96
7, 52560, Note_on_c, 5, 58, 96
7, 52619, Note_on_c, 5, 58, 0
7, 52619, Note_on_c, 5, 70, 0
7, 52680, Note_on_c, 5, 58, 96
7, 52680, Note_on_c, 5, 70, 96
7, 52739, Note_on_c, 5, 70, 0
7, 52739, Note_on_c, 5, 58, 0
7, 52800, Note_on_c, 5, 70, 96
7, 52800, Note_on_c, 5, 58, 96
7, 52859, Note_on_c, 5, 58, 0
7, 52859, Note_on_c, 5, 70, 0
7, 52920, Note_on_c, 5, 58, 96
7, 52920, Note_on_c, 5, 70, 96
7, 52979, Note_on_c, 5, 70, 0
7, 52979, Note_on_c, 5, 58, 0
7, 67320, Note_on_c, 5, 63, 127
7, 67559, Note_on_c, 5, 63, 0
7, 67560, Note_on_c, 5, 67, 127
7, 67679, Note_on_c, 5, 67, 0
7, 67680, Note_on_c, 5, 63, 127
7, 67919, Note_on_c, 5, 63, 0
7, 67920, Note_on_c, 5, 58, 127
7, 68039, Note_on_c, 5, 58, 0
7, 68040, Note_on_c, 5, 63, 127
7, 68159, Note_on_c, 5, 63, 0
7, 68160, Note_on_c, 5, 67, 127
7, 68279, Note_on_c, 5, 67, 0
7, 68280, Note_on_c, 5, 70, 127
7, 68399, Note_on_c, 5, 70, 0
7, 68400, Note_on_c, 5, 63, 127
7, 68639, Note_on_c, 5, 63, 0
7, 68640, Note_on_c, 5, 67, 127
7, 68759, Note_on_c, 5, 67, 0
7, 68760, Note_on_c, 5, 67, 127
7, 68879, Note_on_c, 5, 67, 0
7, 68880, Note_on_c, 5, 67, 127
7, 68999, Note_on_c, 5, 67, 0
7, 69000, Note_on_c, 5, 67, 127
7, 69119, Note_on_c, 5, 67, 0
7, 69120, Note_on_c, 5, 67, 127
7, 69359, Note_on_c, 5, 67, 0
7, 69360, Note_on_c, 5, 63, 127
7, 69479, Note_on_c, 5, 63, 0
7, 69480, Note_on_c, 5, 63, 127
7, 69480, Note_on_c, 5, 75, 127
7, 69839, Note_on_c, 5, 75, 0
7, 69839, Note_on_c, 5, 63, 0
7, 69840, Note_on_c, 5, 70, 127
7, 69840, Note_on_c, 5, 58, 127
7, 70199, Note_on_c, 5, 58, 0
7, 70199, Note_on_c, 5, 70, 0
7, 70200, Note_on_c, 5, 72, 127
7, 70319, Note_on_c, 5, 72, 0
7, 73920, Note_on_c, 5, 77, 127
7, 74099, Note_on_c, 5, 77, 0
7, 74100, Note_on_c, 5, 77, 127
7, 74159, Note_on_c, 5, 77, 0
7, 74160, Note_on_c, 5, 77, 127
7, 74219, Note_on_c, 5, 77, 0
7, 74280, Note_on_c, 5, 77, 127
7, 74339, Note_on_c, 5, 77, 0
7, 74400, Note_on_c, 5, 77, 127
7, 74459, Note_on_c, 5, 77, 0
7, 74520, Note_on_c, 5, 70, 48
7, 74639, Note_on_c, 5, 70, 0
7, 77400, Note_on_c, 5, 70, 96
7, 77400, Note_on_c, 5, 58, 96
7, 77459, Note_on_c, 5, 58, 0
7, 77459, Note_on_c, 5, 70, 0
7, 77520, Note_on_c, 5, 70, 96
7, 77520, Note_on_c, 5, 58, 96
7, 77579, Note_on_c, 5, 58, 0
7, 77579, Note_on_c, 5, 70, 0
7, 78060, Note_on_c, 5, 58, 96
7, 78060, Note_on_c, 5, 70, 96
7, 78089, Note_on_c, 5, 70, 0
7, 78089, Note_on_c, 5, 58, 0
7, 78120, Note_on_c, 5, 67, 96
7, 78120, Note_on_c, 5, 55, 96
7, 78179, Note_on_c, 5, 55, 0
7, 78179, Note_on_c, 5, 67, 0
7, 78240, Note_on_c, 5, 55, 96
7, 78240, Note_on_c, 5, 67, 96
7, 78299, Note_on_c, 5, 67, 0
7, 78299, Note_on_c, 5, 55, 0
7, 78780, Note_on_c, 5, 74, 96
7, 78780, Note_on_c, 5, 62, 96
7, 78809, Note_on_c, 5, 62, 0
7, 78809, Note_on_c, 5, 74, 0
7, 78840, Note_on_c, 5, 72, 96
7, 78899, Note_on_c, 5, 72, 0
7, 78960, Note_on_c, 5, 72, 96
7, 79019, Note_on_c, 5, 72, 0
7, 79500, Note_on_c, 5, 72, 96
7, 79529, Note_on_c, 5, 72, 0
7, 79560, Note_on_c, 5, 70, 96
7, 79679, Note_on_c, 5, 70, 0
7, 80400, Note_on_c, 5, 53, 96
7, 80400, Note_on_c, 5, 65, 96
7, 80519, Note_on_c, 5, 65, 0
7, 80519, Note_on_c, 5, 53, 0
7, 80520, Note_on_c, 5, 53, 96
7, 80520, Note_on_c, 5, 65, 96
7, 80639, Note_on_c, 5, 65, 0
7, 80639, Note_on_c, 5, 53, 0
7, 80640, Note_on_c, 5, 53, 96
7, 80640, Note_on_c, 5, 65, 96
7, 80759, Note_on_c, 5, 65, 0
7, 80759, Note_on_c, 5, 53, 0
7, 80760, Note_on_c, 5, 53, 96
7, 80760, Note_on_c, 5, 65, 96
7, 80879, Note_on_c, 5, 65, 0
7, 80879, Note_on_c, 5, 53, 0
7, 80880, Note_on_c, 5, 53, 96
7, 80880, Note_on_c, 5, 65, 96
7, 80999, Note_on_c, 5, 65, 0
7, 80999, Note_on_c, 5, 53, 0
7, 81000, Note_on_c, 5, 65, 96
7, 81000, Note_on_c, 5, 53, 96
7, 81119, Note_on_c, 5, 53, 0
7, 81119, Note_on_c, 5, 65, 0
7, 81360, Note_on_c, 5, 74, 96
7, 81360, Note_on_c, 5, 62, 96
7, 81719, Note_on_c, 5, 62, 0
7, 81719, Note_on_c, 5, 74, 0
7, 81720, Note_on_c, 5, 72, 96
7, 81839, Note_on_c, 5, 72, 0
7, 82440, Note_on_c, 5, 72, 96
7, 83279, Note_on_c, 5, 72, 0
7, 83280, Note_on_c, 5, 72, 127
7, 83399, Note_on_c, 5, 72, 0
7, 83400, Note_on_c, 5, 72, 127
7, 83519, Note_on_c, 5, 72, 0
7, 83520, Note_on_c, 5, 72, 127
7, 83639, Note_on_c, 5, 72, 0
7, 83640, Note_on_c, 5, 72, 127
7, 83759, Note_on_c, 5, 72, 0
7, 83760, Note_on_c, 5, 72, 127
7, 83879, Note_on_c, 5, 72, 0
7, 83880, Note_on_c, 5, 53, 127
7, 83880, Note_on_c, 5, 65, 127
7, 83999, Note_on_c, 5, 65, 0
7, 83999, Note_on_c, 5, 53, 0
7, 93360, Note_on_c, 5, 77, 112
7, 93599, Note_on_c, 5, 77, 0
7, 93720, Note_on_c, 5, 77, 112
7, 93959, Note_on_c, 5, 77, 0
7, 94080, Note_on_c, 5, 77, 112
7, 94319, Note_on_c, 5, 77, 0
7, 94440, Note_on_c, 5, 77, 112
7, 94559, Note_on_c, 5, 77, 0
7, 94560, Note_on_c, 5, 77, 96
7, 94679, Note_on_c, 5, 77, 0
7, 94680, Note_on_c, 5, 77, 127
7, 95879, Note_on_c, 5, 77, 0
7, 95880, Note_on_c, 5, 77, 127
7, 95999, Note_on_c, 5, 77, 0
7, 96000, Note_on_c, 5, 77, 127
7, 96119, Note_on_c, 5, 77, 0
7, 96120, Note_on_c, 5, 77, 127
7, 96239, Note_on_c, 5, 77, 0
7, 96240, Note_on_c, 5, 58, 127
7, 96240, Note_on_c, 5, 70, 127
7, 96539, Note_on_c, 5, 70, 0
7, 96539, Note_on_c, 5, 58, 0
7, 98880, Note_on_c, 5, 67, 127
7, 98880, Note_on_c, 5, 63, 127
7, 98939, Note_on_c, 5, 63, 0
7, 98939, Note_on_c, 5, 67, 0
7, 99600, Note_on_c, 5, 58, 127
7, 99600, Note_on_c, 5, 70, 127
7, 99659, Note_on_c, 5, 70, 0
7, 99659, Note_on_c, 5, 58, 0
7, 99960, Note_on_c, 5, 75, 127
7, 99960, Note_on_c, 5, 63, 127
7, 100019, Note_on_c, 5, 63, 0
7, 100019, Note_on_c, 5, 75, 0
7, 100200, Note_on_c, 5, 70, 127
7, 100200, Note_on_c, 5, 58, 127
7, 100259, Note_on_c, 5, 58, 0
7, 100259, Note_on_c, 5, 70, 0
7, 100440, Note_on_c, 5, 58, 127
7, 100440, Note_on_c, 5, 70, 127
7, 100499, Note_on_c, 5, 70, 0
7, 100499, Note_on_c, 5, 58, 0
7, 100680, Note_on_c, 5, 70, 127
7, 100680, Note_on_c, 5, 58, 127
7, 100739, Note_on_c, 5, 58, 0
7, 100739, Note_on_c, 5, 70, 0
7, 100920, Note_on_c, 5, 58, 127
7, 100920, Note_on_c, 5, 70, 127
7, 100979, Note_on_c, 5, 70, 0
7, 100979, Note_on_c, 5, 58, 0
7, 101160, Note_on_c, 5, 70, 127
7, 101160, Note_on_c, 5, 58, 127
7, 101219, Note_on_c, 5, 58, 0
7, 101219, Note_on_c, 5, 70, 0
7, 101400, Note_on_c, 5, 58, 127
7, 101400, Note_on_c, 5, 70, 127
7, 101459, Note_on_c, 5, 70, 0
7, 101459, Note_on_c, 5, 58, 0
7, 105480, Note_on_c, 5, 77, 127
7, 105839, Note_on_c, 5, 77, 0
7, 105840, Note_on_c, 5, 58, 96
7, 105840, Note_on_c, 5, 70, 96
7, 105899, Note_on_c, 5, 70, 0
7, 105899, Note_on_c, 5, 58, 0
7, 106200, Note_on_c, 5, 70, 96
7, 106200, Note_on_c, 5, 58, 96
7, 106259, Note_on_c, 5, 58, 0
7, 106259, Note_on_c, 5, 70, 0
7, 106560, Note_on_c, 5, 58, 96
7, 106560, Note_on_c, 5, 70, 96
7, 106619, Note_on_c, 5, 70, 0
7, 106619, Note_on_c, 5, 58, 0
7, 106920, Note_on_c, 5, 70, 96
7, 106920, Note_on_c, 5, 58, 96
7, 106979, Note_on_c, 5, 58, 0
7, 106979, Note_on_c, 5, 70, 0
7, 107040, Note_on_c, 5, 58, 96
7, 107040, Note_on_c, 5, 70, 96
7, 107099, Note_on_c, 5, 70, 0
7, 107099, Note_on_c, 5, 58, 0
7, 107160, Note_on_c, 5, 70, 96
7, 107160, Note_on_c, 5, 58, 96
7, 107219, Note_on_c, 5, 58, 0
7, 107219, Note_on_c, 5, 70, 0
7, 107280, Note_on_c, 5, 58, 96
7, 107280, Note_on_c, 5, 70, 96
7, 107339, Note_on_c, 5, 70, 0
7, 107339, Note_on_c, 5, 58, 0
7, 121080, Note_on_c, 5, 77, 127
7, 121139, Note_on_c, 5, 77, 0
7, 121200, Note_on_c, 5, 77, 127
7, 121259, Note_on_c, 5, 77, 0
7, 121320, Note_on_c, 5, 77, 127
7, 121379, Note_on_c, 5, 77, 0
7, 121440, Note_on_c, 5, 77, 127
7, 121499, Note_on_c, 5, 77, 0
7, 121560, Note_on_c, 5, 77, 127
7, 121619, Note_on_c, 5, 77, 0
7, 121680, Note_on_c, 5, 77, 127
7, 122400, Note_on_c, 5, 79, 127
7, 122409, Note_on_c, 5, 77, 0
7, 122519, Note_on_c, 5, 79, 0
7, 122520, Note_on_c, 5, 67, 127
7, 122520, Note_on_c, 5, 79, 127
7, 122579, Note_on_c, 5, 79, 0
7, 122579, Note_on_c, 5, 67, 0
7, 122640, Note_on_c, 5, 79, 127
7, 122640, Note_on_c, 5, 67, 127
7, 122699, Note_on_c, 5, 67, 0
7, 122699, Note_on_c, 5, 79, 0
7, 122760, Note_on_c, 5, 67, 127
7, 122760, Note_on_c, 5, 79, 127
7, 122819, Note_on_c, 5, 79, 0
7, 122819, Note_on_c, 5, 67, 0
7, 122880, Note_on_c, 5, 79, 127
7, 122880, Note_on_c, 5, 67, 127
7, 122939, Note_on_c, 5, 67, 0
7, 122939, Note_on_c, 5, 79, 0
7, 123000, Note_on_c, 5, 67, 127
7, 123000, Note_on_c, 5, 79, 127
7, 123059, Note_on_c, 5, 79, 0
7, 123059, Note_on_c, 5, 67, 0
7, 123120, Note_on_c, 5, 79, 127
7, 123120, Note_on_c, 5, 67, 127
7, 123839, Note_on_c, 5, 67, 0
7, 123839, Note_on_c, 5, 79, 0
7, 125400, Note_on_c, 5, 58, 127
7, 125400, Note_on_c, 5, 70, 127
7, 125459, Note_on_c, 5, 70, 0
7, 125459, Note_on_c, 5, 58, 0
7, 125520, Note_on_c, 5, 70, 127
7, 125520, Note_on_c, 5, 58, 127
7, 125579, Note_on_c, 5, 58, 0
7, 125579, Note_on_c, 5, 70, 0
7, 125640, Note_on_c, 5, 58, 127
7, 125640, Note_on_c, 5, 70, 127
7, 125699, Note_on_c, 5, 70, 0
7, 125699, Note_on_c, 5, 58, 0
7, 125760, Note_on_c, 5, 70, 127
7, 125760, Note_on_c, 5, 58, 127
7, 125819, Note_on_c, 5, 58, 0
7, 125819, Note_on_c, 5, 70, 0
7, 125880, Note_on_c, 5, 58, 127
7, 125880, Note_on_c, 5, 70, 127
7, 125939, Note_on_c, 5, 70, 0
7, 125939, Note_on_c, 5, 58, 0
7, 126000, Note_on_c, 5, 70, 127
7, 126000, Note_on_c, 5, 58, 127
7, 126719, Note_on_c, 5, 58, 0
7, 126719, Note_on_c, 5, 70, 0
7, 143400, Note_on_c, 5, 77, 127
7, 144119, Note_on_c, 5, 77, 0
7, 144120, Note_on_c, 5, 77, 127
7, 144359, Note_on_c, 5, 77, 0
7, 144360, Note_on_c, 5, 77, 127
7, 144599, Note_on_c, 5, 77, 0
7, 144600, Note_on_c, 5, 77, 127
7, 144839, Note_on_c, 5, 77, 0
7, 144840, Note_on_c, 5, 77, 127
7, 145079, Note_on_c, 5, 77, 0
7, 145080, Note_on_c, 5, 77, 127
7, 145319, Note_on_c, 5, 77, 0
7, 145320, Note_on_c, 5, 77, 127
7, 145439, Note_on_c, 5, 77, 0
7, 147720, Note_on_c, 5, 63, 127
7, 147720, Note_on_c, 5, 75, 127
7, 148439, Note_on_c, 5, 75, 0
7, 148439, Note_on_c, 5, 63, 0
7, 148440, Note_on_c, 5, 75, 127
7, 148440, Note_on_c, 5, 63, 127
7, 148679, Note_on_c, 5, 63, 0
7, 148679, Note_on_c, 5, 75, 0
7, 148680, Note_on_c, 5, 63, 127
7, 148680, Note_on_c, 5, 75, 127
7, 148919, Note_on_c, 5, 75, 0
7, 148919, Note_on_c, 5, 63, 0
7, 148920, Note_on_c, 5, 75, 127
7, 148920, Note_on_c, 5, 63, 127
7, 149159, Note_on_c, 5, 63, 0
7, 149159, Note_on_c, 5, 75, 0
7, 149160, Note_on_c, 5, 75, 127
7, 149160, Note_on_c, 5, 63, 127
7, 149399, Note_on_c, 5, 63, 0
7, 149399, Note_on_c, 5, 75, 0
7, 149400, Note_on_c, 5, 63, 127
7, 149400, Note_on_c, 5, 75, 127
7, 149639, Note_on_c, 5, 75, 0
7, 149639, Note_on_c, 5, 63, 0
7, 149640, Note_on_c, 5, 75, 127
7, 149640, Note_on_c, 5, 63, 127
7, 149759, Note_on_c, 5, 63, 0
7, 149759, Note_on_c, 5, 75, 0
7, 149880, Note_on_c, 5, 67, 127
7, 149880, Note_on_c, 5, 79, 127
7, 150599, Note_on_c, 5, 79, 0
7, 150599, Note_on_c, 5, 67, 0
7, 150600, Note_on_c, 5, 79, 127
7, 150600, Note_on_c, 5, 67, 127
7, 150839, Note_on_c, 5, 67, 0
7, 150839, Note_on_c, 5, 79, 0
7, 150840, Note_on_c, 5, 67, 127
7, 150840, Note_on_c, 5, 79, 127
7, 151079, Note_on_c, 5, 79, 0
7, 151079, Note_on_c, 5, 67, 0
7, 151080, Note_on_c, 5, 79, 127
7, 151080, Note_on_c, 5, 67, 127
7, 151319, Note_on_c, 5, 67, 0
7, 151319, Note_on_c, 5, 79, 0
7, 151320, Note_on_c, 5, 67, 127
7, 151320, Note_on_c, 5, 79, 127
7, 151559, Note_on_c, 5, 79, 0
7, 151559, Note_on_c, 5, 67, 0
7, 151560, Note_on_c, 5, 79, 127
7, 151560, Note_on_c, 5, 67, 127
7, 151799, Note_on_c, 5, 67, 0
7, 151799, Note_on_c, 5, 79, 0
7, 151800, Note_on_c, 5, 67, 127
7, 151800, Note_on_c, 5, 79, 127
7, 151919, Note_on_c, 5, 79, 0
7, 151919, Note_on_c, 5, 67, 0
7, 152040, Note_on_c, 5, 75, 127
7, 152040, Note_on_c, 5, 63, 127
7, 152279, Note_on_c, 5, 63, 0
7, 152279, Note_on_c, 5, 75, 0
7, 152280, Note_on_c, 5, 63, 127
7, 152280, Note_on_c, 5, 75, 127
7, 152519, Note_on_c, 5, 75, 0
7, 152519, Note_on_c, 5, 63, 0
7, 152520, Note_on_c, 5, 75, 127
7, 152520, Note_on_c, 5, 63, 127
7, 152639, Note_on_c, 5, 63, 0
7, 152639, Note_on_c, 5, 75, 0
7, 152760, Note_on_c, 5, 67, 127
7, 152999, Note_on_c, 5, 67, 0
7, 153000, Note_on_c, 5, 67, 127
7, 153239, Note_on_c, 5, 67, 0
7, 153240, Note_on_c, 5, 67, 127
7, 153359, Note_on_c, 5, 67, 0
7, 153360, Note_on_c, 5, 77, 96
7, 153599, Note_on_c, 5, 77, 0
7, 153720, Note_on_c, 5, 77, 96
7, 153959, Note_on_c, 5, 77, 0
7, 154080, Note_on_c, 5, 77, 96
7, 154319, Note_on_c, 5, 77, 0
7, 154440, Note_on_c, 5, 77, 96
7, 154679, Note_on_c, 5, 77, 0
7, 154680, Note_on_c, 5, 77, 96
7, 154739, Note_on_c, 5, 77, 0
7, 163440, Note_on_c, 5, 67, 96
7, 163440, Note_on_c, 5, 79, 96
7, 164279, Note_on_c, 5, 79, 0
7, 164279, Note_on_c, 5, 67, 0
7, 164280, Note_on_c, 5, 79, 96
7, 164280, Note_on_c, 5, 67, 96
7, 164399, Note_on_c, 5, 67, 0
7, 164399, Note_on_c, 5, 79, 0
7, 164400, Note_on_c, 5, 79, 96
7, 164400, Note_on_c, 5, 67, 96
7, 164519, Note_on_c, 5, 67, 0
7, 164519, Note_on_c, 5, 79, 0
7, 164520, Note_on_c, 5, 79, 96
7, 164520, Note_on_c, 5, 67, 96
7, 164639, Note_on_c, 5, 67, 0
7, 164639, Note_on_c, 5, 79, 0
7, 164640, Note_on_c, 5, 79, 96
7, 164640, Note_on_c, 5, 67, 96
7, 164759, Note_on_c, 5, 67, 0
7, 164759, Note_on_c, 5, 79, 0
7, 164760, Note_on_c, 5, 79, 96
7, 164760, Note_on_c, 5, 67, 96
7, 165719, Note_on_c, 5, 67, 0
7, 165719, Note_on_c, 5, 79, 0
7, 165720, Note_on_c, 5, 79, 96
7, 165720, Note_on_c, 5, 67, 96
7, 165839, Note_on_c, 5, 67, 0
7, 165839, Note_on_c, 5, 79, 0
7, 165840, Note_on_c, 5, 79, 96
7, 165840, Note_on_c, 5, 67, 96
7, 165959, Note_on_c, 5, 67, 0
7, 165959, Note_on_c, 5, 79, 0
7, 165960, Note_on_c, 5, 79, 96
7, 165960, Note_on_c, 5, 67, 96
7, 166079, Note_on_c, 5, 67, 0
7, 166079, Note_on_c, 5, 79, 0
7, 166080, Note_on_c, 5, 79, 96
7, 166080, Note_on_c, 5, 67, 96
7, 166199, Note_on_c, 5, 67, 0
7, 166199, Note_on_c, 5, 79, 0
7, 166200, Note_on_c, 5, 79, 96
7, 166200, Note_on_c, 5, 67, 96
7, 166439, Note_on_c, 5, 67, 0
7, 166439, Note_on_c, 5, 79, 0
7, 167760, Note_on_c, 5, 58, 96
7, 167760, Note_on_c, 5, 70, 96
7, 167879, Note_on_c, 5, 70, 0
7, 167879, Note_on_c, 5, 58, 0
7, 167880, Note_on_c, 5, 70, 96
7, 167880, Note_on_c, 5, 58, 96
7, 167999, Note_on_c, 5, 58, 0
7, 167999, Note_on_c, 5, 70, 0
7, 168000, Note_on_c, 5, 58, 96
7, 168000, Note_on_c, 5, 70, 96
7, 168119, Note_on_c, 5, 70, 0
7, 168119, Note_on_c, 5, 58, 0
7, 168120, Note_on_c, 5, 70, 96
7, 168120, Note_on_c, 5, 58, 96
7, 168239, Note_on_c, 5, 58, 0
7, 168239, Note_on_c, 5, 70, 0
7, 168240, Note_on_c, 5, 58, 96
7, 168240, Note_on_c, 5, 70, 96
7, 168359, Note_on_c, 5, 70, 0
7, 168359, Note_on_c, 5, 58, 0
7, 168360, Note_on_c, 5, 70, 96
7, 168360, Note_on_c, 5, 58, 96
7, 169319, Note_on_c, 5, 58, 0
7, 169319, Note_on_c, 5, 70, 0
7, 169320, Note_on_c, 5, 58, 127
7, 169320, Note_on_c, 5, 70, 127
7, 169439, Note_on_c, 5, 70, 0
7, 169439, Note_on_c, 5, 58, 0
7, 169440, Note_on_c, 5, 70, 127
7, 169440, Note_on_c, 5, 58, 127
7, 169559, Note_on_c, 5, 58, 0
7, 169559, Note_on_c, 5, 70, 0
7, 169560, Note_on_c, 5, 58, 127
7, 169560, Note_on_c, 5, 70, 127
7, 169679, Note_on_c, 5, 70, 0
7, 169679, Note_on_c, 5, 58, 0
7, 169680, Note_on_c, 5, 75, 127
7, 169680, Note_on_c, 5, 63, 127
7, 169799, Note_on_c, 5, 63, 0
7, 169799, Note_on_c, 5, 75, 0
7, 169800, Note_on_c, 5, 63, 127
7, 169800, Note_on_c, 5, 75, 127
7, 169919, Note_on_c, 5, 75, 0
7, 169919, Note_on_c, 5, 63, 0
7, 169920, Note_on_c, 5, 75, 127
7, 169920, Note_on_c, 5, 63, 127
7, 170039, Note_on_c, 5, 63, 0
7, 170039, Note_on_c, 5, 75, 0
7, 196560, Note_on_c, 5, 58, 96
7, 196560, Note_on_c, 5, 70, 96
7, 196919, Note_on_c, 5, 70, 0
7, 196919, Note_on_c, 5, 58, 0
7, 196920, Note_on_c, 5, 70, 127
7, 196920, Note_on_c, 5, 58, 127
7, 197279, Note_on_c, 5, 58, 0
7, 197279, Note_on_c, 5, 70, 0
7, 197280, Note_on_c, 5, 63, 127
7, 197280, Note_on_c, 5, 75, 127
7, 197399, Note_on_c, 5, 75, 0
7, 197399, Note_on_c, 5, 63, 0
7, 208320, Note_on_c, 5, 58, 64
7, 208320, Note_on_c, 5, 70, 64
7, 208379, Note_on_c, 5, 70, 0
7, 208379, Note_on_c, 5, 58, 0
7, 208380, Note_on_c, 5, 58, 68
7, 208380, Note_on_c, 5, 70, 68
7, 208439, Note_on_c, 5, 70, 0
7, 208439, Note_on_c, 5, 58, 0
7, 208440, Note_on_c, 5, 58, 72
7, 208440, Note_on_c, 5, 70, 72
7, 208499, Note_on_c, 5, 70, 0
7, 208499, Note_on_c, 5, 58, 0
7, 208500, Note_on_c, 5, 58, 76
7, 208500, Note_on_c, 5, 70, 76
7, 208559, Note_on_c, 5, 70, 0
7, 208559, Note_on_c, 5, 58, 0
7, 208560, Note_on_c, 5, 58, 80
7, 208560, Note_on_c, 5, 70, 80
7, 208619, Note_on_c, 5, 70, 0
7, 208619, Note_on_c, 5, 58, 0
7, 208620, Note_on_c, 5, 58, 84
7, 208620, Note_on_c, 5, 70, 84
7, 208679, Note_on_c, 5, 70, 0
7, 208679, Note_on_c, 5, 58, 0
7, 208680, Note_on_c, 5, 58, 88
7, 208680, Note_on_c, 5, 70, 88
7, 208739, Note_on_c, 5, 70, 0
7, 208739, Note_on_c, 5, 58, 0
7, 208740, Note_on_c, 5, 58, 92
7, 208740, Note_on_c, 5, 70, 92
7, 208799, Note_on_c, 5, 70, 0
7, 208799, Note_on_c, 5, 58, 0
7, 208800, Note_on_c, 5, 63, 96
7, 208800, Note_on_c, 5, 75, 96
7, 209399, Note_on_c, 5, 75, 0
7, 209399, Note_on_c, 5, 63, 0
7, 209400, Note_on_c, 5, 58, 96
7, 209400, Note_on_c, 5, 70, 96
7, 209519, Note_on_c, 5, 70, 0
7, 209519, Note_on_c, 5, 58, 0
7, 209520, Note_on_c, 5, 75, 96
7, 209520, Note_on_c, 5, 63, 96
7, 209639, Note_on_c, 5, 63, 0
7, 209639, Note_on_c, 5, 75, 0
7, 209640, Note_on_c, 5, 63, 96
7, 209640, Note_on_c, 5, 70, 96
7, 209759, Note_on_c, 5, 70, 0
7, 209759, Note_on_c, 5, 63, 0
7, 209760, Note_on_c, 5, 70, 96
7, 209760, Note_on_c, 5, 63, 96
7, 209879, Note_on_c, 5, 63, 0
7, 209879, Note_on_c, 5, 70, 0
7, 209880, Note_on_c, 5, 63, 96
7, 209880, Note_on_c, 5, 70, 96
7, 209999, Note_on_c, 5, 70, 0
7, 209999, Note_on_c, 5, 63, 0
7, 210360, Note_on_c, 5, 75, 96
7, 210360, Note_on_c, 5, 63, 96
7, 210479, Note_on_c, 5, 63, 0
7, 210479, Note_on_c, 5, 75, 0
7, 210480, Note_on_c, 5, 63, 96
7, 210480, Note_on_c, 5, 75, 96
7, 210599, Note_on_c, 5, 75, 0
7, 210599, Note_on_c, 5, 63, 0
7, 210600, Note_on_c, 5, 75, 96
7, 210600, Note_on_c, 5, 63, 96
7, 210839, Note_on_c, 5, 63, 0
7, 210839, Note_on_c, 5, 75, 0
7, 210840, Note_on_c, 5, 63, 112
7, 210840, Note_on_c, 5, 75, 112
7, 210959, Note_on_c, 5, 75, 0
7, 210959, Note_on_c, 5, 63, 0
7, 210960, Note_on_c, 5, 75, 112
7, 210960, Note_on_c, 5, 63, 112
7, 211319, Note_on_c, 5, 63, 0
7, 211319, Note_on_c, 5, 75, 0
7, 211320, Note_on_c, 5, 63, 112
7, 211320, Note_on_c, 5, 75, 112
7, 211679, Note_on_c, 5, 75, 0
7, 211679, Note_on_c, 5, 63, 0
7, 211680, Note_on_c, 5, 75, 112
7, 211680, Note_on_c, 5, 63, 112
7, 212159, Note_on_c, 5, 63, 0
7, 212159, Note_on_c, 5, 75, 0
7, 212160, Note_on_c, 5, 70, 112
7, 212160, Note_on_c, 5, 77, 112
7, 212279, Note_on_c, 5, 77, 0
7, 212279, Note_on_c, 5, 70, 0
7, 212280, Note_on_c, 5, 70, 112
7, 212280, Note_on_c, 5, 77, 112
7, 212399, Note_on_c, 5, 77, 0
7, 212399, Note_on_c, 5, 70, 0
7, 212400, Note_on_c, 5, 75, 127
7, 212400, Note_on_c, 5, 63, 127
7, 212639, Note_on_c, 5, 63, 0
7, 212639, Note_on_c, 5, 75, 0
7, 212640, Note_on_c, 5, 67, 127
7, 212640, Note_on_c, 5, 79, 127
7, 212759, Note_on_c, 5, 79, 0
7, 212759, Note_on_c, 5, 67, 0
7, 212760, Note_on_c, 5, 75, 127
7, 212760, Note_on_c, 5, 63, 127
7, 212999, Note_on_c, 5, 63, 0
7, 212999, Note_on_c, 5, 75, 0
7, 213000, Note_on_c, 5, 70, 127
7, 213000, Note_on_c, 5, 58, 127
7, 213119, Note_on_c, 5, 58, 0
7, 213119, Note_on_c, 5, 70, 0
7, 213120, Note_on_c, 5, 75, 127
7, 213120, Note_on_c, 5, 63, 127
7, 213239, Note_on_c, 5, 63, 0
7, 213239, Note_on_c, 5, 75, 0
7, 213240, Note_on_c, 5, 67, 127
7, 213359, Note_on_c, 5, 67, 0
7, 213360, Note_on_c, 5, 70, 127
7, 213479, Note_on_c, 5, 70, 0
7, 213480, Note_on_c, 5, 63, 127
7, 213719, Note_on_c, 5, 63, 0
7, 213720, Note_on_c, 5, 67, 127
7, 213959, Note_on_c, 5, 67, 0
7, 213960, Note_on_c, 5, 79, 127
7, 213960, Note_on_c, 5, 67, 127
7, 214079, Note_on_c, 5, 67, 0
7, 214079, Note_on_c, 5, 79, 0
7, 214080, Note_on_c, 5, 67, 127
7, 214080, Note_on_c, 5, 79, 127
7, 214199, Note_on_c, 5, 79, 0
7, 214199, Note_on_c, 5, 67, 0
7, 214200, Note_on_c, 5, 79, 127
7, 214200, Note_on_c, 5, 67, 127
7, 214319, Note_on_c, 5, 67, 0
7, 214319, Note_on_c, 5, 79, 0
7, 214440, Note_on_c, 5, 67, 127
7, 214440, Note_on_c, 5, 79, 127
7, 214559, Note_on_c, 5, 79, 0
7, 214559, Note_on_c, 5, 67, 0
7, 214560, Note_on_c, 5, 77, 127
7, 214679, Note_on_c, 5, 77, 0
7, 214920, Note_on_c, 5, 63, 127
7, 214920, Note_on_c, 5, 75, 127
7, 215039, Note_on_c, 5, 75, 0
7, 215039, Note_on_c, 5, 63, 0
7, 215280, Note_on_c, 5, 70, 127
7, 215280, Note_on_c, 5, 58, 127
7, 215399, Note_on_c, 5, 58, 0
7, 215399, Note_on_c, 5, 70, 0
7, 219000, Note_on_c, 5, 70, 127
7, 219000, Note_on_c, 5, 58, 127
7, 219179, Note_on_c, 5, 58, 0
7, 219179, Note_on_c, 5, 70, 0
7, 219180, Note_on_c, 5, 70, 127
7, 219180, Note_on_c, 5, 58, 127
7, 219239, Note_on_c, 5, 58, 0
7, 219239, Note_on_c, 5, 70, 0
7, 219240, Note_on_c, 5, 70, 127
7, 219240, Note_on_c, 5, 58, 127
7, 219359, Note_on_c, 5, 58, 0
7, 219359, Note_on_c, 5, 70, 0
7, 219360, Note_on_c, 5, 70, 127
7, 219360, Note_on_c, 5, 58, 127
7, 219479, Note_on_c, 5, 58, 0
7, 219479, Note_on_c, 5, 70, 0
7, 219480, Note_on_c, 5, 70, 127
7, 219480, Note_on_c, 5, 58, 127
7, 219599, Note_on_c, 5, 58, 0
7, 219599, Note_on_c, 5, 70, 0
7, 219600, Note_on_c, 5, 75, 48
7, 219600, Note_on_c, 5, 63, 48
7, 219719, Note_on_c, 5, 63, 0
7, 219719, Note_on_c, 5, 75, 0
7, 222480, Note_on_c, 5, 77, 96
7, 222539, Note_on_c, 5, 77, 0
7, 222600, Note_on_c, 5, 77, 96
7, 222659, Note_on_c, 5, 77, 0
7, 223140, Note_on_c, 5, 77, 96
7, 223199, Note_on_c, 5, 77, 0
7, 223200, Note_on_c, 5, 63, 96
7, 223200, Note_on_c, 5, 75, 96
7, 223259, Note_on_c, 5, 75, 0
7, 223259, Note_on_c, 5, 63, 0
7, 223320, Note_on_c, 5, 75, 96
7, 223320, Note_on_c, 5, 63, 96
7, 223379, Note_on_c, 5, 63, 0
7, 223379, Note_on_c, 5, 75, 0
7, 223860, Note_on_c, 5, 63, 96
7, 223860, Note_on_c, 5, 75, 96
7, 223919, Note_on_c, 5, 75, 0
7, 223919, Note_on_c, 5, 63, 0
7, 223920, Note_on_c, 5, 70, 96
7, 223920, Note_on_c, 5, 58, 96
7, 223979, Note_on_c, 5, 58, 0
7, 223979, Note_on_c, 5, 70, 0
7, 224040, Note_on_c, 5, 58, 96
7, 224040, Note_on_c, 5, 70, 96
7, 224099, Note_on_c, 5, 70, 0
7, 224099, Note_on_c, 5, 58, 0
7, 225480, Note_on_c, 5, 75, 96
7, 225480, Note_on_c, 5, 63, 96
7, 225599, Note_on_c, 5, 63, 0
7, 225599, Note_on_c, 5, 75, 0
7, 225600, Note_on_c, 5, 75, 96
7, 225600, Note_on_c, 5, 63, 96
7, 225719, Note_on_c, 5, 63, 0
7, 225719, Note_on_c, 5, 75, 0
7, 225720, Note_on_c, 5, 75, 96
7, 225720, Note_on_c, 5, 63, 96
7, 225839, Note_on_c, 5, 63, 0
7, 225839, Note_on_c, 5, 75, 0
7, 225840, Note_on_c, 5, 75, 96
7, 225840, Note_on_c, 5, 63, 96
7, 225959, Note_on_c, 5, 63, 0
7, 225959, Note_on_c, 5, 75, 0
7, 225960, Note_on_c, 5, 75, 96
7, 225960, Note_on_c, 5, 63, 96
7, 226079, Note_on_c, 5, 63, 0
7, 226079, Note_on_c, 5, 75, 0
7, 226080, Note_on_c, 5, 75, 96
7, 226080, Note_on_c, 5, 63, 96
7, 226199, Note_on_c, 5, 63, 0
7, 226199, Note_on_c, 5, 75, 0
7, 227520, Note_on_c, 5, 70, 112
7, 227520, Note_on_c, 5, 58, 112
7, 228239, Note_on_c, 5, 58, 0
7, 228239, Note_on_c, 5, 70, 0
7, 228240, Note_on_c, 5, 58, 127
7, 228240, Note_on_c, 5, 70, 127
7, 228299, Note_on_c, 5, 70, 0
7, 228299, Note_on_c, 5, 58, 0
7, 228300, Note_on_c, 5, 58, 127
7, 228300, Note_on_c, 5, 70, 127
7, 228359, Note_on_c, 5, 70, 0
7, 228359, Note_on_c, 5, 58, 0
7, 228360, Note_on_c, 5, 58, 127
7, 228360, Note_on_c, 5, 70, 127
7, 228419, Note_on_c, 5, 70, 0
7, 228419, Note_on_c, 5, 58, 0
7, 228420, Note_on_c, 5, 58, 127
7, 228420, Note_on_c, 5, 70, 127
7, 228479, Note_on_c, 5, 70, 0
7, 228479, Note_on_c, 5, 58, 0
7, 228480, Note_on_c, 5, 58, 127
7, 228480, Note_on_c, 5, 70, 127
7, 228539, Note_on_c, 5, 70, 0
7, 228539, Note_on_c, 5, 58, 0
7, 228540, Note_on_c, 5, 58, 127
7, 228540, Note_on_c, 5, 70, 127
7, 228599, Note_on_c, 5, 70, 0
7, 228599, Note_on_c, 5, 58, 0
7, 228600, Note_on_c, 5, 58, 127
7, 228600, Note_on_c, 5, 70, 127
7, 228659, Note_on_c, 5, 70, 0
7, 228659, Note_on_c, 5, 58, 0
7, 228660, Note_on_c, 5, 58, 127
7, 228660, Note_on_c, 5, 70, 127
7, 228719, Note_on_c, 5, 70, 0
7, 228719, Note_on_c, 5, 58, 0
7, 228720, Note_on_c, 5, 58, 127
7, 228720, Note_on_c, 5, 70, 127
7, 228779, Note_on_c, 5, 70, 0
7, 228779, Note_on_c, 5, 58, 0
7, 228780, Note_on_c, 5, 58, 127
7, 228780, Note_on_c, 5, 70, 127
7, 228839, Note_on_c, 5, 70, 0
7, 228839, Note_on_c, 5, 58, 0
7, 228840, Note_on_c, 5, 58, 127
7, 228840, Note_on_c, 5, 70, 127
7, 228899, Note_on_c, 5, 70, 0
7, 228899, Note_on_c, 5, 58, 0
7, 228900, Note_on_c, 5, 58, 127
7, 228900, Note_on_c, 5, 70, 127
7, 228959, Note_on_c, 5, 70, 0
7, 228959, Note_on_c, 5, 58, 0
7, 228960, Note_on_c, 5, 75, 127
7, 228960, Note_on_c, 5, 63, 127
7, 229079, Note_on_c, 5, 63, 0
7, 229079, Note_on_c, 5, 75, 0
7, 238440, Note_on_c, 5, 58, 112
7, 238440, Note_on_c, 5, 70, 112
7, 238559, Note_on_c, 5, 70, 0
7, 238559, Note_on_c, 5, 58, 0
7, 238800, Note_on_c, 5, 70, 112
7, 238800, Note_on_c, 5, 58, 112
7, 238919, Note_on_c, 5, 58, 0
7, 238919, Note_on_c, 5, 70, 0
7, 239160, Note_on_c, 5, 58, 112
7, 239160, Note_on_c, 5, 70, 112
7, 239279, Note_on_c, 5, 70, 0
7, 239279, Note_on_c, 5, 58, 0
7, 239520, Note_on_c, 5, 70, 112
7, 239520, Note_on_c, 5, 58, 112
7, 239639, Note_on_c, 5, 58, 0
7, 239639, Note_on_c, 5, 70, 0
7, 239640, Note_on_c, 5, 70, 96
7, 239640, Note_on_c, 5, 58, 96
7, 239759, Note_on_c, 5, 58, 0
7, 239759, Note_on_c, 5, 70, 0
7, 239760, Note_on_c, 5, 70, 127
7, 239760, Note_on_c, 5, 58, 127
7, 240119, Note_on_c, 5, 58, 0
7, 240119, Note_on_c, 5, 70, 0
7, 240120, Note_on_c, 5, 58, 127
7, 240120, Note_on_c, 5, 70, 127
7, 240479, Note_on_c, 5, 70, 0
7, 240479, Note_on_c, 5, 58, 0
7, 240480, Note_on_c, 5, 70, 127
7, 240480, Note_on_c, 5, 58, 127
7, 240839, Note_on_c, 5, 58, 0
7, 240839, Note_on_c, 5, 70, 0
7, 240840, Note_on_c, 5, 58, 127
7, 240840, Note_on_c, 5, 70, 127
7, 240959, Note_on_c, 5, 70, 0
7, 240959, Note_on_c, 5, 58, 0
7, 240960, Note_on_c, 5, 58, 127
7, 240960, Note_on_c, 5, 70, 127
7, 241079, Note_on_c, 5, 70, 0
7, 241079, Note_on_c, 5, 58, 0
7, 241080, Note_on_c, 5, 58, 127
7, 241080, Note_on_c, 5, 70, 127
7, 241199, Note_on_c, 5, 70, 0
7, 241199, Note_on_c, 5, 58, 0
7, 241200, Note_on_c, 5, 63, 127
7, 241200, Note_on_c, 5, 75, 127
7, 241679, Note_on_c, 5, 75, 0
7, 241679, Note_on_c, 5, 63, 0
7, 243480, Note_on_c, 5, 67, 127
7, 243539, Note_on_c, 5, 67, 0
7, 243600, Note_on_c, 5, 67, 127
7, 243659, Note_on_c, 5, 67, 0
7, 243840, Note_on_c, 5, 63, 127
7, 243840, Note_on_c, 5, 75, 127
7, 243899, Note_on_c, 5, 75, 0
7, 243899, Note_on_c, 5, 63, 0
7, 243960, Note_on_c, 5, 75, 127
7, 243960, Note_on_c, 5, 63, 127
7, 244019, Note_on_c, 5, 63, 0
7, 244019, Note_on_c, 5, 75, 0
7, 244200, Note_on_c, 5, 63, 127
7, 244200, Note_on_c, 5, 75, 127
7, 244259, Note_on_c, 5, 75, 0
7, 244259, Note_on_c, 5, 63, 0
7, 244320, Note_on_c, 5, 70, 127
7, 244320, Note_on_c, 5, 58, 127
7, 244379, Note_on_c, 5, 58, 0
7, 244379, Note_on_c, 5, 70, 0
7, 244560, Note_on_c, 5, 67, 127
7, 244619, Note_on_c, 5, 67, 0
7, 244680, Note_on_c, 5, 67, 127
7, 244739, Note_on_c, 5, 67, 0
7, 244920, Note_on_c, 5, 75, 127
7, 244920, Note_on_c, 5, 63, 127
7, 244979, Note_on_c, 5, 63, 0
7, 244979, Note_on_c, 5, 75, 0
7, 245040, Note_on_c, 5, 63, 127
7, 245040, Note_on_c, 5, 75, 127
7, 245099, Note_on_c, 5, 75, 0
7, 245099, Note_on_c, 5, 63, 0
7, 245280, Note_on_c, 5, 75, 127
7, 245280, Note_on_c, 5, 63, 127
7, 245339, Note_on_c, 5, 63, 0
7, 245339, Note_on_c, 5, 75, 0
7, 245520, Note_on_c, 5, 63, 127
7, 245520, Note_on_c, 5, 75, 127
7, 245579, Note_on_c, 5, 75, 0
7, 245579, Note_on_c, 5, 63, 0
7, 245760, Note_on_c, 5, 75, 127
7, 245760, Note_on_c, 5, 63, 127
7, 245819, Note_on_c, 5, 63, 0
7, 245819, Note_on_c, 5, 75, 0
7, 246000, Note_on_c, 5, 75, 127
7, 246000, Note_on_c, 5, 63, 127
7, 246059, Note_on_c, 5, 63, 0
7, 246059, Note_on_c, 5, 75, 0
7, 246240, Note_on_c, 5, 63, 127
7, 246240, Note_on_c, 5, 75, 127
7, 246299, Note_on_c, 5, 75, 0
7, 246299, Note_on_c, 5, 63, 0
7, 246480, Note_on_c, 5, 75, 127
7, 246480, Note_on_c, 5, 63, 127
7, 246539, Note_on_c, 5, 63, 0
7, 246539, Note_on_c, 5, 75, 0
7, 250380, Note_on_c, 5, 58, 122
7, 250439, Note_on_c, 5, 58, 0
7, 250440, Note_on_c, 5, 63, 124
7, 250499, Note_on_c, 5, 63, 0
7, 250500, Note_on_c, 5, 67, 126
7, 250559, Note_on_c, 5, 67, 0
7, 250560, Note_on_c, 5, 70, 127
7, 250919, Note_on_c, 5, 70, 0
7, 250920, Note_on_c, 5, 63, 96
7, 251039, Note_on_c, 5, 63, 0
7, 251280, Note_on_c, 5, 63, 96
7, 251280, Note_on_c, 5, 75, 96
7, 251399, Note_on_c, 5, 75, 0
7, 251399, Note_on_c, 5, 63, 0
7, 251640, Note_on_c, 5, 75, 96
7, 251640, Note_on_c, 5, 63, 96
7, 251759, Note_on_c, 5, 63, 0
7, 251759, Note_on_c, 5, 75, 0
7, 252000, Note_on_c, 5, 75, 96
7, 252000, Note_on_c, 5, 63, 96
7, 252059, Note_on_c, 5, 63, 0
7, 252059, Note_on_c, 5, 75, 0
7, 252120, Note_on_c, 5, 75, 96
7, 252120, Note_on_c, 5, 63, 96
7, 252179, Note_on_c, 5, 63, 0
7, 252179, Note_on_c, 5, 75, 0
7, 252240, Note_on_c, 5, 75, 96
7, 252240, Note_on_c, 5, 63, 96
7, 252299, Note_on_c, 5, 63, 0
7, 252299, Note_on_c, 5, 75, 0
7, 252360, Note_on_c, 5, 75, 96
7, 252360, Note_on_c, 5, 63, 96
7, 252479, Note_on_c, 5, 63, 0
7, 252479, Note_on_c, 5, 75, 0
7, 254520, Note_on_c, 5, 77, 96
7, 255239, Note_on_c, 5, 77, 0
7, 255960, Note_on_c, 5, 67, 127
7, 256019, Note_on_c, 5, 67, 0
7, 256020, Note_on_c, 5, 67, 127
7, 256079, Note_on_c, 5, 67, 0
7, 256080, Note_on_c, 5, 67, 127
7, 256139, Note_on_c, 5, 67, 0
7, 256140, Note_on_c, 5, 67, 127
7, 256199, Note_on_c, 5, 67, 0
7, 256200, Note_on_c, 5, 67, 127
7, 256259, Note_on_c, 5, 67, 0
7, 256260, Note_on_c, 5, 67, 127
7, 256319, Note_on_c, 5, 67, 0
7, 256320, Note_on_c, 5, 67, 127
7, 256379, Note_on_c, 5, 67, 0
7, 256380, Note_on_c, 5, 67, 127
7, 256439, Note_on_c, 5, 67, 0
7, 256440, Note_on_c, 5, 67, 127
7, 256499, Note_on_c, 5, 67, 0
7, 256500, Note_on_c, 5, 67, 127
7, 256559, Note_on_c, 5, 67, 0
7, 256560, Note_on_c, 5, 67, 127
7, 256619, Note_on_c, 5, 67, 0
7, 256620, Note_on_c, 5, 67, 127
7, 256679, Note_on_c, 5, 67, 0
7, 256680, Note_on_c, 5, 67, 48
7, 256799, Note_on_c, 5, 67, 0
7, 279720, Note_on_c, 5, 58, 48
7, 279720, Note_on_c, 5, 70, 48
7, 280199, Note_on_c, 5, 70, 0
7, 280199, Note_on_c, 5, 58, 0
7, 280200, Note_on_c, 5, 70, 56
7, 280200, Note_on_c, 5, 58, 56
7, 280259, Note_on_c, 5, 58, 0
7, 280259, Note_on_c, 5, 70, 0
7, 280320, Note_on_c, 5, 70, 58
7, 280320, Note_on_c, 5, 58, 58
7, 280379, Note_on_c, 5, 58, 0
7, 280379, Note_on_c, 5, 70, 0
7, 280440, Note_on_c, 5, 70, 60
7, 280440, Note_on_c, 5, 58, 60
7, 280499, Note_on_c, 5, 58, 0
7, 280499, Note_on_c, 5, 70, 0
7, 280560, Note_on_c, 5, 70, 62
7, 280560, Note_on_c, 5, 58, 62
7, 280619, Note_on_c, 5, 58, 0
7, 280619, Note_on_c, 5, 70, 0
7, 280680, Note_on_c, 5, 70, 64
7, 280680, Note_on_c, 5, 58, 64
7, 280739, Note_on_c, 5, 58, 0
7, 280739, Note_on_c, 5, 70, 0
7, 280800, Note_on_c, 5, 70, 48
7, 280800, Note_on_c, 5, 58, 48
7, 280859, Note_on_c, 5, 58, 0
7, 280859, Note_on_c, 5, 70, 0
7, 280920, Note_on_c, 5, 70, 48
7, 280920, Note_on_c, 5, 58, 48
7, 280979, Note_on_c, 5, 58, 0
7, 280979, Note_on_c, 5, 70, 0
7, 281040, Note_on_c, 5, 70, 48
7, 281040, Note_on_c, 5, 58, 48
7, 281099, Note_on_c, 5, 58, 0
7, 281099, Note_on_c, 5, 70, 0
7, 281160, Note_on_c, 5, 67, 48
7, 281160, Note_on_c, 5, 63, 48
7, 281219, Note_on_c, 5, 63, 0
7, 281219, Note_on_c, 5, 67, 0
7, 286800, Note_on_c, 5, 70, 48
7, 286800, Note_on_c, 5, 58, 48
7, 286839, Note_on_c, 5, 58, 0
7, 286839, Note_on_c, 5, 70, 0
7, 286840, Note_on_c, 5, 58, 48
7, 286840, Note_on_c, 5, 70, 48
7, 286879, Note_on_c, 5, 70, 0
7, 286879, Note_on_c, 5, 58, 0
7, 286880, Note_on_c, 5, 58, 48
7, 286880, Note_on_c, 5, 70, 48
7, 286919, Note_on_c, 5, 70, 0
7, 286919, Note_on_c, 5, 58, 0
7, 286920, Note_on_c, 5, 58, 48
7, 286920, Note_on_c, 5, 70, 48
7, 287039, Note_on_c, 5, 70, 0
7, 287039, Note_on_c, 5, 58, 0
7, 287160, Note_on_c, 5, 70, 52
7, 287160, Note_on_c, 5, 58, 52
7, 287199, Note_on_c, 5, 58, 0
7, 287199, Note_on_c, 5, 70, 0
7, 287200, Note_on_c, 5, 70, 52
7, 287200, Note_on_c, 5, 58, 52
7, 287239, Note_on_c, 5, 58, 0
7, 287239, Note_on_c, 5, 70, 0
7, 287240, Note_on_c, 5, 70, 53
7, 287240, Note_on_c, 5, 58, 53
7, 287279, Note_on_c, 5, 58, 0
7, 287279, Note_on_c, 5, 70, 0
7, 287280, Note_on_c, 5, 70, 54
7, 287280, Note_on_c, 5, 58, 54
7, 287399, Note_on_c, 5, 58, 0
7, 287399, Note_on_c, 5, 70, 0
7, 287520, Note_on_c, 5, 70, 58
7, 287520, Note_on_c, 5, 58, 58
7, 287559, Note_on_c, 5, 58, 0
7, 287559, Note_on_c, 5, 70, 0
7, 287560, Note_on_c, 5, 70, 58
7, 287560, Note_on_c, 5, 58, 58
7, 287599, Note_on_c, 5, 58, 0
7, 287599, Note_on_c, 5, 70, 0
7, 287600, Note_on_c, 5, 70, 59
7, 287600, Note_on_c, 5, 58, 59
7, 287639, Note_on_c, 5, 58, 0
7, 287639, Note_on_c, 5, 70, 0
7, 287640, Note_on_c, 5, 70, 60
7, 287640, Note_on_c, 5, 58, 60
7, 287759, Note_on_c, 5, 58, 0
7, 287759, Note_on_c, 5, 70, 0
7, 287880, Note_on_c, 5, 58, 64
7, 287880, Note_on_c, 5, 70, 64
7, 287919, Note_on_c, 5, 70, 0
7, 287919, Note_on_c, 5, 58, 0
7, 287920, Note_on_c, 5, 58, 65
7, 287920, Note_on_c, 5, 70, 65
7, 287959, Note_on_c, 5, 70, 0
7, 287959, Note_on_c, 5, 58, 0
7, 287960, Note_on_c, 5, 58, 65
7, 287960, Note_on_c, 5, 70, 65
7, 287999, Note_on_c, 5, 70, 0
7, 287999, Note_on_c, 5, 58, 0
7, 288000, Note_on_c, 5, 58, 66
7, 288000, Note_on_c, 5, 70, 66
7, 288119, Note_on_c, 5, 70, 0
7, 288119, Note_on_c, 5, 58, 0
7, 288240, Note_on_c, 5, 70, 70
7, 288240, Note_on_c, 5, 58, 70
7, 288279, Note_on_c, 5, 58, 0
7, 288279, Note_on_c, 5, 70, 0
7, 288280, Note_on_c, 5, 70, 70
7, 288280, Note_on_c, 5, 58, 70
7, 288319, Note_on_c, 5, 58, 0
7, 288319, Note_on_c, 5, 70, 0
7, 288320, Note_on_c, 5, 70, 71
7, 288320, Note_on_c, 5, 58, 71
7, 288359, Note_on_c, 5, 58, 0
7, 288359, Note_on_c, 5, 70, 0
7, 288360, Note_on_c, 5, 70, 72
7, 288360, Note_on_c, 5, 58, 72
7, 288479, Note_on_c, 5, 58, 0
7, 288479, Note_on_c, 5, 70, 0
7, 288600, Note_on_c, 5, 58, 76
7, 288600, Note_on_c, 5, 70, 76
7, 288639, Note_on_c, 5, 70, 0
7, 288639, Note_on_c, 5, 58, 0
7, 288640, Note_on_c, 5, 58, 76
7, 288640, Note_on_c, 5, 70, 76
7, 288679, Note_on_c, 5, 70, 0
7, 288679, Note_on_c, 5, 58, 0
7, 288680, Note_on_c, 5, 58, 77
7, 288680, Note_on_c, 5, 70, 77
7, 288719, Note_on_c, 5, 70, 0
7, 288719, Note_on_c, 5, 58, 0
7, 288720, Note_on_c, 5, 58, 78
7, 288720, Note_on_c, 5, 70, 78
7, 288839, Note_on_c, 5, 70, 0
7, 288839, Note_on_c, 5, 58, 0
7, 288960, Note_on_c, 5, 70, 82
7, 288960, Note_on_c, 5, 58, 82
7, 288999, Note_on_c, 5, 58, 0
7, 288999, Note_on_c, 5, 70, 0
7, 289000, Note_on_c, 5, 70, 82
7, 289000, Note_on_c, 5, 58, 82
7, 289039, Note_on_c, 5, 58, 0
7, 289039, Note_on_c, 5, 70, 0
7, 289040, Note_on_c, 5, 70, 83
7, 289040, Note_on_c, 5, 58, 83
7, 289079, Note_on_c, 5, 58, 0
7, 289079, Note_on_c, 5, 70, 0
7, 289080, Note_on_c, 5, 70, 84
7, 289080, Note_on_c, 5, 58, 84
7, 289199, Note_on_c, 5, 58, 0
7, 289199, Note_on_c, 5, 70, 0
7, 289320, Note_on_c, 5, 58, 88
7, 289320, Note_on_c, 5, 70, 88
7, 289359, Note_on_c, 5, 70, 0
7, 289359, Note_on_c, 5, 58, 0
7, 289360, Note_on_c, 5, 58, 88
7, 289360, Note_on_c, 5, 70, 88
7, 289399, Note_on_c, 5, 70, 0
7, 289399, Note_on_c, 5, 58, 0
7, 289400, Note_on_c, 5, 58, 89
7, 289400, Note_on_c, 5, 70, 89
7, 289439, Note_on_c, 5, 70, 0
7, 289439, Note_on_c, 5, 58, 0
7, 289440, Note_on_c, 5, 58, 90
7, 289440, Note_on_c, 5, 70, 90
7, 289559, Note_on_c, 5, 70, 0
7, 289559, Note_on_c, 5, 58, 0
7, 289680, Note_on_c, 5, 70, 94
7, 289680, Note_on_c, 5, 58, 94
7, 289719, Note_on_c, 5, 58, 0
7, 289719, Note_on_c, 5, 70, 0
7, 289720, Note_on_c, 5, 70, 94
7, 289720, Note_on_c, 5, 58, 94
7, 289759, Note_on_c, 5, 58, 0
7, 289759, Note_on_c, 5, 70, 0
7, 289760, Note_on_c, 5, 70, 95
7, 289760, Note_on_c, 5, 58, 95
7, 289799, Note_on_c, 5, 58, 0
7, 289799, Note_on_c, 5, 70, 0
7, 289800, Note_on_c, 5, 63, 96
7, 289800, Note_on_c, 5, 75, 96
7, 290039, Note_on_c, 5, 75, 0
7, 290039, Note_on_c, 5, 63, 0
7, 290040, Note_on_c, 5, 67, 96
7, 290040, Note_on_c, 5, 79, 96
7, 290159, Note_on_c, 5, 79, 0
7, 290159, Note_on_c, 5, 67, 0
7, 290160, Note_on_c, 5, 75, 96
7, 290160, Note_on_c, 5, 63, 96
7, 290399, Note_on_c, 5, 63, 0
7, 290399, Note_on_c, 5, 75, 0
7, 290400, Note_on_c, 5, 70, 96
7, 290400, Note_on_c, 5, 58, 96
7, 290519, Note_on_c, 5, 58, 0
7, 290519, Note_on_c, 5, 70, 0
7, 290520, Note_on_c, 5, 75, 96
7, 290520, Note_on_c, 5, 63, 96
7, 290639, Note_on_c, 5, 63, 0
7, 290639, Note_on_c, 5, 75, 0
7, 290640, Note_on_c, 5, 67, 96
7, 290640, Note_on_c, 5, 79, 96
7, 290759, Note_on_c, 5, 79, 0
7, 290759, Note_on_c, 5, 67, 0
7, 290760, Note_on_c, 5, 58, 96
7, 290760, Note_on_c, 5, 70, 96
7, 290879, Note_on_c, 5, 70, 0
7, 290879, Note_on_c, 5, 58, 0
7, 290880, Note_on_c, 5, 70, 96
7, 290880, Note_on_c, 5, 58, 96
7, 290939, Note_on_c, 5, 58, 0
7, 290939, Note_on_c, 5, 70, 0
7, 290940, Note_on_c, 5, 70, 96
7, 290940, Note_on_c, 5, 58, 96
7, 290999, Note_on_c, 5, 58, 0
7, 290999, Note_on_c, 5, 70, 0
7, 291000, Note_on_c, 5, 70, 96
7, 291000, Note_on_c, 5, 58, 96
7, 291059, Note_on_c, 5, 58, 0
7, 291059, Note_on_c, 5, 70, 0
7, 291060, Note_on_c, 5, 70, 96
7, 291060, Note_on_c, 5, 58, 96
7, 291119, Note_on_c, 5, 58, 0
7, 291119, Note_on_c, 5, 70, 0
7, 291120, Note_on_c, 5, 70, 96
7, 291120, Note_on_c, 5, 58, 96
7, 291179, Note_on_c, 5, 58, 0
7, 291179, Note_on_c, 5, 70, 0
7, 291180, Note_on_c, 5, 70, 96
7, 291180, Note_on_c, 5, 58, 96
7, 291239, Note_on_c, 5, 58, 0
7, 291239, Note_on_c, 5, 70, 0
7, 291240, Note_on_c, 5, 70, 96
7, 291240, Note_on_c, 5, 58, 96
7, 291299, Note_on_c, 5, 58, 0
7, 291299, Note_on_c, 5, 70, 0
7, 291300, Note_on_c, 5, 70, 96
7, 291300, Note_on_c, 5, 58, 96
7, 291359, Note_on_c, 5, 58, 0
7, 291359, Note_on_c, 5, 70, 0
7, 291360, Note_on_c, 5, 70, 96
7, 291360, Note_on_c, 5, 58, 96
7, 291419, Note_on_c, 5, 58, 0
7, 291419, Note_on_c, 5, 70, 0
7, 291420, Note_on_c, 5, 70, 96
7, 291420, Note_on_c, 5, 58, 96
7, 291479, Note_on_c, 5, 58, 0
7, 291479, Note_on_c, 5, 70, 0
7, 291480, Note_on_c, 5, 70, 96
7, 291480, Note_on_c, 5, 58, 96
7, 291539, Note_on_c, 5, 58, 0
7, 291539, Note_on_c, 5, 70, 0
7, 291540, Note_on_c, 5, 70, 96
7, 291540, Note_on_c, 5, 58, 96
7, 291599, Note_on_c, 5, 58, 0
7, 291599, Note_on_c, 5, 70, 0
7, 291600, Note_on_c, 5, 70, 96
7, 291600, Note_on_c, 5, 58, 96
7, 291659, Note_on_c, 5, 58, 0
7, 291659, Note_on_c, 5, 70, 0
7, 291660, Note_on_c, 5, 70, 96
7, 291660, Note_on_c, 5, 58, 96
7, 291719, Note_on_c, 5, 58, 0
7, 291719, Note_on_c, 5, 70, 0
7, 291720, Note_on_c, 5, 70, 96
7, 291720, Note_on_c, 5, 58, 96
7, 291779, Note_on_c, 5, 58, 0
7, 291779, Note_on_c, 5, 70, 0
7, 291780, Note_on_c, 5, 70, 96
7, 291780, Note_on_c, 5, 58, 96
7, 291839, Note_on_c, 5, 58, 0
7, 291839, Note_on_c, 5, 70, 0
7, 291840, Note_on_c, 5, 70, 96
7, 291840, Note_on_c, 5, 58, 96
7, 291899, Note_on_c, 5, 58, 0
7, 291899, Note_on_c, 5, 70, 0
7, 291900, Note_on_c, 5, 70, 96
7, 291900, Note_on_c, 5, 58, 96
7, 291959, Note_on_c, 5, 58, 0
7, 291959, Note_on_c, 5, 70, 0
7, 291960, Note_on_c, 5, 70, 96
7, 291960, Note_on_c, 5, 58, 96
7, 292019, Note_on_c, 5, 58, 0
7, 292019, Note_on_c, 5, 70, 0
7, 292020, Note_on_c, 5, 70, 96
7, 292020, Note_on_c, 5, 58, 96
7, 292079, Note_on_c, 5, 58, 0
7, 292079, Note_on_c, 5, 70, 0
7, 292080, Note_on_c, 5, 70, 96
7, 292080, Note_on_c, 5, 58, 96
7, 292139, Note_on_c, 5, 58, 0
7, 292139, Note_on_c, 5, 70, 0
7, 292140, Note_on_c, 5, 70, 96
7, 292140, Note_on_c, 5, 58, 96
7, 292199, Note_on_c, 5, 58, 0
7, 292199, Note_on_c, 5, 70, 0
7, 292200, Note_on_c, 5, 70, 96
7, 292200, Note_on_c, 5, 58, 96
7, 292259, Note_on_c, 5, 58, 0
7, 292259, Note_on_c, 5, 70, 0
7, 292260, Note_on_c, 5, 70, 96
7, 292260, Note_on_c, 5, 58, 96
7, 292319, Note_on_c, 5, 58, 0
7, 292319, Note_on_c, 5, 70, 0
7, 292320, Note_on_c, 5, 70, 96
7, 292320, Note_on_c, 5, 58, 96
7, 292379, Note_on_c, 5, 58, 0
7, 292379, Note_on_c, 5, 70, 0
7, 292380, Note_on_c, 5, 70, 96
7, 292380, Note_on_c, 5, 58, 96
7, 292439, Note_on_c, 5, 58, 0
7, 292439, Note_on_c, 5, 70, 0
7, 292440, Note_on_c, 5, 70, 96
7, 292440, Note_on_c, 5, 58, 96
7, 292499, Note_on_c, 5, 58, 0
7, 292499, Note_on_c, 5, 70, 0
7, 292500, Note_on_c, 5, 70, 96
7, 292500, Note_on_c, 5, 58, 96
7, 292559, Note_on_c, 5, 58, 0
7, 292559, Note_on_c, 5, 70, 0
7, 292560, Note_on_c, 5, 70, 96
7, 292560, Note_on_c, 5, 58, 96
7, 292619, Note_on_c, 5, 58, 0
7, 292619, Note_on_c, 5, 70, 0
7, 292620, Note_on_c, 5, 70, 96
7, 292620, Note_on_c, 5, 58, 96
7, 292679, Note_on_c, 5, 58, 0
7, 292679, Note_on_c, 5, 70, 0
7, 292680, Note_on_c, 5, 58, 96
7, 292680, Note_on_c, 5, 70, 96
7, 292799, Note_on_c, 5, 70, 0
7, 292799, Note_on_c, 5, 58, 0
7, 292800, Note_on_c, 5, 73, 96
7, 292919, Note_on_c, 5, 73, 0
7, 292920, Note_on_c, 5, 73, 96
7, 293039, Note_on_c, 5, 73, 0
7, 293040, Note_on_c, 5, 73, 96
7, 293399, Note_on_c, 5, 73, 0
7, 293520, Note_on_c, 5, 63, 112
7, 293520, Note_on_c, 5, 75, 112
7, 293579, Note_on_c, 5, 75, 0
7, 293579, Note_on_c, 5, 63, 0
7, 293580, Note_on_c, 5, 63, 96
7, 293580, Note_on_c, 5, 75, 96
7, 293639, Note_on_c, 5, 75, 0
7, 293639, Note_on_c, 5, 63, 0
7, 293640, Note_on_c, 5, 63, 96
7, 293640, Note_on_c, 5, 75, 96
7, 293759, Note_on_c, 5, 75, 0
7, 293759, Note_on_c, 5, 63, 0
7, 293880, Note_on_c, 5, 63, 112
7, 293880, Note_on_c, 5, 75, 112
7, 293939, Note_on_c, 5, 75, 0
7, 293939, Note_on_c, 5, 63, 0
7, 293940, Note_on_c, 5, 63, 96
7, 293940, Note_on_c, 5, 75, 96
7, 293999, Note_on_c, 5, 75, 0
7, 293999, Note_on_c, 5, 63, 0
7, 294000, Note_on_c, 5, 63, 96
7, 294000, Note_on_c, 5, 75, 96
7, 294119, Note_on_c, 5, 75, 0
7, 294119, Note_on_c, 5, 63, 0
7, 294240, Note_on_c, 5, 63, 112
7, 294240, Note_on_c, 5, 75, 112
7, 294299, Note_on_c, 5, 75, 0
7, 294299, Note_on_c, 5, 63, 0
7, 294300, Note_on_c, 5, 63, 96
7, 294300, Note_on_c, 5, 75, 96
7, 294359, Note_on_c, 5, 75, 0
7, 294359, Note_on_c, 5, 63, 0
7, 294360, Note_on_c, 5, 63, 96
7, 294360, Note_on_c, 5, 75, 96
7, 294479, Note_on_c, 5, 75, 0
7, 294479, Note_on_c, 5, 63, 0
7, 294600, Note_on_c, 5, 77, 96
7, 294659, Note_on_c, 5, 77, 0
7, 294660, Note_on_c, 5, 77, 96
7, 294719, Note_on_c, 5, 77, 0
7, 294720, Note_on_c, 5, 77, 96
7, 294839, Note_on_c, 5, 77, 0
7, 295320, Note_on_c, 5, 63, 96
7, 295320, Note_on_c, 5, 75, 96
7, 295439, Note_on_c, 5, 75, 0
7, 295439, Note_on_c, 5, 63, 0
7, 295440, Note_on_c, 5, 63, 96
7, 295440, Note_on_c, 5, 75, 96
7, 295559, Note_on_c, 5, 75, 0
7, 295559, Note_on_c, 5, 63, 0
7, 295560, Note_on_c, 5, 75, 127
7, 295560, Note_on_c, 5, 63, 127
7, 295619, Note_on_c, 5, 63, 0
7, 295619, Note_on_c, 5, 75, 0
7, 295620, Note_on_c, 5, 75, 127
7, 295620, Note_on_c, 5, 63, 127
7, 295679, Note_on_c, 5, 63, 0
7, 295679, Note_on_c, 5, 75, 0
7, 295680, Note_on_c, 5, 75, 127
7, 295680, Note_on_c, 5, 63, 127
7, 295739, Note_on_c, 5, 63, 0
7, 295739, Note_on_c, 5, 75, 0
7, 295740, Note_on_c, 5, 75, 127
7, 295740, Note_on_c, 5, 63, 127
7, 295799, Note_on_c, 5, 63, 0
7, 295799, Note_on_c, 5, 75, 0
7, 295800, Note_on_c, 5, 75, 127
7, 295800, Note_on_c, 5, 63, 127
7, 295859, Note_on_c, 5, 63, 0
7, 295859, Note_on_c, 5, 75, 0
7, 295860, Note_on_c, 5, 75, 127
7, 295860, Note_on_c, 5, 63, 127
7, 295919, Note_on_c, 5, 63, 0
7, 295919, Note_on_c, 5, 75, 0
7, 295920, Note_on_c, 5, 70, 127
7, 295920, Note_on_c, 5, 58, 127
7, 295979, Note_on_c, 5, 58, 0
7, 295979, Note_on_c, 5, 70, 0
7, 295980, Note_on_c, 5, 70, 127
7, 295980, Note_on_c, 5, 58, 127
7, 296039, Note_on_c, 5, 58, 0
7, 296039, Note_on_c, 5, 70, 0
7, 296040, Note_on_c, 5, 70, 127
7, 296040, Note_on_c, 5, 58, 127
7, 296099, Note_on_c, 5, 58, 0
7, 296099, Note_on_c, 5, 70, 0
7, 296100, Note_on_c, 5, 70, 127
7, 296100, Note_on_c, 5, 58, 127
7, 296159, Note_on_c, 5, 58, 0
7, 296159, Note_on_c, 5, 70, 0
7, 296160, Note_on_c, 5, 70, 127
7, 296160, Note_on_c, 5, 58, 127
7, 296219, Note_on_c, 5, 58, 0
7, 296219, Note_on_c, 5, 70, 0
7, 296220, Note_on_c, 5, 70, 127
7, 296220, Note_on_c, 5, 58, 127
7, 296279, Note_on_c, 5, 58, 0
7, 296279, Note_on_c, 5, 70, 0
7, 296280, Note_on_c, 5, 75, 48
7, 296280, Note_on_c, 5, 63, 48
7, 296399, Note_on_c, 5, 63, 0
7, 296399, Note_on_c, 5, 75, 0
7, 299280, Note_on_c, 5, 58, 96
7, 299280, Note_on_c, 5, 70, 96
7, 299639, Note_on_c, 5, 70, 0
7, 299639, Note_on_c, 5, 58, 0
7, 299640, Note_on_c, 5, 70, 96
7, 299640, Note_on_c, 5, 58, 96
7, 299999, Note_on_c, 5, 58, 0
7, 299999, Note_on_c, 5, 70, 0
7, 300000, Note_on_c, 5, 77, 96
7, 300000, Note_on_c, 5, 70, 96
7, 300239, Note_on_c, 5, 70, 0
7, 300239, Note_on_c, 5, 77, 0
7, 300240, Note_on_c, 5, 77, 96
7, 300240, Note_on_c, 5, 70, 96
7, 300479, Note_on_c, 5, 70, 0
7, 300479, Note_on_c, 5, 77, 0
7, 300480, Note_on_c, 5, 70, 96
7, 300480, Note_on_c, 5, 77, 96
7, 300539, Note_on_c, 5, 77, 0
7, 300539, Note_on_c, 5, 70, 0
7, 300600, Note_on_c, 5, 77, 96
7, 300600, Note_on_c, 5, 70, 96
7, 300659, Note_on_c, 5, 70, 0
7, 300659, Note_on_c, 5, 77, 0
7, 300720, Note_on_c, 5, 58, 127
7, 300720, Note_on_c, 5, 70, 127
7, 300779, Note_on_c, 5, 70, 0
7, 300779, Note_on_c, 5, 58, 0
7, 300840, Note_on_c, 5, 58, 127
7, 300840, Note_on_c, 5, 70, 127
7, 300899, Note_on_c, 5, 70, 0
7, 300899, Note_on_c, 5, 58, 0
7, 300960, Note_on_c, 5, 58, 127
7, 300960, Note_on_c, 5, 70, 127
7, 301019, Note_on_c, 5, 70, 0
7, 301019, Note_on_c, 5, 58, 0
7, 301080, Note_on_c, 5, 58, 127
7, 301080, Note_on_c, 5, 70, 127
7, 301139, Note_on_c, 5, 70, 0
7, 301139, Note_on_c, 5, 58, 0
7, 301200, Note_on_c, 5, 58, 127
7, 301200, Note_on_c, 5, 70, 127
7, 301259, Note_on_c, 5, 70, 0
7, 301259, Note_on_c, 5, 58, 0
7, 301320, Note_on_c, 5, 58, 127
7, 301320, Note_on_c, 5, 70, 127
7, 301379, Note_on_c, 5, 70, 0
7, 301379, Note_on_c, 5, 58, 0
7, 301440, Note_on_c, 5, 58, 127
7, 301440, Note_on_c, 5, 70, 127
7, 301499, Note_on_c, 5, 70, 0
7, 301499, Note_on_c, 5, 58, 0
7, 301560, Note_on_c, 5, 58, 127
7, 301560, Note_on_c, 5, 70, 127
7, 301619, Note_on_c, 5, 70, 0
7, 301619, Note_on_c, 5, 58, 0
7, 301680, Note_on_c, 5, 58, 127
7, 301680, Note_on_c, 5, 70, 127
7, 301739, Note_on_c, 5, 70, 0
7, 301739, Note_on_c, 5, 58, 0
7, 301800, Note_on_c, 5, 58, 127
7, 301800, Note_on_c, 5, 70, 127
7, 301859, Note_on_c, 5, 70, 0
7, 301859, Note_on_c, 5, 58, 0
7, 301920, Note_on_c, 5, 58, 127
7, 301920, Note_on_c, 5, 70, 127
7, 301979, Note_on_c, 5, 70, 0
7, 301979, Note_on_c, 5, 58, 0
7, 302040, Note_on_c, 5, 63, 127
7, 302040, Note_on_c, 5, 67, 127
7, 302159, Note_on_c, 5, 67, 0
7, 302159, Note_on_c, 5, 63, 0
7, 302400, Note_on_c, 5, 63, 127
7, 302400, Note_on_c, 5, 75, 127
7, 302519, Note_on_c, 5, 75, 0
7, 302519, Note_on_c, 5, 63, 0
7, 302760, Note_on_c, 5, 63, 127
7, 302760, Note_on_c, 5, 75, 127
7, 302879, Note_on_c, 5, 75, 0
7, 302879, Note_on_c, 5, 63, 0
7, 302879, End_track
8, 0, Start_track
8, 0, MIDI_port, 0
8, 0, Title_t, "Timpani"
8, 0, Program_c, 6, 47
8, 0, Control_c, 6, 7, 127
8, 0, Control_c, 6, 10, 37
8, 0, Control_c, 6, 93, 0
8, 0, Control_c, 6, 91, 0
8, 0, Note_on_c, 6, 51, 96
8, 59, Note_on_c, 6, 51, 0
8, 360, Note_on_c, 6, 51, 96
8, 419, Note_on_c, 6, 51, 0
8, 12960, Note_on_c, 6, 51, 127
8, 13079, Note_on_c, 6, 51, 0
8, 13320, Note_on_c, 6, 51, 127
8, 13439, Note_on_c, 6, 51, 0
8, 13560, Note_on_c, 6, 46, 127
8, 13679, Note_on_c, 6, 46, 0
8, 13680, Note_on_c, 6, 51, 127
8, 13799, Note_on_c, 6, 51, 0
8, 13800, Note_on_c, 6, 51, 127
8, 13919, Note_on_c, 6, 51, 0
8, 13920, Note_on_c, 6, 51, 127
8, 14039, Note_on_c, 6, 51, 0
8, 14040, Note_on_c, 6, 51, 127
8, 14159, Note_on_c, 6, 51, 0
8, 14280, Note_on_c, 6, 51, 127
8, 14399, Note_on_c, 6, 51, 0
8, 14400, Note_on_c, 6, 51, 127
8, 14519, Note_on_c, 6, 51, 0
8, 14520, Note_on_c, 6, 51, 127
8, 14639, Note_on_c, 6, 51, 0
8, 14640, Note_on_c, 6, 51, 127
8, 14759, Note_on_c, 6, 51, 0
8, 14760, Note_on_c, 6, 51, 127
8, 14879, Note_on_c, 6, 51, 0
8, 15000, Note_on_c, 6, 51, 127
8, 15119, Note_on_c, 6, 51, 0
8, 15120, Note_on_c, 6, 51, 127
8, 15139, Note_on_c, 6, 51, 0
8, 15140, Note_on_c, 6, 51, 127
8, 15159, Note_on_c, 6, 51, 0
8, 15160, Note_on_c, 6, 51, 127
8, 15179, Note_on_c, 6, 51, 0
8, 15180, Note_on_c, 6, 51, 127
8, 15199, Note_on_c, 6, 51, 0
8, 15200, Note_on_c, 6, 51, 127
8, 15219, Note_on_c, 6, 51, 0
8, 15220, Note_on_c, 6, 51, 127
8, 15239, Note_on_c, 6, 51, 0
8, 15240, Note_on_c, 6, 51, 127
8, 15259, Note_on_c, 6, 51, 0
8, 15260, Note_on_c, 6, 51, 127
8, 15279, Note_on_c, 6, 51, 0
8, 15280, Note_on_c, 6, 51, 127
8, 15299, Note_on_c, 6, 51, 0
8, 15300, Note_on_c, 6, 51, 127
8, 15319, Note_on_c, 6, 51, 0
8, 15320, Note_on_c, 6, 51, 127
8, 15339, Note_on_c, 6, 51, 0
8, 15340, Note_on_c, 6, 51, 127
8, 15359, Note_on_c, 6, 51, 0
8, 15360, Note_on_c, 6, 51, 127
8, 15379, Note_on_c, 6, 51, 0
8, 15380, Note_on_c, 6, 51, 127
8, 15399, Note_on_c, 6, 51, 0
8, 15400, Note_on_c, 6, 51, 127
8, 15419, Note_on_c, 6, 51, 0
8, 15420, Note_on_c, 6, 51, 127
8, 15439, Note_on_c, 6, 51, 0
8, 15440, Note_on_c, 6, 51, 127
8, 15459, Note_on_c, 6, 51, 0
8, 15460, Note_on_c, 6, 51, 127
8, 15479, Note_on_c, 6, 51, 0
8, 15480, Note_on_c, 6, 46, 127
8, 15499, Note_on_c, 6, 46, 0
8, 15500, Note_on_c, 6, 46, 127
8, 15519, Note_on_c, 6, 46, 0
8, 15520, Note_on_c, 6, 46, 127
8, 15539, Note_on_c, 6, 46, 0
8, 15540, Note_on_c, 6, 46, 127
8, 15559, Note_on_c, 6, 46, 0
8, 15560, Note_on_c, 6, 46, 127
8, 15579, Note_on_c, 6, 46, 0
8, 15580, Note_on_c, 6, 46, 127
8, 15599, Note_on_c, 6, 46, 0
8, 15600, Note_on_c, 6, 46, 127
8, 15619, Note_on_c, 6, 46, 0
8, 15620, Note_on_c, 6, 46, 127
8, 15639, Note_on_c, 6, 46, 0
8, 15640, Note_on_c, 6, 46, 127
8, 15659, Note_on_c, 6, 46, 0
8, 15660, Note_on_c, 6, 46, 127
8, 15679, Note_on_c, 6, 46, 0
8, 15680, Note_on_c, 6, 46, 127
8, 15699, Note_on_c, 6, 46, 0
8, 15700, Note_on_c, 6, 46, 127
8, 15719, Note_on_c, 6, 46, 0
8, 15720, Note_on_c, 6, 46, 127
8, 15739, Note_on_c, 6, 46, 0
8, 15740, Note_on_c, 6, 46, 127
8, 15759, Note_on_c, 6, 46, 0
8, 15760, Note_on_c, 6, 46, 127
8, 15779, Note_on_c, 6, 46, 0
8, 15780, Note_on_c, 6, 46, 127
8, 15799, Note_on_c, 6, 46, 0
8, 15800, Note_on_c, 6, 46, 127
8, 15819, Note_on_c, 6, 46, 0
8, 15820, Note_on_c, 6, 46, 127
8, 15839, Note_on_c, 6, 46, 0
8, 23040, Note_on_c, 6, 51, 96
8, 23099, Note_on_c, 6, 51, 0
8, 23160, Note_on_c, 6, 51, 96
8, 23219, Note_on_c, 6, 51, 0
8, 23700, Note_on_c, 6, 51, 96
8, 23729, Note_on_c, 6, 51, 0
8, 23760, Note_on_c, 6, 46, 96
8, 23819, Note_on_c, 6, 46, 0
8, 23880, Note_on_c, 6, 46, 96
8, 23939, Note_on_c, 6, 46, 0
8, 26040, Note_on_c, 6, 46, 96
8, 26099, Note_on_c, 6, 46, 0
8, 26160, Note_on_c, 6, 46, 96
8, 26219, Note_on_c, 6, 46, 0
8, 26280, Note_on_c, 6, 46, 96
8, 26339, Note_on_c, 6, 46, 0
8, 26400, Note_on_c, 6, 46, 96
8, 26459, Note_on_c, 6, 46, 0
8, 26520, Note_on_c, 6, 46, 96
8, 26579, Note_on_c, 6, 46, 0
8, 26640, Note_on_c, 6, 46, 96
8, 26699, Note_on_c, 6, 46, 0
8, 27000, Note_on_c, 6, 51, 96
8, 27059, Note_on_c, 6, 51, 0
8, 38880, Note_on_c, 6, 46, 96
8, 38939, Note_on_c, 6, 46, 0
8, 39240, Note_on_c, 6, 46, 96
8, 39299, Note_on_c, 6, 46, 0
8, 39600, Note_on_c, 6, 51, 96
8, 39659, Note_on_c, 6, 51, 0
8, 39960, Note_on_c, 6, 51, 96
8, 40019, Note_on_c, 6, 51, 0
8, 40320, Note_on_c, 6, 46, 127
8, 40379, Note_on_c, 6, 46, 0
8, 40440, Note_on_c, 6, 46, 127
8, 40499, Note_on_c, 6, 46, 0
8, 40800, Note_on_c, 6, 46, 127
8, 40859, Note_on_c, 6, 46, 0
8, 41160, Note_on_c, 6, 51, 127
8, 41219, Note_on_c, 6, 51, 0
8, 41520, Note_on_c, 6, 51, 127
8, 41579, Note_on_c, 6, 51, 0
8, 41760, Note_on_c, 6, 46, 127
8, 41819, Note_on_c, 6, 46, 0
8, 41880, Note_on_c, 6, 46, 127
8, 41939, Note_on_c, 6, 46, 0
8, 42000, Note_on_c, 6, 46, 127
8, 42059, Note_on_c, 6, 46, 0
8, 42120, Note_on_c, 6, 46, 127
8, 42149, Note_on_c, 6, 46, 0
8, 44520, Note_on_c, 6, 51, 127
8, 44579, Note_on_c, 6, 51, 0
8, 45240, Note_on_c, 6, 46, 127
8, 45299, Note_on_c, 6, 46, 0
8, 45600, Note_on_c, 6, 51, 127
8, 45659, Note_on_c, 6, 51, 0
8, 45840, Note_on_c, 6, 46, 127
8, 45899, Note_on_c, 6, 46, 0
8, 46080, Note_on_c, 6, 46, 127
8, 46139, Note_on_c, 6, 46, 0
8, 46320, Note_on_c, 6, 46, 127
8, 46379, Note_on_c, 6, 46, 0
8, 46560, Note_on_c, 6, 46, 127
8, 46619, Note_on_c, 6, 46, 0
8, 46800, Note_on_c, 6, 46, 127
8, 46859, Note_on_c, 6, 46, 0
8, 47040, Note_on_c, 6, 46, 127
8, 47099, Note_on_c, 6, 46, 0
8, 51480, Note_on_c, 6, 46, 127
8, 51539, Note_on_c, 6, 46, 0
8, 51840, Note_on_c, 6, 46, 127
8, 51899, Note_on_c, 6, 46, 0
8, 52200, Note_on_c, 6, 46, 127
8, 52259, Note_on_c, 6, 46, 0
8, 52560, Note_on_c, 6, 46, 127
8, 52619, Note_on_c, 6, 46, 0
8, 52680, Note_on_c, 6, 46, 127
8, 52739, Note_on_c, 6, 46, 0
8, 52800, Note_on_c, 6, 46, 127
8, 52859, Note_on_c, 6, 46, 0
8, 52920, Note_on_c, 6, 46, 127
8, 52979, Note_on_c, 6, 46, 0
8, 67320, Note_on_c, 6, 51, 127
8, 67439, Note_on_c, 6, 51, 0
8, 67680, Note_on_c, 6, 51, 127
8, 67799, Note_on_c, 6, 51, 0
8, 67920, Note_on_c, 6, 46, 127
8, 68039, Note_on_c, 6, 46, 0
8, 68040, Note_on_c, 6, 51, 127
8, 68159, Note_on_c, 6, 51, 0
8, 68160, Note_on_c, 6, 51, 127
8, 68279, Note_on_c, 6, 51, 0
8, 68280, Note_on_c, 6, 51, 127
8, 68399, Note_on_c, 6, 51, 0
8, 68400, Note_on_c, 6, 51, 127
8, 68519, Note_on_c, 6, 51, 0
8, 68640, Note_on_c, 6, 51, 127
8, 68759, Note_on_c, 6, 51, 0
8, 68760, Note_on_c, 6, 51, 127
8, 68879, Note_on_c, 6, 51, 0
8, 68880, Note_on_c, 6, 51, 127
8, 68999, Note_on_c, 6, 51, 0
8, 69000, Note_on_c, 6, 51, 127
8, 69119, Note_on_c, 6, 51, 0
8, 69120, Note_on_c, 6, 51, 127
8, 69239, Note_on_c, 6, 51, 0
8, 69360, Note_on_c, 6, 51, 127
8, 69479, Note_on_c, 6, 51, 0
8, 69480, Note_on_c, 6, 51, 127
8, 69499, Note_on_c, 6, 51, 0
8, 69500, Note_on_c, 6, 51, 127
8, 69519, Note_on_c, 6, 51, 0
8, 69520, Note_on_c, 6, 51, 127
8, 69539, Note_on_c, 6, 51, 0
8, 69540, Note_on_c, 6, 51, 127
8, 69559, Note_on_c, 6, 51, 0
8, 69560, Note_on_c, 6, 51, 127
8, 69579, Note_on_c, 6, 51, 0
8, 69580, Note_on_c, 6, 51, 127
8, 69599, Note_on_c, 6, 51, 0
8, 69600, Note_on_c, 6, 51, 127
8, 69619, Note_on_c, 6, 51, 0
8, 69620, Note_on_c, 6, 51, 127
8, 69639, Note_on_c, 6, 51, 0
8, 69640, Note_on_c, 6, 51, 127
8, 69659, Note_on_c, 6, 51, 0
8, 69660, Note_on_c, 6, 51, 127
8, 69679, Note_on_c, 6, 51, 0
8, 69680, Note_on_c, 6, 51, 127
8, 69699, Note_on_c, 6, 51, 0
8, 69700, Note_on_c, 6, 51, 127
8, 69719, Note_on_c, 6, 51, 0
8, 69720, Note_on_c, 6, 51, 127
8, 69739, Note_on_c, 6, 51, 0
8, 69740, Note_on_c, 6, 51, 127
8, 69759, Note_on_c, 6, 51, 0
8, 69760, Note_on_c, 6, 51, 127
8, 69779, Note_on_c, 6, 51, 0
8, 69780, Note_on_c, 6, 51, 127
8, 69799, Note_on_c, 6, 51, 0
8, 69800, Note_on_c, 6, 51, 127
8, 69819, Note_on_c, 6, 51, 0
8, 69820, Note_on_c, 6, 51, 127
8, 69839, Note_on_c, 6, 51, 0
8, 69840, Note_on_c, 6, 46, 127
8, 69859, Note_on_c, 6, 46, 0
8, 69860, Note_on_c, 6, 46, 127
8, 69879, Note_on_c, 6, 46, 0
8, 69880, Note_on_c, 6, 46, 127
8, 69899, Note_on_c, 6, 46, 0
8, 69900, Note_on_c, 6, 46, 127
8, 69919, Note_on_c, 6, 46, 0
8, 69920, Note_on_c, 6, 46, 127
8, 69939, Note_on_c, 6, 46, 0
8, 69940, Note_on_c, 6, 46, 127
8, 69959, Note_on_c, 6, 46, 0
8, 69960, Note_on_c, 6, 46, 127
8, 69979, Note_on_c, 6, 46, 0
8, 69980, Note_on_c, 6, 46, 127
8, 69999, Note_on_c, 6, 46, 0
8, 70000, Note_on_c, 6, 46, 127
8, 70019, Note_on_c, 6, 46, 0
8, 70020, Note_on_c, 6, 46, 127
8, 70039, Note_on_c, 6, 46, 0
8, 70040, Note_on_c, 6, 46, 127
8, 70059, Note_on_c, 6, 46, 0
8, 70060, Note_on_c, 6, 46, 127
8, 70079, Note_on_c, 6, 46, 0
8, 70080, Note_on_c, 6, 46, 127
8, 70099, Note_on_c, 6, 46, 0
8, 70100, Note_on_c, 6, 46, 127
8, 70119, Note_on_c, 6, 46, 0
8, 70120, Note_on_c, 6, 46, 127
8, 70139, Note_on_c, 6, 46, 0
8, 70140, Note_on_c, 6, 46, 127
8, 70159, Note_on_c, 6, 46, 0
8, 70160, Note_on_c, 6, 46, 127
8, 70179, Note_on_c, 6, 46, 0
8, 70180, Note_on_c, 6, 46, 127
8, 70199, Note_on_c, 6, 46, 0
8, 77400, Note_on_c, 6, 51, 96
8, 77459, Note_on_c, 6, 51, 0
8, 77520, Note_on_c, 6, 51, 96
8, 77579, Note_on_c, 6, 51, 0
8, 78060, Note_on_c, 6, 51, 96
8, 78089, Note_on_c, 6, 51, 0
8, 78120, Note_on_c, 6, 46, 96
8, 78179, Note_on_c, 6, 46, 0
8, 78240, Note_on_c, 6, 46, 96
8, 78299, Note_on_c, 6, 46, 0
8, 80400, Note_on_c, 6, 46, 96
8, 80459, Note_on_c, 6, 46, 0
8, 80520, Note_on_c, 6, 46, 96
8, 80579, Note_on_c, 6, 46, 0
8, 80640, Note_on_c, 6, 46, 96
8, 80699, Note_on_c, 6, 46, 0
8, 80760, Note_on_c, 6, 46, 96
8, 80819, Note_on_c, 6, 46, 0
8, 80880, Note_on_c, 6, 46, 96
8, 80939, Note_on_c, 6, 46, 0
8, 81000, Note_on_c, 6, 46, 96
8, 81059, Note_on_c, 6, 46, 0
8, 81360, Note_on_c, 6, 51, 96
8, 81419, Note_on_c, 6, 51, 0
8, 93240, Note_on_c, 6, 46, 96
8, 93299, Note_on_c, 6, 46, 0
8, 93600, Note_on_c, 6, 46, 96
8, 93659, Note_on_c, 6, 46, 0
8, 93960, Note_on_c, 6, 51, 96
8, 94019, Note_on_c, 6, 51, 0
8, 94320, Note_on_c, 6, 51, 96
8, 94379, Note_on_c, 6, 51, 0
8, 94680, Note_on_c, 6, 46, 127
8, 94739, Note_on_c, 6, 46, 0
8, 94800, Note_on_c, 6, 46, 127
8, 94859, Note_on_c, 6, 46, 0
8, 95160, Note_on_c, 6, 46, 127
8, 95219, Note_on_c, 6, 46, 0
8, 95520, Note_on_c, 6, 51, 127
8, 95579, Note_on_c, 6, 51, 0
8, 95880, Note_on_c, 6, 51, 127
8, 95939, Note_on_c, 6, 51, 0
8, 96120, Note_on_c, 6, 46, 127
8, 96179, Note_on_c, 6, 46, 0
8, 96240, Note_on_c, 6, 46, 127
8, 96299, Note_on_c, 6, 46, 0
8, 96360, Note_on_c, 6, 46, 127
8, 96419, Note_on_c, 6, 46, 0
8, 96480, Note_on_c, 6, 46, 127
8, 96509, Note_on_c, 6, 46, 0
8, 98880, Note_on_c, 6, 51, 127
8, 98939, Note_on_c, 6, 51, 0
8, 99600, Note_on_c, 6, 46, 127
8, 99659, Note_on_c, 6, 46, 0
8, 99960, Note_on_c, 6, 51, 127
8, 100019, Note_on_c, 6, 51, 0
8, 100200, Note_on_c, 6, 46, 127
8, 100259, Note_on_c, 6, 46, 0
8, 100440, Note_on_c, 6, 46, 127
8, 100499, Note_on_c, 6, 46, 0
8, 100680, Note_on_c, 6, 46, 127
8, 100739, Note_on_c, 6, 46, 0
8, 100920, Note_on_c, 6, 46, 127
8, 100979, Note_on_c, 6, 46, 0
8, 101160, Note_on_c, 6, 46, 127
8, 101219, Note_on_c, 6, 46, 0
8, 101400, Note_on_c, 6, 46, 127
8, 101459, Note_on_c, 6, 46, 0
8, 105840, Note_on_c, 6, 46, 127
8, 105899, Note_on_c, 6, 46, 0
8, 106200, Note_on_c, 6, 46, 127
8, 106259, Note_on_c, 6, 46, 0
8, 106560, Note_on_c, 6, 46, 127
8, 106619, Note_on_c, 6, 46, 0
8, 106920, Note_on_c, 6, 46, 127
8, 106979, Note_on_c, 6, 46, 0
8, 107040, Note_on_c, 6, 46, 127
8, 107099, Note_on_c, 6, 46, 0
8, 107160, Note_on_c, 6, 46, 127
8, 107219, Note_on_c, 6, 46, 0
8, 107280, Note_on_c, 6, 46, 127
8, 107339, Note_on_c, 6, 46, 0
8, 125280, Note_on_c, 6, 46, 96
8, 125339, Note_on_c, 6, 46, 0
8, 125640, Note_on_c, 6, 46, 96
8, 125699, Note_on_c, 6, 46, 0
8, 126000, Note_on_c, 6, 46, 96
8, 126059, Note_on_c, 6, 46, 0
8, 126360, Note_on_c, 6, 46, 96
8, 126419, Note_on_c, 6, 46, 0
8, 147720, Note_on_c, 6, 51, 127
8, 147739, Note_on_c, 6, 51, 0
8, 147740, Note_on_c, 6, 51, 127
8, 147759, Note_on_c, 6, 51, 0
8, 147760, Note_on_c, 6, 51, 127
8, 147779, Note_on_c, 6, 51, 0
8, 147780, Note_on_c, 6, 51, 127
8, 147799, Note_on_c, 6, 51, 0
8, 147800, Note_on_c, 6, 51, 127
8, 147819, Note_on_c, 6, 51, 0
8, 147820, Note_on_c, 6, 51, 127
8, 147839, Note_on_c, 6, 51, 0
8, 147840, Note_on_c, 6, 51, 127
8, 147859, Note_on_c, 6, 51, 0
8, 147860, Note_on_c, 6, 51, 127
8, 147879, Note_on_c, 6, 51, 0
8, 147880, Note_on_c, 6, 51, 127
8, 147899, Note_on_c, 6, 51, 0
8, 147900, Note_on_c, 6, 51, 127
8, 147919, Note_on_c, 6, 51, 0
8, 147920, Note_on_c, 6, 51, 127
8, 147939, Note_on_c, 6, 51, 0
8, 147940, Note_on_c, 6, 51, 127
8, 147959, Note_on_c, 6, 51, 0
8, 147960, Note_on_c, 6, 51, 127
8, 147979, Note_on_c, 6, 51, 0
8, 147980, Note_on_c, 6, 51, 127
8, 147999, Note_on_c, 6, 51, 0
8, 148000, Note_on_c, 6, 51, 127
8, 148019, Note_on_c, 6, 51, 0
8, 148020, Note_on_c, 6, 51, 127
8, 148039, Note_on_c, 6, 51, 0
8, 148040, Note_on_c, 6, 51, 127
8, 148059, Note_on_c, 6, 51, 0
8, 148060, Note_on_c, 6, 51, 127
8, 148079, Note_on_c, 6, 51, 0
8, 148080, Note_on_c, 6, 51, 127
8, 148099, Note_on_c, 6, 51, 0
8, 148100, Note_on_c, 6, 51, 127
8, 148119, Note_on_c, 6, 51, 0
8, 148120, Note_on_c, 6, 51, 127
8, 148139, Note_on_c, 6, 51, 0
8, 148140, Note_on_c, 6, 51, 127
8, 148159, Note_on_c, 6, 51, 0
8, 148160, Note_on_c, 6, 51, 127
8, 148179, Note_on_c, 6, 51, 0
8, 148180, Note_on_c, 6, 51, 127
8, 148199, Note_on_c, 6, 51, 0
8, 148200, Note_on_c, 6, 51, 127
8, 148219, Note_on_c, 6, 51, 0
8, 148220, Note_on_c, 6, 51, 127
8, 148239, Note_on_c, 6, 51, 0
8, 148240, Note_on_c, 6, 51, 127
8, 148259, Note_on_c, 6, 51, 0
8, 148260, Note_on_c, 6, 51, 127
8, 148279, Note_on_c, 6, 51, 0
8, 148280, Note_on_c, 6, 51, 127
8, 148299, Note_on_c, 6, 51, 0
8, 148300, Note_on_c, 6, 51, 127
8, 148319, Note_on_c, 6, 51, 0
8, 148320, Note_on_c, 6, 51, 127
8, 148439, Note_on_c, 6, 51, 0
8, 148440, Note_on_c, 6, 51, 127
8, 148559, Note_on_c, 6, 51, 0
8, 148680, Note_on_c, 6, 51, 127
8, 148799, Note_on_c, 6, 51, 0
8, 148920, Note_on_c, 6, 51, 127
8, 148939, Note_on_c, 6, 51, 0
8, 148940, Note_on_c, 6, 51, 127
8, 148959, Note_on_c, 6, 51, 0
8, 148960, Note_on_c, 6, 51, 127
8, 148979, Note_on_c, 6, 51, 0
8, 148980, Note_on_c, 6, 51, 127
8, 148999, Note_on_c, 6, 51, 0
8, 149000, Note_on_c, 6, 51, 127
8, 149019, Note_on_c, 6, 51, 0
8, 149020, Note_on_c, 6, 51, 127
8, 149039, Note_on_c, 6, 51, 0
8, 149040, Note_on_c, 6, 51, 127
8, 149059, Note_on_c, 6, 51, 0
8, 149060, Note_on_c, 6, 51, 127
8, 149079, Note_on_c, 6, 51, 0
8, 149080, Note_on_c, 6, 51, 127
8, 149099, Note_on_c, 6, 51, 0
8, 149100, Note_on_c, 6, 51, 127
8, 149119, Note_on_c, 6, 51, 0
8, 149120, Note_on_c, 6, 51, 127
8, 149139, Note_on_c, 6, 51, 0
8, 149140, Note_on_c, 6, 51, 127
8, 149159, Note_on_c, 6, 51, 0
8, 149160, Note_on_c, 6, 51, 127
8, 149279, Note_on_c, 6, 51, 0
8, 149400, Note_on_c, 6, 51, 127
8, 149519, Note_on_c, 6, 51, 0
8, 149640, Note_on_c, 6, 51, 127
8, 149759, Note_on_c, 6, 51, 0
8, 149880, Note_on_c, 6, 46, 127
8, 149899, Note_on_c, 6, 46, 0
8, 149900, Note_on_c, 6, 46, 127
8, 149919, Note_on_c, 6, 46, 0
8, 149920, Note_on_c, 6, 46, 127
8, 149939, Note_on_c, 6, 46, 0
8, 149940, Note_on_c, 6, 46, 127
8, 149959, Note_on_c, 6, 46, 0
8, 149960, Note_on_c, 6, 46, 127
8, 149979, Note_on_c, 6, 46, 0
8, 149980, Note_on_c, 6, 46, 127
8, 149999, Note_on_c, 6, 46, 0
8, 150000, Note_on_c, 6, 46, 127
8, 150019, Note_on_c, 6, 46, 0
8, 150020, Note_on_c, 6, 46, 127
8, 150039, Note_on_c, 6, 46, 0
8, 150040, Note_on_c, 6, 46, 127
8, 150059, Note_on_c, 6, 46, 0
8, 150060, Note_on_c, 6, 46, 127
8, 150079, Note_on_c, 6, 46, 0
8, 150080, Note_on_c, 6, 46, 127
8, 150099, Note_on_c, 6, 46, 0
8, 150100, Note_on_c, 6, 46, 127
8, 150119, Note_on_c, 6, 46, 0
8, 150120, Note_on_c, 6, 46, 127
8, 150139, Note_on_c, 6, 46, 0
8, 150140, Note_on_c, 6, 46, 127
8, 150159, Note_on_c, 6, 46, 0
8, 150160, Note_on_c, 6, 46, 127
8, 150179, Note_on_c, 6, 46, 0
8, 150180, Note_on_c, 6, 46, 127
8, 150199, Note_on_c, 6, 46, 0
8, 150200, Note_on_c, 6, 46, 127
8, 150219, Note_on_c, 6, 46, 0
8, 150220, Note_on_c, 6, 46, 127
8, 150239, Note_on_c, 6, 46, 0
8, 150240, Note_on_c, 6, 46, 127
8, 150259, Note_on_c, 6, 46, 0
8, 150260, Note_on_c, 6, 46, 127
8, 150279, Note_on_c, 6, 46, 0
8, 150280, Note_on_c, 6, 46, 127
8, 150299, Note_on_c, 6, 46, 0
8, 150300, Note_on_c, 6, 46, 127
8, 150319, Note_on_c, 6, 46, 0
8, 150320, Note_on_c, 6, 46, 127
8, 150339, Note_on_c, 6, 46, 0
8, 150340, Note_on_c, 6, 46, 127
8, 150359, Note_on_c, 6, 46, 0
8, 150360, Note_on_c, 6, 46, 127
8, 150379, Note_on_c, 6, 46, 0
8, 150380, Note_on_c, 6, 46, 127
8, 150399, Note_on_c, 6, 46, 0
8, 150400, Note_on_c, 6, 46, 127
8, 150419, Note_on_c, 6, 46, 0
8, 150420, Note_on_c, 6, 46, 127
8, 150439, Note_on_c, 6, 46, 0
8, 150440, Note_on_c, 6, 46, 127
8, 150459, Note_on_c, 6, 46, 0
8, 150460, Note_on_c, 6, 46, 127
8, 150479, Note_on_c, 6, 46, 0
8, 150480, Note_on_c, 6, 46, 127
8, 150599, Note_on_c, 6, 46, 0
8, 150600, Note_on_c, 6, 46, 127
8, 150719, Note_on_c, 6, 46, 0
8, 150840, Note_on_c, 6, 46, 127
8, 150959, Note_on_c, 6, 46, 0
8, 151080, Note_on_c, 6, 46, 127
8, 151099, Note_on_c, 6, 46, 0
8, 151100, Note_on_c, 6, 46, 127
8, 151119, Note_on_c, 6, 46, 0
8, 151120, Note_on_c, 6, 46, 127
8, 151139, Note_on_c, 6, 46, 0
8, 151140, Note_on_c, 6, 46, 127
8, 151159, Note_on_c, 6, 46, 0
8, 151160, Note_on_c, 6, 46, 127
8, 151179, Note_on_c, 6, 46, 0
8, 151180, Note_on_c, 6, 46, 127
8, 151199, Note_on_c, 6, 46, 0
8, 151200, Note_on_c, 6, 46, 127
8, 151219, Note_on_c, 6, 46, 0
8, 151220, Note_on_c, 6, 46, 127
8, 151239, Note_on_c, 6, 46, 0
8, 151240, Note_on_c, 6, 46, 127
8, 151259, Note_on_c, 6, 46, 0
8, 151260, Note_on_c, 6, 46, 127
8, 151279, Note_on_c, 6, 46, 0
8, 151280, Note_on_c, 6, 46, 127
8, 151299, Note_on_c, 6, 46, 0
8, 151300, Note_on_c, 6, 46, 127
8, 151319, Note_on_c, 6, 46, 0
8, 151320, Note_on_c, 6, 46, 127
8, 151439, Note_on_c, 6, 46, 0
8, 151560, Note_on_c, 6, 46, 127
8, 151679, Note_on_c, 6, 46, 0
8, 151800, Note_on_c, 6, 46, 127
8, 151919, Note_on_c, 6, 46, 0
8, 167760, Note_on_c, 6, 46, 96
8, 167879, Note_on_c, 6, 46, 0
8, 167880, Note_on_c, 6, 46, 96
8, 167999, Note_on_c, 6, 46, 0
8, 168000, Note_on_c, 6, 46, 96
8, 168119, Note_on_c, 6, 46, 0
8, 168120, Note_on_c, 6, 46, 96
8, 168239, Note_on_c, 6, 46, 0
8, 168240, Note_on_c, 6, 46, 96
8, 168359, Note_on_c, 6, 46, 0
8, 168360, Note_on_c, 6, 46, 96
8, 168479, Note_on_c, 6, 46, 0
8, 168480, Note_on_c, 6, 46, 96
8, 168499, Note_on_c, 6, 46, 0
8, 168500, Note_on_c, 6, 46, 96
8, 168519, Note_on_c, 6, 46, 0
8, 168520, Note_on_c, 6, 46, 96
8, 168539, Note_on_c, 6, 46, 0
8, 168540, Note_on_c, 6, 46, 96
8, 168559, Note_on_c, 6, 46, 0
8, 168560, Note_on_c, 6, 46, 96
8, 168579, Note_on_c, 6, 46, 0
8, 168580, Note_on_c, 6, 46, 96
8, 168599, Note_on_c, 6, 46, 0
8, 168600, Note_on_c, 6, 46, 96
8, 168619, Note_on_c, 6, 46, 0
8, 168620, Note_on_c, 6, 46, 96
8, 168639, Note_on_c, 6, 46, 0
8, 168640, Note_on_c, 6, 46, 96
8, 168659, Note_on_c, 6, 46, 0
8, 168660, Note_on_c, 6, 46, 96
8, 168679, Note_on_c, 6, 46, 0
8, 168680, Note_on_c, 6, 46, 96
8, 168699, Note_on_c, 6, 46, 0
8, 168700, Note_on_c, 6, 46, 96
8, 168719, Note_on_c, 6, 46, 0
8, 168720, Note_on_c, 6, 46, 96
8, 168739, Note_on_c, 6, 46, 0
8, 168740, Note_on_c, 6, 46, 96
8, 168759, Note_on_c, 6, 46, 0
8, 168760, Note_on_c, 6, 46, 96
8, 168779, Note_on_c, 6, 46, 0
8, 168780, Note_on_c, 6, 46, 96
8, 168799, Note_on_c, 6, 46, 0
8, 168800, Note_on_c, 6, 46, 96
8, 168819, Note_on_c, 6, 46, 0
8, 168820, Note_on_c, 6, 46, 96
8, 168839, Note_on_c, 6, 46, 0
8, 168840, Note_on_c, 6, 46, 96
8, 168859, Note_on_c, 6, 46, 0
8, 168860, Note_on_c, 6, 46, 96
8, 168879, Note_on_c, 6, 46, 0
8, 168880, Note_on_c, 6, 46, 96
8, 168899, Note_on_c, 6, 46, 0
8, 168900, Note_on_c, 6, 46, 96
8, 168919, Note_on_c, 6, 46, 0
8, 168920, Note_on_c, 6, 46, 96
8, 168939, Note_on_c, 6, 46, 0
8, 168940, Note_on_c, 6, 46, 96
8, 168959, Note_on_c, 6, 46, 0
8, 168960, Note_on_c, 6, 46, 96
8, 168979, Note_on_c, 6, 46, 0
8, 168980, Note_on_c, 6, 46, 96
8, 168999, Note_on_c, 6, 46, 0
8, 169000, Note_on_c, 6, 46, 96
8, 169019, Note_on_c, 6, 46, 0
8, 169020, Note_on_c, 6, 46, 96
8, 169039, Note_on_c, 6, 46, 0
8, 169040, Note_on_c, 6, 46, 96
8, 169059, Note_on_c, 6, 46, 0
8, 169060, Note_on_c, 6, 46, 96
8, 169079, Note_on_c, 6, 46, 0
8, 169080, Note_on_c, 6, 46, 96
8, 169099, Note_on_c, 6, 46, 0
8, 169100, Note_on_c, 6, 46, 96
8, 169119, Note_on_c, 6, 46, 0
8, 169120, Note_on_c, 6, 46, 96
8, 169139, Note_on_c, 6, 46, 0
8, 169140, Note_on_c, 6, 46, 96
8, 169159, Note_on_c, 6, 46, 0
8, 169160, Note_on_c, 6, 46, 96
8, 169179, Note_on_c, 6, 46, 0
8, 169180, Note_on_c, 6, 46, 96
8, 169199, Note_on_c, 6, 46, 0
8, 169200, Note_on_c, 6, 46, 127
8, 169319, Note_on_c, 6, 46, 0
8, 169320, Note_on_c, 6, 46, 127
8, 169439, Note_on_c, 6, 46, 0
8, 169440, Note_on_c, 6, 46, 127
8, 169559, Note_on_c, 6, 46, 0
8, 169560, Note_on_c, 6, 46, 127
8, 169679, Note_on_c, 6, 46, 0
8, 169680, Note_on_c, 6, 51, 127
8, 169799, Note_on_c, 6, 51, 0
8, 169800, Note_on_c, 6, 51, 127
8, 169919, Note_on_c, 6, 51, 0
8, 169920, Note_on_c, 6, 51, 127
8, 170039, Note_on_c, 6, 51, 0
8, 184320, Note_on_c, 6, 51, 127
8, 184339, Note_on_c, 6, 51, 0
8, 184340, Note_on_c, 6, 51, 127
8, 184359, Note_on_c, 6, 51, 0
8, 184360, Note_on_c, 6, 51, 127
8, 184379, Note_on_c, 6, 51, 0
8, 184380, Note_on_c, 6, 51, 127
8, 184399, Note_on_c, 6, 51, 0
8, 184400, Note_on_c, 6, 51, 127
8, 184419, Note_on_c, 6, 51, 0
8, 184420, Note_on_c, 6, 51, 127
8, 184439, Note_on_c, 6, 51, 0
8, 184440, Note_on_c, 6, 51, 127
8, 184459, Note_on_c, 6, 51, 0
8, 184460, Note_on_c, 6, 51, 127
8, 184479, Note_on_c, 6, 51, 0
8, 184480, Note_on_c, 6, 51, 127
8, 184499, Note_on_c, 6, 51, 0
8, 184500, Note_on_c, 6, 51, 127
8, 184519, Note_on_c, 6, 51, 0
8, 184520, Note_on_c, 6, 51, 127
8, 184539, Note_on_c, 6, 51, 0
8, 184540, Note_on_c, 6, 51, 127
8, 184559, Note_on_c, 6, 51, 0
8, 184560, Note_on_c, 6, 51, 127
8, 184579, Note_on_c, 6, 51, 0
8, 184580, Note_on_c, 6, 51, 127
8, 184599, Note_on_c, 6, 51, 0
8, 184600, Note_on_c, 6, 51, 127
8, 184619, Note_on_c, 6, 51, 0
8, 184620, Note_on_c, 6, 51, 127
8, 184639, Note_on_c, 6, 51, 0
8, 184640, Note_on_c, 6, 51, 127
8, 184659, Note_on_c, 6, 51, 0
8, 184660, Note_on_c, 6, 51, 127
8, 184679, Note_on_c, 6, 51, 0
8, 184680, Note_on_c, 6, 51, 127
8, 184699, Note_on_c, 6, 51, 0
8, 184700, Note_on_c, 6, 51, 127
8, 184719, Note_on_c, 6, 51, 0
8, 184720, Note_on_c, 6, 51, 127
8, 184739, Note_on_c, 6, 51, 0
8, 184740, Note_on_c, 6, 51, 127
8, 184759, Note_on_c, 6, 51, 0
8, 184760, Note_on_c, 6, 51, 127
8, 184779, Note_on_c, 6, 51, 0
8, 184780, Note_on_c, 6, 51, 127
8, 184799, Note_on_c, 6, 51, 0
8, 184800, Note_on_c, 6, 51, 127
8, 184819, Note_on_c, 6, 51, 0
8, 184820, Note_on_c, 6, 51, 127
8, 184839, Note_on_c, 6, 51, 0
8, 184840, Note_on_c, 6, 51, 127
8, 184859, Note_on_c, 6, 51, 0
8, 184860, Note_on_c, 6, 51, 127
8, 184879, Note_on_c, 6, 51, 0
8, 184880, Note_on_c, 6, 51, 127
8, 184899, Note_on_c, 6, 51, 0
8, 184900, Note_on_c, 6, 51, 127
8, 184919, Note_on_c, 6, 51, 0
8, 184920, Note_on_c, 6, 51, 127
8, 184939, Note_on_c, 6, 51, 0
8, 184940, Note_on_c, 6, 51, 127
8, 184959, Note_on_c, 6, 51, 0
8, 184960, Note_on_c, 6, 51, 127
8, 184979, Note_on_c, 6, 51, 0
8, 184980, Note_on_c, 6, 51, 127
8, 184999, Note_on_c, 6, 51, 0
8, 185000, Note_on_c, 6, 51, 127
8, 185019, Note_on_c, 6, 51, 0
8, 185020, Note_on_c, 6, 51, 127
8, 185039, Note_on_c, 6, 51, 0
8, 185040, Note_on_c, 6, 51, 127
8, 185059, Note_on_c, 6, 51, 0
8, 185060, Note_on_c, 6, 51, 127
8, 185079, Note_on_c, 6, 51, 0
8, 185080, Note_on_c, 6, 51, 127
8, 185099, Note_on_c, 6, 51, 0
8, 185100, Note_on_c, 6, 51, 127
8, 185119, Note_on_c, 6, 51, 0
8, 185120, Note_on_c, 6, 51, 127
8, 185139, Note_on_c, 6, 51, 0
8, 185140, Note_on_c, 6, 51, 127
8, 185159, Note_on_c, 6, 51, 0
8, 185160, Note_on_c, 6, 51, 127
8, 185279, Note_on_c, 6, 51, 0
8, 185280, Note_on_c, 6, 51, 127
8, 185399, Note_on_c, 6, 51, 0
8, 185400, Note_on_c, 6, 51, 127
8, 185519, Note_on_c, 6, 51, 0
8, 185520, Note_on_c, 6, 51, 127
8, 185639, Note_on_c, 6, 51, 0
8, 185640, Note_on_c, 6, 51, 127
8, 185759, Note_on_c, 6, 51, 0
8, 185760, Note_on_c, 6, 51, 127
8, 185879, Note_on_c, 6, 51, 0
8, 196560, Note_on_c, 6, 46, 96
8, 196579, Note_on_c, 6, 46, 0
8, 196580, Note_on_c, 6, 46, 96
8, 196599, Note_on_c, 6, 46, 0
8, 196600, Note_on_c, 6, 46, 96
8, 196619, Note_on_c, 6, 46, 0
8, 196620, Note_on_c, 6, 46, 96
8, 196639, Note_on_c, 6, 46, 0
8, 196640, Note_on_c, 6, 46, 96
8, 196659, Note_on_c, 6, 46, 0
8, 196660, Note_on_c, 6, 46, 96
8, 196679, Note_on_c, 6, 46, 0
8, 196680, Note_on_c, 6, 46, 96
8, 196699, Note_on_c, 6, 46, 0
8, 196700, Note_on_c, 6, 46, 96
8, 196719, Note_on_c, 6, 46, 0
8, 196720, Note_on_c, 6, 46, 96
8, 196739, Note_on_c, 6, 46, 0
8, 196740, Note_on_c, 6, 46, 96
8, 196759, Note_on_c, 6, 46, 0
8, 196760, Note_on_c, 6, 46, 96
8, 196779, Note_on_c, 6, 46, 0
8, 196780, Note_on_c, 6, 46, 96
8, 196799, Note_on_c, 6, 46, 0
8, 196800, Note_on_c, 6, 46, 96
8, 196819, Note_on_c, 6, 46, 0
8, 196820, Note_on_c, 6, 46, 96
8, 196839, Note_on_c, 6, 46, 0
8, 196840, Note_on_c, 6, 46, 96
8, 196859, Note_on_c, 6, 46, 0
8, 196860, Note_on_c, 6, 46, 96
8, 196879, Note_on_c, 6, 46, 0
8, 196880, Note_on_c, 6, 46, 96
8, 196899, Note_on_c, 6, 46, 0
8, 196900, Note_on_c, 6, 46, 96
8, 196919, Note_on_c, 6, 46, 0
8, 196920, Note_on_c, 6, 46, 127
8, 196939, Note_on_c, 6, 46, 0
8, 196940, Note_on_c, 6, 46, 127
8, 196959, Note_on_c, 6, 46, 0
8, 196960, Note_on_c, 6, 46, 127
8, 196979, Note_on_c, 6, 46, 0
8, 196980, Note_on_c, 6, 46, 127
8, 196999, Note_on_c, 6, 46, 0
8, 197000, Note_on_c, 6, 46, 127
8, 197019, Note_on_c, 6, 46, 0
8, 197020, Note_on_c, 6, 46, 127
8, 197039, Note_on_c, 6, 46, 0
8, 197040, Note_on_c, 6, 46, 127
8, 197059, Note_on_c, 6, 46, 0
8, 197060, Note_on_c, 6, 46, 127
8, 197079, Note_on_c, 6, 46, 0
8, 197080, Note_on_c, 6, 46, 127
8, 197099, Note_on_c, 6, 46, 0
8, 197100, Note_on_c, 6, 46, 127
8, 197119, Note_on_c, 6, 46, 0
8, 197120, Note_on_c, 6, 46, 127
8, 197139, Note_on_c, 6, 46, 0
8, 197140, Note_on_c, 6, 46, 127
8, 197159, Note_on_c, 6, 46, 0
8, 197160, Note_on_c, 6, 46, 127
8, 197179, Note_on_c, 6, 46, 0
8, 197180, Note_on_c, 6, 46, 127
8, 197199, Note_on_c, 6, 46, 0
8, 197200, Note_on_c, 6, 46, 127
8, 197219, Note_on_c, 6, 46, 0
8, 197220, Note_on_c, 6, 46, 127
8, 197239, Note_on_c, 6, 46, 0
8, 197240, Note_on_c, 6, 46, 127
8, 197259, Note_on_c, 6, 46, 0
8, 197260, Note_on_c, 6, 46, 127
8, 197279, Note_on_c, 6, 46, 0
8, 197280, Note_on_c, 6, 51, 127
8, 197399, Note_on_c, 6, 51, 0
8, 208320, Note_on_c, 6, 46, 64
8, 208439, Note_on_c, 6, 46, 0
8, 208440, Note_on_c, 6, 46, 72
8, 208559, Note_on_c, 6, 46, 0
8, 208560, Note_on_c, 6, 46, 80
8, 208679, Note_on_c, 6, 46, 0
8, 208680, Note_on_c, 6, 46, 88
8, 208799, Note_on_c, 6, 46, 0
8, 208800, Note_on_c, 6, 51, 96
8, 208819, Note_on_c, 6, 51, 0
8, 208820, Note_on_c, 6, 51, 96
8, 208839, Note_on_c, 6, 51, 0
8, 208840, Note_on_c, 6, 51, 96
8, 208859, Note_on_c, 6, 51, 0
8, 208860, Note_on_c, 6, 51, 96
8, 208879, Note_on_c, 6, 51, 0
8, 208880, Note_on_c, 6, 51, 96
8, 208899, Note_on_c, 6, 51, 0
8, 208900, Note_on_c, 6, 51, 96
8, 208919, Note_on_c, 6, 51, 0
8, 208920, Note_on_c, 6, 51, 96
8, 208939, Note_on_c, 6, 51, 0
8, 208940, Note_on_c, 6, 51, 96
8, 208959, Note_on_c, 6, 51, 0
8, 208960, Note_on_c, 6, 51, 96
8, 208979, Note_on_c, 6, 51, 0
8, 208980, Note_on_c, 6, 51, 96
8, 208999, Note_on_c, 6, 51, 0
8, 209000, Note_on_c, 6, 51, 96
8, 209019, Note_on_c, 6, 51, 0
8, 209020, Note_on_c, 6, 51, 96
8, 209039, Note_on_c, 6, 51, 0
8, 209040, Note_on_c, 6, 51, 96
8, 209059, Note_on_c, 6, 51, 0
8, 209060, Note_on_c, 6, 51, 96
8, 209079, Note_on_c, 6, 51, 0
8, 209080, Note_on_c, 6, 51, 96
8, 209099, Note_on_c, 6, 51, 0
8, 209100, Note_on_c, 6, 51, 96
8, 209119, Note_on_c, 6, 51, 0
8, 209120, Note_on_c, 6, 51, 96
8, 209139, Note_on_c, 6, 51, 0
8, 209140, Note_on_c, 6, 51, 96
8, 209159, Note_on_c, 6, 51, 0
8, 209160, Note_on_c, 6, 51, 96
8, 209179, Note_on_c, 6, 51, 0
8, 209180, Note_on_c, 6, 51, 96
8, 209199, Note_on_c, 6, 51, 0
8, 209200, Note_on_c, 6, 51, 96
8, 209219, Note_on_c, 6, 51, 0
8, 209220, Note_on_c, 6, 51, 96
8, 209239, Note_on_c, 6, 51, 0
8, 209240, Note_on_c, 6, 51, 96
8, 209259, Note_on_c, 6, 51, 0
8, 209260, Note_on_c, 6, 51, 96
8, 209279, Note_on_c, 6, 51, 0
8, 209280, Note_on_c, 6, 51, 96
8, 209299, Note_on_c, 6, 51, 0
8, 209300, Note_on_c, 6, 51, 96
8, 209319, Note_on_c, 6, 51, 0
8, 209320, Note_on_c, 6, 51, 96
8, 209339, Note_on_c, 6, 51, 0
8, 209340, Note_on_c, 6, 51, 96
8, 209359, Note_on_c, 6, 51, 0
8, 209360, Note_on_c, 6, 51, 96
8, 209379, Note_on_c, 6, 51, 0
8, 209380, Note_on_c, 6, 51, 96
8, 209399, Note_on_c, 6, 51, 0
8, 209400, Note_on_c, 6, 51, 96
8, 209419, Note_on_c, 6, 51, 0
8, 209420, Note_on_c, 6, 51, 96
8, 209439, Note_on_c, 6, 51, 0
8, 209440, Note_on_c, 6, 51, 96
8, 209459, Note_on_c, 6, 51, 0
8, 209460, Note_on_c, 6, 51, 96
8, 209479, Note_on_c, 6, 51, 0
8, 209480, Note_on_c, 6, 51, 96
8, 209499, Note_on_c, 6, 51, 0
8, 209500, Note_on_c, 6, 51, 96
8, 209519, Note_on_c, 6, 51, 0
8, 209520, Note_on_c, 6, 51, 96
8, 209639, Note_on_c, 6, 51, 0
8, 209640, Note_on_c, 6, 51, 96
8, 209759, Note_on_c, 6, 51, 0
8, 209760, Note_on_c, 6, 51, 96
8, 209879, Note_on_c, 6, 51, 0
8, 209880, Note_on_c, 6, 51, 96
8, 209999, Note_on_c, 6, 51, 0
8, 210360, Note_on_c, 6, 51, 96
8, 210479, Note_on_c, 6, 51, 0
8, 210480, Note_on_c, 6, 51, 96
8, 210599, Note_on_c, 6, 51, 0
8, 210600, Note_on_c, 6, 51, 96
8, 210719, Note_on_c, 6, 51, 0
8, 210840, Note_on_c, 6, 51, 112
8, 210959, Note_on_c, 6, 51, 0
8, 210960, Note_on_c, 6, 51, 112
8, 211079, Note_on_c, 6, 51, 0
8, 211320, Note_on_c, 6, 51, 112
8, 211439, Note_on_c, 6, 51, 0
8, 211680, Note_on_c, 6, 51, 112
8, 211799, Note_on_c, 6, 51, 0
8, 212040, Note_on_c, 6, 51, 112
8, 212159, Note_on_c, 6, 51, 0
8, 212160, Note_on_c, 6, 51, 112
8, 212279, Note_on_c, 6, 51, 0
8, 212280, Note_on_c, 6, 51, 112
8, 212399, Note_on_c, 6, 51, 0
8, 212400, Note_on_c, 6, 51, 127
8, 212419, Note_on_c, 6, 51, 0
8, 212420, Note_on_c, 6, 51, 127
8, 212439, Note_on_c, 6, 51, 0
8, 212440, Note_on_c, 6, 51, 127
8, 212459, Note_on_c, 6, 51, 0
8, 212460, Note_on_c, 6, 51, 127
8, 212479, Note_on_c, 6, 51, 0
8, 212480, Note_on_c, 6, 51, 127
8, 212499, Note_on_c, 6, 51, 0
8, 212500, Note_on_c, 6, 51, 127
8, 212519, Note_on_c, 6, 51, 0
8, 212520, Note_on_c, 6, 51, 127
8, 212539, Note_on_c, 6, 51, 0
8, 212540, Note_on_c, 6, 51, 127
8, 212559, Note_on_c, 6, 51, 0
8, 212560, Note_on_c, 6, 51, 127
8, 212579, Note_on_c, 6, 51, 0
8, 212580, Note_on_c, 6, 51, 127
8, 212599, Note_on_c, 6, 51, 0
8, 212600, Note_on_c, 6, 51, 127
8, 212619, Note_on_c, 6, 51, 0
8, 212620, Note_on_c, 6, 51, 127
8, 212639, Note_on_c, 6, 51, 0
8, 212640, Note_on_c, 6, 51, 127
8, 212659, Note_on_c, 6, 51, 0
8, 212660, Note_on_c, 6, 51, 127
8, 212679, Note_on_c, 6, 51, 0
8, 212680, Note_on_c, 6, 51, 127
8, 212699, Note_on_c, 6, 51, 0
8, 212700, Note_on_c, 6, 51, 127
8, 212719, Note_on_c, 6, 51, 0
8, 212720, Note_on_c, 6, 51, 127
8, 212739, Note_on_c, 6, 51, 0
8, 212740, Note_on_c, 6, 51, 127
8, 212759, Note_on_c, 6, 51, 0
8, 212760, Note_on_c, 6, 51, 127
8, 212779, Note_on_c, 6, 51, 0
8, 212780, Note_on_c, 6, 51, 127
8, 212799, Note_on_c, 6, 51, 0
8, 212800, Note_on_c, 6, 51, 127
8, 212819, Note_on_c, 6, 51, 0
8, 212820, Note_on_c, 6, 51, 127
8, 212839, Note_on_c, 6, 51, 0
8, 212840, Note_on_c, 6, 51, 127
8, 212859, Note_on_c, 6, 51, 0
8, 212860, Note_on_c, 6, 51, 127
8, 212879, Note_on_c, 6, 51, 0
8, 212880, Note_on_c, 6, 51, 127
8, 212899, Note_on_c, 6, 51, 0
8, 212900, Note_on_c, 6, 51, 127
8, 212919, Note_on_c, 6, 51, 0
8, 212920, Note_on_c, 6, 51, 127
8, 212939, Note_on_c, 6, 51, 0
8, 212940, Note_on_c, 6, 51, 127
8, 212959, Note_on_c, 6, 51, 0
8, 212960, Note_on_c, 6, 51, 127
8, 212979, Note_on_c, 6, 51, 0
8, 212980, Note_on_c, 6, 51, 127
8, 212999, Note_on_c, 6, 51, 0
8, 213000, Note_on_c, 6, 46, 127
8, 213119, Note_on_c, 6, 46, 0
8, 213120, Note_on_c, 6, 51, 127
8, 213239, Note_on_c, 6, 51, 0
8, 213240, Note_on_c, 6, 46, 127
8, 213359, Note_on_c, 6, 46, 0
8, 213360, Note_on_c, 6, 46, 127
8, 213479, Note_on_c, 6, 46, 0
8, 213480, Note_on_c, 6, 51, 127
8, 213599, Note_on_c, 6, 51, 0
8, 213720, Note_on_c, 6, 51, 127
8, 213839, Note_on_c, 6, 51, 0
8, 213840, Note_on_c, 6, 51, 127
8, 213959, Note_on_c, 6, 51, 0
8, 213960, Note_on_c, 6, 51, 127
8, 214079, Note_on_c, 6, 51, 0
8, 214080, Note_on_c, 6, 51, 127
8, 214199, Note_on_c, 6, 51, 0
8, 214200, Note_on_c, 6, 51, 127
8, 214319, Note_on_c, 6, 51, 0
8, 214920, Note_on_c, 6, 51, 127
8, 215039, Note_on_c, 6, 51, 0
8, 215280, Note_on_c, 6, 46, 127
8, 215399, Note_on_c, 6, 46, 0
8, 219000, Note_on_c, 6, 46, 127
8, 219179, Note_on_c, 6, 46, 0
8, 219180, Note_on_c, 6, 46, 127
8, 219239, Note_on_c, 6, 46, 0
8, 219240, Note_on_c, 6, 46, 127
8, 219359, Note_on_c, 6, 46, 0
8, 219360, Note_on_c, 6, 46, 127
8, 219479, Note_on_c, 6, 46, 0
8, 219480, Note_on_c, 6, 46, 127
8, 219599, Note_on_c, 6, 46, 0
8, 219600, Note_on_c, 6, 51, 48
8, 219719, Note_on_c, 6, 51, 0
8, 223200, Note_on_c, 6, 51, 96
8, 223259, Note_on_c, 6, 51, 0
8, 223320, Note_on_c, 6, 51, 96
8, 223379, Note_on_c, 6, 51, 0
8, 223860, Note_on_c, 6, 51, 96
8, 223919, Note_on_c, 6, 51, 0
8, 223920, Note_on_c, 6, 46, 96
8, 223979, Note_on_c, 6, 46, 0
8, 224040, Note_on_c, 6, 46, 96
8, 224099, Note_on_c, 6, 46, 0
8, 225480, Note_on_c, 6, 51, 96
8, 225599, Note_on_c, 6, 51, 0
8, 225600, Note_on_c, 6, 51, 96
8, 225719, Note_on_c, 6, 51, 0
8, 225720, Note_on_c, 6, 51, 96
8, 225839, Note_on_c, 6, 51, 0
8, 225840, Note_on_c, 6, 51, 96
8, 225959, Note_on_c, 6, 51, 0
8, 225960, Note_on_c, 6, 51, 96
8, 226079, Note_on_c, 6, 51, 0
8, 226080, Note_on_c, 6, 51, 96
8, 226199, Note_on_c, 6, 51, 0
8, 227520, Note_on_c, 6, 46, 127
8, 227639, Note_on_c, 6, 46, 0
8, 228240, Note_on_c, 6, 46, 127
8, 228259, Note_on_c, 6, 46, 0
8, 228260, Note_on_c, 6, 46, 127
8, 228279, Note_on_c, 6, 46, 0
8, 228280, Note_on_c, 6, 46, 127
8, 228299, Note_on_c, 6, 46, 0
8, 228300, Note_on_c, 6, 46, 127
8, 228319, Note_on_c, 6, 46, 0
8, 228320, Note_on_c, 6, 46, 127
8, 228339, Note_on_c, 6, 46, 0
8, 228340, Note_on_c, 6, 46, 127
8, 228359, Note_on_c, 6, 46, 0
8, 228360, Note_on_c, 6, 46, 127
8, 228379, Note_on_c, 6, 46, 0
8, 228380, Note_on_c, 6, 46, 127
8, 228399, Note_on_c, 6, 46, 0
8, 228400, Note_on_c, 6, 46, 127
8, 228419, Note_on_c, 6, 46, 0
8, 228420, Note_on_c, 6, 46, 127
8, 228439, Note_on_c, 6, 46, 0
8, 228440, Note_on_c, 6, 46, 127
8, 228459, Note_on_c, 6, 46, 0
8, 228460, Note_on_c, 6, 46, 127
8, 228479, Note_on_c, 6, 46, 0
8, 228480, Note_on_c, 6, 46, 127
8, 228499, Note_on_c, 6, 46, 0
8, 228500, Note_on_c, 6, 46, 127
8, 228519, Note_on_c, 6, 46, 0
8, 228520, Note_on_c, 6, 46, 127
8, 228539, Note_on_c, 6, 46, 0
8, 228540, Note_on_c, 6, 46, 127
8, 228559, Note_on_c, 6, 46, 0
8, 228560, Note_on_c, 6, 46, 127
8, 228579, Note_on_c, 6, 46, 0
8, 228580, Note_on_c, 6, 46, 127
8, 228599, Note_on_c, 6, 46, 0
8, 228600, Note_on_c, 6, 46, 127
8, 228619, Note_on_c, 6, 46, 0
8, 228620, Note_on_c, 6, 46, 127
8, 228639, Note_on_c, 6, 46, 0
8, 228640, Note_on_c, 6, 46, 127
8, 228659, Note_on_c, 6, 46, 0
8, 228660, Note_on_c, 6, 46, 127
8, 228679, Note_on_c, 6, 46, 0
8, 228680, Note_on_c, 6, 46, 127
8, 228699, Note_on_c, 6, 46, 0
8, 228700, Note_on_c, 6, 46, 127
8, 228719, Note_on_c, 6, 46, 0
8, 228720, Note_on_c, 6, 46, 127
8, 228739, Note_on_c, 6, 46, 0
8, 228740, Note_on_c, 6, 46, 127
8, 228759, Note_on_c, 6, 46, 0
8, 228760, Note_on_c, 6, 46, 127
8, 228779, Note_on_c, 6, 46, 0
8, 228780, Note_on_c, 6, 46, 127
8, 228799, Note_on_c, 6, 46, 0
8, 228800, Note_on_c, 6, 46, 127
8, 228819, Note_on_c, 6, 46, 0
8, 228820, Note_on_c, 6, 46, 127
8, 228839, Note_on_c, 6, 46, 0
8, 228840, Note_on_c, 6, 46, 127
8, 228859, Note_on_c, 6, 46, 0
8, 228860, Note_on_c, 6, 46, 127
8, 228879, Note_on_c, 6, 46, 0
8, 228880, Note_on_c, 6, 46, 127
8, 228899, Note_on_c, 6, 46, 0
8, 228900, Note_on_c, 6, 46, 127
8, 228919, Note_on_c, 6, 46, 0
8, 228920, Note_on_c, 6, 46, 127
8, 228939, Note_on_c, 6, 46, 0
8, 228940, Note_on_c, 6, 46, 127
8, 228959, Note_on_c, 6, 46, 0
8, 228960, Note_on_c, 6, 51, 127
8, 229079, Note_on_c, 6, 51, 0
8, 238440, Note_on_c, 6, 46, 96
8, 238559, Note_on_c, 6, 46, 0
8, 238800, Note_on_c, 6, 46, 96
8, 238919, Note_on_c, 6, 46, 0
8, 239160, Note_on_c, 6, 46, 96
8, 239279, Note_on_c, 6, 46, 0
8, 239520, Note_on_c, 6, 46, 96
8, 239639, Note_on_c, 6, 46, 0
8, 239640, Note_on_c, 6, 46, 96
8, 239759, Note_on_c, 6, 46, 0
8, 239760, Note_on_c, 6, 46, 127
8, 239879, Note_on_c, 6, 46, 0
8, 240120, Note_on_c, 6, 46, 127
8, 240239, Note_on_c, 6, 46, 0
8, 240480, Note_on_c, 6, 46, 127
8, 240599, Note_on_c, 6, 46, 0
8, 240840, Note_on_c, 6, 46, 127
8, 240959, Note_on_c, 6, 46, 0
8, 240960, Note_on_c, 6, 46, 127
8, 241079, Note_on_c, 6, 46, 0
8, 241080, Note_on_c, 6, 46, 127
8, 241199, Note_on_c, 6, 46, 0
8, 241200, Note_on_c, 6, 51, 127
8, 241319, Note_on_c, 6, 51, 0
8, 241440, Note_on_c, 6, 51, 127
8, 241459, Note_on_c, 6, 51, 0
8, 241460, Note_on_c, 6, 51, 127
8, 241479, Note_on_c, 6, 51, 0
8, 241480, Note_on_c, 6, 51, 127
8, 241499, Note_on_c, 6, 51, 0
8, 241500, Note_on_c, 6, 51, 127
8, 241519, Note_on_c, 6, 51, 0
8, 241520, Note_on_c, 6, 51, 127
8, 241539, Note_on_c, 6, 51, 0
8, 241540, Note_on_c, 6, 51, 127
8, 241559, Note_on_c, 6, 51, 0
8, 241560, Note_on_c, 6, 51, 127
8, 241679, Note_on_c, 6, 51, 0
8, 243840, Note_on_c, 6, 51, 127
8, 243899, Note_on_c, 6, 51, 0
8, 243960, Note_on_c, 6, 51, 127
8, 244019, Note_on_c, 6, 51, 0
8, 244200, Note_on_c, 6, 51, 127
8, 244259, Note_on_c, 6, 51, 0
8, 244320, Note_on_c, 6, 46, 127
8, 244379, Note_on_c, 6, 46, 0
8, 244920, Note_on_c, 6, 51, 127
8, 244979, Note_on_c, 6, 51, 0
8, 245040, Note_on_c, 6, 51, 127
8, 245099, Note_on_c, 6, 51, 0
8, 245280, Note_on_c, 6, 51, 127
8, 245339, Note_on_c, 6, 51, 0
8, 245520, Note_on_c, 6, 51, 127
8, 245579, Note_on_c, 6, 51, 0
8, 245760, Note_on_c, 6, 51, 127
8, 245819, Note_on_c, 6, 51, 0
8, 246000, Note_on_c, 6, 51, 127
8, 246059, Note_on_c, 6, 51, 0
8, 246240, Note_on_c, 6, 51, 127
8, 246299, Note_on_c, 6, 51, 0
8, 246480, Note_on_c, 6, 51, 127
8, 246539, Note_on_c, 6, 51, 0
8, 250560, Note_on_c, 6, 46, 127
8, 250579, Note_on_c, 6, 46, 0
8, 250580, Note_on_c, 6, 46, 127
8, 250599, Note_on_c, 6, 46, 0
8, 250600, Note_on_c, 6, 46, 127
8, 250619, Note_on_c, 6, 46, 0
8, 250620, Note_on_c, 6, 46, 127
8, 250639, Note_on_c, 6, 46, 0
8, 250640, Note_on_c, 6, 46, 127
8, 250659, Note_on_c, 6, 46, 0
8, 250660, Note_on_c, 6, 46, 127
8, 250679, Note_on_c, 6, 46, 0
8, 250680, Note_on_c, 6, 46, 127
8, 250699, Note_on_c, 6, 46, 0
8, 250700, Note_on_c, 6, 46, 127
8, 250719, Note_on_c, 6, 46, 0
8, 250720, Note_on_c, 6, 46, 127
8, 250739, Note_on_c, 6, 46, 0
8, 250740, Note_on_c, 6, 46, 127
8, 250759, Note_on_c, 6, 46, 0
8, 250760, Note_on_c, 6, 46, 127
8, 250779, Note_on_c, 6, 46, 0
8, 250780, Note_on_c, 6, 46, 127
8, 250799, Note_on_c, 6, 46, 0
8, 250800, Note_on_c, 6, 46, 127
8, 250819, Note_on_c, 6, 46, 0
8, 250820, Note_on_c, 6, 46, 127
8, 250839, Note_on_c, 6, 46, 0
8, 250840, Note_on_c, 6, 46, 127
8, 250859, Note_on_c, 6, 46, 0
8, 250860, Note_on_c, 6, 46, 127
8, 250879, Note_on_c, 6, 46, 0
8, 250880, Note_on_c, 6, 46, 127
8, 250899, Note_on_c, 6, 46, 0
8, 250900, Note_on_c, 6, 46, 127
8, 250919, Note_on_c, 6, 46, 0
8, 250920, Note_on_c, 6, 51, 96
8, 251039, Note_on_c, 6, 51, 0
8, 251280, Note_on_c, 6, 51, 96
8, 251399, Note_on_c, 6, 51, 0
8, 251640, Note_on_c, 6, 51, 96
8, 251759, Note_on_c, 6, 51, 0
8, 252000, Note_on_c, 6, 51, 96
8, 252059, Note_on_c, 6, 51, 0
8, 252120, Note_on_c, 6, 51, 96
8, 252179, Note_on_c, 6, 51, 0
8, 252240, Note_on_c, 6, 51, 96
8, 252299, Note_on_c, 6, 51, 0
8, 252360, Note_on_c, 6, 51, 96
8, 252479, Note_on_c, 6, 51, 0
8, 266040, Note_on_c, 6, 51, 48
8, 266159, Note_on_c, 6, 51, 0
8, 266520, Note_on_c, 6, 51, 48
8, 266639, Note_on_c, 6, 51, 0
8, 266640, Note_on_c, 6, 51, 48
8, 266759, Note_on_c, 6, 51, 0
8, 266760, Note_on_c, 6, 46, 48
8, 266879, Note_on_c, 6, 46, 0
8, 267240, Note_on_c, 6, 46, 48
8, 267359, Note_on_c, 6, 46, 0
8, 267360, Note_on_c, 6, 46, 48
8, 267479, Note_on_c, 6, 46, 0
8, 267480, Note_on_c, 6, 51, 48
8, 267599, Note_on_c, 6, 51, 0
8, 267960, Note_on_c, 6, 51, 48
8, 268079, Note_on_c, 6, 51, 0
8, 268080, Note_on_c, 6, 51, 48
8, 268199, Note_on_c, 6, 51, 0
8, 268200, Note_on_c, 6, 46, 48
8, 268319, Note_on_c, 6, 46, 0
8, 279720, Note_on_c, 6, 46, 48
8, 279839, Note_on_c, 6, 46, 0
8, 280080, Note_on_c, 6, 46, 54
8, 280199, Note_on_c, 6, 46, 0
8, 280440, Note_on_c, 6, 46, 60
8, 280559, Note_on_c, 6, 46, 0
8, 280800, Note_on_c, 6, 46, 48
8, 280919, Note_on_c, 6, 46, 0
8, 281160, Note_on_c, 6, 51, 48
8, 281279, Note_on_c, 6, 51, 0
8, 286800, Note_on_c, 6, 46, 48
8, 286839, Note_on_c, 6, 46, 0
8, 286840, Note_on_c, 6, 46, 48
8, 286879, Note_on_c, 6, 46, 0
8, 286880, Note_on_c, 6, 46, 48
8, 286919, Note_on_c, 6, 46, 0
8, 286920, Note_on_c, 6, 46, 48
8, 287039, Note_on_c, 6, 46, 0
8, 287160, Note_on_c, 6, 46, 54
8, 287199, Note_on_c, 6, 46, 0
8, 287200, Note_on_c, 6, 46, 54
8, 287239, Note_on_c, 6, 46, 0
8, 287240, Note_on_c, 6, 46, 55
8, 287279, Note_on_c, 6, 46, 0
8, 287280, Note_on_c, 6, 46, 56
8, 287399, Note_on_c, 6, 46, 0
8, 287520, Note_on_c, 6, 46, 60
8, 287559, Note_on_c, 6, 46, 0
8, 287560, Note_on_c, 6, 46, 60
8, 287599, Note_on_c, 6, 46, 0
8, 287600, Note_on_c, 6, 46, 61
8, 287639, Note_on_c, 6, 46, 0
8, 287640, Note_on_c, 6, 46, 62
8, 287759, Note_on_c, 6, 46, 0
8, 287880, Note_on_c, 6, 46, 66
8, 287919, Note_on_c, 6, 46, 0
8, 287920, Note_on_c, 6, 46, 66
8, 287959, Note_on_c, 6, 46, 0
8, 287960, Note_on_c, 6, 46, 67
8, 287999, Note_on_c, 6, 46, 0
8, 288000, Note_on_c, 6, 46, 68
8, 288119, Note_on_c, 6, 46, 0
8, 288240, Note_on_c, 6, 46, 72
8, 288279, Note_on_c, 6, 46, 0
8, 288280, Note_on_c, 6, 46, 72
8, 288319, Note_on_c, 6, 46, 0
8, 288320, Note_on_c, 6, 46, 73
8, 288359, Note_on_c, 6, 46, 0
8, 288360, Note_on_c, 6, 46, 74
8, 288479, Note_on_c, 6, 46, 0
8, 288600, Note_on_c, 6, 46, 78
8, 288639, Note_on_c, 6, 46, 0
8, 288640, Note_on_c, 6, 46, 78
8, 288679, Note_on_c, 6, 46, 0
8, 288680, Note_on_c, 6, 46, 79
8, 288719, Note_on_c, 6, 46, 0
8, 288720, Note_on_c, 6, 46, 80
8, 288839, Note_on_c, 6, 46, 0
8, 288960, Note_on_c, 6, 46, 84
8, 288999, Note_on_c, 6, 46, 0
8, 289000, Note_on_c, 6, 46, 84
8, 289039, Note_on_c, 6, 46, 0
8, 289040, Note_on_c, 6, 46, 85
8, 289079, Note_on_c, 6, 46, 0
8, 289080, Note_on_c, 6, 46, 86
8, 289199, Note_on_c, 6, 46, 0
8, 289320, Note_on_c, 6, 46, 88
8, 289359, Note_on_c, 6, 46, 0
8, 289360, Note_on_c, 6, 46, 88
8, 289399, Note_on_c, 6, 46, 0
8, 289400, Note_on_c, 6, 46, 89
8, 289439, Note_on_c, 6, 46, 0
8, 289440, Note_on_c, 6, 46, 90
8, 289559, Note_on_c, 6, 46, 0
8, 289680, Note_on_c, 6, 46, 94
8, 289719, Note_on_c, 6, 46, 0
8, 289720, Note_on_c, 6, 46, 94
8, 289759, Note_on_c, 6, 46, 0
8, 289760, Note_on_c, 6, 46, 95
8, 289799, Note_on_c, 6, 46, 0
8, 289800, Note_on_c, 6, 51, 96
8, 289819, Note_on_c, 6, 51, 0
8, 289820, Note_on_c, 6, 51, 96
8, 289839, Note_on_c, 6, 51, 0
8, 289840, Note_on_c, 6, 51, 96
8, 289859, Note_on_c, 6, 51, 0
8, 289860, Note_on_c, 6, 51, 96
8, 289879, Note_on_c, 6, 51, 0
8, 289880, Note_on_c, 6, 51, 96
8, 289899, Note_on_c, 6, 51, 0
8, 289900, Note_on_c, 6, 51, 96
8, 289919, Note_on_c, 6, 51, 0
8, 289920, Note_on_c, 6, 51, 96
8, 289939, Note_on_c, 6, 51, 0
8, 289940, Note_on_c, 6, 51, 96
8, 289959, Note_on_c, 6, 51, 0
8, 289960, Note_on_c, 6, 51, 96
8, 289979, Note_on_c, 6, 51, 0
8, 289980, Note_on_c, 6, 51, 96
8, 289999, Note_on_c, 6, 51, 0
8, 290000, Note_on_c, 6, 51, 96
8, 290019, Note_on_c, 6, 51, 0
8, 290020, Note_on_c, 6, 51, 96
8, 290039, Note_on_c, 6, 51, 0
8, 290040, Note_on_c, 6, 51, 96
8, 290059, Note_on_c, 6, 51, 0
8, 290060, Note_on_c, 6, 51, 96
8, 290079, Note_on_c, 6, 51, 0
8, 290080, Note_on_c, 6, 51, 96
8, 290099, Note_on_c, 6, 51, 0
8, 290100, Note_on_c, 6, 51, 96
8, 290119, Note_on_c, 6, 51, 0
8, 290120, Note_on_c, 6, 51, 96
8, 290139, Note_on_c, 6, 51, 0
8, 290140, Note_on_c, 6, 51, 96
8, 290159, Note_on_c, 6, 51, 0
8, 290160, Note_on_c, 6, 51, 96
8, 290179, Note_on_c, 6, 51, 0
8, 290180, Note_on_c, 6, 51, 96
8, 290199, Note_on_c, 6, 51, 0
8, 290200, Note_on_c, 6, 51, 96
8, 290219, Note_on_c, 6, 51, 0
8, 290220, Note_on_c, 6, 51, 96
8, 290239, Note_on_c, 6, 51, 0
8, 290240, Note_on_c, 6, 51, 96
8, 290259, Note_on_c, 6, 51, 0
8, 290260, Note_on_c, 6, 51, 96
8, 290279, Note_on_c, 6, 51, 0
8, 290280, Note_on_c, 6, 51, 96
8, 290299, Note_on_c, 6, 51, 0
8, 290300, Note_on_c, 6, 51, 96
8, 290319, Note_on_c, 6, 51, 0
8, 290320, Note_on_c, 6, 51, 96
8, 290339, Note_on_c, 6, 51, 0
8, 290340, Note_on_c, 6, 51, 96
8, 290359, Note_on_c, 6, 51, 0
8, 290360, Note_on_c, 6, 51, 96
8, 290379, Note_on_c, 6, 51, 0
8, 290380, Note_on_c, 6, 51, 96
8, 290399, Note_on_c, 6, 51, 0
8, 290400, Note_on_c, 6, 51, 96
8, 290419, Note_on_c, 6, 51, 0
8, 290420, Note_on_c, 6, 51, 96
8, 290439, Note_on_c, 6, 51, 0
8, 290440, Note_on_c, 6, 51, 96
8, 290459, Note_on_c, 6, 51, 0
8, 290460, Note_on_c, 6, 51, 96
8, 290479, Note_on_c, 6, 51, 0
8, 290480, Note_on_c, 6, 51, 96
8, 290499, Note_on_c, 6, 51, 0
8, 290500, Note_on_c, 6, 51, 96
8, 290519, Note_on_c, 6, 51, 0
8, 290520, Note_on_c, 6, 51, 96
8, 290539, Note_on_c, 6, 51, 0
8, 290540, Note_on_c, 6, 51, 96
8, 290559, Note_on_c, 6, 51, 0
8, 290560, Note_on_c, 6, 51, 96
8, 290579, Note_on_c, 6, 51, 0
8, 290580, Note_on_c, 6, 51, 96
8, 290599, Note_on_c, 6, 51, 0
8, 290600, Note_on_c, 6, 51, 96
8, 290619, Note_on_c, 6, 51, 0
8, 290620, Note_on_c, 6, 51, 96
8, 290639, Note_on_c, 6, 51, 0
8, 290640, Note_on_c, 6, 51, 96
8, 290659, Note_on_c, 6, 51, 0
8, 290660, Note_on_c, 6, 51, 96
8, 290679, Note_on_c, 6, 51, 0
8, 290680, Note_on_c, 6, 51, 96
8, 290699, Note_on_c, 6, 51, 0
8, 290700, Note_on_c, 6, 51, 96
8, 290719, Note_on_c, 6, 51, 0
8, 290720, Note_on_c, 6, 51, 96
8, 290739, Note_on_c, 6, 51, 0
8, 290740, Note_on_c, 6, 51, 96
8, 290759, Note_on_c, 6, 51, 0
8, 290760, Note_on_c, 6, 51, 96
8, 290779, Note_on_c, 6, 51, 0
8, 290780, Note_on_c, 6, 51, 96
8, 290799, Note_on_c, 6, 51, 0
8, 290800, Note_on_c, 6, 51, 96
8, 290819, Note_on_c, 6, 51, 0
8, 290820, Note_on_c, 6, 51, 96
8, 290839, Note_on_c, 6, 51, 0
8, 290840, Note_on_c, 6, 51, 96
8, 290859, Note_on_c, 6, 51, 0
8, 290860, Note_on_c, 6, 51, 96
8, 290879, Note_on_c, 6, 51, 0
8, 290880, Note_on_c, 6, 51, 96
8, 290899, Note_on_c, 6, 51, 0
8, 290900, Note_on_c, 6, 51, 96
8, 290919, Note_on_c, 6, 51, 0
8, 290920, Note_on_c, 6, 51, 96
8, 290939, Note_on_c, 6, 51, 0
8, 290940, Note_on_c, 6, 51, 96
8, 290959, Note_on_c, 6, 51, 0
8, 290960, Note_on_c, 6, 51, 96
8, 290979, Note_on_c, 6, 51, 0
8, 290980, Note_on_c, 6, 51, 96
8, 290999, Note_on_c, 6, 51, 0
8, 291000, Note_on_c, 6, 51, 96
8, 291019, Note_on_c, 6, 51, 0
8, 291020, Note_on_c, 6, 51, 96
8, 291039, Note_on_c, 6, 51, 0
8, 291040, Note_on_c, 6, 51, 96
8, 291059, Note_on_c, 6, 51, 0
8, 291060, Note_on_c, 6, 51, 96
8, 291079, Note_on_c, 6, 51, 0
8, 291080, Note_on_c, 6, 51, 96
8, 291099, Note_on_c, 6, 51, 0
8, 291100, Note_on_c, 6, 51, 96
8, 291119, Note_on_c, 6, 51, 0
8, 291120, Note_on_c, 6, 51, 96
8, 291139, Note_on_c, 6, 51, 0
8, 291140, Note_on_c, 6, 51, 96
8, 291159, Note_on_c, 6, 51, 0
8, 291160, Note_on_c, 6, 51, 96
8, 291179, Note_on_c, 6, 51, 0
8, 291180, Note_on_c, 6, 51, 96
8, 291199, Note_on_c, 6, 51, 0
8, 291200, Note_on_c, 6, 51, 96
8, 291219, Note_on_c, 6, 51, 0
8, 291220, Note_on_c, 6, 51, 96
8, 291239, Note_on_c, 6, 51, 0
8, 291240, Note_on_c, 6, 46, 96
8, 291259, Note_on_c, 6, 46, 0
8, 291260, Note_on_c, 6, 46, 96
8, 291279, Note_on_c, 6, 46, 0
8, 291280, Note_on_c, 6, 46, 96
8, 291299, Note_on_c, 6, 46, 0
8, 291300, Note_on_c, 6, 46, 96
8, 291319, Note_on_c, 6, 46, 0
8, 291320, Note_on_c, 6, 46, 96
8, 291339, Note_on_c, 6, 46, 0
8, 291340, Note_on_c, 6, 46, 96
8, 291359, Note_on_c, 6, 46, 0
8, 291360, Note_on_c, 6, 46, 96
8, 291379, Note_on_c, 6, 46, 0
8, 291380, Note_on_c, 6, 46, 96
8, 291399, Note_on_c, 6, 46, 0
8, 291400, Note_on_c, 6, 46, 96
8, 291419, Note_on_c, 6, 46, 0
8, 291420, Note_on_c, 6, 46, 96
8, 291439, Note_on_c, 6, 46, 0
8, 291440, Note_on_c, 6, 46, 96
8, 291459, Note_on_c, 6, 46, 0
8, 291460, Note_on_c, 6, 46, 96
8, 291479, Note_on_c, 6, 46, 0
8, 291480, Note_on_c, 6, 46, 96
8, 291499, Note_on_c, 6, 46, 0
8, 291500, Note_on_c, 6, 46, 96
8, 291519, Note_on_c, 6, 46, 0
8, 291520, Note_on_c, 6, 46, 96
8, 291539, Note_on_c, 6, 46, 0
8, 291540, Note_on_c, 6, 46, 96
8, 291559, Note_on_c, 6, 46, 0
8, 291560, Note_on_c, 6, 46, 96
8, 291579, Note_on_c, 6, 46, 0
8, 291580, Note_on_c, 6, 46, 96
8, 291599, Note_on_c, 6, 46, 0
8, 291600, Note_on_c, 6, 46, 96
8, 291619, Note_on_c, 6, 46, 0
8, 291620, Note_on_c, 6, 46, 96
8, 291639, Note_on_c, 6, 46, 0
8, 291640, Note_on_c, 6, 46, 96
8, 291659, Note_on_c, 6, 46, 0
8, 291660, Note_on_c, 6, 46, 96
8, 291679, Note_on_c, 6, 46, 0
8, 291680, Note_on_c, 6, 46, 96
8, 291699, Note_on_c, 6, 46, 0
8, 291700, Note_on_c, 6, 46, 96
8, 291719, Note_on_c, 6, 46, 0
8, 291720, Note_on_c, 6, 46, 96
8, 291739, Note_on_c, 6, 46, 0
8, 291740, Note_on_c, 6, 46, 96
8, 291759, Note_on_c, 6, 46, 0
8, 291760, Note_on_c, 6, 46, 96
8, 291779, Note_on_c, 6, 46, 0
8, 291780, Note_on_c, 6, 46, 96
8, 291799, Note_on_c, 6, 46, 0
8, 291800, Note_on_c, 6, 46, 96
8, 291819, Note_on_c, 6, 46, 0
8, 291820, Note_on_c, 6, 46, 96
8, 291839, Note_on_c, 6, 46, 0
8, 291840, Note_on_c, 6, 46, 96
8, 291859, Note_on_c, 6, 46, 0
8, 291860, Note_on_c, 6, 46, 96
8, 291879, Note_on_c, 6, 46, 0
8, 291880, Note_on_c, 6, 46, 96
8, 291899, Note_on_c, 6, 46, 0
8, 291900, Note_on_c, 6, 46, 96
8, 291919, Note_on_c, 6, 46, 0
8, 291920, Note_on_c, 6, 46, 96
8, 291939, Note_on_c, 6, 46, 0
8, 291940, Note_on_c, 6, 46, 96
8, 291959, Note_on_c, 6, 46, 0
8, 291960, Note_on_c, 6, 46, 96
8, 291979, Note_on_c, 6, 46, 0
8, 291980, Note_on_c, 6, 46, 96
8, 291999, Note_on_c, 6, 46, 0
8, 292000, Note_on_c, 6, 46, 96
8, 292019, Note_on_c, 6, 46, 0
8, 292020, Note_on_c, 6, 46, 96
8, 292039, Note_on_c, 6, 46, 0
8, 292040, Note_on_c, 6, 46, 96
8, 292059, Note_on_c, 6, 46, 0
8, 292060, Note_on_c, 6, 46, 96
8, 292079, Note_on_c, 6, 46, 0
8, 292080, Note_on_c, 6, 46, 96
8, 292099, Note_on_c, 6, 46, 0
8, 292100, Note_on_c, 6, 46, 96
8, 292119, Note_on_c, 6, 46, 0
8, 292120, Note_on_c, 6, 46, 96
8, 292139, Note_on_c, 6, 46, 0
8, 292140, Note_on_c, 6, 46, 96
8, 292159, Note_on_c, 6, 46, 0
8, 292160, Note_on_c, 6, 46, 96
8, 292179, Note_on_c, 6, 46, 0
8, 292180, Note_on_c, 6, 46, 96
8, 292199, Note_on_c, 6, 46, 0
8, 292200, Note_on_c, 6, 46, 96
8, 292219, Note_on_c, 6, 46, 0
8, 292220, Note_on_c, 6, 46, 96
8, 292239, Note_on_c, 6, 46, 0
8, 292240, Note_on_c, 6, 46, 96
8, 292259, Note_on_c, 6, 46, 0
8, 292260, Note_on_c, 6, 46, 96
8, 292279, Note_on_c, 6, 46, 0
8, 292280, Note_on_c, 6, 46, 96
8, 292299, Note_on_c, 6, 46, 0
8, 292300, Note_on_c, 6, 46, 96
8, 292319, Note_on_c, 6, 46, 0
8, 292320, Note_on_c, 6, 46, 96
8, 292339, Note_on_c, 6, 46, 0
8, 292340, Note_on_c, 6, 46, 96
8, 292359, Note_on_c, 6, 46, 0
8, 292360, Note_on_c, 6, 46, 96
8, 292379, Note_on_c, 6, 46, 0
8, 292380, Note_on_c, 6, 46, 96
8, 292399, Note_on_c, 6, 46, 0
8, 292400, Note_on_c, 6, 46, 96
8, 292419, Note_on_c, 6, 46, 0
8, 292420, Note_on_c, 6, 46, 96
8, 292439, Note_on_c, 6, 46, 0
8, 292440, Note_on_c, 6, 46, 96
8, 292459, Note_on_c, 6, 46, 0
8, 292460, Note_on_c, 6, 46, 96
8, 292479, Note_on_c, 6, 46, 0
8, 292480, Note_on_c, 6, 46, 96
8, 292499, Note_on_c, 6, 46, 0
8, 292500, Note_on_c, 6, 46, 96
8, 292519, Note_on_c, 6, 46, 0
8, 292520, Note_on_c, 6, 46, 96
8, 292539, Note_on_c, 6, 46, 0
8, 292540, Note_on_c, 6, 46, 96
8, 292559, Note_on_c, 6, 46, 0
8, 292560, Note_on_c, 6, 46, 96
8, 292579, Note_on_c, 6, 46, 0
8, 292580, Note_on_c, 6, 46, 96
8, 292599, Note_on_c, 6, 46, 0
8, 292600, Note_on_c, 6, 46, 96
8, 292619, Note_on_c, 6, 46, 0
8, 292620, Note_on_c, 6, 46, 96
8, 292639, Note_on_c, 6, 46, 0
8, 292640, Note_on_c, 6, 46, 96
8, 292659, Note_on_c, 6, 46, 0
8, 292660, Note_on_c, 6, 46, 96
8, 292679, Note_on_c, 6, 46, 0
8, 292680, Note_on_c, 6, 46, 96
8, 292799, Note_on_c, 6, 46, 0
8, 292800, Note_on_c, 6, 46, 96
8, 292919, Note_on_c, 6, 46, 0
8, 292920, Note_on_c, 6, 46, 96
8, 293039, Note_on_c, 6, 46, 0
8, 293040, Note_on_c, 6, 46, 96
8, 293159, Note_on_c, 6, 46, 0
8, 293400, Note_on_c, 6, 51, 96
8, 293519, Note_on_c, 6, 51, 0
8, 293760, Note_on_c, 6, 51, 96
8, 293879, Note_on_c, 6, 51, 0
8, 294120, Note_on_c, 6, 51, 96
8, 294239, Note_on_c, 6, 51, 0
8, 294840, Note_on_c, 6, 51, 96
8, 294959, Note_on_c, 6, 51, 0
8, 295200, Note_on_c, 6, 51, 96
8, 295319, Note_on_c, 6, 51, 0
8, 295560, Note_on_c, 6, 46, 127
8, 295579, Note_on_c, 6, 46, 0
8, 295580, Note_on_c, 6, 46, 127
8, 295599, Note_on_c, 6, 46, 0
8, 295600, Note_on_c, 6, 46, 127
8, 295619, Note_on_c, 6, 46, 0
8, 295620, Note_on_c, 6, 46, 127
8, 295639, Note_on_c, 6, 46, 0
8, 295640, Note_on_c, 6, 46, 127
8, 295659, Note_on_c, 6, 46, 0
8, 295660, Note_on_c, 6, 46, 127
8, 295679, Note_on_c, 6, 46, 0
8, 295680, Note_on_c, 6, 46, 127
8, 295699, Note_on_c, 6, 46, 0
8, 295700, Note_on_c, 6, 46, 127
8, 295719, Note_on_c, 6, 46, 0
8, 295720, Note_on_c, 6, 46, 127
8, 295739, Note_on_c, 6, 46, 0
8, 295740, Note_on_c, 6, 46, 127
8, 295759, Note_on_c, 6, 46, 0
8, 295760, Note_on_c, 6, 46, 127
8, 295779, Note_on_c, 6, 46, 0
8, 295780, Note_on_c, 6, 46, 127
8, 295799, Note_on_c, 6, 46, 0
8, 295800, Note_on_c, 6, 46, 127
8, 295819, Note_on_c, 6, 46, 0
8, 295820, Note_on_c, 6, 46, 127
8, 295839, Note_on_c, 6, 46, 0
8, 295840, Note_on_c, 6, 46, 127
8, 295859, Note_on_c, 6, 46, 0
8, 295860, Note_on_c, 6, 46, 127
8, 295879, Note_on_c, 6, 46, 0
8, 295880, Note_on_c, 6, 46, 127
8, 295899, Note_on_c, 6, 46, 0
8, 295900, Note_on_c, 6, 46, 127
8, 295919, Note_on_c, 6, 46, 0
8, 295920, Note_on_c, 6, 46, 127
8, 295939, Note_on_c, 6, 46, 0
8, 295940, Note_on_c, 6, 46, 127
8, 295959, Note_on_c, 6, 46, 0
8, 295960, Note_on_c, 6, 46, 127
8, 295979, Note_on_c, 6, 46, 0
8, 295980, Note_on_c, 6, 46, 127
8, 295999, Note_on_c, 6, 46, 0
8, 296000, Note_on_c, 6, 46, 127
8, 296019, Note_on_c, 6, 46, 0
8, 296020, Note_on_c, 6, 46, 127
8, 296039, Note_on_c, 6, 46, 0
8, 296040, Note_on_c, 6, 46, 127
8, 296059, Note_on_c, 6, 46, 0
8, 296060, Note_on_c, 6, 46, 127
8, 296079, Note_on_c, 6, 46, 0
8, 296080, Note_on_c, 6, 46, 127
8, 296099, Note_on_c, 6, 46, 0
8, 296100, Note_on_c, 6, 46, 127
8, 296119, Note_on_c, 6, 46, 0
8, 296120, Note_on_c, 6, 46, 127
8, 296139, Note_on_c, 6, 46, 0
8, 296140, Note_on_c, 6, 46, 127
8, 296159, Note_on_c, 6, 46, 0
8, 296160, Note_on_c, 6, 46, 127
8, 296179, Note_on_c, 6, 46, 0
8, 296180, Note_on_c, 6, 46, 127
8, 296199, Note_on_c, 6, 46, 0
8, 296200, Note_on_c, 6, 46, 127
8, 296219, Note_on_c, 6, 46, 0
8, 296220, Note_on_c, 6, 46, 127
8, 296239, Note_on_c, 6, 46, 0
8, 296240, Note_on_c, 6, 46, 127
8, 296259, Note_on_c, 6, 46, 0
8, 296260, Note_on_c, 6, 46, 127
8, 296279, Note_on_c, 6, 46, 0
8, 299280, Note_on_c, 6, 46, 96
8, 299399, Note_on_c, 6, 46, 0
8, 299640, Note_on_c, 6, 46, 112
8, 299759, Note_on_c, 6, 46, 0
8, 300000, Note_on_c, 6, 46, 112
8, 300119, Note_on_c, 6, 46, 0
8, 300240, Note_on_c, 6, 46, 112
8, 300359, Note_on_c, 6, 46, 0
8, 300480, Note_on_c, 6, 46, 112
8, 300599, Note_on_c, 6, 46, 0
8, 300600, Note_on_c, 6, 46, 112
8, 300719, Note_on_c, 6, 46, 0
8, 300720, Note_on_c, 6, 46, 127
8, 300839, Note_on_c, 6, 46, 0
8, 300840, Note_on_c, 6, 46, 127
8, 300959, Note_on_c, 6, 46, 0
8, 300960, Note_on_c, 6, 46, 127
8, 301079, Note_on_c, 6, 46, 0
8, 301080, Note_on_c, 6, 46, 127
8, 301199, Note_on_c, 6, 46, 0
8, 301200, Note_on_c, 6, 46, 127
8, 301319, Note_on_c, 6, 46, 0
8, 301320, Note_on_c, 6, 46, 127
8, 301439, Note_on_c, 6, 46, 0
8, 301440, Note_on_c, 6, 46, 127
8, 301559, Note_on_c, 6, 46, 0
8, 301560, Note_on_c, 6, 46, 127
8, 301679, Note_on_c, 6, 46, 0
8, 301680, Note_on_c, 6, 46, 127
8, 301799, Note_on_c, 6, 46, 0
8, 301800, Note_on_c, 6, 46, 127
8, 301919, Note_on_c, 6, 46, 0
8, 301920, Note_on_c, 6, 46, 127
8, 302039, Note_on_c, 6, 46, 0
8, 302040, Note_on_c, 6, 51, 127
8, 302159, Note_on_c, 6, 51, 0
8, 302400, Note_on_c, 6, 51, 127
8, 302519, Note_on_c, 6, 51, 0
8, 302760, Note_on_c, 6, 51, 127
8, 302879, Note_on_c, 6, 51, 0
8, 302879, End_track
9, 0, Start_track
9, 0, MIDI_port, 0
9, 0, Title_t, "Violins"
9, 0, Program_c, 7, 48
9, 0, Control_c, 7, 7, 127
9, 0, Control_c, 7, 10, 46
9, 0, Control_c, 7, 93, 0
9, 0, Control_c, 7, 91, 0
9, 230520, Note_on_c, 7, 60, 48
9, 230520, Note_on_c, 7, 68, 48
9, 230609, Note_on_c, 7, 68, 0
9, 230609, Note_on_c, 7, 60, 0
9, 230640, Note_on_c, 7, 61, 48
9, 230640, Note_on_c, 7, 68, 48
9, 230729, Note_on_c, 7, 68, 0
9, 230729, Note_on_c, 7, 61, 0
9, 230760, Note_on_c, 7, 62, 48
9, 230760, Note_on_c, 7, 68, 48
9, 230849, Note_on_c, 7, 68, 0
9, 230849, Note_on_c, 7, 62, 0
9, 230880, Note_on_c, 7, 62, 60
9, 230880, Note_on_c, 7, 70, 60
9, 230969, Note_on_c, 7, 70, 0
9, 230969, Note_on_c, 7, 62, 0
9, 231000, Note_on_c, 7, 62, 72
9, 231000, Note_on_c, 7, 70, 72
9, 231089, Note_on_c, 7, 70, 0
9, 231089, Note_on_c, 7, 62, 0
9, 231120, Note_on_c, 7, 62, 84
9, 231120, Note_on_c, 7, 70, 84
9, 231239, Note_on_c, 7, 62, 0
9, 231240, Note_on_c, 7, 62, 96
9, 231240, Note_on_c, 7, 71, 90
9, 231249, Note_on_c, 7, 70, 0
9, 231360, Note_on_c, 7, 72, 96
9, 231369, Note_on_c, 7, 71, 0
9, 231479, Note_on_c, 7, 62, 0
9, 231480, Note_on_c, 7, 62, 96
9, 231600, Note_on_c, 7, 70, 84
9, 231609, Note_on_c, 7, 72, 0
9, 231660, Note_on_c, 7, 68, 72
9, 231669, Note_on_c, 7, 70, 0
9, 231720, Note_on_c, 7, 67, 60
9, 231729, Note_on_c, 7, 68, 0
9, 231780, Note_on_c, 7, 56, 56
9, 231780, Note_on_c, 7, 65, 56
9, 231789, Note_on_c, 7, 67, 0
9, 231789, Note_on_c, 7, 62, 0
9, 231840, Note_on_c, 7, 55, 48
9, 231840, Note_on_c, 7, 63, 56
9, 231849, Note_on_c, 7, 56, 0
9, 231849, Note_on_c, 7, 65, 0
9, 231959, Note_on_c, 7, 55, 0
9, 231959, Note_on_c, 7, 63, 0
9, 233760, Note_on_c, 7, 67, 48
9, 233760, Note_on_c, 7, 70, 48
9, 233849, Note_on_c, 7, 70, 0
9, 233849, Note_on_c, 7, 67, 0
9, 233880, Note_on_c, 7, 67, 48
9, 233880, Note_on_c, 7, 70, 48
9, 233969, Note_on_c, 7, 70, 0
9, 233969, Note_on_c, 7, 67, 0
9, 234000, Note_on_c, 7, 63, 56
9, 234000, Note_on_c, 7, 70, 56
9, 234240, Note_on_c, 7, 69, 48
9, 234249, Note_on_c, 7, 70, 0
9, 234359, Note_on_c, 7, 69, 0
9, 234359, Note_on_c, 7, 63, 0
9, 234840, Note_on_c, 7, 59, 32
9, 234840, Note_on_c, 7, 62, 32
9, 234899, Note_on_c, 7, 62, 0
9, 234899, Note_on_c, 7, 59, 0
9, 234960, Note_on_c, 7, 62, 32
9, 234960, Note_on_c, 7, 59, 32
9, 235019, Note_on_c, 7, 59, 0
9, 235019, Note_on_c, 7, 62, 0
9, 235200, Note_on_c, 7, 58, 32
9, 235200, Note_on_c, 7, 63, 32
9, 235259, Note_on_c, 7, 63, 0
9, 235259, Note_on_c, 7, 58, 0
9, 235320, Note_on_c, 7, 64, 32
9, 235320, Note_on_c, 7, 61, 32
9, 235379, Note_on_c, 7, 61, 0
9, 235379, Note_on_c, 7, 64, 0
9, 235560, Note_on_c, 7, 62, 32
9, 235560, Note_on_c, 7, 65, 32
9, 235619, Note_on_c, 7, 65, 0
9, 235619, Note_on_c, 7, 62, 0
9, 235680, Note_on_c, 7, 63, 32
9, 235680, Note_on_c, 7, 67, 32
9, 235739, Note_on_c, 7, 67, 0
9, 235739, Note_on_c, 7, 63, 0
9, 235800, Note_on_c, 7, 65, 32
9, 235800, Note_on_c, 7, 68, 32
9, 235859, Note_on_c, 7, 68, 0
9, 235859, Note_on_c, 7, 65, 0
9, 235920, Note_on_c, 7, 67, 32
9, 235920, Note_on_c, 7, 70, 32
9, 235979, Note_on_c, 7, 70, 0
9, 235979, Note_on_c, 7, 67, 0
9, 236040, Note_on_c, 7, 67, 32
9, 236040, Note_on_c, 7, 71, 32
9, 236099, Note_on_c, 7, 71, 0
9, 236099, Note_on_c, 7, 67, 0
9, 236160, Note_on_c, 7, 68, 32
9, 236160, Note_on_c, 7, 72, 32
9, 236189, Note_on_c, 7, 72, 0
9, 236189, Note_on_c, 7, 68, 0
9, 236220, Note_on_c, 7, 67, 32
9, 236220, Note_on_c, 7, 70, 32
9, 236249, Note_on_c, 7, 70, 0
9, 236249, Note_on_c, 7, 67, 0
9, 236280, Note_on_c, 7, 65, 32
9, 236280, Note_on_c, 7, 68, 32
9, 236309, Note_on_c, 7, 68, 0
9, 236309, Note_on_c, 7, 65, 0
9, 236340, Note_on_c, 7, 63, 32
9, 236340, Note_on_c, 7, 67, 32
9, 236369, Note_on_c, 7, 67, 0
9, 236369, Note_on_c, 7, 63, 0
9, 236400, Note_on_c, 7, 62, 32
9, 236400, Note_on_c, 7, 65, 32
9, 236429, Note_on_c, 7, 65, 0
9, 236429, Note_on_c, 7, 62, 0
9, 236460, Note_on_c, 7, 63, 32
9, 236460, Note_on_c, 7, 67, 32
9, 236489, Note_on_c, 7, 67, 0
9, 236489, Note_on_c, 7, 63, 0
9, 236520, Note_on_c, 7, 65, 32
9, 236520, Note_on_c, 7, 68, 32
9, 236549, Note_on_c, 7, 68, 0
9, 236549, Note_on_c, 7, 65, 0
9, 236580, Note_on_c, 7, 63, 32
9, 236580, Note_on_c, 7, 67, 32
9, 236609, Note_on_c, 7, 67, 0
9, 236609, Note_on_c, 7, 63, 0
9, 236640, Note_on_c, 7, 62, 32
9, 236640, Note_on_c, 7, 65, 32
9, 236669, Note_on_c, 7, 65, 0
9, 236669, Note_on_c, 7, 62, 0
9, 236700, Note_on_c, 7, 63, 32
9, 236700, Note_on_c, 7, 67, 32
9, 236729, Note_on_c, 7, 67, 0
9, 236729, Note_on_c, 7, 63, 0
9, 236760, Note_on_c, 7, 65, 32
9, 236760, Note_on_c, 7, 68, 32
9, 236789, Note_on_c, 7, 68, 0
9, 236789, Note_on_c, 7, 65, 0
9, 236820, Note_on_c, 7, 67, 32
9, 236820, Note_on_c, 7, 70, 32
9, 236849, Note_on_c, 7, 70, 0
9, 236849, Note_on_c, 7, 67, 0
9, 236880, Note_on_c, 7, 68, 35
9, 236880, Note_on_c, 7, 72, 35
9, 236909, Note_on_c, 7, 72, 0
9, 236909, Note_on_c, 7, 68, 0
9, 236940, Note_on_c, 7, 67, 38
9, 236940, Note_on_c, 7, 70, 38
9, 236969, Note_on_c, 7, 70, 0
9, 236969, Note_on_c, 7, 67, 0
9, 237000, Note_on_c, 7, 65, 41
9, 237000, Note_on_c, 7, 68, 41
9, 237029, Note_on_c, 7, 68, 0
9, 237029, Note_on_c, 7, 65, 0
9, 237060, Note_on_c, 7, 63, 43
9, 237060, Note_on_c, 7, 67, 43
9, 237089, Note_on_c, 7, 67, 0
9, 237089, Note_on_c, 7, 63, 0
9, 237120, Note_on_c, 7, 62, 46
9, 237120, Note_on_c, 7, 65, 46
9, 237149, Note_on_c, 7, 65, 0
9, 237149, Note_on_c, 7, 62, 0
9, 237180, Note_on_c, 7, 63, 48
9, 237180, Note_on_c, 7, 67, 48
9, 237209, Note_on_c, 7, 67, 0
9, 237209, Note_on_c, 7, 63, 0
9, 237240, Note_on_c, 7, 65, 51
9, 237240, Note_on_c, 7, 68, 51
9, 237269, Note_on_c, 7, 68, 0
9, 237269, Note_on_c, 7, 65, 0
9, 237300, Note_on_c, 7, 63, 54
9, 237300, Note_on_c, 7, 67, 54
9, 237329, Note_on_c, 7, 67, 0
9, 237329, Note_on_c, 7, 63, 0
9, 237360, Note_on_c, 7, 62, 57
9, 237360, Note_on_c, 7, 65, 57
9, 237389, Note_on_c, 7, 65, 0
9, 237389, Note_on_c, 7, 62, 0
9, 237420, Note_on_c, 7, 63, 59
9, 237420, Note_on_c, 7, 67, 59
9, 237449, Note_on_c, 7, 67, 0
9, 237449, Note_on_c, 7, 63, 0
9, 237480, Note_on_c, 7, 65, 62
9, 237480, Note_on_c, 7, 68, 62
9, 237509, Note_on_c, 7, 68, 0
9, 237509, Note_on_c, 7, 65, 0
9, 237540, Note_on_c, 7, 67, 64
9, 237540, Note_on_c, 7, 70, 64
9, 237569, Note_on_c, 7, 70, 0
9, 237569, Note_on_c, 7, 67, 0
9, 237600, Note_on_c, 7, 68, 67
9, 237600, Note_on_c, 7, 72, 67
9, 237629, Note_on_c, 7, 72, 0
9, 237629, Note_on_c, 7, 68, 0
9, 237660, Note_on_c, 7, 67, 70
9, 237660, Note_on_c, 7, 70, 70
9, 237689, Note_on_c, 7, 70, 0
9, 237689, Note_on_c, 7, 67, 0
9, 237720, Note_on_c, 7, 65, 73
9, 237720, Note_on_c, 7, 68, 73
9, 237749, Note_on_c, 7, 68, 0
9, 237749, Note_on_c, 7, 65, 0
9, 237780, Note_on_c, 7, 64, 75
9, 237780, Note_on_c, 7, 67, 75
9, 237809, Note_on_c, 7, 67, 0
9, 237809, Note_on_c, 7, 64, 0
9, 237840, Note_on_c, 7, 65, 78
9, 237840, Note_on_c, 7, 68, 78
9, 237869, Note_on_c, 7, 68, 0
9, 237869, Note_on_c, 7, 65, 0
9, 237900, Note_on_c, 7, 67, 80
9, 237900, Note_on_c, 7, 70, 80
9, 237929, Note_on_c, 7, 70, 0
9, 237929, Note_on_c, 7, 67, 0
9, 237960, Note_on_c, 7, 68, 82
9, 237960, Note_on_c, 7, 72, 82
9, 237989, Note_on_c, 7, 72, 0
9, 237989, Note_on_c, 7, 68, 0
9, 238020, Note_on_c, 7, 70, 84
9, 238020, Note_on_c, 7, 74, 84
9, 238049, Note_on_c, 7, 74, 0
9, 238049, Note_on_c, 7, 70, 0
9, 238080, Note_on_c, 7, 72, 87
9, 238080, Note_on_c, 7, 75, 87
9, 238109, Note_on_c, 7, 75, 0
9, 238109, Note_on_c, 7, 72, 0
9, 238140, Note_on_c, 7, 74, 89
9, 238140, Note_on_c, 7, 77, 89
9, 238169, Note_on_c, 7, 77, 0
9, 238169, Note_on_c, 7, 74, 0
9, 238200, Note_on_c, 7, 75, 92
9, 238200, Note_on_c, 7, 79, 92
9, 238229, Note_on_c, 7, 79, 0
9, 238229, Note_on_c, 7, 75, 0
9, 238260, Note_on_c, 7, 77, 94
9, 238260, Note_on_c, 7, 80, 94
9, 238289, Note_on_c, 7, 80, 0
9, 238289, Note_on_c, 7, 77, 0
9, 238320, Note_on_c, 7, 79, 96
9, 238320, Note_on_c, 7, 82, 96
9, 238379, Note_on_c, 7, 79, 0
9, 238440, Note_on_c, 7, 70, 96
9, 238499, Note_on_c, 7, 70, 0
9, 238559, Note_on_c, 7, 82, 0
9, 238560, Note_on_c, 7, 79, 96
9, 238560, Note_on_c, 7, 67, 96
9, 238619, Note_on_c, 7, 67, 0
9, 238619, Note_on_c, 7, 79, 0
9, 238680, Note_on_c, 7, 75, 96
9, 238680, Note_on_c, 7, 63, 96
9, 238739, Note_on_c, 7, 63, 0
9, 238739, Note_on_c, 7, 75, 0
9, 238800, Note_on_c, 7, 79, 112
9, 238800, Note_on_c, 7, 67, 112
9, 238859, Note_on_c, 7, 67, 0
9, 238859, Note_on_c, 7, 79, 0
9, 238920, Note_on_c, 7, 70, 96
9, 238920, Note_on_c, 7, 58, 96
9, 238979, Note_on_c, 7, 58, 0
9, 238979, Note_on_c, 7, 70, 0
9, 239040, Note_on_c, 7, 77, 96
9, 239040, Note_on_c, 7, 65, 96
9, 239099, Note_on_c, 7, 65, 0
9, 239099, Note_on_c, 7, 77, 0
9, 239160, Note_on_c, 7, 80, 112
9, 239160, Note_on_c, 7, 68, 112
9, 239219, Note_on_c, 7, 68, 0
9, 239219, Note_on_c, 7, 80, 0
9, 239280, Note_on_c, 7, 70, 96
9, 239280, Note_on_c, 7, 58, 96
9, 239339, Note_on_c, 7, 58, 0
9, 239339, Note_on_c, 7, 70, 0
9, 239400, Note_on_c, 7, 74, 96
9, 239400, Note_on_c, 7, 62, 96
9, 239459, Note_on_c, 7, 62, 0
9, 239459, Note_on_c, 7, 74, 0
9, 239520, Note_on_c, 7, 77, 112
9, 239520, Note_on_c, 7, 65, 112
9, 239579, Note_on_c, 7, 65, 0
9, 239579, Note_on_c, 7, 77, 0
9, 239640, Note_on_c, 7, 70, 96
9, 239640, Note_on_c, 7, 58, 96
9, 239699, Note_on_c, 7, 58, 0
9, 239699, Note_on_c, 7, 70, 0
9, 239760, Note_on_c, 7, 82, 127
9, 239760, Note_on_c, 7, 70, 127
9, 239789, Note_on_c, 7, 70, 0
9, 239789, Note_on_c, 7, 82, 0
9, 239790, Note_on_c, 7, 82, 127
9, 239790, Note_on_c, 7, 70, 127
9, 239819, Note_on_c, 7, 70, 0
9, 239819, Note_on_c, 7, 82, 0
9, 239820, Note_on_c, 7, 67, 127
9, 239820, Note_on_c, 7, 82, 127
9, 239820, Note_on_c, 7, 70, 127
9, 239849, Note_on_c, 7, 70, 0
9, 239849, Note_on_c, 7, 82, 0
9, 239849, Note_on_c, 7, 67, 0
9, 239850, Note_on_c, 7, 67, 127
9, 239850, Note_on_c, 7, 82, 127
9, 239850, Note_on_c, 7, 70, 127
9, 239879, Note_on_c, 7, 70, 0
9, 239879, Note_on_c, 7, 82, 0
9, 239879, Note_on_c, 7, 67, 0
9, 239880, Note_on_c, 7, 82, 127
9, 239880, Note_on_c, 7, 70, 127
9, 239909, Note_on_c, 7, 70, 0
9, 239909, Note_on_c, 7, 82, 0
9, 239910, Note_on_c, 7, 82, 127
9, 239910, Note_on_c, 7, 70, 127
9, 239939, Note_on_c, 7, 70, 0
9, 239939, Note_on_c, 7, 82, 0
9, 239940, Note_on_c, 7, 75, 127
9, 239940, Note_on_c, 7, 82, 127
9, 239940, Note_on_c, 7, 70, 127
9, 239969, Note_on_c, 7, 70, 0
9, 239969, Note_on_c, 7, 82, 0
9, 239969, Note_on_c, 7, 75, 0
9, 239970, Note_on_c, 7, 75, 127
9, 239970, Note_on_c, 7, 82, 127
9, 239970, Note_on_c, 7, 70, 127
9, 239999, Note_on_c, 7, 70, 0
9, 239999, Note_on_c, 7, 82, 0
9, 239999, Note_on_c, 7, 75, 0
9, 240000, Note_on_c, 7, 79, 127
9, 240000, Note_on_c, 7, 82, 126
9, 240000, Note_on_c, 7, 70, 127
9, 240029, Note_on_c, 7, 70, 0
9, 240029, Note_on_c, 7, 82, 0
9, 240029, Note_on_c, 7, 79, 0
9, 240030, Note_on_c, 7, 79, 127
9, 240030, Note_on_c, 7, 82, 127
9, 240030, Note_on_c, 7, 70, 127
9, 240059, Note_on_c, 7, 70, 0
9, 240059, Note_on_c, 7, 82, 0
9, 240059, Note_on_c, 7, 79, 0
9, 240060, Note_on_c, 7, 67, 127
9, 240060, Note_on_c, 7, 82, 127
9, 240060, Note_on_c, 7, 70, 127
9, 240089, Note_on_c, 7, 70, 0
9, 240089, Note_on_c, 7, 82, 0
9, 240089, Note_on_c, 7, 67, 0
9, 240090, Note_on_c, 7, 67, 127
9, 240090, Note_on_c, 7, 82, 127
9, 240090, Note_on_c, 7, 70, 127
9, 240119, Note_on_c, 7, 70, 0
9, 240119, Note_on_c, 7, 82, 0
9, 240119, Note_on_c, 7, 67, 0
9, 240120, Note_on_c, 7, 82, 127
9, 240120, Note_on_c, 7, 70, 127
9, 240149, Note_on_c, 7, 70, 0
9, 240149, Note_on_c, 7, 82, 0
9, 240150, Note_on_c, 7, 82, 127
9, 240150, Note_on_c, 7, 70, 127
9, 240179, Note_on_c, 7, 70, 0
9, 240179, Note_on_c, 7, 82, 0
9, 240180, Note_on_c, 7, 67, 127
9, 240180, Note_on_c, 7, 82, 127
9, 240180, Note_on_c, 7, 70, 127
9, 240209, Note_on_c, 7, 70, 0
9, 240209, Note_on_c, 7, 82, 0
9, 240209, Note_on_c, 7, 67, 0
9, 240210, Note_on_c, 7, 67, 127
9, 240210, Note_on_c, 7, 82, 127
9, 240210, Note_on_c, 7, 70, 127
9, 240239, Note_on_c, 7, 70, 0
9, 240239, Note_on_c, 7, 82, 0
9, 240239, Note_on_c, 7, 67, 0
9, 240240, Note_on_c, 7, 82, 127
9, 240240, Note_on_c, 7, 70, 127
9, 240269, Note_on_c, 7, 70, 0
9, 240269, Note_on_c, 7, 82, 0
9, 240270, Note_on_c, 7, 82, 127
9, 240270, Note_on_c, 7, 70, 127
9, 240299, Note_on_c, 7, 70, 0
9, 240299, Note_on_c, 7, 82, 0
9, 240300, Note_on_c, 7, 75, 127
9, 240300, Note_on_c, 7, 82, 127
9, 240300, Note_on_c, 7, 70, 127
9, 240329, Note_on_c, 7, 70, 0
9, 240329, Note_on_c, 7, 82, 0
9, 240329, Note_on_c, 7, 75, 0
9, 240330, Note_on_c, 7, 75, 127
9, 240330, Note_on_c, 7, 82, 127
9, 240330, Note_on_c, 7, 70, 127
9, 240359, Note_on_c, 7, 70, 0
9, 240359, Note_on_c, 7, 82, 0
9, 240359, Note_on_c, 7, 75, 0
9, 240360, Note_on_c, 7, 79, 127
9, 240360, Note_on_c, 7, 82, 126
9, 240360, Note_on_c, 7, 70, 127
9, 240389, Note_on_c, 7, 70, 0
9, 240389, Note_on_c, 7, 82, 0
9, 240389, Note_on_c, 7, 79, 0
9, 240390, Note_on_c, 7, 79, 127
9, 240390, Note_on_c, 7, 82, 127
9, 240390, Note_on_c, 7, 70, 127
9, 240419, Note_on_c, 7, 70, 0
9, 240419, Note_on_c, 7, 82, 0
9, 240419, Note_on_c, 7, 79, 0
9, 240420, Note_on_c, 7, 67, 127
9, 240420, Note_on_c, 7, 82, 127
9, 240420, Note_on_c, 7, 70, 127
9, 240449, Note_on_c, 7, 70, 0
9, 240449, Note_on_c, 7, 82, 0
9, 240449, Note_on_c, 7, 67, 0
9, 240450, Note_on_c, 7, 67, 127
9, 240450, Note_on_c, 7, 82, 127
9, 240450, Note_on_c, 7, 70, 127
9, 240479, Note_on_c, 7, 70, 0
9, 240479, Note_on_c, 7, 82, 0
9, 240479, Note_on_c, 7, 67, 0
9, 240480, Note_on_c, 7, 82, 127
9, 240480, Note_on_c, 7, 70, 127
9, 240509, Note_on_c, 7, 70, 0
9, 240509, Note_on_c, 7, 82, 0
9, 240510, Note_on_c, 7, 82, 127
9, 240510, Note_on_c, 7, 70, 127
9, 240539, Note_on_c, 7, 70, 0
9, 240539, Note_on_c, 7, 82, 0
9, 240540, Note_on_c, 7, 68, 127
9, 240540, Note_on_c, 7, 82, 127
9, 240540, Note_on_c, 7, 70, 127
9, 240569, Note_on_c, 7, 70, 0
9, 240569, Note_on_c, 7, 82, 0
9, 240569, Note_on_c, 7, 68, 0
9, 240570, Note_on_c, 7, 68, 127
9, 240570, Note_on_c, 7, 82, 127
9, 240570, Note_on_c, 7, 70, 127
9, 240599, Note_on_c, 7, 70, 0
9, 240599, Note_on_c, 7, 82, 0
9, 240599, Note_on_c, 7, 68, 0
9, 240600, Note_on_c, 7, 82, 127
9, 240600, Note_on_c, 7, 70, 127
9, 240629, Note_on_c, 7, 70, 0
9, 240629, Note_on_c, 7, 82, 0
9, 240630, Note_on_c, 7, 82, 127
9, 240630, Note_on_c, 7, 70, 127
9, 240659, Note_on_c, 7, 70, 0
9, 240659, Note_on_c, 7, 82, 0
9, 240660, Note_on_c, 7, 74, 127
9, 240660, Note_on_c, 7, 82, 127
9, 240660, Note_on_c, 7, 70, 127
9, 240689, Note_on_c, 7, 70, 0
9, 240689, Note_on_c, 7, 82, 0
9, 240689, Note_on_c, 7, 74, 0
9, 240690, Note_on_c, 7, 74, 127
9, 240690, Note_on_c, 7, 82, 127
9, 240690, Note_on_c, 7, 70, 127
9, 240719, Note_on_c, 7, 70, 0
9, 240719, Note_on_c, 7, 82, 0
9, 240719, Note_on_c, 7, 74, 0
9, 240720, Note_on_c, 7, 77, 127
9, 240720, Note_on_c, 7, 82, 126
9, 240720, Note_on_c, 7, 70, 127
9, 240749, Note_on_c, 7, 70, 0
9, 240749, Note_on_c, 7, 82, 0
9, 240749, Note_on_c, 7, 77, 0
9, 240750, Note_on_c, 7, 77, 127
9, 240750, Note_on_c, 7, 82, 127
9, 240750, Note_on_c, 7, 70, 127
9, 240779, Note_on_c, 7, 70, 0
9, 240779, Note_on_c, 7, 82, 0
9, 240779, Note_on_c, 7, 77, 0
9, 240780, Note_on_c, 7, 68, 127
9, 240780, Note_on_c, 7, 82, 127
9, 240780, Note_on_c, 7, 70, 127
9, 240809, Note_on_c, 7, 70, 0
9, 240809, Note_on_c, 7, 82, 0
9, 240809, Note_on_c, 7, 68, 0
9, 240810, Note_on_c, 7, 68, 127
9, 240810, Note_on_c, 7, 82, 127
9, 240810, Note_on_c, 7, 70, 127
9, 240839, Note_on_c, 7, 70, 0
9, 240839, Note_on_c, 7, 82, 0
9, 240839, Note_on_c, 7, 68, 0
9, 240840, Note_on_c, 7, 82, 127
9, 240840, Note_on_c, 7, 70, 127
9, 240869, Note_on_c, 7, 70, 0
9, 240869, Note_on_c, 7, 82, 0
9, 240870, Note_on_c, 7, 82, 127
9, 240870, Note_on_c, 7, 70, 127
9, 240899, Note_on_c, 7, 70, 0
9, 240899, Note_on_c, 7, 82, 0
9, 240900, Note_on_c, 7, 68, 127
9, 240900, Note_on_c, 7, 82, 127
9, 240900, Note_on_c, 7, 70, 127
9, 240929, Note_on_c, 7, 70, 0
9, 240929, Note_on_c, 7, 82, 0
9, 240929, Note_on_c, 7, 68, 0
9, 240930, Note_on_c, 7, 68, 127
9, 240930, Note_on_c, 7, 82, 127
9, 240930, Note_on_c, 7, 70, 127
9, 240959, Note_on_c, 7, 70, 0
9, 240959, Note_on_c, 7, 82, 0
9, 240959, Note_on_c, 7, 68, 0
9, 240960, Note_on_c, 7, 82, 127
9, 240960, Note_on_c, 7, 70, 127
9, 240989, Note_on_c, 7, 70, 0
9, 240989, Note_on_c, 7, 82, 0
9, 240990, Note_on_c, 7, 82, 127
9, 240990, Note_on_c, 7, 70, 127
9, 241019, Note_on_c, 7, 70, 0
9, 241019, Note_on_c, 7, 82, 0
9, 241020, Note_on_c, 7, 74, 127
9, 241020, Note_on_c, 7, 82, 127
9, 241020, Note_on_c, 7, 70, 127
9, 241049, Note_on_c, 7, 70, 0
9, 241049, Note_on_c, 7, 82, 0
9, 241049, Note_on_c, 7, 74, 0
9, 241050, Note_on_c, 7, 74, 127
9, 241050, Note_on_c, 7, 82, 127
9, 241050, Note_on_c, 7, 70, 127
9, 241079, Note_on_c, 7, 70, 0
9, 241079, Note_on_c, 7, 82, 0
9, 241079, Note_on_c, 7, 74, 0
9, 241080, Note_on_c, 7, 77, 127
9, 241080, Note_on_c, 7, 82, 126
9, 241080, Note_on_c, 7, 70, 127
9, 241109, Note_on_c, 7, 70, 0
9, 241109, Note_on_c, 7, 82, 0
9, 241109, Note_on_c, 7, 77, 0
9, 241110, Note_on_c, 7, 77, 127
9, 241110, Note_on_c, 7, 82, 127
9, 241110, Note_on_c, 7, 70, 127
9, 241139, Note_on_c, 7, 70, 0
9, 241139, Note_on_c, 7, 82, 0
9, 241139, Note_on_c, 7, 77, 0
9, 241140, Note_on_c, 7, 68, 127
9, 241140, Note_on_c, 7, 82, 127
9, 241140, Note_on_c, 7, 70, 127
9, 241169, Note_on_c, 7, 70, 0
9, 241169, Note_on_c, 7, 82, 0
9, 241169, Note_on_c, 7, 68, 0
9, 241170, Note_on_c, 7, 68, 127
9, 241170, Note_on_c, 7, 82, 127
9, 241170, Note_on_c, 7, 70, 127
9, 241199, Note_on_c, 7, 70, 0
9, 241199, Note_on_c, 7, 82, 0
9, 241199, Note_on_c, 7, 68, 0
9, 241200, Note_on_c, 7, 82, 127
9, 241200, Note_on_c, 7, 75, 127
9, 241229, Note_on_c, 7, 75, 0
9, 241229, Note_on_c, 7, 82, 0
9, 241230, Note_on_c, 7, 82, 127
9, 241230, Note_on_c, 7, 75, 127
9, 241259, Note_on_c, 7, 75, 0
9, 241259, Note_on_c, 7, 82, 0
9, 241260, Note_on_c, 7, 86, 127
9, 241260, Note_on_c, 7, 74, 127
9, 241289, Note_on_c, 7, 74, 0
9, 241289, Note_on_c, 7, 86, 0
9, 241290, Note_on_c, 7, 86, 127
9, 241290, Note_on_c, 7, 74, 127
9, 241319, Note_on_c, 7, 74, 0
9, 241319, Note_on_c, 7, 86, 0
9, 241320, Note_on_c, 7, 87, 127
9, 241320, Note_on_c, 7, 75, 127
9, 241349, Note_on_c, 7, 75, 0
9, 241349, Note_on_c, 7, 87, 0
9, 241350, Note_on_c, 7, 87, 127
9, 241350, Note_on_c, 7, 75, 127
9, 241379, Note_on_c, 7, 75, 0
9, 241379, Note_on_c, 7, 87, 0
9, 241380, Note_on_c, 7, 86, 127
9, 241380, Note_on_c, 7, 74, 127
9, 241409, Note_on_c, 7, 74, 0
9, 241409, Note_on_c, 7, 86, 0
9, 241410, Note_on_c, 7, 86, 127
9, 241410, Note_on_c, 7, 74, 127
9, 241439, Note_on_c, 7, 74, 0
9, 241439, Note_on_c, 7, 86, 0
9, 241440, Note_on_c, 7, 87, 127
9, 241440, Note_on_c, 7, 75, 127
9, 241469, Note_on_c, 7, 75, 0
9, 241469, Note_on_c, 7, 87, 0
9, 241470, Note_on_c, 7, 87, 127
9, 241470, Note_on_c, 7, 75, 127
9, 241499, Note_on_c, 7, 75, 0
9, 241499, Note_on_c, 7, 87, 0
9, 241500, Note_on_c, 7, 81, 127
9, 241500, Note_on_c, 7, 69, 127
9, 241529, Note_on_c, 7, 69, 0
9, 241529, Note_on_c, 7, 81, 0
9, 241530, Note_on_c, 7, 81, 127
9, 241530, Note_on_c, 7, 69, 127
9, 241559, Note_on_c, 7, 69, 0
9, 241559, Note_on_c, 7, 81, 0
9, 241560, Note_on_c, 7, 82, 127
9, 241560, Note_on_c, 7, 70, 127
9, 241589, Note_on_c, 7, 70, 0
9, 241589, Note_on_c, 7, 82, 0
9, 241590, Note_on_c, 7, 82, 127
9, 241590, Note_on_c, 7, 70, 127
9, 241619, Note_on_c, 7, 70, 0
9, 241619, Note_on_c, 7, 82, 0
9, 241620, Note_on_c, 7, 78, 127
9, 241620, Note_on_c, 7, 66, 127
9, 241649, Note_on_c, 7, 66, 0
9, 241649, Note_on_c, 7, 78, 0
9, 241650, Note_on_c, 7, 66, 127
9, 241650, Note_on_c, 7, 78, 127
9, 241679, Note_on_c, 7, 78, 0
9, 241679, Note_on_c, 7, 66, 0
9, 241680, Note_on_c, 7, 79, 127
9, 241680, Note_on_c, 7, 67, 127
9, 241709, Note_on_c, 7, 67, 0
9, 241709, Note_on_c, 7, 79, 0
9, 241710, Note_on_c, 7, 79, 127
9, 241710, Note_on_c, 7, 67, 127
9, 241739, Note_on_c, 7, 67, 0
9, 241739, Note_on_c, 7, 79, 0
9, 241740, Note_on_c, 7, 74, 127
9, 241740, Note_on_c, 7, 62, 127
9, 241769, Note_on_c, 7, 62, 0
9, 241769, Note_on_c, 7, 74, 0
9, 241770, Note_on_c, 7, 74, 127
9, 241770, Note_on_c, 7, 62, 127
9, 241799, Note_on_c, 7, 62, 0
9, 241799, Note_on_c, 7, 74, 0
9, 241800, Note_on_c, 7, 75, 127
9, 241800, Note_on_c, 7, 63, 127
9, 241829, Note_on_c, 7, 63, 0
9, 241829, Note_on_c, 7, 75, 0
9, 241830, Note_on_c, 7, 75, 127
9, 241830, Note_on_c, 7, 63, 127
9, 241859, Note_on_c, 7, 63, 0
9, 241859, Note_on_c, 7, 75, 0
9, 241860, Note_on_c, 7, 73, 127
9, 241860, Note_on_c, 7, 61, 127
9, 241889, Note_on_c, 7, 61, 0
9, 241889, Note_on_c, 7, 73, 0
9, 241890, Note_on_c, 7, 73, 127
9, 241890, Note_on_c, 7, 61, 127
9, 241919, Note_on_c, 7, 61, 0
9, 241919, Note_on_c, 7, 73, 0
9, 241920, Note_on_c, 7, 72, 127
9, 241920, Note_on_c, 7, 60, 127
9, 241949, Note_on_c, 7, 60, 0
9, 241949, Note_on_c, 7, 72, 0
9, 241950, Note_on_c, 7, 72, 127
9, 241950, Note_on_c, 7, 60, 127
9, 241979, Note_on_c, 7, 60, 0
9, 241979, Note_on_c, 7, 72, 0
9, 241980, Note_on_c, 7, 76, 127
9, 241980, Note_on_c, 7, 64, 127
9, 242009, Note_on_c, 7, 64, 0
9, 242009, Note_on_c, 7, 76, 0
9, 242010, Note_on_c, 7, 76, 127
9, 242010, Note_on_c, 7, 64, 127
9, 242039, Note_on_c, 7, 64, 0
9, 242039, Note_on_c, 7, 76, 0
9, 242040, Note_on_c, 7, 77, 127
9, 242040, Note_on_c, 7, 65, 127
9, 242069, Note_on_c, 7, 65, 0
9, 242069, Note_on_c, 7, 77, 0
9, 242070, Note_on_c, 7, 77, 127
9, 242070, Note_on_c, 7, 65, 127
9, 242099, Note_on_c, 7, 65, 0
9, 242099, Note_on_c, 7, 77, 0
9, 242100, Note_on_c, 7, 75, 127
9, 242100, Note_on_c, 7, 63, 127
9, 242129, Note_on_c, 7, 63, 0
9, 242129, Note_on_c, 7, 75, 0
9, 242130, Note_on_c, 7, 75, 127
9, 242130, Note_on_c, 7, 63, 127
9, 242159, Note_on_c, 7, 63, 0
9, 242159, Note_on_c, 7, 75, 0
9, 242160, Note_on_c, 7, 74, 127
9, 242160, Note_on_c, 7, 62, 127
9, 242189, Note_on_c, 7, 62, 0
9, 242189, Note_on_c, 7, 74, 0
9, 242190, Note_on_c, 7, 74, 127
9, 242190, Note_on_c, 7, 62, 127
9, 242219, Note_on_c, 7, 62, 0
9, 242219, Note_on_c, 7, 74, 0
9, 242220, Note_on_c, 7, 78, 127
9, 242220, Note_on_c, 7, 66, 127
9, 242249, Note_on_c, 7, 66, 0
9, 242249, Note_on_c, 7, 78, 0
9, 242250, Note_on_c, 7, 78, 127
9, 242250, Note_on_c, 7, 66, 127
9, 242279, Note_on_c, 7, 66, 0
9, 242279, Note_on_c, 7, 78, 0
9, 242280, Note_on_c, 7, 79, 127
9, 242280, Note_on_c, 7, 67, 127
9, 242309, Note_on_c, 7, 67, 0
9, 242309, Note_on_c, 7, 79, 0
9, 242310, Note_on_c, 7, 79, 127
9, 242310, Note_on_c, 7, 67, 127
9, 242339, Note_on_c, 7, 67, 0
9, 242339, Note_on_c, 7, 79, 0
9, 242340, Note_on_c, 7, 77, 127
9, 242340, Note_on_c, 7, 65, 127
9, 242369, Note_on_c, 7, 65, 0
9, 242369, Note_on_c, 7, 77, 0
9, 242370, Note_on_c, 7, 77, 127
9, 242370, Note_on_c, 7, 65, 127
9, 242399, Note_on_c, 7, 65, 0
9, 242399, Note_on_c, 7, 77, 0
9, 242400, Note_on_c, 7, 75, 127
9, 242400, Note_on_c, 7, 63, 127
9, 242429, Note_on_c, 7, 63, 0
9, 242429, Note_on_c, 7, 75, 0
9, 242430, Note_on_c, 7, 75, 127
9, 242430, Note_on_c, 7, 63, 127
9, 242459, Note_on_c, 7, 63, 0
9, 242459, Note_on_c, 7, 75, 0
9, 242460, Note_on_c, 7, 79, 127
9, 242460, Note_on_c, 7, 67, 127
9, 242489, Note_on_c, 7, 67, 0
9, 242489, Note_on_c, 7, 79, 0
9, 242490, Note_on_c, 7, 79, 127
9, 242490, Note_on_c, 7, 67, 127
9, 242519, Note_on_c, 7, 67, 0
9, 242519, Note_on_c, 7, 79, 0
9, 242520, Note_on_c, 7, 80, 127
9, 242520, Note_on_c, 7, 68, 127
9, 242549, Note_on_c, 7, 68, 0
9, 242549, Note_on_c, 7, 80, 0
9, 242550, Note_on_c, 7, 80, 127
9, 242550, Note_on_c, 7, 68, 127
9, 242579, Note_on_c, 7, 68, 0
9, 242579, Note_on_c, 7, 80, 0
9, 242580, Note_on_c, 7, 79, 127
9, 242580, Note_on_c, 7, 67, 127
9, 242609, Note_on_c, 7, 67, 0
9, 242609, Note_on_c, 7, 79, 0
9, 242610, Note_on_c, 7, 79, 127
9, 242610, Note_on_c, 7, 67, 127
9, 242639, Note_on_c, 7, 67, 0
9, 242639, Note_on_c, 7, 79, 0
9, 242640, Note_on_c, 7, 77, 127
9, 242640, Note_on_c, 7, 65, 127
9, 242669, Note_on_c, 7, 65, 0
9, 242669, Note_on_c, 7, 77, 0
9, 242670, Note_on_c, 7, 77, 127
9, 242670, Note_on_c, 7, 65, 127
9, 242699, Note_on_c, 7, 65, 0
9, 242699, Note_on_c, 7, 77, 0
9, 242700, Note_on_c, 7, 81, 127
9, 242700, Note_on_c, 7, 69, 127
9, 242729, Note_on_c, 7, 69, 0
9, 242729, Note_on_c, 7, 81, 0
9, 242730, Note_on_c, 7, 81, 127
9, 242730, Note_on_c, 7, 69, 127
9, 242759, Note_on_c, 7, 69, 0
9, 242759, Note_on_c, 7, 81, 0
9, 242760, Note_on_c, 7, 82, 127
9, 242760, Note_on_c, 7, 70, 127
9, 242789, Note_on_c, 7, 70, 0
9, 242789, Note_on_c, 7, 82, 0
9, 242790, Note_on_c, 7, 82, 127
9, 242790, Note_on_c, 7, 70, 127
9, 242819, Note_on_c, 7, 70, 0
9, 242819, Note_on_c, 7, 82, 0
9, 242820, Note_on_c, 7, 80, 127
9, 242820, Note_on_c, 7, 68, 127
9, 242849, Note_on_c, 7, 68, 0
9, 242849, Note_on_c, 7, 80, 0
9, 242850, Note_on_c, 7, 80, 127
9, 242850, Note_on_c, 7, 68, 127
9, 242879, Note_on_c, 7, 68, 0
9, 242879, Note_on_c, 7, 80, 0
9, 242880, Note_on_c, 7, 79, 127
9, 242880, Note_on_c, 7, 67, 127
9, 242909, Note_on_c, 7, 67, 0
9, 242909, Note_on_c, 7, 79, 0
9, 242910, Note_on_c, 7, 79, 127
9, 242910, Note_on_c, 7, 67, 127
9, 242939, Note_on_c, 7, 67, 0
9, 242939, Note_on_c, 7, 79, 0
9, 242940, Note_on_c, 7, 83, 127
9, 242940, Note_on_c, 7, 71, 127
9, 242969, Note_on_c, 7, 71, 0
9, 242969, Note_on_c, 7, 83, 0
9, 242970, Note_on_c, 7, 83, 127
9, 242970, Note_on_c, 7, 71, 127
9, 242999, Note_on_c, 7, 71, 0
9, 242999, Note_on_c, 7, 83, 0
9, 243000, Note_on_c, 7, 84, 127
9, 243000, Note_on_c, 7, 72, 127
9, 243029, Note_on_c, 7, 72, 0
9, 243029, Note_on_c, 7, 84, 0
9, 243030, Note_on_c, 7, 84, 127
9, 243030, Note_on_c, 7, 72, 127
9, 243059, Note_on_c, 7, 72, 0
9, 243059, Note_on_c, 7, 84, 0
9, 243060, Note_on_c, 7, 86, 127
9, 243060, Note_on_c, 7, 74, 127
9, 243089, Note_on_c, 7, 74, 0
9, 243089, Note_on_c, 7, 86, 0
9, 243090, Note_on_c, 7, 74, 127
9, 243090, Note_on_c, 7, 86, 127
9, 243119, Note_on_c, 7, 86, 0
9, 243119, Note_on_c, 7, 74, 0
9, 243120, Note_on_c, 7, 87, 127
9, 243120, Note_on_c, 7, 75, 127
9, 243149, Note_on_c, 7, 75, 0
9, 243149, Note_on_c, 7, 87, 0
9, 243150, Note_on_c, 7, 87, 127
9, 243150, Note_on_c, 7, 75, 127
9, 243179, Note_on_c, 7, 75, 0
9, 243179, Note_on_c, 7, 87, 0
9, 243180, Note_on_c, 7, 88, 127
9, 243180, Note_on_c, 7, 76, 127
9, 243209, Note_on_c, 7, 76, 0
9, 243209, Note_on_c, 7, 88, 0
9, 243210, Note_on_c, 7, 88, 127
9, 243210, Note_on_c, 7, 76, 127
9, 243239, Note_on_c, 7, 76, 0
9, 243239, Note_on_c, 7, 88, 0
9, 243240, Note_on_c, 7, 89, 127
9, 243240, Note_on_c, 7, 77, 127
9, 243269, Note_on_c, 7, 77, 0
9, 243269, Note_on_c, 7, 89, 0
9, 243270, Note_on_c, 7, 89, 127
9, 243270, Note_on_c, 7, 77, 127
9, 243299, Note_on_c, 7, 77, 0
9, 243299, Note_on_c, 7, 89, 0
9, 243300, Note_on_c, 7, 90, 127
9, 243300, Note_on_c, 7, 78, 127
9, 243329, Note_on_c, 7, 78, 0
9, 243329, Note_on_c, 7, 90, 0
9, 243330, Note_on_c, 7, 90, 127
9, 243330, Note_on_c, 7, 78, 127
9, 243359, Note_on_c, 7, 78, 0
9, 243359, Note_on_c, 7, 90, 0
9, 243360, Note_on_c, 7, 91, 127
9, 243360, Note_on_c, 7, 79, 127
9, 243419, Note_on_c, 7, 79, 0
9, 243419, Note_on_c, 7, 91, 0
9, 243480, Note_on_c, 7, 67, 127
9, 243480, Note_on_c, 7, 77, 127
9, 243480, Note_on_c, 7, 86, 127
9, 243539, Note_on_c, 7, 86, 0
9, 243539, Note_on_c, 7, 77, 0
9, 243539, Note_on_c, 7, 67, 0
9, 243600, Note_on_c, 7, 84, 127
9, 243600, Note_on_c, 7, 75, 127
9, 243600, Note_on_c, 7, 67, 127
9, 243659, Note_on_c, 7, 67, 0
9, 243659, Note_on_c, 7, 75, 0
9, 243659, Note_on_c, 7, 84, 0
9, 243840, Note_on_c, 7, 55, 127
9, 243840, Note_on_c, 7, 63, 127
9, 243840, Note_on_c, 7, 73, 127
9, 243840, Note_on_c, 7, 82, 127
9, 243899, Note_on_c, 7, 82, 0
9, 243899, Note_on_c, 7, 55, 0
9, 243899, Note_on_c, 7, 63, 0
9, 243899, Note_on_c, 7, 73, 0
9, 243960, Note_on_c, 7, 80, 127
9, 243960, Note_on_c, 7, 72, 127
9, 243960, Note_on_c, 7, 63, 127
9, 243960, Note_on_c, 7, 56, 127
9, 244019, Note_on_c, 7, 56, 0
9, 244019, Note_on_c, 7, 80, 0
9, 244019, Note_on_c, 7, 72, 0
9, 244019, Note_on_c, 7, 63, 0
9, 244200, Note_on_c, 7, 57, 127
9, 244200, Note_on_c, 7, 65, 127
9, 244200, Note_on_c, 7, 75, 127
9, 244200, Note_on_c, 7, 84, 127
9, 244259, Note_on_c, 7, 84, 0
9, 244259, Note_on_c, 7, 57, 0
9, 244259, Note_on_c, 7, 65, 0
9, 244259, Note_on_c, 7, 75, 0
9, 244320, Note_on_c, 7, 82, 127
9, 244320, Note_on_c, 7, 74, 127
9, 244320, Note_on_c, 7, 65, 127
9, 244320, Note_on_c, 7, 58, 127
9, 244379, Note_on_c, 7, 58, 0
9, 244379, Note_on_c, 7, 82, 0
9, 244379, Note_on_c, 7, 74, 0
9, 244379, Note_on_c, 7, 65, 0
9, 244560, Note_on_c, 7, 67, 127
9, 244560, Note_on_c, 7, 77, 127
9, 244560, Note_on_c, 7, 86, 127
9, 244619, Note_on_c, 7, 86, 0
9, 244619, Note_on_c, 7, 77, 0
9, 244619, Note_on_c, 7, 67, 0
9, 244680, Note_on_c, 7, 84, 127
9, 244680, Note_on_c, 7, 75, 127
9, 244680, Note_on_c, 7, 67, 127
9, 244739, Note_on_c, 7, 67, 0
9, 244739, Note_on_c, 7, 75, 0
9, 244739, Note_on_c, 7, 84, 0
9, 244920, Note_on_c, 7, 55, 127
9, 244920, Note_on_c, 7, 63, 127
9, 244920, Note_on_c, 7, 73, 127
9, 244920, Note_on_c, 7, 82, 127
9, 244979, Note_on_c, 7, 82, 0
9, 244979, Note_on_c, 7, 55, 0
9, 244979, Note_on_c, 7, 63, 0
9, 244979, Note_on_c, 7, 73, 0
9, 245040, Note_on_c, 7, 80, 127
9, 245040, Note_on_c, 7, 72, 127
9, 245040, Note_on_c, 7, 63, 127
9, 245040, Note_on_c, 7, 56, 127
9, 245099, Note_on_c, 7, 56, 0
9, 245099, Note_on_c, 7, 80, 0
9, 245099, Note_on_c, 7, 72, 0
9, 245099, Note_on_c, 7, 63, 0
9, 245280, Note_on_c, 7, 84, 127
9, 245280, Note_on_c, 7, 75, 127
9, 245280, Note_on_c, 7, 66, 127
9, 245280, Note_on_c, 7, 57, 127
9, 245339, Note_on_c, 7, 57, 0
9, 245339, Note_on_c, 7, 84, 0
9, 245339, Note_on_c, 7, 75, 0
9, 245339, Note_on_c, 7, 66, 0
9, 245520, Note_on_c, 7, 57, 127
9, 245520, Note_on_c, 7, 66, 127
9, 245520, Note_on_c, 7, 75, 127
9, 245520, Note_on_c, 7, 84, 127
9, 245579, Note_on_c, 7, 84, 0
9, 245579, Note_on_c, 7, 57, 0
9, 245579, Note_on_c, 7, 66, 0
9, 245579, Note_on_c, 7, 75, 0
9, 245760, Note_on_c, 7, 84, 127
9, 245760, Note_on_c, 7, 75, 127
9, 245760, Note_on_c, 7, 66, 127
9, 245760, Note_on_c, 7, 57, 127
9, 245819, Note_on_c, 7, 57, 0
9, 245819, Note_on_c, 7, 84, 0
9, 245819, Note_on_c, 7, 75, 0
9, 245819, Note_on_c, 7, 66, 0
9, 246000, Note_on_c, 7, 57, 127
9, 246000, Note_on_c, 7, 66, 127
9, 246000, Note_on_c, 7, 75, 127
9, 246000, Note_on_c, 7, 84, 127
9, 246059, Note_on_c, 7, 84, 0
9, 246059, Note_on_c, 7, 57, 0
9, 246059, Note_on_c, 7, 66, 0
9, 246059, Note_on_c, 7, 75, 0
9, 246240, Note_on_c, 7, 84, 127
9, 246240, Note_on_c, 7, 75, 127
9, 246240, Note_on_c, 7, 66, 127
9, 246240, Note_on_c, 7, 57, 127
9, 246299, Note_on_c, 7, 57, 0
9, 246299, Note_on_c, 7, 84, 0
9, 246299, Note_on_c, 7, 75, 0
9, 246299, Note_on_c, 7, 66, 0
9, 246480, Note_on_c, 7, 57, 127
9, 246480, Note_on_c, 7, 66, 127
9, 246480, Note_on_c, 7, 75, 127
9, 246480, Note_on_c, 7, 84, 127
9, 246539, Note_on_c, 7, 84, 0
9, 246539, Note_on_c, 7, 57, 0
9, 246539, Note_on_c, 7, 66, 0
9, 246539, Note_on_c, 7, 75, 0
9, 246960, Note_on_c, 7, 75, 96
9, 246960, Note_on_c, 7, 63, 96
9, 246989, Note_on_c, 7, 63, 0
9, 246989, Note_on_c, 7, 75, 0
9, 246990, Note_on_c, 7, 75, 48
9, 246990, Note_on_c, 7, 63, 48
9, 247080, Note_on_c, 7, 78, 48
9, 247080, Note_on_c, 7, 66, 48
9, 247089, Note_on_c, 7, 63, 0
9, 247089, Note_on_c, 7, 75, 0
9, 247200, Note_on_c, 7, 81, 48
9, 247200, Note_on_c, 7, 69, 48
9, 247209, Note_on_c, 7, 78, 0
9, 247209, Note_on_c, 7, 66, 0
9, 247319, Note_on_c, 7, 81, 0
9, 247319, Note_on_c, 7, 69, 0
9, 247320, Note_on_c, 7, 82, 48
9, 247320, Note_on_c, 7, 70, 48
9, 247679, Note_on_c, 7, 70, 0
9, 247679, Note_on_c, 7, 82, 0
9, 247680, Note_on_c, 7, 75, 96
9, 247680, Note_on_c, 7, 63, 96
9, 247709, Note_on_c, 7, 63, 0
9, 247709, Note_on_c, 7, 75, 0
9, 247710, Note_on_c, 7, 75, 48
9, 247710, Note_on_c, 7, 63, 48
9, 247800, Note_on_c, 7, 78, 48
9, 247800, Note_on_c, 7, 66, 48
9, 247809, Note_on_c, 7, 63, 0
9, 247809, Note_on_c, 7, 75, 0
9, 247920, Note_on_c, 7, 81, 48
9, 247920, Note_on_c, 7, 69, 48
9, 247929, Note_on_c, 7, 78, 0
9, 247929, Note_on_c, 7, 66, 0
9, 248160, Note_on_c, 7, 80, 48
9, 248160, Note_on_c, 7, 68, 48
9, 248169, Note_on_c, 7, 81, 0
9, 248169, Note_on_c, 7, 69, 0
9, 248280, Note_on_c, 7, 78, 48
9, 248280, Note_on_c, 7, 66, 48
9, 248289, Note_on_c, 7, 80, 0
9, 248289, Note_on_c, 7, 68, 0
9, 248520, Note_on_c, 7, 76, 48
9, 248520, Note_on_c, 7, 64, 48
9, 248529, Note_on_c, 7, 78, 0
9, 248529, Note_on_c, 7, 66, 0
9, 248640, Note_on_c, 7, 77, 48
9, 248640, Note_on_c, 7, 65, 48
9, 248649, Note_on_c, 7, 76, 0
9, 248649, Note_on_c, 7, 64, 0
9, 248880, Note_on_c, 7, 70, 48
9, 248880, Note_on_c, 7, 58, 48
9, 248889, Note_on_c, 7, 77, 0
9, 248889, Note_on_c, 7, 65, 0
9, 249000, Note_on_c, 7, 80, 48
9, 249000, Note_on_c, 7, 68, 48
9, 249009, Note_on_c, 7, 70, 0
9, 249009, Note_on_c, 7, 58, 0
9, 249240, Note_on_c, 7, 78, 48
9, 249240, Note_on_c, 7, 66, 48
9, 249249, Note_on_c, 7, 80, 0
9, 249249, Note_on_c, 7, 68, 0
9, 249360, Note_on_c, 7, 79, 48
9, 249360, Note_on_c, 7, 67, 48
9, 249369, Note_on_c, 7, 78, 0
9, 249369, Note_on_c, 7, 66, 0
9, 249539, Note_on_c, 7, 79, 0
9, 249539, Note_on_c, 7, 67, 0
9, 249540, Note_on_c, 7, 71, 56
9, 249540, Note_on_c, 7, 59, 56
9, 249600, Note_on_c, 7, 72, 60
9, 249600, Note_on_c, 7, 60, 60
9, 249609, Note_on_c, 7, 59, 0
9, 249609, Note_on_c, 7, 71, 0
9, 249660, Note_on_c, 7, 76, 64
9, 249660, Note_on_c, 7, 64, 64
9, 249669, Note_on_c, 7, 72, 0
9, 249669, Note_on_c, 7, 60, 0
9, 249720, Note_on_c, 7, 65, 68
9, 249720, Note_on_c, 7, 77, 68
9, 249729, Note_on_c, 7, 76, 0
9, 249729, Note_on_c, 7, 64, 0
9, 249780, Note_on_c, 7, 79, 72
9, 249780, Note_on_c, 7, 67, 72
9, 249789, Note_on_c, 7, 65, 0
9, 249789, Note_on_c, 7, 77, 0
9, 249840, Note_on_c, 7, 68, 77
9, 249840, Note_on_c, 7, 80, 77
9, 249849, Note_on_c, 7, 79, 0
9, 249849, Note_on_c, 7, 67, 0
9, 249900, Note_on_c, 7, 83, 82
9, 249900, Note_on_c, 7, 71, 82
9, 249909, Note_on_c, 7, 68, 0
9, 249909, Note_on_c, 7, 80, 0
9, 249960, Note_on_c, 7, 72, 87
9, 249960, Note_on_c, 7, 84, 87
9, 249969, Note_on_c, 7, 83, 0
9, 249969, Note_on_c, 7, 71, 0
9, 250020, Note_on_c, 7, 68, 92
9, 250020, Note_on_c, 7, 80, 92
9, 250029, Note_on_c, 7, 72, 0
9, 250029, Note_on_c, 7, 84, 0
9, 250080, Note_on_c, 7, 79, 97
9, 250080, Note_on_c, 7, 67, 97
9, 250089, Note_on_c, 7, 68, 0
9, 250089, Note_on_c, 7, 80, 0
9, 250140, Note_on_c, 7, 65, 102
9, 250140, Note_on_c, 7, 77, 102
9, 250149, Note_on_c, 7, 79, 0
9, 250149, Note_on_c, 7, 67, 0
9, 250199, Note_on_c, 7, 65, 0
9, 250199, Note_on_c, 7, 77, 0
9, 250200, Note_on_c, 7, 75, 105
9, 250200, Note_on_c, 7, 63, 105
9, 250229, Note_on_c, 7, 63, 0
9, 250229, Note_on_c, 7, 75, 0
9, 250230, Note_on_c, 7, 75, 107
9, 250230, Note_on_c, 7, 63, 107
9, 250259, Note_on_c, 7, 63, 0
9, 250259, Note_on_c, 7, 75, 0
9, 250260, Note_on_c, 7, 79, 110
9, 250260, Note_on_c, 7, 67, 110
9, 250289, Note_on_c, 7, 67, 0
9, 250289, Note_on_c, 7, 79, 0
9, 250290, Note_on_c, 7, 79, 112
9, 250290, Note_on_c, 7, 67, 112
9, 250319, Note_on_c, 7, 67, 0
9, 250319, Note_on_c, 7, 79, 0
9, 250320, Note_on_c, 7, 82, 115
9, 250320, Note_on_c, 7, 70, 115
9, 250349, Note_on_c, 7, 70, 0
9, 250349, Note_on_c, 7, 82, 0
9, 250350, Note_on_c, 7, 82, 117
9, 250350, Note_on_c, 7, 70, 117
9, 250379, Note_on_c, 7, 70, 0
9, 250379, Note_on_c, 7, 82, 0
9, 250380, Note_on_c, 7, 82, 120
9, 250380, Note_on_c, 7, 70, 120
9, 250409, Note_on_c, 7, 70, 0
9, 250409, Note_on_c, 7, 82, 0
9, 250410, Note_on_c, 7, 82, 122
9, 250410, Note_on_c, 7, 70, 122
9, 250439, Note_on_c, 7, 70, 0
9, 250439, Note_on_c, 7, 82, 0
9, 250440, Note_on_c, 7, 82, 121
9, 250440, Note_on_c, 7, 75, 121
9, 250469, Note_on_c, 7, 75, 0
9, 250469, Note_on_c, 7, 82, 0
9, 250470, Note_on_c, 7, 82, 123
9, 250470, Note_on_c, 7, 75, 123
9, 250499, Note_on_c, 7, 75, 0
9, 250499, Note_on_c, 7, 82, 0
9, 250500, Note_on_c, 7, 82, 124
9, 250500, Note_on_c, 7, 79, 124
9, 250529, Note_on_c, 7, 79, 0
9, 250529, Note_on_c, 7, 82, 0
9, 250530, Note_on_c, 7, 82, 126
9, 250530, Note_on_c, 7, 79, 126
9, 250559, Note_on_c, 7, 79, 0
9, 250559, Note_on_c, 7, 82, 0
9, 250560, Note_on_c, 7, 80, 127
9, 250560, Note_on_c, 7, 82, 127
9, 250589, Note_on_c, 7, 82, 0
9, 250589, Note_on_c, 7, 80, 0
9, 250590, Note_on_c, 7, 68, 127
9, 250590, Note_on_c, 7, 82, 127
9, 250619, Note_on_c, 7, 82, 0
9, 250619, Note_on_c, 7, 68, 0
9, 250620, Note_on_c, 7, 68, 127
9, 250620, Note_on_c, 7, 82, 127
9, 250649, Note_on_c, 7, 82, 0
9, 250649, Note_on_c, 7, 68, 0
9, 250650, Note_on_c, 7, 82, 127
9, 250650, Note_on_c, 7, 68, 127
9, 250679, Note_on_c, 7, 68, 0
9, 250679, Note_on_c, 7, 82, 0
9, 250680, Note_on_c, 7, 82, 127
9, 250680, Note_on_c, 7, 68, 127
9, 250709, Note_on_c, 7, 68, 0
9, 250709, Note_on_c, 7, 82, 0
9, 250710, Note_on_c, 7, 82, 127
9, 250710, Note_on_c, 7, 68, 127
9, 250739, Note_on_c, 7, 68, 0
9, 250739, Note_on_c, 7, 82, 0
9, 250740, Note_on_c, 7, 82, 127
9, 250740, Note_on_c, 7, 68, 127
9, 250769, Note_on_c, 7, 68, 0
9, 250769, Note_on_c, 7, 82, 0
9, 250770, Note_on_c, 7, 82, 127
9, 250770, Note_on_c, 7, 68, 127
9, 250799, Note_on_c, 7, 68, 0
9, 250799, Note_on_c, 7, 82, 0
9, 250800, Note_on_c, 7, 82, 127
9, 250800, Note_on_c, 7, 68, 127
9, 250829, Note_on_c, 7, 68, 0
9, 250829, Note_on_c, 7, 82, 0
9, 250830, Note_on_c, 7, 82, 127
9, 250830, Note_on_c, 7, 68, 127
9, 250859, Note_on_c, 7, 68, 0
9, 250859, Note_on_c, 7, 82, 0
9, 250860, Note_on_c, 7, 82, 127
9, 250860, Note_on_c, 7, 68, 127
9, 250889, Note_on_c, 7, 68, 0
9, 250889, Note_on_c, 7, 82, 0
9, 250890, Note_on_c, 7, 82, 127
9, 250890, Note_on_c, 7, 68, 127
9, 250919, Note_on_c, 7, 68, 0
9, 250919, Note_on_c, 7, 82, 0
9, 250920, Note_on_c, 7, 75, 127
9, 250920, Note_on_c, 7, 67, 127
9, 250979, Note_on_c, 7, 67, 0
9, 251039, Note_on_c, 7, 75, 0
9, 251040, Note_on_c, 7, 70, 127
9, 251099, Note_on_c, 7, 70, 0
9, 251160, Note_on_c, 7, 67, 127
9, 251219, Note_on_c, 7, 67, 0
9, 251280, Note_on_c, 7, 87, 127
9, 251280, Note_on_c, 7, 75, 127
9, 251399, Note_on_c, 7, 75, 0
9, 251399, Note_on_c, 7, 87, 0
9, 251400, Note_on_c, 7, 72, 127
9, 251459, Note_on_c, 7, 72, 0
9, 251520, Note_on_c, 7, 68, 127
9, 251579, Note_on_c, 7, 68, 0
9, 251640, Note_on_c, 7, 75, 127
9, 251640, Note_on_c, 7, 87, 127
9, 251759, Note_on_c, 7, 87, 0
9, 251759, Note_on_c, 7, 75, 0
9, 251760, Note_on_c, 7, 70, 127
9, 251819, Note_on_c, 7, 70, 0
9, 251880, Note_on_c, 7, 67, 127
9, 251939, Note_on_c, 7, 67, 0
9, 252000, Note_on_c, 7, 71, 127
9, 252000, Note_on_c, 7, 68, 127
9, 252000, Note_on_c, 7, 87, 127
9, 252000, Note_on_c, 7, 75, 127
9, 252059, Note_on_c, 7, 75, 0
9, 252059, Note_on_c, 7, 71, 0
9, 252059, Note_on_c, 7, 68, 0
9, 252059, Note_on_c, 7, 87, 0
9, 252120, Note_on_c, 7, 71, 127
9, 252120, Note_on_c, 7, 68, 127
9, 252120, Note_on_c, 7, 87, 127
9, 252120, Note_on_c, 7, 75, 127
9, 252179, Note_on_c, 7, 75, 0
9, 252179, Note_on_c, 7, 71, 0
9, 252179, Note_on_c, 7, 68, 0
9, 252179, Note_on_c, 7, 87, 0
9, 252240, Note_on_c, 7, 71, 127
9, 252240, Note_on_c, 7, 68, 127
9, 252240, Note_on_c, 7, 87, 127
9, 252240, Note_on_c, 7, 75, 127
9, 252299, Note_on_c, 7, 75, 0
9, 252299, Note_on_c, 7, 71, 0
9, 252299, Note_on_c, 7, 68, 0
9, 252299, Note_on_c, 7, 87, 0
9, 252360, Note_on_c, 7, 70, 96
9, 252360, Note_on_c, 7, 67, 96
9, 252360, Note_on_c, 7, 87, 96
9, 252360, Note_on_c, 7, 75, 96
9, 252389, Note_on_c, 7, 75, 0
9, 252389, Note_on_c, 7, 70, 0
9, 252389, Note_on_c, 7, 67, 0
9, 252389, Note_on_c, 7, 87, 0
9, 252390, Note_on_c, 7, 67, 48
9, 252390, Note_on_c, 7, 70, 48
9, 252390, Note_on_c, 7, 87, 48
9, 252390, Note_on_c, 7, 75, 48
9, 252599, Note_on_c, 7, 70, 0
9, 252599, Note_on_c, 7, 67, 0
9, 252600, Note_on_c, 7, 67, 48
9, 252600, Note_on_c, 7, 79, 48
9, 252609, Note_on_c, 7, 87, 0
9, 252609, Note_on_c, 7, 75, 0
9, 252720, Note_on_c, 7, 75, 48
9, 252720, Note_on_c, 7, 63, 48
9, 252729, Note_on_c, 7, 67, 0
9, 252729, Note_on_c, 7, 79, 0
9, 252960, Note_on_c, 7, 58, 48
9, 252960, Note_on_c, 7, 70, 48
9, 252969, Note_on_c, 7, 75, 0
9, 252969, Note_on_c, 7, 63, 0
9, 253079, Note_on_c, 7, 58, 0
9, 253079, Note_on_c, 7, 70, 0
9, 253080, Note_on_c, 7, 75, 48
9, 253080, Note_on_c, 7, 63, 48
9, 254519, Note_on_c, 7, 63, 0
9, 254519, Note_on_c, 7, 75, 0
9, 254520, Note_on_c, 7, 61, 96
9, 254520, Note_on_c, 7, 73, 96
9, 254760, Note_on_c, 7, 77, 96
9, 254760, Note_on_c, 7, 65, 96
9, 254769, Note_on_c, 7, 73, 0
9, 254769, Note_on_c, 7, 61, 0
9, 254880, Note_on_c, 7, 73, 96
9, 254880, Note_on_c, 7, 61, 96
9, 254889, Note_on_c, 7, 77, 0
9, 254889, Note_on_c, 7, 65, 0
9, 255120, Note_on_c, 7, 56, 96
9, 255120, Note_on_c, 7, 68, 96
9, 255129, Note_on_c, 7, 73, 0
9, 255129, Note_on_c, 7, 61, 0
9, 255239, Note_on_c, 7, 56, 0
9, 255239, Note_on_c, 7, 68, 0
9, 255240, Note_on_c, 7, 73, 48
9, 255240, Note_on_c, 7, 61, 48
9, 255959, Note_on_c, 7, 61, 0
9, 255959, Note_on_c, 7, 73, 0
9, 255960, Note_on_c, 7, 72, 127
9, 255960, Note_on_c, 7, 60, 127
9, 255989, Note_on_c, 7, 60, 0
9, 255989, Note_on_c, 7, 72, 0
9, 255990, Note_on_c, 7, 72, 127
9, 255990, Note_on_c, 7, 55, 127
9, 255990, Note_on_c, 7, 64, 127
9, 256019, Note_on_c, 7, 64, 0
9, 256019, Note_on_c, 7, 55, 0
9, 256019, Note_on_c, 7, 72, 0
9, 256020, Note_on_c, 7, 72, 127
9, 256020, Note_on_c, 7, 55, 127
9, 256020, Note_on_c, 7, 64, 127
9, 256049, Note_on_c, 7, 64, 0
9, 256049, Note_on_c, 7, 55, 0
9, 256049, Note_on_c, 7, 72, 0
9, 256050, Note_on_c, 7, 72, 127
9, 256050, Note_on_c, 7, 55, 127
9, 256050, Note_on_c, 7, 64, 127
9, 256079, Note_on_c, 7, 64, 0
9, 256079, Note_on_c, 7, 55, 0
9, 256079, Note_on_c, 7, 72, 0
9, 256080, Note_on_c, 7, 72, 127
9, 256080, Note_on_c, 7, 55, 127
9, 256080, Note_on_c, 7, 64, 127
9, 256109, Note_on_c, 7, 64, 0
9, 256109, Note_on_c, 7, 55, 0
9, 256109, Note_on_c, 7, 72, 0
9, 256110, Note_on_c, 7, 72, 127
9, 256110, Note_on_c, 7, 55, 127
9, 256110, Note_on_c, 7, 64, 127
9, 256139, Note_on_c, 7, 64, 0
9, 256139, Note_on_c, 7, 55, 0
9, 256139, Note_on_c, 7, 72, 0
9, 256140, Note_on_c, 7, 72, 127
9, 256140, Note_on_c, 7, 55, 127
9, 256140, Note_on_c, 7, 64, 127
9, 256169, Note_on_c, 7, 64, 0
9, 256169, Note_on_c, 7, 55, 0
9, 256169, Note_on_c, 7, 72, 0
9, 256170, Note_on_c, 7, 72, 127
9, 256170, Note_on_c, 7, 55, 127
9, 256170, Note_on_c, 7, 64, 127
9, 256199, Note_on_c, 7, 64, 0
9, 256199, Note_on_c, 7, 55, 0
9, 256199, Note_on_c, 7, 72, 0
9, 256200, Note_on_c, 7, 76, 127
9, 256200, Note_on_c, 7, 55, 127
9, 256200, Note_on_c, 7, 64, 127
9, 256229, Note_on_c, 7, 64, 0
9, 256229, Note_on_c, 7, 55, 0
9, 256229, Note_on_c, 7, 76, 0
9, 256230, Note_on_c, 7, 76, 127
9, 256230, Note_on_c, 7, 55, 127
9, 256230, Note_on_c, 7, 64, 127
9, 256259, Note_on_c, 7, 64, 0
9, 256259, Note_on_c, 7, 55, 0
9, 256259, Note_on_c, 7, 76, 0
9, 256260, Note_on_c, 7, 76, 127
9, 256260, Note_on_c, 7, 55, 127
9, 256260, Note_on_c, 7, 64, 127
9, 256289, Note_on_c, 7, 64, 0
9, 256289, Note_on_c, 7, 55, 0
9, 256289, Note_on_c, 7, 76, 0
9, 256290, Note_on_c, 7, 76, 127
9, 256290, Note_on_c, 7, 55, 127
9, 256319, Note_on_c, 7, 55, 0
9, 256319, Note_on_c, 7, 76, 0
9, 256320, Note_on_c, 7, 72, 127
9, 256320, Note_on_c, 7, 55, 127
9, 256320, Note_on_c, 7, 64, 127
9, 256349, Note_on_c, 7, 64, 0
9, 256349, Note_on_c, 7, 55, 0
9, 256349, Note_on_c, 7, 72, 0
9, 256350, Note_on_c, 7, 72, 127
9, 256350, Note_on_c, 7, 64, 127
9, 256379, Note_on_c, 7, 64, 0
9, 256379, Note_on_c, 7, 72, 0
9, 256380, Note_on_c, 7, 64, 127
9, 256380, Note_on_c, 7, 72, 127
9, 256409, Note_on_c, 7, 72, 0
9, 256409, Note_on_c, 7, 64, 0
9, 256410, Note_on_c, 7, 64, 127
9, 256410, Note_on_c, 7, 72, 127
9, 256439, Note_on_c, 7, 72, 0
9, 256439, Note_on_c, 7, 64, 0
9, 256440, Note_on_c, 7, 64, 127
9, 256440, Note_on_c, 7, 72, 127
9, 256469, Note_on_c, 7, 72, 0
9, 256469, Note_on_c, 7, 64, 0
9, 256470, Note_on_c, 7, 64, 127
9, 256470, Note_on_c, 7, 72, 127
9, 256499, Note_on_c, 7, 72, 0
9, 256499, Note_on_c, 7, 64, 0
9, 256500, Note_on_c, 7, 64, 127
9, 256500, Note_on_c, 7, 72, 127
9, 256529, Note_on_c, 7, 72, 0
9, 256529, Note_on_c, 7, 64, 0
9, 256530, Note_on_c, 7, 64, 127
9, 256530, Note_on_c, 7, 72, 127
9, 256559, Note_on_c, 7, 72, 0
9, 256559, Note_on_c, 7, 64, 0
9, 256560, Note_on_c, 7, 67, 127
9, 256560, Note_on_c, 7, 64, 127
9, 256560, Note_on_c, 7, 72, 127
9, 256589, Note_on_c, 7, 72, 0
9, 256589, Note_on_c, 7, 64, 0
9, 256589, Note_on_c, 7, 67, 0
9, 256590, Note_on_c, 7, 67, 127
9, 256590, Note_on_c, 7, 64, 127
9, 256590, Note_on_c, 7, 72, 127
9, 256619, Note_on_c, 7, 72, 0
9, 256619, Note_on_c, 7, 64, 0
9, 256619, Note_on_c, 7, 67, 0
9, 256620, Note_on_c, 7, 67, 127
9, 256620, Note_on_c, 7, 64, 127
9, 256620, Note_on_c, 7, 72, 127
9, 256649, Note_on_c, 7, 72, 0
9, 256649, Note_on_c, 7, 64, 0
9, 256649, Note_on_c, 7, 67, 0
9, 256650, Note_on_c, 7, 67, 127
9, 256650, Note_on_c, 7, 64, 127
9, 256650, Note_on_c, 7, 72, 127
9, 256679, Note_on_c, 7, 72, 0
9, 256679, Note_on_c, 7, 64, 0
9, 256679, Note_on_c, 7, 67, 0
9, 256680, Note_on_c, 7, 72, 48
9, 256680, Note_on_c, 7, 64, 48
9, 256799, Note_on_c, 7, 64, 0
9, 257040, Note_on_c, 7, 60, 48
9, 257519, Note_on_c, 7, 72, 0
9, 257640, Note_on_c, 7, 64, 32
9, 257649, Note_on_c, 7, 60, 0
9, 257760, Note_on_c, 7, 60, 32
9, 257769, Note_on_c, 7, 64, 0
9, 258000, Note_on_c, 7, 55, 32
9, 258009, Note_on_c, 7, 60, 0
9, 258119, Note_on_c, 7, 55, 0
9, 258120, Note_on_c, 7, 60, 32
9, 258180, Note_on_c, 7, 79, 32
9, 258210, Note_on_c, 7, 78, 32
9, 258219, Note_on_c, 7, 79, 0
9, 258239, Note_on_c, 7, 78, 0
9, 258240, Note_on_c, 7, 79, 32
9, 258269, Note_on_c, 7, 79, 0
9, 258300, Note_on_c, 7, 79, 32
9, 258329, Note_on_c, 7, 79, 0
9, 258360, Note_on_c, 7, 79, 32
9, 258360, Note_on_c, 7, 64, 32
9, 258369, Note_on_c, 7, 60, 0
9, 258389, Note_on_c, 7, 79, 0
9, 258420, Note_on_c, 7, 79, 32
9, 258449, Note_on_c, 7, 79, 0
9, 258480, Note_on_c, 7, 60, 32
9, 258489, Note_on_c, 7, 64, 0
9, 258540, Note_on_c, 7, 79, 32
9, 258570, Note_on_c, 7, 78, 32
9, 258579, Note_on_c, 7, 79, 0
9, 258599, Note_on_c, 7, 78, 0
9, 258600, Note_on_c, 7, 79, 32
9, 258629, Note_on_c, 7, 79, 0
9, 258660, Note_on_c, 7, 79, 32
9, 258689, Note_on_c, 7, 79, 0
9, 258720, Note_on_c, 7, 79, 32
9, 258720, Note_on_c, 7, 55, 32
9, 258729, Note_on_c, 7, 60, 0
9, 258749, Note_on_c, 7, 79, 0
9, 258780, Note_on_c, 7, 79, 32
9, 258809, Note_on_c, 7, 79, 0
9, 258839, Note_on_c, 7, 55, 0
9, 258840, Note_on_c, 7, 62, 32
9, 258900, Note_on_c, 7, 79, 32
9, 258930, Note_on_c, 7, 78, 32
9, 258939, Note_on_c, 7, 79, 0
9, 258959, Note_on_c, 7, 78, 0
9, 258960, Note_on_c, 7, 79, 32
9, 258989, Note_on_c, 7, 79, 0
9, 259020, Note_on_c, 7, 81, 32
9, 259049, Note_on_c, 7, 81, 0
9, 259080, Note_on_c, 7, 83, 32
9, 259080, Note_on_c, 7, 65, 32
9, 259089, Note_on_c, 7, 62, 0
9, 259109, Note_on_c, 7, 83, 0
9, 259140, Note_on_c, 7, 84, 32
9, 259169, Note_on_c, 7, 84, 0
9, 259200, Note_on_c, 7, 86, 32
9, 259200, Note_on_c, 7, 62, 32
9, 259209, Note_on_c, 7, 65, 0
9, 259229, Note_on_c, 7, 86, 0
9, 259260, Note_on_c, 7, 88, 32
9, 259289, Note_on_c, 7, 88, 0
9, 259320, Note_on_c, 7, 89, 32
9, 259349, Note_on_c, 7, 89, 0
9, 259380, Note_on_c, 7, 88, 32
9, 259409, Note_on_c, 7, 88, 0
9, 259440, Note_on_c, 7, 86, 32
9, 259440, Note_on_c, 7, 55, 32
9, 259449, Note_on_c, 7, 62, 0
9, 259469, Note_on_c, 7, 86, 0
9, 259500, Note_on_c, 7, 84, 32
9, 259529, Note_on_c, 7, 84, 0
9, 259559, Note_on_c, 7, 55, 0
9, 259560, Note_on_c, 7, 83, 32
9, 259560, Note_on_c, 7, 62, 32
9, 259589, Note_on_c, 7, 83, 0
9, 259620, Note_on_c, 7, 84, 32
9, 259649, Note_on_c, 7, 84, 0
9, 259680, Note_on_c, 7, 86, 32
9, 259709, Note_on_c, 7, 86, 0
9, 259740, Note_on_c, 7, 84, 32
9, 259769, Note_on_c, 7, 84, 0
9, 259800, Note_on_c, 7, 83, 32
9, 259800, Note_on_c, 7, 65, 32
9, 259809, Note_on_c, 7, 62, 0
9, 259829, Note_on_c, 7, 83, 0
9, 259860, Note_on_c, 7, 81, 32
9, 259889, Note_on_c, 7, 81, 0
9, 259920, Note_on_c, 7, 79, 32
9, 259920, Note_on_c, 7, 62, 32
9, 259929, Note_on_c, 7, 65, 0
9, 259949, Note_on_c, 7, 79, 0
9, 259980, Note_on_c, 7, 78, 32
9, 260009, Note_on_c, 7, 78, 0
9, 260040, Note_on_c, 7, 79, 32
9, 260069, Note_on_c, 7, 79, 0
9, 260100, Note_on_c, 7, 77, 32
9, 260129, Note_on_c, 7, 77, 0
9, 260160, Note_on_c, 7, 76, 32
9, 260160, Note_on_c, 7, 55, 32
9, 260169, Note_on_c, 7, 62, 0
9, 260189, Note_on_c, 7, 76, 0
9, 260220, Note_on_c, 7, 74, 32
9, 260249, Note_on_c, 7, 74, 0
9, 260279, Note_on_c, 7, 55, 0
9, 260280, Note_on_c, 7, 64, 32
9, 260340, Note_on_c, 7, 72, 32
9, 260370, Note_on_c, 7, 71, 32
9, 260379, Note_on_c, 7, 72, 0
9, 260399, Note_on_c, 7, 71, 0
9, 260400, Note_on_c, 7, 72, 32
9, 260429, Note_on_c, 7, 72, 0
9, 260460, Note_on_c, 7, 76, 32
9, 260489, Note_on_c, 7, 76, 0
9, 260520, Note_on_c, 7, 79, 32
9, 260520, Note_on_c, 7, 67, 32
9, 260529, Note_on_c, 7, 64, 0
9, 260549, Note_on_c, 7, 79, 0
9, 260580, Note_on_c, 7, 76, 32
9, 260609, Note_on_c, 7, 76, 0
9, 260640, Note_on_c, 7, 84, 32
9, 260640, Note_on_c, 7, 64, 32
9, 260649, Note_on_c, 7, 67, 0
9, 260669, Note_on_c, 7, 84, 0
9, 260700, Note_on_c, 7, 79, 32
9, 260729, Note_on_c, 7, 79, 0
9, 260760, Note_on_c, 7, 76, 32
9, 260789, Note_on_c, 7, 76, 0
9, 260820, Note_on_c, 7, 79, 32
9, 260849, Note_on_c, 7, 79, 0
9, 260880, Note_on_c, 7, 76, 32
9, 260880, Note_on_c, 7, 60, 32
9, 260889, Note_on_c, 7, 64, 0
9, 260909, Note_on_c, 7, 76, 0
9, 260940, Note_on_c, 7, 72, 32
9, 260969, Note_on_c, 7, 72, 0
9, 260999, Note_on_c, 7, 60, 0
9, 261000, Note_on_c, 7, 65, 32
9, 261060, Note_on_c, 7, 72, 32
9, 261090, Note_on_c, 7, 71, 32
9, 261099, Note_on_c, 7, 72, 0
9, 261119, Note_on_c, 7, 71, 0
9, 261120, Note_on_c, 7, 72, 32
9, 261149, Note_on_c, 7, 72, 0
9, 261180, Note_on_c, 7, 77, 32
9, 261209, Note_on_c, 7, 77, 0
9, 261240, Note_on_c, 7, 80, 32
9, 261240, Note_on_c, 7, 68, 32
9, 261249, Note_on_c, 7, 65, 0
9, 261269, Note_on_c, 7, 80, 0
9, 261300, Note_on_c, 7, 77, 32
9, 261329, Note_on_c, 7, 77, 0
9, 261360, Note_on_c, 7, 84, 32
9, 261360, Note_on_c, 7, 65, 32
9, 261369, Note_on_c, 7, 68, 0
9, 261389, Note_on_c, 7, 84, 0
9, 261420, Note_on_c, 7, 80, 32
9, 261449, Note_on_c, 7, 80, 0
9, 261480, Note_on_c, 7, 77, 32
9, 261509, Note_on_c, 7, 77, 0
9, 261540, Note_on_c, 7, 80, 32
9, 261569, Note_on_c, 7, 80, 0
9, 261600, Note_on_c, 7, 77, 32
9, 261600, Note_on_c, 7, 60, 32
9, 261609, Note_on_c, 7, 65, 0
9, 261629, Note_on_c, 7, 77, 0
9, 261660, Note_on_c, 7, 72, 32
9, 261689, Note_on_c, 7, 72, 0
9, 261719, Note_on_c, 7, 60, 0
9, 261720, Note_on_c, 7, 67, 32
9, 261780, Note_on_c, 7, 82, 32
9, 261809, Note_on_c, 7, 82, 0
9, 261839, Note_on_c, 7, 67, 0
9, 261840, Note_on_c, 7, 84, 32
9, 261869, Note_on_c, 7, 84, 0
9, 261900, Note_on_c, 7, 85, 32
9, 261929, Note_on_c, 7, 85, 0
9, 261960, Note_on_c, 7, 79, 32
9, 261989, Note_on_c, 7, 79, 0
9, 262020, Note_on_c, 7, 80, 32
9, 262049, Note_on_c, 7, 80, 0
9, 262080, Note_on_c, 7, 82, 32
9, 262109, Note_on_c, 7, 82, 0
9, 262140, Note_on_c, 7, 76, 32
9, 262169, Note_on_c, 7, 76, 0
9, 262200, Note_on_c, 7, 77, 32
9, 262229, Note_on_c, 7, 77, 0
9, 262260, Note_on_c, 7, 79, 32
9, 262289, Note_on_c, 7, 79, 0
9, 262320, Note_on_c, 7, 70, 32
9, 262349, Note_on_c, 7, 70, 0
9, 262380, Note_on_c, 7, 72, 32
9, 262409, Note_on_c, 7, 72, 0
9, 262440, Note_on_c, 7, 73, 32
9, 262469, Note_on_c, 7, 73, 0
9, 262500, Note_on_c, 7, 56, 32
9, 262500, Note_on_c, 7, 72, 32
9, 262529, Note_on_c, 7, 72, 0
9, 262529, Note_on_c, 7, 56, 0
9, 262560, Note_on_c, 7, 55, 32
9, 262560, Note_on_c, 7, 70, 32
9, 262589, Note_on_c, 7, 70, 0
9, 262589, Note_on_c, 7, 55, 0
9, 262620, Note_on_c, 7, 56, 32
9, 262620, Note_on_c, 7, 68, 32
9, 262649, Note_on_c, 7, 68, 0
9, 262649, Note_on_c, 7, 56, 0
9, 262680, Note_on_c, 7, 58, 32
9, 262680, Note_on_c, 7, 67, 32
9, 262709, Note_on_c, 7, 67, 0
9, 262709, Note_on_c, 7, 58, 0
9, 262740, Note_on_c, 7, 59, 32
9, 262740, Note_on_c, 7, 65, 32
9, 262769, Note_on_c, 7, 65, 0
9, 262769, Note_on_c, 7, 59, 0
9, 262800, Note_on_c, 7, 64, 32
9, 262800, Note_on_c, 7, 60, 32
9, 262829, Note_on_c, 7, 60, 0
9, 262829, Note_on_c, 7, 64, 0
9, 262860, Note_on_c, 7, 67, 32
9, 262860, Note_on_c, 7, 59, 32
9, 262889, Note_on_c, 7, 59, 0
9, 262889, Note_on_c, 7, 67, 0
9, 262920, Note_on_c, 7, 72, 32
9, 262920, Note_on_c, 7, 60, 32
9, 262949, Note_on_c, 7, 60, 0
9, 262949, Note_on_c, 7, 72, 0
9, 262980, Note_on_c, 7, 70, 32
9, 262980, Note_on_c, 7, 62, 32
9, 263009, Note_on_c, 7, 62, 0
9, 263009, Note_on_c, 7, 70, 0
9, 263040, Note_on_c, 7, 68, 32
9, 263040, Note_on_c, 7, 63, 32
9, 263069, Note_on_c, 7, 63, 0
9, 263069, Note_on_c, 7, 68, 0
9, 263100, Note_on_c, 7, 67, 32
9, 263100, Note_on_c, 7, 64, 32
9, 263129, Note_on_c, 7, 64, 0
9, 263129, Note_on_c, 7, 67, 0
9, 263160, Note_on_c, 7, 65, 32
9, 263220, Note_on_c, 7, 72, 32
9, 263279, Note_on_c, 7, 65, 0
9, 263280, Note_on_c, 7, 68, 32
9, 263339, Note_on_c, 7, 72, 0
9, 263340, Note_on_c, 7, 72, 32
9, 263400, Note_on_c, 7, 70, 32
9, 263409, Note_on_c, 7, 68, 0
9, 263459, Note_on_c, 7, 72, 0
9, 263460, Note_on_c, 7, 72, 32
9, 263519, Note_on_c, 7, 72, 0
9, 263520, Note_on_c, 7, 72, 48
9, 263529, Note_on_c, 7, 70, 0
9, 263579, Note_on_c, 7, 72, 0
9, 263580, Note_on_c, 7, 72, 32
9, 263699, Note_on_c, 7, 72, 0
9, 263700, Note_on_c, 7, 70, 32
9, 263700, Note_on_c, 7, 72, 32
9, 263760, Note_on_c, 7, 68, 32
9, 263769, Note_on_c, 7, 70, 0
9, 263819, Note_on_c, 7, 72, 0
9, 263820, Note_on_c, 7, 72, 32
9, 263879, Note_on_c, 7, 68, 0
9, 263880, Note_on_c, 7, 67, 32
9, 263939, Note_on_c, 7, 72, 0
9, 263940, Note_on_c, 7, 84, 32
9, 263999, Note_on_c, 7, 67, 0
9, 264000, Note_on_c, 7, 67, 32
9, 264059, Note_on_c, 7, 84, 0
9, 264060, Note_on_c, 7, 84, 32
9, 264120, Note_on_c, 7, 65, 32
9, 264129, Note_on_c, 7, 67, 0
9, 264179, Note_on_c, 7, 84, 0
9, 264180, Note_on_c, 7, 84, 32
9, 264240, Note_on_c, 7, 64, 48
9, 264249, Note_on_c, 7, 65, 0
9, 264299, Note_on_c, 7, 84, 0
9, 264300, Note_on_c, 7, 84, 32
9, 264419, Note_on_c, 7, 84, 0
9, 264420, Note_on_c, 7, 84, 32
9, 264480, Note_on_c, 7, 65, 32
9, 264489, Note_on_c, 7, 64, 0
9, 264539, Note_on_c, 7, 84, 0
9, 264540, Note_on_c, 7, 67, 32
9, 264540, Note_on_c, 7, 84, 32
9, 264549, Note_on_c, 7, 65, 0
9, 264600, Note_on_c, 7, 68, 32
9, 264609, Note_on_c, 7, 67, 0
9, 264659, Note_on_c, 7, 68, 0
9, 264659, Note_on_c, 7, 84, 0
9, 264660, Note_on_c, 7, 72, 32
9, 264720, Note_on_c, 7, 68, 32
9, 264779, Note_on_c, 7, 72, 0
9, 264780, Note_on_c, 7, 72, 32
9, 264840, Note_on_c, 7, 70, 32
9, 264849, Note_on_c, 7, 68, 0
9, 264899, Note_on_c, 7, 72, 0
9, 264900, Note_on_c, 7, 72, 32
9, 264959, Note_on_c, 7, 72, 0
9, 264960, Note_on_c, 7, 72, 48
9, 264969, Note_on_c, 7, 70, 0
9, 265019, Note_on_c, 7, 72, 0
9, 265020, Note_on_c, 7, 72, 32
9, 265139, Note_on_c, 7, 72, 0
9, 265140, Note_on_c, 7, 70, 32
9, 265140, Note_on_c, 7, 72, 32
9, 265200, Note_on_c, 7, 68, 32
9, 265209, Note_on_c, 7, 70, 0
9, 265259, Note_on_c, 7, 72, 0
9, 265260, Note_on_c, 7, 71, 32
9, 265319, Note_on_c, 7, 68, 0
9, 265320, Note_on_c, 7, 68, 32
9, 265320, Note_on_c, 7, 70, 32
9, 265329, Note_on_c, 7, 71, 0
9, 265379, Note_on_c, 7, 70, 0
9, 265379, Note_on_c, 7, 68, 0
9, 265380, Note_on_c, 7, 58, 48
9, 265380, Note_on_c, 7, 70, 48
9, 265499, Note_on_c, 7, 70, 0
9, 265499, Note_on_c, 7, 58, 0
9, 265500, Note_on_c, 7, 58, 56
9, 265500, Note_on_c, 7, 70, 56
9, 265619, Note_on_c, 7, 70, 0
9, 265619, Note_on_c, 7, 58, 0
9, 265620, Note_on_c, 7, 58, 64
9, 265620, Note_on_c, 7, 70, 64
9, 265739, Note_on_c, 7, 70, 0
9, 265739, Note_on_c, 7, 58, 0
9, 265740, Note_on_c, 7, 58, 48
9, 265740, Note_on_c, 7, 70, 48
9, 265859, Note_on_c, 7, 70, 0
9, 265859, Note_on_c, 7, 58, 0
9, 265860, Note_on_c, 7, 58, 48
9, 265860, Note_on_c, 7, 70, 48
9, 265979, Note_on_c, 7, 70, 0
9, 265979, Note_on_c, 7, 58, 0
9, 265980, Note_on_c, 7, 58, 48
9, 265980, Note_on_c, 7, 70, 48
9, 266099, Note_on_c, 7, 70, 0
9, 266099, Note_on_c, 7, 58, 0
9, 266100, Note_on_c, 7, 70, 48
9, 266100, Note_on_c, 7, 82, 48
9, 266219, Note_on_c, 7, 82, 0
9, 266219, Note_on_c, 7, 70, 0
9, 266220, Note_on_c, 7, 70, 48
9, 266220, Note_on_c, 7, 82, 48
9, 266339, Note_on_c, 7, 82, 0
9, 266339, Note_on_c, 7, 70, 0
9, 266340, Note_on_c, 7, 70, 48
9, 266340, Note_on_c, 7, 82, 48
9, 266459, Note_on_c, 7, 82, 0
9, 266459, Note_on_c, 7, 70, 0
9, 266460, Note_on_c, 7, 70, 48
9, 266460, Note_on_c, 7, 82, 48
9, 266579, Note_on_c, 7, 82, 0
9, 266579, Note_on_c, 7, 70, 0
9, 266580, Note_on_c, 7, 70, 48
9, 266580, Note_on_c, 7, 82, 48
9, 266699, Note_on_c, 7, 82, 0
9, 266699, Note_on_c, 7, 70, 0
9, 266700, Note_on_c, 7, 70, 48
9, 266700, Note_on_c, 7, 82, 48
9, 266819, Note_on_c, 7, 82, 0
9, 266819, Note_on_c, 7, 70, 0
9, 266820, Note_on_c, 7, 58, 48
9, 266820, Note_on_c, 7, 70, 48
9, 266939, Note_on_c, 7, 70, 0
9, 266939, Note_on_c, 7, 58, 0
9, 266940, Note_on_c, 7, 58, 48
9, 266940, Note_on_c, 7, 70, 48
9, 267059, Note_on_c, 7, 70, 0
9, 267059, Note_on_c, 7, 58, 0
9, 267060, Note_on_c, 7, 58, 48
9, 267060, Note_on_c, 7, 70, 48
9, 267179, Note_on_c, 7, 70, 0
9, 267179, Note_on_c, 7, 58, 0
9, 267180, Note_on_c, 7, 58, 48
9, 267180, Note_on_c, 7, 70, 48
9, 267299, Note_on_c, 7, 70, 0
9, 267299, Note_on_c, 7, 58, 0
9, 267300, Note_on_c, 7, 58, 48
9, 267300, Note_on_c, 7, 70, 48
9, 267419, Note_on_c, 7, 70, 0
9, 267419, Note_on_c, 7, 58, 0
9, 267420, Note_on_c, 7, 58, 48
9, 267420, Note_on_c, 7, 70, 48
9, 267539, Note_on_c, 7, 70, 0
9, 267539, Note_on_c, 7, 58, 0
9, 267540, Note_on_c, 7, 70, 48
9, 267540, Note_on_c, 7, 82, 48
9, 267659, Note_on_c, 7, 82, 0
9, 267659, Note_on_c, 7, 70, 0
9, 267660, Note_on_c, 7, 70, 48
9, 267660, Note_on_c, 7, 82, 48
9, 267779, Note_on_c, 7, 82, 0
9, 267779, Note_on_c, 7, 70, 0
9, 267780, Note_on_c, 7, 70, 48
9, 267780, Note_on_c, 7, 82, 48
9, 267899, Note_on_c, 7, 82, 0
9, 267899, Note_on_c, 7, 70, 0
9, 267900, Note_on_c, 7, 70, 48
9, 267900, Note_on_c, 7, 82, 48
9, 268019, Note_on_c, 7, 82, 0
9, 268019, Note_on_c, 7, 70, 0
9, 268020, Note_on_c, 7, 70, 48
9, 268020, Note_on_c, 7, 82, 48
9, 268139, Note_on_c, 7, 82, 0
9, 268139, Note_on_c, 7, 70, 0
9, 268140, Note_on_c, 7, 70, 48
9, 268140, Note_on_c, 7, 82, 48
9, 268259, Note_on_c, 7, 82, 0
9, 268260, Note_on_c, 7, 82, 32
9, 268290, Note_on_c, 7, 81, 32
9, 268299, Note_on_c, 7, 82, 0
9, 268319, Note_on_c, 7, 81, 0
9, 268319, Note_on_c, 7, 70, 0
9, 268320, Note_on_c, 7, 82, 32
9, 268349, Note_on_c, 7, 82, 0
9, 268380, Note_on_c, 7, 82, 32
9, 268409, Note_on_c, 7, 82, 0
9, 268440, Note_on_c, 7, 82, 32
9, 268469, Note_on_c, 7, 82, 0
9, 268500, Note_on_c, 7, 82, 32
9, 268529, Note_on_c, 7, 82, 0
9, 268560, Note_on_c, 7, 82, 32
9, 268620, Note_on_c, 7, 75, 32
9, 268650, Note_on_c, 7, 74, 32
9, 268659, Note_on_c, 7, 75, 0
9, 268679, Note_on_c, 7, 74, 0
9, 268680, Note_on_c, 7, 75, 32
9, 268709, Note_on_c, 7, 75, 0
9, 268740, Note_on_c, 7, 75, 32
9, 268769, Note_on_c, 7, 75, 0
9, 268800, Note_on_c, 7, 75, 32
9, 268829, Note_on_c, 7, 75, 0
9, 268860, Note_on_c, 7, 75, 32
9, 268889, Note_on_c, 7, 75, 0
9, 268920, Note_on_c, 7, 75, 32
9, 268979, Note_on_c, 7, 82, 0
9, 268980, Note_on_c, 7, 80, 32
9, 269010, Note_on_c, 7, 79, 32
9, 269019, Note_on_c, 7, 80, 0
9, 269039, Note_on_c, 7, 79, 0
9, 269040, Note_on_c, 7, 80, 32
9, 269069, Note_on_c, 7, 80, 0
9, 269100, Note_on_c, 7, 80, 32
9, 269129, Note_on_c, 7, 80, 0
9, 269160, Note_on_c, 7, 80, 32
9, 269189, Note_on_c, 7, 80, 0
9, 269220, Note_on_c, 7, 80, 32
9, 269249, Note_on_c, 7, 80, 0
9, 269280, Note_on_c, 7, 80, 32
9, 269339, Note_on_c, 7, 75, 0
9, 269340, Note_on_c, 7, 77, 32
9, 269370, Note_on_c, 7, 76, 32
9, 269379, Note_on_c, 7, 77, 0
9, 269399, Note_on_c, 7, 76, 0
9, 269400, Note_on_c, 7, 77, 32
9, 269429, Note_on_c, 7, 77, 0
9, 269460, Note_on_c, 7, 77, 32
9, 269489, Note_on_c, 7, 77, 0
9, 269520, Note_on_c, 7, 77, 32
9, 269549, Note_on_c, 7, 77, 0
9, 269580, Note_on_c, 7, 77, 32
9, 269609, Note_on_c, 7, 77, 0
9, 269699, Note_on_c, 7, 80, 0
9, 269700, Note_on_c, 7, 77, 32
9, 269700, Note_on_c, 7, 80, 32
9, 269730, Note_on_c, 7, 76, 32
9, 269730, Note_on_c, 7, 79, 32
9, 269739, Note_on_c, 7, 80, 0
9, 269739, Note_on_c, 7, 77, 0
9, 269759, Note_on_c, 7, 76, 0
9, 269759, Note_on_c, 7, 79, 0
9, 269760, Note_on_c, 7, 77, 32
9, 269760, Note_on_c, 7, 80, 32
9, 269789, Note_on_c, 7, 80, 0
9, 269789, Note_on_c, 7, 77, 0
9, 269820, Note_on_c, 7, 77, 32
9, 269820, Note_on_c, 7, 80, 32
9, 269849, Note_on_c, 7, 80, 0
9, 269849, Note_on_c, 7, 77, 0
9, 269880, Note_on_c, 7, 77, 32
9, 269880, Note_on_c, 7, 80, 32
9, 269909, Note_on_c, 7, 80, 0
9, 269909, Note_on_c, 7, 77, 0
9, 269940, Note_on_c, 7, 77, 32
9, 269940, Note_on_c, 7, 80, 32
9, 269969, Note_on_c, 7, 80, 0
9, 269969, Note_on_c, 7, 77, 0
9, 270060, Note_on_c, 7, 78, 32
9, 270060, Note_on_c, 7, 75, 32
9, 270090, Note_on_c, 7, 77, 32
9, 270090, Note_on_c, 7, 74, 32
9, 270099, Note_on_c, 7, 75, 0
9, 270099, Note_on_c, 7, 78, 0
9, 270119, Note_on_c, 7, 77, 0
9, 270119, Note_on_c, 7, 74, 0
9, 270120, Note_on_c, 7, 78, 32
9, 270120, Note_on_c, 7, 75, 32
9, 270149, Note_on_c, 7, 75, 0
9, 270149, Note_on_c, 7, 78, 0
9, 270180, Note_on_c, 7, 78, 32
9, 270180, Note_on_c, 7, 75, 32
9, 270209, Note_on_c, 7, 75, 0
9, 270209, Note_on_c, 7, 78, 0
9, 270240, Note_on_c, 7, 78, 32
9, 270240, Note_on_c, 7, 75, 32
9, 270269, Note_on_c, 7, 75, 0
9, 270269, Note_on_c, 7, 78, 0
9, 270300, Note_on_c, 7, 78, 32
9, 270300, Note_on_c, 7, 75, 32
9, 270329, Note_on_c, 7, 75, 0
9, 270329, Note_on_c, 7, 78, 0
9, 270420, Note_on_c, 7, 77, 32
9, 270420, Note_on_c, 7, 75, 32
9, 270449, Note_on_c, 7, 75, 0
9, 270450, Note_on_c, 7, 75, 32
9, 270450, Note_on_c, 7, 63, 32
9, 270459, Note_on_c, 7, 77, 0
9, 270479, Note_on_c, 7, 63, 0
9, 270479, Note_on_c, 7, 75, 0
9, 270480, Note_on_c, 7, 77, 32
9, 270480, Note_on_c, 7, 75, 32
9, 270509, Note_on_c, 7, 75, 0
9, 270509, Note_on_c, 7, 77, 0
9, 270540, Note_on_c, 7, 77, 32
9, 270540, Note_on_c, 7, 75, 32
9, 270569, Note_on_c, 7, 75, 0
9, 270569, Note_on_c, 7, 77, 0
9, 270600, Note_on_c, 7, 77, 32
9, 270600, Note_on_c, 7, 75, 32
9, 270629, Note_on_c, 7, 75, 0
9, 270629, Note_on_c, 7, 77, 0
9, 270660, Note_on_c, 7, 77, 32
9, 270660, Note_on_c, 7, 75, 32
9, 270689, Note_on_c, 7, 75, 0
9, 270689, Note_on_c, 7, 77, 0
9, 270780, Note_on_c, 7, 77, 32
9, 270780, Note_on_c, 7, 75, 32
9, 270809, Note_on_c, 7, 75, 0
9, 270810, Note_on_c, 7, 75, 32
9, 270810, Note_on_c, 7, 63, 32
9, 270819, Note_on_c, 7, 77, 0
9, 270839, Note_on_c, 7, 63, 0
9, 270839, Note_on_c, 7, 75, 0
9, 270840, Note_on_c, 7, 77, 32
9, 270840, Note_on_c, 7, 75, 32
9, 270869, Note_on_c, 7, 75, 0
9, 270869, Note_on_c, 7, 77, 0
9, 270900, Note_on_c, 7, 77, 32
9, 270900, Note_on_c, 7, 75, 32
9, 270929, Note_on_c, 7, 75, 0
9, 270929, Note_on_c, 7, 77, 0
9, 270960, Note_on_c, 7, 77, 32
9, 270960, Note_on_c, 7, 75, 32
9, 270989, Note_on_c, 7, 75, 0
9, 270989, Note_on_c, 7, 77, 0
9, 271020, Note_on_c, 7, 77, 32
9, 271020, Note_on_c, 7, 75, 32
9, 271049, Note_on_c, 7, 75, 0
9, 271049, Note_on_c, 7, 77, 0
9, 271080, Note_on_c, 7, 77, 32
9, 271080, Note_on_c, 7, 74, 32
9, 271109, Note_on_c, 7, 74, 0
9, 271109, Note_on_c, 7, 77, 0
9, 271110, Note_on_c, 7, 70, 32
9, 271110, Note_on_c, 7, 58, 32
9, 271139, Note_on_c, 7, 58, 0
9, 271139, Note_on_c, 7, 70, 0
9, 271140, Note_on_c, 7, 70, 32
9, 271140, Note_on_c, 7, 58, 32
9, 271169, Note_on_c, 7, 58, 0
9, 271169, Note_on_c, 7, 70, 0
9, 271170, Note_on_c, 7, 70, 32
9, 271170, Note_on_c, 7, 58, 32
9, 271199, Note_on_c, 7, 58, 0
9, 271199, Note_on_c, 7, 70, 0
9, 271200, Note_on_c, 7, 70, 32
9, 271200, Note_on_c, 7, 58, 32
9, 271229, Note_on_c, 7, 58, 0
9, 271229, Note_on_c, 7, 70, 0
9, 271230, Note_on_c, 7, 70, 32
9, 271230, Note_on_c, 7, 58, 32
9, 271259, Note_on_c, 7, 58, 0
9, 271259, Note_on_c, 7, 70, 0
9, 271260, Note_on_c, 7, 70, 32
9, 271260, Note_on_c, 7, 58, 32
9, 271289, Note_on_c, 7, 58, 0
9, 271289, Note_on_c, 7, 70, 0
9, 271290, Note_on_c, 7, 70, 32
9, 271290, Note_on_c, 7, 58, 32
9, 271319, Note_on_c, 7, 58, 0
9, 271319, Note_on_c, 7, 70, 0
9, 271320, Note_on_c, 7, 70, 32
9, 271320, Note_on_c, 7, 58, 32
9, 271349, Note_on_c, 7, 58, 0
9, 271349, Note_on_c, 7, 70, 0
9, 271350, Note_on_c, 7, 70, 32
9, 271350, Note_on_c, 7, 58, 32
9, 271379, Note_on_c, 7, 58, 0
9, 271379, Note_on_c, 7, 70, 0
9, 271380, Note_on_c, 7, 70, 32
9, 271380, Note_on_c, 7, 58, 32
9, 271409, Note_on_c, 7, 58, 0
9, 271409, Note_on_c, 7, 70, 0
9, 271410, Note_on_c, 7, 70, 32
9, 271410, Note_on_c, 7, 58, 32
9, 271439, Note_on_c, 7, 58, 0
9, 271439, Note_on_c, 7, 70, 0
9, 271440, Note_on_c, 7, 70, 32
9, 271440, Note_on_c, 7, 58, 32
9, 271469, Note_on_c, 7, 58, 0
9, 271469, Note_on_c, 7, 70, 0
9, 271470, Note_on_c, 7, 70, 32
9, 271470, Note_on_c, 7, 58, 32
9, 271499, Note_on_c, 7, 58, 0
9, 271499, Note_on_c, 7, 70, 0
9, 271500, Note_on_c, 7, 70, 32
9, 271500, Note_on_c, 7, 58, 32
9, 271529, Note_on_c, 7, 58, 0
9, 271529, Note_on_c, 7, 70, 0
9, 271530, Note_on_c, 7, 70, 32
9, 271530, Note_on_c, 7, 58, 32
9, 271559, Note_on_c, 7, 58, 0
9, 271559, Note_on_c, 7, 70, 0
9, 271560, Note_on_c, 7, 70, 32
9, 271560, Note_on_c, 7, 58, 32
9, 271589, Note_on_c, 7, 58, 0
9, 271589, Note_on_c, 7, 70, 0
9, 271590, Note_on_c, 7, 70, 32
9, 271590, Note_on_c, 7, 58, 32
9, 271619, Note_on_c, 7, 58, 0
9, 271619, Note_on_c, 7, 70, 0
9, 271620, Note_on_c, 7, 70, 32
9, 271620, Note_on_c, 7, 58, 32
9, 271649, Note_on_c, 7, 58, 0
9, 271649, Note_on_c, 7, 70, 0
9, 271650, Note_on_c, 7, 70, 32
9, 271650, Note_on_c, 7, 58, 32
9, 271679, Note_on_c, 7, 58, 0
9, 271679, Note_on_c, 7, 70, 0
9, 271680, Note_on_c, 7, 70, 32
9, 271680, Note_on_c, 7, 58, 32
9, 271709, Note_on_c, 7, 58, 0
9, 271709, Note_on_c, 7, 70, 0
9, 271710, Note_on_c, 7, 70, 32
9, 271710, Note_on_c, 7, 58, 32
9, 271739, Note_on_c, 7, 58, 0
9, 271739, Note_on_c, 7, 70, 0
9, 271740, Note_on_c, 7, 70, 32
9, 271740, Note_on_c, 7, 58, 32
9, 271769, Note_on_c, 7, 58, 0
9, 271769, Note_on_c, 7, 70, 0
9, 271770, Note_on_c, 7, 70, 32
9, 271770, Note_on_c, 7, 58, 32
9, 271799, Note_on_c, 7, 58, 0
9, 271799, Note_on_c, 7, 70, 0
9, 271800, Note_on_c, 7, 62, 32
9, 271800, Note_on_c, 7, 65, 32
9, 271800, Note_on_c, 7, 70, 32
9, 271800, Note_on_c, 7, 58, 32
9, 271829, Note_on_c, 7, 58, 0
9, 271829, Note_on_c, 7, 62, 0
9, 271829, Note_on_c, 7, 65, 0
9, 271829, Note_on_c, 7, 70, 0
9, 271830, Note_on_c, 7, 62, 32
9, 271830, Note_on_c, 7, 65, 32
9, 271830, Note_on_c, 7, 70, 32
9, 271830, Note_on_c, 7, 58, 32
9, 271859, Note_on_c, 7, 58, 0
9, 271859, Note_on_c, 7, 62, 0
9, 271859, Note_on_c, 7, 65, 0
9, 271859, Note_on_c, 7, 70, 0
9, 271860, Note_on_c, 7, 62, 32
9, 271860, Note_on_c, 7, 65, 32
9, 271860, Note_on_c, 7, 70, 32
9, 271860, Note_on_c, 7, 58, 32
9, 271889, Note_on_c, 7, 58, 0
9, 271889, Note_on_c, 7, 62, 0
9, 271889, Note_on_c, 7, 65, 0
9, 271889, Note_on_c, 7, 70, 0
9, 271890, Note_on_c, 7, 62, 32
9, 271890, Note_on_c, 7, 65, 32
9, 271890, Note_on_c, 7, 70, 32
9, 271890, Note_on_c, 7, 58, 32
9, 271919, Note_on_c, 7, 58, 0
9, 271919, Note_on_c, 7, 62, 0
9, 271919, Note_on_c, 7, 65, 0
9, 271919, Note_on_c, 7, 70, 0
9, 271920, Note_on_c, 7, 62, 32
9, 271920, Note_on_c, 7, 65, 32
9, 271920, Note_on_c, 7, 70, 32
9, 271920, Note_on_c, 7, 58, 32
9, 271949, Note_on_c, 7, 58, 0
9, 271949, Note_on_c, 7, 62, 0
9, 271949, Note_on_c, 7, 65, 0
9, 271949, Note_on_c, 7, 70, 0
9, 271950, Note_on_c, 7, 62, 32
9, 271950, Note_on_c, 7, 65, 32
9, 271950, Note_on_c, 7, 70, 32
9, 271950, Note_on_c, 7, 58, 32
9, 271979, Note_on_c, 7, 58, 0
9, 271979, Note_on_c, 7, 62, 0
9, 271979, Note_on_c, 7, 65, 0
9, 271979, Note_on_c, 7, 70, 0
9, 271980, Note_on_c, 7, 62, 32
9, 271980, Note_on_c, 7, 65, 32
9, 271980, Note_on_c, 7, 70, 32
9, 271980, Note_on_c, 7, 58, 32
9, 272009, Note_on_c, 7, 58, 0
9, 272009, Note_on_c, 7, 62, 0
9, 272009, Note_on_c, 7, 65, 0
9, 272009, Note_on_c, 7, 70, 0
9, 272010, Note_on_c, 7, 62, 32
9, 272010, Note_on_c, 7, 65, 32
9, 272010, Note_on_c, 7, 70, 32
9, 272010, Note_on_c, 7, 58, 32
9, 272039, Note_on_c, 7, 58, 0
9, 272039, Note_on_c, 7, 62, 0
9, 272039, Note_on_c, 7, 65, 0
9, 272039, Note_on_c, 7, 70, 0
9, 272040, Note_on_c, 7, 62, 32
9, 272040, Note_on_c, 7, 65, 32
9, 272040, Note_on_c, 7, 70, 32
9, 272040, Note_on_c, 7, 58, 32
9, 272069, Note_on_c, 7, 58, 0
9, 272069, Note_on_c, 7, 62, 0
9, 272069, Note_on_c, 7, 65, 0
9, 272069, Note_on_c, 7, 70, 0
9, 272070, Note_on_c, 7, 62, 32
9, 272070, Note_on_c, 7, 65, 32
9, 272070, Note_on_c, 7, 70, 32
9, 272070, Note_on_c, 7, 58, 32
9, 272099, Note_on_c, 7, 58, 0
9, 272099, Note_on_c, 7, 62, 0
9, 272099, Note_on_c, 7, 65, 0
9, 272099, Note_on_c, 7, 70, 0
9, 272100, Note_on_c, 7, 62, 32
9, 272100, Note_on_c, 7, 65, 32
9, 272100, Note_on_c, 7, 70, 32
9, 272100, Note_on_c, 7, 58, 32
9, 272129, Note_on_c, 7, 58, 0
9, 272129, Note_on_c, 7, 62, 0
9, 272129, Note_on_c, 7, 65, 0
9, 272129, Note_on_c, 7, 70, 0
9, 272130, Note_on_c, 7, 62, 32
9, 272130, Note_on_c, 7, 65, 32
9, 272130, Note_on_c, 7, 70, 32
9, 272130, Note_on_c, 7, 58, 32
9, 272159, Note_on_c, 7, 58, 0
9, 272159, Note_on_c, 7, 62, 0
9, 272159, Note_on_c, 7, 65, 0
9, 272159, Note_on_c, 7, 70, 0
9, 272160, Note_on_c, 7, 70, 32
9, 272160, Note_on_c, 7, 68, 32
9, 272160, Note_on_c, 7, 58, 32
9, 272189, Note_on_c, 7, 58, 0
9, 272189, Note_on_c, 7, 68, 0
9, 272189, Note_on_c, 7, 70, 0
9, 272190, Note_on_c, 7, 70, 32
9, 272190, Note_on_c, 7, 68, 32
9, 272190, Note_on_c, 7, 58, 32
9, 272219, Note_on_c, 7, 58, 0
9, 272219, Note_on_c, 7, 68, 0
9, 272219, Note_on_c, 7, 70, 0
9, 272220, Note_on_c, 7, 70, 32
9, 272220, Note_on_c, 7, 68, 32
9, 272220, Note_on_c, 7, 58, 32
9, 272249, Note_on_c, 7, 58, 0
9, 272249, Note_on_c, 7, 68, 0
9, 272249, Note_on_c, 7, 70, 0
9, 272250, Note_on_c, 7, 70, 32
9, 272250, Note_on_c, 7, 68, 32
9, 272250, Note_on_c, 7, 58, 32
9, 272279, Note_on_c, 7, 58, 0
9, 272279, Note_on_c, 7, 68, 0
9, 272279, Note_on_c, 7, 70, 0
9, 272280, Note_on_c, 7, 70, 32
9, 272280, Note_on_c, 7, 68, 32
9, 272280, Note_on_c, 7, 58, 32
9, 272309, Note_on_c, 7, 58, 0
9, 272309, Note_on_c, 7, 68, 0
9, 272309, Note_on_c, 7, 70, 0
9, 272310, Note_on_c, 7, 70, 32
9, 272310, Note_on_c, 7, 68, 32
9, 272310, Note_on_c, 7, 58, 32
9, 272339, Note_on_c, 7, 58, 0
9, 272339, Note_on_c, 7, 68, 0
9, 272339, Note_on_c, 7, 70, 0
9, 272340, Note_on_c, 7, 70, 32
9, 272340, Note_on_c, 7, 68, 32
9, 272340, Note_on_c, 7, 58, 32
9, 272369, Note_on_c, 7, 58, 0
9, 272369, Note_on_c, 7, 68, 0
9, 272369, Note_on_c, 7, 70, 0
9, 272370, Note_on_c, 7, 70, 32
9, 272370, Note_on_c, 7, 68, 32
9, 272370, Note_on_c, 7, 58, 32
9, 272399, Note_on_c, 7, 58, 0
9, 272399, Note_on_c, 7, 68, 0
9, 272399, Note_on_c, 7, 70, 0
9, 272400, Note_on_c, 7, 71, 32
9, 272400, Note_on_c, 7, 68, 32
9, 272400, Note_on_c, 7, 58, 32
9, 272429, Note_on_c, 7, 58, 0
9, 272429, Note_on_c, 7, 68, 0
9, 272429, Note_on_c, 7, 71, 0
9, 272430, Note_on_c, 7, 71, 32
9, 272430, Note_on_c, 7, 68, 32
9, 272430, Note_on_c, 7, 58, 32
9, 272459, Note_on_c, 7, 58, 0
9, 272459, Note_on_c, 7, 68, 0
9, 272459, Note_on_c, 7, 71, 0
9, 272460, Note_on_c, 7, 71, 32
9, 272460, Note_on_c, 7, 68, 32
9, 272460, Note_on_c, 7, 58, 32
9, 272489, Note_on_c, 7, 58, 0
9, 272489, Note_on_c, 7, 68, 0
9, 272489, Note_on_c, 7, 71, 0
9, 272490, Note_on_c, 7, 71, 32
9, 272490, Note_on_c, 7, 68, 32
9, 272490, Note_on_c, 7, 58, 32
9, 272519, Note_on_c, 7, 58, 0
9, 272519, Note_on_c, 7, 68, 0
9, 272519, Note_on_c, 7, 71, 0
9, 272520, Note_on_c, 7, 63, 32
9, 272520, Note_on_c, 7, 72, 32
9, 272520, Note_on_c, 7, 69, 32
9, 272549, Note_on_c, 7, 69, 0
9, 272549, Note_on_c, 7, 72, 0
9, 272549, Note_on_c, 7, 63, 0
9, 272550, Note_on_c, 7, 63, 32
9, 272550, Note_on_c, 7, 72, 32
9, 272550, Note_on_c, 7, 69, 32
9, 272579, Note_on_c, 7, 69, 0
9, 272579, Note_on_c, 7, 72, 0
9, 272579, Note_on_c, 7, 63, 0
9, 272580, Note_on_c, 7, 63, 32
9, 272580, Note_on_c, 7, 72, 32
9, 272580, Note_on_c, 7, 69, 32
9, 272609, Note_on_c, 7, 69, 0
9, 272609, Note_on_c, 7, 72, 0
9, 272609, Note_on_c, 7, 63, 0
9, 272610, Note_on_c, 7, 63, 32
9, 272610, Note_on_c, 7, 72, 32
9, 272610, Note_on_c, 7, 69, 32
9, 272639, Note_on_c, 7, 69, 0
9, 272639, Note_on_c, 7, 72, 0
9, 272639, Note_on_c, 7, 63, 0
9, 272640, Note_on_c, 7, 63, 32
9, 272640, Note_on_c, 7, 72, 32
9, 272640, Note_on_c, 7, 69, 32
9, 272669, Note_on_c, 7, 69, 0
9, 272669, Note_on_c, 7, 72, 0
9, 272669, Note_on_c, 7, 63, 0
9, 272670, Note_on_c, 7, 63, 32
9, 272670, Note_on_c, 7, 72, 32
9, 272670, Note_on_c, 7, 69, 32
9, 272699, Note_on_c, 7, 69, 0
9, 272699, Note_on_c, 7, 72, 0
9, 272699, Note_on_c, 7, 63, 0
9, 272700, Note_on_c, 7, 63, 32
9, 272700, Note_on_c, 7, 72, 32
9, 272700, Note_on_c, 7, 69, 32
9, 272729, Note_on_c, 7, 69, 0
9, 272729, Note_on_c, 7, 72, 0
9, 272729, Note_on_c, 7, 63, 0
9, 272730, Note_on_c, 7, 63, 32
9, 272730, Note_on_c, 7, 72, 32
9, 272730, Note_on_c, 7, 69, 32
9, 272759, Note_on_c, 7, 69, 0
9, 272759, Note_on_c, 7, 72, 0
9, 272759, Note_on_c, 7, 63, 0
9, 272760, Note_on_c, 7, 63, 32
9, 272760, Note_on_c, 7, 72, 32
9, 272760, Note_on_c, 7, 69, 32
9, 272789, Note_on_c, 7, 69, 0
9, 272789, Note_on_c, 7, 72, 0
9, 272789, Note_on_c, 7, 63, 0
9, 272790, Note_on_c, 7, 63, 32
9, 272790, Note_on_c, 7, 72, 32
9, 272790, Note_on_c, 7, 69, 32
9, 272819, Note_on_c, 7, 69, 0
9, 272819, Note_on_c, 7, 72, 0
9, 272819, Note_on_c, 7, 63, 0
9, 272820, Note_on_c, 7, 63, 32
9, 272820, Note_on_c, 7, 72, 32
9, 272820, Note_on_c, 7, 69, 32
9, 272849, Note_on_c, 7, 69, 0
9, 272849, Note_on_c, 7, 72, 0
9, 272849, Note_on_c, 7, 63, 0
9, 272850, Note_on_c, 7, 63, 32
9, 272850, Note_on_c, 7, 72, 32
9, 272850, Note_on_c, 7, 69, 32
9, 272879, Note_on_c, 7, 69, 0
9, 272879, Note_on_c, 7, 72, 0
9, 272879, Note_on_c, 7, 63, 0
9, 272880, Note_on_c, 7, 63, 32
9, 272880, Note_on_c, 7, 72, 32
9, 272880, Note_on_c, 7, 69, 32
9, 272909, Note_on_c, 7, 69, 0
9, 272909, Note_on_c, 7, 72, 0
9, 272909, Note_on_c, 7, 63, 0
9, 272910, Note_on_c, 7, 63, 32
9, 272910, Note_on_c, 7, 72, 32
9, 272910, Note_on_c, 7, 69, 32
9, 272939, Note_on_c, 7, 69, 0
9, 272939, Note_on_c, 7, 72, 0
9, 272939, Note_on_c, 7, 63, 0
9, 272940, Note_on_c, 7, 63, 32
9, 272940, Note_on_c, 7, 72, 32
9, 272940, Note_on_c, 7, 69, 32
9, 272969, Note_on_c, 7, 69, 0
9, 272969, Note_on_c, 7, 72, 0
9, 272969, Note_on_c, 7, 63, 0
9, 272970, Note_on_c, 7, 63, 32
9, 272970, Note_on_c, 7, 72, 32
9, 272970, Note_on_c, 7, 69, 32
9, 272999, Note_on_c, 7, 69, 0
9, 272999, Note_on_c, 7, 72, 0
9, 272999, Note_on_c, 7, 63, 0
9, 273000, Note_on_c, 7, 63, 32
9, 273000, Note_on_c, 7, 72, 32
9, 273000, Note_on_c, 7, 69, 32
9, 273029, Note_on_c, 7, 69, 0
9, 273029, Note_on_c, 7, 72, 0
9, 273029, Note_on_c, 7, 63, 0
9, 273030, Note_on_c, 7, 63, 32
9, 273030, Note_on_c, 7, 72, 32
9, 273030, Note_on_c, 7, 69, 32
9, 273059, Note_on_c, 7, 69, 0
9, 273059, Note_on_c, 7, 72, 0
9, 273059, Note_on_c, 7, 63, 0
9, 273060, Note_on_c, 7, 63, 32
9, 273060, Note_on_c, 7, 72, 32
9, 273060, Note_on_c, 7, 69, 32
9, 273089, Note_on_c, 7, 69, 0
9, 273089, Note_on_c, 7, 72, 0
9, 273089, Note_on_c, 7, 63, 0
9, 273090, Note_on_c, 7, 63, 32
9, 273090, Note_on_c, 7, 72, 32
9, 273090, Note_on_c, 7, 69, 32
9, 273119, Note_on_c, 7, 69, 0
9, 273119, Note_on_c, 7, 72, 0
9, 273119, Note_on_c, 7, 63, 0
9, 273120, Note_on_c, 7, 63, 32
9, 273120, Note_on_c, 7, 72, 32
9, 273120, Note_on_c, 7, 69, 32
9, 273149, Note_on_c, 7, 69, 0
9, 273149, Note_on_c, 7, 72, 0
9, 273149, Note_on_c, 7, 63, 0
9, 273150, Note_on_c, 7, 63, 32
9, 273150, Note_on_c, 7, 72, 32
9, 273150, Note_on_c, 7, 69, 32
9, 273179, Note_on_c, 7, 69, 0
9, 273179, Note_on_c, 7, 72, 0
9, 273179, Note_on_c, 7, 63, 0
9, 273180, Note_on_c, 7, 63, 32
9, 273180, Note_on_c, 7, 72, 32
9, 273180, Note_on_c, 7, 69, 32
9, 273209, Note_on_c, 7, 69, 0
9, 273209, Note_on_c, 7, 72, 0
9, 273209, Note_on_c, 7, 63, 0
9, 273210, Note_on_c, 7, 63, 32
9, 273210, Note_on_c, 7, 72, 32
9, 273210, Note_on_c, 7, 69, 32
9, 273239, Note_on_c, 7, 69, 0
9, 273239, Note_on_c, 7, 72, 0
9, 273239, Note_on_c, 7, 63, 0
9, 273240, Note_on_c, 7, 63, 32
9, 273240, Note_on_c, 7, 72, 32
9, 273240, Note_on_c, 7, 69, 32
9, 273269, Note_on_c, 7, 69, 0
9, 273269, Note_on_c, 7, 72, 0
9, 273269, Note_on_c, 7, 63, 0
9, 273270, Note_on_c, 7, 63, 32
9, 273270, Note_on_c, 7, 72, 32
9, 273270, Note_on_c, 7, 69, 32
9, 273299, Note_on_c, 7, 69, 0
9, 273299, Note_on_c, 7, 72, 0
9, 273299, Note_on_c, 7, 63, 0
9, 273300, Note_on_c, 7, 63, 32
9, 273300, Note_on_c, 7, 72, 32
9, 273300, Note_on_c, 7, 69, 32
9, 273329, Note_on_c, 7, 69, 0
9, 273329, Note_on_c, 7, 72, 0
9, 273329, Note_on_c, 7, 63, 0
9, 273330, Note_on_c, 7, 63, 32
9, 273330, Note_on_c, 7, 72, 32
9, 273330, Note_on_c, 7, 69, 32
9, 273359, Note_on_c, 7, 69, 0
9, 273359, Note_on_c, 7, 72, 0
9, 273359, Note_on_c, 7, 63, 0
9, 273360, Note_on_c, 7, 63, 32
9, 273360, Note_on_c, 7, 72, 32
9, 273360, Note_on_c, 7, 69, 32
9, 273389, Note_on_c, 7, 69, 0
9, 273389, Note_on_c, 7, 72, 0
9, 273389, Note_on_c, 7, 63, 0
9, 273390, Note_on_c, 7, 63, 32
9, 273390, Note_on_c, 7, 72, 32
9, 273390, Note_on_c, 7, 69, 32
9, 273419, Note_on_c, 7, 69, 0
9, 273419, Note_on_c, 7, 72, 0
9, 273419, Note_on_c, 7, 63, 0
9, 273420, Note_on_c, 7, 63, 32
9, 273420, Note_on_c, 7, 72, 32
9, 273420, Note_on_c, 7, 69, 32
9, 273449, Note_on_c, 7, 69, 0
9, 273449, Note_on_c, 7, 72, 0
9, 273449, Note_on_c, 7, 63, 0
9, 273450, Note_on_c, 7, 63, 32
9, 273450, Note_on_c, 7, 72, 32
9, 273450, Note_on_c, 7, 69, 32
9, 273479, Note_on_c, 7, 69, 0
9, 273479, Note_on_c, 7, 72, 0
9, 273479, Note_on_c, 7, 63, 0
9, 273480, Note_on_c, 7, 63, 32
9, 273480, Note_on_c, 7, 72, 32
9, 273480, Note_on_c, 7, 69, 32
9, 273509, Note_on_c, 7, 69, 0
9, 273509, Note_on_c, 7, 72, 0
9, 273509, Note_on_c, 7, 63, 0
9, 273510, Note_on_c, 7, 63, 32
9, 273510, Note_on_c, 7, 72, 32
9, 273510, Note_on_c, 7, 69, 32
9, 273539, Note_on_c, 7, 69, 0
9, 273539, Note_on_c, 7, 72, 0
9, 273539, Note_on_c, 7, 63, 0
9, 273540, Note_on_c, 7, 63, 32
9, 273540, Note_on_c, 7, 72, 32
9, 273540, Note_on_c, 7, 69, 32
9, 273569, Note_on_c, 7, 69, 0
9, 273569, Note_on_c, 7, 72, 0
9, 273569, Note_on_c, 7, 63, 0
9, 273570, Note_on_c, 7, 63, 32
9, 273570, Note_on_c, 7, 72, 32
9, 273570, Note_on_c, 7, 69, 32
9, 273599, Note_on_c, 7, 69, 0
9, 273599, Note_on_c, 7, 72, 0
9, 273599, Note_on_c, 7, 63, 0
9, 273600, Note_on_c, 7, 63, 32
9, 273600, Note_on_c, 7, 72, 32
9, 273600, Note_on_c, 7, 69, 32
9, 273629, Note_on_c, 7, 69, 0
9, 273629, Note_on_c, 7, 72, 0
9, 273629, Note_on_c, 7, 63, 0
9, 273630, Note_on_c, 7, 63, 32
9, 273630, Note_on_c, 7, 72, 32
9, 273630, Note_on_c, 7, 69, 32
9, 273659, Note_on_c, 7, 69, 0
9, 273659, Note_on_c, 7, 72, 0
9, 273659, Note_on_c, 7, 63, 0
9, 273660, Note_on_c, 7, 63, 32
9, 273660, Note_on_c, 7, 72, 32
9, 273660, Note_on_c, 7, 69, 32
9, 273689, Note_on_c, 7, 69, 0
9, 273689, Note_on_c, 7, 72, 0
9, 273689, Note_on_c, 7, 63, 0
9, 273690, Note_on_c, 7, 63, 32
9, 273690, Note_on_c, 7, 72, 32
9, 273690, Note_on_c, 7, 69, 32
9, 273719, Note_on_c, 7, 69, 0
9, 273719, Note_on_c, 7, 72, 0
9, 273719, Note_on_c, 7, 63, 0
9, 273720, Note_on_c, 7, 63, 32
9, 273720, Note_on_c, 7, 72, 32
9, 273720, Note_on_c, 7, 69, 32
9, 273720, Note_on_c, 7, 63, 32
9, 273720, Note_on_c, 7, 72, 32
9, 273720, Note_on_c, 7, 69, 32
9, 273749, Note_on_c, 7, 69, 0
9, 273749, Note_on_c, 7, 72, 0
9, 273749, Note_on_c, 7, 69, 0
9, 273749, Note_on_c, 7, 63, 0
9, 273749, Note_on_c, 7, 72, 0
9, 273749, Note_on_c, 7, 63, 0
9, 273750, Note_on_c, 7, 63, 32
9, 273750, Note_on_c, 7, 72, 32
9, 273750, Note_on_c, 7, 69, 32
9, 273779, Note_on_c, 7, 69, 0
9, 273779, Note_on_c, 7, 72, 0
9, 273779, Note_on_c, 7, 63, 0
9, 273780, Note_on_c, 7, 63, 32
9, 273780, Note_on_c, 7, 72, 32
9, 273780, Note_on_c, 7, 69, 32
9, 273809, Note_on_c, 7, 69, 0
9, 273809, Note_on_c, 7, 72, 0
9, 273809, Note_on_c, 7, 63, 0
9, 273810, Note_on_c, 7, 63, 32
9, 273810, Note_on_c, 7, 72, 32
9, 273810, Note_on_c, 7, 69, 32
9, 273839, Note_on_c, 7, 69, 0
9, 273839, Note_on_c, 7, 72, 0
9, 273839, Note_on_c, 7, 63, 0
9, 273840, Note_on_c, 7, 63, 32
9, 273840, Note_on_c, 7, 73, 32
9, 273840, Note_on_c, 7, 69, 32
9, 273869, Note_on_c, 7, 69, 0
9, 273869, Note_on_c, 7, 73, 0
9, 273869, Note_on_c, 7, 63, 0
9, 273870, Note_on_c, 7, 69, 32
9, 273870, Note_on_c, 7, 73, 32
9, 273870, Note_on_c, 7, 63, 32
9, 273899, Note_on_c, 7, 63, 0
9, 273899, Note_on_c, 7, 73, 0
9, 273899, Note_on_c, 7, 69, 0
9, 273900, Note_on_c, 7, 69, 32
9, 273900, Note_on_c, 7, 73, 32
9, 273900, Note_on_c, 7, 63, 32
9, 273929, Note_on_c, 7, 63, 0
9, 273929, Note_on_c, 7, 73, 0
9, 273929, Note_on_c, 7, 69, 0
9, 273930, Note_on_c, 7, 69, 32
9, 273930, Note_on_c, 7, 73, 32
9, 273930, Note_on_c, 7, 63, 32
9, 273959, Note_on_c, 7, 63, 0
9, 273959, Note_on_c, 7, 73, 0
9, 273959, Note_on_c, 7, 69, 0
9, 273960, Note_on_c, 7, 74, 32
9, 273960, Note_on_c, 7, 62, 32
9, 273960, Note_on_c, 7, 58, 32
9, 273989, Note_on_c, 7, 58, 0
9, 273989, Note_on_c, 7, 62, 0
9, 273989, Note_on_c, 7, 74, 0
9, 273990, Note_on_c, 7, 74, 32
9, 273990, Note_on_c, 7, 62, 32
9, 273990, Note_on_c, 7, 70, 32
9, 274019, Note_on_c, 7, 70, 0
9, 274019, Note_on_c, 7, 62, 0
9, 274019, Note_on_c, 7, 74, 0
9, 274020, Note_on_c, 7, 74, 32
9, 274020, Note_on_c, 7, 62, 32
9, 274020, Note_on_c, 7, 70, 32
9, 274049, Note_on_c, 7, 70, 0
9, 274049, Note_on_c, 7, 62, 0
9, 274049, Note_on_c, 7, 74, 0
9, 274050, Note_on_c, 7, 74, 32
9, 274050, Note_on_c, 7, 62, 32
9, 274050, Note_on_c, 7, 70, 32
9, 274079, Note_on_c, 7, 70, 0
9, 274079, Note_on_c, 7, 62, 0
9, 274079, Note_on_c, 7, 74, 0
9, 274080, Note_on_c, 7, 74, 32
9, 274080, Note_on_c, 7, 62, 32
9, 274080, Note_on_c, 7, 70, 32
9, 274109, Note_on_c, 7, 70, 0
9, 274109, Note_on_c, 7, 62, 0
9, 274109, Note_on_c, 7, 74, 0
9, 274110, Note_on_c, 7, 74, 32
9, 274110, Note_on_c, 7, 62, 32
9, 274110, Note_on_c, 7, 70, 32
9, 274139, Note_on_c, 7, 70, 0
9, 274139, Note_on_c, 7, 62, 0
9, 274139, Note_on_c, 7, 74, 0
9, 274140, Note_on_c, 7, 74, 32
9, 274140, Note_on_c, 7, 62, 32
9, 274140, Note_on_c, 7, 70, 32
9, 274169, Note_on_c, 7, 70, 0
9, 274169, Note_on_c, 7, 62, 0
9, 274169, Note_on_c, 7, 74, 0
9, 274170, Note_on_c, 7, 74, 32
9, 274170, Note_on_c, 7, 62, 32
9, 274170, Note_on_c, 7, 70, 32
9, 274199, Note_on_c, 7, 70, 0
9, 274199, Note_on_c, 7, 62, 0
9, 274199, Note_on_c, 7, 74, 0
9, 274200, Note_on_c, 7, 74, 32
9, 274200, Note_on_c, 7, 62, 32
9, 274200, Note_on_c, 7, 70, 32
9, 274229, Note_on_c, 7, 70, 0
9, 274229, Note_on_c, 7, 62, 0
9, 274229, Note_on_c, 7, 74, 0
9, 274230, Note_on_c, 7, 74, 32
9, 274230, Note_on_c, 7, 62, 32
9, 274230, Note_on_c, 7, 70, 32
9, 274259, Note_on_c, 7, 70, 0
9, 274259, Note_on_c, 7, 62, 0
9, 274259, Note_on_c, 7, 74, 0
9, 274260, Note_on_c, 7, 74, 32
9, 274260, Note_on_c, 7, 62, 32
9, 274260, Note_on_c, 7, 70, 32
9, 274289, Note_on_c, 7, 70, 0
9, 274289, Note_on_c, 7, 62, 0
9, 274289, Note_on_c, 7, 74, 0
9, 274290, Note_on_c, 7, 74, 32
9, 274290, Note_on_c, 7, 62, 32
9, 274290, Note_on_c, 7, 70, 32
9, 274319, Note_on_c, 7, 70, 0
9, 274319, Note_on_c, 7, 62, 0
9, 274319, Note_on_c, 7, 74, 0
9, 274320, Note_on_c, 7, 74, 32
9, 274320, Note_on_c, 7, 65, 32
9, 274320, Note_on_c, 7, 62, 32
9, 274320, Note_on_c, 7, 70, 32
9, 274349, Note_on_c, 7, 70, 0
9, 274349, Note_on_c, 7, 74, 0
9, 274349, Note_on_c, 7, 65, 0
9, 274349, Note_on_c, 7, 62, 0
9, 274350, Note_on_c, 7, 74, 32
9, 274350, Note_on_c, 7, 65, 32
9, 274350, Note_on_c, 7, 62, 32
9, 274350, Note_on_c, 7, 70, 32
9, 274379, Note_on_c, 7, 70, 0
9, 274379, Note_on_c, 7, 74, 0
9, 274379, Note_on_c, 7, 65, 0
9, 274379, Note_on_c, 7, 62, 0
9, 274380, Note_on_c, 7, 74, 32
9, 274380, Note_on_c, 7, 65, 32
9, 274380, Note_on_c, 7, 62, 32
9, 274380, Note_on_c, 7, 70, 32
9, 274409, Note_on_c, 7, 70, 0
9, 274409, Note_on_c, 7, 74, 0
9, 274409, Note_on_c, 7, 65, 0
9, 274409, Note_on_c, 7, 62, 0
9, 274410, Note_on_c, 7, 74, 32
9, 274410, Note_on_c, 7, 65, 32
9, 274410, Note_on_c, 7, 62, 32
9, 274410, Note_on_c, 7, 70, 32
9, 274439, Note_on_c, 7, 70, 0
9, 274439, Note_on_c, 7, 74, 0
9, 274439, Note_on_c, 7, 65, 0
9, 274439, Note_on_c, 7, 62, 0
9, 274440, Note_on_c, 7, 74, 32
9, 274440, Note_on_c, 7, 65, 32
9, 274440, Note_on_c, 7, 62, 32
9, 274440, Note_on_c, 7, 70, 32
9, 274469, Note_on_c, 7, 70, 0
9, 274469, Note_on_c, 7, 74, 0
9, 274469, Note_on_c, 7, 65, 0
9, 274469, Note_on_c, 7, 62, 0
9, 274470, Note_on_c, 7, 74, 32
9, 274470, Note_on_c, 7, 65, 32
9, 274470, Note_on_c, 7, 62, 32
9, 274470, Note_on_c, 7, 70, 32
9, 274499, Note_on_c, 7, 70, 0
9, 274499, Note_on_c, 7, 74, 0
9, 274499, Note_on_c, 7, 65, 0
9, 274499, Note_on_c, 7, 62, 0
9, 274500, Note_on_c, 7, 74, 32
9, 274500, Note_on_c, 7, 65, 32
9, 274500, Note_on_c, 7, 62, 32
9, 274500, Note_on_c, 7, 70, 32
9, 274529, Note_on_c, 7, 70, 0
9, 274529, Note_on_c, 7, 74, 0
9, 274529, Note_on_c, 7, 65, 0
9, 274529, Note_on_c, 7, 62, 0
9, 274530, Note_on_c, 7, 74, 32
9, 274530, Note_on_c, 7, 65, 32
9, 274530, Note_on_c, 7, 62, 32
9, 274530, Note_on_c, 7, 70, 32
9, 274559, Note_on_c, 7, 70, 0
9, 274559, Note_on_c, 7, 74, 0
9, 274559, Note_on_c, 7, 65, 0
9, 274559, Note_on_c, 7, 62, 0
9, 274560, Note_on_c, 7, 74, 32
9, 274560, Note_on_c, 7, 65, 32
9, 274560, Note_on_c, 7, 62, 32
9, 274560, Note_on_c, 7, 70, 32
9, 274589, Note_on_c, 7, 70, 0
9, 274589, Note_on_c, 7, 74, 0
9, 274589, Note_on_c, 7, 65, 0
9, 274589, Note_on_c, 7, 62, 0
9, 274590, Note_on_c, 7, 74, 32
9, 274590, Note_on_c, 7, 65, 32
9, 274590, Note_on_c, 7, 62, 32
9, 274590, Note_on_c, 7, 70, 32
9, 274619, Note_on_c, 7, 70, 0
9, 274619, Note_on_c, 7, 74, 0
9, 274619, Note_on_c, 7, 65, 0
9, 274619, Note_on_c, 7, 62, 0
9, 274620, Note_on_c, 7, 74, 32
9, 274620, Note_on_c, 7, 65, 32
9, 274620, Note_on_c, 7, 62, 32
9, 274620, Note_on_c, 7, 70, 32
9, 274649, Note_on_c, 7, 70, 0
9, 274649, Note_on_c, 7, 74, 0
9, 274649, Note_on_c, 7, 65, 0
9, 274649, Note_on_c, 7, 62, 0
9, 274650, Note_on_c, 7, 74, 32
9, 274650, Note_on_c, 7, 65, 32
9, 274650, Note_on_c, 7, 62, 32
9, 274650, Note_on_c, 7, 70, 32
9, 274679, Note_on_c, 7, 70, 0
9, 274679, Note_on_c, 7, 74, 0
9, 274679, Note_on_c, 7, 65, 0
9, 274679, Note_on_c, 7, 62, 0
9, 274680, Note_on_c, 7, 75, 32
9, 274680, Note_on_c, 7, 67, 32
9, 274680, Note_on_c, 7, 63, 32
9, 274680, Note_on_c, 7, 70, 32
9, 274709, Note_on_c, 7, 70, 0
9, 274709, Note_on_c, 7, 75, 0
9, 274709, Note_on_c, 7, 67, 0
9, 274709, Note_on_c, 7, 63, 0
9, 274710, Note_on_c, 7, 75, 32
9, 274710, Note_on_c, 7, 67, 32
9, 274710, Note_on_c, 7, 63, 32
9, 274710, Note_on_c, 7, 70, 32
9, 274739, Note_on_c, 7, 70, 0
9, 274739, Note_on_c, 7, 75, 0
9, 274739, Note_on_c, 7, 67, 0
9, 274739, Note_on_c, 7, 63, 0
9, 274740, Note_on_c, 7, 75, 32
9, 274740, Note_on_c, 7, 67, 32
9, 274740, Note_on_c, 7, 63, 32
9, 274740, Note_on_c, 7, 70, 32
9, 274769, Note_on_c, 7, 70, 0
9, 274769, Note_on_c, 7, 75, 0
9, 274769, Note_on_c, 7, 67, 0
9, 274769, Note_on_c, 7, 63, 0
9, 274770, Note_on_c, 7, 75, 32
9, 274770, Note_on_c, 7, 67, 32
9, 274770, Note_on_c, 7, 63, 32
9, 274770, Note_on_c, 7, 70, 32
9, 274799, Note_on_c, 7, 70, 0
9, 274799, Note_on_c, 7, 75, 0
9, 274799, Note_on_c, 7, 67, 0
9, 274799, Note_on_c, 7, 63, 0
9, 274800, Note_on_c, 7, 75, 32
9, 274800, Note_on_c, 7, 67, 32
9, 274800, Note_on_c, 7, 63, 32
9, 274800, Note_on_c, 7, 70, 32
9, 274829, Note_on_c, 7, 70, 0
9, 274829, Note_on_c, 7, 75, 0
9, 274829, Note_on_c, 7, 67, 0
9, 274829, Note_on_c, 7, 63, 0
9, 274830, Note_on_c, 7, 75, 32
9, 274830, Note_on_c, 7, 67, 32
9, 274830, Note_on_c, 7, 63, 32
9, 274830, Note_on_c, 7, 70, 32
9, 274859, Note_on_c, 7, 70, 0
9, 274859, Note_on_c, 7, 75, 0
9, 274859, Note_on_c, 7, 67, 0
9, 274859, Note_on_c, 7, 63, 0
9, 274860, Note_on_c, 7, 75, 32
9, 274860, Note_on_c, 7, 67, 32
9, 274860, Note_on_c, 7, 63, 32
9, 274860, Note_on_c, 7, 70, 32
9, 274889, Note_on_c, 7, 70, 0
9, 274889, Note_on_c, 7, 75, 0
9, 274889, Note_on_c, 7, 67, 0
9, 274889, Note_on_c, 7, 63, 0
9, 274890, Note_on_c, 7, 75, 32
9, 274890, Note_on_c, 7, 67, 32
9, 274890, Note_on_c, 7, 63, 32
9, 274890, Note_on_c, 7, 70, 32
9, 274919, Note_on_c, 7, 70, 0
9, 274919, Note_on_c, 7, 75, 0
9, 274919, Note_on_c, 7, 67, 0
9, 274919, Note_on_c, 7, 63, 0
9, 274920, Note_on_c, 7, 75, 32
9, 274920, Note_on_c, 7, 67, 32
9, 274920, Note_on_c, 7, 63, 32
9, 274920, Note_on_c, 7, 70, 32
9, 274949, Note_on_c, 7, 70, 0
9, 274949, Note_on_c, 7, 75, 0
9, 274949, Note_on_c, 7, 67, 0
9, 274949, Note_on_c, 7, 63, 0
9, 274950, Note_on_c, 7, 75, 32
9, 274950, Note_on_c, 7, 67, 32
9, 274950, Note_on_c, 7, 63, 32
9, 274950, Note_on_c, 7, 70, 32
9, 274979, Note_on_c, 7, 70, 0
9, 274979, Note_on_c, 7, 75, 0
9, 274979, Note_on_c, 7, 67, 0
9, 274979, Note_on_c, 7, 63, 0
9, 274980, Note_on_c, 7, 75, 32
9, 274980, Note_on_c, 7, 67, 32
9, 274980, Note_on_c, 7, 63, 32
9, 274980, Note_on_c, 7, 70, 32
9, 275009, Note_on_c, 7, 70, 0
9, 275009, Note_on_c, 7, 75, 0
9, 275009, Note_on_c, 7, 67, 0
9, 275009, Note_on_c, 7, 63, 0
9, 275010, Note_on_c, 7, 75, 32
9, 275010, Note_on_c, 7, 67, 32
9, 275010, Note_on_c, 7, 63, 32
9, 275010, Note_on_c, 7, 70, 32
9, 275039, Note_on_c, 7, 70, 0
9, 275039, Note_on_c, 7, 75, 0
9, 275039, Note_on_c, 7, 67, 0
9, 275039, Note_on_c, 7, 63, 0
9, 275040, Note_on_c, 7, 75, 32
9, 275040, Note_on_c, 7, 67, 32
9, 275040, Note_on_c, 7, 63, 32
9, 275040, Note_on_c, 7, 70, 32
9, 275069, Note_on_c, 7, 70, 0
9, 275069, Note_on_c, 7, 75, 0
9, 275069, Note_on_c, 7, 67, 0
9, 275069, Note_on_c, 7, 63, 0
9, 275070, Note_on_c, 7, 75, 32
9, 275070, Note_on_c, 7, 67, 32
9, 275070, Note_on_c, 7, 63, 32
9, 275070, Note_on_c, 7, 70, 32
9, 275099, Note_on_c, 7, 70, 0
9, 275099, Note_on_c, 7, 75, 0
9, 275099, Note_on_c, 7, 67, 0
9, 275099, Note_on_c, 7, 63, 0
9, 275100, Note_on_c, 7, 75, 32
9, 275100, Note_on_c, 7, 67, 32
9, 275100, Note_on_c, 7, 63, 32
9, 275100, Note_on_c, 7, 70, 32
9, 275129, Note_on_c, 7, 70, 0
9, 275129, Note_on_c, 7, 75, 0
9, 275129, Note_on_c, 7, 67, 0
9, 275129, Note_on_c, 7, 63, 0
9, 275130, Note_on_c, 7, 75, 32
9, 275130, Note_on_c, 7, 67, 32
9, 275130, Note_on_c, 7, 63, 32
9, 275130, Note_on_c, 7, 70, 32
9, 275159, Note_on_c, 7, 70, 0
9, 275159, Note_on_c, 7, 75, 0
9, 275159, Note_on_c, 7, 67, 0
9, 275159, Note_on_c, 7, 63, 0
9, 275160, Note_on_c, 7, 75, 32
9, 275160, Note_on_c, 7, 67, 32
9, 275160, Note_on_c, 7, 63, 32
9, 275160, Note_on_c, 7, 70, 32
9, 275189, Note_on_c, 7, 70, 0
9, 275189, Note_on_c, 7, 75, 0
9, 275189, Note_on_c, 7, 67, 0
9, 275189, Note_on_c, 7, 63, 0
9, 275190, Note_on_c, 7, 75, 32
9, 275190, Note_on_c, 7, 67, 32
9, 275190, Note_on_c, 7, 63, 32
9, 275190, Note_on_c, 7, 70, 32
9, 275219, Note_on_c, 7, 70, 0
9, 275219, Note_on_c, 7, 75, 0
9, 275219, Note_on_c, 7, 67, 0
9, 275219, Note_on_c, 7, 63, 0
9, 275220, Note_on_c, 7, 75, 32
9, 275220, Note_on_c, 7, 67, 32
9, 275220, Note_on_c, 7, 63, 32
9, 275220, Note_on_c, 7, 70, 32
9, 275249, Note_on_c, 7, 70, 0
9, 275249, Note_on_c, 7, 75, 0
9, 275249, Note_on_c, 7, 67, 0
9, 275249, Note_on_c, 7, 63, 0
9, 275250, Note_on_c, 7, 75, 32
9, 275250, Note_on_c, 7, 67, 32
9, 275250, Note_on_c, 7, 63, 32
9, 275250, Note_on_c, 7, 70, 32
9, 275279, Note_on_c, 7, 70, 0
9, 275279, Note_on_c, 7, 75, 0
9, 275279, Note_on_c, 7, 67, 0
9, 275279, Note_on_c, 7, 63, 0
9, 275280, Note_on_c, 7, 75, 32
9, 275280, Note_on_c, 7, 67, 32
9, 275280, Note_on_c, 7, 63, 32
9, 275280, Note_on_c, 7, 70, 32
9, 275309, Note_on_c, 7, 70, 0
9, 275309, Note_on_c, 7, 75, 0
9, 275309, Note_on_c, 7, 67, 0
9, 275309, Note_on_c, 7, 63, 0
9, 275310, Note_on_c, 7, 75, 32
9, 275310, Note_on_c, 7, 67, 32
9, 275310, Note_on_c, 7, 63, 32
9, 275310, Note_on_c, 7, 70, 32
9, 275339, Note_on_c, 7, 70, 0
9, 275339, Note_on_c, 7, 75, 0
9, 275339, Note_on_c, 7, 67, 0
9, 275339, Note_on_c, 7, 63, 0
9, 275340, Note_on_c, 7, 75, 32
9, 275340, Note_on_c, 7, 67, 32
9, 275340, Note_on_c, 7, 63, 32
9, 275340, Note_on_c, 7, 70, 32
9, 275369, Note_on_c, 7, 70, 0
9, 275369, Note_on_c, 7, 75, 0
9, 275369, Note_on_c, 7, 67, 0
9, 275369, Note_on_c, 7, 63, 0
9, 275370, Note_on_c, 7, 75, 32
9, 275370, Note_on_c, 7, 67, 32
9, 275370, Note_on_c, 7, 63, 32
9, 275370, Note_on_c, 7, 70, 32
9, 275399, Note_on_c, 7, 70, 0
9, 275399, Note_on_c, 7, 75, 0
9, 275399, Note_on_c, 7, 67, 0
9, 275399, Note_on_c, 7, 63, 0
9, 275400, Note_on_c, 7, 63, 32
9, 275400, Note_on_c, 7, 72, 32
9, 275400, Note_on_c, 7, 75, 32
9, 275429, Note_on_c, 7, 75, 0
9, 275429, Note_on_c, 7, 72, 0
9, 275429, Note_on_c, 7, 63, 0
9, 275430, Note_on_c, 7, 63, 32
9, 275430, Note_on_c, 7, 72, 32
9, 275430, Note_on_c, 7, 78, 32
9, 275459, Note_on_c, 7, 78, 0
9, 275459, Note_on_c, 7, 72, 0
9, 275459, Note_on_c, 7, 63, 0
9, 275460, Note_on_c, 7, 63, 32
9, 275460, Note_on_c, 7, 72, 32
9, 275460, Note_on_c, 7, 78, 32
9, 275489, Note_on_c, 7, 78, 0
9, 275489, Note_on_c, 7, 72, 0
9, 275489, Note_on_c, 7, 63, 0
9, 275490, Note_on_c, 7, 63, 32
9, 275490, Note_on_c, 7, 72, 32
9, 275490, Note_on_c, 7, 78, 32
9, 275519, Note_on_c, 7, 78, 0
9, 275519, Note_on_c, 7, 72, 0
9, 275519, Note_on_c, 7, 63, 0
9, 275520, Note_on_c, 7, 63, 33
9, 275520, Note_on_c, 7, 72, 33
9, 275520, Note_on_c, 7, 78, 33
9, 275549, Note_on_c, 7, 78, 0
9, 275549, Note_on_c, 7, 72, 0
9, 275549, Note_on_c, 7, 63, 0
9, 275550, Note_on_c, 7, 63, 33
9, 275550, Note_on_c, 7, 72, 33
9, 275550, Note_on_c, 7, 78, 33
9, 275579, Note_on_c, 7, 78, 0
9, 275579, Note_on_c, 7, 72, 0
9, 275579, Note_on_c, 7, 63, 0
9, 275580, Note_on_c, 7, 63, 34
9, 275580, Note_on_c, 7, 72, 34
9, 275580, Note_on_c, 7, 78, 34
9, 275609, Note_on_c, 7, 78, 0
9, 275609, Note_on_c, 7, 72, 0
9, 275609, Note_on_c, 7, 63, 0
9, 275610, Note_on_c, 7, 63, 34
9, 275610, Note_on_c, 7, 72, 34
9, 275610, Note_on_c, 7, 78, 34
9, 275639, Note_on_c, 7, 78, 0
9, 275639, Note_on_c, 7, 72, 0
9, 275639, Note_on_c, 7, 63, 0
9, 275640, Note_on_c, 7, 63, 35
9, 275640, Note_on_c, 7, 72, 35
9, 275640, Note_on_c, 7, 78, 35
9, 275669, Note_on_c, 7, 78, 0
9, 275669, Note_on_c, 7, 72, 0
9, 275669, Note_on_c, 7, 63, 0
9, 275670, Note_on_c, 7, 63, 35
9, 275670, Note_on_c, 7, 72, 35
9, 275670, Note_on_c, 7, 78, 35
9, 275699, Note_on_c, 7, 78, 0
9, 275699, Note_on_c, 7, 72, 0
9, 275699, Note_on_c, 7, 63, 0
9, 275700, Note_on_c, 7, 63, 35
9, 275700, Note_on_c, 7, 72, 35
9, 275700, Note_on_c, 7, 78, 35
9, 275729, Note_on_c, 7, 78, 0
9, 275729, Note_on_c, 7, 72, 0
9, 275729, Note_on_c, 7, 63, 0
9, 275730, Note_on_c, 7, 63, 35
9, 275730, Note_on_c, 7, 72, 35
9, 275730, Note_on_c, 7, 78, 35
9, 275759, Note_on_c, 7, 78, 0
9, 275759, Note_on_c, 7, 72, 0
9, 275759, Note_on_c, 7, 63, 0
9, 275760, Note_on_c, 7, 63, 36
9, 275760, Note_on_c, 7, 72, 36
9, 275760, Note_on_c, 7, 78, 36
9, 275789, Note_on_c, 7, 78, 0
9, 275789, Note_on_c, 7, 72, 0
9, 275789, Note_on_c, 7, 63, 0
9, 275790, Note_on_c, 7, 63, 36
9, 275790, Note_on_c, 7, 72, 36
9, 275790, Note_on_c, 7, 78, 36
9, 275819, Note_on_c, 7, 78, 0
9, 275819, Note_on_c, 7, 72, 0
9, 275819, Note_on_c, 7, 63, 0
9, 275820, Note_on_c, 7, 63, 36
9, 275820, Note_on_c, 7, 72, 36
9, 275820, Note_on_c, 7, 78, 36
9, 275849, Note_on_c, 7, 78, 0
9, 275849, Note_on_c, 7, 72, 0
9, 275849, Note_on_c, 7, 63, 0
9, 275850, Note_on_c, 7, 63, 36
9, 275850, Note_on_c, 7, 72, 36
9, 275850, Note_on_c, 7, 78, 36
9, 275879, Note_on_c, 7, 78, 0
9, 275879, Note_on_c, 7, 72, 0
9, 275879, Note_on_c, 7, 63, 0
9, 275880, Note_on_c, 7, 63, 37
9, 275880, Note_on_c, 7, 72, 37
9, 275880, Note_on_c, 7, 78, 37
9, 275909, Note_on_c, 7, 78, 0
9, 275909, Note_on_c, 7, 72, 0
9, 275909, Note_on_c, 7, 63, 0
9, 275910, Note_on_c, 7, 63, 37
9, 275910, Note_on_c, 7, 72, 37
9, 275910, Note_on_c, 7, 78, 37
9, 275939, Note_on_c, 7, 78, 0
9, 275939, Note_on_c, 7, 72, 0
9, 275939, Note_on_c, 7, 63, 0
9, 275940, Note_on_c, 7, 63, 37
9, 275940, Note_on_c, 7, 72, 37
9, 275940, Note_on_c, 7, 78, 37
9, 275969, Note_on_c, 7, 78, 0
9, 275969, Note_on_c, 7, 72, 0
9, 275969, Note_on_c, 7, 63, 0
9, 275970, Note_on_c, 7, 63, 37
9, 275970, Note_on_c, 7, 72, 37
9, 275970, Note_on_c, 7, 78, 37
9, 275999, Note_on_c, 7, 78, 0
9, 275999, Note_on_c, 7, 72, 0
9, 275999, Note_on_c, 7, 63, 0
9, 276000, Note_on_c, 7, 63, 38
9, 276000, Note_on_c, 7, 72, 38
9, 276000, Note_on_c, 7, 78, 38
9, 276029, Note_on_c, 7, 78, 0
9, 276029, Note_on_c, 7, 72, 0
9, 276029, Note_on_c, 7, 63, 0
9, 276030, Note_on_c, 7, 63, 38
9, 276030, Note_on_c, 7, 72, 38
9, 276030, Note_on_c, 7, 78, 38
9, 276059, Note_on_c, 7, 78, 0
9, 276059, Note_on_c, 7, 72, 0
9, 276059, Note_on_c, 7, 63, 0
9, 276060, Note_on_c, 7, 63, 38
9, 276060, Note_on_c, 7, 72, 38
9, 276060, Note_on_c, 7, 78, 38
9, 276089, Note_on_c, 7, 78, 0
9, 276089, Note_on_c, 7, 72, 0
9, 276089, Note_on_c, 7, 63, 0
9, 276090, Note_on_c, 7, 63, 38
9, 276090, Note_on_c, 7, 72, 38
9, 276090, Note_on_c, 7, 78, 38
9, 276119, Note_on_c, 7, 78, 0
9, 276119, Note_on_c, 7, 72, 0
9, 276119, Note_on_c, 7, 63, 0
9, 276120, Note_on_c, 7, 63, 39
9, 276120, Note_on_c, 7, 72, 39
9, 276120, Note_on_c, 7, 78, 39
9, 276149, Note_on_c, 7, 78, 0
9, 276149, Note_on_c, 7, 72, 0
9, 276149, Note_on_c, 7, 63, 0
9, 276150, Note_on_c, 7, 63, 39
9, 276150, Note_on_c, 7, 72, 39
9, 276150, Note_on_c, 7, 78, 39
9, 276179, Note_on_c, 7, 78, 0
9, 276179, Note_on_c, 7, 72, 0
9, 276179, Note_on_c, 7, 63, 0
9, 276180, Note_on_c, 7, 63, 40
9, 276180, Note_on_c, 7, 72, 40
9, 276180, Note_on_c, 7, 78, 40
9, 276209, Note_on_c, 7, 78, 0
9, 276209, Note_on_c, 7, 72, 0
9, 276209, Note_on_c, 7, 63, 0
9, 276210, Note_on_c, 7, 63, 40
9, 276210, Note_on_c, 7, 72, 40
9, 276210, Note_on_c, 7, 78, 40
9, 276239, Note_on_c, 7, 78, 0
9, 276239, Note_on_c, 7, 72, 0
9, 276239, Note_on_c, 7, 63, 0
9, 276240, Note_on_c, 7, 63, 41
9, 276240, Note_on_c, 7, 72, 41
9, 276240, Note_on_c, 7, 78, 41
9, 276269, Note_on_c, 7, 78, 0
9, 276269, Note_on_c, 7, 72, 0
9, 276269, Note_on_c, 7, 63, 0
9, 276270, Note_on_c, 7, 63, 41
9, 276270, Note_on_c, 7, 72, 41
9, 276270, Note_on_c, 7, 78, 41
9, 276299, Note_on_c, 7, 78, 0
9, 276299, Note_on_c, 7, 72, 0
9, 276299, Note_on_c, 7, 63, 0
9, 276300, Note_on_c, 7, 63, 41
9, 276300, Note_on_c, 7, 72, 41
9, 276300, Note_on_c, 7, 78, 41
9, 276329, Note_on_c, 7, 78, 0
9, 276329, Note_on_c, 7, 72, 0
9, 276329, Note_on_c, 7, 63, 0
9, 276330, Note_on_c, 7, 63, 41
9, 276330, Note_on_c, 7, 72, 41
9, 276330, Note_on_c, 7, 78, 41
9, 276359, Note_on_c, 7, 78, 0
9, 276359, Note_on_c, 7, 72, 0
9, 276359, Note_on_c, 7, 63, 0
9, 276360, Note_on_c, 7, 63, 42
9, 276360, Note_on_c, 7, 72, 42
9, 276360, Note_on_c, 7, 78, 42
9, 276389, Note_on_c, 7, 78, 0
9, 276389, Note_on_c, 7, 72, 0
9, 276389, Note_on_c, 7, 63, 0
9, 276390, Note_on_c, 7, 63, 42
9, 276390, Note_on_c, 7, 72, 42
9, 276390, Note_on_c, 7, 78, 42
9, 276419, Note_on_c, 7, 78, 0
9, 276419, Note_on_c, 7, 72, 0
9, 276419, Note_on_c, 7, 63, 0
9, 276420, Note_on_c, 7, 63, 42
9, 276420, Note_on_c, 7, 72, 42
9, 276420, Note_on_c, 7, 78, 42
9, 276449, Note_on_c, 7, 78, 0
9, 276449, Note_on_c, 7, 72, 0
9, 276449, Note_on_c, 7, 63, 0
9, 276450, Note_on_c, 7, 63, 42
9, 276450, Note_on_c, 7, 72, 42
9, 276450, Note_on_c, 7, 78, 42
9, 276479, Note_on_c, 7, 78, 0
9, 276479, Note_on_c, 7, 72, 0
9, 276479, Note_on_c, 7, 63, 0
9, 276480, Note_on_c, 7, 63, 44
9, 276480, Note_on_c, 7, 72, 44
9, 276480, Note_on_c, 7, 78, 44
9, 276509, Note_on_c, 7, 78, 0
9, 276509, Note_on_c, 7, 72, 0
9, 276509, Note_on_c, 7, 63, 0
9, 276510, Note_on_c, 7, 63, 44
9, 276510, Note_on_c, 7, 72, 44
9, 276510, Note_on_c, 7, 78, 44
9, 276539, Note_on_c, 7, 78, 0
9, 276539, Note_on_c, 7, 72, 0
9, 276539, Note_on_c, 7, 63, 0
9, 276540, Note_on_c, 7, 63, 44
9, 276540, Note_on_c, 7, 72, 44
9, 276540, Note_on_c, 7, 78, 44
9, 276569, Note_on_c, 7, 78, 0
9, 276569, Note_on_c, 7, 72, 0
9, 276569, Note_on_c, 7, 63, 0
9, 276570, Note_on_c, 7, 63, 44
9, 276570, Note_on_c, 7, 72, 44
9, 276570, Note_on_c, 7, 78, 44
9, 276599, Note_on_c, 7, 78, 0
9, 276599, Note_on_c, 7, 72, 0
9, 276599, Note_on_c, 7, 63, 0
9, 276600, Note_on_c, 7, 63, 46
9, 276600, Note_on_c, 7, 72, 46
9, 276600, Note_on_c, 7, 77, 46
9, 276629, Note_on_c, 7, 77, 0
9, 276629, Note_on_c, 7, 72, 0
9, 276629, Note_on_c, 7, 63, 0
9, 276630, Note_on_c, 7, 63, 46
9, 276630, Note_on_c, 7, 72, 46
9, 276630, Note_on_c, 7, 77, 46
9, 276659, Note_on_c, 7, 77, 0
9, 276659, Note_on_c, 7, 72, 0
9, 276659, Note_on_c, 7, 63, 0
9, 276660, Note_on_c, 7, 63, 46
9, 276660, Note_on_c, 7, 72, 46
9, 276660, Note_on_c, 7, 77, 46
9, 276689, Note_on_c, 7, 77, 0
9, 276689, Note_on_c, 7, 72, 0
9, 276689, Note_on_c, 7, 63, 0
9, 276690, Note_on_c, 7, 63, 46
9, 276690, Note_on_c, 7, 72, 46
9, 276690, Note_on_c, 7, 77, 46
9, 276719, Note_on_c, 7, 77, 0
9, 276719, Note_on_c, 7, 72, 0
9, 276719, Note_on_c, 7, 63, 0
9, 276720, Note_on_c, 7, 63, 47
9, 276720, Note_on_c, 7, 72, 47
9, 276720, Note_on_c, 7, 75, 47
9, 276749, Note_on_c, 7, 75, 0
9, 276749, Note_on_c, 7, 72, 0
9, 276749, Note_on_c, 7, 63, 0
9, 276750, Note_on_c, 7, 63, 47
9, 276750, Note_on_c, 7, 72, 47
9, 276750, Note_on_c, 7, 75, 47
9, 276779, Note_on_c, 7, 75, 0
9, 276779, Note_on_c, 7, 72, 0
9, 276779, Note_on_c, 7, 63, 0
9, 276780, Note_on_c, 7, 63, 47
9, 276780, Note_on_c, 7, 72, 47
9, 276780, Note_on_c, 7, 75, 47
9, 276809, Note_on_c, 7, 75, 0
9, 276809, Note_on_c, 7, 72, 0
9, 276809, Note_on_c, 7, 63, 0
9, 276810, Note_on_c, 7, 63, 47
9, 276810, Note_on_c, 7, 72, 47
9, 276810, Note_on_c, 7, 75, 47
9, 276839, Note_on_c, 7, 75, 0
9, 276839, Note_on_c, 7, 72, 0
9, 276839, Note_on_c, 7, 63, 0
9, 276840, Note_on_c, 7, 65, 48
9, 276840, Note_on_c, 7, 74, 48
9, 276869, Note_on_c, 7, 74, 0
9, 276869, Note_on_c, 7, 65, 0
9, 276870, Note_on_c, 7, 80, 49
9, 276870, Note_on_c, 7, 65, 49
9, 276899, Note_on_c, 7, 65, 0
9, 276899, Note_on_c, 7, 80, 0
9, 276900, Note_on_c, 7, 80, 50
9, 276900, Note_on_c, 7, 65, 50
9, 276929, Note_on_c, 7, 65, 0
9, 276929, Note_on_c, 7, 80, 0
9, 276930, Note_on_c, 7, 80, 51
9, 276930, Note_on_c, 7, 65, 51
9, 276959, Note_on_c, 7, 65, 0
9, 276959, Note_on_c, 7, 80, 0
9, 276960, Note_on_c, 7, 80, 52
9, 276960, Note_on_c, 7, 65, 52
9, 276989, Note_on_c, 7, 65, 0
9, 276989, Note_on_c, 7, 80, 0
9, 276990, Note_on_c, 7, 80, 53
9, 276990, Note_on_c, 7, 65, 53
9, 277019, Note_on_c, 7, 65, 0
9, 277019, Note_on_c, 7, 80, 0
9, 277020, Note_on_c, 7, 80, 54
9, 277020, Note_on_c, 7, 65, 54
9, 277049, Note_on_c, 7, 65, 0
9, 277049, Note_on_c, 7, 80, 0
9, 277050, Note_on_c, 7, 80, 55
9, 277050, Note_on_c, 7, 65, 55
9, 277079, Note_on_c, 7, 65, 0
9, 277079, Note_on_c, 7, 80, 0
9, 277080, Note_on_c, 7, 80, 56
9, 277080, Note_on_c, 7, 65, 56
9, 277109, Note_on_c, 7, 65, 0
9, 277109, Note_on_c, 7, 80, 0
9, 277110, Note_on_c, 7, 80, 57
9, 277110, Note_on_c, 7, 65, 57
9, 277139, Note_on_c, 7, 65, 0
9, 277139, Note_on_c, 7, 80, 0
9, 277140, Note_on_c, 7, 80, 58
9, 277140, Note_on_c, 7, 65, 58
9, 277169, Note_on_c, 7, 65, 0
9, 277169, Note_on_c, 7, 80, 0
9, 277170, Note_on_c, 7, 80, 59
9, 277170, Note_on_c, 7, 65, 59
9, 277199, Note_on_c, 7, 65, 0
9, 277199, Note_on_c, 7, 80, 0
9, 277200, Note_on_c, 7, 74, 60
9, 277200, Note_on_c, 7, 80, 60
9, 277200, Note_on_c, 7, 65, 60
9, 277229, Note_on_c, 7, 65, 0
9, 277229, Note_on_c, 7, 80, 0
9, 277229, Note_on_c, 7, 74, 0
9, 277230, Note_on_c, 7, 74, 61
9, 277230, Note_on_c, 7, 80, 61
9, 277230, Note_on_c, 7, 65, 61
9, 277259, Note_on_c, 7, 65, 0
9, 277259, Note_on_c, 7, 80, 0
9, 277259, Note_on_c, 7, 74, 0
9, 277260, Note_on_c, 7, 74, 62
9, 277260, Note_on_c, 7, 80, 62
9, 277260, Note_on_c, 7, 65, 62
9, 277289, Note_on_c, 7, 65, 0
9, 277289, Note_on_c, 7, 80, 0
9, 277289, Note_on_c, 7, 74, 0
9, 277290, Note_on_c, 7, 74, 63
9, 277290, Note_on_c, 7, 80, 63
9, 277290, Note_on_c, 7, 65, 63
9, 277319, Note_on_c, 7, 65, 0
9, 277319, Note_on_c, 7, 80, 0
9, 277319, Note_on_c, 7, 74, 0
9, 277320, Note_on_c, 7, 74, 64
9, 277320, Note_on_c, 7, 80, 64
9, 277320, Note_on_c, 7, 65, 64
9, 277349, Note_on_c, 7, 65, 0
9, 277349, Note_on_c, 7, 80, 0
9, 277349, Note_on_c, 7, 74, 0
9, 277350, Note_on_c, 7, 74, 65
9, 277350, Note_on_c, 7, 80, 65
9, 277350, Note_on_c, 7, 65, 65
9, 277379, Note_on_c, 7, 65, 0
9, 277379, Note_on_c, 7, 80, 0
9, 277379, Note_on_c, 7, 74, 0
9, 277380, Note_on_c, 7, 74, 66
9, 277380, Note_on_c, 7, 80, 66
9, 277380, Note_on_c, 7, 65, 66
9, 277409, Note_on_c, 7, 65, 0
9, 277409, Note_on_c, 7, 80, 0
9, 277409, Note_on_c, 7, 74, 0
9, 277410, Note_on_c, 7, 74, 67
9, 277410, Note_on_c, 7, 80, 67
9, 277410, Note_on_c, 7, 65, 67
9, 277439, Note_on_c, 7, 65, 0
9, 277439, Note_on_c, 7, 80, 0
9, 277439, Note_on_c, 7, 74, 0
9, 277440, Note_on_c, 7, 74, 68
9, 277440, Note_on_c, 7, 80, 68
9, 277440, Note_on_c, 7, 65, 68
9, 277469, Note_on_c, 7, 65, 0
9, 277469, Note_on_c, 7, 80, 0
9, 277469, Note_on_c, 7, 74, 0
9, 277470, Note_on_c, 7, 74, 67
9, 277470, Note_on_c, 7, 80, 67
9, 277470, Note_on_c, 7, 65, 67
9, 277499, Note_on_c, 7, 65, 0
9, 277499, Note_on_c, 7, 80, 0
9, 277499, Note_on_c, 7, 74, 0
9, 277500, Note_on_c, 7, 74, 66
9, 277500, Note_on_c, 7, 80, 66
9, 277500, Note_on_c, 7, 65, 66
9, 277529, Note_on_c, 7, 65, 0
9, 277529, Note_on_c, 7, 80, 0
9, 277529, Note_on_c, 7, 74, 0
9, 277530, Note_on_c, 7, 74, 65
9, 277530, Note_on_c, 7, 80, 65
9, 277530, Note_on_c, 7, 65, 65
9, 277559, Note_on_c, 7, 65, 0
9, 277559, Note_on_c, 7, 80, 0
9, 277559, Note_on_c, 7, 74, 0
9, 277560, Note_on_c, 7, 74, 64
9, 277560, Note_on_c, 7, 80, 64
9, 277560, Note_on_c, 7, 65, 64
9, 277589, Note_on_c, 7, 65, 0
9, 277589, Note_on_c, 7, 80, 0
9, 277589, Note_on_c, 7, 74, 0
9, 277590, Note_on_c, 7, 74, 63
9, 277590, Note_on_c, 7, 80, 63
9, 277590, Note_on_c, 7, 65, 63
9, 277619, Note_on_c, 7, 65, 0
9, 277619, Note_on_c, 7, 80, 0
9, 277619, Note_on_c, 7, 74, 0
9, 277620, Note_on_c, 7, 74, 62
9, 277620, Note_on_c, 7, 80, 62
9, 277620, Note_on_c, 7, 65, 62
9, 277649, Note_on_c, 7, 65, 0
9, 277649, Note_on_c, 7, 80, 0
9, 277649, Note_on_c, 7, 74, 0
9, 277650, Note_on_c, 7, 74, 61
9, 277650, Note_on_c, 7, 80, 61
9, 277650, Note_on_c, 7, 65, 61
9, 277679, Note_on_c, 7, 65, 0
9, 277679, Note_on_c, 7, 80, 0
9, 277679, Note_on_c, 7, 74, 0
9, 277680, Note_on_c, 7, 74, 60
9, 277680, Note_on_c, 7, 80, 60
9, 277680, Note_on_c, 7, 65, 60
9, 277709, Note_on_c, 7, 65, 0
9, 277709, Note_on_c, 7, 80, 0
9, 277709, Note_on_c, 7, 74, 0
9, 277710, Note_on_c, 7, 74, 59
9, 277710, Note_on_c, 7, 80, 59
9, 277710, Note_on_c, 7, 65, 59
9, 277739, Note_on_c, 7, 65, 0
9, 277739, Note_on_c, 7, 80, 0
9, 277739, Note_on_c, 7, 74, 0
9, 277740, Note_on_c, 7, 74, 58
9, 277740, Note_on_c, 7, 80, 58
9, 277740, Note_on_c, 7, 65, 58
9, 277769, Note_on_c, 7, 65, 0
9, 277769, Note_on_c, 7, 80, 0
9, 277769, Note_on_c, 7, 74, 0
9, 277770, Note_on_c, 7, 74, 57
9, 277770, Note_on_c, 7, 80, 57
9, 277770, Note_on_c, 7, 65, 57
9, 277799, Note_on_c, 7, 65, 0
9, 277799, Note_on_c, 7, 80, 0
9, 277799, Note_on_c, 7, 74, 0
9, 277800, Note_on_c, 7, 74, 56
9, 277800, Note_on_c, 7, 80, 56
9, 277800, Note_on_c, 7, 65, 56
9, 277829, Note_on_c, 7, 65, 0
9, 277829, Note_on_c, 7, 80, 0
9, 277829, Note_on_c, 7, 74, 0
9, 277830, Note_on_c, 7, 74, 55
9, 277830, Note_on_c, 7, 80, 55
9, 277830, Note_on_c, 7, 65, 55
9, 277859, Note_on_c, 7, 65, 0
9, 277859, Note_on_c, 7, 80, 0
9, 277859, Note_on_c, 7, 74, 0
9, 277860, Note_on_c, 7, 74, 54
9, 277860, Note_on_c, 7, 80, 54
9, 277860, Note_on_c, 7, 65, 54
9, 277889, Note_on_c, 7, 65, 0
9, 277889, Note_on_c, 7, 80, 0
9, 277889, Note_on_c, 7, 74, 0
9, 277890, Note_on_c, 7, 74, 53
9, 277890, Note_on_c, 7, 80, 53
9, 277890, Note_on_c, 7, 65, 53
9, 277919, Note_on_c, 7, 65, 0
9, 277919, Note_on_c, 7, 80, 0
9, 277919, Note_on_c, 7, 74, 0
9, 277920, Note_on_c, 7, 80, 52
9, 277920, Note_on_c, 7, 65, 52
9, 277949, Note_on_c, 7, 65, 0
9, 277949, Note_on_c, 7, 80, 0
9, 277950, Note_on_c, 7, 80, 51
9, 277950, Note_on_c, 7, 65, 51
9, 277979, Note_on_c, 7, 65, 0
9, 277979, Note_on_c, 7, 80, 0
9, 277980, Note_on_c, 7, 80, 50
9, 277980, Note_on_c, 7, 65, 50
9, 278009, Note_on_c, 7, 65, 0
9, 278009, Note_on_c, 7, 80, 0
9, 278010, Note_on_c, 7, 80, 49
9, 278010, Note_on_c, 7, 65, 49
9, 278039, Note_on_c, 7, 65, 0
9, 278039, Note_on_c, 7, 80, 0
9, 278040, Note_on_c, 7, 80, 48
9, 278040, Note_on_c, 7, 65, 48
9, 278069, Note_on_c, 7, 65, 0
9, 278069, Note_on_c, 7, 80, 0
9, 278070, Note_on_c, 7, 80, 48
9, 278070, Note_on_c, 7, 65, 48
9, 278099, Note_on_c, 7, 65, 0
9, 278099, Note_on_c, 7, 80, 0
9, 278100, Note_on_c, 7, 80, 48
9, 278100, Note_on_c, 7, 65, 48
9, 278129, Note_on_c, 7, 65, 0
9, 278129, Note_on_c, 7, 80, 0
9, 278130, Note_on_c, 7, 80, 48
9, 278130, Note_on_c, 7, 65, 48
9, 278159, Note_on_c, 7, 65, 0
9, 278159, Note_on_c, 7, 80, 0
9, 278160, Note_on_c, 7, 80, 48
9, 278160, Note_on_c, 7, 62, 48
9, 278189, Note_on_c, 7, 62, 0
9, 278189, Note_on_c, 7, 80, 0
9, 278190, Note_on_c, 7, 80, 48
9, 278190, Note_on_c, 7, 62, 48
9, 278219, Note_on_c, 7, 62, 0
9, 278219, Note_on_c, 7, 80, 0
9, 278220, Note_on_c, 7, 80, 48
9, 278220, Note_on_c, 7, 62, 48
9, 278249, Note_on_c, 7, 62, 0
9, 278249, Note_on_c, 7, 80, 0
9, 278250, Note_on_c, 7, 80, 48
9, 278250, Note_on_c, 7, 62, 48
9, 278279, Note_on_c, 7, 62, 0
9, 278279, Note_on_c, 7, 80, 0
9, 278280, Note_on_c, 7, 79, 48
9, 278280, Note_on_c, 7, 63, 48
9, 278339, Note_on_c, 7, 79, 0
9, 278340, Note_on_c, 7, 79, 48
9, 278399, Note_on_c, 7, 63, 0
9, 278400, Note_on_c, 7, 78, 48
9, 278400, Note_on_c, 7, 67, 48
9, 278409, Note_on_c, 7, 79, 0
9, 278459, Note_on_c, 7, 67, 0
9, 278460, Note_on_c, 7, 79, 48
9, 278469, Note_on_c, 7, 78, 0
9, 278520, Note_on_c, 7, 80, 48
9, 278529, Note_on_c, 7, 79, 0
9, 278580, Note_on_c, 7, 79, 48
9, 278589, Note_on_c, 7, 80, 0
9, 278639, Note_on_c, 7, 79, 0
9, 278700, Note_on_c, 7, 75, 48
9, 278760, Note_on_c, 7, 74, 48
9, 278760, Note_on_c, 7, 67, 48
9, 278769, Note_on_c, 7, 75, 0
9, 278819, Note_on_c, 7, 67, 0
9, 278820, Note_on_c, 7, 75, 48
9, 278829, Note_on_c, 7, 74, 0
9, 278880, Note_on_c, 7, 77, 48
9, 278889, Note_on_c, 7, 75, 0
9, 278940, Note_on_c, 7, 75, 48
9, 278949, Note_on_c, 7, 77, 0
9, 278999, Note_on_c, 7, 75, 0
9, 279060, Note_on_c, 7, 72, 48
9, 279120, Note_on_c, 7, 71, 48
9, 279120, Note_on_c, 7, 65, 48
9, 279129, Note_on_c, 7, 72, 0
9, 279179, Note_on_c, 7, 65, 0
9, 279180, Note_on_c, 7, 72, 48
9, 279189, Note_on_c, 7, 71, 0
9, 279240, Note_on_c, 7, 74, 48
9, 279249, Note_on_c, 7, 72, 0
9, 279300, Note_on_c, 7, 72, 48
9, 279309, Note_on_c, 7, 74, 0
9, 279359, Note_on_c, 7, 72, 0
9, 279420, Note_on_c, 7, 72, 48
9, 279480, Note_on_c, 7, 71, 48
9, 279480, Note_on_c, 7, 65, 48
9, 279489, Note_on_c, 7, 72, 0
9, 279539, Note_on_c, 7, 65, 0
9, 279540, Note_on_c, 7, 72, 48
9, 279549, Note_on_c, 7, 71, 0
9, 279600, Note_on_c, 7, 74, 48
9, 279609, Note_on_c, 7, 72, 0
9, 279660, Note_on_c, 7, 72, 48
9, 279669, Note_on_c, 7, 74, 0
9, 279719, Note_on_c, 7, 72, 0
9, 279780, Note_on_c, 7, 58, 49
9, 279780, Note_on_c, 7, 70, 49
9, 279840, Note_on_c, 7, 57, 50
9, 279840, Note_on_c, 7, 69, 50
9, 279849, Note_on_c, 7, 70, 0
9, 279849, Note_on_c, 7, 58, 0
9, 279900, Note_on_c, 7, 58, 51
9, 279900, Note_on_c, 7, 70, 51
9, 279909, Note_on_c, 7, 57, 0
9, 279909, Note_on_c, 7, 69, 0
9, 279960, Note_on_c, 7, 63, 52
9, 279960, Note_on_c, 7, 75, 52
9, 279969, Note_on_c, 7, 58, 0
9, 279969, Note_on_c, 7, 70, 0
9, 280020, Note_on_c, 7, 62, 53
9, 280020, Note_on_c, 7, 74, 53
9, 280029, Note_on_c, 7, 63, 0
9, 280029, Note_on_c, 7, 75, 0
9, 280079, Note_on_c, 7, 62, 0
9, 280079, Note_on_c, 7, 74, 0
9, 280080, Note_on_c, 7, 65, 54
9, 280080, Note_on_c, 7, 77, 54
9, 280140, Note_on_c, 7, 63, 55
9, 280140, Note_on_c, 7, 75, 55
9, 280149, Note_on_c, 7, 77, 0
9, 280149, Note_on_c, 7, 65, 0
9, 280200, Note_on_c, 7, 67, 56
9, 280200, Note_on_c, 7, 79, 56
9, 280209, Note_on_c, 7, 63, 0
9, 280209, Note_on_c, 7, 75, 0
9, 280260, Note_on_c, 7, 65, 57
9, 280260, Note_on_c, 7, 77, 57
9, 280269, Note_on_c, 7, 67, 0
9, 280269, Note_on_c, 7, 79, 0
9, 280320, Note_on_c, 7, 68, 58
9, 280320, Note_on_c, 7, 80, 58
9, 280329, Note_on_c, 7, 65, 0
9, 280329, Note_on_c, 7, 77, 0
9, 280380, Note_on_c, 7, 67, 59
9, 280380, Note_on_c, 7, 79, 59
9, 280389, Note_on_c, 7, 68, 0
9, 280389, Note_on_c, 7, 80, 0
9, 280440, Note_on_c, 7, 70, 60
9, 280440, Note_on_c, 7, 82, 60
9, 280449, Note_on_c, 7, 67, 0
9, 280449, Note_on_c, 7, 79, 0
9, 280500, Note_on_c, 7, 69, 61
9, 280500, Note_on_c, 7, 81, 61
9, 280509, Note_on_c, 7, 70, 0
9, 280509, Note_on_c, 7, 82, 0
9, 280560, Note_on_c, 7, 72, 62
9, 280560, Note_on_c, 7, 84, 62
9, 280569, Note_on_c, 7, 69, 0
9, 280569, Note_on_c, 7, 81, 0
9, 280620, Note_on_c, 7, 70, 63
9, 280620, Note_on_c, 7, 82, 63
9, 280629, Note_on_c, 7, 72, 0
9, 280629, Note_on_c, 7, 84, 0
9, 280680, Note_on_c, 7, 68, 64
9, 280680, Note_on_c, 7, 80, 64
9, 280689, Note_on_c, 7, 70, 0
9, 280689, Note_on_c, 7, 82, 0
9, 280740, Note_on_c, 7, 67, 65
9, 280740, Note_on_c, 7, 79, 65
9, 280749, Note_on_c, 7, 68, 0
9, 280749, Note_on_c, 7, 80, 0
9, 280800, Note_on_c, 7, 65, 48
9, 280800, Note_on_c, 7, 77, 48
9, 280809, Note_on_c, 7, 67, 0
9, 280809, Note_on_c, 7, 79, 0
9, 280860, Note_on_c, 7, 63, 48
9, 280860, Note_on_c, 7, 75, 48
9, 280869, Note_on_c, 7, 65, 0
9, 280869, Note_on_c, 7, 77, 0
9, 280920, Note_on_c, 7, 62, 48
9, 280920, Note_on_c, 7, 74, 48
9, 280929, Note_on_c, 7, 63, 0
9, 280929, Note_on_c, 7, 75, 0
9, 280980, Note_on_c, 7, 65, 48
9, 280980, Note_on_c, 7, 77, 48
9, 280989, Note_on_c, 7, 62, 0
9, 280989, Note_on_c, 7, 74, 0
9, 281040, Note_on_c, 7, 68, 48
9, 281040, Note_on_c, 7, 80, 48
9, 281049, Note_on_c, 7, 65, 0
9, 281049, Note_on_c, 7, 77, 0
9, 281100, Note_on_c, 7, 62, 48
9, 281100, Note_on_c, 7, 74, 48
9, 281109, Note_on_c, 7, 68, 0
9, 281109, Note_on_c, 7, 80, 0
9, 281159, Note_on_c, 7, 62, 0
9, 281159, Note_on_c, 7, 74, 0
9, 281160, Note_on_c, 7, 63, 48
9, 281160, Note_on_c, 7, 75, 48
9, 281189, Note_on_c, 7, 75, 0
9, 281219, Note_on_c, 7, 63, 0
9, 281220, Note_on_c, 7, 63, 48
9, 281220, Note_on_c, 7, 58, 48
9, 281250, Note_on_c, 7, 65, 48
9, 281259, Note_on_c, 7, 63, 0
9, 281280, Note_on_c, 7, 67, 48
9, 281280, Note_on_c, 7, 63, 48
9, 281289, Note_on_c, 7, 65, 0
9, 281289, Note_on_c, 7, 58, 0
9, 281309, Note_on_c, 7, 67, 0
9, 281340, Note_on_c, 7, 67, 48
9, 281340, Note_on_c, 7, 58, 48
9, 281349, Note_on_c, 7, 63, 0
9, 281370, Note_on_c, 7, 68, 48
9, 281379, Note_on_c, 7, 67, 0
9, 281400, Note_on_c, 7, 70, 48
9, 281400, Note_on_c, 7, 55, 48
9, 281409, Note_on_c, 7, 68, 0
9, 281409, Note_on_c, 7, 58, 0
9, 281429, Note_on_c, 7, 70, 0
9, 281460, Note_on_c, 7, 72, 48
9, 281460, Note_on_c, 7, 58, 48
9, 281469, Note_on_c, 7, 55, 0
9, 281490, Note_on_c, 7, 74, 48
9, 281499, Note_on_c, 7, 72, 0
9, 281519, Note_on_c, 7, 58, 0
9, 281520, Note_on_c, 7, 75, 48
9, 281520, Note_on_c, 7, 55, 48
9, 281529, Note_on_c, 7, 74, 0
9, 281549, Note_on_c, 7, 75, 0
9, 281580, Note_on_c, 7, 75, 48
9, 281580, Note_on_c, 7, 58, 48
9, 281589, Note_on_c, 7, 55, 0
9, 281610, Note_on_c, 7, 77, 48
9, 281619, Note_on_c, 7, 75, 0
9, 281640, Note_on_c, 7, 79, 48
9, 281640, Note_on_c, 7, 63, 48
9, 281649, Note_on_c, 7, 77, 0
9, 281649, Note_on_c, 7, 58, 0
9, 281669, Note_on_c, 7, 79, 0
9, 281700, Note_on_c, 7, 79, 48
9, 281700, Note_on_c, 7, 58, 48
9, 281709, Note_on_c, 7, 63, 0
9, 281730, Note_on_c, 7, 80, 48
9, 281739, Note_on_c, 7, 79, 0
9, 281760, Note_on_c, 7, 82, 48
9, 281760, Note_on_c, 7, 55, 48
9, 281769, Note_on_c, 7, 80, 0
9, 281769, Note_on_c, 7, 58, 0
9, 281789, Note_on_c, 7, 82, 0
9, 281820, Note_on_c, 7, 84, 48
9, 281820, Note_on_c, 7, 58, 48
9, 281829, Note_on_c, 7, 55, 0
9, 281850, Note_on_c, 7, 86, 48
9, 281859, Note_on_c, 7, 84, 0
9, 281879, Note_on_c, 7, 58, 0
9, 281880, Note_on_c, 7, 87, 64
9, 281880, Note_on_c, 7, 55, 48
9, 281889, Note_on_c, 7, 86, 0
9, 281909, Note_on_c, 7, 87, 0
9, 281940, Note_on_c, 7, 82, 48
9, 281940, Note_on_c, 7, 58, 48
9, 281949, Note_on_c, 7, 55, 0
9, 281970, Note_on_c, 7, 80, 48
9, 281979, Note_on_c, 7, 82, 0
9, 282000, Note_on_c, 7, 79, 48
9, 282000, Note_on_c, 7, 63, 48
9, 282009, Note_on_c, 7, 80, 0
9, 282009, Note_on_c, 7, 58, 0
9, 282029, Note_on_c, 7, 79, 0
9, 282060, Note_on_c, 7, 77, 48
9, 282060, Note_on_c, 7, 58, 48
9, 282069, Note_on_c, 7, 63, 0
9, 282089, Note_on_c, 7, 77, 0
9, 282120, Note_on_c, 7, 75, 48
9, 282120, Note_on_c, 7, 55, 48
9, 282129, Note_on_c, 7, 58, 0
9, 282149, Note_on_c, 7, 75, 0
9, 282180, Note_on_c, 7, 74, 48
9, 282180, Note_on_c, 7, 58, 48
9, 282189, Note_on_c, 7, 55, 0
9, 282209, Note_on_c, 7, 74, 0
9, 282239, Note_on_c, 7, 58, 0
9, 282240, Note_on_c, 7, 72, 48
9, 282240, Note_on_c, 7, 55, 48
9, 282269, Note_on_c, 7, 72, 0
9, 282300, Note_on_c, 7, 70, 48
9, 282300, Note_on_c, 7, 58, 48
9, 282309, Note_on_c, 7, 55, 0
9, 282329, Note_on_c, 7, 70, 0
9, 282360, Note_on_c, 7, 68, 48
9, 282360, Note_on_c, 7, 63, 48
9, 282369, Note_on_c, 7, 58, 0
9, 282389, Note_on_c, 7, 68, 0
9, 282420, Note_on_c, 7, 67, 48
9, 282420, Note_on_c, 7, 58, 48
9, 282429, Note_on_c, 7, 63, 0
9, 282449, Note_on_c, 7, 67, 0
9, 282480, Note_on_c, 7, 65, 48
9, 282480, Note_on_c, 7, 55, 48
9, 282489, Note_on_c, 7, 58, 0
9, 282509, Note_on_c, 7, 65, 0
9, 282540, Note_on_c, 7, 63, 48
9, 282540, Note_on_c, 7, 58, 48
9, 282549, Note_on_c, 7, 55, 0
9, 282569, Note_on_c, 7, 63, 0
9, 282599, Note_on_c, 7, 58, 0
9, 282600, Note_on_c, 7, 56, 48
9, 282660, Note_on_c, 7, 58, 48
9, 282669, Note_on_c, 7, 56, 0
9, 282690, Note_on_c, 7, 60, 48
9, 282720, Note_on_c, 7, 62, 48
9, 282720, Note_on_c, 7, 65, 48
9, 282729, Note_on_c, 7, 60, 0
9, 282729, Note_on_c, 7, 58, 0
9, 282749, Note_on_c, 7, 62, 0
9, 282780, Note_on_c, 7, 62, 48
9, 282780, Note_on_c, 7, 58, 48
9, 282789, Note_on_c, 7, 65, 0
9, 282810, Note_on_c, 7, 63, 48
9, 282819, Note_on_c, 7, 62, 0
9, 282840, Note_on_c, 7, 65, 48
9, 282840, Note_on_c, 7, 56, 48
9, 282849, Note_on_c, 7, 63, 0
9, 282849, Note_on_c, 7, 58, 0
9, 282869, Note_on_c, 7, 65, 0
9, 282900, Note_on_c, 7, 65, 48
9, 282900, Note_on_c, 7, 58, 48
9, 282909, Note_on_c, 7, 56, 0
9, 282930, Note_on_c, 7, 67, 48
9, 282939, Note_on_c, 7, 65, 0
9, 282959, Note_on_c, 7, 58, 0
9, 282960, Note_on_c, 7, 68, 48
9, 282960, Note_on_c, 7, 56, 48
9, 282969, Note_on_c, 7, 67, 0
9, 282989, Note_on_c, 7, 68, 0
9, 283020, Note_on_c, 7, 70, 48
9, 283020, Note_on_c, 7, 58, 48
9, 283029, Note_on_c, 7, 56, 0
9, 283050, Note_on_c, 7, 72, 48
9, 283059, Note_on_c, 7, 70, 0
9, 283080, Note_on_c, 7, 74, 48
9, 283080, Note_on_c, 7, 65, 48
9, 283089, Note_on_c, 7, 72, 0
9, 283089, Note_on_c, 7, 58, 0
9, 283109, Note_on_c, 7, 74, 0
9, 283140, Note_on_c, 7, 74, 48
9, 283140, Note_on_c, 7, 58, 48
9, 283149, Note_on_c, 7, 65, 0
9, 283170, Note_on_c, 7, 75, 48
9, 283179, Note_on_c, 7, 74, 0
9, 283200, Note_on_c, 7, 77, 48
9, 283200, Note_on_c, 7, 56, 48
9, 283209, Note_on_c, 7, 75, 0
9, 283209, Note_on_c, 7, 58, 0
9, 283229, Note_on_c, 7, 77, 0
9, 283260, Note_on_c, 7, 77, 48
9, 283260, Note_on_c, 7, 58, 48
9, 283269, Note_on_c, 7, 56, 0
9, 283290, Note_on_c, 7, 79, 48
9, 283299, Note_on_c, 7, 77, 0
9, 283319, Note_on_c, 7, 58, 0
9, 283320, Note_on_c, 7, 80, 64
9, 283320, Note_on_c, 7, 56, 48
9, 283329, Note_on_c, 7, 79, 0
9, 283349, Note_on_c, 7, 80, 0
9, 283380, Note_on_c, 7, 84, 48
9, 283380, Note_on_c, 7, 58, 48
9, 283389, Note_on_c, 7, 56, 0
9, 283410, Note_on_c, 7, 82, 48
9, 283419, Note_on_c, 7, 84, 0
9, 283440, Note_on_c, 7, 80, 48
9, 283440, Note_on_c, 7, 62, 48
9, 283449, Note_on_c, 7, 82, 0
9, 283449, Note_on_c, 7, 58, 0
9, 283469, Note_on_c, 7, 80, 0
9, 283500, Note_on_c, 7, 79, 48
9, 283500, Note_on_c, 7, 58, 48
9, 283509, Note_on_c, 7, 62, 0
9, 283529, Note_on_c, 7, 79, 0
9, 283560, Note_on_c, 7, 77, 48
9, 283560, Note_on_c, 7, 56, 48
9, 283569, Note_on_c, 7, 58, 0
9, 283589, Note_on_c, 7, 77, 0
9, 283620, Note_on_c, 7, 75, 48
9, 283620, Note_on_c, 7, 58, 48
9, 283629, Note_on_c, 7, 56, 0
9, 283649, Note_on_c, 7, 75, 0
9, 283679, Note_on_c, 7, 58, 0
9, 283680, Note_on_c, 7, 74, 48
9, 283680, Note_on_c, 7, 56, 48
9, 283709, Note_on_c, 7, 74, 0
9, 283740, Note_on_c, 7, 72, 48
9, 283740, Note_on_c, 7, 58, 48
9, 283749, Note_on_c, 7, 56, 0
9, 283769, Note_on_c, 7, 72, 0
9, 283800, Note_on_c, 7, 70, 48
9, 283800, Note_on_c, 7, 62, 48
9, 283809, Note_on_c, 7, 58, 0
9, 283829, Note_on_c, 7, 70, 0
9, 283860, Note_on_c, 7, 68, 48
9, 283860, Note_on_c, 7, 58, 48
9, 283869, Note_on_c, 7, 62, 0
9, 283889, Note_on_c, 7, 68, 0
9, 283920, Note_on_c, 7, 67, 48
9, 283920, Note_on_c, 7, 56, 48
9, 283929, Note_on_c, 7, 58, 0
9, 283949, Note_on_c, 7, 67, 0
9, 283980, Note_on_c, 7, 65, 48
9, 283980, Note_on_c, 7, 58, 48
9, 283989, Note_on_c, 7, 56, 0
9, 284009, Note_on_c, 7, 65, 0
9, 284039, Note_on_c, 7, 58, 0
9, 284040, Note_on_c, 7, 63, 48
9, 284040, Note_on_c, 7, 55, 48
9, 284069, Note_on_c, 7, 55, 0
9, 284100, Note_on_c, 7, 55, 48
9, 284130, Note_on_c, 7, 56, 48
9, 284139, Note_on_c, 7, 55, 0
9, 284159, Note_on_c, 7, 63, 0
9, 284160, Note_on_c, 7, 58, 48
9, 284160, Note_on_c, 7, 75, 48
9, 284169, Note_on_c, 7, 56, 0
9, 284189, Note_on_c, 7, 58, 0
9, 284220, Note_on_c, 7, 60, 48
9, 284250, Note_on_c, 7, 62, 48
9, 284259, Note_on_c, 7, 60, 0
9, 284280, Note_on_c, 7, 63, 48
9, 284280, Note_on_c, 7, 79, 48
9, 284289, Note_on_c, 7, 62, 0
9, 284289, Note_on_c, 7, 75, 0
9, 284309, Note_on_c, 7, 63, 0
9, 284340, Note_on_c, 7, 63, 48
9, 284370, Note_on_c, 7, 65, 48
9, 284379, Note_on_c, 7, 63, 0
9, 284400, Note_on_c, 7, 67, 48
9, 284400, Note_on_c, 7, 75, 48
9, 284409, Note_on_c, 7, 65, 0
9, 284409, Note_on_c, 7, 79, 0
9, 284429, Note_on_c, 7, 67, 0
9, 284460, Note_on_c, 7, 67, 48
9, 284490, Note_on_c, 7, 68, 48
9, 284499, Note_on_c, 7, 67, 0
9, 284520, Note_on_c, 7, 70, 48
9, 284529, Note_on_c, 7, 68, 0
9, 284549, Note_on_c, 7, 70, 0
9, 284580, Note_on_c, 7, 70, 48
9, 284610, Note_on_c, 7, 72, 48
9, 284619, Note_on_c, 7, 70, 0
9, 284640, Note_on_c, 7, 74, 48
9, 284640, Note_on_c, 7, 70, 48
9, 284649, Note_on_c, 7, 72, 0
9, 284649, Note_on_c, 7, 75, 0
9, 284669, Note_on_c, 7, 74, 0
9, 284700, Note_on_c, 7, 75, 48
9, 284730, Note_on_c, 7, 77, 48
9, 284739, Note_on_c, 7, 75, 0
9, 284759, Note_on_c, 7, 70, 0
9, 284760, Note_on_c, 7, 79, 64
9, 284760, Note_on_c, 7, 75, 48
9, 284769, Note_on_c, 7, 77, 0
9, 284789, Note_on_c, 7, 79, 0
9, 284820, Note_on_c, 7, 77, 48
9, 284849, Note_on_c, 7, 77, 0
9, 284879, Note_on_c, 7, 75, 0
9, 284880, Note_on_c, 7, 75, 48
9, 284880, Note_on_c, 7, 79, 48
9, 284909, Note_on_c, 7, 75, 0
9, 284940, Note_on_c, 7, 74, 48
9, 284969, Note_on_c, 7, 74, 0
9, 284999, Note_on_c, 7, 79, 0
9, 285000, Note_on_c, 7, 72, 48
9, 285000, Note_on_c, 7, 82, 48
9, 285029, Note_on_c, 7, 72, 0
9, 285059, Note_on_c, 7, 82, 0
9, 285060, Note_on_c, 7, 70, 48
9, 285089, Note_on_c, 7, 70, 0
9, 285120, Note_on_c, 7, 68, 48
9, 285120, Note_on_c, 7, 82, 48
9, 285149, Note_on_c, 7, 68, 0
9, 285180, Note_on_c, 7, 67, 48
9, 285209, Note_on_c, 7, 67, 0
9, 285240, Note_on_c, 7, 65, 48
9, 285269, Note_on_c, 7, 65, 0
9, 285300, Note_on_c, 7, 63, 48
9, 285329, Note_on_c, 7, 63, 0
9, 285360, Note_on_c, 7, 62, 48
9, 285389, Note_on_c, 7, 62, 0
9, 285420, Note_on_c, 7, 60, 48
9, 285449, Note_on_c, 7, 60, 0
9, 285479, Note_on_c, 7, 82, 0
9, 285480, Note_on_c, 7, 77, 48
9, 285540, Note_on_c, 7, 58, 48
9, 285570, Note_on_c, 7, 60, 48
9, 285579, Note_on_c, 7, 58, 0
9, 285600, Note_on_c, 7, 62, 48
9, 285609, Note_on_c, 7, 60, 0
9, 285629, Note_on_c, 7, 62, 0
9, 285660, Note_on_c, 7, 62, 48
9, 285690, Note_on_c, 7, 63, 48
9, 285699, Note_on_c, 7, 62, 0
9, 285720, Note_on_c, 7, 65, 48
9, 285720, Note_on_c, 7, 80, 48
9, 285729, Note_on_c, 7, 63, 0
9, 285729, Note_on_c, 7, 77, 0
9, 285749, Note_on_c, 7, 65, 0
9, 285780, Note_on_c, 7, 65, 48
9, 285810, Note_on_c, 7, 67, 48
9, 285819, Note_on_c, 7, 65, 0
9, 285840, Note_on_c, 7, 68, 48
9, 285840, Note_on_c, 7, 77, 48
9, 285849, Note_on_c, 7, 67, 0
9, 285849, Note_on_c, 7, 80, 0
9, 285869, Note_on_c, 7, 68, 0
9, 285900, Note_on_c, 7, 70, 48
9, 285930, Note_on_c, 7, 72, 48
9, 285939, Note_on_c, 7, 70, 0
9, 285960, Note_on_c, 7, 74, 48
9, 285969, Note_on_c, 7, 72, 0
9, 285989, Note_on_c, 7, 74, 0
9, 286020, Note_on_c, 7, 74, 48
9, 286050, Note_on_c, 7, 75, 48
9, 286059, Note_on_c, 7, 74, 0
9, 286079, Note_on_c, 7, 77, 0
9, 286080, Note_on_c, 7, 77, 48
9, 286080, Note_on_c, 7, 70, 48
9, 286089, Note_on_c, 7, 75, 0
9, 286109, Note_on_c, 7, 77, 0
9, 286140, Note_on_c, 7, 77, 48
9, 286170, Note_on_c, 7, 79, 48
9, 286179, Note_on_c, 7, 77, 0
9, 286199, Note_on_c, 7, 70, 0
9, 286200, Note_on_c, 7, 80, 48
9, 286200, Note_on_c, 7, 77, 48
9, 286209, Note_on_c, 7, 79, 0
9, 286229, Note_on_c, 7, 80, 0
9, 286260, Note_on_c, 7, 79, 48
9, 286289, Note_on_c, 7, 79, 0
9, 286319, Note_on_c, 7, 77, 0
9, 286320, Note_on_c, 7, 77, 48
9, 286320, Note_on_c, 7, 80, 48
9, 286349, Note_on_c, 7, 77, 0
9, 286380, Note_on_c, 7, 75, 48
9, 286409, Note_on_c, 7, 75, 0
9, 286439, Note_on_c, 7, 80, 0
9, 286440, Note_on_c, 7, 74, 48
9, 286440, Note_on_c, 7, 82, 48
9, 286469, Note_on_c, 7, 74, 0
9, 286499, Note_on_c, 7, 82, 0
9, 286500, Note_on_c, 7, 72, 48
9, 286529, Note_on_c, 7, 72, 0
9, 286560, Note_on_c, 7, 70, 48
9, 286560, Note_on_c, 7, 82, 48
9, 286589, Note_on_c, 7, 70, 0
9, 286620, Note_on_c, 7, 72, 48
9, 286649, Note_on_c, 7, 72, 0
9, 286680, Note_on_c, 7, 70, 48
9, 286709, Note_on_c, 7, 70, 0
9, 286740, Note_on_c, 7, 68, 48
9, 286769, Note_on_c, 7, 68, 0
9, 286800, Note_on_c, 7, 67, 48
9, 286829, Note_on_c, 7, 67, 0
9, 286860, Note_on_c, 7, 65, 48
9, 286889, Note_on_c, 7, 65, 0
9, 286920, Note_on_c, 7, 63, 48
9, 286949, Note_on_c, 7, 63, 0
9, 286979, Note_on_c, 7, 82, 0
9, 286980, Note_on_c, 7, 82, 49
9, 286980, Note_on_c, 7, 79, 49
9, 286980, Note_on_c, 7, 70, 49
9, 287099, Note_on_c, 7, 70, 0
9, 287099, Note_on_c, 7, 79, 0
9, 287099, Note_on_c, 7, 82, 0
9, 287100, Note_on_c, 7, 82, 51
9, 287100, Note_on_c, 7, 79, 51
9, 287100, Note_on_c, 7, 70, 51
9, 287219, Note_on_c, 7, 70, 0
9, 287219, Note_on_c, 7, 79, 0
9, 287219, Note_on_c, 7, 82, 0
9, 287220, Note_on_c, 7, 82, 53
9, 287220, Note_on_c, 7, 70, 53
9, 287220, Note_on_c, 7, 79, 53
9, 287339, Note_on_c, 7, 79, 0
9, 287339, Note_on_c, 7, 70, 0
9, 287339, Note_on_c, 7, 82, 0
9, 287340, Note_on_c, 7, 82, 55
9, 287340, Note_on_c, 7, 79, 55
9, 287340, Note_on_c, 7, 70, 55
9, 287459, Note_on_c, 7, 70, 0
9, 287459, Note_on_c, 7, 79, 0
9, 287459, Note_on_c, 7, 82, 0
9, 287460, Note_on_c, 7, 82, 57
9, 287460, Note_on_c, 7, 79, 57
9, 287460, Note_on_c, 7, 70, 57
9, 287579, Note_on_c, 7, 70, 0
9, 287579, Note_on_c, 7, 79, 0
9, 287579, Note_on_c, 7, 82, 0
9, 287580, Note_on_c, 7, 82, 59
9, 287580, Note_on_c, 7, 79, 59
9, 287580, Note_on_c, 7, 70, 59
9, 287699, Note_on_c, 7, 70, 0
9, 287699, Note_on_c, 7, 79, 0
9, 287699, Note_on_c, 7, 82, 0
9, 287700, Note_on_c, 7, 82, 61
9, 287700, Note_on_c, 7, 79, 61
9, 287700, Note_on_c, 7, 70, 61
9, 287819, Note_on_c, 7, 70, 0
9, 287819, Note_on_c, 7, 79, 0
9, 287819, Note_on_c, 7, 82, 0
9, 287820, Note_on_c, 7, 82, 63
9, 287820, Note_on_c, 7, 79, 63
9, 287820, Note_on_c, 7, 70, 63
9, 287939, Note_on_c, 7, 70, 0
9, 287939, Note_on_c, 7, 79, 0
9, 287939, Note_on_c, 7, 82, 0
9, 287940, Note_on_c, 7, 82, 65
9, 287940, Note_on_c, 7, 79, 65
9, 287940, Note_on_c, 7, 70, 65
9, 288059, Note_on_c, 7, 70, 0
9, 288059, Note_on_c, 7, 79, 0
9, 288059, Note_on_c, 7, 82, 0
9, 288060, Note_on_c, 7, 82, 67
9, 288060, Note_on_c, 7, 79, 67
9, 288060, Note_on_c, 7, 70, 67
9, 288179, Note_on_c, 7, 70, 0
9, 288179, Note_on_c, 7, 79, 0
9, 288179, Note_on_c, 7, 82, 0
9, 288180, Note_on_c, 7, 82, 69
9, 288180, Note_on_c, 7, 79, 69
9, 288180, Note_on_c, 7, 70, 69
9, 288299, Note_on_c, 7, 70, 0
9, 288299, Note_on_c, 7, 79, 0
9, 288299, Note_on_c, 7, 82, 0
9, 288300, Note_on_c, 7, 82, 71
9, 288300, Note_on_c, 7, 79, 71
9, 288300, Note_on_c, 7, 70, 71
9, 288360, Note_on_c, 7, 80, 72
9, 288369, Note_on_c, 7, 79, 0
9, 288419, Note_on_c, 7, 82, 0
9, 288419, Note_on_c, 7, 70, 0
9, 288419, Note_on_c, 7, 80, 0
9, 288420, Note_on_c, 7, 82, 73
9, 288420, Note_on_c, 7, 80, 73
9, 288420, Note_on_c, 7, 70, 73
9, 288539, Note_on_c, 7, 70, 0
9, 288539, Note_on_c, 7, 80, 0
9, 288539, Note_on_c, 7, 82, 0
9, 288540, Note_on_c, 7, 82, 75
9, 288540, Note_on_c, 7, 80, 75
9, 288540, Note_on_c, 7, 70, 75
9, 288659, Note_on_c, 7, 70, 0
9, 288659, Note_on_c, 7, 80, 0
9, 288659, Note_on_c, 7, 82, 0
9, 288660, Note_on_c, 7, 82, 77
9, 288660, Note_on_c, 7, 80, 77
9, 288660, Note_on_c, 7, 70, 77
9, 288779, Note_on_c, 7, 70, 0
9, 288779, Note_on_c, 7, 80, 0
9, 288779, Note_on_c, 7, 82, 0
9, 288780, Note_on_c, 7, 82, 79
9, 288780, Note_on_c, 7, 80, 79
9, 288780, Note_on_c, 7, 70, 79
9, 288899, Note_on_c, 7, 70, 0
9, 288899, Note_on_c, 7, 80, 0
9, 288899, Note_on_c, 7, 82, 0
9, 288900, Note_on_c, 7, 82, 81
9, 288900, Note_on_c, 7, 80, 81
9, 288900, Note_on_c, 7, 70, 81
9, 289019, Note_on_c, 7, 70, 0
9, 289019, Note_on_c, 7, 80, 0
9, 289019, Note_on_c, 7, 82, 0
9, 289020, Note_on_c, 7, 82, 83
9, 289020, Note_on_c, 7, 80, 83
9, 289020, Note_on_c, 7, 70, 83
9, 289139, Note_on_c, 7, 70, 0
9, 289139, Note_on_c, 7, 80, 0
9, 289139, Note_on_c, 7, 82, 0
9, 289140, Note_on_c, 7, 82, 85
9, 289140, Note_on_c, 7, 80, 85
9, 289140, Note_on_c, 7, 70, 85
9, 289259, Note_on_c, 7, 70, 0
9, 289259, Note_on_c, 7, 80, 0
9, 289259, Note_on_c, 7, 82, 0
9, 289260, Note_on_c, 7, 82, 87
9, 289260, Note_on_c, 7, 80, 87
9, 289260, Note_on_c, 7, 70, 87
9, 289379, Note_on_c, 7, 70, 0
9, 289379, Note_on_c, 7, 80, 0
9, 289379, Note_on_c, 7, 82, 0
9, 289380, Note_on_c, 7, 82, 89
9, 289380, Note_on_c, 7, 80, 89
9, 289380, Note_on_c, 7, 70, 89
9, 289499, Note_on_c, 7, 70, 0
9, 289499, Note_on_c, 7, 80, 0
9, 289499, Note_on_c, 7, 82, 0
9, 289500, Note_on_c, 7, 82, 91
9, 289500, Note_on_c, 7, 70, 91
9, 289559, Note_on_c, 7, 70, 0
9, 289559, Note_on_c, 7, 82, 0
9, 289560, Note_on_c, 7, 84, 92
9, 289560, Note_on_c, 7, 72, 92
9, 289619, Note_on_c, 7, 72, 0
9, 289619, Note_on_c, 7, 84, 0
9, 289620, Note_on_c, 7, 84, 93
9, 289620, Note_on_c, 7, 72, 93
9, 289679, Note_on_c, 7, 72, 0
9, 289679, Note_on_c, 7, 84, 0
9, 289680, Note_on_c, 7, 86, 94
9, 289680, Note_on_c, 7, 74, 94
9, 289739, Note_on_c, 7, 74, 0
9, 289739, Note_on_c, 7, 86, 0
9, 289740, Note_on_c, 7, 86, 95
9, 289740, Note_on_c, 7, 74, 95
9, 289799, Note_on_c, 7, 74, 0
9, 289799, Note_on_c, 7, 86, 0
9, 289800, Note_on_c, 7, 75, 96
9, 289829, Note_on_c, 7, 75, 0
9, 289830, Note_on_c, 7, 87, 96
9, 289830, Note_on_c, 7, 75, 96
9, 289830, Note_on_c, 7, 79, 96
9, 289830, Note_on_c, 7, 70, 96
9, 289859, Note_on_c, 7, 70, 0
9, 289859, Note_on_c, 7, 87, 0
9, 289859, Note_on_c, 7, 75, 0
9, 289859, Note_on_c, 7, 79, 0
9, 289860, Note_on_c, 7, 87, 96
9, 289860, Note_on_c, 7, 75, 96
9, 289860, Note_on_c, 7, 79, 96
9, 289860, Note_on_c, 7, 70, 96
9, 289889, Note_on_c, 7, 70, 0
9, 289889, Note_on_c, 7, 87, 0
9, 289889, Note_on_c, 7, 75, 0
9, 289889, Note_on_c, 7, 79, 0
9, 289890, Note_on_c, 7, 87, 96
9, 289890, Note_on_c, 7, 75, 96
9, 289890, Note_on_c, 7, 79, 96
9, 289890, Note_on_c, 7, 70, 96
9, 289919, Note_on_c, 7, 70, 0
9, 289919, Note_on_c, 7, 87, 0
9, 289919, Note_on_c, 7, 75, 0
9, 289919, Note_on_c, 7, 79, 0
9, 289920, Note_on_c, 7, 87, 96
9, 289920, Note_on_c, 7, 75, 96
9, 289920, Note_on_c, 7, 79, 96
9, 289920, Note_on_c, 7, 70, 96
9, 289949, Note_on_c, 7, 70, 0
9, 289949, Note_on_c, 7, 87, 0
9, 289949, Note_on_c, 7, 75, 0
9, 289949, Note_on_c, 7, 79, 0
9, 289950, Note_on_c, 7, 87, 96
9, 289950, Note_on_c, 7, 75, 96
9, 289950, Note_on_c, 7, 79, 96
9, 289950, Note_on_c, 7, 70, 96
9, 289979, Note_on_c, 7, 70, 0
9, 289979, Note_on_c, 7, 87, 0
9, 289979, Note_on_c, 7, 75, 0
9, 289979, Note_on_c, 7, 79, 0
9, 289980, Note_on_c, 7, 87, 96
9, 289980, Note_on_c, 7, 75, 96
9, 289980, Note_on_c, 7, 79, 96
9, 289980, Note_on_c, 7, 70, 96
9, 290009, Note_on_c, 7, 70, 0
9, 290009, Note_on_c, 7, 87, 0
9, 290009, Note_on_c, 7, 75, 0
9, 290009, Note_on_c, 7, 79, 0
9, 290010, Note_on_c, 7, 87, 96
9, 290010, Note_on_c, 7, 75, 96
9, 290010, Note_on_c, 7, 79, 96
9, 290010, Note_on_c, 7, 70, 96
9, 290039, Note_on_c, 7, 70, 0
9, 290039, Note_on_c, 7, 87, 0
9, 290039, Note_on_c, 7, 75, 0
9, 290039, Note_on_c, 7, 79, 0
9, 290040, Note_on_c, 7, 87, 96
9, 290040, Note_on_c, 7, 75, 96
9, 290040, Note_on_c, 7, 79, 96
9, 290040, Note_on_c, 7, 70, 96
9, 290069, Note_on_c, 7, 70, 0
9, 290069, Note_on_c, 7, 87, 0
9, 290069, Note_on_c, 7, 75, 0
9, 290069, Note_on_c, 7, 79, 0
9, 290070, Note_on_c, 7, 87, 96
9, 290070, Note_on_c, 7, 75, 96
9, 290070, Note_on_c, 7, 79, 96
9, 290070, Note_on_c, 7, 70, 96
9, 290099, Note_on_c, 7, 70, 0
9, 290099, Note_on_c, 7, 87, 0
9, 290099, Note_on_c, 7, 75, 0
9, 290099, Note_on_c, 7, 79, 0
9, 290100, Note_on_c, 7, 87, 96
9, 290100, Note_on_c, 7, 75, 96
9, 290100, Note_on_c, 7, 79, 96
9, 290100, Note_on_c, 7, 70, 96
9, 290129, Note_on_c, 7, 70, 0
9, 290129, Note_on_c, 7, 87, 0
9, 290129, Note_on_c, 7, 75, 0
9, 290129, Note_on_c, 7, 79, 0
9, 290130, Note_on_c, 7, 87, 96
9, 290130, Note_on_c, 7, 75, 96
9, 290130, Note_on_c, 7, 79, 96
9, 290130, Note_on_c, 7, 70, 96
9, 290159, Note_on_c, 7, 70, 0
9, 290159, Note_on_c, 7, 87, 0
9, 290159, Note_on_c, 7, 75, 0
9, 290159, Note_on_c, 7, 79, 0
9, 290160, Note_on_c, 7, 87, 96
9, 290160, Note_on_c, 7, 75, 96
9, 290160, Note_on_c, 7, 79, 96
9, 290160, Note_on_c, 7, 70, 96
9, 290189, Note_on_c, 7, 70, 0
9, 290189, Note_on_c, 7, 87, 0
9, 290189, Note_on_c, 7, 75, 0
9, 290189, Note_on_c, 7, 79, 0
9, 290190, Note_on_c, 7, 87, 96
9, 290190, Note_on_c, 7, 75, 96
9, 290190, Note_on_c, 7, 79, 96
9, 290190, Note_on_c, 7, 70, 96
9, 290219, Note_on_c, 7, 70, 0
9, 290219, Note_on_c, 7, 87, 0
9, 290219, Note_on_c, 7, 75, 0
9, 290219, Note_on_c, 7, 79, 0
9, 290220, Note_on_c, 7, 87, 96
9, 290220, Note_on_c, 7, 75, 96
9, 290220, Note_on_c, 7, 79, 96
9, 290220, Note_on_c, 7, 70, 96
9, 290249, Note_on_c, 7, 70, 0
9, 290249, Note_on_c, 7, 87, 0
9, 290249, Note_on_c, 7, 75, 0
9, 290249, Note_on_c, 7, 79, 0
9, 290250, Note_on_c, 7, 87, 96
9, 290250, Note_on_c, 7, 75, 96
9, 290250, Note_on_c, 7, 79, 96
9, 290250, Note_on_c, 7, 70, 96
9, 290279, Note_on_c, 7, 70, 0
9, 290279, Note_on_c, 7, 87, 0
9, 290279, Note_on_c, 7, 75, 0
9, 290279, Note_on_c, 7, 79, 0
9, 290280, Note_on_c, 7, 87, 96
9, 290280, Note_on_c, 7, 75, 96
9, 290280, Note_on_c, 7, 79, 96
9, 290280, Note_on_c, 7, 70, 96
9, 290309, Note_on_c, 7, 70, 0
9, 290309, Note_on_c, 7, 87, 0
9, 290309, Note_on_c, 7, 75, 0
9, 290309, Note_on_c, 7, 79, 0
9, 290310, Note_on_c, 7, 87, 96
9, 290310, Note_on_c, 7, 75, 96
9, 290310, Note_on_c, 7, 79, 96
9, 290310, Note_on_c, 7, 70, 96
9, 290339, Note_on_c, 7, 70, 0
9, 290339, Note_on_c, 7, 87, 0
9, 290339, Note_on_c, 7, 75, 0
9, 290339, Note_on_c, 7, 79, 0
9, 290340, Note_on_c, 7, 87, 96
9, 290340, Note_on_c, 7, 75, 96
9, 290340, Note_on_c, 7, 79, 96
9, 290340, Note_on_c, 7, 70, 96
9, 290369, Note_on_c, 7, 70, 0
9, 290369, Note_on_c, 7, 87, 0
9, 290369, Note_on_c, 7, 75, 0
9, 290369, Note_on_c, 7, 79, 0
9, 290370, Note_on_c, 7, 87, 96
9, 290370, Note_on_c, 7, 75, 96
9, 290370, Note_on_c, 7, 79, 96
9, 290370, Note_on_c, 7, 70, 96
9, 290399, Note_on_c, 7, 70, 0
9, 290399, Note_on_c, 7, 87, 0
9, 290399, Note_on_c, 7, 75, 0
9, 290399, Note_on_c, 7, 79, 0
9, 290400, Note_on_c, 7, 87, 96
9, 290400, Note_on_c, 7, 75, 96
9, 290400, Note_on_c, 7, 79, 96
9, 290400, Note_on_c, 7, 70, 96
9, 290429, Note_on_c, 7, 70, 0
9, 290429, Note_on_c, 7, 87, 0
9, 290429, Note_on_c, 7, 75, 0
9, 290429, Note_on_c, 7, 79, 0
9, 290430, Note_on_c, 7, 87, 96
9, 290430, Note_on_c, 7, 75, 96
9, 290430, Note_on_c, 7, 79, 96
9, 290430, Note_on_c, 7, 70, 96
9, 290459, Note_on_c, 7, 70, 0
9, 290459, Note_on_c, 7, 87, 0
9, 290459, Note_on_c, 7, 75, 0
9, 290459, Note_on_c, 7, 79, 0
9, 290460, Note_on_c, 7, 87, 96
9, 290460, Note_on_c, 7, 75, 96
9, 290460, Note_on_c, 7, 79, 96
9, 290460, Note_on_c, 7, 70, 96
9, 290489, Note_on_c, 7, 70, 0
9, 290489, Note_on_c, 7, 87, 0
9, 290489, Note_on_c, 7, 75, 0
9, 290489, Note_on_c, 7, 79, 0
9, 290490, Note_on_c, 7, 87, 96
9, 290490, Note_on_c, 7, 75, 96
9, 290490, Note_on_c, 7, 79, 96
9, 290490, Note_on_c, 7, 70, 96
9, 290519, Note_on_c, 7, 70, 0
9, 290519, Note_on_c, 7, 87, 0
9, 290519, Note_on_c, 7, 75, 0
9, 290519, Note_on_c, 7, 79, 0
9, 290520, Note_on_c, 7, 87, 96
9, 290520, Note_on_c, 7, 75, 96
9, 290520, Note_on_c, 7, 79, 96
9, 290520, Note_on_c, 7, 70, 96
9, 290549, Note_on_c, 7, 70, 0
9, 290549, Note_on_c, 7, 87, 0
9, 290549, Note_on_c, 7, 75, 0
9, 290549, Note_on_c, 7, 79, 0
9, 290550, Note_on_c, 7, 87, 96
9, 290550, Note_on_c, 7, 75, 96
9, 290550, Note_on_c, 7, 79, 96
9, 290550, Note_on_c, 7, 70, 96
9, 290579, Note_on_c, 7, 70, 0
9, 290579, Note_on_c, 7, 87, 0
9, 290579, Note_on_c, 7, 75, 0
9, 290579, Note_on_c, 7, 79, 0
9, 290580, Note_on_c, 7, 87, 96
9, 290580, Note_on_c, 7, 75, 96
9, 290580, Note_on_c, 7, 79, 96
9, 290580, Note_on_c, 7, 70, 96
9, 290609, Note_on_c, 7, 70, 0
9, 290609, Note_on_c, 7, 87, 0
9, 290609, Note_on_c, 7, 75, 0
9, 290609, Note_on_c, 7, 79, 0
9, 290610, Note_on_c, 7, 87, 96
9, 290610, Note_on_c, 7, 75, 96
9, 290610, Note_on_c, 7, 79, 96
9, 290610, Note_on_c, 7, 70, 96
9, 290639, Note_on_c, 7, 70, 0
9, 290639, Note_on_c, 7, 87, 0
9, 290639, Note_on_c, 7, 75, 0
9, 290639, Note_on_c, 7, 79, 0
9, 290640, Note_on_c, 7, 87, 96
9, 290640, Note_on_c, 7, 75, 96
9, 290640, Note_on_c, 7, 79, 96
9, 290640, Note_on_c, 7, 70, 96
9, 290669, Note_on_c, 7, 70, 0
9, 290669, Note_on_c, 7, 87, 0
9, 290669, Note_on_c, 7, 75, 0
9, 290669, Note_on_c, 7, 79, 0
9, 290670, Note_on_c, 7, 87, 96
9, 290670, Note_on_c, 7, 75, 96
9, 290670, Note_on_c, 7, 79, 96
9, 290670, Note_on_c, 7, 70, 96
9, 290699, Note_on_c, 7, 70, 0
9, 290699, Note_on_c, 7, 87, 0
9, 290699, Note_on_c, 7, 75, 0
9, 290699, Note_on_c, 7, 79, 0
9, 290700, Note_on_c, 7, 87, 96
9, 290700, Note_on_c, 7, 75, 96
9, 290700, Note_on_c, 7, 79, 96
9, 290700, Note_on_c, 7, 70, 96
9, 290729, Note_on_c, 7, 70, 0
9, 290729, Note_on_c, 7, 87, 0
9, 290729, Note_on_c, 7, 75, 0
9, 290729, Note_on_c, 7, 79, 0
9, 290730, Note_on_c, 7, 87, 96
9, 290730, Note_on_c, 7, 75, 96
9, 290730, Note_on_c, 7, 79, 96
9, 290730, Note_on_c, 7, 70, 96
9, 290759, Note_on_c, 7, 70, 0
9, 290759, Note_on_c, 7, 87, 0
9, 290759, Note_on_c, 7, 75, 0
9, 290759, Note_on_c, 7, 79, 0
9, 290760, Note_on_c, 7, 87, 96
9, 290760, Note_on_c, 7, 75, 96
9, 290760, Note_on_c, 7, 79, 96
9, 290760, Note_on_c, 7, 70, 96
9, 290789, Note_on_c, 7, 70, 0
9, 290789, Note_on_c, 7, 87, 0
9, 290789, Note_on_c, 7, 75, 0
9, 290789, Note_on_c, 7, 79, 0
9, 290790, Note_on_c, 7, 87, 96
9, 290790, Note_on_c, 7, 75, 96
9, 290790, Note_on_c, 7, 79, 96
9, 290790, Note_on_c, 7, 70, 96
9, 290819, Note_on_c, 7, 70, 0
9, 290819, Note_on_c, 7, 87, 0
9, 290819, Note_on_c, 7, 75, 0
9, 290819, Note_on_c, 7, 79, 0
9, 290820, Note_on_c, 7, 87, 96
9, 290820, Note_on_c, 7, 75, 96
9, 290820, Note_on_c, 7, 79, 96
9, 290820, Note_on_c, 7, 70, 96
9, 290849, Note_on_c, 7, 70, 0
9, 290849, Note_on_c, 7, 87, 0
9, 290849, Note_on_c, 7, 75, 0
9, 290849, Note_on_c, 7, 79, 0
9, 290850, Note_on_c, 7, 87, 96
9, 290850, Note_on_c, 7, 75, 96
9, 290850, Note_on_c, 7, 79, 96
9, 290850, Note_on_c, 7, 70, 96
9, 290879, Note_on_c, 7, 70, 0
9, 290879, Note_on_c, 7, 87, 0
9, 290879, Note_on_c, 7, 75, 0
9, 290879, Note_on_c, 7, 79, 0
9, 290880, Note_on_c, 7, 87, 96
9, 290880, Note_on_c, 7, 75, 96
9, 290880, Note_on_c, 7, 79, 96
9, 290880, Note_on_c, 7, 70, 96
9, 290909, Note_on_c, 7, 70, 0
9, 290909, Note_on_c, 7, 87, 0
9, 290909, Note_on_c, 7, 75, 0
9, 290909, Note_on_c, 7, 79, 0
9, 290910, Note_on_c, 7, 87, 96
9, 290910, Note_on_c, 7, 75, 96
9, 290910, Note_on_c, 7, 79, 96
9, 290910, Note_on_c, 7, 70, 96
9, 290939, Note_on_c, 7, 70, 0
9, 290939, Note_on_c, 7, 87, 0
9, 290939, Note_on_c, 7, 75, 0
9, 290939, Note_on_c, 7, 79, 0
9, 290940, Note_on_c, 7, 87, 96
9, 290940, Note_on_c, 7, 75, 96
9, 290940, Note_on_c, 7, 79, 96
9, 290940, Note_on_c, 7, 70, 96
9, 290969, Note_on_c, 7, 70, 0
9, 290969, Note_on_c, 7, 87, 0
9, 290969, Note_on_c, 7, 75, 0
9, 290969, Note_on_c, 7, 79, 0
9, 290970, Note_on_c, 7, 87, 96
9, 290970, Note_on_c, 7, 75, 96
9, 290970, Note_on_c, 7, 79, 96
9, 290970, Note_on_c, 7, 70, 96
9, 290999, Note_on_c, 7, 70, 0
9, 290999, Note_on_c, 7, 87, 0
9, 290999, Note_on_c, 7, 75, 0
9, 290999, Note_on_c, 7, 79, 0
9, 291000, Note_on_c, 7, 87, 96
9, 291000, Note_on_c, 7, 75, 96
9, 291000, Note_on_c, 7, 79, 96
9, 291000, Note_on_c, 7, 70, 96
9, 291029, Note_on_c, 7, 70, 0
9, 291029, Note_on_c, 7, 87, 0
9, 291029, Note_on_c, 7, 75, 0
9, 291029, Note_on_c, 7, 79, 0
9, 291030, Note_on_c, 7, 87, 96
9, 291030, Note_on_c, 7, 75, 96
9, 291030, Note_on_c, 7, 79, 96
9, 291030, Note_on_c, 7, 70, 96
9, 291059, Note_on_c, 7, 70, 0
9, 291059, Note_on_c, 7, 87, 0
9, 291059, Note_on_c, 7, 75, 0
9, 291059, Note_on_c, 7, 79, 0
9, 291060, Note_on_c, 7, 87, 96
9, 291060, Note_on_c, 7, 75, 96
9, 291060, Note_on_c, 7, 79, 96
9, 291060, Note_on_c, 7, 70, 96
9, 291089, Note_on_c, 7, 70, 0
9, 291089, Note_on_c, 7, 87, 0
9, 291089, Note_on_c, 7, 75, 0
9, 291089, Note_on_c, 7, 79, 0
9, 291090, Note_on_c, 7, 87, 96
9, 291090, Note_on_c, 7, 75, 96
9, 291090, Note_on_c, 7, 79, 96
9, 291090, Note_on_c, 7, 70, 96
9, 291119, Note_on_c, 7, 70, 0
9, 291119, Note_on_c, 7, 87, 0
9, 291119, Note_on_c, 7, 75, 0
9, 291119, Note_on_c, 7, 79, 0
9, 291120, Note_on_c, 7, 87, 96
9, 291120, Note_on_c, 7, 75, 96
9, 291120, Note_on_c, 7, 79, 96
9, 291120, Note_on_c, 7, 70, 96
9, 291149, Note_on_c, 7, 70, 0
9, 291149, Note_on_c, 7, 87, 0
9, 291149, Note_on_c, 7, 75, 0
9, 291149, Note_on_c, 7, 79, 0
9, 291150, Note_on_c, 7, 87, 96
9, 291150, Note_on_c, 7, 75, 96
9, 291150, Note_on_c, 7, 79, 96
9, 291150, Note_on_c, 7, 70, 96
9, 291179, Note_on_c, 7, 70, 0
9, 291179, Note_on_c, 7, 87, 0
9, 291179, Note_on_c, 7, 75, 0
9, 291179, Note_on_c, 7, 79, 0
9, 291180, Note_on_c, 7, 87, 96
9, 291180, Note_on_c, 7, 75, 96
9, 291180, Note_on_c, 7, 79, 96
9, 291180, Note_on_c, 7, 70, 96
9, 291209, Note_on_c, 7, 70, 0
9, 291209, Note_on_c, 7, 87, 0
9, 291209, Note_on_c, 7, 75, 0
9, 291209, Note_on_c, 7, 79, 0
9, 291210, Note_on_c, 7, 87, 96
9, 291210, Note_on_c, 7, 75, 96
9, 291210, Note_on_c, 7, 79, 96
9, 291210, Note_on_c, 7, 70, 96
9, 291239, Note_on_c, 7, 70, 0
9, 291239, Note_on_c, 7, 87, 0
9, 291239, Note_on_c, 7, 75, 0
9, 291239, Note_on_c, 7, 79, 0
9, 291240, Note_on_c, 7, 86, 96
9, 291240, Note_on_c, 7, 74, 96
9, 291240, Note_on_c, 7, 80, 96
9, 291240, Note_on_c, 7, 70, 96
9, 291269, Note_on_c, 7, 70, 0
9, 291269, Note_on_c, 7, 86, 0
9, 291269, Note_on_c, 7, 74, 0
9, 291269, Note_on_c, 7, 80, 0
9, 291270, Note_on_c, 7, 86, 96
9, 291270, Note_on_c, 7, 74, 96
9, 291270, Note_on_c, 7, 80, 96
9, 291270, Note_on_c, 7, 70, 96
9, 291299, Note_on_c, 7, 70, 0
9, 291299, Note_on_c, 7, 86, 0
9, 291299, Note_on_c, 7, 74, 0
9, 291299, Note_on_c, 7, 80, 0
9, 291300, Note_on_c, 7, 86, 96
9, 291300, Note_on_c, 7, 74, 96
9, 291300, Note_on_c, 7, 80, 96
9, 291300, Note_on_c, 7, 70, 96
9, 291329, Note_on_c, 7, 70, 0
9, 291329, Note_on_c, 7, 86, 0
9, 291329, Note_on_c, 7, 74, 0
9, 291329, Note_on_c, 7, 80, 0
9, 291330, Note_on_c, 7, 86, 96
9, 291330, Note_on_c, 7, 74, 96
9, 291330, Note_on_c, 7, 80, 96
9, 291330, Note_on_c, 7, 70, 96
9, 291359, Note_on_c, 7, 70, 0
9, 291359, Note_on_c, 7, 86, 0
9, 291359, Note_on_c, 7, 74, 0
9, 291359, Note_on_c, 7, 80, 0
9, 291360, Note_on_c, 7, 86, 96
9, 291360, Note_on_c, 7, 74, 96
9, 291360, Note_on_c, 7, 80, 96
9, 291360, Note_on_c, 7, 70, 96
9, 291389, Note_on_c, 7, 70, 0
9, 291389, Note_on_c, 7, 86, 0
9, 291389, Note_on_c, 7, 74, 0
9, 291389, Note_on_c, 7, 80, 0
9, 291390, Note_on_c, 7, 86, 96
9, 291390, Note_on_c, 7, 74, 96
9, 291390, Note_on_c, 7, 80, 96
9, 291390, Note_on_c, 7, 70, 96
9, 291419, Note_on_c, 7, 70, 0
9, 291419, Note_on_c, 7, 86, 0
9, 291419, Note_on_c, 7, 74, 0
9, 291419, Note_on_c, 7, 80, 0
9, 291420, Note_on_c, 7, 86, 96
9, 291420, Note_on_c, 7, 74, 96
9, 291420, Note_on_c, 7, 80, 96
9, 291420, Note_on_c, 7, 70, 96
9, 291449, Note_on_c, 7, 70, 0
9, 291449, Note_on_c, 7, 86, 0
9, 291449, Note_on_c, 7, 74, 0
9, 291449, Note_on_c, 7, 80, 0
9, 291450, Note_on_c, 7, 86, 96
9, 291450, Note_on_c, 7, 74, 96
9, 291450, Note_on_c, 7, 80, 96
9, 291450, Note_on_c, 7, 70, 96
9, 291479, Note_on_c, 7, 70, 0
9, 291479, Note_on_c, 7, 86, 0
9, 291479, Note_on_c, 7, 74, 0
9, 291479, Note_on_c, 7, 80, 0
9, 291480, Note_on_c, 7, 86, 96
9, 291480, Note_on_c, 7, 74, 96
9, 291480, Note_on_c, 7, 80, 96
9, 291480, Note_on_c, 7, 70, 96
9, 291509, Note_on_c, 7, 70, 0
9, 291509, Note_on_c, 7, 86, 0
9, 291509, Note_on_c, 7, 74, 0
9, 291509, Note_on_c, 7, 80, 0
9, 291510, Note_on_c, 7, 86, 96
9, 291510, Note_on_c, 7, 74, 96
9, 291510, Note_on_c, 7, 80, 96
9, 291510, Note_on_c, 7, 70, 96
9, 291539, Note_on_c, 7, 70, 0
9, 291539, Note_on_c, 7, 86, 0
9, 291539, Note_on_c, 7, 74, 0
9, 291539, Note_on_c, 7, 80, 0
9, 291540, Note_on_c, 7, 86, 96
9, 291540, Note_on_c, 7, 74, 96
9, 291540, Note_on_c, 7, 80, 96
9, 291540, Note_on_c, 7, 70, 96
9, 291569, Note_on_c, 7, 70, 0
9, 291569, Note_on_c, 7, 86, 0
9, 291569, Note_on_c, 7, 74, 0
9, 291569, Note_on_c, 7, 80, 0
9, 291570, Note_on_c, 7, 86, 96
9, 291570, Note_on_c, 7, 74, 96
9, 291570, Note_on_c, 7, 80, 96
9, 291570, Note_on_c, 7, 70, 96
9, 291599, Note_on_c, 7, 70, 0
9, 291599, Note_on_c, 7, 86, 0
9, 291599, Note_on_c, 7, 74, 0
9, 291599, Note_on_c, 7, 80, 0
9, 291600, Note_on_c, 7, 86, 96
9, 291600, Note_on_c, 7, 74, 96
9, 291600, Note_on_c, 7, 80, 96
9, 291600, Note_on_c, 7, 70, 96
9, 291629, Note_on_c, 7, 70, 0
9, 291629, Note_on_c, 7, 86, 0
9, 291629, Note_on_c, 7, 74, 0
9, 291629, Note_on_c, 7, 80, 0
9, 291630, Note_on_c, 7, 86, 96
9, 291630, Note_on_c, 7, 74, 96
9, 291630, Note_on_c, 7, 80, 96
9, 291630, Note_on_c, 7, 70, 96
9, 291659, Note_on_c, 7, 70, 0
9, 291659, Note_on_c, 7, 86, 0
9, 291659, Note_on_c, 7, 74, 0
9, 291659, Note_on_c, 7, 80, 0
9, 291660, Note_on_c, 7, 86, 96
9, 291660, Note_on_c, 7, 74, 96
9, 291660, Note_on_c, 7, 80, 96
9, 291660, Note_on_c, 7, 70, 96
9, 291689, Note_on_c, 7, 70, 0
9, 291689, Note_on_c, 7, 86, 0
9, 291689, Note_on_c, 7, 74, 0
9, 291689, Note_on_c, 7, 80, 0
9, 291690, Note_on_c, 7, 86, 96
9, 291690, Note_on_c, 7, 74, 96
9, 291690, Note_on_c, 7, 80, 96
9, 291690, Note_on_c, 7, 70, 96
9, 291719, Note_on_c, 7, 70, 0
9, 291719, Note_on_c, 7, 86, 0
9, 291719, Note_on_c, 7, 74, 0
9, 291719, Note_on_c, 7, 80, 0
9, 291720, Note_on_c, 7, 86, 96
9, 291720, Note_on_c, 7, 74, 96
9, 291720, Note_on_c, 7, 80, 96
9, 291720, Note_on_c, 7, 70, 96
9, 291749, Note_on_c, 7, 70, 0
9, 291749, Note_on_c, 7, 86, 0
9, 291749, Note_on_c, 7, 74, 0
9, 291749, Note_on_c, 7, 80, 0
9, 291750, Note_on_c, 7, 86, 96
9, 291750, Note_on_c, 7, 74, 96
9, 291750, Note_on_c, 7, 80, 96
9, 291750, Note_on_c, 7, 70, 96
9, 291779, Note_on_c, 7, 70, 0
9, 291779, Note_on_c, 7, 86, 0
9, 291779, Note_on_c, 7, 74, 0
9, 291779, Note_on_c, 7, 80, 0
9, 291780, Note_on_c, 7, 86, 96
9, 291780, Note_on_c, 7, 74, 96
9, 291780, Note_on_c, 7, 80, 96
9, 291780, Note_on_c, 7, 70, 96
9, 291809, Note_on_c, 7, 70, 0
9, 291809, Note_on_c, 7, 86, 0
9, 291809, Note_on_c, 7, 74, 0
9, 291809, Note_on_c, 7, 80, 0
9, 291810, Note_on_c, 7, 86, 96
9, 291810, Note_on_c, 7, 74, 96
9, 291810, Note_on_c, 7, 80, 96
9, 291810, Note_on_c, 7, 70, 96
9, 291839, Note_on_c, 7, 70, 0
9, 291839, Note_on_c, 7, 86, 0
9, 291839, Note_on_c, 7, 74, 0
9, 291839, Note_on_c, 7, 80, 0
9, 291840, Note_on_c, 7, 86, 96
9, 291840, Note_on_c, 7, 74, 96
9, 291840, Note_on_c, 7, 80, 96
9, 291840, Note_on_c, 7, 70, 96
9, 291869, Note_on_c, 7, 70, 0
9, 291869, Note_on_c, 7, 86, 0
9, 291869, Note_on_c, 7, 74, 0
9, 291869, Note_on_c, 7, 80, 0
9, 291870, Note_on_c, 7, 86, 96
9, 291870, Note_on_c, 7, 74, 96
9, 291870, Note_on_c, 7, 80, 96
9, 291870, Note_on_c, 7, 70, 96
9, 291899, Note_on_c, 7, 70, 0
9, 291899, Note_on_c, 7, 86, 0
9, 291899, Note_on_c, 7, 74, 0
9, 291899, Note_on_c, 7, 80, 0
9, 291900, Note_on_c, 7, 86, 96
9, 291900, Note_on_c, 7, 74, 96
9, 291900, Note_on_c, 7, 80, 96
9, 291900, Note_on_c, 7, 70, 96
9, 291929, Note_on_c, 7, 70, 0
9, 291929, Note_on_c, 7, 86, 0
9, 291929, Note_on_c, 7, 74, 0
9, 291929, Note_on_c, 7, 80, 0
9, 291930, Note_on_c, 7, 86, 96
9, 291930, Note_on_c, 7, 74, 96
9, 291930, Note_on_c, 7, 80, 96
9, 291930, Note_on_c, 7, 70, 96
9, 291959, Note_on_c, 7, 70, 0
9, 291959, Note_on_c, 7, 86, 0
9, 291959, Note_on_c, 7, 74, 0
9, 291959, Note_on_c, 7, 80, 0
9, 291960, Note_on_c, 7, 86, 96
9, 291960, Note_on_c, 7, 74, 96
9, 291960, Note_on_c, 7, 80, 96
9, 291960, Note_on_c, 7, 70, 96
9, 291989, Note_on_c, 7, 70, 0
9, 291989, Note_on_c, 7, 86, 0
9, 291989, Note_on_c, 7, 74, 0
9, 291989, Note_on_c, 7, 80, 0
9, 291990, Note_on_c, 7, 86, 96
9, 291990, Note_on_c, 7, 74, 96
9, 291990, Note_on_c, 7, 80, 96
9, 291990, Note_on_c, 7, 70, 96
9, 292019, Note_on_c, 7, 70, 0
9, 292019, Note_on_c, 7, 86, 0
9, 292019, Note_on_c, 7, 74, 0
9, 292019, Note_on_c, 7, 80, 0
9, 292020, Note_on_c, 7, 86, 96
9, 292020, Note_on_c, 7, 74, 96
9, 292020, Note_on_c, 7, 80, 96
9, 292020, Note_on_c, 7, 70, 96
9, 292049, Note_on_c, 7, 70, 0
9, 292049, Note_on_c, 7, 86, 0
9, 292049, Note_on_c, 7, 74, 0
9, 292049, Note_on_c, 7, 80, 0
9, 292050, Note_on_c, 7, 86, 96
9, 292050, Note_on_c, 7, 74, 96
9, 292050, Note_on_c, 7, 80, 96
9, 292050, Note_on_c, 7, 70, 96
9, 292079, Note_on_c, 7, 70, 0
9, 292079, Note_on_c, 7, 86, 0
9, 292079, Note_on_c, 7, 74, 0
9, 292079, Note_on_c, 7, 80, 0
9, 292080, Note_on_c, 7, 86, 96
9, 292080, Note_on_c, 7, 74, 96
9, 292080, Note_on_c, 7, 80, 96
9, 292080, Note_on_c, 7, 70, 96
9, 292109, Note_on_c, 7, 70, 0
9, 292109, Note_on_c, 7, 86, 0
9, 292109, Note_on_c, 7, 74, 0
9, 292109, Note_on_c, 7, 80, 0
9, 292110, Note_on_c, 7, 86, 96
9, 292110, Note_on_c, 7, 74, 96
9, 292110, Note_on_c, 7, 80, 96
9, 292110, Note_on_c, 7, 70, 96
9, 292139, Note_on_c, 7, 70, 0
9, 292139, Note_on_c, 7, 86, 0
9, 292139, Note_on_c, 7, 74, 0
9, 292139, Note_on_c, 7, 80, 0
9, 292140, Note_on_c, 7, 86, 96
9, 292140, Note_on_c, 7, 74, 96
9, 292140, Note_on_c, 7, 80, 96
9, 292140, Note_on_c, 7, 70, 96
9, 292169, Note_on_c, 7, 70, 0
9, 292169, Note_on_c, 7, 86, 0
9, 292169, Note_on_c, 7, 74, 0
9, 292169, Note_on_c, 7, 80, 0
9, 292170, Note_on_c, 7, 86, 96
9, 292170, Note_on_c, 7, 74, 96
9, 292170, Note_on_c, 7, 80, 96
9, 292170, Note_on_c, 7, 70, 96
9, 292199, Note_on_c, 7, 70, 0
9, 292199, Note_on_c, 7, 86, 0
9, 292199, Note_on_c, 7, 74, 0
9, 292199, Note_on_c, 7, 80, 0
9, 292200, Note_on_c, 7, 86, 96
9, 292200, Note_on_c, 7, 74, 96
9, 292200, Note_on_c, 7, 80, 96
9, 292200, Note_on_c, 7, 70, 96
9, 292229, Note_on_c, 7, 70, 0
9, 292229, Note_on_c, 7, 86, 0
9, 292229, Note_on_c, 7, 74, 0
9, 292229, Note_on_c, 7, 80, 0
9, 292230, Note_on_c, 7, 86, 96
9, 292230, Note_on_c, 7, 74, 96
9, 292230, Note_on_c, 7, 80, 96
9, 292230, Note_on_c, 7, 70, 96
9, 292259, Note_on_c, 7, 70, 0
9, 292259, Note_on_c, 7, 86, 0
9, 292259, Note_on_c, 7, 74, 0
9, 292259, Note_on_c, 7, 80, 0
9, 292260, Note_on_c, 7, 86, 96
9, 292260, Note_on_c, 7, 74, 96
9, 292260, Note_on_c, 7, 80, 96
9, 292260, Note_on_c, 7, 70, 96
9, 292289, Note_on_c, 7, 70, 0
9, 292289, Note_on_c, 7, 86, 0
9, 292289, Note_on_c, 7, 74, 0
9, 292289, Note_on_c, 7, 80, 0
9, 292290, Note_on_c, 7, 86, 96
9, 292290, Note_on_c, 7, 74, 96
9, 292290, Note_on_c, 7, 80, 96
9, 292290, Note_on_c, 7, 70, 96
9, 292319, Note_on_c, 7, 70, 0
9, 292319, Note_on_c, 7, 86, 0
9, 292319, Note_on_c, 7, 74, 0
9, 292319, Note_on_c, 7, 80, 0
9, 292320, Note_on_c, 7, 86, 96
9, 292320, Note_on_c, 7, 74, 96
9, 292320, Note_on_c, 7, 80, 96
9, 292320, Note_on_c, 7, 70, 96
9, 292349, Note_on_c, 7, 70, 0
9, 292349, Note_on_c, 7, 86, 0
9, 292349, Note_on_c, 7, 74, 0
9, 292349, Note_on_c, 7, 80, 0
9, 292350, Note_on_c, 7, 86, 96
9, 292350, Note_on_c, 7, 74, 96
9, 292350, Note_on_c, 7, 80, 96
9, 292350, Note_on_c, 7, 70, 96
9, 292379, Note_on_c, 7, 70, 0
9, 292379, Note_on_c, 7, 86, 0
9, 292379, Note_on_c, 7, 74, 0
9, 292379, Note_on_c, 7, 80, 0
9, 292380, Note_on_c, 7, 86, 96
9, 292380, Note_on_c, 7, 74, 96
9, 292380, Note_on_c, 7, 80, 96
9, 292380, Note_on_c, 7, 70, 96
9, 292409, Note_on_c, 7, 70, 0
9, 292409, Note_on_c, 7, 86, 0
9, 292409, Note_on_c, 7, 74, 0
9, 292409, Note_on_c, 7, 80, 0
9, 292410, Note_on_c, 7, 86, 96
9, 292410, Note_on_c, 7, 74, 96
9, 292410, Note_on_c, 7, 80, 96
9, 292410, Note_on_c, 7, 70, 96
9, 292439, Note_on_c, 7, 70, 0
9, 292439, Note_on_c, 7, 86, 0
9, 292439, Note_on_c, 7, 74, 0
9, 292439, Note_on_c, 7, 80, 0
9, 292440, Note_on_c, 7, 86, 96
9, 292440, Note_on_c, 7, 74, 96
9, 292440, Note_on_c, 7, 80, 96
9, 292440, Note_on_c, 7, 70, 96
9, 292469, Note_on_c, 7, 70, 0
9, 292469, Note_on_c, 7, 86, 0
9, 292469, Note_on_c, 7, 74, 0
9, 292469, Note_on_c, 7, 80, 0
9, 292470, Note_on_c, 7, 86, 96
9, 292470, Note_on_c, 7, 74, 96
9, 292470, Note_on_c, 7, 80, 96
9, 292470, Note_on_c, 7, 70, 96
9, 292499, Note_on_c, 7, 70, 0
9, 292499, Note_on_c, 7, 86, 0
9, 292499, Note_on_c, 7, 74, 0
9, 292499, Note_on_c, 7, 80, 0
9, 292500, Note_on_c, 7, 86, 96
9, 292500, Note_on_c, 7, 74, 96
9, 292500, Note_on_c, 7, 80, 96
9, 292500, Note_on_c, 7, 70, 96
9, 292529, Note_on_c, 7, 70, 0
9, 292529, Note_on_c, 7, 86, 0
9, 292529, Note_on_c, 7, 74, 0
9, 292529, Note_on_c, 7, 80, 0
9, 292530, Note_on_c, 7, 86, 96
9, 292530, Note_on_c, 7, 74, 96
9, 292530, Note_on_c, 7, 80, 96
9, 292530, Note_on_c, 7, 70, 96
9, 292559, Note_on_c, 7, 70, 0
9, 292559, Note_on_c, 7, 86, 0
9, 292559, Note_on_c, 7, 74, 0
9, 292559, Note_on_c, 7, 80, 0
9, 292560, Note_on_c, 7, 86, 96
9, 292560, Note_on_c, 7, 74, 96
9, 292560, Note_on_c, 7, 80, 96
9, 292560, Note_on_c, 7, 70, 96
9, 292589, Note_on_c, 7, 70, 0
9, 292589, Note_on_c, 7, 86, 0
9, 292589, Note_on_c, 7, 74, 0
9, 292589, Note_on_c, 7, 80, 0
9, 292590, Note_on_c, 7, 86, 96
9, 292590, Note_on_c, 7, 74, 96
9, 292590, Note_on_c, 7, 80, 96
9, 292590, Note_on_c, 7, 70, 96
9, 292619, Note_on_c, 7, 70, 0
9, 292619, Note_on_c, 7, 86, 0
9, 292619, Note_on_c, 7, 74, 0
9, 292619, Note_on_c, 7, 80, 0
9, 292620, Note_on_c, 7, 86, 96
9, 292620, Note_on_c, 7, 74, 96
9, 292620, Note_on_c, 7, 80, 96
9, 292620, Note_on_c, 7, 70, 96
9, 292649, Note_on_c, 7, 70, 0
9, 292649, Note_on_c, 7, 86, 0
9, 292649, Note_on_c, 7, 74, 0
9, 292649, Note_on_c, 7, 80, 0
9, 292650, Note_on_c, 7, 86, 96
9, 292650, Note_on_c, 7, 74, 96
9, 292650, Note_on_c, 7, 80, 96
9, 292650, Note_on_c, 7, 70, 96
9, 292679, Note_on_c, 7, 70, 0
9, 292679, Note_on_c, 7, 86, 0
9, 292679, Note_on_c, 7, 74, 0
9, 292679, Note_on_c, 7, 80, 0
9, 292680, Note_on_c, 7, 88, 96
9, 292680, Note_on_c, 7, 79, 96
9, 292680, Note_on_c, 7, 70, 96
9, 292709, Note_on_c, 7, 70, 0
9, 292709, Note_on_c, 7, 79, 0
9, 292709, Note_on_c, 7, 88, 0
9, 292710, Note_on_c, 7, 88, 96
9, 292710, Note_on_c, 7, 79, 96
9, 292710, Note_on_c, 7, 70, 96
9, 292739, Note_on_c, 7, 70, 0
9, 292739, Note_on_c, 7, 79, 0
9, 292739, Note_on_c, 7, 88, 0
9, 292740, Note_on_c, 7, 88, 96
9, 292740, Note_on_c, 7, 79, 96
9, 292740, Note_on_c, 7, 70, 96
9, 292769, Note_on_c, 7, 70, 0
9, 292769, Note_on_c, 7, 79, 0
9, 292769, Note_on_c, 7, 88, 0
9, 292770, Note_on_c, 7, 88, 96
9, 292770, Note_on_c, 7, 79, 96
9, 292770, Note_on_c, 7, 70, 96
9, 292799, Note_on_c, 7, 70, 0
9, 292799, Note_on_c, 7, 79, 0
9, 292799, Note_on_c, 7, 88, 0
9, 292800, Note_on_c, 7, 88, 96
9, 292800, Note_on_c, 7, 79, 96
9, 292800, Note_on_c, 7, 70, 96
9, 292829, Note_on_c, 7, 70, 0
9, 292829, Note_on_c, 7, 79, 0
9, 292829, Note_on_c, 7, 88, 0
9, 292830, Note_on_c, 7, 88, 96
9, 292830, Note_on_c, 7, 79, 96
9, 292830, Note_on_c, 7, 70, 96
9, 292859, Note_on_c, 7, 70, 0
9, 292859, Note_on_c, 7, 79, 0
9, 292859, Note_on_c, 7, 88, 0
9, 292860, Note_on_c, 7, 88, 96
9, 292860, Note_on_c, 7, 79, 96
9, 292860, Note_on_c, 7, 70, 96
9, 292889, Note_on_c, 7, 70, 0
9, 292889, Note_on_c, 7, 79, 0
9, 292889, Note_on_c, 7, 88, 0
9, 292890, Note_on_c, 7, 88, 96
9, 292890, Note_on_c, 7, 79, 96
9, 292890, Note_on_c, 7, 70, 96
9, 292919, Note_on_c, 7, 70, 0
9, 292919, Note_on_c, 7, 79, 0
9, 292919, Note_on_c, 7, 88, 0
9, 292920, Note_on_c, 7, 88, 96
9, 292920, Note_on_c, 7, 79, 96
9, 292920, Note_on_c, 7, 70, 96
9, 292949, Note_on_c, 7, 70, 0
9, 292949, Note_on_c, 7, 79, 0
9, 292949, Note_on_c, 7, 88, 0
9, 292950, Note_on_c, 7, 88, 96
9, 292950, Note_on_c, 7, 79, 96
9, 292950, Note_on_c, 7, 70, 96
9, 292979, Note_on_c, 7, 70, 0
9, 292979, Note_on_c, 7, 79, 0
9, 292979, Note_on_c, 7, 88, 0
9, 292980, Note_on_c, 7, 88, 96
9, 292980, Note_on_c, 7, 79, 96
9, 292980, Note_on_c, 7, 70, 96
9, 293009, Note_on_c, 7, 70, 0
9, 293009, Note_on_c, 7, 79, 0
9, 293009, Note_on_c, 7, 88, 0
9, 293010, Note_on_c, 7, 88, 96
9, 293010, Note_on_c, 7, 79, 96
9, 293010, Note_on_c, 7, 70, 96
9, 293039, Note_on_c, 7, 70, 0
9, 293039, Note_on_c, 7, 79, 0
9, 293039, Note_on_c, 7, 88, 0
9, 293040, Note_on_c, 7, 88, 96
9, 293040, Note_on_c, 7, 79, 96
9, 293040, Note_on_c, 7, 70, 96
9, 293069, Note_on_c, 7, 70, 0
9, 293069, Note_on_c, 7, 79, 0
9, 293069, Note_on_c, 7, 88, 0
9, 293070, Note_on_c, 7, 88, 96
9, 293070, Note_on_c, 7, 79, 96
9, 293070, Note_on_c, 7, 70, 96
9, 293099, Note_on_c, 7, 70, 0
9, 293099, Note_on_c, 7, 79, 0
9, 293099, Note_on_c, 7, 88, 0
9, 293100, Note_on_c, 7, 88, 96
9, 293100, Note_on_c, 7, 79, 96
9, 293100, Note_on_c, 7, 70, 96
9, 293129, Note_on_c, 7, 70, 0
9, 293129, Note_on_c, 7, 79, 0
9, 293129, Note_on_c, 7, 88, 0
9, 293130, Note_on_c, 7, 88, 96
9, 293130, Note_on_c, 7, 79, 96
9, 293130, Note_on_c, 7, 70, 96
9, 293159, Note_on_c, 7, 70, 0
9, 293159, Note_on_c, 7, 79, 0
9, 293159, Note_on_c, 7, 88, 0
9, 293160, Note_on_c, 7, 88, 96
9, 293160, Note_on_c, 7, 79, 96
9, 293160, Note_on_c, 7, 70, 96
9, 293189, Note_on_c, 7, 70, 0
9, 293189, Note_on_c, 7, 79, 0
9, 293189, Note_on_c, 7, 88, 0
9, 293190, Note_on_c, 7, 88, 96
9, 293190, Note_on_c, 7, 79, 96
9, 293190, Note_on_c, 7, 70, 96
9, 293219, Note_on_c, 7, 70, 0
9, 293219, Note_on_c, 7, 79, 0
9, 293219, Note_on_c, 7, 88, 0
9, 293220, Note_on_c, 7, 88, 96
9, 293220, Note_on_c, 7, 79, 96
9, 293220, Note_on_c, 7, 70, 96
9, 293249, Note_on_c, 7, 70, 0
9, 293249, Note_on_c, 7, 79, 0
9, 293249, Note_on_c, 7, 88, 0
9, 293250, Note_on_c, 7, 88, 96
9, 293250, Note_on_c, 7, 79, 96
9, 293250, Note_on_c, 7, 70, 96
9, 293279, Note_on_c, 7, 70, 0
9, 293279, Note_on_c, 7, 79, 0
9, 293279, Note_on_c, 7, 88, 0
9, 293280, Note_on_c, 7, 88, 96
9, 293280, Note_on_c, 7, 79, 96
9, 293280, Note_on_c, 7, 70, 96
9, 293309, Note_on_c, 7, 70, 0
9, 293309, Note_on_c, 7, 79, 0
9, 293309, Note_on_c, 7, 88, 0
9, 293310, Note_on_c, 7, 88, 96
9, 293310, Note_on_c, 7, 79, 96
9, 293310, Note_on_c, 7, 70, 96
9, 293339, Note_on_c, 7, 70, 0
9, 293339, Note_on_c, 7, 79, 0
9, 293339, Note_on_c, 7, 88, 0
9, 293340, Note_on_c, 7, 88, 96
9, 293340, Note_on_c, 7, 79, 96
9, 293340, Note_on_c, 7, 70, 96
9, 293369, Note_on_c, 7, 70, 0
9, 293369, Note_on_c, 7, 79, 0
9, 293369, Note_on_c, 7, 88, 0
9, 293370, Note_on_c, 7, 88, 96
9, 293370, Note_on_c, 7, 79, 96
9, 293370, Note_on_c, 7, 70, 96
9, 293399, Note_on_c, 7, 70, 0
9, 293399, Note_on_c, 7, 79, 0
9, 293399, Note_on_c, 7, 88, 0
9, 293400, Note_on_c, 7, 89, 112
9, 293400, Note_on_c, 7, 77, 112
9, 293400, Note_on_c, 7, 72, 112
9, 293429, Note_on_c, 7, 72, 0
9, 293429, Note_on_c, 7, 77, 0
9, 293429, Note_on_c, 7, 89, 0
9, 293430, Note_on_c, 7, 89, 96
9, 293430, Note_on_c, 7, 77, 96
9, 293430, Note_on_c, 7, 72, 96
9, 293459, Note_on_c, 7, 72, 0
9, 293459, Note_on_c, 7, 77, 0
9, 293459, Note_on_c, 7, 89, 0
9, 293460, Note_on_c, 7, 89, 96
9, 293460, Note_on_c, 7, 77, 96
9, 293460, Note_on_c, 7, 72, 96
9, 293489, Note_on_c, 7, 72, 0
9, 293489, Note_on_c, 7, 77, 0
9, 293489, Note_on_c, 7, 89, 0
9, 293490, Note_on_c, 7, 89, 96
9, 293490, Note_on_c, 7, 77, 96
9, 293490, Note_on_c, 7, 72, 96
9, 293519, Note_on_c, 7, 72, 0
9, 293519, Note_on_c, 7, 77, 0
9, 293519, Note_on_c, 7, 89, 0
9, 293520, Note_on_c, 7, 89, 96
9, 293520, Note_on_c, 7, 77, 96
9, 293520, Note_on_c, 7, 72, 96
9, 293549, Note_on_c, 7, 72, 0
9, 293549, Note_on_c, 7, 77, 0
9, 293549, Note_on_c, 7, 89, 0
9, 293550, Note_on_c, 7, 89, 96
9, 293550, Note_on_c, 7, 77, 96
9, 293550, Note_on_c, 7, 72, 96
9, 293579, Note_on_c, 7, 72, 0
9, 293579, Note_on_c, 7, 77, 0
9, 293579, Note_on_c, 7, 89, 0
9, 293580, Note_on_c, 7, 89, 96
9, 293580, Note_on_c, 7, 77, 96
9, 293580, Note_on_c, 7, 72, 96
9, 293609, Note_on_c, 7, 72, 0
9, 293609, Note_on_c, 7, 77, 0
9, 293609, Note_on_c, 7, 89, 0
9, 293610, Note_on_c, 7, 89, 96
9, 293610, Note_on_c, 7, 77, 96
9, 293610, Note_on_c, 7, 72, 96
9, 293639, Note_on_c, 7, 72, 0
9, 293639, Note_on_c, 7, 77, 0
9, 293639, Note_on_c, 7, 89, 0
9, 293640, Note_on_c, 7, 89, 96
9, 293640, Note_on_c, 7, 77, 96
9, 293640, Note_on_c, 7, 72, 96
9, 293669, Note_on_c, 7, 72, 0
9, 293669, Note_on_c, 7, 77, 0
9, 293669, Note_on_c, 7, 89, 0
9, 293670, Note_on_c, 7, 89, 96
9, 293670, Note_on_c, 7, 77, 96
9, 293670, Note_on_c, 7, 72, 96
9, 293699, Note_on_c, 7, 72, 0
9, 293699, Note_on_c, 7, 77, 0
9, 293699, Note_on_c, 7, 89, 0
9, 293700, Note_on_c, 7, 89, 96
9, 293700, Note_on_c, 7, 77, 96
9, 293700, Note_on_c, 7, 72, 96
9, 293729, Note_on_c, 7, 72, 0
9, 293729, Note_on_c, 7, 77, 0
9, 293729, Note_on_c, 7, 89, 0
9, 293730, Note_on_c, 7, 89, 96
9, 293730, Note_on_c, 7, 77, 96
9, 293730, Note_on_c, 7, 72, 96
9, 293759, Note_on_c, 7, 72, 0
9, 293759, Note_on_c, 7, 77, 0
9, 293759, Note_on_c, 7, 89, 0
9, 293760, Note_on_c, 7, 90, 112
9, 293760, Note_on_c, 7, 84, 112
9, 293789, Note_on_c, 7, 84, 0
9, 293789, Note_on_c, 7, 90, 0
9, 293790, Note_on_c, 7, 90, 96
9, 293790, Note_on_c, 7, 84, 96
9, 293819, Note_on_c, 7, 84, 0
9, 293819, Note_on_c, 7, 90, 0
9, 293820, Note_on_c, 7, 90, 96
9, 293820, Note_on_c, 7, 84, 96
9, 293849, Note_on_c, 7, 84, 0
9, 293849, Note_on_c, 7, 90, 0
9, 293850, Note_on_c, 7, 90, 96
9, 293850, Note_on_c, 7, 84, 96
9, 293879, Note_on_c, 7, 84, 0
9, 293879, Note_on_c, 7, 90, 0
9, 293880, Note_on_c, 7, 90, 96
9, 293880, Note_on_c, 7, 84, 96
9, 293909, Note_on_c, 7, 84, 0
9, 293909, Note_on_c, 7, 90, 0
9, 293910, Note_on_c, 7, 90, 96
9, 293910, Note_on_c, 7, 84, 96
9, 293939, Note_on_c, 7, 84, 0
9, 293939, Note_on_c, 7, 90, 0
9, 293940, Note_on_c, 7, 90, 96
9, 293940, Note_on_c, 7, 84, 96
9, 293969, Note_on_c, 7, 84, 0
9, 293969, Note_on_c, 7, 90, 0
9, 293970, Note_on_c, 7, 90, 96
9, 293970, Note_on_c, 7, 84, 96
9, 293999, Note_on_c, 7, 84, 0
9, 293999, Note_on_c, 7, 90, 0
9, 294000, Note_on_c, 7, 90, 96
9, 294000, Note_on_c, 7, 84, 96
9, 294029, Note_on_c, 7, 84, 0
9, 294029, Note_on_c, 7, 90, 0
9, 294030, Note_on_c, 7, 90, 96
9, 294030, Note_on_c, 7, 84, 96
9, 294059, Note_on_c, 7, 84, 0
9, 294059, Note_on_c, 7, 90, 0
9, 294060, Note_on_c, 7, 90, 96
9, 294060, Note_on_c, 7, 84, 96
9, 294089, Note_on_c, 7, 84, 0
9, 294089, Note_on_c, 7, 90, 0
9, 294090, Note_on_c, 7, 90, 96
9, 294090, Note_on_c, 7, 84, 96
9, 294119, Note_on_c, 7, 84, 0
9, 294119, Note_on_c, 7, 90, 0
9, 294120, Note_on_c, 7, 91, 112
9, 294120, Note_on_c, 7, 75, 112
9, 294149, Note_on_c, 7, 75, 0
9, 294149, Note_on_c, 7, 91, 0
9, 294150, Note_on_c, 7, 75, 96
9, 294150, Note_on_c, 7, 91, 96
9, 294179, Note_on_c, 7, 91, 0
9, 294179, Note_on_c, 7, 75, 0
9, 294180, Note_on_c, 7, 75, 96
9, 294180, Note_on_c, 7, 91, 96
9, 294209, Note_on_c, 7, 91, 0
9, 294209, Note_on_c, 7, 75, 0
9, 294210, Note_on_c, 7, 75, 96
9, 294210, Note_on_c, 7, 91, 96
9, 294239, Note_on_c, 7, 91, 0
9, 294239, Note_on_c, 7, 75, 0
9, 294240, Note_on_c, 7, 91, 96
9, 294240, Note_on_c, 7, 75, 96
9, 294269, Note_on_c, 7, 75, 0
9, 294269, Note_on_c, 7, 91, 0
9, 294270, Note_on_c, 7, 75, 96
9, 294270, Note_on_c, 7, 91, 96
9, 294299, Note_on_c, 7, 91, 0
9, 294299, Note_on_c, 7, 75, 0
9, 294300, Note_on_c, 7, 75, 96
9, 294300, Note_on_c, 7, 91, 96
9, 294329, Note_on_c, 7, 91, 0
9, 294329, Note_on_c, 7, 75, 0
9, 294330, Note_on_c, 7, 75, 96
9, 294330, Note_on_c, 7, 91, 96
9, 294359, Note_on_c, 7, 91, 0
9, 294359, Note_on_c, 7, 75, 0
9, 294360, Note_on_c, 7, 91, 96
9, 294360, Note_on_c, 7, 75, 96
9, 294389, Note_on_c, 7, 75, 0
9, 294389, Note_on_c, 7, 91, 0
9, 294390, Note_on_c, 7, 75, 96
9, 294390, Note_on_c, 7, 91, 96
9, 294419, Note_on_c, 7, 91, 0
9, 294419, Note_on_c, 7, 75, 0
9, 294420, Note_on_c, 7, 75, 96
9, 294420, Note_on_c, 7, 91, 96
9, 294449, Note_on_c, 7, 91, 0
9, 294449, Note_on_c, 7, 75, 0
9, 294450, Note_on_c, 7, 75, 96
9, 294450, Note_on_c, 7, 91, 96
9, 294479, Note_on_c, 7, 91, 0
9, 294479, Note_on_c, 7, 75, 0
9, 294480, Note_on_c, 7, 92, 96
9, 294480, Note_on_c, 7, 77, 96
9, 294480, Note_on_c, 7, 74, 96
9, 294509, Note_on_c, 7, 74, 0
9, 294509, Note_on_c, 7, 77, 0
9, 294509, Note_on_c, 7, 92, 0
9, 294510, Note_on_c, 7, 92, 96
9, 294510, Note_on_c, 7, 77, 96
9, 294510, Note_on_c, 7, 74, 96
9, 294539, Note_on_c, 7, 74, 0
9, 294539, Note_on_c, 7, 77, 0
9, 294539, Note_on_c, 7, 92, 0
9, 294540, Note_on_c, 7, 92, 96
9, 294540, Note_on_c, 7, 77, 96
9, 294540, Note_on_c, 7, 74, 96
9, 294569, Note_on_c, 7, 74, 0
9, 294569, Note_on_c, 7, 77, 0
9, 294569, Note_on_c, 7, 92, 0
9, 294570, Note_on_c, 7, 92, 96
9, 294570, Note_on_c, 7, 77, 96
9, 294570, Note_on_c, 7, 74, 96
9, 294599, Note_on_c, 7, 74, 0
9, 294599, Note_on_c, 7, 77, 0
9, 294599, Note_on_c, 7, 92, 0
9, 294600, Note_on_c, 7, 92, 96
9, 294600, Note_on_c, 7, 77, 96
9, 294600, Note_on_c, 7, 74, 96
9, 294629, Note_on_c, 7, 74, 0
9, 294629, Note_on_c, 7, 77, 0
9, 294629, Note_on_c, 7, 92, 0
9, 294630, Note_on_c, 7, 92, 96
9, 294630, Note_on_c, 7, 77, 96
9, 294630, Note_on_c, 7, 74, 96
9, 294659, Note_on_c, 7, 74, 0
9, 294659, Note_on_c, 7, 77, 0
9, 294659, Note_on_c, 7, 92, 0
9, 294660, Note_on_c, 7, 92, 96
9, 294660, Note_on_c, 7, 77, 96
9, 294660, Note_on_c, 7, 74, 96
9, 294689, Note_on_c, 7, 74, 0
9, 294689, Note_on_c, 7, 77, 0
9, 294689, Note_on_c, 7, 92, 0
9, 294690, Note_on_c, 7, 92, 96
9, 294690, Note_on_c, 7, 77, 96
9, 294690, Note_on_c, 7, 74, 96
9, 294719, Note_on_c, 7, 74, 0
9, 294719, Note_on_c, 7, 77, 0
9, 294719, Note_on_c, 7, 92, 0
9, 294720, Note_on_c, 7, 92, 96
9, 294720, Note_on_c, 7, 77, 96
9, 294720, Note_on_c, 7, 74, 96
9, 294749, Note_on_c, 7, 74, 0
9, 294749, Note_on_c, 7, 77, 0
9, 294749, Note_on_c, 7, 92, 0
9, 294750, Note_on_c, 7, 92, 96
9, 294750, Note_on_c, 7, 77, 96
9, 294750, Note_on_c, 7, 74, 96
9, 294779, Note_on_c, 7, 74, 0
9, 294779, Note_on_c, 7, 77, 0
9, 294779, Note_on_c, 7, 92, 0
9, 294780, Note_on_c, 7, 92, 96
9, 294780, Note_on_c, 7, 77, 96
9, 294780, Note_on_c, 7, 74, 96
9, 294809, Note_on_c, 7, 74, 0
9, 294809, Note_on_c, 7, 77, 0
9, 294809, Note_on_c, 7, 92, 0
9, 294810, Note_on_c, 7, 92, 96
9, 294810, Note_on_c, 7, 77, 96
9, 294810, Note_on_c, 7, 74, 96
9, 294839, Note_on_c, 7, 74, 0
9, 294839, Note_on_c, 7, 77, 0
9, 294839, Note_on_c, 7, 92, 0
9, 294840, Note_on_c, 7, 91, 96
9, 294840, Note_on_c, 7, 75, 96
9, 294869, Note_on_c, 7, 75, 0
9, 294869, Note_on_c, 7, 91, 0
9, 294870, Note_on_c, 7, 91, 96
9, 294870, Note_on_c, 7, 75, 96
9, 294899, Note_on_c, 7, 75, 0
9, 294899, Note_on_c, 7, 91, 0
9, 294900, Note_on_c, 7, 91, 96
9, 294900, Note_on_c, 7, 75, 96
9, 294929, Note_on_c, 7, 75, 0
9, 294929, Note_on_c, 7, 91, 0
9, 294930, Note_on_c, 7, 91, 96
9, 294930, Note_on_c, 7, 75, 96
9, 294959, Note_on_c, 7, 75, 0
9, 294959, Note_on_c, 7, 91, 0
9, 294960, Note_on_c, 7, 91, 96
9, 294960, Note_on_c, 7, 75, 96
9, 294989, Note_on_c, 7, 75, 0
9, 294989, Note_on_c, 7, 91, 0
9, 294990, Note_on_c, 7, 91, 96
9, 294990, Note_on_c, 7, 75, 96
9, 295019, Note_on_c, 7, 75, 0
9, 295019, Note_on_c, 7, 91, 0
9, 295020, Note_on_c, 7, 91, 96
9, 295020, Note_on_c, 7, 75, 96
9, 295049, Note_on_c, 7, 75, 0
9, 295049, Note_on_c, 7, 91, 0
9, 295050, Note_on_c, 7, 91, 96
9, 295050, Note_on_c, 7, 75, 96
9, 295079, Note_on_c, 7, 75, 0
9, 295079, Note_on_c, 7, 91, 0
9, 295080, Note_on_c, 7, 91, 96
9, 295080, Note_on_c, 7, 75, 96
9, 295109, Note_on_c, 7, 75, 0
9, 295109, Note_on_c, 7, 91, 0
9, 295110, Note_on_c, 7, 91, 96
9, 295110, Note_on_c, 7, 75, 96
9, 295139, Note_on_c, 7, 75, 0
9, 295139, Note_on_c, 7, 91, 0
9, 295140, Note_on_c, 7, 91, 96
9, 295140, Note_on_c, 7, 75, 96
9, 295169, Note_on_c, 7, 75, 0
9, 295169, Note_on_c, 7, 91, 0
9, 295170, Note_on_c, 7, 91, 96
9, 295170, Note_on_c, 7, 75, 96
9, 295199, Note_on_c, 7, 75, 0
9, 295199, Note_on_c, 7, 91, 0
9, 295200, Note_on_c, 7, 89, 96
9, 295200, Note_on_c, 7, 80, 96
9, 295200, Note_on_c, 7, 72, 96
9, 295229, Note_on_c, 7, 72, 0
9, 295229, Note_on_c, 7, 80, 0
9, 295229, Note_on_c, 7, 89, 0
9, 295230, Note_on_c, 7, 89, 96
9, 295230, Note_on_c, 7, 80, 96
9, 295230, Note_on_c, 7, 72, 96
9, 295259, Note_on_c, 7, 72, 0
9, 295259, Note_on_c, 7, 80, 0
9, 295259, Note_on_c, 7, 89, 0
9, 295260, Note_on_c, 7, 89, 96
9, 295260, Note_on_c, 7, 80, 96
9, 295260, Note_on_c, 7, 72, 96
9, 295289, Note_on_c, 7, 72, 0
9, 295289, Note_on_c, 7, 80, 0
9, 295289, Note_on_c, 7, 89, 0
9, 295290, Note_on_c, 7, 89, 96
9, 295290, Note_on_c, 7, 80, 96
9, 295290, Note_on_c, 7, 72, 96
9, 295319, Note_on_c, 7, 72, 0
9, 295319, Note_on_c, 7, 80, 0
9, 295319, Note_on_c, 7, 89, 0
9, 295320, Note_on_c, 7, 89, 96
9, 295320, Note_on_c, 7, 80, 96
9, 295320, Note_on_c, 7, 72, 96
9, 295349, Note_on_c, 7, 72, 0
9, 295349, Note_on_c, 7, 80, 0
9, 295349, Note_on_c, 7, 89, 0
9, 295350, Note_on_c, 7, 89, 96
9, 295350, Note_on_c, 7, 80, 96
9, 295350, Note_on_c, 7, 72, 96
9, 295379, Note_on_c, 7, 72, 0
9, 295379, Note_on_c, 7, 80, 0
9, 295379, Note_on_c, 7, 89, 0
9, 295380, Note_on_c, 7, 89, 96
9, 295380, Note_on_c, 7, 80, 96
9, 295380, Note_on_c, 7, 72, 96
9, 295409, Note_on_c, 7, 72, 0
9, 295409, Note_on_c, 7, 80, 0
9, 295409, Note_on_c, 7, 89, 0
9, 295410, Note_on_c, 7, 89, 96
9, 295410, Note_on_c, 7, 80, 96
9, 295410, Note_on_c, 7, 72, 96
9, 295439, Note_on_c, 7, 72, 0
9, 295439, Note_on_c, 7, 80, 0
9, 295439, Note_on_c, 7, 89, 0
9, 295440, Note_on_c, 7, 89, 96
9, 295440, Note_on_c, 7, 80, 96
9, 295440, Note_on_c, 7, 72, 96
9, 295469, Note_on_c, 7, 72, 0
9, 295469, Note_on_c, 7, 80, 0
9, 295469, Note_on_c, 7, 89, 0
9, 295470, Note_on_c, 7, 89, 96
9, 295470, Note_on_c, 7, 80, 96
9, 295470, Note_on_c, 7, 72, 96
9, 295499, Note_on_c, 7, 72, 0
9, 295499, Note_on_c, 7, 80, 0
9, 295499, Note_on_c, 7, 89, 0
9, 295500, Note_on_c, 7, 89, 96
9, 295500, Note_on_c, 7, 80, 96
9, 295500, Note_on_c, 7, 72, 96
9, 295529, Note_on_c, 7, 72, 0
9, 295529, Note_on_c, 7, 80, 0
9, 295529, Note_on_c, 7, 89, 0
9, 295530, Note_on_c, 7, 89, 96
9, 295530, Note_on_c, 7, 80, 96
9, 295530, Note_on_c, 7, 72, 96
9, 295559, Note_on_c, 7, 72, 0
9, 295559, Note_on_c, 7, 80, 0
9, 295559, Note_on_c, 7, 89, 0
9, 295560, Note_on_c, 7, 87, 127
9, 295560, Note_on_c, 7, 79, 127
9, 295560, Note_on_c, 7, 70, 127
9, 295589, Note_on_c, 7, 70, 0
9, 295589, Note_on_c, 7, 79, 0
9, 295589, Note_on_c, 7, 87, 0
9, 295590, Note_on_c, 7, 87, 127
9, 295590, Note_on_c, 7, 79, 127
9, 295590, Note_on_c, 7, 70, 127
9, 295619, Note_on_c, 7, 70, 0
9, 295619, Note_on_c, 7, 79, 0
9, 295619, Note_on_c, 7, 87, 0
9, 295620, Note_on_c, 7, 87, 127
9, 295620, Note_on_c, 7, 79, 127
9, 295620, Note_on_c, 7, 70, 127
9, 295649, Note_on_c, 7, 70, 0
9, 295649, Note_on_c, 7, 79, 0
9, 295649, Note_on_c, 7, 87, 0
9, 295650, Note_on_c, 7, 87, 127
9, 295650, Note_on_c, 7, 79, 127
9, 295650, Note_on_c, 7, 70, 127
9, 295679, Note_on_c, 7, 70, 0
9, 295679, Note_on_c, 7, 79, 0
9, 295679, Note_on_c, 7, 87, 0
9, 295680, Note_on_c, 7, 87, 127
9, 295680, Note_on_c, 7, 79, 127
9, 295680, Note_on_c, 7, 70, 127
9, 295709, Note_on_c, 7, 70, 0
9, 295709, Note_on_c, 7, 79, 0
9, 295709, Note_on_c, 7, 87, 0
9, 295710, Note_on_c, 7, 87, 127
9, 295710, Note_on_c, 7, 79, 127
9, 295710, Note_on_c, 7, 70, 127
9, 295739, Note_on_c, 7, 70, 0
9, 295739, Note_on_c, 7, 79, 0
9, 295739, Note_on_c, 7, 87, 0
9, 295740, Note_on_c, 7, 87, 127
9, 295740, Note_on_c, 7, 79, 127
9, 295740, Note_on_c, 7, 70, 127
9, 295769, Note_on_c, 7, 70, 0
9, 295769, Note_on_c, 7, 79, 0
9, 295769, Note_on_c, 7, 87, 0
9, 295770, Note_on_c, 7, 87, 127
9, 295770, Note_on_c, 7, 79, 127
9, 295770, Note_on_c, 7, 70, 127
9, 295799, Note_on_c, 7, 70, 0
9, 295799, Note_on_c, 7, 79, 0
9, 295799, Note_on_c, 7, 87, 0
9, 295800, Note_on_c, 7, 87, 127
9, 295800, Note_on_c, 7, 79, 127
9, 295800, Note_on_c, 7, 70, 127
9, 295829, Note_on_c, 7, 70, 0
9, 295829, Note_on_c, 7, 79, 0
9, 295829, Note_on_c, 7, 87, 0
9, 295830, Note_on_c, 7, 87, 127
9, 295830, Note_on_c, 7, 79, 127
9, 295830, Note_on_c, 7, 70, 127
9, 295859, Note_on_c, 7, 70, 0
9, 295859, Note_on_c, 7, 79, 0
9, 295859, Note_on_c, 7, 87, 0
9, 295860, Note_on_c, 7, 87, 127
9, 295860, Note_on_c, 7, 79, 127
9, 295860, Note_on_c, 7, 70, 127
9, 295889, Note_on_c, 7, 70, 0
9, 295889, Note_on_c, 7, 79, 0
9, 295889, Note_on_c, 7, 87, 0
9, 295890, Note_on_c, 7, 87, 127
9, 295890, Note_on_c, 7, 79, 127
9, 295890, Note_on_c, 7, 70, 127
9, 295919, Note_on_c, 7, 70, 0
9, 295919, Note_on_c, 7, 79, 0
9, 295919, Note_on_c, 7, 87, 0
9, 295920, Note_on_c, 7, 86, 127
9, 295920, Note_on_c, 7, 77, 127
9, 295920, Note_on_c, 7, 70, 127
9, 295949, Note_on_c, 7, 70, 0
9, 295949, Note_on_c, 7, 77, 0
9, 295949, Note_on_c, 7, 86, 0
9, 295950, Note_on_c, 7, 86, 127
9, 295950, Note_on_c, 7, 77, 127
9, 295950, Note_on_c, 7, 70, 127
9, 295979, Note_on_c, 7, 70, 0
9, 295979, Note_on_c, 7, 77, 0
9, 295979, Note_on_c, 7, 86, 0
9, 295980, Note_on_c, 7, 86, 127
9, 295980, Note_on_c, 7, 77, 127
9, 295980, Note_on_c, 7, 70, 127
9, 296009, Note_on_c, 7, 70, 0
9, 296009, Note_on_c, 7, 77, 0
9, 296009, Note_on_c, 7, 86, 0
9, 296010, Note_on_c, 7, 86, 127
9, 296010, Note_on_c, 7, 77, 127
9, 296010, Note_on_c, 7, 70, 127
9, 296039, Note_on_c, 7, 70, 0
9, 296039, Note_on_c, 7, 77, 0
9, 296039, Note_on_c, 7, 86, 0
9, 296040, Note_on_c, 7, 86, 127
9, 296040, Note_on_c, 7, 77, 127
9, 296040, Note_on_c, 7, 70, 127
9, 296069, Note_on_c, 7, 70, 0
9, 296069, Note_on_c, 7, 77, 0
9, 296069, Note_on_c, 7, 86, 0
9, 296070, Note_on_c, 7, 86, 127
9, 296070, Note_on_c, 7, 77, 127
9, 296070, Note_on_c, 7, 70, 127
9, 296099, Note_on_c, 7, 70, 0
9, 296099, Note_on_c, 7, 77, 0
9, 296099, Note_on_c, 7, 86, 0
9, 296100, Note_on_c, 7, 86, 127
9, 296100, Note_on_c, 7, 77, 127
9, 296100, Note_on_c, 7, 70, 127
9, 296129, Note_on_c, 7, 70, 0
9, 296129, Note_on_c, 7, 77, 0
9, 296129, Note_on_c, 7, 86, 0
9, 296130, Note_on_c, 7, 86, 127
9, 296130, Note_on_c, 7, 77, 127
9, 296130, Note_on_c, 7, 70, 127
9, 296159, Note_on_c, 7, 70, 0
9, 296159, Note_on_c, 7, 77, 0
9, 296159, Note_on_c, 7, 86, 0
9, 296160, Note_on_c, 7, 86, 127
9, 296160, Note_on_c, 7, 77, 127
9, 296160, Note_on_c, 7, 70, 127
9, 296189, Note_on_c, 7, 70, 0
9, 296189, Note_on_c, 7, 77, 0
9, 296189, Note_on_c, 7, 86, 0
9, 296190, Note_on_c, 7, 86, 127
9, 296190, Note_on_c, 7, 77, 127
9, 296190, Note_on_c, 7, 70, 127
9, 296219, Note_on_c, 7, 70, 0
9, 296219, Note_on_c, 7, 77, 0
9, 296219, Note_on_c, 7, 86, 0
9, 296220, Note_on_c, 7, 86, 127
9, 296220, Note_on_c, 7, 77, 127
9, 296220, Note_on_c, 7, 70, 127
9, 296249, Note_on_c, 7, 70, 0
9, 296249, Note_on_c, 7, 77, 0
9, 296249, Note_on_c, 7, 86, 0
9, 296250, Note_on_c, 7, 86, 127
9, 296250, Note_on_c, 7, 77, 127
9, 296250, Note_on_c, 7, 70, 127
9, 296279, Note_on_c, 7, 70, 0
9, 296279, Note_on_c, 7, 77, 0
9, 296279, Note_on_c, 7, 86, 0
9, 296280, Note_on_c, 7, 87, 48
9, 296280, Note_on_c, 7, 79, 48
9, 296280, Note_on_c, 7, 70, 48
9, 296399, Note_on_c, 7, 70, 0
9, 296399, Note_on_c, 7, 79, 0
9, 296399, Note_on_c, 7, 87, 0
9, 296640, Note_on_c, 7, 75, 48
9, 296640, Note_on_c, 7, 63, 48
9, 297120, Note_on_c, 7, 82, 48
9, 297120, Note_on_c, 7, 70, 48
9, 297129, Note_on_c, 7, 63, 0
9, 297129, Note_on_c, 7, 75, 0
9, 297239, Note_on_c, 7, 82, 0
9, 297239, Note_on_c, 7, 70, 0
9, 297240, Note_on_c, 7, 82, 48
9, 297240, Note_on_c, 7, 70, 48
9, 297329, Note_on_c, 7, 70, 0
9, 297329, Note_on_c, 7, 82, 0
9, 297360, Note_on_c, 7, 82, 48
9, 297360, Note_on_c, 7, 70, 48
9, 297449, Note_on_c, 7, 70, 0
9, 297449, Note_on_c, 7, 82, 0
9, 297480, Note_on_c, 7, 82, 48
9, 297480, Note_on_c, 7, 70, 48
9, 297569, Note_on_c, 7, 70, 0
9, 297569, Note_on_c, 7, 82, 0
9, 297600, Note_on_c, 7, 82, 48
9, 297600, Note_on_c, 7, 70, 48
9, 297689, Note_on_c, 7, 70, 0
9, 297689, Note_on_c, 7, 82, 0
9, 297720, Note_on_c, 7, 82, 48
9, 297720, Note_on_c, 7, 70, 48
9, 297749, Note_on_c, 7, 70, 0
9, 297749, Note_on_c, 7, 82, 0
9, 297780, Note_on_c, 7, 79, 50
9, 297780, Note_on_c, 7, 75, 50
9, 297809, Note_on_c, 7, 75, 0
9, 297809, Note_on_c, 7, 79, 0
9, 297840, Note_on_c, 7, 77, 52
9, 297840, Note_on_c, 7, 74, 52
9, 297869, Note_on_c, 7, 74, 0
9, 297869, Note_on_c, 7, 77, 0
9, 297900, Note_on_c, 7, 79, 54
9, 297900, Note_on_c, 7, 75, 54
9, 297929, Note_on_c, 7, 75, 0
9, 297929, Note_on_c, 7, 79, 0
9, 297960, Note_on_c, 7, 80, 56
9, 297960, Note_on_c, 7, 77, 56
9, 297989, Note_on_c, 7, 77, 0
9, 297989, Note_on_c, 7, 80, 0
9, 298020, Note_on_c, 7, 82, 58
9, 298020, Note_on_c, 7, 79, 58
9, 298049, Note_on_c, 7, 79, 0
9, 298049, Note_on_c, 7, 82, 0
9, 298080, Note_on_c, 7, 84, 60
9, 298080, Note_on_c, 7, 80, 60
9, 298109, Note_on_c, 7, 80, 0
9, 298109, Note_on_c, 7, 84, 0
9, 298140, Note_on_c, 7, 86, 62
9, 298140, Note_on_c, 7, 82, 62
9, 298169, Note_on_c, 7, 82, 0
9, 298169, Note_on_c, 7, 86, 0
9, 298200, Note_on_c, 7, 87, 64
9, 298200, Note_on_c, 7, 84, 64
9, 298229, Note_on_c, 7, 84, 0
9, 298229, Note_on_c, 7, 87, 0
9, 298260, Note_on_c, 7, 87, 66
9, 298260, Note_on_c, 7, 75, 66
9, 298289, Note_on_c, 7, 75, 0
9, 298289, Note_on_c, 7, 87, 0
9, 298320, Note_on_c, 7, 87, 68
9, 298320, Note_on_c, 7, 74, 68
9, 298349, Note_on_c, 7, 74, 0
9, 298349, Note_on_c, 7, 87, 0
9, 298380, Note_on_c, 7, 87, 70
9, 298380, Note_on_c, 7, 72, 70
9, 298409, Note_on_c, 7, 72, 0
9, 298409, Note_on_c, 7, 87, 0
9, 298440, Note_on_c, 7, 87, 72
9, 298440, Note_on_c, 7, 70, 72
9, 298469, Note_on_c, 7, 70, 0
9, 298469, Note_on_c, 7, 87, 0
9, 298500, Note_on_c, 7, 75, 74
9, 298500, Note_on_c, 7, 67, 74
9, 298529, Note_on_c, 7, 67, 0
9, 298529, Note_on_c, 7, 75, 0
9, 298560, Note_on_c, 7, 74, 76
9, 298560, Note_on_c, 7, 65, 76
9, 298589, Note_on_c, 7, 65, 0
9, 298589, Note_on_c, 7, 74, 0
9, 298620, Note_on_c, 7, 75, 78
9, 298620, Note_on_c, 7, 67, 78
9, 298649, Note_on_c, 7, 67, 0
9, 298649, Note_on_c, 7, 75, 0
9, 298680, Note_on_c, 7, 77, 80
9, 298680, Note_on_c, 7, 74, 80
9, 298709, Note_on_c, 7, 74, 0
9, 298709, Note_on_c, 7, 77, 0
9, 298740, Note_on_c, 7, 79, 82
9, 298740, Note_on_c, 7, 75, 82
9, 298769, Note_on_c, 7, 75, 0
9, 298769, Note_on_c, 7, 79, 0
9, 298800, Note_on_c, 7, 80, 84
9, 298800, Note_on_c, 7, 77, 84
9, 298829, Note_on_c, 7, 77, 0
9, 298829, Note_on_c, 7, 80, 0
9, 298860, Note_on_c, 7, 80, 86
9, 298860, Note_on_c, 7, 77, 86
9, 298889, Note_on_c, 7, 77, 0
9, 298889, Note_on_c, 7, 80, 0
9, 298920, Note_on_c, 7, 80, 88
9, 298920, Note_on_c, 7, 77, 88
9, 298949, Note_on_c, 7, 77, 0
9, 298949, Note_on_c, 7, 80, 0
9, 298980, Note_on_c, 7, 80, 90
9, 298980, Note_on_c, 7, 77, 90
9, 299009, Note_on_c, 7, 77, 0
9, 299009, Note_on_c, 7, 80, 0
9, 299040, Note_on_c, 7, 80, 92
9, 299040, Note_on_c, 7, 77, 92
9, 299069, Note_on_c, 7, 77, 0
9, 299069, Note_on_c, 7, 80, 0
9, 299100, Note_on_c, 7, 80, 94
9, 299100, Note_on_c, 7, 77, 94
9, 299129, Note_on_c, 7, 77, 0
9, 299129, Note_on_c, 7, 80, 0
9, 299160, Note_on_c, 7, 80, 96
9, 299160, Note_on_c, 7, 77, 96
9, 299279, Note_on_c, 7, 77, 0
9, 299279, Note_on_c, 7, 80, 0
9, 299280, Note_on_c, 7, 80, 96
9, 299280, Note_on_c, 7, 68, 96
9, 299639, Note_on_c, 7, 68, 0
9, 299639, Note_on_c, 7, 80, 0
9, 299640, Note_on_c, 7, 86, 96
9, 299640, Note_on_c, 7, 74, 96
9, 299999, Note_on_c, 7, 74, 0
9, 299999, Note_on_c, 7, 86, 0
9, 300000, Note_on_c, 7, 89, 96
9, 300000, Note_on_c, 7, 77, 96
9, 300239, Note_on_c, 7, 77, 0
9, 300239, Note_on_c, 7, 89, 0
9, 300240, Note_on_c, 7, 92, 96
9, 300240, Note_on_c, 7, 80, 96
9, 300240, Note_on_c, 7, 70, 96
9, 300479, Note_on_c, 7, 70, 0
9, 300479, Note_on_c, 7, 80, 0
9, 300479, Note_on_c, 7, 92, 0
9, 300480, Note_on_c, 7, 92, 96
9, 300480, Note_on_c, 7, 80, 96
9, 300480, Note_on_c, 7, 70, 96
9, 300539, Note_on_c, 7, 70, 0
9, 300539, Note_on_c, 7, 80, 0
9, 300539, Note_on_c, 7, 92, 0
9, 300600, Note_on_c, 7, 92, 96
9, 300600, Note_on_c, 7, 80, 96
9, 300600, Note_on_c, 7, 70, 96
9, 300659, Note_on_c, 7, 70, 0
9, 300659, Note_on_c, 7, 80, 0
9, 300659, Note_on_c, 7, 92, 0
9, 300720, Note_on_c, 7, 62, 127
9, 300720, Note_on_c, 7, 56, 127
9, 300749, Note_on_c, 7, 56, 0
9, 300749, Note_on_c, 7, 62, 0
9, 300750, Note_on_c, 7, 62, 127
9, 300750, Note_on_c, 7, 56, 127
9, 300779, Note_on_c, 7, 56, 0
9, 300779, Note_on_c, 7, 62, 0
9, 300780, Note_on_c, 7, 62, 127
9, 300780, Note_on_c, 7, 56, 127
9, 300809, Note_on_c, 7, 56, 0
9, 300809, Note_on_c, 7, 62, 0
9, 300810, Note_on_c, 7, 62, 127
9, 300810, Note_on_c, 7, 56, 127
9, 300839, Note_on_c, 7, 56, 0
9, 300839, Note_on_c, 7, 62, 0
9, 300840, Note_on_c, 7, 58, 127
9, 300840, Note_on_c, 7, 56, 127
9, 300869, Note_on_c, 7, 56, 0
9, 300869, Note_on_c, 7, 58, 0
9, 300870, Note_on_c, 7, 58, 127
9, 300870, Note_on_c, 7, 56, 127
9, 300899, Note_on_c, 7, 56, 0
9, 300899, Note_on_c, 7, 58, 0
9, 300900, Note_on_c, 7, 58, 127
9, 300900, Note_on_c, 7, 56, 127
9, 300929, Note_on_c, 7, 56, 0
9, 300929, Note_on_c, 7, 58, 0
9, 300930, Note_on_c, 7, 58, 127
9, 300930, Note_on_c, 7, 56, 127
9, 300959, Note_on_c, 7, 56, 0
9, 300959, Note_on_c, 7, 58, 0
9, 300960, Note_on_c, 7, 65, 127
9, 300960, Note_on_c, 7, 56, 127
9, 300989, Note_on_c, 7, 56, 0
9, 300989, Note_on_c, 7, 65, 0
9, 300990, Note_on_c, 7, 65, 127
9, 300990, Note_on_c, 7, 56, 127
9, 301019, Note_on_c, 7, 56, 0
9, 301019, Note_on_c, 7, 65, 0
9, 301020, Note_on_c, 7, 65, 127
9, 301020, Note_on_c, 7, 56, 127
9, 301049, Note_on_c, 7, 56, 0
9, 301049, Note_on_c, 7, 65, 0
9, 301050, Note_on_c, 7, 65, 127
9, 301050, Note_on_c, 7, 56, 127
9, 301079, Note_on_c, 7, 56, 0
9, 301079, Note_on_c, 7, 65, 0
9, 301080, Note_on_c, 7, 58, 127
9, 301080, Note_on_c, 7, 56, 127
9, 301109, Note_on_c, 7, 56, 0
9, 301109, Note_on_c, 7, 58, 0
9, 301110, Note_on_c, 7, 58, 127
9, 301110, Note_on_c, 7, 56, 127
9, 301139, Note_on_c, 7, 56, 0
9, 301139, Note_on_c, 7, 58, 0
9, 301140, Note_on_c, 7, 58, 127
9, 301140, Note_on_c, 7, 56, 127
9, 301169, Note_on_c, 7, 56, 0
9, 301169, Note_on_c, 7, 58, 0
9, 301170, Note_on_c, 7, 58, 127
9, 301170, Note_on_c, 7, 56, 127
9, 301199, Note_on_c, 7, 56, 0
9, 301199, Note_on_c, 7, 58, 0
9, 301200, Note_on_c, 7, 70, 127
9, 301200, Note_on_c, 7, 56, 127
9, 301229, Note_on_c, 7, 56, 0
9, 301229, Note_on_c, 7, 70, 0
9, 301230, Note_on_c, 7, 70, 127
9, 301230, Note_on_c, 7, 56, 127
9, 301259, Note_on_c, 7, 56, 0
9, 301259, Note_on_c, 7, 70, 0
9, 301260, Note_on_c, 7, 70, 127
9, 301260, Note_on_c, 7, 56, 127
9, 301289, Note_on_c, 7, 56, 0
9, 301289, Note_on_c, 7, 70, 0
9, 301290, Note_on_c, 7, 70, 127
9, 301290, Note_on_c, 7, 56, 127
9, 301319, Note_on_c, 7, 56, 0
9, 301319, Note_on_c, 7, 70, 0
9, 301320, Note_on_c, 7, 58, 127
9, 301320, Note_on_c, 7, 56, 127
9, 301349, Note_on_c, 7, 56, 0
9, 301349, Note_on_c, 7, 58, 0
9, 301350, Note_on_c, 7, 58, 127
9, 301350, Note_on_c, 7, 56, 127
9, 301379, Note_on_c, 7, 56, 0
9, 301379, Note_on_c, 7, 58, 0
9, 301380, Note_on_c, 7, 58, 127
9, 301380, Note_on_c, 7, 56, 127
9, 301409, Note_on_c, 7, 56, 0
9, 301409, Note_on_c, 7, 58, 0
9, 301410, Note_on_c, 7, 58, 127
9, 301410, Note_on_c, 7, 56, 127
9, 301439, Note_on_c, 7, 56, 0
9, 301439, Note_on_c, 7, 58, 0
9, 301440, Note_on_c, 7, 74, 127
9, 301440, Note_on_c, 7, 56, 127
9, 301469, Note_on_c, 7, 56, 0
9, 301469, Note_on_c, 7, 74, 0
9, 301470, Note_on_c, 7, 74, 127
9, 301470, Note_on_c, 7, 56, 127
9, 301499, Note_on_c, 7, 56, 0
9, 301499, Note_on_c, 7, 74, 0
9, 301500, Note_on_c, 7, 74, 127
9, 301500, Note_on_c, 7, 56, 127
9, 301529, Note_on_c, 7, 56, 0
9, 301529, Note_on_c, 7, 74, 0
9, 301530, Note_on_c, 7, 74, 127
9, 301530, Note_on_c, 7, 56, 127
9, 301559, Note_on_c, 7, 56, 0
9, 301559, Note_on_c, 7, 74, 0
9, 301560, Note_on_c, 7, 58, 127
9, 301560, Note_on_c, 7, 56, 127
9, 301589, Note_on_c, 7, 56, 0
9, 301589, Note_on_c, 7, 58, 0
9, 301590, Note_on_c, 7, 58, 127
9, 301590, Note_on_c, 7, 56, 127
9, 301619, Note_on_c, 7, 56, 0
9, 301619, Note_on_c, 7, 58, 0
9, 301620, Note_on_c, 7, 58, 127
9, 301620, Note_on_c, 7, 56, 127
9, 301649, Note_on_c, 7, 56, 0
9, 301649, Note_on_c, 7, 58, 0
9, 301650, Note_on_c, 7, 58, 127
9, 301650, Note_on_c, 7, 56, 127
9, 301679, Note_on_c, 7, 56, 0
9, 301679, Note_on_c, 7, 58, 0
9, 301680, Note_on_c, 7, 77, 127
9, 301680, Note_on_c, 7, 56, 127
9, 301709, Note_on_c, 7, 56, 0
9, 301709, Note_on_c, 7, 77, 0
9, 301710, Note_on_c, 7, 77, 127
9, 301710, Note_on_c, 7, 56, 127
9, 301739, Note_on_c, 7, 56, 0
9, 301739, Note_on_c, 7, 77, 0
9, 301740, Note_on_c, 7, 77, 127
9, 301740, Note_on_c, 7, 56, 127
9, 301769, Note_on_c, 7, 56, 0
9, 301769, Note_on_c, 7, 77, 0
9, 301770, Note_on_c, 7, 77, 127
9, 301770, Note_on_c, 7, 56, 127
9, 301799, Note_on_c, 7, 56, 0
9, 301799, Note_on_c, 7, 77, 0
9, 301800, Note_on_c, 7, 58, 127
9, 301800, Note_on_c, 7, 56, 127
9, 301829, Note_on_c, 7, 56, 0
9, 301829, Note_on_c, 7, 58, 0
9, 301830, Note_on_c, 7, 58, 127
9, 301830, Note_on_c, 7, 56, 127
9, 301859, Note_on_c, 7, 56, 0
9, 301859, Note_on_c, 7, 58, 0
9, 301860, Note_on_c, 7, 58, 127
9, 301860, Note_on_c, 7, 56, 127
9, 301889, Note_on_c, 7, 56, 0
9, 301889, Note_on_c, 7, 58, 0
9, 301890, Note_on_c, 7, 58, 127
9, 301890, Note_on_c, 7, 56, 127
9, 301919, Note_on_c, 7, 56, 0
9, 301919, Note_on_c, 7, 58, 0
9, 301920, Note_on_c, 7, 82, 127
9, 301920, Note_on_c, 7, 74, 127
9, 301920, Note_on_c, 7, 65, 127
9, 301949, Note_on_c, 7, 65, 0
9, 301949, Note_on_c, 7, 74, 0
9, 301949, Note_on_c, 7, 82, 0
9, 301950, Note_on_c, 7, 82, 127
9, 301950, Note_on_c, 7, 74, 127
9, 301950, Note_on_c, 7, 65, 127
9, 301979, Note_on_c, 7, 65, 0
9, 301979, Note_on_c, 7, 74, 0
9, 301979, Note_on_c, 7, 82, 0
9, 301980, Note_on_c, 7, 82, 127
9, 301980, Note_on_c, 7, 74, 127
9, 301980, Note_on_c, 7, 65, 127
9, 302009, Note_on_c, 7, 65, 0
9, 302009, Note_on_c, 7, 74, 0
9, 302009, Note_on_c, 7, 82, 0
9, 302010, Note_on_c, 7, 82, 127
9, 302010, Note_on_c, 7, 74, 127
9, 302010, Note_on_c, 7, 65, 127
9, 302039, Note_on_c, 7, 65, 0
9, 302039, Note_on_c, 7, 74, 0
9, 302039, Note_on_c, 7, 82, 0
9, 302040, Note_on_c, 7, 79, 127
9, 302040, Note_on_c, 7, 67, 127
9, 302040, Note_on_c, 7, 75, 127
9, 302159, Note_on_c, 7, 75, 0
9, 302159, Note_on_c, 7, 67, 0
9, 302159, Note_on_c, 7, 79, 0
9, 302400, Note_on_c, 7, 79, 127
9, 302400, Note_on_c, 7, 70, 127
9, 302400, Note_on_c, 7, 55, 127
9, 302400, Note_on_c, 7, 63, 127
9, 302519, Note_on_c, 7, 63, 0
9, 302519, Note_on_c, 7, 79, 0
9, 302519, Note_on_c, 7, 70, 0
9, 302519, Note_on_c, 7, 55, 0
9, 302760, Note_on_c, 7, 55, 127
9, 302760, Note_on_c, 7, 63, 127
9, 302879, Note_on_c, 7, 63, 0
9, 302879, Note_on_c, 7, 55, 0
9, 302879, End_track
10, 0, Start_track
10, 0, MIDI_port, 0
10, 0, Title_t, "Viola"
10, 0, Program_c, 7, 48
10, 0, Control_c, 7, 7, 127
10, 0, Control_c, 7, 10, 64
10, 0, Control_c, 7, 93, 0
10, 0, Control_c, 7, 91, 0
10, 0, Note_on_c, 7, 55, 96
10, 0, Note_on_c, 7, 63, 96
10, 59, Note_on_c, 7, 63, 0
10, 59, Note_on_c, 7, 55, 0
10, 360, Note_on_c, 7, 63, 96
10, 360, Note_on_c, 7, 55, 96
10, 419, Note_on_c, 7, 55, 0
10, 419, Note_on_c, 7, 63, 0
10, 720, Note_on_c, 7, 58, 48
10, 779, Note_on_c, 7, 58, 0
10, 780, Note_on_c, 7, 58, 48
10, 839, Note_on_c, 7, 58, 0
10, 840, Note_on_c, 7, 58, 48
10, 899, Note_on_c, 7, 58, 0
10, 900, Note_on_c, 7, 58, 48
10, 959, Note_on_c, 7, 58, 0
10, 960, Note_on_c, 7, 58, 48
10, 1019, Note_on_c, 7, 58, 0
10, 1020, Note_on_c, 7, 58, 48
10, 1079, Note_on_c, 7, 58, 0
10, 1080, Note_on_c, 7, 58, 48
10, 1139, Note_on_c, 7, 58, 0
10, 1140, Note_on_c, 7, 58, 48
10, 1199, Note_on_c, 7, 58, 0
10, 1200, Note_on_c, 7, 58, 48
10, 1259, Note_on_c, 7, 58, 0
10, 1260, Note_on_c, 7, 58, 48
10, 1319, Note_on_c, 7, 58, 0
10, 1320, Note_on_c, 7, 58, 48
10, 1379, Note_on_c, 7, 58, 0
10, 1380, Note_on_c, 7, 58, 48
10, 1439, Note_on_c, 7, 58, 0
10, 1440, Note_on_c, 7, 58, 48
10, 1499, Note_on_c, 7, 58, 0
10, 1500, Note_on_c, 7, 58, 48
10, 1559, Note_on_c, 7, 58, 0
10, 1560, Note_on_c, 7, 58, 48
10, 1619, Note_on_c, 7, 58, 0
10, 1620, Note_on_c, 7, 58, 48
10, 1679, Note_on_c, 7, 58, 0
10, 1680, Note_on_c, 7, 58, 48
10, 1739, Note_on_c, 7, 58, 0
10, 1740, Note_on_c, 7, 58, 48
10, 1799, Note_on_c, 7, 58, 0
10, 1800, Note_on_c, 7, 58, 48
10, 1859, Note_on_c, 7, 58, 0
10, 1860, Note_on_c, 7, 58, 48
10, 1919, Note_on_c, 7, 58, 0
10, 1920, Note_on_c, 7, 58, 48
10, 1979, Note_on_c, 7, 58, 0
10, 1980, Note_on_c, 7, 58, 48
10, 2039, Note_on_c, 7, 58, 0
10, 2040, Note_on_c, 7, 58, 48
10, 2099, Note_on_c, 7, 58, 0
10, 2100, Note_on_c, 7, 58, 48
10, 2159, Note_on_c, 7, 58, 0
10, 2160, Note_on_c, 7, 58, 48
10, 2219, Note_on_c, 7, 58, 0
10, 2220, Note_on_c, 7, 58, 48
10, 2279, Note_on_c, 7, 58, 0
10, 2280, Note_on_c, 7, 58, 51
10, 2339, Note_on_c, 7, 58, 0
10, 2340, Note_on_c, 7, 58, 54
10, 2399, Note_on_c, 7, 58, 0
10, 2400, Note_on_c, 7, 58, 57
10, 2459, Note_on_c, 7, 58, 0
10, 2460, Note_on_c, 7, 58, 60
10, 2519, Note_on_c, 7, 58, 0
10, 2520, Note_on_c, 7, 58, 63
10, 2579, Note_on_c, 7, 58, 0
10, 2580, Note_on_c, 7, 58, 66
10, 2639, Note_on_c, 7, 58, 0
10, 2640, Note_on_c, 7, 58, 69
10, 2699, Note_on_c, 7, 58, 0
10, 2700, Note_on_c, 7, 58, 72
10, 2759, Note_on_c, 7, 58, 0
10, 2760, Note_on_c, 7, 58, 75
10, 2819, Note_on_c, 7, 58, 0
10, 2820, Note_on_c, 7, 58, 78
10, 2879, Note_on_c, 7, 58, 0
10, 2880, Note_on_c, 7, 58, 81
10, 2999, Note_on_c, 7, 58, 0
10, 3240, Note_on_c, 7, 68, 96
10, 3839, Note_on_c, 7, 68, 0
10, 3840, Note_on_c, 7, 67, 48
10, 3960, Note_on_c, 7, 65, 48
10, 3969, Note_on_c, 7, 67, 0
10, 4080, Note_on_c, 7, 67, 48
10, 4089, Note_on_c, 7, 65, 0
10, 4200, Note_on_c, 7, 68, 48
10, 4209, Note_on_c, 7, 67, 0
10, 4320, Note_on_c, 7, 67, 48
10, 4329, Note_on_c, 7, 68, 0
10, 4380, Note_on_c, 7, 70, 48
10, 4389, Note_on_c, 7, 67, 0
10, 4440, Note_on_c, 7, 68, 48
10, 4449, Note_on_c, 7, 70, 0
10, 4500, Note_on_c, 7, 67, 48
10, 4509, Note_on_c, 7, 68, 0
10, 4560, Note_on_c, 7, 65, 48
10, 4569, Note_on_c, 7, 67, 0
10, 4620, Note_on_c, 7, 63, 48
10, 4629, Note_on_c, 7, 65, 0
10, 4679, Note_on_c, 7, 63, 0
10, 4680, Note_on_c, 7, 62, 48
10, 4740, Note_on_c, 7, 58, 48
10, 4749, Note_on_c, 7, 62, 0
10, 4800, Note_on_c, 7, 63, 48
10, 4809, Note_on_c, 7, 58, 0
10, 4860, Note_on_c, 7, 58, 48
10, 4869, Note_on_c, 7, 63, 0
10, 4920, Note_on_c, 7, 57, 48
10, 4929, Note_on_c, 7, 58, 0
10, 4980, Note_on_c, 7, 53, 48
10, 4989, Note_on_c, 7, 57, 0
10, 5039, Note_on_c, 7, 53, 0
10, 5040, Note_on_c, 7, 55, 48
10, 5069, Note_on_c, 7, 55, 0
10, 5100, Note_on_c, 7, 51, 48
10, 5100, Note_on_c, 7, 55, 48
10, 5129, Note_on_c, 7, 55, 0
10, 5129, Note_on_c, 7, 51, 0
10, 5160, Note_on_c, 7, 55, 48
10, 5160, Note_on_c, 7, 51, 48
10, 5189, Note_on_c, 7, 51, 0
10, 5189, Note_on_c, 7, 55, 0
10, 5220, Note_on_c, 7, 55, 48
10, 5220, Note_on_c, 7, 51, 48
10, 5249, Note_on_c, 7, 51, 0
10, 5249, Note_on_c, 7, 55, 0
10, 5280, Note_on_c, 7, 55, 48
10, 5280, Note_on_c, 7, 51, 48
10, 5309, Note_on_c, 7, 51, 0
10, 5309, Note_on_c, 7, 55, 0
10, 5340, Note_on_c, 7, 55, 48
10, 5340, Note_on_c, 7, 51, 48
10, 5369, Note_on_c, 7, 51, 0
10, 5369, Note_on_c, 7, 55, 0
10, 5400, Note_on_c, 7, 55, 48
10, 5400, Note_on_c, 7, 51, 48
10, 5429, Note_on_c, 7, 51, 0
10, 5429, Note_on_c, 7, 55, 0
10, 5460, Note_on_c, 7, 55, 48
10, 5460, Note_on_c, 7, 51, 48
10, 5489, Note_on_c, 7, 51, 0
10, 5489, Note_on_c, 7, 55, 0
10, 5520, Note_on_c, 7, 55, 48
10, 5520, Note_on_c, 7, 51, 48
10, 5549, Note_on_c, 7, 51, 0
10, 5549, Note_on_c, 7, 55, 0
10, 5580, Note_on_c, 7, 55, 48
10, 5580, Note_on_c, 7, 51, 48
10, 5609, Note_on_c, 7, 51, 0
10, 5609, Note_on_c, 7, 55, 0
10, 5640, Note_on_c, 7, 55, 48
10, 5640, Note_on_c, 7, 51, 48
10, 5669, Note_on_c, 7, 51, 0
10, 5669, Note_on_c, 7, 55, 0
10, 5700, Note_on_c, 7, 55, 48
10, 5700, Note_on_c, 7, 51, 48
10, 5729, Note_on_c, 7, 51, 0
10, 5729, Note_on_c, 7, 55, 0
10, 5760, Note_on_c, 7, 55, 48
10, 5760, Note_on_c, 7, 51, 48
10, 5789, Note_on_c, 7, 51, 0
10, 5789, Note_on_c, 7, 55, 0
10, 5820, Note_on_c, 7, 55, 48
10, 5820, Note_on_c, 7, 51, 48
10, 5849, Note_on_c, 7, 51, 0
10, 5849, Note_on_c, 7, 55, 0
10, 5880, Note_on_c, 7, 55, 48
10, 5880, Note_on_c, 7, 51, 48
10, 5909, Note_on_c, 7, 51, 0
10, 5909, Note_on_c, 7, 55, 0
10, 5940, Note_on_c, 7, 55, 48
10, 5940, Note_on_c, 7, 51, 48
10, 5969, Note_on_c, 7, 51, 0
10, 5969, Note_on_c, 7, 55, 0
10, 6000, Note_on_c, 7, 55, 48
10, 6000, Note_on_c, 7, 51, 48
10, 6029, Note_on_c, 7, 51, 0
10, 6029, Note_on_c, 7, 55, 0
10, 6060, Note_on_c, 7, 55, 48
10, 6060, Note_on_c, 7, 51, 48
10, 6089, Note_on_c, 7, 51, 0
10, 6089, Note_on_c, 7, 55, 0
10, 6120, Note_on_c, 7, 55, 48
10, 6179, Note_on_c, 7, 55, 0
10, 6180, Note_on_c, 7, 55, 48
10, 6239, Note_on_c, 7, 55, 0
10, 6240, Note_on_c, 7, 58, 48
10, 6240, Note_on_c, 7, 55, 48
10, 6299, Note_on_c, 7, 55, 0
10, 6299, Note_on_c, 7, 58, 0
10, 6300, Note_on_c, 7, 58, 48
10, 6300, Note_on_c, 7, 55, 48
10, 6359, Note_on_c, 7, 55, 0
10, 6359, Note_on_c, 7, 58, 0
10, 6360, Note_on_c, 7, 58, 48
10, 6360, Note_on_c, 7, 55, 48
10, 6419, Note_on_c, 7, 55, 0
10, 6419, Note_on_c, 7, 58, 0
10, 6420, Note_on_c, 7, 58, 48
10, 6420, Note_on_c, 7, 55, 48
10, 6479, Note_on_c, 7, 55, 0
10, 6479, Note_on_c, 7, 58, 0
10, 6480, Note_on_c, 7, 53, 48
10, 6480, Note_on_c, 7, 56, 48
10, 6539, Note_on_c, 7, 56, 0
10, 6539, Note_on_c, 7, 53, 0
10, 6540, Note_on_c, 7, 53, 48
10, 6540, Note_on_c, 7, 56, 48
10, 6599, Note_on_c, 7, 56, 0
10, 6599, Note_on_c, 7, 53, 0
10, 6600, Note_on_c, 7, 53, 48
10, 6600, Note_on_c, 7, 56, 48
10, 6659, Note_on_c, 7, 56, 0
10, 6659, Note_on_c, 7, 53, 0
10, 6660, Note_on_c, 7, 53, 48
10, 6660, Note_on_c, 7, 56, 48
10, 6719, Note_on_c, 7, 56, 0
10, 6719, Note_on_c, 7, 53, 0
10, 6720, Note_on_c, 7, 53, 48
10, 6720, Note_on_c, 7, 56, 48
10, 6779, Note_on_c, 7, 56, 0
10, 6779, Note_on_c, 7, 53, 0
10, 6780, Note_on_c, 7, 53, 48
10, 6780, Note_on_c, 7, 56, 48
10, 6839, Note_on_c, 7, 56, 0
10, 6839, Note_on_c, 7, 53, 0
10, 6840, Note_on_c, 7, 53, 48
10, 6840, Note_on_c, 7, 56, 48
10, 6899, Note_on_c, 7, 56, 0
10, 6899, Note_on_c, 7, 53, 0
10, 6900, Note_on_c, 7, 53, 48
10, 6900, Note_on_c, 7, 56, 48
10, 6959, Note_on_c, 7, 56, 0
10, 6959, Note_on_c, 7, 53, 0
10, 6960, Note_on_c, 7, 53, 48
10, 6960, Note_on_c, 7, 56, 48
10, 7019, Note_on_c, 7, 56, 0
10, 7019, Note_on_c, 7, 53, 0
10, 7020, Note_on_c, 7, 53, 48
10, 7020, Note_on_c, 7, 56, 48
10, 7079, Note_on_c, 7, 56, 0
10, 7079, Note_on_c, 7, 53, 0
10, 7080, Note_on_c, 7, 58, 48
10, 7080, Note_on_c, 7, 61, 48
10, 7139, Note_on_c, 7, 61, 0
10, 7139, Note_on_c, 7, 58, 0
10, 7140, Note_on_c, 7, 58, 48
10, 7140, Note_on_c, 7, 61, 48
10, 7199, Note_on_c, 7, 61, 0
10, 7199, Note_on_c, 7, 58, 0
10, 7200, Note_on_c, 7, 60, 48
10, 7200, Note_on_c, 7, 56, 48
10, 7259, Note_on_c, 7, 56, 0
10, 7259, Note_on_c, 7, 60, 0
10, 7260, Note_on_c, 7, 60, 48
10, 7260, Note_on_c, 7, 56, 48
10, 7319, Note_on_c, 7, 56, 0
10, 7319, Note_on_c, 7, 60, 0
10, 7320, Note_on_c, 7, 60, 48
10, 7320, Note_on_c, 7, 56, 48
10, 7379, Note_on_c, 7, 56, 0
10, 7379, Note_on_c, 7, 60, 0
10, 7380, Note_on_c, 7, 60, 48
10, 7380, Note_on_c, 7, 56, 48
10, 7439, Note_on_c, 7, 56, 0
10, 7439, Note_on_c, 7, 60, 0
10, 7440, Note_on_c, 7, 60, 48
10, 7440, Note_on_c, 7, 56, 48
10, 7499, Note_on_c, 7, 56, 0
10, 7499, Note_on_c, 7, 60, 0
10, 7500, Note_on_c, 7, 60, 48
10, 7500, Note_on_c, 7, 56, 48
10, 7559, Note_on_c, 7, 56, 0
10, 7559, Note_on_c, 7, 60, 0
10, 7560, Note_on_c, 7, 56, 48
10, 7560, Note_on_c, 7, 60, 48
10, 7619, Note_on_c, 7, 60, 0
10, 7619, Note_on_c, 7, 56, 0
10, 7620, Note_on_c, 7, 60, 56
10, 7679, Note_on_c, 7, 60, 0
10, 7680, Note_on_c, 7, 60, 64
10, 7739, Note_on_c, 7, 60, 0
10, 7740, Note_on_c, 7, 60, 72
10, 7799, Note_on_c, 7, 60, 0
10, 7800, Note_on_c, 7, 59, 80
10, 7859, Note_on_c, 7, 59, 0
10, 7860, Note_on_c, 7, 59, 88
10, 7919, Note_on_c, 7, 59, 0
10, 7920, Note_on_c, 7, 58, 96
10, 7949, Note_on_c, 7, 58, 0
10, 7950, Note_on_c, 7, 58, 48
10, 8399, Note_on_c, 7, 58, 0
10, 8400, Note_on_c, 7, 50, 48
10, 8520, Note_on_c, 7, 53, 48
10, 8529, Note_on_c, 7, 50, 0
10, 8639, Note_on_c, 7, 53, 0
10, 8640, Note_on_c, 7, 55, 48
10, 8699, Note_on_c, 7, 55, 0
10, 8760, Note_on_c, 7, 54, 96
10, 8999, Note_on_c, 7, 54, 0
10, 9000, Note_on_c, 7, 54, 96
10, 9239, Note_on_c, 7, 54, 0
10, 9240, Note_on_c, 7, 54, 96
10, 9359, Note_on_c, 7, 54, 0
10, 9360, Note_on_c, 7, 53, 96
10, 9419, Note_on_c, 7, 53, 0
10, 9480, Note_on_c, 7, 58, 48
10, 9840, Note_on_c, 7, 50, 48
10, 9849, Note_on_c, 7, 58, 0
10, 9959, Note_on_c, 7, 50, 0
10, 9960, Note_on_c, 7, 58, 96
10, 10080, Note_on_c, 7, 56, 90
10, 10089, Note_on_c, 7, 58, 0
10, 10139, Note_on_c, 7, 56, 0
10, 10200, Note_on_c, 7, 68, 96
10, 10439, Note_on_c, 7, 68, 0
10, 10440, Note_on_c, 7, 68, 96
10, 10679, Note_on_c, 7, 68, 0
10, 10680, Note_on_c, 7, 68, 96
10, 10919, Note_on_c, 7, 68, 0
10, 10920, Note_on_c, 7, 67, 96
10, 11159, Note_on_c, 7, 67, 0
10, 11160, Note_on_c, 7, 67, 96
10, 11399, Note_on_c, 7, 67, 0
10, 11400, Note_on_c, 7, 67, 96
10, 11639, Note_on_c, 7, 67, 0
10, 11640, Note_on_c, 7, 68, 90
10, 11699, Note_on_c, 7, 68, 0
10, 11760, Note_on_c, 7, 68, 96
10, 11999, Note_on_c, 7, 68, 0
10, 12000, Note_on_c, 7, 67, 90
10, 12059, Note_on_c, 7, 67, 0
10, 12120, Note_on_c, 7, 67, 96
10, 12240, Note_on_c, 7, 62, 96
10, 12249, Note_on_c, 7, 67, 0
10, 12269, Note_on_c, 7, 62, 0
10, 12270, Note_on_c, 7, 65, 97
10, 12299, Note_on_c, 7, 65, 0
10, 12300, Note_on_c, 7, 65, 98
10, 12329, Note_on_c, 7, 65, 0
10, 12330, Note_on_c, 7, 65, 99
10, 12359, Note_on_c, 7, 65, 0
10, 12360, Note_on_c, 7, 65, 100
10, 12389, Note_on_c, 7, 65, 0
10, 12390, Note_on_c, 7, 65, 102
10, 12419, Note_on_c, 7, 65, 0
10, 12420, Note_on_c, 7, 63, 103
10, 12449, Note_on_c, 7, 63, 0
10, 12450, Note_on_c, 7, 63, 104
10, 12479, Note_on_c, 7, 63, 0
10, 12480, Note_on_c, 7, 62, 105
10, 12509, Note_on_c, 7, 62, 0
10, 12510, Note_on_c, 7, 62, 106
10, 12539, Note_on_c, 7, 62, 0
10, 12540, Note_on_c, 7, 60, 107
10, 12569, Note_on_c, 7, 60, 0
10, 12570, Note_on_c, 7, 60, 109
10, 12599, Note_on_c, 7, 60, 0
10, 12600, Note_on_c, 7, 58, 110
10, 12629, Note_on_c, 7, 58, 0
10, 12630, Note_on_c, 7, 58, 111
10, 12659, Note_on_c, 7, 58, 0
10, 12660, Note_on_c, 7, 56, 112
10, 12689, Note_on_c, 7, 56, 0
10, 12690, Note_on_c, 7, 56, 113
10, 12719, Note_on_c, 7, 56, 0
10, 12720, Note_on_c, 7, 55, 114
10, 12749, Note_on_c, 7, 55, 0
10, 12750, Note_on_c, 7, 55, 115
10, 12779, Note_on_c, 7, 55, 0
10, 12780, Note_on_c, 7, 53, 116
10, 12809, Note_on_c, 7, 53, 0
10, 12810, Note_on_c, 7, 53, 118
10, 12839, Note_on_c, 7, 53, 0
10, 12840, Note_on_c, 7, 51, 119
10, 12869, Note_on_c, 7, 51, 0
10, 12870, Note_on_c, 7, 51, 121
10, 12899, Note_on_c, 7, 51, 0
10, 12900, Note_on_c, 7, 56, 123
10, 12929, Note_on_c, 7, 56, 0
10, 12930, Note_on_c, 7, 56, 125
10, 12959, Note_on_c, 7, 56, 0
10, 12960, Note_on_c, 7, 55, 127
10, 13080, Note_on_c, 7, 63, 127
10, 13089, Note_on_c, 7, 55, 0
10, 13200, Note_on_c, 7, 67, 127
10, 13209, Note_on_c, 7, 63, 0
10, 13319, Note_on_c, 7, 67, 0
10, 13320, Note_on_c, 7, 63, 127
10, 13560, Note_on_c, 7, 58, 127
10, 13569, Note_on_c, 7, 63, 0
10, 13679, Note_on_c, 7, 58, 0
10, 13680, Note_on_c, 7, 63, 127
10, 13800, Note_on_c, 7, 55, 48
10, 13800, Note_on_c, 7, 67, 127
10, 13809, Note_on_c, 7, 63, 0
10, 13869, Note_on_c, 7, 55, 0
10, 13920, Note_on_c, 7, 70, 127
10, 13929, Note_on_c, 7, 67, 0
10, 14039, Note_on_c, 7, 70, 0
10, 14040, Note_on_c, 7, 63, 127
10, 14279, Note_on_c, 7, 63, 0
10, 14280, Note_on_c, 7, 55, 127
10, 14399, Note_on_c, 7, 55, 0
10, 14400, Note_on_c, 7, 60, 127
10, 14520, Note_on_c, 7, 63, 127
10, 14529, Note_on_c, 7, 60, 0
10, 14640, Note_on_c, 7, 67, 127
10, 14649, Note_on_c, 7, 63, 0
10, 14759, Note_on_c, 7, 67, 0
10, 14760, Note_on_c, 7, 60, 127
10, 14999, Note_on_c, 7, 60, 0
10, 15000, Note_on_c, 7, 61, 127
10, 15029, Note_on_c, 7, 61, 0
10, 15030, Note_on_c, 7, 61, 127
10, 15059, Note_on_c, 7, 61, 0
10, 15060, Note_on_c, 7, 61, 127
10, 15089, Note_on_c, 7, 61, 0
10, 15090, Note_on_c, 7, 61, 127
10, 15119, Note_on_c, 7, 61, 0
10, 15120, Note_on_c, 7, 60, 127
10, 15149, Note_on_c, 7, 60, 0
10, 15150, Note_on_c, 7, 60, 127
10, 15179, Note_on_c, 7, 60, 0
10, 15180, Note_on_c, 7, 60, 127
10, 15209, Note_on_c, 7, 60, 0
10, 15210, Note_on_c, 7, 60, 127
10, 15239, Note_on_c, 7, 60, 0
10, 15240, Note_on_c, 7, 60, 127
10, 15269, Note_on_c, 7, 60, 0
10, 15270, Note_on_c, 7, 60, 127
10, 15299, Note_on_c, 7, 60, 0
10, 15300, Note_on_c, 7, 60, 127
10, 15329, Note_on_c, 7, 60, 0
10, 15330, Note_on_c, 7, 60, 127
10, 15359, Note_on_c, 7, 60, 0
10, 15360, Note_on_c, 7, 60, 127
10, 15389, Note_on_c, 7, 60, 0
10, 15390, Note_on_c, 7, 60, 127
10, 15419, Note_on_c, 7, 60, 0
10, 15420, Note_on_c, 7, 60, 127
10, 15449, Note_on_c, 7, 60, 0
10, 15450, Note_on_c, 7, 60, 127
10, 15479, Note_on_c, 7, 60, 0
10, 15480, Note_on_c, 7, 60, 127
10, 15509, Note_on_c, 7, 60, 0
10, 15510, Note_on_c, 7, 60, 127
10, 15539, Note_on_c, 7, 60, 0
10, 15540, Note_on_c, 7, 58, 127
10, 15569, Note_on_c, 7, 58, 0
10, 15570, Note_on_c, 7, 58, 127
10, 15599, Note_on_c, 7, 58, 0
10, 15600, Note_on_c, 7, 57, 127
10, 15629, Note_on_c, 7, 57, 0
10, 15630, Note_on_c, 7, 57, 127
10, 15659, Note_on_c, 7, 57, 0
10, 15660, Note_on_c, 7, 58, 127
10, 15689, Note_on_c, 7, 58, 0
10, 15690, Note_on_c, 7, 58, 127
10, 15719, Note_on_c, 7, 58, 0
10, 15720, Note_on_c, 7, 60, 127
10, 15749, Note_on_c, 7, 60, 0
10, 15750, Note_on_c, 7, 60, 127
10, 15779, Note_on_c, 7, 60, 0
10, 15780, Note_on_c, 7, 58, 127
10, 15809, Note_on_c, 7, 58, 0
10, 15810, Note_on_c, 7, 58, 127
10, 15839, Note_on_c, 7, 58, 0
10, 15840, Note_on_c, 7, 57, 127
10, 15869, Note_on_c, 7, 57, 0
10, 15900, Note_on_c, 7, 53, 48
10, 15960, Note_on_c, 7, 57, 48
10, 15969, Note_on_c, 7, 53, 0
10, 16020, Note_on_c, 7, 53, 48
10, 16029, Note_on_c, 7, 57, 0
10, 16080, Note_on_c, 7, 57, 48
10, 16089, Note_on_c, 7, 53, 0
10, 16140, Note_on_c, 7, 53, 48
10, 16149, Note_on_c, 7, 57, 0
10, 16199, Note_on_c, 7, 53, 0
10, 16200, Note_on_c, 7, 57, 48
10, 16260, Note_on_c, 7, 53, 48
10, 16269, Note_on_c, 7, 57, 0
10, 16320, Note_on_c, 7, 57, 48
10, 16329, Note_on_c, 7, 53, 0
10, 16380, Note_on_c, 7, 53, 48
10, 16389, Note_on_c, 7, 57, 0
10, 16440, Note_on_c, 7, 57, 48
10, 16449, Note_on_c, 7, 53, 0
10, 16500, Note_on_c, 7, 53, 48
10, 16509, Note_on_c, 7, 57, 0
10, 16559, Note_on_c, 7, 53, 0
10, 16560, Note_on_c, 7, 57, 48
10, 16620, Note_on_c, 7, 53, 48
10, 16629, Note_on_c, 7, 57, 0
10, 16680, Note_on_c, 7, 57, 48
10, 16689, Note_on_c, 7, 53, 0
10, 16740, Note_on_c, 7, 53, 48
10, 16749, Note_on_c, 7, 57, 0
10, 16800, Note_on_c, 7, 57, 48
10, 16809, Note_on_c, 7, 53, 0
10, 16860, Note_on_c, 7, 53, 48
10, 16869, Note_on_c, 7, 57, 0
10, 16919, Note_on_c, 7, 53, 0
10, 16920, Note_on_c, 7, 57, 48
10, 16980, Note_on_c, 7, 53, 48
10, 16989, Note_on_c, 7, 57, 0
10, 17040, Note_on_c, 7, 57, 48
10, 17049, Note_on_c, 7, 53, 0
10, 17100, Note_on_c, 7, 53, 48
10, 17109, Note_on_c, 7, 57, 0
10, 17160, Note_on_c, 7, 57, 48
10, 17169, Note_on_c, 7, 53, 0
10, 17220, Note_on_c, 7, 53, 48
10, 17229, Note_on_c, 7, 57, 0
10, 17279, Note_on_c, 7, 53, 0
10, 17280, Note_on_c, 7, 58, 48
10, 17340, Note_on_c, 7, 53, 48
10, 17349, Note_on_c, 7, 58, 0
10, 17400, Note_on_c, 7, 58, 48
10, 17409, Note_on_c, 7, 53, 0
10, 17460, Note_on_c, 7, 53, 48
10, 17469, Note_on_c, 7, 58, 0
10, 17520, Note_on_c, 7, 58, 48
10, 17529, Note_on_c, 7, 53, 0
10, 17580, Note_on_c, 7, 53, 48
10, 17589, Note_on_c, 7, 58, 0
10, 17639, Note_on_c, 7, 53, 0
10, 17640, Note_on_c, 7, 58, 48
10, 17700, Note_on_c, 7, 53, 48
10, 17709, Note_on_c, 7, 58, 0
10, 17760, Note_on_c, 7, 58, 48
10, 17769, Note_on_c, 7, 53, 0
10, 17820, Note_on_c, 7, 53, 48
10, 17829, Note_on_c, 7, 58, 0
10, 17880, Note_on_c, 7, 58, 48
10, 17889, Note_on_c, 7, 53, 0
10, 17940, Note_on_c, 7, 53, 48
10, 17949, Note_on_c, 7, 58, 0
10, 17999, Note_on_c, 7, 53, 0
10, 18000, Note_on_c, 7, 58, 48
10, 18060, Note_on_c, 7, 53, 48
10, 18069, Note_on_c, 7, 58, 0
10, 18120, Note_on_c, 7, 58, 48
10, 18129, Note_on_c, 7, 53, 0
10, 18180, Note_on_c, 7, 53, 48
10, 18189, Note_on_c, 7, 58, 0
10, 18240, Note_on_c, 7, 58, 48
10, 18249, Note_on_c, 7, 53, 0
10, 18300, Note_on_c, 7, 53, 48
10, 18309, Note_on_c, 7, 58, 0
10, 18359, Note_on_c, 7, 53, 0
10, 18360, Note_on_c, 7, 58, 48
10, 18420, Note_on_c, 7, 53, 48
10, 18429, Note_on_c, 7, 58, 0
10, 18480, Note_on_c, 7, 58, 48
10, 18489, Note_on_c, 7, 53, 0
10, 18540, Note_on_c, 7, 53, 48
10, 18549, Note_on_c, 7, 58, 0
10, 18600, Note_on_c, 7, 58, 48
10, 18609, Note_on_c, 7, 53, 0
10, 18660, Note_on_c, 7, 53, 48
10, 18669, Note_on_c, 7, 58, 0
10, 18719, Note_on_c, 7, 53, 0
10, 18720, Note_on_c, 7, 60, 48
10, 18839, Note_on_c, 7, 60, 0
10, 19560, Note_on_c, 7, 67, 127
10, 19739, Note_on_c, 7, 67, 0
10, 19740, Note_on_c, 7, 65, 127
10, 19799, Note_on_c, 7, 65, 0
10, 19800, Note_on_c, 7, 63, 127
10, 19859, Note_on_c, 7, 63, 0
10, 19920, Note_on_c, 7, 62, 127
10, 19979, Note_on_c, 7, 62, 0
10, 20040, Note_on_c, 7, 60, 127
10, 20099, Note_on_c, 7, 60, 0
10, 20160, Note_on_c, 7, 58, 48
10, 20400, Note_on_c, 7, 57, 51
10, 20409, Note_on_c, 7, 58, 0
10, 20460, Note_on_c, 7, 56, 53
10, 20469, Note_on_c, 7, 57, 0
10, 20520, Note_on_c, 7, 55, 56
10, 20529, Note_on_c, 7, 56, 0
10, 20640, Note_on_c, 7, 53, 52
10, 20649, Note_on_c, 7, 55, 0
10, 20760, Note_on_c, 7, 51, 48
10, 20769, Note_on_c, 7, 53, 0
10, 20879, Note_on_c, 7, 51, 0
10, 20880, Note_on_c, 7, 50, 48
10, 20909, Note_on_c, 7, 50, 0
10, 20940, Note_on_c, 7, 65, 48
10, 20969, Note_on_c, 7, 65, 0
10, 21000, Note_on_c, 7, 63, 48
10, 21029, Note_on_c, 7, 63, 0
10, 21060, Note_on_c, 7, 62, 48
10, 21089, Note_on_c, 7, 62, 0
10, 21120, Note_on_c, 7, 60, 48
10, 21149, Note_on_c, 7, 60, 0
10, 21180, Note_on_c, 7, 58, 48
10, 21209, Note_on_c, 7, 58, 0
10, 21240, Note_on_c, 7, 57, 48
10, 21269, Note_on_c, 7, 57, 0
10, 21300, Note_on_c, 7, 58, 48
10, 21329, Note_on_c, 7, 58, 0
10, 21360, Note_on_c, 7, 60, 48
10, 21389, Note_on_c, 7, 60, 0
10, 21420, Note_on_c, 7, 53, 48
10, 21449, Note_on_c, 7, 53, 0
10, 21480, Note_on_c, 7, 55, 48
10, 21509, Note_on_c, 7, 55, 0
10, 21540, Note_on_c, 7, 57, 48
10, 21569, Note_on_c, 7, 57, 0
10, 21600, Note_on_c, 7, 58, 48
10, 21629, Note_on_c, 7, 58, 0
10, 21660, Note_on_c, 7, 70, 50
10, 21689, Note_on_c, 7, 70, 0
10, 21720, Note_on_c, 7, 70, 52
10, 21749, Note_on_c, 7, 70, 0
10, 21780, Note_on_c, 7, 70, 54
10, 21840, Note_on_c, 7, 69, 56
10, 21849, Note_on_c, 7, 70, 0
10, 21900, Note_on_c, 7, 68, 58
10, 21909, Note_on_c, 7, 69, 0
10, 21959, Note_on_c, 7, 68, 0
10, 21960, Note_on_c, 7, 67, 60
10, 22020, Note_on_c, 7, 65, 62
10, 22029, Note_on_c, 7, 67, 0
10, 22079, Note_on_c, 7, 65, 0
10, 22080, Note_on_c, 7, 63, 64
10, 22109, Note_on_c, 7, 63, 0
10, 22140, Note_on_c, 7, 67, 66
10, 22169, Note_on_c, 7, 67, 0
10, 22200, Note_on_c, 7, 65, 68
10, 22229, Note_on_c, 7, 65, 0
10, 22260, Note_on_c, 7, 63, 70
10, 22289, Note_on_c, 7, 63, 0
10, 22320, Note_on_c, 7, 62, 72
10, 22349, Note_on_c, 7, 62, 0
10, 22380, Note_on_c, 7, 62, 74
10, 22409, Note_on_c, 7, 62, 0
10, 22440, Note_on_c, 7, 60, 76
10, 22469, Note_on_c, 7, 60, 0
10, 22500, Note_on_c, 7, 65, 78
10, 22529, Note_on_c, 7, 65, 0
10, 22560, Note_on_c, 7, 69, 80
10, 22589, Note_on_c, 7, 69, 0
10, 22620, Note_on_c, 7, 70, 82
10, 22649, Note_on_c, 7, 70, 0
10, 22680, Note_on_c, 7, 72, 84
10, 22709, Note_on_c, 7, 72, 0
10, 22740, Note_on_c, 7, 72, 86
10, 22769, Note_on_c, 7, 72, 0
10, 22800, Note_on_c, 7, 72, 88
10, 22829, Note_on_c, 7, 72, 0
10, 22860, Note_on_c, 7, 72, 90
10, 22889, Note_on_c, 7, 72, 0
10, 22920, Note_on_c, 7, 72, 92
10, 22949, Note_on_c, 7, 72, 0
10, 22980, Note_on_c, 7, 72, 94
10, 23009, Note_on_c, 7, 72, 0
10, 23040, Note_on_c, 7, 72, 96
10, 23099, Note_on_c, 7, 72, 0
10, 23160, Note_on_c, 7, 63, 96
10, 23160, Note_on_c, 7, 60, 96
10, 23219, Note_on_c, 7, 60, 0
10, 23219, Note_on_c, 7, 63, 0
10, 23700, Note_on_c, 7, 60, 96
10, 23729, Note_on_c, 7, 60, 0
10, 23760, Note_on_c, 7, 58, 96
10, 23819, Note_on_c, 7, 58, 0
10, 23880, Note_on_c, 7, 62, 96
10, 23880, Note_on_c, 7, 58, 96
10, 23939, Note_on_c, 7, 58, 0
10, 23939, Note_on_c, 7, 62, 0
10, 24420, Note_on_c, 7, 62, 96
10, 24449, Note_on_c, 7, 62, 0
10, 24480, Note_on_c, 7, 62, 96
10, 24539, Note_on_c, 7, 62, 0
10, 24600, Note_on_c, 7, 74, 96
10, 24659, Note_on_c, 7, 74, 0
10, 25020, Note_on_c, 7, 56, 96
10, 25049, Note_on_c, 7, 56, 0
10, 25080, Note_on_c, 7, 56, 96
10, 25109, Note_on_c, 7, 56, 0
10, 25140, Note_on_c, 7, 65, 96
10, 25169, Note_on_c, 7, 65, 0
10, 25200, Note_on_c, 7, 63, 96
10, 25229, Note_on_c, 7, 63, 0
10, 25260, Note_on_c, 7, 60, 96
10, 25379, Note_on_c, 7, 60, 0
10, 25380, Note_on_c, 7, 60, 96
10, 25409, Note_on_c, 7, 60, 0
10, 25440, Note_on_c, 7, 57, 96
10, 25469, Note_on_c, 7, 57, 0
10, 25500, Note_on_c, 7, 62, 96
10, 25529, Note_on_c, 7, 62, 0
10, 25560, Note_on_c, 7, 62, 96
10, 25589, Note_on_c, 7, 62, 0
10, 25620, Note_on_c, 7, 58, 96
10, 25739, Note_on_c, 7, 58, 0
10, 25740, Note_on_c, 7, 63, 96
10, 25769, Note_on_c, 7, 63, 0
10, 25800, Note_on_c, 7, 60, 96
10, 25829, Note_on_c, 7, 60, 0
10, 25860, Note_on_c, 7, 65, 96
10, 25889, Note_on_c, 7, 65, 0
10, 25920, Note_on_c, 7, 65, 96
10, 25979, Note_on_c, 7, 65, 0
10, 25980, Note_on_c, 7, 70, 96
10, 26039, Note_on_c, 7, 70, 0
10, 26040, Note_on_c, 7, 68, 96
10, 26099, Note_on_c, 7, 68, 0
10, 26100, Note_on_c, 7, 68, 96
10, 26159, Note_on_c, 7, 68, 0
10, 26160, Note_on_c, 7, 67, 96
10, 26219, Note_on_c, 7, 67, 0
10, 26220, Note_on_c, 7, 67, 96
10, 26279, Note_on_c, 7, 67, 0
10, 26280, Note_on_c, 7, 66, 96
10, 26339, Note_on_c, 7, 66, 0
10, 26340, Note_on_c, 7, 66, 96
10, 26399, Note_on_c, 7, 66, 0
10, 26400, Note_on_c, 7, 65, 96
10, 26459, Note_on_c, 7, 65, 0
10, 26460, Note_on_c, 7, 65, 96
10, 26519, Note_on_c, 7, 65, 0
10, 26520, Note_on_c, 7, 62, 96
10, 26579, Note_on_c, 7, 62, 0
10, 26580, Note_on_c, 7, 62, 96
10, 26639, Note_on_c, 7, 62, 0
10, 26640, Note_on_c, 7, 63, 96
10, 26669, Note_on_c, 7, 63, 0
10, 26670, Note_on_c, 7, 58, 96
10, 26699, Note_on_c, 7, 58, 0
10, 26700, Note_on_c, 7, 58, 96
10, 26729, Note_on_c, 7, 58, 0
10, 26730, Note_on_c, 7, 58, 96
10, 26759, Note_on_c, 7, 58, 0
10, 26760, Note_on_c, 7, 58, 96
10, 26789, Note_on_c, 7, 58, 0
10, 26790, Note_on_c, 7, 58, 96
10, 26819, Note_on_c, 7, 58, 0
10, 26820, Note_on_c, 7, 58, 96
10, 26849, Note_on_c, 7, 58, 0
10, 26850, Note_on_c, 7, 58, 96
10, 26879, Note_on_c, 7, 58, 0
10, 26880, Note_on_c, 7, 59, 96
10, 26909, Note_on_c, 7, 59, 0
10, 26910, Note_on_c, 7, 59, 96
10, 26939, Note_on_c, 7, 59, 0
10, 26940, Note_on_c, 7, 59, 96
10, 26969, Note_on_c, 7, 59, 0
10, 26970, Note_on_c, 7, 59, 96
10, 26999, Note_on_c, 7, 59, 0
10, 27000, Note_on_c, 7, 60, 96
10, 27029, Note_on_c, 7, 60, 0
10, 27030, Note_on_c, 7, 60, 96
10, 27059, Note_on_c, 7, 60, 0
10, 27060, Note_on_c, 7, 59, 96
10, 27089, Note_on_c, 7, 59, 0
10, 27090, Note_on_c, 7, 59, 96
10, 27119, Note_on_c, 7, 59, 0
10, 27120, Note_on_c, 7, 62, 96
10, 27149, Note_on_c, 7, 62, 0
10, 27150, Note_on_c, 7, 62, 96
10, 27179, Note_on_c, 7, 62, 0
10, 27180, Note_on_c, 7, 60, 96
10, 27209, Note_on_c, 7, 60, 0
10, 27210, Note_on_c, 7, 60, 96
10, 27239, Note_on_c, 7, 60, 0
10, 27240, Note_on_c, 7, 65, 96
10, 27269, Note_on_c, 7, 65, 0
10, 27270, Note_on_c, 7, 65, 96
10, 27299, Note_on_c, 7, 65, 0
10, 27300, Note_on_c, 7, 63, 96
10, 27329, Note_on_c, 7, 63, 0
10, 27330, Note_on_c, 7, 63, 96
10, 27359, Note_on_c, 7, 63, 0
10, 27360, Note_on_c, 7, 62, 96
10, 27389, Note_on_c, 7, 62, 0
10, 27390, Note_on_c, 7, 62, 96
10, 27419, Note_on_c, 7, 62, 0
10, 27420, Note_on_c, 7, 65, 96
10, 27449, Note_on_c, 7, 65, 0
10, 27450, Note_on_c, 7, 65, 96
10, 27479, Note_on_c, 7, 65, 0
10, 27480, Note_on_c, 7, 64, 96
10, 27509, Note_on_c, 7, 64, 0
10, 27510, Note_on_c, 7, 64, 96
10, 27539, Note_on_c, 7, 64, 0
10, 27540, Note_on_c, 7, 63, 96
10, 27569, Note_on_c, 7, 63, 0
10, 27570, Note_on_c, 7, 63, 96
10, 27599, Note_on_c, 7, 63, 0
10, 27600, Note_on_c, 7, 62, 96
10, 27629, Note_on_c, 7, 62, 0
10, 27630, Note_on_c, 7, 62, 96
10, 27659, Note_on_c, 7, 62, 0
10, 27660, Note_on_c, 7, 60, 96
10, 27689, Note_on_c, 7, 60, 0
10, 27690, Note_on_c, 7, 60, 96
10, 27719, Note_on_c, 7, 60, 0
10, 27720, Note_on_c, 7, 58, 96
10, 27749, Note_on_c, 7, 58, 0
10, 27750, Note_on_c, 7, 58, 96
10, 27779, Note_on_c, 7, 58, 0
10, 27780, Note_on_c, 7, 60, 96
10, 27809, Note_on_c, 7, 60, 0
10, 27810, Note_on_c, 7, 60, 96
10, 27839, Note_on_c, 7, 60, 0
10, 27840, Note_on_c, 7, 61, 96
10, 27869, Note_on_c, 7, 61, 0
10, 27870, Note_on_c, 7, 61, 96
10, 27899, Note_on_c, 7, 61, 0
10, 27900, Note_on_c, 7, 62, 96
10, 27929, Note_on_c, 7, 62, 0
10, 27930, Note_on_c, 7, 62, 96
10, 27959, Note_on_c, 7, 62, 0
10, 27960, Note_on_c, 7, 60, 96
10, 27989, Note_on_c, 7, 60, 0
10, 27990, Note_on_c, 7, 60, 96
10, 28019, Note_on_c, 7, 60, 0
10, 28020, Note_on_c, 7, 58, 96
10, 28049, Note_on_c, 7, 58, 0
10, 28050, Note_on_c, 7, 58, 96
10, 28079, Note_on_c, 7, 58, 0
10, 28080, Note_on_c, 7, 57, 96
10, 28109, Note_on_c, 7, 57, 0
10, 28110, Note_on_c, 7, 63, 96
10, 28110, Note_on_c, 7, 60, 96
10, 28139, Note_on_c, 7, 60, 0
10, 28139, Note_on_c, 7, 63, 0
10, 28140, Note_on_c, 7, 63, 96
10, 28140, Note_on_c, 7, 60, 96
10, 28169, Note_on_c, 7, 60, 0
10, 28169, Note_on_c, 7, 63, 0
10, 28170, Note_on_c, 7, 63, 96
10, 28170, Note_on_c, 7, 60, 96
10, 28199, Note_on_c, 7, 60, 0
10, 28199, Note_on_c, 7, 63, 0
10, 28200, Note_on_c, 7, 63, 96
10, 28200, Note_on_c, 7, 60, 96
10, 28229, Note_on_c, 7, 60, 0
10, 28229, Note_on_c, 7, 63, 0
10, 28230, Note_on_c, 7, 63, 96
10, 28230, Note_on_c, 7, 60, 96
10, 28259, Note_on_c, 7, 60, 0
10, 28259, Note_on_c, 7, 63, 0
10, 28260, Note_on_c, 7, 63, 96
10, 28260, Note_on_c, 7, 60, 96
10, 28289, Note_on_c, 7, 60, 0
10, 28289, Note_on_c, 7, 63, 0
10, 28290, Note_on_c, 7, 63, 96
10, 28290, Note_on_c, 7, 60, 96
10, 28319, Note_on_c, 7, 60, 0
10, 28319, Note_on_c, 7, 63, 0
10, 28320, Note_on_c, 7, 63, 96
10, 28320, Note_on_c, 7, 60, 96
10, 28349, Note_on_c, 7, 60, 0
10, 28349, Note_on_c, 7, 63, 0
10, 28350, Note_on_c, 7, 63, 96
10, 28350, Note_on_c, 7, 60, 96
10, 28379, Note_on_c, 7, 60, 0
10, 28379, Note_on_c, 7, 63, 0
10, 28380, Note_on_c, 7, 63, 96
10, 28380, Note_on_c, 7, 60, 96
10, 28409, Note_on_c, 7, 60, 0
10, 28409, Note_on_c, 7, 63, 0
10, 28410, Note_on_c, 7, 63, 96
10, 28410, Note_on_c, 7, 60, 96
10, 28439, Note_on_c, 7, 60, 0
10, 28439, Note_on_c, 7, 63, 0
10, 28440, Note_on_c, 7, 63, 96
10, 28440, Note_on_c, 7, 60, 96
10, 28469, Note_on_c, 7, 60, 0
10, 28469, Note_on_c, 7, 63, 0
10, 28470, Note_on_c, 7, 63, 96
10, 28470, Note_on_c, 7, 60, 96
10, 28499, Note_on_c, 7, 60, 0
10, 28499, Note_on_c, 7, 63, 0
10, 28500, Note_on_c, 7, 63, 96
10, 28500, Note_on_c, 7, 60, 96
10, 28529, Note_on_c, 7, 60, 0
10, 28529, Note_on_c, 7, 63, 0
10, 28530, Note_on_c, 7, 63, 96
10, 28530, Note_on_c, 7, 60, 96
10, 28559, Note_on_c, 7, 60, 0
10, 28559, Note_on_c, 7, 63, 0
10, 28560, Note_on_c, 7, 63, 96
10, 28560, Note_on_c, 7, 60, 96
10, 28589, Note_on_c, 7, 60, 0
10, 28589, Note_on_c, 7, 63, 0
10, 28590, Note_on_c, 7, 63, 96
10, 28590, Note_on_c, 7, 60, 96
10, 28619, Note_on_c, 7, 60, 0
10, 28619, Note_on_c, 7, 63, 0
10, 28620, Note_on_c, 7, 63, 96
10, 28620, Note_on_c, 7, 60, 96
10, 28649, Note_on_c, 7, 60, 0
10, 28649, Note_on_c, 7, 63, 0
10, 28650, Note_on_c, 7, 63, 96
10, 28650, Note_on_c, 7, 60, 96
10, 28679, Note_on_c, 7, 60, 0
10, 28679, Note_on_c, 7, 63, 0
10, 28680, Note_on_c, 7, 63, 96
10, 28680, Note_on_c, 7, 60, 96
10, 28709, Note_on_c, 7, 60, 0
10, 28709, Note_on_c, 7, 63, 0
10, 28710, Note_on_c, 7, 63, 96
10, 28710, Note_on_c, 7, 60, 96
10, 28739, Note_on_c, 7, 60, 0
10, 28739, Note_on_c, 7, 63, 0
10, 28740, Note_on_c, 7, 63, 96
10, 28740, Note_on_c, 7, 60, 96
10, 28769, Note_on_c, 7, 60, 0
10, 28769, Note_on_c, 7, 63, 0
10, 28770, Note_on_c, 7, 63, 96
10, 28770, Note_on_c, 7, 60, 96
10, 28799, Note_on_c, 7, 60, 0
10, 28799, Note_on_c, 7, 63, 0
10, 28800, Note_on_c, 7, 57, 127
10, 28829, Note_on_c, 7, 57, 0
10, 28830, Note_on_c, 7, 57, 127
10, 28859, Note_on_c, 7, 57, 0
10, 28860, Note_on_c, 7, 64, 127
10, 28889, Note_on_c, 7, 64, 0
10, 28890, Note_on_c, 7, 64, 127
10, 28919, Note_on_c, 7, 64, 0
10, 28920, Note_on_c, 7, 63, 127
10, 28949, Note_on_c, 7, 63, 0
10, 28950, Note_on_c, 7, 63, 127
10, 28979, Note_on_c, 7, 63, 0
10, 28980, Note_on_c, 7, 62, 127
10, 29009, Note_on_c, 7, 62, 0
10, 29010, Note_on_c, 7, 62, 127
10, 29039, Note_on_c, 7, 62, 0
10, 29040, Note_on_c, 7, 60, 127
10, 29069, Note_on_c, 7, 60, 0
10, 29070, Note_on_c, 7, 60, 127
10, 29099, Note_on_c, 7, 60, 0
10, 29100, Note_on_c, 7, 58, 127
10, 29129, Note_on_c, 7, 58, 0
10, 29130, Note_on_c, 7, 58, 127
10, 29159, Note_on_c, 7, 58, 0
10, 29160, Note_on_c, 7, 57, 127
10, 29189, Note_on_c, 7, 57, 0
10, 29190, Note_on_c, 7, 57, 127
10, 29219, Note_on_c, 7, 57, 0
10, 29220, Note_on_c, 7, 55, 127
10, 29249, Note_on_c, 7, 55, 0
10, 29250, Note_on_c, 7, 55, 127
10, 29279, Note_on_c, 7, 55, 0
10, 29280, Note_on_c, 7, 53, 127
10, 29309, Note_on_c, 7, 53, 0
10, 29310, Note_on_c, 7, 53, 127
10, 29339, Note_on_c, 7, 53, 0
10, 29340, Note_on_c, 7, 51, 127
10, 29369, Note_on_c, 7, 51, 0
10, 29370, Note_on_c, 7, 51, 127
10, 29399, Note_on_c, 7, 51, 0
10, 29400, Note_on_c, 7, 50, 127
10, 29429, Note_on_c, 7, 50, 0
10, 29430, Note_on_c, 7, 50, 127
10, 29459, Note_on_c, 7, 50, 0
10, 29460, Note_on_c, 7, 60, 127
10, 29489, Note_on_c, 7, 60, 0
10, 29490, Note_on_c, 7, 60, 127
10, 29519, Note_on_c, 7, 60, 0
10, 29520, Note_on_c, 7, 58, 127
10, 29639, Note_on_c, 7, 58, 0
10, 31080, Note_on_c, 7, 63, 48
10, 31169, Note_on_c, 7, 63, 0
10, 31200, Note_on_c, 7, 63, 48
10, 31289, Note_on_c, 7, 63, 0
10, 31320, Note_on_c, 7, 63, 48
10, 31409, Note_on_c, 7, 63, 0
10, 31440, Note_on_c, 7, 63, 60
10, 31529, Note_on_c, 7, 63, 0
10, 31560, Note_on_c, 7, 63, 72
10, 31649, Note_on_c, 7, 63, 0
10, 31680, Note_on_c, 7, 63, 80
10, 31799, Note_on_c, 7, 63, 0
10, 31800, Note_on_c, 7, 63, 96
10, 32039, Note_on_c, 7, 63, 0
10, 32040, Note_on_c, 7, 63, 96
10, 32340, Note_on_c, 7, 60, 56
10, 32349, Note_on_c, 7, 63, 0
10, 32400, Note_on_c, 7, 62, 48
10, 32409, Note_on_c, 7, 60, 0
10, 32519, Note_on_c, 7, 62, 0
10, 34320, Note_on_c, 7, 62, 48
10, 34409, Note_on_c, 7, 62, 0
10, 34440, Note_on_c, 7, 62, 48
10, 34529, Note_on_c, 7, 62, 0
10, 34560, Note_on_c, 7, 55, 48
10, 34919, Note_on_c, 7, 55, 0
10, 35400, Note_on_c, 7, 63, 32
10, 35400, Note_on_c, 7, 60, 32
10, 35459, Note_on_c, 7, 60, 0
10, 35459, Note_on_c, 7, 63, 0
10, 35520, Note_on_c, 7, 63, 32
10, 35520, Note_on_c, 7, 60, 32
10, 35579, Note_on_c, 7, 60, 0
10, 35579, Note_on_c, 7, 63, 0
10, 35760, Note_on_c, 7, 65, 32
10, 35760, Note_on_c, 7, 62, 32
10, 35819, Note_on_c, 7, 62, 0
10, 35819, Note_on_c, 7, 65, 0
10, 35880, Note_on_c, 7, 65, 32
10, 35939, Note_on_c, 7, 65, 0
10, 36120, Note_on_c, 7, 65, 32
10, 36179, Note_on_c, 7, 65, 0
10, 36240, Note_on_c, 7, 65, 32
10, 36299, Note_on_c, 7, 65, 0
10, 36360, Note_on_c, 7, 65, 32
10, 36419, Note_on_c, 7, 65, 0
10, 36480, Note_on_c, 7, 65, 32
10, 36539, Note_on_c, 7, 65, 0
10, 36600, Note_on_c, 7, 65, 32
10, 36659, Note_on_c, 7, 65, 0
10, 36960, Note_on_c, 7, 67, 32
10, 36989, Note_on_c, 7, 67, 0
10, 37020, Note_on_c, 7, 65, 32
10, 37049, Note_on_c, 7, 65, 0
10, 37080, Note_on_c, 7, 63, 32
10, 37109, Note_on_c, 7, 63, 0
10, 37140, Note_on_c, 7, 65, 32
10, 37169, Note_on_c, 7, 65, 0
10, 37200, Note_on_c, 7, 67, 32
10, 37229, Note_on_c, 7, 67, 0
10, 37260, Note_on_c, 7, 65, 32
10, 37289, Note_on_c, 7, 65, 0
10, 37320, Note_on_c, 7, 63, 32
10, 37349, Note_on_c, 7, 63, 0
10, 37380, Note_on_c, 7, 62, 32
10, 37409, Note_on_c, 7, 62, 0
10, 37440, Note_on_c, 7, 60, 34
10, 37469, Note_on_c, 7, 60, 0
10, 37500, Note_on_c, 7, 62, 37
10, 37529, Note_on_c, 7, 62, 0
10, 37560, Note_on_c, 7, 63, 40
10, 37589, Note_on_c, 7, 63, 0
10, 37620, Note_on_c, 7, 65, 43
10, 37649, Note_on_c, 7, 65, 0
10, 37680, Note_on_c, 7, 67, 46
10, 37709, Note_on_c, 7, 67, 0
10, 37740, Note_on_c, 7, 65, 48
10, 37769, Note_on_c, 7, 65, 0
10, 37800, Note_on_c, 7, 63, 50
10, 37829, Note_on_c, 7, 63, 0
10, 37860, Note_on_c, 7, 65, 53
10, 37889, Note_on_c, 7, 65, 0
10, 37920, Note_on_c, 7, 67, 56
10, 37949, Note_on_c, 7, 67, 0
10, 37980, Note_on_c, 7, 65, 59
10, 38009, Note_on_c, 7, 65, 0
10, 38040, Note_on_c, 7, 63, 62
10, 38069, Note_on_c, 7, 63, 0
10, 38100, Note_on_c, 7, 62, 64
10, 38129, Note_on_c, 7, 62, 0
10, 38160, Note_on_c, 7, 60, 66
10, 38189, Note_on_c, 7, 60, 0
10, 38220, Note_on_c, 7, 62, 69
10, 38249, Note_on_c, 7, 62, 0
10, 38280, Note_on_c, 7, 63, 72
10, 38309, Note_on_c, 7, 63, 0
10, 38340, Note_on_c, 7, 65, 75
10, 38369, Note_on_c, 7, 65, 0
10, 38400, Note_on_c, 7, 63, 78
10, 38429, Note_on_c, 7, 63, 0
10, 38460, Note_on_c, 7, 62, 80
10, 38489, Note_on_c, 7, 62, 0
10, 38520, Note_on_c, 7, 60, 82
10, 38549, Note_on_c, 7, 60, 0
10, 38580, Note_on_c, 7, 58, 85
10, 38609, Note_on_c, 7, 58, 0
10, 38640, Note_on_c, 7, 57, 88
10, 38669, Note_on_c, 7, 57, 0
10, 38700, Note_on_c, 7, 55, 90
10, 38729, Note_on_c, 7, 55, 0
10, 38760, Note_on_c, 7, 53, 92
10, 38789, Note_on_c, 7, 53, 0
10, 38820, Note_on_c, 7, 51, 94
10, 38849, Note_on_c, 7, 51, 0
10, 38880, Note_on_c, 7, 50, 96
10, 38909, Note_on_c, 7, 50, 0
10, 38940, Note_on_c, 7, 50, 96
10, 38969, Note_on_c, 7, 50, 0
10, 39000, Note_on_c, 7, 53, 96
10, 39029, Note_on_c, 7, 53, 0
10, 39060, Note_on_c, 7, 58, 96
10, 39089, Note_on_c, 7, 58, 0
10, 39120, Note_on_c, 7, 62, 96
10, 39149, Note_on_c, 7, 62, 0
10, 39180, Note_on_c, 7, 50, 96
10, 39209, Note_on_c, 7, 50, 0
10, 39300, Note_on_c, 7, 50, 96
10, 39329, Note_on_c, 7, 50, 0
10, 39360, Note_on_c, 7, 53, 112
10, 39389, Note_on_c, 7, 53, 0
10, 39420, Note_on_c, 7, 58, 96
10, 39449, Note_on_c, 7, 58, 0
10, 39480, Note_on_c, 7, 62, 96
10, 39509, Note_on_c, 7, 62, 0
10, 39540, Note_on_c, 7, 50, 96
10, 39569, Note_on_c, 7, 50, 0
10, 39660, Note_on_c, 7, 51, 96
10, 39689, Note_on_c, 7, 51, 0
10, 39720, Note_on_c, 7, 53, 112
10, 39749, Note_on_c, 7, 53, 0
10, 39780, Note_on_c, 7, 57, 96
10, 39809, Note_on_c, 7, 57, 0
10, 39840, Note_on_c, 7, 60, 96
10, 39869, Note_on_c, 7, 60, 0
10, 39900, Note_on_c, 7, 51, 96
10, 39929, Note_on_c, 7, 51, 0
10, 40020, Note_on_c, 7, 50, 96
10, 40049, Note_on_c, 7, 50, 0
10, 40080, Note_on_c, 7, 57, 112
10, 40109, Note_on_c, 7, 57, 0
10, 40140, Note_on_c, 7, 60, 96
10, 40169, Note_on_c, 7, 60, 0
10, 40200, Note_on_c, 7, 63, 96
10, 40229, Note_on_c, 7, 63, 0
10, 40260, Note_on_c, 7, 51, 96
10, 40289, Note_on_c, 7, 51, 0
10, 40320, Note_on_c, 7, 50, 127
10, 40379, Note_on_c, 7, 50, 0
10, 40380, Note_on_c, 7, 50, 127
10, 40409, Note_on_c, 7, 50, 0
10, 40410, Note_on_c, 7, 50, 127
10, 40439, Note_on_c, 7, 50, 0
10, 40440, Note_on_c, 7, 53, 127
10, 40469, Note_on_c, 7, 53, 0
10, 40470, Note_on_c, 7, 53, 127
10, 40499, Note_on_c, 7, 53, 0
10, 40500, Note_on_c, 7, 58, 127
10, 40529, Note_on_c, 7, 58, 0
10, 40530, Note_on_c, 7, 58, 127
10, 40559, Note_on_c, 7, 58, 0
10, 40560, Note_on_c, 7, 62, 127
10, 40589, Note_on_c, 7, 62, 0
10, 40590, Note_on_c, 7, 62, 127
10, 40619, Note_on_c, 7, 62, 0
10, 40620, Note_on_c, 7, 50, 127
10, 40649, Note_on_c, 7, 50, 0
10, 40650, Note_on_c, 7, 50, 127
10, 40679, Note_on_c, 7, 50, 0
10, 40740, Note_on_c, 7, 50, 127
10, 40769, Note_on_c, 7, 50, 0
10, 40770, Note_on_c, 7, 50, 127
10, 40799, Note_on_c, 7, 50, 0
10, 40800, Note_on_c, 7, 53, 127
10, 40829, Note_on_c, 7, 53, 0
10, 40830, Note_on_c, 7, 53, 127
10, 40859, Note_on_c, 7, 53, 0
10, 40860, Note_on_c, 7, 58, 127
10, 40889, Note_on_c, 7, 58, 0
10, 40890, Note_on_c, 7, 58, 127
10, 40919, Note_on_c, 7, 58, 0
10, 40920, Note_on_c, 7, 62, 127
10, 40949, Note_on_c, 7, 62, 0
10, 40950, Note_on_c, 7, 62, 127
10, 40979, Note_on_c, 7, 62, 0
10, 40980, Note_on_c, 7, 50, 127
10, 41009, Note_on_c, 7, 50, 0
10, 41010, Note_on_c, 7, 50, 127
10, 41039, Note_on_c, 7, 50, 0
10, 41100, Note_on_c, 7, 51, 127
10, 41129, Note_on_c, 7, 51, 0
10, 41130, Note_on_c, 7, 51, 127
10, 41159, Note_on_c, 7, 51, 0
10, 41160, Note_on_c, 7, 53, 127
10, 41189, Note_on_c, 7, 53, 0
10, 41190, Note_on_c, 7, 53, 127
10, 41219, Note_on_c, 7, 53, 0
10, 41220, Note_on_c, 7, 60, 127
10, 41249, Note_on_c, 7, 60, 0
10, 41250, Note_on_c, 7, 60, 127
10, 41279, Note_on_c, 7, 60, 0
10, 41280, Note_on_c, 7, 63, 127
10, 41309, Note_on_c, 7, 63, 0
10, 41310, Note_on_c, 7, 63, 127
10, 41339, Note_on_c, 7, 63, 0
10, 41340, Note_on_c, 7, 51, 127
10, 41369, Note_on_c, 7, 51, 0
10, 41370, Note_on_c, 7, 51, 127
10, 41399, Note_on_c, 7, 51, 0
10, 41460, Note_on_c, 7, 51, 127
10, 41489, Note_on_c, 7, 51, 0
10, 41490, Note_on_c, 7, 51, 127
10, 41519, Note_on_c, 7, 51, 0
10, 41520, Note_on_c, 7, 53, 127
10, 41549, Note_on_c, 7, 53, 0
10, 41550, Note_on_c, 7, 53, 127
10, 41579, Note_on_c, 7, 53, 0
10, 41580, Note_on_c, 7, 57, 127
10, 41609, Note_on_c, 7, 57, 0
10, 41610, Note_on_c, 7, 57, 127
10, 41639, Note_on_c, 7, 57, 0
10, 41640, Note_on_c, 7, 60, 127
10, 41669, Note_on_c, 7, 60, 0
10, 41670, Note_on_c, 7, 60, 127
10, 41699, Note_on_c, 7, 60, 0
10, 41700, Note_on_c, 7, 57, 127
10, 41729, Note_on_c, 7, 57, 0
10, 41730, Note_on_c, 7, 57, 127
10, 41759, Note_on_c, 7, 57, 0
10, 41760, Note_on_c, 7, 65, 127
10, 41760, Note_on_c, 7, 58, 127
10, 41879, Note_on_c, 7, 58, 0
10, 41879, Note_on_c, 7, 65, 0
10, 42300, Note_on_c, 7, 51, 127
10, 42329, Note_on_c, 7, 51, 0
10, 42330, Note_on_c, 7, 51, 127
10, 42359, Note_on_c, 7, 51, 0
10, 42360, Note_on_c, 7, 52, 127
10, 42389, Note_on_c, 7, 52, 0
10, 42390, Note_on_c, 7, 52, 127
10, 42419, Note_on_c, 7, 52, 0
10, 42420, Note_on_c, 7, 53, 127
10, 42449, Note_on_c, 7, 53, 0
10, 42450, Note_on_c, 7, 53, 127
10, 42479, Note_on_c, 7, 53, 0
10, 42480, Note_on_c, 7, 55, 127
10, 42509, Note_on_c, 7, 55, 0
10, 42510, Note_on_c, 7, 55, 127
10, 42539, Note_on_c, 7, 55, 0
10, 42540, Note_on_c, 7, 53, 127
10, 42569, Note_on_c, 7, 53, 0
10, 42570, Note_on_c, 7, 53, 127
10, 42599, Note_on_c, 7, 53, 0
10, 42600, Note_on_c, 7, 51, 127
10, 42629, Note_on_c, 7, 51, 0
10, 42630, Note_on_c, 7, 51, 127
10, 42659, Note_on_c, 7, 51, 0
10, 42660, Note_on_c, 7, 55, 127
10, 42689, Note_on_c, 7, 55, 0
10, 42690, Note_on_c, 7, 55, 127
10, 42719, Note_on_c, 7, 55, 0
10, 42720, Note_on_c, 7, 48, 127
10, 42749, Note_on_c, 7, 48, 0
10, 42750, Note_on_c, 7, 48, 127
10, 42779, Note_on_c, 7, 48, 0
10, 42780, Note_on_c, 7, 55, 127
10, 42809, Note_on_c, 7, 55, 0
10, 42810, Note_on_c, 7, 55, 127
10, 42839, Note_on_c, 7, 55, 0
10, 42840, Note_on_c, 7, 54, 127
10, 42869, Note_on_c, 7, 54, 0
10, 42870, Note_on_c, 7, 54, 127
10, 42899, Note_on_c, 7, 54, 0
10, 42900, Note_on_c, 7, 57, 127
10, 42929, Note_on_c, 7, 57, 0
10, 42930, Note_on_c, 7, 57, 127
10, 42959, Note_on_c, 7, 57, 0
10, 42960, Note_on_c, 7, 50, 127
10, 42989, Note_on_c, 7, 50, 0
10, 42990, Note_on_c, 7, 50, 127
10, 43019, Note_on_c, 7, 50, 0
10, 43020, Note_on_c, 7, 56, 127
10, 43049, Note_on_c, 7, 56, 0
10, 43050, Note_on_c, 7, 56, 127
10, 43079, Note_on_c, 7, 56, 0
10, 43080, Note_on_c, 7, 55, 127
10, 43109, Note_on_c, 7, 55, 0
10, 43110, Note_on_c, 7, 55, 127
10, 43139, Note_on_c, 7, 55, 0
10, 43140, Note_on_c, 7, 58, 127
10, 43169, Note_on_c, 7, 58, 0
10, 43170, Note_on_c, 7, 58, 127
10, 43199, Note_on_c, 7, 58, 0
10, 43200, Note_on_c, 7, 51, 127
10, 43229, Note_on_c, 7, 51, 0
10, 43230, Note_on_c, 7, 51, 127
10, 43259, Note_on_c, 7, 51, 0
10, 43260, Note_on_c, 7, 58, 127
10, 43289, Note_on_c, 7, 58, 0
10, 43290, Note_on_c, 7, 58, 127
10, 43319, Note_on_c, 7, 58, 0
10, 43320, Note_on_c, 7, 57, 127
10, 43349, Note_on_c, 7, 57, 0
10, 43350, Note_on_c, 7, 57, 127
10, 43379, Note_on_c, 7, 57, 0
10, 43380, Note_on_c, 7, 60, 127
10, 43409, Note_on_c, 7, 60, 0
10, 43410, Note_on_c, 7, 60, 127
10, 43439, Note_on_c, 7, 60, 0
10, 43440, Note_on_c, 7, 53, 127
10, 43469, Note_on_c, 7, 53, 0
10, 43470, Note_on_c, 7, 53, 127
10, 43499, Note_on_c, 7, 53, 0
10, 43500, Note_on_c, 7, 60, 127
10, 43529, Note_on_c, 7, 60, 0
10, 43530, Note_on_c, 7, 60, 127
10, 43559, Note_on_c, 7, 60, 0
10, 43560, Note_on_c, 7, 58, 127
10, 43589, Note_on_c, 7, 58, 0
10, 43590, Note_on_c, 7, 58, 127
10, 43619, Note_on_c, 7, 58, 0
10, 43620, Note_on_c, 7, 62, 127
10, 43649, Note_on_c, 7, 62, 0
10, 43650, Note_on_c, 7, 62, 127
10, 43679, Note_on_c, 7, 62, 0
10, 43680, Note_on_c, 7, 55, 127
10, 43709, Note_on_c, 7, 55, 0
10, 43710, Note_on_c, 7, 67, 127
10, 43739, Note_on_c, 7, 67, 0
10, 43740, Note_on_c, 7, 67, 127
10, 43769, Note_on_c, 7, 67, 0
10, 43770, Note_on_c, 7, 67, 127
10, 43799, Note_on_c, 7, 67, 0
10, 43800, Note_on_c, 7, 67, 127
10, 43829, Note_on_c, 7, 67, 0
10, 43830, Note_on_c, 7, 67, 127
10, 43859, Note_on_c, 7, 67, 0
10, 43860, Note_on_c, 7, 67, 127
10, 43889, Note_on_c, 7, 67, 0
10, 43890, Note_on_c, 7, 67, 127
10, 43919, Note_on_c, 7, 67, 0
10, 43920, Note_on_c, 7, 66, 127
10, 43979, Note_on_c, 7, 66, 0
10, 44040, Note_on_c, 7, 66, 127
10, 44099, Note_on_c, 7, 66, 0
10, 44160, Note_on_c, 7, 67, 127
10, 44219, Note_on_c, 7, 67, 0
10, 44400, Note_on_c, 7, 62, 127
10, 44459, Note_on_c, 7, 62, 0
10, 44520, Note_on_c, 7, 63, 127
10, 44579, Note_on_c, 7, 63, 0
10, 44760, Note_on_c, 7, 64, 127
10, 44819, Note_on_c, 7, 64, 0
10, 44880, Note_on_c, 7, 65, 127
10, 44939, Note_on_c, 7, 65, 0
10, 45120, Note_on_c, 7, 66, 127
10, 45179, Note_on_c, 7, 66, 0
10, 45240, Note_on_c, 7, 67, 127
10, 45299, Note_on_c, 7, 67, 0
10, 45480, Note_on_c, 7, 62, 127
10, 45539, Note_on_c, 7, 62, 0
10, 45600, Note_on_c, 7, 63, 127
10, 45659, Note_on_c, 7, 63, 0
10, 45840, Note_on_c, 7, 64, 127
10, 45899, Note_on_c, 7, 64, 0
10, 46080, Note_on_c, 7, 64, 127
10, 46139, Note_on_c, 7, 64, 0
10, 46320, Note_on_c, 7, 64, 127
10, 46379, Note_on_c, 7, 64, 0
10, 46560, Note_on_c, 7, 64, 127
10, 46619, Note_on_c, 7, 64, 0
10, 46800, Note_on_c, 7, 64, 127
10, 46859, Note_on_c, 7, 64, 0
10, 47040, Note_on_c, 7, 64, 127
10, 47099, Note_on_c, 7, 64, 0
10, 47160, Note_on_c, 7, 53, 48
10, 47280, Note_on_c, 7, 58, 48
10, 47289, Note_on_c, 7, 53, 0
10, 47400, Note_on_c, 7, 62, 48
10, 47409, Note_on_c, 7, 58, 0
10, 47519, Note_on_c, 7, 62, 0
10, 47520, Note_on_c, 7, 54, 96
10, 47549, Note_on_c, 7, 54, 0
10, 47550, Note_on_c, 7, 54, 48
10, 47879, Note_on_c, 7, 54, 0
10, 47880, Note_on_c, 7, 53, 48
10, 48000, Note_on_c, 7, 58, 48
10, 48009, Note_on_c, 7, 53, 0
10, 48120, Note_on_c, 7, 62, 48
10, 48129, Note_on_c, 7, 58, 0
10, 48239, Note_on_c, 7, 62, 0
10, 48240, Note_on_c, 7, 55, 96
10, 48269, Note_on_c, 7, 55, 0
10, 48270, Note_on_c, 7, 55, 48
10, 48719, Note_on_c, 7, 55, 0
10, 48780, Note_on_c, 7, 58, 48
10, 48809, Note_on_c, 7, 58, 0
10, 48840, Note_on_c, 7, 55, 48
10, 48869, Note_on_c, 7, 55, 0
10, 48900, Note_on_c, 7, 51, 48
10, 48929, Note_on_c, 7, 51, 0
10, 48960, Note_on_c, 7, 60, 48
10, 49079, Note_on_c, 7, 60, 0
10, 49140, Note_on_c, 7, 60, 48
10, 49169, Note_on_c, 7, 60, 0
10, 49200, Note_on_c, 7, 56, 48
10, 49229, Note_on_c, 7, 56, 0
10, 49260, Note_on_c, 7, 51, 48
10, 49289, Note_on_c, 7, 51, 0
10, 49320, Note_on_c, 7, 60, 48
10, 49439, Note_on_c, 7, 60, 0
10, 49500, Note_on_c, 7, 60, 48
10, 49529, Note_on_c, 7, 60, 0
10, 49560, Note_on_c, 7, 57, 48
10, 49589, Note_on_c, 7, 57, 0
10, 49620, Note_on_c, 7, 53, 48
10, 49649, Note_on_c, 7, 53, 0
10, 49680, Note_on_c, 7, 62, 48
10, 49799, Note_on_c, 7, 62, 0
10, 49860, Note_on_c, 7, 58, 48
10, 49889, Note_on_c, 7, 58, 0
10, 49920, Note_on_c, 7, 65, 48
10, 49949, Note_on_c, 7, 65, 0
10, 49980, Note_on_c, 7, 62, 48
10, 50009, Note_on_c, 7, 62, 0
10, 50040, Note_on_c, 7, 63, 48
10, 50099, Note_on_c, 7, 63, 0
10, 50100, Note_on_c, 7, 51, 52
10, 50159, Note_on_c, 7, 51, 0
10, 50160, Note_on_c, 7, 63, 57
10, 50219, Note_on_c, 7, 63, 0
10, 50220, Note_on_c, 7, 63, 61
10, 50279, Note_on_c, 7, 63, 0
10, 50280, Note_on_c, 7, 63, 66
10, 50339, Note_on_c, 7, 63, 0
10, 50340, Note_on_c, 7, 63, 70
10, 50399, Note_on_c, 7, 63, 0
10, 50400, Note_on_c, 7, 55, 75
10, 50459, Note_on_c, 7, 55, 0
10, 50460, Note_on_c, 7, 55, 79
10, 50519, Note_on_c, 7, 55, 0
10, 50520, Note_on_c, 7, 55, 84
10, 50579, Note_on_c, 7, 55, 0
10, 50580, Note_on_c, 7, 55, 88
10, 50640, Note_on_c, 7, 59, 93
10, 50649, Note_on_c, 7, 55, 0
10, 50700, Note_on_c, 7, 60, 97
10, 50709, Note_on_c, 7, 59, 0
10, 50759, Note_on_c, 7, 60, 0
10, 50760, Note_on_c, 7, 65, 99
10, 50789, Note_on_c, 7, 65, 0
10, 50790, Note_on_c, 7, 65, 100
10, 50819, Note_on_c, 7, 65, 0
10, 50820, Note_on_c, 7, 65, 102
10, 50849, Note_on_c, 7, 65, 0
10, 50850, Note_on_c, 7, 65, 104
10, 50879, Note_on_c, 7, 65, 0
10, 50880, Note_on_c, 7, 65, 106
10, 50909, Note_on_c, 7, 65, 0
10, 50910, Note_on_c, 7, 65, 107
10, 50939, Note_on_c, 7, 65, 0
10, 50940, Note_on_c, 7, 65, 109
10, 50969, Note_on_c, 7, 65, 0
10, 50970, Note_on_c, 7, 65, 111
10, 50999, Note_on_c, 7, 65, 0
10, 51000, Note_on_c, 7, 62, 113
10, 51029, Note_on_c, 7, 62, 0
10, 51030, Note_on_c, 7, 62, 114
10, 51059, Note_on_c, 7, 62, 0
10, 51060, Note_on_c, 7, 58, 116
10, 51089, Note_on_c, 7, 58, 0
10, 51090, Note_on_c, 7, 58, 118
10, 51119, Note_on_c, 7, 58, 0
10, 51120, Note_on_c, 7, 57, 127
10, 51149, Note_on_c, 7, 57, 0
10, 51150, Note_on_c, 7, 69, 127
10, 51179, Note_on_c, 7, 69, 0
10, 51180, Note_on_c, 7, 69, 127
10, 51209, Note_on_c, 7, 69, 0
10, 51210, Note_on_c, 7, 69, 127
10, 51239, Note_on_c, 7, 69, 0
10, 51240, Note_on_c, 7, 69, 127
10, 51269, Note_on_c, 7, 69, 0
10, 51270, Note_on_c, 7, 69, 127
10, 51299, Note_on_c, 7, 69, 0
10, 51300, Note_on_c, 7, 69, 127
10, 51329, Note_on_c, 7, 69, 0
10, 51330, Note_on_c, 7, 69, 127
10, 51359, Note_on_c, 7, 69, 0
10, 51360, Note_on_c, 7, 69, 127
10, 51389, Note_on_c, 7, 69, 0
10, 51390, Note_on_c, 7, 69, 127
10, 51419, Note_on_c, 7, 69, 0
10, 51420, Note_on_c, 7, 69, 127
10, 51449, Note_on_c, 7, 69, 0
10, 51450, Note_on_c, 7, 69, 127
10, 51479, Note_on_c, 7, 69, 0
10, 51480, Note_on_c, 7, 70, 96
10, 51539, Note_on_c, 7, 70, 0
10, 51600, Note_on_c, 7, 53, 96
10, 51659, Note_on_c, 7, 53, 0
10, 51720, Note_on_c, 7, 50, 96
10, 51779, Note_on_c, 7, 50, 0
10, 51960, Note_on_c, 7, 55, 112
10, 52019, Note_on_c, 7, 55, 0
10, 52080, Note_on_c, 7, 51, 96
10, 52139, Note_on_c, 7, 51, 0
10, 52320, Note_on_c, 7, 53, 112
10, 52379, Note_on_c, 7, 53, 0
10, 52440, Note_on_c, 7, 50, 96
10, 52499, Note_on_c, 7, 50, 0
10, 52560, Note_on_c, 7, 63, 96
10, 52560, Note_on_c, 7, 60, 96
10, 52619, Note_on_c, 7, 60, 0
10, 52619, Note_on_c, 7, 63, 0
10, 52680, Note_on_c, 7, 60, 96
10, 52680, Note_on_c, 7, 63, 96
10, 52739, Note_on_c, 7, 63, 0
10, 52739, Note_on_c, 7, 60, 0
10, 52800, Note_on_c, 7, 63, 96
10, 52800, Note_on_c, 7, 60, 96
10, 52859, Note_on_c, 7, 60, 0
10, 52859, Note_on_c, 7, 63, 0
10, 52920, Note_on_c, 7, 60, 96
10, 52920, Note_on_c, 7, 63, 96
10, 52949, Note_on_c, 7, 63, 0
10, 52949, Note_on_c, 7, 60, 0
10, 52950, Note_on_c, 7, 63, 48
10, 52950, Note_on_c, 7, 60, 48
10, 52979, Note_on_c, 7, 60, 0
10, 52979, Note_on_c, 7, 63, 0
10, 53520, Note_on_c, 7, 50, 48
10, 53580, Note_on_c, 7, 53, 48
10, 53589, Note_on_c, 7, 50, 0
10, 53639, Note_on_c, 7, 53, 0
10, 53640, Note_on_c, 7, 56, 48
10, 53880, Note_on_c, 7, 60, 44
10, 53889, Note_on_c, 7, 56, 0
10, 54000, Note_on_c, 7, 56, 40
10, 54009, Note_on_c, 7, 60, 0
10, 54240, Note_on_c, 7, 53, 36
10, 54249, Note_on_c, 7, 56, 0
10, 54359, Note_on_c, 7, 53, 0
10, 54360, Note_on_c, 7, 50, 32
10, 54600, Note_on_c, 7, 59, 32
10, 54609, Note_on_c, 7, 50, 0
10, 54720, Note_on_c, 7, 57, 32
10, 54729, Note_on_c, 7, 59, 0
10, 54960, Note_on_c, 7, 58, 64
10, 54969, Note_on_c, 7, 57, 0
10, 54989, Note_on_c, 7, 58, 0
10, 54990, Note_on_c, 7, 58, 48
10, 55080, Note_on_c, 7, 51, 48
10, 55089, Note_on_c, 7, 58, 0
10, 55139, Note_on_c, 7, 51, 0
10, 55140, Note_on_c, 7, 58, 48
10, 55169, Note_on_c, 7, 58, 0
10, 55200, Note_on_c, 7, 58, 48
10, 55259, Note_on_c, 7, 58, 0
10, 55260, Note_on_c, 7, 58, 48
10, 55319, Note_on_c, 7, 58, 0
10, 55320, Note_on_c, 7, 58, 48
10, 55379, Note_on_c, 7, 58, 0
10, 55380, Note_on_c, 7, 58, 48
10, 55439, Note_on_c, 7, 58, 0
10, 55440, Note_on_c, 7, 58, 48
10, 55499, Note_on_c, 7, 58, 0
10, 55500, Note_on_c, 7, 58, 48
10, 55559, Note_on_c, 7, 58, 0
10, 55560, Note_on_c, 7, 58, 48
10, 55619, Note_on_c, 7, 58, 0
10, 55620, Note_on_c, 7, 58, 48
10, 55679, Note_on_c, 7, 58, 0
10, 55680, Note_on_c, 7, 58, 48
10, 55739, Note_on_c, 7, 58, 0
10, 55740, Note_on_c, 7, 58, 48
10, 55799, Note_on_c, 7, 58, 0
10, 55800, Note_on_c, 7, 58, 48
10, 55859, Note_on_c, 7, 58, 0
10, 55860, Note_on_c, 7, 58, 48
10, 55919, Note_on_c, 7, 58, 0
10, 55920, Note_on_c, 7, 58, 48
10, 55979, Note_on_c, 7, 58, 0
10, 55980, Note_on_c, 7, 58, 48
10, 56039, Note_on_c, 7, 58, 0
10, 56040, Note_on_c, 7, 58, 48
10, 56099, Note_on_c, 7, 58, 0
10, 56100, Note_on_c, 7, 58, 48
10, 56159, Note_on_c, 7, 58, 0
10, 56160, Note_on_c, 7, 58, 48
10, 56219, Note_on_c, 7, 58, 0
10, 56220, Note_on_c, 7, 58, 48
10, 56279, Note_on_c, 7, 58, 0
10, 56280, Note_on_c, 7, 58, 48
10, 56339, Note_on_c, 7, 58, 0
10, 56340, Note_on_c, 7, 58, 48
10, 56399, Note_on_c, 7, 58, 0
10, 56400, Note_on_c, 7, 58, 48
10, 56459, Note_on_c, 7, 58, 0
10, 56460, Note_on_c, 7, 58, 48
10, 56519, Note_on_c, 7, 58, 0
10, 56520, Note_on_c, 7, 58, 48
10, 56579, Note_on_c, 7, 58, 0
10, 56580, Note_on_c, 7, 58, 48
10, 56639, Note_on_c, 7, 58, 0
10, 56640, Note_on_c, 7, 58, 51
10, 56699, Note_on_c, 7, 58, 0
10, 56700, Note_on_c, 7, 58, 54
10, 56759, Note_on_c, 7, 58, 0
10, 56760, Note_on_c, 7, 58, 57
10, 56819, Note_on_c, 7, 58, 0
10, 56820, Note_on_c, 7, 58, 60
10, 56879, Note_on_c, 7, 58, 0
10, 56880, Note_on_c, 7, 58, 63
10, 56939, Note_on_c, 7, 58, 0
10, 56940, Note_on_c, 7, 58, 66
10, 56999, Note_on_c, 7, 58, 0
10, 57000, Note_on_c, 7, 58, 69
10, 57059, Note_on_c, 7, 58, 0
10, 57060, Note_on_c, 7, 58, 72
10, 57119, Note_on_c, 7, 58, 0
10, 57120, Note_on_c, 7, 58, 75
10, 57179, Note_on_c, 7, 58, 0
10, 57180, Note_on_c, 7, 58, 78
10, 57239, Note_on_c, 7, 58, 0
10, 57240, Note_on_c, 7, 58, 81
10, 57359, Note_on_c, 7, 58, 0
10, 57600, Note_on_c, 7, 68, 96
10, 58199, Note_on_c, 7, 68, 0
10, 58200, Note_on_c, 7, 67, 48
10, 58320, Note_on_c, 7, 65, 48
10, 58329, Note_on_c, 7, 67, 0
10, 58440, Note_on_c, 7, 67, 48
10, 58449, Note_on_c, 7, 65, 0
10, 58560, Note_on_c, 7, 68, 48
10, 58569, Note_on_c, 7, 67, 0
10, 58680, Note_on_c, 7, 67, 48
10, 58689, Note_on_c, 7, 68, 0
10, 58740, Note_on_c, 7, 70, 48
10, 58749, Note_on_c, 7, 67, 0
10, 58800, Note_on_c, 7, 68, 48
10, 58809, Note_on_c, 7, 70, 0
10, 58860, Note_on_c, 7, 67, 48
10, 58869, Note_on_c, 7, 68, 0
10, 58920, Note_on_c, 7, 65, 48
10, 58929, Note_on_c, 7, 67, 0
10, 58980, Note_on_c, 7, 63, 48
10, 58989, Note_on_c, 7, 65, 0
10, 59039, Note_on_c, 7, 63, 0
10, 59040, Note_on_c, 7, 62, 48
10, 59100, Note_on_c, 7, 58, 48
10, 59109, Note_on_c, 7, 62, 0
10, 59160, Note_on_c, 7, 63, 48
10, 59169, Note_on_c, 7, 58, 0
10, 59220, Note_on_c, 7, 58, 48
10, 59229, Note_on_c, 7, 63, 0
10, 59280, Note_on_c, 7, 57, 48
10, 59289, Note_on_c, 7, 58, 0
10, 59340, Note_on_c, 7, 53, 48
10, 59349, Note_on_c, 7, 57, 0
10, 59399, Note_on_c, 7, 53, 0
10, 59400, Note_on_c, 7, 55, 48
10, 59429, Note_on_c, 7, 55, 0
10, 59460, Note_on_c, 7, 51, 48
10, 59460, Note_on_c, 7, 55, 48
10, 59489, Note_on_c, 7, 55, 0
10, 59489, Note_on_c, 7, 51, 0
10, 59520, Note_on_c, 7, 55, 48
10, 59520, Note_on_c, 7, 51, 48
10, 59549, Note_on_c, 7, 51, 0
10, 59549, Note_on_c, 7, 55, 0
10, 59580, Note_on_c, 7, 55, 48
10, 59580, Note_on_c, 7, 51, 48
10, 59609, Note_on_c, 7, 51, 0
10, 59609, Note_on_c, 7, 55, 0
10, 59640, Note_on_c, 7, 55, 48
10, 59640, Note_on_c, 7, 51, 48
10, 59669, Note_on_c, 7, 51, 0
10, 59669, Note_on_c, 7, 55, 0
10, 59700, Note_on_c, 7, 55, 48
10, 59700, Note_on_c, 7, 51, 48
10, 59729, Note_on_c, 7, 51, 0
10, 59729, Note_on_c, 7, 55, 0
10, 59760, Note_on_c, 7, 55, 48
10, 59760, Note_on_c, 7, 51, 48
10, 59789, Note_on_c, 7, 51, 0
10, 59789, Note_on_c, 7, 55, 0
10, 59820, Note_on_c, 7, 55, 48
10, 59820, Note_on_c, 7, 51, 48
10, 59849, Note_on_c, 7, 51, 0
10, 59849, Note_on_c, 7, 55, 0
10, 59880, Note_on_c, 7, 55, 48
10, 59880, Note_on_c, 7, 51, 48
10, 59909, Note_on_c, 7, 51, 0
10, 59909, Note_on_c, 7, 55, 0
10, 59940, Note_on_c, 7, 55, 48
10, 59940, Note_on_c, 7, 51, 48
10, 59969, Note_on_c, 7, 51, 0
10, 59969, Note_on_c, 7, 55, 0
10, 60000, Note_on_c, 7, 55, 48
10, 60000, Note_on_c, 7, 51, 48
10, 60029, Note_on_c, 7, 51, 0
10, 60029, Note_on_c, 7, 55, 0
10, 60060, Note_on_c, 7, 55, 48
10, 60060, Note_on_c, 7, 51, 48
10, 60089, Note_on_c, 7, 51, 0
10, 60089, Note_on_c, 7, 55, 0
10, 60120, Note_on_c, 7, 55, 48
10, 60120, Note_on_c, 7, 51, 48
10, 60149, Note_on_c, 7, 51, 0
10, 60149, Note_on_c, 7, 55, 0
10, 60180, Note_on_c, 7, 55, 48
10, 60180, Note_on_c, 7, 51, 48
10, 60209, Note_on_c, 7, 51, 0
10, 60209, Note_on_c, 7, 55, 0
10, 60240, Note_on_c, 7, 55, 48
10, 60240, Note_on_c, 7, 51, 48
10, 60269, Note_on_c, 7, 51, 0
10, 60269, Note_on_c, 7, 55, 0
10, 60300, Note_on_c, 7, 55, 48
10, 60300, Note_on_c, 7, 51, 48
10, 60329, Note_on_c, 7, 51, 0
10, 60329, Note_on_c, 7, 55, 0
10, 60360, Note_on_c, 7, 55, 48
10, 60360, Note_on_c, 7, 51, 48
10, 60389, Note_on_c, 7, 51, 0
10, 60389, Note_on_c, 7, 55, 0
10, 60420, Note_on_c, 7, 55, 48
10, 60420, Note_on_c, 7, 51, 48
10, 60449, Note_on_c, 7, 51, 0
10, 60449, Note_on_c, 7, 55, 0
10, 60480, Note_on_c, 7, 55, 48
10, 60539, Note_on_c, 7, 55, 0
10, 60540, Note_on_c, 7, 55, 48
10, 60599, Note_on_c, 7, 55, 0
10, 60600, Note_on_c, 7, 58, 48
10, 60600, Note_on_c, 7, 55, 48
10, 60659, Note_on_c, 7, 55, 0
10, 60659, Note_on_c, 7, 58, 0
10, 60660, Note_on_c, 7, 58, 48
10, 60660, Note_on_c, 7, 55, 48
10, 60719, Note_on_c, 7, 55, 0
10, 60719, Note_on_c, 7, 58, 0
10, 60720, Note_on_c, 7, 58, 48
10, 60720, Note_on_c, 7, 55, 48
10, 60779, Note_on_c, 7, 55, 0
10, 60779, Note_on_c, 7, 58, 0
10, 60780, Note_on_c, 7, 58, 48
10, 60780, Note_on_c, 7, 55, 48
10, 60839, Note_on_c, 7, 55, 0
10, 60839, Note_on_c, 7, 58, 0
10, 60840, Note_on_c, 7, 53, 48
10, 60840, Note_on_c, 7, 56, 48
10, 60899, Note_on_c, 7, 56, 0
10, 60899, Note_on_c, 7, 53, 0
10, 60900, Note_on_c, 7, 53, 48
10, 60900, Note_on_c, 7, 56, 48
10, 60959, Note_on_c, 7, 56, 0
10, 60959, Note_on_c, 7, 53, 0
10, 60960, Note_on_c, 7, 53, 48
10, 60960, Note_on_c, 7, 56, 48
10, 61019, Note_on_c, 7, 56, 0
10, 61019, Note_on_c, 7, 53, 0
10, 61020, Note_on_c, 7, 53, 48
10, 61020, Note_on_c, 7, 56, 48
10, 61079, Note_on_c, 7, 56, 0
10, 61079, Note_on_c, 7, 53, 0
10, 61080, Note_on_c, 7, 53, 48
10, 61080, Note_on_c, 7, 56, 48
10, 61139, Note_on_c, 7, 56, 0
10, 61139, Note_on_c, 7, 53, 0
10, 61140, Note_on_c, 7, 53, 48
10, 61140, Note_on_c, 7, 56, 48
10, 61199, Note_on_c, 7, 56, 0
10, 61199, Note_on_c, 7, 53, 0
10, 61200, Note_on_c, 7, 53, 48
10, 61200, Note_on_c, 7, 56, 48
10, 61259, Note_on_c, 7, 56, 0
10, 61259, Note_on_c, 7, 53, 0
10, 61260, Note_on_c, 7, 53, 48
10, 61260, Note_on_c, 7, 56, 48
10, 61319, Note_on_c, 7, 56, 0
10, 61319, Note_on_c, 7, 53, 0
10, 61320, Note_on_c, 7, 53, 48
10, 61320, Note_on_c, 7, 56, 48
10, 61379, Note_on_c, 7, 56, 0
10, 61379, Note_on_c, 7, 53, 0
10, 61380, Note_on_c, 7, 53, 48
10, 61380, Note_on_c, 7, 56, 48
10, 61439, Note_on_c, 7, 56, 0
10, 61439, Note_on_c, 7, 53, 0
10, 61440, Note_on_c, 7, 58, 48
10, 61440, Note_on_c, 7, 61, 48
10, 61499, Note_on_c, 7, 61, 0
10, 61499, Note_on_c, 7, 58, 0
10, 61500, Note_on_c, 7, 58, 48
10, 61500, Note_on_c, 7, 61, 48
10, 61559, Note_on_c, 7, 61, 0
10, 61559, Note_on_c, 7, 58, 0
10, 61560, Note_on_c, 7, 60, 48
10, 61560, Note_on_c, 7, 56, 48
10, 61619, Note_on_c, 7, 56, 0
10, 61619, Note_on_c, 7, 60, 0
10, 61620, Note_on_c, 7, 60, 48
10, 61620, Note_on_c, 7, 56, 48
10, 61679, Note_on_c, 7, 56, 0
10, 61679, Note_on_c, 7, 60, 0
10, 61680, Note_on_c, 7, 60, 48
10, 61680, Note_on_c, 7, 56, 48
10, 61739, Note_on_c, 7, 56, 0
10, 61739, Note_on_c, 7, 60, 0
10, 61740, Note_on_c, 7, 60, 48
10, 61740, Note_on_c, 7, 56, 48
10, 61799, Note_on_c, 7, 56, 0
10, 61799, Note_on_c, 7, 60, 0
10, 61800, Note_on_c, 7, 60, 48
10, 61800, Note_on_c, 7, 56, 48
10, 61859, Note_on_c, 7, 56, 0
10, 61859, Note_on_c, 7, 60, 0
10, 61860, Note_on_c, 7, 60, 48
10, 61860, Note_on_c, 7, 56, 48
10, 61919, Note_on_c, 7, 56, 0
10, 61919, Note_on_c, 7, 60, 0
10, 61920, Note_on_c, 7, 56, 48
10, 61920, Note_on_c, 7, 60, 48
10, 61979, Note_on_c, 7, 60, 0
10, 61979, Note_on_c, 7, 56, 0
10, 61980, Note_on_c, 7, 60, 56
10, 62039, Note_on_c, 7, 60, 0
10, 62040, Note_on_c, 7, 60, 64
10, 62099, Note_on_c, 7, 60, 0
10, 62100, Note_on_c, 7, 60, 72
10, 62159, Note_on_c, 7, 60, 0
10, 62160, Note_on_c, 7, 59, 80
10, 62219, Note_on_c, 7, 59, 0
10, 62220, Note_on_c, 7, 59, 88
10, 62279, Note_on_c, 7, 59, 0
10, 62280, Note_on_c, 7, 58, 96
10, 62309, Note_on_c, 7, 58, 0
10, 62310, Note_on_c, 7, 58, 48
10, 62759, Note_on_c, 7, 58, 0
10, 62760, Note_on_c, 7, 50, 48
10, 62880, Note_on_c, 7, 53, 48
10, 62889, Note_on_c, 7, 50, 0
10, 62999, Note_on_c, 7, 53, 0
10, 63000, Note_on_c, 7, 55, 48
10, 63059, Note_on_c, 7, 55, 0
10, 63120, Note_on_c, 7, 54, 96
10, 63359, Note_on_c, 7, 54, 0
10, 63360, Note_on_c, 7, 54, 96
10, 63599, Note_on_c, 7, 54, 0
10, 63600, Note_on_c, 7, 54, 96
10, 63719, Note_on_c, 7, 54, 0
10, 63720, Note_on_c, 7, 53, 96
10, 63779, Note_on_c, 7, 53, 0
10, 63840, Note_on_c, 7, 58, 48
10, 64200, Note_on_c, 7, 50, 48
10, 64209, Note_on_c, 7, 58, 0
10, 64319, Note_on_c, 7, 50, 0
10, 64320, Note_on_c, 7, 58, 96
10, 64440, Note_on_c, 7, 56, 90
10, 64449, Note_on_c, 7, 58, 0
10, 64499, Note_on_c, 7, 56, 0
10, 64560, Note_on_c, 7, 68, 96
10, 64799, Note_on_c, 7, 68, 0
10, 64800, Note_on_c, 7, 68, 96
10, 65039, Note_on_c, 7, 68, 0
10, 65040, Note_on_c, 7, 68, 96
10, 65279, Note_on_c, 7, 68, 0
10, 65280, Note_on_c, 7, 67, 96
10, 65519, Note_on_c, 7, 67, 0
10, 65520, Note_on_c, 7, 67, 96
10, 65759, Note_on_c, 7, 67, 0
10, 65760, Note_on_c, 7, 67, 96
10, 65999, Note_on_c, 7, 67, 0
10, 66000, Note_on_c, 7, 68, 90
10, 66059, Note_on_c, 7, 68, 0
10, 66120, Note_on_c, 7, 68, 96
10, 66359, Note_on_c, 7, 68, 0
10, 66360, Note_on_c, 7, 67, 90
10, 66419, Note_on_c, 7, 67, 0
10, 66480, Note_on_c, 7, 67, 96
10, 66600, Note_on_c, 7, 62, 96
10, 66609, Note_on_c, 7, 67, 0
10, 66629, Note_on_c, 7, 62, 0
10, 66630, Note_on_c, 7, 65, 97
10, 66659, Note_on_c, 7, 65, 0
10, 66660, Note_on_c, 7, 65, 98
10, 66689, Note_on_c, 7, 65, 0
10, 66690, Note_on_c, 7, 65, 99
10, 66719, Note_on_c, 7, 65, 0
10, 66720, Note_on_c, 7, 65, 100
10, 66749, Note_on_c, 7, 65, 0
10, 66750, Note_on_c, 7, 65, 102
10, 66779, Note_on_c, 7, 65, 0
10, 66780, Note_on_c, 7, 63, 103
10, 66809, Note_on_c, 7, 63, 0
10, 66810, Note_on_c, 7, 63, 104
10, 66839, Note_on_c, 7, 63, 0
10, 66840, Note_on_c, 7, 62, 105
10, 66869, Note_on_c, 7, 62, 0
10, 66870, Note_on_c, 7, 62, 106
10, 66899, Note_on_c, 7, 62, 0
10, 66900, Note_on_c, 7, 60, 107
10, 66929, Note_on_c, 7, 60, 0
10, 66930, Note_on_c, 7, 60, 109
10, 66959, Note_on_c, 7, 60, 0
10, 66960, Note_on_c, 7, 58, 110
10, 66989, Note_on_c, 7, 58, 0
10, 66990, Note_on_c, 7, 58, 111
10, 67019, Note_on_c, 7, 58, 0
10, 67020, Note_on_c, 7, 56, 112
10, 67049, Note_on_c, 7, 56, 0
10, 67050, Note_on_c, 7, 56, 113
10, 67079, Note_on_c, 7, 56, 0
10, 67080, Note_on_c, 7, 55, 114
10, 67109, Note_on_c, 7, 55, 0
10, 67110, Note_on_c, 7, 55, 115
10, 67139, Note_on_c, 7, 55, 0
10, 67140, Note_on_c, 7, 53, 116
10, 67169, Note_on_c, 7, 53, 0
10, 67170, Note_on_c, 7, 53, 118
10, 67199, Note_on_c, 7, 53, 0
10, 67200, Note_on_c, 7, 51, 119
10, 67229, Note_on_c, 7, 51, 0
10, 67230, Note_on_c, 7, 51, 121
10, 67259, Note_on_c, 7, 51, 0
10, 67260, Note_on_c, 7, 56, 123
10, 67289, Note_on_c, 7, 56, 0
10, 67290, Note_on_c, 7, 56, 125
10, 67319, Note_on_c, 7, 56, 0
10, 67320, Note_on_c, 7, 55, 127
10, 67440, Note_on_c, 7, 63, 127
10, 67449, Note_on_c, 7, 55, 0
10, 67560, Note_on_c, 7, 67, 127
10, 67569, Note_on_c, 7, 63, 0
10, 67679, Note_on_c, 7, 67, 0
10, 67680, Note_on_c, 7, 63, 127
10, 67920, Note_on_c, 7, 58, 127
10, 67929, Note_on_c, 7, 63, 0
10, 68039, Note_on_c, 7, 58, 0
10, 68040, Note_on_c, 7, 63, 127
10, 68160, Note_on_c, 7, 67, 127
10, 68169, Note_on_c, 7, 63, 0
10, 68280, Note_on_c, 7, 70, 127
10, 68289, Note_on_c, 7, 67, 0
10, 68399, Note_on_c, 7, 70, 0
10, 68400, Note_on_c, 7, 63, 127
10, 68639, Note_on_c, 7, 63, 0
10, 68640, Note_on_c, 7, 55, 127
10, 68759, Note_on_c, 7, 55, 0
10, 68760, Note_on_c, 7, 60, 127
10, 68880, Note_on_c, 7, 63, 127
10, 68889, Note_on_c, 7, 60, 0
10, 69000, Note_on_c, 7, 67, 127
10, 69009, Note_on_c, 7, 63, 0
10, 69119, Note_on_c, 7, 67, 0
10, 69120, Note_on_c, 7, 60, 127
10, 69359, Note_on_c, 7, 60, 0
10, 69360, Note_on_c, 7, 61, 127
10, 69389, Note_on_c, 7, 61, 0
10, 69390, Note_on_c, 7, 61, 127
10, 69419, Note_on_c, 7, 61, 0
10, 69420, Note_on_c, 7, 61, 127
10, 69449, Note_on_c, 7, 61, 0
10, 69450, Note_on_c, 7, 61, 127
10, 69479, Note_on_c, 7, 61, 0
10, 69480, Note_on_c, 7, 60, 127
10, 69509, Note_on_c, 7, 60, 0
10, 69510, Note_on_c, 7, 60, 127
10, 69539, Note_on_c, 7, 60, 0
10, 69540, Note_on_c, 7, 60, 127
10, 69569, Note_on_c, 7, 60, 0
10, 69570, Note_on_c, 7, 60, 127
10, 69599, Note_on_c, 7, 60, 0
10, 69600, Note_on_c, 7, 60, 127
10, 69629, Note_on_c, 7, 60, 0
10, 69630, Note_on_c, 7, 60, 127
10, 69659, Note_on_c, 7, 60, 0
10, 69660, Note_on_c, 7, 60, 127
10, 69689, Note_on_c, 7, 60, 0
10, 69690, Note_on_c, 7, 60, 127
10, 69719, Note_on_c, 7, 60, 0
10, 69720, Note_on_c, 7, 60, 127
10, 69749, Note_on_c, 7, 60, 0
10, 69750, Note_on_c, 7, 60, 127
10, 69779, Note_on_c, 7, 60, 0
10, 69780, Note_on_c, 7, 60, 127
10, 69809, Note_on_c, 7, 60, 0
10, 69810, Note_on_c, 7, 60, 127
10, 69839, Note_on_c, 7, 60, 0
10, 69840, Note_on_c, 7, 60, 127
10, 69869, Note_on_c, 7, 60, 0
10, 69870, Note_on_c, 7, 60, 127
10, 69899, Note_on_c, 7, 60, 0
10, 69900, Note_on_c, 7, 58, 127
10, 69929, Note_on_c, 7, 58, 0
10, 69930, Note_on_c, 7, 58, 127
10, 69959, Note_on_c, 7, 58, 0
10, 69960, Note_on_c, 7, 57, 127
10, 69989, Note_on_c, 7, 57, 0
10, 69990, Note_on_c, 7, 57, 127
10, 70019, Note_on_c, 7, 57, 0
10, 70020, Note_on_c, 7, 58, 127
10, 70049, Note_on_c, 7, 58, 0
10, 70050, Note_on_c, 7, 58, 127
10, 70079, Note_on_c, 7, 58, 0
10, 70080, Note_on_c, 7, 60, 127
10, 70109, Note_on_c, 7, 60, 0
10, 70110, Note_on_c, 7, 60, 127
10, 70139, Note_on_c, 7, 60, 0
10, 70140, Note_on_c, 7, 58, 127
10, 70169, Note_on_c, 7, 58, 0
10, 70170, Note_on_c, 7, 58, 127
10, 70199, Note_on_c, 7, 58, 0
10, 70200, Note_on_c, 7, 57, 127
10, 70229, Note_on_c, 7, 57, 0
10, 70260, Note_on_c, 7, 53, 48
10, 70320, Note_on_c, 7, 57, 48
10, 70329, Note_on_c, 7, 53, 0
10, 70380, Note_on_c, 7, 53, 48
10, 70389, Note_on_c, 7, 57, 0
10, 70440, Note_on_c, 7, 57, 48
10, 70449, Note_on_c, 7, 53, 0
10, 70500, Note_on_c, 7, 53, 48
10, 70509, Note_on_c, 7, 57, 0
10, 70559, Note_on_c, 7, 53, 0
10, 70560, Note_on_c, 7, 57, 48
10, 70620, Note_on_c, 7, 53, 48
10, 70629, Note_on_c, 7, 57, 0
10, 70680, Note_on_c, 7, 57, 48
10, 70689, Note_on_c, 7, 53, 0
10, 70740, Note_on_c, 7, 53, 48
10, 70749, Note_on_c, 7, 57, 0
10, 70800, Note_on_c, 7, 57, 48
10, 70809, Note_on_c, 7, 53, 0
10, 70860, Note_on_c, 7, 53, 48
10, 70869, Note_on_c, 7, 57, 0
10, 70919, Note_on_c, 7, 53, 0
10, 70920, Note_on_c, 7, 57, 48
10, 70980, Note_on_c, 7, 53, 48
10, 70989, Note_on_c, 7, 57, 0
10, 71040, Note_on_c, 7, 57, 48
10, 71049, Note_on_c, 7, 53, 0
10, 71100, Note_on_c, 7, 53, 48
10, 71109, Note_on_c, 7, 57, 0
10, 71160, Note_on_c, 7, 57, 48
10, 71169, Note_on_c, 7, 53, 0
10, 71220, Note_on_c, 7, 53, 48
10, 71229, Note_on_c, 7, 57, 0
10, 71279, Note_on_c, 7, 53, 0
10, 71280, Note_on_c, 7, 57, 48
10, 71340, Note_on_c, 7, 53, 48
10, 71349, Note_on_c, 7, 57, 0
10, 71400, Note_on_c, 7, 57, 48
10, 71409, Note_on_c, 7, 53, 0
10, 71460, Note_on_c, 7, 53, 48
10, 71469, Note_on_c, 7, 57, 0
10, 71520, Note_on_c, 7, 57, 48
10, 71529, Note_on_c, 7, 53, 0
10, 71580, Note_on_c, 7, 53, 48
10, 71589, Note_on_c, 7, 57, 0
10, 71639, Note_on_c, 7, 53, 0
10, 71640, Note_on_c, 7, 58, 48
10, 71700, Note_on_c, 7, 53, 48
10, 71709, Note_on_c, 7, 58, 0
10, 71760, Note_on_c, 7, 58, 48
10, 71769, Note_on_c, 7, 53, 0
10, 71820, Note_on_c, 7, 53, 48
10, 71829, Note_on_c, 7, 58, 0
10, 71880, Note_on_c, 7, 58, 48
10, 71889, Note_on_c, 7, 53, 0
10, 71940, Note_on_c, 7, 53, 48
10, 71949, Note_on_c, 7, 58, 0
10, 71999, Note_on_c, 7, 53, 0
10, 72000, Note_on_c, 7, 58, 48
10, 72060, Note_on_c, 7, 53, 48
10, 72069, Note_on_c, 7, 58, 0
10, 72120, Note_on_c, 7, 58, 48
10, 72129, Note_on_c, 7, 53, 0
10, 72180, Note_on_c, 7, 53, 48
10, 72189, Note_on_c, 7, 58, 0
10, 72240, Note_on_c, 7, 58, 48
10, 72249, Note_on_c, 7, 53, 0
10, 72300, Note_on_c, 7, 53, 48
10, 72309, Note_on_c, 7, 58, 0
10, 72359, Note_on_c, 7, 53, 0
10, 72360, Note_on_c, 7, 58, 48
10, 72420, Note_on_c, 7, 53, 48
10, 72429, Note_on_c, 7, 58, 0
10, 72480, Note_on_c, 7, 58, 48
10, 72489, Note_on_c, 7, 53, 0
10, 72540, Note_on_c, 7, 53, 48
10, 72549, Note_on_c, 7, 58, 0
10, 72600, Note_on_c, 7, 58, 48
10, 72609, Note_on_c, 7, 53, 0
10, 72660, Note_on_c, 7, 53, 48
10, 72669, Note_on_c, 7, 58, 0
10, 72719, Note_on_c, 7, 53, 0
10, 72720, Note_on_c, 7, 58, 48
10, 72780, Note_on_c, 7, 53, 48
10, 72789, Note_on_c, 7, 58, 0
10, 72840, Note_on_c, 7, 58, 48
10, 72849, Note_on_c, 7, 53, 0
10, 72900, Note_on_c, 7, 53, 48
10, 72909, Note_on_c, 7, 58, 0
10, 72960, Note_on_c, 7, 58, 48
10, 72969, Note_on_c, 7, 53, 0
10, 73020, Note_on_c, 7, 53, 48
10, 73029, Note_on_c, 7, 58, 0
10, 73079, Note_on_c, 7, 53, 0
10, 73080, Note_on_c, 7, 60, 48
10, 73199, Note_on_c, 7, 60, 0
10, 73920, Note_on_c, 7, 67, 127
10, 74099, Note_on_c, 7, 67, 0
10, 74100, Note_on_c, 7, 65, 127
10, 74159, Note_on_c, 7, 65, 0
10, 74160, Note_on_c, 7, 63, 127
10, 74219, Note_on_c, 7, 63, 0
10, 74280, Note_on_c, 7, 62, 127
10, 74339, Note_on_c, 7, 62, 0
10, 74400, Note_on_c, 7, 60, 127
10, 74459, Note_on_c, 7, 60, 0
10, 74520, Note_on_c, 7, 58, 48
10, 74760, Note_on_c, 7, 57, 51
10, 74769, Note_on_c, 7, 58, 0
10, 74820, Note_on_c, 7, 56, 53
10, 74829, Note_on_c, 7, 57, 0
10, 74880, Note_on_c, 7, 55, 56
10, 74889, Note_on_c, 7, 56, 0
10, 75000, Note_on_c, 7, 53, 52
10, 75009, Note_on_c, 7, 55, 0
10, 75120, Note_on_c, 7, 51, 48
10, 75129, Note_on_c, 7, 53, 0
10, 75239, Note_on_c, 7, 51, 0
10, 75240, Note_on_c, 7, 50, 48
10, 75269, Note_on_c, 7, 50, 0
10, 75300, Note_on_c, 7, 65, 48
10, 75329, Note_on_c, 7, 65, 0
10, 75360, Note_on_c, 7, 63, 48
10, 75389, Note_on_c, 7, 63, 0
10, 75420, Note_on_c, 7, 62, 48
10, 75449, Note_on_c, 7, 62, 0
10, 75480, Note_on_c, 7, 60, 48
10, 75509, Note_on_c, 7, 60, 0
10, 75540, Note_on_c, 7, 58, 48
10, 75569, Note_on_c, 7, 58, 0
10, 75600, Note_on_c, 7, 57, 48
10, 75629, Note_on_c, 7, 57, 0
10, 75660, Note_on_c, 7, 58, 48
10, 75689, Note_on_c, 7, 58, 0
10, 75720, Note_on_c, 7, 60, 48
10, 75749, Note_on_c, 7, 60, 0
10, 75780, Note_on_c, 7, 53, 48
10, 75809, Note_on_c, 7, 53, 0
10, 75840, Note_on_c, 7, 55, 48
10, 75869, Note_on_c, 7, 55, 0
10, 75900, Note_on_c, 7, 57, 48
10, 75929, Note_on_c, 7, 57, 0
10, 75960, Note_on_c, 7, 58, 48
10, 75989, Note_on_c, 7, 58, 0
10, 76020, Note_on_c, 7, 70, 50
10, 76049, Note_on_c, 7, 70, 0
10, 76080, Note_on_c, 7, 70, 52
10, 76109, Note_on_c, 7, 70, 0
10, 76140, Note_on_c, 7, 70, 54
10, 76200, Note_on_c, 7, 69, 56
10, 76209, Note_on_c, 7, 70, 0
10, 76260, Note_on_c, 7, 68, 58
10, 76269, Note_on_c, 7, 69, 0
10, 76319, Note_on_c, 7, 68, 0
10, 76320, Note_on_c, 7, 67, 60
10, 76380, Note_on_c, 7, 65, 62
10, 76389, Note_on_c, 7, 67, 0
10, 76439, Note_on_c, 7, 65, 0
10, 76440, Note_on_c, 7, 63, 64
10, 76469, Note_on_c, 7, 63, 0
10, 76500, Note_on_c, 7, 67, 66
10, 76529, Note_on_c, 7, 67, 0
10, 76560, Note_on_c, 7, 65, 68
10, 76589, Note_on_c, 7, 65, 0
10, 76620, Note_on_c, 7, 63, 70
10, 76649, Note_on_c, 7, 63, 0
10, 76680, Note_on_c, 7, 62, 72
10, 76709, Note_on_c, 7, 62, 0
10, 76740, Note_on_c, 7, 62, 74
10, 76769, Note_on_c, 7, 62, 0
10, 76800, Note_on_c, 7, 60, 76
10, 76829, Note_on_c, 7, 60, 0
10, 76860, Note_on_c, 7, 65, 78
10, 76889, Note_on_c, 7, 65, 0
10, 76920, Note_on_c, 7, 69, 80
10, 76949, Note_on_c, 7, 69, 0
10, 76980, Note_on_c, 7, 70, 82
10, 77009, Note_on_c, 7, 70, 0
10, 77040, Note_on_c, 7, 72, 84
10, 77069, Note_on_c, 7, 72, 0
10, 77100, Note_on_c, 7, 72, 86
10, 77129, Note_on_c, 7, 72, 0
10, 77160, Note_on_c, 7, 72, 88
10, 77189, Note_on_c, 7, 72, 0
10, 77220, Note_on_c, 7, 72, 90
10, 77249, Note_on_c, 7, 72, 0
10, 77280, Note_on_c, 7, 72, 92
10, 77309, Note_on_c, 7, 72, 0
10, 77340, Note_on_c, 7, 72, 94
10, 77369, Note_on_c, 7, 72, 0
10, 77400, Note_on_c, 7, 72, 96
10, 77459, Note_on_c, 7, 72, 0
10, 77520, Note_on_c, 7, 63, 96
10, 77520, Note_on_c, 7, 60, 96
10, 77579, Note_on_c, 7, 60, 0
10, 77579, Note_on_c, 7, 63, 0
10, 78060, Note_on_c, 7, 60, 96
10, 78089, Note_on_c, 7, 60, 0
10, 78120, Note_on_c, 7, 58, 96
10, 78179, Note_on_c, 7, 58, 0
10, 78240, Note_on_c, 7, 62, 96
10, 78240, Note_on_c, 7, 58, 96
10, 78299, Note_on_c, 7, 58, 0
10, 78299, Note_on_c, 7, 62, 0
10, 78780, Note_on_c, 7, 62, 96
10, 78809, Note_on_c, 7, 62, 0
10, 78840, Note_on_c, 7, 62, 96
10, 78899, Note_on_c, 7, 62, 0
10, 78960, Note_on_c, 7, 74, 96
10, 79019, Note_on_c, 7, 74, 0
10, 79380, Note_on_c, 7, 56, 96
10, 79409, Note_on_c, 7, 56, 0
10, 79440, Note_on_c, 7, 56, 96
10, 79469, Note_on_c, 7, 56, 0
10, 79500, Note_on_c, 7, 65, 96
10, 79529, Note_on_c, 7, 65, 0
10, 79560, Note_on_c, 7, 63, 96
10, 79589, Note_on_c, 7, 63, 0
10, 79620, Note_on_c, 7, 60, 96
10, 79739, Note_on_c, 7, 60, 0
10, 79740, Note_on_c, 7, 60, 96
10, 79769, Note_on_c, 7, 60, 0
10, 79800, Note_on_c, 7, 57, 96
10, 79829, Note_on_c, 7, 57, 0
10, 79860, Note_on_c, 7, 62, 96
10, 79889, Note_on_c, 7, 62, 0
10, 79920, Note_on_c, 7, 62, 96
10, 79949, Note_on_c, 7, 62, 0
10, 79980, Note_on_c, 7, 58, 96
10, 80099, Note_on_c, 7, 58, 0
10, 80100, Note_on_c, 7, 63, 96
10, 80129, Note_on_c, 7, 63, 0
10, 80160, Note_on_c, 7, 60, 96
10, 80189, Note_on_c, 7, 60, 0
10, 80220, Note_on_c, 7, 65, 96
10, 80249, Note_on_c, 7, 65, 0
10, 80280, Note_on_c, 7, 65, 96
10, 80339, Note_on_c, 7, 65, 0
10, 80340, Note_on_c, 7, 70, 96
10, 80399, Note_on_c, 7, 70, 0
10, 80400, Note_on_c, 7, 68, 96
10, 80459, Note_on_c, 7, 68, 0
10, 80460, Note_on_c, 7, 68, 96
10, 80519, Note_on_c, 7, 68, 0
10, 80520, Note_on_c, 7, 67, 96
10, 80579, Note_on_c, 7, 67, 0
10, 80580, Note_on_c, 7, 67, 96
10, 80639, Note_on_c, 7, 67, 0
10, 80640, Note_on_c, 7, 66, 96
10, 80699, Note_on_c, 7, 66, 0
10, 80700, Note_on_c, 7, 66, 96
10, 80759, Note_on_c, 7, 66, 0
10, 80760, Note_on_c, 7, 65, 96
10, 80819, Note_on_c, 7, 65, 0
10, 80820, Note_on_c, 7, 65, 96
10, 80879, Note_on_c, 7, 65, 0
10, 80880, Note_on_c, 7, 62, 96
10, 80939, Note_on_c, 7, 62, 0
10, 80940, Note_on_c, 7, 62, 96
10, 80999, Note_on_c, 7, 62, 0
10, 81000, Note_on_c, 7, 63, 96
10, 81029, Note_on_c, 7, 63, 0
10, 81030, Note_on_c, 7, 58, 96
10, 81059, Note_on_c, 7, 58, 0
10, 81060, Note_on_c, 7, 58, 96
10, 81089, Note_on_c, 7, 58, 0
10, 81090, Note_on_c, 7, 58, 96
10, 81119, Note_on_c, 7, 58, 0
10, 81120, Note_on_c, 7, 58, 96
10, 81149, Note_on_c, 7, 58, 0
10, 81150, Note_on_c, 7, 58, 96
10, 81179, Note_on_c, 7, 58, 0
10, 81180, Note_on_c, 7, 58, 96
10, 81209, Note_on_c, 7, 58, 0
10, 81210, Note_on_c, 7, 58, 96
10, 81239, Note_on_c, 7, 58, 0
10, 81240, Note_on_c, 7, 59, 96
10, 81269, Note_on_c, 7, 59, 0
10, 81270, Note_on_c, 7, 59, 96
10, 81299, Note_on_c, 7, 59, 0
10, 81300, Note_on_c, 7, 59, 96
10, 81329, Note_on_c, 7, 59, 0
10, 81330, Note_on_c, 7, 59, 96
10, 81359, Note_on_c, 7, 59, 0
10, 81360, Note_on_c, 7, 60, 96
10, 81389, Note_on_c, 7, 60, 0
10, 81390, Note_on_c, 7, 60, 96
10, 81419, Note_on_c, 7, 60, 0
10, 81420, Note_on_c, 7, 59, 96
10, 81449, Note_on_c, 7, 59, 0
10, 81450, Note_on_c, 7, 59, 96
10, 81479, Note_on_c, 7, 59, 0
10, 81480, Note_on_c, 7, 62, 96
10, 81509, Note_on_c, 7, 62, 0
10, 81510, Note_on_c, 7, 62, 96
10, 81539, Note_on_c, 7, 62, 0
10, 81540, Note_on_c, 7, 60, 96
10, 81569, Note_on_c, 7, 60, 0
10, 81570, Note_on_c, 7, 60, 96
10, 81599, Note_on_c, 7, 60, 0
10, 81600, Note_on_c, 7, 65, 96
10, 81629, Note_on_c, 7, 65, 0
10, 81630, Note_on_c, 7, 65, 96
10, 81659, Note_on_c, 7, 65, 0
10, 81660, Note_on_c, 7, 63, 96
10, 81689, Note_on_c, 7, 63, 0
10, 81690, Note_on_c, 7, 63, 96
10, 81719, Note_on_c, 7, 63, 0
10, 81720, Note_on_c, 7, 62, 96
10, 81749, Note_on_c, 7, 62, 0
10, 81750, Note_on_c, 7, 62, 96
10, 81779, Note_on_c, 7, 62, 0
10, 81780, Note_on_c, 7, 65, 96
10, 81809, Note_on_c, 7, 65, 0
10, 81810, Note_on_c, 7, 65, 96
10, 81839, Note_on_c, 7, 65, 0
10, 81840, Note_on_c, 7, 64, 96
10, 81869, Note_on_c, 7, 64, 0
10, 81870, Note_on_c, 7, 64, 96
10, 81899, Note_on_c, 7, 64, 0
10, 81900, Note_on_c, 7, 63, 96
10, 81929, Note_on_c, 7, 63, 0
10, 81930, Note_on_c, 7, 63, 96
10, 81959, Note_on_c, 7, 63, 0
10, 81960, Note_on_c, 7, 62, 96
10, 81989, Note_on_c, 7, 62, 0
10, 81990, Note_on_c, 7, 62, 96
10, 82019, Note_on_c, 7, 62, 0
10, 82020, Note_on_c, 7, 60, 96
10, 82049, Note_on_c, 7, 60, 0
10, 82050, Note_on_c, 7, 60, 96
10, 82079, Note_on_c, 7, 60, 0
10, 82080, Note_on_c, 7, 58, 96
10, 82109, Note_on_c, 7, 58, 0
10, 82110, Note_on_c, 7, 58, 96
10, 82139, Note_on_c, 7, 58, 0
10, 82140, Note_on_c, 7, 60, 96
10, 82169, Note_on_c, 7, 60, 0
10, 82170, Note_on_c, 7, 60, 96
10, 82199, Note_on_c, 7, 60, 0
10, 82200, Note_on_c, 7, 61, 96
10, 82229, Note_on_c, 7, 61, 0
10, 82230, Note_on_c, 7, 61, 96
10, 82259, Note_on_c, 7, 61, 0
10, 82260, Note_on_c, 7, 62, 96
10, 82289, Note_on_c, 7, 62, 0
10, 82290, Note_on_c, 7, 62, 96
10, 82319, Note_on_c, 7, 62, 0
10, 82320, Note_on_c, 7, 60, 96
10, 82349, Note_on_c, 7, 60, 0
10, 82350, Note_on_c, 7, 60, 96
10, 82379, Note_on_c, 7, 60, 0
10, 82380, Note_on_c, 7, 58, 96
10, 82409, Note_on_c, 7, 58, 0
10, 82410, Note_on_c, 7, 58, 96
10, 82439, Note_on_c, 7, 58, 0
10, 82440, Note_on_c, 7, 57, 96
10, 82469, Note_on_c, 7, 57, 0
10, 82470, Note_on_c, 7, 63, 96
10, 82470, Note_on_c, 7, 60, 96
10, 82499, Note_on_c, 7, 60, 0
10, 82499, Note_on_c, 7, 63, 0
10, 82500, Note_on_c, 7, 63, 96
10, 82500, Note_on_c, 7, 60, 96
10, 82529, Note_on_c, 7, 60, 0
10, 82529, Note_on_c, 7, 63, 0
10, 82530, Note_on_c, 7, 63, 96
10, 82530, Note_on_c, 7, 60, 96
10, 82559, Note_on_c, 7, 60, 0
10, 82559, Note_on_c, 7, 63, 0
10, 82560, Note_on_c, 7, 63, 96
10, 82560, Note_on_c, 7, 60, 96
10, 82589, Note_on_c, 7, 60, 0
10, 82589, Note_on_c, 7, 63, 0
10, 82590, Note_on_c, 7, 63, 96
10, 82590, Note_on_c, 7, 60, 96
10, 82619, Note_on_c, 7, 60, 0
10, 82619, Note_on_c, 7, 63, 0
10, 82620, Note_on_c, 7, 63, 96
10, 82620, Note_on_c, 7, 60, 96
10, 82649, Note_on_c, 7, 60, 0
10, 82649, Note_on_c, 7, 63, 0
10, 82650, Note_on_c, 7, 63, 96
10, 82650, Note_on_c, 7, 60, 96
10, 82679, Note_on_c, 7, 60, 0
10, 82679, Note_on_c, 7, 63, 0
10, 82680, Note_on_c, 7, 63, 96
10, 82680, Note_on_c, 7, 60, 96
10, 82709, Note_on_c, 7, 60, 0
10, 82709, Note_on_c, 7, 63, 0
10, 82710, Note_on_c, 7, 63, 96
10, 82710, Note_on_c, 7, 60, 96
10, 82739, Note_on_c, 7, 60, 0
10, 82739, Note_on_c, 7, 63, 0
10, 82740, Note_on_c, 7, 63, 96
10, 82740, Note_on_c, 7, 60, 96
10, 82769, Note_on_c, 7, 60, 0
10, 82769, Note_on_c, 7, 63, 0
10, 82770, Note_on_c, 7, 63, 96
10, 82770, Note_on_c, 7, 60, 96
10, 82799, Note_on_c, 7, 60, 0
10, 82799, Note_on_c, 7, 63, 0
10, 82800, Note_on_c, 7, 63, 96
10, 82800, Note_on_c, 7, 60, 96
10, 82829, Note_on_c, 7, 60, 0
10, 82829, Note_on_c, 7, 63, 0
10, 82830, Note_on_c, 7, 63, 96
10, 82830, Note_on_c, 7, 60, 96
10, 82859, Note_on_c, 7, 60, 0
10, 82859, Note_on_c, 7, 63, 0
10, 82860, Note_on_c, 7, 63, 96
10, 82860, Note_on_c, 7, 60, 96
10, 82889, Note_on_c, 7, 60, 0
10, 82889, Note_on_c, 7, 63, 0
10, 82890, Note_on_c, 7, 63, 96
10, 82890, Note_on_c, 7, 60, 96
10, 82919, Note_on_c, 7, 60, 0
10, 82919, Note_on_c, 7, 63, 0
10, 82920, Note_on_c, 7, 63, 96
10, 82920, Note_on_c, 7, 60, 96
10, 82949, Note_on_c, 7, 60, 0
10, 82949, Note_on_c, 7, 63, 0
10, 82950, Note_on_c, 7, 63, 96
10, 82950, Note_on_c, 7, 60, 96
10, 82979, Note_on_c, 7, 60, 0
10, 82979, Note_on_c, 7, 63, 0
10, 82980, Note_on_c, 7, 63, 96
10, 82980, Note_on_c, 7, 60, 96
10, 83009, Note_on_c, 7, 60, 0
10, 83009, Note_on_c, 7, 63, 0
10, 83010, Note_on_c, 7, 63, 96
10, 83010, Note_on_c, 7, 60, 96
10, 83039, Note_on_c, 7, 60, 0
10, 83039, Note_on_c, 7, 63, 0
10, 83040, Note_on_c, 7, 63, 96
10, 83040, Note_on_c, 7, 60, 96
10, 83069, Note_on_c, 7, 60, 0
10, 83069, Note_on_c, 7, 63, 0
10, 83070, Note_on_c, 7, 63, 96
10, 83070, Note_on_c, 7, 60, 96
10, 83099, Note_on_c, 7, 60, 0
10, 83099, Note_on_c, 7, 63, 0
10, 83100, Note_on_c, 7, 63, 96
10, 83100, Note_on_c, 7, 60, 96
10, 83129, Note_on_c, 7, 60, 0
10, 83129, Note_on_c, 7, 63, 0
10, 83130, Note_on_c, 7, 63, 96
10, 83130, Note_on_c, 7, 60, 96
10, 83159, Note_on_c, 7, 60, 0
10, 83159, Note_on_c, 7, 63, 0
10, 83160, Note_on_c, 7, 57, 127
10, 83189, Note_on_c, 7, 57, 0
10, 83190, Note_on_c, 7, 57, 127
10, 83219, Note_on_c, 7, 57, 0
10, 83220, Note_on_c, 7, 64, 127
10, 83249, Note_on_c, 7, 64, 0
10, 83250, Note_on_c, 7, 64, 127
10, 83279, Note_on_c, 7, 64, 0
10, 83280, Note_on_c, 7, 63, 127
10, 83309, Note_on_c, 7, 63, 0
10, 83310, Note_on_c, 7, 63, 127
10, 83339, Note_on_c, 7, 63, 0
10, 83340, Note_on_c, 7, 62, 127
10, 83369, Note_on_c, 7, 62, 0
10, 83370, Note_on_c, 7, 62, 127
10, 83399, Note_on_c, 7, 62, 0
10, 83400, Note_on_c, 7, 60, 127
10, 83429, Note_on_c, 7, 60, 0
10, 83430, Note_on_c, 7, 60, 127
10, 83459, Note_on_c, 7, 60, 0
10, 83460, Note_on_c, 7, 58, 127
10, 83489, Note_on_c, 7, 58, 0
10, 83490, Note_on_c, 7, 58, 127
10, 83519, Note_on_c, 7, 58, 0
10, 83520, Note_on_c, 7, 57, 127
10, 83549, Note_on_c, 7, 57, 0
10, 83550, Note_on_c, 7, 57, 127
10, 83579, Note_on_c, 7, 57, 0
10, 83580, Note_on_c, 7, 55, 127
10, 83609, Note_on_c, 7, 55, 0
10, 83610, Note_on_c, 7, 55, 127
10, 83639, Note_on_c, 7, 55, 0
10, 83640, Note_on_c, 7, 53, 127
10, 83669, Note_on_c, 7, 53, 0
10, 83670, Note_on_c, 7, 53, 127
10, 83699, Note_on_c, 7, 53, 0
10, 83700, Note_on_c, 7, 51, 127
10, 83729, Note_on_c, 7, 51, 0
10, 83730, Note_on_c, 7, 51, 127
10, 83759, Note_on_c, 7, 51, 0
10, 83760, Note_on_c, 7, 50, 127
10, 83789, Note_on_c, 7, 50, 0
10, 83790, Note_on_c, 7, 50, 127
10, 83819, Note_on_c, 7, 50, 0
10, 83820, Note_on_c, 7, 60, 127
10, 83849, Note_on_c, 7, 60, 0
10, 83850, Note_on_c, 7, 60, 127
10, 83879, Note_on_c, 7, 60, 0
10, 83880, Note_on_c, 7, 58, 127
10, 83999, Note_on_c, 7, 58, 0
10, 85440, Note_on_c, 7, 63, 48
10, 85529, Note_on_c, 7, 63, 0
10, 85560, Note_on_c, 7, 63, 48
10, 85649, Note_on_c, 7, 63, 0
10, 85680, Note_on_c, 7, 63, 48
10, 85769, Note_on_c, 7, 63, 0
10, 85800, Note_on_c, 7, 63, 60
10, 85889, Note_on_c, 7, 63, 0
10, 85920, Note_on_c, 7, 63, 72
10, 86009, Note_on_c, 7, 63, 0
10, 86040, Note_on_c, 7, 63, 80
10, 86129, Note_on_c, 7, 63, 0
10, 86160, Note_on_c, 7, 63, 96
10, 86399, Note_on_c, 7, 63, 0
10, 86400, Note_on_c, 7, 63, 96
10, 86700, Note_on_c, 7, 60, 56
10, 86709, Note_on_c, 7, 63, 0
10, 86760, Note_on_c, 7, 62, 48
10, 86769, Note_on_c, 7, 60, 0
10, 86879, Note_on_c, 7, 62, 0
10, 88680, Note_on_c, 7, 62, 48
10, 88769, Note_on_c, 7, 62, 0
10, 88800, Note_on_c, 7, 62, 48
10, 88889, Note_on_c, 7, 62, 0
10, 88920, Note_on_c, 7, 55, 48
10, 89279, Note_on_c, 7, 55, 0
10, 89760, Note_on_c, 7, 63, 32
10, 89760, Note_on_c, 7, 60, 32
10, 89819, Note_on_c, 7, 60, 0
10, 89819, Note_on_c, 7, 63, 0
10, 89880, Note_on_c, 7, 63, 32
10, 89880, Note_on_c, 7, 60, 32
10, 89939, Note_on_c, 7, 60, 0
10, 89939, Note_on_c, 7, 63, 0
10, 90120, Note_on_c, 7, 65, 32
10, 90120, Note_on_c, 7, 62, 32
10, 90179, Note_on_c, 7, 62, 0
10, 90179, Note_on_c, 7, 65, 0
10, 90240, Note_on_c, 7, 65, 32
10, 90299, Note_on_c, 7, 65, 0
10, 90480, Note_on_c, 7, 65, 32
10, 90539, Note_on_c, 7, 65, 0
10, 90600, Note_on_c, 7, 65, 32
10, 90659, Note_on_c, 7, 65, 0
10, 90720, Note_on_c, 7, 65, 32
10, 90779, Note_on_c, 7, 65, 0
10, 90840, Note_on_c, 7, 65, 32
10, 90899, Note_on_c, 7, 65, 0
10, 90960, Note_on_c, 7, 65, 32
10, 91019, Note_on_c, 7, 65, 0
10, 91320, Note_on_c, 7, 67, 32
10, 91349, Note_on_c, 7, 67, 0
10, 91380, Note_on_c, 7, 65, 32
10, 91409, Note_on_c, 7, 65, 0
10, 91440, Note_on_c, 7, 63, 32
10, 91469, Note_on_c, 7, 63, 0
10, 91500, Note_on_c, 7, 65, 32
10, 91529, Note_on_c, 7, 65, 0
10, 91560, Note_on_c, 7, 67, 32
10, 91589, Note_on_c, 7, 67, 0
10, 91620, Note_on_c, 7, 65, 32
10, 91649, Note_on_c, 7, 65, 0
10, 91680, Note_on_c, 7, 63, 32
10, 91709, Note_on_c, 7, 63, 0
10, 91740, Note_on_c, 7, 62, 32
10, 91769, Note_on_c, 7, 62, 0
10, 91800, Note_on_c, 7, 60, 34
10, 91829, Note_on_c, 7, 60, 0
10, 91860, Note_on_c, 7, 62, 37
10, 91889, Note_on_c, 7, 62, 0
10, 91920, Note_on_c, 7, 63, 40
10, 91949, Note_on_c, 7, 63, 0
10, 91980, Note_on_c, 7, 65, 43
10, 92009, Note_on_c, 7, 65, 0
10, 92040, Note_on_c, 7, 67, 46
10, 92069, Note_on_c, 7, 67, 0
10, 92100, Note_on_c, 7, 65, 48
10, 92129, Note_on_c, 7, 65, 0
10, 92160, Note_on_c, 7, 63, 50
10, 92189, Note_on_c, 7, 63, 0
10, 92220, Note_on_c, 7, 65, 53
10, 92249, Note_on_c, 7, 65, 0
10, 92280, Note_on_c, 7, 67, 56
10, 92309, Note_on_c, 7, 67, 0
10, 92340, Note_on_c, 7, 65, 59
10, 92369, Note_on_c, 7, 65, 0
10, 92400, Note_on_c, 7, 63, 62
10, 92429, Note_on_c, 7, 63, 0
10, 92460, Note_on_c, 7, 62, 64
10, 92489, Note_on_c, 7, 62, 0
10, 92520, Note_on_c, 7, 60, 66
10, 92549, Note_on_c, 7, 60, 0
10, 92580, Note_on_c, 7, 62, 69
10, 92609, Note_on_c, 7, 62, 0
10, 92640, Note_on_c, 7, 63, 72
10, 92669, Note_on_c, 7, 63, 0
10, 92700, Note_on_c, 7, 65, 75
10, 92729, Note_on_c, 7, 65, 0
10, 92760, Note_on_c, 7, 63, 78
10, 92789, Note_on_c, 7, 63, 0
10, 92820, Note_on_c, 7, 62, 80
10, 92849, Note_on_c, 7, 62, 0
10, 92880, Note_on_c, 7, 60, 82
10, 92909, Note_on_c, 7, 60, 0
10, 92940, Note_on_c, 7, 58, 85
10, 92969, Note_on_c, 7, 58, 0
10, 93000, Note_on_c, 7, 57, 88
10, 93029, Note_on_c, 7, 57, 0
10, 93060, Note_on_c, 7, 55, 90
10, 93089, Note_on_c, 7, 55, 0
10, 93120, Note_on_c, 7, 53, 92
10, 93149, Note_on_c, 7, 53, 0
10, 93180, Note_on_c, 7, 51, 94
10, 93209, Note_on_c, 7, 51, 0
10, 93240, Note_on_c, 7, 50, 96
10, 93269, Note_on_c, 7, 50, 0
10, 93300, Note_on_c, 7, 50, 96
10, 93329, Note_on_c, 7, 50, 0
10, 93360, Note_on_c, 7, 53, 96
10, 93389, Note_on_c, 7, 53, 0
10, 93420, Note_on_c, 7, 58, 96
10, 93449, Note_on_c, 7, 58, 0
10, 93480, Note_on_c, 7, 62, 96
10, 93509, Note_on_c, 7, 62, 0
10, 93540, Note_on_c, 7, 50, 96
10, 93569, Note_on_c, 7, 50, 0
10, 93660, Note_on_c, 7, 50, 96
10, 93689, Note_on_c, 7, 50, 0
10, 93720, Note_on_c, 7, 53, 112
10, 93749, Note_on_c, 7, 53, 0
10, 93780, Note_on_c, 7, 58, 96
10, 93809, Note_on_c, 7, 58, 0
10, 93840, Note_on_c, 7, 62, 96
10, 93869, Note_on_c, 7, 62, 0
10, 93900, Note_on_c, 7, 50, 96
10, 93929, Note_on_c, 7, 50, 0
10, 94020, Note_on_c, 7, 51, 96
10, 94049, Note_on_c, 7, 51, 0
10, 94080, Note_on_c, 7, 53, 112
10, 94109, Note_on_c, 7, 53, 0
10, 94140, Note_on_c, 7, 57, 96
10, 94169, Note_on_c, 7, 57, 0
10, 94200, Note_on_c, 7, 60, 96
10, 94229, Note_on_c, 7, 60, 0
10, 94260, Note_on_c, 7, 51, 96
10, 94289, Note_on_c, 7, 51, 0
10, 94380, Note_on_c, 7, 50, 96
10, 94409, Note_on_c, 7, 50, 0
10, 94440, Note_on_c, 7, 57, 112
10, 94469, Note_on_c, 7, 57, 0
10, 94500, Note_on_c, 7, 60, 96
10, 94529, Note_on_c, 7, 60, 0
10, 94560, Note_on_c, 7, 63, 96
10, 94589, Note_on_c, 7, 63, 0
10, 94620, Note_on_c, 7, 51, 96
10, 94649, Note_on_c, 7, 51, 0
10, 94680, Note_on_c, 7, 50, 127
10, 94739, Note_on_c, 7, 50, 0
10, 94740, Note_on_c, 7, 50, 127
10, 94769, Note_on_c, 7, 50, 0
10, 94770, Note_on_c, 7, 50, 127
10, 94799, Note_on_c, 7, 50, 0
10, 94800, Note_on_c, 7, 53, 127
10, 94829, Note_on_c, 7, 53, 0
10, 94830, Note_on_c, 7, 53, 127
10, 94859, Note_on_c, 7, 53, 0
10, 94860, Note_on_c, 7, 58, 127
10, 94889, Note_on_c, 7, 58, 0
10, 94890, Note_on_c, 7, 58, 127
10, 94919, Note_on_c, 7, 58, 0
10, 94920, Note_on_c, 7, 62, 127
10, 94949, Note_on_c, 7, 62, 0
10, 94950, Note_on_c, 7, 62, 127
10, 94979, Note_on_c, 7, 62, 0
10, 94980, Note_on_c, 7, 50, 127
10, 95009, Note_on_c, 7, 50, 0
10, 95010, Note_on_c, 7, 50, 127
10, 95039, Note_on_c, 7, 50, 0
10, 95100, Note_on_c, 7, 50, 127
10, 95129, Note_on_c, 7, 50, 0
10, 95130, Note_on_c, 7, 50, 127
10, 95159, Note_on_c, 7, 50, 0
10, 95160, Note_on_c, 7, 53, 127
10, 95189, Note_on_c, 7, 53, 0
10, 95190, Note_on_c, 7, 53, 127
10, 95219, Note_on_c, 7, 53, 0
10, 95220, Note_on_c, 7, 58, 127
10, 95249, Note_on_c, 7, 58, 0
10, 95250, Note_on_c, 7, 58, 127
10, 95279, Note_on_c, 7, 58, 0
10, 95280, Note_on_c, 7, 62, 127
10, 95309, Note_on_c, 7, 62, 0
10, 95310, Note_on_c, 7, 62, 127
10, 95339, Note_on_c, 7, 62, 0
10, 95340, Note_on_c, 7, 50, 127
10, 95369, Note_on_c, 7, 50, 0
10, 95370, Note_on_c, 7, 50, 127
10, 95399, Note_on_c, 7, 50, 0
10, 95460, Note_on_c, 7, 51, 127
10, 95489, Note_on_c, 7, 51, 0
10, 95490, Note_on_c, 7, 51, 127
10, 95519, Note_on_c, 7, 51, 0
10, 95520, Note_on_c, 7, 53, 127
10, 95549, Note_on_c, 7, 53, 0
10, 95550, Note_on_c, 7, 53, 127
10, 95579, Note_on_c, 7, 53, 0
10, 95580, Note_on_c, 7, 60, 127
10, 95609, Note_on_c, 7, 60, 0
10, 95610, Note_on_c, 7, 60, 127
10, 95639, Note_on_c, 7, 60, 0
10, 95640, Note_on_c, 7, 63, 127
10, 95669, Note_on_c, 7, 63, 0
10, 95670, Note_on_c, 7, 63, 127
10, 95699, Note_on_c, 7, 63, 0
10, 95700, Note_on_c, 7, 51, 127
10, 95729, Note_on_c, 7, 51, 0
10, 95730, Note_on_c, 7, 51, 127
10, 95759, Note_on_c, 7, 51, 0
10, 95820, Note_on_c, 7, 51, 127
10, 95849, Note_on_c, 7, 51, 0
10, 95850, Note_on_c, 7, 51, 127
10, 95879, Note_on_c, 7, 51, 0
10, 95880, Note_on_c, 7, 53, 127
10, 95909, Note_on_c, 7, 53, 0
10, 95910, Note_on_c, 7, 53, 127
10, 95939, Note_on_c, 7, 53, 0
10, 95940, Note_on_c, 7, 57, 127
10, 95969, Note_on_c, 7, 57, 0
10, 95970, Note_on_c, 7, 57, 127
10, 95999, Note_on_c, 7, 57, 0
10, 96000, Note_on_c, 7, 60, 127
10, 96029, Note_on_c, 7, 60, 0
10, 96030, Note_on_c, 7, 60, 127
10, 96059, Note_on_c, 7, 60, 0
10, 96060, Note_on_c, 7, 57, 127
10, 96089, Note_on_c, 7, 57, 0
10, 96090, Note_on_c, 7, 57, 127
10, 96119, Note_on_c, 7, 57, 0
10, 96120, Note_on_c, 7, 65, 127
10, 96120, Note_on_c, 7, 58, 127
10, 96239, Note_on_c, 7, 58, 0
10, 96239, Note_on_c, 7, 65, 0
10, 96660, Note_on_c, 7, 51, 127
10, 96689, Note_on_c, 7, 51, 0
10, 96690, Note_on_c, 7, 51, 127
10, 96719, Note_on_c, 7, 51, 0
10, 96720, Note_on_c, 7, 52, 127
10, 96749, Note_on_c, 7, 52, 0
10, 96750, Note_on_c, 7, 52, 127
10, 96779, Note_on_c, 7, 52, 0
10, 96780, Note_on_c, 7, 53, 127
10, 96809, Note_on_c, 7, 53, 0
10, 96810, Note_on_c, 7, 53, 127
10, 96839, Note_on_c, 7, 53, 0
10, 96840, Note_on_c, 7, 55, 127
10, 96869, Note_on_c, 7, 55, 0
10, 96870, Note_on_c, 7, 55, 127
10, 96899, Note_on_c, 7, 55, 0
10, 96900, Note_on_c, 7, 53, 127
10, 96929, Note_on_c, 7, 53, 0
10, 96930, Note_on_c, 7, 53, 127
10, 96959, Note_on_c, 7, 53, 0
10, 96960, Note_on_c, 7, 51, 127
10, 96989, Note_on_c, 7, 51, 0
10, 96990, Note_on_c, 7, 51, 127
10, 97019, Note_on_c, 7, 51, 0
10, 97020, Note_on_c, 7, 55, 127
10, 97049, Note_on_c, 7, 55, 0
10, 97050, Note_on_c, 7, 55, 127
10, 97079, Note_on_c, 7, 55, 0
10, 97080, Note_on_c, 7, 48, 127
10, 97109, Note_on_c, 7, 48, 0
10, 97110, Note_on_c, 7, 48, 127
10, 97139, Note_on_c, 7, 48, 0
10, 97140, Note_on_c, 7, 55, 127
10, 97169, Note_on_c, 7, 55, 0
10, 97170, Note_on_c, 7, 55, 127
10, 97199, Note_on_c, 7, 55, 0
10, 97200, Note_on_c, 7, 54, 127
10, 97229, Note_on_c, 7, 54, 0
10, 97230, Note_on_c, 7, 54, 127
10, 97259, Note_on_c, 7, 54, 0
10, 97260, Note_on_c, 7, 57, 127
10, 97289, Note_on_c, 7, 57, 0
10, 97290, Note_on_c, 7, 57, 127
10, 97319, Note_on_c, 7, 57, 0
10, 97320, Note_on_c, 7, 50, 127
10, 97349, Note_on_c, 7, 50, 0
10, 97350, Note_on_c, 7, 50, 127
10, 97379, Note_on_c, 7, 50, 0
10, 97380, Note_on_c, 7, 56, 127
10, 97409, Note_on_c, 7, 56, 0
10, 97410, Note_on_c, 7, 56, 127
10, 97439, Note_on_c, 7, 56, 0
10, 97440, Note_on_c, 7, 55, 127
10, 97469, Note_on_c, 7, 55, 0
10, 97470, Note_on_c, 7, 55, 127
10, 97499, Note_on_c, 7, 55, 0
10, 97500, Note_on_c, 7, 58, 127
10, 97529, Note_on_c, 7, 58, 0
10, 97530, Note_on_c, 7, 58, 127
10, 97559, Note_on_c, 7, 58, 0
10, 97560, Note_on_c, 7, 51, 127
10, 97589, Note_on_c, 7, 51, 0
10, 97590, Note_on_c, 7, 51, 127
10, 97619, Note_on_c, 7, 51, 0
10, 97620, Note_on_c, 7, 58, 127
10, 97649, Note_on_c, 7, 58, 0
10, 97650, Note_on_c, 7, 58, 127
10, 97679, Note_on_c, 7, 58, 0
10, 97680, Note_on_c, 7, 57, 127
10, 97709, Note_on_c, 7, 57, 0
10, 97710, Note_on_c, 7, 57, 127
10, 97739, Note_on_c, 7, 57, 0
10, 97740, Note_on_c, 7, 60, 127
10, 97769, Note_on_c, 7, 60, 0
10, 97770, Note_on_c, 7, 60, 127
10, 97799, Note_on_c, 7, 60, 0
10, 97800, Note_on_c, 7, 53, 127
10, 97829, Note_on_c, 7, 53, 0
10, 97830, Note_on_c, 7, 53, 127
10, 97859, Note_on_c, 7, 53, 0
10, 97860, Note_on_c, 7, 60, 127
10, 97889, Note_on_c, 7, 60, 0
10, 97890, Note_on_c, 7, 60, 127
10, 97919, Note_on_c, 7, 60, 0
10, 97920, Note_on_c, 7, 58, 127
10, 97949, Note_on_c, 7, 58, 0
10, 97950, Note_on_c, 7, 58, 127
10, 97979, Note_on_c, 7, 58, 0
10, 97980, Note_on_c, 7, 62, 127
10, 98009, Note_on_c, 7, 62, 0
10, 98010, Note_on_c, 7, 62, 127
10, 98039, Note_on_c, 7, 62, 0
10, 98040, Note_on_c, 7, 55, 127
10, 98069, Note_on_c, 7, 55, 0
10, 98070, Note_on_c, 7, 67, 127
10, 98099, Note_on_c, 7, 67, 0
10, 98100, Note_on_c, 7, 67, 127
10, 98129, Note_on_c, 7, 67, 0
10, 98130, Note_on_c, 7, 67, 127
10, 98159, Note_on_c, 7, 67, 0
10, 98160, Note_on_c, 7, 67, 127
10, 98189, Note_on_c, 7, 67, 0
10, 98190, Note_on_c, 7, 67, 127
10, 98219, Note_on_c, 7, 67, 0
10, 98220, Note_on_c, 7, 67, 127
10, 98249, Note_on_c, 7, 67, 0
10, 98250, Note_on_c, 7, 67, 127
10, 98279, Note_on_c, 7, 67, 0
10, 98280, Note_on_c, 7, 66, 127
10, 98339, Note_on_c, 7, 66, 0
10, 98400, Note_on_c, 7, 66, 127
10, 98459, Note_on_c, 7, 66, 0
10, 98520, Note_on_c, 7, 67, 127
10, 98579, Note_on_c, 7, 67, 0
10, 98760, Note_on_c, 7, 62, 127
10, 98819, Note_on_c, 7, 62, 0
10, 98880, Note_on_c, 7, 63, 127
10, 98939, Note_on_c, 7, 63, 0
10, 99120, Note_on_c, 7, 64, 127
10, 99179, Note_on_c, 7, 64, 0
10, 99240, Note_on_c, 7, 65, 127
10, 99299, Note_on_c, 7, 65, 0
10, 99480, Note_on_c, 7, 66, 127
10, 99539, Note_on_c, 7, 66, 0
10, 99600, Note_on_c, 7, 67, 127
10, 99659, Note_on_c, 7, 67, 0
10, 99840, Note_on_c, 7, 62, 127
10, 99899, Note_on_c, 7, 62, 0
10, 99960, Note_on_c, 7, 63, 127
10, 100019, Note_on_c, 7, 63, 0
10, 100200, Note_on_c, 7, 64, 127
10, 100259, Note_on_c, 7, 64, 0
10, 100440, Note_on_c, 7, 64, 127
10, 100499, Note_on_c, 7, 64, 0
10, 100680, Note_on_c, 7, 64, 127
10, 100739, Note_on_c, 7, 64, 0
10, 100920, Note_on_c, 7, 64, 127
10, 100979, Note_on_c, 7, 64, 0
10, 101160, Note_on_c, 7, 64, 127
10, 101219, Note_on_c, 7, 64, 0
10, 101400, Note_on_c, 7, 64, 127
10, 101459, Note_on_c, 7, 64, 0
10, 101520, Note_on_c, 7, 53, 48
10, 101640, Note_on_c, 7, 58, 48
10, 101649, Note_on_c, 7, 53, 0
10, 101760, Note_on_c, 7, 62, 48
10, 101769, Note_on_c, 7, 58, 0
10, 101879, Note_on_c, 7, 62, 0
10, 101880, Note_on_c, 7, 54, 96
10, 101909, Note_on_c, 7, 54, 0
10, 101910, Note_on_c, 7, 54, 48
10, 102239, Note_on_c, 7, 54, 0
10, 102240, Note_on_c, 7, 53, 48
10, 102360, Note_on_c, 7, 58, 48
10, 102369, Note_on_c, 7, 53, 0
10, 102480, Note_on_c, 7, 62, 48
10, 102489, Note_on_c, 7, 58, 0
10, 102599, Note_on_c, 7, 62, 0
10, 102600, Note_on_c, 7, 55, 96
10, 102629, Note_on_c, 7, 55, 0
10, 102630, Note_on_c, 7, 55, 48
10, 103079, Note_on_c, 7, 55, 0
10, 103140, Note_on_c, 7, 58, 48
10, 103169, Note_on_c, 7, 58, 0
10, 103200, Note_on_c, 7, 55, 48
10, 103229, Note_on_c, 7, 55, 0
10, 103260, Note_on_c, 7, 51, 48
10, 103289, Note_on_c, 7, 51, 0
10, 103320, Note_on_c, 7, 60, 48
10, 103439, Note_on_c, 7, 60, 0
10, 103500, Note_on_c, 7, 60, 48
10, 103529, Note_on_c, 7, 60, 0
10, 103560, Note_on_c, 7, 56, 48
10, 103589, Note_on_c, 7, 56, 0
10, 103620, Note_on_c, 7, 51, 48
10, 103649, Note_on_c, 7, 51, 0
10, 103680, Note_on_c, 7, 60, 48
10, 103799, Note_on_c, 7, 60, 0
10, 103860, Note_on_c, 7, 60, 48
10, 103889, Note_on_c, 7, 60, 0
10, 103920, Note_on_c, 7, 57, 48
10, 103949, Note_on_c, 7, 57, 0
10, 103980, Note_on_c, 7, 53, 48
10, 104009, Note_on_c, 7, 53, 0
10, 104040, Note_on_c, 7, 62, 48
10, 104159, Note_on_c, 7, 62, 0
10, 104220, Note_on_c, 7, 58, 48
10, 104249, Note_on_c, 7, 58, 0
10, 104280, Note_on_c, 7, 65, 48
10, 104309, Note_on_c, 7, 65, 0
10, 104340, Note_on_c, 7, 62, 48
10, 104369, Note_on_c, 7, 62, 0
10, 104400, Note_on_c, 7, 63, 48
10, 104459, Note_on_c, 7, 63, 0
10, 104460, Note_on_c, 7, 51, 52
10, 104519, Note_on_c, 7, 51, 0
10, 104520, Note_on_c, 7, 63, 57
10, 104579, Note_on_c, 7, 63, 0
10, 104580, Note_on_c, 7, 63, 61
10, 104639, Note_on_c, 7, 63, 0
10, 104640, Note_on_c, 7, 63, 66
10, 104699, Note_on_c, 7, 63, 0
10, 104700, Note_on_c, 7, 63, 70
10, 104759, Note_on_c, 7, 63, 0
10, 104760, Note_on_c, 7, 55, 75
10, 104819, Note_on_c, 7, 55, 0
10, 104820, Note_on_c, 7, 55, 79
10, 104879, Note_on_c, 7, 55, 0
10, 104880, Note_on_c, 7, 55, 84
10, 104939, Note_on_c, 7, 55, 0
10, 104940, Note_on_c, 7, 55, 88
10, 105000, Note_on_c, 7, 59, 93
10, 105009, Note_on_c, 7, 55, 0
10, 105060, Note_on_c, 7, 60, 97
10, 105069, Note_on_c, 7, 59, 0
10, 105119, Note_on_c, 7, 60, 0
10, 105120, Note_on_c, 7, 65, 99
10, 105149, Note_on_c, 7, 65, 0
10, 105150, Note_on_c, 7, 65, 100
10, 105179, Note_on_c, 7, 65, 0
10, 105180, Note_on_c, 7, 65, 102
10, 105209, Note_on_c, 7, 65, 0
10, 105210, Note_on_c, 7, 65, 104
10, 105239, Note_on_c, 7, 65, 0
10, 105240, Note_on_c, 7, 65, 106
10, 105269, Note_on_c, 7, 65, 0
10, 105270, Note_on_c, 7, 65, 107
10, 105299, Note_on_c, 7, 65, 0
10, 105300, Note_on_c, 7, 65, 109
10, 105329, Note_on_c, 7, 65, 0
10, 105330, Note_on_c, 7, 65, 111
10, 105359, Note_on_c, 7, 65, 0
10, 105360, Note_on_c, 7, 62, 113
10, 105389, Note_on_c, 7, 62, 0
10, 105390, Note_on_c, 7, 62, 114
10, 105419, Note_on_c, 7, 62, 0
10, 105420, Note_on_c, 7, 58, 116
10, 105449, Note_on_c, 7, 58, 0
10, 105450, Note_on_c, 7, 58, 118
10, 105479, Note_on_c, 7, 58, 0
10, 105480, Note_on_c, 7, 57, 127
10, 105509, Note_on_c, 7, 57, 0
10, 105510, Note_on_c, 7, 69, 127
10, 105539, Note_on_c, 7, 69, 0
10, 105540, Note_on_c, 7, 69, 127
10, 105569, Note_on_c, 7, 69, 0
10, 105570, Note_on_c, 7, 69, 127
10, 105599, Note_on_c, 7, 69, 0
10, 105600, Note_on_c, 7, 69, 127
10, 105629, Note_on_c, 7, 69, 0
10, 105630, Note_on_c, 7, 69, 127
10, 105659, Note_on_c, 7, 69, 0
10, 105660, Note_on_c, 7, 69, 127
10, 105689, Note_on_c, 7, 69, 0
10, 105690, Note_on_c, 7, 69, 127
10, 105719, Note_on_c, 7, 69, 0
10, 105720, Note_on_c, 7, 69, 127
10, 105749, Note_on_c, 7, 69, 0
10, 105750, Note_on_c, 7, 69, 127
10, 105779, Note_on_c, 7, 69, 0
10, 105780, Note_on_c, 7, 69, 127
10, 105809, Note_on_c, 7, 69, 0
10, 105810, Note_on_c, 7, 69, 127
10, 105839, Note_on_c, 7, 69, 0
10, 105840, Note_on_c, 7, 70, 96
10, 105899, Note_on_c, 7, 70, 0
10, 105960, Note_on_c, 7, 53, 96
10, 106019, Note_on_c, 7, 53, 0
10, 106080, Note_on_c, 7, 50, 96
10, 106139, Note_on_c, 7, 50, 0
10, 106320, Note_on_c, 7, 55, 112
10, 106379, Note_on_c, 7, 55, 0
10, 106440, Note_on_c, 7, 51, 96
10, 106499, Note_on_c, 7, 51, 0
10, 106680, Note_on_c, 7, 53, 112
10, 106739, Note_on_c, 7, 53, 0
10, 106800, Note_on_c, 7, 50, 96
10, 106859, Note_on_c, 7, 50, 0
10, 106920, Note_on_c, 7, 63, 96
10, 106920, Note_on_c, 7, 60, 96
10, 106979, Note_on_c, 7, 60, 0
10, 106979, Note_on_c, 7, 63, 0
10, 107040, Note_on_c, 7, 60, 96
10, 107040, Note_on_c, 7, 63, 96
10, 107099, Note_on_c, 7, 63, 0
10, 107099, Note_on_c, 7, 60, 0
10, 107160, Note_on_c, 7, 63, 96
10, 107160, Note_on_c, 7, 60, 96
10, 107219, Note_on_c, 7, 60, 0
10, 107219, Note_on_c, 7, 63, 0
10, 107280, Note_on_c, 7, 60, 96
10, 107280, Note_on_c, 7, 63, 96
10, 107309, Note_on_c, 7, 63, 0
10, 107309, Note_on_c, 7, 60, 0
10, 107310, Note_on_c, 7, 63, 48
10, 107310, Note_on_c, 7, 60, 48
10, 107339, Note_on_c, 7, 60, 0
10, 107339, Note_on_c, 7, 63, 0
10, 107880, Note_on_c, 7, 50, 48
10, 107940, Note_on_c, 7, 53, 48
10, 107949, Note_on_c, 7, 50, 0
10, 107999, Note_on_c, 7, 53, 0
10, 108000, Note_on_c, 7, 56, 48
10, 108240, Note_on_c, 7, 60, 44
10, 108249, Note_on_c, 7, 56, 0
10, 108360, Note_on_c, 7, 56, 40
10, 108369, Note_on_c, 7, 60, 0
10, 108600, Note_on_c, 7, 53, 36
10, 108609, Note_on_c, 7, 56, 0
10, 108719, Note_on_c, 7, 53, 0
10, 108720, Note_on_c, 7, 50, 32
10, 108960, Note_on_c, 7, 59, 32
10, 108969, Note_on_c, 7, 50, 0
10, 109080, Note_on_c, 7, 57, 32
10, 109089, Note_on_c, 7, 59, 0
10, 109320, Note_on_c, 7, 58, 32
10, 109329, Note_on_c, 7, 57, 0
10, 109439, Note_on_c, 7, 58, 0
10, 109440, Note_on_c, 7, 56, 32
10, 110159, Note_on_c, 7, 56, 0
10, 110160, Note_on_c, 7, 55, 32
10, 110879, Note_on_c, 7, 55, 0
10, 110880, Note_on_c, 7, 56, 32
10, 111599, Note_on_c, 7, 56, 0
10, 111600, Note_on_c, 7, 55, 32
10, 111719, Note_on_c, 7, 55, 0
10, 111840, Note_on_c, 7, 71, 32
10, 112199, Note_on_c, 7, 71, 0
10, 112200, Note_on_c, 7, 65, 32
10, 112559, Note_on_c, 7, 65, 0
10, 112560, Note_on_c, 7, 62, 32
10, 112919, Note_on_c, 7, 62, 0
10, 112920, Note_on_c, 7, 59, 32
10, 113160, Note_on_c, 7, 55, 50
10, 113169, Note_on_c, 7, 59, 0
10, 113280, Note_on_c, 7, 56, 70
10, 113289, Note_on_c, 7, 55, 0
10, 113399, Note_on_c, 7, 56, 0
10, 113400, Note_on_c, 7, 57, 96
10, 113759, Note_on_c, 7, 57, 0
10, 113760, Note_on_c, 7, 59, 48
10, 113820, Note_on_c, 7, 55, 48
10, 113829, Note_on_c, 7, 59, 0
10, 113880, Note_on_c, 7, 59, 48
10, 113889, Note_on_c, 7, 55, 0
10, 113940, Note_on_c, 7, 55, 48
10, 113949, Note_on_c, 7, 59, 0
10, 114000, Note_on_c, 7, 59, 48
10, 114009, Note_on_c, 7, 55, 0
10, 114060, Note_on_c, 7, 55, 48
10, 114069, Note_on_c, 7, 59, 0
10, 114119, Note_on_c, 7, 55, 0
10, 114120, Note_on_c, 7, 59, 48
10, 114180, Note_on_c, 7, 55, 48
10, 114189, Note_on_c, 7, 59, 0
10, 114240, Note_on_c, 7, 59, 48
10, 114249, Note_on_c, 7, 55, 0
10, 114300, Note_on_c, 7, 55, 48
10, 114309, Note_on_c, 7, 59, 0
10, 114360, Note_on_c, 7, 59, 48
10, 114369, Note_on_c, 7, 55, 0
10, 114420, Note_on_c, 7, 55, 48
10, 114429, Note_on_c, 7, 59, 0
10, 114479, Note_on_c, 7, 55, 0
10, 114480, Note_on_c, 7, 62, 48
10, 114540, Note_on_c, 7, 55, 48
10, 114549, Note_on_c, 7, 62, 0
10, 114600, Note_on_c, 7, 62, 48
10, 114609, Note_on_c, 7, 55, 0
10, 114660, Note_on_c, 7, 55, 48
10, 114669, Note_on_c, 7, 62, 0
10, 114720, Note_on_c, 7, 62, 48
10, 114729, Note_on_c, 7, 55, 0
10, 114780, Note_on_c, 7, 55, 48
10, 114789, Note_on_c, 7, 62, 0
10, 114839, Note_on_c, 7, 55, 0
10, 114840, Note_on_c, 7, 62, 48
10, 114900, Note_on_c, 7, 55, 48
10, 114909, Note_on_c, 7, 62, 0
10, 114960, Note_on_c, 7, 59, 48
10, 114969, Note_on_c, 7, 55, 0
10, 115020, Note_on_c, 7, 55, 48
10, 115029, Note_on_c, 7, 59, 0
10, 115080, Note_on_c, 7, 59, 48
10, 115089, Note_on_c, 7, 55, 0
10, 115140, Note_on_c, 7, 55, 48
10, 115149, Note_on_c, 7, 59, 0
10, 115199, Note_on_c, 7, 55, 0
10, 115200, Note_on_c, 7, 60, 48
10, 115260, Note_on_c, 7, 55, 48
10, 115269, Note_on_c, 7, 60, 0
10, 115320, Note_on_c, 7, 60, 48
10, 115329, Note_on_c, 7, 55, 0
10, 115380, Note_on_c, 7, 55, 48
10, 115389, Note_on_c, 7, 60, 0
10, 115440, Note_on_c, 7, 60, 48
10, 115449, Note_on_c, 7, 55, 0
10, 115500, Note_on_c, 7, 55, 48
10, 115509, Note_on_c, 7, 60, 0
10, 115559, Note_on_c, 7, 55, 0
10, 115560, Note_on_c, 7, 60, 48
10, 115620, Note_on_c, 7, 55, 48
10, 115629, Note_on_c, 7, 60, 0
10, 115680, Note_on_c, 7, 60, 48
10, 115689, Note_on_c, 7, 55, 0
10, 115740, Note_on_c, 7, 55, 48
10, 115749, Note_on_c, 7, 60, 0
10, 115800, Note_on_c, 7, 60, 48
10, 115809, Note_on_c, 7, 55, 0
10, 115860, Note_on_c, 7, 55, 48
10, 115869, Note_on_c, 7, 60, 0
10, 115919, Note_on_c, 7, 55, 0
10, 115920, Note_on_c, 7, 60, 48
10, 115980, Note_on_c, 7, 55, 48
10, 115989, Note_on_c, 7, 60, 0
10, 116040, Note_on_c, 7, 60, 48
10, 116049, Note_on_c, 7, 55, 0
10, 116100, Note_on_c, 7, 55, 48
10, 116109, Note_on_c, 7, 60, 0
10, 116160, Note_on_c, 7, 60, 48
10, 116169, Note_on_c, 7, 55, 0
10, 116220, Note_on_c, 7, 55, 48
10, 116229, Note_on_c, 7, 60, 0
10, 116279, Note_on_c, 7, 55, 0
10, 116280, Note_on_c, 7, 60, 48
10, 116340, Note_on_c, 7, 55, 48
10, 116349, Note_on_c, 7, 60, 0
10, 116400, Note_on_c, 7, 60, 48
10, 116409, Note_on_c, 7, 55, 0
10, 116460, Note_on_c, 7, 55, 48
10, 116469, Note_on_c, 7, 60, 0
10, 116520, Note_on_c, 7, 60, 48
10, 116529, Note_on_c, 7, 55, 0
10, 116580, Note_on_c, 7, 55, 48
10, 116589, Note_on_c, 7, 60, 0
10, 116639, Note_on_c, 7, 55, 0
10, 116640, Note_on_c, 7, 59, 48
10, 116700, Note_on_c, 7, 55, 48
10, 116709, Note_on_c, 7, 59, 0
10, 116760, Note_on_c, 7, 59, 48
10, 116769, Note_on_c, 7, 55, 0
10, 116820, Note_on_c, 7, 55, 48
10, 116829, Note_on_c, 7, 59, 0
10, 116880, Note_on_c, 7, 59, 48
10, 116889, Note_on_c, 7, 55, 0
10, 116940, Note_on_c, 7, 55, 48
10, 116949, Note_on_c, 7, 59, 0
10, 116999, Note_on_c, 7, 55, 0
10, 117000, Note_on_c, 7, 59, 48
10, 117060, Note_on_c, 7, 55, 48
10, 117069, Note_on_c, 7, 59, 0
10, 117120, Note_on_c, 7, 62, 48
10, 117129, Note_on_c, 7, 55, 0
10, 117180, Note_on_c, 7, 55, 48
10, 117189, Note_on_c, 7, 62, 0
10, 117240, Note_on_c, 7, 62, 48
10, 117249, Note_on_c, 7, 55, 0
10, 117300, Note_on_c, 7, 55, 48
10, 117309, Note_on_c, 7, 62, 0
10, 117359, Note_on_c, 7, 55, 0
10, 117360, Note_on_c, 7, 62, 48
10, 117420, Note_on_c, 7, 55, 48
10, 117429, Note_on_c, 7, 62, 0
10, 117480, Note_on_c, 7, 59, 48
10, 117489, Note_on_c, 7, 55, 0
10, 117540, Note_on_c, 7, 55, 48
10, 117549, Note_on_c, 7, 59, 0
10, 117600, Note_on_c, 7, 59, 48
10, 117609, Note_on_c, 7, 55, 0
10, 117660, Note_on_c, 7, 55, 48
10, 117669, Note_on_c, 7, 59, 0
10, 117719, Note_on_c, 7, 55, 0
10, 117720, Note_on_c, 7, 59, 48
10, 117780, Note_on_c, 7, 55, 48
10, 117789, Note_on_c, 7, 59, 0
10, 117840, Note_on_c, 7, 62, 48
10, 117849, Note_on_c, 7, 55, 0
10, 117900, Note_on_c, 7, 55, 48
10, 117909, Note_on_c, 7, 62, 0
10, 117960, Note_on_c, 7, 62, 48
10, 117969, Note_on_c, 7, 55, 0
10, 118020, Note_on_c, 7, 55, 48
10, 118029, Note_on_c, 7, 62, 0
10, 118079, Note_on_c, 7, 55, 0
10, 118080, Note_on_c, 7, 60, 32
10, 118109, Note_on_c, 7, 60, 0
10, 118110, Note_on_c, 7, 63, 32
10, 118110, Note_on_c, 7, 60, 32
10, 118139, Note_on_c, 7, 60, 0
10, 118139, Note_on_c, 7, 63, 0
10, 118140, Note_on_c, 7, 63, 32
10, 118140, Note_on_c, 7, 60, 32
10, 118169, Note_on_c, 7, 60, 0
10, 118169, Note_on_c, 7, 63, 0
10, 118170, Note_on_c, 7, 63, 32
10, 118170, Note_on_c, 7, 60, 32
10, 118199, Note_on_c, 7, 60, 0
10, 118199, Note_on_c, 7, 63, 0
10, 118200, Note_on_c, 7, 63, 32
10, 118200, Note_on_c, 7, 60, 32
10, 118229, Note_on_c, 7, 60, 0
10, 118229, Note_on_c, 7, 63, 0
10, 118230, Note_on_c, 7, 63, 32
10, 118230, Note_on_c, 7, 60, 32
10, 118259, Note_on_c, 7, 60, 0
10, 118259, Note_on_c, 7, 63, 0
10, 118260, Note_on_c, 7, 63, 32
10, 118260, Note_on_c, 7, 60, 32
10, 118289, Note_on_c, 7, 60, 0
10, 118289, Note_on_c, 7, 63, 0
10, 118290, Note_on_c, 7, 63, 32
10, 118290, Note_on_c, 7, 60, 32
10, 118319, Note_on_c, 7, 60, 0
10, 118319, Note_on_c, 7, 63, 0
10, 118320, Note_on_c, 7, 63, 32
10, 118320, Note_on_c, 7, 60, 32
10, 118349, Note_on_c, 7, 60, 0
10, 118349, Note_on_c, 7, 63, 0
10, 118350, Note_on_c, 7, 63, 32
10, 118350, Note_on_c, 7, 60, 32
10, 118379, Note_on_c, 7, 60, 0
10, 118379, Note_on_c, 7, 63, 0
10, 118380, Note_on_c, 7, 63, 32
10, 118380, Note_on_c, 7, 60, 32
10, 118409, Note_on_c, 7, 60, 0
10, 118409, Note_on_c, 7, 63, 0
10, 118410, Note_on_c, 7, 63, 32
10, 118410, Note_on_c, 7, 60, 32
10, 118439, Note_on_c, 7, 60, 0
10, 118439, Note_on_c, 7, 63, 0
10, 118440, Note_on_c, 7, 63, 32
10, 118440, Note_on_c, 7, 60, 32
10, 118469, Note_on_c, 7, 60, 0
10, 118469, Note_on_c, 7, 63, 0
10, 118470, Note_on_c, 7, 63, 32
10, 118470, Note_on_c, 7, 60, 32
10, 118499, Note_on_c, 7, 60, 0
10, 118499, Note_on_c, 7, 63, 0
10, 118500, Note_on_c, 7, 63, 32
10, 118500, Note_on_c, 7, 60, 32
10, 118529, Note_on_c, 7, 60, 0
10, 118529, Note_on_c, 7, 63, 0
10, 118530, Note_on_c, 7, 63, 32
10, 118530, Note_on_c, 7, 60, 32
10, 118559, Note_on_c, 7, 60, 0
10, 118559, Note_on_c, 7, 63, 0
10, 118560, Note_on_c, 7, 63, 32
10, 118560, Note_on_c, 7, 60, 32
10, 118589, Note_on_c, 7, 60, 0
10, 118589, Note_on_c, 7, 63, 0
10, 118590, Note_on_c, 7, 63, 32
10, 118590, Note_on_c, 7, 60, 32
10, 118619, Note_on_c, 7, 60, 0
10, 118619, Note_on_c, 7, 63, 0
10, 118620, Note_on_c, 7, 63, 32
10, 118620, Note_on_c, 7, 60, 32
10, 118649, Note_on_c, 7, 60, 0
10, 118649, Note_on_c, 7, 63, 0
10, 118650, Note_on_c, 7, 63, 32
10, 118650, Note_on_c, 7, 60, 32
10, 118679, Note_on_c, 7, 60, 0
10, 118679, Note_on_c, 7, 63, 0
10, 118680, Note_on_c, 7, 63, 32
10, 118680, Note_on_c, 7, 60, 32
10, 118709, Note_on_c, 7, 60, 0
10, 118709, Note_on_c, 7, 63, 0
10, 118710, Note_on_c, 7, 63, 32
10, 118710, Note_on_c, 7, 60, 32
10, 118739, Note_on_c, 7, 60, 0
10, 118739, Note_on_c, 7, 63, 0
10, 118740, Note_on_c, 7, 63, 32
10, 118740, Note_on_c, 7, 60, 32
10, 118769, Note_on_c, 7, 60, 0
10, 118769, Note_on_c, 7, 63, 0
10, 118770, Note_on_c, 7, 63, 32
10, 118770, Note_on_c, 7, 60, 32
10, 118799, Note_on_c, 7, 60, 0
10, 118799, Note_on_c, 7, 63, 0
10, 118800, Note_on_c, 7, 63, 32
10, 118800, Note_on_c, 7, 60, 32
10, 118829, Note_on_c, 7, 60, 0
10, 118829, Note_on_c, 7, 63, 0
10, 118830, Note_on_c, 7, 63, 32
10, 118830, Note_on_c, 7, 60, 32
10, 118859, Note_on_c, 7, 60, 0
10, 118859, Note_on_c, 7, 63, 0
10, 118860, Note_on_c, 7, 63, 32
10, 118860, Note_on_c, 7, 60, 32
10, 118889, Note_on_c, 7, 60, 0
10, 118889, Note_on_c, 7, 63, 0
10, 118890, Note_on_c, 7, 63, 32
10, 118890, Note_on_c, 7, 60, 32
10, 118919, Note_on_c, 7, 60, 0
10, 118919, Note_on_c, 7, 63, 0
10, 118920, Note_on_c, 7, 63, 32
10, 118920, Note_on_c, 7, 60, 32
10, 118949, Note_on_c, 7, 60, 0
10, 118949, Note_on_c, 7, 63, 0
10, 118950, Note_on_c, 7, 63, 32
10, 118950, Note_on_c, 7, 60, 32
10, 118979, Note_on_c, 7, 60, 0
10, 118979, Note_on_c, 7, 63, 0
10, 118980, Note_on_c, 7, 63, 32
10, 118980, Note_on_c, 7, 60, 32
10, 119009, Note_on_c, 7, 60, 0
10, 119009, Note_on_c, 7, 63, 0
10, 119010, Note_on_c, 7, 63, 32
10, 119010, Note_on_c, 7, 60, 32
10, 119039, Note_on_c, 7, 60, 0
10, 119039, Note_on_c, 7, 63, 0
10, 119040, Note_on_c, 7, 63, 32
10, 119040, Note_on_c, 7, 60, 32
10, 119069, Note_on_c, 7, 60, 0
10, 119069, Note_on_c, 7, 63, 0
10, 119070, Note_on_c, 7, 63, 32
10, 119070, Note_on_c, 7, 60, 32
10, 119099, Note_on_c, 7, 60, 0
10, 119099, Note_on_c, 7, 63, 0
10, 119100, Note_on_c, 7, 63, 32
10, 119100, Note_on_c, 7, 60, 32
10, 119129, Note_on_c, 7, 60, 0
10, 119129, Note_on_c, 7, 63, 0
10, 119130, Note_on_c, 7, 63, 32
10, 119130, Note_on_c, 7, 60, 32
10, 119159, Note_on_c, 7, 60, 0
10, 119159, Note_on_c, 7, 63, 0
10, 119160, Note_on_c, 7, 63, 34
10, 119160, Note_on_c, 7, 60, 34
10, 119189, Note_on_c, 7, 60, 0
10, 119189, Note_on_c, 7, 63, 0
10, 119190, Note_on_c, 7, 63, 35
10, 119190, Note_on_c, 7, 60, 35
10, 119219, Note_on_c, 7, 60, 0
10, 119219, Note_on_c, 7, 63, 0
10, 119220, Note_on_c, 7, 63, 36
10, 119220, Note_on_c, 7, 60, 36
10, 119249, Note_on_c, 7, 60, 0
10, 119249, Note_on_c, 7, 63, 0
10, 119250, Note_on_c, 7, 63, 37
10, 119250, Note_on_c, 7, 60, 37
10, 119279, Note_on_c, 7, 60, 0
10, 119279, Note_on_c, 7, 63, 0
10, 119280, Note_on_c, 7, 63, 39
10, 119280, Note_on_c, 7, 60, 39
10, 119309, Note_on_c, 7, 60, 0
10, 119309, Note_on_c, 7, 63, 0
10, 119310, Note_on_c, 7, 63, 40
10, 119310, Note_on_c, 7, 60, 40
10, 119339, Note_on_c, 7, 60, 0
10, 119339, Note_on_c, 7, 63, 0
10, 119340, Note_on_c, 7, 63, 41
10, 119340, Note_on_c, 7, 60, 41
10, 119369, Note_on_c, 7, 60, 0
10, 119369, Note_on_c, 7, 63, 0
10, 119370, Note_on_c, 7, 63, 42
10, 119370, Note_on_c, 7, 60, 42
10, 119399, Note_on_c, 7, 60, 0
10, 119399, Note_on_c, 7, 63, 0
10, 119400, Note_on_c, 7, 63, 44
10, 119400, Note_on_c, 7, 60, 44
10, 119429, Note_on_c, 7, 60, 0
10, 119429, Note_on_c, 7, 63, 0
10, 119430, Note_on_c, 7, 63, 45
10, 119430, Note_on_c, 7, 60, 45
10, 119459, Note_on_c, 7, 60, 0
10, 119459, Note_on_c, 7, 63, 0
10, 119460, Note_on_c, 7, 63, 46
10, 119460, Note_on_c, 7, 60, 45
10, 119489, Note_on_c, 7, 60, 0
10, 119489, Note_on_c, 7, 63, 0
10, 119490, Note_on_c, 7, 63, 47
10, 119490, Note_on_c, 7, 60, 47
10, 119519, Note_on_c, 7, 60, 0
10, 119519, Note_on_c, 7, 63, 0
10, 119520, Note_on_c, 7, 64, 48
10, 119520, Note_on_c, 7, 61, 48
10, 119549, Note_on_c, 7, 61, 0
10, 119549, Note_on_c, 7, 64, 0
10, 119550, Note_on_c, 7, 64, 48
10, 119550, Note_on_c, 7, 61, 48
10, 119579, Note_on_c, 7, 61, 0
10, 119579, Note_on_c, 7, 64, 0
10, 119580, Note_on_c, 7, 64, 48
10, 119580, Note_on_c, 7, 61, 48
10, 119609, Note_on_c, 7, 61, 0
10, 119609, Note_on_c, 7, 64, 0
10, 119610, Note_on_c, 7, 64, 48
10, 119610, Note_on_c, 7, 61, 48
10, 119639, Note_on_c, 7, 61, 0
10, 119639, Note_on_c, 7, 64, 0
10, 119640, Note_on_c, 7, 64, 48
10, 119640, Note_on_c, 7, 61, 48
10, 119669, Note_on_c, 7, 61, 0
10, 119669, Note_on_c, 7, 64, 0
10, 119670, Note_on_c, 7, 64, 48
10, 119670, Note_on_c, 7, 61, 48
10, 119699, Note_on_c, 7, 61, 0
10, 119699, Note_on_c, 7, 64, 0
10, 119700, Note_on_c, 7, 64, 48
10, 119700, Note_on_c, 7, 61, 48
10, 119729, Note_on_c, 7, 61, 0
10, 119729, Note_on_c, 7, 64, 0
10, 119730, Note_on_c, 7, 64, 48
10, 119730, Note_on_c, 7, 61, 48
10, 119759, Note_on_c, 7, 61, 0
10, 119759, Note_on_c, 7, 64, 0
10, 119760, Note_on_c, 7, 64, 48
10, 119760, Note_on_c, 7, 61, 48
10, 119789, Note_on_c, 7, 61, 0
10, 119789, Note_on_c, 7, 64, 0
10, 119790, Note_on_c, 7, 64, 48
10, 119790, Note_on_c, 7, 61, 48
10, 119819, Note_on_c, 7, 61, 0
10, 119819, Note_on_c, 7, 64, 0
10, 119820, Note_on_c, 7, 64, 48
10, 119820, Note_on_c, 7, 61, 48
10, 119849, Note_on_c, 7, 61, 0
10, 119849, Note_on_c, 7, 64, 0
10, 119850, Note_on_c, 7, 64, 48
10, 119850, Note_on_c, 7, 61, 48
10, 119879, Note_on_c, 7, 61, 0
10, 119879, Note_on_c, 7, 64, 0
10, 119880, Note_on_c, 7, 64, 48
10, 119880, Note_on_c, 7, 61, 48
10, 119909, Note_on_c, 7, 61, 0
10, 119909, Note_on_c, 7, 64, 0
10, 119910, Note_on_c, 7, 64, 48
10, 119910, Note_on_c, 7, 61, 48
10, 119939, Note_on_c, 7, 61, 0
10, 119939, Note_on_c, 7, 64, 0
10, 119940, Note_on_c, 7, 64, 48
10, 119940, Note_on_c, 7, 61, 48
10, 119969, Note_on_c, 7, 61, 0
10, 119969, Note_on_c, 7, 64, 0
10, 119970, Note_on_c, 7, 64, 48
10, 119970, Note_on_c, 7, 61, 48
10, 119999, Note_on_c, 7, 61, 0
10, 119999, Note_on_c, 7, 64, 0
10, 120000, Note_on_c, 7, 64, 48
10, 120000, Note_on_c, 7, 61, 48
10, 120029, Note_on_c, 7, 61, 0
10, 120029, Note_on_c, 7, 64, 0
10, 120030, Note_on_c, 7, 64, 48
10, 120030, Note_on_c, 7, 61, 48
10, 120059, Note_on_c, 7, 61, 0
10, 120059, Note_on_c, 7, 64, 0
10, 120060, Note_on_c, 7, 64, 48
10, 120060, Note_on_c, 7, 61, 48
10, 120089, Note_on_c, 7, 61, 0
10, 120089, Note_on_c, 7, 64, 0
10, 120090, Note_on_c, 7, 64, 48
10, 120090, Note_on_c, 7, 61, 48
10, 120119, Note_on_c, 7, 61, 0
10, 120119, Note_on_c, 7, 64, 0
10, 120120, Note_on_c, 7, 64, 48
10, 120120, Note_on_c, 7, 61, 48
10, 120149, Note_on_c, 7, 61, 0
10, 120149, Note_on_c, 7, 64, 0
10, 120150, Note_on_c, 7, 64, 48
10, 120150, Note_on_c, 7, 61, 48
10, 120179, Note_on_c, 7, 61, 0
10, 120179, Note_on_c, 7, 64, 0
10, 120180, Note_on_c, 7, 64, 48
10, 120180, Note_on_c, 7, 61, 48
10, 120209, Note_on_c, 7, 61, 0
10, 120209, Note_on_c, 7, 64, 0
10, 120210, Note_on_c, 7, 64, 48
10, 120210, Note_on_c, 7, 61, 48
10, 120239, Note_on_c, 7, 61, 0
10, 120239, Note_on_c, 7, 64, 0
10, 120240, Note_on_c, 7, 64, 48
10, 120240, Note_on_c, 7, 61, 48
10, 120269, Note_on_c, 7, 61, 0
10, 120269, Note_on_c, 7, 64, 0
10, 120270, Note_on_c, 7, 64, 48
10, 120270, Note_on_c, 7, 61, 48
10, 120299, Note_on_c, 7, 61, 0
10, 120299, Note_on_c, 7, 64, 0
10, 120300, Note_on_c, 7, 64, 48
10, 120300, Note_on_c, 7, 61, 48
10, 120329, Note_on_c, 7, 61, 0
10, 120329, Note_on_c, 7, 64, 0
10, 120330, Note_on_c, 7, 64, 48
10, 120330, Note_on_c, 7, 61, 48
10, 120359, Note_on_c, 7, 61, 0
10, 120359, Note_on_c, 7, 64, 0
10, 120360, Note_on_c, 7, 64, 48
10, 120360, Note_on_c, 7, 61, 48
10, 120389, Note_on_c, 7, 61, 0
10, 120389, Note_on_c, 7, 64, 0
10, 120390, Note_on_c, 7, 64, 48
10, 120390, Note_on_c, 7, 61, 48
10, 120419, Note_on_c, 7, 61, 0
10, 120419, Note_on_c, 7, 64, 0
10, 120420, Note_on_c, 7, 64, 48
10, 120420, Note_on_c, 7, 61, 48
10, 120449, Note_on_c, 7, 61, 0
10, 120449, Note_on_c, 7, 64, 0
10, 120450, Note_on_c, 7, 64, 48
10, 120450, Note_on_c, 7, 61, 48
10, 120479, Note_on_c, 7, 61, 0
10, 120479, Note_on_c, 7, 64, 0
10, 120480, Note_on_c, 7, 64, 48
10, 120480, Note_on_c, 7, 61, 48
10, 120509, Note_on_c, 7, 61, 0
10, 120509, Note_on_c, 7, 64, 0
10, 120510, Note_on_c, 7, 64, 48
10, 120510, Note_on_c, 7, 61, 48
10, 120539, Note_on_c, 7, 61, 0
10, 120539, Note_on_c, 7, 64, 0
10, 120540, Note_on_c, 7, 64, 48
10, 120540, Note_on_c, 7, 61, 48
10, 120569, Note_on_c, 7, 61, 0
10, 120569, Note_on_c, 7, 64, 0
10, 120570, Note_on_c, 7, 64, 48
10, 120570, Note_on_c, 7, 61, 48
10, 120599, Note_on_c, 7, 61, 0
10, 120599, Note_on_c, 7, 64, 0
10, 120600, Note_on_c, 7, 64, 49
10, 120600, Note_on_c, 7, 61, 49
10, 120629, Note_on_c, 7, 61, 0
10, 120629, Note_on_c, 7, 64, 0
10, 120630, Note_on_c, 7, 64, 56
10, 120630, Note_on_c, 7, 61, 56
10, 120659, Note_on_c, 7, 61, 0
10, 120659, Note_on_c, 7, 64, 0
10, 120660, Note_on_c, 7, 64, 63
10, 120660, Note_on_c, 7, 61, 63
10, 120689, Note_on_c, 7, 61, 0
10, 120689, Note_on_c, 7, 64, 0
10, 120690, Note_on_c, 7, 64, 70
10, 120690, Note_on_c, 7, 61, 70
10, 120719, Note_on_c, 7, 61, 0
10, 120719, Note_on_c, 7, 64, 0
10, 120720, Note_on_c, 7, 64, 76
10, 120720, Note_on_c, 7, 61, 76
10, 120749, Note_on_c, 7, 61, 0
10, 120749, Note_on_c, 7, 64, 0
10, 120750, Note_on_c, 7, 64, 83
10, 120750, Note_on_c, 7, 61, 83
10, 120779, Note_on_c, 7, 61, 0
10, 120779, Note_on_c, 7, 64, 0
10, 120780, Note_on_c, 7, 64, 89
10, 120780, Note_on_c, 7, 61, 89
10, 120809, Note_on_c, 7, 61, 0
10, 120809, Note_on_c, 7, 64, 0
10, 120810, Note_on_c, 7, 64, 95
10, 120810, Note_on_c, 7, 61, 95
10, 120839, Note_on_c, 7, 61, 0
10, 120839, Note_on_c, 7, 64, 0
10, 120840, Note_on_c, 7, 65, 101
10, 120840, Note_on_c, 7, 61, 101
10, 120869, Note_on_c, 7, 61, 0
10, 120869, Note_on_c, 7, 65, 0
10, 120870, Note_on_c, 7, 65, 108
10, 120870, Note_on_c, 7, 61, 108
10, 120899, Note_on_c, 7, 61, 0
10, 120899, Note_on_c, 7, 65, 0
10, 120900, Note_on_c, 7, 65, 115
10, 120900, Note_on_c, 7, 61, 115
10, 120929, Note_on_c, 7, 61, 0
10, 120929, Note_on_c, 7, 65, 0
10, 120930, Note_on_c, 7, 65, 121
10, 120930, Note_on_c, 7, 61, 121
10, 120959, Note_on_c, 7, 61, 0
10, 120959, Note_on_c, 7, 65, 0
10, 120960, Note_on_c, 7, 62, 127
10, 121200, Note_on_c, 7, 65, 127
10, 121209, Note_on_c, 7, 62, 0
10, 121320, Note_on_c, 7, 62, 127
10, 121329, Note_on_c, 7, 65, 0
10, 121560, Note_on_c, 7, 57, 127
10, 121569, Note_on_c, 7, 62, 0
10, 121679, Note_on_c, 7, 57, 0
10, 121680, Note_on_c, 7, 62, 127
10, 121920, Note_on_c, 7, 65, 127
10, 121929, Note_on_c, 7, 62, 0
10, 122040, Note_on_c, 7, 62, 127
10, 122049, Note_on_c, 7, 65, 0
10, 122280, Note_on_c, 7, 57, 127
10, 122289, Note_on_c, 7, 62, 0
10, 122399, Note_on_c, 7, 57, 0
10, 122400, Note_on_c, 7, 64, 127
10, 122640, Note_on_c, 7, 67, 127
10, 122649, Note_on_c, 7, 64, 0
10, 122760, Note_on_c, 7, 64, 127
10, 122769, Note_on_c, 7, 67, 0
10, 123000, Note_on_c, 7, 57, 127
10, 123009, Note_on_c, 7, 64, 0
10, 123119, Note_on_c, 7, 57, 0
10, 123120, Note_on_c, 7, 64, 127
10, 123360, Note_on_c, 7, 67, 127
10, 123369, Note_on_c, 7, 64, 0
10, 123479, Note_on_c, 7, 67, 0
10, 123480, Note_on_c, 7, 64, 127
10, 123720, Note_on_c, 7, 67, 127
10, 123729, Note_on_c, 7, 64, 0
10, 123839, Note_on_c, 7, 67, 0
10, 123840, Note_on_c, 7, 66, 48
10, 123869, Note_on_c, 7, 66, 0
10, 123900, Note_on_c, 7, 66, 48
10, 123929, Note_on_c, 7, 66, 0
10, 123960, Note_on_c, 7, 66, 48
10, 123989, Note_on_c, 7, 66, 0
10, 124260, Note_on_c, 7, 67, 48
10, 124289, Note_on_c, 7, 67, 0
10, 124320, Note_on_c, 7, 67, 48
10, 124349, Note_on_c, 7, 67, 0
10, 124560, Note_on_c, 7, 72, 48
10, 124560, Note_on_c, 7, 62, 48
10, 124679, Note_on_c, 7, 62, 0
10, 124679, Note_on_c, 7, 72, 0
10, 124980, Note_on_c, 7, 57, 94
10, 125039, Note_on_c, 7, 57, 0
10, 125040, Note_on_c, 7, 57, 101
10, 125099, Note_on_c, 7, 57, 0
10, 125100, Note_on_c, 7, 57, 107
10, 125159, Note_on_c, 7, 57, 0
10, 125160, Note_on_c, 7, 57, 114
10, 125219, Note_on_c, 7, 57, 0
10, 125220, Note_on_c, 7, 57, 120
10, 125279, Note_on_c, 7, 57, 0
10, 125280, Note_on_c, 7, 58, 127
10, 125400, Note_on_c, 7, 55, 127
10, 125409, Note_on_c, 7, 58, 0
10, 125520, Note_on_c, 7, 58, 127
10, 125529, Note_on_c, 7, 55, 0
10, 125640, Note_on_c, 7, 55, 127
10, 125649, Note_on_c, 7, 58, 0
10, 125880, Note_on_c, 7, 50, 127
10, 125889, Note_on_c, 7, 55, 0
10, 125999, Note_on_c, 7, 50, 0
10, 126000, Note_on_c, 7, 55, 127
10, 126240, Note_on_c, 7, 58, 127
10, 126249, Note_on_c, 7, 55, 0
10, 126360, Note_on_c, 7, 55, 127
10, 126369, Note_on_c, 7, 58, 0
10, 126600, Note_on_c, 7, 50, 127
10, 126609, Note_on_c, 7, 55, 0
10, 126719, Note_on_c, 7, 50, 0
10, 126720, Note_on_c, 7, 57, 127
10, 126960, Note_on_c, 7, 60, 127
10, 126969, Note_on_c, 7, 57, 0
10, 127080, Note_on_c, 7, 57, 127
10, 127089, Note_on_c, 7, 60, 0
10, 127320, Note_on_c, 7, 50, 127
10, 127329, Note_on_c, 7, 57, 0
10, 127439, Note_on_c, 7, 50, 0
10, 127440, Note_on_c, 7, 57, 127
10, 127680, Note_on_c, 7, 60, 127
10, 127689, Note_on_c, 7, 57, 0
10, 127799, Note_on_c, 7, 60, 0
10, 127800, Note_on_c, 7, 57, 127
10, 128040, Note_on_c, 7, 60, 127
10, 128049, Note_on_c, 7, 57, 0
10, 128159, Note_on_c, 7, 60, 0
10, 128220, Note_on_c, 7, 65, 48
10, 128249, Note_on_c, 7, 65, 0
10, 128280, Note_on_c, 7, 65, 48
10, 128309, Note_on_c, 7, 65, 0
10, 128580, Note_on_c, 7, 63, 48
10, 128609, Note_on_c, 7, 63, 0
10, 128640, Note_on_c, 7, 63, 48
10, 128669, Note_on_c, 7, 63, 0
10, 128880, Note_on_c, 7, 55, 48
10, 128880, Note_on_c, 7, 65, 48
10, 128999, Note_on_c, 7, 65, 0
10, 128999, Note_on_c, 7, 55, 0
10, 129660, Note_on_c, 7, 72, 48
10, 129689, Note_on_c, 7, 72, 0
10, 129720, Note_on_c, 7, 72, 48
10, 129749, Note_on_c, 7, 72, 0
10, 130020, Note_on_c, 7, 65, 48
10, 130049, Note_on_c, 7, 65, 0
10, 130080, Note_on_c, 7, 65, 48
10, 130109, Note_on_c, 7, 65, 0
10, 130380, Note_on_c, 7, 67, 48
10, 130409, Note_on_c, 7, 67, 0
10, 130440, Note_on_c, 7, 67, 52
10, 130469, Note_on_c, 7, 67, 0
10, 130740, Note_on_c, 7, 64, 78
10, 130799, Note_on_c, 7, 64, 0
10, 130800, Note_on_c, 7, 64, 82
10, 130859, Note_on_c, 7, 64, 0
10, 130860, Note_on_c, 7, 64, 86
10, 130919, Note_on_c, 7, 64, 0
10, 130920, Note_on_c, 7, 64, 90
10, 130979, Note_on_c, 7, 64, 0
10, 130980, Note_on_c, 7, 64, 93
10, 131039, Note_on_c, 7, 64, 0
10, 131040, Note_on_c, 7, 63, 96
10, 131069, Note_on_c, 7, 63, 0
10, 131100, Note_on_c, 7, 72, 96
10, 131129, Note_on_c, 7, 72, 0
10, 131160, Note_on_c, 7, 72, 96
10, 131189, Note_on_c, 7, 72, 0
10, 131460, Note_on_c, 7, 65, 96
10, 131489, Note_on_c, 7, 65, 0
10, 131520, Note_on_c, 7, 65, 96
10, 131549, Note_on_c, 7, 65, 0
10, 131820, Note_on_c, 7, 51, 96
10, 131850, Note_on_c, 7, 53, 96
10, 131859, Note_on_c, 7, 51, 0
10, 131879, Note_on_c, 7, 53, 0
10, 131880, Note_on_c, 7, 51, 96
10, 131909, Note_on_c, 7, 51, 0
10, 132180, Note_on_c, 7, 56, 96
10, 132210, Note_on_c, 7, 58, 96
10, 132219, Note_on_c, 7, 56, 0
10, 132239, Note_on_c, 7, 58, 0
10, 132240, Note_on_c, 7, 56, 96
10, 132269, Note_on_c, 7, 56, 0
10, 132480, Note_on_c, 7, 53, 127
10, 132509, Note_on_c, 7, 53, 0
10, 132510, Note_on_c, 7, 65, 127
10, 132539, Note_on_c, 7, 65, 0
10, 132540, Note_on_c, 7, 65, 127
10, 132569, Note_on_c, 7, 65, 0
10, 132570, Note_on_c, 7, 65, 127
10, 132599, Note_on_c, 7, 65, 0
10, 132600, Note_on_c, 7, 65, 127
10, 132629, Note_on_c, 7, 65, 0
10, 132630, Note_on_c, 7, 65, 127
10, 132659, Note_on_c, 7, 65, 0
10, 132660, Note_on_c, 7, 65, 127
10, 132689, Note_on_c, 7, 65, 0
10, 132690, Note_on_c, 7, 65, 127
10, 132719, Note_on_c, 7, 65, 0
10, 132720, Note_on_c, 7, 65, 127
10, 132749, Note_on_c, 7, 65, 0
10, 132750, Note_on_c, 7, 65, 127
10, 132779, Note_on_c, 7, 65, 0
10, 132780, Note_on_c, 7, 65, 127
10, 132809, Note_on_c, 7, 65, 0
10, 132810, Note_on_c, 7, 65, 127
10, 132839, Note_on_c, 7, 65, 0
10, 132840, Note_on_c, 7, 64, 127
10, 132869, Note_on_c, 7, 64, 0
10, 132870, Note_on_c, 7, 64, 127
10, 132899, Note_on_c, 7, 64, 0
10, 132900, Note_on_c, 7, 64, 127
10, 132929, Note_on_c, 7, 64, 0
10, 132930, Note_on_c, 7, 64, 127
10, 132959, Note_on_c, 7, 64, 0
10, 132960, Note_on_c, 7, 64, 127
10, 132989, Note_on_c, 7, 64, 0
10, 132990, Note_on_c, 7, 64, 127
10, 133019, Note_on_c, 7, 64, 0
10, 133020, Note_on_c, 7, 64, 127
10, 133049, Note_on_c, 7, 64, 0
10, 133050, Note_on_c, 7, 64, 127
10, 133079, Note_on_c, 7, 64, 0
10, 133080, Note_on_c, 7, 64, 127
10, 133109, Note_on_c, 7, 64, 0
10, 133110, Note_on_c, 7, 64, 127
10, 133139, Note_on_c, 7, 64, 0
10, 133140, Note_on_c, 7, 64, 127
10, 133169, Note_on_c, 7, 64, 0
10, 133170, Note_on_c, 7, 64, 127
10, 133199, Note_on_c, 7, 64, 0
10, 133200, Note_on_c, 7, 63, 127
10, 133229, Note_on_c, 7, 63, 0
10, 133260, Note_on_c, 7, 51, 48
10, 133320, Note_on_c, 7, 55, 48
10, 133329, Note_on_c, 7, 51, 0
10, 133380, Note_on_c, 7, 51, 48
10, 133389, Note_on_c, 7, 55, 0
10, 133440, Note_on_c, 7, 55, 48
10, 133449, Note_on_c, 7, 51, 0
10, 133500, Note_on_c, 7, 51, 48
10, 133509, Note_on_c, 7, 55, 0
10, 133559, Note_on_c, 7, 51, 0
10, 133560, Note_on_c, 7, 55, 48
10, 133620, Note_on_c, 7, 51, 48
10, 133629, Note_on_c, 7, 55, 0
10, 133680, Note_on_c, 7, 55, 48
10, 133689, Note_on_c, 7, 51, 0
10, 133740, Note_on_c, 7, 51, 48
10, 133749, Note_on_c, 7, 55, 0
10, 133800, Note_on_c, 7, 55, 48
10, 133809, Note_on_c, 7, 51, 0
10, 133860, Note_on_c, 7, 51, 48
10, 133869, Note_on_c, 7, 55, 0
10, 133919, Note_on_c, 7, 51, 0
10, 133920, Note_on_c, 7, 55, 48
10, 133980, Note_on_c, 7, 51, 48
10, 133989, Note_on_c, 7, 55, 0
10, 134040, Note_on_c, 7, 55, 48
10, 134049, Note_on_c, 7, 51, 0
10, 134100, Note_on_c, 7, 51, 48
10, 134109, Note_on_c, 7, 55, 0
10, 134160, Note_on_c, 7, 55, 48
10, 134169, Note_on_c, 7, 51, 0
10, 134220, Note_on_c, 7, 51, 48
10, 134229, Note_on_c, 7, 55, 0
10, 134279, Note_on_c, 7, 51, 0
10, 134280, Note_on_c, 7, 55, 48
10, 134340, Note_on_c, 7, 51, 48
10, 134349, Note_on_c, 7, 55, 0
10, 134400, Note_on_c, 7, 55, 48
10, 134409, Note_on_c, 7, 51, 0
10, 134460, Note_on_c, 7, 51, 48
10, 134469, Note_on_c, 7, 55, 0
10, 134520, Note_on_c, 7, 55, 48
10, 134529, Note_on_c, 7, 51, 0
10, 134580, Note_on_c, 7, 51, 48
10, 134589, Note_on_c, 7, 55, 0
10, 134639, Note_on_c, 7, 51, 0
10, 134640, Note_on_c, 7, 56, 48
10, 134700, Note_on_c, 7, 51, 48
10, 134709, Note_on_c, 7, 56, 0
10, 134760, Note_on_c, 7, 56, 48
10, 134769, Note_on_c, 7, 51, 0
10, 134820, Note_on_c, 7, 51, 48
10, 134829, Note_on_c, 7, 56, 0
10, 134880, Note_on_c, 7, 56, 48
10, 134889, Note_on_c, 7, 51, 0
10, 134940, Note_on_c, 7, 51, 48
10, 134949, Note_on_c, 7, 56, 0
10, 134999, Note_on_c, 7, 51, 0
10, 135000, Note_on_c, 7, 56, 48
10, 135060, Note_on_c, 7, 51, 48
10, 135069, Note_on_c, 7, 56, 0
10, 135120, Note_on_c, 7, 56, 48
10, 135129, Note_on_c, 7, 51, 0
10, 135180, Note_on_c, 7, 51, 48
10, 135189, Note_on_c, 7, 56, 0
10, 135240, Note_on_c, 7, 56, 48
10, 135249, Note_on_c, 7, 51, 0
10, 135300, Note_on_c, 7, 51, 48
10, 135309, Note_on_c, 7, 56, 0
10, 135359, Note_on_c, 7, 51, 0
10, 135360, Note_on_c, 7, 56, 48
10, 135420, Note_on_c, 7, 51, 48
10, 135429, Note_on_c, 7, 56, 0
10, 135480, Note_on_c, 7, 56, 48
10, 135489, Note_on_c, 7, 51, 0
10, 135540, Note_on_c, 7, 51, 48
10, 135549, Note_on_c, 7, 56, 0
10, 135600, Note_on_c, 7, 56, 48
10, 135609, Note_on_c, 7, 51, 0
10, 135660, Note_on_c, 7, 51, 48
10, 135669, Note_on_c, 7, 56, 0
10, 135719, Note_on_c, 7, 51, 0
10, 135720, Note_on_c, 7, 56, 48
10, 135780, Note_on_c, 7, 51, 48
10, 135789, Note_on_c, 7, 56, 0
10, 135840, Note_on_c, 7, 56, 48
10, 135849, Note_on_c, 7, 51, 0
10, 135900, Note_on_c, 7, 51, 48
10, 135909, Note_on_c, 7, 56, 0
10, 135960, Note_on_c, 7, 56, 48
10, 135969, Note_on_c, 7, 51, 0
10, 136020, Note_on_c, 7, 51, 48
10, 136029, Note_on_c, 7, 56, 0
10, 136079, Note_on_c, 7, 51, 0
10, 136080, Note_on_c, 7, 58, 48
10, 136140, Note_on_c, 7, 51, 48
10, 136149, Note_on_c, 7, 58, 0
10, 136199, Note_on_c, 7, 51, 0
10, 136200, Note_on_c, 7, 55, 48
10, 136260, Note_on_c, 7, 51, 48
10, 136269, Note_on_c, 7, 55, 0
10, 136320, Note_on_c, 7, 55, 48
10, 136329, Note_on_c, 7, 51, 0
10, 136380, Note_on_c, 7, 51, 48
10, 136389, Note_on_c, 7, 55, 0
10, 136439, Note_on_c, 7, 51, 0
10, 136440, Note_on_c, 7, 55, 48
10, 136500, Note_on_c, 7, 51, 48
10, 136509, Note_on_c, 7, 55, 0
10, 136560, Note_on_c, 7, 55, 48
10, 136569, Note_on_c, 7, 51, 0
10, 136620, Note_on_c, 7, 51, 48
10, 136629, Note_on_c, 7, 55, 0
10, 136680, Note_on_c, 7, 55, 48
10, 136689, Note_on_c, 7, 51, 0
10, 136740, Note_on_c, 7, 51, 48
10, 136749, Note_on_c, 7, 55, 0
10, 136799, Note_on_c, 7, 51, 0
10, 136800, Note_on_c, 7, 55, 48
10, 136860, Note_on_c, 7, 51, 48
10, 136869, Note_on_c, 7, 55, 0
10, 136920, Note_on_c, 7, 55, 48
10, 136929, Note_on_c, 7, 51, 0
10, 136980, Note_on_c, 7, 51, 48
10, 136989, Note_on_c, 7, 55, 0
10, 137040, Note_on_c, 7, 55, 48
10, 137049, Note_on_c, 7, 51, 0
10, 137100, Note_on_c, 7, 51, 48
10, 137109, Note_on_c, 7, 55, 0
10, 137159, Note_on_c, 7, 51, 0
10, 137160, Note_on_c, 7, 55, 48
10, 137220, Note_on_c, 7, 51, 48
10, 137229, Note_on_c, 7, 55, 0
10, 137280, Note_on_c, 7, 55, 48
10, 137289, Note_on_c, 7, 51, 0
10, 137340, Note_on_c, 7, 51, 48
10, 137349, Note_on_c, 7, 55, 0
10, 137400, Note_on_c, 7, 55, 48
10, 137409, Note_on_c, 7, 51, 0
10, 137460, Note_on_c, 7, 51, 48
10, 137469, Note_on_c, 7, 55, 0
10, 137519, Note_on_c, 7, 51, 0
10, 137520, Note_on_c, 7, 56, 48
10, 137639, Note_on_c, 7, 56, 0
10, 137880, Note_on_c, 7, 48, 96
10, 137909, Note_on_c, 7, 48, 0
10, 137910, Note_on_c, 7, 48, 48
10, 138299, Note_on_c, 7, 48, 0
10, 138300, Note_on_c, 7, 50, 48
10, 138329, Note_on_c, 7, 50, 0
10, 138360, Note_on_c, 7, 52, 48
10, 138389, Note_on_c, 7, 52, 0
10, 138420, Note_on_c, 7, 53, 48
10, 138449, Note_on_c, 7, 53, 0
10, 138480, Note_on_c, 7, 55, 48
10, 138509, Note_on_c, 7, 55, 0
10, 138540, Note_on_c, 7, 56, 48
10, 138569, Note_on_c, 7, 56, 0
10, 138600, Note_on_c, 7, 58, 48
10, 138720, Note_on_c, 7, 56, 48
10, 138729, Note_on_c, 7, 58, 0
10, 138780, Note_on_c, 7, 55, 48
10, 138789, Note_on_c, 7, 56, 0
10, 138840, Note_on_c, 7, 53, 48
10, 138849, Note_on_c, 7, 55, 0
10, 138900, Note_on_c, 7, 52, 48
10, 138909, Note_on_c, 7, 53, 0
10, 138959, Note_on_c, 7, 52, 0
10, 138960, Note_on_c, 7, 53, 48
10, 139079, Note_on_c, 7, 53, 0
10, 139080, Note_on_c, 7, 65, 96
10, 139109, Note_on_c, 7, 65, 0
10, 139110, Note_on_c, 7, 65, 48
10, 139259, Note_on_c, 7, 65, 0
10, 139260, Note_on_c, 7, 56, 48
10, 139319, Note_on_c, 7, 56, 0
10, 139320, Note_on_c, 7, 55, 48
10, 139439, Note_on_c, 7, 55, 0
10, 139440, Note_on_c, 7, 63, 96
10, 139469, Note_on_c, 7, 63, 0
10, 139470, Note_on_c, 7, 63, 48
10, 139619, Note_on_c, 7, 63, 0
10, 139620, Note_on_c, 7, 63, 48
10, 139679, Note_on_c, 7, 63, 0
10, 139680, Note_on_c, 7, 63, 48
10, 139710, Note_on_c, 7, 60, 48
10, 139719, Note_on_c, 7, 63, 0
10, 139740, Note_on_c, 7, 59, 48
10, 139749, Note_on_c, 7, 60, 0
10, 139770, Note_on_c, 7, 60, 48
10, 139779, Note_on_c, 7, 59, 0
10, 139799, Note_on_c, 7, 60, 0
10, 139800, Note_on_c, 7, 62, 48
10, 139829, Note_on_c, 7, 62, 0
10, 139860, Note_on_c, 7, 59, 48
10, 139889, Note_on_c, 7, 59, 0
10, 139920, Note_on_c, 7, 60, 48
10, 139949, Note_on_c, 7, 60, 0
10, 139980, Note_on_c, 7, 62, 48
10, 140009, Note_on_c, 7, 62, 0
10, 140040, Note_on_c, 7, 63, 48
10, 140069, Note_on_c, 7, 63, 0
10, 140100, Note_on_c, 7, 63, 48
10, 140130, Note_on_c, 7, 62, 48
10, 140139, Note_on_c, 7, 63, 0
10, 140159, Note_on_c, 7, 62, 0
10, 140160, Note_on_c, 7, 63, 48
10, 140189, Note_on_c, 7, 63, 0
10, 140220, Note_on_c, 7, 66, 48
10, 140249, Note_on_c, 7, 66, 0
10, 140280, Note_on_c, 7, 67, 48
10, 140309, Note_on_c, 7, 67, 0
10, 140340, Note_on_c, 7, 69, 48
10, 140369, Note_on_c, 7, 69, 0
10, 140400, Note_on_c, 7, 70, 48
10, 140519, Note_on_c, 7, 70, 0
10, 141240, Note_on_c, 7, 62, 48
10, 141299, Note_on_c, 7, 62, 0
10, 141360, Note_on_c, 7, 67, 96
10, 141539, Note_on_c, 7, 67, 0
10, 141540, Note_on_c, 7, 60, 53
10, 141569, Note_on_c, 7, 60, 0
10, 141600, Note_on_c, 7, 67, 55
10, 141629, Note_on_c, 7, 67, 0
10, 141660, Note_on_c, 7, 55, 58
10, 141689, Note_on_c, 7, 55, 0
10, 141720, Note_on_c, 7, 55, 60
10, 141749, Note_on_c, 7, 55, 0
10, 141780, Note_on_c, 7, 53, 63
10, 141809, Note_on_c, 7, 53, 0
10, 141840, Note_on_c, 7, 52, 65
10, 141899, Note_on_c, 7, 52, 0
10, 141960, Note_on_c, 7, 64, 112
10, 142139, Note_on_c, 7, 64, 0
10, 142140, Note_on_c, 7, 64, 78
10, 142199, Note_on_c, 7, 64, 0
10, 142200, Note_on_c, 7, 65, 80
10, 142319, Note_on_c, 7, 65, 0
10, 142380, Note_on_c, 7, 53, 83
10, 142410, Note_on_c, 7, 52, 84
10, 142419, Note_on_c, 7, 53, 0
10, 142439, Note_on_c, 7, 52, 0
10, 142440, Note_on_c, 7, 53, 85
10, 142469, Note_on_c, 7, 53, 0
10, 142500, Note_on_c, 7, 52, 88
10, 142529, Note_on_c, 7, 52, 0
10, 142560, Note_on_c, 7, 50, 90
10, 142679, Note_on_c, 7, 50, 0
10, 142740, Note_on_c, 7, 52, 103
10, 142770, Note_on_c, 7, 50, 104
10, 142779, Note_on_c, 7, 52, 0
10, 142799, Note_on_c, 7, 50, 0
10, 142800, Note_on_c, 7, 52, 105
10, 142829, Note_on_c, 7, 52, 0
10, 142860, Note_on_c, 7, 49, 108
10, 142889, Note_on_c, 7, 49, 0
10, 142920, Note_on_c, 7, 53, 110
10, 142949, Note_on_c, 7, 53, 0
10, 142980, Note_on_c, 7, 69, 113
10, 143009, Note_on_c, 7, 69, 0
10, 143040, Note_on_c, 7, 65, 115
10, 143069, Note_on_c, 7, 65, 0
10, 143100, Note_on_c, 7, 64, 118
10, 143129, Note_on_c, 7, 64, 0
10, 143160, Note_on_c, 7, 62, 120
10, 143189, Note_on_c, 7, 62, 0
10, 143220, Note_on_c, 7, 60, 123
10, 143249, Note_on_c, 7, 60, 0
10, 143280, Note_on_c, 7, 59, 125
10, 143399, Note_on_c, 7, 59, 0
10, 143400, Note_on_c, 7, 56, 127
10, 144119, Note_on_c, 7, 56, 0
10, 144120, Note_on_c, 7, 53, 127
10, 144359, Note_on_c, 7, 53, 0
10, 144360, Note_on_c, 7, 53, 127
10, 144599, Note_on_c, 7, 53, 0
10, 144600, Note_on_c, 7, 53, 127
10, 144839, Note_on_c, 7, 53, 0
10, 144840, Note_on_c, 7, 53, 127
10, 145079, Note_on_c, 7, 53, 0
10, 145080, Note_on_c, 7, 53, 127
10, 145319, Note_on_c, 7, 53, 0
10, 145320, Note_on_c, 7, 53, 127
10, 145439, Note_on_c, 7, 53, 0
10, 145440, Note_on_c, 7, 52, 127
10, 146279, Note_on_c, 7, 52, 0
10, 146280, Note_on_c, 7, 52, 127
10, 146519, Note_on_c, 7, 52, 0
10, 146520, Note_on_c, 7, 52, 127
10, 146759, Note_on_c, 7, 52, 0
10, 146760, Note_on_c, 7, 52, 127
10, 146999, Note_on_c, 7, 52, 0
10, 147000, Note_on_c, 7, 52, 127
10, 147239, Note_on_c, 7, 52, 0
10, 147240, Note_on_c, 7, 52, 127
10, 147479, Note_on_c, 7, 52, 0
10, 147480, Note_on_c, 7, 52, 127
10, 147599, Note_on_c, 7, 52, 0
10, 147600, Note_on_c, 7, 54, 127
10, 148439, Note_on_c, 7, 54, 0
10, 148440, Note_on_c, 7, 54, 127
10, 148679, Note_on_c, 7, 54, 0
10, 148680, Note_on_c, 7, 51, 127
10, 148919, Note_on_c, 7, 51, 0
10, 148920, Note_on_c, 7, 54, 127
10, 149159, Note_on_c, 7, 54, 0
10, 149160, Note_on_c, 7, 54, 127
10, 149399, Note_on_c, 7, 54, 0
10, 149400, Note_on_c, 7, 51, 127
10, 149639, Note_on_c, 7, 51, 0
10, 149640, Note_on_c, 7, 54, 127
10, 149759, Note_on_c, 7, 54, 0
10, 149760, Note_on_c, 7, 49, 127
10, 150599, Note_on_c, 7, 49, 0
10, 150600, Note_on_c, 7, 49, 127
10, 150839, Note_on_c, 7, 49, 0
10, 150840, Note_on_c, 7, 55, 127
10, 151079, Note_on_c, 7, 55, 0
10, 151080, Note_on_c, 7, 49, 127
10, 151319, Note_on_c, 7, 49, 0
10, 151320, Note_on_c, 7, 49, 127
10, 151559, Note_on_c, 7, 49, 0
10, 151560, Note_on_c, 7, 55, 127
10, 151799, Note_on_c, 7, 55, 0
10, 151800, Note_on_c, 7, 49, 127
10, 151919, Note_on_c, 7, 49, 0
10, 151920, Note_on_c, 7, 48, 127
10, 151979, Note_on_c, 7, 48, 0
10, 152040, Note_on_c, 7, 60, 127
10, 152279, Note_on_c, 7, 60, 0
10, 152280, Note_on_c, 7, 60, 127
10, 152519, Note_on_c, 7, 60, 0
10, 152520, Note_on_c, 7, 60, 127
10, 152639, Note_on_c, 7, 60, 0
10, 152640, Note_on_c, 7, 48, 127
10, 152699, Note_on_c, 7, 48, 0
10, 152760, Note_on_c, 7, 64, 127
10, 152760, Note_on_c, 7, 60, 127
10, 152999, Note_on_c, 7, 60, 0
10, 152999, Note_on_c, 7, 64, 0
10, 153000, Note_on_c, 7, 60, 127
10, 153000, Note_on_c, 7, 64, 127
10, 153239, Note_on_c, 7, 64, 0
10, 153239, Note_on_c, 7, 60, 0
10, 153240, Note_on_c, 7, 64, 127
10, 153240, Note_on_c, 7, 60, 127
10, 153299, Note_on_c, 7, 60, 0
10, 153299, Note_on_c, 7, 64, 0
10, 153360, Note_on_c, 7, 48, 127
10, 153419, Note_on_c, 7, 48, 0
10, 153480, Note_on_c, 7, 64, 96
10, 153480, Note_on_c, 7, 60, 96
10, 153719, Note_on_c, 7, 60, 0
10, 153719, Note_on_c, 7, 64, 0
10, 153840, Note_on_c, 7, 60, 96
10, 153840, Note_on_c, 7, 64, 96
10, 154079, Note_on_c, 7, 64, 0
10, 154079, Note_on_c, 7, 60, 0
10, 154200, Note_on_c, 7, 64, 96
10, 154200, Note_on_c, 7, 60, 96
10, 154439, Note_on_c, 7, 60, 0
10, 154439, Note_on_c, 7, 64, 0
10, 154440, Note_on_c, 7, 60, 96
10, 154440, Note_on_c, 7, 64, 96
10, 154679, Note_on_c, 7, 64, 0
10, 154679, Note_on_c, 7, 60, 0
10, 154680, Note_on_c, 7, 64, 96
10, 154680, Note_on_c, 7, 60, 96
10, 154739, Note_on_c, 7, 60, 0
10, 154739, Note_on_c, 7, 64, 0
10, 154920, Note_on_c, 7, 54, 96
10, 154920, Note_on_c, 7, 57, 96
10, 154979, Note_on_c, 7, 57, 0
10, 154979, Note_on_c, 7, 54, 0
10, 155040, Note_on_c, 7, 57, 96
10, 155040, Note_on_c, 7, 54, 96
10, 155099, Note_on_c, 7, 54, 0
10, 155099, Note_on_c, 7, 57, 0
10, 155160, Note_on_c, 7, 57, 96
10, 155160, Note_on_c, 7, 54, 96
10, 155219, Note_on_c, 7, 54, 0
10, 155219, Note_on_c, 7, 57, 0
10, 155280, Note_on_c, 7, 54, 88
10, 155280, Note_on_c, 7, 57, 88
10, 155339, Note_on_c, 7, 57, 0
10, 155339, Note_on_c, 7, 54, 0
10, 155400, Note_on_c, 7, 57, 80
10, 155400, Note_on_c, 7, 54, 80
10, 155459, Note_on_c, 7, 54, 0
10, 155459, Note_on_c, 7, 57, 0
10, 155520, Note_on_c, 7, 54, 72
10, 155520, Note_on_c, 7, 57, 72
10, 155579, Note_on_c, 7, 57, 0
10, 155579, Note_on_c, 7, 54, 0
10, 155640, Note_on_c, 7, 57, 64
10, 155640, Note_on_c, 7, 54, 64
10, 155699, Note_on_c, 7, 54, 0
10, 155699, Note_on_c, 7, 57, 0
10, 155760, Note_on_c, 7, 54, 56
10, 155760, Note_on_c, 7, 57, 56
10, 155819, Note_on_c, 7, 57, 0
10, 155819, Note_on_c, 7, 54, 0
10, 155880, Note_on_c, 7, 57, 48
10, 155880, Note_on_c, 7, 54, 48
10, 155939, Note_on_c, 7, 54, 0
10, 155939, Note_on_c, 7, 57, 0
10, 156000, Note_on_c, 7, 54, 48
10, 156000, Note_on_c, 7, 57, 48
10, 156059, Note_on_c, 7, 57, 0
10, 156059, Note_on_c, 7, 54, 0
10, 156120, Note_on_c, 7, 57, 48
10, 156120, Note_on_c, 7, 54, 48
10, 156179, Note_on_c, 7, 54, 0
10, 156179, Note_on_c, 7, 57, 0
10, 156240, Note_on_c, 7, 55, 48
10, 156359, Note_on_c, 7, 55, 0
10, 159120, Note_on_c, 7, 57, 48
10, 159179, Note_on_c, 7, 57, 0
10, 159180, Note_on_c, 7, 52, 48
10, 159299, Note_on_c, 7, 52, 0
10, 159300, Note_on_c, 7, 52, 48
10, 159419, Note_on_c, 7, 52, 0
10, 159420, Note_on_c, 7, 52, 48
10, 159539, Note_on_c, 7, 52, 0
10, 159540, Note_on_c, 7, 52, 48
10, 159659, Note_on_c, 7, 52, 0
10, 159660, Note_on_c, 7, 52, 48
10, 159779, Note_on_c, 7, 52, 0
10, 159780, Note_on_c, 7, 52, 48
10, 159899, Note_on_c, 7, 52, 0
10, 159900, Note_on_c, 7, 64, 48
10, 160019, Note_on_c, 7, 64, 0
10, 160020, Note_on_c, 7, 64, 48
10, 160139, Note_on_c, 7, 64, 0
10, 160140, Note_on_c, 7, 64, 48
10, 160259, Note_on_c, 7, 64, 0
10, 160260, Note_on_c, 7, 64, 48
10, 160379, Note_on_c, 7, 64, 0
10, 160380, Note_on_c, 7, 64, 48
10, 160499, Note_on_c, 7, 64, 0
10, 160500, Note_on_c, 7, 64, 48
10, 160619, Note_on_c, 7, 64, 0
10, 160620, Note_on_c, 7, 52, 48
10, 160739, Note_on_c, 7, 52, 0
10, 160740, Note_on_c, 7, 52, 48
10, 160859, Note_on_c, 7, 52, 0
10, 160860, Note_on_c, 7, 52, 48
10, 160979, Note_on_c, 7, 52, 0
10, 160980, Note_on_c, 7, 52, 48
10, 161099, Note_on_c, 7, 52, 0
10, 161100, Note_on_c, 7, 52, 48
10, 161219, Note_on_c, 7, 52, 0
10, 161220, Note_on_c, 7, 52, 48
10, 161339, Note_on_c, 7, 52, 0
10, 161340, Note_on_c, 7, 64, 48
10, 161459, Note_on_c, 7, 64, 0
10, 161460, Note_on_c, 7, 64, 48
10, 161579, Note_on_c, 7, 64, 0
10, 161580, Note_on_c, 7, 64, 48
10, 161699, Note_on_c, 7, 64, 0
10, 161700, Note_on_c, 7, 52, 56
10, 161760, Note_on_c, 7, 55, 64
10, 161769, Note_on_c, 7, 52, 0
10, 161820, Note_on_c, 7, 53, 72
10, 161829, Note_on_c, 7, 55, 0
10, 161880, Note_on_c, 7, 52, 80
10, 161889, Note_on_c, 7, 53, 0
10, 161940, Note_on_c, 7, 50, 88
10, 161949, Note_on_c, 7, 52, 0
10, 161999, Note_on_c, 7, 50, 0
10, 162000, Note_on_c, 7, 48, 96
10, 162119, Note_on_c, 7, 48, 0
10, 162120, Note_on_c, 7, 60, 96
10, 162240, Note_on_c, 7, 64, 96
10, 162249, Note_on_c, 7, 60, 0
10, 162360, Note_on_c, 7, 60, 96
10, 162369, Note_on_c, 7, 64, 0
10, 162600, Note_on_c, 7, 55, 96
10, 162609, Note_on_c, 7, 60, 0
10, 162719, Note_on_c, 7, 55, 0
10, 162720, Note_on_c, 7, 60, 96
10, 162779, Note_on_c, 7, 60, 0
10, 162840, Note_on_c, 7, 64, 96
10, 162899, Note_on_c, 7, 64, 0
10, 162960, Note_on_c, 7, 67, 96
10, 163019, Note_on_c, 7, 67, 0
10, 163080, Note_on_c, 7, 60, 96
10, 163320, Note_on_c, 7, 55, 96
10, 163329, Note_on_c, 7, 60, 0
10, 163439, Note_on_c, 7, 55, 0
10, 163440, Note_on_c, 7, 60, 96
10, 163499, Note_on_c, 7, 60, 0
10, 163560, Note_on_c, 7, 52, 96
10, 163619, Note_on_c, 7, 52, 0
10, 163680, Note_on_c, 7, 55, 96
10, 163739, Note_on_c, 7, 55, 0
10, 163800, Note_on_c, 7, 60, 96
10, 163859, Note_on_c, 7, 60, 0
10, 163920, Note_on_c, 7, 64, 96
10, 163979, Note_on_c, 7, 64, 0
10, 164040, Note_on_c, 7, 67, 112
10, 164219, Note_on_c, 7, 67, 0
10, 164220, Note_on_c, 7, 65, 96
10, 164249, Note_on_c, 7, 65, 0
10, 164280, Note_on_c, 7, 62, 96
10, 164309, Note_on_c, 7, 62, 0
10, 164340, Note_on_c, 7, 59, 96
10, 164369, Note_on_c, 7, 59, 0
10, 164400, Note_on_c, 7, 55, 96
10, 164429, Note_on_c, 7, 55, 0
10, 164460, Note_on_c, 7, 53, 96
10, 164489, Note_on_c, 7, 53, 0
10, 164520, Note_on_c, 7, 50, 96
10, 164549, Note_on_c, 7, 50, 0
10, 164580, Note_on_c, 7, 65, 96
10, 164609, Note_on_c, 7, 65, 0
10, 164640, Note_on_c, 7, 62, 96
10, 164669, Note_on_c, 7, 62, 0
10, 164700, Note_on_c, 7, 59, 96
10, 164729, Note_on_c, 7, 59, 0
10, 164760, Note_on_c, 7, 55, 96
10, 164789, Note_on_c, 7, 55, 0
10, 164820, Note_on_c, 7, 59, 96
10, 164849, Note_on_c, 7, 59, 0
10, 164880, Note_on_c, 7, 60, 96
10, 164939, Note_on_c, 7, 60, 0
10, 165000, Note_on_c, 7, 51, 96
10, 165059, Note_on_c, 7, 51, 0
10, 165120, Note_on_c, 7, 55, 96
10, 165179, Note_on_c, 7, 55, 0
10, 165240, Note_on_c, 7, 60, 96
10, 165299, Note_on_c, 7, 60, 0
10, 165360, Note_on_c, 7, 63, 96
10, 165419, Note_on_c, 7, 63, 0
10, 165480, Note_on_c, 7, 67, 112
10, 165659, Note_on_c, 7, 67, 0
10, 165660, Note_on_c, 7, 65, 96
10, 165689, Note_on_c, 7, 65, 0
10, 165720, Note_on_c, 7, 62, 96
10, 165749, Note_on_c, 7, 62, 0
10, 165780, Note_on_c, 7, 59, 96
10, 165809, Note_on_c, 7, 59, 0
10, 165840, Note_on_c, 7, 55, 96
10, 165869, Note_on_c, 7, 55, 0
10, 165900, Note_on_c, 7, 53, 96
10, 165929, Note_on_c, 7, 53, 0
10, 165960, Note_on_c, 7, 50, 96
10, 165989, Note_on_c, 7, 50, 0
10, 166020, Note_on_c, 7, 65, 96
10, 166049, Note_on_c, 7, 65, 0
10, 166080, Note_on_c, 7, 62, 96
10, 166109, Note_on_c, 7, 62, 0
10, 166140, Note_on_c, 7, 59, 96
10, 166169, Note_on_c, 7, 59, 0
10, 166200, Note_on_c, 7, 55, 96
10, 166229, Note_on_c, 7, 55, 0
10, 166260, Note_on_c, 7, 59, 96
10, 166289, Note_on_c, 7, 59, 0
10, 166320, Note_on_c, 7, 60, 96
10, 166440, Note_on_c, 7, 51, 96
10, 166449, Note_on_c, 7, 60, 0
10, 166560, Note_on_c, 7, 55, 96
10, 166569, Note_on_c, 7, 51, 0
10, 166679, Note_on_c, 7, 55, 0
10, 166680, Note_on_c, 7, 56, 112
10, 166920, Note_on_c, 7, 48, 96
10, 166929, Note_on_c, 7, 56, 0
10, 167039, Note_on_c, 7, 48, 0
10, 167040, Note_on_c, 7, 49, 96
10, 167160, Note_on_c, 7, 53, 96
10, 167169, Note_on_c, 7, 49, 0
10, 167280, Note_on_c, 7, 57, 96
10, 167289, Note_on_c, 7, 53, 0
10, 167399, Note_on_c, 7, 57, 0
10, 167400, Note_on_c, 7, 58, 112
10, 167640, Note_on_c, 7, 50, 96
10, 167649, Note_on_c, 7, 58, 0
10, 167759, Note_on_c, 7, 50, 0
10, 167760, Note_on_c, 7, 51, 96
10, 167819, Note_on_c, 7, 51, 0
10, 167880, Note_on_c, 7, 55, 96
10, 167939, Note_on_c, 7, 55, 0
10, 168000, Note_on_c, 7, 58, 96
10, 168059, Note_on_c, 7, 58, 0
10, 168120, Note_on_c, 7, 63, 96
10, 168179, Note_on_c, 7, 63, 0
10, 168240, Note_on_c, 7, 67, 96
10, 168299, Note_on_c, 7, 67, 0
10, 168360, Note_on_c, 7, 70, 112
10, 168539, Note_on_c, 7, 70, 0
10, 168540, Note_on_c, 7, 68, 96
10, 168569, Note_on_c, 7, 68, 0
10, 168600, Note_on_c, 7, 65, 96
10, 168629, Note_on_c, 7, 65, 0
10, 168660, Note_on_c, 7, 62, 96
10, 168689, Note_on_c, 7, 62, 0
10, 168720, Note_on_c, 7, 58, 96
10, 168749, Note_on_c, 7, 58, 0
10, 168780, Note_on_c, 7, 56, 96
10, 168809, Note_on_c, 7, 56, 0
10, 168840, Note_on_c, 7, 53, 96
10, 168869, Note_on_c, 7, 53, 0
10, 168900, Note_on_c, 7, 68, 96
10, 168929, Note_on_c, 7, 68, 0
10, 168960, Note_on_c, 7, 65, 96
10, 168989, Note_on_c, 7, 65, 0
10, 169020, Note_on_c, 7, 62, 96
10, 169049, Note_on_c, 7, 62, 0
10, 169080, Note_on_c, 7, 58, 96
10, 169109, Note_on_c, 7, 58, 0
10, 169140, Note_on_c, 7, 62, 96
10, 169169, Note_on_c, 7, 62, 0
10, 169200, Note_on_c, 7, 63, 127
10, 169259, Note_on_c, 7, 63, 0
10, 169320, Note_on_c, 7, 54, 127
10, 169379, Note_on_c, 7, 54, 0
10, 169440, Note_on_c, 7, 58, 127
10, 169499, Note_on_c, 7, 58, 0
10, 169560, Note_on_c, 7, 63, 127
10, 169619, Note_on_c, 7, 63, 0
10, 169680, Note_on_c, 7, 66, 127
10, 169739, Note_on_c, 7, 66, 0
10, 169800, Note_on_c, 7, 70, 127
10, 169859, Note_on_c, 7, 70, 0
10, 169920, Note_on_c, 7, 75, 127
10, 170039, Note_on_c, 7, 75, 0
10, 171420, Note_on_c, 7, 58, 48
10, 171539, Note_on_c, 7, 58, 0
10, 171540, Note_on_c, 7, 58, 48
10, 171659, Note_on_c, 7, 58, 0
10, 171660, Note_on_c, 7, 58, 48
10, 171779, Note_on_c, 7, 58, 0
10, 171780, Note_on_c, 7, 59, 48
10, 171899, Note_on_c, 7, 59, 0
10, 171900, Note_on_c, 7, 59, 40
10, 172019, Note_on_c, 7, 59, 0
10, 172020, Note_on_c, 7, 59, 32
10, 172139, Note_on_c, 7, 59, 0
10, 172140, Note_on_c, 7, 56, 34
10, 172259, Note_on_c, 7, 56, 0
10, 172260, Note_on_c, 7, 56, 37
10, 172379, Note_on_c, 7, 56, 0
10, 172380, Note_on_c, 7, 56, 40
10, 172499, Note_on_c, 7, 56, 0
10, 172500, Note_on_c, 7, 53, 42
10, 172619, Note_on_c, 7, 53, 0
10, 172620, Note_on_c, 7, 53, 45
10, 172739, Note_on_c, 7, 53, 0
10, 172740, Note_on_c, 7, 53, 48
10, 172799, Note_on_c, 7, 53, 0
10, 172800, Note_on_c, 7, 54, 48
10, 172860, Note_on_c, 7, 49, 48
10, 172869, Note_on_c, 7, 54, 0
10, 172920, Note_on_c, 7, 54, 48
10, 172929, Note_on_c, 7, 49, 0
10, 172980, Note_on_c, 7, 49, 48
10, 172989, Note_on_c, 7, 54, 0
10, 173040, Note_on_c, 7, 54, 48
10, 173049, Note_on_c, 7, 49, 0
10, 173100, Note_on_c, 7, 49, 48
10, 173109, Note_on_c, 7, 54, 0
10, 173159, Note_on_c, 7, 49, 0
10, 173160, Note_on_c, 7, 54, 48
10, 173220, Note_on_c, 7, 49, 48
10, 173229, Note_on_c, 7, 54, 0
10, 173280, Note_on_c, 7, 54, 48
10, 173289, Note_on_c, 7, 49, 0
10, 173340, Note_on_c, 7, 49, 48
10, 173349, Note_on_c, 7, 54, 0
10, 173400, Note_on_c, 7, 54, 48
10, 173409, Note_on_c, 7, 49, 0
10, 173460, Note_on_c, 7, 49, 48
10, 173469, Note_on_c, 7, 54, 0
10, 173519, Note_on_c, 7, 49, 0
10, 173520, Note_on_c, 7, 56, 48
10, 173580, Note_on_c, 7, 49, 48
10, 173589, Note_on_c, 7, 56, 0
10, 173640, Note_on_c, 7, 56, 48
10, 173649, Note_on_c, 7, 49, 0
10, 173700, Note_on_c, 7, 49, 48
10, 173709, Note_on_c, 7, 56, 0
10, 173760, Note_on_c, 7, 56, 48
10, 173769, Note_on_c, 7, 49, 0
10, 173820, Note_on_c, 7, 49, 48
10, 173829, Note_on_c, 7, 56, 0
10, 173879, Note_on_c, 7, 49, 0
10, 173880, Note_on_c, 7, 56, 48
10, 173940, Note_on_c, 7, 49, 48
10, 173949, Note_on_c, 7, 56, 0
10, 174000, Note_on_c, 7, 56, 48
10, 174009, Note_on_c, 7, 49, 0
10, 174060, Note_on_c, 7, 49, 48
10, 174069, Note_on_c, 7, 56, 0
10, 174120, Note_on_c, 7, 56, 48
10, 174129, Note_on_c, 7, 49, 0
10, 174180, Note_on_c, 7, 49, 48
10, 174189, Note_on_c, 7, 56, 0
10, 174239, Note_on_c, 7, 49, 0
10, 174240, Note_on_c, 7, 54, 48
10, 174299, Note_on_c, 7, 54, 0
10, 174300, Note_on_c, 7, 61, 48
10, 174419, Note_on_c, 7, 61, 0
10, 174420, Note_on_c, 7, 61, 48
10, 174539, Note_on_c, 7, 61, 0
10, 174540, Note_on_c, 7, 61, 48
10, 174659, Note_on_c, 7, 61, 0
10, 174660, Note_on_c, 7, 61, 48
10, 174779, Note_on_c, 7, 61, 0
10, 174780, Note_on_c, 7, 61, 48
10, 174899, Note_on_c, 7, 61, 0
10, 174900, Note_on_c, 7, 61, 48
10, 174960, Note_on_c, 7, 62, 48
10, 174969, Note_on_c, 7, 61, 0
10, 175019, Note_on_c, 7, 62, 0
10, 175020, Note_on_c, 7, 62, 48
10, 175139, Note_on_c, 7, 62, 0
10, 175140, Note_on_c, 7, 62, 48
10, 175259, Note_on_c, 7, 62, 0
10, 175260, Note_on_c, 7, 62, 48
10, 175320, Note_on_c, 7, 63, 48
10, 175329, Note_on_c, 7, 62, 0
10, 175379, Note_on_c, 7, 63, 0
10, 175380, Note_on_c, 7, 63, 48
10, 175499, Note_on_c, 7, 63, 0
10, 175500, Note_on_c, 7, 63, 48
10, 175619, Note_on_c, 7, 63, 0
10, 175620, Note_on_c, 7, 63, 48
10, 175680, Note_on_c, 7, 62, 48
10, 175689, Note_on_c, 7, 63, 0
10, 175799, Note_on_c, 7, 62, 0
10, 175800, Note_on_c, 7, 62, 48
10, 175859, Note_on_c, 7, 62, 0
10, 175920, Note_on_c, 7, 58, 48
10, 175979, Note_on_c, 7, 58, 0
10, 176040, Note_on_c, 7, 65, 48
10, 176099, Note_on_c, 7, 65, 0
10, 176160, Note_on_c, 7, 58, 48
10, 176219, Note_on_c, 7, 58, 0
10, 176280, Note_on_c, 7, 70, 48
10, 176339, Note_on_c, 7, 70, 0
10, 176400, Note_on_c, 7, 58, 48
10, 176459, Note_on_c, 7, 58, 0
10, 176520, Note_on_c, 7, 74, 48
10, 176579, Note_on_c, 7, 74, 0
10, 176640, Note_on_c, 7, 58, 48
10, 176699, Note_on_c, 7, 58, 0
10, 176760, Note_on_c, 7, 65, 96
10, 176789, Note_on_c, 7, 65, 0
10, 176790, Note_on_c, 7, 65, 48
10, 177119, Note_on_c, 7, 65, 0
10, 177120, Note_on_c, 7, 58, 48
10, 177179, Note_on_c, 7, 58, 0
10, 177240, Note_on_c, 7, 63, 48
10, 177299, Note_on_c, 7, 63, 0
10, 177360, Note_on_c, 7, 58, 48
10, 177419, Note_on_c, 7, 58, 0
10, 177480, Note_on_c, 7, 66, 48
10, 177539, Note_on_c, 7, 66, 0
10, 177600, Note_on_c, 7, 58, 48
10, 177659, Note_on_c, 7, 58, 0
10, 177720, Note_on_c, 7, 70, 48
10, 177779, Note_on_c, 7, 70, 0
10, 177840, Note_on_c, 7, 58, 48
10, 177899, Note_on_c, 7, 58, 0
10, 177960, Note_on_c, 7, 75, 48
10, 178019, Note_on_c, 7, 75, 0
10, 178080, Note_on_c, 7, 58, 48
10, 178139, Note_on_c, 7, 58, 0
10, 178200, Note_on_c, 7, 66, 96
10, 178229, Note_on_c, 7, 66, 0
10, 178230, Note_on_c, 7, 66, 48
10, 178559, Note_on_c, 7, 66, 0
10, 178560, Note_on_c, 7, 48, 48
10, 178619, Note_on_c, 7, 48, 0
10, 178680, Note_on_c, 7, 51, 48
10, 178739, Note_on_c, 7, 51, 0
10, 178800, Note_on_c, 7, 48, 48
10, 178859, Note_on_c, 7, 48, 0
10, 178920, Note_on_c, 7, 56, 48
10, 178979, Note_on_c, 7, 56, 0
10, 179040, Note_on_c, 7, 48, 48
10, 179099, Note_on_c, 7, 48, 0
10, 179160, Note_on_c, 7, 60, 48
10, 179219, Note_on_c, 7, 60, 0
10, 179280, Note_on_c, 7, 48, 48
10, 179339, Note_on_c, 7, 48, 0
10, 179400, Note_on_c, 7, 63, 48
10, 179459, Note_on_c, 7, 63, 0
10, 179520, Note_on_c, 7, 48, 48
10, 179579, Note_on_c, 7, 48, 0
10, 179640, Note_on_c, 7, 68, 96
10, 179669, Note_on_c, 7, 68, 0
10, 179670, Note_on_c, 7, 68, 48
10, 179999, Note_on_c, 7, 68, 0
10, 180000, Note_on_c, 7, 49, 48
10, 180059, Note_on_c, 7, 49, 0
10, 180120, Note_on_c, 7, 53, 48
10, 180179, Note_on_c, 7, 53, 0
10, 180240, Note_on_c, 7, 49, 48
10, 180299, Note_on_c, 7, 49, 0
10, 180360, Note_on_c, 7, 56, 48
10, 180419, Note_on_c, 7, 56, 0
10, 180480, Note_on_c, 7, 49, 48
10, 180539, Note_on_c, 7, 49, 0
10, 180600, Note_on_c, 7, 61, 48
10, 180659, Note_on_c, 7, 61, 0
10, 180720, Note_on_c, 7, 49, 48
10, 180779, Note_on_c, 7, 49, 0
10, 180840, Note_on_c, 7, 65, 48
10, 180899, Note_on_c, 7, 65, 0
10, 180960, Note_on_c, 7, 49, 48
10, 181019, Note_on_c, 7, 49, 0
10, 181080, Note_on_c, 7, 68, 96
10, 181109, Note_on_c, 7, 68, 0
10, 181110, Note_on_c, 7, 68, 48
10, 181439, Note_on_c, 7, 68, 0
10, 181440, Note_on_c, 7, 50, 48
10, 181499, Note_on_c, 7, 50, 0
10, 181560, Note_on_c, 7, 53, 49
10, 181619, Note_on_c, 7, 53, 0
10, 181680, Note_on_c, 7, 50, 50
10, 181739, Note_on_c, 7, 50, 0
10, 181800, Note_on_c, 7, 58, 51
10, 181859, Note_on_c, 7, 58, 0
10, 181920, Note_on_c, 7, 50, 48
10, 181979, Note_on_c, 7, 50, 0
10, 182040, Note_on_c, 7, 62, 53
10, 182099, Note_on_c, 7, 62, 0
10, 182160, Note_on_c, 7, 50, 54
10, 182219, Note_on_c, 7, 50, 0
10, 182280, Note_on_c, 7, 65, 55
10, 182339, Note_on_c, 7, 65, 0
10, 182400, Note_on_c, 7, 50, 56
10, 182459, Note_on_c, 7, 50, 0
10, 182520, Note_on_c, 7, 70, 96
10, 182879, Note_on_c, 7, 70, 0
10, 182880, Note_on_c, 7, 51, 60
10, 182939, Note_on_c, 7, 51, 0
10, 183000, Note_on_c, 7, 54, 64
10, 183059, Note_on_c, 7, 54, 0
10, 183120, Note_on_c, 7, 51, 68
10, 183179, Note_on_c, 7, 51, 0
10, 183240, Note_on_c, 7, 58, 72
10, 183299, Note_on_c, 7, 58, 0
10, 183360, Note_on_c, 7, 51, 76
10, 183419, Note_on_c, 7, 51, 0
10, 183480, Note_on_c, 7, 63, 80
10, 183539, Note_on_c, 7, 63, 0
10, 183600, Note_on_c, 7, 51, 84
10, 183659, Note_on_c, 7, 51, 0
10, 183720, Note_on_c, 7, 66, 88
10, 183779, Note_on_c, 7, 66, 0
10, 183840, Note_on_c, 7, 51, 92
10, 183899, Note_on_c, 7, 51, 0
10, 183960, Note_on_c, 7, 70, 96
10, 184319, Note_on_c, 7, 70, 0
10, 184320, Note_on_c, 7, 59, 127
10, 184379, Note_on_c, 7, 59, 0
10, 184440, Note_on_c, 7, 63, 127
10, 184499, Note_on_c, 7, 63, 0
10, 184560, Note_on_c, 7, 59, 127
10, 184619, Note_on_c, 7, 59, 0
10, 184680, Note_on_c, 7, 66, 127
10, 184739, Note_on_c, 7, 66, 0
10, 184800, Note_on_c, 7, 59, 127
10, 184859, Note_on_c, 7, 59, 0
10, 184920, Note_on_c, 7, 71, 127
10, 184979, Note_on_c, 7, 71, 0
10, 185040, Note_on_c, 7, 59, 127
10, 185099, Note_on_c, 7, 59, 0
10, 185160, Note_on_c, 7, 75, 127
10, 185219, Note_on_c, 7, 75, 0
10, 185280, Note_on_c, 7, 59, 127
10, 185339, Note_on_c, 7, 59, 0
10, 185400, Note_on_c, 7, 78, 127
10, 185429, Note_on_c, 7, 78, 0
10, 185460, Note_on_c, 7, 75, 127
10, 185489, Note_on_c, 7, 75, 0
10, 185520, Note_on_c, 7, 71, 127
10, 185549, Note_on_c, 7, 71, 0
10, 185580, Note_on_c, 7, 66, 127
10, 185609, Note_on_c, 7, 66, 0
10, 185640, Note_on_c, 7, 63, 127
10, 185669, Note_on_c, 7, 63, 0
10, 185700, Note_on_c, 7, 66, 127
10, 185729, Note_on_c, 7, 66, 0
10, 185760, Note_on_c, 7, 59, 127
10, 185879, Note_on_c, 7, 59, 0
10, 186840, Note_on_c, 7, 59, 96
10, 186960, Note_on_c, 7, 63, 96
10, 186969, Note_on_c, 7, 59, 0
10, 187080, Note_on_c, 7, 66, 96
10, 187089, Note_on_c, 7, 63, 0
10, 187199, Note_on_c, 7, 66, 0
10, 188280, Note_on_c, 7, 48, 48
10, 188400, Note_on_c, 7, 51, 48
10, 188409, Note_on_c, 7, 48, 0
10, 188520, Note_on_c, 7, 57, 48
10, 188529, Note_on_c, 7, 51, 0
10, 188639, Note_on_c, 7, 57, 0
10, 188820, Note_on_c, 7, 50, 46
10, 188880, Note_on_c, 7, 53, 45
10, 188889, Note_on_c, 7, 50, 0
10, 188940, Note_on_c, 7, 58, 45
10, 188949, Note_on_c, 7, 53, 0
10, 188999, Note_on_c, 7, 58, 0
10, 189180, Note_on_c, 7, 50, 42
10, 189240, Note_on_c, 7, 53, 41
10, 189249, Note_on_c, 7, 50, 0
10, 189300, Note_on_c, 7, 58, 41
10, 189309, Note_on_c, 7, 53, 0
10, 189359, Note_on_c, 7, 58, 0
10, 189540, Note_on_c, 7, 51, 38
10, 189600, Note_on_c, 7, 54, 37
10, 189609, Note_on_c, 7, 51, 0
10, 189660, Note_on_c, 7, 58, 37
10, 189669, Note_on_c, 7, 54, 0
10, 189719, Note_on_c, 7, 58, 0
10, 189900, Note_on_c, 7, 51, 34
10, 189960, Note_on_c, 7, 54, 33
10, 189969, Note_on_c, 7, 51, 0
10, 190020, Note_on_c, 7, 58, 33
10, 190029, Note_on_c, 7, 54, 0
10, 190079, Note_on_c, 7, 58, 0
10, 196560, Note_on_c, 7, 58, 96
10, 196589, Note_on_c, 7, 58, 0
10, 196590, Note_on_c, 7, 65, 96
10, 196619, Note_on_c, 7, 65, 0
10, 196620, Note_on_c, 7, 65, 96
10, 196649, Note_on_c, 7, 65, 0
10, 196650, Note_on_c, 7, 65, 96
10, 196679, Note_on_c, 7, 65, 0
10, 196680, Note_on_c, 7, 65, 96
10, 196709, Note_on_c, 7, 65, 0
10, 196710, Note_on_c, 7, 65, 96
10, 196739, Note_on_c, 7, 65, 0
10, 196740, Note_on_c, 7, 65, 96
10, 196769, Note_on_c, 7, 65, 0
10, 196770, Note_on_c, 7, 65, 96
10, 196799, Note_on_c, 7, 65, 0
10, 196800, Note_on_c, 7, 65, 96
10, 196829, Note_on_c, 7, 65, 0
10, 196830, Note_on_c, 7, 65, 96
10, 196859, Note_on_c, 7, 65, 0
10, 196860, Note_on_c, 7, 65, 96
10, 196889, Note_on_c, 7, 65, 0
10, 196890, Note_on_c, 7, 65, 96
10, 196919, Note_on_c, 7, 65, 0
10, 196920, Note_on_c, 7, 70, 127
10, 196949, Note_on_c, 7, 70, 0
10, 196950, Note_on_c, 7, 70, 127
10, 196979, Note_on_c, 7, 70, 0
10, 196980, Note_on_c, 7, 70, 127
10, 197009, Note_on_c, 7, 70, 0
10, 197010, Note_on_c, 7, 70, 127
10, 197039, Note_on_c, 7, 70, 0
10, 197040, Note_on_c, 7, 70, 127
10, 197069, Note_on_c, 7, 70, 0
10, 197070, Note_on_c, 7, 70, 127
10, 197099, Note_on_c, 7, 70, 0
10, 197100, Note_on_c, 7, 70, 127
10, 197129, Note_on_c, 7, 70, 0
10, 197130, Note_on_c, 7, 70, 127
10, 197159, Note_on_c, 7, 70, 0
10, 197160, Note_on_c, 7, 70, 127
10, 197189, Note_on_c, 7, 70, 0
10, 197190, Note_on_c, 7, 70, 127
10, 197219, Note_on_c, 7, 70, 0
10, 197220, Note_on_c, 7, 70, 127
10, 197249, Note_on_c, 7, 70, 0
10, 197250, Note_on_c, 7, 70, 127
10, 197279, Note_on_c, 7, 70, 0
10, 197280, Note_on_c, 7, 63, 127
10, 197309, Note_on_c, 7, 63, 0
10, 197310, Note_on_c, 7, 63, 48
10, 197339, Note_on_c, 7, 63, 0
10, 197340, Note_on_c, 7, 58, 48
10, 197399, Note_on_c, 7, 58, 0
10, 197400, Note_on_c, 7, 58, 48
10, 197459, Note_on_c, 7, 58, 0
10, 197460, Note_on_c, 7, 58, 48
10, 197519, Note_on_c, 7, 58, 0
10, 197520, Note_on_c, 7, 58, 48
10, 197579, Note_on_c, 7, 58, 0
10, 197580, Note_on_c, 7, 58, 48
10, 197639, Note_on_c, 7, 58, 0
10, 197640, Note_on_c, 7, 58, 48
10, 197699, Note_on_c, 7, 58, 0
10, 197700, Note_on_c, 7, 58, 48
10, 197759, Note_on_c, 7, 58, 0
10, 197760, Note_on_c, 7, 58, 48
10, 197819, Note_on_c, 7, 58, 0
10, 197820, Note_on_c, 7, 58, 48
10, 197879, Note_on_c, 7, 58, 0
10, 197880, Note_on_c, 7, 58, 48
10, 197939, Note_on_c, 7, 58, 0
10, 197940, Note_on_c, 7, 58, 48
10, 197999, Note_on_c, 7, 58, 0
10, 198000, Note_on_c, 7, 58, 48
10, 198059, Note_on_c, 7, 58, 0
10, 198060, Note_on_c, 7, 58, 48
10, 198119, Note_on_c, 7, 58, 0
10, 198120, Note_on_c, 7, 58, 48
10, 198179, Note_on_c, 7, 58, 0
10, 198180, Note_on_c, 7, 58, 48
10, 198239, Note_on_c, 7, 58, 0
10, 198240, Note_on_c, 7, 58, 48
10, 198299, Note_on_c, 7, 58, 0
10, 198300, Note_on_c, 7, 58, 48
10, 198359, Note_on_c, 7, 58, 0
10, 198360, Note_on_c, 7, 58, 48
10, 198419, Note_on_c, 7, 58, 0
10, 198420, Note_on_c, 7, 58, 48
10, 198479, Note_on_c, 7, 58, 0
10, 198480, Note_on_c, 7, 58, 48
10, 198539, Note_on_c, 7, 58, 0
10, 198540, Note_on_c, 7, 58, 48
10, 198599, Note_on_c, 7, 58, 0
10, 198600, Note_on_c, 7, 58, 48
10, 198659, Note_on_c, 7, 58, 0
10, 198660, Note_on_c, 7, 58, 48
10, 198719, Note_on_c, 7, 58, 0
10, 198720, Note_on_c, 7, 58, 48
10, 198779, Note_on_c, 7, 58, 0
10, 198780, Note_on_c, 7, 67, 52
10, 198899, Note_on_c, 7, 67, 0
10, 198900, Note_on_c, 7, 67, 60
10, 199019, Note_on_c, 7, 67, 0
10, 199020, Note_on_c, 7, 67, 68
10, 199139, Note_on_c, 7, 67, 0
10, 199140, Note_on_c, 7, 67, 76
10, 199259, Note_on_c, 7, 67, 0
10, 199260, Note_on_c, 7, 67, 88
10, 199379, Note_on_c, 7, 67, 0
10, 199380, Note_on_c, 7, 67, 96
10, 199799, Note_on_c, 7, 67, 0
10, 199800, Note_on_c, 7, 65, 48
10, 200280, Note_on_c, 7, 64, 48
10, 200289, Note_on_c, 7, 65, 0
10, 200400, Note_on_c, 7, 62, 48
10, 200409, Note_on_c, 7, 64, 0
10, 200519, Note_on_c, 7, 62, 0
10, 200520, Note_on_c, 7, 64, 48
10, 200539, Note_on_c, 7, 64, 0
10, 200540, Note_on_c, 7, 65, 48
10, 200559, Note_on_c, 7, 65, 0
10, 200560, Note_on_c, 7, 64, 48
10, 200579, Note_on_c, 7, 64, 0
10, 200580, Note_on_c, 7, 65, 48
10, 200599, Note_on_c, 7, 65, 0
10, 200600, Note_on_c, 7, 64, 48
10, 200619, Note_on_c, 7, 64, 0
10, 200620, Note_on_c, 7, 65, 48
10, 200639, Note_on_c, 7, 65, 0
10, 200640, Note_on_c, 7, 64, 48
10, 200659, Note_on_c, 7, 64, 0
10, 200660, Note_on_c, 7, 65, 48
10, 200679, Note_on_c, 7, 65, 0
10, 200680, Note_on_c, 7, 64, 48
10, 200699, Note_on_c, 7, 64, 0
10, 200700, Note_on_c, 7, 65, 48
10, 200719, Note_on_c, 7, 65, 0
10, 200720, Note_on_c, 7, 64, 48
10, 200739, Note_on_c, 7, 64, 0
10, 200740, Note_on_c, 7, 65, 48
10, 200759, Note_on_c, 7, 65, 0
10, 200760, Note_on_c, 7, 64, 48
10, 200779, Note_on_c, 7, 64, 0
10, 200780, Note_on_c, 7, 65, 48
10, 200809, Note_on_c, 7, 65, 0
10, 200810, Note_on_c, 7, 64, 48
10, 200839, Note_on_c, 7, 64, 0
10, 200840, Note_on_c, 7, 62, 48
10, 200859, Note_on_c, 7, 62, 0
10, 200860, Note_on_c, 7, 64, 48
10, 200879, Note_on_c, 7, 64, 0
10, 200880, Note_on_c, 7, 65, 48
10, 200939, Note_on_c, 7, 65, 0
10, 200940, Note_on_c, 7, 53, 48
10, 200999, Note_on_c, 7, 53, 0
10, 201000, Note_on_c, 7, 53, 48
10, 201059, Note_on_c, 7, 53, 0
10, 201060, Note_on_c, 7, 53, 48
10, 201119, Note_on_c, 7, 53, 0
10, 201120, Note_on_c, 7, 53, 48
10, 201179, Note_on_c, 7, 53, 0
10, 201180, Note_on_c, 7, 53, 48
10, 201239, Note_on_c, 7, 53, 0
10, 201240, Note_on_c, 7, 53, 48
10, 201299, Note_on_c, 7, 53, 0
10, 201300, Note_on_c, 7, 53, 48
10, 201359, Note_on_c, 7, 53, 0
10, 201360, Note_on_c, 7, 53, 48
10, 201419, Note_on_c, 7, 53, 0
10, 201420, Note_on_c, 7, 53, 48
10, 201479, Note_on_c, 7, 53, 0
10, 201480, Note_on_c, 7, 53, 48
10, 201539, Note_on_c, 7, 53, 0
10, 201540, Note_on_c, 7, 53, 48
10, 201599, Note_on_c, 7, 53, 0
10, 201600, Note_on_c, 7, 53, 48
10, 201659, Note_on_c, 7, 53, 0
10, 201660, Note_on_c, 7, 53, 48
10, 201719, Note_on_c, 7, 53, 0
10, 201720, Note_on_c, 7, 53, 48
10, 201779, Note_on_c, 7, 53, 0
10, 201780, Note_on_c, 7, 53, 48
10, 201839, Note_on_c, 7, 53, 0
10, 201840, Note_on_c, 7, 53, 48
10, 201899, Note_on_c, 7, 53, 0
10, 201900, Note_on_c, 7, 53, 48
10, 201959, Note_on_c, 7, 53, 0
10, 201960, Note_on_c, 7, 53, 48
10, 202019, Note_on_c, 7, 53, 0
10, 202020, Note_on_c, 7, 53, 48
10, 202079, Note_on_c, 7, 53, 0
10, 202080, Note_on_c, 7, 53, 48
10, 202139, Note_on_c, 7, 53, 0
10, 202140, Note_on_c, 7, 53, 48
10, 202199, Note_on_c, 7, 53, 0
10, 202200, Note_on_c, 7, 53, 48
10, 202259, Note_on_c, 7, 53, 0
10, 202260, Note_on_c, 7, 53, 48
10, 202319, Note_on_c, 7, 53, 0
10, 202320, Note_on_c, 7, 52, 48
10, 202320, Note_on_c, 7, 55, 48
10, 202379, Note_on_c, 7, 55, 0
10, 202379, Note_on_c, 7, 52, 0
10, 202380, Note_on_c, 7, 52, 48
10, 202380, Note_on_c, 7, 55, 48
10, 202439, Note_on_c, 7, 55, 0
10, 202439, Note_on_c, 7, 52, 0
10, 202440, Note_on_c, 7, 52, 48
10, 202440, Note_on_c, 7, 55, 48
10, 202499, Note_on_c, 7, 55, 0
10, 202499, Note_on_c, 7, 52, 0
10, 202500, Note_on_c, 7, 52, 48
10, 202500, Note_on_c, 7, 55, 48
10, 202559, Note_on_c, 7, 55, 0
10, 202559, Note_on_c, 7, 52, 0
10, 202560, Note_on_c, 7, 52, 48
10, 202560, Note_on_c, 7, 55, 48
10, 202619, Note_on_c, 7, 55, 0
10, 202619, Note_on_c, 7, 52, 0
10, 202620, Note_on_c, 7, 52, 48
10, 202620, Note_on_c, 7, 55, 48
10, 202679, Note_on_c, 7, 55, 0
10, 202679, Note_on_c, 7, 52, 0
10, 202680, Note_on_c, 7, 52, 48
10, 202680, Note_on_c, 7, 55, 48
10, 202739, Note_on_c, 7, 55, 0
10, 202739, Note_on_c, 7, 52, 0
10, 202740, Note_on_c, 7, 52, 48
10, 202740, Note_on_c, 7, 55, 48
10, 202799, Note_on_c, 7, 55, 0
10, 202799, Note_on_c, 7, 52, 0
10, 202800, Note_on_c, 7, 52, 48
10, 202800, Note_on_c, 7, 55, 48
10, 202859, Note_on_c, 7, 55, 0
10, 202859, Note_on_c, 7, 52, 0
10, 202860, Note_on_c, 7, 52, 48
10, 202860, Note_on_c, 7, 55, 48
10, 202919, Note_on_c, 7, 55, 0
10, 202919, Note_on_c, 7, 52, 0
10, 202920, Note_on_c, 7, 52, 48
10, 202920, Note_on_c, 7, 55, 48
10, 202979, Note_on_c, 7, 55, 0
10, 202979, Note_on_c, 7, 52, 0
10, 202980, Note_on_c, 7, 52, 48
10, 202980, Note_on_c, 7, 55, 48
10, 203039, Note_on_c, 7, 55, 0
10, 203039, Note_on_c, 7, 52, 0
10, 203040, Note_on_c, 7, 53, 48
10, 203099, Note_on_c, 7, 53, 0
10, 203100, Note_on_c, 7, 53, 50
10, 203159, Note_on_c, 7, 53, 0
10, 203160, Note_on_c, 7, 53, 52
10, 203219, Note_on_c, 7, 53, 0
10, 203220, Note_on_c, 7, 53, 54
10, 203279, Note_on_c, 7, 53, 0
10, 203280, Note_on_c, 7, 53, 56
10, 203339, Note_on_c, 7, 53, 0
10, 203340, Note_on_c, 7, 53, 58
10, 203399, Note_on_c, 7, 53, 0
10, 203400, Note_on_c, 7, 53, 60
10, 203459, Note_on_c, 7, 53, 0
10, 203460, Note_on_c, 7, 53, 62
10, 203519, Note_on_c, 7, 53, 0
10, 203520, Note_on_c, 7, 53, 64
10, 203579, Note_on_c, 7, 53, 0
10, 203580, Note_on_c, 7, 53, 66
10, 203639, Note_on_c, 7, 53, 0
10, 203640, Note_on_c, 7, 53, 68
10, 203699, Note_on_c, 7, 53, 0
10, 203700, Note_on_c, 7, 53, 70
10, 203759, Note_on_c, 7, 53, 0
10, 203760, Note_on_c, 7, 53, 48
10, 203819, Note_on_c, 7, 53, 0
10, 203820, Note_on_c, 7, 49, 48
10, 203820, Note_on_c, 7, 53, 48
10, 203879, Note_on_c, 7, 53, 0
10, 203879, Note_on_c, 7, 49, 0
10, 203880, Note_on_c, 7, 53, 48
10, 203880, Note_on_c, 7, 49, 48
10, 203939, Note_on_c, 7, 49, 0
10, 203939, Note_on_c, 7, 53, 0
10, 203940, Note_on_c, 7, 53, 48
10, 203940, Note_on_c, 7, 49, 48
10, 203999, Note_on_c, 7, 49, 0
10, 203999, Note_on_c, 7, 53, 0
10, 204000, Note_on_c, 7, 53, 48
10, 204000, Note_on_c, 7, 49, 48
10, 204059, Note_on_c, 7, 49, 0
10, 204059, Note_on_c, 7, 53, 0
10, 204060, Note_on_c, 7, 53, 48
10, 204060, Note_on_c, 7, 49, 48
10, 204119, Note_on_c, 7, 49, 0
10, 204119, Note_on_c, 7, 53, 0
10, 204120, Note_on_c, 7, 53, 48
10, 204120, Note_on_c, 7, 49, 48
10, 204179, Note_on_c, 7, 49, 0
10, 204179, Note_on_c, 7, 53, 0
10, 204180, Note_on_c, 7, 53, 48
10, 204180, Note_on_c, 7, 49, 48
10, 204239, Note_on_c, 7, 49, 0
10, 204239, Note_on_c, 7, 53, 0
10, 204240, Note_on_c, 7, 53, 48
10, 204240, Note_on_c, 7, 49, 48
10, 204299, Note_on_c, 7, 49, 0
10, 204299, Note_on_c, 7, 53, 0
10, 204300, Note_on_c, 7, 53, 48
10, 204300, Note_on_c, 7, 49, 48
10, 204359, Note_on_c, 7, 49, 0
10, 204359, Note_on_c, 7, 53, 0
10, 204360, Note_on_c, 7, 53, 48
10, 204360, Note_on_c, 7, 49, 48
10, 204419, Note_on_c, 7, 49, 0
10, 204419, Note_on_c, 7, 53, 0
10, 204420, Note_on_c, 7, 53, 48
10, 204420, Note_on_c, 7, 49, 48
10, 204479, Note_on_c, 7, 49, 0
10, 204479, Note_on_c, 7, 53, 0
10, 204480, Note_on_c, 7, 53, 48
10, 204480, Note_on_c, 7, 49, 48
10, 204539, Note_on_c, 7, 49, 0
10, 204539, Note_on_c, 7, 53, 0
10, 204540, Note_on_c, 7, 53, 48
10, 204540, Note_on_c, 7, 49, 48
10, 204599, Note_on_c, 7, 49, 0
10, 204599, Note_on_c, 7, 53, 0
10, 204600, Note_on_c, 7, 53, 48
10, 204600, Note_on_c, 7, 49, 48
10, 204659, Note_on_c, 7, 49, 0
10, 204659, Note_on_c, 7, 53, 0
10, 204660, Note_on_c, 7, 53, 48
10, 204660, Note_on_c, 7, 49, 48
10, 204719, Note_on_c, 7, 49, 0
10, 204719, Note_on_c, 7, 53, 0
10, 204720, Note_on_c, 7, 53, 48
10, 204720, Note_on_c, 7, 49, 48
10, 204779, Note_on_c, 7, 49, 0
10, 204779, Note_on_c, 7, 53, 0
10, 204780, Note_on_c, 7, 53, 48
10, 204780, Note_on_c, 7, 49, 48
10, 204839, Note_on_c, 7, 49, 0
10, 204839, Note_on_c, 7, 53, 0
10, 204840, Note_on_c, 7, 53, 48
10, 204840, Note_on_c, 7, 49, 48
10, 204899, Note_on_c, 7, 49, 0
10, 204899, Note_on_c, 7, 53, 0
10, 204900, Note_on_c, 7, 53, 48
10, 204900, Note_on_c, 7, 49, 48
10, 204959, Note_on_c, 7, 49, 0
10, 204959, Note_on_c, 7, 53, 0
10, 204960, Note_on_c, 7, 53, 48
10, 204960, Note_on_c, 7, 49, 48
10, 205019, Note_on_c, 7, 49, 0
10, 205019, Note_on_c, 7, 53, 0
10, 205020, Note_on_c, 7, 53, 48
10, 205020, Note_on_c, 7, 49, 48
10, 205079, Note_on_c, 7, 49, 0
10, 205079, Note_on_c, 7, 53, 0
10, 205080, Note_on_c, 7, 53, 48
10, 205080, Note_on_c, 7, 49, 48
10, 205139, Note_on_c, 7, 49, 0
10, 205139, Note_on_c, 7, 53, 0
10, 205140, Note_on_c, 7, 53, 48
10, 205140, Note_on_c, 7, 49, 48
10, 205199, Note_on_c, 7, 49, 0
10, 205199, Note_on_c, 7, 53, 0
10, 205200, Note_on_c, 7, 54, 48
10, 205200, Note_on_c, 7, 51, 48
10, 205259, Note_on_c, 7, 51, 0
10, 205259, Note_on_c, 7, 54, 0
10, 205260, Note_on_c, 7, 51, 48
10, 205260, Note_on_c, 7, 54, 48
10, 205319, Note_on_c, 7, 54, 0
10, 205319, Note_on_c, 7, 51, 0
10, 205320, Note_on_c, 7, 54, 48
10, 205320, Note_on_c, 7, 51, 48
10, 205379, Note_on_c, 7, 51, 0
10, 205379, Note_on_c, 7, 54, 0
10, 205380, Note_on_c, 7, 54, 48
10, 205380, Note_on_c, 7, 51, 48
10, 205439, Note_on_c, 7, 51, 0
10, 205439, Note_on_c, 7, 54, 0
10, 205440, Note_on_c, 7, 54, 48
10, 205440, Note_on_c, 7, 51, 48
10, 205499, Note_on_c, 7, 51, 0
10, 205499, Note_on_c, 7, 54, 0
10, 205500, Note_on_c, 7, 54, 48
10, 205500, Note_on_c, 7, 51, 48
10, 205559, Note_on_c, 7, 51, 0
10, 205559, Note_on_c, 7, 54, 0
10, 205560, Note_on_c, 7, 51, 48
10, 205560, Note_on_c, 7, 54, 48
10, 205619, Note_on_c, 7, 54, 0
10, 205619, Note_on_c, 7, 51, 0
10, 205620, Note_on_c, 7, 51, 48
10, 205620, Note_on_c, 7, 54, 48
10, 205679, Note_on_c, 7, 54, 0
10, 205679, Note_on_c, 7, 51, 0
10, 205680, Note_on_c, 7, 51, 48
10, 205680, Note_on_c, 7, 54, 48
10, 205739, Note_on_c, 7, 54, 0
10, 205739, Note_on_c, 7, 51, 0
10, 205740, Note_on_c, 7, 51, 48
10, 205740, Note_on_c, 7, 54, 48
10, 205799, Note_on_c, 7, 54, 0
10, 205799, Note_on_c, 7, 51, 0
10, 205800, Note_on_c, 7, 51, 48
10, 205800, Note_on_c, 7, 54, 48
10, 205859, Note_on_c, 7, 54, 0
10, 205859, Note_on_c, 7, 51, 0
10, 205860, Note_on_c, 7, 51, 48
10, 205860, Note_on_c, 7, 54, 48
10, 205919, Note_on_c, 7, 54, 0
10, 205919, Note_on_c, 7, 51, 0
10, 205920, Note_on_c, 7, 53, 48
10, 205920, Note_on_c, 7, 49, 48
10, 205979, Note_on_c, 7, 49, 0
10, 205979, Note_on_c, 7, 53, 0
10, 205980, Note_on_c, 7, 49, 50
10, 206099, Note_on_c, 7, 49, 0
10, 206100, Note_on_c, 7, 49, 54
10, 206219, Note_on_c, 7, 49, 0
10, 206220, Note_on_c, 7, 49, 58
10, 206280, Note_on_c, 7, 51, 56
10, 206289, Note_on_c, 7, 49, 0
10, 206339, Note_on_c, 7, 51, 0
10, 206340, Note_on_c, 7, 51, 52
10, 206459, Note_on_c, 7, 51, 0
10, 206460, Note_on_c, 7, 51, 44
10, 206579, Note_on_c, 7, 51, 0
10, 206580, Note_on_c, 7, 51, 36
10, 206639, Note_on_c, 7, 51, 0
10, 206640, Note_on_c, 7, 53, 32
10, 206760, Note_on_c, 7, 58, 32
10, 206769, Note_on_c, 7, 53, 0
10, 206880, Note_on_c, 7, 62, 32
10, 206889, Note_on_c, 7, 58, 0
10, 207000, Note_on_c, 7, 58, 32
10, 207009, Note_on_c, 7, 62, 0
10, 207240, Note_on_c, 7, 53, 32
10, 207249, Note_on_c, 7, 58, 0
10, 207359, Note_on_c, 7, 53, 0
10, 207360, Note_on_c, 7, 58, 32
10, 207389, Note_on_c, 7, 58, 0
10, 207420, Note_on_c, 7, 62, 34
10, 207449, Note_on_c, 7, 62, 0
10, 207480, Note_on_c, 7, 65, 36
10, 207509, Note_on_c, 7, 65, 0
10, 207540, Note_on_c, 7, 58, 38
10, 207569, Note_on_c, 7, 58, 0
10, 207600, Note_on_c, 7, 62, 40
10, 207629, Note_on_c, 7, 62, 0
10, 207660, Note_on_c, 7, 65, 42
10, 207689, Note_on_c, 7, 65, 0
10, 207720, Note_on_c, 7, 68, 44
10, 207749, Note_on_c, 7, 68, 0
10, 207780, Note_on_c, 7, 62, 46
10, 207809, Note_on_c, 7, 62, 0
10, 207840, Note_on_c, 7, 65, 48
10, 207869, Note_on_c, 7, 65, 0
10, 207900, Note_on_c, 7, 68, 50
10, 207929, Note_on_c, 7, 68, 0
10, 207960, Note_on_c, 7, 72, 52
10, 207989, Note_on_c, 7, 72, 0
10, 208020, Note_on_c, 7, 70, 54
10, 208049, Note_on_c, 7, 70, 0
10, 208080, Note_on_c, 7, 68, 56
10, 208109, Note_on_c, 7, 68, 0
10, 208140, Note_on_c, 7, 70, 58
10, 208169, Note_on_c, 7, 70, 0
10, 208200, Note_on_c, 7, 68, 60
10, 208229, Note_on_c, 7, 68, 0
10, 208260, Note_on_c, 7, 67, 62
10, 208289, Note_on_c, 7, 67, 0
10, 208320, Note_on_c, 7, 65, 64
10, 208349, Note_on_c, 7, 65, 0
10, 208380, Note_on_c, 7, 63, 68
10, 208409, Note_on_c, 7, 63, 0
10, 208440, Note_on_c, 7, 62, 72
10, 208469, Note_on_c, 7, 62, 0
10, 208500, Note_on_c, 7, 60, 76
10, 208529, Note_on_c, 7, 60, 0
10, 208560, Note_on_c, 7, 58, 80
10, 208589, Note_on_c, 7, 58, 0
10, 208620, Note_on_c, 7, 70, 84
10, 208649, Note_on_c, 7, 70, 0
10, 208680, Note_on_c, 7, 70, 88
10, 208709, Note_on_c, 7, 70, 0
10, 208740, Note_on_c, 7, 70, 92
10, 208769, Note_on_c, 7, 70, 0
10, 208800, Note_on_c, 7, 63, 96
10, 208829, Note_on_c, 7, 63, 0
10, 208830, Note_on_c, 7, 58, 96
10, 208830, Note_on_c, 7, 55, 96
10, 208859, Note_on_c, 7, 55, 0
10, 208859, Note_on_c, 7, 58, 0
10, 208860, Note_on_c, 7, 55, 96
10, 208860, Note_on_c, 7, 58, 96
10, 208889, Note_on_c, 7, 58, 0
10, 208889, Note_on_c, 7, 55, 0
10, 208890, Note_on_c, 7, 58, 96
10, 208890, Note_on_c, 7, 55, 96
10, 208919, Note_on_c, 7, 55, 0
10, 208919, Note_on_c, 7, 58, 0
10, 208920, Note_on_c, 7, 55, 96
10, 208920, Note_on_c, 7, 58, 96
10, 208949, Note_on_c, 7, 58, 0
10, 208949, Note_on_c, 7, 55, 0
10, 208950, Note_on_c, 7, 58, 96
10, 208950, Note_on_c, 7, 55, 96
10, 208979, Note_on_c, 7, 55, 0
10, 208979, Note_on_c, 7, 58, 0
10, 208980, Note_on_c, 7, 55, 96
10, 208980, Note_on_c, 7, 58, 96
10, 209009, Note_on_c, 7, 58, 0
10, 209009, Note_on_c, 7, 55, 0
10, 209010, Note_on_c, 7, 58, 96
10, 209010, Note_on_c, 7, 55, 96
10, 209039, Note_on_c, 7, 55, 0
10, 209039, Note_on_c, 7, 58, 0
10, 209040, Note_on_c, 7, 55, 96
10, 209040, Note_on_c, 7, 58, 96
10, 209069, Note_on_c, 7, 58, 0
10, 209069, Note_on_c, 7, 55, 0
10, 209070, Note_on_c, 7, 58, 96
10, 209070, Note_on_c, 7, 55, 96
10, 209099, Note_on_c, 7, 55, 0
10, 209099, Note_on_c, 7, 58, 0
10, 209100, Note_on_c, 7, 55, 96
10, 209100, Note_on_c, 7, 58, 96
10, 209129, Note_on_c, 7, 58, 0
10, 209129, Note_on_c, 7, 55, 0
10, 209130, Note_on_c, 7, 58, 96
10, 209130, Note_on_c, 7, 55, 96
10, 209159, Note_on_c, 7, 55, 0
10, 209159, Note_on_c, 7, 58, 0
10, 209160, Note_on_c, 7, 55, 96
10, 209160, Note_on_c, 7, 58, 96
10, 209189, Note_on_c, 7, 58, 0
10, 209189, Note_on_c, 7, 55, 0
10, 209190, Note_on_c, 7, 58, 96
10, 209190, Note_on_c, 7, 55, 96
10, 209219, Note_on_c, 7, 55, 0
10, 209219, Note_on_c, 7, 58, 0
10, 209220, Note_on_c, 7, 55, 96
10, 209220, Note_on_c, 7, 58, 96
10, 209249, Note_on_c, 7, 58, 0
10, 209249, Note_on_c, 7, 55, 0
10, 209250, Note_on_c, 7, 58, 96
10, 209250, Note_on_c, 7, 55, 96
10, 209279, Note_on_c, 7, 55, 0
10, 209279, Note_on_c, 7, 58, 0
10, 209280, Note_on_c, 7, 55, 96
10, 209280, Note_on_c, 7, 58, 96
10, 209309, Note_on_c, 7, 58, 0
10, 209309, Note_on_c, 7, 55, 0
10, 209310, Note_on_c, 7, 58, 96
10, 209310, Note_on_c, 7, 55, 96
10, 209339, Note_on_c, 7, 55, 0
10, 209339, Note_on_c, 7, 58, 0
10, 209340, Note_on_c, 7, 55, 96
10, 209340, Note_on_c, 7, 58, 96
10, 209369, Note_on_c, 7, 58, 0
10, 209369, Note_on_c, 7, 55, 0
10, 209370, Note_on_c, 7, 58, 96
10, 209370, Note_on_c, 7, 55, 96
10, 209399, Note_on_c, 7, 55, 0
10, 209399, Note_on_c, 7, 58, 0
10, 209400, Note_on_c, 7, 55, 96
10, 209400, Note_on_c, 7, 58, 96
10, 209429, Note_on_c, 7, 58, 0
10, 209429, Note_on_c, 7, 55, 0
10, 209430, Note_on_c, 7, 58, 96
10, 209430, Note_on_c, 7, 55, 96
10, 209459, Note_on_c, 7, 55, 0
10, 209459, Note_on_c, 7, 58, 0
10, 209460, Note_on_c, 7, 55, 96
10, 209460, Note_on_c, 7, 58, 96
10, 209489, Note_on_c, 7, 58, 0
10, 209489, Note_on_c, 7, 55, 0
10, 209490, Note_on_c, 7, 58, 96
10, 209490, Note_on_c, 7, 55, 96
10, 209519, Note_on_c, 7, 55, 0
10, 209519, Note_on_c, 7, 58, 0
10, 209520, Note_on_c, 7, 55, 96
10, 209520, Note_on_c, 7, 58, 96
10, 209549, Note_on_c, 7, 58, 0
10, 209549, Note_on_c, 7, 55, 0
10, 209550, Note_on_c, 7, 58, 96
10, 209550, Note_on_c, 7, 55, 96
10, 209579, Note_on_c, 7, 55, 0
10, 209579, Note_on_c, 7, 58, 0
10, 209580, Note_on_c, 7, 55, 96
10, 209580, Note_on_c, 7, 58, 96
10, 209609, Note_on_c, 7, 58, 0
10, 209609, Note_on_c, 7, 55, 0
10, 209610, Note_on_c, 7, 58, 96
10, 209610, Note_on_c, 7, 55, 96
10, 209639, Note_on_c, 7, 55, 0
10, 209639, Note_on_c, 7, 58, 0
10, 209640, Note_on_c, 7, 55, 96
10, 209640, Note_on_c, 7, 58, 96
10, 209669, Note_on_c, 7, 58, 0
10, 209669, Note_on_c, 7, 55, 0
10, 209670, Note_on_c, 7, 58, 96
10, 209670, Note_on_c, 7, 55, 96
10, 209699, Note_on_c, 7, 55, 0
10, 209699, Note_on_c, 7, 58, 0
10, 209700, Note_on_c, 7, 55, 96
10, 209700, Note_on_c, 7, 58, 96
10, 209729, Note_on_c, 7, 58, 0
10, 209729, Note_on_c, 7, 55, 0
10, 209730, Note_on_c, 7, 58, 96
10, 209730, Note_on_c, 7, 55, 96
10, 209759, Note_on_c, 7, 55, 0
10, 209759, Note_on_c, 7, 58, 0
10, 209760, Note_on_c, 7, 55, 96
10, 209760, Note_on_c, 7, 58, 96
10, 209789, Note_on_c, 7, 58, 0
10, 209789, Note_on_c, 7, 55, 0
10, 209790, Note_on_c, 7, 58, 96
10, 209790, Note_on_c, 7, 55, 96
10, 209819, Note_on_c, 7, 55, 0
10, 209819, Note_on_c, 7, 58, 0
10, 209820, Note_on_c, 7, 55, 96
10, 209820, Note_on_c, 7, 58, 96
10, 209849, Note_on_c, 7, 58, 0
10, 209849, Note_on_c, 7, 55, 0
10, 209850, Note_on_c, 7, 58, 96
10, 209850, Note_on_c, 7, 55, 96
10, 209879, Note_on_c, 7, 55, 0
10, 209879, Note_on_c, 7, 58, 0
10, 209880, Note_on_c, 7, 55, 96
10, 209880, Note_on_c, 7, 58, 96
10, 209909, Note_on_c, 7, 58, 0
10, 209909, Note_on_c, 7, 55, 0
10, 209910, Note_on_c, 7, 58, 96
10, 209910, Note_on_c, 7, 55, 96
10, 209939, Note_on_c, 7, 55, 0
10, 209939, Note_on_c, 7, 58, 0
10, 209940, Note_on_c, 7, 55, 96
10, 209940, Note_on_c, 7, 58, 96
10, 209969, Note_on_c, 7, 58, 0
10, 209969, Note_on_c, 7, 55, 0
10, 209970, Note_on_c, 7, 58, 96
10, 209970, Note_on_c, 7, 55, 96
10, 209999, Note_on_c, 7, 55, 0
10, 209999, Note_on_c, 7, 58, 0
10, 210000, Note_on_c, 7, 55, 96
10, 210000, Note_on_c, 7, 58, 96
10, 210029, Note_on_c, 7, 58, 0
10, 210029, Note_on_c, 7, 55, 0
10, 210030, Note_on_c, 7, 58, 96
10, 210030, Note_on_c, 7, 55, 96
10, 210059, Note_on_c, 7, 55, 0
10, 210059, Note_on_c, 7, 58, 0
10, 210060, Note_on_c, 7, 55, 96
10, 210060, Note_on_c, 7, 58, 96
10, 210089, Note_on_c, 7, 58, 0
10, 210089, Note_on_c, 7, 55, 0
10, 210090, Note_on_c, 7, 58, 96
10, 210090, Note_on_c, 7, 55, 96
10, 210119, Note_on_c, 7, 55, 0
10, 210119, Note_on_c, 7, 58, 0
10, 210120, Note_on_c, 7, 55, 112
10, 210120, Note_on_c, 7, 61, 112
10, 210149, Note_on_c, 7, 61, 0
10, 210149, Note_on_c, 7, 55, 0
10, 210150, Note_on_c, 7, 61, 96
10, 210150, Note_on_c, 7, 55, 96
10, 210179, Note_on_c, 7, 55, 0
10, 210179, Note_on_c, 7, 61, 0
10, 210180, Note_on_c, 7, 61, 96
10, 210180, Note_on_c, 7, 55, 96
10, 210209, Note_on_c, 7, 55, 0
10, 210209, Note_on_c, 7, 61, 0
10, 210210, Note_on_c, 7, 61, 96
10, 210210, Note_on_c, 7, 55, 96
10, 210239, Note_on_c, 7, 55, 0
10, 210239, Note_on_c, 7, 61, 0
10, 210240, Note_on_c, 7, 56, 96
10, 210240, Note_on_c, 7, 60, 96
10, 210269, Note_on_c, 7, 60, 0
10, 210269, Note_on_c, 7, 56, 0
10, 210270, Note_on_c, 7, 56, 96
10, 210270, Note_on_c, 7, 60, 96
10, 210299, Note_on_c, 7, 60, 0
10, 210299, Note_on_c, 7, 56, 0
10, 210300, Note_on_c, 7, 56, 96
10, 210300, Note_on_c, 7, 60, 96
10, 210329, Note_on_c, 7, 60, 0
10, 210329, Note_on_c, 7, 56, 0
10, 210330, Note_on_c, 7, 56, 96
10, 210330, Note_on_c, 7, 60, 96
10, 210359, Note_on_c, 7, 60, 0
10, 210359, Note_on_c, 7, 56, 0
10, 210360, Note_on_c, 7, 56, 96
10, 210360, Note_on_c, 7, 60, 96
10, 210389, Note_on_c, 7, 60, 0
10, 210389, Note_on_c, 7, 56, 0
10, 210390, Note_on_c, 7, 56, 96
10, 210390, Note_on_c, 7, 60, 96
10, 210419, Note_on_c, 7, 60, 0
10, 210419, Note_on_c, 7, 56, 0
10, 210420, Note_on_c, 7, 56, 96
10, 210420, Note_on_c, 7, 60, 96
10, 210449, Note_on_c, 7, 60, 0
10, 210449, Note_on_c, 7, 56, 0
10, 210450, Note_on_c, 7, 56, 96
10, 210450, Note_on_c, 7, 60, 96
10, 210479, Note_on_c, 7, 60, 0
10, 210479, Note_on_c, 7, 56, 0
10, 210480, Note_on_c, 7, 56, 96
10, 210480, Note_on_c, 7, 60, 96
10, 210509, Note_on_c, 7, 60, 0
10, 210509, Note_on_c, 7, 56, 0
10, 210510, Note_on_c, 7, 56, 96
10, 210510, Note_on_c, 7, 60, 96
10, 210539, Note_on_c, 7, 60, 0
10, 210539, Note_on_c, 7, 56, 0
10, 210540, Note_on_c, 7, 56, 96
10, 210540, Note_on_c, 7, 60, 96
10, 210569, Note_on_c, 7, 60, 0
10, 210569, Note_on_c, 7, 56, 0
10, 210570, Note_on_c, 7, 56, 96
10, 210570, Note_on_c, 7, 60, 96
10, 210599, Note_on_c, 7, 60, 0
10, 210599, Note_on_c, 7, 56, 0
10, 210600, Note_on_c, 7, 56, 96
10, 210600, Note_on_c, 7, 60, 96
10, 210629, Note_on_c, 7, 60, 0
10, 210629, Note_on_c, 7, 56, 0
10, 210630, Note_on_c, 7, 56, 96
10, 210630, Note_on_c, 7, 60, 96
10, 210659, Note_on_c, 7, 60, 0
10, 210659, Note_on_c, 7, 56, 0
10, 210660, Note_on_c, 7, 56, 96
10, 210660, Note_on_c, 7, 60, 96
10, 210689, Note_on_c, 7, 60, 0
10, 210689, Note_on_c, 7, 56, 0
10, 210690, Note_on_c, 7, 56, 96
10, 210690, Note_on_c, 7, 60, 96
10, 210719, Note_on_c, 7, 60, 0
10, 210719, Note_on_c, 7, 56, 0
10, 210720, Note_on_c, 7, 56, 96
10, 210720, Note_on_c, 7, 60, 96
10, 210749, Note_on_c, 7, 60, 0
10, 210749, Note_on_c, 7, 56, 0
10, 210750, Note_on_c, 7, 56, 96
10, 210750, Note_on_c, 7, 60, 96
10, 210779, Note_on_c, 7, 60, 0
10, 210779, Note_on_c, 7, 56, 0
10, 210780, Note_on_c, 7, 56, 96
10, 210780, Note_on_c, 7, 60, 96
10, 210809, Note_on_c, 7, 60, 0
10, 210809, Note_on_c, 7, 56, 0
10, 210810, Note_on_c, 7, 56, 96
10, 210810, Note_on_c, 7, 60, 96
10, 210839, Note_on_c, 7, 60, 0
10, 210839, Note_on_c, 7, 56, 0
10, 210840, Note_on_c, 7, 60, 112
10, 210840, Note_on_c, 7, 57, 112
10, 210869, Note_on_c, 7, 57, 0
10, 210869, Note_on_c, 7, 60, 0
10, 210870, Note_on_c, 7, 57, 96
10, 210870, Note_on_c, 7, 60, 96
10, 210899, Note_on_c, 7, 60, 0
10, 210899, Note_on_c, 7, 57, 0
10, 210900, Note_on_c, 7, 57, 96
10, 210900, Note_on_c, 7, 60, 96
10, 210929, Note_on_c, 7, 60, 0
10, 210929, Note_on_c, 7, 57, 0
10, 210930, Note_on_c, 7, 57, 96
10, 210930, Note_on_c, 7, 60, 96
10, 210959, Note_on_c, 7, 60, 0
10, 210959, Note_on_c, 7, 57, 0
10, 210960, Note_on_c, 7, 58, 112
10, 210960, Note_on_c, 7, 61, 112
10, 210989, Note_on_c, 7, 61, 0
10, 210989, Note_on_c, 7, 58, 0
10, 210990, Note_on_c, 7, 58, 112
10, 210990, Note_on_c, 7, 61, 112
10, 211019, Note_on_c, 7, 61, 0
10, 211019, Note_on_c, 7, 58, 0
10, 211020, Note_on_c, 7, 58, 112
10, 211020, Note_on_c, 7, 61, 112
10, 211049, Note_on_c, 7, 61, 0
10, 211049, Note_on_c, 7, 58, 0
10, 211050, Note_on_c, 7, 58, 112
10, 211050, Note_on_c, 7, 61, 112
10, 211079, Note_on_c, 7, 61, 0
10, 211079, Note_on_c, 7, 58, 0
10, 211080, Note_on_c, 7, 61, 112
10, 211080, Note_on_c, 7, 58, 112
10, 211109, Note_on_c, 7, 58, 0
10, 211109, Note_on_c, 7, 61, 0
10, 211110, Note_on_c, 7, 61, 112
10, 211110, Note_on_c, 7, 58, 112
10, 211139, Note_on_c, 7, 58, 0
10, 211139, Note_on_c, 7, 61, 0
10, 211140, Note_on_c, 7, 61, 112
10, 211140, Note_on_c, 7, 58, 112
10, 211169, Note_on_c, 7, 58, 0
10, 211169, Note_on_c, 7, 61, 0
10, 211170, Note_on_c, 7, 61, 112
10, 211170, Note_on_c, 7, 58, 112
10, 211199, Note_on_c, 7, 58, 0
10, 211199, Note_on_c, 7, 61, 0
10, 211200, Note_on_c, 7, 67, 112
10, 211200, Note_on_c, 7, 58, 112
10, 211229, Note_on_c, 7, 58, 0
10, 211229, Note_on_c, 7, 67, 0
10, 211230, Note_on_c, 7, 58, 112
10, 211230, Note_on_c, 7, 67, 112
10, 211259, Note_on_c, 7, 67, 0
10, 211259, Note_on_c, 7, 58, 0
10, 211260, Note_on_c, 7, 58, 112
10, 211260, Note_on_c, 7, 67, 112
10, 211289, Note_on_c, 7, 67, 0
10, 211289, Note_on_c, 7, 58, 0
10, 211290, Note_on_c, 7, 58, 112
10, 211290, Note_on_c, 7, 67, 112
10, 211319, Note_on_c, 7, 67, 0
10, 211319, Note_on_c, 7, 58, 0
10, 211320, Note_on_c, 7, 63, 112
10, 211320, Note_on_c, 7, 60, 112
10, 211349, Note_on_c, 7, 60, 0
10, 211349, Note_on_c, 7, 63, 0
10, 211350, Note_on_c, 7, 63, 112
10, 211350, Note_on_c, 7, 60, 112
10, 211379, Note_on_c, 7, 60, 0
10, 211379, Note_on_c, 7, 63, 0
10, 211380, Note_on_c, 7, 63, 112
10, 211380, Note_on_c, 7, 60, 112
10, 211409, Note_on_c, 7, 60, 0
10, 211409, Note_on_c, 7, 63, 0
10, 211410, Note_on_c, 7, 63, 112
10, 211410, Note_on_c, 7, 60, 112
10, 211439, Note_on_c, 7, 60, 0
10, 211439, Note_on_c, 7, 63, 0
10, 211440, Note_on_c, 7, 63, 112
10, 211440, Note_on_c, 7, 60, 112
10, 211469, Note_on_c, 7, 60, 0
10, 211469, Note_on_c, 7, 63, 0
10, 211470, Note_on_c, 7, 63, 112
10, 211470, Note_on_c, 7, 60, 112
10, 211499, Note_on_c, 7, 60, 0
10, 211499, Note_on_c, 7, 63, 0
10, 211500, Note_on_c, 7, 63, 112
10, 211500, Note_on_c, 7, 60, 112
10, 211529, Note_on_c, 7, 60, 0
10, 211529, Note_on_c, 7, 63, 0
10, 211530, Note_on_c, 7, 63, 112
10, 211530, Note_on_c, 7, 60, 112
10, 211559, Note_on_c, 7, 60, 0
10, 211559, Note_on_c, 7, 63, 0
10, 211560, Note_on_c, 7, 68, 112
10, 211560, Note_on_c, 7, 60, 112
10, 211589, Note_on_c, 7, 60, 0
10, 211589, Note_on_c, 7, 68, 0
10, 211590, Note_on_c, 7, 68, 112
10, 211590, Note_on_c, 7, 60, 112
10, 211619, Note_on_c, 7, 60, 0
10, 211619, Note_on_c, 7, 68, 0
10, 211620, Note_on_c, 7, 68, 112
10, 211620, Note_on_c, 7, 60, 112
10, 211649, Note_on_c, 7, 60, 0
10, 211649, Note_on_c, 7, 68, 0
10, 211650, Note_on_c, 7, 68, 112
10, 211650, Note_on_c, 7, 60, 112
10, 211679, Note_on_c, 7, 60, 0
10, 211679, Note_on_c, 7, 68, 0
10, 211680, Note_on_c, 7, 65, 112
10, 211680, Note_on_c, 7, 59, 112
10, 211709, Note_on_c, 7, 59, 0
10, 211709, Note_on_c, 7, 65, 0
10, 211710, Note_on_c, 7, 65, 112
10, 211710, Note_on_c, 7, 59, 112
10, 211739, Note_on_c, 7, 59, 0
10, 211739, Note_on_c, 7, 65, 0
10, 211740, Note_on_c, 7, 65, 112
10, 211740, Note_on_c, 7, 59, 112
10, 211769, Note_on_c, 7, 59, 0
10, 211769, Note_on_c, 7, 65, 0
10, 211770, Note_on_c, 7, 65, 112
10, 211770, Note_on_c, 7, 59, 112
10, 211799, Note_on_c, 7, 59, 0
10, 211799, Note_on_c, 7, 65, 0
10, 211800, Note_on_c, 7, 65, 112
10, 211800, Note_on_c, 7, 59, 112
10, 211829, Note_on_c, 7, 59, 0
10, 211829, Note_on_c, 7, 65, 0
10, 211830, Note_on_c, 7, 65, 112
10, 211830, Note_on_c, 7, 59, 112
10, 211859, Note_on_c, 7, 59, 0
10, 211859, Note_on_c, 7, 65, 0
10, 211860, Note_on_c, 7, 65, 112
10, 211860, Note_on_c, 7, 59, 112
10, 211889, Note_on_c, 7, 59, 0
10, 211889, Note_on_c, 7, 65, 0
10, 211890, Note_on_c, 7, 65, 112
10, 211890, Note_on_c, 7, 59, 112
10, 211919, Note_on_c, 7, 59, 0
10, 211919, Note_on_c, 7, 65, 0
10, 211920, Note_on_c, 7, 68, 112
10, 211920, Note_on_c, 7, 59, 112
10, 211949, Note_on_c, 7, 59, 0
10, 211949, Note_on_c, 7, 68, 0
10, 211950, Note_on_c, 7, 68, 112
10, 211950, Note_on_c, 7, 59, 112
10, 211979, Note_on_c, 7, 59, 0
10, 211979, Note_on_c, 7, 68, 0
10, 211980, Note_on_c, 7, 68, 112
10, 211980, Note_on_c, 7, 59, 112
10, 212009, Note_on_c, 7, 59, 0
10, 212009, Note_on_c, 7, 68, 0
10, 212010, Note_on_c, 7, 68, 112
10, 212010, Note_on_c, 7, 59, 112
10, 212039, Note_on_c, 7, 59, 0
10, 212039, Note_on_c, 7, 68, 0
10, 212040, Note_on_c, 7, 65, 112
10, 212040, Note_on_c, 7, 59, 112
10, 212069, Note_on_c, 7, 59, 0
10, 212069, Note_on_c, 7, 65, 0
10, 212070, Note_on_c, 7, 65, 112
10, 212070, Note_on_c, 7, 59, 112
10, 212099, Note_on_c, 7, 59, 0
10, 212099, Note_on_c, 7, 65, 0
10, 212100, Note_on_c, 7, 65, 112
10, 212100, Note_on_c, 7, 59, 112
10, 212129, Note_on_c, 7, 59, 0
10, 212129, Note_on_c, 7, 65, 0
10, 212130, Note_on_c, 7, 65, 112
10, 212130, Note_on_c, 7, 59, 112
10, 212159, Note_on_c, 7, 59, 0
10, 212159, Note_on_c, 7, 65, 0
10, 212160, Note_on_c, 7, 65, 112
10, 212160, Note_on_c, 7, 58, 112
10, 212189, Note_on_c, 7, 58, 0
10, 212189, Note_on_c, 7, 65, 0
10, 212190, Note_on_c, 7, 65, 112
10, 212190, Note_on_c, 7, 58, 112
10, 212219, Note_on_c, 7, 58, 0
10, 212219, Note_on_c, 7, 65, 0
10, 212220, Note_on_c, 7, 65, 112
10, 212220, Note_on_c, 7, 58, 112
10, 212249, Note_on_c, 7, 58, 0
10, 212249, Note_on_c, 7, 65, 0
10, 212250, Note_on_c, 7, 65, 112
10, 212250, Note_on_c, 7, 58, 112
10, 212279, Note_on_c, 7, 58, 0
10, 212279, Note_on_c, 7, 65, 0
10, 212280, Note_on_c, 7, 65, 112
10, 212280, Note_on_c, 7, 58, 112
10, 212309, Note_on_c, 7, 58, 0
10, 212309, Note_on_c, 7, 65, 0
10, 212310, Note_on_c, 7, 65, 112
10, 212310, Note_on_c, 7, 58, 112
10, 212339, Note_on_c, 7, 58, 0
10, 212339, Note_on_c, 7, 65, 0
10, 212340, Note_on_c, 7, 65, 112
10, 212340, Note_on_c, 7, 58, 112
10, 212369, Note_on_c, 7, 58, 0
10, 212369, Note_on_c, 7, 65, 0
10, 212370, Note_on_c, 7, 65, 112
10, 212370, Note_on_c, 7, 58, 112
10, 212399, Note_on_c, 7, 58, 0
10, 212399, Note_on_c, 7, 65, 0
10, 212400, Note_on_c, 7, 58, 127
10, 212400, Note_on_c, 7, 63, 127
10, 212459, Note_on_c, 7, 63, 0
10, 212459, Note_on_c, 7, 58, 0
10, 212460, Note_on_c, 7, 63, 127
10, 212519, Note_on_c, 7, 63, 0
10, 212520, Note_on_c, 7, 63, 127
10, 212579, Note_on_c, 7, 63, 0
10, 212580, Note_on_c, 7, 63, 127
10, 212639, Note_on_c, 7, 63, 0
10, 212640, Note_on_c, 7, 67, 127
10, 212699, Note_on_c, 7, 67, 0
10, 212700, Note_on_c, 7, 67, 127
10, 212759, Note_on_c, 7, 67, 0
10, 212760, Note_on_c, 7, 63, 127
10, 212819, Note_on_c, 7, 63, 0
10, 212820, Note_on_c, 7, 63, 127
10, 212879, Note_on_c, 7, 63, 0
10, 212880, Note_on_c, 7, 63, 127
10, 212939, Note_on_c, 7, 63, 0
10, 212940, Note_on_c, 7, 63, 127
10, 212999, Note_on_c, 7, 63, 0
10, 213000, Note_on_c, 7, 58, 127
10, 213059, Note_on_c, 7, 58, 0
10, 213060, Note_on_c, 7, 58, 127
10, 213119, Note_on_c, 7, 58, 0
10, 213120, Note_on_c, 7, 63, 127
10, 213179, Note_on_c, 7, 63, 0
10, 213180, Note_on_c, 7, 63, 127
10, 213239, Note_on_c, 7, 63, 0
10, 213240, Note_on_c, 7, 67, 127
10, 213299, Note_on_c, 7, 67, 0
10, 213300, Note_on_c, 7, 67, 127
10, 213359, Note_on_c, 7, 67, 0
10, 213360, Note_on_c, 7, 70, 127
10, 213419, Note_on_c, 7, 70, 0
10, 213420, Note_on_c, 7, 70, 127
10, 213479, Note_on_c, 7, 70, 0
10, 213480, Note_on_c, 7, 63, 127
10, 213539, Note_on_c, 7, 63, 0
10, 213540, Note_on_c, 7, 63, 127
10, 213599, Note_on_c, 7, 63, 0
10, 213600, Note_on_c, 7, 63, 127
10, 213659, Note_on_c, 7, 63, 0
10, 213660, Note_on_c, 7, 63, 127
10, 213719, Note_on_c, 7, 63, 0
10, 213720, Note_on_c, 7, 55, 127
10, 213779, Note_on_c, 7, 55, 0
10, 213780, Note_on_c, 7, 55, 127
10, 213839, Note_on_c, 7, 55, 0
10, 213840, Note_on_c, 7, 60, 127
10, 213899, Note_on_c, 7, 60, 0
10, 213900, Note_on_c, 7, 60, 127
10, 213959, Note_on_c, 7, 60, 0
10, 213960, Note_on_c, 7, 63, 127
10, 214019, Note_on_c, 7, 63, 0
10, 214020, Note_on_c, 7, 63, 127
10, 214079, Note_on_c, 7, 63, 0
10, 214080, Note_on_c, 7, 67, 127
10, 214139, Note_on_c, 7, 67, 0
10, 214140, Note_on_c, 7, 67, 127
10, 214199, Note_on_c, 7, 67, 0
10, 214200, Note_on_c, 7, 60, 127
10, 214259, Note_on_c, 7, 60, 0
10, 214260, Note_on_c, 7, 60, 127
10, 214319, Note_on_c, 7, 60, 0
10, 214320, Note_on_c, 7, 60, 127
10, 214379, Note_on_c, 7, 60, 0
10, 214380, Note_on_c, 7, 60, 127
10, 214439, Note_on_c, 7, 60, 0
10, 214440, Note_on_c, 7, 60, 127
10, 214499, Note_on_c, 7, 60, 0
10, 214500, Note_on_c, 7, 60, 127
10, 214559, Note_on_c, 7, 60, 0
10, 214560, Note_on_c, 7, 60, 127
10, 214619, Note_on_c, 7, 60, 0
10, 214620, Note_on_c, 7, 72, 127
10, 214679, Note_on_c, 7, 72, 0
10, 214680, Note_on_c, 7, 72, 127
10, 214739, Note_on_c, 7, 72, 0
10, 214740, Note_on_c, 7, 72, 127
10, 214799, Note_on_c, 7, 72, 0
10, 214800, Note_on_c, 7, 72, 127
10, 214859, Note_on_c, 7, 72, 0
10, 214860, Note_on_c, 7, 72, 127
10, 214919, Note_on_c, 7, 72, 0
10, 214920, Note_on_c, 7, 72, 127
10, 214979, Note_on_c, 7, 72, 0
10, 214980, Note_on_c, 7, 60, 127
10, 215039, Note_on_c, 7, 60, 0
10, 215040, Note_on_c, 7, 60, 127
10, 215099, Note_on_c, 7, 60, 0
10, 215100, Note_on_c, 7, 60, 127
10, 215159, Note_on_c, 7, 60, 0
10, 215160, Note_on_c, 7, 60, 127
10, 215219, Note_on_c, 7, 60, 0
10, 215220, Note_on_c, 7, 60, 127
10, 215279, Note_on_c, 7, 60, 0
10, 215280, Note_on_c, 7, 53, 127
10, 215309, Note_on_c, 7, 53, 0
10, 215340, Note_on_c, 7, 58, 48
10, 215400, Note_on_c, 7, 62, 48
10, 215409, Note_on_c, 7, 58, 0
10, 215460, Note_on_c, 7, 58, 48
10, 215469, Note_on_c, 7, 62, 0
10, 215520, Note_on_c, 7, 62, 48
10, 215529, Note_on_c, 7, 58, 0
10, 215580, Note_on_c, 7, 58, 48
10, 215589, Note_on_c, 7, 62, 0
10, 215639, Note_on_c, 7, 58, 0
10, 215640, Note_on_c, 7, 62, 48
10, 215700, Note_on_c, 7, 58, 48
10, 215709, Note_on_c, 7, 62, 0
10, 215760, Note_on_c, 7, 62, 48
10, 215769, Note_on_c, 7, 58, 0
10, 215820, Note_on_c, 7, 58, 48
10, 215829, Note_on_c, 7, 62, 0
10, 215880, Note_on_c, 7, 62, 48
10, 215889, Note_on_c, 7, 58, 0
10, 215940, Note_on_c, 7, 58, 48
10, 215949, Note_on_c, 7, 62, 0
10, 215999, Note_on_c, 7, 58, 0
10, 216000, Note_on_c, 7, 62, 48
10, 216060, Note_on_c, 7, 58, 48
10, 216069, Note_on_c, 7, 62, 0
10, 216120, Note_on_c, 7, 62, 48
10, 216129, Note_on_c, 7, 58, 0
10, 216180, Note_on_c, 7, 58, 48
10, 216189, Note_on_c, 7, 62, 0
10, 216240, Note_on_c, 7, 62, 48
10, 216249, Note_on_c, 7, 58, 0
10, 216300, Note_on_c, 7, 58, 48
10, 216309, Note_on_c, 7, 62, 0
10, 216359, Note_on_c, 7, 58, 0
10, 216360, Note_on_c, 7, 62, 48
10, 216420, Note_on_c, 7, 58, 48
10, 216429, Note_on_c, 7, 62, 0
10, 216480, Note_on_c, 7, 65, 48
10, 216489, Note_on_c, 7, 58, 0
10, 216540, Note_on_c, 7, 58, 48
10, 216549, Note_on_c, 7, 65, 0
10, 216600, Note_on_c, 7, 62, 48
10, 216609, Note_on_c, 7, 58, 0
10, 216660, Note_on_c, 7, 58, 48
10, 216669, Note_on_c, 7, 62, 0
10, 216719, Note_on_c, 7, 58, 0
10, 216720, Note_on_c, 7, 63, 48
10, 216780, Note_on_c, 7, 58, 48
10, 216789, Note_on_c, 7, 63, 0
10, 216840, Note_on_c, 7, 63, 48
10, 216849, Note_on_c, 7, 58, 0
10, 216900, Note_on_c, 7, 58, 48
10, 216909, Note_on_c, 7, 63, 0
10, 216960, Note_on_c, 7, 63, 48
10, 216969, Note_on_c, 7, 58, 0
10, 217020, Note_on_c, 7, 58, 48
10, 217029, Note_on_c, 7, 63, 0
10, 217079, Note_on_c, 7, 58, 0
10, 217080, Note_on_c, 7, 63, 48
10, 217140, Note_on_c, 7, 58, 48
10, 217149, Note_on_c, 7, 63, 0
10, 217200, Note_on_c, 7, 63, 48
10, 217209, Note_on_c, 7, 58, 0
10, 217260, Note_on_c, 7, 58, 48
10, 217269, Note_on_c, 7, 63, 0
10, 217320, Note_on_c, 7, 63, 48
10, 217329, Note_on_c, 7, 58, 0
10, 217380, Note_on_c, 7, 58, 48
10, 217389, Note_on_c, 7, 63, 0
10, 217439, Note_on_c, 7, 58, 0
10, 217440, Note_on_c, 7, 63, 48
10, 217500, Note_on_c, 7, 58, 48
10, 217509, Note_on_c, 7, 63, 0
10, 217560, Note_on_c, 7, 63, 48
10, 217569, Note_on_c, 7, 58, 0
10, 217620, Note_on_c, 7, 58, 48
10, 217629, Note_on_c, 7, 63, 0
10, 217680, Note_on_c, 7, 63, 48
10, 217689, Note_on_c, 7, 58, 0
10, 217740, Note_on_c, 7, 58, 48
10, 217749, Note_on_c, 7, 63, 0
10, 217799, Note_on_c, 7, 58, 0
10, 217800, Note_on_c, 7, 63, 48
10, 217860, Note_on_c, 7, 58, 48
10, 217869, Note_on_c, 7, 63, 0
10, 217920, Note_on_c, 7, 63, 48
10, 217929, Note_on_c, 7, 58, 0
10, 217980, Note_on_c, 7, 58, 48
10, 217989, Note_on_c, 7, 63, 0
10, 218040, Note_on_c, 7, 63, 48
10, 218049, Note_on_c, 7, 58, 0
10, 218100, Note_on_c, 7, 58, 48
10, 218109, Note_on_c, 7, 63, 0
10, 218159, Note_on_c, 7, 58, 0
10, 218160, Note_on_c, 7, 62, 48
10, 218279, Note_on_c, 7, 62, 0
10, 219000, Note_on_c, 7, 72, 127
10, 219179, Note_on_c, 7, 72, 0
10, 219180, Note_on_c, 7, 70, 127
10, 219209, Note_on_c, 7, 70, 0
10, 219240, Note_on_c, 7, 68, 127
10, 219299, Note_on_c, 7, 68, 0
10, 219360, Note_on_c, 7, 67, 127
10, 219419, Note_on_c, 7, 67, 0
10, 219480, Note_on_c, 7, 65, 127
10, 219539, Note_on_c, 7, 65, 0
10, 219600, Note_on_c, 7, 63, 48
10, 219840, Note_on_c, 7, 62, 48
10, 219849, Note_on_c, 7, 63, 0
10, 219900, Note_on_c, 7, 61, 48
10, 219909, Note_on_c, 7, 62, 0
10, 219960, Note_on_c, 7, 60, 48
10, 219969, Note_on_c, 7, 61, 0
10, 220080, Note_on_c, 7, 58, 48
10, 220089, Note_on_c, 7, 60, 0
10, 220200, Note_on_c, 7, 56, 48
10, 220209, Note_on_c, 7, 58, 0
10, 220319, Note_on_c, 7, 56, 0
10, 220320, Note_on_c, 7, 55, 48
10, 220349, Note_on_c, 7, 55, 0
10, 220380, Note_on_c, 7, 58, 48
10, 220409, Note_on_c, 7, 58, 0
10, 220440, Note_on_c, 7, 56, 48
10, 220469, Note_on_c, 7, 56, 0
10, 220500, Note_on_c, 7, 55, 48
10, 220529, Note_on_c, 7, 55, 0
10, 220560, Note_on_c, 7, 53, 48
10, 220589, Note_on_c, 7, 53, 0
10, 220620, Note_on_c, 7, 51, 48
10, 220649, Note_on_c, 7, 51, 0
10, 220680, Note_on_c, 7, 50, 48
10, 220709, Note_on_c, 7, 50, 0
10, 220740, Note_on_c, 7, 58, 48
10, 220769, Note_on_c, 7, 58, 0
10, 220800, Note_on_c, 7, 58, 48
10, 220829, Note_on_c, 7, 58, 0
10, 220860, Note_on_c, 7, 58, 48
10, 220889, Note_on_c, 7, 58, 0
10, 220920, Note_on_c, 7, 58, 48
10, 220949, Note_on_c, 7, 58, 0
10, 220980, Note_on_c, 7, 58, 48
10, 221009, Note_on_c, 7, 58, 0
10, 221040, Note_on_c, 7, 58, 48
10, 221069, Note_on_c, 7, 58, 0
10, 221100, Note_on_c, 7, 63, 50
10, 221129, Note_on_c, 7, 63, 0
10, 221160, Note_on_c, 7, 63, 52
10, 221189, Note_on_c, 7, 63, 0
10, 221220, Note_on_c, 7, 63, 54
10, 221280, Note_on_c, 7, 62, 56
10, 221289, Note_on_c, 7, 63, 0
10, 221340, Note_on_c, 7, 61, 58
10, 221349, Note_on_c, 7, 62, 0
10, 221399, Note_on_c, 7, 61, 0
10, 221400, Note_on_c, 7, 60, 60
10, 221460, Note_on_c, 7, 58, 62
10, 221469, Note_on_c, 7, 60, 0
10, 221519, Note_on_c, 7, 58, 0
10, 221520, Note_on_c, 7, 56, 64
10, 221549, Note_on_c, 7, 56, 0
10, 221580, Note_on_c, 7, 60, 66
10, 221609, Note_on_c, 7, 60, 0
10, 221640, Note_on_c, 7, 58, 68
10, 221669, Note_on_c, 7, 58, 0
10, 221700, Note_on_c, 7, 56, 70
10, 221729, Note_on_c, 7, 56, 0
10, 221760, Note_on_c, 7, 55, 72
10, 221789, Note_on_c, 7, 55, 0
10, 221820, Note_on_c, 7, 70, 74
10, 221849, Note_on_c, 7, 70, 0
10, 221880, Note_on_c, 7, 70, 76
10, 221909, Note_on_c, 7, 70, 0
10, 221940, Note_on_c, 7, 70, 78
10, 221969, Note_on_c, 7, 70, 0
10, 222000, Note_on_c, 7, 68, 80
10, 222029, Note_on_c, 7, 68, 0
10, 222060, Note_on_c, 7, 67, 82
10, 222089, Note_on_c, 7, 67, 0
10, 222120, Note_on_c, 7, 65, 84
10, 222149, Note_on_c, 7, 65, 0
10, 222180, Note_on_c, 7, 63, 86
10, 222209, Note_on_c, 7, 63, 0
10, 222240, Note_on_c, 7, 62, 88
10, 222269, Note_on_c, 7, 62, 0
10, 222300, Note_on_c, 7, 63, 90
10, 222329, Note_on_c, 7, 63, 0
10, 222360, Note_on_c, 7, 65, 92
10, 222389, Note_on_c, 7, 65, 0
10, 222420, Note_on_c, 7, 65, 94
10, 222449, Note_on_c, 7, 65, 0
10, 222480, Note_on_c, 7, 65, 96
10, 222539, Note_on_c, 7, 65, 0
10, 222600, Note_on_c, 7, 62, 96
10, 222659, Note_on_c, 7, 62, 0
10, 223140, Note_on_c, 7, 59, 96
10, 223199, Note_on_c, 7, 59, 0
10, 223200, Note_on_c, 7, 60, 96
10, 223259, Note_on_c, 7, 60, 0
10, 223320, Note_on_c, 7, 72, 96
10, 223379, Note_on_c, 7, 72, 0
10, 223860, Note_on_c, 7, 60, 96
10, 223919, Note_on_c, 7, 60, 0
10, 223920, Note_on_c, 7, 58, 96
10, 223979, Note_on_c, 7, 58, 0
10, 224040, Note_on_c, 7, 67, 96
10, 224099, Note_on_c, 7, 67, 0
10, 224580, Note_on_c, 7, 52, 96
10, 224609, Note_on_c, 7, 52, 0
10, 224640, Note_on_c, 7, 53, 96
10, 224669, Note_on_c, 7, 53, 0
10, 224700, Note_on_c, 7, 53, 96
10, 224819, Note_on_c, 7, 53, 0
10, 224820, Note_on_c, 7, 53, 96
10, 224849, Note_on_c, 7, 53, 0
10, 224880, Note_on_c, 7, 53, 96
10, 224909, Note_on_c, 7, 53, 0
10, 224940, Note_on_c, 7, 55, 96
10, 224969, Note_on_c, 7, 55, 0
10, 225000, Note_on_c, 7, 55, 96
10, 225029, Note_on_c, 7, 55, 0
10, 225060, Note_on_c, 7, 60, 96
10, 225179, Note_on_c, 7, 60, 0
10, 225180, Note_on_c, 7, 60, 96
10, 225209, Note_on_c, 7, 60, 0
10, 225240, Note_on_c, 7, 58, 96
10, 225269, Note_on_c, 7, 58, 0
10, 225300, Note_on_c, 7, 58, 96
10, 225329, Note_on_c, 7, 58, 0
10, 225360, Note_on_c, 7, 63, 96
10, 225389, Note_on_c, 7, 63, 0
10, 225420, Note_on_c, 7, 63, 96
10, 225449, Note_on_c, 7, 63, 0
10, 225480, Note_on_c, 7, 70, 96
10, 225509, Note_on_c, 7, 70, 0
10, 225540, Note_on_c, 7, 70, 96
10, 225569, Note_on_c, 7, 70, 0
10, 225600, Note_on_c, 7, 68, 96
10, 225629, Note_on_c, 7, 68, 0
10, 225660, Note_on_c, 7, 68, 96
10, 225689, Note_on_c, 7, 68, 0
10, 225720, Note_on_c, 7, 66, 96
10, 225749, Note_on_c, 7, 66, 0
10, 225780, Note_on_c, 7, 66, 96
10, 225809, Note_on_c, 7, 66, 0
10, 225840, Note_on_c, 7, 67, 96
10, 225869, Note_on_c, 7, 67, 0
10, 225900, Note_on_c, 7, 67, 96
10, 225929, Note_on_c, 7, 67, 0
10, 225960, Note_on_c, 7, 63, 96
10, 225989, Note_on_c, 7, 63, 0
10, 226020, Note_on_c, 7, 63, 96
10, 226049, Note_on_c, 7, 63, 0
10, 226080, Note_on_c, 7, 63, 96
10, 226109, Note_on_c, 7, 63, 0
10, 226110, Note_on_c, 7, 51, 96
10, 226139, Note_on_c, 7, 51, 0
10, 226140, Note_on_c, 7, 51, 96
10, 226169, Note_on_c, 7, 51, 0
10, 226170, Note_on_c, 7, 51, 96
10, 226199, Note_on_c, 7, 51, 0
10, 226200, Note_on_c, 7, 51, 96
10, 226229, Note_on_c, 7, 51, 0
10, 226230, Note_on_c, 7, 51, 96
10, 226259, Note_on_c, 7, 51, 0
10, 226260, Note_on_c, 7, 51, 96
10, 226289, Note_on_c, 7, 51, 0
10, 226290, Note_on_c, 7, 51, 96
10, 226319, Note_on_c, 7, 51, 0
10, 226320, Note_on_c, 7, 52, 96
10, 226349, Note_on_c, 7, 52, 0
10, 226350, Note_on_c, 7, 52, 96
10, 226379, Note_on_c, 7, 52, 0
10, 226380, Note_on_c, 7, 52, 96
10, 226409, Note_on_c, 7, 52, 0
10, 226410, Note_on_c, 7, 52, 96
10, 226439, Note_on_c, 7, 52, 0
10, 226440, Note_on_c, 7, 53, 96
10, 226469, Note_on_c, 7, 53, 0
10, 226470, Note_on_c, 7, 53, 96
10, 226499, Note_on_c, 7, 53, 0
10, 226500, Note_on_c, 7, 52, 96
10, 226529, Note_on_c, 7, 52, 0
10, 226530, Note_on_c, 7, 52, 96
10, 226559, Note_on_c, 7, 52, 0
10, 226560, Note_on_c, 7, 55, 96
10, 226589, Note_on_c, 7, 55, 0
10, 226590, Note_on_c, 7, 55, 96
10, 226619, Note_on_c, 7, 55, 0
10, 226620, Note_on_c, 7, 53, 96
10, 226649, Note_on_c, 7, 53, 0
10, 226650, Note_on_c, 7, 53, 96
10, 226679, Note_on_c, 7, 53, 0
10, 226680, Note_on_c, 7, 58, 96
10, 226709, Note_on_c, 7, 58, 0
10, 226710, Note_on_c, 7, 58, 96
10, 226739, Note_on_c, 7, 58, 0
10, 226740, Note_on_c, 7, 56, 96
10, 226769, Note_on_c, 7, 56, 0
10, 226770, Note_on_c, 7, 56, 96
10, 226799, Note_on_c, 7, 56, 0
10, 226800, Note_on_c, 7, 51, 96
10, 226800, Note_on_c, 7, 55, 96
10, 226829, Note_on_c, 7, 55, 0
10, 226829, Note_on_c, 7, 51, 0
10, 226830, Note_on_c, 7, 51, 96
10, 226830, Note_on_c, 7, 55, 96
10, 226859, Note_on_c, 7, 55, 0
10, 226859, Note_on_c, 7, 51, 0
10, 226860, Note_on_c, 7, 51, 96
10, 226860, Note_on_c, 7, 55, 96
10, 226889, Note_on_c, 7, 55, 0
10, 226889, Note_on_c, 7, 51, 0
10, 226890, Note_on_c, 7, 51, 96
10, 226890, Note_on_c, 7, 55, 96
10, 226919, Note_on_c, 7, 55, 0
10, 226919, Note_on_c, 7, 51, 0
10, 226920, Note_on_c, 7, 51, 96
10, 226920, Note_on_c, 7, 55, 96
10, 226949, Note_on_c, 7, 55, 0
10, 226949, Note_on_c, 7, 51, 0
10, 226950, Note_on_c, 7, 51, 96
10, 226950, Note_on_c, 7, 55, 96
10, 226979, Note_on_c, 7, 55, 0
10, 226979, Note_on_c, 7, 51, 0
10, 226980, Note_on_c, 7, 51, 96
10, 226980, Note_on_c, 7, 55, 96
10, 227009, Note_on_c, 7, 55, 0
10, 227009, Note_on_c, 7, 51, 0
10, 227010, Note_on_c, 7, 51, 96
10, 227010, Note_on_c, 7, 55, 96
10, 227039, Note_on_c, 7, 55, 0
10, 227039, Note_on_c, 7, 51, 0
10, 227040, Note_on_c, 7, 51, 96
10, 227040, Note_on_c, 7, 55, 96
10, 227069, Note_on_c, 7, 55, 0
10, 227069, Note_on_c, 7, 51, 0
10, 227070, Note_on_c, 7, 51, 96
10, 227070, Note_on_c, 7, 55, 96
10, 227099, Note_on_c, 7, 55, 0
10, 227099, Note_on_c, 7, 51, 0
10, 227100, Note_on_c, 7, 51, 96
10, 227100, Note_on_c, 7, 55, 96
10, 227129, Note_on_c, 7, 55, 0
10, 227129, Note_on_c, 7, 51, 0
10, 227130, Note_on_c, 7, 51, 96
10, 227130, Note_on_c, 7, 55, 96
10, 227159, Note_on_c, 7, 55, 0
10, 227159, Note_on_c, 7, 51, 0
10, 227160, Note_on_c, 7, 51, 96
10, 227160, Note_on_c, 7, 55, 96
10, 227189, Note_on_c, 7, 55, 0
10, 227189, Note_on_c, 7, 51, 0
10, 227190, Note_on_c, 7, 51, 96
10, 227190, Note_on_c, 7, 55, 96
10, 227219, Note_on_c, 7, 55, 0
10, 227219, Note_on_c, 7, 51, 0
10, 227220, Note_on_c, 7, 51, 96
10, 227220, Note_on_c, 7, 55, 96
10, 227249, Note_on_c, 7, 55, 0
10, 227249, Note_on_c, 7, 51, 0
10, 227250, Note_on_c, 7, 51, 96
10, 227250, Note_on_c, 7, 55, 96
10, 227279, Note_on_c, 7, 55, 0
10, 227279, Note_on_c, 7, 51, 0
10, 227280, Note_on_c, 7, 51, 96
10, 227280, Note_on_c, 7, 55, 96
10, 227309, Note_on_c, 7, 55, 0
10, 227309, Note_on_c, 7, 51, 0
10, 227310, Note_on_c, 7, 51, 96
10, 227310, Note_on_c, 7, 55, 96
10, 227339, Note_on_c, 7, 55, 0
10, 227339, Note_on_c, 7, 51, 0
10, 227340, Note_on_c, 7, 51, 96
10, 227340, Note_on_c, 7, 55, 96
10, 227369, Note_on_c, 7, 55, 0
10, 227369, Note_on_c, 7, 51, 0
10, 227370, Note_on_c, 7, 51, 96
10, 227370, Note_on_c, 7, 55, 96
10, 227399, Note_on_c, 7, 55, 0
10, 227399, Note_on_c, 7, 51, 0
10, 227400, Note_on_c, 7, 51, 96
10, 227400, Note_on_c, 7, 55, 96
10, 227429, Note_on_c, 7, 55, 0
10, 227429, Note_on_c, 7, 51, 0
10, 227430, Note_on_c, 7, 51, 96
10, 227430, Note_on_c, 7, 55, 96
10, 227459, Note_on_c, 7, 55, 0
10, 227459, Note_on_c, 7, 51, 0
10, 227460, Note_on_c, 7, 51, 96
10, 227460, Note_on_c, 7, 55, 96
10, 227489, Note_on_c, 7, 55, 0
10, 227489, Note_on_c, 7, 51, 0
10, 227490, Note_on_c, 7, 51, 96
10, 227490, Note_on_c, 7, 55, 96
10, 227519, Note_on_c, 7, 55, 0
10, 227519, Note_on_c, 7, 51, 0
10, 227520, Note_on_c, 7, 56, 102
10, 227520, Note_on_c, 7, 50, 102
10, 227639, Note_on_c, 7, 50, 0
10, 227639, Note_on_c, 7, 56, 0
10, 227880, Note_on_c, 7, 62, 113
10, 227909, Note_on_c, 7, 62, 0
10, 227910, Note_on_c, 7, 62, 114
10, 227939, Note_on_c, 7, 62, 0
10, 227940, Note_on_c, 7, 63, 115
10, 227969, Note_on_c, 7, 63, 0
10, 227970, Note_on_c, 7, 63, 116
10, 227999, Note_on_c, 7, 63, 0
10, 228000, Note_on_c, 7, 65, 118
10, 228029, Note_on_c, 7, 65, 0
10, 228030, Note_on_c, 7, 65, 119
10, 228059, Note_on_c, 7, 65, 0
10, 228060, Note_on_c, 7, 63, 120
10, 228089, Note_on_c, 7, 63, 0
10, 228090, Note_on_c, 7, 63, 121
10, 228119, Note_on_c, 7, 63, 0
10, 228120, Note_on_c, 7, 62, 123
10, 228149, Note_on_c, 7, 62, 0
10, 228150, Note_on_c, 7, 62, 124
10, 228179, Note_on_c, 7, 62, 0
10, 228180, Note_on_c, 7, 60, 125
10, 228209, Note_on_c, 7, 60, 0
10, 228210, Note_on_c, 7, 60, 125
10, 228239, Note_on_c, 7, 60, 0
10, 228240, Note_on_c, 7, 58, 127
10, 228269, Note_on_c, 7, 58, 0
10, 228270, Note_on_c, 7, 58, 127
10, 228299, Note_on_c, 7, 58, 0
10, 228300, Note_on_c, 7, 57, 127
10, 228329, Note_on_c, 7, 57, 0
10, 228330, Note_on_c, 7, 57, 127
10, 228359, Note_on_c, 7, 57, 0
10, 228360, Note_on_c, 7, 56, 127
10, 228389, Note_on_c, 7, 56, 0
10, 228390, Note_on_c, 7, 56, 127
10, 228419, Note_on_c, 7, 56, 0
10, 228420, Note_on_c, 7, 55, 127
10, 228449, Note_on_c, 7, 55, 0
10, 228450, Note_on_c, 7, 55, 127
10, 228479, Note_on_c, 7, 55, 0
10, 228480, Note_on_c, 7, 53, 127
10, 228509, Note_on_c, 7, 53, 0
10, 228510, Note_on_c, 7, 53, 127
10, 228539, Note_on_c, 7, 53, 0
10, 228540, Note_on_c, 7, 51, 127
10, 228569, Note_on_c, 7, 51, 0
10, 228570, Note_on_c, 7, 51, 127
10, 228599, Note_on_c, 7, 51, 0
10, 228600, Note_on_c, 7, 50, 127
10, 228629, Note_on_c, 7, 50, 0
10, 228630, Note_on_c, 7, 50, 127
10, 228659, Note_on_c, 7, 50, 0
10, 228660, Note_on_c, 7, 60, 127
10, 228689, Note_on_c, 7, 60, 0
10, 228690, Note_on_c, 7, 60, 127
10, 228719, Note_on_c, 7, 60, 0
10, 228720, Note_on_c, 7, 58, 127
10, 228749, Note_on_c, 7, 58, 0
10, 228750, Note_on_c, 7, 58, 127
10, 228779, Note_on_c, 7, 58, 0
10, 228780, Note_on_c, 7, 56, 127
10, 228809, Note_on_c, 7, 56, 0
10, 228810, Note_on_c, 7, 56, 127
10, 228839, Note_on_c, 7, 56, 0
10, 228840, Note_on_c, 7, 55, 127
10, 228869, Note_on_c, 7, 55, 0
10, 228870, Note_on_c, 7, 55, 127
10, 228899, Note_on_c, 7, 55, 0
10, 228900, Note_on_c, 7, 53, 127
10, 228929, Note_on_c, 7, 53, 0
10, 228930, Note_on_c, 7, 53, 127
10, 228959, Note_on_c, 7, 53, 0
10, 228960, Note_on_c, 7, 51, 127
10, 229079, Note_on_c, 7, 51, 0
10, 230520, Note_on_c, 7, 56, 48
10, 230609, Note_on_c, 7, 56, 0
10, 230640, Note_on_c, 7, 56, 48
10, 230729, Note_on_c, 7, 56, 0
10, 230760, Note_on_c, 7, 56, 48
10, 230849, Note_on_c, 7, 56, 0
10, 230880, Note_on_c, 7, 56, 60
10, 230969, Note_on_c, 7, 56, 0
10, 231000, Note_on_c, 7, 56, 72
10, 231089, Note_on_c, 7, 56, 0
10, 231120, Note_on_c, 7, 56, 84
10, 231239, Note_on_c, 7, 56, 0
10, 231240, Note_on_c, 7, 56, 96
10, 231479, Note_on_c, 7, 56, 0
10, 231480, Note_on_c, 7, 56, 96
10, 231780, Note_on_c, 7, 50, 56
10, 231789, Note_on_c, 7, 56, 0
10, 231840, Note_on_c, 7, 51, 48
10, 231849, Note_on_c, 7, 50, 0
10, 231959, Note_on_c, 7, 51, 0
10, 233760, Note_on_c, 7, 61, 48
10, 233849, Note_on_c, 7, 61, 0
10, 233880, Note_on_c, 7, 61, 48
10, 233969, Note_on_c, 7, 61, 0
10, 234000, Note_on_c, 7, 60, 48
10, 234359, Note_on_c, 7, 60, 0
10, 234840, Note_on_c, 7, 56, 32
10, 234840, Note_on_c, 7, 53, 32
10, 234899, Note_on_c, 7, 53, 0
10, 234899, Note_on_c, 7, 56, 0
10, 234960, Note_on_c, 7, 53, 32
10, 234960, Note_on_c, 7, 56, 32
10, 235019, Note_on_c, 7, 56, 0
10, 235019, Note_on_c, 7, 53, 0
10, 235200, Note_on_c, 7, 55, 32
10, 235259, Note_on_c, 7, 55, 0
10, 235320, Note_on_c, 7, 58, 32
10, 235320, Note_on_c, 7, 55, 32
10, 235379, Note_on_c, 7, 55, 0
10, 235379, Note_on_c, 7, 58, 0
10, 235560, Note_on_c, 7, 58, 32
10, 235619, Note_on_c, 7, 58, 0
10, 235680, Note_on_c, 7, 58, 32
10, 235739, Note_on_c, 7, 58, 0
10, 235800, Note_on_c, 7, 58, 32
10, 235859, Note_on_c, 7, 58, 0
10, 235920, Note_on_c, 7, 58, 32
10, 235979, Note_on_c, 7, 58, 0
10, 236040, Note_on_c, 7, 58, 32
10, 236099, Note_on_c, 7, 58, 0
10, 236160, Note_on_c, 7, 58, 32
10, 236219, Note_on_c, 7, 58, 0
10, 236220, Note_on_c, 7, 58, 32
10, 236279, Note_on_c, 7, 58, 0
10, 236280, Note_on_c, 7, 58, 32
10, 236339, Note_on_c, 7, 58, 0
10, 236340, Note_on_c, 7, 58, 32
10, 236399, Note_on_c, 7, 58, 0
10, 236400, Note_on_c, 7, 60, 32
10, 236429, Note_on_c, 7, 60, 0
10, 236460, Note_on_c, 7, 58, 32
10, 236489, Note_on_c, 7, 58, 0
10, 236520, Note_on_c, 7, 56, 32
10, 236549, Note_on_c, 7, 56, 0
10, 236580, Note_on_c, 7, 58, 32
10, 236609, Note_on_c, 7, 58, 0
10, 236640, Note_on_c, 7, 60, 32
10, 236669, Note_on_c, 7, 60, 0
10, 236700, Note_on_c, 7, 58, 32
10, 236729, Note_on_c, 7, 58, 0
10, 236760, Note_on_c, 7, 56, 32
10, 236789, Note_on_c, 7, 56, 0
10, 236820, Note_on_c, 7, 55, 32
10, 236849, Note_on_c, 7, 55, 0
10, 236880, Note_on_c, 7, 53, 35
10, 236909, Note_on_c, 7, 53, 0
10, 236940, Note_on_c, 7, 55, 38
10, 236969, Note_on_c, 7, 55, 0
10, 237000, Note_on_c, 7, 56, 41
10, 237029, Note_on_c, 7, 56, 0
10, 237060, Note_on_c, 7, 58, 43
10, 237089, Note_on_c, 7, 58, 0
10, 237120, Note_on_c, 7, 60, 46
10, 237149, Note_on_c, 7, 60, 0
10, 237180, Note_on_c, 7, 58, 48
10, 237209, Note_on_c, 7, 58, 0
10, 237240, Note_on_c, 7, 56, 51
10, 237269, Note_on_c, 7, 56, 0
10, 237300, Note_on_c, 7, 58, 54
10, 237329, Note_on_c, 7, 58, 0
10, 237360, Note_on_c, 7, 60, 57
10, 237389, Note_on_c, 7, 60, 0
10, 237420, Note_on_c, 7, 58, 59
10, 237449, Note_on_c, 7, 58, 0
10, 237480, Note_on_c, 7, 56, 62
10, 237509, Note_on_c, 7, 56, 0
10, 237540, Note_on_c, 7, 55, 64
10, 237569, Note_on_c, 7, 55, 0
10, 237600, Note_on_c, 7, 53, 67
10, 237629, Note_on_c, 7, 53, 0
10, 237660, Note_on_c, 7, 55, 70
10, 237689, Note_on_c, 7, 55, 0
10, 237720, Note_on_c, 7, 56, 73
10, 237749, Note_on_c, 7, 56, 0
10, 237780, Note_on_c, 7, 58, 75
10, 237809, Note_on_c, 7, 58, 0
10, 237840, Note_on_c, 7, 56, 78
10, 237869, Note_on_c, 7, 56, 0
10, 237900, Note_on_c, 7, 55, 80
10, 237929, Note_on_c, 7, 55, 0
10, 237960, Note_on_c, 7, 53, 82
10, 237989, Note_on_c, 7, 53, 0
10, 238020, Note_on_c, 7, 51, 84
10, 238049, Note_on_c, 7, 51, 0
10, 238080, Note_on_c, 7, 50, 87
10, 238109, Note_on_c, 7, 50, 0
10, 238140, Note_on_c, 7, 60, 90
10, 238169, Note_on_c, 7, 60, 0
10, 238200, Note_on_c, 7, 58, 92
10, 238229, Note_on_c, 7, 58, 0
10, 238260, Note_on_c, 7, 56, 94
10, 238289, Note_on_c, 7, 56, 0
10, 238320, Note_on_c, 7, 55, 96
10, 238379, Note_on_c, 7, 55, 0
10, 238380, Note_on_c, 7, 55, 96
10, 238439, Note_on_c, 7, 55, 0
10, 238440, Note_on_c, 7, 58, 96
10, 238499, Note_on_c, 7, 58, 0
10, 238500, Note_on_c, 7, 63, 96
10, 238559, Note_on_c, 7, 63, 0
10, 238560, Note_on_c, 7, 67, 96
10, 238619, Note_on_c, 7, 67, 0
10, 238620, Note_on_c, 7, 55, 96
10, 238679, Note_on_c, 7, 55, 0
10, 238740, Note_on_c, 7, 58, 96
10, 238799, Note_on_c, 7, 58, 0
10, 238800, Note_on_c, 7, 63, 112
10, 238859, Note_on_c, 7, 63, 0
10, 238860, Note_on_c, 7, 67, 96
10, 238919, Note_on_c, 7, 67, 0
10, 238920, Note_on_c, 7, 70, 96
10, 238979, Note_on_c, 7, 70, 0
10, 238980, Note_on_c, 7, 58, 96
10, 239039, Note_on_c, 7, 58, 0
10, 239100, Note_on_c, 7, 58, 96
10, 239159, Note_on_c, 7, 58, 0
10, 239160, Note_on_c, 7, 65, 112
10, 239219, Note_on_c, 7, 65, 0
10, 239220, Note_on_c, 7, 68, 96
10, 239279, Note_on_c, 7, 68, 0
10, 239280, Note_on_c, 7, 70, 96
10, 239339, Note_on_c, 7, 70, 0
10, 239340, Note_on_c, 7, 58, 96
10, 239399, Note_on_c, 7, 58, 0
10, 239460, Note_on_c, 7, 58, 96
10, 239519, Note_on_c, 7, 58, 0
10, 239520, Note_on_c, 7, 62, 112
10, 239579, Note_on_c, 7, 62, 0
10, 239580, Note_on_c, 7, 65, 96
10, 239639, Note_on_c, 7, 65, 0
10, 239640, Note_on_c, 7, 70, 96
10, 239699, Note_on_c, 7, 70, 0
10, 239700, Note_on_c, 7, 68, 96
10, 239759, Note_on_c, 7, 68, 0
10, 239760, Note_on_c, 7, 67, 127
10, 239819, Note_on_c, 7, 67, 0
10, 239820, Note_on_c, 7, 55, 127
10, 239849, Note_on_c, 7, 55, 0
10, 239850, Note_on_c, 7, 55, 127
10, 239879, Note_on_c, 7, 55, 0
10, 239880, Note_on_c, 7, 58, 127
10, 239909, Note_on_c, 7, 58, 0
10, 239910, Note_on_c, 7, 58, 127
10, 239939, Note_on_c, 7, 58, 0
10, 239940, Note_on_c, 7, 63, 127
10, 239969, Note_on_c, 7, 63, 0
10, 239970, Note_on_c, 7, 63, 127
10, 239999, Note_on_c, 7, 63, 0
10, 240000, Note_on_c, 7, 67, 127
10, 240029, Note_on_c, 7, 67, 0
10, 240030, Note_on_c, 7, 67, 127
10, 240059, Note_on_c, 7, 67, 0
10, 240060, Note_on_c, 7, 55, 127
10, 240089, Note_on_c, 7, 55, 0
10, 240090, Note_on_c, 7, 55, 127
10, 240119, Note_on_c, 7, 55, 0
10, 240180, Note_on_c, 7, 55, 127
10, 240209, Note_on_c, 7, 55, 0
10, 240210, Note_on_c, 7, 55, 127
10, 240239, Note_on_c, 7, 55, 0
10, 240240, Note_on_c, 7, 58, 127
10, 240269, Note_on_c, 7, 58, 0
10, 240270, Note_on_c, 7, 58, 127
10, 240299, Note_on_c, 7, 58, 0
10, 240300, Note_on_c, 7, 63, 127
10, 240329, Note_on_c, 7, 63, 0
10, 240330, Note_on_c, 7, 63, 127
10, 240359, Note_on_c, 7, 63, 0
10, 240360, Note_on_c, 7, 67, 127
10, 240389, Note_on_c, 7, 67, 0
10, 240390, Note_on_c, 7, 67, 127
10, 240419, Note_on_c, 7, 67, 0
10, 240420, Note_on_c, 7, 55, 127
10, 240449, Note_on_c, 7, 55, 0
10, 240450, Note_on_c, 7, 55, 127
10, 240479, Note_on_c, 7, 55, 0
10, 240540, Note_on_c, 7, 56, 127
10, 240569, Note_on_c, 7, 56, 0
10, 240570, Note_on_c, 7, 56, 127
10, 240599, Note_on_c, 7, 56, 0
10, 240600, Note_on_c, 7, 58, 127
10, 240629, Note_on_c, 7, 58, 0
10, 240630, Note_on_c, 7, 58, 127
10, 240659, Note_on_c, 7, 58, 0
10, 240660, Note_on_c, 7, 62, 127
10, 240689, Note_on_c, 7, 62, 0
10, 240690, Note_on_c, 7, 62, 127
10, 240719, Note_on_c, 7, 62, 0
10, 240720, Note_on_c, 7, 65, 127
10, 240749, Note_on_c, 7, 65, 0
10, 240750, Note_on_c, 7, 65, 127
10, 240779, Note_on_c, 7, 65, 0
10, 240780, Note_on_c, 7, 56, 127
10, 240809, Note_on_c, 7, 56, 0
10, 240810, Note_on_c, 7, 56, 127
10, 240839, Note_on_c, 7, 56, 0
10, 240900, Note_on_c, 7, 56, 127
10, 240929, Note_on_c, 7, 56, 0
10, 240930, Note_on_c, 7, 56, 127
10, 240959, Note_on_c, 7, 56, 0
10, 240960, Note_on_c, 7, 58, 127
10, 240989, Note_on_c, 7, 58, 0
10, 240990, Note_on_c, 7, 58, 127
10, 241019, Note_on_c, 7, 58, 0
10, 241020, Note_on_c, 7, 62, 127
10, 241049, Note_on_c, 7, 62, 0
10, 241050, Note_on_c, 7, 62, 127
10, 241079, Note_on_c, 7, 62, 0
10, 241080, Note_on_c, 7, 65, 127
10, 241109, Note_on_c, 7, 65, 0
10, 241110, Note_on_c, 7, 65, 127
10, 241139, Note_on_c, 7, 65, 0
10, 241140, Note_on_c, 7, 62, 127
10, 241169, Note_on_c, 7, 62, 0
10, 241170, Note_on_c, 7, 62, 127
10, 241199, Note_on_c, 7, 62, 0
10, 241200, Note_on_c, 7, 63, 127
10, 241319, Note_on_c, 7, 63, 0
10, 241740, Note_on_c, 7, 56, 127
10, 241769, Note_on_c, 7, 56, 0
10, 241770, Note_on_c, 7, 56, 127
10, 241799, Note_on_c, 7, 56, 0
10, 241800, Note_on_c, 7, 58, 127
10, 241829, Note_on_c, 7, 58, 0
10, 241830, Note_on_c, 7, 58, 127
10, 241859, Note_on_c, 7, 58, 0
10, 241860, Note_on_c, 7, 58, 127
10, 241889, Note_on_c, 7, 58, 0
10, 241890, Note_on_c, 7, 58, 127
10, 241919, Note_on_c, 7, 58, 0
10, 241920, Note_on_c, 7, 51, 127
10, 241949, Note_on_c, 7, 51, 0
10, 241950, Note_on_c, 7, 51, 127
10, 241979, Note_on_c, 7, 51, 0
10, 241980, Note_on_c, 7, 58, 127
10, 242009, Note_on_c, 7, 58, 0
10, 242010, Note_on_c, 7, 58, 127
10, 242039, Note_on_c, 7, 58, 0
10, 242040, Note_on_c, 7, 56, 127
10, 242069, Note_on_c, 7, 56, 0
10, 242070, Note_on_c, 7, 56, 127
10, 242099, Note_on_c, 7, 56, 0
10, 242100, Note_on_c, 7, 60, 127
10, 242129, Note_on_c, 7, 60, 0
10, 242130, Note_on_c, 7, 60, 127
10, 242159, Note_on_c, 7, 60, 0
10, 242160, Note_on_c, 7, 53, 127
10, 242189, Note_on_c, 7, 53, 0
10, 242190, Note_on_c, 7, 53, 127
10, 242219, Note_on_c, 7, 53, 0
10, 242220, Note_on_c, 7, 60, 127
10, 242249, Note_on_c, 7, 60, 0
10, 242250, Note_on_c, 7, 60, 127
10, 242279, Note_on_c, 7, 60, 0
10, 242280, Note_on_c, 7, 59, 127
10, 242309, Note_on_c, 7, 59, 0
10, 242310, Note_on_c, 7, 59, 127
10, 242339, Note_on_c, 7, 59, 0
10, 242340, Note_on_c, 7, 62, 127
10, 242369, Note_on_c, 7, 62, 0
10, 242370, Note_on_c, 7, 62, 127
10, 242399, Note_on_c, 7, 62, 0
10, 242400, Note_on_c, 7, 55, 127
10, 242429, Note_on_c, 7, 55, 0
10, 242430, Note_on_c, 7, 55, 127
10, 242459, Note_on_c, 7, 55, 0
10, 242460, Note_on_c, 7, 61, 127
10, 242489, Note_on_c, 7, 61, 0
10, 242490, Note_on_c, 7, 61, 127
10, 242519, Note_on_c, 7, 61, 0
10, 242520, Note_on_c, 7, 60, 127
10, 242549, Note_on_c, 7, 60, 0
10, 242550, Note_on_c, 7, 60, 127
10, 242579, Note_on_c, 7, 60, 0
10, 242580, Note_on_c, 7, 63, 127
10, 242609, Note_on_c, 7, 63, 0
10, 242610, Note_on_c, 7, 63, 127
10, 242639, Note_on_c, 7, 63, 0
10, 242640, Note_on_c, 7, 56, 127
10, 242669, Note_on_c, 7, 56, 0
10, 242670, Note_on_c, 7, 56, 127
10, 242699, Note_on_c, 7, 56, 0
10, 242700, Note_on_c, 7, 63, 127
10, 242729, Note_on_c, 7, 63, 0
10, 242730, Note_on_c, 7, 63, 127
10, 242759, Note_on_c, 7, 63, 0
10, 242760, Note_on_c, 7, 62, 127
10, 242789, Note_on_c, 7, 62, 0
10, 242790, Note_on_c, 7, 62, 127
10, 242819, Note_on_c, 7, 62, 0
10, 242820, Note_on_c, 7, 65, 127
10, 242849, Note_on_c, 7, 65, 0
10, 242850, Note_on_c, 7, 65, 127
10, 242879, Note_on_c, 7, 65, 0
10, 242880, Note_on_c, 7, 58, 127
10, 242909, Note_on_c, 7, 58, 0
10, 242910, Note_on_c, 7, 58, 127
10, 242939, Note_on_c, 7, 58, 0
10, 242940, Note_on_c, 7, 65, 127
10, 242969, Note_on_c, 7, 65, 0
10, 242970, Note_on_c, 7, 65, 127
10, 242999, Note_on_c, 7, 65, 0
10, 243000, Note_on_c, 7, 63, 127
10, 243029, Note_on_c, 7, 63, 0
10, 243030, Note_on_c, 7, 67, 127
10, 243059, Note_on_c, 7, 67, 0
10, 243060, Note_on_c, 7, 67, 127
10, 243089, Note_on_c, 7, 67, 0
10, 243090, Note_on_c, 7, 67, 127
10, 243119, Note_on_c, 7, 67, 0
10, 243120, Note_on_c, 7, 67, 127
10, 243149, Note_on_c, 7, 67, 0
10, 243150, Note_on_c, 7, 70, 127
10, 243179, Note_on_c, 7, 70, 0
10, 243180, Note_on_c, 7, 70, 127
10, 243209, Note_on_c, 7, 70, 0
10, 243210, Note_on_c, 7, 70, 127
10, 243239, Note_on_c, 7, 70, 0
10, 243240, Note_on_c, 7, 70, 127
10, 243269, Note_on_c, 7, 70, 0
10, 243270, Note_on_c, 7, 70, 127
10, 243299, Note_on_c, 7, 70, 0
10, 243300, Note_on_c, 7, 70, 127
10, 243329, Note_on_c, 7, 70, 0
10, 243330, Note_on_c, 7, 70, 127
10, 243359, Note_on_c, 7, 70, 0
10, 243360, Note_on_c, 7, 69, 127
10, 243419, Note_on_c, 7, 69, 0
10, 243480, Note_on_c, 7, 55, 127
10, 243480, Note_on_c, 7, 67, 127
10, 243539, Note_on_c, 7, 67, 0
10, 243539, Note_on_c, 7, 55, 0
10, 243600, Note_on_c, 7, 67, 127
10, 243600, Note_on_c, 7, 55, 127
10, 243659, Note_on_c, 7, 55, 0
10, 243659, Note_on_c, 7, 67, 0
10, 243840, Note_on_c, 7, 55, 127
10, 243899, Note_on_c, 7, 55, 0
10, 243960, Note_on_c, 7, 56, 127
10, 244019, Note_on_c, 7, 56, 0
10, 244200, Note_on_c, 7, 57, 127
10, 244259, Note_on_c, 7, 57, 0
10, 244320, Note_on_c, 7, 58, 127
10, 244379, Note_on_c, 7, 58, 0
10, 244560, Note_on_c, 7, 67, 127
10, 244560, Note_on_c, 7, 55, 127
10, 244619, Note_on_c, 7, 55, 0
10, 244619, Note_on_c, 7, 67, 0
10, 244680, Note_on_c, 7, 55, 127
10, 244680, Note_on_c, 7, 67, 127
10, 244739, Note_on_c, 7, 67, 0
10, 244739, Note_on_c, 7, 55, 0
10, 244920, Note_on_c, 7, 67, 127
10, 244979, Note_on_c, 7, 67, 0
10, 245040, Note_on_c, 7, 68, 127
10, 245099, Note_on_c, 7, 68, 0
10, 245280, Note_on_c, 7, 69, 127
10, 245339, Note_on_c, 7, 69, 0
10, 245520, Note_on_c, 7, 69, 127
10, 245579, Note_on_c, 7, 69, 0
10, 245760, Note_on_c, 7, 69, 127
10, 245819, Note_on_c, 7, 69, 0
10, 246000, Note_on_c, 7, 69, 127
10, 246059, Note_on_c, 7, 69, 0
10, 246240, Note_on_c, 7, 69, 127
10, 246299, Note_on_c, 7, 69, 0
10, 246480, Note_on_c, 7, 69, 127
10, 246539, Note_on_c, 7, 69, 0
10, 246960, Note_on_c, 7, 57, 96
10, 246989, Note_on_c, 7, 57, 0
10, 246990, Note_on_c, 7, 57, 48
10, 247080, Note_on_c, 7, 54, 48
10, 247089, Note_on_c, 7, 57, 0
10, 247200, Note_on_c, 7, 51, 48
10, 247209, Note_on_c, 7, 54, 0
10, 247319, Note_on_c, 7, 51, 0
10, 247320, Note_on_c, 7, 55, 48
10, 247679, Note_on_c, 7, 55, 0
10, 247680, Note_on_c, 7, 57, 96
10, 247709, Note_on_c, 7, 57, 0
10, 247710, Note_on_c, 7, 57, 48
10, 247800, Note_on_c, 7, 54, 48
10, 247809, Note_on_c, 7, 57, 0
10, 247920, Note_on_c, 7, 51, 48
10, 247929, Note_on_c, 7, 54, 0
10, 248099, Note_on_c, 7, 51, 0
10, 248100, Note_on_c, 7, 48, 48
10, 248129, Note_on_c, 7, 48, 0
10, 248160, Note_on_c, 7, 51, 48
10, 248189, Note_on_c, 7, 51, 0
10, 248220, Note_on_c, 7, 56, 48
10, 248249, Note_on_c, 7, 56, 0
10, 248280, Note_on_c, 7, 48, 48
10, 248399, Note_on_c, 7, 48, 0
10, 248460, Note_on_c, 7, 49, 48
10, 248489, Note_on_c, 7, 49, 0
10, 248520, Note_on_c, 7, 53, 48
10, 248549, Note_on_c, 7, 53, 0
10, 248580, Note_on_c, 7, 56, 48
10, 248609, Note_on_c, 7, 56, 0
10, 248640, Note_on_c, 7, 49, 48
10, 248759, Note_on_c, 7, 49, 0
10, 248820, Note_on_c, 7, 50, 48
10, 248849, Note_on_c, 7, 50, 0
10, 248880, Note_on_c, 7, 53, 48
10, 248909, Note_on_c, 7, 53, 0
10, 248940, Note_on_c, 7, 58, 48
10, 248969, Note_on_c, 7, 58, 0
10, 249000, Note_on_c, 7, 50, 48
10, 249119, Note_on_c, 7, 50, 0
10, 249180, Note_on_c, 7, 58, 48
10, 249240, Note_on_c, 7, 63, 48
10, 249249, Note_on_c, 7, 58, 0
10, 249300, Note_on_c, 7, 58, 48
10, 249309, Note_on_c, 7, 63, 0
10, 249360, Note_on_c, 7, 63, 48
10, 249369, Note_on_c, 7, 58, 0
10, 249420, Note_on_c, 7, 59, 48
10, 249429, Note_on_c, 7, 63, 0
10, 249479, Note_on_c, 7, 59, 0
10, 249480, Note_on_c, 7, 60, 50
10, 249509, Note_on_c, 7, 60, 0
10, 249510, Note_on_c, 7, 60, 52
10, 249539, Note_on_c, 7, 60, 0
10, 249540, Note_on_c, 7, 60, 54
10, 249569, Note_on_c, 7, 60, 0
10, 249570, Note_on_c, 7, 60, 56
10, 249599, Note_on_c, 7, 60, 0
10, 249600, Note_on_c, 7, 60, 58
10, 249629, Note_on_c, 7, 60, 0
10, 249630, Note_on_c, 7, 60, 60
10, 249659, Note_on_c, 7, 60, 0
10, 249660, Note_on_c, 7, 60, 62
10, 249689, Note_on_c, 7, 60, 0
10, 249690, Note_on_c, 7, 60, 64
10, 249719, Note_on_c, 7, 60, 0
10, 249720, Note_on_c, 7, 60, 66
10, 249749, Note_on_c, 7, 60, 0
10, 249750, Note_on_c, 7, 60, 68
10, 249779, Note_on_c, 7, 60, 0
10, 249780, Note_on_c, 7, 60, 70
10, 249809, Note_on_c, 7, 60, 0
10, 249810, Note_on_c, 7, 60, 72
10, 249839, Note_on_c, 7, 60, 0
10, 249840, Note_on_c, 7, 56, 74
10, 249869, Note_on_c, 7, 56, 0
10, 249870, Note_on_c, 7, 68, 77
10, 249899, Note_on_c, 7, 68, 0
10, 249900, Note_on_c, 7, 68, 79
10, 249929, Note_on_c, 7, 68, 0
10, 249930, Note_on_c, 7, 68, 82
10, 249959, Note_on_c, 7, 68, 0
10, 249960, Note_on_c, 7, 68, 84
10, 249989, Note_on_c, 7, 68, 0
10, 249990, Note_on_c, 7, 68, 87
10, 250019, Note_on_c, 7, 68, 0
10, 250020, Note_on_c, 7, 68, 89
10, 250049, Note_on_c, 7, 68, 0
10, 250050, Note_on_c, 7, 68, 92
10, 250079, Note_on_c, 7, 68, 0
10, 250080, Note_on_c, 7, 70, 94
10, 250109, Note_on_c, 7, 70, 0
10, 250110, Note_on_c, 7, 70, 97
10, 250139, Note_on_c, 7, 70, 0
10, 250140, Note_on_c, 7, 72, 99
10, 250169, Note_on_c, 7, 72, 0
10, 250170, Note_on_c, 7, 72, 102
10, 250199, Note_on_c, 7, 72, 0
10, 250200, Note_on_c, 7, 67, 107
10, 250229, Note_on_c, 7, 67, 0
10, 250260, Note_on_c, 7, 70, 112
10, 250289, Note_on_c, 7, 70, 0
10, 250320, Note_on_c, 7, 67, 117
10, 250349, Note_on_c, 7, 67, 0
10, 250380, Note_on_c, 7, 63, 122
10, 250409, Note_on_c, 7, 63, 0
10, 250440, Note_on_c, 7, 58, 124
10, 250469, Note_on_c, 7, 58, 0
10, 250500, Note_on_c, 7, 55, 126
10, 250529, Note_on_c, 7, 55, 0
10, 250560, Note_on_c, 7, 53, 127
10, 250589, Note_on_c, 7, 53, 0
10, 250590, Note_on_c, 7, 62, 127
10, 250619, Note_on_c, 7, 62, 0
10, 250620, Note_on_c, 7, 62, 127
10, 250649, Note_on_c, 7, 62, 0
10, 250650, Note_on_c, 7, 62, 127
10, 250679, Note_on_c, 7, 62, 0
10, 250680, Note_on_c, 7, 62, 127
10, 250709, Note_on_c, 7, 62, 0
10, 250710, Note_on_c, 7, 62, 127
10, 250739, Note_on_c, 7, 62, 0
10, 250740, Note_on_c, 7, 62, 127
10, 250769, Note_on_c, 7, 62, 0
10, 250770, Note_on_c, 7, 62, 127
10, 250799, Note_on_c, 7, 62, 0
10, 250800, Note_on_c, 7, 62, 127
10, 250829, Note_on_c, 7, 62, 0
10, 250830, Note_on_c, 7, 62, 127
10, 250859, Note_on_c, 7, 62, 0
10, 250860, Note_on_c, 7, 62, 127
10, 250889, Note_on_c, 7, 62, 0
10, 250890, Note_on_c, 7, 62, 127
10, 250919, Note_on_c, 7, 62, 0
10, 250920, Note_on_c, 7, 63, 96
10, 250979, Note_on_c, 7, 63, 0
10, 251040, Note_on_c, 7, 58, 112
10, 251099, Note_on_c, 7, 58, 0
10, 251160, Note_on_c, 7, 55, 96
10, 251219, Note_on_c, 7, 55, 0
10, 251400, Note_on_c, 7, 60, 112
10, 251459, Note_on_c, 7, 60, 0
10, 251520, Note_on_c, 7, 56, 96
10, 251579, Note_on_c, 7, 56, 0
10, 251760, Note_on_c, 7, 58, 112
10, 251819, Note_on_c, 7, 58, 0
10, 251880, Note_on_c, 7, 55, 96
10, 251939, Note_on_c, 7, 55, 0
10, 252000, Note_on_c, 7, 53, 96
10, 252000, Note_on_c, 7, 62, 96
10, 252059, Note_on_c, 7, 62, 0
10, 252059, Note_on_c, 7, 53, 0
10, 252120, Note_on_c, 7, 53, 96
10, 252120, Note_on_c, 7, 62, 96
10, 252179, Note_on_c, 7, 62, 0
10, 252179, Note_on_c, 7, 53, 0
10, 252240, Note_on_c, 7, 53, 96
10, 252240, Note_on_c, 7, 62, 96
10, 252299, Note_on_c, 7, 62, 0
10, 252299, Note_on_c, 7, 53, 0
10, 252360, Note_on_c, 7, 51, 96
10, 252389, Note_on_c, 7, 51, 0
10, 252390, Note_on_c, 7, 51, 48
10, 254519, Note_on_c, 7, 51, 0
10, 254520, Note_on_c, 7, 56, 96
10, 254520, Note_on_c, 7, 49, 96
10, 255239, Note_on_c, 7, 49, 0
10, 255239, Note_on_c, 7, 56, 0
10, 255240, Note_on_c, 7, 49, 48
10, 255959, Note_on_c, 7, 49, 0
10, 255960, Note_on_c, 7, 55, 127
10, 255960, Note_on_c, 7, 48, 127
10, 255989, Note_on_c, 7, 48, 0
10, 255989, Note_on_c, 7, 55, 0
10, 255990, Note_on_c, 7, 55, 127
10, 255990, Note_on_c, 7, 48, 127
10, 256019, Note_on_c, 7, 48, 0
10, 256019, Note_on_c, 7, 55, 0
10, 256020, Note_on_c, 7, 55, 127
10, 256020, Note_on_c, 7, 48, 127
10, 256049, Note_on_c, 7, 48, 0
10, 256049, Note_on_c, 7, 55, 0
10, 256050, Note_on_c, 7, 55, 127
10, 256050, Note_on_c, 7, 48, 127
10, 256079, Note_on_c, 7, 48, 0
10, 256079, Note_on_c, 7, 55, 0
10, 256080, Note_on_c, 7, 55, 127
10, 256080, Note_on_c, 7, 48, 127
10, 256109, Note_on_c, 7, 48, 0
10, 256109, Note_on_c, 7, 55, 0
10, 256110, Note_on_c, 7, 55, 127
10, 256110, Note_on_c, 7, 48, 127
10, 256139, Note_on_c, 7, 48, 0
10, 256139, Note_on_c, 7, 55, 0
10, 256140, Note_on_c, 7, 55, 127
10, 256140, Note_on_c, 7, 48, 127
10, 256169, Note_on_c, 7, 48, 0
10, 256169, Note_on_c, 7, 55, 0
10, 256170, Note_on_c, 7, 55, 127
10, 256170, Note_on_c, 7, 48, 127
10, 256199, Note_on_c, 7, 48, 0
10, 256199, Note_on_c, 7, 55, 0
10, 256200, Note_on_c, 7, 55, 127
10, 256200, Note_on_c, 7, 48, 127
10, 256229, Note_on_c, 7, 48, 0
10, 256229, Note_on_c, 7, 55, 0
10, 256230, Note_on_c, 7, 55, 127
10, 256230, Note_on_c, 7, 48, 127
10, 256259, Note_on_c, 7, 48, 0
10, 256259, Note_on_c, 7, 55, 0
10, 256260, Note_on_c, 7, 55, 127
10, 256260, Note_on_c, 7, 48, 127
10, 256289, Note_on_c, 7, 48, 0
10, 256289, Note_on_c, 7, 55, 0
10, 256290, Note_on_c, 7, 55, 127
10, 256290, Note_on_c, 7, 48, 127
10, 256319, Note_on_c, 7, 48, 0
10, 256319, Note_on_c, 7, 55, 0
10, 256320, Note_on_c, 7, 55, 127
10, 256320, Note_on_c, 7, 48, 127
10, 256349, Note_on_c, 7, 48, 0
10, 256349, Note_on_c, 7, 55, 0
10, 256350, Note_on_c, 7, 55, 127
10, 256350, Note_on_c, 7, 48, 127
10, 256379, Note_on_c, 7, 48, 0
10, 256379, Note_on_c, 7, 55, 0
10, 256380, Note_on_c, 7, 55, 127
10, 256380, Note_on_c, 7, 48, 127
10, 256409, Note_on_c, 7, 48, 0
10, 256409, Note_on_c, 7, 55, 0
10, 256410, Note_on_c, 7, 55, 127
10, 256410, Note_on_c, 7, 48, 127
10, 256439, Note_on_c, 7, 48, 0
10, 256439, Note_on_c, 7, 55, 0
10, 256440, Note_on_c, 7, 55, 127
10, 256440, Note_on_c, 7, 48, 127
10, 256469, Note_on_c, 7, 48, 0
10, 256469, Note_on_c, 7, 55, 0
10, 256470, Note_on_c, 7, 55, 127
10, 256470, Note_on_c, 7, 48, 127
10, 256499, Note_on_c, 7, 48, 0
10, 256499, Note_on_c, 7, 55, 0
10, 256500, Note_on_c, 7, 55, 127
10, 256500, Note_on_c, 7, 48, 127
10, 256529, Note_on_c, 7, 48, 0
10, 256529, Note_on_c, 7, 55, 0
10, 256530, Note_on_c, 7, 55, 127
10, 256530, Note_on_c, 7, 48, 127
10, 256559, Note_on_c, 7, 48, 0
10, 256559, Note_on_c, 7, 55, 0
10, 256560, Note_on_c, 7, 55, 127
10, 256560, Note_on_c, 7, 48, 127
10, 256589, Note_on_c, 7, 48, 0
10, 256589, Note_on_c, 7, 55, 0
10, 256590, Note_on_c, 7, 55, 127
10, 256590, Note_on_c, 7, 48, 127
10, 256619, Note_on_c, 7, 48, 0
10, 256619, Note_on_c, 7, 55, 0
10, 256620, Note_on_c, 7, 55, 127
10, 256620, Note_on_c, 7, 48, 127
10, 256649, Note_on_c, 7, 48, 0
10, 256649, Note_on_c, 7, 55, 0
10, 256650, Note_on_c, 7, 55, 127
10, 256650, Note_on_c, 7, 48, 127
10, 256679, Note_on_c, 7, 48, 0
10, 256679, Note_on_c, 7, 55, 0
10, 256680, Note_on_c, 7, 48, 48
10, 258839, Note_on_c, 7, 48, 0
10, 258840, Note_on_c, 7, 55, 32
10, 260520, Note_on_c, 7, 48, 32
10, 260529, Note_on_c, 7, 55, 0
10, 260640, Note_on_c, 7, 52, 32
10, 260649, Note_on_c, 7, 48, 0
10, 260880, Note_on_c, 7, 55, 32
10, 260889, Note_on_c, 7, 52, 0
10, 260999, Note_on_c, 7, 55, 0
10, 261240, Note_on_c, 7, 48, 32
10, 261360, Note_on_c, 7, 53, 32
10, 261369, Note_on_c, 7, 48, 0
10, 261600, Note_on_c, 7, 56, 32
10, 261609, Note_on_c, 7, 53, 0
10, 261720, Note_on_c, 7, 48, 32
10, 261720, Note_on_c, 7, 60, 32
10, 261729, Note_on_c, 7, 56, 0
10, 261839, Note_on_c, 7, 60, 0
10, 261839, Note_on_c, 7, 48, 0
10, 263280, Note_on_c, 7, 65, 48
10, 263400, Note_on_c, 7, 67, 48
10, 263409, Note_on_c, 7, 65, 0
10, 263520, Note_on_c, 7, 68, 64
10, 263529, Note_on_c, 7, 67, 0
10, 263700, Note_on_c, 7, 67, 56
10, 263709, Note_on_c, 7, 68, 0
10, 263760, Note_on_c, 7, 65, 48
10, 263769, Note_on_c, 7, 67, 0
10, 263879, Note_on_c, 7, 65, 0
10, 263880, Note_on_c, 7, 64, 48
10, 264000, Note_on_c, 7, 63, 48
10, 264009, Note_on_c, 7, 64, 0
10, 264120, Note_on_c, 7, 62, 48
10, 264129, Note_on_c, 7, 63, 0
10, 264240, Note_on_c, 7, 60, 64
10, 264249, Note_on_c, 7, 62, 0
10, 264480, Note_on_c, 7, 62, 48
10, 264489, Note_on_c, 7, 60, 0
10, 264540, Note_on_c, 7, 64, 48
10, 264549, Note_on_c, 7, 62, 0
10, 264600, Note_on_c, 7, 65, 48
10, 264609, Note_on_c, 7, 64, 0
10, 264669, Note_on_c, 7, 65, 0
10, 264720, Note_on_c, 7, 65, 48
10, 264840, Note_on_c, 7, 67, 48
10, 264849, Note_on_c, 7, 65, 0
10, 264960, Note_on_c, 7, 68, 64
10, 264969, Note_on_c, 7, 67, 0
10, 265140, Note_on_c, 7, 67, 48
10, 265149, Note_on_c, 7, 68, 0
10, 265200, Note_on_c, 7, 65, 48
10, 265209, Note_on_c, 7, 67, 0
10, 265319, Note_on_c, 7, 65, 0
10, 265320, Note_on_c, 7, 65, 48
10, 265439, Note_on_c, 7, 65, 0
10, 265440, Note_on_c, 7, 58, 53
10, 265560, Note_on_c, 7, 60, 58
10, 265569, Note_on_c, 7, 58, 0
10, 265680, Note_on_c, 7, 62, 64
10, 265689, Note_on_c, 7, 60, 0
10, 265860, Note_on_c, 7, 60, 48
10, 265869, Note_on_c, 7, 62, 0
10, 265920, Note_on_c, 7, 58, 48
10, 265929, Note_on_c, 7, 60, 0
10, 266039, Note_on_c, 7, 58, 0
10, 266040, Note_on_c, 7, 63, 48
10, 266159, Note_on_c, 7, 63, 0
10, 271080, Note_on_c, 7, 58, 32
10, 271139, Note_on_c, 7, 58, 0
10, 271200, Note_on_c, 7, 62, 32
10, 271259, Note_on_c, 7, 62, 0
10, 271320, Note_on_c, 7, 58, 32
10, 271379, Note_on_c, 7, 58, 0
10, 271440, Note_on_c, 7, 65, 32
10, 271499, Note_on_c, 7, 65, 0
10, 271560, Note_on_c, 7, 58, 32
10, 271619, Note_on_c, 7, 58, 0
10, 271680, Note_on_c, 7, 70, 32
10, 271739, Note_on_c, 7, 70, 0
10, 271800, Note_on_c, 7, 58, 32
10, 271859, Note_on_c, 7, 58, 0
10, 271920, Note_on_c, 7, 74, 32
10, 271979, Note_on_c, 7, 74, 0
10, 272040, Note_on_c, 7, 58, 32
10, 272099, Note_on_c, 7, 58, 0
10, 272160, Note_on_c, 7, 65, 96
10, 272189, Note_on_c, 7, 65, 0
10, 272190, Note_on_c, 7, 65, 32
10, 272519, Note_on_c, 7, 65, 0
10, 272520, Note_on_c, 7, 58, 32
10, 272579, Note_on_c, 7, 58, 0
10, 272640, Note_on_c, 7, 63, 32
10, 272699, Note_on_c, 7, 63, 0
10, 272760, Note_on_c, 7, 58, 32
10, 272819, Note_on_c, 7, 58, 0
10, 272880, Note_on_c, 7, 66, 32
10, 272939, Note_on_c, 7, 66, 0
10, 273000, Note_on_c, 7, 58, 32
10, 273059, Note_on_c, 7, 58, 0
10, 273120, Note_on_c, 7, 70, 32
10, 273179, Note_on_c, 7, 70, 0
10, 273240, Note_on_c, 7, 58, 32
10, 273299, Note_on_c, 7, 58, 0
10, 273360, Note_on_c, 7, 75, 32
10, 273419, Note_on_c, 7, 75, 0
10, 273480, Note_on_c, 7, 58, 32
10, 273539, Note_on_c, 7, 58, 0
10, 273600, Note_on_c, 7, 66, 96
10, 273629, Note_on_c, 7, 66, 0
10, 273630, Note_on_c, 7, 66, 32
10, 274079, Note_on_c, 7, 66, 0
10, 274080, Note_on_c, 7, 65, 32
10, 274139, Note_on_c, 7, 65, 0
10, 274200, Note_on_c, 7, 58, 32
10, 274259, Note_on_c, 7, 58, 0
10, 274320, Note_on_c, 7, 68, 96
10, 274349, Note_on_c, 7, 68, 0
10, 274350, Note_on_c, 7, 68, 32
10, 274799, Note_on_c, 7, 68, 0
10, 274800, Note_on_c, 7, 67, 32
10, 274859, Note_on_c, 7, 67, 0
10, 274920, Note_on_c, 7, 58, 32
10, 274979, Note_on_c, 7, 58, 0
10, 275040, Note_on_c, 7, 70, 96
10, 275069, Note_on_c, 7, 70, 0
10, 275070, Note_on_c, 7, 70, 32
10, 275519, Note_on_c, 7, 70, 0
10, 275520, Note_on_c, 7, 69, 32
10, 275579, Note_on_c, 7, 69, 0
10, 275640, Note_on_c, 7, 58, 34
10, 275699, Note_on_c, 7, 58, 0
10, 275760, Note_on_c, 7, 69, 35
10, 275819, Note_on_c, 7, 69, 0
10, 275880, Note_on_c, 7, 58, 36
10, 275939, Note_on_c, 7, 58, 0
10, 276000, Note_on_c, 7, 69, 37
10, 276059, Note_on_c, 7, 69, 0
10, 276120, Note_on_c, 7, 58, 38
10, 276179, Note_on_c, 7, 58, 0
10, 276240, Note_on_c, 7, 69, 40
10, 276299, Note_on_c, 7, 69, 0
10, 276360, Note_on_c, 7, 58, 41
10, 276419, Note_on_c, 7, 58, 0
10, 276480, Note_on_c, 7, 69, 42
10, 276539, Note_on_c, 7, 69, 0
10, 276600, Note_on_c, 7, 58, 45
10, 276659, Note_on_c, 7, 58, 0
10, 276720, Note_on_c, 7, 69, 47
10, 276779, Note_on_c, 7, 69, 0
10, 276840, Note_on_c, 7, 58, 48
10, 276899, Note_on_c, 7, 58, 0
10, 276960, Note_on_c, 7, 70, 52
10, 277019, Note_on_c, 7, 70, 0
10, 277080, Note_on_c, 7, 58, 56
10, 277139, Note_on_c, 7, 58, 0
10, 277200, Note_on_c, 7, 70, 60
10, 277259, Note_on_c, 7, 70, 0
10, 277320, Note_on_c, 7, 58, 64
10, 277379, Note_on_c, 7, 58, 0
10, 277440, Note_on_c, 7, 70, 68
10, 277499, Note_on_c, 7, 70, 0
10, 277560, Note_on_c, 7, 59, 64
10, 277619, Note_on_c, 7, 59, 0
10, 277680, Note_on_c, 7, 71, 60
10, 277739, Note_on_c, 7, 71, 0
10, 277800, Note_on_c, 7, 59, 56
10, 277859, Note_on_c, 7, 59, 0
10, 277920, Note_on_c, 7, 71, 52
10, 277979, Note_on_c, 7, 71, 0
10, 278040, Note_on_c, 7, 59, 48
10, 278099, Note_on_c, 7, 59, 0
10, 278160, Note_on_c, 7, 71, 48
10, 278219, Note_on_c, 7, 71, 0
10, 278280, Note_on_c, 7, 60, 48
10, 278339, Note_on_c, 7, 60, 0
10, 278400, Note_on_c, 7, 72, 48
10, 278459, Note_on_c, 7, 72, 0
10, 278520, Note_on_c, 7, 60, 48
10, 278579, Note_on_c, 7, 60, 0
10, 278640, Note_on_c, 7, 72, 48
10, 278699, Note_on_c, 7, 72, 0
10, 278760, Note_on_c, 7, 60, 48
10, 278819, Note_on_c, 7, 60, 0
10, 278880, Note_on_c, 7, 72, 48
10, 278939, Note_on_c, 7, 72, 0
10, 279000, Note_on_c, 7, 56, 48
10, 279059, Note_on_c, 7, 56, 0
10, 279120, Note_on_c, 7, 68, 48
10, 279179, Note_on_c, 7, 68, 0
10, 279240, Note_on_c, 7, 56, 48
10, 279299, Note_on_c, 7, 56, 0
10, 279360, Note_on_c, 7, 68, 48
10, 279419, Note_on_c, 7, 68, 0
10, 279480, Note_on_c, 7, 56, 48
10, 279539, Note_on_c, 7, 56, 0
10, 279600, Note_on_c, 7, 68, 48
10, 279659, Note_on_c, 7, 68, 0
10, 279720, Note_on_c, 7, 58, 48
10, 279779, Note_on_c, 7, 58, 0
10, 279840, Note_on_c, 7, 70, 50
10, 279899, Note_on_c, 7, 70, 0
10, 279960, Note_on_c, 7, 58, 52
10, 280019, Note_on_c, 7, 58, 0
10, 280080, Note_on_c, 7, 70, 54
10, 280139, Note_on_c, 7, 70, 0
10, 280200, Note_on_c, 7, 58, 56
10, 280259, Note_on_c, 7, 58, 0
10, 280320, Note_on_c, 7, 70, 58
10, 280379, Note_on_c, 7, 70, 0
10, 280440, Note_on_c, 7, 58, 60
10, 280499, Note_on_c, 7, 58, 0
10, 280560, Note_on_c, 7, 70, 62
10, 280619, Note_on_c, 7, 70, 0
10, 280680, Note_on_c, 7, 58, 64
10, 280739, Note_on_c, 7, 58, 0
10, 280800, Note_on_c, 7, 70, 48
10, 280859, Note_on_c, 7, 70, 0
10, 280920, Note_on_c, 7, 58, 48
10, 280979, Note_on_c, 7, 58, 0
10, 281040, Note_on_c, 7, 70, 48
10, 281099, Note_on_c, 7, 70, 0
10, 281160, Note_on_c, 7, 63, 48
10, 281219, Note_on_c, 7, 63, 0
10, 281880, Note_on_c, 7, 63, 48
10, 281939, Note_on_c, 7, 63, 0
10, 282360, Note_on_c, 7, 63, 48
10, 282419, Note_on_c, 7, 63, 0
10, 282480, Note_on_c, 7, 63, 48
10, 282539, Note_on_c, 7, 63, 0
10, 282600, Note_on_c, 7, 62, 48
10, 282659, Note_on_c, 7, 62, 0
10, 283320, Note_on_c, 7, 58, 48
10, 283379, Note_on_c, 7, 58, 0
10, 283800, Note_on_c, 7, 58, 48
10, 283859, Note_on_c, 7, 58, 0
10, 283920, Note_on_c, 7, 58, 48
10, 283979, Note_on_c, 7, 58, 0
10, 284040, Note_on_c, 7, 63, 48
10, 284099, Note_on_c, 7, 63, 0
10, 284760, Note_on_c, 7, 63, 48
10, 284819, Note_on_c, 7, 63, 0
10, 285240, Note_on_c, 7, 63, 48
10, 285299, Note_on_c, 7, 63, 0
10, 285360, Note_on_c, 7, 63, 48
10, 285419, Note_on_c, 7, 63, 0
10, 285480, Note_on_c, 7, 62, 48
10, 285539, Note_on_c, 7, 62, 0
10, 286200, Note_on_c, 7, 58, 48
10, 286259, Note_on_c, 7, 58, 0
10, 286680, Note_on_c, 7, 58, 48
10, 286739, Note_on_c, 7, 58, 0
10, 286800, Note_on_c, 7, 58, 48
10, 286859, Note_on_c, 7, 58, 0
10, 286920, Note_on_c, 7, 63, 48
10, 287160, Note_on_c, 7, 67, 52
10, 287169, Note_on_c, 7, 63, 0
10, 287280, Note_on_c, 7, 63, 54
10, 287289, Note_on_c, 7, 67, 0
10, 287520, Note_on_c, 7, 58, 58
10, 287529, Note_on_c, 7, 63, 0
10, 287639, Note_on_c, 7, 58, 0
10, 287640, Note_on_c, 7, 63, 60
10, 287760, Note_on_c, 7, 67, 62
10, 287769, Note_on_c, 7, 63, 0
10, 287879, Note_on_c, 7, 67, 0
10, 287880, Note_on_c, 7, 70, 64
10, 287939, Note_on_c, 7, 70, 0
10, 288000, Note_on_c, 7, 70, 66
10, 288359, Note_on_c, 7, 70, 0
10, 288360, Note_on_c, 7, 65, 72
10, 288600, Note_on_c, 7, 68, 76
10, 288609, Note_on_c, 7, 65, 0
10, 288720, Note_on_c, 7, 65, 78
10, 288729, Note_on_c, 7, 68, 0
10, 288960, Note_on_c, 7, 58, 82
10, 288969, Note_on_c, 7, 65, 0
10, 289079, Note_on_c, 7, 58, 0
10, 289080, Note_on_c, 7, 65, 84
10, 289200, Note_on_c, 7, 68, 86
10, 289209, Note_on_c, 7, 65, 0
10, 289319, Note_on_c, 7, 68, 0
10, 289320, Note_on_c, 7, 70, 88
10, 289379, Note_on_c, 7, 70, 0
10, 289440, Note_on_c, 7, 70, 90
10, 289859, Note_on_c, 7, 70, 0
10, 289860, Note_on_c, 7, 63, 96
10, 289890, Note_on_c, 7, 65, 96
10, 289899, Note_on_c, 7, 63, 0
10, 289920, Note_on_c, 7, 67, 96
10, 289929, Note_on_c, 7, 65, 0
10, 289949, Note_on_c, 7, 67, 0
10, 289980, Note_on_c, 7, 67, 96
10, 290010, Note_on_c, 7, 68, 96
10, 290019, Note_on_c, 7, 67, 0
10, 290040, Note_on_c, 7, 70, 96
10, 290049, Note_on_c, 7, 68, 0
10, 290069, Note_on_c, 7, 70, 0
10, 290100, Note_on_c, 7, 72, 96
10, 290130, Note_on_c, 7, 74, 96
10, 290139, Note_on_c, 7, 72, 0
10, 290160, Note_on_c, 7, 75, 96
10, 290169, Note_on_c, 7, 74, 0
10, 290189, Note_on_c, 7, 75, 0
10, 290220, Note_on_c, 7, 67, 96
10, 290250, Note_on_c, 7, 68, 96
10, 290259, Note_on_c, 7, 67, 0
10, 290280, Note_on_c, 7, 70, 96
10, 290289, Note_on_c, 7, 68, 0
10, 290309, Note_on_c, 7, 70, 0
10, 290340, Note_on_c, 7, 72, 96
10, 290370, Note_on_c, 7, 74, 96
10, 290379, Note_on_c, 7, 72, 0
10, 290400, Note_on_c, 7, 75, 96
10, 290409, Note_on_c, 7, 74, 0
10, 290429, Note_on_c, 7, 75, 0
10, 290460, Note_on_c, 7, 75, 96
10, 290490, Note_on_c, 7, 77, 96
10, 290499, Note_on_c, 7, 75, 0
10, 290520, Note_on_c, 7, 79, 112
10, 290529, Note_on_c, 7, 77, 0
10, 290549, Note_on_c, 7, 79, 0
10, 290580, Note_on_c, 7, 77, 96
10, 290609, Note_on_c, 7, 77, 0
10, 290640, Note_on_c, 7, 75, 96
10, 290669, Note_on_c, 7, 75, 0
10, 290700, Note_on_c, 7, 74, 96
10, 290729, Note_on_c, 7, 74, 0
10, 290760, Note_on_c, 7, 72, 96
10, 290789, Note_on_c, 7, 72, 0
10, 290820, Note_on_c, 7, 70, 96
10, 290849, Note_on_c, 7, 70, 0
10, 290880, Note_on_c, 7, 68, 96
10, 290909, Note_on_c, 7, 68, 0
10, 290940, Note_on_c, 7, 67, 96
10, 290969, Note_on_c, 7, 67, 0
10, 291000, Note_on_c, 7, 65, 96
10, 291029, Note_on_c, 7, 65, 0
10, 291060, Note_on_c, 7, 63, 96
10, 291089, Note_on_c, 7, 63, 0
10, 291120, Note_on_c, 7, 62, 96
10, 291149, Note_on_c, 7, 62, 0
10, 291180, Note_on_c, 7, 60, 96
10, 291209, Note_on_c, 7, 60, 0
10, 291240, Note_on_c, 7, 58, 96
10, 291269, Note_on_c, 7, 58, 0
10, 291300, Note_on_c, 7, 58, 96
10, 291330, Note_on_c, 7, 60, 96
10, 291339, Note_on_c, 7, 58, 0
10, 291360, Note_on_c, 7, 62, 96
10, 291369, Note_on_c, 7, 60, 0
10, 291389, Note_on_c, 7, 62, 0
10, 291420, Note_on_c, 7, 62, 96
10, 291450, Note_on_c, 7, 63, 96
10, 291459, Note_on_c, 7, 62, 0
10, 291480, Note_on_c, 7, 65, 96
10, 291489, Note_on_c, 7, 63, 0
10, 291509, Note_on_c, 7, 65, 0
10, 291540, Note_on_c, 7, 65, 96
10, 291570, Note_on_c, 7, 67, 96
10, 291579, Note_on_c, 7, 65, 0
10, 291600, Note_on_c, 7, 68, 96
10, 291609, Note_on_c, 7, 67, 0
10, 291629, Note_on_c, 7, 68, 0
10, 291660, Note_on_c, 7, 62, 96
10, 291690, Note_on_c, 7, 63, 96
10, 291699, Note_on_c, 7, 62, 0
10, 291720, Note_on_c, 7, 65, 96
10, 291729, Note_on_c, 7, 63, 0
10, 291749, Note_on_c, 7, 65, 0
10, 291780, Note_on_c, 7, 65, 96
10, 291810, Note_on_c, 7, 67, 96
10, 291819, Note_on_c, 7, 65, 0
10, 291840, Note_on_c, 7, 68, 96
10, 291849, Note_on_c, 7, 67, 0
10, 291869, Note_on_c, 7, 68, 0
10, 291900, Note_on_c, 7, 68, 96
10, 291930, Note_on_c, 7, 70, 96
10, 291939, Note_on_c, 7, 68, 0
10, 291960, Note_on_c, 7, 72, 112
10, 291969, Note_on_c, 7, 70, 0
10, 291989, Note_on_c, 7, 72, 0
10, 292020, Note_on_c, 7, 70, 96
10, 292049, Note_on_c, 7, 70, 0
10, 292080, Note_on_c, 7, 68, 96
10, 292109, Note_on_c, 7, 68, 0
10, 292140, Note_on_c, 7, 67, 96
10, 292169, Note_on_c, 7, 67, 0
10, 292200, Note_on_c, 7, 65, 96
10, 292229, Note_on_c, 7, 65, 0
10, 292260, Note_on_c, 7, 63, 96
10, 292289, Note_on_c, 7, 63, 0
10, 292320, Note_on_c, 7, 62, 96
10, 292349, Note_on_c, 7, 62, 0
10, 292380, Note_on_c, 7, 60, 96
10, 292409, Note_on_c, 7, 60, 0
10, 292440, Note_on_c, 7, 58, 96
10, 292469, Note_on_c, 7, 58, 0
10, 292500, Note_on_c, 7, 56, 96
10, 292529, Note_on_c, 7, 56, 0
10, 292560, Note_on_c, 7, 55, 96
10, 292589, Note_on_c, 7, 55, 0
10, 292620, Note_on_c, 7, 53, 96
10, 292649, Note_on_c, 7, 53, 0
10, 292680, Note_on_c, 7, 55, 96
10, 292739, Note_on_c, 7, 55, 0
10, 292740, Note_on_c, 7, 55, 96
10, 292799, Note_on_c, 7, 55, 0
10, 292800, Note_on_c, 7, 58, 96
10, 292859, Note_on_c, 7, 58, 0
10, 292860, Note_on_c, 7, 58, 96
10, 292919, Note_on_c, 7, 58, 0
10, 292920, Note_on_c, 7, 61, 96
10, 292979, Note_on_c, 7, 61, 0
10, 292980, Note_on_c, 7, 61, 96
10, 293039, Note_on_c, 7, 61, 0
10, 293040, Note_on_c, 7, 61, 112
10, 293399, Note_on_c, 7, 61, 0
10, 293400, Note_on_c, 7, 56, 112
10, 293579, Note_on_c, 7, 56, 0
10, 293580, Note_on_c, 7, 56, 96
10, 293609, Note_on_c, 7, 56, 0
10, 293640, Note_on_c, 7, 60, 96
10, 293669, Note_on_c, 7, 60, 0
10, 293700, Note_on_c, 7, 65, 96
10, 293729, Note_on_c, 7, 65, 0
10, 293760, Note_on_c, 7, 57, 112
10, 293939, Note_on_c, 7, 57, 0
10, 293940, Note_on_c, 7, 57, 96
10, 293969, Note_on_c, 7, 57, 0
10, 294000, Note_on_c, 7, 60, 96
10, 294029, Note_on_c, 7, 60, 0
10, 294060, Note_on_c, 7, 63, 96
10, 294089, Note_on_c, 7, 63, 0
10, 294120, Note_on_c, 7, 58, 112
10, 294299, Note_on_c, 7, 58, 0
10, 294300, Note_on_c, 7, 58, 96
10, 294329, Note_on_c, 7, 58, 0
10, 294360, Note_on_c, 7, 63, 96
10, 294389, Note_on_c, 7, 63, 0
10, 294420, Note_on_c, 7, 67, 96
10, 294449, Note_on_c, 7, 67, 0
10, 294480, Note_on_c, 7, 59, 96
10, 294539, Note_on_c, 7, 59, 0
10, 294540, Note_on_c, 7, 62, 96
10, 294599, Note_on_c, 7, 62, 0
10, 294600, Note_on_c, 7, 65, 96
10, 294659, Note_on_c, 7, 65, 0
10, 294660, Note_on_c, 7, 59, 96
10, 294719, Note_on_c, 7, 59, 0
10, 294720, Note_on_c, 7, 62, 96
10, 294779, Note_on_c, 7, 62, 0
10, 294780, Note_on_c, 7, 65, 96
10, 294839, Note_on_c, 7, 65, 0
10, 294840, Note_on_c, 7, 60, 96
10, 294899, Note_on_c, 7, 60, 0
10, 294900, Note_on_c, 7, 63, 96
10, 294959, Note_on_c, 7, 63, 0
10, 294960, Note_on_c, 7, 67, 96
10, 295019, Note_on_c, 7, 67, 0
10, 295020, Note_on_c, 7, 60, 96
10, 295079, Note_on_c, 7, 60, 0
10, 295080, Note_on_c, 7, 63, 96
10, 295139, Note_on_c, 7, 63, 0
10, 295140, Note_on_c, 7, 67, 96
10, 295199, Note_on_c, 7, 67, 0
10, 295200, Note_on_c, 7, 56, 96
10, 295259, Note_on_c, 7, 56, 0
10, 295260, Note_on_c, 7, 60, 96
10, 295319, Note_on_c, 7, 60, 0
10, 295320, Note_on_c, 7, 65, 96
10, 295379, Note_on_c, 7, 65, 0
10, 295380, Note_on_c, 7, 56, 96
10, 295439, Note_on_c, 7, 56, 0
10, 295440, Note_on_c, 7, 60, 96
10, 295499, Note_on_c, 7, 60, 0
10, 295500, Note_on_c, 7, 65, 96
10, 295559, Note_on_c, 7, 65, 0
10, 295560, Note_on_c, 7, 58, 127
10, 295619, Note_on_c, 7, 58, 0
10, 295620, Note_on_c, 7, 63, 127
10, 295679, Note_on_c, 7, 63, 0
10, 295680, Note_on_c, 7, 67, 127
10, 295739, Note_on_c, 7, 67, 0
10, 295740, Note_on_c, 7, 58, 127
10, 295799, Note_on_c, 7, 58, 0
10, 295800, Note_on_c, 7, 63, 127
10, 295859, Note_on_c, 7, 63, 0
10, 295860, Note_on_c, 7, 67, 127
10, 295919, Note_on_c, 7, 67, 0
10, 295920, Note_on_c, 7, 70, 127
10, 295979, Note_on_c, 7, 70, 0
10, 295980, Note_on_c, 7, 58, 127
10, 296039, Note_on_c, 7, 58, 0
10, 296040, Note_on_c, 7, 58, 127
10, 296099, Note_on_c, 7, 58, 0
10, 296100, Note_on_c, 7, 58, 127
10, 296159, Note_on_c, 7, 58, 0
10, 296160, Note_on_c, 7, 58, 127
10, 296219, Note_on_c, 7, 58, 0
10, 296220, Note_on_c, 7, 58, 127
10, 296279, Note_on_c, 7, 58, 0
10, 296280, Note_on_c, 7, 63, 48
10, 296399, Note_on_c, 7, 63, 0
10, 298620, Note_on_c, 7, 70, 78
10, 298649, Note_on_c, 7, 70, 0
10, 298680, Note_on_c, 7, 68, 80
10, 298709, Note_on_c, 7, 68, 0
10, 298740, Note_on_c, 7, 67, 82
10, 298769, Note_on_c, 7, 67, 0
10, 298800, Note_on_c, 7, 65, 84
10, 298829, Note_on_c, 7, 65, 0
10, 298860, Note_on_c, 7, 67, 86
10, 298889, Note_on_c, 7, 67, 0
10, 298920, Note_on_c, 7, 68, 88
10, 298949, Note_on_c, 7, 68, 0
10, 298980, Note_on_c, 7, 67, 90
10, 299009, Note_on_c, 7, 67, 0
10, 299040, Note_on_c, 7, 65, 92
10, 299069, Note_on_c, 7, 65, 0
10, 299100, Note_on_c, 7, 63, 94
10, 299129, Note_on_c, 7, 63, 0
10, 299160, Note_on_c, 7, 62, 96
10, 299279, Note_on_c, 7, 62, 0
10, 299280, Note_on_c, 7, 65, 96
10, 299639, Note_on_c, 7, 65, 0
10, 299640, Note_on_c, 7, 68, 96
10, 299999, Note_on_c, 7, 68, 0
10, 300000, Note_on_c, 7, 62, 96
10, 300239, Note_on_c, 7, 62, 0
10, 300240, Note_on_c, 7, 65, 96
10, 300479, Note_on_c, 7, 65, 0
10, 300480, Note_on_c, 7, 65, 96
10, 300539, Note_on_c, 7, 65, 0
10, 300600, Note_on_c, 7, 65, 96
10, 300659, Note_on_c, 7, 65, 0
10, 300720, Note_on_c, 7, 58, 127
10, 300749, Note_on_c, 7, 58, 0
10, 300750, Note_on_c, 7, 58, 127
10, 300779, Note_on_c, 7, 58, 0
10, 300780, Note_on_c, 7, 58, 127
10, 300809, Note_on_c, 7, 58, 0
10, 300810, Note_on_c, 7, 58, 127
10, 300839, Note_on_c, 7, 58, 0
10, 300840, Note_on_c, 7, 58, 127
10, 300869, Note_on_c, 7, 58, 0
10, 300870, Note_on_c, 7, 58, 127
10, 300899, Note_on_c, 7, 58, 0
10, 300900, Note_on_c, 7, 58, 127
10, 300929, Note_on_c, 7, 58, 0
10, 300930, Note_on_c, 7, 58, 127
10, 300959, Note_on_c, 7, 58, 0
10, 300960, Note_on_c, 7, 58, 127
10, 300989, Note_on_c, 7, 58, 0
10, 300990, Note_on_c, 7, 58, 127
10, 301019, Note_on_c, 7, 58, 0
10, 301020, Note_on_c, 7, 58, 127
10, 301049, Note_on_c, 7, 58, 0
10, 301050, Note_on_c, 7, 58, 127
10, 301079, Note_on_c, 7, 58, 0
10, 301080, Note_on_c, 7, 58, 127
10, 301109, Note_on_c, 7, 58, 0
10, 301110, Note_on_c, 7, 58, 127
10, 301139, Note_on_c, 7, 58, 0
10, 301140, Note_on_c, 7, 58, 127
10, 301169, Note_on_c, 7, 58, 0
10, 301170, Note_on_c, 7, 58, 127
10, 301199, Note_on_c, 7, 58, 0
10, 301200, Note_on_c, 7, 58, 127
10, 301229, Note_on_c, 7, 58, 0
10, 301230, Note_on_c, 7, 58, 127
10, 301259, Note_on_c, 7, 58, 0
10, 301260, Note_on_c, 7, 58, 127
10, 301289, Note_on_c, 7, 58, 0
10, 301290, Note_on_c, 7, 58, 127
10, 301319, Note_on_c, 7, 58, 0
10, 301320, Note_on_c, 7, 58, 127
10, 301349, Note_on_c, 7, 58, 0
10, 301350, Note_on_c, 7, 58, 127
10, 301379, Note_on_c, 7, 58, 0
10, 301380, Note_on_c, 7, 58, 127
10, 301409, Note_on_c, 7, 58, 0
10, 301410, Note_on_c, 7, 58, 127
10, 301439, Note_on_c, 7, 58, 0
10, 301440, Note_on_c, 7, 58, 127
10, 301469, Note_on_c, 7, 58, 0
10, 301470, Note_on_c, 7, 58, 127
10, 301499, Note_on_c, 7, 58, 0
10, 301500, Note_on_c, 7, 58, 127
10, 301529, Note_on_c, 7, 58, 0
10, 301530, Note_on_c, 7, 58, 127
10, 301559, Note_on_c, 7, 58, 0
10, 301560, Note_on_c, 7, 58, 127
10, 301589, Note_on_c, 7, 58, 0
10, 301590, Note_on_c, 7, 58, 127
10, 301619, Note_on_c, 7, 58, 0
10, 301620, Note_on_c, 7, 58, 127
10, 301649, Note_on_c, 7, 58, 0
10, 301650, Note_on_c, 7, 58, 127
10, 301679, Note_on_c, 7, 58, 0
10, 301680, Note_on_c, 7, 58, 127
10, 301709, Note_on_c, 7, 58, 0
10, 301710, Note_on_c, 7, 58, 127
10, 301739, Note_on_c, 7, 58, 0
10, 301740, Note_on_c, 7, 58, 127
10, 301769, Note_on_c, 7, 58, 0
10, 301770, Note_on_c, 7, 58, 127
10, 301799, Note_on_c, 7, 58, 0
10, 301800, Note_on_c, 7, 58, 127
10, 301829, Note_on_c, 7, 58, 0
10, 301830, Note_on_c, 7, 58, 127
10, 301859, Note_on_c, 7, 58, 0
10, 301860, Note_on_c, 7, 58, 127
10, 301889, Note_on_c, 7, 58, 0
10, 301890, Note_on_c, 7, 58, 127
10, 301919, Note_on_c, 7, 58, 0
10, 301920, Note_on_c, 7, 58, 127
10, 301949, Note_on_c, 7, 58, 0
10, 301950, Note_on_c, 7, 58, 127
10, 301979, Note_on_c, 7, 58, 0
10, 301980, Note_on_c, 7, 58, 127
10, 302009, Note_on_c, 7, 58, 0
10, 302010, Note_on_c, 7, 58, 127
10, 302039, Note_on_c, 7, 58, 0
10, 302040, Note_on_c, 7, 63, 127
10, 302159, Note_on_c, 7, 63, 0
10, 302400, Note_on_c, 7, 75, 127
10, 302400, Note_on_c, 7, 55, 127
10, 302400, Note_on_c, 7, 63, 127
10, 302519, Note_on_c, 7, 63, 0
10, 302519, Note_on_c, 7, 55, 0
10, 302519, Note_on_c, 7, 75, 0
10, 302760, Note_on_c, 7, 51, 127
10, 302879, Note_on_c, 7, 51, 0
10, 302879, End_track
11, 0, Start_track
11, 0, MIDI_port, 0
11, 0, Title_t, "Cello"
11, 0, Program_c, 7, 48
11, 0, Control_c, 7, 7, 127
11, 0, Control_c, 7, 10, 82
11, 0, Control_c, 7, 93, 0
11, 0, Control_c, 7, 91, 0
11, 0, Note_on_c, 7, 51, 96
11, 59, Note_on_c, 7, 51, 0
11, 360, Note_on_c, 7, 51, 96
11, 419, Note_on_c, 7, 51, 0
11, 720, Note_on_c, 7, 51, 54
11, 960, Note_on_c, 7, 55, 54
11, 969, Note_on_c, 7, 51, 0
11, 1080, Note_on_c, 7, 51, 54
11, 1089, Note_on_c, 7, 55, 0
11, 1320, Note_on_c, 7, 46, 54
11, 1329, Note_on_c, 7, 51, 0
11, 1439, Note_on_c, 7, 46, 0
11, 1440, Note_on_c, 7, 51, 54
11, 1560, Note_on_c, 7, 55, 54
11, 1569, Note_on_c, 7, 51, 0
11, 1680, Note_on_c, 7, 58, 54
11, 1689, Note_on_c, 7, 55, 0
11, 1799, Note_on_c, 7, 58, 0
11, 1800, Note_on_c, 7, 51, 54
11, 2040, Note_on_c, 7, 50, 54
11, 2049, Note_on_c, 7, 51, 0
11, 2160, Note_on_c, 7, 49, 64
11, 2169, Note_on_c, 7, 50, 0
11, 2280, Channel_aftertouch_c, 7, 20
11, 2879, Note_on_c, 7, 49, 0
11, 2880, Note_on_c, 7, 50, 96
11, 3479, Note_on_c, 7, 50, 0
11, 3480, Note_on_c, 7, 50, 54
11, 3600, Note_on_c, 7, 51, 48
11, 3609, Note_on_c, 7, 50, 0
11, 3959, Note_on_c, 7, 51, 0
11, 3960, Note_on_c, 7, 44, 48
11, 4080, Note_on_c, 7, 46, 48
11, 4089, Note_on_c, 7, 44, 0
11, 4200, Note_on_c, 7, 48, 48
11, 4209, Note_on_c, 7, 46, 0
11, 4319, Note_on_c, 7, 48, 0
11, 4320, Note_on_c, 7, 46, 48
11, 4679, Note_on_c, 7, 46, 0
11, 4680, Note_on_c, 7, 46, 48
11, 4739, Note_on_c, 7, 46, 0
11, 4800, Note_on_c, 7, 46, 48
11, 4859, Note_on_c, 7, 46, 0
11, 4920, Note_on_c, 7, 46, 48
11, 4979, Note_on_c, 7, 46, 0
11, 5040, Note_on_c, 7, 51, 48
11, 5159, Note_on_c, 7, 51, 0
11, 6360, Note_on_c, 7, 48, 48
11, 6480, Note_on_c, 7, 53, 48
11, 6489, Note_on_c, 7, 48, 0
11, 6600, Note_on_c, 7, 56, 48
11, 6609, Note_on_c, 7, 53, 0
11, 6720, Note_on_c, 7, 60, 48
11, 6729, Note_on_c, 7, 56, 0
11, 6839, Note_on_c, 7, 60, 0
11, 6840, Note_on_c, 7, 53, 48
11, 6959, Note_on_c, 7, 53, 0
11, 7680, Note_on_c, 7, 48, 48
11, 7800, Note_on_c, 7, 47, 64
11, 7809, Note_on_c, 7, 48, 0
11, 7920, Note_on_c, 7, 46, 96
11, 7929, Note_on_c, 7, 47, 0
11, 7979, Note_on_c, 7, 46, 0
11, 7980, Note_on_c, 7, 46, 48
11, 8040, Note_on_c, 7, 50, 48
11, 8049, Note_on_c, 7, 46, 0
11, 8100, Note_on_c, 7, 53, 48
11, 8109, Note_on_c, 7, 50, 0
11, 8160, Note_on_c, 7, 58, 48
11, 8169, Note_on_c, 7, 53, 0
11, 8220, Note_on_c, 7, 62, 48
11, 8229, Note_on_c, 7, 58, 0
11, 8280, Note_on_c, 7, 65, 48
11, 8289, Note_on_c, 7, 62, 0
11, 8399, Note_on_c, 7, 65, 0
11, 8520, Note_on_c, 7, 46, 48
11, 8759, Note_on_c, 7, 46, 0
11, 8760, Note_on_c, 7, 46, 96
11, 8999, Note_on_c, 7, 46, 0
11, 9000, Note_on_c, 7, 46, 96
11, 9239, Note_on_c, 7, 46, 0
11, 9240, Note_on_c, 7, 46, 96
11, 9359, Note_on_c, 7, 46, 0
11, 9360, Note_on_c, 7, 46, 96
11, 9419, Note_on_c, 7, 46, 0
11, 9420, Note_on_c, 7, 46, 48
11, 9480, Note_on_c, 7, 50, 48
11, 9489, Note_on_c, 7, 46, 0
11, 9540, Note_on_c, 7, 53, 48
11, 9549, Note_on_c, 7, 50, 0
11, 9600, Note_on_c, 7, 58, 48
11, 9609, Note_on_c, 7, 53, 0
11, 9660, Note_on_c, 7, 62, 48
11, 9669, Note_on_c, 7, 58, 0
11, 9720, Note_on_c, 7, 65, 48
11, 9729, Note_on_c, 7, 62, 0
11, 9839, Note_on_c, 7, 65, 0
11, 9960, Note_on_c, 7, 46, 96
11, 10080, Note_on_c, 7, 44, 90
11, 10089, Note_on_c, 7, 46, 0
11, 10199, Note_on_c, 7, 44, 0
11, 10200, Note_on_c, 7, 56, 96
11, 10439, Note_on_c, 7, 56, 0
11, 10440, Note_on_c, 7, 56, 96
11, 10679, Note_on_c, 7, 56, 0
11, 10680, Note_on_c, 7, 56, 96
11, 10919, Note_on_c, 7, 56, 0
11, 10920, Note_on_c, 7, 55, 96
11, 11159, Note_on_c, 7, 55, 0
11, 11160, Note_on_c, 7, 55, 96
11, 11399, Note_on_c, 7, 55, 0
11, 11400, Note_on_c, 7, 55, 96
11, 11639, Note_on_c, 7, 55, 0
11, 11640, Note_on_c, 7, 56, 90
11, 11699, Note_on_c, 7, 56, 0
11, 11760, Note_on_c, 7, 56, 96
11, 11999, Note_on_c, 7, 56, 0
11, 12000, Note_on_c, 7, 55, 96
11, 12059, Note_on_c, 7, 55, 0
11, 12120, Note_on_c, 7, 55, 96
11, 12240, Note_on_c, 7, 53, 96
11, 12249, Note_on_c, 7, 55, 0
11, 12269, Note_on_c, 7, 53, 0
11, 12300, Note_on_c, 7, 53, 99
11, 12329, Note_on_c, 7, 53, 0
11, 12360, Note_on_c, 7, 53, 102
11, 12389, Note_on_c, 7, 53, 0
11, 12420, Note_on_c, 7, 53, 105
11, 12449, Note_on_c, 7, 53, 0
11, 12480, Note_on_c, 7, 53, 107
11, 12509, Note_on_c, 7, 53, 0
11, 12540, Note_on_c, 7, 53, 110
11, 12569, Note_on_c, 7, 53, 0
11, 12600, Note_on_c, 7, 46, 112
11, 12659, Note_on_c, 7, 46, 0
11, 12660, Note_on_c, 7, 58, 115
11, 12719, Note_on_c, 7, 58, 0
11, 12720, Note_on_c, 7, 58, 117
11, 12779, Note_on_c, 7, 58, 0
11, 12780, Note_on_c, 7, 58, 120
11, 12839, Note_on_c, 7, 58, 0
11, 12840, Note_on_c, 7, 58, 123
11, 12899, Note_on_c, 7, 58, 0
11, 12900, Note_on_c, 7, 58, 125
11, 12959, Note_on_c, 7, 58, 0
11, 12960, Note_on_c, 7, 51, 127
11, 13200, Note_on_c, 7, 55, 127
11, 13209, Note_on_c, 7, 51, 0
11, 13320, Note_on_c, 7, 51, 127
11, 13329, Note_on_c, 7, 55, 0
11, 13560, Note_on_c, 7, 46, 127
11, 13569, Note_on_c, 7, 51, 0
11, 13679, Note_on_c, 7, 46, 0
11, 13680, Note_on_c, 7, 51, 127
11, 13800, Note_on_c, 7, 55, 127
11, 13809, Note_on_c, 7, 51, 0
11, 13920, Note_on_c, 7, 58, 127
11, 13929, Note_on_c, 7, 55, 0
11, 14039, Note_on_c, 7, 58, 0
11, 14040, Note_on_c, 7, 51, 127
11, 14279, Note_on_c, 7, 51, 0
11, 14280, Note_on_c, 7, 43, 127
11, 14399, Note_on_c, 7, 43, 0
11, 14400, Note_on_c, 7, 48, 127
11, 14520, Note_on_c, 7, 51, 127
11, 14529, Note_on_c, 7, 48, 0
11, 14640, Note_on_c, 7, 55, 127
11, 14649, Note_on_c, 7, 51, 0
11, 14759, Note_on_c, 7, 55, 0
11, 14760, Note_on_c, 7, 48, 127
11, 14999, Note_on_c, 7, 48, 0
11, 15000, Note_on_c, 7, 39, 127
11, 15119, Note_on_c, 7, 39, 0
11, 15120, Note_on_c, 7, 44, 127
11, 15179, Note_on_c, 7, 44, 0
11, 15180, Note_on_c, 7, 56, 127
11, 15239, Note_on_c, 7, 56, 0
11, 15240, Note_on_c, 7, 56, 127
11, 15299, Note_on_c, 7, 56, 0
11, 15300, Note_on_c, 7, 56, 127
11, 15359, Note_on_c, 7, 56, 0
11, 15360, Note_on_c, 7, 56, 127
11, 15419, Note_on_c, 7, 56, 0
11, 15420, Note_on_c, 7, 56, 127
11, 15479, Note_on_c, 7, 56, 0
11, 15480, Note_on_c, 7, 54, 127
11, 15539, Note_on_c, 7, 54, 0
11, 15540, Note_on_c, 7, 54, 127
11, 15599, Note_on_c, 7, 54, 0
11, 15600, Note_on_c, 7, 54, 127
11, 15659, Note_on_c, 7, 54, 0
11, 15660, Note_on_c, 7, 54, 127
11, 15719, Note_on_c, 7, 54, 0
11, 15720, Note_on_c, 7, 54, 127
11, 15779, Note_on_c, 7, 54, 0
11, 15780, Note_on_c, 7, 54, 127
11, 15839, Note_on_c, 7, 54, 0
11, 15840, Note_on_c, 7, 53, 127
11, 15959, Note_on_c, 7, 53, 0
11, 16560, Note_on_c, 7, 41, 48
11, 16619, Note_on_c, 7, 41, 0
11, 16680, Note_on_c, 7, 45, 48
11, 16739, Note_on_c, 7, 45, 0
11, 16800, Note_on_c, 7, 48, 48
11, 16859, Note_on_c, 7, 48, 0
11, 16920, Note_on_c, 7, 53, 48
11, 16979, Note_on_c, 7, 53, 0
11, 17040, Note_on_c, 7, 57, 48
11, 17099, Note_on_c, 7, 57, 0
11, 17160, Note_on_c, 7, 60, 48
11, 17219, Note_on_c, 7, 60, 0
11, 17280, Note_on_c, 7, 53, 48
11, 17399, Note_on_c, 7, 53, 0
11, 18000, Note_on_c, 7, 41, 48
11, 18059, Note_on_c, 7, 41, 0
11, 18120, Note_on_c, 7, 46, 48
11, 18179, Note_on_c, 7, 46, 0
11, 18240, Note_on_c, 7, 50, 48
11, 18299, Note_on_c, 7, 50, 0
11, 18360, Note_on_c, 7, 53, 48
11, 18419, Note_on_c, 7, 53, 0
11, 18480, Note_on_c, 7, 62, 48
11, 18539, Note_on_c, 7, 62, 0
11, 18600, Note_on_c, 7, 58, 48
11, 18659, Note_on_c, 7, 58, 0
11, 18720, Note_on_c, 7, 53, 48
11, 18839, Note_on_c, 7, 53, 0
11, 19560, Note_on_c, 7, 55, 127
11, 19739, Note_on_c, 7, 55, 0
11, 19740, Note_on_c, 7, 53, 127
11, 19799, Note_on_c, 7, 53, 0
11, 19800, Note_on_c, 7, 51, 127
11, 19859, Note_on_c, 7, 51, 0
11, 19920, Note_on_c, 7, 50, 127
11, 19979, Note_on_c, 7, 50, 0
11, 20040, Note_on_c, 7, 48, 127
11, 20099, Note_on_c, 7, 48, 0
11, 20160, Note_on_c, 7, 58, 48
11, 20400, Note_on_c, 7, 57, 51
11, 20409, Note_on_c, 7, 58, 0
11, 20460, Note_on_c, 7, 56, 53
11, 20469, Note_on_c, 7, 57, 0
11, 20520, Note_on_c, 7, 55, 56
11, 20529, Note_on_c, 7, 56, 0
11, 20640, Note_on_c, 7, 53, 52
11, 20649, Note_on_c, 7, 55, 0
11, 20760, Note_on_c, 7, 51, 48
11, 20769, Note_on_c, 7, 53, 0
11, 20880, Note_on_c, 7, 50, 48
11, 20889, Note_on_c, 7, 51, 0
11, 20909, Note_on_c, 7, 50, 0
11, 20940, Note_on_c, 7, 53, 48
11, 20969, Note_on_c, 7, 53, 0
11, 21000, Note_on_c, 7, 51, 48
11, 21029, Note_on_c, 7, 51, 0
11, 21060, Note_on_c, 7, 50, 48
11, 21089, Note_on_c, 7, 50, 0
11, 21120, Note_on_c, 7, 48, 48
11, 21149, Note_on_c, 7, 48, 0
11, 21180, Note_on_c, 7, 46, 48
11, 21209, Note_on_c, 7, 46, 0
11, 21240, Note_on_c, 7, 45, 48
11, 21269, Note_on_c, 7, 45, 0
11, 21300, Note_on_c, 7, 46, 48
11, 21329, Note_on_c, 7, 46, 0
11, 21360, Note_on_c, 7, 48, 48
11, 21389, Note_on_c, 7, 48, 0
11, 21420, Note_on_c, 7, 41, 48
11, 21449, Note_on_c, 7, 41, 0
11, 21480, Note_on_c, 7, 43, 48
11, 21509, Note_on_c, 7, 43, 0
11, 21540, Note_on_c, 7, 45, 48
11, 21569, Note_on_c, 7, 45, 0
11, 21600, Note_on_c, 7, 46, 48
11, 21629, Note_on_c, 7, 46, 0
11, 21660, Note_on_c, 7, 58, 50
11, 21689, Note_on_c, 7, 58, 0
11, 21720, Note_on_c, 7, 58, 52
11, 21749, Note_on_c, 7, 58, 0
11, 21780, Note_on_c, 7, 58, 54
11, 21840, Note_on_c, 7, 57, 56
11, 21849, Note_on_c, 7, 58, 0
11, 21900, Note_on_c, 7, 56, 58
11, 21909, Note_on_c, 7, 57, 0
11, 21959, Note_on_c, 7, 56, 0
11, 21960, Note_on_c, 7, 55, 60
11, 22020, Note_on_c, 7, 53, 62
11, 22029, Note_on_c, 7, 55, 0
11, 22079, Note_on_c, 7, 53, 0
11, 22080, Note_on_c, 7, 51, 64
11, 22109, Note_on_c, 7, 51, 0
11, 22140, Note_on_c, 7, 55, 66
11, 22169, Note_on_c, 7, 55, 0
11, 22200, Note_on_c, 7, 53, 68
11, 22229, Note_on_c, 7, 53, 0
11, 22260, Note_on_c, 7, 51, 70
11, 22289, Note_on_c, 7, 51, 0
11, 22320, Note_on_c, 7, 50, 72
11, 22349, Note_on_c, 7, 50, 0
11, 22380, Note_on_c, 7, 53, 74
11, 22409, Note_on_c, 7, 53, 0
11, 22440, Note_on_c, 7, 51, 76
11, 22469, Note_on_c, 7, 51, 0
11, 22500, Note_on_c, 7, 50, 78
11, 22529, Note_on_c, 7, 50, 0
11, 22560, Note_on_c, 7, 48, 80
11, 22589, Note_on_c, 7, 48, 0
11, 22620, Note_on_c, 7, 46, 82
11, 22649, Note_on_c, 7, 46, 0
11, 22680, Note_on_c, 7, 45, 84
11, 22709, Note_on_c, 7, 45, 0
11, 22740, Note_on_c, 7, 46, 86
11, 22769, Note_on_c, 7, 46, 0
11, 22800, Note_on_c, 7, 48, 88
11, 22829, Note_on_c, 7, 48, 0
11, 22860, Note_on_c, 7, 46, 90
11, 22889, Note_on_c, 7, 46, 0
11, 22920, Note_on_c, 7, 45, 92
11, 22949, Note_on_c, 7, 45, 0
11, 22980, Note_on_c, 7, 43, 94
11, 23009, Note_on_c, 7, 43, 0
11, 23040, Note_on_c, 7, 42, 96
11, 23099, Note_on_c, 7, 42, 0
11, 23160, Note_on_c, 7, 54, 96
11, 23219, Note_on_c, 7, 54, 0
11, 23700, Note_on_c, 7, 42, 96
11, 23729, Note_on_c, 7, 42, 0
11, 23760, Note_on_c, 7, 43, 96
11, 23819, Note_on_c, 7, 43, 0
11, 23880, Note_on_c, 7, 55, 96
11, 23939, Note_on_c, 7, 55, 0
11, 24420, Note_on_c, 7, 55, 96
11, 24449, Note_on_c, 7, 55, 0
11, 24480, Note_on_c, 7, 53, 96
11, 24539, Note_on_c, 7, 53, 0
11, 24600, Note_on_c, 7, 65, 96
11, 24659, Note_on_c, 7, 65, 0
11, 25020, Note_on_c, 7, 53, 96
11, 25049, Note_on_c, 7, 53, 0
11, 25080, Note_on_c, 7, 53, 96
11, 25109, Note_on_c, 7, 53, 0
11, 25140, Note_on_c, 7, 53, 96
11, 25169, Note_on_c, 7, 53, 0
11, 25200, Note_on_c, 7, 51, 96
11, 25229, Note_on_c, 7, 51, 0
11, 25260, Note_on_c, 7, 51, 96
11, 25379, Note_on_c, 7, 51, 0
11, 25380, Note_on_c, 7, 52, 96
11, 25409, Note_on_c, 7, 52, 0
11, 25440, Note_on_c, 7, 53, 96
11, 25469, Note_on_c, 7, 53, 0
11, 25500, Note_on_c, 7, 54, 96
11, 25529, Note_on_c, 7, 54, 0
11, 25560, Note_on_c, 7, 55, 96
11, 25589, Note_on_c, 7, 55, 0
11, 25620, Note_on_c, 7, 55, 96
11, 25739, Note_on_c, 7, 55, 0
11, 25740, Note_on_c, 7, 55, 96
11, 25769, Note_on_c, 7, 55, 0
11, 25800, Note_on_c, 7, 56, 96
11, 25829, Note_on_c, 7, 56, 0
11, 25860, Note_on_c, 7, 57, 96
11, 25889, Note_on_c, 7, 57, 0
11, 25920, Note_on_c, 7, 58, 96
11, 25979, Note_on_c, 7, 58, 0
11, 25980, Note_on_c, 7, 58, 96
11, 26039, Note_on_c, 7, 58, 0
11, 26040, Note_on_c, 7, 56, 96
11, 26099, Note_on_c, 7, 56, 0
11, 26100, Note_on_c, 7, 56, 96
11, 26159, Note_on_c, 7, 56, 0
11, 26160, Note_on_c, 7, 55, 96
11, 26219, Note_on_c, 7, 55, 0
11, 26220, Note_on_c, 7, 55, 96
11, 26279, Note_on_c, 7, 55, 0
11, 26280, Note_on_c, 7, 54, 96
11, 26339, Note_on_c, 7, 54, 0
11, 26340, Note_on_c, 7, 54, 96
11, 26399, Note_on_c, 7, 54, 0
11, 26400, Note_on_c, 7, 53, 96
11, 26459, Note_on_c, 7, 53, 0
11, 26460, Note_on_c, 7, 53, 96
11, 26519, Note_on_c, 7, 53, 0
11, 26520, Note_on_c, 7, 50, 96
11, 26579, Note_on_c, 7, 50, 0
11, 26580, Note_on_c, 7, 50, 96
11, 26639, Note_on_c, 7, 50, 0
11, 26640, Note_on_c, 7, 51, 96
11, 26699, Note_on_c, 7, 51, 0
11, 26700, Note_on_c, 7, 51, 96
11, 26759, Note_on_c, 7, 51, 0
11, 26760, Note_on_c, 7, 51, 96
11, 26819, Note_on_c, 7, 51, 0
11, 26820, Note_on_c, 7, 51, 96
11, 26879, Note_on_c, 7, 51, 0
11, 26880, Note_on_c, 7, 51, 96
11, 26939, Note_on_c, 7, 51, 0
11, 26940, Note_on_c, 7, 51, 96
11, 26999, Note_on_c, 7, 51, 0
11, 27000, Note_on_c, 7, 51, 96
11, 27059, Note_on_c, 7, 51, 0
11, 27060, Note_on_c, 7, 51, 96
11, 27119, Note_on_c, 7, 51, 0
11, 27120, Note_on_c, 7, 51, 96
11, 27179, Note_on_c, 7, 51, 0
11, 27180, Note_on_c, 7, 51, 96
11, 27239, Note_on_c, 7, 51, 0
11, 27240, Note_on_c, 7, 51, 96
11, 27299, Note_on_c, 7, 51, 0
11, 27300, Note_on_c, 7, 51, 96
11, 27359, Note_on_c, 7, 51, 0
11, 27360, Note_on_c, 7, 53, 96
11, 27419, Note_on_c, 7, 53, 0
11, 27420, Note_on_c, 7, 53, 96
11, 27479, Note_on_c, 7, 53, 0
11, 27480, Note_on_c, 7, 53, 96
11, 27539, Note_on_c, 7, 53, 0
11, 27540, Note_on_c, 7, 53, 96
11, 27599, Note_on_c, 7, 53, 0
11, 27600, Note_on_c, 7, 53, 96
11, 27659, Note_on_c, 7, 53, 0
11, 27660, Note_on_c, 7, 53, 96
11, 27719, Note_on_c, 7, 53, 0
11, 27720, Note_on_c, 7, 53, 96
11, 27779, Note_on_c, 7, 53, 0
11, 27780, Note_on_c, 7, 53, 96
11, 27839, Note_on_c, 7, 53, 0
11, 27840, Note_on_c, 7, 53, 96
11, 27899, Note_on_c, 7, 53, 0
11, 27900, Note_on_c, 7, 53, 96
11, 27959, Note_on_c, 7, 53, 0
11, 27960, Note_on_c, 7, 53, 96
11, 28019, Note_on_c, 7, 53, 0
11, 28020, Note_on_c, 7, 53, 96
11, 28079, Note_on_c, 7, 53, 0
11, 28080, Note_on_c, 7, 41, 96
11, 28139, Note_on_c, 7, 41, 0
11, 28140, Note_on_c, 7, 53, 96
11, 28199, Note_on_c, 7, 53, 0
11, 28200, Note_on_c, 7, 53, 96
11, 28259, Note_on_c, 7, 53, 0
11, 28260, Note_on_c, 7, 53, 96
11, 28319, Note_on_c, 7, 53, 0
11, 28320, Note_on_c, 7, 53, 96
11, 28379, Note_on_c, 7, 53, 0
11, 28380, Note_on_c, 7, 53, 96
11, 28439, Note_on_c, 7, 53, 0
11, 28440, Note_on_c, 7, 53, 96
11, 28499, Note_on_c, 7, 53, 0
11, 28500, Note_on_c, 7, 53, 96
11, 28559, Note_on_c, 7, 53, 0
11, 28560, Note_on_c, 7, 53, 96
11, 28619, Note_on_c, 7, 53, 0
11, 28620, Note_on_c, 7, 53, 96
11, 28679, Note_on_c, 7, 53, 0
11, 28680, Note_on_c, 7, 53, 96
11, 28739, Note_on_c, 7, 53, 0
11, 28740, Note_on_c, 7, 53, 96
11, 28799, Note_on_c, 7, 53, 0
11, 28800, Note_on_c, 7, 53, 127
11, 28829, Note_on_c, 7, 53, 0
11, 28860, Note_on_c, 7, 64, 127
11, 28889, Note_on_c, 7, 64, 0
11, 28920, Note_on_c, 7, 63, 127
11, 28949, Note_on_c, 7, 63, 0
11, 28980, Note_on_c, 7, 62, 127
11, 29009, Note_on_c, 7, 62, 0
11, 29040, Note_on_c, 7, 60, 127
11, 29069, Note_on_c, 7, 60, 0
11, 29100, Note_on_c, 7, 58, 127
11, 29129, Note_on_c, 7, 58, 0
11, 29160, Note_on_c, 7, 57, 127
11, 29189, Note_on_c, 7, 57, 0
11, 29220, Note_on_c, 7, 55, 127
11, 29249, Note_on_c, 7, 55, 0
11, 29280, Note_on_c, 7, 53, 127
11, 29309, Note_on_c, 7, 53, 0
11, 29340, Note_on_c, 7, 51, 127
11, 29369, Note_on_c, 7, 51, 0
11, 29400, Note_on_c, 7, 50, 127
11, 29429, Note_on_c, 7, 50, 0
11, 29460, Note_on_c, 7, 48, 127
11, 29489, Note_on_c, 7, 48, 0
11, 29520, Note_on_c, 7, 46, 127
11, 29639, Note_on_c, 7, 46, 0
11, 31080, Note_on_c, 7, 60, 48
11, 31169, Note_on_c, 7, 60, 0
11, 31200, Note_on_c, 7, 60, 48
11, 31289, Note_on_c, 7, 60, 0
11, 31320, Note_on_c, 7, 60, 48
11, 31409, Note_on_c, 7, 60, 0
11, 31440, Note_on_c, 7, 60, 60
11, 31529, Note_on_c, 7, 60, 0
11, 31560, Note_on_c, 7, 60, 72
11, 31649, Note_on_c, 7, 60, 0
11, 31680, Note_on_c, 7, 60, 84
11, 31799, Note_on_c, 7, 60, 0
11, 31800, Note_on_c, 7, 60, 96
11, 32039, Note_on_c, 7, 60, 0
11, 32040, Note_on_c, 7, 60, 96
11, 32340, Note_on_c, 7, 57, 56
11, 32349, Note_on_c, 7, 60, 0
11, 32400, Note_on_c, 7, 58, 48
11, 32409, Note_on_c, 7, 57, 0
11, 32519, Note_on_c, 7, 58, 0
11, 33960, Note_on_c, 7, 53, 48
11, 34080, Note_on_c, 7, 49, 48
11, 34089, Note_on_c, 7, 53, 0
11, 34200, Note_on_c, 7, 48, 54
11, 34209, Note_on_c, 7, 49, 0
11, 34440, Note_on_c, 7, 47, 54
11, 34449, Note_on_c, 7, 48, 0
11, 34560, Note_on_c, 7, 48, 48
11, 34569, Note_on_c, 7, 47, 0
11, 34679, Note_on_c, 7, 48, 0
11, 35400, Note_on_c, 7, 53, 32
11, 35459, Note_on_c, 7, 53, 0
11, 35520, Note_on_c, 7, 53, 32
11, 35579, Note_on_c, 7, 53, 0
11, 35760, Note_on_c, 7, 53, 32
11, 35819, Note_on_c, 7, 53, 0
11, 35880, Note_on_c, 7, 53, 32
11, 35939, Note_on_c, 7, 53, 0
11, 36120, Note_on_c, 7, 53, 32
11, 36179, Note_on_c, 7, 53, 0
11, 36240, Note_on_c, 7, 53, 32
11, 36299, Note_on_c, 7, 53, 0
11, 36360, Note_on_c, 7, 53, 32
11, 36419, Note_on_c, 7, 53, 0
11, 36480, Note_on_c, 7, 53, 32
11, 36539, Note_on_c, 7, 53, 0
11, 36600, Note_on_c, 7, 53, 32
11, 36659, Note_on_c, 7, 53, 0
11, 36720, Note_on_c, 7, 53, 32
11, 36779, Note_on_c, 7, 53, 0
11, 36780, Note_on_c, 7, 53, 32
11, 36839, Note_on_c, 7, 53, 0
11, 36840, Note_on_c, 7, 53, 32
11, 36899, Note_on_c, 7, 53, 0
11, 36900, Note_on_c, 7, 53, 32
11, 36959, Note_on_c, 7, 53, 0
11, 36960, Note_on_c, 7, 63, 32
11, 36989, Note_on_c, 7, 63, 0
11, 37020, Note_on_c, 7, 62, 32
11, 37049, Note_on_c, 7, 62, 0
11, 37080, Note_on_c, 7, 60, 32
11, 37109, Note_on_c, 7, 60, 0
11, 37140, Note_on_c, 7, 62, 32
11, 37169, Note_on_c, 7, 62, 0
11, 37200, Note_on_c, 7, 63, 32
11, 37229, Note_on_c, 7, 63, 0
11, 37260, Note_on_c, 7, 62, 32
11, 37289, Note_on_c, 7, 62, 0
11, 37320, Note_on_c, 7, 60, 32
11, 37349, Note_on_c, 7, 60, 0
11, 37380, Note_on_c, 7, 58, 32
11, 37409, Note_on_c, 7, 58, 0
11, 37440, Note_on_c, 7, 57, 34
11, 37469, Note_on_c, 7, 57, 0
11, 37500, Note_on_c, 7, 58, 37
11, 37529, Note_on_c, 7, 58, 0
11, 37560, Note_on_c, 7, 60, 40
11, 37589, Note_on_c, 7, 60, 0
11, 37620, Note_on_c, 7, 62, 43
11, 37649, Note_on_c, 7, 62, 0
11, 37680, Note_on_c, 7, 63, 46
11, 37709, Note_on_c, 7, 63, 0
11, 37740, Note_on_c, 7, 62, 48
11, 37769, Note_on_c, 7, 62, 0
11, 37800, Note_on_c, 7, 60, 50
11, 37829, Note_on_c, 7, 60, 0
11, 37860, Note_on_c, 7, 62, 53
11, 37889, Note_on_c, 7, 62, 0
11, 37920, Note_on_c, 7, 63, 56
11, 37949, Note_on_c, 7, 63, 0
11, 37980, Note_on_c, 7, 62, 59
11, 38009, Note_on_c, 7, 62, 0
11, 38040, Note_on_c, 7, 60, 62
11, 38069, Note_on_c, 7, 60, 0
11, 38100, Note_on_c, 7, 58, 64
11, 38129, Note_on_c, 7, 58, 0
11, 38160, Note_on_c, 7, 57, 66
11, 38189, Note_on_c, 7, 57, 0
11, 38220, Note_on_c, 7, 58, 69
11, 38249, Note_on_c, 7, 58, 0
11, 38280, Note_on_c, 7, 60, 72
11, 38309, Note_on_c, 7, 60, 0
11, 38340, Note_on_c, 7, 62, 75
11, 38369, Note_on_c, 7, 62, 0
11, 38400, Note_on_c, 7, 60, 78
11, 38429, Note_on_c, 7, 60, 0
11, 38460, Note_on_c, 7, 58, 80
11, 38489, Note_on_c, 7, 58, 0
11, 38520, Note_on_c, 7, 57, 82
11, 38549, Note_on_c, 7, 57, 0
11, 38580, Note_on_c, 7, 55, 85
11, 38609, Note_on_c, 7, 55, 0
11, 38640, Note_on_c, 7, 53, 88
11, 38669, Note_on_c, 7, 53, 0
11, 38700, Note_on_c, 7, 51, 90
11, 38729, Note_on_c, 7, 51, 0
11, 38760, Note_on_c, 7, 50, 92
11, 38789, Note_on_c, 7, 50, 0
11, 38820, Note_on_c, 7, 48, 94
11, 38849, Note_on_c, 7, 48, 0
11, 38880, Note_on_c, 7, 46, 96
11, 38939, Note_on_c, 7, 46, 0
11, 38940, Note_on_c, 7, 41, 96
11, 38999, Note_on_c, 7, 41, 0
11, 39000, Note_on_c, 7, 46, 96
11, 39059, Note_on_c, 7, 46, 0
11, 39060, Note_on_c, 7, 41, 96
11, 39119, Note_on_c, 7, 41, 0
11, 39120, Note_on_c, 7, 46, 96
11, 39179, Note_on_c, 7, 46, 0
11, 39180, Note_on_c, 7, 41, 96
11, 39239, Note_on_c, 7, 41, 0
11, 39240, Note_on_c, 7, 46, 96
11, 39299, Note_on_c, 7, 46, 0
11, 39300, Note_on_c, 7, 41, 96
11, 39359, Note_on_c, 7, 41, 0
11, 39360, Note_on_c, 7, 46, 112
11, 39419, Note_on_c, 7, 46, 0
11, 39420, Note_on_c, 7, 41, 96
11, 39479, Note_on_c, 7, 41, 0
11, 39480, Note_on_c, 7, 46, 96
11, 39539, Note_on_c, 7, 46, 0
11, 39540, Note_on_c, 7, 41, 96
11, 39599, Note_on_c, 7, 41, 0
11, 39600, Note_on_c, 7, 45, 96
11, 39659, Note_on_c, 7, 45, 0
11, 39660, Note_on_c, 7, 41, 96
11, 39719, Note_on_c, 7, 41, 0
11, 39720, Note_on_c, 7, 45, 112
11, 39779, Note_on_c, 7, 45, 0
11, 39780, Note_on_c, 7, 41, 96
11, 39839, Note_on_c, 7, 41, 0
11, 39840, Note_on_c, 7, 45, 96
11, 39899, Note_on_c, 7, 45, 0
11, 39900, Note_on_c, 7, 41, 96
11, 39959, Note_on_c, 7, 41, 0
11, 39960, Note_on_c, 7, 48, 96
11, 40019, Note_on_c, 7, 48, 0
11, 40020, Note_on_c, 7, 41, 96
11, 40079, Note_on_c, 7, 41, 0
11, 40080, Note_on_c, 7, 51, 112
11, 40139, Note_on_c, 7, 51, 0
11, 40140, Note_on_c, 7, 41, 96
11, 40199, Note_on_c, 7, 41, 0
11, 40200, Note_on_c, 7, 45, 96
11, 40259, Note_on_c, 7, 45, 0
11, 40260, Note_on_c, 7, 41, 96
11, 40319, Note_on_c, 7, 41, 0
11, 40320, Note_on_c, 7, 46, 127
11, 40379, Note_on_c, 7, 46, 0
11, 40380, Note_on_c, 7, 41, 127
11, 40439, Note_on_c, 7, 41, 0
11, 40440, Note_on_c, 7, 46, 127
11, 40499, Note_on_c, 7, 46, 0
11, 40500, Note_on_c, 7, 41, 127
11, 40559, Note_on_c, 7, 41, 0
11, 40560, Note_on_c, 7, 46, 127
11, 40619, Note_on_c, 7, 46, 0
11, 40620, Note_on_c, 7, 41, 127
11, 40679, Note_on_c, 7, 41, 0
11, 40680, Note_on_c, 7, 46, 127
11, 40739, Note_on_c, 7, 46, 0
11, 40740, Note_on_c, 7, 41, 127
11, 40799, Note_on_c, 7, 41, 0
11, 40800, Note_on_c, 7, 46, 127
11, 40859, Note_on_c, 7, 46, 0
11, 40860, Note_on_c, 7, 41, 127
11, 40919, Note_on_c, 7, 41, 0
11, 40920, Note_on_c, 7, 46, 127
11, 40979, Note_on_c, 7, 46, 0
11, 40980, Note_on_c, 7, 41, 127
11, 41039, Note_on_c, 7, 41, 0
11, 41040, Note_on_c, 7, 45, 127
11, 41099, Note_on_c, 7, 45, 0
11, 41100, Note_on_c, 7, 41, 127
11, 41159, Note_on_c, 7, 41, 0
11, 41160, Note_on_c, 7, 45, 127
11, 41219, Note_on_c, 7, 45, 0
11, 41220, Note_on_c, 7, 41, 127
11, 41279, Note_on_c, 7, 41, 0
11, 41280, Note_on_c, 7, 45, 127
11, 41339, Note_on_c, 7, 45, 0
11, 41340, Note_on_c, 7, 41, 127
11, 41399, Note_on_c, 7, 41, 0
11, 41400, Note_on_c, 7, 48, 127
11, 41459, Note_on_c, 7, 48, 0
11, 41460, Note_on_c, 7, 41, 127
11, 41519, Note_on_c, 7, 41, 0
11, 41520, Note_on_c, 7, 51, 127
11, 41579, Note_on_c, 7, 51, 0
11, 41580, Note_on_c, 7, 53, 127
11, 41639, Note_on_c, 7, 53, 0
11, 41640, Note_on_c, 7, 51, 127
11, 41699, Note_on_c, 7, 51, 0
11, 41700, Note_on_c, 7, 53, 127
11, 41759, Note_on_c, 7, 53, 0
11, 41760, Note_on_c, 7, 50, 127
11, 42060, Note_on_c, 7, 49, 127
11, 42069, Note_on_c, 7, 50, 0
11, 42119, Note_on_c, 7, 49, 0
11, 42120, Note_on_c, 7, 50, 127
11, 42149, Note_on_c, 7, 50, 0
11, 42180, Note_on_c, 7, 45, 127
11, 42209, Note_on_c, 7, 45, 0
11, 42240, Note_on_c, 7, 46, 127
11, 42269, Note_on_c, 7, 46, 0
11, 42300, Note_on_c, 7, 48, 127
11, 42329, Note_on_c, 7, 48, 0
11, 42360, Note_on_c, 7, 49, 127
11, 42389, Note_on_c, 7, 49, 0
11, 42420, Note_on_c, 7, 50, 127
11, 42449, Note_on_c, 7, 50, 0
11, 42480, Note_on_c, 7, 51, 127
11, 42509, Note_on_c, 7, 51, 0
11, 42540, Note_on_c, 7, 50, 127
11, 42569, Note_on_c, 7, 50, 0
11, 42600, Note_on_c, 7, 48, 127
11, 42629, Note_on_c, 7, 48, 0
11, 42660, Note_on_c, 7, 52, 127
11, 42689, Note_on_c, 7, 52, 0
11, 42720, Note_on_c, 7, 53, 127
11, 42749, Note_on_c, 7, 53, 0
11, 42780, Note_on_c, 7, 51, 127
11, 42809, Note_on_c, 7, 51, 0
11, 42840, Note_on_c, 7, 50, 127
11, 42869, Note_on_c, 7, 50, 0
11, 42900, Note_on_c, 7, 54, 127
11, 42929, Note_on_c, 7, 54, 0
11, 42960, Note_on_c, 7, 55, 127
11, 42989, Note_on_c, 7, 55, 0
11, 43020, Note_on_c, 7, 53, 127
11, 43049, Note_on_c, 7, 53, 0
11, 43080, Note_on_c, 7, 51, 127
11, 43109, Note_on_c, 7, 51, 0
11, 43140, Note_on_c, 7, 55, 127
11, 43169, Note_on_c, 7, 55, 0
11, 43200, Note_on_c, 7, 57, 127
11, 43229, Note_on_c, 7, 57, 0
11, 43260, Note_on_c, 7, 55, 127
11, 43289, Note_on_c, 7, 55, 0
11, 43320, Note_on_c, 7, 53, 127
11, 43349, Note_on_c, 7, 53, 0
11, 43380, Note_on_c, 7, 57, 127
11, 43409, Note_on_c, 7, 57, 0
11, 43440, Note_on_c, 7, 58, 127
11, 43469, Note_on_c, 7, 58, 0
11, 43500, Note_on_c, 7, 57, 127
11, 43529, Note_on_c, 7, 57, 0
11, 43560, Note_on_c, 7, 55, 127
11, 43589, Note_on_c, 7, 55, 0
11, 43620, Note_on_c, 7, 54, 127
11, 43649, Note_on_c, 7, 54, 0
11, 43680, Note_on_c, 7, 55, 127
11, 43709, Note_on_c, 7, 55, 0
11, 43740, Note_on_c, 7, 53, 127
11, 43769, Note_on_c, 7, 53, 0
11, 43800, Note_on_c, 7, 52, 127
11, 43829, Note_on_c, 7, 52, 0
11, 43860, Note_on_c, 7, 51, 127
11, 43889, Note_on_c, 7, 51, 0
11, 43920, Note_on_c, 7, 50, 127
11, 43979, Note_on_c, 7, 50, 0
11, 44040, Note_on_c, 7, 54, 127
11, 44099, Note_on_c, 7, 54, 0
11, 44160, Note_on_c, 7, 55, 127
11, 44219, Note_on_c, 7, 55, 0
11, 44400, Note_on_c, 7, 50, 127
11, 44459, Note_on_c, 7, 50, 0
11, 44520, Note_on_c, 7, 51, 127
11, 44579, Note_on_c, 7, 51, 0
11, 44760, Note_on_c, 7, 52, 127
11, 44819, Note_on_c, 7, 52, 0
11, 44880, Note_on_c, 7, 53, 127
11, 44939, Note_on_c, 7, 53, 0
11, 45120, Note_on_c, 7, 54, 127
11, 45179, Note_on_c, 7, 54, 0
11, 45240, Note_on_c, 7, 55, 127
11, 45299, Note_on_c, 7, 55, 0
11, 45480, Note_on_c, 7, 50, 127
11, 45539, Note_on_c, 7, 50, 0
11, 45600, Note_on_c, 7, 51, 127
11, 45659, Note_on_c, 7, 51, 0
11, 45840, Note_on_c, 7, 52, 127
11, 45899, Note_on_c, 7, 52, 0
11, 46080, Note_on_c, 7, 52, 127
11, 46139, Note_on_c, 7, 52, 0
11, 46320, Note_on_c, 7, 52, 127
11, 46379, Note_on_c, 7, 52, 0
11, 46560, Note_on_c, 7, 52, 127
11, 46619, Note_on_c, 7, 52, 0
11, 46800, Note_on_c, 7, 52, 127
11, 46859, Note_on_c, 7, 52, 0
11, 47040, Note_on_c, 7, 52, 127
11, 47099, Note_on_c, 7, 52, 0
11, 47160, Note_on_c, 7, 53, 48
11, 47280, Note_on_c, 7, 58, 48
11, 47289, Note_on_c, 7, 53, 0
11, 47400, Note_on_c, 7, 62, 48
11, 47409, Note_on_c, 7, 58, 0
11, 47519, Note_on_c, 7, 62, 0
11, 47520, Note_on_c, 7, 54, 96
11, 47549, Note_on_c, 7, 54, 0
11, 47550, Note_on_c, 7, 54, 48
11, 47879, Note_on_c, 7, 54, 0
11, 47880, Note_on_c, 7, 53, 48
11, 48000, Note_on_c, 7, 58, 48
11, 48009, Note_on_c, 7, 53, 0
11, 48120, Note_on_c, 7, 62, 48
11, 48129, Note_on_c, 7, 58, 0
11, 48239, Note_on_c, 7, 62, 0
11, 48240, Note_on_c, 7, 55, 96
11, 48269, Note_on_c, 7, 55, 0
11, 48270, Note_on_c, 7, 55, 48
11, 48719, Note_on_c, 7, 55, 0
11, 48780, Note_on_c, 7, 43, 48
11, 48809, Note_on_c, 7, 43, 0
11, 48840, Note_on_c, 7, 46, 48
11, 48869, Note_on_c, 7, 46, 0
11, 48900, Note_on_c, 7, 51, 48
11, 48929, Note_on_c, 7, 51, 0
11, 48960, Note_on_c, 7, 44, 48
11, 49079, Note_on_c, 7, 44, 0
11, 49140, Note_on_c, 7, 44, 48
11, 49169, Note_on_c, 7, 44, 0
11, 49200, Note_on_c, 7, 48, 48
11, 49229, Note_on_c, 7, 48, 0
11, 49260, Note_on_c, 7, 51, 48
11, 49289, Note_on_c, 7, 51, 0
11, 49320, Note_on_c, 7, 45, 48
11, 49439, Note_on_c, 7, 45, 0
11, 49500, Note_on_c, 7, 45, 48
11, 49529, Note_on_c, 7, 45, 0
11, 49560, Note_on_c, 7, 48, 48
11, 49589, Note_on_c, 7, 48, 0
11, 49620, Note_on_c, 7, 53, 48
11, 49649, Note_on_c, 7, 53, 0
11, 49680, Note_on_c, 7, 46, 48
11, 49799, Note_on_c, 7, 46, 0
11, 49860, Note_on_c, 7, 58, 48
11, 49889, Note_on_c, 7, 58, 0
11, 49920, Note_on_c, 7, 53, 48
11, 49949, Note_on_c, 7, 53, 0
11, 49980, Note_on_c, 7, 50, 48
11, 50009, Note_on_c, 7, 50, 0
11, 50040, Note_on_c, 7, 51, 48
11, 50099, Note_on_c, 7, 51, 0
11, 50100, Note_on_c, 7, 51, 52
11, 50159, Note_on_c, 7, 51, 0
11, 50160, Note_on_c, 7, 51, 57
11, 50219, Note_on_c, 7, 51, 0
11, 50220, Note_on_c, 7, 51, 61
11, 50279, Note_on_c, 7, 51, 0
11, 50280, Note_on_c, 7, 51, 66
11, 50339, Note_on_c, 7, 51, 0
11, 50340, Note_on_c, 7, 51, 70
11, 50399, Note_on_c, 7, 51, 0
11, 50400, Note_on_c, 7, 48, 75
11, 50459, Note_on_c, 7, 48, 0
11, 50460, Note_on_c, 7, 48, 79
11, 50519, Note_on_c, 7, 48, 0
11, 50520, Note_on_c, 7, 48, 83
11, 50579, Note_on_c, 7, 48, 0
11, 50580, Note_on_c, 7, 48, 87
11, 50640, Note_on_c, 7, 50, 91
11, 50649, Note_on_c, 7, 48, 0
11, 50700, Note_on_c, 7, 51, 96
11, 50709, Note_on_c, 7, 50, 0
11, 50760, Note_on_c, 7, 53, 101
11, 50769, Note_on_c, 7, 51, 0
11, 50819, Note_on_c, 7, 53, 0
11, 50820, Note_on_c, 7, 53, 105
11, 50879, Note_on_c, 7, 53, 0
11, 50880, Note_on_c, 7, 53, 109
11, 50939, Note_on_c, 7, 53, 0
11, 50940, Note_on_c, 7, 53, 114
11, 50999, Note_on_c, 7, 53, 0
11, 51000, Note_on_c, 7, 50, 118
11, 51059, Note_on_c, 7, 50, 0
11, 51060, Note_on_c, 7, 46, 123
11, 51119, Note_on_c, 7, 46, 0
11, 51120, Note_on_c, 7, 41, 127
11, 51179, Note_on_c, 7, 41, 0
11, 51180, Note_on_c, 7, 53, 127
11, 51239, Note_on_c, 7, 53, 0
11, 51240, Note_on_c, 7, 53, 127
11, 51299, Note_on_c, 7, 53, 0
11, 51300, Note_on_c, 7, 53, 127
11, 51359, Note_on_c, 7, 53, 0
11, 51360, Note_on_c, 7, 53, 127
11, 51419, Note_on_c, 7, 53, 0
11, 51420, Note_on_c, 7, 53, 127
11, 51479, Note_on_c, 7, 53, 0
11, 51480, Note_on_c, 7, 58, 96
11, 51539, Note_on_c, 7, 58, 0
11, 51840, Note_on_c, 7, 46, 96
11, 51899, Note_on_c, 7, 46, 0
11, 52200, Note_on_c, 7, 46, 96
11, 52259, Note_on_c, 7, 46, 0
11, 52560, Note_on_c, 7, 46, 96
11, 52619, Note_on_c, 7, 46, 0
11, 52680, Note_on_c, 7, 46, 96
11, 52739, Note_on_c, 7, 46, 0
11, 52800, Note_on_c, 7, 46, 96
11, 52859, Note_on_c, 7, 46, 0
11, 52920, Note_on_c, 7, 46, 96
11, 52949, Note_on_c, 7, 46, 0
11, 52950, Note_on_c, 7, 46, 48
11, 54600, Note_on_c, 7, 47, 32
11, 54609, Note_on_c, 7, 46, 0
11, 54720, Note_on_c, 7, 45, 32
11, 54729, Note_on_c, 7, 47, 0
11, 54959, Note_on_c, 7, 45, 0
11, 54960, Note_on_c, 7, 46, 96
11, 54989, Note_on_c, 7, 46, 0
11, 54990, Note_on_c, 7, 46, 48
11, 55079, Note_on_c, 7, 46, 0
11, 55080, Note_on_c, 7, 51, 48
11, 55320, Note_on_c, 7, 55, 48
11, 55329, Note_on_c, 7, 51, 0
11, 55440, Note_on_c, 7, 51, 48
11, 55449, Note_on_c, 7, 55, 0
11, 55680, Note_on_c, 7, 46, 48
11, 55689, Note_on_c, 7, 51, 0
11, 55799, Note_on_c, 7, 46, 0
11, 55800, Note_on_c, 7, 51, 54
11, 55920, Note_on_c, 7, 55, 54
11, 55929, Note_on_c, 7, 51, 0
11, 56040, Note_on_c, 7, 58, 54
11, 56049, Note_on_c, 7, 55, 0
11, 56159, Note_on_c, 7, 58, 0
11, 56160, Note_on_c, 7, 51, 54
11, 56400, Note_on_c, 7, 50, 54
11, 56409, Note_on_c, 7, 51, 0
11, 56520, Note_on_c, 7, 49, 64
11, 56529, Note_on_c, 7, 50, 0
11, 56640, Channel_aftertouch_c, 7, 20
11, 57239, Note_on_c, 7, 49, 0
11, 57240, Note_on_c, 7, 50, 96
11, 57839, Note_on_c, 7, 50, 0
11, 57840, Note_on_c, 7, 50, 54
11, 57960, Note_on_c, 7, 51, 48
11, 57969, Note_on_c, 7, 50, 0
11, 58319, Note_on_c, 7, 51, 0
11, 58320, Note_on_c, 7, 44, 48
11, 58440, Note_on_c, 7, 46, 48
11, 58449, Note_on_c, 7, 44, 0
11, 58560, Note_on_c, 7, 48, 48
11, 58569, Note_on_c, 7, 46, 0
11, 58679, Note_on_c, 7, 48, 0
11, 58680, Note_on_c, 7, 46, 48
11, 59039, Note_on_c, 7, 46, 0
11, 59040, Note_on_c, 7, 46, 48
11, 59099, Note_on_c, 7, 46, 0
11, 59160, Note_on_c, 7, 46, 48
11, 59219, Note_on_c, 7, 46, 0
11, 59280, Note_on_c, 7, 46, 48
11, 59339, Note_on_c, 7, 46, 0
11, 59400, Note_on_c, 7, 51, 48
11, 59519, Note_on_c, 7, 51, 0
11, 60720, Note_on_c, 7, 48, 48
11, 60840, Note_on_c, 7, 53, 48
11, 60849, Note_on_c, 7, 48, 0
11, 60960, Note_on_c, 7, 56, 48
11, 60969, Note_on_c, 7, 53, 0
11, 61080, Note_on_c, 7, 60, 48
11, 61089, Note_on_c, 7, 56, 0
11, 61199, Note_on_c, 7, 60, 0
11, 61200, Note_on_c, 7, 53, 48
11, 61319, Note_on_c, 7, 53, 0
11, 62040, Note_on_c, 7, 48, 48
11, 62160, Note_on_c, 7, 47, 64
11, 62169, Note_on_c, 7, 48, 0
11, 62280, Note_on_c, 7, 46, 96
11, 62289, Note_on_c, 7, 47, 0
11, 62339, Note_on_c, 7, 46, 0
11, 62340, Note_on_c, 7, 46, 48
11, 62400, Note_on_c, 7, 50, 48
11, 62409, Note_on_c, 7, 46, 0
11, 62460, Note_on_c, 7, 53, 48
11, 62469, Note_on_c, 7, 50, 0
11, 62520, Note_on_c, 7, 58, 48
11, 62529, Note_on_c, 7, 53, 0
11, 62580, Note_on_c, 7, 62, 48
11, 62589, Note_on_c, 7, 58, 0
11, 62640, Note_on_c, 7, 65, 48
11, 62649, Note_on_c, 7, 62, 0
11, 62759, Note_on_c, 7, 65, 0
11, 62880, Note_on_c, 7, 46, 48
11, 63119, Note_on_c, 7, 46, 0
11, 63120, Note_on_c, 7, 46, 96
11, 63359, Note_on_c, 7, 46, 0
11, 63360, Note_on_c, 7, 46, 96
11, 63599, Note_on_c, 7, 46, 0
11, 63600, Note_on_c, 7, 46, 96
11, 63719, Note_on_c, 7, 46, 0
11, 63720, Note_on_c, 7, 46, 96
11, 63779, Note_on_c, 7, 46, 0
11, 63780, Note_on_c, 7, 46, 48
11, 63840, Note_on_c, 7, 50, 48
11, 63849, Note_on_c, 7, 46, 0
11, 63900, Note_on_c, 7, 53, 48
11, 63909, Note_on_c, 7, 50, 0
11, 63960, Note_on_c, 7, 58, 48
11, 63969, Note_on_c, 7, 53, 0
11, 64020, Note_on_c, 7, 62, 48
11, 64029, Note_on_c, 7, 58, 0
11, 64080, Note_on_c, 7, 65, 48
11, 64089, Note_on_c, 7, 62, 0
11, 64199, Note_on_c, 7, 65, 0
11, 64320, Note_on_c, 7, 46, 96
11, 64440, Note_on_c, 7, 44, 90
11, 64449, Note_on_c, 7, 46, 0
11, 64559, Note_on_c, 7, 44, 0
11, 64560, Note_on_c, 7, 56, 96
11, 64799, Note_on_c, 7, 56, 0
11, 64800, Note_on_c, 7, 56, 96
11, 65039, Note_on_c, 7, 56, 0
11, 65040, Note_on_c, 7, 56, 96
11, 65279, Note_on_c, 7, 56, 0
11, 65280, Note_on_c, 7, 55, 96
11, 65519, Note_on_c, 7, 55, 0
11, 65520, Note_on_c, 7, 55, 96
11, 65759, Note_on_c, 7, 55, 0
11, 65760, Note_on_c, 7, 55, 96
11, 65999, Note_on_c, 7, 55, 0
11, 66000, Note_on_c, 7, 56, 90
11, 66059, Note_on_c, 7, 56, 0
11, 66120, Note_on_c, 7, 56, 96
11, 66359, Note_on_c, 7, 56, 0
11, 66360, Note_on_c, 7, 55, 96
11, 66419, Note_on_c, 7, 55, 0
11, 66480, Note_on_c, 7, 55, 96
11, 66600, Note_on_c, 7, 53, 96
11, 66609, Note_on_c, 7, 55, 0
11, 66629, Note_on_c, 7, 53, 0
11, 66660, Note_on_c, 7, 53, 99
11, 66689, Note_on_c, 7, 53, 0
11, 66720, Note_on_c, 7, 53, 102
11, 66749, Note_on_c, 7, 53, 0
11, 66780, Note_on_c, 7, 53, 105
11, 66809, Note_on_c, 7, 53, 0
11, 66840, Note_on_c, 7, 53, 107
11, 66869, Note_on_c, 7, 53, 0
11, 66900, Note_on_c, 7, 53, 110
11, 66929, Note_on_c, 7, 53, 0
11, 66960, Note_on_c, 7, 46, 112
11, 67019, Note_on_c, 7, 46, 0
11, 67020, Note_on_c, 7, 58, 115
11, 67079, Note_on_c, 7, 58, 0
11, 67080, Note_on_c, 7, 58, 117
11, 67139, Note_on_c, 7, 58, 0
11, 67140, Note_on_c, 7, 58, 120
11, 67199, Note_on_c, 7, 58, 0
11, 67200, Note_on_c, 7, 58, 123
11, 67259, Note_on_c, 7, 58, 0
11, 67260, Note_on_c, 7, 58, 125
11, 67319, Note_on_c, 7, 58, 0
11, 67320, Note_on_c, 7, 51, 127
11, 67560, Note_on_c, 7, 55, 127
11, 67569, Note_on_c, 7, 51, 0
11, 67680, Note_on_c, 7, 51, 127
11, 67689, Note_on_c, 7, 55, 0
11, 67920, Note_on_c, 7, 46, 127
11, 67929, Note_on_c, 7, 51, 0
11, 68039, Note_on_c, 7, 46, 0
11, 68040, Note_on_c, 7, 51, 127
11, 68160, Note_on_c, 7, 55, 127
11, 68169, Note_on_c, 7, 51, 0
11, 68280, Note_on_c, 7, 58, 127
11, 68289, Note_on_c, 7, 55, 0
11, 68399, Note_on_c, 7, 58, 0
11, 68400, Note_on_c, 7, 51, 127
11, 68639, Note_on_c, 7, 51, 0
11, 68640, Note_on_c, 7, 43, 127
11, 68759, Note_on_c, 7, 43, 0
11, 68760, Note_on_c, 7, 48, 127
11, 68880, Note_on_c, 7, 51, 127
11, 68889, Note_on_c, 7, 48, 0
11, 69000, Note_on_c, 7, 55, 127
11, 69009, Note_on_c, 7, 51, 0
11, 69119, Note_on_c, 7, 55, 0
11, 69120, Note_on_c, 7, 48, 127
11, 69359, Note_on_c, 7, 48, 0
11, 69360, Note_on_c, 7, 39, 127
11, 69479, Note_on_c, 7, 39, 0
11, 69480, Note_on_c, 7, 44, 127
11, 69539, Note_on_c, 7, 44, 0
11, 69540, Note_on_c, 7, 56, 127
11, 69599, Note_on_c, 7, 56, 0
11, 69600, Note_on_c, 7, 56, 127
11, 69659, Note_on_c, 7, 56, 0
11, 69660, Note_on_c, 7, 56, 127
11, 69719, Note_on_c, 7, 56, 0
11, 69720, Note_on_c, 7, 56, 127
11, 69779, Note_on_c, 7, 56, 0
11, 69780, Note_on_c, 7, 56, 127
11, 69839, Note_on_c, 7, 56, 0
11, 69840, Note_on_c, 7, 54, 127
11, 69899, Note_on_c, 7, 54, 0
11, 69900, Note_on_c, 7, 54, 127
11, 69959, Note_on_c, 7, 54, 0
11, 69960, Note_on_c, 7, 54, 127
11, 70019, Note_on_c, 7, 54, 0
11, 70020, Note_on_c, 7, 54, 127
11, 70079, Note_on_c, 7, 54, 0
11, 70080, Note_on_c, 7, 54, 127
11, 70139, Note_on_c, 7, 54, 0
11, 70140, Note_on_c, 7, 54, 127
11, 70199, Note_on_c, 7, 54, 0
11, 70200, Note_on_c, 7, 53, 127
11, 70319, Note_on_c, 7, 53, 0
11, 70920, Note_on_c, 7, 41, 48
11, 70979, Note_on_c, 7, 41, 0
11, 71040, Note_on_c, 7, 45, 48
11, 71099, Note_on_c, 7, 45, 0
11, 71160, Note_on_c, 7, 48, 48
11, 71219, Note_on_c, 7, 48, 0
11, 71280, Note_on_c, 7, 53, 48
11, 71339, Note_on_c, 7, 53, 0
11, 71400, Note_on_c, 7, 57, 48
11, 71459, Note_on_c, 7, 57, 0
11, 71520, Note_on_c, 7, 60, 48
11, 71579, Note_on_c, 7, 60, 0
11, 71640, Note_on_c, 7, 53, 48
11, 71759, Note_on_c, 7, 53, 0
11, 72360, Note_on_c, 7, 41, 48
11, 72419, Note_on_c, 7, 41, 0
11, 72480, Note_on_c, 7, 46, 48
11, 72539, Note_on_c, 7, 46, 0
11, 72600, Note_on_c, 7, 50, 48
11, 72659, Note_on_c, 7, 50, 0
11, 72720, Note_on_c, 7, 53, 48
11, 72779, Note_on_c, 7, 53, 0
11, 72840, Note_on_c, 7, 62, 48
11, 72899, Note_on_c, 7, 62, 0
11, 72960, Note_on_c, 7, 58, 48
11, 73019, Note_on_c, 7, 58, 0
11, 73080, Note_on_c, 7, 53, 48
11, 73199, Note_on_c, 7, 53, 0
11, 73920, Note_on_c, 7, 55, 127
11, 74099, Note_on_c, 7, 55, 0
11, 74100, Note_on_c, 7, 53, 127
11, 74159, Note_on_c, 7, 53, 0
11, 74160, Note_on_c, 7, 51, 127
11, 74219, Note_on_c, 7, 51, 0
11, 74280, Note_on_c, 7, 50, 127
11, 74339, Note_on_c, 7, 50, 0
11, 74400, Note_on_c, 7, 48, 127
11, 74459, Note_on_c, 7, 48, 0
11, 74520, Note_on_c, 7, 58, 48
11, 74760, Note_on_c, 7, 57, 51
11, 74769, Note_on_c, 7, 58, 0
11, 74820, Note_on_c, 7, 56, 53
11, 74829, Note_on_c, 7, 57, 0
11, 74880, Note_on_c, 7, 55, 56
11, 74889, Note_on_c, 7, 56, 0
11, 75000, Note_on_c, 7, 53, 52
11, 75009, Note_on_c, 7, 55, 0
11, 75120, Note_on_c, 7, 51, 48
11, 75129, Note_on_c, 7, 53, 0
11, 75240, Note_on_c, 7, 50, 48
11, 75249, Note_on_c, 7, 51, 0
11, 75269, Note_on_c, 7, 50, 0
11, 75300, Note_on_c, 7, 53, 48
11, 75329, Note_on_c, 7, 53, 0
11, 75360, Note_on_c, 7, 51, 48
11, 75389, Note_on_c, 7, 51, 0
11, 75420, Note_on_c, 7, 50, 48
11, 75449, Note_on_c, 7, 50, 0
11, 75480, Note_on_c, 7, 48, 48
11, 75509, Note_on_c, 7, 48, 0
11, 75540, Note_on_c, 7, 46, 48
11, 75569, Note_on_c, 7, 46, 0
11, 75600, Note_on_c, 7, 45, 48
11, 75629, Note_on_c, 7, 45, 0
11, 75660, Note_on_c, 7, 46, 48
11, 75689, Note_on_c, 7, 46, 0
11, 75720, Note_on_c, 7, 48, 48
11, 75749, Note_on_c, 7, 48, 0
11, 75780, Note_on_c, 7, 41, 48
11, 75809, Note_on_c, 7, 41, 0
11, 75840, Note_on_c, 7, 43, 48
11, 75869, Note_on_c, 7, 43, 0
11, 75900, Note_on_c, 7, 45, 48
11, 75929, Note_on_c, 7, 45, 0
11, 75960, Note_on_c, 7, 46, 48
11, 75989, Note_on_c, 7, 46, 0
11, 76020, Note_on_c, 7, 58, 50
11, 76049, Note_on_c, 7, 58, 0
11, 76080, Note_on_c, 7, 58, 52
11, 76109, Note_on_c, 7, 58, 0
11, 76140, Note_on_c, 7, 58, 54
11, 76200, Note_on_c, 7, 57, 56
11, 76209, Note_on_c, 7, 58, 0
11, 76260, Note_on_c, 7, 56, 58
11, 76269, Note_on_c, 7, 57, 0
11, 76319, Note_on_c, 7, 56, 0
11, 76320, Note_on_c, 7, 55, 60
11, 76380, Note_on_c, 7, 53, 62
11, 76389, Note_on_c, 7, 55, 0
11, 76439, Note_on_c, 7, 53, 0
11, 76440, Note_on_c, 7, 51, 64
11, 76469, Note_on_c, 7, 51, 0
11, 76500, Note_on_c, 7, 55, 66
11, 76529, Note_on_c, 7, 55, 0
11, 76560, Note_on_c, 7, 53, 68
11, 76589, Note_on_c, 7, 53, 0
11, 76620, Note_on_c, 7, 51, 70
11, 76649, Note_on_c, 7, 51, 0
11, 76680, Note_on_c, 7, 50, 72
11, 76709, Note_on_c, 7, 50, 0
11, 76740, Note_on_c, 7, 53, 74
11, 76769, Note_on_c, 7, 53, 0
11, 76800, Note_on_c, 7, 51, 76
11, 76829, Note_on_c, 7, 51, 0
11, 76860, Note_on_c, 7, 50, 78
11, 76889, Note_on_c, 7, 50, 0
11, 76920, Note_on_c, 7, 48, 80
11, 76949, Note_on_c, 7, 48, 0
11, 76980, Note_on_c, 7, 46, 82
11, 77009, Note_on_c, 7, 46, 0
11, 77040, Note_on_c, 7, 45, 84
11, 77069, Note_on_c, 7, 45, 0
11, 77100, Note_on_c, 7, 46, 86
11, 77129, Note_on_c, 7, 46, 0
11, 77160, Note_on_c, 7, 48, 88
11, 77189, Note_on_c, 7, 48, 0
11, 77220, Note_on_c, 7, 46, 90
11, 77249, Note_on_c, 7, 46, 0
11, 77280, Note_on_c, 7, 45, 92
11, 77309, Note_on_c, 7, 45, 0
11, 77340, Note_on_c, 7, 43, 94
11, 77369, Note_on_c, 7, 43, 0
11, 77400, Note_on_c, 7, 42, 96
11, 77459, Note_on_c, 7, 42, 0
11, 77520, Note_on_c, 7, 54, 96
11, 77579, Note_on_c, 7, 54, 0
11, 78060, Note_on_c, 7, 42, 96
11, 78089, Note_on_c, 7, 42, 0
11, 78120, Note_on_c, 7, 43, 96
11, 78179, Note_on_c, 7, 43, 0
11, 78240, Note_on_c, 7, 55, 96
11, 78299, Note_on_c, 7, 55, 0
11, 78780, Note_on_c, 7, 55, 96
11, 78809, Note_on_c, 7, 55, 0
11, 78840, Note_on_c, 7, 53, 96
11, 78899, Note_on_c, 7, 53, 0
11, 78960, Note_on_c, 7, 65, 96
11, 79019, Note_on_c, 7, 65, 0
11, 79380, Note_on_c, 7, 53, 96
11, 79409, Note_on_c, 7, 53, 0
11, 79440, Note_on_c, 7, 53, 96
11, 79469, Note_on_c, 7, 53, 0
11, 79500, Note_on_c, 7, 53, 96
11, 79529, Note_on_c, 7, 53, 0
11, 79560, Note_on_c, 7, 51, 96
11, 79589, Note_on_c, 7, 51, 0
11, 79620, Note_on_c, 7, 51, 96
11, 79739, Note_on_c, 7, 51, 0
11, 79740, Note_on_c, 7, 52, 96
11, 79769, Note_on_c, 7, 52, 0
11, 79800, Note_on_c, 7, 53, 96
11, 79829, Note_on_c, 7, 53, 0
11, 79860, Note_on_c, 7, 54, 96
11, 79889, Note_on_c, 7, 54, 0
11, 79920, Note_on_c, 7, 55, 96
11, 79949, Note_on_c, 7, 55, 0
11, 79980, Note_on_c, 7, 55, 96
11, 80099, Note_on_c, 7, 55, 0
11, 80100, Note_on_c, 7, 55, 96
11, 80129, Note_on_c, 7, 55, 0
11, 80160, Note_on_c, 7, 56, 96
11, 80189, Note_on_c, 7, 56, 0
11, 80220, Note_on_c, 7, 57, 96
11, 80249, Note_on_c, 7, 57, 0
11, 80280, Note_on_c, 7, 58, 96
11, 80339, Note_on_c, 7, 58, 0
11, 80340, Note_on_c, 7, 58, 96
11, 80399, Note_on_c, 7, 58, 0
11, 80400, Note_on_c, 7, 56, 96
11, 80459, Note_on_c, 7, 56, 0
11, 80460, Note_on_c, 7, 56, 96
11, 80519, Note_on_c, 7, 56, 0
11, 80520, Note_on_c, 7, 55, 96
11, 80579, Note_on_c, 7, 55, 0
11, 80580, Note_on_c, 7, 55, 96
11, 80639, Note_on_c, 7, 55, 0
11, 80640, Note_on_c, 7, 54, 96
11, 80699, Note_on_c, 7, 54, 0
11, 80700, Note_on_c, 7, 54, 96
11, 80759, Note_on_c, 7, 54, 0
11, 80760, Note_on_c, 7, 53, 96
11, 80819, Note_on_c, 7, 53, 0
11, 80820, Note_on_c, 7, 53, 96
11, 80879, Note_on_c, 7, 53, 0
11, 80880, Note_on_c, 7, 50, 96
11, 80939, Note_on_c, 7, 50, 0
11, 80940, Note_on_c, 7, 50, 96
11, 80999, Note_on_c, 7, 50, 0
11, 81000, Note_on_c, 7, 51, 96
11, 81059, Note_on_c, 7, 51, 0
11, 81060, Note_on_c, 7, 51, 96
11, 81119, Note_on_c, 7, 51, 0
11, 81120, Note_on_c, 7, 51, 96
11, 81179, Note_on_c, 7, 51, 0
11, 81180, Note_on_c, 7, 51, 96
11, 81239, Note_on_c, 7, 51, 0
11, 81240, Note_on_c, 7, 51, 96
11, 81299, Note_on_c, 7, 51, 0
11, 81300, Note_on_c, 7, 51, 96
11, 81359, Note_on_c, 7, 51, 0
11, 81360, Note_on_c, 7, 51, 96
11, 81419, Note_on_c, 7, 51, 0
11, 81420, Note_on_c, 7, 51, 96
11, 81479, Note_on_c, 7, 51, 0
11, 81480, Note_on_c, 7, 51, 96
11, 81539, Note_on_c, 7, 51, 0
11, 81540, Note_on_c, 7, 51, 96
11, 81599, Note_on_c, 7, 51, 0
11, 81600, Note_on_c, 7, 51, 96
11, 81659, Note_on_c, 7, 51, 0
11, 81660, Note_on_c, 7, 51, 96
11, 81719, Note_on_c, 7, 51, 0
11, 81720, Note_on_c, 7, 53, 96
11, 81779, Note_on_c, 7, 53, 0
11, 81780, Note_on_c, 7, 53, 96
11, 81839, Note_on_c, 7, 53, 0
11, 81840, Note_on_c, 7, 53, 96
11, 81899, Note_on_c, 7, 53, 0
11, 81900, Note_on_c, 7, 53, 96
11, 81959, Note_on_c, 7, 53, 0
11, 81960, Note_on_c, 7, 53, 96
11, 82019, Note_on_c, 7, 53, 0
11, 82020, Note_on_c, 7, 53, 96
11, 82079, Note_on_c, 7, 53, 0
11, 82080, Note_on_c, 7, 53, 96
11, 82139, Note_on_c, 7, 53, 0
11, 82140, Note_on_c, 7, 53, 96
11, 82199, Note_on_c, 7, 53, 0
11, 82200, Note_on_c, 7, 53, 96
11, 82259, Note_on_c, 7, 53, 0
11, 82260, Note_on_c, 7, 53, 96
11, 82319, Note_on_c, 7, 53, 0
11, 82320, Note_on_c, 7, 53, 96
11, 82379, Note_on_c, 7, 53, 0
11, 82380, Note_on_c, 7, 53, 96
11, 82439, Note_on_c, 7, 53, 0
11, 82440, Note_on_c, 7, 41, 96
11, 82499, Note_on_c, 7, 41, 0
11, 82500, Note_on_c, 7, 53, 96
11, 82559, Note_on_c, 7, 53, 0
11, 82560, Note_on_c, 7, 53, 96
11, 82619, Note_on_c, 7, 53, 0
11, 82620, Note_on_c, 7, 53, 96
11, 82679, Note_on_c, 7, 53, 0
11, 82680, Note_on_c, 7, 53, 96
11, 82739, Note_on_c, 7, 53, 0
11, 82740, Note_on_c, 7, 53, 96
11, 82799, Note_on_c, 7, 53, 0
11, 82800, Note_on_c, 7, 53, 96
11, 82859, Note_on_c, 7, 53, 0
11, 82860, Note_on_c, 7, 53, 96
11, 82919, Note_on_c, 7, 53, 0
11, 82920, Note_on_c, 7, 53, 96
11, 82979, Note_on_c, 7, 53, 0
11, 82980, Note_on_c, 7, 53, 96
11, 83039, Note_on_c, 7, 53, 0
11, 83040, Note_on_c, 7, 53, 96
11, 83099, Note_on_c, 7, 53, 0
11, 83100, Note_on_c, 7, 53, 96
11, 83159, Note_on_c, 7, 53, 0
11, 83160, Note_on_c, 7, 53, 127
11, 83189, Note_on_c, 7, 53, 0
11, 83220, Note_on_c, 7, 64, 127
11, 83249, Note_on_c, 7, 64, 0
11, 83280, Note_on_c, 7, 63, 127
11, 83309, Note_on_c, 7, 63, 0
11, 83340, Note_on_c, 7, 62, 127
11, 83369, Note_on_c, 7, 62, 0
11, 83400, Note_on_c, 7, 60, 127
11, 83429, Note_on_c, 7, 60, 0
11, 83460, Note_on_c, 7, 58, 127
11, 83489, Note_on_c, 7, 58, 0
11, 83520, Note_on_c, 7, 57, 127
11, 83549, Note_on_c, 7, 57, 0
11, 83580, Note_on_c, 7, 55, 127
11, 83609, Note_on_c, 7, 55, 0
11, 83640, Note_on_c, 7, 53, 127
11, 83669, Note_on_c, 7, 53, 0
11, 83700, Note_on_c, 7, 51, 127
11, 83729, Note_on_c, 7, 51, 0
11, 83760, Note_on_c, 7, 50, 127
11, 83789, Note_on_c, 7, 50, 0
11, 83820, Note_on_c, 7, 48, 127
11, 83849, Note_on_c, 7, 48, 0
11, 83880, Note_on_c, 7, 46, 127
11, 83999, Note_on_c, 7, 46, 0
11, 85440, Note_on_c, 7, 60, 48
11, 85529, Note_on_c, 7, 60, 0
11, 85560, Note_on_c, 7, 60, 48
11, 85649, Note_on_c, 7, 60, 0
11, 85680, Note_on_c, 7, 60, 48
11, 85769, Note_on_c, 7, 60, 0
11, 85800, Note_on_c, 7, 60, 60
11, 85889, Note_on_c, 7, 60, 0
11, 85920, Note_on_c, 7, 60, 72
11, 86009, Note_on_c, 7, 60, 0
11, 86040, Note_on_c, 7, 60, 84
11, 86129, Note_on_c, 7, 60, 0
11, 86160, Note_on_c, 7, 60, 96
11, 86399, Note_on_c, 7, 60, 0
11, 86400, Note_on_c, 7, 60, 96
11, 86700, Note_on_c, 7, 57, 56
11, 86709, Note_on_c, 7, 60, 0
11, 86760, Note_on_c, 7, 58, 48
11, 86769, Note_on_c, 7, 57, 0
11, 86879, Note_on_c, 7, 58, 0
11, 88320, Note_on_c, 7, 53, 48
11, 88440, Note_on_c, 7, 49, 48
11, 88449, Note_on_c, 7, 53, 0
11, 88560, Note_on_c, 7, 48, 54
11, 88569, Note_on_c, 7, 49, 0
11, 88800, Note_on_c, 7, 47, 54
11, 88809, Note_on_c, 7, 48, 0
11, 88920, Note_on_c, 7, 48, 48
11, 88929, Note_on_c, 7, 47, 0
11, 89039, Note_on_c, 7, 48, 0
11, 89760, Note_on_c, 7, 53, 32
11, 89819, Note_on_c, 7, 53, 0
11, 89880, Note_on_c, 7, 53, 32
11, 89939, Note_on_c, 7, 53, 0
11, 90120, Note_on_c, 7, 53, 32
11, 90179, Note_on_c, 7, 53, 0
11, 90240, Note_on_c, 7, 53, 32
11, 90299, Note_on_c, 7, 53, 0
11, 90480, Note_on_c, 7, 53, 32
11, 90539, Note_on_c, 7, 53, 0
11, 90600, Note_on_c, 7, 53, 32
11, 90659, Note_on_c, 7, 53, 0
11, 90720, Note_on_c, 7, 53, 32
11, 90779, Note_on_c, 7, 53, 0
11, 90840, Note_on_c, 7, 53, 32
11, 90899, Note_on_c, 7, 53, 0
11, 90960, Note_on_c, 7, 53, 32
11, 91019, Note_on_c, 7, 53, 0
11, 91080, Note_on_c, 7, 53, 32
11, 91139, Note_on_c, 7, 53, 0
11, 91140, Note_on_c, 7, 53, 32
11, 91199, Note_on_c, 7, 53, 0
11, 91200, Note_on_c, 7, 53, 32
11, 91259, Note_on_c, 7, 53, 0
11, 91260, Note_on_c, 7, 53, 32
11, 91319, Note_on_c, 7, 53, 0
11, 91320, Note_on_c, 7, 63, 32
11, 91349, Note_on_c, 7, 63, 0
11, 91380, Note_on_c, 7, 62, 32
11, 91409, Note_on_c, 7, 62, 0
11, 91440, Note_on_c, 7, 60, 32
11, 91469, Note_on_c, 7, 60, 0
11, 91500, Note_on_c, 7, 62, 32
11, 91529, Note_on_c, 7, 62, 0
11, 91560, Note_on_c, 7, 63, 32
11, 91589, Note_on_c, 7, 63, 0
11, 91620, Note_on_c, 7, 62, 32
11, 91649, Note_on_c, 7, 62, 0
11, 91680, Note_on_c, 7, 60, 32
11, 91709, Note_on_c, 7, 60, 0
11, 91740, Note_on_c, 7, 58, 32
11, 91769, Note_on_c, 7, 58, 0
11, 91800, Note_on_c, 7, 57, 34
11, 91829, Note_on_c, 7, 57, 0
11, 91860, Note_on_c, 7, 58, 37
11, 91889, Note_on_c, 7, 58, 0
11, 91920, Note_on_c, 7, 60, 40
11, 91949, Note_on_c, 7, 60, 0
11, 91980, Note_on_c, 7, 62, 43
11, 92009, Note_on_c, 7, 62, 0
11, 92040, Note_on_c, 7, 63, 46
11, 92069, Note_on_c, 7, 63, 0
11, 92100, Note_on_c, 7, 62, 48
11, 92129, Note_on_c, 7, 62, 0
11, 92160, Note_on_c, 7, 60, 50
11, 92189, Note_on_c, 7, 60, 0
11, 92220, Note_on_c, 7, 62, 53
11, 92249, Note_on_c, 7, 62, 0
11, 92280, Note_on_c, 7, 63, 56
11, 92309, Note_on_c, 7, 63, 0
11, 92340, Note_on_c, 7, 62, 59
11, 92369, Note_on_c, 7, 62, 0
11, 92400, Note_on_c, 7, 60, 62
11, 92429, Note_on_c, 7, 60, 0
11, 92460, Note_on_c, 7, 58, 64
11, 92489, Note_on_c, 7, 58, 0
11, 92520, Note_on_c, 7, 57, 66
11, 92549, Note_on_c, 7, 57, 0
11, 92580, Note_on_c, 7, 58, 69
11, 92609, Note_on_c, 7, 58, 0
11, 92640, Note_on_c, 7, 60, 72
11, 92669, Note_on_c, 7, 60, 0
11, 92700, Note_on_c, 7, 62, 75
11, 92729, Note_on_c, 7, 62, 0
11, 92760, Note_on_c, 7, 60, 78
11, 92789, Note_on_c, 7, 60, 0
11, 92820, Note_on_c, 7, 58, 80
11, 92849, Note_on_c, 7, 58, 0
11, 92880, Note_on_c, 7, 57, 82
11, 92909, Note_on_c, 7, 57, 0
11, 92940, Note_on_c, 7, 55, 85
11, 92969, Note_on_c, 7, 55, 0
11, 93000, Note_on_c, 7, 53, 88
11, 93029, Note_on_c, 7, 53, 0
11, 93060, Note_on_c, 7, 51, 90
11, 93089, Note_on_c, 7, 51, 0
11, 93120, Note_on_c, 7, 50, 92
11, 93149, Note_on_c, 7, 50, 0
11, 93180, Note_on_c, 7, 48, 94
11, 93209, Note_on_c, 7, 48, 0
11, 93240, Note_on_c, 7, 46, 96
11, 93299, Note_on_c, 7, 46, 0
11, 93300, Note_on_c, 7, 41, 96
11, 93359, Note_on_c, 7, 41, 0
11, 93360, Note_on_c, 7, 46, 96
11, 93419, Note_on_c, 7, 46, 0
11, 93420, Note_on_c, 7, 41, 96
11, 93479, Note_on_c, 7, 41, 0
11, 93480, Note_on_c, 7, 46, 96
11, 93539, Note_on_c, 7, 46, 0
11, 93540, Note_on_c, 7, 41, 96
11, 93599, Note_on_c, 7, 41, 0
11, 93600, Note_on_c, 7, 46, 96
11, 93659, Note_on_c, 7, 46, 0
11, 93660, Note_on_c, 7, 41, 96
11, 93719, Note_on_c, 7, 41, 0
11, 93720, Note_on_c, 7, 46, 112
11, 93779, Note_on_c, 7, 46, 0
11, 93780, Note_on_c, 7, 41, 96
11, 93839, Note_on_c, 7, 41, 0
11, 93840, Note_on_c, 7, 46, 96
11, 93899, Note_on_c, 7, 46, 0
11, 93900, Note_on_c, 7, 41, 96
11, 93959, Note_on_c, 7, 41, 0
11, 93960, Note_on_c, 7, 45, 96
11, 94019, Note_on_c, 7, 45, 0
11, 94020, Note_on_c, 7, 41, 96
11, 94079, Note_on_c, 7, 41, 0
11, 94080, Note_on_c, 7, 45, 112
11, 94139, Note_on_c, 7, 45, 0
11, 94140, Note_on_c, 7, 41, 96
11, 94199, Note_on_c, 7, 41, 0
11, 94200, Note_on_c, 7, 45, 96
11, 94259, Note_on_c, 7, 45, 0
11, 94260, Note_on_c, 7, 41, 96
11, 94319, Note_on_c, 7, 41, 0
11, 94320, Note_on_c, 7, 48, 96
11, 94379, Note_on_c, 7, 48, 0
11, 94380, Note_on_c, 7, 41, 96
11, 94439, Note_on_c, 7, 41, 0
11, 94440, Note_on_c, 7, 51, 112
11, 94499, Note_on_c, 7, 51, 0
11, 94500, Note_on_c, 7, 41, 96
11, 94559, Note_on_c, 7, 41, 0
11, 94560, Note_on_c, 7, 45, 96
11, 94619, Note_on_c, 7, 45, 0
11, 94620, Note_on_c, 7, 41, 96
11, 94679, Note_on_c, 7, 41, 0
11, 94680, Note_on_c, 7, 46, 127
11, 94739, Note_on_c, 7, 46, 0
11, 94740, Note_on_c, 7, 41, 127
11, 94799, Note_on_c, 7, 41, 0
11, 94800, Note_on_c, 7, 46, 127
11, 94859, Note_on_c, 7, 46, 0
11, 94860, Note_on_c, 7, 41, 127
11, 94919, Note_on_c, 7, 41, 0
11, 94920, Note_on_c, 7, 46, 127
11, 94979, Note_on_c, 7, 46, 0
11, 94980, Note_on_c, 7, 41, 127
11, 95039, Note_on_c, 7, 41, 0
11, 95040, Note_on_c, 7, 46, 127
11, 95099, Note_on_c, 7, 46, 0
11, 95100, Note_on_c, 7, 41, 127
11, 95159, Note_on_c, 7, 41, 0
11, 95160, Note_on_c, 7, 46, 127
11, 95219, Note_on_c, 7, 46, 0
11, 95220, Note_on_c, 7, 41, 127
11, 95279, Note_on_c, 7, 41, 0
11, 95280, Note_on_c, 7, 46, 127
11, 95339, Note_on_c, 7, 46, 0
11, 95340, Note_on_c, 7, 41, 127
11, 95399, Note_on_c, 7, 41, 0
11, 95400, Note_on_c, 7, 45, 127
11, 95459, Note_on_c, 7, 45, 0
11, 95460, Note_on_c, 7, 41, 127
11, 95519, Note_on_c, 7, 41, 0
11, 95520, Note_on_c, 7, 45, 127
11, 95579, Note_on_c, 7, 45, 0
11, 95580, Note_on_c, 7, 41, 127
11, 95639, Note_on_c, 7, 41, 0
11, 95640, Note_on_c, 7, 45, 127
11, 95699, Note_on_c, 7, 45, 0
11, 95700, Note_on_c, 7, 41, 127
11, 95759, Note_on_c, 7, 41, 0
11, 95760, Note_on_c, 7, 48, 127
11, 95819, Note_on_c, 7, 48, 0
11, 95820, Note_on_c, 7, 41, 127
11, 95879, Note_on_c, 7, 41, 0
11, 95880, Note_on_c, 7, 51, 127
11, 95939, Note_on_c, 7, 51, 0
11, 95940, Note_on_c, 7, 53, 127
11, 95999, Note_on_c, 7, 53, 0
11, 96000, Note_on_c, 7, 51, 127
11, 96059, Note_on_c, 7, 51, 0
11, 96060, Note_on_c, 7, 53, 127
11, 96119, Note_on_c, 7, 53, 0
11, 96120, Note_on_c, 7, 50, 127
11, 96420, Note_on_c, 7, 49, 127
11, 96429, Note_on_c, 7, 50, 0
11, 96479, Note_on_c, 7, 49, 0
11, 96480, Note_on_c, 7, 50, 127
11, 96509, Note_on_c, 7, 50, 0
11, 96540, Note_on_c, 7, 45, 127
11, 96569, Note_on_c, 7, 45, 0
11, 96600, Note_on_c, 7, 46, 127
11, 96629, Note_on_c, 7, 46, 0
11, 96660, Note_on_c, 7, 48, 127
11, 96689, Note_on_c, 7, 48, 0
11, 96720, Note_on_c, 7, 49, 127
11, 96749, Note_on_c, 7, 49, 0
11, 96780, Note_on_c, 7, 50, 127
11, 96809, Note_on_c, 7, 50, 0
11, 96840, Note_on_c, 7, 51, 127
11, 96869, Note_on_c, 7, 51, 0
11, 96900, Note_on_c, 7, 50, 127
11, 96929, Note_on_c, 7, 50, 0
11, 96960, Note_on_c, 7, 48, 127
11, 96989, Note_on_c, 7, 48, 0
11, 97020, Note_on_c, 7, 52, 127
11, 97049, Note_on_c, 7, 52, 0
11, 97080, Note_on_c, 7, 53, 127
11, 97109, Note_on_c, 7, 53, 0
11, 97140, Note_on_c, 7, 51, 127
11, 97169, Note_on_c, 7, 51, 0
11, 97200, Note_on_c, 7, 50, 127
11, 97229, Note_on_c, 7, 50, 0
11, 97260, Note_on_c, 7, 54, 127
11, 97289, Note_on_c, 7, 54, 0
11, 97320, Note_on_c, 7, 55, 127
11, 97349, Note_on_c, 7, 55, 0
11, 97380, Note_on_c, 7, 53, 127
11, 97409, Note_on_c, 7, 53, 0
11, 97440, Note_on_c, 7, 51, 127
11, 97469, Note_on_c, 7, 51, 0
11, 97500, Note_on_c, 7, 55, 127
11, 97529, Note_on_c, 7, 55, 0
11, 97560, Note_on_c, 7, 57, 127
11, 97589, Note_on_c, 7, 57, 0
11, 97620, Note_on_c, 7, 55, 127
11, 97649, Note_on_c, 7, 55, 0
11, 97680, Note_on_c, 7, 53, 127
11, 97709, Note_on_c, 7, 53, 0
11, 97740, Note_on_c, 7, 57, 127
11, 97769, Note_on_c, 7, 57, 0
11, 97800, Note_on_c, 7, 58, 127
11, 97829, Note_on_c, 7, 58, 0
11, 97860, Note_on_c, 7, 57, 127
11, 97889, Note_on_c, 7, 57, 0
11, 97920, Note_on_c, 7, 55, 127
11, 97949, Note_on_c, 7, 55, 0
11, 97980, Note_on_c, 7, 54, 127
11, 98009, Note_on_c, 7, 54, 0
11, 98040, Note_on_c, 7, 55, 127
11, 98069, Note_on_c, 7, 55, 0
11, 98100, Note_on_c, 7, 53, 127
11, 98129, Note_on_c, 7, 53, 0
11, 98160, Note_on_c, 7, 52, 127
11, 98189, Note_on_c, 7, 52, 0
11, 98220, Note_on_c, 7, 51, 127
11, 98249, Note_on_c, 7, 51, 0
11, 98280, Note_on_c, 7, 50, 127
11, 98339, Note_on_c, 7, 50, 0
11, 98400, Note_on_c, 7, 54, 127
11, 98459, Note_on_c, 7, 54, 0
11, 98520, Note_on_c, 7, 55, 127
11, 98579, Note_on_c, 7, 55, 0
11, 98760, Note_on_c, 7, 50, 127
11, 98819, Note_on_c, 7, 50, 0
11, 98880, Note_on_c, 7, 51, 127
11, 98939, Note_on_c, 7, 51, 0
11, 99120, Note_on_c, 7, 52, 127
11, 99179, Note_on_c, 7, 52, 0
11, 99240, Note_on_c, 7, 53, 127
11, 99299, Note_on_c, 7, 53, 0
11, 99480, Note_on_c, 7, 54, 127
11, 99539, Note_on_c, 7, 54, 0
11, 99600, Note_on_c, 7, 55, 127
11, 99659, Note_on_c, 7, 55, 0
11, 99840, Note_on_c, 7, 50, 127
11, 99899, Note_on_c, 7, 50, 0
11, 99960, Note_on_c, 7, 51, 127
11, 100019, Note_on_c, 7, 51, 0
11, 100200, Note_on_c, 7, 52, 127
11, 100259, Note_on_c, 7, 52, 0
11, 100440, Note_on_c, 7, 52, 127
11, 100499, Note_on_c, 7, 52, 0
11, 100680, Note_on_c, 7, 52, 127
11, 100739, Note_on_c, 7, 52, 0
11, 100920, Note_on_c, 7, 52, 127
11, 100979, Note_on_c, 7, 52, 0
11, 101160, Note_on_c, 7, 52, 127
11, 101219, Note_on_c, 7, 52, 0
11, 101400, Note_on_c, 7, 52, 127
11, 101459, Note_on_c, 7, 52, 0
11, 101520, Note_on_c, 7, 53, 48
11, 101640, Note_on_c, 7, 58, 48
11, 101649, Note_on_c, 7, 53, 0
11, 101760, Note_on_c, 7, 62, 48
11, 101769, Note_on_c, 7, 58, 0
11, 101879, Note_on_c, 7, 62, 0
11, 101880, Note_on_c, 7, 54, 96
11, 101909, Note_on_c, 7, 54, 0
11, 101910, Note_on_c, 7, 54, 48
11, 102239, Note_on_c, 7, 54, 0
11, 102240, Note_on_c, 7, 53, 48
11, 102360, Note_on_c, 7, 58, 48
11, 102369, Note_on_c, 7, 53, 0
11, 102480, Note_on_c, 7, 62, 48
11, 102489, Note_on_c, 7, 58, 0
11, 102599, Note_on_c, 7, 62, 0
11, 102600, Note_on_c, 7, 55, 96
11, 102629, Note_on_c, 7, 55, 0
11, 102630, Note_on_c, 7, 55, 48
11, 103079, Note_on_c, 7, 55, 0
11, 103140, Note_on_c, 7, 43, 48
11, 103169, Note_on_c, 7, 43, 0
11, 103200, Note_on_c, 7, 46, 48
11, 103229, Note_on_c, 7, 46, 0
11, 103260, Note_on_c, 7, 51, 48
11, 103289, Note_on_c, 7, 51, 0
11, 103320, Note_on_c, 7, 44, 48
11, 103439, Note_on_c, 7, 44, 0
11, 103500, Note_on_c, 7, 44, 48
11, 103529, Note_on_c, 7, 44, 0
11, 103560, Note_on_c, 7, 48, 48
11, 103589, Note_on_c, 7, 48, 0
11, 103620, Note_on_c, 7, 51, 48
11, 103649, Note_on_c, 7, 51, 0
11, 103680, Note_on_c, 7, 45, 48
11, 103799, Note_on_c, 7, 45, 0
11, 103860, Note_on_c, 7, 45, 48
11, 103889, Note_on_c, 7, 45, 0
11, 103920, Note_on_c, 7, 48, 48
11, 103949, Note_on_c, 7, 48, 0
11, 103980, Note_on_c, 7, 53, 48
11, 104009, Note_on_c, 7, 53, 0
11, 104040, Note_on_c, 7, 46, 48
11, 104159, Note_on_c, 7, 46, 0
11, 104220, Note_on_c, 7, 58, 48
11, 104249, Note_on_c, 7, 58, 0
11, 104280, Note_on_c, 7, 53, 48
11, 104309, Note_on_c, 7, 53, 0
11, 104340, Note_on_c, 7, 50, 48
11, 104369, Note_on_c, 7, 50, 0
11, 104400, Note_on_c, 7, 51, 48
11, 104459, Note_on_c, 7, 51, 0
11, 104460, Note_on_c, 7, 51, 52
11, 104519, Note_on_c, 7, 51, 0
11, 104520, Note_on_c, 7, 51, 57
11, 104579, Note_on_c, 7, 51, 0
11, 104580, Note_on_c, 7, 51, 61
11, 104639, Note_on_c, 7, 51, 0
11, 104640, Note_on_c, 7, 51, 66
11, 104699, Note_on_c, 7, 51, 0
11, 104700, Note_on_c, 7, 51, 70
11, 104759, Note_on_c, 7, 51, 0
11, 104760, Note_on_c, 7, 48, 75
11, 104819, Note_on_c, 7, 48, 0
11, 104820, Note_on_c, 7, 48, 79
11, 104879, Note_on_c, 7, 48, 0
11, 104880, Note_on_c, 7, 48, 83
11, 104939, Note_on_c, 7, 48, 0
11, 104940, Note_on_c, 7, 48, 87
11, 105000, Note_on_c, 7, 50, 91
11, 105009, Note_on_c, 7, 48, 0
11, 105060, Note_on_c, 7, 51, 96
11, 105069, Note_on_c, 7, 50, 0
11, 105120, Note_on_c, 7, 53, 101
11, 105129, Note_on_c, 7, 51, 0
11, 105179, Note_on_c, 7, 53, 0
11, 105180, Note_on_c, 7, 53, 105
11, 105239, Note_on_c, 7, 53, 0
11, 105240, Note_on_c, 7, 53, 109
11, 105299, Note_on_c, 7, 53, 0
11, 105300, Note_on_c, 7, 53, 114
11, 105359, Note_on_c, 7, 53, 0
11, 105360, Note_on_c, 7, 50, 118
11, 105419, Note_on_c, 7, 50, 0
11, 105420, Note_on_c, 7, 46, 123
11, 105479, Note_on_c, 7, 46, 0
11, 105480, Note_on_c, 7, 41, 127
11, 105539, Note_on_c, 7, 41, 0
11, 105540, Note_on_c, 7, 53, 127
11, 105599, Note_on_c, 7, 53, 0
11, 105600, Note_on_c, 7, 53, 127
11, 105659, Note_on_c, 7, 53, 0
11, 105660, Note_on_c, 7, 53, 127
11, 105719, Note_on_c, 7, 53, 0
11, 105720, Note_on_c, 7, 53, 127
11, 105779, Note_on_c, 7, 53, 0
11, 105780, Note_on_c, 7, 53, 127
11, 105839, Note_on_c, 7, 53, 0
11, 105840, Note_on_c, 7, 58, 96
11, 105899, Note_on_c, 7, 58, 0
11, 106200, Note_on_c, 7, 46, 96
11, 106259, Note_on_c, 7, 46, 0
11, 106560, Note_on_c, 7, 46, 96
11, 106619, Note_on_c, 7, 46, 0
11, 106920, Note_on_c, 7, 46, 96
11, 106979, Note_on_c, 7, 46, 0
11, 107040, Note_on_c, 7, 46, 96
11, 107099, Note_on_c, 7, 46, 0
11, 107160, Note_on_c, 7, 46, 96
11, 107219, Note_on_c, 7, 46, 0
11, 107280, Note_on_c, 7, 46, 96
11, 107309, Note_on_c, 7, 46, 0
11, 107310, Note_on_c, 7, 46, 48
11, 108960, Note_on_c, 7, 47, 32
11, 108969, Note_on_c, 7, 46, 0
11, 109080, Note_on_c, 7, 45, 32
11, 109089, Note_on_c, 7, 47, 0
11, 109320, Note_on_c, 7, 46, 32
11, 109329, Note_on_c, 7, 45, 0
11, 109439, Note_on_c, 7, 46, 0
11, 109440, Note_on_c, 7, 44, 32
11, 110159, Note_on_c, 7, 44, 0
11, 110160, Note_on_c, 7, 43, 32
11, 110879, Note_on_c, 7, 43, 0
11, 110880, Note_on_c, 7, 44, 32
11, 111599, Note_on_c, 7, 44, 0
11, 111600, Note_on_c, 7, 43, 32
11, 111719, Note_on_c, 7, 43, 0
11, 111960, Note_on_c, 7, 55, 32
11, 112079, Note_on_c, 7, 55, 0
11, 112320, Note_on_c, 7, 55, 32
11, 112439, Note_on_c, 7, 55, 0
11, 112680, Note_on_c, 7, 55, 32
11, 112799, Note_on_c, 7, 55, 0
11, 113040, Note_on_c, 7, 55, 32
11, 113159, Note_on_c, 7, 55, 0
11, 113400, Note_on_c, 7, 43, 80
11, 113519, Note_on_c, 7, 43, 0
11, 113760, Note_on_c, 7, 43, 48
11, 113879, Note_on_c, 7, 43, 0
11, 114480, Note_on_c, 7, 47, 48
11, 114599, Note_on_c, 7, 47, 0
11, 114840, Note_on_c, 7, 43, 48
11, 114959, Note_on_c, 7, 43, 0
11, 115200, Note_on_c, 7, 48, 48
11, 115319, Note_on_c, 7, 48, 0
11, 115920, Note_on_c, 7, 52, 48
11, 116039, Note_on_c, 7, 52, 0
11, 116280, Note_on_c, 7, 48, 48
11, 116399, Note_on_c, 7, 48, 0
11, 116640, Note_on_c, 7, 50, 48
11, 116759, Note_on_c, 7, 50, 0
11, 117000, Note_on_c, 7, 43, 96
11, 117029, Note_on_c, 7, 43, 0
11, 117030, Note_on_c, 7, 43, 48
11, 117419, Note_on_c, 7, 43, 0
11, 117420, Note_on_c, 7, 45, 48
11, 117449, Note_on_c, 7, 45, 0
11, 117480, Note_on_c, 7, 47, 48
11, 117509, Note_on_c, 7, 47, 0
11, 117540, Note_on_c, 7, 48, 48
11, 117569, Note_on_c, 7, 48, 0
11, 117600, Note_on_c, 7, 50, 48
11, 117629, Note_on_c, 7, 50, 0
11, 117660, Note_on_c, 7, 52, 48
11, 117689, Note_on_c, 7, 52, 0
11, 117720, Note_on_c, 7, 53, 48
11, 117749, Note_on_c, 7, 53, 0
11, 117780, Note_on_c, 7, 50, 48
11, 117809, Note_on_c, 7, 50, 0
11, 117840, Note_on_c, 7, 47, 48
11, 117869, Note_on_c, 7, 47, 0
11, 117900, Note_on_c, 7, 43, 48
11, 117929, Note_on_c, 7, 43, 0
11, 117960, Note_on_c, 7, 45, 48
11, 117989, Note_on_c, 7, 45, 0
11, 118020, Note_on_c, 7, 47, 48
11, 118049, Note_on_c, 7, 47, 0
11, 118080, Note_on_c, 7, 48, 32
11, 118320, Note_on_c, 7, 51, 32
11, 118329, Note_on_c, 7, 48, 0
11, 118440, Note_on_c, 7, 48, 32
11, 118449, Note_on_c, 7, 51, 0
11, 118680, Note_on_c, 7, 43, 32
11, 118689, Note_on_c, 7, 48, 0
11, 118799, Note_on_c, 7, 43, 0
11, 118800, Note_on_c, 7, 48, 32
11, 118919, Note_on_c, 7, 48, 0
11, 119400, Note_on_c, 7, 44, 48
11, 119519, Note_on_c, 7, 44, 0
11, 119520, Note_on_c, 7, 49, 48
11, 119760, Note_on_c, 7, 52, 48
11, 119769, Note_on_c, 7, 49, 0
11, 119880, Note_on_c, 7, 49, 48
11, 119889, Note_on_c, 7, 52, 0
11, 120120, Note_on_c, 7, 44, 48
11, 120129, Note_on_c, 7, 49, 0
11, 120239, Note_on_c, 7, 44, 0
11, 120240, Note_on_c, 7, 49, 48
11, 120359, Note_on_c, 7, 49, 0
11, 120840, Note_on_c, 7, 45, 96
11, 120959, Note_on_c, 7, 45, 0
11, 120960, Note_on_c, 7, 50, 127
11, 121200, Note_on_c, 7, 53, 127
11, 121209, Note_on_c, 7, 50, 0
11, 121320, Note_on_c, 7, 50, 127
11, 121329, Note_on_c, 7, 53, 0
11, 121560, Note_on_c, 7, 45, 127
11, 121569, Note_on_c, 7, 50, 0
11, 121679, Note_on_c, 7, 45, 0
11, 121680, Note_on_c, 7, 50, 127
11, 121920, Note_on_c, 7, 53, 127
11, 121929, Note_on_c, 7, 50, 0
11, 122040, Note_on_c, 7, 50, 127
11, 122049, Note_on_c, 7, 53, 0
11, 122280, Note_on_c, 7, 45, 127
11, 122289, Note_on_c, 7, 50, 0
11, 122399, Note_on_c, 7, 45, 0
11, 122400, Note_on_c, 7, 52, 127
11, 122640, Note_on_c, 7, 55, 127
11, 122649, Note_on_c, 7, 52, 0
11, 122760, Note_on_c, 7, 52, 127
11, 122769, Note_on_c, 7, 55, 0
11, 123000, Note_on_c, 7, 45, 127
11, 123009, Note_on_c, 7, 52, 0
11, 123119, Note_on_c, 7, 45, 0
11, 123120, Note_on_c, 7, 52, 127
11, 123360, Note_on_c, 7, 55, 127
11, 123369, Note_on_c, 7, 52, 0
11, 123479, Note_on_c, 7, 55, 0
11, 123480, Note_on_c, 7, 52, 127
11, 123720, Note_on_c, 7, 55, 127
11, 123729, Note_on_c, 7, 52, 0
11, 123839, Note_on_c, 7, 55, 0
11, 123840, Note_on_c, 7, 53, 48
11, 123869, Note_on_c, 7, 53, 0
11, 123900, Note_on_c, 7, 60, 48
11, 123929, Note_on_c, 7, 60, 0
11, 123960, Note_on_c, 7, 60, 48
11, 123989, Note_on_c, 7, 60, 0
11, 124260, Note_on_c, 7, 58, 48
11, 124289, Note_on_c, 7, 58, 0
11, 124320, Note_on_c, 7, 58, 48
11, 124349, Note_on_c, 7, 58, 0
11, 124560, Note_on_c, 7, 54, 48
11, 124679, Note_on_c, 7, 54, 0
11, 124980, Note_on_c, 7, 54, 94
11, 125039, Note_on_c, 7, 54, 0
11, 125040, Note_on_c, 7, 54, 101
11, 125099, Note_on_c, 7, 54, 0
11, 125100, Note_on_c, 7, 54, 107
11, 125159, Note_on_c, 7, 54, 0
11, 125160, Note_on_c, 7, 54, 114
11, 125219, Note_on_c, 7, 54, 0
11, 125220, Note_on_c, 7, 54, 120
11, 125279, Note_on_c, 7, 54, 0
11, 125280, Note_on_c, 7, 55, 127
11, 125520, Note_on_c, 7, 58, 127
11, 125529, Note_on_c, 7, 55, 0
11, 125640, Note_on_c, 7, 55, 127
11, 125649, Note_on_c, 7, 58, 0
11, 125880, Note_on_c, 7, 50, 127
11, 125889, Note_on_c, 7, 55, 0
11, 125999, Note_on_c, 7, 50, 0
11, 126000, Note_on_c, 7, 55, 127
11, 126240, Note_on_c, 7, 58, 127
11, 126249, Note_on_c, 7, 55, 0
11, 126360, Note_on_c, 7, 55, 127
11, 126369, Note_on_c, 7, 58, 0
11, 126600, Note_on_c, 7, 50, 127
11, 126609, Note_on_c, 7, 55, 0
11, 126719, Note_on_c, 7, 50, 0
11, 126720, Note_on_c, 7, 57, 127
11, 126960, Note_on_c, 7, 60, 127
11, 126969, Note_on_c, 7, 57, 0
11, 127080, Note_on_c, 7, 57, 127
11, 127089, Note_on_c, 7, 60, 0
11, 127320, Note_on_c, 7, 50, 127
11, 127329, Note_on_c, 7, 57, 0
11, 127439, Note_on_c, 7, 50, 0
11, 127440, Note_on_c, 7, 57, 127
11, 127680, Note_on_c, 7, 60, 127
11, 127689, Note_on_c, 7, 57, 0
11, 127799, Note_on_c, 7, 60, 0
11, 127800, Note_on_c, 7, 57, 127
11, 128040, Note_on_c, 7, 60, 127
11, 128049, Note_on_c, 7, 57, 0
11, 128159, Note_on_c, 7, 60, 0
11, 128160, Note_on_c, 7, 59, 48
11, 128189, Note_on_c, 7, 59, 0
11, 128220, Note_on_c, 7, 65, 48
11, 128249, Note_on_c, 7, 65, 0
11, 128280, Note_on_c, 7, 65, 48
11, 128309, Note_on_c, 7, 65, 0
11, 128580, Note_on_c, 7, 63, 48
11, 128609, Note_on_c, 7, 63, 0
11, 128640, Note_on_c, 7, 63, 48
11, 128669, Note_on_c, 7, 63, 0
11, 128880, Note_on_c, 7, 59, 48
11, 128999, Note_on_c, 7, 59, 0
11, 129300, Note_on_c, 7, 59, 94
11, 129359, Note_on_c, 7, 59, 0
11, 129360, Note_on_c, 7, 59, 101
11, 129419, Note_on_c, 7, 59, 0
11, 129420, Note_on_c, 7, 59, 107
11, 129479, Note_on_c, 7, 59, 0
11, 129480, Note_on_c, 7, 59, 114
11, 129539, Note_on_c, 7, 59, 0
11, 129540, Note_on_c, 7, 59, 120
11, 129599, Note_on_c, 7, 59, 0
11, 129600, Note_on_c, 7, 58, 48
11, 129629, Note_on_c, 7, 58, 0
11, 129660, Note_on_c, 7, 58, 48
11, 129689, Note_on_c, 7, 58, 0
11, 129720, Note_on_c, 7, 58, 48
11, 129749, Note_on_c, 7, 58, 0
11, 130020, Note_on_c, 7, 56, 48
11, 130049, Note_on_c, 7, 56, 0
11, 130080, Note_on_c, 7, 56, 48
11, 130109, Note_on_c, 7, 56, 0
11, 130380, Note_on_c, 7, 52, 48
11, 130409, Note_on_c, 7, 52, 0
11, 130440, Note_on_c, 7, 52, 52
11, 130469, Note_on_c, 7, 52, 0
11, 130740, Note_on_c, 7, 52, 78
11, 130769, Note_on_c, 7, 52, 0
11, 130800, Note_on_c, 7, 52, 82
11, 130829, Note_on_c, 7, 52, 0
11, 130860, Note_on_c, 7, 52, 86
11, 130889, Note_on_c, 7, 52, 0
11, 130920, Note_on_c, 7, 52, 90
11, 130949, Note_on_c, 7, 52, 0
11, 130980, Note_on_c, 7, 52, 94
11, 131009, Note_on_c, 7, 52, 0
11, 131040, Note_on_c, 7, 51, 96
11, 131069, Note_on_c, 7, 51, 0
11, 131100, Note_on_c, 7, 63, 96
11, 131129, Note_on_c, 7, 63, 0
11, 131160, Note_on_c, 7, 63, 96
11, 131189, Note_on_c, 7, 63, 0
11, 131460, Note_on_c, 7, 61, 96
11, 131489, Note_on_c, 7, 61, 0
11, 131520, Note_on_c, 7, 61, 96
11, 131549, Note_on_c, 7, 61, 0
11, 131820, Note_on_c, 7, 61, 96
11, 131849, Note_on_c, 7, 61, 0
11, 131880, Note_on_c, 7, 61, 96
11, 131909, Note_on_c, 7, 61, 0
11, 132180, Note_on_c, 7, 48, 96
11, 132209, Note_on_c, 7, 48, 0
11, 132240, Note_on_c, 7, 48, 96
11, 132269, Note_on_c, 7, 48, 0
11, 132480, Note_on_c, 7, 41, 127
11, 132539, Note_on_c, 7, 41, 0
11, 132540, Note_on_c, 7, 53, 127
11, 132599, Note_on_c, 7, 53, 0
11, 132600, Note_on_c, 7, 53, 127
11, 132659, Note_on_c, 7, 53, 0
11, 132660, Note_on_c, 7, 53, 127
11, 132719, Note_on_c, 7, 53, 0
11, 132720, Note_on_c, 7, 53, 127
11, 132779, Note_on_c, 7, 53, 0
11, 132780, Note_on_c, 7, 53, 127
11, 132839, Note_on_c, 7, 53, 0
11, 132840, Note_on_c, 7, 52, 127
11, 132899, Note_on_c, 7, 52, 0
11, 132900, Note_on_c, 7, 52, 127
11, 132959, Note_on_c, 7, 52, 0
11, 132960, Note_on_c, 7, 52, 127
11, 133019, Note_on_c, 7, 52, 0
11, 133020, Note_on_c, 7, 52, 127
11, 133079, Note_on_c, 7, 52, 0
11, 133080, Note_on_c, 7, 52, 127
11, 133139, Note_on_c, 7, 52, 0
11, 133140, Note_on_c, 7, 52, 127
11, 133199, Note_on_c, 7, 52, 0
11, 133200, Note_on_c, 7, 51, 127
11, 133319, Note_on_c, 7, 51, 0
11, 133920, Note_on_c, 7, 55, 48
11, 134039, Note_on_c, 7, 55, 0
11, 134280, Note_on_c, 7, 51, 48
11, 134399, Note_on_c, 7, 51, 0
11, 134640, Note_on_c, 7, 56, 48
11, 134759, Note_on_c, 7, 56, 0
11, 135360, Note_on_c, 7, 60, 48
11, 135479, Note_on_c, 7, 60, 0
11, 135720, Note_on_c, 7, 56, 48
11, 135839, Note_on_c, 7, 56, 0
11, 136080, Note_on_c, 7, 55, 48
11, 136199, Note_on_c, 7, 55, 0
11, 136800, Note_on_c, 7, 51, 96
11, 136829, Note_on_c, 7, 51, 0
11, 136830, Note_on_c, 7, 51, 48
11, 137219, Note_on_c, 7, 51, 0
11, 137220, Note_on_c, 7, 53, 48
11, 137249, Note_on_c, 7, 53, 0
11, 137280, Note_on_c, 7, 51, 48
11, 137309, Note_on_c, 7, 51, 0
11, 137340, Note_on_c, 7, 49, 48
11, 137369, Note_on_c, 7, 49, 0
11, 137400, Note_on_c, 7, 48, 48
11, 137429, Note_on_c, 7, 48, 0
11, 137460, Note_on_c, 7, 46, 48
11, 137489, Note_on_c, 7, 46, 0
11, 137520, Note_on_c, 7, 44, 48
11, 137639, Note_on_c, 7, 44, 0
11, 137640, Note_on_c, 7, 61, 48
11, 137820, Note_on_c, 7, 60, 48
11, 137829, Note_on_c, 7, 61, 0
11, 137879, Note_on_c, 7, 60, 0
11, 137880, Note_on_c, 7, 59, 48
11, 137939, Note_on_c, 7, 59, 0
11, 138000, Note_on_c, 7, 60, 48
11, 138180, Note_on_c, 7, 53, 48
11, 138189, Note_on_c, 7, 60, 0
11, 138239, Note_on_c, 7, 53, 0
11, 138240, Note_on_c, 7, 52, 48
11, 138299, Note_on_c, 7, 52, 0
11, 138360, Note_on_c, 7, 58, 48
11, 138540, Note_on_c, 7, 55, 48
11, 138549, Note_on_c, 7, 58, 0
11, 138599, Note_on_c, 7, 55, 0
11, 138600, Note_on_c, 7, 52, 48
11, 138659, Note_on_c, 7, 52, 0
11, 138720, Note_on_c, 7, 55, 48
11, 138900, Note_on_c, 7, 48, 48
11, 138909, Note_on_c, 7, 55, 0
11, 138959, Note_on_c, 7, 48, 0
11, 138960, Note_on_c, 7, 53, 48
11, 139019, Note_on_c, 7, 53, 0
11, 139020, Note_on_c, 7, 53, 48
11, 139050, Note_on_c, 7, 55, 48
11, 139059, Note_on_c, 7, 53, 0
11, 139079, Note_on_c, 7, 55, 0
11, 139080, Note_on_c, 7, 56, 48
11, 139109, Note_on_c, 7, 56, 0
11, 139140, Note_on_c, 7, 53, 48
11, 139169, Note_on_c, 7, 53, 0
11, 139200, Note_on_c, 7, 49, 48
11, 139229, Note_on_c, 7, 49, 0
11, 139260, Note_on_c, 7, 48, 48
11, 139289, Note_on_c, 7, 48, 0
11, 139320, Note_on_c, 7, 47, 48
11, 139349, Note_on_c, 7, 47, 0
11, 139380, Note_on_c, 7, 43, 48
11, 139400, Note_on_c, 7, 45, 48
11, 139409, Note_on_c, 7, 43, 0
11, 139420, Note_on_c, 7, 47, 48
11, 139429, Note_on_c, 7, 45, 0
11, 139439, Note_on_c, 7, 47, 0
11, 139440, Note_on_c, 7, 48, 48
11, 139469, Note_on_c, 7, 48, 0
11, 139500, Note_on_c, 7, 50, 48
11, 139529, Note_on_c, 7, 50, 0
11, 139560, Note_on_c, 7, 48, 48
11, 139589, Note_on_c, 7, 48, 0
11, 139620, Note_on_c, 7, 46, 48
11, 139649, Note_on_c, 7, 46, 0
11, 139680, Note_on_c, 7, 45, 48
11, 139709, Note_on_c, 7, 45, 0
11, 139740, Note_on_c, 7, 55, 48
11, 139770, Note_on_c, 7, 57, 48
11, 139779, Note_on_c, 7, 55, 0
11, 139799, Note_on_c, 7, 57, 0
11, 139800, Note_on_c, 7, 59, 48
11, 139829, Note_on_c, 7, 59, 0
11, 139860, Note_on_c, 7, 55, 48
11, 139889, Note_on_c, 7, 55, 0
11, 139920, Note_on_c, 7, 57, 48
11, 139949, Note_on_c, 7, 57, 0
11, 139980, Note_on_c, 7, 59, 48
11, 140009, Note_on_c, 7, 59, 0
11, 140040, Note_on_c, 7, 60, 48
11, 140069, Note_on_c, 7, 60, 0
11, 140100, Note_on_c, 7, 60, 48
11, 140130, Note_on_c, 7, 59, 48
11, 140139, Note_on_c, 7, 60, 0
11, 140159, Note_on_c, 7, 59, 0
11, 140160, Note_on_c, 7, 60, 48
11, 140189, Note_on_c, 7, 60, 0
11, 140220, Note_on_c, 7, 62, 48
11, 140249, Note_on_c, 7, 62, 0
11, 140280, Note_on_c, 7, 63, 48
11, 140309, Note_on_c, 7, 63, 0
11, 140340, Note_on_c, 7, 66, 48
11, 140369, Note_on_c, 7, 66, 0
11, 140400, Note_on_c, 7, 67, 48
11, 140519, Note_on_c, 7, 67, 0
11, 141060, Note_on_c, 7, 48, 48
11, 141119, Note_on_c, 7, 48, 0
11, 141120, Note_on_c, 7, 46, 48
11, 141239, Note_on_c, 7, 46, 0
11, 141240, Note_on_c, 7, 55, 96
11, 141419, Note_on_c, 7, 55, 0
11, 141420, Note_on_c, 7, 46, 48
11, 141479, Note_on_c, 7, 46, 0
11, 141480, Note_on_c, 7, 45, 50
11, 141509, Note_on_c, 7, 45, 0
11, 141540, Note_on_c, 7, 54, 53
11, 141569, Note_on_c, 7, 54, 0
11, 141600, Note_on_c, 7, 43, 55
11, 141629, Note_on_c, 7, 43, 0
11, 141660, Note_on_c, 7, 55, 58
11, 141689, Note_on_c, 7, 55, 0
11, 141720, Note_on_c, 7, 51, 60
11, 141749, Note_on_c, 7, 51, 0
11, 141780, Note_on_c, 7, 50, 63
11, 141809, Note_on_c, 7, 50, 0
11, 141840, Note_on_c, 7, 49, 65
11, 141959, Note_on_c, 7, 49, 0
11, 141960, Note_on_c, 7, 61, 112
11, 142139, Note_on_c, 7, 61, 0
11, 142140, Note_on_c, 7, 61, 78
11, 142199, Note_on_c, 7, 61, 0
11, 142200, Note_on_c, 7, 62, 80
11, 142319, Note_on_c, 7, 62, 0
11, 142380, Note_on_c, 7, 50, 88
11, 142410, Note_on_c, 7, 49, 89
11, 142419, Note_on_c, 7, 50, 0
11, 142439, Note_on_c, 7, 49, 0
11, 142440, Note_on_c, 7, 50, 90
11, 142469, Note_on_c, 7, 50, 0
11, 142500, Note_on_c, 7, 48, 93
11, 142529, Note_on_c, 7, 48, 0
11, 142560, Note_on_c, 7, 47, 95
11, 142679, Note_on_c, 7, 47, 0
11, 142740, Note_on_c, 7, 49, 103
11, 142770, Note_on_c, 7, 46, 104
11, 142779, Note_on_c, 7, 49, 0
11, 142799, Note_on_c, 7, 46, 0
11, 142800, Note_on_c, 7, 49, 105
11, 142829, Note_on_c, 7, 49, 0
11, 142860, Note_on_c, 7, 45, 108
11, 142889, Note_on_c, 7, 45, 0
11, 142920, Note_on_c, 7, 50, 110
11, 142949, Note_on_c, 7, 50, 0
11, 142980, Note_on_c, 7, 50, 113
11, 143010, Note_on_c, 7, 49, 114
11, 143019, Note_on_c, 7, 50, 0
11, 143039, Note_on_c, 7, 49, 0
11, 143040, Note_on_c, 7, 50, 115
11, 143069, Note_on_c, 7, 50, 0
11, 143100, Note_on_c, 7, 48, 118
11, 143129, Note_on_c, 7, 48, 0
11, 143160, Note_on_c, 7, 46, 120
11, 143189, Note_on_c, 7, 46, 0
11, 143220, Note_on_c, 7, 45, 123
11, 143249, Note_on_c, 7, 45, 0
11, 143280, Note_on_c, 7, 44, 125
11, 143399, Note_on_c, 7, 44, 0
11, 143400, Note_on_c, 7, 50, 127
11, 144119, Note_on_c, 7, 50, 0
11, 144120, Note_on_c, 7, 50, 127
11, 144359, Note_on_c, 7, 50, 0
11, 144360, Note_on_c, 7, 50, 127
11, 144599, Note_on_c, 7, 50, 0
11, 144600, Note_on_c, 7, 50, 127
11, 144839, Note_on_c, 7, 50, 0
11, 144840, Note_on_c, 7, 50, 127
11, 145079, Note_on_c, 7, 50, 0
11, 145080, Note_on_c, 7, 50, 127
11, 145319, Note_on_c, 7, 50, 0
11, 145320, Note_on_c, 7, 50, 127
11, 145439, Note_on_c, 7, 50, 0
11, 145440, Note_on_c, 7, 36, 127
11, 145440, Note_on_c, 7, 48, 127
11, 145499, Note_on_c, 7, 48, 0
11, 145499, Note_on_c, 7, 36, 0
11, 145560, Note_on_c, 7, 48, 127
11, 146279, Note_on_c, 7, 48, 0
11, 146280, Note_on_c, 7, 48, 127
11, 146519, Note_on_c, 7, 48, 0
11, 146520, Note_on_c, 7, 48, 127
11, 146759, Note_on_c, 7, 48, 0
11, 146760, Note_on_c, 7, 48, 127
11, 146999, Note_on_c, 7, 48, 0
11, 147000, Note_on_c, 7, 48, 127
11, 147239, Note_on_c, 7, 48, 0
11, 147240, Note_on_c, 7, 48, 127
11, 147479, Note_on_c, 7, 48, 0
11, 147480, Note_on_c, 7, 48, 127
11, 147599, Note_on_c, 7, 48, 0
11, 147600, Note_on_c, 7, 47, 127
11, 147659, Note_on_c, 7, 47, 0
11, 147720, Note_on_c, 7, 59, 127
11, 148439, Note_on_c, 7, 59, 0
11, 148440, Note_on_c, 7, 47, 127
11, 148679, Note_on_c, 7, 47, 0
11, 148680, Note_on_c, 7, 47, 127
11, 148919, Note_on_c, 7, 47, 0
11, 148920, Note_on_c, 7, 47, 127
11, 149159, Note_on_c, 7, 47, 0
11, 149160, Note_on_c, 7, 47, 127
11, 149399, Note_on_c, 7, 47, 0
11, 149400, Note_on_c, 7, 47, 127
11, 149639, Note_on_c, 7, 47, 0
11, 149640, Note_on_c, 7, 47, 127
11, 149759, Note_on_c, 7, 47, 0
11, 149760, Note_on_c, 7, 46, 127
11, 149819, Note_on_c, 7, 46, 0
11, 149880, Note_on_c, 7, 58, 127
11, 150599, Note_on_c, 7, 58, 0
11, 150600, Note_on_c, 7, 58, 127
11, 150839, Note_on_c, 7, 58, 0
11, 150840, Note_on_c, 7, 58, 127
11, 151079, Note_on_c, 7, 58, 0
11, 151080, Note_on_c, 7, 58, 127
11, 151319, Note_on_c, 7, 58, 0
11, 151320, Note_on_c, 7, 58, 127
11, 151559, Note_on_c, 7, 58, 0
11, 151560, Note_on_c, 7, 58, 127
11, 151799, Note_on_c, 7, 58, 0
11, 151800, Note_on_c, 7, 58, 127
11, 151919, Note_on_c, 7, 58, 0
11, 151920, Note_on_c, 7, 45, 127
11, 151979, Note_on_c, 7, 45, 0
11, 152040, Note_on_c, 7, 57, 127
11, 152279, Note_on_c, 7, 57, 0
11, 152280, Note_on_c, 7, 57, 127
11, 152519, Note_on_c, 7, 57, 0
11, 152520, Note_on_c, 7, 57, 127
11, 152639, Note_on_c, 7, 57, 0
11, 152640, Note_on_c, 7, 43, 127
11, 152699, Note_on_c, 7, 43, 0
11, 152760, Note_on_c, 7, 55, 127
11, 152999, Note_on_c, 7, 55, 0
11, 153000, Note_on_c, 7, 55, 127
11, 153239, Note_on_c, 7, 55, 0
11, 153240, Note_on_c, 7, 55, 127
11, 153359, Note_on_c, 7, 55, 0
11, 153360, Note_on_c, 7, 45, 127
11, 153419, Note_on_c, 7, 45, 0
11, 153480, Note_on_c, 7, 57, 96
11, 153719, Note_on_c, 7, 57, 0
11, 153840, Note_on_c, 7, 57, 96
11, 154079, Note_on_c, 7, 57, 0
11, 154200, Note_on_c, 7, 57, 96
11, 154439, Note_on_c, 7, 57, 0
11, 154440, Note_on_c, 7, 57, 96
11, 154679, Note_on_c, 7, 57, 0
11, 154680, Note_on_c, 7, 57, 96
11, 154739, Note_on_c, 7, 57, 0
11, 154920, Note_on_c, 7, 47, 96
11, 154979, Note_on_c, 7, 47, 0
11, 155040, Note_on_c, 7, 47, 96
11, 155099, Note_on_c, 7, 47, 0
11, 155160, Note_on_c, 7, 47, 96
11, 155219, Note_on_c, 7, 47, 0
11, 155280, Note_on_c, 7, 47, 88
11, 155339, Note_on_c, 7, 47, 0
11, 155400, Note_on_c, 7, 47, 80
11, 155459, Note_on_c, 7, 47, 0
11, 155520, Note_on_c, 7, 47, 72
11, 155579, Note_on_c, 7, 47, 0
11, 155640, Note_on_c, 7, 47, 64
11, 155699, Note_on_c, 7, 47, 0
11, 155760, Note_on_c, 7, 47, 56
11, 155819, Note_on_c, 7, 47, 0
11, 155880, Note_on_c, 7, 47, 48
11, 155939, Note_on_c, 7, 47, 0
11, 156000, Note_on_c, 7, 47, 48
11, 156059, Note_on_c, 7, 47, 0
11, 156120, Note_on_c, 7, 47, 48
11, 156179, Note_on_c, 7, 47, 0
11, 156240, Note_on_c, 7, 52, 48
11, 156359, Note_on_c, 7, 52, 0
11, 156360, Note_on_c, 7, 64, 56
11, 156480, Note_on_c, 7, 66, 56
11, 156489, Note_on_c, 7, 64, 0
11, 156600, Note_on_c, 7, 67, 96
11, 156609, Note_on_c, 7, 66, 0
11, 156629, Note_on_c, 7, 67, 0
11, 156630, Note_on_c, 7, 67, 48
11, 156780, Note_on_c, 7, 66, 48
11, 156789, Note_on_c, 7, 67, 0
11, 156840, Note_on_c, 7, 64, 48
11, 156849, Note_on_c, 7, 66, 0
11, 156959, Note_on_c, 7, 64, 0
11, 156960, Note_on_c, 7, 63, 48
11, 157080, Note_on_c, 7, 62, 48
11, 157089, Note_on_c, 7, 63, 0
11, 157200, Note_on_c, 7, 61, 48
11, 157209, Note_on_c, 7, 62, 0
11, 157320, Note_on_c, 7, 59, 96
11, 157329, Note_on_c, 7, 61, 0
11, 157349, Note_on_c, 7, 59, 0
11, 157350, Note_on_c, 7, 59, 48
11, 157560, Note_on_c, 7, 61, 48
11, 157569, Note_on_c, 7, 59, 0
11, 157620, Note_on_c, 7, 63, 48
11, 157629, Note_on_c, 7, 61, 0
11, 157679, Note_on_c, 7, 63, 0
11, 157680, Note_on_c, 7, 64, 48
11, 157799, Note_on_c, 7, 64, 0
11, 157800, Note_on_c, 7, 64, 48
11, 157920, Note_on_c, 7, 66, 48
11, 157929, Note_on_c, 7, 64, 0
11, 158040, Note_on_c, 7, 67, 96
11, 158049, Note_on_c, 7, 66, 0
11, 158069, Note_on_c, 7, 67, 0
11, 158070, Note_on_c, 7, 67, 48
11, 158220, Note_on_c, 7, 66, 48
11, 158229, Note_on_c, 7, 67, 0
11, 158280, Note_on_c, 7, 64, 48
11, 158289, Note_on_c, 7, 66, 0
11, 158399, Note_on_c, 7, 64, 0
11, 158400, Note_on_c, 7, 63, 48
11, 158520, Note_on_c, 7, 62, 48
11, 158529, Note_on_c, 7, 63, 0
11, 158640, Note_on_c, 7, 61, 48
11, 158649, Note_on_c, 7, 62, 0
11, 158759, Note_on_c, 7, 61, 0
11, 158760, Note_on_c, 7, 59, 48
11, 159000, Note_on_c, 7, 64, 56
11, 159009, Note_on_c, 7, 59, 0
11, 159120, Note_on_c, 7, 57, 48
11, 159129, Note_on_c, 7, 64, 0
11, 159239, Note_on_c, 7, 57, 0
11, 161700, Note_on_c, 7, 52, 56
11, 161760, Note_on_c, 7, 55, 64
11, 161769, Note_on_c, 7, 52, 0
11, 161820, Note_on_c, 7, 53, 72
11, 161829, Note_on_c, 7, 55, 0
11, 161880, Note_on_c, 7, 52, 80
11, 161889, Note_on_c, 7, 53, 0
11, 161940, Note_on_c, 7, 50, 88
11, 161949, Note_on_c, 7, 52, 0
11, 161999, Note_on_c, 7, 50, 0
11, 162000, Note_on_c, 7, 48, 96
11, 162240, Note_on_c, 7, 52, 96
11, 162249, Note_on_c, 7, 48, 0
11, 162360, Note_on_c, 7, 48, 96
11, 162369, Note_on_c, 7, 52, 0
11, 162600, Note_on_c, 7, 43, 96
11, 162609, Note_on_c, 7, 48, 0
11, 162719, Note_on_c, 7, 43, 0
11, 162720, Note_on_c, 7, 48, 96
11, 162779, Note_on_c, 7, 48, 0
11, 162840, Note_on_c, 7, 52, 96
11, 162899, Note_on_c, 7, 52, 0
11, 162960, Note_on_c, 7, 55, 96
11, 163019, Note_on_c, 7, 55, 0
11, 163080, Note_on_c, 7, 48, 96
11, 163320, Note_on_c, 7, 43, 96
11, 163329, Note_on_c, 7, 48, 0
11, 163439, Note_on_c, 7, 43, 0
11, 163440, Note_on_c, 7, 48, 96
11, 163499, Note_on_c, 7, 48, 0
11, 163560, Note_on_c, 7, 52, 96
11, 163619, Note_on_c, 7, 52, 0
11, 163680, Note_on_c, 7, 55, 96
11, 163739, Note_on_c, 7, 55, 0
11, 163800, Note_on_c, 7, 60, 96
11, 163859, Note_on_c, 7, 60, 0
11, 163920, Note_on_c, 7, 64, 96
11, 163979, Note_on_c, 7, 64, 0
11, 164040, Note_on_c, 7, 67, 112
11, 164219, Note_on_c, 7, 67, 0
11, 164220, Note_on_c, 7, 65, 96
11, 164249, Note_on_c, 7, 65, 0
11, 164280, Note_on_c, 7, 62, 96
11, 164309, Note_on_c, 7, 62, 0
11, 164340, Note_on_c, 7, 59, 96
11, 164369, Note_on_c, 7, 59, 0
11, 164400, Note_on_c, 7, 55, 96
11, 164429, Note_on_c, 7, 55, 0
11, 164460, Note_on_c, 7, 53, 96
11, 164489, Note_on_c, 7, 53, 0
11, 164520, Note_on_c, 7, 50, 96
11, 164549, Note_on_c, 7, 50, 0
11, 164580, Note_on_c, 7, 53, 96
11, 164609, Note_on_c, 7, 53, 0
11, 164640, Note_on_c, 7, 50, 96
11, 164669, Note_on_c, 7, 50, 0
11, 164700, Note_on_c, 7, 47, 96
11, 164729, Note_on_c, 7, 47, 0
11, 164760, Note_on_c, 7, 43, 96
11, 164789, Note_on_c, 7, 43, 0
11, 164820, Note_on_c, 7, 47, 96
11, 164849, Note_on_c, 7, 47, 0
11, 164880, Note_on_c, 7, 48, 96
11, 164939, Note_on_c, 7, 48, 0
11, 165000, Note_on_c, 7, 51, 96
11, 165059, Note_on_c, 7, 51, 0
11, 165120, Note_on_c, 7, 55, 96
11, 165179, Note_on_c, 7, 55, 0
11, 165240, Note_on_c, 7, 60, 96
11, 165299, Note_on_c, 7, 60, 0
11, 165360, Note_on_c, 7, 63, 96
11, 165419, Note_on_c, 7, 63, 0
11, 165480, Note_on_c, 7, 67, 112
11, 165659, Note_on_c, 7, 67, 0
11, 165660, Note_on_c, 7, 65, 96
11, 165689, Note_on_c, 7, 65, 0
11, 165720, Note_on_c, 7, 62, 96
11, 165749, Note_on_c, 7, 62, 0
11, 165780, Note_on_c, 7, 59, 96
11, 165809, Note_on_c, 7, 59, 0
11, 165840, Note_on_c, 7, 55, 96
11, 165869, Note_on_c, 7, 55, 0
11, 165900, Note_on_c, 7, 53, 96
11, 165929, Note_on_c, 7, 53, 0
11, 165960, Note_on_c, 7, 50, 96
11, 165989, Note_on_c, 7, 50, 0
11, 166020, Note_on_c, 7, 53, 96
11, 166049, Note_on_c, 7, 53, 0
11, 166080, Note_on_c, 7, 50, 96
11, 166109, Note_on_c, 7, 50, 0
11, 166140, Note_on_c, 7, 47, 96
11, 166169, Note_on_c, 7, 47, 0
11, 166200, Note_on_c, 7, 43, 96
11, 166229, Note_on_c, 7, 43, 0
11, 166260, Note_on_c, 7, 47, 96
11, 166289, Note_on_c, 7, 47, 0
11, 166320, Note_on_c, 7, 48, 96
11, 166440, Note_on_c, 7, 51, 96
11, 166449, Note_on_c, 7, 48, 0
11, 166560, Note_on_c, 7, 55, 96
11, 166569, Note_on_c, 7, 51, 0
11, 166679, Note_on_c, 7, 55, 0
11, 166680, Note_on_c, 7, 56, 112
11, 166920, Note_on_c, 7, 48, 112
11, 166929, Note_on_c, 7, 56, 0
11, 167039, Note_on_c, 7, 48, 0
11, 167040, Note_on_c, 7, 49, 96
11, 167160, Note_on_c, 7, 53, 96
11, 167169, Note_on_c, 7, 49, 0
11, 167280, Note_on_c, 7, 57, 96
11, 167289, Note_on_c, 7, 53, 0
11, 167399, Note_on_c, 7, 57, 0
11, 167400, Note_on_c, 7, 58, 112
11, 167640, Note_on_c, 7, 50, 96
11, 167649, Note_on_c, 7, 58, 0
11, 167759, Note_on_c, 7, 50, 0
11, 167760, Note_on_c, 7, 51, 96
11, 167819, Note_on_c, 7, 51, 0
11, 167880, Note_on_c, 7, 43, 96
11, 167939, Note_on_c, 7, 43, 0
11, 168000, Note_on_c, 7, 46, 96
11, 168059, Note_on_c, 7, 46, 0
11, 168120, Note_on_c, 7, 51, 96
11, 168179, Note_on_c, 7, 51, 0
11, 168240, Note_on_c, 7, 55, 96
11, 168299, Note_on_c, 7, 55, 0
11, 168360, Note_on_c, 7, 58, 112
11, 168539, Note_on_c, 7, 58, 0
11, 168540, Note_on_c, 7, 56, 96
11, 168569, Note_on_c, 7, 56, 0
11, 168600, Note_on_c, 7, 53, 96
11, 168629, Note_on_c, 7, 53, 0
11, 168660, Note_on_c, 7, 50, 96
11, 168689, Note_on_c, 7, 50, 0
11, 168720, Note_on_c, 7, 46, 96
11, 168749, Note_on_c, 7, 46, 0
11, 168780, Note_on_c, 7, 44, 96
11, 168809, Note_on_c, 7, 44, 0
11, 168840, Note_on_c, 7, 41, 96
11, 168869, Note_on_c, 7, 41, 0
11, 168900, Note_on_c, 7, 56, 96
11, 168929, Note_on_c, 7, 56, 0
11, 168960, Note_on_c, 7, 53, 96
11, 168989, Note_on_c, 7, 53, 0
11, 169020, Note_on_c, 7, 50, 96
11, 169049, Note_on_c, 7, 50, 0
11, 169080, Note_on_c, 7, 46, 96
11, 169109, Note_on_c, 7, 46, 0
11, 169140, Note_on_c, 7, 50, 96
11, 169169, Note_on_c, 7, 50, 0
11, 169200, Note_on_c, 7, 51, 127
11, 169259, Note_on_c, 7, 51, 0
11, 169320, Note_on_c, 7, 42, 127
11, 169379, Note_on_c, 7, 42, 0
11, 169440, Note_on_c, 7, 46, 127
11, 169499, Note_on_c, 7, 46, 0
11, 169560, Note_on_c, 7, 51, 127
11, 169619, Note_on_c, 7, 51, 0
11, 169680, Note_on_c, 7, 54, 127
11, 169739, Note_on_c, 7, 54, 0
11, 169800, Note_on_c, 7, 58, 127
11, 169859, Note_on_c, 7, 58, 0
11, 169920, Note_on_c, 7, 63, 127
11, 170039, Note_on_c, 7, 63, 0
11, 170040, Note_on_c, 7, 63, 48
11, 170160, Note_on_c, 7, 65, 48
11, 170169, Note_on_c, 7, 63, 0
11, 170280, Note_on_c, 7, 66, 48
11, 170289, Note_on_c, 7, 65, 0
11, 170460, Note_on_c, 7, 65, 48
11, 170469, Note_on_c, 7, 66, 0
11, 170520, Note_on_c, 7, 63, 48
11, 170529, Note_on_c, 7, 65, 0
11, 170639, Note_on_c, 7, 63, 0
11, 170640, Note_on_c, 7, 62, 48
11, 170760, Note_on_c, 7, 61, 48
11, 170769, Note_on_c, 7, 62, 0
11, 170880, Note_on_c, 7, 60, 48
11, 170889, Note_on_c, 7, 61, 0
11, 170999, Note_on_c, 7, 60, 0
11, 171000, Note_on_c, 7, 58, 56
11, 171240, Note_on_c, 7, 60, 48
11, 171249, Note_on_c, 7, 58, 0
11, 171300, Note_on_c, 7, 62, 48
11, 171309, Note_on_c, 7, 60, 0
11, 171360, Note_on_c, 7, 63, 48
11, 171369, Note_on_c, 7, 62, 0
11, 171479, Note_on_c, 7, 63, 0
11, 171840, Note_on_c, 7, 51, 40
11, 171959, Note_on_c, 7, 51, 0
11, 171960, Note_on_c, 7, 51, 32
11, 172079, Note_on_c, 7, 51, 0
11, 172080, Note_on_c, 7, 53, 40
11, 172440, Note_on_c, 7, 49, 48
11, 172449, Note_on_c, 7, 53, 0
11, 172799, Note_on_c, 7, 49, 0
11, 172800, Note_on_c, 7, 54, 48
11, 173519, Note_on_c, 7, 54, 0
11, 173520, Note_on_c, 7, 56, 48
11, 173880, Note_on_c, 7, 49, 48
11, 173889, Note_on_c, 7, 56, 0
11, 174239, Note_on_c, 7, 49, 0
11, 174240, Note_on_c, 7, 54, 48
11, 174359, Note_on_c, 7, 54, 0
11, 174360, Note_on_c, 7, 54, 48
11, 174480, Note_on_c, 7, 56, 48
11, 174489, Note_on_c, 7, 54, 0
11, 174600, Note_on_c, 7, 58, 56
11, 174609, Note_on_c, 7, 56, 0
11, 174780, Note_on_c, 7, 56, 48
11, 174789, Note_on_c, 7, 58, 0
11, 174840, Note_on_c, 7, 54, 48
11, 174849, Note_on_c, 7, 56, 0
11, 174959, Note_on_c, 7, 54, 0
11, 174960, Note_on_c, 7, 53, 48
11, 175320, Note_on_c, 7, 51, 48
11, 175329, Note_on_c, 7, 53, 0
11, 175679, Note_on_c, 7, 51, 0
11, 175680, Note_on_c, 7, 46, 48
11, 175739, Note_on_c, 7, 46, 0
11, 175800, Note_on_c, 7, 50, 48
11, 175859, Note_on_c, 7, 50, 0
11, 175920, Note_on_c, 7, 46, 48
11, 175979, Note_on_c, 7, 46, 0
11, 176040, Note_on_c, 7, 53, 48
11, 176099, Note_on_c, 7, 53, 0
11, 176160, Note_on_c, 7, 46, 48
11, 176219, Note_on_c, 7, 46, 0
11, 176280, Note_on_c, 7, 58, 48
11, 176339, Note_on_c, 7, 58, 0
11, 176400, Note_on_c, 7, 46, 48
11, 176459, Note_on_c, 7, 46, 0
11, 176520, Note_on_c, 7, 62, 48
11, 176579, Note_on_c, 7, 62, 0
11, 176640, Note_on_c, 7, 46, 48
11, 176699, Note_on_c, 7, 46, 0
11, 176760, Note_on_c, 7, 65, 96
11, 176789, Note_on_c, 7, 65, 0
11, 176790, Note_on_c, 7, 65, 48
11, 177119, Note_on_c, 7, 65, 0
11, 177120, Note_on_c, 7, 46, 48
11, 177179, Note_on_c, 7, 46, 0
11, 177240, Note_on_c, 7, 51, 48
11, 177299, Note_on_c, 7, 51, 0
11, 177360, Note_on_c, 7, 46, 48
11, 177419, Note_on_c, 7, 46, 0
11, 177480, Note_on_c, 7, 54, 48
11, 177539, Note_on_c, 7, 54, 0
11, 177600, Note_on_c, 7, 46, 48
11, 177659, Note_on_c, 7, 46, 0
11, 177720, Note_on_c, 7, 58, 48
11, 177779, Note_on_c, 7, 58, 0
11, 177840, Note_on_c, 7, 46, 48
11, 177899, Note_on_c, 7, 46, 0
11, 177960, Note_on_c, 7, 63, 48
11, 178019, Note_on_c, 7, 63, 0
11, 178080, Note_on_c, 7, 46, 48
11, 178139, Note_on_c, 7, 46, 0
11, 178200, Note_on_c, 7, 66, 96
11, 178229, Note_on_c, 7, 66, 0
11, 178230, Note_on_c, 7, 66, 48
11, 178559, Note_on_c, 7, 66, 0
11, 178560, Note_on_c, 7, 36, 48
11, 178619, Note_on_c, 7, 36, 0
11, 178680, Note_on_c, 7, 39, 48
11, 178739, Note_on_c, 7, 39, 0
11, 178800, Note_on_c, 7, 36, 48
11, 178859, Note_on_c, 7, 36, 0
11, 178920, Note_on_c, 7, 44, 48
11, 178979, Note_on_c, 7, 44, 0
11, 179040, Note_on_c, 7, 36, 48
11, 179099, Note_on_c, 7, 36, 0
11, 179160, Note_on_c, 7, 48, 48
11, 179219, Note_on_c, 7, 48, 0
11, 179280, Note_on_c, 7, 36, 48
11, 179339, Note_on_c, 7, 36, 0
11, 179400, Note_on_c, 7, 51, 48
11, 179459, Note_on_c, 7, 51, 0
11, 179520, Note_on_c, 7, 36, 48
11, 179579, Note_on_c, 7, 36, 0
11, 179640, Note_on_c, 7, 56, 96
11, 179669, Note_on_c, 7, 56, 0
11, 179670, Note_on_c, 7, 56, 48
11, 179999, Note_on_c, 7, 56, 0
11, 180000, Note_on_c, 7, 37, 48
11, 180059, Note_on_c, 7, 37, 0
11, 180120, Note_on_c, 7, 41, 48
11, 180179, Note_on_c, 7, 41, 0
11, 180240, Note_on_c, 7, 37, 48
11, 180299, Note_on_c, 7, 37, 0
11, 180360, Note_on_c, 7, 44, 48
11, 180419, Note_on_c, 7, 44, 0
11, 180480, Note_on_c, 7, 37, 48
11, 180539, Note_on_c, 7, 37, 0
11, 180600, Note_on_c, 7, 49, 48
11, 180659, Note_on_c, 7, 49, 0
11, 180720, Note_on_c, 7, 37, 48
11, 180779, Note_on_c, 7, 37, 0
11, 180840, Note_on_c, 7, 53, 48
11, 180899, Note_on_c, 7, 53, 0
11, 180960, Note_on_c, 7, 37, 48
11, 181019, Note_on_c, 7, 37, 0
11, 181080, Note_on_c, 7, 56, 96
11, 181109, Note_on_c, 7, 56, 0
11, 181110, Note_on_c, 7, 56, 48
11, 181439, Note_on_c, 7, 56, 0
11, 181440, Note_on_c, 7, 38, 48
11, 181499, Note_on_c, 7, 38, 0
11, 181560, Note_on_c, 7, 41, 49
11, 181619, Note_on_c, 7, 41, 0
11, 181680, Note_on_c, 7, 38, 50
11, 181739, Note_on_c, 7, 38, 0
11, 181800, Note_on_c, 7, 46, 51
11, 181859, Note_on_c, 7, 46, 0
11, 181920, Note_on_c, 7, 38, 52
11, 181979, Note_on_c, 7, 38, 0
11, 182040, Note_on_c, 7, 50, 53
11, 182099, Note_on_c, 7, 50, 0
11, 182160, Note_on_c, 7, 38, 54
11, 182219, Note_on_c, 7, 38, 0
11, 182280, Note_on_c, 7, 53, 55
11, 182339, Note_on_c, 7, 53, 0
11, 182400, Note_on_c, 7, 38, 56
11, 182459, Note_on_c, 7, 38, 0
11, 182520, Note_on_c, 7, 58, 96
11, 182879, Note_on_c, 7, 58, 0
11, 182880, Note_on_c, 7, 39, 60
11, 182939, Note_on_c, 7, 39, 0
11, 183000, Note_on_c, 7, 42, 64
11, 183059, Note_on_c, 7, 42, 0
11, 183120, Note_on_c, 7, 39, 68
11, 183179, Note_on_c, 7, 39, 0
11, 183240, Note_on_c, 7, 46, 72
11, 183299, Note_on_c, 7, 46, 0
11, 183360, Note_on_c, 7, 39, 76
11, 183419, Note_on_c, 7, 39, 0
11, 183480, Note_on_c, 7, 51, 80
11, 183539, Note_on_c, 7, 51, 0
11, 183600, Note_on_c, 7, 39, 84
11, 183659, Note_on_c, 7, 39, 0
11, 183720, Note_on_c, 7, 54, 88
11, 183779, Note_on_c, 7, 54, 0
11, 183840, Note_on_c, 7, 39, 92
11, 183899, Note_on_c, 7, 39, 0
11, 183960, Note_on_c, 7, 58, 96
11, 184319, Note_on_c, 7, 58, 0
11, 184320, Note_on_c, 7, 47, 127
11, 184379, Note_on_c, 7, 47, 0
11, 184440, Note_on_c, 7, 51, 127
11, 184499, Note_on_c, 7, 51, 0
11, 184560, Note_on_c, 7, 47, 127
11, 184619, Note_on_c, 7, 47, 0
11, 184680, Note_on_c, 7, 54, 127
11, 184739, Note_on_c, 7, 54, 0
11, 184800, Note_on_c, 7, 47, 127
11, 184859, Note_on_c, 7, 47, 0
11, 184920, Note_on_c, 7, 59, 127
11, 184979, Note_on_c, 7, 59, 0
11, 185040, Note_on_c, 7, 47, 127
11, 185099, Note_on_c, 7, 47, 0
11, 185160, Note_on_c, 7, 63, 127
11, 185219, Note_on_c, 7, 63, 0
11, 185280, Note_on_c, 7, 47, 127
11, 185339, Note_on_c, 7, 47, 0
11, 185400, Note_on_c, 7, 66, 127
11, 185429, Note_on_c, 7, 66, 0
11, 185460, Note_on_c, 7, 63, 127
11, 185489, Note_on_c, 7, 63, 0
11, 185520, Note_on_c, 7, 59, 127
11, 185549, Note_on_c, 7, 59, 0
11, 185580, Note_on_c, 7, 54, 127
11, 185609, Note_on_c, 7, 54, 0
11, 185640, Note_on_c, 7, 51, 127
11, 185669, Note_on_c, 7, 51, 0
11, 185700, Note_on_c, 7, 54, 127
11, 185729, Note_on_c, 7, 54, 0
11, 185760, Note_on_c, 7, 47, 127
11, 185879, Note_on_c, 7, 47, 0
11, 186840, Note_on_c, 7, 47, 96
11, 186960, Note_on_c, 7, 51, 96
11, 186969, Note_on_c, 7, 47, 0
11, 187080, Note_on_c, 7, 54, 96
11, 187089, Note_on_c, 7, 51, 0
11, 187199, Note_on_c, 7, 54, 0
11, 188280, Note_on_c, 7, 48, 48
11, 188400, Note_on_c, 7, 51, 48
11, 188409, Note_on_c, 7, 48, 0
11, 188520, Note_on_c, 7, 57, 48
11, 188529, Note_on_c, 7, 51, 0
11, 188639, Note_on_c, 7, 57, 0
11, 188820, Note_on_c, 7, 50, 46
11, 188880, Note_on_c, 7, 53, 45
11, 188889, Note_on_c, 7, 50, 0
11, 188940, Note_on_c, 7, 58, 45
11, 188949, Note_on_c, 7, 53, 0
11, 188999, Note_on_c, 7, 58, 0
11, 189180, Note_on_c, 7, 50, 42
11, 189240, Note_on_c, 7, 53, 41
11, 189249, Note_on_c, 7, 50, 0
11, 189300, Note_on_c, 7, 58, 41
11, 189309, Note_on_c, 7, 53, 0
11, 189359, Note_on_c, 7, 58, 0
11, 189540, Note_on_c, 7, 51, 38
11, 189600, Note_on_c, 7, 54, 37
11, 189609, Note_on_c, 7, 51, 0
11, 189660, Note_on_c, 7, 58, 37
11, 189669, Note_on_c, 7, 54, 0
11, 189719, Note_on_c, 7, 58, 0
11, 189900, Note_on_c, 7, 51, 34
11, 189960, Note_on_c, 7, 54, 33
11, 189969, Note_on_c, 7, 51, 0
11, 190020, Note_on_c, 7, 58, 33
11, 190029, Note_on_c, 7, 54, 0
11, 190079, Note_on_c, 7, 58, 0
11, 196560, Note_on_c, 7, 46, 96
11, 196619, Note_on_c, 7, 46, 0
11, 196620, Note_on_c, 7, 58, 96
11, 196679, Note_on_c, 7, 58, 0
11, 196680, Note_on_c, 7, 58, 96
11, 196739, Note_on_c, 7, 58, 0
11, 196740, Note_on_c, 7, 58, 96
11, 196799, Note_on_c, 7, 58, 0
11, 196800, Note_on_c, 7, 58, 96
11, 196859, Note_on_c, 7, 58, 0
11, 196860, Note_on_c, 7, 58, 96
11, 196919, Note_on_c, 7, 58, 0
11, 196920, Note_on_c, 7, 58, 127
11, 196979, Note_on_c, 7, 58, 0
11, 196980, Note_on_c, 7, 58, 127
11, 197039, Note_on_c, 7, 58, 0
11, 197040, Note_on_c, 7, 58, 127
11, 197099, Note_on_c, 7, 58, 0
11, 197100, Note_on_c, 7, 58, 127
11, 197159, Note_on_c, 7, 58, 0
11, 197160, Note_on_c, 7, 58, 127
11, 197219, Note_on_c, 7, 58, 0
11, 197220, Note_on_c, 7, 58, 127
11, 197279, Note_on_c, 7, 58, 0
11, 197280, Note_on_c, 7, 51, 127
11, 197309, Note_on_c, 7, 51, 0
11, 197310, Note_on_c, 7, 51, 56
11, 197520, Note_on_c, 7, 55, 56
11, 197529, Note_on_c, 7, 51, 0
11, 197640, Note_on_c, 7, 51, 56
11, 197649, Note_on_c, 7, 55, 0
11, 197880, Note_on_c, 7, 46, 56
11, 197889, Note_on_c, 7, 51, 0
11, 197999, Note_on_c, 7, 46, 0
11, 198000, Note_on_c, 7, 51, 56
11, 198120, Note_on_c, 7, 55, 56
11, 198129, Note_on_c, 7, 51, 0
11, 198240, Note_on_c, 7, 58, 56
11, 198249, Note_on_c, 7, 55, 0
11, 198360, Note_on_c, 7, 51, 56
11, 198369, Note_on_c, 7, 58, 0
11, 198600, Note_on_c, 7, 50, 56
11, 198609, Note_on_c, 7, 51, 0
11, 198719, Note_on_c, 7, 50, 0
11, 198720, Note_on_c, 7, 49, 64
11, 199439, Note_on_c, 7, 49, 0
11, 199440, Note_on_c, 7, 48, 96
11, 200159, Note_on_c, 7, 48, 0
11, 200160, Note_on_c, 7, 48, 56
11, 200639, Note_on_c, 7, 48, 0
11, 200640, Note_on_c, 7, 48, 56
11, 200759, Note_on_c, 7, 48, 0
11, 200760, Note_on_c, 7, 48, 56
11, 200879, Note_on_c, 7, 48, 0
11, 200880, Note_on_c, 7, 53, 48
11, 200999, Note_on_c, 7, 53, 0
11, 206100, Note_on_c, 7, 49, 56
11, 206159, Note_on_c, 7, 49, 0
11, 206160, Note_on_c, 7, 49, 58
11, 206219, Note_on_c, 7, 49, 0
11, 206220, Note_on_c, 7, 49, 60
11, 206279, Note_on_c, 7, 49, 0
11, 206280, Note_on_c, 7, 47, 56
11, 206339, Note_on_c, 7, 47, 0
11, 206340, Note_on_c, 7, 47, 52
11, 206399, Note_on_c, 7, 47, 0
11, 206400, Note_on_c, 7, 47, 48
11, 206459, Note_on_c, 7, 47, 0
11, 206460, Note_on_c, 7, 47, 44
11, 206519, Note_on_c, 7, 47, 0
11, 206520, Note_on_c, 7, 47, 40
11, 206579, Note_on_c, 7, 47, 0
11, 206580, Note_on_c, 7, 47, 36
11, 206639, Note_on_c, 7, 47, 0
11, 206640, Note_on_c, 7, 46, 32
11, 206880, Note_on_c, 7, 50, 32
11, 206889, Note_on_c, 7, 46, 0
11, 207000, Note_on_c, 7, 46, 32
11, 207009, Note_on_c, 7, 50, 0
11, 207240, Note_on_c, 7, 41, 32
11, 207249, Note_on_c, 7, 46, 0
11, 207359, Note_on_c, 7, 41, 0
11, 207360, Note_on_c, 7, 46, 32
11, 207389, Note_on_c, 7, 46, 0
11, 207420, Note_on_c, 7, 50, 34
11, 207449, Note_on_c, 7, 50, 0
11, 207480, Note_on_c, 7, 53, 36
11, 207509, Note_on_c, 7, 53, 0
11, 207540, Note_on_c, 7, 46, 38
11, 207569, Note_on_c, 7, 46, 0
11, 207600, Note_on_c, 7, 50, 40
11, 207629, Note_on_c, 7, 50, 0
11, 207660, Note_on_c, 7, 53, 42
11, 207689, Note_on_c, 7, 53, 0
11, 207720, Note_on_c, 7, 56, 45
11, 207749, Note_on_c, 7, 56, 0
11, 207780, Note_on_c, 7, 50, 47
11, 207809, Note_on_c, 7, 50, 0
11, 207840, Note_on_c, 7, 53, 49
11, 207869, Note_on_c, 7, 53, 0
11, 207900, Note_on_c, 7, 56, 51
11, 207929, Note_on_c, 7, 56, 0
11, 207960, Note_on_c, 7, 60, 53
11, 207989, Note_on_c, 7, 60, 0
11, 208020, Note_on_c, 7, 58, 55
11, 208049, Note_on_c, 7, 58, 0
11, 208080, Note_on_c, 7, 56, 58
11, 208109, Note_on_c, 7, 56, 0
11, 208140, Note_on_c, 7, 58, 60
11, 208169, Note_on_c, 7, 58, 0
11, 208200, Note_on_c, 7, 56, 62
11, 208229, Note_on_c, 7, 56, 0
11, 208260, Note_on_c, 7, 55, 64
11, 208289, Note_on_c, 7, 55, 0
11, 208320, Note_on_c, 7, 53, 66
11, 208349, Note_on_c, 7, 53, 0
11, 208380, Note_on_c, 7, 51, 68
11, 208409, Note_on_c, 7, 51, 0
11, 208440, Note_on_c, 7, 50, 72
11, 208469, Note_on_c, 7, 50, 0
11, 208500, Note_on_c, 7, 48, 76
11, 208529, Note_on_c, 7, 48, 0
11, 208560, Note_on_c, 7, 46, 80
11, 208589, Note_on_c, 7, 46, 0
11, 208620, Note_on_c, 7, 58, 84
11, 208649, Note_on_c, 7, 58, 0
11, 208680, Note_on_c, 7, 58, 88
11, 208709, Note_on_c, 7, 58, 0
11, 208740, Note_on_c, 7, 58, 92
11, 208769, Note_on_c, 7, 58, 0
11, 208800, Note_on_c, 7, 51, 96
11, 208859, Note_on_c, 7, 51, 0
11, 208860, Note_on_c, 7, 51, 96
11, 208919, Note_on_c, 7, 51, 0
11, 208920, Note_on_c, 7, 51, 96
11, 208979, Note_on_c, 7, 51, 0
11, 208980, Note_on_c, 7, 51, 96
11, 209039, Note_on_c, 7, 51, 0
11, 209040, Note_on_c, 7, 51, 96
11, 209099, Note_on_c, 7, 51, 0
11, 209100, Note_on_c, 7, 51, 96
11, 209159, Note_on_c, 7, 51, 0
11, 209160, Note_on_c, 7, 51, 96
11, 209219, Note_on_c, 7, 51, 0
11, 209220, Note_on_c, 7, 51, 96
11, 209279, Note_on_c, 7, 51, 0
11, 209280, Note_on_c, 7, 51, 96
11, 209339, Note_on_c, 7, 51, 0
11, 209340, Note_on_c, 7, 51, 96
11, 209399, Note_on_c, 7, 51, 0
11, 209400, Note_on_c, 7, 51, 96
11, 209459, Note_on_c, 7, 51, 0
11, 209460, Note_on_c, 7, 51, 96
11, 209519, Note_on_c, 7, 51, 0
11, 209520, Note_on_c, 7, 51, 96
11, 209579, Note_on_c, 7, 51, 0
11, 209580, Note_on_c, 7, 51, 96
11, 209639, Note_on_c, 7, 51, 0
11, 209640, Note_on_c, 7, 51, 96
11, 209699, Note_on_c, 7, 51, 0
11, 209700, Note_on_c, 7, 51, 96
11, 209759, Note_on_c, 7, 51, 0
11, 209760, Note_on_c, 7, 51, 96
11, 209819, Note_on_c, 7, 51, 0
11, 209820, Note_on_c, 7, 51, 96
11, 209879, Note_on_c, 7, 51, 0
11, 209880, Note_on_c, 7, 51, 96
11, 209939, Note_on_c, 7, 51, 0
11, 209940, Note_on_c, 7, 51, 96
11, 209999, Note_on_c, 7, 51, 0
11, 210000, Note_on_c, 7, 51, 96
11, 210059, Note_on_c, 7, 51, 0
11, 210060, Note_on_c, 7, 51, 96
11, 210119, Note_on_c, 7, 51, 0
11, 210120, Note_on_c, 7, 51, 112
11, 210179, Note_on_c, 7, 51, 0
11, 210180, Note_on_c, 7, 51, 96
11, 210239, Note_on_c, 7, 51, 0
11, 210240, Note_on_c, 7, 51, 96
11, 210299, Note_on_c, 7, 51, 0
11, 210300, Note_on_c, 7, 51, 96
11, 210359, Note_on_c, 7, 51, 0
11, 210360, Note_on_c, 7, 51, 96
11, 210419, Note_on_c, 7, 51, 0
11, 210420, Note_on_c, 7, 51, 96
11, 210479, Note_on_c, 7, 51, 0
11, 210480, Note_on_c, 7, 51, 96
11, 210539, Note_on_c, 7, 51, 0
11, 210540, Note_on_c, 7, 51, 96
11, 210599, Note_on_c, 7, 51, 0
11, 210600, Note_on_c, 7, 51, 96
11, 210659, Note_on_c, 7, 51, 0
11, 210660, Note_on_c, 7, 51, 96
11, 210719, Note_on_c, 7, 51, 0
11, 210720, Note_on_c, 7, 51, 96
11, 210779, Note_on_c, 7, 51, 0
11, 210780, Note_on_c, 7, 51, 96
11, 210839, Note_on_c, 7, 51, 0
11, 210840, Note_on_c, 7, 51, 112
11, 210899, Note_on_c, 7, 51, 0
11, 210900, Note_on_c, 7, 51, 96
11, 210959, Note_on_c, 7, 51, 0
11, 210960, Note_on_c, 7, 51, 112
11, 211019, Note_on_c, 7, 51, 0
11, 211020, Note_on_c, 7, 51, 112
11, 211079, Note_on_c, 7, 51, 0
11, 211080, Note_on_c, 7, 51, 112
11, 211139, Note_on_c, 7, 51, 0
11, 211140, Note_on_c, 7, 51, 112
11, 211199, Note_on_c, 7, 51, 0
11, 211200, Note_on_c, 7, 51, 112
11, 211259, Note_on_c, 7, 51, 0
11, 211260, Note_on_c, 7, 51, 112
11, 211319, Note_on_c, 7, 51, 0
11, 211320, Note_on_c, 7, 51, 112
11, 211379, Note_on_c, 7, 51, 0
11, 211380, Note_on_c, 7, 51, 112
11, 211439, Note_on_c, 7, 51, 0
11, 211440, Note_on_c, 7, 51, 112
11, 211499, Note_on_c, 7, 51, 0
11, 211500, Note_on_c, 7, 51, 112
11, 211559, Note_on_c, 7, 51, 0
11, 211560, Note_on_c, 7, 51, 112
11, 211619, Note_on_c, 7, 51, 0
11, 211620, Note_on_c, 7, 51, 112
11, 211679, Note_on_c, 7, 51, 0
11, 211680, Note_on_c, 7, 51, 112
11, 211739, Note_on_c, 7, 51, 0
11, 211740, Note_on_c, 7, 51, 112
11, 211799, Note_on_c, 7, 51, 0
11, 211800, Note_on_c, 7, 51, 112
11, 211859, Note_on_c, 7, 51, 0
11, 211860, Note_on_c, 7, 51, 112
11, 211919, Note_on_c, 7, 51, 0
11, 211920, Note_on_c, 7, 51, 112
11, 211979, Note_on_c, 7, 51, 0
11, 211980, Note_on_c, 7, 51, 112
11, 212039, Note_on_c, 7, 51, 0
11, 212040, Note_on_c, 7, 51, 112
11, 212099, Note_on_c, 7, 51, 0
11, 212100, Note_on_c, 7, 51, 112
11, 212159, Note_on_c, 7, 51, 0
11, 212160, Note_on_c, 7, 51, 112
11, 212219, Note_on_c, 7, 51, 0
11, 212220, Note_on_c, 7, 51, 112
11, 212279, Note_on_c, 7, 51, 0
11, 212280, Note_on_c, 7, 51, 112
11, 212339, Note_on_c, 7, 51, 0
11, 212340, Note_on_c, 7, 51, 112
11, 212399, Note_on_c, 7, 51, 0
11, 212400, Note_on_c, 7, 51, 127
11, 212459, Note_on_c, 7, 51, 0
11, 212460, Note_on_c, 7, 51, 127
11, 212519, Note_on_c, 7, 51, 0
11, 212520, Note_on_c, 7, 51, 127
11, 212579, Note_on_c, 7, 51, 0
11, 212580, Note_on_c, 7, 51, 127
11, 212639, Note_on_c, 7, 51, 0
11, 212640, Note_on_c, 7, 55, 127
11, 212699, Note_on_c, 7, 55, 0
11, 212700, Note_on_c, 7, 55, 127
11, 212759, Note_on_c, 7, 55, 0
11, 212760, Note_on_c, 7, 51, 127
11, 212819, Note_on_c, 7, 51, 0
11, 212820, Note_on_c, 7, 51, 127
11, 212879, Note_on_c, 7, 51, 0
11, 212880, Note_on_c, 7, 51, 127
11, 212939, Note_on_c, 7, 51, 0
11, 212940, Note_on_c, 7, 51, 127
11, 212999, Note_on_c, 7, 51, 0
11, 213000, Note_on_c, 7, 46, 127
11, 213059, Note_on_c, 7, 46, 0
11, 213060, Note_on_c, 7, 46, 127
11, 213119, Note_on_c, 7, 46, 0
11, 213120, Note_on_c, 7, 51, 127
11, 213179, Note_on_c, 7, 51, 0
11, 213180, Note_on_c, 7, 51, 127
11, 213239, Note_on_c, 7, 51, 0
11, 213240, Note_on_c, 7, 55, 127
11, 213299, Note_on_c, 7, 55, 0
11, 213300, Note_on_c, 7, 55, 127
11, 213359, Note_on_c, 7, 55, 0
11, 213360, Note_on_c, 7, 58, 127
11, 213419, Note_on_c, 7, 58, 0
11, 213420, Note_on_c, 7, 58, 127
11, 213479, Note_on_c, 7, 58, 0
11, 213480, Note_on_c, 7, 51, 127
11, 213539, Note_on_c, 7, 51, 0
11, 213540, Note_on_c, 7, 51, 127
11, 213599, Note_on_c, 7, 51, 0
11, 213600, Note_on_c, 7, 51, 127
11, 213659, Note_on_c, 7, 51, 0
11, 213660, Note_on_c, 7, 51, 127
11, 213719, Note_on_c, 7, 51, 0
11, 213720, Note_on_c, 7, 43, 127
11, 213779, Note_on_c, 7, 43, 0
11, 213780, Note_on_c, 7, 43, 127
11, 213839, Note_on_c, 7, 43, 0
11, 213840, Note_on_c, 7, 48, 127
11, 213899, Note_on_c, 7, 48, 0
11, 213900, Note_on_c, 7, 48, 127
11, 213959, Note_on_c, 7, 48, 0
11, 213960, Note_on_c, 7, 51, 127
11, 214019, Note_on_c, 7, 51, 0
11, 214020, Note_on_c, 7, 51, 127
11, 214079, Note_on_c, 7, 51, 0
11, 214080, Note_on_c, 7, 55, 127
11, 214139, Note_on_c, 7, 55, 0
11, 214140, Note_on_c, 7, 55, 127
11, 214199, Note_on_c, 7, 55, 0
11, 214200, Note_on_c, 7, 48, 127
11, 214259, Note_on_c, 7, 48, 0
11, 214260, Note_on_c, 7, 48, 127
11, 214319, Note_on_c, 7, 48, 0
11, 214320, Note_on_c, 7, 48, 127
11, 214379, Note_on_c, 7, 48, 0
11, 214380, Note_on_c, 7, 48, 127
11, 214439, Note_on_c, 7, 48, 0
11, 214440, Note_on_c, 7, 46, 127
11, 214499, Note_on_c, 7, 46, 0
11, 214500, Note_on_c, 7, 46, 127
11, 214559, Note_on_c, 7, 46, 0
11, 214560, Note_on_c, 7, 44, 127
11, 214619, Note_on_c, 7, 44, 0
11, 214620, Note_on_c, 7, 56, 127
11, 214679, Note_on_c, 7, 56, 0
11, 214680, Note_on_c, 7, 56, 127
11, 214739, Note_on_c, 7, 56, 0
11, 214740, Note_on_c, 7, 56, 127
11, 214799, Note_on_c, 7, 56, 0
11, 214800, Note_on_c, 7, 56, 127
11, 214859, Note_on_c, 7, 56, 0
11, 214860, Note_on_c, 7, 56, 127
11, 214919, Note_on_c, 7, 56, 0
11, 214920, Note_on_c, 7, 45, 127
11, 214979, Note_on_c, 7, 45, 0
11, 214980, Note_on_c, 7, 57, 127
11, 215039, Note_on_c, 7, 57, 0
11, 215040, Note_on_c, 7, 57, 127
11, 215099, Note_on_c, 7, 57, 0
11, 215100, Note_on_c, 7, 57, 127
11, 215159, Note_on_c, 7, 57, 0
11, 215160, Note_on_c, 7, 57, 127
11, 215219, Note_on_c, 7, 57, 0
11, 215220, Note_on_c, 7, 57, 127
11, 215279, Note_on_c, 7, 57, 0
11, 215280, Note_on_c, 7, 58, 127
11, 215399, Note_on_c, 7, 58, 0
11, 216000, Note_on_c, 7, 46, 48
11, 216059, Note_on_c, 7, 46, 0
11, 216120, Note_on_c, 7, 50, 48
11, 216179, Note_on_c, 7, 50, 0
11, 216240, Note_on_c, 7, 53, 48
11, 216299, Note_on_c, 7, 53, 0
11, 216360, Note_on_c, 7, 58, 48
11, 216419, Note_on_c, 7, 58, 0
11, 216480, Note_on_c, 7, 62, 48
11, 216539, Note_on_c, 7, 62, 0
11, 216600, Note_on_c, 7, 65, 48
11, 216659, Note_on_c, 7, 65, 0
11, 216720, Note_on_c, 7, 46, 48
11, 216839, Note_on_c, 7, 46, 0
11, 217440, Note_on_c, 7, 46, 48
11, 217499, Note_on_c, 7, 46, 0
11, 217560, Note_on_c, 7, 51, 48
11, 217619, Note_on_c, 7, 51, 0
11, 217680, Note_on_c, 7, 55, 48
11, 217739, Note_on_c, 7, 55, 0
11, 217800, Note_on_c, 7, 58, 48
11, 217859, Note_on_c, 7, 58, 0
11, 217920, Note_on_c, 7, 67, 48
11, 217979, Note_on_c, 7, 67, 0
11, 218040, Note_on_c, 7, 63, 48
11, 218099, Note_on_c, 7, 63, 0
11, 218160, Note_on_c, 7, 58, 48
11, 218219, Note_on_c, 7, 58, 0
11, 219000, Note_on_c, 7, 60, 127
11, 219179, Note_on_c, 7, 60, 0
11, 219180, Note_on_c, 7, 58, 127
11, 219209, Note_on_c, 7, 58, 0
11, 219240, Note_on_c, 7, 56, 127
11, 219299, Note_on_c, 7, 56, 0
11, 219360, Note_on_c, 7, 55, 127
11, 219419, Note_on_c, 7, 55, 0
11, 219480, Note_on_c, 7, 53, 127
11, 219539, Note_on_c, 7, 53, 0
11, 219600, Note_on_c, 7, 63, 48
11, 219840, Note_on_c, 7, 62, 54
11, 219849, Note_on_c, 7, 63, 0
11, 219900, Note_on_c, 7, 61, 56
11, 219909, Note_on_c, 7, 62, 0
11, 219960, Note_on_c, 7, 60, 56
11, 219969, Note_on_c, 7, 61, 0
11, 220080, Note_on_c, 7, 58, 53
11, 220089, Note_on_c, 7, 60, 0
11, 220200, Note_on_c, 7, 56, 50
11, 220209, Note_on_c, 7, 58, 0
11, 220319, Note_on_c, 7, 56, 0
11, 220320, Note_on_c, 7, 55, 48
11, 220349, Note_on_c, 7, 55, 0
11, 220380, Note_on_c, 7, 58, 48
11, 220409, Note_on_c, 7, 58, 0
11, 220440, Note_on_c, 7, 56, 48
11, 220469, Note_on_c, 7, 56, 0
11, 220500, Note_on_c, 7, 55, 48
11, 220529, Note_on_c, 7, 55, 0
11, 220560, Note_on_c, 7, 53, 48
11, 220589, Note_on_c, 7, 53, 0
11, 220620, Note_on_c, 7, 51, 48
11, 220649, Note_on_c, 7, 51, 0
11, 220680, Note_on_c, 7, 50, 48
11, 220709, Note_on_c, 7, 50, 0
11, 220740, Note_on_c, 7, 51, 48
11, 220769, Note_on_c, 7, 51, 0
11, 220800, Note_on_c, 7, 53, 48
11, 220829, Note_on_c, 7, 53, 0
11, 220860, Note_on_c, 7, 46, 48
11, 220889, Note_on_c, 7, 46, 0
11, 220920, Note_on_c, 7, 48, 48
11, 220949, Note_on_c, 7, 48, 0
11, 220980, Note_on_c, 7, 50, 48
11, 221009, Note_on_c, 7, 50, 0
11, 221040, Note_on_c, 7, 51, 48
11, 221069, Note_on_c, 7, 51, 0
11, 221100, Note_on_c, 7, 63, 50
11, 221129, Note_on_c, 7, 63, 0
11, 221160, Note_on_c, 7, 63, 52
11, 221189, Note_on_c, 7, 63, 0
11, 221220, Note_on_c, 7, 63, 54
11, 221280, Note_on_c, 7, 62, 56
11, 221289, Note_on_c, 7, 63, 0
11, 221340, Note_on_c, 7, 61, 58
11, 221349, Note_on_c, 7, 62, 0
11, 221399, Note_on_c, 7, 61, 0
11, 221400, Note_on_c, 7, 60, 60
11, 221460, Note_on_c, 7, 58, 62
11, 221469, Note_on_c, 7, 60, 0
11, 221519, Note_on_c, 7, 58, 0
11, 221520, Note_on_c, 7, 56, 64
11, 221549, Note_on_c, 7, 56, 0
11, 221580, Note_on_c, 7, 60, 66
11, 221609, Note_on_c, 7, 60, 0
11, 221640, Note_on_c, 7, 58, 68
11, 221669, Note_on_c, 7, 58, 0
11, 221700, Note_on_c, 7, 56, 70
11, 221729, Note_on_c, 7, 56, 0
11, 221760, Note_on_c, 7, 55, 72
11, 221789, Note_on_c, 7, 55, 0
11, 221820, Note_on_c, 7, 58, 74
11, 221849, Note_on_c, 7, 58, 0
11, 221880, Note_on_c, 7, 56, 76
11, 221909, Note_on_c, 7, 56, 0
11, 221940, Note_on_c, 7, 55, 78
11, 221969, Note_on_c, 7, 55, 0
11, 222000, Note_on_c, 7, 53, 80
11, 222029, Note_on_c, 7, 53, 0
11, 222060, Note_on_c, 7, 51, 82
11, 222089, Note_on_c, 7, 51, 0
11, 222120, Note_on_c, 7, 50, 84
11, 222149, Note_on_c, 7, 50, 0
11, 222180, Note_on_c, 7, 51, 86
11, 222209, Note_on_c, 7, 51, 0
11, 222240, Note_on_c, 7, 53, 88
11, 222269, Note_on_c, 7, 53, 0
11, 222300, Note_on_c, 7, 51, 90
11, 222329, Note_on_c, 7, 51, 0
11, 222360, Note_on_c, 7, 50, 92
11, 222389, Note_on_c, 7, 50, 0
11, 222420, Note_on_c, 7, 48, 94
11, 222449, Note_on_c, 7, 48, 0
11, 222480, Note_on_c, 7, 47, 96
11, 222539, Note_on_c, 7, 47, 0
11, 222600, Note_on_c, 7, 59, 96
11, 222659, Note_on_c, 7, 59, 0
11, 223140, Note_on_c, 7, 47, 96
11, 223199, Note_on_c, 7, 47, 0
11, 223200, Note_on_c, 7, 48, 96
11, 223259, Note_on_c, 7, 48, 0
11, 223320, Note_on_c, 7, 60, 96
11, 223379, Note_on_c, 7, 60, 0
11, 223860, Note_on_c, 7, 48, 96
11, 223919, Note_on_c, 7, 48, 0
11, 223920, Note_on_c, 7, 46, 96
11, 223979, Note_on_c, 7, 46, 0
11, 224040, Note_on_c, 7, 58, 96
11, 224099, Note_on_c, 7, 58, 0
11, 224580, Note_on_c, 7, 46, 96
11, 224609, Note_on_c, 7, 46, 0
11, 224640, Note_on_c, 7, 44, 96
11, 224669, Note_on_c, 7, 44, 0
11, 224700, Note_on_c, 7, 44, 96
11, 224819, Note_on_c, 7, 44, 0
11, 224820, Note_on_c, 7, 45, 96
11, 224849, Note_on_c, 7, 45, 0
11, 224880, Note_on_c, 7, 46, 96
11, 224909, Note_on_c, 7, 46, 0
11, 224940, Note_on_c, 7, 47, 96
11, 224969, Note_on_c, 7, 47, 0
11, 225000, Note_on_c, 7, 48, 96
11, 225029, Note_on_c, 7, 48, 0
11, 225060, Note_on_c, 7, 48, 96
11, 225179, Note_on_c, 7, 48, 0
11, 225180, Note_on_c, 7, 48, 96
11, 225209, Note_on_c, 7, 48, 0
11, 225240, Note_on_c, 7, 50, 96
11, 225269, Note_on_c, 7, 50, 0
11, 225300, Note_on_c, 7, 50, 96
11, 225329, Note_on_c, 7, 50, 0
11, 225360, Note_on_c, 7, 51, 96
11, 225389, Note_on_c, 7, 51, 0
11, 225420, Note_on_c, 7, 51, 96
11, 225449, Note_on_c, 7, 51, 0
11, 225480, Note_on_c, 7, 61, 96
11, 225509, Note_on_c, 7, 61, 0
11, 225540, Note_on_c, 7, 61, 96
11, 225569, Note_on_c, 7, 61, 0
11, 225600, Note_on_c, 7, 60, 96
11, 225629, Note_on_c, 7, 60, 0
11, 225660, Note_on_c, 7, 60, 96
11, 225689, Note_on_c, 7, 60, 0
11, 225720, Note_on_c, 7, 59, 96
11, 225749, Note_on_c, 7, 59, 0
11, 225780, Note_on_c, 7, 59, 96
11, 225809, Note_on_c, 7, 59, 0
11, 225840, Note_on_c, 7, 58, 96
11, 225869, Note_on_c, 7, 58, 0
11, 225900, Note_on_c, 7, 58, 96
11, 225929, Note_on_c, 7, 58, 0
11, 225960, Note_on_c, 7, 55, 96
11, 225989, Note_on_c, 7, 55, 0
11, 226020, Note_on_c, 7, 55, 96
11, 226049, Note_on_c, 7, 55, 0
11, 226080, Note_on_c, 7, 56, 96
11, 226139, Note_on_c, 7, 56, 0
11, 226140, Note_on_c, 7, 44, 96
11, 226199, Note_on_c, 7, 44, 0
11, 226200, Note_on_c, 7, 44, 96
11, 226259, Note_on_c, 7, 44, 0
11, 226260, Note_on_c, 7, 44, 96
11, 226319, Note_on_c, 7, 44, 0
11, 226320, Note_on_c, 7, 44, 96
11, 226379, Note_on_c, 7, 44, 0
11, 226380, Note_on_c, 7, 44, 96
11, 226439, Note_on_c, 7, 44, 0
11, 226440, Note_on_c, 7, 44, 96
11, 226499, Note_on_c, 7, 44, 0
11, 226500, Note_on_c, 7, 44, 96
11, 226559, Note_on_c, 7, 44, 0
11, 226560, Note_on_c, 7, 44, 96
11, 226619, Note_on_c, 7, 44, 0
11, 226620, Note_on_c, 7, 44, 96
11, 226679, Note_on_c, 7, 44, 0
11, 226680, Note_on_c, 7, 44, 96
11, 226739, Note_on_c, 7, 44, 0
11, 226740, Note_on_c, 7, 44, 96
11, 226799, Note_on_c, 7, 44, 0
11, 226800, Note_on_c, 7, 46, 96
11, 226859, Note_on_c, 7, 46, 0
11, 226860, Note_on_c, 7, 46, 96
11, 226919, Note_on_c, 7, 46, 0
11, 226920, Note_on_c, 7, 46, 96
11, 226979, Note_on_c, 7, 46, 0
11, 226980, Note_on_c, 7, 46, 96
11, 227039, Note_on_c, 7, 46, 0
11, 227040, Note_on_c, 7, 46, 96
11, 227099, Note_on_c, 7, 46, 0
11, 227100, Note_on_c, 7, 46, 96
11, 227159, Note_on_c, 7, 46, 0
11, 227160, Note_on_c, 7, 46, 96
11, 227219, Note_on_c, 7, 46, 0
11, 227220, Note_on_c, 7, 46, 96
11, 227279, Note_on_c, 7, 46, 0
11, 227280, Note_on_c, 7, 46, 96
11, 227339, Note_on_c, 7, 46, 0
11, 227340, Note_on_c, 7, 46, 96
11, 227399, Note_on_c, 7, 46, 0
11, 227400, Note_on_c, 7, 46, 96
11, 227459, Note_on_c, 7, 46, 0
11, 227460, Note_on_c, 7, 46, 96
11, 227519, Note_on_c, 7, 46, 0
11, 227520, Note_on_c, 7, 46, 96
11, 227639, Note_on_c, 7, 46, 0
11, 228240, Note_on_c, 7, 58, 127
11, 228269, Note_on_c, 7, 58, 0
11, 228300, Note_on_c, 7, 57, 127
11, 228329, Note_on_c, 7, 57, 0
11, 228360, Note_on_c, 7, 56, 127
11, 228389, Note_on_c, 7, 56, 0
11, 228420, Note_on_c, 7, 55, 127
11, 228449, Note_on_c, 7, 55, 0
11, 228480, Note_on_c, 7, 53, 127
11, 228509, Note_on_c, 7, 53, 0
11, 228540, Note_on_c, 7, 51, 127
11, 228569, Note_on_c, 7, 51, 0
11, 228600, Note_on_c, 7, 50, 127
11, 228629, Note_on_c, 7, 50, 0
11, 228660, Note_on_c, 7, 48, 127
11, 228689, Note_on_c, 7, 48, 0
11, 228720, Note_on_c, 7, 46, 127
11, 228749, Note_on_c, 7, 46, 0
11, 228780, Note_on_c, 7, 44, 127
11, 228809, Note_on_c, 7, 44, 0
11, 228840, Note_on_c, 7, 43, 127
11, 228869, Note_on_c, 7, 43, 0
11, 228900, Note_on_c, 7, 41, 127
11, 228929, Note_on_c, 7, 41, 0
11, 228960, Note_on_c, 7, 39, 127
11, 229079, Note_on_c, 7, 39, 0
11, 230520, Note_on_c, 7, 53, 48
11, 230609, Note_on_c, 7, 53, 0
11, 230640, Note_on_c, 7, 53, 48
11, 230729, Note_on_c, 7, 53, 0
11, 230760, Note_on_c, 7, 53, 48
11, 230849, Note_on_c, 7, 53, 0
11, 230880, Note_on_c, 7, 53, 60
11, 230969, Note_on_c, 7, 53, 0
11, 231000, Note_on_c, 7, 53, 72
11, 231089, Note_on_c, 7, 53, 0
11, 231120, Note_on_c, 7, 53, 84
11, 231239, Note_on_c, 7, 53, 0
11, 231240, Note_on_c, 7, 53, 96
11, 231479, Note_on_c, 7, 53, 0
11, 231480, Note_on_c, 7, 53, 96
11, 231780, Note_on_c, 7, 50, 56
11, 231789, Note_on_c, 7, 53, 0
11, 231840, Note_on_c, 7, 51, 48
11, 231849, Note_on_c, 7, 50, 0
11, 231959, Note_on_c, 7, 51, 0
11, 233400, Note_on_c, 7, 46, 48
11, 233520, Note_on_c, 7, 42, 48
11, 233529, Note_on_c, 7, 46, 0
11, 233640, Note_on_c, 7, 41, 56
11, 233649, Note_on_c, 7, 42, 0
11, 233880, Note_on_c, 7, 40, 48
11, 233889, Note_on_c, 7, 41, 0
11, 233999, Note_on_c, 7, 40, 0
11, 234840, Note_on_c, 7, 46, 32
11, 234899, Note_on_c, 7, 46, 0
11, 234960, Note_on_c, 7, 46, 32
11, 235019, Note_on_c, 7, 46, 0
11, 235200, Note_on_c, 7, 46, 32
11, 235259, Note_on_c, 7, 46, 0
11, 235320, Note_on_c, 7, 46, 32
11, 235379, Note_on_c, 7, 46, 0
11, 235560, Note_on_c, 7, 46, 32
11, 235619, Note_on_c, 7, 46, 0
11, 235680, Note_on_c, 7, 46, 32
11, 235739, Note_on_c, 7, 46, 0
11, 235800, Note_on_c, 7, 46, 32
11, 235859, Note_on_c, 7, 46, 0
11, 235920, Note_on_c, 7, 46, 32
11, 235979, Note_on_c, 7, 46, 0
11, 236040, Note_on_c, 7, 46, 32
11, 236099, Note_on_c, 7, 46, 0
11, 236160, Note_on_c, 7, 46, 32
11, 236219, Note_on_c, 7, 46, 0
11, 236220, Note_on_c, 7, 46, 32
11, 236279, Note_on_c, 7, 46, 0
11, 236280, Note_on_c, 7, 46, 32
11, 236339, Note_on_c, 7, 46, 0
11, 236340, Note_on_c, 7, 46, 32
11, 236399, Note_on_c, 7, 46, 0
11, 236400, Note_on_c, 7, 56, 32
11, 236429, Note_on_c, 7, 56, 0
11, 236460, Note_on_c, 7, 55, 32
11, 236489, Note_on_c, 7, 55, 0
11, 236520, Note_on_c, 7, 53, 32
11, 236549, Note_on_c, 7, 53, 0
11, 236580, Note_on_c, 7, 55, 32
11, 236609, Note_on_c, 7, 55, 0
11, 236640, Note_on_c, 7, 56, 32
11, 236669, Note_on_c, 7, 56, 0
11, 236700, Note_on_c, 7, 55, 32
11, 236729, Note_on_c, 7, 55, 0
11, 236760, Note_on_c, 7, 53, 32
11, 236789, Note_on_c, 7, 53, 0
11, 236820, Note_on_c, 7, 51, 32
11, 236849, Note_on_c, 7, 51, 0
11, 236880, Note_on_c, 7, 50, 35
11, 236909, Note_on_c, 7, 50, 0
11, 236940, Note_on_c, 7, 51, 38
11, 236969, Note_on_c, 7, 51, 0
11, 237000, Note_on_c, 7, 53, 41
11, 237029, Note_on_c, 7, 53, 0
11, 237060, Note_on_c, 7, 55, 43
11, 237089, Note_on_c, 7, 55, 0
11, 237120, Note_on_c, 7, 56, 46
11, 237149, Note_on_c, 7, 56, 0
11, 237180, Note_on_c, 7, 55, 48
11, 237209, Note_on_c, 7, 55, 0
11, 237240, Note_on_c, 7, 53, 51
11, 237269, Note_on_c, 7, 53, 0
11, 237300, Note_on_c, 7, 55, 54
11, 237329, Note_on_c, 7, 55, 0
11, 237360, Note_on_c, 7, 56, 57
11, 237389, Note_on_c, 7, 56, 0
11, 237420, Note_on_c, 7, 55, 59
11, 237449, Note_on_c, 7, 55, 0
11, 237480, Note_on_c, 7, 53, 62
11, 237509, Note_on_c, 7, 53, 0
11, 237540, Note_on_c, 7, 51, 64
11, 237569, Note_on_c, 7, 51, 0
11, 237600, Note_on_c, 7, 50, 67
11, 237629, Note_on_c, 7, 50, 0
11, 237660, Note_on_c, 7, 51, 70
11, 237689, Note_on_c, 7, 51, 0
11, 237720, Note_on_c, 7, 53, 73
11, 237749, Note_on_c, 7, 53, 0
11, 237780, Note_on_c, 7, 55, 75
11, 237809, Note_on_c, 7, 55, 0
11, 237840, Note_on_c, 7, 53, 78
11, 237869, Note_on_c, 7, 53, 0
11, 237900, Note_on_c, 7, 51, 80
11, 237929, Note_on_c, 7, 51, 0
11, 237960, Note_on_c, 7, 50, 82
11, 237989, Note_on_c, 7, 50, 0
11, 238020, Note_on_c, 7, 48, 84
11, 238049, Note_on_c, 7, 48, 0
11, 238080, Note_on_c, 7, 46, 87
11, 238109, Note_on_c, 7, 46, 0
11, 238140, Note_on_c, 7, 44, 89
11, 238169, Note_on_c, 7, 44, 0
11, 238200, Note_on_c, 7, 43, 92
11, 238229, Note_on_c, 7, 43, 0
11, 238260, Note_on_c, 7, 41, 94
11, 238289, Note_on_c, 7, 41, 0
11, 238320, Note_on_c, 7, 39, 96
11, 238379, Note_on_c, 7, 39, 0
11, 238380, Note_on_c, 7, 46, 96
11, 238439, Note_on_c, 7, 46, 0
11, 238440, Note_on_c, 7, 51, 96
11, 238499, Note_on_c, 7, 51, 0
11, 238500, Note_on_c, 7, 46, 96
11, 238559, Note_on_c, 7, 46, 0
11, 238560, Note_on_c, 7, 51, 96
11, 238619, Note_on_c, 7, 51, 0
11, 238620, Note_on_c, 7, 46, 96
11, 238679, Note_on_c, 7, 46, 0
11, 238740, Note_on_c, 7, 46, 96
11, 238799, Note_on_c, 7, 46, 0
11, 238800, Note_on_c, 7, 51, 96
11, 238859, Note_on_c, 7, 51, 0
11, 238860, Note_on_c, 7, 55, 96
11, 238919, Note_on_c, 7, 55, 0
11, 238920, Note_on_c, 7, 58, 96
11, 238979, Note_on_c, 7, 58, 0
11, 238980, Note_on_c, 7, 46, 96
11, 239039, Note_on_c, 7, 46, 0
11, 239100, Note_on_c, 7, 46, 96
11, 239159, Note_on_c, 7, 46, 0
11, 239160, Note_on_c, 7, 53, 96
11, 239219, Note_on_c, 7, 53, 0
11, 239220, Note_on_c, 7, 56, 96
11, 239279, Note_on_c, 7, 56, 0
11, 239280, Note_on_c, 7, 58, 96
11, 239339, Note_on_c, 7, 58, 0
11, 239340, Note_on_c, 7, 46, 96
11, 239399, Note_on_c, 7, 46, 0
11, 239460, Note_on_c, 7, 46, 96
11, 239519, Note_on_c, 7, 46, 0
11, 239520, Note_on_c, 7, 50, 96
11, 239579, Note_on_c, 7, 50, 0
11, 239580, Note_on_c, 7, 53, 96
11, 239639, Note_on_c, 7, 53, 0
11, 239640, Note_on_c, 7, 58, 96
11, 239699, Note_on_c, 7, 58, 0
11, 239700, Note_on_c, 7, 56, 96
11, 239759, Note_on_c, 7, 56, 0
11, 239760, Note_on_c, 7, 55, 127
11, 239819, Note_on_c, 7, 55, 0
11, 239820, Note_on_c, 7, 46, 127
11, 239879, Note_on_c, 7, 46, 0
11, 239880, Note_on_c, 7, 51, 127
11, 239939, Note_on_c, 7, 51, 0
11, 239940, Note_on_c, 7, 46, 127
11, 239999, Note_on_c, 7, 46, 0
11, 240000, Note_on_c, 7, 51, 127
11, 240059, Note_on_c, 7, 51, 0
11, 240060, Note_on_c, 7, 46, 127
11, 240119, Note_on_c, 7, 46, 0
11, 240120, Note_on_c, 7, 51, 127
11, 240179, Note_on_c, 7, 51, 0
11, 240180, Note_on_c, 7, 46, 127
11, 240239, Note_on_c, 7, 46, 0
11, 240240, Note_on_c, 7, 51, 127
11, 240299, Note_on_c, 7, 51, 0
11, 240300, Note_on_c, 7, 46, 127
11, 240359, Note_on_c, 7, 46, 0
11, 240360, Note_on_c, 7, 51, 127
11, 240419, Note_on_c, 7, 51, 0
11, 240420, Note_on_c, 7, 46, 127
11, 240479, Note_on_c, 7, 46, 0
11, 240480, Note_on_c, 7, 50, 127
11, 240539, Note_on_c, 7, 50, 0
11, 240540, Note_on_c, 7, 46, 127
11, 240599, Note_on_c, 7, 46, 0
11, 240600, Note_on_c, 7, 50, 127
11, 240659, Note_on_c, 7, 50, 0
11, 240660, Note_on_c, 7, 46, 127
11, 240719, Note_on_c, 7, 46, 0
11, 240720, Note_on_c, 7, 50, 127
11, 240779, Note_on_c, 7, 50, 0
11, 240780, Note_on_c, 7, 46, 127
11, 240839, Note_on_c, 7, 46, 0
11, 240840, Note_on_c, 7, 53, 127
11, 240899, Note_on_c, 7, 53, 0
11, 240900, Note_on_c, 7, 46, 127
11, 240959, Note_on_c, 7, 46, 0
11, 240960, Note_on_c, 7, 56, 127
11, 241019, Note_on_c, 7, 56, 0
11, 241020, Note_on_c, 7, 58, 127
11, 241079, Note_on_c, 7, 58, 0
11, 241080, Note_on_c, 7, 56, 127
11, 241139, Note_on_c, 7, 56, 0
11, 241140, Note_on_c, 7, 58, 127
11, 241199, Note_on_c, 7, 58, 0
11, 241200, Note_on_c, 7, 55, 127
11, 241500, Note_on_c, 7, 54, 127
11, 241509, Note_on_c, 7, 55, 0
11, 241560, Note_on_c, 7, 55, 127
11, 241569, Note_on_c, 7, 54, 0
11, 241619, Note_on_c, 7, 55, 0
11, 241620, Note_on_c, 7, 50, 127
11, 241649, Note_on_c, 7, 50, 0
11, 241680, Note_on_c, 7, 51, 127
11, 241709, Note_on_c, 7, 51, 0
11, 241740, Note_on_c, 7, 53, 127
11, 241769, Note_on_c, 7, 53, 0
11, 241800, Note_on_c, 7, 54, 127
11, 241829, Note_on_c, 7, 54, 0
11, 241860, Note_on_c, 7, 55, 127
11, 241889, Note_on_c, 7, 55, 0
11, 241920, Note_on_c, 7, 56, 127
11, 241949, Note_on_c, 7, 56, 0
11, 241980, Note_on_c, 7, 55, 127
11, 242009, Note_on_c, 7, 55, 0
11, 242040, Note_on_c, 7, 53, 127
11, 242069, Note_on_c, 7, 53, 0
11, 242100, Note_on_c, 7, 57, 127
11, 242129, Note_on_c, 7, 57, 0
11, 242160, Note_on_c, 7, 58, 127
11, 242189, Note_on_c, 7, 58, 0
11, 242220, Note_on_c, 7, 56, 127
11, 242249, Note_on_c, 7, 56, 0
11, 242280, Note_on_c, 7, 55, 127
11, 242309, Note_on_c, 7, 55, 0
11, 242340, Note_on_c, 7, 47, 127
11, 242369, Note_on_c, 7, 47, 0
11, 242400, Note_on_c, 7, 48, 127
11, 242429, Note_on_c, 7, 48, 0
11, 242460, Note_on_c, 7, 46, 127
11, 242489, Note_on_c, 7, 46, 0
11, 242520, Note_on_c, 7, 44, 127
11, 242549, Note_on_c, 7, 44, 0
11, 242580, Note_on_c, 7, 48, 127
11, 242609, Note_on_c, 7, 48, 0
11, 242640, Note_on_c, 7, 50, 127
11, 242669, Note_on_c, 7, 50, 0
11, 242700, Note_on_c, 7, 48, 127
11, 242729, Note_on_c, 7, 48, 0
11, 242760, Note_on_c, 7, 46, 127
11, 242789, Note_on_c, 7, 46, 0
11, 242820, Note_on_c, 7, 50, 127
11, 242849, Note_on_c, 7, 50, 0
11, 242880, Note_on_c, 7, 51, 127
11, 242909, Note_on_c, 7, 51, 0
11, 242940, Note_on_c, 7, 50, 127
11, 242969, Note_on_c, 7, 50, 0
11, 243000, Note_on_c, 7, 48, 127
11, 243029, Note_on_c, 7, 48, 0
11, 243060, Note_on_c, 7, 59, 127
11, 243089, Note_on_c, 7, 59, 0
11, 243120, Note_on_c, 7, 60, 127
11, 243149, Note_on_c, 7, 60, 0
11, 243180, Note_on_c, 7, 58, 127
11, 243209, Note_on_c, 7, 58, 0
11, 243240, Note_on_c, 7, 57, 127
11, 243269, Note_on_c, 7, 57, 0
11, 243300, Note_on_c, 7, 56, 127
11, 243329, Note_on_c, 7, 56, 0
11, 243360, Note_on_c, 7, 55, 127
11, 243419, Note_on_c, 7, 55, 0
11, 243480, Note_on_c, 7, 59, 127
11, 243539, Note_on_c, 7, 59, 0
11, 243600, Note_on_c, 7, 60, 127
11, 243659, Note_on_c, 7, 60, 0
11, 243840, Note_on_c, 7, 55, 127
11, 243899, Note_on_c, 7, 55, 0
11, 243960, Note_on_c, 7, 56, 127
11, 244019, Note_on_c, 7, 56, 0
11, 244200, Note_on_c, 7, 57, 127
11, 244259, Note_on_c, 7, 57, 0
11, 244320, Note_on_c, 7, 58, 127
11, 244379, Note_on_c, 7, 58, 0
11, 244560, Note_on_c, 7, 59, 127
11, 244619, Note_on_c, 7, 59, 0
11, 244680, Note_on_c, 7, 60, 127
11, 244739, Note_on_c, 7, 60, 0
11, 244920, Note_on_c, 7, 55, 127
11, 244979, Note_on_c, 7, 55, 0
11, 245040, Note_on_c, 7, 56, 127
11, 245099, Note_on_c, 7, 56, 0
11, 245280, Note_on_c, 7, 57, 127
11, 245339, Note_on_c, 7, 57, 0
11, 245520, Note_on_c, 7, 45, 127
11, 245579, Note_on_c, 7, 45, 0
11, 245760, Note_on_c, 7, 45, 127
11, 245819, Note_on_c, 7, 45, 0
11, 246000, Note_on_c, 7, 45, 127
11, 246059, Note_on_c, 7, 45, 0
11, 246240, Note_on_c, 7, 45, 127
11, 246299, Note_on_c, 7, 45, 0
11, 246480, Note_on_c, 7, 45, 127
11, 246539, Note_on_c, 7, 45, 0
11, 246960, Note_on_c, 7, 47, 96
11, 246989, Note_on_c, 7, 47, 0
11, 246990, Note_on_c, 7, 47, 48
11, 247319, Note_on_c, 7, 47, 0
11, 247320, Note_on_c, 7, 46, 48
11, 247679, Note_on_c, 7, 46, 0
11, 247680, Note_on_c, 7, 48, 96
11, 247709, Note_on_c, 7, 48, 0
11, 247710, Note_on_c, 7, 48, 48
11, 248159, Note_on_c, 7, 48, 0
11, 248220, Note_on_c, 7, 36, 48
11, 248249, Note_on_c, 7, 36, 0
11, 248280, Note_on_c, 7, 39, 48
11, 248309, Note_on_c, 7, 39, 0
11, 248340, Note_on_c, 7, 44, 48
11, 248369, Note_on_c, 7, 44, 0
11, 248400, Note_on_c, 7, 37, 48
11, 248519, Note_on_c, 7, 37, 0
11, 248580, Note_on_c, 7, 37, 48
11, 248609, Note_on_c, 7, 37, 0
11, 248640, Note_on_c, 7, 41, 48
11, 248669, Note_on_c, 7, 41, 0
11, 248700, Note_on_c, 7, 44, 48
11, 248729, Note_on_c, 7, 44, 0
11, 248760, Note_on_c, 7, 38, 48
11, 248879, Note_on_c, 7, 38, 0
11, 248940, Note_on_c, 7, 38, 48
11, 248969, Note_on_c, 7, 38, 0
11, 249000, Note_on_c, 7, 41, 48
11, 249029, Note_on_c, 7, 41, 0
11, 249060, Note_on_c, 7, 46, 48
11, 249089, Note_on_c, 7, 46, 0
11, 249120, Note_on_c, 7, 39, 48
11, 249239, Note_on_c, 7, 39, 0
11, 249300, Note_on_c, 7, 51, 48
11, 249359, Note_on_c, 7, 51, 0
11, 249360, Note_on_c, 7, 51, 48
11, 249419, Note_on_c, 7, 51, 0
11, 249420, Note_on_c, 7, 51, 48
11, 249479, Note_on_c, 7, 51, 0
11, 249480, Note_on_c, 7, 56, 52
11, 249539, Note_on_c, 7, 56, 0
11, 249540, Note_on_c, 7, 56, 56
11, 249599, Note_on_c, 7, 56, 0
11, 249600, Note_on_c, 7, 56, 60
11, 249659, Note_on_c, 7, 56, 0
11, 249660, Note_on_c, 7, 56, 64
11, 249719, Note_on_c, 7, 56, 0
11, 249720, Note_on_c, 7, 56, 68
11, 249779, Note_on_c, 7, 56, 0
11, 249780, Note_on_c, 7, 56, 72
11, 249839, Note_on_c, 7, 56, 0
11, 249840, Note_on_c, 7, 53, 77
11, 249899, Note_on_c, 7, 53, 0
11, 249900, Note_on_c, 7, 53, 82
11, 249959, Note_on_c, 7, 53, 0
11, 249960, Note_on_c, 7, 53, 87
11, 250019, Note_on_c, 7, 53, 0
11, 250020, Note_on_c, 7, 53, 92
11, 250080, Note_on_c, 7, 55, 97
11, 250089, Note_on_c, 7, 53, 0
11, 250140, Note_on_c, 7, 56, 102
11, 250149, Note_on_c, 7, 55, 0
11, 250199, Note_on_c, 7, 56, 0
11, 250200, Note_on_c, 7, 58, 107
11, 250229, Note_on_c, 7, 58, 0
11, 250260, Note_on_c, 7, 55, 112
11, 250289, Note_on_c, 7, 55, 0
11, 250320, Note_on_c, 7, 51, 117
11, 250349, Note_on_c, 7, 51, 0
11, 250380, Note_on_c, 7, 58, 122
11, 250409, Note_on_c, 7, 58, 0
11, 250440, Note_on_c, 7, 55, 124
11, 250469, Note_on_c, 7, 55, 0
11, 250500, Note_on_c, 7, 51, 126
11, 250529, Note_on_c, 7, 51, 0
11, 250560, Note_on_c, 7, 46, 127
11, 250619, Note_on_c, 7, 46, 0
11, 250620, Note_on_c, 7, 46, 127
11, 250679, Note_on_c, 7, 46, 0
11, 250680, Note_on_c, 7, 46, 127
11, 250739, Note_on_c, 7, 46, 0
11, 250740, Note_on_c, 7, 46, 127
11, 250799, Note_on_c, 7, 46, 0
11, 250800, Note_on_c, 7, 46, 127
11, 250859, Note_on_c, 7, 46, 0
11, 250860, Note_on_c, 7, 46, 127
11, 250919, Note_on_c, 7, 46, 0
11, 250920, Note_on_c, 7, 51, 96
11, 251039, Note_on_c, 7, 51, 0
11, 251280, Note_on_c, 7, 51, 96
11, 251399, Note_on_c, 7, 51, 0
11, 251640, Note_on_c, 7, 51, 96
11, 251759, Note_on_c, 7, 51, 0
11, 252000, Note_on_c, 7, 51, 96
11, 252059, Note_on_c, 7, 51, 0
11, 252120, Note_on_c, 7, 51, 96
11, 252179, Note_on_c, 7, 51, 0
11, 252240, Note_on_c, 7, 51, 96
11, 252299, Note_on_c, 7, 51, 0
11, 252360, Note_on_c, 7, 51, 96
11, 252389, Note_on_c, 7, 51, 0
11, 252390, Note_on_c, 7, 51, 48
11, 254519, Note_on_c, 7, 51, 0
11, 254520, Note_on_c, 7, 44, 96
11, 254520, Note_on_c, 7, 37, 96
11, 255239, Note_on_c, 7, 37, 0
11, 255239, Note_on_c, 7, 44, 0
11, 255240, Note_on_c, 7, 49, 48
11, 255959, Note_on_c, 7, 49, 0
11, 255960, Note_on_c, 7, 36, 127
11, 255960, Note_on_c, 7, 43, 127
11, 255989, Note_on_c, 7, 43, 0
11, 255989, Note_on_c, 7, 36, 0
11, 255990, Note_on_c, 7, 36, 127
11, 255990, Note_on_c, 7, 43, 127
11, 256019, Note_on_c, 7, 43, 0
11, 256019, Note_on_c, 7, 36, 0
11, 256020, Note_on_c, 7, 36, 127
11, 256020, Note_on_c, 7, 43, 127
11, 256049, Note_on_c, 7, 43, 0
11, 256049, Note_on_c, 7, 36, 0
11, 256050, Note_on_c, 7, 36, 127
11, 256050, Note_on_c, 7, 43, 127
11, 256079, Note_on_c, 7, 43, 0
11, 256079, Note_on_c, 7, 36, 0
11, 256080, Note_on_c, 7, 36, 127
11, 256080, Note_on_c, 7, 43, 127
11, 256109, Note_on_c, 7, 43, 0
11, 256109, Note_on_c, 7, 36, 0
11, 256110, Note_on_c, 7, 36, 127
11, 256110, Note_on_c, 7, 43, 127
11, 256139, Note_on_c, 7, 43, 0
11, 256139, Note_on_c, 7, 36, 0
11, 256140, Note_on_c, 7, 36, 127
11, 256140, Note_on_c, 7, 43, 127
11, 256169, Note_on_c, 7, 43, 0
11, 256169, Note_on_c, 7, 36, 0
11, 256170, Note_on_c, 7, 36, 127
11, 256170, Note_on_c, 7, 43, 127
11, 256199, Note_on_c, 7, 43, 0
11, 256199, Note_on_c, 7, 36, 0
11, 256200, Note_on_c, 7, 36, 127
11, 256200, Note_on_c, 7, 43, 127
11, 256229, Note_on_c, 7, 43, 0
11, 256229, Note_on_c, 7, 36, 0
11, 256230, Note_on_c, 7, 36, 127
11, 256230, Note_on_c, 7, 43, 127
11, 256259, Note_on_c, 7, 43, 0
11, 256259, Note_on_c, 7, 36, 0
11, 256260, Note_on_c, 7, 36, 127
11, 256260, Note_on_c, 7, 43, 127
11, 256289, Note_on_c, 7, 43, 0
11, 256289, Note_on_c, 7, 36, 0
11, 256290, Note_on_c, 7, 36, 127
11, 256290, Note_on_c, 7, 43, 127
11, 256319, Note_on_c, 7, 43, 0
11, 256319, Note_on_c, 7, 36, 0
11, 256320, Note_on_c, 7, 36, 127
11, 256320, Note_on_c, 7, 43, 127
11, 256349, Note_on_c, 7, 43, 0
11, 256349, Note_on_c, 7, 36, 0
11, 256350, Note_on_c, 7, 36, 127
11, 256350, Note_on_c, 7, 43, 127
11, 256379, Note_on_c, 7, 43, 0
11, 256379, Note_on_c, 7, 36, 0
11, 256380, Note_on_c, 7, 36, 127
11, 256380, Note_on_c, 7, 43, 127
11, 256409, Note_on_c, 7, 43, 0
11, 256409, Note_on_c, 7, 36, 0
11, 256410, Note_on_c, 7, 36, 127
11, 256410, Note_on_c, 7, 43, 127
11, 256439, Note_on_c, 7, 43, 0
11, 256439, Note_on_c, 7, 36, 0
11, 256440, Note_on_c, 7, 36, 127
11, 256440, Note_on_c, 7, 43, 127
11, 256469, Note_on_c, 7, 43, 0
11, 256469, Note_on_c, 7, 36, 0
11, 256470, Note_on_c, 7, 36, 127
11, 256470, Note_on_c, 7, 43, 127
11, 256499, Note_on_c, 7, 43, 0
11, 256499, Note_on_c, 7, 36, 0
11, 256500, Note_on_c, 7, 36, 127
11, 256500, Note_on_c, 7, 43, 127
11, 256529, Note_on_c, 7, 43, 0
11, 256529, Note_on_c, 7, 36, 0
11, 256530, Note_on_c, 7, 36, 127
11, 256530, Note_on_c, 7, 43, 127
11, 256559, Note_on_c, 7, 43, 0
11, 256559, Note_on_c, 7, 36, 0
11, 256560, Note_on_c, 7, 36, 127
11, 256560, Note_on_c, 7, 43, 127
11, 256589, Note_on_c, 7, 43, 0
11, 256589, Note_on_c, 7, 36, 0
11, 256590, Note_on_c, 7, 36, 127
11, 256590, Note_on_c, 7, 43, 127
11, 256619, Note_on_c, 7, 43, 0
11, 256619, Note_on_c, 7, 36, 0
11, 256620, Note_on_c, 7, 36, 127
11, 256620, Note_on_c, 7, 43, 127
11, 256649, Note_on_c, 7, 43, 0
11, 256649, Note_on_c, 7, 36, 0
11, 256650, Note_on_c, 7, 36, 127
11, 256650, Note_on_c, 7, 43, 127
11, 256679, Note_on_c, 7, 43, 0
11, 256679, Note_on_c, 7, 36, 0
11, 256680, Note_on_c, 7, 48, 48
11, 258839, Note_on_c, 7, 48, 0
11, 258840, Note_on_c, 7, 47, 32
11, 260279, Note_on_c, 7, 47, 0
11, 260280, Note_on_c, 7, 46, 32
11, 260640, Note_on_c, 7, 58, 32
11, 260649, Note_on_c, 7, 46, 0
11, 260999, Note_on_c, 7, 58, 0
11, 261000, Note_on_c, 7, 56, 32
11, 261719, Note_on_c, 7, 56, 0
11, 261720, Note_on_c, 7, 52, 32
11, 261839, Note_on_c, 7, 52, 0
11, 265440, Note_on_c, 7, 46, 48
11, 265560, Note_on_c, 7, 48, 64
11, 265569, Note_on_c, 7, 46, 0
11, 265680, Note_on_c, 7, 50, 96
11, 265689, Note_on_c, 7, 48, 0
11, 265860, Note_on_c, 7, 48, 64
11, 265869, Note_on_c, 7, 50, 0
11, 265920, Note_on_c, 7, 46, 48
11, 265929, Note_on_c, 7, 48, 0
11, 266039, Note_on_c, 7, 46, 0
11, 266040, Note_on_c, 7, 51, 48
11, 266159, Note_on_c, 7, 51, 0
11, 266160, Note_on_c, 7, 63, 48
11, 266280, Note_on_c, 7, 65, 48
11, 266289, Note_on_c, 7, 63, 0
11, 266400, Note_on_c, 7, 66, 64
11, 266409, Note_on_c, 7, 65, 0
11, 266580, Note_on_c, 7, 65, 48
11, 266589, Note_on_c, 7, 66, 0
11, 266640, Note_on_c, 7, 63, 48
11, 266649, Note_on_c, 7, 65, 0
11, 266759, Note_on_c, 7, 63, 0
11, 266760, Note_on_c, 7, 62, 48
11, 266880, Note_on_c, 7, 61, 48
11, 266889, Note_on_c, 7, 62, 0
11, 267000, Note_on_c, 7, 60, 48
11, 267009, Note_on_c, 7, 61, 0
11, 267120, Note_on_c, 7, 58, 64
11, 267129, Note_on_c, 7, 60, 0
11, 267360, Note_on_c, 7, 60, 48
11, 267369, Note_on_c, 7, 58, 0
11, 267420, Note_on_c, 7, 62, 48
11, 267429, Note_on_c, 7, 60, 0
11, 267479, Note_on_c, 7, 62, 0
11, 267480, Note_on_c, 7, 63, 48
11, 267599, Note_on_c, 7, 63, 0
11, 267600, Note_on_c, 7, 63, 48
11, 267720, Note_on_c, 7, 65, 48
11, 267729, Note_on_c, 7, 63, 0
11, 267840, Note_on_c, 7, 66, 64
11, 267849, Note_on_c, 7, 65, 0
11, 268020, Note_on_c, 7, 65, 48
11, 268029, Note_on_c, 7, 66, 0
11, 268080, Note_on_c, 7, 63, 48
11, 268089, Note_on_c, 7, 65, 0
11, 268199, Note_on_c, 7, 63, 0
11, 268200, Note_on_c, 7, 62, 32
11, 268560, Note_on_c, 7, 61, 32
11, 268569, Note_on_c, 7, 62, 0
11, 268920, Note_on_c, 7, 60, 32
11, 268929, Note_on_c, 7, 61, 0
11, 269280, Note_on_c, 7, 59, 32
11, 269289, Note_on_c, 7, 60, 0
11, 269640, Note_on_c, 7, 58, 32
11, 269649, Note_on_c, 7, 59, 0
11, 269999, Note_on_c, 7, 58, 0
11, 270000, Note_on_c, 7, 58, 32
11, 270360, Note_on_c, 7, 57, 32
11, 270369, Note_on_c, 7, 58, 0
11, 270720, Note_on_c, 7, 56, 32
11, 270729, Note_on_c, 7, 57, 0
11, 271080, Note_on_c, 7, 56, 32
11, 271089, Note_on_c, 7, 56, 0
11, 271199, Note_on_c, 7, 56, 0
11, 271200, Note_on_c, 7, 50, 32
11, 271259, Note_on_c, 7, 50, 0
11, 271320, Note_on_c, 7, 46, 32
11, 271379, Note_on_c, 7, 46, 0
11, 271440, Note_on_c, 7, 53, 32
11, 271499, Note_on_c, 7, 53, 0
11, 271560, Note_on_c, 7, 46, 32
11, 271619, Note_on_c, 7, 46, 0
11, 271680, Note_on_c, 7, 58, 32
11, 271739, Note_on_c, 7, 58, 0
11, 271800, Note_on_c, 7, 46, 32
11, 271859, Note_on_c, 7, 46, 0
11, 271920, Note_on_c, 7, 62, 32
11, 271979, Note_on_c, 7, 62, 0
11, 272040, Note_on_c, 7, 46, 32
11, 272099, Note_on_c, 7, 46, 0
11, 272160, Note_on_c, 7, 65, 96
11, 272189, Note_on_c, 7, 65, 0
11, 272190, Note_on_c, 7, 65, 32
11, 272519, Note_on_c, 7, 65, 0
11, 272520, Note_on_c, 7, 46, 32
11, 272579, Note_on_c, 7, 46, 0
11, 272640, Note_on_c, 7, 51, 32
11, 272699, Note_on_c, 7, 51, 0
11, 272760, Note_on_c, 7, 46, 32
11, 272819, Note_on_c, 7, 46, 0
11, 272880, Note_on_c, 7, 54, 32
11, 272939, Note_on_c, 7, 54, 0
11, 273000, Note_on_c, 7, 46, 32
11, 273059, Note_on_c, 7, 46, 0
11, 273120, Note_on_c, 7, 58, 32
11, 273179, Note_on_c, 7, 58, 0
11, 273240, Note_on_c, 7, 46, 32
11, 273299, Note_on_c, 7, 46, 0
11, 273360, Note_on_c, 7, 51, 32
11, 273419, Note_on_c, 7, 51, 0
11, 273480, Note_on_c, 7, 46, 32
11, 273539, Note_on_c, 7, 46, 0
11, 273600, Note_on_c, 7, 54, 96
11, 273629, Note_on_c, 7, 54, 0
11, 273630, Note_on_c, 7, 54, 32
11, 274079, Note_on_c, 7, 54, 0
11, 274080, Note_on_c, 7, 53, 32
11, 274139, Note_on_c, 7, 53, 0
11, 274200, Note_on_c, 7, 46, 32
11, 274259, Note_on_c, 7, 46, 0
11, 274320, Note_on_c, 7, 56, 96
11, 274349, Note_on_c, 7, 56, 0
11, 274350, Note_on_c, 7, 56, 32
11, 274799, Note_on_c, 7, 56, 0
11, 274800, Note_on_c, 7, 55, 32
11, 274859, Note_on_c, 7, 55, 0
11, 274920, Note_on_c, 7, 46, 32
11, 274979, Note_on_c, 7, 46, 0
11, 275040, Note_on_c, 7, 58, 96
11, 275069, Note_on_c, 7, 58, 0
11, 275070, Note_on_c, 7, 58, 32
11, 275519, Note_on_c, 7, 58, 0
11, 275520, Note_on_c, 7, 57, 32
11, 275579, Note_on_c, 7, 57, 0
11, 275640, Note_on_c, 7, 46, 34
11, 275699, Note_on_c, 7, 46, 0
11, 275760, Note_on_c, 7, 57, 35
11, 275819, Note_on_c, 7, 57, 0
11, 275880, Note_on_c, 7, 46, 36
11, 275939, Note_on_c, 7, 46, 0
11, 276000, Note_on_c, 7, 57, 37
11, 276059, Note_on_c, 7, 57, 0
11, 276120, Note_on_c, 7, 46, 40
11, 276179, Note_on_c, 7, 46, 0
11, 276240, Note_on_c, 7, 57, 41
11, 276299, Note_on_c, 7, 57, 0
11, 276360, Note_on_c, 7, 46, 42
11, 276419, Note_on_c, 7, 46, 0
11, 276480, Note_on_c, 7, 57, 43
11, 276539, Note_on_c, 7, 57, 0
11, 276600, Note_on_c, 7, 46, 45
11, 276659, Note_on_c, 7, 46, 0
11, 276720, Note_on_c, 7, 57, 47
11, 276779, Note_on_c, 7, 57, 0
11, 276840, Note_on_c, 7, 46, 48
11, 276899, Note_on_c, 7, 46, 0
11, 276960, Note_on_c, 7, 58, 52
11, 277019, Note_on_c, 7, 58, 0
11, 277080, Note_on_c, 7, 46, 56
11, 277139, Note_on_c, 7, 46, 0
11, 277200, Note_on_c, 7, 58, 60
11, 277259, Note_on_c, 7, 58, 0
11, 277320, Note_on_c, 7, 46, 64
11, 277379, Note_on_c, 7, 46, 0
11, 277440, Note_on_c, 7, 58, 68
11, 277499, Note_on_c, 7, 58, 0
11, 277560, Note_on_c, 7, 47, 64
11, 277619, Note_on_c, 7, 47, 0
11, 277680, Note_on_c, 7, 59, 60
11, 277739, Note_on_c, 7, 59, 0
11, 277800, Note_on_c, 7, 47, 56
11, 277859, Note_on_c, 7, 47, 0
11, 277920, Note_on_c, 7, 59, 52
11, 277979, Note_on_c, 7, 59, 0
11, 278040, Note_on_c, 7, 47, 48
11, 278099, Note_on_c, 7, 47, 0
11, 278160, Note_on_c, 7, 59, 48
11, 278219, Note_on_c, 7, 59, 0
11, 278280, Note_on_c, 7, 48, 48
11, 278339, Note_on_c, 7, 48, 0
11, 278400, Note_on_c, 7, 60, 48
11, 278459, Note_on_c, 7, 60, 0
11, 278520, Note_on_c, 7, 48, 48
11, 278579, Note_on_c, 7, 48, 0
11, 278640, Note_on_c, 7, 60, 48
11, 278699, Note_on_c, 7, 60, 0
11, 278760, Note_on_c, 7, 48, 48
11, 278819, Note_on_c, 7, 48, 0
11, 278880, Note_on_c, 7, 60, 48
11, 278939, Note_on_c, 7, 60, 0
11, 279000, Note_on_c, 7, 44, 48
11, 279059, Note_on_c, 7, 44, 0
11, 279120, Note_on_c, 7, 56, 48
11, 279179, Note_on_c, 7, 56, 0
11, 279240, Note_on_c, 7, 44, 48
11, 279299, Note_on_c, 7, 44, 0
11, 279360, Note_on_c, 7, 56, 48
11, 279419, Note_on_c, 7, 56, 0
11, 279480, Note_on_c, 7, 44, 48
11, 279539, Note_on_c, 7, 44, 0
11, 279600, Note_on_c, 7, 56, 48
11, 279659, Note_on_c, 7, 56, 0
11, 279720, Note_on_c, 7, 46, 48
11, 279779, Note_on_c, 7, 46, 0
11, 279840, Note_on_c, 7, 58, 50
11, 279899, Note_on_c, 7, 58, 0
11, 279960, Note_on_c, 7, 46, 52
11, 280019, Note_on_c, 7, 46, 0
11, 280080, Note_on_c, 7, 58, 54
11, 280139, Note_on_c, 7, 58, 0
11, 280200, Note_on_c, 7, 46, 56
11, 280259, Note_on_c, 7, 46, 0
11, 280320, Note_on_c, 7, 58, 58
11, 280379, Note_on_c, 7, 58, 0
11, 280440, Note_on_c, 7, 46, 60
11, 280499, Note_on_c, 7, 46, 0
11, 280560, Note_on_c, 7, 58, 62
11, 280619, Note_on_c, 7, 58, 0
11, 280680, Note_on_c, 7, 46, 64
11, 280739, Note_on_c, 7, 46, 0
11, 280800, Note_on_c, 7, 58, 48
11, 280859, Note_on_c, 7, 58, 0
11, 280920, Note_on_c, 7, 46, 48
11, 280979, Note_on_c, 7, 46, 0
11, 281040, Note_on_c, 7, 58, 48
11, 281099, Note_on_c, 7, 58, 0
11, 281160, Note_on_c, 7, 51, 48
11, 281219, Note_on_c, 7, 51, 0
11, 281880, Note_on_c, 7, 51, 48
11, 281939, Note_on_c, 7, 51, 0
11, 282600, Note_on_c, 7, 50, 48
11, 282659, Note_on_c, 7, 50, 0
11, 283320, Note_on_c, 7, 46, 48
11, 283379, Note_on_c, 7, 46, 0
11, 283800, Note_on_c, 7, 46, 48
11, 283859, Note_on_c, 7, 46, 0
11, 283920, Note_on_c, 7, 46, 48
11, 283979, Note_on_c, 7, 46, 0
11, 284040, Note_on_c, 7, 51, 48
11, 284100, Note_on_c, 7, 46, 48
11, 284109, Note_on_c, 7, 51, 0
11, 284160, Note_on_c, 7, 51, 48
11, 284169, Note_on_c, 7, 46, 0
11, 284220, Note_on_c, 7, 46, 48
11, 284229, Note_on_c, 7, 51, 0
11, 284280, Note_on_c, 7, 43, 48
11, 284289, Note_on_c, 7, 46, 0
11, 284340, Note_on_c, 7, 46, 48
11, 284349, Note_on_c, 7, 43, 0
11, 284399, Note_on_c, 7, 46, 0
11, 284400, Note_on_c, 7, 43, 48
11, 284460, Note_on_c, 7, 46, 48
11, 284469, Note_on_c, 7, 43, 0
11, 284520, Note_on_c, 7, 51, 48
11, 284529, Note_on_c, 7, 46, 0
11, 284580, Note_on_c, 7, 46, 48
11, 284589, Note_on_c, 7, 51, 0
11, 284640, Note_on_c, 7, 43, 48
11, 284649, Note_on_c, 7, 46, 0
11, 284700, Note_on_c, 7, 46, 48
11, 284709, Note_on_c, 7, 43, 0
11, 284759, Note_on_c, 7, 46, 0
11, 284760, Note_on_c, 7, 43, 48
11, 284820, Note_on_c, 7, 46, 48
11, 284829, Note_on_c, 7, 43, 0
11, 284880, Note_on_c, 7, 51, 48
11, 284889, Note_on_c, 7, 46, 0
11, 284940, Note_on_c, 7, 46, 48
11, 284949, Note_on_c, 7, 51, 0
11, 285000, Note_on_c, 7, 43, 48
11, 285009, Note_on_c, 7, 46, 0
11, 285060, Note_on_c, 7, 46, 48
11, 285069, Note_on_c, 7, 43, 0
11, 285119, Note_on_c, 7, 46, 0
11, 285120, Note_on_c, 7, 43, 48
11, 285180, Note_on_c, 7, 46, 48
11, 285189, Note_on_c, 7, 43, 0
11, 285240, Note_on_c, 7, 51, 48
11, 285249, Note_on_c, 7, 46, 0
11, 285300, Note_on_c, 7, 46, 48
11, 285309, Note_on_c, 7, 51, 0
11, 285360, Note_on_c, 7, 43, 48
11, 285369, Note_on_c, 7, 46, 0
11, 285420, Note_on_c, 7, 46, 48
11, 285429, Note_on_c, 7, 43, 0
11, 285479, Note_on_c, 7, 46, 0
11, 285480, Note_on_c, 7, 44, 48
11, 285540, Note_on_c, 7, 46, 48
11, 285549, Note_on_c, 7, 44, 0
11, 285600, Note_on_c, 7, 53, 48
11, 285609, Note_on_c, 7, 46, 0
11, 285660, Note_on_c, 7, 46, 48
11, 285669, Note_on_c, 7, 53, 0
11, 285720, Note_on_c, 7, 44, 48
11, 285729, Note_on_c, 7, 46, 0
11, 285780, Note_on_c, 7, 46, 48
11, 285789, Note_on_c, 7, 44, 0
11, 285839, Note_on_c, 7, 46, 0
11, 285840, Note_on_c, 7, 44, 48
11, 285900, Note_on_c, 7, 46, 48
11, 285909, Note_on_c, 7, 44, 0
11, 285960, Note_on_c, 7, 53, 48
11, 285969, Note_on_c, 7, 46, 0
11, 286020, Note_on_c, 7, 46, 48
11, 286029, Note_on_c, 7, 53, 0
11, 286080, Note_on_c, 7, 44, 48
11, 286089, Note_on_c, 7, 46, 0
11, 286140, Note_on_c, 7, 46, 48
11, 286149, Note_on_c, 7, 44, 0
11, 286199, Note_on_c, 7, 46, 0
11, 286200, Note_on_c, 7, 44, 48
11, 286260, Note_on_c, 7, 46, 48
11, 286269, Note_on_c, 7, 44, 0
11, 286320, Note_on_c, 7, 50, 48
11, 286329, Note_on_c, 7, 46, 0
11, 286380, Note_on_c, 7, 46, 48
11, 286389, Note_on_c, 7, 50, 0
11, 286440, Note_on_c, 7, 44, 48
11, 286449, Note_on_c, 7, 46, 0
11, 286500, Note_on_c, 7, 46, 48
11, 286509, Note_on_c, 7, 44, 0
11, 286559, Note_on_c, 7, 46, 0
11, 286560, Note_on_c, 7, 44, 48
11, 286620, Note_on_c, 7, 46, 48
11, 286629, Note_on_c, 7, 44, 0
11, 286680, Note_on_c, 7, 50, 48
11, 286689, Note_on_c, 7, 46, 0
11, 286740, Note_on_c, 7, 46, 48
11, 286749, Note_on_c, 7, 50, 0
11, 286800, Note_on_c, 7, 44, 48
11, 286809, Note_on_c, 7, 46, 0
11, 286860, Note_on_c, 7, 46, 48
11, 286869, Note_on_c, 7, 44, 0
11, 286919, Note_on_c, 7, 46, 0
11, 286920, Note_on_c, 7, 51, 48
11, 287160, Note_on_c, 7, 55, 52
11, 287169, Note_on_c, 7, 51, 0
11, 287280, Note_on_c, 7, 51, 54
11, 287289, Note_on_c, 7, 55, 0
11, 287520, Note_on_c, 7, 46, 58
11, 287529, Note_on_c, 7, 51, 0
11, 287639, Note_on_c, 7, 46, 0
11, 287640, Note_on_c, 7, 51, 60
11, 287760, Note_on_c, 7, 55, 62
11, 287769, Note_on_c, 7, 51, 0
11, 287879, Note_on_c, 7, 55, 0
11, 287880, Note_on_c, 7, 58, 64
11, 287939, Note_on_c, 7, 58, 0
11, 288000, Note_on_c, 7, 58, 66
11, 288359, Note_on_c, 7, 58, 0
11, 288360, Note_on_c, 7, 53, 72
11, 288600, Note_on_c, 7, 56, 76
11, 288609, Note_on_c, 7, 53, 0
11, 288720, Note_on_c, 7, 53, 78
11, 288729, Note_on_c, 7, 56, 0
11, 288960, Note_on_c, 7, 46, 82
11, 288969, Note_on_c, 7, 53, 0
11, 289079, Note_on_c, 7, 46, 0
11, 289080, Note_on_c, 7, 53, 84
11, 289200, Note_on_c, 7, 56, 86
11, 289209, Note_on_c, 7, 53, 0
11, 289319, Note_on_c, 7, 56, 0
11, 289320, Note_on_c, 7, 58, 88
11, 289379, Note_on_c, 7, 58, 0
11, 289440, Note_on_c, 7, 58, 90
11, 289859, Note_on_c, 7, 58, 0
11, 289860, Note_on_c, 7, 51, 96
11, 289890, Note_on_c, 7, 53, 96
11, 289899, Note_on_c, 7, 51, 0
11, 289920, Note_on_c, 7, 55, 96
11, 289929, Note_on_c, 7, 53, 0
11, 289949, Note_on_c, 7, 55, 0
11, 289980, Note_on_c, 7, 55, 96
11, 290010, Note_on_c, 7, 56, 96
11, 290019, Note_on_c, 7, 55, 0
11, 290040, Note_on_c, 7, 58, 96
11, 290049, Note_on_c, 7, 56, 0
11, 290069, Note_on_c, 7, 58, 0
11, 290100, Note_on_c, 7, 60, 96
11, 290130, Note_on_c, 7, 62, 96
11, 290139, Note_on_c, 7, 60, 0
11, 290160, Note_on_c, 7, 63, 96
11, 290169, Note_on_c, 7, 62, 0
11, 290189, Note_on_c, 7, 63, 0
11, 290220, Note_on_c, 7, 55, 96
11, 290250, Note_on_c, 7, 56, 96
11, 290259, Note_on_c, 7, 55, 0
11, 290280, Note_on_c, 7, 58, 96
11, 290289, Note_on_c, 7, 56, 0
11, 290309, Note_on_c, 7, 58, 0
11, 290340, Note_on_c, 7, 58, 96
11, 290370, Note_on_c, 7, 60, 96
11, 290379, Note_on_c, 7, 58, 0
11, 290400, Note_on_c, 7, 62, 96
11, 290409, Note_on_c, 7, 60, 0
11, 290429, Note_on_c, 7, 62, 0
11, 290460, Note_on_c, 7, 63, 96
11, 290490, Note_on_c, 7, 65, 96
11, 290499, Note_on_c, 7, 63, 0
11, 290520, Note_on_c, 7, 67, 96
11, 290529, Note_on_c, 7, 65, 0
11, 290549, Note_on_c, 7, 67, 0
11, 290580, Note_on_c, 7, 65, 96
11, 290609, Note_on_c, 7, 65, 0
11, 290640, Note_on_c, 7, 63, 112
11, 290669, Note_on_c, 7, 63, 0
11, 290700, Note_on_c, 7, 62, 96
11, 290729, Note_on_c, 7, 62, 0
11, 290760, Note_on_c, 7, 60, 96
11, 290789, Note_on_c, 7, 60, 0
11, 290820, Note_on_c, 7, 58, 96
11, 290849, Note_on_c, 7, 58, 0
11, 290880, Note_on_c, 7, 56, 96
11, 290909, Note_on_c, 7, 56, 0
11, 290940, Note_on_c, 7, 55, 96
11, 290969, Note_on_c, 7, 55, 0
11, 291000, Note_on_c, 7, 53, 96
11, 291029, Note_on_c, 7, 53, 0
11, 291060, Note_on_c, 7, 51, 96
11, 291089, Note_on_c, 7, 51, 0
11, 291120, Note_on_c, 7, 50, 96
11, 291149, Note_on_c, 7, 50, 0
11, 291180, Note_on_c, 7, 48, 96
11, 291209, Note_on_c, 7, 48, 0
11, 291240, Note_on_c, 7, 46, 96
11, 291269, Note_on_c, 7, 46, 0
11, 291300, Note_on_c, 7, 46, 96
11, 291330, Note_on_c, 7, 48, 96
11, 291339, Note_on_c, 7, 46, 0
11, 291360, Note_on_c, 7, 50, 96
11, 291369, Note_on_c, 7, 48, 0
11, 291389, Note_on_c, 7, 50, 0
11, 291420, Note_on_c, 7, 50, 96
11, 291450, Note_on_c, 7, 51, 96
11, 291459, Note_on_c, 7, 50, 0
11, 291480, Note_on_c, 7, 53, 96
11, 291489, Note_on_c, 7, 51, 0
11, 291509, Note_on_c, 7, 53, 0
11, 291540, Note_on_c, 7, 53, 96
11, 291570, Note_on_c, 7, 55, 96
11, 291579, Note_on_c, 7, 53, 0
11, 291600, Note_on_c, 7, 56, 96
11, 291609, Note_on_c, 7, 55, 0
11, 291629, Note_on_c, 7, 56, 0
11, 291660, Note_on_c, 7, 50, 96
11, 291690, Note_on_c, 7, 51, 96
11, 291699, Note_on_c, 7, 50, 0
11, 291720, Note_on_c, 7, 53, 96
11, 291729, Note_on_c, 7, 51, 0
11, 291749, Note_on_c, 7, 53, 0
11, 291780, Note_on_c, 7, 53, 96
11, 291810, Note_on_c, 7, 55, 96
11, 291819, Note_on_c, 7, 53, 0
11, 291840, Note_on_c, 7, 56, 96
11, 291849, Note_on_c, 7, 55, 0
11, 291869, Note_on_c, 7, 56, 0
11, 291900, Note_on_c, 7, 56, 96
11, 291930, Note_on_c, 7, 58, 96
11, 291939, Note_on_c, 7, 56, 0
11, 291960, Note_on_c, 7, 60, 112
11, 291969, Note_on_c, 7, 58, 0
11, 291989, Note_on_c, 7, 60, 0
11, 292020, Note_on_c, 7, 58, 96
11, 292049, Note_on_c, 7, 58, 0
11, 292080, Note_on_c, 7, 56, 96
11, 292109, Note_on_c, 7, 56, 0
11, 292140, Note_on_c, 7, 55, 96
11, 292169, Note_on_c, 7, 55, 0
11, 292200, Note_on_c, 7, 53, 96
11, 292229, Note_on_c, 7, 53, 0
11, 292260, Note_on_c, 7, 51, 96
11, 292289, Note_on_c, 7, 51, 0
11, 292320, Note_on_c, 7, 50, 96
11, 292349, Note_on_c, 7, 50, 0
11, 292380, Note_on_c, 7, 48, 96
11, 292409, Note_on_c, 7, 48, 0
11, 292440, Note_on_c, 7, 46, 96
11, 292469, Note_on_c, 7, 46, 0
11, 292500, Note_on_c, 7, 44, 96
11, 292529, Note_on_c, 7, 44, 0
11, 292560, Note_on_c, 7, 43, 96
11, 292589, Note_on_c, 7, 43, 0
11, 292620, Note_on_c, 7, 41, 96
11, 292649, Note_on_c, 7, 41, 0
11, 292680, Note_on_c, 7, 43, 96
11, 292739, Note_on_c, 7, 43, 0
11, 292740, Note_on_c, 7, 43, 96
11, 292799, Note_on_c, 7, 43, 0
11, 292800, Note_on_c, 7, 46, 96
11, 292859, Note_on_c, 7, 46, 0
11, 292860, Note_on_c, 7, 46, 96
11, 292919, Note_on_c, 7, 46, 0
11, 292920, Note_on_c, 7, 49, 96
11, 292979, Note_on_c, 7, 49, 0
11, 292980, Note_on_c, 7, 49, 96
11, 293039, Note_on_c, 7, 49, 0
11, 293040, Note_on_c, 7, 49, 112
11, 293099, Note_on_c, 7, 49, 0
11, 293100, Note_on_c, 7, 49, 96
11, 293159, Note_on_c, 7, 49, 0
11, 293160, Note_on_c, 7, 49, 96
11, 293219, Note_on_c, 7, 49, 0
11, 293220, Note_on_c, 7, 49, 96
11, 293279, Note_on_c, 7, 49, 0
11, 293280, Note_on_c, 7, 49, 96
11, 293339, Note_on_c, 7, 49, 0
11, 293340, Note_on_c, 7, 49, 96
11, 293399, Note_on_c, 7, 49, 0
11, 293400, Note_on_c, 7, 44, 112
11, 293579, Note_on_c, 7, 44, 0
11, 293580, Note_on_c, 7, 44, 96
11, 293609, Note_on_c, 7, 44, 0
11, 293640, Note_on_c, 7, 48, 96
11, 293669, Note_on_c, 7, 48, 0
11, 293700, Note_on_c, 7, 53, 96
11, 293729, Note_on_c, 7, 53, 0
11, 293760, Note_on_c, 7, 45, 112
11, 293939, Note_on_c, 7, 45, 0
11, 293940, Note_on_c, 7, 45, 96
11, 293969, Note_on_c, 7, 45, 0
11, 294000, Note_on_c, 7, 48, 96
11, 294029, Note_on_c, 7, 48, 0
11, 294060, Note_on_c, 7, 51, 96
11, 294089, Note_on_c, 7, 51, 0
11, 294120, Note_on_c, 7, 46, 112
11, 294299, Note_on_c, 7, 46, 0
11, 294300, Note_on_c, 7, 46, 96
11, 294329, Note_on_c, 7, 46, 0
11, 294360, Note_on_c, 7, 51, 96
11, 294389, Note_on_c, 7, 51, 0
11, 294420, Note_on_c, 7, 55, 96
11, 294449, Note_on_c, 7, 55, 0
11, 294480, Note_on_c, 7, 47, 96
11, 294539, Note_on_c, 7, 47, 0
11, 294540, Note_on_c, 7, 50, 96
11, 294599, Note_on_c, 7, 50, 0
11, 294600, Note_on_c, 7, 53, 96
11, 294659, Note_on_c, 7, 53, 0
11, 294660, Note_on_c, 7, 47, 96
11, 294719, Note_on_c, 7, 47, 0
11, 294720, Note_on_c, 7, 50, 96
11, 294779, Note_on_c, 7, 50, 0
11, 294780, Note_on_c, 7, 53, 96
11, 294839, Note_on_c, 7, 53, 0
11, 294840, Note_on_c, 7, 48, 96
11, 294899, Note_on_c, 7, 48, 0
11, 294900, Note_on_c, 7, 51, 96
11, 294959, Note_on_c, 7, 51, 0
11, 294960, Note_on_c, 7, 55, 96
11, 295019, Note_on_c, 7, 55, 0
11, 295020, Note_on_c, 7, 48, 96
11, 295079, Note_on_c, 7, 48, 0
11, 295080, Note_on_c, 7, 51, 96
11, 295139, Note_on_c, 7, 51, 0
11, 295140, Note_on_c, 7, 55, 96
11, 295199, Note_on_c, 7, 55, 0
11, 295200, Note_on_c, 7, 44, 96
11, 295259, Note_on_c, 7, 44, 0
11, 295260, Note_on_c, 7, 48, 96
11, 295319, Note_on_c, 7, 48, 0
11, 295320, Note_on_c, 7, 53, 96
11, 295379, Note_on_c, 7, 53, 0
11, 295380, Note_on_c, 7, 44, 96
11, 295439, Note_on_c, 7, 44, 0
11, 295440, Note_on_c, 7, 48, 96
11, 295499, Note_on_c, 7, 48, 0
11, 295500, Note_on_c, 7, 53, 96
11, 295559, Note_on_c, 7, 53, 0
11, 295560, Note_on_c, 7, 46, 127
11, 295619, Note_on_c, 7, 46, 0
11, 295620, Note_on_c, 7, 51, 127
11, 295679, Note_on_c, 7, 51, 0
11, 295680, Note_on_c, 7, 55, 127
11, 295739, Note_on_c, 7, 55, 0
11, 295740, Note_on_c, 7, 46, 127
11, 295799, Note_on_c, 7, 46, 0
11, 295800, Note_on_c, 7, 51, 127
11, 295859, Note_on_c, 7, 51, 0
11, 295860, Note_on_c, 7, 55, 127
11, 295919, Note_on_c, 7, 55, 0
11, 295920, Note_on_c, 7, 58, 127
11, 295979, Note_on_c, 7, 58, 0
11, 295980, Note_on_c, 7, 46, 127
11, 296039, Note_on_c, 7, 46, 0
11, 296040, Note_on_c, 7, 46, 127
11, 296099, Note_on_c, 7, 46, 0
11, 296100, Note_on_c, 7, 46, 127
11, 296159, Note_on_c, 7, 46, 0
11, 296160, Note_on_c, 7, 46, 127
11, 296219, Note_on_c, 7, 46, 0
11, 296220, Note_on_c, 7, 46, 127
11, 296279, Note_on_c, 7, 46, 0
11, 296280, Note_on_c, 7, 63, 48
11, 296520, Note_on_c, 7, 62, 52
11, 296529, Note_on_c, 7, 63, 0
11, 296580, Note_on_c, 7, 61, 56
11, 296589, Note_on_c, 7, 62, 0
11, 296640, Note_on_c, 7, 60, 56
11, 296649, Note_on_c, 7, 61, 0
11, 296760, Note_on_c, 7, 58, 52
11, 296769, Note_on_c, 7, 60, 0
11, 296880, Note_on_c, 7, 56, 48
11, 296889, Note_on_c, 7, 58, 0
11, 296999, Note_on_c, 7, 56, 0
11, 297000, Note_on_c, 7, 55, 48
11, 297060, Note_on_c, 7, 58, 48
11, 297069, Note_on_c, 7, 55, 0
11, 297119, Note_on_c, 7, 58, 0
11, 297120, Note_on_c, 7, 56, 48
11, 297149, Note_on_c, 7, 56, 0
11, 297180, Note_on_c, 7, 55, 48
11, 297209, Note_on_c, 7, 55, 0
11, 297240, Note_on_c, 7, 53, 48
11, 297269, Note_on_c, 7, 53, 0
11, 297300, Note_on_c, 7, 51, 48
11, 297329, Note_on_c, 7, 51, 0
11, 297360, Note_on_c, 7, 50, 48
11, 297389, Note_on_c, 7, 50, 0
11, 297420, Note_on_c, 7, 51, 48
11, 297449, Note_on_c, 7, 51, 0
11, 297480, Note_on_c, 7, 53, 48
11, 297509, Note_on_c, 7, 53, 0
11, 297540, Note_on_c, 7, 46, 48
11, 297569, Note_on_c, 7, 46, 0
11, 297600, Note_on_c, 7, 48, 48
11, 297629, Note_on_c, 7, 48, 0
11, 297660, Note_on_c, 7, 50, 48
11, 297689, Note_on_c, 7, 50, 0
11, 297720, Note_on_c, 7, 51, 48
11, 297749, Note_on_c, 7, 51, 0
11, 297780, Note_on_c, 7, 63, 50
11, 297809, Note_on_c, 7, 63, 0
11, 297840, Note_on_c, 7, 63, 52
11, 297869, Note_on_c, 7, 63, 0
11, 297900, Note_on_c, 7, 63, 54
11, 297929, Note_on_c, 7, 63, 0
11, 297960, Note_on_c, 7, 62, 56
11, 297989, Note_on_c, 7, 62, 0
11, 298020, Note_on_c, 7, 61, 58
11, 298049, Note_on_c, 7, 61, 0
11, 298080, Note_on_c, 7, 60, 60
11, 298109, Note_on_c, 7, 60, 0
11, 298140, Note_on_c, 7, 58, 62
11, 298169, Note_on_c, 7, 58, 0
11, 298200, Note_on_c, 7, 56, 64
11, 298229, Note_on_c, 7, 56, 0
11, 298260, Note_on_c, 7, 60, 66
11, 298289, Note_on_c, 7, 60, 0
11, 298320, Note_on_c, 7, 58, 68
11, 298349, Note_on_c, 7, 58, 0
11, 298380, Note_on_c, 7, 56, 70
11, 298409, Note_on_c, 7, 56, 0
11, 298440, Note_on_c, 7, 55, 72
11, 298469, Note_on_c, 7, 55, 0
11, 298500, Note_on_c, 7, 58, 74
11, 298529, Note_on_c, 7, 58, 0
11, 298560, Note_on_c, 7, 56, 76
11, 298589, Note_on_c, 7, 56, 0
11, 298620, Note_on_c, 7, 55, 78
11, 298649, Note_on_c, 7, 55, 0
11, 298680, Note_on_c, 7, 53, 80
11, 298709, Note_on_c, 7, 53, 0
11, 298740, Note_on_c, 7, 51, 82
11, 298769, Note_on_c, 7, 51, 0
11, 298800, Note_on_c, 7, 50, 84
11, 298829, Note_on_c, 7, 50, 0
11, 298860, Note_on_c, 7, 51, 86
11, 298889, Note_on_c, 7, 51, 0
11, 298920, Note_on_c, 7, 53, 88
11, 298949, Note_on_c, 7, 53, 0
11, 298980, Note_on_c, 7, 51, 90
11, 299009, Note_on_c, 7, 51, 0
11, 299040, Note_on_c, 7, 50, 92
11, 299069, Note_on_c, 7, 50, 0
11, 299100, Note_on_c, 7, 48, 94
11, 299129, Note_on_c, 7, 48, 0
11, 299160, Note_on_c, 7, 46, 96
11, 299279, Note_on_c, 7, 46, 0
11, 299280, Note_on_c, 7, 58, 96
11, 299639, Note_on_c, 7, 58, 0
11, 299640, Note_on_c, 7, 58, 96
11, 299999, Note_on_c, 7, 58, 0
11, 300000, Note_on_c, 7, 58, 96
11, 300239, Note_on_c, 7, 58, 0
11, 300240, Note_on_c, 7, 58, 96
11, 300479, Note_on_c, 7, 58, 0
11, 300480, Note_on_c, 7, 58, 96
11, 300539, Note_on_c, 7, 58, 0
11, 300600, Note_on_c, 7, 58, 96
11, 300659, Note_on_c, 7, 58, 0
11, 300720, Note_on_c, 7, 46, 127
11, 300779, Note_on_c, 7, 46, 0
11, 300840, Note_on_c, 7, 46, 127
11, 300899, Note_on_c, 7, 46, 0
11, 300960, Note_on_c, 7, 46, 127
11, 301019, Note_on_c, 7, 46, 0
11, 301080, Note_on_c, 7, 46, 127
11, 301139, Note_on_c, 7, 46, 0
11, 301200, Note_on_c, 7, 46, 127
11, 301259, Note_on_c, 7, 46, 0
11, 301320, Note_on_c, 7, 46, 127
11, 301379, Note_on_c, 7, 46, 0
11, 301440, Note_on_c, 7, 46, 127
11, 301499, Note_on_c, 7, 46, 0
11, 301560, Note_on_c, 7, 46, 127
11, 301619, Note_on_c, 7, 46, 0
11, 301680, Note_on_c, 7, 46, 127
11, 301739, Note_on_c, 7, 46, 0
11, 301800, Note_on_c, 7, 46, 127
11, 301859, Note_on_c, 7, 46, 0
11, 301920, Note_on_c, 7, 46, 127
11, 301979, Note_on_c, 7, 46, 0
11, 302040, Note_on_c, 7, 51, 127
11, 302159, Note_on_c, 7, 51, 0
11, 302400, Note_on_c, 7, 63, 127
11, 302519, Note_on_c, 7, 63, 0
11, 302760, Note_on_c, 7, 51, 127
11, 302879, Note_on_c, 7, 51, 0
11, 302879, End_track
12, 0, Start_track
12, 0, MIDI_port, 0
12, 0, Title_t, "Double Bass"
12, 0, Program_c, 7, 48
12, 0, Control_c, 7, 7, 127
12, 0, Control_c, 7, 10, 86
12, 0, Control_c, 7, 93, 0
12, 0, Control_c, 7, 91, 0
12, 0, Note_on_c, 7, 39, 96
12, 59, Note_on_c, 7, 39, 0
12, 360, Note_on_c, 7, 39, 96
12, 419, Note_on_c, 7, 39, 0
12, 5040, Note_on_c, 7, 39, 32
12, 5159, Note_on_c, 7, 39, 0
12, 6360, Note_on_c, 7, 36, 48
12, 6480, Note_on_c, 7, 41, 48
12, 6489, Note_on_c, 7, 36, 0
12, 6600, Note_on_c, 7, 44, 48
12, 6609, Note_on_c, 7, 41, 0
12, 6720, Note_on_c, 7, 48, 48
12, 6729, Note_on_c, 7, 44, 0
12, 6839, Note_on_c, 7, 48, 0
12, 6840, Note_on_c, 7, 41, 48
12, 6959, Note_on_c, 7, 41, 0
12, 7680, Note_on_c, 7, 36, 48
12, 7800, Note_on_c, 7, 35, 64
12, 7809, Note_on_c, 7, 36, 0
12, 7920, Note_on_c, 7, 34, 96
12, 7929, Note_on_c, 7, 35, 0
12, 7949, Note_on_c, 7, 34, 0
12, 7950, Note_on_c, 7, 34, 48
12, 8519, Note_on_c, 7, 34, 0
12, 8520, Note_on_c, 7, 34, 48
12, 8759, Note_on_c, 7, 34, 0
12, 8760, Note_on_c, 7, 34, 96
12, 8999, Note_on_c, 7, 34, 0
12, 9000, Note_on_c, 7, 34, 96
12, 9239, Note_on_c, 7, 34, 0
12, 9240, Note_on_c, 7, 34, 96
12, 9359, Note_on_c, 7, 34, 0
12, 9360, Note_on_c, 7, 34, 96
12, 9389, Note_on_c, 7, 34, 0
12, 9390, Note_on_c, 7, 34, 48
12, 9959, Note_on_c, 7, 34, 0
12, 9960, Note_on_c, 7, 34, 96
12, 10080, Note_on_c, 7, 32, 90
12, 10089, Note_on_c, 7, 34, 0
12, 10199, Note_on_c, 7, 32, 0
12, 10200, Note_on_c, 7, 44, 96
12, 10439, Note_on_c, 7, 44, 0
12, 10440, Note_on_c, 7, 44, 96
12, 10679, Note_on_c, 7, 44, 0
12, 10680, Note_on_c, 7, 44, 96
12, 10919, Note_on_c, 7, 44, 0
12, 10920, Note_on_c, 7, 43, 96
12, 11159, Note_on_c, 7, 43, 0
12, 11160, Note_on_c, 7, 43, 96
12, 11399, Note_on_c, 7, 43, 0
12, 11400, Note_on_c, 7, 43, 96
12, 11639, Note_on_c, 7, 43, 0
12, 11640, Note_on_c, 7, 44, 90
12, 11699, Note_on_c, 7, 44, 0
12, 11760, Note_on_c, 7, 44, 96
12, 11999, Note_on_c, 7, 44, 0
12, 12000, Note_on_c, 7, 43, 96
12, 12059, Note_on_c, 7, 43, 0
12, 12120, Note_on_c, 7, 43, 96
12, 12240, Note_on_c, 7, 41, 96
12, 12249, Note_on_c, 7, 43, 0
12, 12299, Note_on_c, 7, 41, 0
12, 12300, Note_on_c, 7, 41, 99
12, 12329, Note_on_c, 7, 41, 0
12, 12360, Note_on_c, 7, 41, 102
12, 12389, Note_on_c, 7, 41, 0
12, 12420, Note_on_c, 7, 41, 105
12, 12449, Note_on_c, 7, 41, 0
12, 12480, Note_on_c, 7, 41, 107
12, 12509, Note_on_c, 7, 41, 0
12, 12540, Note_on_c, 7, 41, 110
12, 12569, Note_on_c, 7, 41, 0
12, 12600, Note_on_c, 7, 34, 112
12, 12659, Note_on_c, 7, 34, 0
12, 12660, Note_on_c, 7, 46, 115
12, 12719, Note_on_c, 7, 46, 0
12, 12720, Note_on_c, 7, 46, 117
12, 12779, Note_on_c, 7, 46, 0
12, 12780, Note_on_c, 7, 46, 120
12, 12839, Note_on_c, 7, 46, 0
12, 12840, Note_on_c, 7, 46, 123
12, 12899, Note_on_c, 7, 46, 0
12, 12900, Note_on_c, 7, 46, 125
12, 12959, Note_on_c, 7, 46, 0
12, 12960, Note_on_c, 7, 39, 127
12, 13200, Note_on_c, 7, 43, 127
12, 13209, Note_on_c, 7, 39, 0
12, 13320, Note_on_c, 7, 39, 127
12, 13329, Note_on_c, 7, 43, 0
12, 13560, Note_on_c, 7, 34, 127
12, 13569, Note_on_c, 7, 39, 0
12, 13679, Note_on_c, 7, 34, 0
12, 13680, Note_on_c, 7, 39, 127
12, 13800, Note_on_c, 7, 43, 127
12, 13809, Note_on_c, 7, 39, 0
12, 13920, Note_on_c, 7, 46, 127
12, 13929, Note_on_c, 7, 43, 0
12, 14039, Note_on_c, 7, 46, 0
12, 14040, Note_on_c, 7, 39, 127
12, 14279, Note_on_c, 7, 39, 0
12, 14280, Note_on_c, 7, 31, 127
12, 14399, Note_on_c, 7, 31, 0
12, 14400, Note_on_c, 7, 36, 127
12, 14520, Note_on_c, 7, 39, 127
12, 14529, Note_on_c, 7, 36, 0
12, 14640, Note_on_c, 7, 43, 127
12, 14649, Note_on_c, 7, 39, 0
12, 14759, Note_on_c, 7, 43, 0
12, 14760, Note_on_c, 7, 36, 127
12, 14999, Note_on_c, 7, 36, 0
12, 15000, Note_on_c, 7, 27, 127
12, 15119, Note_on_c, 7, 27, 0
12, 15120, Note_on_c, 7, 32, 127
12, 15179, Note_on_c, 7, 32, 0
12, 15180, Note_on_c, 7, 44, 127
12, 15239, Note_on_c, 7, 44, 0
12, 15240, Note_on_c, 7, 44, 127
12, 15299, Note_on_c, 7, 44, 0
12, 15300, Note_on_c, 7, 44, 127
12, 15359, Note_on_c, 7, 44, 0
12, 15360, Note_on_c, 7, 44, 127
12, 15419, Note_on_c, 7, 44, 0
12, 15420, Note_on_c, 7, 44, 127
12, 15479, Note_on_c, 7, 44, 0
12, 15480, Note_on_c, 7, 42, 127
12, 15539, Note_on_c, 7, 42, 0
12, 15540, Note_on_c, 7, 42, 127
12, 15599, Note_on_c, 7, 42, 0
12, 15600, Note_on_c, 7, 42, 127
12, 15659, Note_on_c, 7, 42, 0
12, 15660, Note_on_c, 7, 42, 127
12, 15719, Note_on_c, 7, 42, 0
12, 15720, Note_on_c, 7, 42, 127
12, 15779, Note_on_c, 7, 42, 0
12, 15780, Note_on_c, 7, 42, 127
12, 15839, Note_on_c, 7, 42, 0
12, 15840, Note_on_c, 7, 41, 127
12, 15959, Note_on_c, 7, 41, 0
12, 16560, Note_on_c, 7, 29, 48
12, 16619, Note_on_c, 7, 29, 0
12, 16680, Note_on_c, 7, 33, 48
12, 16739, Note_on_c, 7, 33, 0
12, 16800, Note_on_c, 7, 36, 48
12, 16859, Note_on_c, 7, 36, 0
12, 16920, Note_on_c, 7, 41, 48
12, 16979, Note_on_c, 7, 41, 0
12, 17040, Note_on_c, 7, 45, 48
12, 17099, Note_on_c, 7, 45, 0
12, 17160, Note_on_c, 7, 48, 48
12, 17219, Note_on_c, 7, 48, 0
12, 17280, Note_on_c, 7, 41, 48
12, 17399, Note_on_c, 7, 41, 0
12, 18000, Note_on_c, 7, 29, 48
12, 18059, Note_on_c, 7, 29, 0
12, 18120, Note_on_c, 7, 34, 48
12, 18179, Note_on_c, 7, 34, 0
12, 18240, Note_on_c, 7, 38, 48
12, 18299, Note_on_c, 7, 38, 0
12, 18360, Note_on_c, 7, 41, 48
12, 18419, Note_on_c, 7, 41, 0
12, 18480, Note_on_c, 7, 50, 48
12, 18539, Note_on_c, 7, 50, 0
12, 18600, Note_on_c, 7, 46, 48
12, 18659, Note_on_c, 7, 46, 0
12, 18720, Note_on_c, 7, 41, 48
12, 18839, Note_on_c, 7, 41, 0
12, 19560, Note_on_c, 7, 43, 127
12, 19739, Note_on_c, 7, 43, 0
12, 19740, Note_on_c, 7, 41, 127
12, 19799, Note_on_c, 7, 41, 0
12, 19800, Note_on_c, 7, 39, 127
12, 19859, Note_on_c, 7, 39, 0
12, 19920, Note_on_c, 7, 38, 127
12, 19979, Note_on_c, 7, 38, 0
12, 20040, Note_on_c, 7, 36, 127
12, 20099, Note_on_c, 7, 36, 0
12, 20160, Note_on_c, 7, 34, 48
12, 20279, Note_on_c, 7, 34, 0
12, 21600, Note_on_c, 7, 34, 56
12, 22349, Note_on_c, 7, 34, 0
12, 22380, Note_on_c, 7, 41, 74
12, 22409, Note_on_c, 7, 41, 0
12, 22440, Note_on_c, 7, 39, 76
12, 22469, Note_on_c, 7, 39, 0
12, 22500, Note_on_c, 7, 38, 78
12, 22529, Note_on_c, 7, 38, 0
12, 22560, Note_on_c, 7, 36, 80
12, 22589, Note_on_c, 7, 36, 0
12, 22620, Note_on_c, 7, 34, 82
12, 22649, Note_on_c, 7, 34, 0
12, 22680, Note_on_c, 7, 33, 84
12, 22709, Note_on_c, 7, 33, 0
12, 22740, Note_on_c, 7, 34, 86
12, 22769, Note_on_c, 7, 34, 0
12, 22800, Note_on_c, 7, 36, 88
12, 22829, Note_on_c, 7, 36, 0
12, 22860, Note_on_c, 7, 34, 90
12, 22889, Note_on_c, 7, 34, 0
12, 22920, Note_on_c, 7, 33, 92
12, 22949, Note_on_c, 7, 33, 0
12, 22980, Note_on_c, 7, 31, 94
12, 23009, Note_on_c, 7, 31, 0
12, 23040, Note_on_c, 7, 30, 96
12, 23099, Note_on_c, 7, 30, 0
12, 23160, Note_on_c, 7, 42, 96
12, 23219, Note_on_c, 7, 42, 0
12, 23700, Note_on_c, 7, 30, 96
12, 23729, Note_on_c, 7, 30, 0
12, 23760, Note_on_c, 7, 31, 96
12, 23819, Note_on_c, 7, 31, 0
12, 23880, Note_on_c, 7, 43, 96
12, 23939, Note_on_c, 7, 43, 0
12, 24420, Note_on_c, 7, 43, 96
12, 24449, Note_on_c, 7, 43, 0
12, 24480, Note_on_c, 7, 41, 96
12, 24539, Note_on_c, 7, 41, 0
12, 24600, Note_on_c, 7, 53, 96
12, 24659, Note_on_c, 7, 53, 0
12, 25020, Note_on_c, 7, 41, 96
12, 25049, Note_on_c, 7, 41, 0
12, 25080, Note_on_c, 7, 41, 96
12, 25109, Note_on_c, 7, 41, 0
12, 25140, Note_on_c, 7, 41, 96
12, 25169, Note_on_c, 7, 41, 0
12, 25200, Note_on_c, 7, 39, 96
12, 25229, Note_on_c, 7, 39, 0
12, 25260, Note_on_c, 7, 39, 96
12, 25379, Note_on_c, 7, 39, 0
12, 25380, Note_on_c, 7, 40, 96
12, 25409, Note_on_c, 7, 40, 0
12, 25440, Note_on_c, 7, 41, 96
12, 25469, Note_on_c, 7, 41, 0
12, 25500, Note_on_c, 7, 42, 96
12, 25529, Note_on_c, 7, 42, 0
12, 25560, Note_on_c, 7, 43, 96
12, 25589, Note_on_c, 7, 43, 0
12, 25620, Note_on_c, 7, 43, 96
12, 25739, Note_on_c, 7, 43, 0
12, 25740, Note_on_c, 7, 43, 96
12, 25769, Note_on_c, 7, 43, 0
12, 25800, Note_on_c, 7, 44, 96
12, 25829, Note_on_c, 7, 44, 0
12, 25860, Note_on_c, 7, 45, 96
12, 25889, Note_on_c, 7, 45, 0
12, 25920, Note_on_c, 7, 46, 96
12, 25979, Note_on_c, 7, 46, 0
12, 25980, Note_on_c, 7, 46, 96
12, 26039, Note_on_c, 7, 46, 0
12, 26040, Note_on_c, 7, 44, 96
12, 26099, Note_on_c, 7, 44, 0
12, 26100, Note_on_c, 7, 44, 96
12, 26159, Note_on_c, 7, 44, 0
12, 26160, Note_on_c, 7, 43, 96
12, 26219, Note_on_c, 7, 43, 0
12, 26220, Note_on_c, 7, 43, 96
12, 26279, Note_on_c, 7, 43, 0
12, 26280, Note_on_c, 7, 42, 96
12, 26339, Note_on_c, 7, 42, 0
12, 26340, Note_on_c, 7, 42, 96
12, 26399, Note_on_c, 7, 42, 0
12, 26400, Note_on_c, 7, 41, 96
12, 26459, Note_on_c, 7, 41, 0
12, 26460, Note_on_c, 7, 41, 96
12, 26519, Note_on_c, 7, 41, 0
12, 26520, Note_on_c, 7, 38, 96
12, 26579, Note_on_c, 7, 38, 0
12, 26580, Note_on_c, 7, 38, 96
12, 26639, Note_on_c, 7, 38, 0
12, 26640, Note_on_c, 7, 39, 96
12, 26699, Note_on_c, 7, 39, 0
12, 26700, Note_on_c, 7, 39, 96
12, 26759, Note_on_c, 7, 39, 0
12, 26760, Note_on_c, 7, 39, 96
12, 26819, Note_on_c, 7, 39, 0
12, 26820, Note_on_c, 7, 39, 96
12, 26879, Note_on_c, 7, 39, 0
12, 26880, Note_on_c, 7, 39, 96
12, 26939, Note_on_c, 7, 39, 0
12, 26940, Note_on_c, 7, 39, 96
12, 26999, Note_on_c, 7, 39, 0
12, 27000, Note_on_c, 7, 39, 96
12, 27059, Note_on_c, 7, 39, 0
12, 27060, Note_on_c, 7, 39, 96
12, 27119, Note_on_c, 7, 39, 0
12, 27120, Note_on_c, 7, 39, 96
12, 27179, Note_on_c, 7, 39, 0
12, 27180, Note_on_c, 7, 39, 96
12, 27239, Note_on_c, 7, 39, 0
12, 27240, Note_on_c, 7, 39, 96
12, 27299, Note_on_c, 7, 39, 0
12, 27300, Note_on_c, 7, 39, 96
12, 27359, Note_on_c, 7, 39, 0
12, 27360, Note_on_c, 7, 41, 96
12, 27419, Note_on_c, 7, 41, 0
12, 27420, Note_on_c, 7, 41, 96
12, 27479, Note_on_c, 7, 41, 0
12, 27480, Note_on_c, 7, 41, 96
12, 27539, Note_on_c, 7, 41, 0
12, 27540, Note_on_c, 7, 41, 96
12, 27599, Note_on_c, 7, 41, 0
12, 27600, Note_on_c, 7, 41, 96
12, 27659, Note_on_c, 7, 41, 0
12, 27660, Note_on_c, 7, 41, 96
12, 27719, Note_on_c, 7, 41, 0
12, 27720, Note_on_c, 7, 41, 96
12, 27779, Note_on_c, 7, 41, 0
12, 27780, Note_on_c, 7, 41, 96
12, 27839, Note_on_c, 7, 41, 0
12, 27840, Note_on_c, 7, 41, 96
12, 27899, Note_on_c, 7, 41, 0
12, 27900, Note_on_c, 7, 41, 96
12, 27959, Note_on_c, 7, 41, 0
12, 27960, Note_on_c, 7, 41, 96
12, 28019, Note_on_c, 7, 41, 0
12, 28020, Note_on_c, 7, 41, 96
12, 28079, Note_on_c, 7, 41, 0
12, 28080, Note_on_c, 7, 29, 96
12, 28139, Note_on_c, 7, 29, 0
12, 28140, Note_on_c, 7, 41, 96
12, 28199, Note_on_c, 7, 41, 0
12, 28200, Note_on_c, 7, 41, 96
12, 28259, Note_on_c, 7, 41, 0
12, 28260, Note_on_c, 7, 41, 96
12, 28319, Note_on_c, 7, 41, 0
12, 28320, Note_on_c, 7, 41, 96
12, 28379, Note_on_c, 7, 41, 0
12, 28380, Note_on_c, 7, 41, 96
12, 28439, Note_on_c, 7, 41, 0
12, 28440, Note_on_c, 7, 41, 96
12, 28499, Note_on_c, 7, 41, 0
12, 28500, Note_on_c, 7, 41, 96
12, 28559, Note_on_c, 7, 41, 0
12, 28560, Note_on_c, 7, 41, 96
12, 28619, Note_on_c, 7, 41, 0
12, 28620, Note_on_c, 7, 41, 96
12, 28679, Note_on_c, 7, 41, 0
12, 28680, Note_on_c, 7, 41, 96
12, 28739, Note_on_c, 7, 41, 0
12, 28740, Note_on_c, 7, 41, 96
12, 28799, Note_on_c, 7, 41, 0
12, 28800, Note_on_c, 7, 41, 127
12, 28829, Note_on_c, 7, 41, 0
12, 28860, Note_on_c, 7, 52, 127
12, 28889, Note_on_c, 7, 52, 0
12, 28920, Note_on_c, 7, 51, 127
12, 28949, Note_on_c, 7, 51, 0
12, 28980, Note_on_c, 7, 50, 127
12, 29009, Note_on_c, 7, 50, 0
12, 29040, Note_on_c, 7, 48, 127
12, 29069, Note_on_c, 7, 48, 0
12, 29100, Note_on_c, 7, 46, 127
12, 29129, Note_on_c, 7, 46, 0
12, 29160, Note_on_c, 7, 45, 127
12, 29189, Note_on_c, 7, 45, 0
12, 29220, Note_on_c, 7, 43, 127
12, 29249, Note_on_c, 7, 43, 0
12, 29280, Note_on_c, 7, 41, 127
12, 29309, Note_on_c, 7, 41, 0
12, 29340, Note_on_c, 7, 39, 127
12, 29369, Note_on_c, 7, 39, 0
12, 29400, Note_on_c, 7, 38, 127
12, 29429, Note_on_c, 7, 38, 0
12, 29460, Note_on_c, 7, 36, 127
12, 29489, Note_on_c, 7, 36, 0
12, 29520, Note_on_c, 7, 34, 127
12, 29639, Note_on_c, 7, 34, 0
12, 33960, Note_on_c, 7, 41, 48
12, 34080, Note_on_c, 7, 37, 48
12, 34089, Note_on_c, 7, 41, 0
12, 34200, Note_on_c, 7, 36, 54
12, 34209, Note_on_c, 7, 37, 0
12, 34440, Note_on_c, 7, 35, 54
12, 34449, Note_on_c, 7, 36, 0
12, 34560, Note_on_c, 7, 36, 48
12, 34569, Note_on_c, 7, 35, 0
12, 34679, Note_on_c, 7, 36, 0
12, 35400, Note_on_c, 7, 41, 32
12, 35459, Note_on_c, 7, 41, 0
12, 35520, Note_on_c, 7, 41, 32
12, 35579, Note_on_c, 7, 41, 0
12, 35760, Note_on_c, 7, 41, 32
12, 35819, Note_on_c, 7, 41, 0
12, 35880, Note_on_c, 7, 41, 32
12, 35939, Note_on_c, 7, 41, 0
12, 36120, Note_on_c, 7, 41, 32
12, 36179, Note_on_c, 7, 41, 0
12, 36240, Note_on_c, 7, 41, 32
12, 36299, Note_on_c, 7, 41, 0
12, 36360, Note_on_c, 7, 41, 32
12, 36419, Note_on_c, 7, 41, 0
12, 36480, Note_on_c, 7, 41, 32
12, 36539, Note_on_c, 7, 41, 0
12, 36600, Note_on_c, 7, 41, 32
12, 36659, Note_on_c, 7, 41, 0
12, 36720, Note_on_c, 7, 41, 32
12, 36779, Note_on_c, 7, 41, 0
12, 36780, Note_on_c, 7, 41, 32
12, 36839, Note_on_c, 7, 41, 0
12, 36840, Note_on_c, 7, 41, 32
12, 36899, Note_on_c, 7, 41, 0
12, 36900, Note_on_c, 7, 41, 32
12, 36959, Note_on_c, 7, 41, 0
12, 36960, Note_on_c, 7, 41, 32
12, 37019, Note_on_c, 7, 41, 0
12, 37020, Note_on_c, 7, 41, 32
12, 37079, Note_on_c, 7, 41, 0
12, 37080, Note_on_c, 7, 41, 32
12, 37139, Note_on_c, 7, 41, 0
12, 37140, Note_on_c, 7, 41, 32
12, 37199, Note_on_c, 7, 41, 0
12, 37200, Note_on_c, 7, 41, 32
12, 37259, Note_on_c, 7, 41, 0
12, 37260, Note_on_c, 7, 41, 32
12, 37319, Note_on_c, 7, 41, 0
12, 37320, Note_on_c, 7, 41, 32
12, 37379, Note_on_c, 7, 41, 0
12, 37380, Note_on_c, 7, 41, 32
12, 37439, Note_on_c, 7, 41, 0
12, 37440, Note_on_c, 7, 41, 34
12, 37499, Note_on_c, 7, 41, 0
12, 37500, Note_on_c, 7, 41, 37
12, 37559, Note_on_c, 7, 41, 0
12, 37560, Note_on_c, 7, 41, 40
12, 37619, Note_on_c, 7, 41, 0
12, 37620, Note_on_c, 7, 41, 43
12, 37679, Note_on_c, 7, 41, 0
12, 37680, Note_on_c, 7, 41, 46
12, 37739, Note_on_c, 7, 41, 0
12, 37740, Note_on_c, 7, 41, 48
12, 37799, Note_on_c, 7, 41, 0
12, 37800, Note_on_c, 7, 41, 50
12, 37859, Note_on_c, 7, 41, 0
12, 37860, Note_on_c, 7, 41, 53
12, 37919, Note_on_c, 7, 41, 0
12, 37920, Note_on_c, 7, 41, 56
12, 37979, Note_on_c, 7, 41, 0
12, 37980, Note_on_c, 7, 41, 59
12, 38039, Note_on_c, 7, 41, 0
12, 38040, Note_on_c, 7, 41, 62
12, 38099, Note_on_c, 7, 41, 0
12, 38100, Note_on_c, 7, 41, 64
12, 38159, Note_on_c, 7, 41, 0
12, 38160, Note_on_c, 7, 41, 66
12, 38219, Note_on_c, 7, 41, 0
12, 38220, Note_on_c, 7, 41, 69
12, 38279, Note_on_c, 7, 41, 0
12, 38280, Note_on_c, 7, 41, 72
12, 38339, Note_on_c, 7, 41, 0
12, 38340, Note_on_c, 7, 41, 75
12, 38399, Note_on_c, 7, 41, 0
12, 38400, Note_on_c, 7, 41, 78
12, 38459, Note_on_c, 7, 41, 0
12, 38460, Note_on_c, 7, 41, 80
12, 38519, Note_on_c, 7, 41, 0
12, 38520, Note_on_c, 7, 41, 82
12, 38579, Note_on_c, 7, 41, 0
12, 38580, Note_on_c, 7, 41, 85
12, 38639, Note_on_c, 7, 41, 0
12, 38640, Note_on_c, 7, 41, 88
12, 38699, Note_on_c, 7, 41, 0
12, 38700, Note_on_c, 7, 39, 91
12, 38759, Note_on_c, 7, 39, 0
12, 38760, Note_on_c, 7, 38, 93
12, 38819, Note_on_c, 7, 38, 0
12, 38820, Note_on_c, 7, 36, 95
12, 38879, Note_on_c, 7, 36, 0
12, 38880, Note_on_c, 7, 34, 96
12, 38939, Note_on_c, 7, 34, 0
12, 38940, Note_on_c, 7, 29, 96
12, 38999, Note_on_c, 7, 29, 0
12, 39000, Note_on_c, 7, 34, 96
12, 39059, Note_on_c, 7, 34, 0
12, 39060, Note_on_c, 7, 29, 96
12, 39119, Note_on_c, 7, 29, 0
12, 39120, Note_on_c, 7, 34, 96
12, 39179, Note_on_c, 7, 34, 0
12, 39180, Note_on_c, 7, 29, 96
12, 39239, Note_on_c, 7, 29, 0
12, 39240, Note_on_c, 7, 34, 96
12, 39299, Note_on_c, 7, 34, 0
12, 39300, Note_on_c, 7, 29, 96
12, 39359, Note_on_c, 7, 29, 0
12, 39360, Note_on_c, 7, 34, 112
12, 39419, Note_on_c, 7, 34, 0
12, 39420, Note_on_c, 7, 29, 96
12, 39479, Note_on_c, 7, 29, 0
12, 39480, Note_on_c, 7, 34, 96
12, 39539, Note_on_c, 7, 34, 0
12, 39540, Note_on_c, 7, 29, 96
12, 39599, Note_on_c, 7, 29, 0
12, 39600, Note_on_c, 7, 33, 96
12, 39659, Note_on_c, 7, 33, 0
12, 39660, Note_on_c, 7, 29, 96
12, 39719, Note_on_c, 7, 29, 0
12, 39720, Note_on_c, 7, 33, 112
12, 39779, Note_on_c, 7, 33, 0
12, 39780, Note_on_c, 7, 29, 96
12, 39839, Note_on_c, 7, 29, 0
12, 39840, Note_on_c, 7, 33, 96
12, 39899, Note_on_c, 7, 33, 0
12, 39900, Note_on_c, 7, 29, 96
12, 39959, Note_on_c, 7, 29, 0
12, 39960, Note_on_c, 7, 36, 96
12, 40019, Note_on_c, 7, 36, 0
12, 40020, Note_on_c, 7, 29, 96
12, 40079, Note_on_c, 7, 29, 0
12, 40080, Note_on_c, 7, 39, 112
12, 40139, Note_on_c, 7, 39, 0
12, 40140, Note_on_c, 7, 29, 96
12, 40199, Note_on_c, 7, 29, 0
12, 40200, Note_on_c, 7, 33, 96
12, 40259, Note_on_c, 7, 33, 0
12, 40260, Note_on_c, 7, 29, 96
12, 40319, Note_on_c, 7, 29, 0
12, 40320, Note_on_c, 7, 34, 127
12, 40379, Note_on_c, 7, 34, 0
12, 40380, Note_on_c, 7, 29, 127
12, 40439, Note_on_c, 7, 29, 0
12, 40440, Note_on_c, 7, 34, 127
12, 40499, Note_on_c, 7, 34, 0
12, 40500, Note_on_c, 7, 29, 127
12, 40559, Note_on_c, 7, 29, 0
12, 40560, Note_on_c, 7, 34, 127
12, 40619, Note_on_c, 7, 34, 0
12, 40620, Note_on_c, 7, 29, 127
12, 40679, Note_on_c, 7, 29, 0
12, 40680, Note_on_c, 7, 34, 127
12, 40739, Note_on_c, 7, 34, 0
12, 40740, Note_on_c, 7, 29, 127
12, 40799, Note_on_c, 7, 29, 0
12, 40800, Note_on_c, 7, 34, 127
12, 40859, Note_on_c, 7, 34, 0
12, 40860, Note_on_c, 7, 29, 127
12, 40919, Note_on_c, 7, 29, 0
12, 40920, Note_on_c, 7, 34, 127
12, 40979, Note_on_c, 7, 34, 0
12, 40980, Note_on_c, 7, 29, 127
12, 41039, Note_on_c, 7, 29, 0
12, 41040, Note_on_c, 7, 33, 127
12, 41099, Note_on_c, 7, 33, 0
12, 41100, Note_on_c, 7, 29, 127
12, 41159, Note_on_c, 7, 29, 0
12, 41160, Note_on_c, 7, 33, 127
12, 41219, Note_on_c, 7, 33, 0
12, 41220, Note_on_c, 7, 29, 127
12, 41279, Note_on_c, 7, 29, 0
12, 41280, Note_on_c, 7, 33, 127
12, 41339, Note_on_c, 7, 33, 0
12, 41340, Note_on_c, 7, 29, 127
12, 41399, Note_on_c, 7, 29, 0
12, 41400, Note_on_c, 7, 36, 127
12, 41459, Note_on_c, 7, 36, 0
12, 41460, Note_on_c, 7, 29, 127
12, 41519, Note_on_c, 7, 29, 0
12, 41520, Note_on_c, 7, 39, 127
12, 41579, Note_on_c, 7, 39, 0
12, 41580, Note_on_c, 7, 41, 127
12, 41639, Note_on_c, 7, 41, 0
12, 41640, Note_on_c, 7, 39, 127
12, 41699, Note_on_c, 7, 39, 0
12, 41700, Note_on_c, 7, 41, 127
12, 41759, Note_on_c, 7, 41, 0
12, 41760, Note_on_c, 7, 38, 127
12, 42060, Note_on_c, 7, 37, 127
12, 42069, Note_on_c, 7, 38, 0
12, 42119, Note_on_c, 7, 37, 0
12, 42120, Note_on_c, 7, 38, 127
12, 42149, Note_on_c, 7, 38, 0
12, 42180, Note_on_c, 7, 33, 127
12, 42209, Note_on_c, 7, 33, 0
12, 42240, Note_on_c, 7, 34, 127
12, 42269, Note_on_c, 7, 34, 0
12, 42300, Note_on_c, 7, 36, 127
12, 42329, Note_on_c, 7, 36, 0
12, 42360, Note_on_c, 7, 37, 127
12, 42389, Note_on_c, 7, 37, 0
12, 42420, Note_on_c, 7, 38, 127
12, 42449, Note_on_c, 7, 38, 0
12, 42480, Note_on_c, 7, 39, 127
12, 42509, Note_on_c, 7, 39, 0
12, 42540, Note_on_c, 7, 38, 127
12, 42569, Note_on_c, 7, 38, 0
12, 42600, Note_on_c, 7, 36, 127
12, 42629, Note_on_c, 7, 36, 0
12, 42660, Note_on_c, 7, 40, 127
12, 42689, Note_on_c, 7, 40, 0
12, 42720, Note_on_c, 7, 41, 127
12, 42749, Note_on_c, 7, 41, 0
12, 42780, Note_on_c, 7, 39, 127
12, 42809, Note_on_c, 7, 39, 0
12, 42840, Note_on_c, 7, 38, 127
12, 42869, Note_on_c, 7, 38, 0
12, 42900, Note_on_c, 7, 42, 127
12, 42929, Note_on_c, 7, 42, 0
12, 42960, Note_on_c, 7, 43, 127
12, 42989, Note_on_c, 7, 43, 0
12, 43020, Note_on_c, 7, 41, 127
12, 43049, Note_on_c, 7, 41, 0
12, 43080, Note_on_c, 7, 39, 127
12, 43109, Note_on_c, 7, 39, 0
12, 43140, Note_on_c, 7, 43, 127
12, 43169, Note_on_c, 7, 43, 0
12, 43200, Note_on_c, 7, 45, 127
12, 43229, Note_on_c, 7, 45, 0
12, 43260, Note_on_c, 7, 43, 127
12, 43289, Note_on_c, 7, 43, 0
12, 43320, Note_on_c, 7, 41, 127
12, 43349, Note_on_c, 7, 41, 0
12, 43380, Note_on_c, 7, 45, 127
12, 43409, Note_on_c, 7, 45, 0
12, 43440, Note_on_c, 7, 46, 127
12, 43469, Note_on_c, 7, 46, 0
12, 43500, Note_on_c, 7, 45, 127
12, 43529, Note_on_c, 7, 45, 0
12, 43560, Note_on_c, 7, 43, 127
12, 43589, Note_on_c, 7, 43, 0
12, 43620, Note_on_c, 7, 42, 127
12, 43649, Note_on_c, 7, 42, 0
12, 43680, Note_on_c, 7, 43, 127
12, 43709, Note_on_c, 7, 43, 0
12, 43740, Note_on_c, 7, 41, 127
12, 43769, Note_on_c, 7, 41, 0
12, 43800, Note_on_c, 7, 40, 127
12, 43829, Note_on_c, 7, 40, 0
12, 43860, Note_on_c, 7, 39, 127
12, 43889, Note_on_c, 7, 39, 0
12, 43920, Note_on_c, 7, 38, 127
12, 43979, Note_on_c, 7, 38, 0
12, 44040, Note_on_c, 7, 42, 127
12, 44099, Note_on_c, 7, 42, 0
12, 44160, Note_on_c, 7, 43, 127
12, 44219, Note_on_c, 7, 43, 0
12, 44400, Note_on_c, 7, 38, 127
12, 44459, Note_on_c, 7, 38, 0
12, 44520, Note_on_c, 7, 39, 127
12, 44579, Note_on_c, 7, 39, 0
12, 44760, Note_on_c, 7, 40, 127
12, 44819, Note_on_c, 7, 40, 0
12, 44880, Note_on_c, 7, 41, 127
12, 44939, Note_on_c, 7, 41, 0
12, 45120, Note_on_c, 7, 42, 127
12, 45179, Note_on_c, 7, 42, 0
12, 45240, Note_on_c, 7, 43, 127
12, 45299, Note_on_c, 7, 43, 0
12, 45480, Note_on_c, 7, 38, 127
12, 45539, Note_on_c, 7, 38, 0
12, 45600, Note_on_c, 7, 39, 127
12, 45659, Note_on_c, 7, 39, 0
12, 45840, Note_on_c, 7, 40, 127
12, 45899, Note_on_c, 7, 40, 0
12, 46080, Note_on_c, 7, 40, 127
12, 46139, Note_on_c, 7, 40, 0
12, 46320, Note_on_c, 7, 40, 127
12, 46379, Note_on_c, 7, 40, 0
12, 46560, Note_on_c, 7, 40, 127
12, 46619, Note_on_c, 7, 40, 0
12, 46800, Note_on_c, 7, 40, 127
12, 46859, Note_on_c, 7, 40, 0
12, 47040, Note_on_c, 7, 40, 127
12, 47099, Note_on_c, 7, 40, 0
12, 48600, Note_on_c, 7, 31, 48
12, 48719, Note_on_c, 7, 31, 0
12, 48960, Note_on_c, 7, 32, 48
12, 49079, Note_on_c, 7, 32, 0
12, 49320, Note_on_c, 7, 33, 48
12, 49439, Note_on_c, 7, 33, 0
12, 49680, Note_on_c, 7, 34, 48
12, 49799, Note_on_c, 7, 34, 0
12, 50040, Note_on_c, 7, 39, 48
12, 50099, Note_on_c, 7, 39, 0
12, 50100, Note_on_c, 7, 39, 52
12, 50159, Note_on_c, 7, 39, 0
12, 50160, Note_on_c, 7, 39, 57
12, 50219, Note_on_c, 7, 39, 0
12, 50220, Note_on_c, 7, 39, 61
12, 50279, Note_on_c, 7, 39, 0
12, 50280, Note_on_c, 7, 39, 66
12, 50339, Note_on_c, 7, 39, 0
12, 50340, Note_on_c, 7, 39, 70
12, 50399, Note_on_c, 7, 39, 0
12, 50400, Note_on_c, 7, 36, 75
12, 50459, Note_on_c, 7, 36, 0
12, 50460, Note_on_c, 7, 36, 79
12, 50519, Note_on_c, 7, 36, 0
12, 50520, Note_on_c, 7, 36, 84
12, 50579, Note_on_c, 7, 36, 0
12, 50580, Note_on_c, 7, 36, 88
12, 50640, Note_on_c, 7, 38, 89
12, 50649, Note_on_c, 7, 36, 0
12, 50700, Note_on_c, 7, 39, 93
12, 50709, Note_on_c, 7, 38, 0
12, 50759, Note_on_c, 7, 39, 0
12, 50760, Note_on_c, 7, 41, 98
12, 50819, Note_on_c, 7, 41, 0
12, 50820, Note_on_c, 7, 41, 102
12, 50879, Note_on_c, 7, 41, 0
12, 50880, Note_on_c, 7, 41, 113
12, 50939, Note_on_c, 7, 41, 0
12, 50940, Note_on_c, 7, 41, 117
12, 50999, Note_on_c, 7, 41, 0
12, 51000, Note_on_c, 7, 38, 123
12, 51059, Note_on_c, 7, 38, 0
12, 51060, Note_on_c, 7, 34, 125
12, 51119, Note_on_c, 7, 34, 0
12, 51120, Note_on_c, 7, 29, 127
12, 51179, Note_on_c, 7, 29, 0
12, 51180, Note_on_c, 7, 41, 127
12, 51239, Note_on_c, 7, 41, 0
12, 51240, Note_on_c, 7, 41, 127
12, 51299, Note_on_c, 7, 41, 0
12, 51300, Note_on_c, 7, 41, 127
12, 51359, Note_on_c, 7, 41, 0
12, 51360, Note_on_c, 7, 41, 127
12, 51419, Note_on_c, 7, 41, 0
12, 51420, Note_on_c, 7, 41, 127
12, 51479, Note_on_c, 7, 41, 0
12, 51480, Note_on_c, 7, 46, 96
12, 51539, Note_on_c, 7, 46, 0
12, 51840, Note_on_c, 7, 34, 96
12, 51899, Note_on_c, 7, 34, 0
12, 52200, Note_on_c, 7, 34, 96
12, 52259, Note_on_c, 7, 34, 0
12, 52560, Note_on_c, 7, 34, 96
12, 52619, Note_on_c, 7, 34, 0
12, 52680, Note_on_c, 7, 34, 96
12, 52739, Note_on_c, 7, 34, 0
12, 52800, Note_on_c, 7, 34, 96
12, 52859, Note_on_c, 7, 34, 0
12, 52920, Note_on_c, 7, 34, 96
12, 52949, Note_on_c, 7, 34, 0
12, 52950, Note_on_c, 7, 34, 48
12, 54600, Note_on_c, 7, 35, 32
12, 54609, Note_on_c, 7, 34, 0
12, 54720, Note_on_c, 7, 33, 32
12, 54729, Note_on_c, 7, 35, 0
12, 54960, Note_on_c, 7, 34, 96
12, 54969, Note_on_c, 7, 33, 0
12, 54989, Note_on_c, 7, 34, 0
12, 54990, Note_on_c, 7, 34, 48
12, 55079, Note_on_c, 7, 34, 0
12, 55080, Note_on_c, 7, 39, 48
12, 55199, Note_on_c, 7, 39, 0
12, 59400, Note_on_c, 7, 39, 32
12, 59519, Note_on_c, 7, 39, 0
12, 60720, Note_on_c, 7, 36, 48
12, 60840, Note_on_c, 7, 41, 48
12, 60849, Note_on_c, 7, 36, 0
12, 60960, Note_on_c, 7, 44, 48
12, 60969, Note_on_c, 7, 41, 0
12, 61080, Note_on_c, 7, 48, 48
12, 61089, Note_on_c, 7, 44, 0
12, 61199, Note_on_c, 7, 48, 0
12, 61200, Note_on_c, 7, 41, 48
12, 61319, Note_on_c, 7, 41, 0
12, 62040, Note_on_c, 7, 36, 48
12, 62160, Note_on_c, 7, 35, 64
12, 62169, Note_on_c, 7, 36, 0
12, 62280, Note_on_c, 7, 34, 96
12, 62289, Note_on_c, 7, 35, 0
12, 62309, Note_on_c, 7, 34, 0
12, 62310, Note_on_c, 7, 34, 48
12, 62879, Note_on_c, 7, 34, 0
12, 62880, Note_on_c, 7, 34, 48
12, 63119, Note_on_c, 7, 34, 0
12, 63120, Note_on_c, 7, 34, 96
12, 63359, Note_on_c, 7, 34, 0
12, 63360, Note_on_c, 7, 34, 96
12, 63599, Note_on_c, 7, 34, 0
12, 63600, Note_on_c, 7, 34, 96
12, 63719, Note_on_c, 7, 34, 0
12, 63720, Note_on_c, 7, 34, 96
12, 63749, Note_on_c, 7, 34, 0
12, 63750, Note_on_c, 7, 34, 48
12, 64319, Note_on_c, 7, 34, 0
12, 64320, Note_on_c, 7, 34, 96
12, 64440, Note_on_c, 7, 32, 90
12, 64449, Note_on_c, 7, 34, 0
12, 64559, Note_on_c, 7, 32, 0
12, 64560, Note_on_c, 7, 44, 96
12, 64799, Note_on_c, 7, 44, 0
12, 64800, Note_on_c, 7, 44, 96
12, 65039, Note_on_c, 7, 44, 0
12, 65040, Note_on_c, 7, 44, 96
12, 65279, Note_on_c, 7, 44, 0
12, 65280, Note_on_c, 7, 43, 96
12, 65519, Note_on_c, 7, 43, 0
12, 65520, Note_on_c, 7, 43, 96
12, 65759, Note_on_c, 7, 43, 0
12, 65760, Note_on_c, 7, 43, 96
12, 65999, Note_on_c, 7, 43, 0
12, 66000, Note_on_c, 7, 44, 90
12, 66059, Note_on_c, 7, 44, 0
12, 66120, Note_on_c, 7, 44, 96
12, 66359, Note_on_c, 7, 44, 0
12, 66360, Note_on_c, 7, 43, 96
12, 66419, Note_on_c, 7, 43, 0
12, 66480, Note_on_c, 7, 43, 96
12, 66600, Note_on_c, 7, 41, 96
12, 66609, Note_on_c, 7, 43, 0
12, 66659, Note_on_c, 7, 41, 0
12, 66660, Note_on_c, 7, 41, 99
12, 66689, Note_on_c, 7, 41, 0
12, 66720, Note_on_c, 7, 41, 102
12, 66749, Note_on_c, 7, 41, 0
12, 66780, Note_on_c, 7, 41, 105
12, 66809, Note_on_c, 7, 41, 0
12, 66840, Note_on_c, 7, 41, 107
12, 66869, Note_on_c, 7, 41, 0
12, 66900, Note_on_c, 7, 41, 110
12, 66929, Note_on_c, 7, 41, 0
12, 66960, Note_on_c, 7, 34, 112
12, 67019, Note_on_c, 7, 34, 0
12, 67020, Note_on_c, 7, 46, 115
12, 67079, Note_on_c, 7, 46, 0
12, 67080, Note_on_c, 7, 46, 117
12, 67139, Note_on_c, 7, 46, 0
12, 67140, Note_on_c, 7, 46, 120
12, 67199, Note_on_c, 7, 46, 0
12, 67200, Note_on_c, 7, 46, 123
12, 67259, Note_on_c, 7, 46, 0
12, 67260, Note_on_c, 7, 46, 125
12, 67319, Note_on_c, 7, 46, 0
12, 67320, Note_on_c, 7, 39, 127
12, 67560, Note_on_c, 7, 43, 127
12, 67569, Note_on_c, 7, 39, 0
12, 67680, Note_on_c, 7, 39, 127
12, 67689, Note_on_c, 7, 43, 0
12, 67920, Note_on_c, 7, 34, 127
12, 67929, Note_on_c, 7, 39, 0
12, 68039, Note_on_c, 7, 34, 0
12, 68040, Note_on_c, 7, 39, 127
12, 68160, Note_on_c, 7, 43, 127
12, 68169, Note_on_c, 7, 39, 0
12, 68280, Note_on_c, 7, 46, 127
12, 68289, Note_on_c, 7, 43, 0
12, 68399, Note_on_c, 7, 46, 0
12, 68400, Note_on_c, 7, 39, 127
12, 68639, Note_on_c, 7, 39, 0
12, 68640, Note_on_c, 7, 31, 127
12, 68759, Note_on_c, 7, 31, 0
12, 68760, Note_on_c, 7, 36, 127
12, 68880, Note_on_c, 7, 39, 127
12, 68889, Note_on_c, 7, 36, 0
12, 69000, Note_on_c, 7, 43, 127
12, 69009, Note_on_c, 7, 39, 0
12, 69119, Note_on_c, 7, 43, 0
12, 69120, Note_on_c, 7, 36, 127
12, 69359, Note_on_c, 7, 36, 0
12, 69360, Note_on_c, 7, 27, 127
12, 69479, Note_on_c, 7, 27, 0
12, 69480, Note_on_c, 7, 32, 127
12, 69539, Note_on_c, 7, 32, 0
12, 69540, Note_on_c, 7, 44, 127
12, 69599, Note_on_c, 7, 44, 0
12, 69600, Note_on_c, 7, 44, 127
12, 69659, Note_on_c, 7, 44, 0
12, 69660, Note_on_c, 7, 44, 127
12, 69719, Note_on_c, 7, 44, 0
12, 69720, Note_on_c, 7, 44, 127
12, 69779, Note_on_c, 7, 44, 0
12, 69780, Note_on_c, 7, 44, 127
12, 69839, Note_on_c, 7, 44, 0
12, 69840, Note_on_c, 7, 42, 127
12, 69899, Note_on_c, 7, 42, 0
12, 69900, Note_on_c, 7, 42, 127
12, 69959, Note_on_c, 7, 42, 0
12, 69960, Note_on_c, 7, 42, 127
12, 70019, Note_on_c, 7, 42, 0
12, 70020, Note_on_c, 7, 42, 127
12, 70079, Note_on_c, 7, 42, 0
12, 70080, Note_on_c, 7, 42, 127
12, 70139, Note_on_c, 7, 42, 0
12, 70140, Note_on_c, 7, 42, 127
12, 70199, Note_on_c, 7, 42, 0
12, 70200, Note_on_c, 7, 41, 127
12, 70319, Note_on_c, 7, 41, 0
12, 70920, Note_on_c, 7, 29, 48
12, 70979, Note_on_c, 7, 29, 0
12, 71040, Note_on_c, 7, 33, 48
12, 71099, Note_on_c, 7, 33, 0
12, 71160, Note_on_c, 7, 36, 48
12, 71219, Note_on_c, 7, 36, 0
12, 71280, Note_on_c, 7, 41, 48
12, 71339, Note_on_c, 7, 41, 0
12, 71400, Note_on_c, 7, 45, 48
12, 71459, Note_on_c, 7, 45, 0
12, 71520, Note_on_c, 7, 48, 48
12, 71579, Note_on_c, 7, 48, 0
12, 71640, Note_on_c, 7, 41, 48
12, 71759, Note_on_c, 7, 41, 0
12, 72360, Note_on_c, 7, 29, 48
12, 72419, Note_on_c, 7, 29, 0
12, 72480, Note_on_c, 7, 34, 48
12, 72539, Note_on_c, 7, 34, 0
12, 72600, Note_on_c, 7, 38, 48
12, 72659, Note_on_c, 7, 38, 0
12, 72720, Note_on_c, 7, 41, 48
12, 72779, Note_on_c, 7, 41, 0
12, 72840, Note_on_c, 7, 50, 48
12, 72899, Note_on_c, 7, 50, 0
12, 72960, Note_on_c, 7, 46, 48
12, 73019, Note_on_c, 7, 46, 0
12, 73080, Note_on_c, 7, 41, 48
12, 73199, Note_on_c, 7, 41, 0
12, 73920, Note_on_c, 7, 43, 127
12, 74099, Note_on_c, 7, 43, 0
12, 74100, Note_on_c, 7, 41, 127
12, 74159, Note_on_c, 7, 41, 0
12, 74160, Note_on_c, 7, 39, 127
12, 74219, Note_on_c, 7, 39, 0
12, 74280, Note_on_c, 7, 38, 127
12, 74339, Note_on_c, 7, 38, 0
12, 74400, Note_on_c, 7, 36, 127
12, 74459, Note_on_c, 7, 36, 0
12, 74520, Note_on_c, 7, 34, 48
12, 74639, Note_on_c, 7, 34, 0
12, 75960, Note_on_c, 7, 34, 56
12, 76709, Note_on_c, 7, 34, 0
12, 76740, Note_on_c, 7, 41, 74
12, 76769, Note_on_c, 7, 41, 0
12, 76800, Note_on_c, 7, 39, 76
12, 76829, Note_on_c, 7, 39, 0
12, 76860, Note_on_c, 7, 38, 78
12, 76889, Note_on_c, 7, 38, 0
12, 76920, Note_on_c, 7, 36, 80
12, 76949, Note_on_c, 7, 36, 0
12, 76980, Note_on_c, 7, 34, 82
12, 77009, Note_on_c, 7, 34, 0
12, 77040, Note_on_c, 7, 33, 84
12, 77069, Note_on_c, 7, 33, 0
12, 77100, Note_on_c, 7, 34, 86
12, 77129, Note_on_c, 7, 34, 0
12, 77160, Note_on_c, 7, 36, 88
12, 77189, Note_on_c, 7, 36, 0
12, 77220, Note_on_c, 7, 34, 90
12, 77249, Note_on_c, 7, 34, 0
12, 77280, Note_on_c, 7, 33, 92
12, 77309, Note_on_c, 7, 33, 0
12, 77340, Note_on_c, 7, 31, 94
12, 77369, Note_on_c, 7, 31, 0
12, 77400, Note_on_c, 7, 30, 96
12, 77459, Note_on_c, 7, 30, 0
12, 77520, Note_on_c, 7, 42, 96
12, 77579, Note_on_c, 7, 42, 0
12, 78060, Note_on_c, 7, 30, 96
12, 78089, Note_on_c, 7, 30, 0
12, 78120, Note_on_c, 7, 31, 96
12, 78179, Note_on_c, 7, 31, 0
12, 78240, Note_on_c, 7, 43, 96
12, 78299, Note_on_c, 7, 43, 0
12, 78780, Note_on_c, 7, 43, 96
12, 78809, Note_on_c, 7, 43, 0
12, 78840, Note_on_c, 7, 41, 96
12, 78899, Note_on_c, 7, 41, 0
12, 78960, Note_on_c, 7, 53, 96
12, 79019, Note_on_c, 7, 53, 0
12, 79380, Note_on_c, 7, 41, 96
12, 79409, Note_on_c, 7, 41, 0
12, 79440, Note_on_c, 7, 41, 96
12, 79469, Note_on_c, 7, 41, 0
12, 79500, Note_on_c, 7, 41, 96
12, 79529, Note_on_c, 7, 41, 0
12, 79560, Note_on_c, 7, 39, 96
12, 79589, Note_on_c, 7, 39, 0
12, 79620, Note_on_c, 7, 39, 96
12, 79739, Note_on_c, 7, 39, 0
12, 79740, Note_on_c, 7, 40, 96
12, 79769, Note_on_c, 7, 40, 0
12, 79800, Note_on_c, 7, 41, 96
12, 79829, Note_on_c, 7, 41, 0
12, 79860, Note_on_c, 7, 42, 96
12, 79889, Note_on_c, 7, 42, 0
12, 79920, Note_on_c, 7, 43, 96
12, 79949, Note_on_c, 7, 43, 0
12, 79980, Note_on_c, 7, 43, 96
12, 80099, Note_on_c, 7, 43, 0
12, 80100, Note_on_c, 7, 43, 96
12, 80129, Note_on_c, 7, 43, 0
12, 80160, Note_on_c, 7, 44, 96
12, 80189, Note_on_c, 7, 44, 0
12, 80220, Note_on_c, 7, 45, 96
12, 80249, Note_on_c, 7, 45, 0
12, 80280, Note_on_c, 7, 46, 96
12, 80339, Note_on_c, 7, 46, 0
12, 80340, Note_on_c, 7, 46, 96
12, 80399, Note_on_c, 7, 46, 0
12, 80400, Note_on_c, 7, 44, 96
12, 80459, Note_on_c, 7, 44, 0
12, 80460, Note_on_c, 7, 44, 96
12, 80519, Note_on_c, 7, 44, 0
12, 80520, Note_on_c, 7, 43, 96
12, 80579, Note_on_c, 7, 43, 0
12, 80580, Note_on_c, 7, 43, 96
12, 80639, Note_on_c, 7, 43, 0
12, 80640, Note_on_c, 7, 42, 96
12, 80699, Note_on_c, 7, 42, 0
12, 80700, Note_on_c, 7, 42, 96
12, 80759, Note_on_c, 7, 42, 0
12, 80760, Note_on_c, 7, 41, 96
12, 80819, Note_on_c, 7, 41, 0
12, 80820, Note_on_c, 7, 41, 96
12, 80879, Note_on_c, 7, 41, 0
12, 80880, Note_on_c, 7, 38, 96
12, 80939, Note_on_c, 7, 38, 0
12, 80940, Note_on_c, 7, 38, 96
12, 80999, Note_on_c, 7, 38, 0
12, 81000, Note_on_c, 7, 39, 96
12, 81059, Note_on_c, 7, 39, 0
12, 81060, Note_on_c, 7, 39, 96
12, 81119, Note_on_c, 7, 39, 0
12, 81120, Note_on_c, 7, 39, 96
12, 81179, Note_on_c, 7, 39, 0
12, 81180, Note_on_c, 7, 39, 96
12, 81239, Note_on_c, 7, 39, 0
12, 81240, Note_on_c, 7, 39, 96
12, 81299, Note_on_c, 7, 39, 0
12, 81300, Note_on_c, 7, 39, 96
12, 81359, Note_on_c, 7, 39, 0
12, 81360, Note_on_c, 7, 39, 96
12, 81419, Note_on_c, 7, 39, 0
12, 81420, Note_on_c, 7, 39, 96
12, 81479, Note_on_c, 7, 39, 0
12, 81480, Note_on_c, 7, 39, 96
12, 81539, Note_on_c, 7, 39, 0
12, 81540, Note_on_c, 7, 39, 96
12, 81599, Note_on_c, 7, 39, 0
12, 81600, Note_on_c, 7, 39, 96
12, 81659, Note_on_c, 7, 39, 0
12, 81660, Note_on_c, 7, 39, 96
12, 81719, Note_on_c, 7, 39, 0
12, 81720, Note_on_c, 7, 41, 96
12, 81779, Note_on_c, 7, 41, 0
12, 81780, Note_on_c, 7, 41, 96
12, 81839, Note_on_c, 7, 41, 0
12, 81840, Note_on_c, 7, 41, 96
12, 81899, Note_on_c, 7, 41, 0
12, 81900, Note_on_c, 7, 41, 96
12, 81959, Note_on_c, 7, 41, 0
12, 81960, Note_on_c, 7, 41, 96
12, 82019, Note_on_c, 7, 41, 0
12, 82020, Note_on_c, 7, 41, 96
12, 82079, Note_on_c, 7, 41, 0
12, 82080, Note_on_c, 7, 41, 96
12, 82139, Note_on_c, 7, 41, 0
12, 82140, Note_on_c, 7, 41, 96
12, 82199, Note_on_c, 7, 41, 0
12, 82200, Note_on_c, 7, 41, 96
12, 82259, Note_on_c, 7, 41, 0
12, 82260, Note_on_c, 7, 41, 96
12, 82319, Note_on_c, 7, 41, 0
12, 82320, Note_on_c, 7, 41, 96
12, 82379, Note_on_c, 7, 41, 0
12, 82380, Note_on_c, 7, 41, 96
12, 82439, Note_on_c, 7, 41, 0
12, 82440, Note_on_c, 7, 29, 96
12, 82499, Note_on_c, 7, 29, 0
12, 82500, Note_on_c, 7, 41, 96
12, 82559, Note_on_c, 7, 41, 0
12, 82560, Note_on_c, 7, 41, 96
12, 82619, Note_on_c, 7, 41, 0
12, 82620, Note_on_c, 7, 41, 96
12, 82679, Note_on_c, 7, 41, 0
12, 82680, Note_on_c, 7, 41, 96
12, 82739, Note_on_c, 7, 41, 0
12, 82740, Note_on_c, 7, 41, 96
12, 82799, Note_on_c, 7, 41, 0
12, 82800, Note_on_c, 7, 41, 96
12, 82859, Note_on_c, 7, 41, 0
12, 82860, Note_on_c, 7, 41, 96
12, 82919, Note_on_c, 7, 41, 0
12, 82920, Note_on_c, 7, 41, 96
12, 82979, Note_on_c, 7, 41, 0
12, 82980, Note_on_c, 7, 41, 96
12, 83039, Note_on_c, 7, 41, 0
12, 83040, Note_on_c, 7, 41, 96
12, 83099, Note_on_c, 7, 41, 0
12, 83100, Note_on_c, 7, 41, 96
12, 83159, Note_on_c, 7, 41, 0
12, 83160, Note_on_c, 7, 41, 127
12, 83189, Note_on_c, 7, 41, 0
12, 83220, Note_on_c, 7, 52, 127
12, 83249, Note_on_c, 7, 52, 0
12, 83280, Note_on_c, 7, 51, 127
12, 83309, Note_on_c, 7, 51, 0
12, 83340, Note_on_c, 7, 50, 127
12, 83369, Note_on_c, 7, 50, 0
12, 83400, Note_on_c, 7, 48, 127
12, 83429, Note_on_c, 7, 48, 0
12, 83460, Note_on_c, 7, 46, 127
12, 83489, Note_on_c, 7, 46, 0
12, 83520, Note_on_c, 7, 45, 127
12, 83549, Note_on_c, 7, 45, 0
12, 83580, Note_on_c, 7, 43, 127
12, 83609, Note_on_c, 7, 43, 0
12, 83640, Note_on_c, 7, 41, 127
12, 83669, Note_on_c, 7, 41, 0
12, 83700, Note_on_c, 7, 39, 127
12, 83729, Note_on_c, 7, 39, 0
12, 83760, Note_on_c, 7, 38, 127
12, 83789, Note_on_c, 7, 38, 0
12, 83820, Note_on_c, 7, 36, 127
12, 83849, Note_on_c, 7, 36, 0
12, 83880, Note_on_c, 7, 34, 127
12, 83999, Note_on_c, 7, 34, 0
12, 88320, Note_on_c, 7, 41, 48
12, 88440, Note_on_c, 7, 37, 48
12, 88449, Note_on_c, 7, 41, 0
12, 88560, Note_on_c, 7, 36, 54
12, 88569, Note_on_c, 7, 37, 0
12, 88800, Note_on_c, 7, 35, 54
12, 88809, Note_on_c, 7, 36, 0
12, 88920, Note_on_c, 7, 36, 48
12, 88929, Note_on_c, 7, 35, 0
12, 89039, Note_on_c, 7, 36, 0
12, 89760, Note_on_c, 7, 41, 32
12, 89819, Note_on_c, 7, 41, 0
12, 89880, Note_on_c, 7, 41, 32
12, 89939, Note_on_c, 7, 41, 0
12, 90120, Note_on_c, 7, 41, 32
12, 90179, Note_on_c, 7, 41, 0
12, 90240, Note_on_c, 7, 41, 32
12, 90299, Note_on_c, 7, 41, 0
12, 90480, Note_on_c, 7, 41, 32
12, 90539, Note_on_c, 7, 41, 0
12, 90600, Note_on_c, 7, 41, 32
12, 90659, Note_on_c, 7, 41, 0
12, 90720, Note_on_c, 7, 41, 32
12, 90779, Note_on_c, 7, 41, 0
12, 90840, Note_on_c, 7, 41, 32
12, 90899, Note_on_c, 7, 41, 0
12, 90960, Note_on_c, 7, 41, 32
12, 91019, Note_on_c, 7, 41, 0
12, 91080, Note_on_c, 7, 41, 32
12, 91139, Note_on_c, 7, 41, 0
12, 91140, Note_on_c, 7, 41, 32
12, 91199, Note_on_c, 7, 41, 0
12, 91200, Note_on_c, 7, 41, 32
12, 91259, Note_on_c, 7, 41, 0
12, 91260, Note_on_c, 7, 41, 32
12, 91319, Note_on_c, 7, 41, 0
12, 91320, Note_on_c, 7, 41, 32
12, 91379, Note_on_c, 7, 41, 0
12, 91380, Note_on_c, 7, 41, 32
12, 91439, Note_on_c, 7, 41, 0
12, 91440, Note_on_c, 7, 41, 32
12, 91499, Note_on_c, 7, 41, 0
12, 91500, Note_on_c, 7, 41, 32
12, 91559, Note_on_c, 7, 41, 0
12, 91560, Note_on_c, 7, 41, 32
12, 91619, Note_on_c, 7, 41, 0
12, 91620, Note_on_c, 7, 41, 32
12, 91679, Note_on_c, 7, 41, 0
12, 91680, Note_on_c, 7, 41, 32
12, 91739, Note_on_c, 7, 41, 0
12, 91740, Note_on_c, 7, 41, 32
12, 91799, Note_on_c, 7, 41, 0
12, 91800, Note_on_c, 7, 41, 34
12, 91859, Note_on_c, 7, 41, 0
12, 91860, Note_on_c, 7, 41, 37
12, 91919, Note_on_c, 7, 41, 0
12, 91920, Note_on_c, 7, 41, 40
12, 91979, Note_on_c, 7, 41, 0
12, 91980, Note_on_c, 7, 41, 43
12, 92039, Note_on_c, 7, 41, 0
12, 92040, Note_on_c, 7, 41, 46
12, 92099, Note_on_c, 7, 41, 0
12, 92100, Note_on_c, 7, 41, 48
12, 92159, Note_on_c, 7, 41, 0
12, 92160, Note_on_c, 7, 41, 50
12, 92219, Note_on_c, 7, 41, 0
12, 92220, Note_on_c, 7, 41, 53
12, 92279, Note_on_c, 7, 41, 0
12, 92280, Note_on_c, 7, 41, 56
12, 92339, Note_on_c, 7, 41, 0
12, 92340, Note_on_c, 7, 41, 59
12, 92399, Note_on_c, 7, 41, 0
12, 92400, Note_on_c, 7, 41, 62
12, 92459, Note_on_c, 7, 41, 0
12, 92460, Note_on_c, 7, 41, 64
12, 92519, Note_on_c, 7, 41, 0
12, 92520, Note_on_c, 7, 41, 66
12, 92579, Note_on_c, 7, 41, 0
12, 92580, Note_on_c, 7, 41, 69
12, 92639, Note_on_c, 7, 41, 0
12, 92640, Note_on_c, 7, 41, 72
12, 92699, Note_on_c, 7, 41, 0
12, 92700, Note_on_c, 7, 41, 75
12, 92759, Note_on_c, 7, 41, 0
12, 92760, Note_on_c, 7, 41, 78
12, 92819, Note_on_c, 7, 41, 0
12, 92820, Note_on_c, 7, 41, 80
12, 92879, Note_on_c, 7, 41, 0
12, 92880, Note_on_c, 7, 41, 82
12, 92939, Note_on_c, 7, 41, 0
12, 92940, Note_on_c, 7, 41, 85
12, 92999, Note_on_c, 7, 41, 0
12, 93000, Note_on_c, 7, 41, 88
12, 93059, Note_on_c, 7, 41, 0
12, 93060, Note_on_c, 7, 39, 91
12, 93119, Note_on_c, 7, 39, 0
12, 93120, Note_on_c, 7, 38, 93
12, 93179, Note_on_c, 7, 38, 0
12, 93180, Note_on_c, 7, 36, 95
12, 93239, Note_on_c, 7, 36, 0
12, 93240, Note_on_c, 7, 34, 96
12, 93299, Note_on_c, 7, 34, 0
12, 93300, Note_on_c, 7, 29, 96
12, 93359, Note_on_c, 7, 29, 0
12, 93360, Note_on_c, 7, 34, 96
12, 93419, Note_on_c, 7, 34, 0
12, 93420, Note_on_c, 7, 29, 96
12, 93479, Note_on_c, 7, 29, 0
12, 93480, Note_on_c, 7, 34, 96
12, 93539, Note_on_c, 7, 34, 0
12, 93540, Note_on_c, 7, 29, 96
12, 93599, Note_on_c, 7, 29, 0
12, 93600, Note_on_c, 7, 34, 96
12, 93659, Note_on_c, 7, 34, 0
12, 93660, Note_on_c, 7, 29, 96
12, 93719, Note_on_c, 7, 29, 0
12, 93720, Note_on_c, 7, 34, 112
12, 93779, Note_on_c, 7, 34, 0
12, 93780, Note_on_c, 7, 29, 96
12, 93839, Note_on_c, 7, 29, 0
12, 93840, Note_on_c, 7, 34, 96
12, 93899, Note_on_c, 7, 34, 0
12, 93900, Note_on_c, 7, 29, 96
12, 93959, Note_on_c, 7, 29, 0
12, 93960, Note_on_c, 7, 33, 96
12, 94019, Note_on_c, 7, 33, 0
12, 94020, Note_on_c, 7, 29, 96
12, 94079, Note_on_c, 7, 29, 0
12, 94080, Note_on_c, 7, 33, 112
12, 94139, Note_on_c, 7, 33, 0
12, 94140, Note_on_c, 7, 29, 96
12, 94199, Note_on_c, 7, 29, 0
12, 94200, Note_on_c, 7, 33, 96
12, 94259, Note_on_c, 7, 33, 0
12, 94260, Note_on_c, 7, 29, 96
12, 94319, Note_on_c, 7, 29, 0
12, 94320, Note_on_c, 7, 36, 96
12, 94379, Note_on_c, 7, 36, 0
12, 94380, Note_on_c, 7, 29, 96
12, 94439, Note_on_c, 7, 29, 0
12, 94440, Note_on_c, 7, 39, 112
12, 94499, Note_on_c, 7, 39, 0
12, 94500, Note_on_c, 7, 29, 96
12, 94559, Note_on_c, 7, 29, 0
12, 94560, Note_on_c, 7, 33, 96
12, 94619, Note_on_c, 7, 33, 0
12, 94620, Note_on_c, 7, 29, 96
12, 94679, Note_on_c, 7, 29, 0
12, 94680, Note_on_c, 7, 34, 127
12, 94739, Note_on_c, 7, 34, 0
12, 94740, Note_on_c, 7, 29, 127
12, 94799, Note_on_c, 7, 29, 0
12, 94800, Note_on_c, 7, 34, 127
12, 94859, Note_on_c, 7, 34, 0
12, 94860, Note_on_c, 7, 29, 127
12, 94919, Note_on_c, 7, 29, 0
12, 94920, Note_on_c, 7, 34, 127
12, 94979, Note_on_c, 7, 34, 0
12, 94980, Note_on_c, 7, 29, 127
12, 95039, Note_on_c, 7, 29, 0
12, 95040, Note_on_c, 7, 34, 127
12, 95099, Note_on_c, 7, 34, 0
12, 95100, Note_on_c, 7, 29, 127
12, 95159, Note_on_c, 7, 29, 0
12, 95160, Note_on_c, 7, 34, 127
12, 95219, Note_on_c, 7, 34, 0
12, 95220, Note_on_c, 7, 29, 127
12, 95279, Note_on_c, 7, 29, 0
12, 95280, Note_on_c, 7, 34, 127
12, 95339, Note_on_c, 7, 34, 0
12, 95340, Note_on_c, 7, 29, 127
12, 95399, Note_on_c, 7, 29, 0
12, 95400, Note_on_c, 7, 33, 127
12, 95459, Note_on_c, 7, 33, 0
12, 95460, Note_on_c, 7, 29, 127
12, 95519, Note_on_c, 7, 29, 0
12, 95520, Note_on_c, 7, 33, 127
12, 95579, Note_on_c, 7, 33, 0
12, 95580, Note_on_c, 7, 29, 127
12, 95639, Note_on_c, 7, 29, 0
12, 95640, Note_on_c, 7, 33, 127
12, 95699, Note_on_c, 7, 33, 0
12, 95700, Note_on_c, 7, 29, 127
12, 95759, Note_on_c, 7, 29, 0
12, 95760, Note_on_c, 7, 36, 127
12, 95819, Note_on_c, 7, 36, 0
12, 95820, Note_on_c, 7, 29, 127
12, 95879, Note_on_c, 7, 29, 0
12, 95880, Note_on_c, 7, 39, 127
12, 95939, Note_on_c, 7, 39, 0
12, 95940, Note_on_c, 7, 41, 127
12, 95999, Note_on_c, 7, 41, 0
12, 96000, Note_on_c, 7, 39, 127
12, 96059, Note_on_c, 7, 39, 0
12, 96060, Note_on_c, 7, 41, 127
12, 96119, Note_on_c, 7, 41, 0
12, 96120, Note_on_c, 7, 38, 127
12, 96420, Note_on_c, 7, 37, 127
12, 96429, Note_on_c, 7, 38, 0
12, 96479, Note_on_c, 7, 37, 0
12, 96480, Note_on_c, 7, 38, 127
12, 96509, Note_on_c, 7, 38, 0
12, 96540, Note_on_c, 7, 33, 127
12, 96569, Note_on_c, 7, 33, 0
12, 96600, Note_on_c, 7, 34, 127
12, 96629, Note_on_c, 7, 34, 0
12, 96660, Note_on_c, 7, 36, 127
12, 96689, Note_on_c, 7, 36, 0
12, 96720, Note_on_c, 7, 37, 127
12, 96749, Note_on_c, 7, 37, 0
12, 96780, Note_on_c, 7, 38, 127
12, 96809, Note_on_c, 7, 38, 0
12, 96840, Note_on_c, 7, 39, 127
12, 96869, Note_on_c, 7, 39, 0
12, 96900, Note_on_c, 7, 38, 127
12, 96929, Note_on_c, 7, 38, 0
12, 96960, Note_on_c, 7, 36, 127
12, 96989, Note_on_c, 7, 36, 0
12, 97020, Note_on_c, 7, 40, 127
12, 97049, Note_on_c, 7, 40, 0
12, 97080, Note_on_c, 7, 41, 127
12, 97109, Note_on_c, 7, 41, 0
12, 97140, Note_on_c, 7, 39, 127
12, 97169, Note_on_c, 7, 39, 0
12, 97200, Note_on_c, 7, 38, 127
12, 97229, Note_on_c, 7, 38, 0
12, 97260, Note_on_c, 7, 42, 127
12, 97289, Note_on_c, 7, 42, 0
12, 97320, Note_on_c, 7, 43, 127
12, 97349, Note_on_c, 7, 43, 0
12, 97380, Note_on_c, 7, 41, 127
12, 97409, Note_on_c, 7, 41, 0
12, 97440, Note_on_c, 7, 39, 127
12, 97469, Note_on_c, 7, 39, 0
12, 97500, Note_on_c, 7, 43, 127
12, 97529, Note_on_c, 7, 43, 0
12, 97560, Note_on_c, 7, 45, 127
12, 97589, Note_on_c, 7, 45, 0
12, 97620, Note_on_c, 7, 43, 127
12, 97649, Note_on_c, 7, 43, 0
12, 97680, Note_on_c, 7, 41, 127
12, 97709, Note_on_c, 7, 41, 0
12, 97740, Note_on_c, 7, 45, 127
12, 97769, Note_on_c, 7, 45, 0
12, 97800, Note_on_c, 7, 46, 127
12, 97829, Note_on_c, 7, 46, 0
12, 97860, Note_on_c, 7, 45, 127
12, 97889, Note_on_c, 7, 45, 0
12, 97920, Note_on_c, 7, 43, 127
12, 97949, Note_on_c, 7, 43, 0
12, 97980, Note_on_c, 7, 42, 127
12, 98009, Note_on_c, 7, 42, 0
12, 98040, Note_on_c, 7, 43, 127
12, 98069, Note_on_c, 7, 43, 0
12, 98100, Note_on_c, 7, 41, 127
12, 98129, Note_on_c, 7, 41, 0
12, 98160, Note_on_c, 7, 40, 127
12, 98189, Note_on_c, 7, 40, 0
12, 98220, Note_on_c, 7, 39, 127
12, 98249, Note_on_c, 7, 39, 0
12, 98280, Note_on_c, 7, 38, 127
12, 98339, Note_on_c, 7, 38, 0
12, 98400, Note_on_c, 7, 42, 127
12, 98459, Note_on_c, 7, 42, 0
12, 98520, Note_on_c, 7, 43, 127
12, 98579, Note_on_c, 7, 43, 0
12, 98760, Note_on_c, 7, 38, 127
12, 98819, Note_on_c, 7, 38, 0
12, 98880, Note_on_c, 7, 39, 127
12, 98939, Note_on_c, 7, 39, 0
12, 99120, Note_on_c, 7, 40, 127
12, 99179, Note_on_c, 7, 40, 0
12, 99240, Note_on_c, 7, 41, 127
12, 99299, Note_on_c, 7, 41, 0
12, 99480, Note_on_c, 7, 42, 127
12, 99539, Note_on_c, 7, 42, 0
12, 99600, Note_on_c, 7, 43, 127
12, 99659, Note_on_c, 7, 43, 0
12, 99840, Note_on_c, 7, 38, 127
12, 99899, Note_on_c, 7, 38, 0
12, 99960, Note_on_c, 7, 39, 127
12, 100019, Note_on_c, 7, 39, 0
12, 100200, Note_on_c, 7, 40, 127
12, 100259, Note_on_c, 7, 40, 0
12, 100440, Note_on_c, 7, 40, 127
12, 100499, Note_on_c, 7, 40, 0
12, 100680, Note_on_c, 7, 40, 127
12, 100739, Note_on_c, 7, 40, 0
12, 100920, Note_on_c, 7, 40, 127
12, 100979, Note_on_c, 7, 40, 0
12, 101160, Note_on_c, 7, 40, 127
12, 101219, Note_on_c, 7, 40, 0
12, 101400, Note_on_c, 7, 40, 127
12, 101459, Note_on_c, 7, 40, 0
12, 102960, Note_on_c, 7, 31, 48
12, 103079, Note_on_c, 7, 31, 0
12, 103320, Note_on_c, 7, 32, 48
12, 103439, Note_on_c, 7, 32, 0
12, 103680, Note_on_c, 7, 33, 48
12, 103799, Note_on_c, 7, 33, 0
12, 104040, Note_on_c, 7, 34, 48
12, 104159, Note_on_c, 7, 34, 0
12, 104400, Note_on_c, 7, 39, 48
12, 104459, Note_on_c, 7, 39, 0
12, 104460, Note_on_c, 7, 39, 52
12, 104519, Note_on_c, 7, 39, 0
12, 104520, Note_on_c, 7, 39, 57
12, 104579, Note_on_c, 7, 39, 0
12, 104580, Note_on_c, 7, 39, 61
12, 104639, Note_on_c, 7, 39, 0
12, 104640, Note_on_c, 7, 39, 66
12, 104699, Note_on_c, 7, 39, 0
12, 104700, Note_on_c, 7, 39, 70
12, 104759, Note_on_c, 7, 39, 0
12, 104760, Note_on_c, 7, 36, 75
12, 104819, Note_on_c, 7, 36, 0
12, 104820, Note_on_c, 7, 36, 79
12, 104879, Note_on_c, 7, 36, 0
12, 104880, Note_on_c, 7, 36, 84
12, 104939, Note_on_c, 7, 36, 0
12, 104940, Note_on_c, 7, 36, 88
12, 105000, Note_on_c, 7, 38, 89
12, 105009, Note_on_c, 7, 36, 0
12, 105060, Note_on_c, 7, 39, 93
12, 105069, Note_on_c, 7, 38, 0
12, 105119, Note_on_c, 7, 39, 0
12, 105120, Note_on_c, 7, 41, 98
12, 105179, Note_on_c, 7, 41, 0
12, 105180, Note_on_c, 7, 41, 102
12, 105239, Note_on_c, 7, 41, 0
12, 105240, Note_on_c, 7, 41, 113
12, 105299, Note_on_c, 7, 41, 0
12, 105300, Note_on_c, 7, 41, 117
12, 105359, Note_on_c, 7, 41, 0
12, 105360, Note_on_c, 7, 38, 123
12, 105419, Note_on_c, 7, 38, 0
12, 105420, Note_on_c, 7, 34, 125
12, 105479, Note_on_c, 7, 34, 0
12, 105480, Note_on_c, 7, 29, 127
12, 105539, Note_on_c, 7, 29, 0
12, 105540, Note_on_c, 7, 41, 127
12, 105599, Note_on_c, 7, 41, 0
12, 105600, Note_on_c, 7, 41, 127
12, 105659, Note_on_c, 7, 41, 0
12, 105660, Note_on_c, 7, 41, 127
12, 105719, Note_on_c, 7, 41, 0
12, 105720, Note_on_c, 7, 41, 127
12, 105779, Note_on_c, 7, 41, 0
12, 105780, Note_on_c, 7, 41, 127
12, 105839, Note_on_c, 7, 41, 0
12, 105840, Note_on_c, 7, 46, 96
12, 105899, Note_on_c, 7, 46, 0
12, 106200, Note_on_c, 7, 34, 96
12, 106259, Note_on_c, 7, 34, 0
12, 106560, Note_on_c, 7, 34, 96
12, 106619, Note_on_c, 7, 34, 0
12, 106920, Note_on_c, 7, 34, 96
12, 106979, Note_on_c, 7, 34, 0
12, 107040, Note_on_c, 7, 34, 96
12, 107099, Note_on_c, 7, 34, 0
12, 107160, Note_on_c, 7, 34, 96
12, 107219, Note_on_c, 7, 34, 0
12, 107280, Note_on_c, 7, 34, 96
12, 107309, Note_on_c, 7, 34, 0
12, 107310, Note_on_c, 7, 34, 48
12, 108960, Note_on_c, 7, 35, 32
12, 108969, Note_on_c, 7, 34, 0
12, 109080, Note_on_c, 7, 33, 32
12, 109089, Note_on_c, 7, 35, 0
12, 109320, Note_on_c, 7, 34, 32
12, 109329, Note_on_c, 7, 33, 0
12, 109439, Note_on_c, 7, 34, 0
12, 109440, Note_on_c, 7, 32, 32
12, 110159, Note_on_c, 7, 32, 0
12, 110160, Note_on_c, 7, 31, 32
12, 110879, Note_on_c, 7, 31, 0
12, 110880, Note_on_c, 7, 32, 32
12, 111599, Note_on_c, 7, 32, 0
12, 111600, Note_on_c, 7, 31, 32
12, 111719, Note_on_c, 7, 31, 0
12, 111960, Note_on_c, 7, 43, 32
12, 112079, Note_on_c, 7, 43, 0
12, 112320, Note_on_c, 7, 43, 32
12, 112439, Note_on_c, 7, 43, 0
12, 112680, Note_on_c, 7, 43, 32
12, 112799, Note_on_c, 7, 43, 0
12, 113040, Note_on_c, 7, 43, 32
12, 113159, Note_on_c, 7, 43, 0
12, 113400, Note_on_c, 7, 31, 80
12, 113519, Note_on_c, 7, 31, 0
12, 113760, Note_on_c, 7, 31, 48
12, 113879, Note_on_c, 7, 31, 0
12, 114480, Note_on_c, 7, 35, 48
12, 114599, Note_on_c, 7, 35, 0
12, 114840, Note_on_c, 7, 31, 48
12, 114959, Note_on_c, 7, 31, 0
12, 115200, Note_on_c, 7, 36, 48
12, 115319, Note_on_c, 7, 36, 0
12, 115920, Note_on_c, 7, 40, 48
12, 116039, Note_on_c, 7, 40, 0
12, 116280, Note_on_c, 7, 36, 48
12, 116399, Note_on_c, 7, 36, 0
12, 116640, Note_on_c, 7, 38, 48
12, 116759, Note_on_c, 7, 38, 0
12, 117000, Note_on_c, 7, 31, 96
12, 117029, Note_on_c, 7, 31, 0
12, 117030, Note_on_c, 7, 31, 48
12, 117419, Note_on_c, 7, 31, 0
12, 117420, Note_on_c, 7, 33, 48
12, 117449, Note_on_c, 7, 33, 0
12, 117480, Note_on_c, 7, 35, 48
12, 117509, Note_on_c, 7, 35, 0
12, 117540, Note_on_c, 7, 36, 48
12, 117569, Note_on_c, 7, 36, 0
12, 117600, Note_on_c, 7, 38, 48
12, 117629, Note_on_c, 7, 38, 0
12, 117660, Note_on_c, 7, 40, 48
12, 117689, Note_on_c, 7, 40, 0
12, 117720, Note_on_c, 7, 41, 48
12, 117749, Note_on_c, 7, 41, 0
12, 117780, Note_on_c, 7, 38, 48
12, 117809, Note_on_c, 7, 38, 0
12, 117840, Note_on_c, 7, 35, 48
12, 117869, Note_on_c, 7, 35, 0
12, 117900, Note_on_c, 7, 31, 48
12, 117929, Note_on_c, 7, 31, 0
12, 117960, Note_on_c, 7, 33, 48
12, 117989, Note_on_c, 7, 33, 0
12, 118020, Note_on_c, 7, 35, 48
12, 118049, Note_on_c, 7, 35, 0
12, 118080, Note_on_c, 7, 36, 32
12, 118320, Note_on_c, 7, 39, 32
12, 118329, Note_on_c, 7, 36, 0
12, 118440, Note_on_c, 7, 36, 32
12, 118449, Note_on_c, 7, 39, 0
12, 118680, Note_on_c, 7, 31, 32
12, 118689, Note_on_c, 7, 36, 0
12, 118799, Note_on_c, 7, 31, 0
12, 118800, Note_on_c, 7, 36, 32
12, 118919, Note_on_c, 7, 36, 0
12, 119400, Note_on_c, 7, 32, 48
12, 119519, Note_on_c, 7, 32, 0
12, 119520, Note_on_c, 7, 37, 48
12, 119760, Note_on_c, 7, 40, 48
12, 119769, Note_on_c, 7, 37, 0
12, 119880, Note_on_c, 7, 37, 48
12, 119889, Note_on_c, 7, 40, 0
12, 120120, Note_on_c, 7, 32, 48
12, 120129, Note_on_c, 7, 37, 0
12, 120239, Note_on_c, 7, 32, 0
12, 120240, Note_on_c, 7, 37, 48
12, 120359, Note_on_c, 7, 37, 0
12, 120840, Note_on_c, 7, 33, 96
12, 120959, Note_on_c, 7, 33, 0
12, 120960, Note_on_c, 7, 38, 127
12, 121200, Note_on_c, 7, 41, 127
12, 121209, Note_on_c, 7, 38, 0
12, 121320, Note_on_c, 7, 38, 127
12, 121329, Note_on_c, 7, 41, 0
12, 121560, Note_on_c, 7, 33, 127
12, 121569, Note_on_c, 7, 38, 0
12, 121679, Note_on_c, 7, 33, 0
12, 121680, Note_on_c, 7, 38, 127
12, 121920, Note_on_c, 7, 41, 127
12, 121929, Note_on_c, 7, 38, 0
12, 122040, Note_on_c, 7, 38, 127
12, 122049, Note_on_c, 7, 41, 0
12, 122280, Note_on_c, 7, 33, 127
12, 122289, Note_on_c, 7, 38, 0
12, 122399, Note_on_c, 7, 33, 0
12, 122400, Note_on_c, 7, 40, 127
12, 122640, Note_on_c, 7, 43, 127
12, 122649, Note_on_c, 7, 40, 0
12, 122760, Note_on_c, 7, 40, 127
12, 122769, Note_on_c, 7, 43, 0
12, 123000, Note_on_c, 7, 33, 127
12, 123009, Note_on_c, 7, 40, 0
12, 123119, Note_on_c, 7, 33, 0
12, 123120, Note_on_c, 7, 40, 127
12, 123360, Note_on_c, 7, 43, 127
12, 123369, Note_on_c, 7, 40, 0
12, 123479, Note_on_c, 7, 43, 0
12, 123480, Note_on_c, 7, 40, 127
12, 123720, Note_on_c, 7, 43, 127
12, 123729, Note_on_c, 7, 40, 0
12, 123839, Note_on_c, 7, 43, 0
12, 123840, Note_on_c, 7, 42, 48
12, 123869, Note_on_c, 7, 42, 0
12, 123900, Note_on_c, 7, 48, 48
12, 123929, Note_on_c, 7, 48, 0
12, 123960, Note_on_c, 7, 48, 48
12, 123989, Note_on_c, 7, 48, 0
12, 124260, Note_on_c, 7, 46, 48
12, 124289, Note_on_c, 7, 46, 0
12, 124320, Note_on_c, 7, 46, 48
12, 124349, Note_on_c, 7, 46, 0
12, 124560, Note_on_c, 7, 42, 48
12, 124679, Note_on_c, 7, 42, 0
12, 124980, Note_on_c, 7, 42, 94
12, 125039, Note_on_c, 7, 42, 0
12, 125040, Note_on_c, 7, 42, 101
12, 125099, Note_on_c, 7, 42, 0
12, 125100, Note_on_c, 7, 42, 107
12, 125159, Note_on_c, 7, 42, 0
12, 125160, Note_on_c, 7, 42, 114
12, 125219, Note_on_c, 7, 42, 0
12, 125220, Note_on_c, 7, 42, 120
12, 125279, Note_on_c, 7, 42, 0
12, 125280, Note_on_c, 7, 43, 127
12, 125520, Note_on_c, 7, 46, 127
12, 125529, Note_on_c, 7, 43, 0
12, 125640, Note_on_c, 7, 43, 127
12, 125649, Note_on_c, 7, 46, 0
12, 125880, Note_on_c, 7, 38, 127
12, 125889, Note_on_c, 7, 43, 0
12, 125999, Note_on_c, 7, 38, 0
12, 126000, Note_on_c, 7, 43, 127
12, 126240, Note_on_c, 7, 46, 127
12, 126249, Note_on_c, 7, 43, 0
12, 126360, Note_on_c, 7, 43, 127
12, 126369, Note_on_c, 7, 46, 0
12, 126600, Note_on_c, 7, 38, 127
12, 126609, Note_on_c, 7, 43, 0
12, 126719, Note_on_c, 7, 38, 0
12, 126720, Note_on_c, 7, 45, 127
12, 126960, Note_on_c, 7, 48, 127
12, 126969, Note_on_c, 7, 45, 0
12, 127080, Note_on_c, 7, 45, 127
12, 127089, Note_on_c, 7, 48, 0
12, 127320, Note_on_c, 7, 38, 127
12, 127329, Note_on_c, 7, 45, 0
12, 127439, Note_on_c, 7, 38, 0
12, 127440, Note_on_c, 7, 45, 127
12, 127680, Note_on_c, 7, 48, 127
12, 127689, Note_on_c, 7, 45, 0
12, 127799, Note_on_c, 7, 48, 0
12, 127800, Note_on_c, 7, 45, 127
12, 128040, Note_on_c, 7, 48, 127
12, 128049, Note_on_c, 7, 45, 0
12, 128159, Note_on_c, 7, 48, 0
12, 128160, Note_on_c, 7, 47, 48
12, 128189, Note_on_c, 7, 47, 0
12, 128220, Note_on_c, 7, 53, 48
12, 128249, Note_on_c, 7, 53, 0
12, 128280, Note_on_c, 7, 53, 48
12, 128309, Note_on_c, 7, 53, 0
12, 128580, Note_on_c, 7, 51, 48
12, 128609, Note_on_c, 7, 51, 0
12, 128640, Note_on_c, 7, 51, 48
12, 128669, Note_on_c, 7, 51, 0
12, 128880, Note_on_c, 7, 47, 48
12, 128999, Note_on_c, 7, 47, 0
12, 129300, Note_on_c, 7, 47, 94
12, 129359, Note_on_c, 7, 47, 0
12, 129360, Note_on_c, 7, 47, 101
12, 129419, Note_on_c, 7, 47, 0
12, 129420, Note_on_c, 7, 47, 107
12, 129479, Note_on_c, 7, 47, 0
12, 129480, Note_on_c, 7, 47, 114
12, 129539, Note_on_c, 7, 47, 0
12, 129540, Note_on_c, 7, 47, 120
12, 129599, Note_on_c, 7, 47, 0
12, 129600, Note_on_c, 7, 46, 48
12, 129629, Note_on_c, 7, 46, 0
12, 129660, Note_on_c, 7, 46, 48
12, 129689, Note_on_c, 7, 46, 0
12, 129720, Note_on_c, 7, 46, 48
12, 129749, Note_on_c, 7, 46, 0
12, 130020, Note_on_c, 7, 44, 48
12, 130049, Note_on_c, 7, 44, 0
12, 130080, Note_on_c, 7, 44, 48
12, 130109, Note_on_c, 7, 44, 0
12, 130370, Note_on_c, 7, 40, 48
12, 130399, Note_on_c, 7, 40, 0
12, 130440, Note_on_c, 7, 40, 52
12, 130469, Note_on_c, 7, 40, 0
12, 130740, Note_on_c, 7, 40, 76
12, 130769, Note_on_c, 7, 40, 0
12, 130800, Note_on_c, 7, 40, 80
12, 130829, Note_on_c, 7, 40, 0
12, 130860, Note_on_c, 7, 40, 84
12, 130889, Note_on_c, 7, 40, 0
12, 130920, Note_on_c, 7, 40, 88
12, 130949, Note_on_c, 7, 40, 0
12, 130980, Note_on_c, 7, 40, 92
12, 131009, Note_on_c, 7, 40, 0
12, 131040, Note_on_c, 7, 39, 96
12, 131069, Note_on_c, 7, 39, 0
12, 131100, Note_on_c, 7, 51, 96
12, 131129, Note_on_c, 7, 51, 0
12, 131160, Note_on_c, 7, 51, 96
12, 131189, Note_on_c, 7, 51, 0
12, 131460, Note_on_c, 7, 49, 96
12, 131489, Note_on_c, 7, 49, 0
12, 131520, Note_on_c, 7, 49, 96
12, 131549, Note_on_c, 7, 49, 0
12, 131820, Note_on_c, 7, 49, 96
12, 131849, Note_on_c, 7, 49, 0
12, 131880, Note_on_c, 7, 49, 96
12, 131909, Note_on_c, 7, 49, 0
12, 132180, Note_on_c, 7, 36, 96
12, 132209, Note_on_c, 7, 36, 0
12, 132240, Note_on_c, 7, 36, 96
12, 132269, Note_on_c, 7, 36, 0
12, 132480, Note_on_c, 7, 29, 127
12, 132539, Note_on_c, 7, 29, 0
12, 132540, Note_on_c, 7, 41, 127
12, 132599, Note_on_c, 7, 41, 0
12, 132600, Note_on_c, 7, 41, 127
12, 132659, Note_on_c, 7, 41, 0
12, 132660, Note_on_c, 7, 41, 127
12, 132719, Note_on_c, 7, 41, 0
12, 132720, Note_on_c, 7, 41, 127
12, 132779, Note_on_c, 7, 41, 0
12, 132780, Note_on_c, 7, 41, 127
12, 132839, Note_on_c, 7, 41, 0
12, 132840, Note_on_c, 7, 40, 127
12, 132899, Note_on_c, 7, 40, 0
12, 132900, Note_on_c, 7, 40, 127
12, 132959, Note_on_c, 7, 40, 0
12, 132960, Note_on_c, 7, 40, 127
12, 133019, Note_on_c, 7, 40, 0
12, 133020, Note_on_c, 7, 40, 127
12, 133079, Note_on_c, 7, 40, 0
12, 133080, Note_on_c, 7, 40, 127
12, 133139, Note_on_c, 7, 40, 0
12, 133140, Note_on_c, 7, 40, 127
12, 133199, Note_on_c, 7, 40, 0
12, 133200, Note_on_c, 7, 39, 127
12, 133319, Note_on_c, 7, 39, 0
12, 133920, Note_on_c, 7, 43, 48
12, 134039, Note_on_c, 7, 43, 0
12, 134280, Note_on_c, 7, 39, 48
12, 134399, Note_on_c, 7, 39, 0
12, 134640, Note_on_c, 7, 44, 48
12, 134759, Note_on_c, 7, 44, 0
12, 135360, Note_on_c, 7, 48, 48
12, 135479, Note_on_c, 7, 48, 0
12, 135720, Note_on_c, 7, 44, 48
12, 135839, Note_on_c, 7, 44, 0
12, 136080, Note_on_c, 7, 43, 48
12, 136199, Note_on_c, 7, 43, 0
12, 136800, Note_on_c, 7, 39, 96
12, 136829, Note_on_c, 7, 39, 0
12, 136830, Note_on_c, 7, 39, 48
12, 137219, Note_on_c, 7, 39, 0
12, 137220, Note_on_c, 7, 41, 48
12, 137249, Note_on_c, 7, 41, 0
12, 137280, Note_on_c, 7, 39, 48
12, 137309, Note_on_c, 7, 39, 0
12, 137340, Note_on_c, 7, 37, 48
12, 137369, Note_on_c, 7, 37, 0
12, 137400, Note_on_c, 7, 36, 48
12, 137429, Note_on_c, 7, 36, 0
12, 137460, Note_on_c, 7, 34, 48
12, 137489, Note_on_c, 7, 34, 0
12, 137520, Note_on_c, 7, 32, 48
12, 137639, Note_on_c, 7, 32, 0
12, 137640, Note_on_c, 7, 49, 48
12, 137820, Note_on_c, 7, 48, 48
12, 137829, Note_on_c, 7, 49, 0
12, 137879, Note_on_c, 7, 48, 0
12, 137880, Note_on_c, 7, 47, 48
12, 137939, Note_on_c, 7, 47, 0
12, 138000, Note_on_c, 7, 48, 48
12, 138180, Note_on_c, 7, 41, 48
12, 138189, Note_on_c, 7, 48, 0
12, 138239, Note_on_c, 7, 41, 0
12, 138240, Note_on_c, 7, 40, 48
12, 138299, Note_on_c, 7, 40, 0
12, 138360, Note_on_c, 7, 46, 48
12, 138540, Note_on_c, 7, 43, 48
12, 138549, Note_on_c, 7, 46, 0
12, 138599, Note_on_c, 7, 43, 0
12, 138600, Note_on_c, 7, 40, 48
12, 138659, Note_on_c, 7, 40, 0
12, 138720, Note_on_c, 7, 43, 48
12, 138900, Note_on_c, 7, 36, 48
12, 138909, Note_on_c, 7, 43, 0
12, 138959, Note_on_c, 7, 36, 0
12, 138960, Note_on_c, 7, 41, 48
12, 139079, Note_on_c, 7, 41, 0
12, 141060, Note_on_c, 7, 36, 48
12, 141119, Note_on_c, 7, 36, 0
12, 141120, Note_on_c, 7, 34, 48
12, 141239, Note_on_c, 7, 34, 0
12, 141240, Note_on_c, 7, 43, 96
12, 141419, Note_on_c, 7, 43, 0
12, 141420, Note_on_c, 7, 34, 48
12, 141479, Note_on_c, 7, 34, 0
12, 141480, Note_on_c, 7, 33, 50
12, 141509, Note_on_c, 7, 33, 0
12, 141540, Note_on_c, 7, 42, 53
12, 141569, Note_on_c, 7, 42, 0
12, 141600, Note_on_c, 7, 31, 55
12, 141629, Note_on_c, 7, 31, 0
12, 141660, Note_on_c, 7, 43, 58
12, 141689, Note_on_c, 7, 43, 0
12, 141720, Note_on_c, 7, 39, 60
12, 141749, Note_on_c, 7, 39, 0
12, 141780, Note_on_c, 7, 38, 63
12, 141809, Note_on_c, 7, 38, 0
12, 141840, Note_on_c, 7, 37, 65
12, 141959, Note_on_c, 7, 37, 0
12, 142200, Note_on_c, 7, 38, 80
12, 142319, Note_on_c, 7, 38, 0
12, 142380, Note_on_c, 7, 38, 88
12, 142410, Note_on_c, 7, 37, 89
12, 142419, Note_on_c, 7, 38, 0
12, 142439, Note_on_c, 7, 37, 0
12, 142440, Note_on_c, 7, 38, 90
12, 142469, Note_on_c, 7, 38, 0
12, 142500, Note_on_c, 7, 36, 93
12, 142529, Note_on_c, 7, 36, 0
12, 142560, Note_on_c, 7, 35, 95
12, 142679, Note_on_c, 7, 35, 0
12, 142740, Note_on_c, 7, 37, 102
12, 142770, Note_on_c, 7, 34, 104
12, 142779, Note_on_c, 7, 37, 0
12, 142799, Note_on_c, 7, 34, 0
12, 142800, Note_on_c, 7, 37, 105
12, 142829, Note_on_c, 7, 37, 0
12, 142860, Note_on_c, 7, 33, 108
12, 142889, Note_on_c, 7, 33, 0
12, 142920, Note_on_c, 7, 38, 110
12, 142949, Note_on_c, 7, 38, 0
12, 142980, Note_on_c, 7, 38, 113
12, 143010, Note_on_c, 7, 37, 114
12, 143019, Note_on_c, 7, 38, 0
12, 143039, Note_on_c, 7, 37, 0
12, 143040, Note_on_c, 7, 38, 115
12, 143069, Note_on_c, 7, 38, 0
12, 143100, Note_on_c, 7, 36, 118
12, 143129, Note_on_c, 7, 36, 0
12, 143160, Note_on_c, 7, 34, 120
12, 143189, Note_on_c, 7, 34, 0
12, 143220, Note_on_c, 7, 33, 123
12, 143249, Note_on_c, 7, 33, 0
12, 143280, Note_on_c, 7, 32, 125
12, 143399, Note_on_c, 7, 32, 0
12, 143400, Note_on_c, 7, 38, 127
12, 144119, Note_on_c, 7, 38, 0
12, 144120, Note_on_c, 7, 38, 127
12, 144359, Note_on_c, 7, 38, 0
12, 144360, Note_on_c, 7, 38, 127
12, 144599, Note_on_c, 7, 38, 0
12, 144600, Note_on_c, 7, 38, 127
12, 144839, Note_on_c, 7, 38, 0
12, 144840, Note_on_c, 7, 38, 127
12, 145079, Note_on_c, 7, 38, 0
12, 145080, Note_on_c, 7, 38, 127
12, 145319, Note_on_c, 7, 38, 0
12, 145320, Note_on_c, 7, 38, 127
12, 145439, Note_on_c, 7, 38, 0
12, 145440, Note_on_c, 7, 24, 127
12, 145440, Note_on_c, 7, 36, 127
12, 145499, Note_on_c, 7, 36, 0
12, 145499, Note_on_c, 7, 24, 0
12, 145560, Note_on_c, 7, 36, 127
12, 146279, Note_on_c, 7, 36, 0
12, 146280, Note_on_c, 7, 36, 127
12, 146519, Note_on_c, 7, 36, 0
12, 146520, Note_on_c, 7, 36, 127
12, 146759, Note_on_c, 7, 36, 0
12, 146760, Note_on_c, 7, 36, 127
12, 146999, Note_on_c, 7, 36, 0
12, 147000, Note_on_c, 7, 36, 127
12, 147239, Note_on_c, 7, 36, 0
12, 147240, Note_on_c, 7, 36, 127
12, 147479, Note_on_c, 7, 36, 0
12, 147480, Note_on_c, 7, 36, 127
12, 147599, Note_on_c, 7, 36, 0
12, 147600, Note_on_c, 7, 35, 127
12, 147659, Note_on_c, 7, 35, 0
12, 147720, Note_on_c, 7, 47, 127
12, 148439, Note_on_c, 7, 47, 0
12, 148440, Note_on_c, 7, 35, 127
12, 148679, Note_on_c, 7, 35, 0
12, 148680, Note_on_c, 7, 35, 127
12, 148919, Note_on_c, 7, 35, 0
12, 148920, Note_on_c, 7, 35, 127
12, 149159, Note_on_c, 7, 35, 0
12, 149160, Note_on_c, 7, 35, 127
12, 149399, Note_on_c, 7, 35, 0
12, 149400, Note_on_c, 7, 35, 127
12, 149639, Note_on_c, 7, 35, 0
12, 149640, Note_on_c, 7, 35, 127
12, 149759, Note_on_c, 7, 35, 0
12, 149760, Note_on_c, 7, 34, 127
12, 149819, Note_on_c, 7, 34, 0
12, 149880, Note_on_c, 7, 46, 127
12, 150599, Note_on_c, 7, 46, 0
12, 150600, Note_on_c, 7, 46, 127
12, 150839, Note_on_c, 7, 46, 0
12, 150840, Note_on_c, 7, 46, 127
12, 151079, Note_on_c, 7, 46, 0
12, 151080, Note_on_c, 7, 46, 127
12, 151319, Note_on_c, 7, 46, 0
12, 151320, Note_on_c, 7, 46, 127
12, 151559, Note_on_c, 7, 46, 0
12, 151560, Note_on_c, 7, 46, 127
12, 151799, Note_on_c, 7, 46, 0
12, 151800, Note_on_c, 7, 46, 127
12, 151919, Note_on_c, 7, 46, 0
12, 151920, Note_on_c, 7, 33, 127
12, 151979, Note_on_c, 7, 33, 0
12, 152040, Note_on_c, 7, 45, 127
12, 152279, Note_on_c, 7, 45, 0
12, 152280, Note_on_c, 7, 45, 127
12, 152519, Note_on_c, 7, 45, 0
12, 152520, Note_on_c, 7, 45, 127
12, 152639, Note_on_c, 7, 45, 0
12, 152640, Note_on_c, 7, 31, 127
12, 152699, Note_on_c, 7, 31, 0
12, 152760, Note_on_c, 7, 43, 127
12, 152999, Note_on_c, 7, 43, 0
12, 153000, Note_on_c, 7, 43, 127
12, 153239, Note_on_c, 7, 43, 0
12, 153240, Note_on_c, 7, 43, 127
12, 153299, Note_on_c, 7, 43, 0
12, 153360, Note_on_c, 7, 33, 127
12, 153419, Note_on_c, 7, 33, 0
12, 153480, Note_on_c, 7, 45, 96
12, 153719, Note_on_c, 7, 45, 0
12, 153840, Note_on_c, 7, 45, 96
12, 154079, Note_on_c, 7, 45, 0
12, 154200, Note_on_c, 7, 45, 96
12, 154439, Note_on_c, 7, 45, 0
12, 154440, Note_on_c, 7, 45, 96
12, 154679, Note_on_c, 7, 45, 0
12, 154680, Note_on_c, 7, 45, 96
12, 154739, Note_on_c, 7, 45, 0
12, 154920, Note_on_c, 7, 35, 96
12, 154979, Note_on_c, 7, 35, 0
12, 155040, Note_on_c, 7, 35, 96
12, 155099, Note_on_c, 7, 35, 0
12, 155160, Note_on_c, 7, 35, 96
12, 155219, Note_on_c, 7, 35, 0
12, 155280, Note_on_c, 7, 35, 88
12, 155339, Note_on_c, 7, 35, 0
12, 155400, Note_on_c, 7, 35, 80
12, 155459, Note_on_c, 7, 35, 0
12, 155520, Note_on_c, 7, 35, 72
12, 155579, Note_on_c, 7, 35, 0
12, 155640, Note_on_c, 7, 35, 64
12, 155699, Note_on_c, 7, 35, 0
12, 155760, Note_on_c, 7, 35, 56
12, 155819, Note_on_c, 7, 35, 0
12, 155880, Note_on_c, 7, 35, 48
12, 155939, Note_on_c, 7, 35, 0
12, 156000, Note_on_c, 7, 35, 48
12, 156059, Note_on_c, 7, 35, 0
12, 156120, Note_on_c, 7, 35, 48
12, 156179, Note_on_c, 7, 35, 0
12, 156240, Note_on_c, 7, 40, 48
12, 156359, Note_on_c, 7, 40, 0
12, 161700, Note_on_c, 7, 40, 56
12, 161760, Note_on_c, 7, 43, 64
12, 161769, Note_on_c, 7, 40, 0
12, 161820, Note_on_c, 7, 41, 72
12, 161829, Note_on_c, 7, 43, 0
12, 161880, Note_on_c, 7, 40, 80
12, 161889, Note_on_c, 7, 41, 0
12, 161940, Note_on_c, 7, 38, 88
12, 161949, Note_on_c, 7, 40, 0
12, 161999, Note_on_c, 7, 38, 0
12, 162000, Note_on_c, 7, 36, 96
12, 162240, Note_on_c, 7, 40, 96
12, 162249, Note_on_c, 7, 36, 0
12, 162360, Note_on_c, 7, 36, 96
12, 162369, Note_on_c, 7, 40, 0
12, 162600, Note_on_c, 7, 31, 96
12, 162609, Note_on_c, 7, 36, 0
12, 162719, Note_on_c, 7, 31, 0
12, 162720, Note_on_c, 7, 36, 96
12, 162779, Note_on_c, 7, 36, 0
12, 162840, Note_on_c, 7, 40, 96
12, 162899, Note_on_c, 7, 40, 0
12, 162960, Note_on_c, 7, 43, 96
12, 163019, Note_on_c, 7, 43, 0
12, 163080, Note_on_c, 7, 36, 96
12, 163320, Note_on_c, 7, 31, 96
12, 163329, Note_on_c, 7, 36, 0
12, 163439, Note_on_c, 7, 31, 0
12, 163440, Note_on_c, 7, 36, 96
12, 163499, Note_on_c, 7, 36, 0
12, 163560, Note_on_c, 7, 40, 96
12, 163619, Note_on_c, 7, 40, 0
12, 163680, Note_on_c, 7, 43, 96
12, 163739, Note_on_c, 7, 43, 0
12, 163800, Note_on_c, 7, 48, 96
12, 163859, Note_on_c, 7, 48, 0
12, 163920, Note_on_c, 7, 52, 96
12, 163979, Note_on_c, 7, 52, 0
12, 164040, Note_on_c, 7, 55, 112
12, 164219, Note_on_c, 7, 55, 0
12, 164220, Note_on_c, 7, 53, 96
12, 164249, Note_on_c, 7, 53, 0
12, 164280, Note_on_c, 7, 50, 96
12, 164309, Note_on_c, 7, 50, 0
12, 164340, Note_on_c, 7, 47, 96
12, 164369, Note_on_c, 7, 47, 0
12, 164400, Note_on_c, 7, 43, 96
12, 164429, Note_on_c, 7, 43, 0
12, 164460, Note_on_c, 7, 41, 96
12, 164489, Note_on_c, 7, 41, 0
12, 164520, Note_on_c, 7, 38, 96
12, 164549, Note_on_c, 7, 38, 0
12, 164580, Note_on_c, 7, 41, 96
12, 164609, Note_on_c, 7, 41, 0
12, 164640, Note_on_c, 7, 38, 96
12, 164669, Note_on_c, 7, 38, 0
12, 164700, Note_on_c, 7, 35, 96
12, 164729, Note_on_c, 7, 35, 0
12, 164760, Note_on_c, 7, 31, 96
12, 164789, Note_on_c, 7, 31, 0
12, 164820, Note_on_c, 7, 35, 96
12, 164849, Note_on_c, 7, 35, 0
12, 164880, Note_on_c, 7, 36, 96
12, 164939, Note_on_c, 7, 36, 0
12, 165000, Note_on_c, 7, 39, 96
12, 165059, Note_on_c, 7, 39, 0
12, 165120, Note_on_c, 7, 43, 96
12, 165179, Note_on_c, 7, 43, 0
12, 165240, Note_on_c, 7, 48, 96
12, 165299, Note_on_c, 7, 48, 0
12, 165360, Note_on_c, 7, 51, 96
12, 165419, Note_on_c, 7, 51, 0
12, 165480, Note_on_c, 7, 55, 112
12, 165659, Note_on_c, 7, 55, 0
12, 165660, Note_on_c, 7, 53, 96
12, 165689, Note_on_c, 7, 53, 0
12, 165720, Note_on_c, 7, 50, 96
12, 165749, Note_on_c, 7, 50, 0
12, 165780, Note_on_c, 7, 47, 96
12, 165809, Note_on_c, 7, 47, 0
12, 165840, Note_on_c, 7, 43, 96
12, 165869, Note_on_c, 7, 43, 0
12, 165900, Note_on_c, 7, 41, 96
12, 165929, Note_on_c, 7, 41, 0
12, 165960, Note_on_c, 7, 38, 96
12, 165989, Note_on_c, 7, 38, 0
12, 166020, Note_on_c, 7, 41, 96
12, 166049, Note_on_c, 7, 41, 0
12, 166080, Note_on_c, 7, 38, 96
12, 166109, Note_on_c, 7, 38, 0
12, 166140, Note_on_c, 7, 35, 96
12, 166169, Note_on_c, 7, 35, 0
12, 166200, Note_on_c, 7, 31, 96
12, 166229, Note_on_c, 7, 31, 0
12, 166260, Note_on_c, 7, 35, 96
12, 166289, Note_on_c, 7, 35, 0
12, 166320, Note_on_c, 7, 36, 96
12, 166440, Note_on_c, 7, 39, 96
12, 166449, Note_on_c, 7, 36, 0
12, 166560, Note_on_c, 7, 43, 96
12, 166569, Note_on_c, 7, 39, 0
12, 166679, Note_on_c, 7, 43, 0
12, 166680, Note_on_c, 7, 44, 112
12, 166920, Note_on_c, 7, 36, 96
12, 166929, Note_on_c, 7, 44, 0
12, 167039, Note_on_c, 7, 36, 0
12, 167040, Note_on_c, 7, 37, 96
12, 167160, Note_on_c, 7, 41, 96
12, 167169, Note_on_c, 7, 37, 0
12, 167280, Note_on_c, 7, 45, 96
12, 167289, Note_on_c, 7, 41, 0
12, 167399, Note_on_c, 7, 45, 0
12, 167400, Note_on_c, 7, 46, 112
12, 167640, Note_on_c, 7, 38, 96
12, 167649, Note_on_c, 7, 46, 0
12, 167759, Note_on_c, 7, 38, 0
12, 167760, Note_on_c, 7, 39, 96
12, 167819, Note_on_c, 7, 39, 0
12, 167880, Note_on_c, 7, 31, 96
12, 167939, Note_on_c, 7, 31, 0
12, 168000, Note_on_c, 7, 34, 96
12, 168059, Note_on_c, 7, 34, 0
12, 168120, Note_on_c, 7, 39, 96
12, 168179, Note_on_c, 7, 39, 0
12, 168240, Note_on_c, 7, 43, 96
12, 168299, Note_on_c, 7, 43, 0
12, 168360, Note_on_c, 7, 46, 112
12, 168539, Note_on_c, 7, 46, 0
12, 168540, Note_on_c, 7, 44, 96
12, 168569, Note_on_c, 7, 44, 0
12, 168600, Note_on_c, 7, 41, 96
12, 168629, Note_on_c, 7, 41, 0
12, 168660, Note_on_c, 7, 38, 96
12, 168689, Note_on_c, 7, 38, 0
12, 168720, Note_on_c, 7, 34, 96
12, 168749, Note_on_c, 7, 34, 0
12, 168780, Note_on_c, 7, 32, 96
12, 168809, Note_on_c, 7, 32, 0
12, 168840, Note_on_c, 7, 29, 96
12, 168869, Note_on_c, 7, 29, 0
12, 168900, Note_on_c, 7, 44, 96
12, 168929, Note_on_c, 7, 44, 0
12, 168960, Note_on_c, 7, 41, 96
12, 168989, Note_on_c, 7, 41, 0
12, 169020, Note_on_c, 7, 38, 96
12, 169049, Note_on_c, 7, 38, 0
12, 169080, Note_on_c, 7, 34, 96
12, 169109, Note_on_c, 7, 34, 0
12, 169140, Note_on_c, 7, 38, 96
12, 169169, Note_on_c, 7, 38, 0
12, 169200, Note_on_c, 7, 39, 127
12, 169259, Note_on_c, 7, 39, 0
12, 169320, Note_on_c, 7, 30, 127
12, 169379, Note_on_c, 7, 30, 0
12, 169440, Note_on_c, 7, 34, 127
12, 169499, Note_on_c, 7, 34, 0
12, 169560, Note_on_c, 7, 39, 127
12, 169619, Note_on_c, 7, 39, 0
12, 169680, Note_on_c, 7, 42, 127
12, 169739, Note_on_c, 7, 42, 0
12, 169800, Note_on_c, 7, 46, 127
12, 169859, Note_on_c, 7, 46, 0
12, 169920, Note_on_c, 7, 51, 127
12, 170039, Note_on_c, 7, 51, 0
12, 171840, Note_on_c, 7, 39, 40
12, 171959, Note_on_c, 7, 39, 0
12, 171960, Note_on_c, 7, 39, 32
12, 172079, Note_on_c, 7, 39, 0
12, 172080, Note_on_c, 7, 41, 40
12, 172440, Note_on_c, 7, 37, 48
12, 172449, Note_on_c, 7, 41, 0
12, 172799, Note_on_c, 7, 37, 0
12, 172800, Note_on_c, 7, 42, 48
12, 173519, Note_on_c, 7, 42, 0
12, 173520, Note_on_c, 7, 44, 48
12, 173880, Note_on_c, 7, 37, 48
12, 173889, Note_on_c, 7, 44, 0
12, 174239, Note_on_c, 7, 37, 0
12, 174240, Note_on_c, 7, 42, 48
12, 174359, Note_on_c, 7, 42, 0
12, 174360, Note_on_c, 7, 42, 48
12, 174480, Note_on_c, 7, 44, 48
12, 174489, Note_on_c, 7, 42, 0
12, 174600, Note_on_c, 7, 46, 56
12, 174609, Note_on_c, 7, 44, 0
12, 174780, Note_on_c, 7, 44, 48
12, 174789, Note_on_c, 7, 46, 0
12, 174840, Note_on_c, 7, 42, 48
12, 174849, Note_on_c, 7, 44, 0
12, 174959, Note_on_c, 7, 42, 0
12, 174960, Note_on_c, 7, 41, 48
12, 175320, Note_on_c, 7, 39, 48
12, 175329, Note_on_c, 7, 41, 0
12, 175679, Note_on_c, 7, 39, 0
12, 175680, Note_on_c, 7, 34, 48
12, 175739, Note_on_c, 7, 34, 0
12, 175800, Note_on_c, 7, 38, 48
12, 175859, Note_on_c, 7, 38, 0
12, 175920, Note_on_c, 7, 34, 48
12, 175979, Note_on_c, 7, 34, 0
12, 176040, Note_on_c, 7, 41, 48
12, 176099, Note_on_c, 7, 41, 0
12, 176160, Note_on_c, 7, 34, 48
12, 176219, Note_on_c, 7, 34, 0
12, 176280, Note_on_c, 7, 46, 48
12, 176339, Note_on_c, 7, 46, 0
12, 176400, Note_on_c, 7, 34, 48
12, 176459, Note_on_c, 7, 34, 0
12, 176520, Note_on_c, 7, 50, 48
12, 176579, Note_on_c, 7, 50, 0
12, 176640, Note_on_c, 7, 34, 48
12, 176699, Note_on_c, 7, 34, 0
12, 176760, Note_on_c, 7, 53, 96
12, 176789, Note_on_c, 7, 53, 0
12, 176790, Note_on_c, 7, 53, 48
12, 177119, Note_on_c, 7, 53, 0
12, 177120, Note_on_c, 7, 34, 48
12, 177179, Note_on_c, 7, 34, 0
12, 177240, Note_on_c, 7, 39, 48
12, 177299, Note_on_c, 7, 39, 0
12, 177360, Note_on_c, 7, 34, 48
12, 177419, Note_on_c, 7, 34, 0
12, 177480, Note_on_c, 7, 42, 48
12, 177539, Note_on_c, 7, 42, 0
12, 177600, Note_on_c, 7, 34, 48
12, 177659, Note_on_c, 7, 34, 0
12, 177720, Note_on_c, 7, 46, 48
12, 177779, Note_on_c, 7, 46, 0
12, 177840, Note_on_c, 7, 34, 48
12, 177899, Note_on_c, 7, 34, 0
12, 177960, Note_on_c, 7, 51, 48
12, 178019, Note_on_c, 7, 51, 0
12, 178080, Note_on_c, 7, 34, 48
12, 178139, Note_on_c, 7, 34, 0
12, 178200, Note_on_c, 7, 54, 96
12, 178229, Note_on_c, 7, 54, 0
12, 178230, Note_on_c, 7, 54, 48
12, 178559, Note_on_c, 7, 54, 0
12, 178560, Note_on_c, 7, 24, 48
12, 178619, Note_on_c, 7, 24, 0
12, 178680, Note_on_c, 7, 27, 48
12, 178739, Note_on_c, 7, 27, 0
12, 178800, Note_on_c, 7, 24, 48
12, 178859, Note_on_c, 7, 24, 0
12, 178920, Note_on_c, 7, 32, 48
12, 178979, Note_on_c, 7, 32, 0
12, 179040, Note_on_c, 7, 24, 48
12, 179099, Note_on_c, 7, 24, 0
12, 179160, Note_on_c, 7, 36, 48
12, 179219, Note_on_c, 7, 36, 0
12, 179280, Note_on_c, 7, 24, 48
12, 179339, Note_on_c, 7, 24, 0
12, 179400, Note_on_c, 7, 39, 48
12, 179459, Note_on_c, 7, 39, 0
12, 179520, Note_on_c, 7, 24, 48
12, 179579, Note_on_c, 7, 24, 0
12, 179640, Note_on_c, 7, 44, 96
12, 179669, Note_on_c, 7, 44, 0
12, 179670, Note_on_c, 7, 44, 48
12, 179999, Note_on_c, 7, 44, 0
12, 180000, Note_on_c, 7, 25, 48
12, 180059, Note_on_c, 7, 25, 0
12, 180120, Note_on_c, 7, 29, 48
12, 180179, Note_on_c, 7, 29, 0
12, 180240, Note_on_c, 7, 25, 48
12, 180299, Note_on_c, 7, 25, 0
12, 180360, Note_on_c, 7, 32, 48
12, 180419, Note_on_c, 7, 32, 0
12, 180480, Note_on_c, 7, 25, 48
12, 180539, Note_on_c, 7, 25, 0
12, 180600, Note_on_c, 7, 37, 48
12, 180659, Note_on_c, 7, 37, 0
12, 180720, Note_on_c, 7, 25, 48
12, 180779, Note_on_c, 7, 25, 0
12, 180840, Note_on_c, 7, 41, 48
12, 180899, Note_on_c, 7, 41, 0
12, 180960, Note_on_c, 7, 25, 48
12, 181019, Note_on_c, 7, 25, 0
12, 181080, Note_on_c, 7, 44, 96
12, 181109, Note_on_c, 7, 44, 0
12, 181110, Note_on_c, 7, 44, 48
12, 181439, Note_on_c, 7, 44, 0
12, 181440, Note_on_c, 7, 26, 48
12, 181499, Note_on_c, 7, 26, 0
12, 181560, Note_on_c, 7, 29, 49
12, 181619, Note_on_c, 7, 29, 0
12, 181680, Note_on_c, 7, 26, 50
12, 181739, Note_on_c, 7, 26, 0
12, 181800, Note_on_c, 7, 34, 51
12, 181859, Note_on_c, 7, 34, 0
12, 181920, Note_on_c, 7, 26, 52
12, 181979, Note_on_c, 7, 26, 0
12, 182040, Note_on_c, 7, 38, 53
12, 182099, Note_on_c, 7, 38, 0
12, 182160, Note_on_c, 7, 26, 54
12, 182219, Note_on_c, 7, 26, 0
12, 182280, Note_on_c, 7, 41, 55
12, 182339, Note_on_c, 7, 41, 0
12, 182400, Note_on_c, 7, 26, 56
12, 182459, Note_on_c, 7, 26, 0
12, 182520, Note_on_c, 7, 46, 96
12, 182879, Note_on_c, 7, 46, 0
12, 182880, Note_on_c, 7, 27, 60
12, 182939, Note_on_c, 7, 27, 0
12, 183000, Note_on_c, 7, 30, 64
12, 183059, Note_on_c, 7, 30, 0
12, 183120, Note_on_c, 7, 27, 68
12, 183179, Note_on_c, 7, 27, 0
12, 183240, Note_on_c, 7, 34, 72
12, 183299, Note_on_c, 7, 34, 0
12, 183360, Note_on_c, 7, 27, 76
12, 183419, Note_on_c, 7, 27, 0
12, 183480, Note_on_c, 7, 39, 80
12, 183539, Note_on_c, 7, 39, 0
12, 183600, Note_on_c, 7, 27, 84
12, 183659, Note_on_c, 7, 27, 0
12, 183720, Note_on_c, 7, 42, 88
12, 183779, Note_on_c, 7, 42, 0
12, 183840, Note_on_c, 7, 27, 92
12, 183899, Note_on_c, 7, 27, 0
12, 183960, Note_on_c, 7, 46, 96
12, 184319, Note_on_c, 7, 46, 0
12, 184320, Note_on_c, 7, 35, 127
12, 184379, Note_on_c, 7, 35, 0
12, 184440, Note_on_c, 7, 39, 127
12, 184499, Note_on_c, 7, 39, 0
12, 184560, Note_on_c, 7, 35, 127
12, 184619, Note_on_c, 7, 35, 0
12, 184680, Note_on_c, 7, 42, 127
12, 184739, Note_on_c, 7, 42, 0
12, 184800, Note_on_c, 7, 35, 127
12, 184859, Note_on_c, 7, 35, 0
12, 184920, Note_on_c, 7, 47, 127
12, 184979, Note_on_c, 7, 47, 0
12, 185040, Note_on_c, 7, 35, 127
12, 185099, Note_on_c, 7, 35, 0
12, 185160, Note_on_c, 7, 51, 127
12, 185219, Note_on_c, 7, 51, 0
12, 185280, Note_on_c, 7, 35, 127
12, 185339, Note_on_c, 7, 35, 0
12, 185400, Note_on_c, 7, 54, 127
12, 185429, Note_on_c, 7, 54, 0
12, 185460, Note_on_c, 7, 51, 127
12, 185489, Note_on_c, 7, 51, 0
12, 185520, Note_on_c, 7, 47, 127
12, 185549, Note_on_c, 7, 47, 0
12, 185580, Note_on_c, 7, 42, 127
12, 185609, Note_on_c, 7, 42, 0
12, 185640, Note_on_c, 7, 39, 127
12, 185669, Note_on_c, 7, 39, 0
12, 185700, Note_on_c, 7, 42, 127
12, 185729, Note_on_c, 7, 42, 0
12, 185760, Note_on_c, 7, 35, 127
12, 185879, Note_on_c, 7, 35, 0
12, 186840, Note_on_c, 7, 35, 96
12, 186960, Note_on_c, 7, 39, 96
12, 186969, Note_on_c, 7, 35, 0
12, 187080, Note_on_c, 7, 42, 96
12, 187089, Note_on_c, 7, 39, 0
12, 187199, Note_on_c, 7, 42, 0
12, 188280, Note_on_c, 7, 36, 48
12, 188400, Note_on_c, 7, 39, 48
12, 188409, Note_on_c, 7, 36, 0
12, 188520, Note_on_c, 7, 45, 48
12, 188529, Note_on_c, 7, 39, 0
12, 188639, Note_on_c, 7, 45, 0
12, 188820, Note_on_c, 7, 38, 46
12, 188880, Note_on_c, 7, 41, 45
12, 188889, Note_on_c, 7, 38, 0
12, 188940, Note_on_c, 7, 46, 45
12, 188949, Note_on_c, 7, 41, 0
12, 188999, Note_on_c, 7, 46, 0
12, 189180, Note_on_c, 7, 38, 42
12, 189240, Note_on_c, 7, 41, 41
12, 189249, Note_on_c, 7, 38, 0
12, 189300, Note_on_c, 7, 46, 41
12, 189309, Note_on_c, 7, 41, 0
12, 189359, Note_on_c, 7, 46, 0
12, 189540, Note_on_c, 7, 39, 38
12, 189600, Note_on_c, 7, 42, 37
12, 189609, Note_on_c, 7, 39, 0
12, 189660, Note_on_c, 7, 46, 37
12, 189669, Note_on_c, 7, 42, 0
12, 189719, Note_on_c, 7, 46, 0
12, 189900, Note_on_c, 7, 39, 34
12, 189960, Note_on_c, 7, 42, 33
12, 189969, Note_on_c, 7, 39, 0
12, 190020, Note_on_c, 7, 46, 33
12, 190029, Note_on_c, 7, 42, 0
12, 190079, Note_on_c, 7, 46, 0
12, 196560, Note_on_c, 7, 34, 96
12, 196619, Note_on_c, 7, 34, 0
12, 196620, Note_on_c, 7, 46, 96
12, 196679, Note_on_c, 7, 46, 0
12, 196680, Note_on_c, 7, 46, 96
12, 196739, Note_on_c, 7, 46, 0
12, 196740, Note_on_c, 7, 46, 96
12, 196799, Note_on_c, 7, 46, 0
12, 196800, Note_on_c, 7, 46, 96
12, 196859, Note_on_c, 7, 46, 0
12, 196860, Note_on_c, 7, 46, 96
12, 196919, Note_on_c, 7, 46, 0
12, 196920, Note_on_c, 7, 46, 127
12, 196979, Note_on_c, 7, 46, 0
12, 196980, Note_on_c, 7, 46, 127
12, 197039, Note_on_c, 7, 46, 0
12, 197040, Note_on_c, 7, 46, 127
12, 197099, Note_on_c, 7, 46, 0
12, 197100, Note_on_c, 7, 46, 127
12, 197159, Note_on_c, 7, 46, 0
12, 197160, Note_on_c, 7, 46, 127
12, 197219, Note_on_c, 7, 46, 0
12, 197220, Note_on_c, 7, 46, 127
12, 197279, Note_on_c, 7, 46, 0
12, 197280, Note_on_c, 7, 39, 127
12, 197309, Note_on_c, 7, 39, 0
12, 197310, Note_on_c, 7, 39, 48
12, 197399, Note_on_c, 7, 39, 0
12, 206100, Note_on_c, 7, 37, 56
12, 206159, Note_on_c, 7, 37, 0
12, 206160, Note_on_c, 7, 37, 58
12, 206219, Note_on_c, 7, 37, 0
12, 206220, Note_on_c, 7, 37, 60
12, 206279, Note_on_c, 7, 37, 0
12, 206280, Note_on_c, 7, 35, 56
12, 206339, Note_on_c, 7, 35, 0
12, 206340, Note_on_c, 7, 35, 52
12, 206399, Note_on_c, 7, 35, 0
12, 206400, Note_on_c, 7, 35, 48
12, 206459, Note_on_c, 7, 35, 0
12, 206460, Note_on_c, 7, 35, 44
12, 206519, Note_on_c, 7, 35, 0
12, 206520, Note_on_c, 7, 35, 40
12, 206579, Note_on_c, 7, 35, 0
12, 206580, Note_on_c, 7, 35, 36
12, 206639, Note_on_c, 7, 35, 0
12, 206640, Note_on_c, 7, 34, 32
12, 206880, Note_on_c, 7, 38, 32
12, 206889, Note_on_c, 7, 34, 0
12, 207000, Note_on_c, 7, 35, 32
12, 207009, Note_on_c, 7, 38, 0
12, 207240, Note_on_c, 7, 29, 32
12, 207249, Note_on_c, 7, 35, 0
12, 207359, Note_on_c, 7, 29, 0
12, 207360, Note_on_c, 7, 34, 32
12, 207389, Note_on_c, 7, 34, 0
12, 207420, Note_on_c, 7, 38, 34
12, 207449, Note_on_c, 7, 38, 0
12, 207480, Note_on_c, 7, 41, 36
12, 207509, Note_on_c, 7, 41, 0
12, 207540, Note_on_c, 7, 34, 38
12, 207569, Note_on_c, 7, 34, 0
12, 207600, Note_on_c, 7, 38, 40
12, 207629, Note_on_c, 7, 38, 0
12, 207660, Note_on_c, 7, 41, 42
12, 207689, Note_on_c, 7, 41, 0
12, 207720, Note_on_c, 7, 44, 45
12, 207749, Note_on_c, 7, 44, 0
12, 207780, Note_on_c, 7, 38, 47
12, 207809, Note_on_c, 7, 38, 0
12, 207840, Note_on_c, 7, 41, 49
12, 207869, Note_on_c, 7, 41, 0
12, 207900, Note_on_c, 7, 44, 51
12, 207929, Note_on_c, 7, 44, 0
12, 207960, Note_on_c, 7, 48, 53
12, 207989, Note_on_c, 7, 48, 0
12, 208020, Note_on_c, 7, 46, 55
12, 208049, Note_on_c, 7, 46, 0
12, 208080, Note_on_c, 7, 44, 58
12, 208109, Note_on_c, 7, 44, 0
12, 208140, Note_on_c, 7, 46, 60
12, 208169, Note_on_c, 7, 46, 0
12, 208200, Note_on_c, 7, 44, 62
12, 208229, Note_on_c, 7, 44, 0
12, 208260, Note_on_c, 7, 43, 64
12, 208289, Note_on_c, 7, 43, 0
12, 208320, Note_on_c, 7, 41, 66
12, 208349, Note_on_c, 7, 41, 0
12, 208380, Note_on_c, 7, 39, 68
12, 208409, Note_on_c, 7, 39, 0
12, 208440, Note_on_c, 7, 38, 72
12, 208469, Note_on_c, 7, 38, 0
12, 208500, Note_on_c, 7, 36, 76
12, 208529, Note_on_c, 7, 36, 0
12, 208560, Note_on_c, 7, 34, 80
12, 208589, Note_on_c, 7, 34, 0
12, 208620, Note_on_c, 7, 46, 84
12, 208649, Note_on_c, 7, 46, 0
12, 208680, Note_on_c, 7, 46, 88
12, 208709, Note_on_c, 7, 46, 0
12, 208740, Note_on_c, 7, 46, 92
12, 208769, Note_on_c, 7, 46, 0
12, 208800, Note_on_c, 7, 39, 96
12, 208859, Note_on_c, 7, 39, 0
12, 208860, Note_on_c, 7, 39, 96
12, 208919, Note_on_c, 7, 39, 0
12, 208920, Note_on_c, 7, 39, 96
12, 208979, Note_on_c, 7, 39, 0
12, 208980, Note_on_c, 7, 39, 96
12, 209039, Note_on_c, 7, 39, 0
12, 209040, Note_on_c, 7, 39, 96
12, 209099, Note_on_c, 7, 39, 0
12, 209100, Note_on_c, 7, 39, 96
12, 209159, Note_on_c, 7, 39, 0
12, 209160, Note_on_c, 7, 39, 96
12, 209219, Note_on_c, 7, 39, 0
12, 209220, Note_on_c, 7, 39, 96
12, 209279, Note_on_c, 7, 39, 0
12, 209280, Note_on_c, 7, 39, 96
12, 209339, Note_on_c, 7, 39, 0
12, 209340, Note_on_c, 7, 39, 96
12, 209399, Note_on_c, 7, 39, 0
12, 209400, Note_on_c, 7, 39, 96
12, 209459, Note_on_c, 7, 39, 0
12, 209460, Note_on_c, 7, 39, 96
12, 209519, Note_on_c, 7, 39, 0
12, 209520, Note_on_c, 7, 39, 96
12, 209579, Note_on_c, 7, 39, 0
12, 209580, Note_on_c, 7, 39, 96
12, 209639, Note_on_c, 7, 39, 0
12, 209640, Note_on_c, 7, 39, 96
12, 209699, Note_on_c, 7, 39, 0
12, 209700, Note_on_c, 7, 39, 96
12, 209759, Note_on_c, 7, 39, 0
12, 209760, Note_on_c, 7, 39, 96
12, 209819, Note_on_c, 7, 39, 0
12, 209820, Note_on_c, 7, 39, 96
12, 209879, Note_on_c, 7, 39, 0
12, 209880, Note_on_c, 7, 39, 96
12, 209939, Note_on_c, 7, 39, 0
12, 209940, Note_on_c, 7, 39, 96
12, 209999, Note_on_c, 7, 39, 0
12, 210000, Note_on_c, 7, 39, 96
12, 210059, Note_on_c, 7, 39, 0
12, 210060, Note_on_c, 7, 39, 96
12, 210119, Note_on_c, 7, 39, 0
12, 210120, Note_on_c, 7, 39, 112
12, 210179, Note_on_c, 7, 39, 0
12, 210180, Note_on_c, 7, 39, 96
12, 210239, Note_on_c, 7, 39, 0
12, 210240, Note_on_c, 7, 39, 96
12, 210299, Note_on_c, 7, 39, 0
12, 210300, Note_on_c, 7, 39, 96
12, 210359, Note_on_c, 7, 39, 0
12, 210360, Note_on_c, 7, 39, 96
12, 210419, Note_on_c, 7, 39, 0
12, 210420, Note_on_c, 7, 39, 96
12, 210479, Note_on_c, 7, 39, 0
12, 210480, Note_on_c, 7, 39, 96
12, 210539, Note_on_c, 7, 39, 0
12, 210540, Note_on_c, 7, 39, 96
12, 210599, Note_on_c, 7, 39, 0
12, 210600, Note_on_c, 7, 39, 96
12, 210659, Note_on_c, 7, 39, 0
12, 210660, Note_on_c, 7, 39, 96
12, 210719, Note_on_c, 7, 39, 0
12, 210720, Note_on_c, 7, 39, 96
12, 210779, Note_on_c, 7, 39, 0
12, 210780, Note_on_c, 7, 39, 96
12, 210839, Note_on_c, 7, 39, 0
12, 210840, Note_on_c, 7, 39, 112
12, 210899, Note_on_c, 7, 39, 0
12, 210900, Note_on_c, 7, 39, 96
12, 210959, Note_on_c, 7, 39, 0
12, 210960, Note_on_c, 7, 39, 112
12, 211019, Note_on_c, 7, 39, 0
12, 211020, Note_on_c, 7, 39, 112
12, 211079, Note_on_c, 7, 39, 0
12, 211080, Note_on_c, 7, 39, 112
12, 211139, Note_on_c, 7, 39, 0
12, 211140, Note_on_c, 7, 39, 112
12, 211199, Note_on_c, 7, 39, 0
12, 211200, Note_on_c, 7, 39, 112
12, 211259, Note_on_c, 7, 39, 0
12, 211260, Note_on_c, 7, 39, 112
12, 211319, Note_on_c, 7, 39, 0
12, 211320, Note_on_c, 7, 39, 112
12, 211379, Note_on_c, 7, 39, 0
12, 211380, Note_on_c, 7, 39, 112
12, 211439, Note_on_c, 7, 39, 0
12, 211440, Note_on_c, 7, 39, 112
12, 211499, Note_on_c, 7, 39, 0
12, 211500, Note_on_c, 7, 39, 112
12, 211559, Note_on_c, 7, 39, 0
12, 211560, Note_on_c, 7, 39, 112
12, 211619, Note_on_c, 7, 39, 0
12, 211620, Note_on_c, 7, 39, 112
12, 211679, Note_on_c, 7, 39, 0
12, 211680, Note_on_c, 7, 39, 112
12, 211739, Note_on_c, 7, 39, 0
12, 211740, Note_on_c, 7, 39, 112
12, 211799, Note_on_c, 7, 39, 0
12, 211800, Note_on_c, 7, 39, 112
12, 211859, Note_on_c, 7, 39, 0
12, 211860, Note_on_c, 7, 39, 112
12, 211919, Note_on_c, 7, 39, 0
12, 211920, Note_on_c, 7, 39, 112
12, 211979, Note_on_c, 7, 39, 0
12, 211980, Note_on_c, 7, 39, 112
12, 212039, Note_on_c, 7, 39, 0
12, 212040, Note_on_c, 7, 39, 112
12, 212099, Note_on_c, 7, 39, 0
12, 212100, Note_on_c, 7, 39, 112
12, 212159, Note_on_c, 7, 39, 0
12, 212160, Note_on_c, 7, 39, 112
12, 212219, Note_on_c, 7, 39, 0
12, 212220, Note_on_c, 7, 39, 112
12, 212279, Note_on_c, 7, 39, 0
12, 212280, Note_on_c, 7, 39, 112
12, 212339, Note_on_c, 7, 39, 0
12, 212340, Note_on_c, 7, 39, 112
12, 212399, Note_on_c, 7, 39, 0
12, 212400, Note_on_c, 7, 39, 127
12, 212459, Note_on_c, 7, 39, 0
12, 212460, Note_on_c, 7, 39, 127
12, 212519, Note_on_c, 7, 39, 0
12, 212520, Note_on_c, 7, 39, 127
12, 212579, Note_on_c, 7, 39, 0
12, 212580, Note_on_c, 7, 39, 127
12, 212639, Note_on_c, 7, 39, 0
12, 212640, Note_on_c, 7, 43, 127
12, 212699, Note_on_c, 7, 43, 0
12, 212700, Note_on_c, 7, 43, 127
12, 212759, Note_on_c, 7, 43, 0
12, 212760, Note_on_c, 7, 39, 127
12, 212819, Note_on_c, 7, 39, 0
12, 212820, Note_on_c, 7, 39, 127
12, 212879, Note_on_c, 7, 39, 0
12, 212880, Note_on_c, 7, 39, 127
12, 212939, Note_on_c, 7, 39, 0
12, 212940, Note_on_c, 7, 39, 127
12, 212999, Note_on_c, 7, 39, 0
12, 213000, Note_on_c, 7, 34, 127
12, 213059, Note_on_c, 7, 34, 0
12, 213060, Note_on_c, 7, 34, 127
12, 213119, Note_on_c, 7, 34, 0
12, 213120, Note_on_c, 7, 39, 127
12, 213179, Note_on_c, 7, 39, 0
12, 213180, Note_on_c, 7, 39, 127
12, 213239, Note_on_c, 7, 39, 0
12, 213240, Note_on_c, 7, 43, 127
12, 213299, Note_on_c, 7, 43, 0
12, 213300, Note_on_c, 7, 43, 127
12, 213359, Note_on_c, 7, 43, 0
12, 213360, Note_on_c, 7, 46, 127
12, 213419, Note_on_c, 7, 46, 0
12, 213420, Note_on_c, 7, 46, 127
12, 213479, Note_on_c, 7, 46, 0
12, 213480, Note_on_c, 7, 39, 127
12, 213539, Note_on_c, 7, 39, 0
12, 213540, Note_on_c, 7, 39, 127
12, 213599, Note_on_c, 7, 39, 0
12, 213600, Note_on_c, 7, 39, 127
12, 213659, Note_on_c, 7, 39, 0
12, 213660, Note_on_c, 7, 39, 127
12, 213719, Note_on_c, 7, 39, 0
12, 213720, Note_on_c, 7, 31, 127
12, 213779, Note_on_c, 7, 31, 0
12, 213780, Note_on_c, 7, 31, 127
12, 213839, Note_on_c, 7, 31, 0
12, 213840, Note_on_c, 7, 36, 127
12, 213899, Note_on_c, 7, 36, 0
12, 213900, Note_on_c, 7, 36, 127
12, 213959, Note_on_c, 7, 36, 0
12, 213960, Note_on_c, 7, 39, 127
12, 214019, Note_on_c, 7, 39, 0
12, 214020, Note_on_c, 7, 39, 127
12, 214079, Note_on_c, 7, 39, 0
12, 214080, Note_on_c, 7, 43, 127
12, 214139, Note_on_c, 7, 43, 0
12, 214140, Note_on_c, 7, 43, 127
12, 214199, Note_on_c, 7, 43, 0
12, 214200, Note_on_c, 7, 36, 127
12, 214259, Note_on_c, 7, 36, 0
12, 214260, Note_on_c, 7, 36, 127
12, 214319, Note_on_c, 7, 36, 0
12, 214320, Note_on_c, 7, 36, 127
12, 214379, Note_on_c, 7, 36, 0
12, 214380, Note_on_c, 7, 36, 127
12, 214439, Note_on_c, 7, 36, 0
12, 214440, Note_on_c, 7, 34, 127
12, 214499, Note_on_c, 7, 34, 0
12, 214500, Note_on_c, 7, 34, 127
12, 214559, Note_on_c, 7, 34, 0
12, 214560, Note_on_c, 7, 32, 127
12, 214619, Note_on_c, 7, 32, 0
12, 214620, Note_on_c, 7, 44, 127
12, 214679, Note_on_c, 7, 44, 0
12, 214680, Note_on_c, 7, 44, 127
12, 214739, Note_on_c, 7, 44, 0
12, 214740, Note_on_c, 7, 44, 127
12, 214799, Note_on_c, 7, 44, 0
12, 214800, Note_on_c, 7, 44, 127
12, 214859, Note_on_c, 7, 44, 0
12, 214860, Note_on_c, 7, 44, 127
12, 214919, Note_on_c, 7, 44, 0
12, 214920, Note_on_c, 7, 33, 127
12, 214979, Note_on_c, 7, 33, 0
12, 214980, Note_on_c, 7, 45, 127
12, 215039, Note_on_c, 7, 45, 0
12, 215040, Note_on_c, 7, 45, 127
12, 215099, Note_on_c, 7, 45, 0
12, 215100, Note_on_c, 7, 45, 127
12, 215159, Note_on_c, 7, 45, 0
12, 215160, Note_on_c, 7, 45, 127
12, 215219, Note_on_c, 7, 45, 0
12, 215220, Note_on_c, 7, 45, 127
12, 215279, Note_on_c, 7, 45, 0
12, 215280, Note_on_c, 7, 46, 127
12, 215399, Note_on_c, 7, 46, 0
12, 216000, Note_on_c, 7, 34, 48
12, 216059, Note_on_c, 7, 34, 0
12, 216120, Note_on_c, 7, 38, 48
12, 216179, Note_on_c, 7, 38, 0
12, 216240, Note_on_c, 7, 41, 48
12, 216299, Note_on_c, 7, 41, 0
12, 216360, Note_on_c, 7, 46, 48
12, 216419, Note_on_c, 7, 46, 0
12, 216480, Note_on_c, 7, 50, 48
12, 216539, Note_on_c, 7, 50, 0
12, 216600, Note_on_c, 7, 53, 48
12, 216659, Note_on_c, 7, 53, 0
12, 216720, Note_on_c, 7, 34, 48
12, 216839, Note_on_c, 7, 34, 0
12, 217440, Note_on_c, 7, 34, 48
12, 217499, Note_on_c, 7, 34, 0
12, 217560, Note_on_c, 7, 39, 48
12, 217619, Note_on_c, 7, 39, 0
12, 217680, Note_on_c, 7, 43, 48
12, 217739, Note_on_c, 7, 43, 0
12, 217800, Note_on_c, 7, 46, 48
12, 217859, Note_on_c, 7, 46, 0
12, 217920, Note_on_c, 7, 55, 48
12, 217979, Note_on_c, 7, 55, 0
12, 218040, Note_on_c, 7, 51, 48
12, 218099, Note_on_c, 7, 51, 0
12, 218160, Note_on_c, 7, 46, 48
12, 218219, Note_on_c, 7, 46, 0
12, 219000, Note_on_c, 7, 48, 127
12, 219179, Note_on_c, 7, 48, 0
12, 219180, Note_on_c, 7, 46, 127
12, 219209, Note_on_c, 7, 46, 0
12, 219240, Note_on_c, 7, 44, 127
12, 219299, Note_on_c, 7, 44, 0
12, 219360, Note_on_c, 7, 43, 127
12, 219419, Note_on_c, 7, 43, 0
12, 219480, Note_on_c, 7, 41, 127
12, 219539, Note_on_c, 7, 41, 0
12, 219600, Note_on_c, 7, 39, 48
12, 219719, Note_on_c, 7, 39, 0
12, 221040, Note_on_c, 7, 39, 56
12, 221819, Note_on_c, 7, 39, 0
12, 221820, Note_on_c, 7, 46, 74
12, 221849, Note_on_c, 7, 46, 0
12, 221880, Note_on_c, 7, 44, 76
12, 221909, Note_on_c, 7, 44, 0
12, 221940, Note_on_c, 7, 43, 78
12, 221969, Note_on_c, 7, 43, 0
12, 222000, Note_on_c, 7, 41, 80
12, 222029, Note_on_c, 7, 41, 0
12, 222060, Note_on_c, 7, 39, 82
12, 222089, Note_on_c, 7, 39, 0
12, 222120, Note_on_c, 7, 38, 84
12, 222149, Note_on_c, 7, 38, 0
12, 222180, Note_on_c, 7, 39, 86
12, 222209, Note_on_c, 7, 39, 0
12, 222240, Note_on_c, 7, 41, 88
12, 222269, Note_on_c, 7, 41, 0
12, 222300, Note_on_c, 7, 39, 90
12, 222329, Note_on_c, 7, 39, 0
12, 222360, Note_on_c, 7, 38, 92
12, 222389, Note_on_c, 7, 38, 0
12, 222420, Note_on_c, 7, 36, 94
12, 222449, Note_on_c, 7, 36, 0
12, 222480, Note_on_c, 7, 35, 96
12, 222539, Note_on_c, 7, 35, 0
12, 222600, Note_on_c, 7, 47, 96
12, 222659, Note_on_c, 7, 47, 0
12, 223140, Note_on_c, 7, 35, 96
12, 223199, Note_on_c, 7, 35, 0
12, 223200, Note_on_c, 7, 36, 96
12, 223259, Note_on_c, 7, 36, 0
12, 223320, Note_on_c, 7, 48, 96
12, 223379, Note_on_c, 7, 48, 0
12, 223860, Note_on_c, 7, 36, 96
12, 223919, Note_on_c, 7, 36, 0
12, 223920, Note_on_c, 7, 34, 96
12, 223979, Note_on_c, 7, 34, 0
12, 224040, Note_on_c, 7, 46, 96
12, 224099, Note_on_c, 7, 46, 0
12, 224580, Note_on_c, 7, 34, 96
12, 224609, Note_on_c, 7, 34, 0
12, 224640, Note_on_c, 7, 32, 96
12, 224669, Note_on_c, 7, 32, 0
12, 224700, Note_on_c, 7, 32, 96
12, 224819, Note_on_c, 7, 32, 0
12, 224820, Note_on_c, 7, 33, 96
12, 224849, Note_on_c, 7, 33, 0
12, 224880, Note_on_c, 7, 34, 96
12, 224909, Note_on_c, 7, 34, 0
12, 224940, Note_on_c, 7, 35, 96
12, 224969, Note_on_c, 7, 35, 0
12, 225000, Note_on_c, 7, 36, 96
12, 225029, Note_on_c, 7, 36, 0
12, 225060, Note_on_c, 7, 36, 96
12, 225179, Note_on_c, 7, 36, 0
12, 225180, Note_on_c, 7, 36, 96
12, 225209, Note_on_c, 7, 36, 0
12, 225240, Note_on_c, 7, 38, 96
12, 225269, Note_on_c, 7, 38, 0
12, 225300, Note_on_c, 7, 38, 96
12, 225329, Note_on_c, 7, 38, 0
12, 225360, Note_on_c, 7, 39, 96
12, 225389, Note_on_c, 7, 39, 0
12, 225420, Note_on_c, 7, 39, 96
12, 225449, Note_on_c, 7, 39, 0
12, 225480, Note_on_c, 7, 49, 96
12, 225509, Note_on_c, 7, 49, 0
12, 225540, Note_on_c, 7, 49, 96
12, 225569, Note_on_c, 7, 49, 0
12, 225600, Note_on_c, 7, 48, 96
12, 225629, Note_on_c, 7, 48, 0
12, 225660, Note_on_c, 7, 48, 96
12, 225689, Note_on_c, 7, 48, 0
12, 225720, Note_on_c, 7, 47, 96
12, 225749, Note_on_c, 7, 47, 0
12, 225780, Note_on_c, 7, 47, 96
12, 225809, Note_on_c, 7, 47, 0
12, 225840, Note_on_c, 7, 46, 96
12, 225869, Note_on_c, 7, 46, 0
12, 225900, Note_on_c, 7, 46, 96
12, 225929, Note_on_c, 7, 46, 0
12, 225960, Note_on_c, 7, 43, 96
12, 225989, Note_on_c, 7, 43, 0
12, 226020, Note_on_c, 7, 43, 96
12, 226049, Note_on_c, 7, 43, 0
12, 226080, Note_on_c, 7, 44, 96
12, 226139, Note_on_c, 7, 44, 0
12, 226140, Note_on_c, 7, 32, 96
12, 226199, Note_on_c, 7, 32, 0
12, 226200, Note_on_c, 7, 32, 96
12, 226259, Note_on_c, 7, 32, 0
12, 226260, Note_on_c, 7, 32, 96
12, 226319, Note_on_c, 7, 32, 0
12, 226320, Note_on_c, 7, 32, 96
12, 226379, Note_on_c, 7, 32, 0
12, 226380, Note_on_c, 7, 32, 96
12, 226439, Note_on_c, 7, 32, 0
12, 226440, Note_on_c, 7, 32, 96
12, 226499, Note_on_c, 7, 32, 0
12, 226500, Note_on_c, 7, 32, 96
12, 226559, Note_on_c, 7, 32, 0
12, 226560, Note_on_c, 7, 32, 96
12, 226619, Note_on_c, 7, 32, 0
12, 226620, Note_on_c, 7, 32, 96
12, 226679, Note_on_c, 7, 32, 0
12, 226680, Note_on_c, 7, 32, 96
12, 226739, Note_on_c, 7, 32, 0
12, 226740, Note_on_c, 7, 32, 96
12, 226799, Note_on_c, 7, 32, 0
12, 226800, Note_on_c, 7, 34, 96
12, 226859, Note_on_c, 7, 34, 0
12, 226860, Note_on_c, 7, 34, 96
12, 226919, Note_on_c, 7, 34, 0
12, 226920, Note_on_c, 7, 34, 96
12, 226979, Note_on_c, 7, 34, 0
12, 226980, Note_on_c, 7, 34, 96
12, 227039, Note_on_c, 7, 34, 0
12, 227040, Note_on_c, 7, 34, 96
12, 227099, Note_on_c, 7, 34, 0
12, 227100, Note_on_c, 7, 34, 96
12, 227159, Note_on_c, 7, 34, 0
12, 227160, Note_on_c, 7, 34, 96
12, 227219, Note_on_c, 7, 34, 0
12, 227220, Note_on_c, 7, 34, 96
12, 227279, Note_on_c, 7, 34, 0
12, 227280, Note_on_c, 7, 34, 96
12, 227339, Note_on_c, 7, 34, 0
12, 227340, Note_on_c, 7, 34, 96
12, 227399, Note_on_c, 7, 34, 0
12, 227400, Note_on_c, 7, 34, 96
12, 227459, Note_on_c, 7, 34, 0
12, 227460, Note_on_c, 7, 34, 96
12, 227519, Note_on_c, 7, 34, 0
12, 227520, Note_on_c, 7, 34, 96
12, 227639, Note_on_c, 7, 34, 0
12, 228240, Note_on_c, 7, 46, 127
12, 228269, Note_on_c, 7, 46, 0
12, 228300, Note_on_c, 7, 45, 127
12, 228329, Note_on_c, 7, 45, 0
12, 228360, Note_on_c, 7, 44, 127
12, 228389, Note_on_c, 7, 44, 0
12, 228420, Note_on_c, 7, 43, 127
12, 228449, Note_on_c, 7, 43, 0
12, 228480, Note_on_c, 7, 41, 127
12, 228509, Note_on_c, 7, 41, 0
12, 228540, Note_on_c, 7, 39, 127
12, 228569, Note_on_c, 7, 39, 0
12, 228600, Note_on_c, 7, 38, 127
12, 228629, Note_on_c, 7, 38, 0
12, 228660, Note_on_c, 7, 36, 127
12, 228689, Note_on_c, 7, 36, 0
12, 228720, Note_on_c, 7, 34, 127
12, 228749, Note_on_c, 7, 34, 0
12, 228780, Note_on_c, 7, 32, 127
12, 228809, Note_on_c, 7, 32, 0
12, 228840, Note_on_c, 7, 31, 127
12, 228869, Note_on_c, 7, 31, 0
12, 228900, Note_on_c, 7, 29, 127
12, 228929, Note_on_c, 7, 29, 0
12, 228960, Note_on_c, 7, 27, 127
12, 229079, Note_on_c, 7, 27, 0
12, 233400, Note_on_c, 7, 34, 48
12, 233520, Note_on_c, 7, 30, 48
12, 233529, Note_on_c, 7, 34, 0
12, 233640, Note_on_c, 7, 29, 56
12, 233649, Note_on_c, 7, 30, 0
12, 233880, Note_on_c, 7, 28, 48
12, 233889, Note_on_c, 7, 29, 0
12, 233999, Note_on_c, 7, 28, 0
12, 234840, Note_on_c, 7, 34, 32
12, 234899, Note_on_c, 7, 34, 0
12, 234960, Note_on_c, 7, 34, 32
12, 235019, Note_on_c, 7, 34, 0
12, 235200, Note_on_c, 7, 34, 32
12, 235259, Note_on_c, 7, 34, 0
12, 235320, Note_on_c, 7, 34, 32
12, 235379, Note_on_c, 7, 34, 0
12, 235560, Note_on_c, 7, 34, 32
12, 235619, Note_on_c, 7, 34, 0
12, 235680, Note_on_c, 7, 34, 32
12, 235739, Note_on_c, 7, 34, 0
12, 235800, Note_on_c, 7, 34, 32
12, 235859, Note_on_c, 7, 34, 0
12, 235920, Note_on_c, 7, 34, 32
12, 235979, Note_on_c, 7, 34, 0
12, 236040, Note_on_c, 7, 34, 32
12, 236099, Note_on_c, 7, 34, 0
12, 236160, Note_on_c, 7, 34, 32
12, 236219, Note_on_c, 7, 34, 0
12, 236220, Note_on_c, 7, 34, 32
12, 236279, Note_on_c, 7, 34, 0
12, 236280, Note_on_c, 7, 34, 32
12, 236339, Note_on_c, 7, 34, 0
12, 236340, Note_on_c, 7, 34, 32
12, 236399, Note_on_c, 7, 34, 0
12, 236400, Note_on_c, 7, 34, 32
12, 236459, Note_on_c, 7, 34, 0
12, 236460, Note_on_c, 7, 34, 32
12, 236519, Note_on_c, 7, 34, 0
12, 236520, Note_on_c, 7, 34, 32
12, 236579, Note_on_c, 7, 34, 0
12, 236580, Note_on_c, 7, 34, 32
12, 236639, Note_on_c, 7, 34, 0
12, 236640, Note_on_c, 7, 34, 32
12, 236699, Note_on_c, 7, 34, 0
12, 236700, Note_on_c, 7, 34, 32
12, 236759, Note_on_c, 7, 34, 0
12, 236760, Note_on_c, 7, 34, 32
12, 236819, Note_on_c, 7, 34, 0
12, 236820, Note_on_c, 7, 34, 32
12, 236879, Note_on_c, 7, 34, 0
12, 236880, Note_on_c, 7, 34, 35
12, 236939, Note_on_c, 7, 34, 0
12, 236940, Note_on_c, 7, 34, 38
12, 236999, Note_on_c, 7, 34, 0
12, 237000, Note_on_c, 7, 34, 41
12, 237059, Note_on_c, 7, 34, 0
12, 237060, Note_on_c, 7, 34, 43
12, 237119, Note_on_c, 7, 34, 0
12, 237120, Note_on_c, 7, 34, 46
12, 237179, Note_on_c, 7, 34, 0
12, 237180, Note_on_c, 7, 34, 48
12, 237239, Note_on_c, 7, 34, 0
12, 237240, Note_on_c, 7, 34, 51
12, 237299, Note_on_c, 7, 34, 0
12, 237300, Note_on_c, 7, 34, 54
12, 237359, Note_on_c, 7, 34, 0
12, 237360, Note_on_c, 7, 34, 57
12, 237419, Note_on_c, 7, 34, 0
12, 237420, Note_on_c, 7, 34, 59
12, 237479, Note_on_c, 7, 34, 0
12, 237480, Note_on_c, 7, 34, 62
12, 237539, Note_on_c, 7, 34, 0
12, 237540, Note_on_c, 7, 34, 64
12, 237599, Note_on_c, 7, 34, 0
12, 237600, Note_on_c, 7, 34, 67
12, 237659, Note_on_c, 7, 34, 0
12, 237660, Note_on_c, 7, 34, 70
12, 237719, Note_on_c, 7, 34, 0
12, 237720, Note_on_c, 7, 34, 73
12, 237779, Note_on_c, 7, 34, 0
12, 237780, Note_on_c, 7, 34, 75
12, 237839, Note_on_c, 7, 34, 0
12, 237840, Note_on_c, 7, 34, 78
12, 237899, Note_on_c, 7, 34, 0
12, 237900, Note_on_c, 7, 34, 80
12, 237959, Note_on_c, 7, 34, 0
12, 237960, Note_on_c, 7, 34, 83
12, 238019, Note_on_c, 7, 34, 0
12, 238020, Note_on_c, 7, 34, 86
12, 238079, Note_on_c, 7, 34, 0
12, 238080, Note_on_c, 7, 34, 89
12, 238139, Note_on_c, 7, 34, 0
12, 238140, Note_on_c, 7, 44, 91
12, 238199, Note_on_c, 7, 44, 0
12, 238200, Note_on_c, 7, 43, 93
12, 238259, Note_on_c, 7, 43, 0
12, 238260, Note_on_c, 7, 41, 95
12, 238319, Note_on_c, 7, 41, 0
12, 238320, Note_on_c, 7, 39, 96
12, 238379, Note_on_c, 7, 39, 0
12, 238380, Note_on_c, 7, 34, 96
12, 238439, Note_on_c, 7, 34, 0
12, 238440, Note_on_c, 7, 39, 96
12, 238499, Note_on_c, 7, 39, 0
12, 238500, Note_on_c, 7, 34, 96
12, 238559, Note_on_c, 7, 34, 0
12, 238560, Note_on_c, 7, 39, 96
12, 238619, Note_on_c, 7, 39, 0
12, 238620, Note_on_c, 7, 34, 96
12, 238679, Note_on_c, 7, 34, 0
12, 238680, Note_on_c, 7, 39, 96
12, 238739, Note_on_c, 7, 39, 0
12, 238740, Note_on_c, 7, 34, 96
12, 238799, Note_on_c, 7, 34, 0
12, 238800, Note_on_c, 7, 39, 112
12, 238859, Note_on_c, 7, 39, 0
12, 238860, Note_on_c, 7, 34, 96
12, 238919, Note_on_c, 7, 34, 0
12, 238920, Note_on_c, 7, 39, 96
12, 238979, Note_on_c, 7, 39, 0
12, 238980, Note_on_c, 7, 34, 96
12, 239039, Note_on_c, 7, 34, 0
12, 239040, Note_on_c, 7, 38, 96
12, 239099, Note_on_c, 7, 38, 0
12, 239100, Note_on_c, 7, 34, 96
12, 239159, Note_on_c, 7, 34, 0
12, 239160, Note_on_c, 7, 38, 112
12, 239219, Note_on_c, 7, 38, 0
12, 239220, Note_on_c, 7, 34, 96
12, 239279, Note_on_c, 7, 34, 0
12, 239280, Note_on_c, 7, 38, 96
12, 239339, Note_on_c, 7, 38, 0
12, 239340, Note_on_c, 7, 34, 96
12, 239399, Note_on_c, 7, 34, 0
12, 239400, Note_on_c, 7, 41, 96
12, 239459, Note_on_c, 7, 41, 0
12, 239460, Note_on_c, 7, 34, 96
12, 239519, Note_on_c, 7, 34, 0
12, 239520, Note_on_c, 7, 44, 112
12, 239579, Note_on_c, 7, 44, 0
12, 239580, Note_on_c, 7, 34, 96
12, 239639, Note_on_c, 7, 34, 0
12, 239640, Note_on_c, 7, 38, 96
12, 239699, Note_on_c, 7, 38, 0
12, 239700, Note_on_c, 7, 34, 96
12, 239759, Note_on_c, 7, 34, 0
12, 239760, Note_on_c, 7, 39, 127
12, 239819, Note_on_c, 7, 39, 0
12, 239820, Note_on_c, 7, 34, 127
12, 239879, Note_on_c, 7, 34, 0
12, 239880, Note_on_c, 7, 39, 127
12, 239939, Note_on_c, 7, 39, 0
12, 239940, Note_on_c, 7, 34, 127
12, 239999, Note_on_c, 7, 34, 0
12, 240000, Note_on_c, 7, 39, 127
12, 240059, Note_on_c, 7, 39, 0
12, 240060, Note_on_c, 7, 34, 127
12, 240119, Note_on_c, 7, 34, 0
12, 240120, Note_on_c, 7, 39, 127
12, 240179, Note_on_c, 7, 39, 0
12, 240180, Note_on_c, 7, 34, 127
12, 240239, Note_on_c, 7, 34, 0
12, 240240, Note_on_c, 7, 39, 127
12, 240299, Note_on_c, 7, 39, 0
12, 240300, Note_on_c, 7, 34, 127
12, 240359, Note_on_c, 7, 34, 0
12, 240360, Note_on_c, 7, 39, 127
12, 240419, Note_on_c, 7, 39, 0
12, 240420, Note_on_c, 7, 34, 127
12, 240479, Note_on_c, 7, 34, 0
12, 240480, Note_on_c, 7, 38, 127
12, 240539, Note_on_c, 7, 38, 0
12, 240540, Note_on_c, 7, 34, 127
12, 240599, Note_on_c, 7, 34, 0
12, 240600, Note_on_c, 7, 38, 127
12, 240659, Note_on_c, 7, 38, 0
12, 240660, Note_on_c, 7, 34, 127
12, 240719, Note_on_c, 7, 34, 0
12, 240720, Note_on_c, 7, 38, 127
12, 240779, Note_on_c, 7, 38, 0
12, 240780, Note_on_c, 7, 34, 127
12, 240839, Note_on_c, 7, 34, 0
12, 240840, Note_on_c, 7, 41, 127
12, 240899, Note_on_c, 7, 41, 0
12, 240900, Note_on_c, 7, 34, 127
12, 240959, Note_on_c, 7, 34, 0
12, 240960, Note_on_c, 7, 44, 127
12, 241019, Note_on_c, 7, 44, 0
12, 241020, Note_on_c, 7, 46, 127
12, 241079, Note_on_c, 7, 46, 0
12, 241080, Note_on_c, 7, 44, 127
12, 241139, Note_on_c, 7, 44, 0
12, 241140, Note_on_c, 7, 46, 127
12, 241199, Note_on_c, 7, 46, 0
12, 241200, Note_on_c, 7, 43, 127
12, 241500, Note_on_c, 7, 42, 127
12, 241509, Note_on_c, 7, 43, 0
12, 241560, Note_on_c, 7, 43, 127
12, 241569, Note_on_c, 7, 42, 0
12, 241619, Note_on_c, 7, 43, 0
12, 241620, Note_on_c, 7, 38, 127
12, 241649, Note_on_c, 7, 38, 0
12, 241680, Note_on_c, 7, 39, 127
12, 241709, Note_on_c, 7, 39, 0
12, 241740, Note_on_c, 7, 41, 127
12, 241769, Note_on_c, 7, 41, 0
12, 241800, Note_on_c, 7, 42, 127
12, 241829, Note_on_c, 7, 42, 0
12, 241860, Note_on_c, 7, 43, 127
12, 241889, Note_on_c, 7, 43, 0
12, 241920, Note_on_c, 7, 44, 127
12, 241949, Note_on_c, 7, 44, 0
12, 241980, Note_on_c, 7, 43, 127
12, 242009, Note_on_c, 7, 43, 0
12, 242040, Note_on_c, 7, 41, 127
12, 242069, Note_on_c, 7, 41, 0
12, 242100, Note_on_c, 7, 45, 127
12, 242129, Note_on_c, 7, 45, 0
12, 242160, Note_on_c, 7, 46, 127
12, 242189, Note_on_c, 7, 46, 0
12, 242220, Note_on_c, 7, 44, 127
12, 242249, Note_on_c, 7, 44, 0
12, 242280, Note_on_c, 7, 43, 127
12, 242309, Note_on_c, 7, 43, 0
12, 242340, Note_on_c, 7, 35, 127
12, 242369, Note_on_c, 7, 35, 0
12, 242400, Note_on_c, 7, 36, 127
12, 242429, Note_on_c, 7, 36, 0
12, 242460, Note_on_c, 7, 34, 127
12, 242489, Note_on_c, 7, 34, 0
12, 242520, Note_on_c, 7, 32, 127
12, 242549, Note_on_c, 7, 32, 0
12, 242580, Note_on_c, 7, 36, 127
12, 242609, Note_on_c, 7, 36, 0
12, 242640, Note_on_c, 7, 38, 127
12, 242669, Note_on_c, 7, 38, 0
12, 242700, Note_on_c, 7, 36, 127
12, 242729, Note_on_c, 7, 36, 0
12, 242760, Note_on_c, 7, 34, 127
12, 242789, Note_on_c, 7, 34, 0
12, 242820, Note_on_c, 7, 38, 127
12, 242849, Note_on_c, 7, 38, 0
12, 242880, Note_on_c, 7, 39, 127
12, 242909, Note_on_c, 7, 39, 0
12, 242940, Note_on_c, 7, 38, 127
12, 242969, Note_on_c, 7, 38, 0
12, 243000, Note_on_c, 7, 36, 127
12, 243029, Note_on_c, 7, 36, 0
12, 243060, Note_on_c, 7, 47, 127
12, 243089, Note_on_c, 7, 47, 0
12, 243120, Note_on_c, 7, 48, 127
12, 243149, Note_on_c, 7, 48, 0
12, 243180, Note_on_c, 7, 46, 127
12, 243209, Note_on_c, 7, 46, 0
12, 243240, Note_on_c, 7, 45, 127
12, 243269, Note_on_c, 7, 45, 0
12, 243300, Note_on_c, 7, 44, 127
12, 243329, Note_on_c, 7, 44, 0
12, 243360, Note_on_c, 7, 43, 127
12, 243419, Note_on_c, 7, 43, 0
12, 243480, Note_on_c, 7, 47, 127
12, 243539, Note_on_c, 7, 47, 0
12, 243600, Note_on_c, 7, 48, 127
12, 243659, Note_on_c, 7, 48, 0
12, 243840, Note_on_c, 7, 43, 127
12, 243899, Note_on_c, 7, 43, 0
12, 243960, Note_on_c, 7, 44, 127
12, 244019, Note_on_c, 7, 44, 0
12, 244200, Note_on_c, 7, 45, 127
12, 244259, Note_on_c, 7, 45, 0
12, 244320, Note_on_c, 7, 46, 127
12, 244379, Note_on_c, 7, 46, 0
12, 244560, Note_on_c, 7, 47, 127
12, 244619, Note_on_c, 7, 47, 0
12, 244680, Note_on_c, 7, 48, 127
12, 244739, Note_on_c, 7, 48, 0
12, 244920, Note_on_c, 7, 43, 127
12, 244979, Note_on_c, 7, 43, 0
12, 245040, Note_on_c, 7, 44, 127
12, 245099, Note_on_c, 7, 44, 0
12, 245280, Note_on_c, 7, 45, 127
12, 245339, Note_on_c, 7, 45, 0
12, 245520, Note_on_c, 7, 33, 127
12, 245579, Note_on_c, 7, 33, 0
12, 245760, Note_on_c, 7, 33, 127
12, 245819, Note_on_c, 7, 33, 0
12, 246000, Note_on_c, 7, 33, 127
12, 246059, Note_on_c, 7, 33, 0
12, 246240, Note_on_c, 7, 33, 127
12, 246299, Note_on_c, 7, 33, 0
12, 246480, Note_on_c, 7, 33, 127
12, 246539, Note_on_c, 7, 33, 0
12, 248040, Note_on_c, 7, 36, 48
12, 248159, Note_on_c, 7, 36, 0
12, 248400, Note_on_c, 7, 37, 48
12, 248519, Note_on_c, 7, 37, 0
12, 248760, Note_on_c, 7, 38, 48
12, 248879, Note_on_c, 7, 38, 0
12, 249120, Note_on_c, 7, 27, 48
12, 249239, Note_on_c, 7, 27, 0
12, 249300, Note_on_c, 7, 39, 48
12, 249359, Note_on_c, 7, 39, 0
12, 249360, Note_on_c, 7, 39, 48
12, 249419, Note_on_c, 7, 39, 0
12, 249420, Note_on_c, 7, 39, 48
12, 249479, Note_on_c, 7, 39, 0
12, 249480, Note_on_c, 7, 44, 52
12, 249539, Note_on_c, 7, 44, 0
12, 249540, Note_on_c, 7, 44, 56
12, 249599, Note_on_c, 7, 44, 0
12, 249600, Note_on_c, 7, 44, 60
12, 249659, Note_on_c, 7, 44, 0
12, 249660, Note_on_c, 7, 44, 64
12, 249719, Note_on_c, 7, 44, 0
12, 249720, Note_on_c, 7, 44, 68
12, 249779, Note_on_c, 7, 44, 0
12, 249780, Note_on_c, 7, 44, 72
12, 249839, Note_on_c, 7, 44, 0
12, 249840, Note_on_c, 7, 41, 77
12, 249899, Note_on_c, 7, 41, 0
12, 249900, Note_on_c, 7, 41, 82
12, 249959, Note_on_c, 7, 41, 0
12, 249960, Note_on_c, 7, 41, 87
12, 250019, Note_on_c, 7, 41, 0
12, 250020, Note_on_c, 7, 41, 92
12, 250080, Note_on_c, 7, 43, 97
12, 250089, Note_on_c, 7, 41, 0
12, 250140, Note_on_c, 7, 44, 102
12, 250149, Note_on_c, 7, 43, 0
12, 250199, Note_on_c, 7, 44, 0
12, 250200, Note_on_c, 7, 46, 107
12, 250229, Note_on_c, 7, 46, 0
12, 250260, Note_on_c, 7, 43, 112
12, 250289, Note_on_c, 7, 43, 0
12, 250320, Note_on_c, 7, 39, 117
12, 250349, Note_on_c, 7, 39, 0
12, 250380, Note_on_c, 7, 46, 122
12, 250409, Note_on_c, 7, 46, 0
12, 250440, Note_on_c, 7, 43, 125
12, 250469, Note_on_c, 7, 43, 0
12, 250500, Note_on_c, 7, 39, 126
12, 250529, Note_on_c, 7, 39, 0
12, 250560, Note_on_c, 7, 34, 127
12, 250619, Note_on_c, 7, 34, 0
12, 250620, Note_on_c, 7, 34, 127
12, 250679, Note_on_c, 7, 34, 0
12, 250680, Note_on_c, 7, 34, 127
12, 250739, Note_on_c, 7, 34, 0
12, 250740, Note_on_c, 7, 34, 127
12, 250799, Note_on_c, 7, 34, 0
12, 250800, Note_on_c, 7, 34, 127
12, 250859, Note_on_c, 7, 34, 0
12, 250860, Note_on_c, 7, 34, 127
12, 250919, Note_on_c, 7, 34, 0
12, 250920, Note_on_c, 7, 39, 96
12, 251039, Note_on_c, 7, 39, 0
12, 251280, Note_on_c, 7, 39, 96
12, 251399, Note_on_c, 7, 39, 0
12, 251640, Note_on_c, 7, 39, 96
12, 251759, Note_on_c, 7, 39, 0
12, 252000, Note_on_c, 7, 39, 96
12, 252059, Note_on_c, 7, 39, 0
12, 252120, Note_on_c, 7, 39, 96
12, 252179, Note_on_c, 7, 39, 0
12, 252240, Note_on_c, 7, 39, 96
12, 252299, Note_on_c, 7, 39, 0
12, 252360, Note_on_c, 7, 39, 96
12, 252389, Note_on_c, 7, 39, 0
12, 252390, Note_on_c, 7, 39, 48
12, 254519, Note_on_c, 7, 39, 0
12, 254520, Note_on_c, 7, 37, 96
12, 255239, Note_on_c, 7, 37, 0
12, 255240, Note_on_c, 7, 37, 48
12, 255959, Note_on_c, 7, 37, 0
12, 255960, Note_on_c, 7, 36, 127
12, 256019, Note_on_c, 7, 36, 0
12, 256020, Note_on_c, 7, 36, 127
12, 256079, Note_on_c, 7, 36, 0
12, 256080, Note_on_c, 7, 36, 127
12, 256139, Note_on_c, 7, 36, 0
12, 256140, Note_on_c, 7, 36, 127
12, 256199, Note_on_c, 7, 36, 0
12, 256200, Note_on_c, 7, 36, 127
12, 256259, Note_on_c, 7, 36, 0
12, 256260, Note_on_c, 7, 36, 127
12, 256319, Note_on_c, 7, 36, 0
12, 256320, Note_on_c, 7, 36, 127
12, 256379, Note_on_c, 7, 36, 0
12, 256380, Note_on_c, 7, 36, 127
12, 256439, Note_on_c, 7, 36, 0
12, 256440, Note_on_c, 7, 36, 127
12, 256499, Note_on_c, 7, 36, 0
12, 256500, Note_on_c, 7, 36, 127
12, 256559, Note_on_c, 7, 36, 0
12, 256560, Note_on_c, 7, 36, 127
12, 256619, Note_on_c, 7, 36, 0
12, 256620, Note_on_c, 7, 36, 127
12, 256679, Note_on_c, 7, 36, 0
12, 256680, Note_on_c, 7, 36, 48
12, 258839, Note_on_c, 7, 36, 0
12, 258840, Note_on_c, 7, 35, 32
12, 260279, Note_on_c, 7, 35, 0
12, 260280, Note_on_c, 7, 34, 32
12, 260640, Note_on_c, 7, 46, 32
12, 260649, Note_on_c, 7, 34, 0
12, 260999, Note_on_c, 7, 46, 0
12, 261000, Note_on_c, 7, 44, 32
12, 261719, Note_on_c, 7, 44, 0
12, 261720, Note_on_c, 7, 40, 32
12, 261839, Note_on_c, 7, 40, 0
12, 265440, Note_on_c, 7, 34, 48
12, 265560, Note_on_c, 7, 36, 64
12, 265569, Note_on_c, 7, 34, 0
12, 265680, Note_on_c, 7, 38, 96
12, 265689, Note_on_c, 7, 36, 0
12, 265860, Note_on_c, 7, 36, 64
12, 265869, Note_on_c, 7, 38, 0
12, 265920, Note_on_c, 7, 34, 64
12, 265929, Note_on_c, 7, 36, 0
12, 266039, Note_on_c, 7, 34, 0
12, 266040, Note_on_c, 7, 39, 64
12, 266159, Note_on_c, 7, 39, 0
12, 268500, Note_on_c, 7, 46, 32
12, 268559, Note_on_c, 7, 46, 0
12, 268560, Note_on_c, 7, 43, 32
12, 268679, Note_on_c, 7, 43, 0
12, 268860, Note_on_c, 7, 43, 32
12, 268919, Note_on_c, 7, 43, 0
12, 268920, Note_on_c, 7, 44, 32
12, 269039, Note_on_c, 7, 44, 0
12, 269220, Note_on_c, 7, 44, 32
12, 269279, Note_on_c, 7, 44, 0
12, 269280, Note_on_c, 7, 41, 32
12, 269399, Note_on_c, 7, 41, 0
12, 269580, Note_on_c, 7, 41, 32
12, 269639, Note_on_c, 7, 41, 0
12, 269640, Note_on_c, 7, 38, 32
12, 269759, Note_on_c, 7, 38, 0
12, 269940, Note_on_c, 7, 38, 32
12, 269999, Note_on_c, 7, 38, 0
12, 270000, Note_on_c, 7, 39, 32
12, 270119, Note_on_c, 7, 39, 0
12, 270300, Note_on_c, 7, 39, 32
12, 270359, Note_on_c, 7, 39, 0
12, 270360, Note_on_c, 7, 36, 32
12, 270479, Note_on_c, 7, 36, 0
12, 270660, Note_on_c, 7, 36, 32
12, 270719, Note_on_c, 7, 36, 0
12, 270720, Note_on_c, 7, 35, 32
12, 270839, Note_on_c, 7, 35, 0
12, 271020, Note_on_c, 7, 36, 32
12, 271079, Note_on_c, 7, 36, 0
12, 271080, Note_on_c, 7, 34, 32
12, 271139, Note_on_c, 7, 34, 0
12, 271200, Note_on_c, 7, 38, 32
12, 271259, Note_on_c, 7, 38, 0
12, 271320, Note_on_c, 7, 34, 32
12, 271379, Note_on_c, 7, 34, 0
12, 271440, Note_on_c, 7, 41, 32
12, 271499, Note_on_c, 7, 41, 0
12, 271560, Note_on_c, 7, 34, 32
12, 271619, Note_on_c, 7, 34, 0
12, 271680, Note_on_c, 7, 46, 32
12, 271739, Note_on_c, 7, 46, 0
12, 271800, Note_on_c, 7, 34, 32
12, 271859, Note_on_c, 7, 34, 0
12, 271920, Note_on_c, 7, 50, 32
12, 271979, Note_on_c, 7, 50, 0
12, 272040, Note_on_c, 7, 34, 32
12, 272099, Note_on_c, 7, 34, 0
12, 272160, Note_on_c, 7, 53, 96
12, 272189, Note_on_c, 7, 53, 0
12, 272190, Note_on_c, 7, 53, 32
12, 272519, Note_on_c, 7, 53, 0
12, 272520, Note_on_c, 7, 34, 32
12, 272579, Note_on_c, 7, 34, 0
12, 272640, Note_on_c, 7, 39, 32
12, 272699, Note_on_c, 7, 39, 0
12, 272760, Note_on_c, 7, 34, 32
12, 272819, Note_on_c, 7, 34, 0
12, 272880, Note_on_c, 7, 42, 32
12, 272939, Note_on_c, 7, 42, 0
12, 273000, Note_on_c, 7, 34, 32
12, 273059, Note_on_c, 7, 34, 0
12, 273120, Note_on_c, 7, 46, 32
12, 273179, Note_on_c, 7, 46, 0
12, 273240, Note_on_c, 7, 34, 32
12, 273299, Note_on_c, 7, 34, 0
12, 273360, Note_on_c, 7, 39, 32
12, 273419, Note_on_c, 7, 39, 0
12, 273480, Note_on_c, 7, 34, 32
12, 273539, Note_on_c, 7, 34, 0
12, 273600, Note_on_c, 7, 42, 96
12, 273629, Note_on_c, 7, 42, 0
12, 273630, Note_on_c, 7, 42, 32
12, 274079, Note_on_c, 7, 42, 0
12, 274080, Note_on_c, 7, 41, 32
12, 274139, Note_on_c, 7, 41, 0
12, 274200, Note_on_c, 7, 34, 32
12, 274259, Note_on_c, 7, 34, 0
12, 274320, Note_on_c, 7, 44, 96
12, 274349, Note_on_c, 7, 44, 0
12, 274350, Note_on_c, 7, 44, 32
12, 274799, Note_on_c, 7, 44, 0
12, 274800, Note_on_c, 7, 43, 32
12, 274859, Note_on_c, 7, 43, 0
12, 274920, Note_on_c, 7, 34, 32
12, 274979, Note_on_c, 7, 34, 0
12, 275040, Note_on_c, 7, 46, 96
12, 275069, Note_on_c, 7, 46, 0
12, 275070, Note_on_c, 7, 46, 32
12, 275519, Note_on_c, 7, 46, 0
12, 275520, Note_on_c, 7, 45, 32
12, 275579, Note_on_c, 7, 45, 0
12, 275640, Note_on_c, 7, 34, 34
12, 275699, Note_on_c, 7, 34, 0
12, 275760, Note_on_c, 7, 45, 35
12, 275819, Note_on_c, 7, 45, 0
12, 275880, Note_on_c, 7, 34, 36
12, 275939, Note_on_c, 7, 34, 0
12, 276000, Note_on_c, 7, 45, 37
12, 276059, Note_on_c, 7, 45, 0
12, 276120, Note_on_c, 7, 34, 38
12, 276179, Note_on_c, 7, 34, 0
12, 276240, Note_on_c, 7, 45, 40
12, 276299, Note_on_c, 7, 45, 0
12, 276360, Note_on_c, 7, 34, 41
12, 276419, Note_on_c, 7, 34, 0
12, 276480, Note_on_c, 7, 45, 42
12, 276539, Note_on_c, 7, 45, 0
12, 276600, Note_on_c, 7, 34, 43
12, 276659, Note_on_c, 7, 34, 0
12, 276720, Note_on_c, 7, 45, 45
12, 276779, Note_on_c, 7, 45, 0
12, 276840, Note_on_c, 7, 34, 47
12, 276899, Note_on_c, 7, 34, 0
12, 276960, Note_on_c, 7, 46, 52
12, 277019, Note_on_c, 7, 46, 0
12, 277080, Note_on_c, 7, 34, 56
12, 277139, Note_on_c, 7, 34, 0
12, 277200, Note_on_c, 7, 46, 60
12, 277259, Note_on_c, 7, 46, 0
12, 277320, Note_on_c, 7, 34, 64
12, 277379, Note_on_c, 7, 34, 0
12, 277440, Note_on_c, 7, 46, 68
12, 277499, Note_on_c, 7, 46, 0
12, 277560, Note_on_c, 7, 35, 64
12, 277619, Note_on_c, 7, 35, 0
12, 277680, Note_on_c, 7, 47, 60
12, 277739, Note_on_c, 7, 47, 0
12, 277800, Note_on_c, 7, 35, 56
12, 277859, Note_on_c, 7, 35, 0
12, 277920, Note_on_c, 7, 47, 52
12, 277979, Note_on_c, 7, 47, 0
12, 278040, Note_on_c, 7, 35, 48
12, 278099, Note_on_c, 7, 35, 0
12, 278160, Note_on_c, 7, 47, 48
12, 278219, Note_on_c, 7, 47, 0
12, 278280, Note_on_c, 7, 36, 48
12, 278339, Note_on_c, 7, 36, 0
12, 278760, Note_on_c, 7, 36, 48
12, 278819, Note_on_c, 7, 36, 0
12, 278880, Note_on_c, 7, 36, 48
12, 278939, Note_on_c, 7, 36, 0
12, 279000, Note_on_c, 7, 32, 48
12, 279059, Note_on_c, 7, 32, 0
12, 279480, Note_on_c, 7, 32, 48
12, 279539, Note_on_c, 7, 32, 0
12, 279600, Note_on_c, 7, 32, 48
12, 279659, Note_on_c, 7, 32, 0
12, 279720, Note_on_c, 7, 34, 48
12, 279779, Note_on_c, 7, 34, 0
12, 280560, Note_on_c, 7, 34, 62
12, 280619, Note_on_c, 7, 34, 0
12, 280680, Note_on_c, 7, 34, 64
12, 280739, Note_on_c, 7, 34, 0
12, 280800, Note_on_c, 7, 34, 48
12, 280859, Note_on_c, 7, 34, 0
12, 280920, Note_on_c, 7, 34, 48
12, 280979, Note_on_c, 7, 34, 0
12, 281040, Note_on_c, 7, 34, 48
12, 281099, Note_on_c, 7, 34, 0
12, 281160, Note_on_c, 7, 39, 48
12, 281219, Note_on_c, 7, 39, 0
12, 281880, Note_on_c, 7, 39, 48
12, 281939, Note_on_c, 7, 39, 0
12, 282600, Note_on_c, 7, 38, 48
12, 282659, Note_on_c, 7, 38, 0
12, 283320, Note_on_c, 7, 34, 48
12, 283379, Note_on_c, 7, 34, 0
12, 283800, Note_on_c, 7, 34, 48
12, 283859, Note_on_c, 7, 34, 0
12, 283920, Note_on_c, 7, 34, 48
12, 283979, Note_on_c, 7, 34, 0
12, 286920, Note_on_c, 7, 39, 48
12, 287160, Note_on_c, 7, 43, 52
12, 287169, Note_on_c, 7, 39, 0
12, 287280, Note_on_c, 7, 39, 56
12, 287289, Note_on_c, 7, 43, 0
12, 287520, Note_on_c, 7, 34, 60
12, 287529, Note_on_c, 7, 39, 0
12, 287639, Note_on_c, 7, 34, 0
12, 287640, Note_on_c, 7, 39, 62
12, 287760, Note_on_c, 7, 43, 64
12, 287769, Note_on_c, 7, 39, 0
12, 287879, Note_on_c, 7, 43, 0
12, 287880, Note_on_c, 7, 46, 66
12, 287939, Note_on_c, 7, 46, 0
12, 288000, Note_on_c, 7, 46, 68
12, 288359, Note_on_c, 7, 46, 0
12, 288360, Note_on_c, 7, 41, 74
12, 288600, Note_on_c, 7, 44, 78
12, 288609, Note_on_c, 7, 41, 0
12, 288720, Note_on_c, 7, 41, 80
12, 288729, Note_on_c, 7, 44, 0
12, 288960, Note_on_c, 7, 34, 84
12, 288969, Note_on_c, 7, 41, 0
12, 289079, Note_on_c, 7, 34, 0
12, 289080, Note_on_c, 7, 41, 86
12, 289200, Note_on_c, 7, 44, 88
12, 289209, Note_on_c, 7, 41, 0
12, 289319, Note_on_c, 7, 44, 0
12, 289320, Note_on_c, 7, 46, 90
12, 289379, Note_on_c, 7, 46, 0
12, 289440, Note_on_c, 7, 46, 92
12, 289859, Note_on_c, 7, 46, 0
12, 289860, Note_on_c, 7, 39, 96
12, 289890, Note_on_c, 7, 41, 96
12, 289899, Note_on_c, 7, 39, 0
12, 289920, Note_on_c, 7, 43, 96
12, 289929, Note_on_c, 7, 41, 0
12, 289949, Note_on_c, 7, 43, 0
12, 289980, Note_on_c, 7, 43, 96
12, 290010, Note_on_c, 7, 44, 96
12, 290019, Note_on_c, 7, 43, 0
12, 290040, Note_on_c, 7, 46, 96
12, 290049, Note_on_c, 7, 44, 0
12, 290069, Note_on_c, 7, 46, 0
12, 290100, Note_on_c, 7, 48, 96
12, 290130, Note_on_c, 7, 50, 96
12, 290139, Note_on_c, 7, 48, 0
12, 290160, Note_on_c, 7, 51, 96
12, 290169, Note_on_c, 7, 50, 0
12, 290189, Note_on_c, 7, 51, 0
12, 290220, Note_on_c, 7, 43, 96
12, 290250, Note_on_c, 7, 44, 96
12, 290259, Note_on_c, 7, 43, 0
12, 290280, Note_on_c, 7, 46, 96
12, 290289, Note_on_c, 7, 44, 0
12, 290309, Note_on_c, 7, 46, 0
12, 290340, Note_on_c, 7, 46, 96
12, 290370, Note_on_c, 7, 48, 96
12, 290379, Note_on_c, 7, 46, 0
12, 290400, Note_on_c, 7, 50, 96
12, 290409, Note_on_c, 7, 48, 0
12, 290429, Note_on_c, 7, 50, 0
12, 290460, Note_on_c, 7, 51, 96
12, 290490, Note_on_c, 7, 53, 96
12, 290499, Note_on_c, 7, 51, 0
12, 290520, Note_on_c, 7, 55, 112
12, 290529, Note_on_c, 7, 53, 0
12, 290549, Note_on_c, 7, 55, 0
12, 290580, Note_on_c, 7, 53, 96
12, 290609, Note_on_c, 7, 53, 0
12, 290640, Note_on_c, 7, 51, 96
12, 290669, Note_on_c, 7, 51, 0
12, 290700, Note_on_c, 7, 50, 96
12, 290729, Note_on_c, 7, 50, 0
12, 290760, Note_on_c, 7, 48, 96
12, 290789, Note_on_c, 7, 48, 0
12, 290820, Note_on_c, 7, 46, 96
12, 290849, Note_on_c, 7, 46, 0
12, 290880, Note_on_c, 7, 44, 96
12, 290909, Note_on_c, 7, 44, 0
12, 290940, Note_on_c, 7, 43, 96
12, 290969, Note_on_c, 7, 43, 0
12, 291000, Note_on_c, 7, 41, 96
12, 291029, Note_on_c, 7, 41, 0
12, 291060, Note_on_c, 7, 39, 96
12, 291089, Note_on_c, 7, 39, 0
12, 291120, Note_on_c, 7, 38, 96
12, 291149, Note_on_c, 7, 38, 0
12, 291180, Note_on_c, 7, 36, 96
12, 291209, Note_on_c, 7, 36, 0
12, 291240, Note_on_c, 7, 34, 96
12, 291269, Note_on_c, 7, 34, 0
12, 291300, Note_on_c, 7, 34, 96
12, 291330, Note_on_c, 7, 36, 96
12, 291339, Note_on_c, 7, 34, 0
12, 291360, Note_on_c, 7, 38, 96
12, 291369, Note_on_c, 7, 36, 0
12, 291389, Note_on_c, 7, 38, 0
12, 291420, Note_on_c, 7, 38, 96
12, 291450, Note_on_c, 7, 39, 96
12, 291459, Note_on_c, 7, 38, 0
12, 291480, Note_on_c, 7, 41, 96
12, 291489, Note_on_c, 7, 39, 0
12, 291509, Note_on_c, 7, 41, 0
12, 291540, Note_on_c, 7, 41, 96
12, 291570, Note_on_c, 7, 43, 96
12, 291579, Note_on_c, 7, 41, 0
12, 291600, Note_on_c, 7, 44, 96
12, 291609, Note_on_c, 7, 43, 0
12, 291629, Note_on_c, 7, 44, 0
12, 291660, Note_on_c, 7, 38, 96
12, 291690, Note_on_c, 7, 39, 96
12, 291699, Note_on_c, 7, 38, 0
12, 291720, Note_on_c, 7, 41, 96
12, 291729, Note_on_c, 7, 39, 0
12, 291749, Note_on_c, 7, 41, 0
12, 291780, Note_on_c, 7, 41, 96
12, 291810, Note_on_c, 7, 43, 96
12, 291819, Note_on_c, 7, 41, 0
12, 291840, Note_on_c, 7, 44, 96
12, 291849, Note_on_c, 7, 43, 0
12, 291869, Note_on_c, 7, 44, 0
12, 291900, Note_on_c, 7, 44, 96
12, 291930, Note_on_c, 7, 46, 96
12, 291939, Note_on_c, 7, 44, 0
12, 291960, Note_on_c, 7, 48, 112
12, 291969, Note_on_c, 7, 46, 0
12, 291989, Note_on_c, 7, 48, 0
12, 292020, Note_on_c, 7, 46, 96
12, 292049, Note_on_c, 7, 46, 0
12, 292080, Note_on_c, 7, 44, 96
12, 292109, Note_on_c, 7, 44, 0
12, 292140, Note_on_c, 7, 43, 96
12, 292169, Note_on_c, 7, 43, 0
12, 292200, Note_on_c, 7, 41, 96
12, 292229, Note_on_c, 7, 41, 0
12, 292260, Note_on_c, 7, 39, 96
12, 292289, Note_on_c, 7, 39, 0
12, 292320, Note_on_c, 7, 38, 96
12, 292349, Note_on_c, 7, 38, 0
12, 292380, Note_on_c, 7, 36, 96
12, 292409, Note_on_c, 7, 36, 0
12, 292440, Note_on_c, 7, 34, 96
12, 292469, Note_on_c, 7, 34, 0
12, 292500, Note_on_c, 7, 32, 96
12, 292529, Note_on_c, 7, 32, 0
12, 292560, Note_on_c, 7, 31, 96
12, 292589, Note_on_c, 7, 31, 0
12, 292620, Note_on_c, 7, 29, 96
12, 292649, Note_on_c, 7, 29, 0
12, 292680, Note_on_c, 7, 31, 96
12, 292739, Note_on_c, 7, 31, 0
12, 292740, Note_on_c, 7, 31, 96
12, 292799, Note_on_c, 7, 31, 0
12, 292800, Note_on_c, 7, 34, 96
12, 292859, Note_on_c, 7, 34, 0
12, 292860, Note_on_c, 7, 34, 96
12, 292919, Note_on_c, 7, 34, 0
12, 292920, Note_on_c, 7, 37, 96
12, 292979, Note_on_c, 7, 37, 0
12, 292980, Note_on_c, 7, 37, 96
12, 293039, Note_on_c, 7, 37, 0
12, 293040, Note_on_c, 7, 37, 112
12, 293399, Note_on_c, 7, 37, 0
12, 293400, Note_on_c, 7, 32, 112
12, 293579, Note_on_c, 7, 32, 0
12, 293580, Note_on_c, 7, 32, 96
12, 293609, Note_on_c, 7, 32, 0
12, 293640, Note_on_c, 7, 36, 96
12, 293669, Note_on_c, 7, 36, 0
12, 293700, Note_on_c, 7, 41, 96
12, 293729, Note_on_c, 7, 41, 0
12, 293760, Note_on_c, 7, 33, 112
12, 293939, Note_on_c, 7, 33, 0
12, 293940, Note_on_c, 7, 33, 96
12, 293969, Note_on_c, 7, 33, 0
12, 294000, Note_on_c, 7, 36, 96
12, 294029, Note_on_c, 7, 36, 0
12, 294060, Note_on_c, 7, 39, 96
12, 294089, Note_on_c, 7, 39, 0
12, 294120, Note_on_c, 7, 34, 112
12, 294299, Note_on_c, 7, 34, 0
12, 294300, Note_on_c, 7, 34, 96
12, 294329, Note_on_c, 7, 34, 0
12, 294360, Note_on_c, 7, 39, 96
12, 294389, Note_on_c, 7, 39, 0
12, 294420, Note_on_c, 7, 43, 96
12, 294449, Note_on_c, 7, 43, 0
12, 294480, Note_on_c, 7, 35, 96
12, 294539, Note_on_c, 7, 35, 0
12, 294540, Note_on_c, 7, 38, 96
12, 294599, Note_on_c, 7, 38, 0
12, 294600, Note_on_c, 7, 41, 96
12, 294659, Note_on_c, 7, 41, 0
12, 294660, Note_on_c, 7, 35, 96
12, 294719, Note_on_c, 7, 35, 0
12, 294720, Note_on_c, 7, 38, 96
12, 294779, Note_on_c, 7, 38, 0
12, 294780, Note_on_c, 7, 41, 96
12, 294839, Note_on_c, 7, 41, 0
12, 294840, Note_on_c, 7, 36, 96
12, 294899, Note_on_c, 7, 36, 0
12, 294900, Note_on_c, 7, 39, 96
12, 294959, Note_on_c, 7, 39, 0
12, 294960, Note_on_c, 7, 43, 96
12, 295019, Note_on_c, 7, 43, 0
12, 295020, Note_on_c, 7, 36, 96
12, 295079, Note_on_c, 7, 36, 0
12, 295080, Note_on_c, 7, 39, 96
12, 295139, Note_on_c, 7, 39, 0
12, 295140, Note_on_c, 7, 43, 96
12, 295199, Note_on_c, 7, 43, 0
12, 295200, Note_on_c, 7, 32, 96
12, 295259, Note_on_c, 7, 32, 0
12, 295260, Note_on_c, 7, 36, 96
12, 295319, Note_on_c, 7, 36, 0
12, 295320, Note_on_c, 7, 41, 96
12, 295379, Note_on_c, 7, 41, 0
12, 295380, Note_on_c, 7, 32, 96
12, 295439, Note_on_c, 7, 32, 0
12, 295440, Note_on_c, 7, 36, 96
12, 295499, Note_on_c, 7, 36, 0
12, 295500, Note_on_c, 7, 41, 96
12, 295559, Note_on_c, 7, 41, 0
12, 295560, Note_on_c, 7, 34, 127
12, 295619, Note_on_c, 7, 34, 0
12, 295620, Note_on_c, 7, 39, 127
12, 295679, Note_on_c, 7, 39, 0
12, 295680, Note_on_c, 7, 43, 127
12, 295739, Note_on_c, 7, 43, 0
12, 295740, Note_on_c, 7, 34, 127
12, 295799, Note_on_c, 7, 34, 0
12, 295800, Note_on_c, 7, 39, 127
12, 295859, Note_on_c, 7, 39, 0
12, 295860, Note_on_c, 7, 43, 127
12, 295919, Note_on_c, 7, 43, 0
12, 295920, Note_on_c, 7, 46, 127
12, 295979, Note_on_c, 7, 46, 0
12, 295980, Note_on_c, 7, 34, 127
12, 296039, Note_on_c, 7, 34, 0
12, 296040, Note_on_c, 7, 34, 127
12, 296099, Note_on_c, 7, 34, 0
12, 296100, Note_on_c, 7, 34, 127
12, 296159, Note_on_c, 7, 34, 0
12, 296160, Note_on_c, 7, 34, 127
12, 296219, Note_on_c, 7, 34, 0
12, 296220, Note_on_c, 7, 34, 127
12, 296279, Note_on_c, 7, 34, 0
12, 296280, Note_on_c, 7, 39, 48
12, 296399, Note_on_c, 7, 39, 0
12, 297720, Note_on_c, 7, 39, 48
12, 298499, Note_on_c, 7, 39, 0
12, 298500, Note_on_c, 7, 46, 74
12, 298529, Note_on_c, 7, 46, 0
12, 298560, Note_on_c, 7, 44, 76
12, 298589, Note_on_c, 7, 44, 0
12, 298620, Note_on_c, 7, 43, 78
12, 298649, Note_on_c, 7, 43, 0
12, 298680, Note_on_c, 7, 41, 80
12, 298709, Note_on_c, 7, 41, 0
12, 298740, Note_on_c, 7, 39, 82
12, 298769, Note_on_c, 7, 39, 0
12, 298800, Note_on_c, 7, 38, 84
12, 298829, Note_on_c, 7, 38, 0
12, 298860, Note_on_c, 7, 39, 86
12, 298889, Note_on_c, 7, 39, 0
12, 298920, Note_on_c, 7, 41, 88
12, 298949, Note_on_c, 7, 41, 0
12, 298980, Note_on_c, 7, 39, 90
12, 299009, Note_on_c, 7, 39, 0
12, 299040, Note_on_c, 7, 38, 92
12, 299069, Note_on_c, 7, 38, 0
12, 299100, Note_on_c, 7, 36, 94
12, 299129, Note_on_c, 7, 36, 0
12, 299160, Note_on_c, 7, 34, 96
12, 299279, Note_on_c, 7, 34, 0
12, 299280, Note_on_c, 7, 46, 96
12, 299639, Note_on_c, 7, 46, 0
12, 299640, Note_on_c, 7, 46, 96
12, 299999, Note_on_c, 7, 46, 0
12, 300000, Note_on_c, 7, 46, 96
12, 300239, Note_on_c, 7, 46, 0
12, 300240, Note_on_c, 7, 46, 96
12, 300479, Note_on_c, 7, 46, 0
12, 300480, Note_on_c, 7, 46, 96
12, 300539, Note_on_c, 7, 46, 0
12, 300600, Note_on_c, 7, 46, 96
12, 300659, Note_on_c, 7, 46, 0
12, 300720, Note_on_c, 7, 34, 127
12, 300779, Note_on_c, 7, 34, 0
12, 300840, Note_on_c, 7, 34, 127
12, 300899, Note_on_c, 7, 34, 0
12, 300960, Note_on_c, 7, 34, 127
12, 301019, Note_on_c, 7, 34, 0
12, 301080, Note_on_c, 7, 34, 127
12, 301139, Note_on_c, 7, 34, 0
12, 301200, Note_on_c, 7, 34, 127
12, 301259, Note_on_c, 7, 34, 0
12, 301320, Note_on_c, 7, 34, 127
12, 301379, Note_on_c, 7, 34, 0
12, 301440, Note_on_c, 7, 34, 127
12, 301499, Note_on_c, 7, 34, 0
12, 301560, Note_on_c, 7, 34, 127
12, 301619, Note_on_c, 7, 34, 0
12, 301680, Note_on_c, 7, 34, 127
12, 301739, Note_on_c, 7, 34, 0
12, 301800, Note_on_c, 7, 34, 127
12, 301859, Note_on_c, 7, 34, 0
12, 301920, Note_on_c, 7, 34, 127
12, 301979, Note_on_c, 7, 34, 0
12, 302040, Note_on_c, 7, 39, 127
12, 302159, Note_on_c, 7, 39, 0
12, 302400, Note_on_c, 7, 51, 127
12, 302519, Note_on_c, 7, 51, 0
12, 302760, Note_on_c, 7, 39, 127
12, 302879, Note_on_c, 7, 39, 0
12, 302879, End_track
13, 0, Start_track
13, 0, MIDI_port, 0
13, 0, Title_t, "Pitz Strings"
13, 0, Program_c, 8, 45
13, 0, Control_c, 8, 7, 127
13, 0, Control_c, 8, 10, 77
13, 0, Control_c, 8, 93, 0
13, 0, Control_c, 8, 91, 0
13, 30720, Note_on_c, 8, 39, 48
13, 30839, Note_on_c, 8, 39, 0
13, 30840, Note_on_c, 8, 39, 48
13, 30959, Note_on_c, 8, 39, 0
13, 30960, Note_on_c, 8, 34, 48
13, 31079, Note_on_c, 8, 34, 0
13, 31920, Note_on_c, 8, 41, 96
13, 32039, Note_on_c, 8, 41, 0
13, 32160, Note_on_c, 8, 41, 80
13, 32279, Note_on_c, 8, 41, 0
13, 32280, Note_on_c, 8, 41, 64
13, 32399, Note_on_c, 8, 41, 0
13, 32400, Note_on_c, 8, 34, 48
13, 32519, Note_on_c, 8, 34, 0
13, 85080, Note_on_c, 8, 39, 48
13, 85199, Note_on_c, 8, 39, 0
13, 85200, Note_on_c, 8, 39, 48
13, 85319, Note_on_c, 8, 39, 0
13, 85320, Note_on_c, 8, 34, 48
13, 85439, Note_on_c, 8, 34, 0
13, 86280, Note_on_c, 8, 41, 96
13, 86399, Note_on_c, 8, 41, 0
13, 86520, Note_on_c, 8, 41, 80
13, 86639, Note_on_c, 8, 41, 0
13, 86640, Note_on_c, 8, 41, 64
13, 86759, Note_on_c, 8, 41, 0
13, 86760, Note_on_c, 8, 34, 48
13, 86879, Note_on_c, 8, 34, 0
13, 156720, Note_on_c, 8, 40, 48
13, 156779, Note_on_c, 8, 40, 0
13, 156840, Note_on_c, 8, 40, 48
13, 156899, Note_on_c, 8, 40, 0
13, 156960, Note_on_c, 8, 35, 48
13, 157019, Note_on_c, 8, 35, 0
13, 157440, Note_on_c, 8, 35, 48
13, 157499, Note_on_c, 8, 35, 0
13, 157560, Note_on_c, 8, 35, 48
13, 157619, Note_on_c, 8, 35, 0
13, 157680, Note_on_c, 8, 40, 48
13, 157739, Note_on_c, 8, 40, 0
13, 158160, Note_on_c, 8, 40, 48
13, 158219, Note_on_c, 8, 40, 0
13, 158280, Note_on_c, 8, 40, 48
13, 158339, Note_on_c, 8, 40, 0
13, 158400, Note_on_c, 8, 35, 48
13, 158459, Note_on_c, 8, 35, 0
13, 158880, Note_on_c, 8, 35, 48
13, 158939, Note_on_c, 8, 35, 0
13, 159000, Note_on_c, 8, 40, 48
13, 159059, Note_on_c, 8, 40, 0
13, 159120, Note_on_c, 8, 33, 48
13, 159179, Note_on_c, 8, 33, 0
13, 159600, Note_on_c, 8, 57, 48
13, 159600, Note_on_c, 8, 45, 48
13, 159659, Note_on_c, 8, 45, 0
13, 159659, Note_on_c, 8, 57, 0
13, 159720, Note_on_c, 8, 57, 48
13, 159720, Note_on_c, 8, 45, 48
13, 159779, Note_on_c, 8, 45, 0
13, 159779, Note_on_c, 8, 57, 0
13, 159840, Note_on_c, 8, 52, 48
13, 159840, Note_on_c, 8, 40, 48
13, 159899, Note_on_c, 8, 40, 0
13, 159899, Note_on_c, 8, 52, 0
13, 160320, Note_on_c, 8, 40, 48
13, 160320, Note_on_c, 8, 52, 48
13, 160379, Note_on_c, 8, 52, 0
13, 160379, Note_on_c, 8, 40, 0
13, 160440, Note_on_c, 8, 52, 48
13, 160440, Note_on_c, 8, 40, 48
13, 160499, Note_on_c, 8, 40, 0
13, 160499, Note_on_c, 8, 52, 0
13, 160560, Note_on_c, 8, 45, 48
13, 160560, Note_on_c, 8, 57, 48
13, 160619, Note_on_c, 8, 57, 0
13, 160619, Note_on_c, 8, 45, 0
13, 161040, Note_on_c, 8, 57, 48
13, 161040, Note_on_c, 8, 45, 48
13, 161099, Note_on_c, 8, 45, 0
13, 161099, Note_on_c, 8, 57, 0
13, 161160, Note_on_c, 8, 45, 48
13, 161160, Note_on_c, 8, 57, 48
13, 161219, Note_on_c, 8, 57, 0
13, 161219, Note_on_c, 8, 45, 0
13, 161280, Note_on_c, 8, 52, 48
13, 161280, Note_on_c, 8, 40, 48
13, 161339, Note_on_c, 8, 40, 0
13, 161339, Note_on_c, 8, 52, 0
13, 170400, Note_on_c, 8, 39, 48
13, 170519, Note_on_c, 8, 39, 0
13, 170520, Note_on_c, 8, 39, 48
13, 170639, Note_on_c, 8, 39, 0
13, 170640, Note_on_c, 8, 34, 48
13, 170759, Note_on_c, 8, 34, 0
13, 171120, Note_on_c, 8, 46, 48
13, 171239, Note_on_c, 8, 46, 0
13, 171240, Note_on_c, 8, 46, 48
13, 171359, Note_on_c, 8, 46, 0
13, 171360, Note_on_c, 8, 51, 48
13, 171479, Note_on_c, 8, 51, 0
13, 190320, Note_on_c, 8, 58, 32
13, 190320, Note_on_c, 8, 46, 32
13, 190320, Note_on_c, 8, 34, 32
13, 190320, Note_on_c, 8, 34, 32
13, 190439, Note_on_c, 8, 34, 0
13, 190439, Note_on_c, 8, 58, 0
13, 190439, Note_on_c, 8, 46, 0
13, 190439, Note_on_c, 8, 34, 0
13, 190680, Note_on_c, 8, 58, 32
13, 190680, Note_on_c, 8, 46, 32
13, 190680, Note_on_c, 8, 34, 32
13, 190799, Note_on_c, 8, 34, 0
13, 190799, Note_on_c, 8, 46, 0
13, 190799, Note_on_c, 8, 58, 0
13, 191040, Note_on_c, 8, 58, 32
13, 191040, Note_on_c, 8, 46, 32
13, 191040, Note_on_c, 8, 34, 32
13, 191159, Note_on_c, 8, 34, 0
13, 191159, Note_on_c, 8, 46, 0
13, 191159, Note_on_c, 8, 58, 0
13, 191400, Note_on_c, 8, 58, 32
13, 191400, Note_on_c, 8, 46, 32
13, 191400, Note_on_c, 8, 34, 32
13, 191519, Note_on_c, 8, 34, 0
13, 191519, Note_on_c, 8, 46, 0
13, 191519, Note_on_c, 8, 58, 0
13, 192480, Note_on_c, 8, 58, 32
13, 192480, Note_on_c, 8, 46, 32
13, 192480, Note_on_c, 8, 34, 32
13, 192599, Note_on_c, 8, 34, 0
13, 192599, Note_on_c, 8, 46, 0
13, 192599, Note_on_c, 8, 58, 0
13, 192840, Note_on_c, 8, 58, 32
13, 192840, Note_on_c, 8, 46, 32
13, 192840, Note_on_c, 8, 34, 32
13, 192959, Note_on_c, 8, 34, 0
13, 192959, Note_on_c, 8, 46, 0
13, 192959, Note_on_c, 8, 58, 0
13, 193920, Note_on_c, 8, 58, 32
13, 193920, Note_on_c, 8, 46, 32
13, 193920, Note_on_c, 8, 34, 32
13, 194039, Note_on_c, 8, 34, 0
13, 194039, Note_on_c, 8, 46, 0
13, 194039, Note_on_c, 8, 58, 0
13, 194280, Note_on_c, 8, 58, 32
13, 194280, Note_on_c, 8, 46, 32
13, 194280, Note_on_c, 8, 34, 32
13, 194399, Note_on_c, 8, 34, 0
13, 194399, Note_on_c, 8, 46, 0
13, 194399, Note_on_c, 8, 58, 0
13, 200640, Note_on_c, 8, 36, 48
13, 200759, Note_on_c, 8, 36, 0
13, 200760, Note_on_c, 8, 36, 48
13, 200879, Note_on_c, 8, 36, 0
13, 200880, Note_on_c, 8, 41, 48
13, 200999, Note_on_c, 8, 41, 0
13, 201600, Note_on_c, 8, 53, 48
13, 201600, Note_on_c, 8, 41, 48
13, 201719, Note_on_c, 8, 41, 0
13, 201719, Note_on_c, 8, 53, 0
13, 201840, Note_on_c, 8, 48, 48
13, 201840, Note_on_c, 8, 36, 48
13, 201959, Note_on_c, 8, 36, 0
13, 201959, Note_on_c, 8, 48, 0
13, 201960, Note_on_c, 8, 53, 48
13, 201960, Note_on_c, 8, 41, 48
13, 202079, Note_on_c, 8, 41, 0
13, 202079, Note_on_c, 8, 53, 0
13, 202080, Note_on_c, 8, 57, 48
13, 202080, Note_on_c, 8, 45, 48
13, 202199, Note_on_c, 8, 45, 0
13, 202199, Note_on_c, 8, 57, 0
13, 202200, Note_on_c, 8, 60, 48
13, 202200, Note_on_c, 8, 48, 48
13, 202319, Note_on_c, 8, 48, 0
13, 202319, Note_on_c, 8, 60, 0
13, 202320, Note_on_c, 8, 60, 48
13, 202320, Note_on_c, 8, 48, 48
13, 202439, Note_on_c, 8, 48, 0
13, 202439, Note_on_c, 8, 60, 0
13, 202560, Note_on_c, 8, 58, 48
13, 202560, Note_on_c, 8, 46, 48
13, 202679, Note_on_c, 8, 46, 0
13, 202679, Note_on_c, 8, 58, 0
13, 202680, Note_on_c, 8, 55, 48
13, 202680, Note_on_c, 8, 43, 48
13, 202799, Note_on_c, 8, 43, 0
13, 202799, Note_on_c, 8, 55, 0
13, 202800, Note_on_c, 8, 52, 48
13, 202800, Note_on_c, 8, 40, 48
13, 202919, Note_on_c, 8, 40, 0
13, 202919, Note_on_c, 8, 52, 0
13, 202920, Note_on_c, 8, 48, 48
13, 202920, Note_on_c, 8, 36, 48
13, 203039, Note_on_c, 8, 36, 0
13, 203039, Note_on_c, 8, 48, 0
13, 203040, Note_on_c, 8, 53, 48
13, 203040, Note_on_c, 8, 41, 48
13, 203159, Note_on_c, 8, 41, 0
13, 203159, Note_on_c, 8, 53, 0
13, 203760, Note_on_c, 8, 49, 48
13, 203760, Note_on_c, 8, 37, 48
13, 203879, Note_on_c, 8, 37, 0
13, 203879, Note_on_c, 8, 49, 0
13, 204480, Note_on_c, 8, 61, 48
13, 204480, Note_on_c, 8, 49, 48
13, 204480, Note_on_c, 8, 37, 48
13, 204599, Note_on_c, 8, 37, 0
13, 204599, Note_on_c, 8, 49, 0
13, 204599, Note_on_c, 8, 61, 0
13, 204720, Note_on_c, 8, 68, 48
13, 204720, Note_on_c, 8, 61, 48
13, 204720, Note_on_c, 8, 49, 48
13, 204839, Note_on_c, 8, 49, 0
13, 204839, Note_on_c, 8, 61, 0
13, 204839, Note_on_c, 8, 68, 0
13, 204840, Note_on_c, 8, 73, 48
13, 204840, Note_on_c, 8, 56, 48
13, 204840, Note_on_c, 8, 44, 48
13, 204959, Note_on_c, 8, 44, 0
13, 204959, Note_on_c, 8, 56, 0
13, 204959, Note_on_c, 8, 73, 0
13, 204960, Note_on_c, 8, 77, 48
13, 204960, Note_on_c, 8, 53, 48
13, 204960, Note_on_c, 8, 41, 48
13, 205079, Note_on_c, 8, 41, 0
13, 205079, Note_on_c, 8, 53, 0
13, 205079, Note_on_c, 8, 77, 0
13, 205080, Note_on_c, 8, 80, 48
13, 205080, Note_on_c, 8, 49, 48
13, 205080, Note_on_c, 8, 37, 48
13, 205199, Note_on_c, 8, 37, 0
13, 205199, Note_on_c, 8, 49, 0
13, 205199, Note_on_c, 8, 80, 0
13, 205200, Note_on_c, 8, 80, 48
13, 205200, Note_on_c, 8, 48, 48
13, 205200, Note_on_c, 8, 36, 48
13, 205319, Note_on_c, 8, 36, 0
13, 205319, Note_on_c, 8, 48, 0
13, 205319, Note_on_c, 8, 80, 0
13, 205440, Note_on_c, 8, 78, 48
13, 205440, Note_on_c, 8, 48, 48
13, 205440, Note_on_c, 8, 36, 48
13, 205559, Note_on_c, 8, 36, 0
13, 205559, Note_on_c, 8, 48, 0
13, 205559, Note_on_c, 8, 78, 0
13, 205560, Note_on_c, 8, 75, 48
13, 205560, Note_on_c, 8, 51, 48
13, 205560, Note_on_c, 8, 39, 48
13, 205679, Note_on_c, 8, 39, 0
13, 205679, Note_on_c, 8, 51, 0
13, 205679, Note_on_c, 8, 75, 0
13, 205680, Note_on_c, 8, 72, 48
13, 205680, Note_on_c, 8, 56, 48
13, 205680, Note_on_c, 8, 44, 48
13, 205799, Note_on_c, 8, 44, 0
13, 205799, Note_on_c, 8, 56, 0
13, 205799, Note_on_c, 8, 72, 0
13, 205800, Note_on_c, 8, 66, 48
13, 205800, Note_on_c, 8, 48, 48
13, 205800, Note_on_c, 8, 60, 48
13, 205919, Note_on_c, 8, 60, 0
13, 205919, Note_on_c, 8, 48, 0
13, 205919, Note_on_c, 8, 66, 0
13, 205920, Note_on_c, 8, 65, 48
13, 205920, Note_on_c, 8, 61, 48
13, 205920, Note_on_c, 8, 49, 48
13, 206039, Note_on_c, 8, 49, 0
13, 206039, Note_on_c, 8, 61, 0
13, 206039, Note_on_c, 8, 65, 0
13, 230160, Note_on_c, 8, 44, 48
13, 230279, Note_on_c, 8, 44, 0
13, 230280, Note_on_c, 8, 44, 48
13, 230399, Note_on_c, 8, 44, 0
13, 230400, Note_on_c, 8, 41, 48
13, 230519, Note_on_c, 8, 41, 0
13, 231360, Note_on_c, 8, 34, 48
13, 231479, Note_on_c, 8, 34, 0
13, 231600, Note_on_c, 8, 34, 56
13, 231719, Note_on_c, 8, 34, 0
13, 231720, Note_on_c, 8, 34, 52
13, 231839, Note_on_c, 8, 34, 0
13, 231960, Note_on_c, 8, 39, 48
13, 232079, Note_on_c, 8, 39, 0
13, 262920, Note_on_c, 8, 48, 32
13, 262920, Note_on_c, 8, 36, 32
13, 263039, Note_on_c, 8, 36, 0
13, 263039, Note_on_c, 8, 48, 0
13, 263040, Note_on_c, 8, 48, 32
13, 263040, Note_on_c, 8, 36, 32
13, 263159, Note_on_c, 8, 36, 0
13, 263159, Note_on_c, 8, 48, 0
13, 263160, Note_on_c, 8, 53, 32
13, 263160, Note_on_c, 8, 41, 32
13, 263279, Note_on_c, 8, 41, 0
13, 263279, Note_on_c, 8, 53, 0
13, 263640, Note_on_c, 8, 53, 32
13, 263640, Note_on_c, 8, 41, 32
13, 263759, Note_on_c, 8, 41, 0
13, 263759, Note_on_c, 8, 53, 0
13, 263760, Note_on_c, 8, 53, 32
13, 263760, Note_on_c, 8, 41, 32
13, 263879, Note_on_c, 8, 41, 0
13, 263879, Note_on_c, 8, 53, 0
13, 263880, Note_on_c, 8, 48, 32
13, 263880, Note_on_c, 8, 36, 32
13, 263999, Note_on_c, 8, 36, 0
13, 263999, Note_on_c, 8, 48, 0
13, 264360, Note_on_c, 8, 48, 32
13, 264360, Note_on_c, 8, 36, 32
13, 264479, Note_on_c, 8, 36, 0
13, 264479, Note_on_c, 8, 48, 0
13, 264480, Note_on_c, 8, 48, 32
13, 264480, Note_on_c, 8, 36, 32
13, 264599, Note_on_c, 8, 36, 0
13, 264599, Note_on_c, 8, 48, 0
13, 264600, Note_on_c, 8, 53, 32
13, 264600, Note_on_c, 8, 41, 32
13, 264719, Note_on_c, 8, 41, 0
13, 264719, Note_on_c, 8, 53, 0
13, 265080, Note_on_c, 8, 53, 32
13, 265080, Note_on_c, 8, 41, 32
13, 265199, Note_on_c, 8, 41, 0
13, 265199, Note_on_c, 8, 53, 0
13, 265200, Note_on_c, 8, 53, 32
13, 265200, Note_on_c, 8, 41, 32
13, 265319, Note_on_c, 8, 41, 0
13, 265319, Note_on_c, 8, 53, 0
13, 266520, Note_on_c, 8, 63, 48
13, 266520, Note_on_c, 8, 39, 48
13, 266639, Note_on_c, 8, 39, 0
13, 266639, Note_on_c, 8, 63, 0
13, 266640, Note_on_c, 8, 63, 48
13, 266640, Note_on_c, 8, 39, 48
13, 266759, Note_on_c, 8, 39, 0
13, 266759, Note_on_c, 8, 63, 0
13, 266760, Note_on_c, 8, 58, 48
13, 266760, Note_on_c, 8, 34, 48
13, 266879, Note_on_c, 8, 34, 0
13, 266879, Note_on_c, 8, 58, 0
13, 267240, Note_on_c, 8, 58, 48
13, 267240, Note_on_c, 8, 34, 48
13, 267359, Note_on_c, 8, 34, 0
13, 267359, Note_on_c, 8, 58, 0
13, 267360, Note_on_c, 8, 58, 48
13, 267360, Note_on_c, 8, 34, 48
13, 267479, Note_on_c, 8, 34, 0
13, 267479, Note_on_c, 8, 58, 0
13, 267480, Note_on_c, 8, 63, 48
13, 267480, Note_on_c, 8, 39, 48
13, 267599, Note_on_c, 8, 39, 0
13, 267599, Note_on_c, 8, 63, 0
13, 267960, Note_on_c, 8, 63, 48
13, 267960, Note_on_c, 8, 39, 48
13, 268079, Note_on_c, 8, 39, 0
13, 268079, Note_on_c, 8, 63, 0
13, 268080, Note_on_c, 8, 63, 48
13, 268080, Note_on_c, 8, 39, 48
13, 268199, Note_on_c, 8, 39, 0
13, 268199, Note_on_c, 8, 63, 0
13, 268200, Note_on_c, 8, 58, 48
13, 268200, Note_on_c, 8, 34, 48
13, 268319, Note_on_c, 8, 34, 0
13, 268319, Note_on_c, 8, 58, 0
13, 284040, Note_on_c, 8, 39, 48
13, 284159, Note_on_c, 8, 39, 0
13, 284760, Note_on_c, 8, 39, 48
13, 284879, Note_on_c, 8, 39, 0
13, 285480, Note_on_c, 8, 38, 48
13, 285599, Note_on_c, 8, 38, 0
13, 286200, Note_on_c, 8, 34, 48
13, 286319, Note_on_c, 8, 34, 0
13, 286680, Note_on_c, 8, 34, 48
13, 286799, Note_on_c, 8, 34, 0
13, 286800, Note_on_c, 8, 34, 48
13, 286919, Note_on_c, 8, 34, 0
13, 286919, End_track
14, 0, Start_track
14, 0, MIDI_port, 0
14, 0, Title_t, "Violins"
14, 0, Program_c, 7, 48
14, 0, Control_c, 7, 7, 127
14, 0, Control_c, 7, 10, 46
14, 0, Control_c, 7, 93, 0
14, 0, Control_c, 7, 91, 0
14, 0, Note_on_c, 7, 70, 127
14, 0, Note_on_c, 7, 75, 96
14, 0, Note_on_c, 7, 55, 127
14, 0, Note_on_c, 7, 63, 127
14, 0, Note_on_c, 7, 70, 127
14, 0, Note_on_c, 7, 79, 96
14, 29, Note_on_c, 7, 70, 0
14, 59, Note_on_c, 7, 75, 0
14, 59, Note_on_c, 7, 55, 0
14, 59, Note_on_c, 7, 70, 0
14, 59, Note_on_c, 7, 79, 0
14, 59, Note_on_c, 7, 63, 0
14, 360, Note_on_c, 7, 79, 96
14, 360, Note_on_c, 7, 75, 96
14, 360, Note_on_c, 7, 70, 127
14, 360, Note_on_c, 7, 63, 127
14, 360, Note_on_c, 7, 55, 127
14, 419, Note_on_c, 7, 55, 0
14, 419, Note_on_c, 7, 70, 0
14, 419, Note_on_c, 7, 79, 0
14, 419, Note_on_c, 7, 75, 0
14, 419, Note_on_c, 7, 63, 0
14, 720, Note_on_c, 7, 67, 48
14, 779, Note_on_c, 7, 67, 0
14, 780, Note_on_c, 7, 67, 48
14, 839, Note_on_c, 7, 67, 0
14, 840, Note_on_c, 7, 67, 48
14, 899, Note_on_c, 7, 67, 0
14, 900, Note_on_c, 7, 67, 48
14, 959, Note_on_c, 7, 67, 0
14, 960, Note_on_c, 7, 67, 48
14, 1019, Note_on_c, 7, 67, 0
14, 1020, Note_on_c, 7, 67, 48
14, 1079, Note_on_c, 7, 67, 0
14, 1080, Note_on_c, 7, 67, 48
14, 1139, Note_on_c, 7, 67, 0
14, 1140, Note_on_c, 7, 67, 48
14, 1199, Note_on_c, 7, 67, 0
14, 1200, Note_on_c, 7, 67, 48
14, 1259, Note_on_c, 7, 67, 0
14, 1260, Note_on_c, 7, 67, 48
14, 1319, Note_on_c, 7, 67, 0
14, 1320, Note_on_c, 7, 67, 48
14, 1379, Note_on_c, 7, 67, 0
14, 1380, Note_on_c, 7, 67, 48
14, 1439, Note_on_c, 7, 67, 0
14, 1440, Note_on_c, 7, 67, 48
14, 1499, Note_on_c, 7, 67, 0
14, 1500, Note_on_c, 7, 67, 48
14, 1559, Note_on_c, 7, 67, 0
14, 1560, Note_on_c, 7, 67, 48
14, 1619, Note_on_c, 7, 67, 0
14, 1620, Note_on_c, 7, 67, 48
14, 1679, Note_on_c, 7, 67, 0
14, 1680, Note_on_c, 7, 67, 48
14, 1739, Note_on_c, 7, 67, 0
14, 1740, Note_on_c, 7, 67, 48
14, 1799, Note_on_c, 7, 67, 0
14, 1800, Note_on_c, 7, 67, 48
14, 1859, Note_on_c, 7, 67, 0
14, 1860, Note_on_c, 7, 67, 48
14, 1919, Note_on_c, 7, 67, 0
14, 1920, Note_on_c, 7, 67, 48
14, 1979, Note_on_c, 7, 67, 0
14, 1980, Note_on_c, 7, 67, 48
14, 2039, Note_on_c, 7, 67, 0
14, 2040, Note_on_c, 7, 67, 48
14, 2099, Note_on_c, 7, 67, 0
14, 2100, Note_on_c, 7, 67, 48
14, 2159, Note_on_c, 7, 67, 0
14, 2160, Note_on_c, 7, 67, 48
14, 2219, Note_on_c, 7, 67, 0
14, 2220, Note_on_c, 7, 79, 48
14, 2220, Note_on_c, 7, 67, 51
14, 2279, Note_on_c, 7, 67, 0
14, 2280, Note_on_c, 7, 67, 54
14, 2339, Note_on_c, 7, 67, 0
14, 2339, Note_on_c, 7, 79, 0
14, 2340, Note_on_c, 7, 79, 54
14, 2340, Note_on_c, 7, 67, 57
14, 2399, Note_on_c, 7, 67, 0
14, 2400, Note_on_c, 7, 67, 60
14, 2459, Note_on_c, 7, 67, 0
14, 2459, Note_on_c, 7, 79, 0
14, 2460, Note_on_c, 7, 79, 60
14, 2460, Note_on_c, 7, 67, 63
14, 2519, Note_on_c, 7, 67, 0
14, 2520, Note_on_c, 7, 67, 66
14, 2579, Note_on_c, 7, 67, 0
14, 2579, Note_on_c, 7, 79, 0
14, 2580, Note_on_c, 7, 79, 66
14, 2580, Note_on_c, 7, 67, 69
14, 2639, Note_on_c, 7, 67, 0
14, 2640, Note_on_c, 7, 67, 72
14, 2699, Note_on_c, 7, 67, 0
14, 2699, Note_on_c, 7, 79, 0
14, 2700, Note_on_c, 7, 67, 75
14, 2700, Note_on_c, 7, 79, 72
14, 2759, Note_on_c, 7, 67, 0
14, 2760, Note_on_c, 7, 67, 78
14, 2819, Note_on_c, 7, 67, 0
14, 2819, Note_on_c, 7, 79, 0
14, 2820, Note_on_c, 7, 79, 78
14, 2820, Note_on_c, 7, 67, 81
14, 2879, Note_on_c, 7, 67, 0
14, 2880, Note_on_c, 7, 67, 81
14, 2940, Note_on_c, 7, 58, 81
14, 2949, Note_on_c, 7, 67, 0
14, 3000, Note_on_c, 7, 67, 81
14, 3009, Note_on_c, 7, 58, 0
14, 3060, Note_on_c, 7, 58, 81
14, 3069, Note_on_c, 7, 67, 0
14, 3120, Note_on_c, 7, 67, 81
14, 3129, Note_on_c, 7, 58, 0
14, 3180, Note_on_c, 7, 58, 81
14, 3189, Note_on_c, 7, 67, 0
14, 3239, Note_on_c, 7, 58, 0
14, 3239, Note_on_c, 7, 79, 0
14, 3240, Note_on_c, 7, 80, 96
14, 3240, Note_on_c, 7, 65, 96
14, 3300, Note_on_c, 7, 58, 88
14, 3309, Note_on_c, 7, 65, 0
14, 3360, Note_on_c, 7, 65, 80
14, 3369, Note_on_c, 7, 58, 0
14, 3420, Note_on_c, 7, 58, 72
14, 3429, Note_on_c, 7, 65, 0
14, 3480, Note_on_c, 7, 65, 64
14, 3489, Note_on_c, 7, 58, 0
14, 3540, Note_on_c, 7, 58, 56
14, 3549, Note_on_c, 7, 65, 0
14, 3599, Note_on_c, 7, 58, 0
14, 3600, Note_on_c, 7, 63, 48
14, 3660, Note_on_c, 7, 58, 48
14, 3669, Note_on_c, 7, 63, 0
14, 3720, Note_on_c, 7, 63, 48
14, 3729, Note_on_c, 7, 58, 0
14, 3780, Note_on_c, 7, 58, 48
14, 3789, Note_on_c, 7, 63, 0
14, 3839, Note_on_c, 7, 80, 0
14, 3840, Note_on_c, 7, 63, 48
14, 3840, Note_on_c, 7, 79, 48
14, 3849, Note_on_c, 7, 58, 0
14, 3900, Note_on_c, 7, 58, 48
14, 3909, Note_on_c, 7, 63, 0
14, 3959, Note_on_c, 7, 58, 0
14, 3960, Note_on_c, 7, 60, 48
14, 3960, Note_on_c, 7, 77, 48
14, 3969, Note_on_c, 7, 79, 0
14, 4020, Note_on_c, 7, 63, 48
14, 4029, Note_on_c, 7, 60, 0
14, 4080, Note_on_c, 7, 58, 48
14, 4080, Note_on_c, 7, 79, 48
14, 4089, Note_on_c, 7, 63, 0
14, 4089, Note_on_c, 7, 77, 0
14, 4140, Note_on_c, 7, 63, 48
14, 4149, Note_on_c, 7, 58, 0
14, 4200, Note_on_c, 7, 56, 48
14, 4200, Note_on_c, 7, 80, 48
14, 4209, Note_on_c, 7, 63, 0
14, 4209, Note_on_c, 7, 79, 0
14, 4260, Note_on_c, 7, 63, 48
14, 4269, Note_on_c, 7, 56, 0
14, 4319, Note_on_c, 7, 63, 0
14, 4319, Note_on_c, 7, 80, 0
14, 4320, Note_on_c, 7, 79, 48
14, 4320, Note_on_c, 7, 58, 48
14, 4380, Note_on_c, 7, 82, 48
14, 4380, Note_on_c, 7, 63, 48
14, 4389, Note_on_c, 7, 58, 0
14, 4389, Note_on_c, 7, 79, 0
14, 4440, Note_on_c, 7, 80, 48
14, 4440, Note_on_c, 7, 55, 48
14, 4449, Note_on_c, 7, 82, 0
14, 4449, Note_on_c, 7, 63, 0
14, 4500, Note_on_c, 7, 79, 48
14, 4500, Note_on_c, 7, 58, 48
14, 4509, Note_on_c, 7, 80, 0
14, 4509, Note_on_c, 7, 55, 0
14, 4560, Note_on_c, 7, 77, 48
14, 4560, Note_on_c, 7, 55, 48
14, 4569, Note_on_c, 7, 79, 0
14, 4569, Note_on_c, 7, 58, 0
14, 4620, Note_on_c, 7, 75, 48
14, 4620, Note_on_c, 7, 58, 48
14, 4629, Note_on_c, 7, 77, 0
14, 4629, Note_on_c, 7, 55, 0
14, 4679, Note_on_c, 7, 75, 0
14, 4679, Note_on_c, 7, 58, 0
14, 4680, Note_on_c, 7, 74, 48
14, 4680, Note_on_c, 7, 56, 48
14, 4740, Note_on_c, 7, 70, 48
14, 4740, Note_on_c, 7, 58, 48
14, 4749, Note_on_c, 7, 56, 0
14, 4749, Note_on_c, 7, 74, 0
14, 4800, Note_on_c, 7, 75, 48
14, 4800, Note_on_c, 7, 55, 48
14, 4809, Note_on_c, 7, 70, 0
14, 4809, Note_on_c, 7, 58, 0
14, 4860, Note_on_c, 7, 70, 48
14, 4860, Note_on_c, 7, 58, 48
14, 4869, Note_on_c, 7, 75, 0
14, 4869, Note_on_c, 7, 55, 0
14, 4920, Note_on_c, 7, 68, 48
14, 4920, Note_on_c, 7, 62, 48
14, 4929, Note_on_c, 7, 70, 0
14, 4929, Note_on_c, 7, 58, 0
14, 4980, Note_on_c, 7, 65, 48
14, 4980, Note_on_c, 7, 58, 48
14, 4989, Note_on_c, 7, 68, 0
14, 4989, Note_on_c, 7, 62, 0
14, 5039, Note_on_c, 7, 65, 0
14, 5039, Note_on_c, 7, 58, 0
14, 5040, Note_on_c, 7, 63, 48
14, 5100, Note_on_c, 7, 58, 48
14, 5129, Note_on_c, 7, 58, 0
14, 5159, Note_on_c, 7, 63, 0
14, 5160, Note_on_c, 7, 58, 48
14, 5219, Note_on_c, 7, 58, 0
14, 5220, Note_on_c, 7, 58, 48
14, 5279, Note_on_c, 7, 58, 0
14, 5280, Note_on_c, 7, 58, 48
14, 5339, Note_on_c, 7, 58, 0
14, 5340, Note_on_c, 7, 58, 48
14, 5399, Note_on_c, 7, 58, 0
14, 5400, Note_on_c, 7, 58, 48
14, 5459, Note_on_c, 7, 58, 0
14, 5460, Note_on_c, 7, 58, 48
14, 5519, Note_on_c, 7, 58, 0
14, 5520, Note_on_c, 7, 58, 48
14, 5579, Note_on_c, 7, 58, 0
14, 5580, Note_on_c, 7, 58, 48
14, 5639, Note_on_c, 7, 58, 0
14, 5640, Note_on_c, 7, 58, 48
14, 5699, Note_on_c, 7, 58, 0
14, 5700, Note_on_c, 7, 58, 48
14, 5759, Note_on_c, 7, 58, 0
14, 5760, Note_on_c, 7, 58, 48
14, 5819, Note_on_c, 7, 58, 0
14, 5820, Note_on_c, 7, 58, 48
14, 5879, Note_on_c, 7, 58, 0
14, 5880, Note_on_c, 7, 58, 48
14, 5939, Note_on_c, 7, 58, 0
14, 5940, Note_on_c, 7, 58, 48
14, 5999, Note_on_c, 7, 58, 0
14, 6000, Note_on_c, 7, 58, 48
14, 6059, Note_on_c, 7, 58, 0
14, 6060, Note_on_c, 7, 58, 48
14, 6119, Note_on_c, 7, 58, 0
14, 6120, Note_on_c, 7, 58, 48
14, 6179, Note_on_c, 7, 58, 0
14, 6180, Note_on_c, 7, 58, 48
14, 6239, Note_on_c, 7, 58, 0
14, 6240, Note_on_c, 7, 61, 48
14, 6299, Note_on_c, 7, 61, 0
14, 6300, Note_on_c, 7, 61, 48
14, 6359, Note_on_c, 7, 61, 0
14, 6360, Note_on_c, 7, 76, 54
14, 6360, Note_on_c, 7, 60, 48
14, 6419, Note_on_c, 7, 60, 0
14, 6420, Note_on_c, 7, 60, 48
14, 6479, Note_on_c, 7, 60, 0
14, 6480, Note_on_c, 7, 77, 54
14, 6480, Note_on_c, 7, 60, 48
14, 6489, Note_on_c, 7, 76, 0
14, 6539, Note_on_c, 7, 60, 0
14, 6540, Note_on_c, 7, 60, 48
14, 6599, Note_on_c, 7, 60, 0
14, 6600, Note_on_c, 7, 80, 54
14, 6600, Note_on_c, 7, 60, 48
14, 6609, Note_on_c, 7, 77, 0
14, 6659, Note_on_c, 7, 60, 0
14, 6660, Note_on_c, 7, 60, 48
14, 6719, Note_on_c, 7, 60, 0
14, 6720, Note_on_c, 7, 84, 54
14, 6720, Note_on_c, 7, 60, 48
14, 6729, Note_on_c, 7, 80, 0
14, 6779, Note_on_c, 7, 60, 0
14, 6780, Note_on_c, 7, 60, 48
14, 6839, Note_on_c, 7, 60, 0
14, 6839, Note_on_c, 7, 84, 0
14, 6840, Note_on_c, 7, 77, 54
14, 6840, Note_on_c, 7, 60, 48
14, 6899, Note_on_c, 7, 60, 0
14, 6900, Note_on_c, 7, 60, 48
14, 6959, Note_on_c, 7, 60, 0
14, 6959, Note_on_c, 7, 77, 0
14, 6960, Note_on_c, 7, 61, 48
14, 7019, Note_on_c, 7, 61, 0
14, 7020, Note_on_c, 7, 61, 48
14, 7079, Note_on_c, 7, 61, 0
14, 7080, Note_on_c, 7, 63, 48
14, 7139, Note_on_c, 7, 63, 0
14, 7140, Note_on_c, 7, 63, 48
14, 7199, Note_on_c, 7, 63, 0
14, 7200, Note_on_c, 7, 63, 48
14, 7259, Note_on_c, 7, 63, 0
14, 7260, Note_on_c, 7, 63, 48
14, 7319, Note_on_c, 7, 63, 0
14, 7320, Note_on_c, 7, 63, 48
14, 7379, Note_on_c, 7, 63, 0
14, 7380, Note_on_c, 7, 63, 48
14, 7439, Note_on_c, 7, 63, 0
14, 7440, Note_on_c, 7, 63, 48
14, 7499, Note_on_c, 7, 63, 0
14, 7500, Note_on_c, 7, 63, 48
14, 7559, Note_on_c, 7, 63, 0
14, 7560, Note_on_c, 7, 63, 48
14, 7619, Note_on_c, 7, 63, 0
14, 7620, Note_on_c, 7, 63, 56
14, 7679, Note_on_c, 7, 63, 0
14, 7680, Note_on_c, 7, 63, 64
14, 7739, Note_on_c, 7, 63, 0
14, 7740, Note_on_c, 7, 63, 72
14, 7799, Note_on_c, 7, 63, 0
14, 7800, Note_on_c, 7, 81, 80
14, 7800, Note_on_c, 7, 63, 80
14, 7859, Note_on_c, 7, 63, 0
14, 7860, Note_on_c, 7, 63, 88
14, 7919, Note_on_c, 7, 63, 0
14, 7920, Note_on_c, 7, 82, 96
14, 7920, Note_on_c, 7, 62, 96
14, 7929, Note_on_c, 7, 81, 0
14, 7949, Note_on_c, 7, 82, 0
14, 7950, Note_on_c, 7, 82, 48
14, 7979, Note_on_c, 7, 62, 0
14, 7980, Note_on_c, 7, 58, 48
14, 8040, Note_on_c, 7, 62, 48
14, 8049, Note_on_c, 7, 58, 0
14, 8100, Note_on_c, 7, 65, 48
14, 8109, Note_on_c, 7, 62, 0
14, 8159, Note_on_c, 7, 82, 0
14, 8160, Note_on_c, 7, 77, 48
14, 8160, Note_on_c, 7, 70, 48
14, 8169, Note_on_c, 7, 65, 0
14, 8220, Note_on_c, 7, 74, 48
14, 8229, Note_on_c, 7, 70, 0
14, 8279, Note_on_c, 7, 74, 0
14, 8279, Note_on_c, 7, 77, 0
14, 8280, Note_on_c, 7, 74, 48
14, 8280, Note_on_c, 7, 77, 48
14, 8399, Note_on_c, 7, 77, 0
14, 8400, Note_on_c, 7, 70, 48
14, 8400, Note_on_c, 7, 65, 48
14, 8409, Note_on_c, 7, 74, 0
14, 8520, Note_on_c, 7, 68, 48
14, 8520, Note_on_c, 7, 62, 48
14, 8529, Note_on_c, 7, 65, 0
14, 8529, Note_on_c, 7, 70, 0
14, 8639, Note_on_c, 7, 68, 0
14, 8639, Note_on_c, 7, 62, 0
14, 8640, Note_on_c, 7, 67, 48
14, 8640, Note_on_c, 7, 63, 48
14, 8699, Note_on_c, 7, 63, 0
14, 8699, Note_on_c, 7, 67, 0
14, 8760, Note_on_c, 7, 75, 96
14, 8760, Note_on_c, 7, 72, 96
14, 8760, Note_on_c, 7, 63, 96
14, 8880, Note_on_c, 7, 69, 90
14, 8889, Note_on_c, 7, 75, 0
14, 8999, Note_on_c, 7, 72, 0
14, 8999, Note_on_c, 7, 63, 0
14, 8999, Note_on_c, 7, 69, 0
14, 9000, Note_on_c, 7, 81, 96
14, 9000, Note_on_c, 7, 72, 96
14, 9000, Note_on_c, 7, 63, 96
14, 9120, Note_on_c, 7, 69, 90
14, 9129, Note_on_c, 7, 81, 0
14, 9239, Note_on_c, 7, 72, 0
14, 9239, Note_on_c, 7, 63, 0
14, 9239, Note_on_c, 7, 69, 0
14, 9240, Note_on_c, 7, 81, 96
14, 9240, Note_on_c, 7, 72, 96
14, 9240, Note_on_c, 7, 63, 96
14, 9359, Note_on_c, 7, 63, 0
14, 9359, Note_on_c, 7, 72, 0
14, 9360, Note_on_c, 7, 82, 96
14, 9360, Note_on_c, 7, 70, 96
14, 9360, Note_on_c, 7, 62, 96
14, 9369, Note_on_c, 7, 81, 0
14, 9389, Note_on_c, 7, 82, 0
14, 9389, Note_on_c, 7, 70, 0
14, 9389, Note_on_c, 7, 62, 0
14, 9390, Note_on_c, 7, 82, 48
14, 9420, Note_on_c, 7, 58, 48
14, 9480, Note_on_c, 7, 62, 48
14, 9489, Note_on_c, 7, 58, 0
14, 9540, Note_on_c, 7, 65, 48
14, 9549, Note_on_c, 7, 62, 0
14, 9599, Note_on_c, 7, 82, 0
14, 9600, Note_on_c, 7, 77, 48
14, 9600, Note_on_c, 7, 70, 48
14, 9609, Note_on_c, 7, 65, 0
14, 9660, Note_on_c, 7, 74, 48
14, 9669, Note_on_c, 7, 70, 0
14, 9719, Note_on_c, 7, 74, 0
14, 9719, Note_on_c, 7, 77, 0
14, 9720, Note_on_c, 7, 74, 48
14, 9720, Note_on_c, 7, 77, 48
14, 9779, Note_on_c, 7, 77, 0
14, 9840, Note_on_c, 7, 70, 48
14, 9849, Note_on_c, 7, 74, 0
14, 9959, Note_on_c, 7, 70, 0
14, 9960, Note_on_c, 7, 62, 96
14, 9960, Note_on_c, 7, 70, 96
14, 9960, Note_on_c, 7, 58, 96
14, 9960, Note_on_c, 7, 65, 96
14, 10079, Note_on_c, 7, 65, 0
14, 10079, Note_on_c, 7, 62, 0
14, 10079, Note_on_c, 7, 70, 0
14, 10079, Note_on_c, 7, 58, 0
14, 10080, Note_on_c, 7, 70, 90
14, 10080, Note_on_c, 7, 62, 90
14, 10080, Note_on_c, 7, 58, 90
14, 10080, Note_on_c, 7, 65, 90
14, 10139, Note_on_c, 7, 65, 0
14, 10139, Note_on_c, 7, 70, 0
14, 10139, Note_on_c, 7, 62, 0
14, 10139, Note_on_c, 7, 58, 0
14, 10200, Note_on_c, 7, 74, 96
14, 10200, Note_on_c, 7, 58, 96
14, 10200, Note_on_c, 7, 65, 96
14, 10320, Note_on_c, 7, 70, 90
14, 10329, Note_on_c, 7, 74, 0
14, 10439, Note_on_c, 7, 58, 0
14, 10439, Note_on_c, 7, 65, 0
14, 10439, Note_on_c, 7, 70, 0
14, 10440, Note_on_c, 7, 77, 96
14, 10440, Note_on_c, 7, 65, 96
14, 10440, Note_on_c, 7, 58, 96
14, 10560, Note_on_c, 7, 70, 90
14, 10569, Note_on_c, 7, 77, 0
14, 10679, Note_on_c, 7, 65, 0
14, 10679, Note_on_c, 7, 58, 0
14, 10679, Note_on_c, 7, 70, 0
14, 10680, Note_on_c, 7, 82, 96
14, 10680, Note_on_c, 7, 70, 96
14, 10680, Note_on_c, 7, 58, 96
14, 10680, Note_on_c, 7, 65, 96
14, 10919, Note_on_c, 7, 65, 0
14, 10919, Note_on_c, 7, 82, 0
14, 10919, Note_on_c, 7, 70, 0
14, 10919, Note_on_c, 7, 58, 0
14, 10920, Note_on_c, 7, 75, 96
14, 10920, Note_on_c, 7, 58, 96
14, 10920, Note_on_c, 7, 63, 96
14, 11040, Note_on_c, 7, 70, 90
14, 11049, Note_on_c, 7, 75, 0
14, 11159, Note_on_c, 7, 58, 0
14, 11159, Note_on_c, 7, 63, 0
14, 11159, Note_on_c, 7, 70, 0
14, 11160, Note_on_c, 7, 79, 96
14, 11160, Note_on_c, 7, 58, 96
14, 11160, Note_on_c, 7, 63, 96
14, 11280, Note_on_c, 7, 70, 90
14, 11289, Note_on_c, 7, 79, 0
14, 11399, Note_on_c, 7, 58, 0
14, 11399, Note_on_c, 7, 63, 0
14, 11399, Note_on_c, 7, 70, 0
14, 11400, Note_on_c, 7, 82, 96
14, 11400, Note_on_c, 7, 70, 96
14, 11400, Note_on_c, 7, 58, 96
14, 11400, Note_on_c, 7, 63, 96
14, 11639, Note_on_c, 7, 63, 0
14, 11639, Note_on_c, 7, 82, 0
14, 11639, Note_on_c, 7, 70, 0
14, 11639, Note_on_c, 7, 58, 0
14, 11640, Note_on_c, 7, 70, 90
14, 11640, Note_on_c, 7, 58, 90
14, 11640, Note_on_c, 7, 62, 90
14, 11699, Note_on_c, 7, 62, 0
14, 11699, Note_on_c, 7, 58, 0
14, 11699, Note_on_c, 7, 70, 0
14, 11760, Note_on_c, 7, 82, 96
14, 11760, Note_on_c, 7, 70, 96
14, 11760, Note_on_c, 7, 58, 96
14, 11760, Note_on_c, 7, 62, 96
14, 11999, Note_on_c, 7, 62, 0
14, 11999, Note_on_c, 7, 82, 0
14, 11999, Note_on_c, 7, 70, 0
14, 11999, Note_on_c, 7, 58, 0
14, 12000, Note_on_c, 7, 70, 90
14, 12000, Note_on_c, 7, 63, 90
14, 12000, Note_on_c, 7, 58, 90
14, 12059, Note_on_c, 7, 58, 0
14, 12059, Note_on_c, 7, 63, 0
14, 12059, Note_on_c, 7, 70, 0
14, 12120, Note_on_c, 7, 82, 96
14, 12120, Note_on_c, 7, 70, 96
14, 12120, Note_on_c, 7, 63, 90
14, 12120, Note_on_c, 7, 58, 90
14, 12240, Note_on_c, 7, 68, 90
14, 12249, Note_on_c, 7, 63, 0
14, 12269, Note_on_c, 7, 58, 0
14, 12269, Note_on_c, 7, 68, 0
14, 12270, Note_on_c, 7, 80, 97
14, 12299, Note_on_c, 7, 80, 0
14, 12300, Note_on_c, 7, 80, 98
14, 12329, Note_on_c, 7, 80, 0
14, 12330, Note_on_c, 7, 80, 99
14, 12359, Note_on_c, 7, 80, 0
14, 12359, Note_on_c, 7, 70, 0
14, 12359, Note_on_c, 7, 82, 0
14, 12360, Note_on_c, 7, 70, 101
14, 12360, Note_on_c, 7, 80, 101
14, 12389, Note_on_c, 7, 80, 0
14, 12389, Note_on_c, 7, 70, 0
14, 12390, Note_on_c, 7, 70, 102
14, 12390, Note_on_c, 7, 80, 102
14, 12419, Note_on_c, 7, 80, 0
14, 12419, Note_on_c, 7, 70, 0
14, 12420, Note_on_c, 7, 72, 103
14, 12420, Note_on_c, 7, 79, 103
14, 12449, Note_on_c, 7, 79, 0
14, 12449, Note_on_c, 7, 72, 0
14, 12450, Note_on_c, 7, 72, 104
14, 12450, Note_on_c, 7, 79, 104
14, 12479, Note_on_c, 7, 79, 0
14, 12479, Note_on_c, 7, 72, 0
14, 12480, Note_on_c, 7, 74, 106
14, 12480, Note_on_c, 7, 77, 106
14, 12509, Note_on_c, 7, 77, 0
14, 12509, Note_on_c, 7, 74, 0
14, 12510, Note_on_c, 7, 74, 107
14, 12510, Note_on_c, 7, 77, 107
14, 12539, Note_on_c, 7, 77, 0
14, 12539, Note_on_c, 7, 74, 0
14, 12540, Note_on_c, 7, 75, 127
14, 12569, Note_on_c, 7, 75, 0
14, 12570, Note_on_c, 7, 75, 127
14, 12599, Note_on_c, 7, 75, 0
14, 12600, Note_on_c, 7, 77, 110
14, 12600, Note_on_c, 7, 74, 110
14, 12629, Note_on_c, 7, 74, 0
14, 12629, Note_on_c, 7, 77, 0
14, 12630, Note_on_c, 7, 77, 111
14, 12630, Note_on_c, 7, 74, 111
14, 12659, Note_on_c, 7, 74, 0
14, 12659, Note_on_c, 7, 77, 0
14, 12660, Note_on_c, 7, 79, 112
14, 12660, Note_on_c, 7, 72, 112
14, 12689, Note_on_c, 7, 72, 0
14, 12689, Note_on_c, 7, 79, 0
14, 12690, Note_on_c, 7, 79, 114
14, 12690, Note_on_c, 7, 72, 113
14, 12719, Note_on_c, 7, 72, 0
14, 12719, Note_on_c, 7, 79, 0
14, 12720, Note_on_c, 7, 80, 115
14, 12720, Note_on_c, 7, 70, 115
14, 12749, Note_on_c, 7, 70, 0
14, 12749, Note_on_c, 7, 80, 0
14, 12750, Note_on_c, 7, 80, 116
14, 12750, Note_on_c, 7, 70, 116
14, 12779, Note_on_c, 7, 70, 0
14, 12779, Note_on_c, 7, 80, 0
14, 12780, Note_on_c, 7, 82, 117
14, 12780, Note_on_c, 7, 68, 117
14, 12809, Note_on_c, 7, 68, 0
14, 12809, Note_on_c, 7, 82, 0
14, 12810, Note_on_c, 7, 82, 118
14, 12810, Note_on_c, 7, 68, 118
14, 12839, Note_on_c, 7, 68, 0
14, 12839, Note_on_c, 7, 82, 0
14, 12840, Note_on_c, 7, 84, 120
14, 12840, Note_on_c, 7, 67, 120
14, 12869, Note_on_c, 7, 67, 0
14, 12869, Note_on_c, 7, 84, 0
14, 12870, Note_on_c, 7, 84, 122
14, 12870, Note_on_c, 7, 67, 121
14, 12899, Note_on_c, 7, 67, 0
14, 12899, Note_on_c, 7, 84, 0
14, 12900, Note_on_c, 7, 86, 124
14, 12900, Note_on_c, 7, 65, 123
14, 12929, Note_on_c, 7, 65, 0
14, 12929, Note_on_c, 7, 86, 0
14, 12930, Note_on_c, 7, 86, 125
14, 12930, Note_on_c, 7, 65, 125
14, 12959, Note_on_c, 7, 65, 0
14, 12959, Note_on_c, 7, 86, 0
14, 12960, Note_on_c, 7, 87, 127
14, 12960, Note_on_c, 7, 63, 127
14, 12989, Note_on_c, 7, 63, 0
14, 12989, Note_on_c, 7, 87, 0
14, 12990, Note_on_c, 7, 87, 127
14, 12990, Note_on_c, 7, 79, 127
14, 12990, Note_on_c, 7, 70, 127
14, 13019, Note_on_c, 7, 70, 0
14, 13019, Note_on_c, 7, 79, 0
14, 13019, Note_on_c, 7, 87, 0
14, 13020, Note_on_c, 7, 87, 127
14, 13020, Note_on_c, 7, 79, 127
14, 13020, Note_on_c, 7, 70, 127
14, 13049, Note_on_c, 7, 70, 0
14, 13049, Note_on_c, 7, 79, 0
14, 13049, Note_on_c, 7, 87, 0
14, 13050, Note_on_c, 7, 87, 127
14, 13050, Note_on_c, 7, 79, 127
14, 13050, Note_on_c, 7, 70, 127
14, 13079, Note_on_c, 7, 70, 0
14, 13079, Note_on_c, 7, 79, 0
14, 13079, Note_on_c, 7, 87, 0
14, 13080, Note_on_c, 7, 87, 127
14, 13080, Note_on_c, 7, 79, 127
14, 13080, Note_on_c, 7, 70, 127
14, 13109, Note_on_c, 7, 70, 0
14, 13109, Note_on_c, 7, 79, 0
14, 13109, Note_on_c, 7, 87, 0
14, 13110, Note_on_c, 7, 87, 127
14, 13110, Note_on_c, 7, 79, 127
14, 13110, Note_on_c, 7, 70, 127
14, 13139, Note_on_c, 7, 70, 0
14, 13139, Note_on_c, 7, 79, 0
14, 13139, Note_on_c, 7, 87, 0
14, 13140, Note_on_c, 7, 87, 127
14, 13140, Note_on_c, 7, 79, 127
14, 13140, Note_on_c, 7, 70, 127
14, 13169, Note_on_c, 7, 70, 0
14, 13169, Note_on_c, 7, 79, 0
14, 13169, Note_on_c, 7, 87, 0
14, 13170, Note_on_c, 7, 87, 127
14, 13170, Note_on_c, 7, 79, 127
14, 13170, Note_on_c, 7, 70, 127
14, 13199, Note_on_c, 7, 70, 0
14, 13199, Note_on_c, 7, 79, 0
14, 13199, Note_on_c, 7, 87, 0
14, 13200, Note_on_c, 7, 87, 127
14, 13200, Note_on_c, 7, 79, 127
14, 13200, Note_on_c, 7, 70, 127
14, 13229, Note_on_c, 7, 70, 0
14, 13229, Note_on_c, 7, 79, 0
14, 13229, Note_on_c, 7, 87, 0
14, 13230, Note_on_c, 7, 87, 127
14, 13230, Note_on_c, 7, 79, 127
14, 13230, Note_on_c, 7, 70, 127
14, 13259, Note_on_c, 7, 70, 0
14, 13259, Note_on_c, 7, 79, 0
14, 13259, Note_on_c, 7, 87, 0
14, 13260, Note_on_c, 7, 87, 127
14, 13260, Note_on_c, 7, 79, 127
14, 13260, Note_on_c, 7, 70, 127
14, 13289, Note_on_c, 7, 70, 0
14, 13289, Note_on_c, 7, 79, 0
14, 13289, Note_on_c, 7, 87, 0
14, 13290, Note_on_c, 7, 87, 127
14, 13290, Note_on_c, 7, 79, 127
14, 13290, Note_on_c, 7, 70, 127
14, 13319, Note_on_c, 7, 70, 0
14, 13319, Note_on_c, 7, 79, 0
14, 13319, Note_on_c, 7, 87, 0
14, 13320, Note_on_c, 7, 87, 127
14, 13320, Note_on_c, 7, 79, 127
14, 13320, Note_on_c, 7, 70, 127
14, 13349, Note_on_c, 7, 70, 0
14, 13349, Note_on_c, 7, 79, 0
14, 13349, Note_on_c, 7, 87, 0
14, 13350, Note_on_c, 7, 87, 127
14, 13350, Note_on_c, 7, 79, 127
14, 13350, Note_on_c, 7, 70, 127
14, 13379, Note_on_c, 7, 70, 0
14, 13379, Note_on_c, 7, 79, 0
14, 13379, Note_on_c, 7, 87, 0
14, 13380, Note_on_c, 7, 87, 127
14, 13380, Note_on_c, 7, 79, 127
14, 13380, Note_on_c, 7, 70, 127
14, 13409, Note_on_c, 7, 70, 0
14, 13409, Note_on_c, 7, 79, 0
14, 13409, Note_on_c, 7, 87, 0
14, 13410, Note_on_c, 7, 87, 127
14, 13410, Note_on_c, 7, 79, 127
14, 13410, Note_on_c, 7, 70, 127
14, 13439, Note_on_c, 7, 70, 0
14, 13439, Note_on_c, 7, 79, 0
14, 13439, Note_on_c, 7, 87, 0
14, 13440, Note_on_c, 7, 87, 127
14, 13440, Note_on_c, 7, 79, 127
14, 13440, Note_on_c, 7, 70, 127
14, 13469, Note_on_c, 7, 70, 0
14, 13469, Note_on_c, 7, 79, 0
14, 13469, Note_on_c, 7, 87, 0
14, 13470, Note_on_c, 7, 87, 127
14, 13470, Note_on_c, 7, 79, 127
14, 13470, Note_on_c, 7, 70, 127
14, 13499, Note_on_c, 7, 70, 0
14, 13499, Note_on_c, 7, 79, 0
14, 13499, Note_on_c, 7, 87, 0
14, 13500, Note_on_c, 7, 87, 127
14, 13500, Note_on_c, 7, 79, 127
14, 13500, Note_on_c, 7, 70, 127
14, 13529, Note_on_c, 7, 70, 0
14, 13529, Note_on_c, 7, 79, 0
14, 13529, Note_on_c, 7, 87, 0
14, 13530, Note_on_c, 7, 87, 127
14, 13530, Note_on_c, 7, 79, 127
14, 13530, Note_on_c, 7, 70, 127
14, 13559, Note_on_c, 7, 70, 0
14, 13559, Note_on_c, 7, 79, 0
14, 13559, Note_on_c, 7, 87, 0
14, 13560, Note_on_c, 7, 87, 127
14, 13560, Note_on_c, 7, 79, 127
14, 13560, Note_on_c, 7, 70, 127
14, 13589, Note_on_c, 7, 70, 0
14, 13589, Note_on_c, 7, 79, 0
14, 13589, Note_on_c, 7, 87, 0
14, 13590, Note_on_c, 7, 87, 127
14, 13590, Note_on_c, 7, 79, 127
14, 13590, Note_on_c, 7, 70, 127
14, 13619, Note_on_c, 7, 70, 0
14, 13619, Note_on_c, 7, 79, 0
14, 13619, Note_on_c, 7, 87, 0
14, 13620, Note_on_c, 7, 87, 127
14, 13620, Note_on_c, 7, 79, 127
14, 13620, Note_on_c, 7, 70, 127
14, 13649, Note_on_c, 7, 70, 0
14, 13649, Note_on_c, 7, 79, 0
14, 13649, Note_on_c, 7, 87, 0
14, 13650, Note_on_c, 7, 87, 127
14, 13650, Note_on_c, 7, 79, 127
14, 13650, Note_on_c, 7, 70, 127
14, 13679, Note_on_c, 7, 70, 0
14, 13679, Note_on_c, 7, 79, 0
14, 13679, Note_on_c, 7, 87, 0
14, 13680, Note_on_c, 7, 87, 127
14, 13680, Note_on_c, 7, 79, 127
14, 13680, Note_on_c, 7, 70, 127
14, 13709, Note_on_c, 7, 70, 0
14, 13709, Note_on_c, 7, 79, 0
14, 13709, Note_on_c, 7, 87, 0
14, 13710, Note_on_c, 7, 87, 127
14, 13710, Note_on_c, 7, 79, 127
14, 13710, Note_on_c, 7, 70, 127
14, 13739, Note_on_c, 7, 70, 0
14, 13739, Note_on_c, 7, 79, 0
14, 13739, Note_on_c, 7, 87, 0
14, 13740, Note_on_c, 7, 87, 127
14, 13740, Note_on_c, 7, 79, 127
14, 13740, Note_on_c, 7, 70, 127
14, 13769, Note_on_c, 7, 70, 0
14, 13769, Note_on_c, 7, 79, 0
14, 13769, Note_on_c, 7, 87, 0
14, 13770, Note_on_c, 7, 87, 127
14, 13770, Note_on_c, 7, 79, 127
14, 13770, Note_on_c, 7, 70, 127
14, 13799, Note_on_c, 7, 70, 0
14, 13799, Note_on_c, 7, 79, 0
14, 13799, Note_on_c, 7, 87, 0
14, 13800, Note_on_c, 7, 87, 127
14, 13800, Note_on_c, 7, 79, 127
14, 13800, Note_on_c, 7, 70, 127
14, 13829, Note_on_c, 7, 70, 0
14, 13829, Note_on_c, 7, 79, 0
14, 13829, Note_on_c, 7, 87, 0
14, 13830, Note_on_c, 7, 87, 127
14, 13830, Note_on_c, 7, 79, 127
14, 13830, Note_on_c, 7, 70, 127
14, 13859, Note_on_c, 7, 70, 0
14, 13859, Note_on_c, 7, 79, 0
14, 13859, Note_on_c, 7, 87, 0
14, 13860, Note_on_c, 7, 87, 127
14, 13860, Note_on_c, 7, 79, 127
14, 13860, Note_on_c, 7, 70, 127
14, 13889, Note_on_c, 7, 70, 0
14, 13889, Note_on_c, 7, 79, 0
14, 13889, Note_on_c, 7, 87, 0
14, 13890, Note_on_c, 7, 87, 127
14, 13890, Note_on_c, 7, 79, 127
14, 13890, Note_on_c, 7, 70, 127
14, 13919, Note_on_c, 7, 70, 0
14, 13919, Note_on_c, 7, 79, 0
14, 13919, Note_on_c, 7, 87, 0
14, 13920, Note_on_c, 7, 87, 127
14, 13920, Note_on_c, 7, 87, 127
14, 13920, Note_on_c, 7, 79, 127
14, 13920, Note_on_c, 7, 70, 127
14, 13949, Note_on_c, 7, 70, 0
14, 13949, Note_on_c, 7, 87, 0
14, 13949, Note_on_c, 7, 87, 0
14, 13949, Note_on_c, 7, 79, 0
14, 13950, Note_on_c, 7, 87, 127
14, 13950, Note_on_c, 7, 79, 127
14, 13950, Note_on_c, 7, 70, 127
14, 13979, Note_on_c, 7, 70, 0
14, 13979, Note_on_c, 7, 79, 0
14, 13979, Note_on_c, 7, 87, 0
14, 13980, Note_on_c, 7, 87, 127
14, 13980, Note_on_c, 7, 79, 127
14, 13980, Note_on_c, 7, 70, 127
14, 14009, Note_on_c, 7, 70, 0
14, 14009, Note_on_c, 7, 79, 0
14, 14009, Note_on_c, 7, 87, 0
14, 14010, Note_on_c, 7, 87, 127
14, 14010, Note_on_c, 7, 79, 127
14, 14010, Note_on_c, 7, 70, 127
14, 14039, Note_on_c, 7, 70, 0
14, 14039, Note_on_c, 7, 79, 0
14, 14039, Note_on_c, 7, 87, 0
14, 14040, Note_on_c, 7, 87, 127
14, 14040, Note_on_c, 7, 79, 127
14, 14040, Note_on_c, 7, 70, 127
14, 14069, Note_on_c, 7, 70, 0
14, 14069, Note_on_c, 7, 79, 0
14, 14069, Note_on_c, 7, 87, 0
14, 14070, Note_on_c, 7, 87, 127
14, 14070, Note_on_c, 7, 79, 127
14, 14070, Note_on_c, 7, 70, 127
14, 14099, Note_on_c, 7, 70, 0
14, 14099, Note_on_c, 7, 79, 0
14, 14099, Note_on_c, 7, 87, 0
14, 14100, Note_on_c, 7, 87, 127
14, 14100, Note_on_c, 7, 79, 127
14, 14100, Note_on_c, 7, 70, 127
14, 14129, Note_on_c, 7, 70, 0
14, 14129, Note_on_c, 7, 79, 0
14, 14129, Note_on_c, 7, 87, 0
14, 14130, Note_on_c, 7, 87, 127
14, 14130, Note_on_c, 7, 79, 127
14, 14130, Note_on_c, 7, 70, 127
14, 14159, Note_on_c, 7, 70, 0
14, 14159, Note_on_c, 7, 79, 0
14, 14159, Note_on_c, 7, 87, 0
14, 14160, Note_on_c, 7, 87, 127
14, 14160, Note_on_c, 7, 79, 127
14, 14160, Note_on_c, 7, 70, 127
14, 14189, Note_on_c, 7, 70, 0
14, 14189, Note_on_c, 7, 79, 0
14, 14189, Note_on_c, 7, 87, 0
14, 14190, Note_on_c, 7, 87, 127
14, 14190, Note_on_c, 7, 79, 127
14, 14190, Note_on_c, 7, 70, 127
14, 14219, Note_on_c, 7, 70, 0
14, 14219, Note_on_c, 7, 79, 0
14, 14219, Note_on_c, 7, 87, 0
14, 14220, Note_on_c, 7, 87, 127
14, 14220, Note_on_c, 7, 79, 127
14, 14220, Note_on_c, 7, 70, 127
14, 14249, Note_on_c, 7, 70, 0
14, 14249, Note_on_c, 7, 79, 0
14, 14249, Note_on_c, 7, 87, 0
14, 14250, Note_on_c, 7, 87, 127
14, 14250, Note_on_c, 7, 79, 127
14, 14250, Note_on_c, 7, 70, 127
14, 14279, Note_on_c, 7, 70, 0
14, 14279, Note_on_c, 7, 79, 0
14, 14279, Note_on_c, 7, 87, 0
14, 14280, Note_on_c, 7, 87, 127
14, 14280, Note_on_c, 7, 79, 127
14, 14280, Note_on_c, 7, 71, 127
14, 14309, Note_on_c, 7, 71, 0
14, 14309, Note_on_c, 7, 79, 0
14, 14309, Note_on_c, 7, 87, 0
14, 14310, Note_on_c, 7, 87, 127
14, 14310, Note_on_c, 7, 79, 127
14, 14310, Note_on_c, 7, 71, 127
14, 14339, Note_on_c, 7, 71, 0
14, 14339, Note_on_c, 7, 79, 0
14, 14339, Note_on_c, 7, 87, 0
14, 14340, Note_on_c, 7, 87, 127
14, 14340, Note_on_c, 7, 79, 127
14, 14340, Note_on_c, 7, 71, 127
14, 14369, Note_on_c, 7, 71, 0
14, 14369, Note_on_c, 7, 79, 0
14, 14369, Note_on_c, 7, 87, 0
14, 14370, Note_on_c, 7, 87, 127
14, 14370, Note_on_c, 7, 79, 127
14, 14370, Note_on_c, 7, 71, 127
14, 14399, Note_on_c, 7, 71, 0
14, 14399, Note_on_c, 7, 79, 0
14, 14399, Note_on_c, 7, 87, 0
14, 14400, Note_on_c, 7, 87, 127
14, 14400, Note_on_c, 7, 79, 127
14, 14400, Note_on_c, 7, 72, 127
14, 14429, Note_on_c, 7, 72, 0
14, 14429, Note_on_c, 7, 79, 0
14, 14429, Note_on_c, 7, 87, 0
14, 14430, Note_on_c, 7, 87, 127
14, 14430, Note_on_c, 7, 79, 127
14, 14430, Note_on_c, 7, 72, 127
14, 14459, Note_on_c, 7, 72, 0
14, 14459, Note_on_c, 7, 79, 0
14, 14459, Note_on_c, 7, 87, 0
14, 14460, Note_on_c, 7, 87, 127
14, 14460, Note_on_c, 7, 79, 127
14, 14460, Note_on_c, 7, 72, 127
14, 14489, Note_on_c, 7, 72, 0
14, 14489, Note_on_c, 7, 79, 0
14, 14489, Note_on_c, 7, 87, 0
14, 14490, Note_on_c, 7, 87, 127
14, 14490, Note_on_c, 7, 79, 127
14, 14490, Note_on_c, 7, 72, 127
14, 14519, Note_on_c, 7, 72, 0
14, 14519, Note_on_c, 7, 79, 0
14, 14519, Note_on_c, 7, 87, 0
14, 14520, Note_on_c, 7, 87, 127
14, 14520, Note_on_c, 7, 79, 127
14, 14520, Note_on_c, 7, 72, 127
14, 14549, Note_on_c, 7, 72, 0
14, 14549, Note_on_c, 7, 79, 0
14, 14549, Note_on_c, 7, 87, 0
14, 14550, Note_on_c, 7, 87, 127
14, 14550, Note_on_c, 7, 79, 127
14, 14550, Note_on_c, 7, 72, 127
14, 14579, Note_on_c, 7, 72, 0
14, 14579, Note_on_c, 7, 79, 0
14, 14579, Note_on_c, 7, 87, 0
14, 14580, Note_on_c, 7, 87, 127
14, 14580, Note_on_c, 7, 79, 127
14, 14580, Note_on_c, 7, 72, 127
14, 14609, Note_on_c, 7, 72, 0
14, 14609, Note_on_c, 7, 79, 0
14, 14609, Note_on_c, 7, 87, 0
14, 14610, Note_on_c, 7, 87, 127
14, 14610, Note_on_c, 7, 79, 127
14, 14610, Note_on_c, 7, 72, 127
14, 14639, Note_on_c, 7, 72, 0
14, 14639, Note_on_c, 7, 79, 0
14, 14639, Note_on_c, 7, 87, 0
14, 14640, Note_on_c, 7, 87, 127
14, 14640, Note_on_c, 7, 79, 127
14, 14640, Note_on_c, 7, 72, 127
14, 14669, Note_on_c, 7, 72, 0
14, 14669, Note_on_c, 7, 79, 0
14, 14669, Note_on_c, 7, 87, 0
14, 14670, Note_on_c, 7, 87, 127
14, 14670, Note_on_c, 7, 79, 127
14, 14670, Note_on_c, 7, 72, 127
14, 14699, Note_on_c, 7, 72, 0
14, 14699, Note_on_c, 7, 79, 0
14, 14699, Note_on_c, 7, 87, 0
14, 14700, Note_on_c, 7, 87, 127
14, 14700, Note_on_c, 7, 79, 127
14, 14700, Note_on_c, 7, 72, 127
14, 14729, Note_on_c, 7, 72, 0
14, 14729, Note_on_c, 7, 79, 0
14, 14729, Note_on_c, 7, 87, 0
14, 14730, Note_on_c, 7, 87, 127
14, 14730, Note_on_c, 7, 79, 127
14, 14730, Note_on_c, 7, 72, 127
14, 14759, Note_on_c, 7, 72, 0
14, 14759, Note_on_c, 7, 79, 0
14, 14759, Note_on_c, 7, 87, 0
14, 14760, Note_on_c, 7, 87, 127
14, 14760, Note_on_c, 7, 79, 127
14, 14760, Note_on_c, 7, 72, 127
14, 14789, Note_on_c, 7, 72, 0
14, 14789, Note_on_c, 7, 79, 0
14, 14789, Note_on_c, 7, 87, 0
14, 14790, Note_on_c, 7, 87, 127
14, 14790, Note_on_c, 7, 79, 127
14, 14790, Note_on_c, 7, 72, 127
14, 14819, Note_on_c, 7, 72, 0
14, 14819, Note_on_c, 7, 79, 0
14, 14819, Note_on_c, 7, 87, 0
14, 14820, Note_on_c, 7, 87, 127
14, 14820, Note_on_c, 7, 79, 127
14, 14820, Note_on_c, 7, 72, 127
14, 14849, Note_on_c, 7, 72, 0
14, 14849, Note_on_c, 7, 79, 0
14, 14849, Note_on_c, 7, 87, 0
14, 14850, Note_on_c, 7, 87, 127
14, 14850, Note_on_c, 7, 79, 127
14, 14850, Note_on_c, 7, 72, 127
14, 14879, Note_on_c, 7, 72, 0
14, 14879, Note_on_c, 7, 79, 0
14, 14879, Note_on_c, 7, 87, 0
14, 14880, Note_on_c, 7, 87, 127
14, 14880, Note_on_c, 7, 79, 127
14, 14880, Note_on_c, 7, 72, 127
14, 14909, Note_on_c, 7, 72, 0
14, 14909, Note_on_c, 7, 79, 0
14, 14909, Note_on_c, 7, 87, 0
14, 14910, Note_on_c, 7, 87, 127
14, 14910, Note_on_c, 7, 79, 127
14, 14910, Note_on_c, 7, 72, 127
14, 14939, Note_on_c, 7, 72, 0
14, 14939, Note_on_c, 7, 79, 0
14, 14939, Note_on_c, 7, 87, 0
14, 14940, Note_on_c, 7, 87, 127
14, 14940, Note_on_c, 7, 79, 127
14, 14940, Note_on_c, 7, 72, 127
14, 14969, Note_on_c, 7, 72, 0
14, 14969, Note_on_c, 7, 79, 0
14, 14969, Note_on_c, 7, 87, 0
14, 14970, Note_on_c, 7, 87, 127
14, 14970, Note_on_c, 7, 79, 127
14, 14970, Note_on_c, 7, 72, 127
14, 14999, Note_on_c, 7, 72, 0
14, 14999, Note_on_c, 7, 79, 0
14, 14999, Note_on_c, 7, 87, 0
14, 15000, Note_on_c, 7, 87, 127
14, 15000, Note_on_c, 7, 79, 127
14, 15000, Note_on_c, 7, 70, 127
14, 15029, Note_on_c, 7, 70, 0
14, 15029, Note_on_c, 7, 79, 0
14, 15029, Note_on_c, 7, 87, 0
14, 15030, Note_on_c, 7, 87, 127
14, 15030, Note_on_c, 7, 79, 127
14, 15030, Note_on_c, 7, 70, 127
14, 15059, Note_on_c, 7, 70, 0
14, 15059, Note_on_c, 7, 79, 0
14, 15059, Note_on_c, 7, 87, 0
14, 15060, Note_on_c, 7, 87, 127
14, 15060, Note_on_c, 7, 79, 127
14, 15060, Note_on_c, 7, 70, 127
14, 15089, Note_on_c, 7, 70, 0
14, 15089, Note_on_c, 7, 79, 0
14, 15089, Note_on_c, 7, 87, 0
14, 15090, Note_on_c, 7, 87, 127
14, 15090, Note_on_c, 7, 79, 127
14, 15090, Note_on_c, 7, 70, 127
14, 15119, Note_on_c, 7, 70, 0
14, 15119, Note_on_c, 7, 79, 0
14, 15119, Note_on_c, 7, 87, 0
14, 15120, Note_on_c, 7, 87, 127
14, 15120, Note_on_c, 7, 80, 127
14, 15120, Note_on_c, 7, 72, 127
14, 15149, Note_on_c, 7, 72, 0
14, 15149, Note_on_c, 7, 80, 0
14, 15149, Note_on_c, 7, 87, 0
14, 15150, Note_on_c, 7, 87, 127
14, 15150, Note_on_c, 7, 72, 127
14, 15179, Note_on_c, 7, 72, 0
14, 15179, Note_on_c, 7, 87, 0
14, 15180, Note_on_c, 7, 87, 127
14, 15180, Note_on_c, 7, 72, 127
14, 15209, Note_on_c, 7, 72, 0
14, 15209, Note_on_c, 7, 87, 0
14, 15210, Note_on_c, 7, 87, 127
14, 15210, Note_on_c, 7, 72, 127
14, 15239, Note_on_c, 7, 72, 0
14, 15239, Note_on_c, 7, 87, 0
14, 15240, Note_on_c, 7, 87, 127
14, 15240, Note_on_c, 7, 72, 127
14, 15269, Note_on_c, 7, 72, 0
14, 15269, Note_on_c, 7, 87, 0
14, 15270, Note_on_c, 7, 87, 127
14, 15270, Note_on_c, 7, 72, 127
14, 15299, Note_on_c, 7, 72, 0
14, 15299, Note_on_c, 7, 87, 0
14, 15300, Note_on_c, 7, 87, 127
14, 15300, Note_on_c, 7, 72, 127
14, 15329, Note_on_c, 7, 72, 0
14, 15329, Note_on_c, 7, 87, 0
14, 15330, Note_on_c, 7, 87, 127
14, 15330, Note_on_c, 7, 72, 127
14, 15359, Note_on_c, 7, 72, 0
14, 15359, Note_on_c, 7, 87, 0
14, 15360, Note_on_c, 7, 87, 127
14, 15360, Note_on_c, 7, 72, 127
14, 15389, Note_on_c, 7, 72, 0
14, 15389, Note_on_c, 7, 87, 0
14, 15390, Note_on_c, 7, 87, 127
14, 15390, Note_on_c, 7, 72, 127
14, 15419, Note_on_c, 7, 72, 0
14, 15419, Note_on_c, 7, 87, 0
14, 15420, Note_on_c, 7, 87, 127
14, 15420, Note_on_c, 7, 72, 127
14, 15449, Note_on_c, 7, 72, 0
14, 15449, Note_on_c, 7, 87, 0
14, 15450, Note_on_c, 7, 87, 127
14, 15450, Note_on_c, 7, 72, 127
14, 15479, Note_on_c, 7, 72, 0
14, 15479, Note_on_c, 7, 87, 0
14, 15480, Note_on_c, 7, 88, 127
14, 15480, Note_on_c, 7, 72, 127
14, 15509, Note_on_c, 7, 72, 0
14, 15509, Note_on_c, 7, 88, 0
14, 15510, Note_on_c, 7, 88, 127
14, 15510, Note_on_c, 7, 72, 127
14, 15539, Note_on_c, 7, 72, 0
14, 15539, Note_on_c, 7, 88, 0
14, 15540, Note_on_c, 7, 88, 127
14, 15540, Note_on_c, 7, 70, 127
14, 15569, Note_on_c, 7, 70, 0
14, 15569, Note_on_c, 7, 88, 0
14, 15570, Note_on_c, 7, 88, 127
14, 15570, Note_on_c, 7, 70, 127
14, 15599, Note_on_c, 7, 70, 0
14, 15599, Note_on_c, 7, 88, 0
14, 15600, Note_on_c, 7, 88, 127
14, 15600, Note_on_c, 7, 69, 127
14, 15629, Note_on_c, 7, 69, 0
14, 15629, Note_on_c, 7, 88, 0
14, 15630, Note_on_c, 7, 88, 127
14, 15630, Note_on_c, 7, 69, 127
14, 15659, Note_on_c, 7, 69, 0
14, 15659, Note_on_c, 7, 88, 0
14, 15660, Note_on_c, 7, 88, 127
14, 15660, Note_on_c, 7, 70, 127
14, 15689, Note_on_c, 7, 70, 0
14, 15689, Note_on_c, 7, 88, 0
14, 15690, Note_on_c, 7, 88, 127
14, 15690, Note_on_c, 7, 70, 127
14, 15719, Note_on_c, 7, 70, 0
14, 15719, Note_on_c, 7, 88, 0
14, 15720, Note_on_c, 7, 88, 127
14, 15720, Note_on_c, 7, 72, 127
14, 15749, Note_on_c, 7, 72, 0
14, 15749, Note_on_c, 7, 88, 0
14, 15750, Note_on_c, 7, 88, 127
14, 15750, Note_on_c, 7, 72, 127
14, 15779, Note_on_c, 7, 72, 0
14, 15779, Note_on_c, 7, 88, 0
14, 15780, Note_on_c, 7, 88, 127
14, 15780, Note_on_c, 7, 70, 127
14, 15809, Note_on_c, 7, 70, 0
14, 15809, Note_on_c, 7, 88, 0
14, 15810, Note_on_c, 7, 88, 127
14, 15810, Note_on_c, 7, 70, 127
14, 15839, Note_on_c, 7, 70, 0
14, 15839, Note_on_c, 7, 88, 0
14, 15840, Note_on_c, 7, 89, 127
14, 15840, Note_on_c, 7, 69, 127
14, 15869, Note_on_c, 7, 69, 0
14, 15900, Note_on_c, 7, 57, 48
14, 15959, Note_on_c, 7, 89, 0
14, 15960, Note_on_c, 7, 60, 48
14, 15969, Note_on_c, 7, 57, 0
14, 16020, Note_on_c, 7, 57, 48
14, 16029, Note_on_c, 7, 60, 0
14, 16080, Note_on_c, 7, 60, 48
14, 16089, Note_on_c, 7, 57, 0
14, 16140, Note_on_c, 7, 57, 48
14, 16149, Note_on_c, 7, 60, 0
14, 16199, Note_on_c, 7, 57, 0
14, 16200, Note_on_c, 7, 60, 48
14, 16260, Note_on_c, 7, 57, 48
14, 16269, Note_on_c, 7, 60, 0
14, 16320, Note_on_c, 7, 60, 48
14, 16329, Note_on_c, 7, 57, 0
14, 16380, Note_on_c, 7, 57, 48
14, 16389, Note_on_c, 7, 60, 0
14, 16440, Note_on_c, 7, 60, 48
14, 16449, Note_on_c, 7, 57, 0
14, 16500, Note_on_c, 7, 57, 48
14, 16509, Note_on_c, 7, 60, 0
14, 16559, Note_on_c, 7, 57, 0
14, 16560, Note_on_c, 7, 60, 48
14, 16620, Note_on_c, 7, 57, 48
14, 16629, Note_on_c, 7, 60, 0
14, 16680, Note_on_c, 7, 60, 48
14, 16689, Note_on_c, 7, 57, 0
14, 16740, Note_on_c, 7, 57, 48
14, 16749, Note_on_c, 7, 60, 0
14, 16800, Note_on_c, 7, 60, 48
14, 16809, Note_on_c, 7, 57, 0
14, 16860, Note_on_c, 7, 57, 48
14, 16869, Note_on_c, 7, 60, 0
14, 16919, Note_on_c, 7, 57, 0
14, 16920, Note_on_c, 7, 60, 48
14, 16980, Note_on_c, 7, 57, 48
14, 16989, Note_on_c, 7, 60, 0
14, 17040, Note_on_c, 7, 84, 48
14, 17040, Note_on_c, 7, 60, 48
14, 17049, Note_on_c, 7, 57, 0
14, 17100, Note_on_c, 7, 57, 48
14, 17109, Note_on_c, 7, 60, 0
14, 17160, Note_on_c, 7, 60, 48
14, 17169, Note_on_c, 7, 57, 0
14, 17220, Note_on_c, 7, 75, 48
14, 17220, Note_on_c, 7, 57, 48
14, 17229, Note_on_c, 7, 60, 0
14, 17229, Note_on_c, 7, 84, 0
14, 17279, Note_on_c, 7, 57, 0
14, 17280, Note_on_c, 7, 74, 48
14, 17280, Note_on_c, 7, 62, 48
14, 17289, Note_on_c, 7, 75, 0
14, 17340, Note_on_c, 7, 58, 48
14, 17349, Note_on_c, 7, 62, 0
14, 17399, Note_on_c, 7, 74, 0
14, 17400, Note_on_c, 7, 62, 48
14, 17409, Note_on_c, 7, 58, 0
14, 17460, Note_on_c, 7, 58, 48
14, 17469, Note_on_c, 7, 62, 0
14, 17520, Note_on_c, 7, 62, 48
14, 17529, Note_on_c, 7, 58, 0
14, 17580, Note_on_c, 7, 58, 48
14, 17589, Note_on_c, 7, 62, 0
14, 17639, Note_on_c, 7, 58, 0
14, 17640, Note_on_c, 7, 62, 48
14, 17700, Note_on_c, 7, 58, 48
14, 17709, Note_on_c, 7, 62, 0
14, 17760, Note_on_c, 7, 62, 48
14, 17769, Note_on_c, 7, 58, 0
14, 17820, Note_on_c, 7, 58, 48
14, 17829, Note_on_c, 7, 62, 0
14, 17880, Note_on_c, 7, 62, 48
14, 17889, Note_on_c, 7, 58, 0
14, 17940, Note_on_c, 7, 58, 48
14, 17949, Note_on_c, 7, 62, 0
14, 17999, Note_on_c, 7, 58, 0
14, 18000, Note_on_c, 7, 62, 48
14, 18060, Note_on_c, 7, 58, 48
14, 18069, Note_on_c, 7, 62, 0
14, 18120, Note_on_c, 7, 62, 48
14, 18129, Note_on_c, 7, 58, 0
14, 18180, Note_on_c, 7, 58, 48
14, 18189, Note_on_c, 7, 62, 0
14, 18240, Note_on_c, 7, 62, 48
14, 18249, Note_on_c, 7, 58, 0
14, 18300, Note_on_c, 7, 58, 48
14, 18309, Note_on_c, 7, 62, 0
14, 18359, Note_on_c, 7, 58, 0
14, 18360, Note_on_c, 7, 62, 48
14, 18420, Note_on_c, 7, 58, 48
14, 18429, Note_on_c, 7, 62, 0
14, 18480, Note_on_c, 7, 82, 48
14, 18480, Note_on_c, 7, 62, 48
14, 18489, Note_on_c, 7, 58, 0
14, 18540, Note_on_c, 7, 58, 48
14, 18549, Note_on_c, 7, 62, 0
14, 18600, Note_on_c, 7, 62, 48
14, 18609, Note_on_c, 7, 58, 0
14, 18660, Note_on_c, 7, 74, 48
14, 18660, Note_on_c, 7, 58, 48
14, 18669, Note_on_c, 7, 62, 0
14, 18669, Note_on_c, 7, 82, 0
14, 18719, Note_on_c, 7, 74, 0
14, 18719, Note_on_c, 7, 58, 0
14, 18720, Note_on_c, 7, 75, 48
14, 18720, Note_on_c, 7, 63, 48
14, 18749, Note_on_c, 7, 63, 0
14, 18749, Note_on_c, 7, 75, 0
14, 18780, Note_on_c, 7, 60, 48
14, 18780, Note_on_c, 7, 57, 48
14, 18839, Note_on_c, 7, 60, 0
14, 18840, Note_on_c, 7, 63, 48
14, 18840, Note_on_c, 7, 60, 48
14, 18849, Note_on_c, 7, 57, 0
14, 18899, Note_on_c, 7, 60, 0
14, 18900, Note_on_c, 7, 60, 48
14, 18900, Note_on_c, 7, 57, 48
14, 18909, Note_on_c, 7, 63, 0
14, 18959, Note_on_c, 7, 60, 0
14, 18960, Note_on_c, 7, 63, 48
14, 18960, Note_on_c, 7, 60, 48
14, 18969, Note_on_c, 7, 57, 0
14, 19019, Note_on_c, 7, 60, 0
14, 19020, Note_on_c, 7, 60, 48
14, 19020, Note_on_c, 7, 57, 48
14, 19029, Note_on_c, 7, 63, 0
14, 19079, Note_on_c, 7, 57, 0
14, 19079, Note_on_c, 7, 60, 0
14, 19080, Note_on_c, 7, 63, 48
14, 19080, Note_on_c, 7, 60, 48
14, 19139, Note_on_c, 7, 60, 0
14, 19140, Note_on_c, 7, 60, 48
14, 19140, Note_on_c, 7, 57, 48
14, 19149, Note_on_c, 7, 63, 0
14, 19199, Note_on_c, 7, 60, 0
14, 19200, Note_on_c, 7, 63, 48
14, 19200, Note_on_c, 7, 60, 48
14, 19209, Note_on_c, 7, 57, 0
14, 19259, Note_on_c, 7, 60, 0
14, 19260, Note_on_c, 7, 60, 48
14, 19260, Note_on_c, 7, 57, 48
14, 19269, Note_on_c, 7, 63, 0
14, 19319, Note_on_c, 7, 60, 0
14, 19320, Note_on_c, 7, 63, 48
14, 19320, Note_on_c, 7, 60, 48
14, 19329, Note_on_c, 7, 57, 0
14, 19379, Note_on_c, 7, 60, 0
14, 19380, Note_on_c, 7, 60, 48
14, 19380, Note_on_c, 7, 57, 48
14, 19389, Note_on_c, 7, 63, 0
14, 19439, Note_on_c, 7, 57, 0
14, 19439, Note_on_c, 7, 60, 0
14, 19440, Note_on_c, 7, 63, 48
14, 19440, Note_on_c, 7, 60, 48
14, 19559, Note_on_c, 7, 60, 0
14, 19559, Note_on_c, 7, 63, 0
14, 19560, Note_on_c, 7, 79, 127
14, 19560, Note_on_c, 7, 67, 127
14, 19739, Note_on_c, 7, 67, 0
14, 19739, Note_on_c, 7, 79, 0
14, 19740, Note_on_c, 7, 77, 127
14, 19740, Note_on_c, 7, 65, 127
14, 19799, Note_on_c, 7, 65, 0
14, 19799, Note_on_c, 7, 77, 0
14, 19800, Note_on_c, 7, 75, 127
14, 19800, Note_on_c, 7, 63, 127
14, 19859, Note_on_c, 7, 63, 0
14, 19859, Note_on_c, 7, 75, 0
14, 19920, Note_on_c, 7, 74, 127
14, 19920, Note_on_c, 7, 62, 127
14, 19979, Note_on_c, 7, 62, 0
14, 19979, Note_on_c, 7, 74, 0
14, 20040, Note_on_c, 7, 72, 127
14, 20040, Note_on_c, 7, 60, 127
14, 20099, Note_on_c, 7, 60, 0
14, 20099, Note_on_c, 7, 72, 0
14, 20160, Note_on_c, 7, 58, 48
14, 20160, Note_on_c, 7, 70, 48
14, 21000, Note_on_c, 7, 77, 48
14, 21000, Note_on_c, 7, 65, 48
14, 21009, Note_on_c, 7, 70, 0
14, 21009, Note_on_c, 7, 58, 0
14, 21119, Note_on_c, 7, 77, 0
14, 21119, Note_on_c, 7, 65, 0
14, 21120, Note_on_c, 7, 77, 48
14, 21120, Note_on_c, 7, 65, 48
14, 21209, Note_on_c, 7, 65, 0
14, 21209, Note_on_c, 7, 77, 0
14, 21240, Note_on_c, 7, 77, 48
14, 21240, Note_on_c, 7, 65, 48
14, 21329, Note_on_c, 7, 65, 0
14, 21329, Note_on_c, 7, 77, 0
14, 21360, Note_on_c, 7, 77, 48
14, 21360, Note_on_c, 7, 65, 48
14, 21449, Note_on_c, 7, 65, 0
14, 21449, Note_on_c, 7, 77, 0
14, 21480, Note_on_c, 7, 77, 48
14, 21480, Note_on_c, 7, 65, 48
14, 21569, Note_on_c, 7, 65, 0
14, 21569, Note_on_c, 7, 77, 0
14, 21600, Note_on_c, 7, 77, 48
14, 21600, Note_on_c, 7, 65, 48
14, 21629, Note_on_c, 7, 65, 0
14, 21629, Note_on_c, 7, 77, 0
14, 21660, Note_on_c, 7, 74, 50
14, 21660, Note_on_c, 7, 70, 50
14, 21720, Note_on_c, 7, 72, 52
14, 21720, Note_on_c, 7, 69, 52
14, 21729, Note_on_c, 7, 70, 0
14, 21729, Note_on_c, 7, 74, 0
14, 21780, Note_on_c, 7, 74, 54
14, 21780, Note_on_c, 7, 70, 54
14, 21789, Note_on_c, 7, 72, 0
14, 21789, Note_on_c, 7, 69, 0
14, 21840, Note_on_c, 7, 75, 56
14, 21840, Note_on_c, 7, 72, 56
14, 21849, Note_on_c, 7, 74, 0
14, 21849, Note_on_c, 7, 70, 0
14, 21900, Note_on_c, 7, 77, 58
14, 21900, Note_on_c, 7, 74, 58
14, 21909, Note_on_c, 7, 75, 0
14, 21909, Note_on_c, 7, 72, 0
14, 21959, Note_on_c, 7, 77, 0
14, 21959, Note_on_c, 7, 74, 0
14, 21960, Note_on_c, 7, 79, 60
14, 21960, Note_on_c, 7, 75, 60
14, 22020, Note_on_c, 7, 81, 62
14, 22020, Note_on_c, 7, 77, 62
14, 22029, Note_on_c, 7, 75, 0
14, 22029, Note_on_c, 7, 79, 0
14, 22079, Note_on_c, 7, 81, 0
14, 22079, Note_on_c, 7, 77, 0
14, 22080, Note_on_c, 7, 82, 64
14, 22080, Note_on_c, 7, 79, 64
14, 22109, Note_on_c, 7, 79, 0
14, 22109, Note_on_c, 7, 82, 0
14, 22140, Note_on_c, 7, 82, 66
14, 22140, Note_on_c, 7, 70, 66
14, 22169, Note_on_c, 7, 70, 0
14, 22169, Note_on_c, 7, 82, 0
14, 22200, Note_on_c, 7, 82, 68
14, 22200, Note_on_c, 7, 69, 68
14, 22229, Note_on_c, 7, 69, 0
14, 22229, Note_on_c, 7, 82, 0
14, 22260, Note_on_c, 7, 82, 70
14, 22260, Note_on_c, 7, 67, 70
14, 22289, Note_on_c, 7, 67, 0
14, 22289, Note_on_c, 7, 82, 0
14, 22320, Note_on_c, 7, 82, 72
14, 22320, Note_on_c, 7, 65, 72
14, 22349, Note_on_c, 7, 65, 0
14, 22349, Note_on_c, 7, 82, 0
14, 22380, Note_on_c, 7, 82, 74
14, 22380, Note_on_c, 7, 70, 74
14, 22409, Note_on_c, 7, 70, 0
14, 22409, Note_on_c, 7, 82, 0
14, 22440, Note_on_c, 7, 81, 76
14, 22440, Note_on_c, 7, 69, 76
14, 22469, Note_on_c, 7, 69, 0
14, 22469, Note_on_c, 7, 81, 0
14, 22500, Note_on_c, 7, 82, 78
14, 22500, Note_on_c, 7, 70, 78
14, 22529, Note_on_c, 7, 70, 0
14, 22529, Note_on_c, 7, 82, 0
14, 22560, Note_on_c, 7, 84, 80
14, 22560, Note_on_c, 7, 72, 80
14, 22589, Note_on_c, 7, 72, 0
14, 22589, Note_on_c, 7, 84, 0
14, 22620, Note_on_c, 7, 86, 82
14, 22620, Note_on_c, 7, 74, 82
14, 22649, Note_on_c, 7, 74, 0
14, 22649, Note_on_c, 7, 86, 0
14, 22680, Note_on_c, 7, 87, 84
14, 22680, Note_on_c, 7, 75, 84
14, 22709, Note_on_c, 7, 75, 0
14, 22709, Note_on_c, 7, 87, 0
14, 22740, Note_on_c, 7, 87, 86
14, 22740, Note_on_c, 7, 75, 86
14, 22769, Note_on_c, 7, 75, 0
14, 22769, Note_on_c, 7, 87, 0
14, 22800, Note_on_c, 7, 87, 88
14, 22800, Note_on_c, 7, 75, 88
14, 22829, Note_on_c, 7, 75, 0
14, 22829, Note_on_c, 7, 87, 0
14, 22860, Note_on_c, 7, 87, 90
14, 22860, Note_on_c, 7, 75, 90
14, 22889, Note_on_c, 7, 75, 0
14, 22889, Note_on_c, 7, 87, 0
14, 22920, Note_on_c, 7, 87, 92
14, 22920, Note_on_c, 7, 75, 92
14, 22949, Note_on_c, 7, 75, 0
14, 22949, Note_on_c, 7, 87, 0
14, 22980, Note_on_c, 7, 87, 94
14, 22980, Note_on_c, 7, 75, 94
14, 23009, Note_on_c, 7, 75, 0
14, 23009, Note_on_c, 7, 87, 0
14, 23040, Note_on_c, 7, 87, 96
14, 23040, Note_on_c, 7, 75, 96
14, 23069, Note_on_c, 7, 87, 0
14, 23099, Note_on_c, 7, 75, 0
14, 23100, Note_on_c, 7, 84, 96
14, 23130, Note_on_c, 7, 86, 96
14, 23139, Note_on_c, 7, 84, 0
14, 23159, Note_on_c, 7, 86, 0
14, 23160, Note_on_c, 7, 84, 96
14, 23160, Note_on_c, 7, 69, 96
14, 23189, Note_on_c, 7, 84, 0
14, 23219, Note_on_c, 7, 69, 0
14, 23220, Note_on_c, 7, 81, 96
14, 23250, Note_on_c, 7, 82, 96
14, 23259, Note_on_c, 7, 81, 0
14, 23279, Note_on_c, 7, 82, 0
14, 23280, Note_on_c, 7, 81, 96
14, 23309, Note_on_c, 7, 81, 0
14, 23340, Note_on_c, 7, 75, 96
14, 23370, Note_on_c, 7, 77, 96
14, 23379, Note_on_c, 7, 75, 0
14, 23399, Note_on_c, 7, 77, 0
14, 23400, Note_on_c, 7, 75, 96
14, 23429, Note_on_c, 7, 75, 0
14, 23460, Note_on_c, 7, 72, 96
14, 23460, Note_on_c, 7, 63, 96
14, 23490, Note_on_c, 7, 74, 96
14, 23490, Note_on_c, 7, 65, 96
14, 23499, Note_on_c, 7, 63, 0
14, 23499, Note_on_c, 7, 72, 0
14, 23519, Note_on_c, 7, 74, 0
14, 23519, Note_on_c, 7, 65, 0
14, 23520, Note_on_c, 7, 72, 96
14, 23520, Note_on_c, 7, 63, 96
14, 23549, Note_on_c, 7, 63, 0
14, 23549, Note_on_c, 7, 72, 0
14, 23580, Note_on_c, 7, 69, 96
14, 23580, Note_on_c, 7, 60, 96
14, 23610, Note_on_c, 7, 70, 96
14, 23610, Note_on_c, 7, 62, 96
14, 23619, Note_on_c, 7, 60, 0
14, 23619, Note_on_c, 7, 69, 0
14, 23639, Note_on_c, 7, 70, 0
14, 23639, Note_on_c, 7, 62, 0
14, 23640, Note_on_c, 7, 69, 96
14, 23640, Note_on_c, 7, 60, 96
14, 23669, Note_on_c, 7, 60, 0
14, 23669, Note_on_c, 7, 69, 0
14, 23700, Note_on_c, 7, 87, 96
14, 23700, Note_on_c, 7, 69, 96
14, 23729, Note_on_c, 7, 69, 0
14, 23729, Note_on_c, 7, 87, 0
14, 23760, Note_on_c, 7, 86, 96
14, 23760, Note_on_c, 7, 70, 96
14, 23789, Note_on_c, 7, 86, 0
14, 23819, Note_on_c, 7, 70, 0
14, 23820, Note_on_c, 7, 82, 96
14, 23850, Note_on_c, 7, 84, 96
14, 23859, Note_on_c, 7, 82, 0
14, 23879, Note_on_c, 7, 84, 0
14, 23880, Note_on_c, 7, 82, 96
14, 23880, Note_on_c, 7, 62, 96
14, 23880, Note_on_c, 7, 70, 96
14, 23909, Note_on_c, 7, 82, 0
14, 23939, Note_on_c, 7, 70, 0
14, 23939, Note_on_c, 7, 62, 0
14, 23940, Note_on_c, 7, 79, 96
14, 23970, Note_on_c, 7, 81, 96
14, 23979, Note_on_c, 7, 79, 0
14, 23999, Note_on_c, 7, 81, 0
14, 24000, Note_on_c, 7, 79, 96
14, 24029, Note_on_c, 7, 79, 0
14, 24060, Note_on_c, 7, 74, 96
14, 24090, Note_on_c, 7, 75, 96
14, 24099, Note_on_c, 7, 74, 0
14, 24119, Note_on_c, 7, 75, 0
14, 24120, Note_on_c, 7, 74, 96
14, 24149, Note_on_c, 7, 74, 0
14, 24180, Note_on_c, 7, 70, 96
14, 24180, Note_on_c, 7, 62, 96
14, 24210, Note_on_c, 7, 72, 96
14, 24210, Note_on_c, 7, 63, 96
14, 24219, Note_on_c, 7, 62, 0
14, 24219, Note_on_c, 7, 70, 0
14, 24239, Note_on_c, 7, 72, 0
14, 24239, Note_on_c, 7, 63, 0
14, 24240, Note_on_c, 7, 70, 96
14, 24240, Note_on_c, 7, 62, 96
14, 24269, Note_on_c, 7, 62, 0
14, 24269, Note_on_c, 7, 70, 0
14, 24300, Note_on_c, 7, 67, 96
14, 24300, Note_on_c, 7, 58, 96
14, 24330, Note_on_c, 7, 69, 96
14, 24330, Note_on_c, 7, 60, 96
14, 24339, Note_on_c, 7, 58, 0
14, 24339, Note_on_c, 7, 67, 0
14, 24359, Note_on_c, 7, 69, 0
14, 24359, Note_on_c, 7, 60, 0
14, 24360, Note_on_c, 7, 67, 96
14, 24360, Note_on_c, 7, 58, 96
14, 24389, Note_on_c, 7, 58, 0
14, 24389, Note_on_c, 7, 67, 0
14, 24420, Note_on_c, 7, 79, 96
14, 24420, Note_on_c, 7, 70, 96
14, 24449, Note_on_c, 7, 70, 0
14, 24449, Note_on_c, 7, 79, 0
14, 24480, Note_on_c, 7, 80, 96
14, 24480, Note_on_c, 7, 71, 96
14, 24539, Note_on_c, 7, 71, 0
14, 24539, Note_on_c, 7, 80, 0
14, 24540, Note_on_c, 7, 68, 96
14, 24570, Note_on_c, 7, 70, 96
14, 24579, Note_on_c, 7, 68, 0
14, 24599, Note_on_c, 7, 70, 0
14, 24600, Note_on_c, 7, 68, 96
14, 24600, Note_on_c, 7, 80, 96
14, 24600, Note_on_c, 7, 71, 96
14, 24629, Note_on_c, 7, 68, 0
14, 24659, Note_on_c, 7, 71, 0
14, 24659, Note_on_c, 7, 80, 0
14, 24660, Note_on_c, 7, 65, 96
14, 24690, Note_on_c, 7, 67, 96
14, 24699, Note_on_c, 7, 65, 0
14, 24719, Note_on_c, 7, 67, 0
14, 24720, Note_on_c, 7, 65, 96
14, 24749, Note_on_c, 7, 65, 0
14, 24780, Note_on_c, 7, 62, 96
14, 24810, Note_on_c, 7, 63, 96
14, 24819, Note_on_c, 7, 62, 0
14, 24839, Note_on_c, 7, 63, 0
14, 24840, Note_on_c, 7, 62, 96
14, 24869, Note_on_c, 7, 62, 0
14, 24900, Note_on_c, 7, 59, 96
14, 24900, Note_on_c, 7, 74, 96
14, 24930, Note_on_c, 7, 60, 96
14, 24930, Note_on_c, 7, 75, 96
14, 24939, Note_on_c, 7, 74, 0
14, 24939, Note_on_c, 7, 59, 0
14, 24959, Note_on_c, 7, 60, 0
14, 24959, Note_on_c, 7, 75, 0
14, 24960, Note_on_c, 7, 59, 96
14, 24960, Note_on_c, 7, 74, 96
14, 24989, Note_on_c, 7, 74, 0
14, 24989, Note_on_c, 7, 59, 0
14, 25020, Note_on_c, 7, 71, 96
14, 25020, Note_on_c, 7, 62, 96
14, 25050, Note_on_c, 7, 72, 96
14, 25050, Note_on_c, 7, 63, 96
14, 25059, Note_on_c, 7, 62, 0
14, 25059, Note_on_c, 7, 71, 0
14, 25079, Note_on_c, 7, 72, 0
14, 25079, Note_on_c, 7, 63, 0
14, 25080, Note_on_c, 7, 71, 96
14, 25080, Note_on_c, 7, 62, 96
14, 25109, Note_on_c, 7, 62, 0
14, 25109, Note_on_c, 7, 71, 0
14, 25140, Note_on_c, 7, 80, 96
14, 25140, Note_on_c, 7, 71, 96
14, 25140, Note_on_c, 7, 62, 96
14, 25169, Note_on_c, 7, 62, 0
14, 25169, Note_on_c, 7, 71, 0
14, 25169, Note_on_c, 7, 80, 0
14, 25200, Note_on_c, 7, 79, 96
14, 25200, Note_on_c, 7, 72, 96
14, 25200, Note_on_c, 7, 63, 96
14, 25229, Note_on_c, 7, 63, 0
14, 25229, Note_on_c, 7, 72, 0
14, 25229, Note_on_c, 7, 79, 0
14, 25260, Note_on_c, 7, 67, 96
14, 25290, Note_on_c, 7, 68, 96
14, 25319, Note_on_c, 7, 68, 0
14, 25319, Note_on_c, 7, 67, 0
14, 25320, Note_on_c, 7, 67, 96
14, 25379, Note_on_c, 7, 67, 0
14, 25380, Note_on_c, 7, 79, 96
14, 25380, Note_on_c, 7, 72, 96
14, 25409, Note_on_c, 7, 72, 0
14, 25409, Note_on_c, 7, 79, 0
14, 25440, Note_on_c, 7, 81, 96
14, 25440, Note_on_c, 7, 72, 96
14, 25469, Note_on_c, 7, 72, 0
14, 25469, Note_on_c, 7, 81, 0
14, 25500, Note_on_c, 7, 69, 96
14, 25500, Note_on_c, 7, 74, 96
14, 25529, Note_on_c, 7, 74, 0
14, 25529, Note_on_c, 7, 69, 0
14, 25560, Note_on_c, 7, 82, 96
14, 25560, Note_on_c, 7, 74, 96
14, 25589, Note_on_c, 7, 74, 0
14, 25589, Note_on_c, 7, 82, 0
14, 25620, Note_on_c, 7, 70, 96
14, 25620, Note_on_c, 7, 75, 96
14, 25650, Note_on_c, 7, 72, 96
14, 25659, Note_on_c, 7, 70, 0
14, 25679, Note_on_c, 7, 72, 0
14, 25680, Note_on_c, 7, 70, 96
14, 25709, Note_on_c, 7, 70, 0
14, 25739, Note_on_c, 7, 75, 0
14, 25740, Note_on_c, 7, 82, 96
14, 25740, Note_on_c, 7, 75, 96
14, 25769, Note_on_c, 7, 75, 0
14, 25769, Note_on_c, 7, 82, 0
14, 25800, Note_on_c, 7, 84, 96
14, 25800, Note_on_c, 7, 75, 96
14, 25829, Note_on_c, 7, 75, 0
14, 25829, Note_on_c, 7, 84, 0
14, 25860, Note_on_c, 7, 72, 96
14, 25860, Note_on_c, 7, 77, 96
14, 25889, Note_on_c, 7, 77, 0
14, 25889, Note_on_c, 7, 72, 0
14, 25920, Note_on_c, 7, 86, 96
14, 25920, Note_on_c, 7, 77, 96
14, 25949, Note_on_c, 7, 77, 0
14, 25949, Note_on_c, 7, 86, 0
14, 25980, Note_on_c, 7, 74, 96
14, 25980, Note_on_c, 7, 70, 96
14, 26009, Note_on_c, 7, 70, 0
14, 26009, Note_on_c, 7, 74, 0
14, 26040, Note_on_c, 7, 86, 96
14, 26040, Note_on_c, 7, 82, 96
14, 26069, Note_on_c, 7, 82, 0
14, 26069, Note_on_c, 7, 86, 0
14, 26100, Note_on_c, 7, 74, 96
14, 26100, Note_on_c, 7, 70, 96
14, 26129, Note_on_c, 7, 70, 0
14, 26129, Note_on_c, 7, 74, 0
14, 26160, Note_on_c, 7, 87, 96
14, 26160, Note_on_c, 7, 82, 96
14, 26189, Note_on_c, 7, 82, 0
14, 26189, Note_on_c, 7, 87, 0
14, 26220, Note_on_c, 7, 75, 96
14, 26220, Note_on_c, 7, 70, 96
14, 26249, Note_on_c, 7, 70, 0
14, 26249, Note_on_c, 7, 75, 0
14, 26280, Note_on_c, 7, 88, 96
14, 26280, Note_on_c, 7, 82, 96
14, 26309, Note_on_c, 7, 82, 0
14, 26309, Note_on_c, 7, 88, 0
14, 26340, Note_on_c, 7, 76, 96
14, 26340, Note_on_c, 7, 70, 96
14, 26369, Note_on_c, 7, 70, 0
14, 26369, Note_on_c, 7, 76, 0
14, 26400, Note_on_c, 7, 89, 96
14, 26400, Note_on_c, 7, 82, 96
14, 26429, Note_on_c, 7, 82, 0
14, 26429, Note_on_c, 7, 89, 0
14, 26460, Note_on_c, 7, 77, 96
14, 26460, Note_on_c, 7, 70, 96
14, 26489, Note_on_c, 7, 70, 0
14, 26489, Note_on_c, 7, 77, 0
14, 26520, Note_on_c, 7, 90, 96
14, 26520, Note_on_c, 7, 82, 96
14, 26549, Note_on_c, 7, 82, 0
14, 26549, Note_on_c, 7, 90, 0
14, 26580, Note_on_c, 7, 78, 96
14, 26580, Note_on_c, 7, 70, 96
14, 26609, Note_on_c, 7, 70, 0
14, 26609, Note_on_c, 7, 78, 0
14, 26640, Note_on_c, 7, 91, 96
14, 26640, Note_on_c, 7, 82, 96
14, 26669, Note_on_c, 7, 82, 0
14, 26669, Note_on_c, 7, 91, 0
14, 26670, Note_on_c, 7, 91, 96
14, 26670, Note_on_c, 7, 70, 96
14, 26699, Note_on_c, 7, 70, 0
14, 26699, Note_on_c, 7, 91, 0
14, 26700, Note_on_c, 7, 90, 96
14, 26700, Note_on_c, 7, 70, 96
14, 26729, Note_on_c, 7, 70, 0
14, 26729, Note_on_c, 7, 90, 0
14, 26730, Note_on_c, 7, 90, 96
14, 26730, Note_on_c, 7, 70, 96
14, 26759, Note_on_c, 7, 70, 0
14, 26759, Note_on_c, 7, 90, 0
14, 26760, Note_on_c, 7, 91, 96
14, 26760, Note_on_c, 7, 70, 96
14, 26789, Note_on_c, 7, 70, 0
14, 26789, Note_on_c, 7, 91, 0
14, 26790, Note_on_c, 7, 91, 96
14, 26790, Note_on_c, 7, 70, 96
14, 26819, Note_on_c, 7, 70, 0
14, 26819, Note_on_c, 7, 91, 0
14, 26820, Note_on_c, 7, 90, 96
14, 26820, Note_on_c, 7, 70, 96
14, 26849, Note_on_c, 7, 70, 0
14, 26849, Note_on_c, 7, 90, 0
14, 26850, Note_on_c, 7, 90, 96
14, 26850, Note_on_c, 7, 70, 96
14, 26879, Note_on_c, 7, 70, 0
14, 26879, Note_on_c, 7, 90, 0
14, 26880, Note_on_c, 7, 91, 96
14, 26880, Note_on_c, 7, 71, 96
14, 26909, Note_on_c, 7, 71, 0
14, 26909, Note_on_c, 7, 91, 0
14, 26910, Note_on_c, 7, 91, 96
14, 26910, Note_on_c, 7, 71, 96
14, 26939, Note_on_c, 7, 71, 0
14, 26939, Note_on_c, 7, 91, 0
14, 26940, Note_on_c, 7, 86, 96
14, 26940, Note_on_c, 7, 71, 96
14, 26969, Note_on_c, 7, 71, 0
14, 26969, Note_on_c, 7, 86, 0
14, 26970, Note_on_c, 7, 86, 96
14, 26970, Note_on_c, 7, 71, 96
14, 26999, Note_on_c, 7, 71, 0
14, 26999, Note_on_c, 7, 86, 0
14, 27000, Note_on_c, 7, 87, 96
14, 27000, Note_on_c, 7, 72, 96
14, 27029, Note_on_c, 7, 72, 0
14, 27029, Note_on_c, 7, 87, 0
14, 27030, Note_on_c, 7, 87, 96
14, 27030, Note_on_c, 7, 72, 96
14, 27059, Note_on_c, 7, 72, 0
14, 27059, Note_on_c, 7, 87, 0
14, 27060, Note_on_c, 7, 86, 96
14, 27060, Note_on_c, 7, 74, 96
14, 27089, Note_on_c, 7, 74, 0
14, 27089, Note_on_c, 7, 86, 0
14, 27090, Note_on_c, 7, 86, 96
14, 27090, Note_on_c, 7, 74, 96
14, 27119, Note_on_c, 7, 74, 0
14, 27119, Note_on_c, 7, 86, 0
14, 27120, Note_on_c, 7, 89, 96
14, 27120, Note_on_c, 7, 77, 96
14, 27149, Note_on_c, 7, 77, 0
14, 27149, Note_on_c, 7, 89, 0
14, 27150, Note_on_c, 7, 89, 96
14, 27150, Note_on_c, 7, 77, 96
14, 27179, Note_on_c, 7, 77, 0
14, 27179, Note_on_c, 7, 89, 0
14, 27180, Note_on_c, 7, 87, 96
14, 27180, Note_on_c, 7, 75, 96
14, 27209, Note_on_c, 7, 75, 0
14, 27209, Note_on_c, 7, 87, 0
14, 27210, Note_on_c, 7, 87, 96
14, 27210, Note_on_c, 7, 75, 96
14, 27239, Note_on_c, 7, 75, 0
14, 27239, Note_on_c, 7, 87, 0
14, 27240, Note_on_c, 7, 86, 96
14, 27240, Note_on_c, 7, 74, 96
14, 27269, Note_on_c, 7, 74, 0
14, 27269, Note_on_c, 7, 86, 0
14, 27270, Note_on_c, 7, 86, 96
14, 27270, Note_on_c, 7, 74, 96
14, 27299, Note_on_c, 7, 74, 0
14, 27299, Note_on_c, 7, 86, 0
14, 27300, Note_on_c, 7, 84, 96
14, 27300, Note_on_c, 7, 72, 96
14, 27329, Note_on_c, 7, 72, 0
14, 27329, Note_on_c, 7, 84, 0
14, 27330, Note_on_c, 7, 84, 96
14, 27330, Note_on_c, 7, 72, 96
14, 27359, Note_on_c, 7, 72, 0
14, 27359, Note_on_c, 7, 84, 0
14, 27360, Note_on_c, 7, 82, 96
14, 27360, Note_on_c, 7, 70, 96
14, 27389, Note_on_c, 7, 70, 0
14, 27389, Note_on_c, 7, 82, 0
14, 27390, Note_on_c, 7, 82, 96
14, 27390, Note_on_c, 7, 70, 96
14, 27419, Note_on_c, 7, 70, 0
14, 27419, Note_on_c, 7, 82, 0
14, 27420, Note_on_c, 7, 77, 96
14, 27420, Note_on_c, 7, 65, 96
14, 27449, Note_on_c, 7, 65, 0
14, 27449, Note_on_c, 7, 77, 0
14, 27450, Note_on_c, 7, 77, 96
14, 27450, Note_on_c, 7, 65, 96
14, 27479, Note_on_c, 7, 65, 0
14, 27479, Note_on_c, 7, 77, 0
14, 27480, Note_on_c, 7, 79, 96
14, 27480, Note_on_c, 7, 67, 96
14, 27509, Note_on_c, 7, 67, 0
14, 27509, Note_on_c, 7, 79, 0
14, 27510, Note_on_c, 7, 79, 96
14, 27510, Note_on_c, 7, 67, 96
14, 27539, Note_on_c, 7, 67, 0
14, 27539, Note_on_c, 7, 79, 0
14, 27540, Note_on_c, 7, 81, 96
14, 27540, Note_on_c, 7, 69, 96
14, 27569, Note_on_c, 7, 69, 0
14, 27569, Note_on_c, 7, 81, 0
14, 27570, Note_on_c, 7, 81, 96
14, 27570, Note_on_c, 7, 69, 96
14, 27599, Note_on_c, 7, 69, 0
14, 27599, Note_on_c, 7, 81, 0
14, 27600, Note_on_c, 7, 82, 96
14, 27600, Note_on_c, 7, 70, 96
14, 27629, Note_on_c, 7, 70, 0
14, 27629, Note_on_c, 7, 82, 0
14, 27630, Note_on_c, 7, 82, 96
14, 27630, Note_on_c, 7, 70, 96
14, 27659, Note_on_c, 7, 70, 0
14, 27659, Note_on_c, 7, 82, 0
14, 27660, Note_on_c, 7, 84, 96
14, 27660, Note_on_c, 7, 72, 96
14, 27689, Note_on_c, 7, 72, 0
14, 27689, Note_on_c, 7, 84, 0
14, 27690, Note_on_c, 7, 84, 96
14, 27690, Note_on_c, 7, 72, 96
14, 27719, Note_on_c, 7, 72, 0
14, 27719, Note_on_c, 7, 84, 0
14, 27720, Note_on_c, 7, 86, 96
14, 27720, Note_on_c, 7, 74, 96
14, 27749, Note_on_c, 7, 74, 0
14, 27749, Note_on_c, 7, 86, 0
14, 27750, Note_on_c, 7, 86, 96
14, 27750, Note_on_c, 7, 74, 96
14, 27779, Note_on_c, 7, 74, 0
14, 27779, Note_on_c, 7, 86, 0
14, 27780, Note_on_c, 7, 87, 96
14, 27780, Note_on_c, 7, 75, 96
14, 27809, Note_on_c, 7, 75, 0
14, 27809, Note_on_c, 7, 87, 0
14, 27810, Note_on_c, 7, 87, 96
14, 27810, Note_on_c, 7, 75, 96
14, 27839, Note_on_c, 7, 75, 0
14, 27839, Note_on_c, 7, 87, 0
14, 27840, Note_on_c, 7, 88, 96
14, 27840, Note_on_c, 7, 76, 96
14, 27869, Note_on_c, 7, 76, 0
14, 27869, Note_on_c, 7, 88, 0
14, 27870, Note_on_c, 7, 88, 96
14, 27870, Note_on_c, 7, 76, 96
14, 27899, Note_on_c, 7, 76, 0
14, 27899, Note_on_c, 7, 88, 0
14, 27900, Note_on_c, 7, 89, 96
14, 27900, Note_on_c, 7, 77, 96
14, 27929, Note_on_c, 7, 77, 0
14, 27929, Note_on_c, 7, 89, 0
14, 27930, Note_on_c, 7, 89, 96
14, 27930, Note_on_c, 7, 77, 96
14, 27959, Note_on_c, 7, 77, 0
14, 27959, Note_on_c, 7, 89, 0
14, 27960, Note_on_c, 7, 87, 96
14, 27960, Note_on_c, 7, 75, 96
14, 27989, Note_on_c, 7, 75, 0
14, 27989, Note_on_c, 7, 87, 0
14, 27990, Note_on_c, 7, 87, 96
14, 27990, Note_on_c, 7, 75, 96
14, 28019, Note_on_c, 7, 75, 0
14, 28019, Note_on_c, 7, 87, 0
14, 28020, Note_on_c, 7, 86, 96
14, 28020, Note_on_c, 7, 74, 96
14, 28049, Note_on_c, 7, 74, 0
14, 28049, Note_on_c, 7, 86, 0
14, 28050, Note_on_c, 7, 86, 96
14, 28050, Note_on_c, 7, 74, 96
14, 28079, Note_on_c, 7, 74, 0
14, 28079, Note_on_c, 7, 86, 0
14, 28080, Note_on_c, 7, 84, 96
14, 28080, Note_on_c, 7, 72, 96
14, 28109, Note_on_c, 7, 72, 0
14, 28109, Note_on_c, 7, 84, 0
14, 28110, Note_on_c, 7, 84, 96
14, 28110, Note_on_c, 7, 72, 96
14, 28139, Note_on_c, 7, 72, 0
14, 28139, Note_on_c, 7, 84, 0
14, 28140, Note_on_c, 7, 86, 96
14, 28140, Note_on_c, 7, 74, 96
14, 28169, Note_on_c, 7, 74, 0
14, 28169, Note_on_c, 7, 86, 0
14, 28170, Note_on_c, 7, 86, 96
14, 28170, Note_on_c, 7, 74, 96
14, 28199, Note_on_c, 7, 74, 0
14, 28199, Note_on_c, 7, 86, 0
14, 28200, Note_on_c, 7, 87, 96
14, 28200, Note_on_c, 7, 75, 96
14, 28229, Note_on_c, 7, 75, 0
14, 28229, Note_on_c, 7, 87, 0
14, 28230, Note_on_c, 7, 87, 96
14, 28230, Note_on_c, 7, 75, 96
14, 28259, Note_on_c, 7, 75, 0
14, 28259, Note_on_c, 7, 87, 0
14, 28260, Note_on_c, 7, 86, 96
14, 28260, Note_on_c, 7, 74, 96
14, 28289, Note_on_c, 7, 74, 0
14, 28289, Note_on_c, 7, 86, 0
14, 28290, Note_on_c, 7, 86, 96
14, 28290, Note_on_c, 7, 74, 96
14, 28319, Note_on_c, 7, 74, 0
14, 28319, Note_on_c, 7, 86, 0
14, 28320, Note_on_c, 7, 84, 96
14, 28320, Note_on_c, 7, 72, 96
14, 28349, Note_on_c, 7, 72, 0
14, 28349, Note_on_c, 7, 84, 0
14, 28350, Note_on_c, 7, 84, 96
14, 28350, Note_on_c, 7, 72, 96
14, 28379, Note_on_c, 7, 72, 0
14, 28379, Note_on_c, 7, 84, 0
14, 28380, Note_on_c, 7, 82, 96
14, 28380, Note_on_c, 7, 70, 96
14, 28409, Note_on_c, 7, 70, 0
14, 28409, Note_on_c, 7, 82, 0
14, 28410, Note_on_c, 7, 82, 96
14, 28410, Note_on_c, 7, 70, 96
14, 28439, Note_on_c, 7, 70, 0
14, 28439, Note_on_c, 7, 82, 0
14, 28440, Note_on_c, 7, 81, 96
14, 28440, Note_on_c, 7, 69, 96
14, 28469, Note_on_c, 7, 69, 0
14, 28469, Note_on_c, 7, 81, 0
14, 28470, Note_on_c, 7, 81, 96
14, 28470, Note_on_c, 7, 69, 96
14, 28499, Note_on_c, 7, 69, 0
14, 28499, Note_on_c, 7, 81, 0
14, 28500, Note_on_c, 7, 82, 96
14, 28500, Note_on_c, 7, 70, 96
14, 28529, Note_on_c, 7, 70, 0
14, 28529, Note_on_c, 7, 82, 0
14, 28530, Note_on_c, 7, 82, 96
14, 28530, Note_on_c, 7, 70, 96
14, 28559, Note_on_c, 7, 70, 0
14, 28559, Note_on_c, 7, 82, 0
14, 28560, Note_on_c, 7, 84, 96
14, 28560, Note_on_c, 7, 72, 96
14, 28589, Note_on_c, 7, 72, 0
14, 28589, Note_on_c, 7, 84, 0
14, 28590, Note_on_c, 7, 84, 96
14, 28590, Note_on_c, 7, 72, 96
14, 28619, Note_on_c, 7, 72, 0
14, 28619, Note_on_c, 7, 84, 0
14, 28620, Note_on_c, 7, 82, 96
14, 28620, Note_on_c, 7, 70, 96
14, 28649, Note_on_c, 7, 70, 0
14, 28649, Note_on_c, 7, 82, 0
14, 28650, Note_on_c, 7, 82, 96
14, 28650, Note_on_c, 7, 70, 96
14, 28679, Note_on_c, 7, 70, 0
14, 28679, Note_on_c, 7, 82, 0
14, 28680, Note_on_c, 7, 81, 96
14, 28680, Note_on_c, 7, 69, 96
14, 28709, Note_on_c, 7, 69, 0
14, 28709, Note_on_c, 7, 81, 0
14, 28710, Note_on_c, 7, 81, 96
14, 28710, Note_on_c, 7, 69, 96
14, 28739, Note_on_c, 7, 69, 0
14, 28739, Note_on_c, 7, 81, 0
14, 28740, Note_on_c, 7, 79, 96
14, 28740, Note_on_c, 7, 67, 96
14, 28769, Note_on_c, 7, 67, 0
14, 28769, Note_on_c, 7, 79, 0
14, 28770, Note_on_c, 7, 79, 96
14, 28770, Note_on_c, 7, 67, 96
14, 28799, Note_on_c, 7, 67, 0
14, 28799, Note_on_c, 7, 79, 0
14, 28800, Note_on_c, 7, 77, 127
14, 28800, Note_on_c, 7, 65, 127
14, 28829, Note_on_c, 7, 65, 0
14, 28829, Note_on_c, 7, 77, 0
14, 28830, Note_on_c, 7, 77, 127
14, 28830, Note_on_c, 7, 65, 127
14, 28859, Note_on_c, 7, 65, 0
14, 28859, Note_on_c, 7, 77, 0
14, 28860, Note_on_c, 7, 76, 127
14, 28860, Note_on_c, 7, 64, 127
14, 28889, Note_on_c, 7, 64, 0
14, 28889, Note_on_c, 7, 76, 0
14, 28890, Note_on_c, 7, 76, 127
14, 28890, Note_on_c, 7, 64, 127
14, 28919, Note_on_c, 7, 64, 0
14, 28919, Note_on_c, 7, 76, 0
14, 28920, Note_on_c, 7, 75, 127
14, 28920, Note_on_c, 7, 63, 127
14, 28949, Note_on_c, 7, 63, 0
14, 28949, Note_on_c, 7, 75, 0
14, 28950, Note_on_c, 7, 75, 127
14, 28950, Note_on_c, 7, 63, 127
14, 28979, Note_on_c, 7, 63, 0
14, 28979, Note_on_c, 7, 75, 0
14, 28980, Note_on_c, 7, 74, 127
14, 28980, Note_on_c, 7, 62, 127
14, 29009, Note_on_c, 7, 62, 0
14, 29009, Note_on_c, 7, 74, 0
14, 29010, Note_on_c, 7, 74, 127
14, 29010, Note_on_c, 7, 62, 127
14, 29039, Note_on_c, 7, 62, 0
14, 29039, Note_on_c, 7, 74, 0
14, 29040, Note_on_c, 7, 72, 127
14, 29040, Note_on_c, 7, 60, 127
14, 29069, Note_on_c, 7, 60, 0
14, 29069, Note_on_c, 7, 72, 0
14, 29070, Note_on_c, 7, 72, 127
14, 29070, Note_on_c, 7, 60, 127
14, 29099, Note_on_c, 7, 60, 0
14, 29099, Note_on_c, 7, 72, 0
14, 29100, Note_on_c, 7, 70, 127
14, 29100, Note_on_c, 7, 58, 127
14, 29129, Note_on_c, 7, 58, 0
14, 29129, Note_on_c, 7, 70, 0
14, 29130, Note_on_c, 7, 70, 127
14, 29130, Note_on_c, 7, 58, 127
14, 29159, Note_on_c, 7, 58, 0
14, 29159, Note_on_c, 7, 70, 0
14, 29160, Note_on_c, 7, 69, 127
14, 29160, Note_on_c, 7, 57, 127
14, 29189, Note_on_c, 7, 57, 0
14, 29189, Note_on_c, 7, 69, 0
14, 29190, Note_on_c, 7, 69, 127
14, 29190, Note_on_c, 7, 57, 127
14, 29219, Note_on_c, 7, 57, 0
14, 29219, Note_on_c, 7, 69, 0
14, 29220, Note_on_c, 7, 67, 127
14, 29249, Note_on_c, 7, 67, 0
14, 29250, Note_on_c, 7, 67, 127
14, 29279, Note_on_c, 7, 67, 0
14, 29280, Note_on_c, 7, 65, 127
14, 29309, Note_on_c, 7, 65, 0
14, 29310, Note_on_c, 7, 65, 127
14, 29339, Note_on_c, 7, 65, 0
14, 29340, Note_on_c, 7, 63, 127
14, 29369, Note_on_c, 7, 63, 0
14, 29370, Note_on_c, 7, 63, 127
14, 29399, Note_on_c, 7, 63, 0
14, 29400, Note_on_c, 7, 62, 127
14, 29429, Note_on_c, 7, 62, 0
14, 29430, Note_on_c, 7, 62, 127
14, 29459, Note_on_c, 7, 62, 0
14, 29460, Note_on_c, 7, 60, 127
14, 29489, Note_on_c, 7, 60, 0
14, 29490, Note_on_c, 7, 60, 127
14, 29519, Note_on_c, 7, 60, 0
14, 29520, Note_on_c, 7, 58, 127
14, 29639, Note_on_c, 7, 58, 0
14, 31080, Note_on_c, 7, 75, 48
14, 31080, Note_on_c, 7, 67, 48
14, 31169, Note_on_c, 7, 67, 0
14, 31169, Note_on_c, 7, 75, 0
14, 31200, Note_on_c, 7, 75, 48
14, 31200, Note_on_c, 7, 68, 48
14, 31289, Note_on_c, 7, 68, 0
14, 31289, Note_on_c, 7, 75, 0
14, 31320, Note_on_c, 7, 75, 48
14, 31320, Note_on_c, 7, 69, 48
14, 31409, Note_on_c, 7, 69, 0
14, 31409, Note_on_c, 7, 75, 0
14, 31440, Note_on_c, 7, 77, 60
14, 31440, Note_on_c, 7, 69, 60
14, 31529, Note_on_c, 7, 69, 0
14, 31529, Note_on_c, 7, 77, 0
14, 31560, Note_on_c, 7, 77, 72
14, 31560, Note_on_c, 7, 69, 72
14, 31649, Note_on_c, 7, 69, 0
14, 31649, Note_on_c, 7, 77, 0
14, 31680, Note_on_c, 7, 77, 84
14, 31680, Note_on_c, 7, 69, 84
14, 31799, Note_on_c, 7, 69, 0
14, 31800, Note_on_c, 7, 78, 90
14, 31800, Note_on_c, 7, 69, 96
14, 31809, Note_on_c, 7, 77, 0
14, 31920, Note_on_c, 7, 79, 96
14, 31929, Note_on_c, 7, 78, 0
14, 32039, Note_on_c, 7, 69, 0
14, 32040, Note_on_c, 7, 69, 96
14, 32159, Note_on_c, 7, 79, 0
14, 32160, Note_on_c, 7, 77, 84
14, 32220, Note_on_c, 7, 75, 72
14, 32229, Note_on_c, 7, 77, 0
14, 32280, Note_on_c, 7, 74, 64
14, 32289, Note_on_c, 7, 75, 0
14, 32340, Note_on_c, 7, 72, 56
14, 32349, Note_on_c, 7, 74, 0
14, 32349, Note_on_c, 7, 69, 0
14, 32400, Note_on_c, 7, 70, 48
14, 32409, Note_on_c, 7, 72, 0
14, 32519, Note_on_c, 7, 70, 0
14, 34320, Note_on_c, 7, 65, 48
14, 34320, Note_on_c, 7, 56, 48
14, 34409, Note_on_c, 7, 56, 0
14, 34409, Note_on_c, 7, 65, 0
14, 34440, Note_on_c, 7, 65, 48
14, 34440, Note_on_c, 7, 56, 48
14, 34529, Note_on_c, 7, 56, 0
14, 34529, Note_on_c, 7, 65, 0
14, 34560, Note_on_c, 7, 65, 48
14, 34560, Note_on_c, 7, 58, 48
14, 34800, Note_on_c, 7, 64, 56
14, 34809, Note_on_c, 7, 65, 0
14, 34919, Note_on_c, 7, 64, 0
14, 34919, Note_on_c, 7, 58, 0
14, 35400, Note_on_c, 7, 69, 32
14, 35400, Note_on_c, 7, 66, 32
14, 35459, Note_on_c, 7, 66, 0
14, 35459, Note_on_c, 7, 69, 0
14, 35520, Note_on_c, 7, 69, 32
14, 35520, Note_on_c, 7, 66, 32
14, 35579, Note_on_c, 7, 66, 0
14, 35579, Note_on_c, 7, 69, 0
14, 35760, Note_on_c, 7, 70, 32
14, 35760, Note_on_c, 7, 65, 32
14, 35819, Note_on_c, 7, 65, 0
14, 35819, Note_on_c, 7, 70, 0
14, 35880, Note_on_c, 7, 71, 32
14, 35880, Note_on_c, 7, 68, 32
14, 35939, Note_on_c, 7, 68, 0
14, 35939, Note_on_c, 7, 71, 0
14, 36120, Note_on_c, 7, 72, 32
14, 36120, Note_on_c, 7, 69, 32
14, 36179, Note_on_c, 7, 69, 0
14, 36179, Note_on_c, 7, 72, 0
14, 36240, Note_on_c, 7, 74, 32
14, 36240, Note_on_c, 7, 70, 32
14, 36299, Note_on_c, 7, 70, 0
14, 36299, Note_on_c, 7, 74, 0
14, 36360, Note_on_c, 7, 75, 32
14, 36360, Note_on_c, 7, 72, 32
14, 36419, Note_on_c, 7, 72, 0
14, 36419, Note_on_c, 7, 75, 0
14, 36480, Note_on_c, 7, 77, 32
14, 36480, Note_on_c, 7, 74, 32
14, 36539, Note_on_c, 7, 74, 0
14, 36539, Note_on_c, 7, 77, 0
14, 36600, Note_on_c, 7, 78, 32
14, 36600, Note_on_c, 7, 74, 32
14, 36659, Note_on_c, 7, 74, 0
14, 36659, Note_on_c, 7, 78, 0
14, 36720, Note_on_c, 7, 79, 32
14, 36720, Note_on_c, 7, 75, 32
14, 36749, Note_on_c, 7, 75, 0
14, 36749, Note_on_c, 7, 79, 0
14, 36780, Note_on_c, 7, 77, 32
14, 36780, Note_on_c, 7, 74, 32
14, 36809, Note_on_c, 7, 74, 0
14, 36809, Note_on_c, 7, 77, 0
14, 36840, Note_on_c, 7, 75, 32
14, 36840, Note_on_c, 7, 72, 32
14, 36869, Note_on_c, 7, 72, 0
14, 36869, Note_on_c, 7, 75, 0
14, 36900, Note_on_c, 7, 74, 32
14, 36900, Note_on_c, 7, 70, 32
14, 36929, Note_on_c, 7, 70, 0
14, 36929, Note_on_c, 7, 74, 0
14, 36960, Note_on_c, 7, 72, 32
14, 36960, Note_on_c, 7, 69, 32
14, 36989, Note_on_c, 7, 69, 0
14, 36989, Note_on_c, 7, 72, 0
14, 37020, Note_on_c, 7, 74, 32
14, 37020, Note_on_c, 7, 70, 32
14, 37049, Note_on_c, 7, 70, 0
14, 37049, Note_on_c, 7, 74, 0
14, 37080, Note_on_c, 7, 75, 32
14, 37080, Note_on_c, 7, 72, 32
14, 37109, Note_on_c, 7, 72, 0
14, 37109, Note_on_c, 7, 75, 0
14, 37140, Note_on_c, 7, 74, 32
14, 37140, Note_on_c, 7, 70, 32
14, 37169, Note_on_c, 7, 70, 0
14, 37169, Note_on_c, 7, 74, 0
14, 37200, Note_on_c, 7, 72, 32
14, 37200, Note_on_c, 7, 69, 32
14, 37229, Note_on_c, 7, 69, 0
14, 37229, Note_on_c, 7, 72, 0
14, 37260, Note_on_c, 7, 74, 32
14, 37260, Note_on_c, 7, 70, 32
14, 37289, Note_on_c, 7, 70, 0
14, 37289, Note_on_c, 7, 74, 0
14, 37320, Note_on_c, 7, 75, 32
14, 37320, Note_on_c, 7, 72, 32
14, 37349, Note_on_c, 7, 72, 0
14, 37349, Note_on_c, 7, 75, 0
14, 37380, Note_on_c, 7, 74, 32
14, 37380, Note_on_c, 7, 77, 32
14, 37409, Note_on_c, 7, 77, 0
14, 37409, Note_on_c, 7, 74, 0
14, 37440, Note_on_c, 7, 79, 34
14, 37440, Note_on_c, 7, 75, 34
14, 37469, Note_on_c, 7, 75, 0
14, 37469, Note_on_c, 7, 79, 0
14, 37500, Note_on_c, 7, 77, 37
14, 37500, Note_on_c, 7, 74, 37
14, 37529, Note_on_c, 7, 74, 0
14, 37529, Note_on_c, 7, 77, 0
14, 37560, Note_on_c, 7, 75, 40
14, 37560, Note_on_c, 7, 72, 40
14, 37589, Note_on_c, 7, 72, 0
14, 37589, Note_on_c, 7, 75, 0
14, 37620, Note_on_c, 7, 74, 43
14, 37620, Note_on_c, 7, 70, 43
14, 37649, Note_on_c, 7, 70, 0
14, 37649, Note_on_c, 7, 74, 0
14, 37680, Note_on_c, 7, 72, 46
14, 37680, Note_on_c, 7, 69, 46
14, 37709, Note_on_c, 7, 69, 0
14, 37709, Note_on_c, 7, 72, 0
14, 37740, Note_on_c, 7, 74, 48
14, 37740, Note_on_c, 7, 70, 48
14, 37769, Note_on_c, 7, 70, 0
14, 37769, Note_on_c, 7, 74, 0
14, 37800, Note_on_c, 7, 75, 50
14, 37800, Note_on_c, 7, 72, 50
14, 37829, Note_on_c, 7, 72, 0
14, 37829, Note_on_c, 7, 75, 0
14, 37860, Note_on_c, 7, 74, 53
14, 37860, Note_on_c, 7, 70, 53
14, 37889, Note_on_c, 7, 70, 0
14, 37889, Note_on_c, 7, 74, 0
14, 37920, Note_on_c, 7, 72, 56
14, 37920, Note_on_c, 7, 69, 56
14, 37949, Note_on_c, 7, 69, 0
14, 37949, Note_on_c, 7, 72, 0
14, 37980, Note_on_c, 7, 74, 59
14, 37980, Note_on_c, 7, 70, 59
14, 38009, Note_on_c, 7, 70, 0
14, 38009, Note_on_c, 7, 74, 0
14, 38040, Note_on_c, 7, 75, 62
14, 38040, Note_on_c, 7, 72, 62
14, 38069, Note_on_c, 7, 72, 0
14, 38069, Note_on_c, 7, 75, 0
14, 38100, Note_on_c, 7, 77, 64
14, 38100, Note_on_c, 7, 74, 64
14, 38129, Note_on_c, 7, 74, 0
14, 38129, Note_on_c, 7, 77, 0
14, 38160, Note_on_c, 7, 79, 66
14, 38160, Note_on_c, 7, 75, 66
14, 38189, Note_on_c, 7, 75, 0
14, 38189, Note_on_c, 7, 79, 0
14, 38220, Note_on_c, 7, 77, 69
14, 38220, Note_on_c, 7, 74, 69
14, 38249, Note_on_c, 7, 74, 0
14, 38249, Note_on_c, 7, 77, 0
14, 38280, Note_on_c, 7, 75, 72
14, 38280, Note_on_c, 7, 72, 72
14, 38309, Note_on_c, 7, 72, 0
14, 38309, Note_on_c, 7, 75, 0
14, 38340, Note_on_c, 7, 74, 75
14, 38340, Note_on_c, 7, 71, 75
14, 38369, Note_on_c, 7, 71, 0
14, 38369, Note_on_c, 7, 74, 0
14, 38400, Note_on_c, 7, 75, 78
14, 38400, Note_on_c, 7, 72, 78
14, 38429, Note_on_c, 7, 72, 0
14, 38429, Note_on_c, 7, 75, 0
14, 38460, Note_on_c, 7, 77, 80
14, 38460, Note_on_c, 7, 74, 80
14, 38489, Note_on_c, 7, 74, 0
14, 38489, Note_on_c, 7, 77, 0
14, 38520, Note_on_c, 7, 79, 82
14, 38520, Note_on_c, 7, 75, 82
14, 38549, Note_on_c, 7, 75, 0
14, 38549, Note_on_c, 7, 79, 0
14, 38580, Note_on_c, 7, 81, 85
14, 38580, Note_on_c, 7, 77, 85
14, 38609, Note_on_c, 7, 77, 0
14, 38609, Note_on_c, 7, 81, 0
14, 38640, Note_on_c, 7, 82, 88
14, 38640, Note_on_c, 7, 79, 88
14, 38669, Note_on_c, 7, 79, 0
14, 38669, Note_on_c, 7, 82, 0
14, 38700, Note_on_c, 7, 84, 90
14, 38700, Note_on_c, 7, 81, 90
14, 38729, Note_on_c, 7, 81, 0
14, 38729, Note_on_c, 7, 84, 0
14, 38760, Note_on_c, 7, 86, 92
14, 38760, Note_on_c, 7, 82, 92
14, 38789, Note_on_c, 7, 82, 0
14, 38789, Note_on_c, 7, 86, 0
14, 38820, Note_on_c, 7, 87, 94
14, 38820, Note_on_c, 7, 84, 94
14, 38849, Note_on_c, 7, 84, 0
14, 38849, Note_on_c, 7, 87, 0
14, 38880, Note_on_c, 7, 89, 96
14, 38880, Note_on_c, 7, 86, 96
14, 38939, Note_on_c, 7, 86, 0
14, 39000, Note_on_c, 7, 77, 96
14, 39059, Note_on_c, 7, 77, 0
14, 39119, Note_on_c, 7, 89, 0
14, 39120, Note_on_c, 7, 86, 96
14, 39120, Note_on_c, 7, 74, 96
14, 39179, Note_on_c, 7, 74, 0
14, 39179, Note_on_c, 7, 86, 0
14, 39240, Note_on_c, 7, 82, 96
14, 39240, Note_on_c, 7, 70, 96
14, 39299, Note_on_c, 7, 70, 0
14, 39299, Note_on_c, 7, 82, 0
14, 39360, Note_on_c, 7, 86, 112
14, 39360, Note_on_c, 7, 74, 112
14, 39419, Note_on_c, 7, 74, 0
14, 39419, Note_on_c, 7, 86, 0
14, 39480, Note_on_c, 7, 77, 96
14, 39480, Note_on_c, 7, 65, 96
14, 39539, Note_on_c, 7, 65, 0
14, 39539, Note_on_c, 7, 77, 0
14, 39600, Note_on_c, 7, 84, 96
14, 39600, Note_on_c, 7, 72, 96
14, 39659, Note_on_c, 7, 72, 0
14, 39659, Note_on_c, 7, 84, 0
14, 39720, Note_on_c, 7, 87, 112
14, 39720, Note_on_c, 7, 75, 112
14, 39779, Note_on_c, 7, 75, 0
14, 39779, Note_on_c, 7, 87, 0
14, 39840, Note_on_c, 7, 77, 96
14, 39840, Note_on_c, 7, 65, 96
14, 39899, Note_on_c, 7, 65, 0
14, 39899, Note_on_c, 7, 77, 0
14, 39960, Note_on_c, 7, 81, 96
14, 39960, Note_on_c, 7, 69, 96
14, 40019, Note_on_c, 7, 69, 0
14, 40019, Note_on_c, 7, 81, 0
14, 40080, Note_on_c, 7, 84, 112
14, 40080, Note_on_c, 7, 72, 112
14, 40139, Note_on_c, 7, 72, 0
14, 40139, Note_on_c, 7, 84, 0
14, 40200, Note_on_c, 7, 77, 96
14, 40200, Note_on_c, 7, 65, 96
14, 40259, Note_on_c, 7, 65, 0
14, 40259, Note_on_c, 7, 77, 0
14, 40320, Note_on_c, 7, 89, 127
14, 40320, Note_on_c, 7, 77, 127
14, 40320, Note_on_c, 7, 74, 127
14, 40349, Note_on_c, 7, 77, 0
14, 40349, Note_on_c, 7, 89, 0
14, 40350, Note_on_c, 7, 89, 127
14, 40350, Note_on_c, 7, 77, 127
14, 40379, Note_on_c, 7, 77, 0
14, 40379, Note_on_c, 7, 89, 0
14, 40379, Note_on_c, 7, 74, 0
14, 40380, Note_on_c, 7, 89, 127
14, 40380, Note_on_c, 7, 77, 127
14, 40380, Note_on_c, 7, 62, 127
14, 40409, Note_on_c, 7, 62, 0
14, 40409, Note_on_c, 7, 77, 0
14, 40409, Note_on_c, 7, 89, 0
14, 40410, Note_on_c, 7, 89, 127
14, 40410, Note_on_c, 7, 77, 127
14, 40410, Note_on_c, 7, 62, 127
14, 40439, Note_on_c, 7, 62, 0
14, 40439, Note_on_c, 7, 77, 0
14, 40439, Note_on_c, 7, 89, 0
14, 40440, Note_on_c, 7, 89, 127
14, 40440, Note_on_c, 7, 77, 127
14, 40440, Note_on_c, 7, 65, 127
14, 40469, Note_on_c, 7, 65, 0
14, 40469, Note_on_c, 7, 77, 0
14, 40469, Note_on_c, 7, 89, 0
14, 40470, Note_on_c, 7, 89, 127
14, 40470, Note_on_c, 7, 77, 127
14, 40470, Note_on_c, 7, 65, 127
14, 40499, Note_on_c, 7, 65, 0
14, 40499, Note_on_c, 7, 77, 0
14, 40499, Note_on_c, 7, 89, 0
14, 40500, Note_on_c, 7, 89, 127
14, 40500, Note_on_c, 7, 77, 127
14, 40500, Note_on_c, 7, 70, 127
14, 40529, Note_on_c, 7, 70, 0
14, 40529, Note_on_c, 7, 77, 0
14, 40529, Note_on_c, 7, 89, 0
14, 40530, Note_on_c, 7, 89, 127
14, 40530, Note_on_c, 7, 77, 127
14, 40530, Note_on_c, 7, 70, 127
14, 40559, Note_on_c, 7, 70, 0
14, 40559, Note_on_c, 7, 77, 0
14, 40559, Note_on_c, 7, 89, 0
14, 40560, Note_on_c, 7, 89, 127
14, 40560, Note_on_c, 7, 77, 127
14, 40560, Note_on_c, 7, 74, 127
14, 40589, Note_on_c, 7, 74, 0
14, 40589, Note_on_c, 7, 77, 0
14, 40589, Note_on_c, 7, 89, 0
14, 40590, Note_on_c, 7, 89, 127
14, 40590, Note_on_c, 7, 77, 127
14, 40590, Note_on_c, 7, 74, 127
14, 40619, Note_on_c, 7, 74, 0
14, 40619, Note_on_c, 7, 77, 0
14, 40619, Note_on_c, 7, 89, 0
14, 40620, Note_on_c, 7, 89, 127
14, 40620, Note_on_c, 7, 77, 127
14, 40620, Note_on_c, 7, 62, 127
14, 40649, Note_on_c, 7, 62, 0
14, 40649, Note_on_c, 7, 77, 0
14, 40649, Note_on_c, 7, 89, 0
14, 40650, Note_on_c, 7, 89, 127
14, 40650, Note_on_c, 7, 77, 127
14, 40650, Note_on_c, 7, 62, 127
14, 40679, Note_on_c, 7, 62, 0
14, 40679, Note_on_c, 7, 77, 0
14, 40679, Note_on_c, 7, 89, 0
14, 40680, Note_on_c, 7, 89, 127
14, 40680, Note_on_c, 7, 77, 127
14, 40709, Note_on_c, 7, 77, 0
14, 40709, Note_on_c, 7, 89, 0
14, 40710, Note_on_c, 7, 89, 127
14, 40710, Note_on_c, 7, 77, 127
14, 40739, Note_on_c, 7, 77, 0
14, 40739, Note_on_c, 7, 89, 0
14, 40740, Note_on_c, 7, 89, 127
14, 40740, Note_on_c, 7, 77, 127
14, 40740, Note_on_c, 7, 62, 127
14, 40769, Note_on_c, 7, 62, 0
14, 40769, Note_on_c, 7, 77, 0
14, 40769, Note_on_c, 7, 89, 0
14, 40770, Note_on_c, 7, 89, 127
14, 40770, Note_on_c, 7, 77, 127
14, 40770, Note_on_c, 7, 62, 127
14, 40799, Note_on_c, 7, 62, 0
14, 40799, Note_on_c, 7, 77, 0
14, 40799, Note_on_c, 7, 89, 0
14, 40800, Note_on_c, 7, 89, 127
14, 40800, Note_on_c, 7, 77, 127
14, 40800, Note_on_c, 7, 65, 127
14, 40829, Note_on_c, 7, 65, 0
14, 40829, Note_on_c, 7, 77, 0
14, 40829, Note_on_c, 7, 89, 0
14, 40830, Note_on_c, 7, 89, 127
14, 40830, Note_on_c, 7, 77, 127
14, 40830, Note_on_c, 7, 65, 127
14, 40859, Note_on_c, 7, 65, 0
14, 40859, Note_on_c, 7, 77, 0
14, 40859, Note_on_c, 7, 89, 0
14, 40860, Note_on_c, 7, 89, 127
14, 40860, Note_on_c, 7, 77, 127
14, 40860, Note_on_c, 7, 70, 127
14, 40889, Note_on_c, 7, 70, 0
14, 40889, Note_on_c, 7, 77, 0
14, 40889, Note_on_c, 7, 89, 0
14, 40890, Note_on_c, 7, 89, 127
14, 40890, Note_on_c, 7, 77, 127
14, 40890, Note_on_c, 7, 70, 127
14, 40919, Note_on_c, 7, 70, 0
14, 40919, Note_on_c, 7, 77, 0
14, 40919, Note_on_c, 7, 89, 0
14, 40920, Note_on_c, 7, 89, 127
14, 40920, Note_on_c, 7, 77, 127
14, 40920, Note_on_c, 7, 74, 127
14, 40949, Note_on_c, 7, 74, 0
14, 40949, Note_on_c, 7, 77, 0
14, 40949, Note_on_c, 7, 89, 0
14, 40950, Note_on_c, 7, 89, 127
14, 40950, Note_on_c, 7, 77, 127
14, 40950, Note_on_c, 7, 74, 127
14, 40979, Note_on_c, 7, 74, 0
14, 40979, Note_on_c, 7, 77, 0
14, 40979, Note_on_c, 7, 89, 0
14, 40980, Note_on_c, 7, 89, 127
14, 40980, Note_on_c, 7, 77, 127
14, 40980, Note_on_c, 7, 62, 127
14, 41009, Note_on_c, 7, 62, 0
14, 41009, Note_on_c, 7, 77, 0
14, 41009, Note_on_c, 7, 89, 0
14, 41010, Note_on_c, 7, 89, 127
14, 41010, Note_on_c, 7, 77, 127
14, 41010, Note_on_c, 7, 62, 127
14, 41039, Note_on_c, 7, 62, 0
14, 41039, Note_on_c, 7, 77, 0
14, 41039, Note_on_c, 7, 89, 0
14, 41040, Note_on_c, 7, 89, 127
14, 41040, Note_on_c, 7, 77, 127
14, 41069, Note_on_c, 7, 77, 0
14, 41069, Note_on_c, 7, 89, 0
14, 41070, Note_on_c, 7, 89, 127
14, 41070, Note_on_c, 7, 77, 127
14, 41099, Note_on_c, 7, 77, 0
14, 41099, Note_on_c, 7, 89, 0
14, 41100, Note_on_c, 7, 89, 127
14, 41100, Note_on_c, 7, 77, 127
14, 41100, Note_on_c, 7, 63, 127
14, 41129, Note_on_c, 7, 63, 0
14, 41129, Note_on_c, 7, 77, 0
14, 41129, Note_on_c, 7, 89, 0
14, 41130, Note_on_c, 7, 89, 127
14, 41130, Note_on_c, 7, 77, 127
14, 41130, Note_on_c, 7, 63, 127
14, 41159, Note_on_c, 7, 63, 0
14, 41159, Note_on_c, 7, 77, 0
14, 41159, Note_on_c, 7, 89, 0
14, 41160, Note_on_c, 7, 89, 127
14, 41160, Note_on_c, 7, 77, 127
14, 41160, Note_on_c, 7, 65, 127
14, 41189, Note_on_c, 7, 65, 0
14, 41189, Note_on_c, 7, 77, 0
14, 41189, Note_on_c, 7, 89, 0
14, 41190, Note_on_c, 7, 89, 127
14, 41190, Note_on_c, 7, 77, 127
14, 41190, Note_on_c, 7, 65, 127
14, 41219, Note_on_c, 7, 65, 0
14, 41219, Note_on_c, 7, 77, 0
14, 41219, Note_on_c, 7, 89, 0
14, 41220, Note_on_c, 7, 89, 127
14, 41220, Note_on_c, 7, 77, 127
14, 41220, Note_on_c, 7, 72, 127
14, 41249, Note_on_c, 7, 72, 0
14, 41249, Note_on_c, 7, 77, 0
14, 41249, Note_on_c, 7, 89, 0
14, 41250, Note_on_c, 7, 89, 127
14, 41250, Note_on_c, 7, 77, 127
14, 41250, Note_on_c, 7, 72, 127
14, 41279, Note_on_c, 7, 72, 0
14, 41279, Note_on_c, 7, 77, 0
14, 41279, Note_on_c, 7, 89, 0
14, 41280, Note_on_c, 7, 89, 127
14, 41280, Note_on_c, 7, 77, 127
14, 41280, Note_on_c, 7, 75, 127
14, 41309, Note_on_c, 7, 75, 0
14, 41309, Note_on_c, 7, 77, 0
14, 41309, Note_on_c, 7, 89, 0
14, 41310, Note_on_c, 7, 89, 127
14, 41310, Note_on_c, 7, 77, 127
14, 41310, Note_on_c, 7, 75, 127
14, 41339, Note_on_c, 7, 75, 0
14, 41339, Note_on_c, 7, 77, 0
14, 41339, Note_on_c, 7, 89, 0
14, 41340, Note_on_c, 7, 89, 127
14, 41340, Note_on_c, 7, 77, 127
14, 41340, Note_on_c, 7, 63, 127
14, 41369, Note_on_c, 7, 63, 0
14, 41369, Note_on_c, 7, 77, 0
14, 41369, Note_on_c, 7, 89, 0
14, 41370, Note_on_c, 7, 89, 127
14, 41370, Note_on_c, 7, 77, 127
14, 41370, Note_on_c, 7, 63, 127
14, 41399, Note_on_c, 7, 63, 0
14, 41399, Note_on_c, 7, 77, 0
14, 41399, Note_on_c, 7, 89, 0
14, 41400, Note_on_c, 7, 89, 127
14, 41400, Note_on_c, 7, 77, 127
14, 41429, Note_on_c, 7, 77, 0
14, 41429, Note_on_c, 7, 89, 0
14, 41430, Note_on_c, 7, 89, 127
14, 41430, Note_on_c, 7, 77, 127
14, 41459, Note_on_c, 7, 77, 0
14, 41459, Note_on_c, 7, 89, 0
14, 41460, Note_on_c, 7, 89, 127
14, 41460, Note_on_c, 7, 77, 127
14, 41460, Note_on_c, 7, 63, 127
14, 41489, Note_on_c, 7, 63, 0
14, 41489, Note_on_c, 7, 77, 0
14, 41489, Note_on_c, 7, 89, 0
14, 41490, Note_on_c, 7, 89, 127
14, 41490, Note_on_c, 7, 77, 127
14, 41490, Note_on_c, 7, 63, 127
14, 41519, Note_on_c, 7, 63, 0
14, 41519, Note_on_c, 7, 77, 0
14, 41519, Note_on_c, 7, 89, 0
14, 41520, Note_on_c, 7, 89, 127
14, 41520, Note_on_c, 7, 77, 127
14, 41520, Note_on_c, 7, 65, 127
14, 41549, Note_on_c, 7, 65, 0
14, 41549, Note_on_c, 7, 77, 0
14, 41549, Note_on_c, 7, 89, 0
14, 41550, Note_on_c, 7, 89, 127
14, 41550, Note_on_c, 7, 77, 127
14, 41550, Note_on_c, 7, 65, 127
14, 41579, Note_on_c, 7, 65, 0
14, 41579, Note_on_c, 7, 77, 0
14, 41579, Note_on_c, 7, 89, 0
14, 41580, Note_on_c, 7, 89, 127
14, 41580, Note_on_c, 7, 77, 127
14, 41580, Note_on_c, 7, 69, 127
14, 41609, Note_on_c, 7, 69, 0
14, 41609, Note_on_c, 7, 77, 0
14, 41609, Note_on_c, 7, 89, 0
14, 41610, Note_on_c, 7, 89, 127
14, 41610, Note_on_c, 7, 77, 127
14, 41610, Note_on_c, 7, 69, 127
14, 41639, Note_on_c, 7, 69, 0
14, 41639, Note_on_c, 7, 77, 0
14, 41639, Note_on_c, 7, 89, 0
14, 41640, Note_on_c, 7, 89, 127
14, 41640, Note_on_c, 7, 77, 127
14, 41640, Note_on_c, 7, 72, 127
14, 41669, Note_on_c, 7, 72, 0
14, 41669, Note_on_c, 7, 77, 0
14, 41669, Note_on_c, 7, 89, 0
14, 41670, Note_on_c, 7, 89, 127
14, 41670, Note_on_c, 7, 77, 127
14, 41670, Note_on_c, 7, 72, 127
14, 41699, Note_on_c, 7, 72, 0
14, 41699, Note_on_c, 7, 77, 0
14, 41699, Note_on_c, 7, 89, 0
14, 41700, Note_on_c, 7, 89, 127
14, 41700, Note_on_c, 7, 77, 127
14, 41700, Note_on_c, 7, 69, 127
14, 41729, Note_on_c, 7, 69, 0
14, 41729, Note_on_c, 7, 77, 0
14, 41729, Note_on_c, 7, 89, 0
14, 41730, Note_on_c, 7, 89, 127
14, 41730, Note_on_c, 7, 77, 127
14, 41730, Note_on_c, 7, 69, 127
14, 41759, Note_on_c, 7, 69, 0
14, 41759, Note_on_c, 7, 77, 0
14, 41759, Note_on_c, 7, 89, 0
14, 41760, Note_on_c, 7, 89, 127
14, 41760, Note_on_c, 7, 70, 127
14, 41789, Note_on_c, 7, 70, 0
14, 41789, Note_on_c, 7, 89, 0
14, 41790, Note_on_c, 7, 89, 127
14, 41790, Note_on_c, 7, 70, 127
14, 41819, Note_on_c, 7, 70, 0
14, 41819, Note_on_c, 7, 89, 0
14, 41820, Note_on_c, 7, 85, 127
14, 41820, Note_on_c, 7, 73, 127
14, 41849, Note_on_c, 7, 73, 0
14, 41849, Note_on_c, 7, 85, 0
14, 41850, Note_on_c, 7, 85, 127
14, 41850, Note_on_c, 7, 73, 127
14, 41879, Note_on_c, 7, 73, 0
14, 41879, Note_on_c, 7, 85, 0
14, 41880, Note_on_c, 7, 86, 127
14, 41880, Note_on_c, 7, 74, 127
14, 41909, Note_on_c, 7, 74, 0
14, 41909, Note_on_c, 7, 86, 0
14, 41910, Note_on_c, 7, 86, 127
14, 41910, Note_on_c, 7, 74, 127
14, 41939, Note_on_c, 7, 74, 0
14, 41939, Note_on_c, 7, 86, 0
14, 41940, Note_on_c, 7, 81, 127
14, 41940, Note_on_c, 7, 69, 127
14, 41969, Note_on_c, 7, 69, 0
14, 41969, Note_on_c, 7, 81, 0
14, 41970, Note_on_c, 7, 81, 127
14, 41970, Note_on_c, 7, 69, 127
14, 41999, Note_on_c, 7, 69, 0
14, 41999, Note_on_c, 7, 81, 0
14, 42000, Note_on_c, 7, 82, 127
14, 42000, Note_on_c, 7, 70, 127
14, 42029, Note_on_c, 7, 70, 0
14, 42029, Note_on_c, 7, 82, 0
14, 42030, Note_on_c, 7, 82, 127
14, 42030, Note_on_c, 7, 70, 127
14, 42059, Note_on_c, 7, 70, 0
14, 42059, Note_on_c, 7, 82, 0
14, 42060, Note_on_c, 7, 76, 127
14, 42060, Note_on_c, 7, 64, 127
14, 42089, Note_on_c, 7, 64, 0
14, 42089, Note_on_c, 7, 76, 0
14, 42090, Note_on_c, 7, 76, 127
14, 42090, Note_on_c, 7, 64, 127
14, 42119, Note_on_c, 7, 64, 0
14, 42119, Note_on_c, 7, 76, 0
14, 42120, Note_on_c, 7, 77, 127
14, 42120, Note_on_c, 7, 65, 127
14, 42149, Note_on_c, 7, 65, 0
14, 42149, Note_on_c, 7, 77, 0
14, 42150, Note_on_c, 7, 77, 127
14, 42150, Note_on_c, 7, 65, 127
14, 42179, Note_on_c, 7, 65, 0
14, 42179, Note_on_c, 7, 77, 0
14, 42180, Note_on_c, 7, 73, 127
14, 42180, Note_on_c, 7, 61, 127
14, 42209, Note_on_c, 7, 61, 0
14, 42209, Note_on_c, 7, 73, 0
14, 42210, Note_on_c, 7, 73, 127
14, 42210, Note_on_c, 7, 61, 127
14, 42239, Note_on_c, 7, 61, 0
14, 42239, Note_on_c, 7, 73, 0
14, 42240, Note_on_c, 7, 74, 127
14, 42240, Note_on_c, 7, 62, 127
14, 42269, Note_on_c, 7, 62, 0
14, 42269, Note_on_c, 7, 74, 0
14, 42270, Note_on_c, 7, 74, 127
14, 42270, Note_on_c, 7, 62, 127
14, 42299, Note_on_c, 7, 62, 0
14, 42299, Note_on_c, 7, 74, 0
14, 42300, Note_on_c, 7, 69, 127
14, 42300, Note_on_c, 7, 57, 127
14, 42329, Note_on_c, 7, 57, 0
14, 42329, Note_on_c, 7, 69, 0
14, 42330, Note_on_c, 7, 69, 127
14, 42330, Note_on_c, 7, 57, 127
14, 42359, Note_on_c, 7, 57, 0
14, 42359, Note_on_c, 7, 69, 0
14, 42360, Note_on_c, 7, 70, 127
14, 42360, Note_on_c, 7, 58, 127
14, 42389, Note_on_c, 7, 58, 0
14, 42389, Note_on_c, 7, 70, 0
14, 42390, Note_on_c, 7, 70, 127
14, 42390, Note_on_c, 7, 58, 127
14, 42419, Note_on_c, 7, 58, 0
14, 42419, Note_on_c, 7, 70, 0
14, 42420, Note_on_c, 7, 68, 127
14, 42420, Note_on_c, 7, 56, 127
14, 42449, Note_on_c, 7, 56, 0
14, 42449, Note_on_c, 7, 68, 0
14, 42450, Note_on_c, 7, 68, 127
14, 42450, Note_on_c, 7, 56, 127
14, 42479, Note_on_c, 7, 56, 0
14, 42479, Note_on_c, 7, 68, 0
14, 42480, Note_on_c, 7, 67, 127
14, 42480, Note_on_c, 7, 55, 127
14, 42509, Note_on_c, 7, 55, 0
14, 42509, Note_on_c, 7, 67, 0
14, 42510, Note_on_c, 7, 67, 127
14, 42510, Note_on_c, 7, 55, 127
14, 42539, Note_on_c, 7, 55, 0
14, 42539, Note_on_c, 7, 67, 0
14, 42540, Note_on_c, 7, 71, 127
14, 42540, Note_on_c, 7, 59, 127
14, 42569, Note_on_c, 7, 59, 0
14, 42569, Note_on_c, 7, 71, 0
14, 42570, Note_on_c, 7, 71, 127
14, 42570, Note_on_c, 7, 59, 127
14, 42599, Note_on_c, 7, 59, 0
14, 42599, Note_on_c, 7, 71, 0
14, 42600, Note_on_c, 7, 72, 127
14, 42600, Note_on_c, 7, 60, 127
14, 42629, Note_on_c, 7, 60, 0
14, 42629, Note_on_c, 7, 72, 0
14, 42630, Note_on_c, 7, 72, 127
14, 42630, Note_on_c, 7, 60, 127
14, 42659, Note_on_c, 7, 60, 0
14, 42659, Note_on_c, 7, 72, 0
14, 42660, Note_on_c, 7, 70, 127
14, 42660, Note_on_c, 7, 58, 127
14, 42689, Note_on_c, 7, 58, 0
14, 42689, Note_on_c, 7, 70, 0
14, 42690, Note_on_c, 7, 70, 127
14, 42690, Note_on_c, 7, 58, 127
14, 42719, Note_on_c, 7, 58, 0
14, 42719, Note_on_c, 7, 70, 0
14, 42720, Note_on_c, 7, 69, 127
14, 42720, Note_on_c, 7, 57, 127
14, 42749, Note_on_c, 7, 57, 0
14, 42749, Note_on_c, 7, 69, 0
14, 42750, Note_on_c, 7, 69, 127
14, 42750, Note_on_c, 7, 57, 127
14, 42779, Note_on_c, 7, 57, 0
14, 42779, Note_on_c, 7, 69, 0
14, 42780, Note_on_c, 7, 73, 127
14, 42780, Note_on_c, 7, 61, 127
14, 42809, Note_on_c, 7, 61, 0
14, 42809, Note_on_c, 7, 73, 0
14, 42810, Note_on_c, 7, 73, 127
14, 42810, Note_on_c, 7, 61, 127
14, 42839, Note_on_c, 7, 61, 0
14, 42839, Note_on_c, 7, 73, 0
14, 42840, Note_on_c, 7, 74, 127
14, 42840, Note_on_c, 7, 62, 127
14, 42869, Note_on_c, 7, 62, 0
14, 42869, Note_on_c, 7, 74, 0
14, 42870, Note_on_c, 7, 74, 127
14, 42870, Note_on_c, 7, 62, 127
14, 42899, Note_on_c, 7, 62, 0
14, 42899, Note_on_c, 7, 74, 0
14, 42900, Note_on_c, 7, 72, 127
14, 42900, Note_on_c, 7, 60, 127
14, 42929, Note_on_c, 7, 60, 0
14, 42929, Note_on_c, 7, 72, 0
14, 42930, Note_on_c, 7, 72, 127
14, 42930, Note_on_c, 7, 60, 127
14, 42959, Note_on_c, 7, 60, 0
14, 42959, Note_on_c, 7, 72, 0
14, 42960, Note_on_c, 7, 70, 127
14, 42960, Note_on_c, 7, 58, 127
14, 42989, Note_on_c, 7, 58, 0
14, 42989, Note_on_c, 7, 70, 0
14, 42990, Note_on_c, 7, 70, 127
14, 42990, Note_on_c, 7, 58, 127
14, 43019, Note_on_c, 7, 58, 0
14, 43019, Note_on_c, 7, 70, 0
14, 43020, Note_on_c, 7, 74, 127
14, 43020, Note_on_c, 7, 62, 127
14, 43049, Note_on_c, 7, 62, 0
14, 43049, Note_on_c, 7, 74, 0
14, 43050, Note_on_c, 7, 74, 127
14, 43050, Note_on_c, 7, 62, 127
14, 43079, Note_on_c, 7, 62, 0
14, 43079, Note_on_c, 7, 74, 0
14, 43080, Note_on_c, 7, 75, 127
14, 43080, Note_on_c, 7, 63, 127
14, 43109, Note_on_c, 7, 63, 0
14, 43109, Note_on_c, 7, 75, 0
14, 43110, Note_on_c, 7, 75, 127
14, 43110, Note_on_c, 7, 63, 127
14, 43139, Note_on_c, 7, 63, 0
14, 43139, Note_on_c, 7, 75, 0
14, 43140, Note_on_c, 7, 74, 127
14, 43140, Note_on_c, 7, 62, 127
14, 43169, Note_on_c, 7, 62, 0
14, 43169, Note_on_c, 7, 74, 0
14, 43170, Note_on_c, 7, 74, 127
14, 43170, Note_on_c, 7, 62, 127
14, 43199, Note_on_c, 7, 62, 0
14, 43199, Note_on_c, 7, 74, 0
14, 43200, Note_on_c, 7, 72, 127
14, 43200, Note_on_c, 7, 60, 127
14, 43229, Note_on_c, 7, 60, 0
14, 43229, Note_on_c, 7, 72, 0
14, 43230, Note_on_c, 7, 72, 127
14, 43230, Note_on_c, 7, 60, 127
14, 43259, Note_on_c, 7, 60, 0
14, 43259, Note_on_c, 7, 72, 0
14, 43260, Note_on_c, 7, 76, 127
14, 43260, Note_on_c, 7, 64, 127
14, 43289, Note_on_c, 7, 64, 0
14, 43289, Note_on_c, 7, 76, 0
14, 43290, Note_on_c, 7, 76, 127
14, 43290, Note_on_c, 7, 64, 127
14, 43319, Note_on_c, 7, 64, 0
14, 43319, Note_on_c, 7, 76, 0
14, 43320, Note_on_c, 7, 77, 127
14, 43320, Note_on_c, 7, 65, 127
14, 43349, Note_on_c, 7, 65, 0
14, 43349, Note_on_c, 7, 77, 0
14, 43350, Note_on_c, 7, 77, 127
14, 43350, Note_on_c, 7, 65, 127
14, 43379, Note_on_c, 7, 65, 0
14, 43379, Note_on_c, 7, 77, 0
14, 43380, Note_on_c, 7, 75, 127
14, 43380, Note_on_c, 7, 63, 127
14, 43409, Note_on_c, 7, 63, 0
14, 43409, Note_on_c, 7, 75, 0
14, 43410, Note_on_c, 7, 75, 127
14, 43410, Note_on_c, 7, 63, 127
14, 43439, Note_on_c, 7, 63, 0
14, 43439, Note_on_c, 7, 75, 0
14, 43440, Note_on_c, 7, 74, 127
14, 43440, Note_on_c, 7, 62, 127
14, 43469, Note_on_c, 7, 62, 0
14, 43469, Note_on_c, 7, 74, 0
14, 43470, Note_on_c, 7, 74, 127
14, 43470, Note_on_c, 7, 62, 127
14, 43499, Note_on_c, 7, 62, 0
14, 43499, Note_on_c, 7, 74, 0
14, 43500, Note_on_c, 7, 78, 127
14, 43500, Note_on_c, 7, 66, 127
14, 43529, Note_on_c, 7, 66, 0
14, 43529, Note_on_c, 7, 78, 0
14, 43530, Note_on_c, 7, 78, 127
14, 43530, Note_on_c, 7, 66, 127
14, 43559, Note_on_c, 7, 66, 0
14, 43559, Note_on_c, 7, 78, 0
14, 43560, Note_on_c, 7, 79, 127
14, 43560, Note_on_c, 7, 67, 127
14, 43589, Note_on_c, 7, 67, 0
14, 43589, Note_on_c, 7, 79, 0
14, 43590, Note_on_c, 7, 79, 127
14, 43590, Note_on_c, 7, 67, 127
14, 43619, Note_on_c, 7, 67, 0
14, 43619, Note_on_c, 7, 79, 0
14, 43620, Note_on_c, 7, 81, 127
14, 43620, Note_on_c, 7, 69, 127
14, 43649, Note_on_c, 7, 69, 0
14, 43649, Note_on_c, 7, 81, 0
14, 43650, Note_on_c, 7, 81, 127
14, 43650, Note_on_c, 7, 69, 127
14, 43679, Note_on_c, 7, 69, 0
14, 43679, Note_on_c, 7, 81, 0
14, 43680, Note_on_c, 7, 82, 127
14, 43680, Note_on_c, 7, 70, 127
14, 43709, Note_on_c, 7, 70, 0
14, 43709, Note_on_c, 7, 82, 0
14, 43710, Note_on_c, 7, 82, 127
14, 43710, Note_on_c, 7, 70, 127
14, 43739, Note_on_c, 7, 70, 0
14, 43739, Note_on_c, 7, 82, 0
14, 43740, Note_on_c, 7, 83, 127
14, 43740, Note_on_c, 7, 71, 127
14, 43769, Note_on_c, 7, 71, 0
14, 43769, Note_on_c, 7, 83, 0
14, 43770, Note_on_c, 7, 83, 127
14, 43770, Note_on_c, 7, 71, 127
14, 43799, Note_on_c, 7, 71, 0
14, 43799, Note_on_c, 7, 83, 0
14, 43800, Note_on_c, 7, 84, 127
14, 43800, Note_on_c, 7, 72, 127
14, 43829, Note_on_c, 7, 72, 0
14, 43829, Note_on_c, 7, 84, 0
14, 43830, Note_on_c, 7, 84, 127
14, 43830, Note_on_c, 7, 72, 127
14, 43859, Note_on_c, 7, 72, 0
14, 43859, Note_on_c, 7, 84, 0
14, 43860, Note_on_c, 7, 85, 127
14, 43860, Note_on_c, 7, 73, 127
14, 43889, Note_on_c, 7, 73, 0
14, 43889, Note_on_c, 7, 85, 0
14, 43890, Note_on_c, 7, 85, 127
14, 43890, Note_on_c, 7, 73, 127
14, 43919, Note_on_c, 7, 73, 0
14, 43919, Note_on_c, 7, 85, 0
14, 43920, Note_on_c, 7, 86, 127
14, 43920, Note_on_c, 7, 74, 127
14, 43979, Note_on_c, 7, 74, 0
14, 43979, Note_on_c, 7, 86, 0
14, 44040, Note_on_c, 7, 74, 127
14, 44040, Note_on_c, 7, 84, 127
14, 44040, Note_on_c, 7, 81, 127
14, 44040, Note_on_c, 7, 72, 127
14, 44040, Note_on_c, 7, 62, 127
14, 44099, Note_on_c, 7, 62, 0
14, 44099, Note_on_c, 7, 81, 0
14, 44099, Note_on_c, 7, 74, 0
14, 44099, Note_on_c, 7, 84, 0
14, 44099, Note_on_c, 7, 72, 0
14, 44160, Note_on_c, 7, 74, 127
14, 44160, Note_on_c, 7, 82, 127
14, 44160, Note_on_c, 7, 62, 127
14, 44160, Note_on_c, 7, 70, 127
14, 44160, Note_on_c, 7, 79, 127
14, 44219, Note_on_c, 7, 79, 0
14, 44219, Note_on_c, 7, 62, 0
14, 44219, Note_on_c, 7, 74, 0
14, 44219, Note_on_c, 7, 82, 0
14, 44219, Note_on_c, 7, 70, 0
14, 44400, Note_on_c, 7, 80, 127
14, 44400, Note_on_c, 7, 62, 127
14, 44400, Note_on_c, 7, 71, 127
14, 44400, Note_on_c, 7, 65, 127
14, 44459, Note_on_c, 7, 65, 0
14, 44459, Note_on_c, 7, 80, 0
14, 44459, Note_on_c, 7, 62, 0
14, 44459, Note_on_c, 7, 71, 0
14, 44520, Note_on_c, 7, 79, 127
14, 44520, Note_on_c, 7, 72, 127
14, 44520, Note_on_c, 7, 63, 127
14, 44579, Note_on_c, 7, 63, 0
14, 44579, Note_on_c, 7, 72, 0
14, 44579, Note_on_c, 7, 79, 0
14, 44760, Note_on_c, 7, 82, 127
14, 44760, Note_on_c, 7, 79, 127
14, 44760, Note_on_c, 7, 72, 127
14, 44760, Note_on_c, 7, 64, 127
14, 44819, Note_on_c, 7, 64, 0
14, 44819, Note_on_c, 7, 82, 0
14, 44819, Note_on_c, 7, 79, 0
14, 44819, Note_on_c, 7, 72, 0
14, 44880, Note_on_c, 7, 81, 127
14, 44880, Note_on_c, 7, 65, 127
14, 44880, Note_on_c, 7, 72, 127
14, 44880, Note_on_c, 7, 77, 127
14, 44939, Note_on_c, 7, 77, 0
14, 44939, Note_on_c, 7, 81, 0
14, 44939, Note_on_c, 7, 65, 0
14, 44939, Note_on_c, 7, 72, 0
14, 45120, Note_on_c, 7, 84, 127
14, 45120, Note_on_c, 7, 74, 127
14, 45120, Note_on_c, 7, 81, 127
14, 45120, Note_on_c, 7, 72, 127
14, 45120, Note_on_c, 7, 62, 127
14, 45179, Note_on_c, 7, 62, 0
14, 45179, Note_on_c, 7, 81, 0
14, 45179, Note_on_c, 7, 84, 0
14, 45179, Note_on_c, 7, 74, 0
14, 45179, Note_on_c, 7, 72, 0
14, 45240, Note_on_c, 7, 82, 127
14, 45240, Note_on_c, 7, 74, 127
14, 45240, Note_on_c, 7, 62, 127
14, 45240, Note_on_c, 7, 70, 127
14, 45240, Note_on_c, 7, 79, 127
14, 45299, Note_on_c, 7, 79, 0
14, 45299, Note_on_c, 7, 62, 0
14, 45299, Note_on_c, 7, 82, 0
14, 45299, Note_on_c, 7, 74, 0
14, 45299, Note_on_c, 7, 70, 0
14, 45480, Note_on_c, 7, 80, 127
14, 45480, Note_on_c, 7, 71, 127
14, 45480, Note_on_c, 7, 65, 127
14, 45539, Note_on_c, 7, 65, 0
14, 45539, Note_on_c, 7, 71, 0
14, 45539, Note_on_c, 7, 80, 0
14, 45600, Note_on_c, 7, 79, 127
14, 45600, Note_on_c, 7, 72, 127
14, 45600, Note_on_c, 7, 63, 127
14, 45659, Note_on_c, 7, 63, 0
14, 45659, Note_on_c, 7, 72, 0
14, 45659, Note_on_c, 7, 79, 0
14, 45840, Note_on_c, 7, 82, 127
14, 45840, Note_on_c, 7, 79, 127
14, 45840, Note_on_c, 7, 72, 127
14, 45840, Note_on_c, 7, 64, 127
14, 45899, Note_on_c, 7, 64, 0
14, 45899, Note_on_c, 7, 82, 0
14, 45899, Note_on_c, 7, 79, 0
14, 45899, Note_on_c, 7, 72, 0
14, 46080, Note_on_c, 7, 82, 127
14, 46080, Note_on_c, 7, 64, 127
14, 46080, Note_on_c, 7, 72, 127
14, 46080, Note_on_c, 7, 79, 127
14, 46139, Note_on_c, 7, 79, 0
14, 46139, Note_on_c, 7, 82, 0
14, 46139, Note_on_c, 7, 64, 0
14, 46139, Note_on_c, 7, 72, 0
14, 46320, Note_on_c, 7, 82, 127
14, 46320, Note_on_c, 7, 79, 127
14, 46320, Note_on_c, 7, 72, 127
14, 46320, Note_on_c, 7, 64, 127
14, 46379, Note_on_c, 7, 64, 0
14, 46379, Note_on_c, 7, 82, 0
14, 46379, Note_on_c, 7, 79, 0
14, 46379, Note_on_c, 7, 72, 0
14, 46560, Note_on_c, 7, 82, 127
14, 46560, Note_on_c, 7, 64, 127
14, 46560, Note_on_c, 7, 72, 127
14, 46560, Note_on_c, 7, 79, 127
14, 46619, Note_on_c, 7, 79, 0
14, 46619, Note_on_c, 7, 82, 0
14, 46619, Note_on_c, 7, 64, 0
14, 46619, Note_on_c, 7, 72, 0
14, 46800, Note_on_c, 7, 82, 127
14, 46800, Note_on_c, 7, 79, 127
14, 46800, Note_on_c, 7, 72, 127
14, 46800, Note_on_c, 7, 64, 127
14, 46859, Note_on_c, 7, 64, 0
14, 46859, Note_on_c, 7, 82, 0
14, 46859, Note_on_c, 7, 79, 0
14, 46859, Note_on_c, 7, 72, 0
14, 47040, Note_on_c, 7, 82, 127
14, 47040, Note_on_c, 7, 64, 127
14, 47040, Note_on_c, 7, 72, 127
14, 47040, Note_on_c, 7, 79, 127
14, 47099, Note_on_c, 7, 79, 0
14, 47099, Note_on_c, 7, 82, 0
14, 47099, Note_on_c, 7, 64, 0
14, 47099, Note_on_c, 7, 72, 0
14, 47520, Note_on_c, 7, 70, 96
14, 47520, Note_on_c, 7, 64, 96
14, 47549, Note_on_c, 7, 64, 0
14, 47549, Note_on_c, 7, 70, 0
14, 47550, Note_on_c, 7, 64, 48
14, 47550, Note_on_c, 7, 70, 48
14, 47640, Note_on_c, 7, 73, 48
14, 47640, Note_on_c, 7, 61, 48
14, 47649, Note_on_c, 7, 70, 0
14, 47649, Note_on_c, 7, 64, 0
14, 47760, Note_on_c, 7, 76, 48
14, 47760, Note_on_c, 7, 58, 48
14, 47769, Note_on_c, 7, 73, 0
14, 47769, Note_on_c, 7, 61, 0
14, 47879, Note_on_c, 7, 76, 0
14, 47879, Note_on_c, 7, 58, 0
14, 47880, Note_on_c, 7, 77, 48
14, 47880, Note_on_c, 7, 62, 48
14, 47880, Note_on_c, 7, 58, 48
14, 48239, Note_on_c, 7, 58, 0
14, 48239, Note_on_c, 7, 62, 0
14, 48239, Note_on_c, 7, 77, 0
14, 48240, Note_on_c, 7, 70, 96
14, 48240, Note_on_c, 7, 64, 96
14, 48269, Note_on_c, 7, 64, 0
14, 48269, Note_on_c, 7, 70, 0
14, 48270, Note_on_c, 7, 70, 48
14, 48270, Note_on_c, 7, 64, 48
14, 48360, Note_on_c, 7, 73, 48
14, 48360, Note_on_c, 7, 61, 48
14, 48369, Note_on_c, 7, 64, 0
14, 48369, Note_on_c, 7, 70, 0
14, 48480, Note_on_c, 7, 76, 48
14, 48480, Note_on_c, 7, 58, 48
14, 48489, Note_on_c, 7, 73, 0
14, 48489, Note_on_c, 7, 61, 0
14, 48659, Note_on_c, 7, 58, 0
14, 48660, Note_on_c, 7, 55, 48
14, 48689, Note_on_c, 7, 55, 0
14, 48720, Note_on_c, 7, 75, 48
14, 48720, Note_on_c, 7, 58, 48
14, 48729, Note_on_c, 7, 76, 0
14, 48749, Note_on_c, 7, 58, 0
14, 48780, Note_on_c, 7, 63, 48
14, 48809, Note_on_c, 7, 63, 0
14, 48840, Note_on_c, 7, 73, 48
14, 48840, Note_on_c, 7, 55, 48
14, 48849, Note_on_c, 7, 75, 0
14, 48899, Note_on_c, 7, 55, 0
14, 49020, Note_on_c, 7, 56, 48
14, 49049, Note_on_c, 7, 56, 0
14, 49080, Note_on_c, 7, 71, 48
14, 49080, Note_on_c, 7, 60, 48
14, 49089, Note_on_c, 7, 73, 0
14, 49109, Note_on_c, 7, 60, 0
14, 49140, Note_on_c, 7, 63, 48
14, 49169, Note_on_c, 7, 63, 0
14, 49200, Note_on_c, 7, 72, 48
14, 49200, Note_on_c, 7, 56, 48
14, 49209, Note_on_c, 7, 71, 0
14, 49259, Note_on_c, 7, 56, 0
14, 49380, Note_on_c, 7, 57, 48
14, 49409, Note_on_c, 7, 57, 0
14, 49440, Note_on_c, 7, 65, 48
14, 49440, Note_on_c, 7, 60, 48
14, 49449, Note_on_c, 7, 72, 0
14, 49469, Note_on_c, 7, 60, 0
14, 49499, Note_on_c, 7, 65, 0
14, 49500, Note_on_c, 7, 65, 48
14, 49559, Note_on_c, 7, 65, 0
14, 49560, Note_on_c, 7, 75, 48
14, 49560, Note_on_c, 7, 57, 48
14, 49619, Note_on_c, 7, 57, 0
14, 49740, Note_on_c, 7, 58, 48
14, 49769, Note_on_c, 7, 58, 0
14, 49800, Note_on_c, 7, 73, 48
14, 49800, Note_on_c, 7, 62, 48
14, 49809, Note_on_c, 7, 75, 0
14, 49829, Note_on_c, 7, 62, 0
14, 49860, Note_on_c, 7, 65, 48
14, 49889, Note_on_c, 7, 65, 0
14, 49920, Note_on_c, 7, 74, 48
14, 49920, Note_on_c, 7, 70, 48
14, 49929, Note_on_c, 7, 73, 0
14, 49949, Note_on_c, 7, 70, 0
14, 49980, Note_on_c, 7, 66, 48
14, 50009, Note_on_c, 7, 66, 0
14, 50040, Note_on_c, 7, 67, 48
14, 50069, Note_on_c, 7, 67, 0
14, 50070, Note_on_c, 7, 67, 50
14, 50099, Note_on_c, 7, 67, 0
14, 50100, Note_on_c, 7, 66, 52
14, 50100, Note_on_c, 7, 55, 52
14, 50109, Note_on_c, 7, 74, 0
14, 50129, Note_on_c, 7, 55, 0
14, 50130, Note_on_c, 7, 55, 53
14, 50159, Note_on_c, 7, 55, 0
14, 50160, Note_on_c, 7, 67, 55
14, 50169, Note_on_c, 7, 66, 0
14, 50189, Note_on_c, 7, 67, 0
14, 50190, Note_on_c, 7, 67, 56
14, 50219, Note_on_c, 7, 67, 0
14, 50220, Note_on_c, 7, 71, 58
14, 50220, Note_on_c, 7, 67, 58
14, 50249, Note_on_c, 7, 67, 0
14, 50250, Note_on_c, 7, 67, 60
14, 50279, Note_on_c, 7, 67, 0
14, 50280, Note_on_c, 7, 72, 65
14, 50280, Note_on_c, 7, 67, 62
14, 50289, Note_on_c, 7, 71, 0
14, 50309, Note_on_c, 7, 67, 0
14, 50310, Note_on_c, 7, 67, 63
14, 50339, Note_on_c, 7, 67, 0
14, 50340, Note_on_c, 7, 74, 69
14, 50340, Note_on_c, 7, 67, 65
14, 50349, Note_on_c, 7, 72, 0
14, 50369, Note_on_c, 7, 67, 0
14, 50370, Note_on_c, 7, 67, 67
14, 50399, Note_on_c, 7, 67, 0
14, 50400, Note_on_c, 7, 75, 72
14, 50400, Note_on_c, 7, 63, 69
14, 50409, Note_on_c, 7, 74, 0
14, 50429, Note_on_c, 7, 63, 0
14, 50430, Note_on_c, 7, 63, 70
14, 50459, Note_on_c, 7, 63, 0
14, 50460, Note_on_c, 7, 78, 75
14, 50460, Note_on_c, 7, 63, 72
14, 50469, Note_on_c, 7, 75, 0
14, 50489, Note_on_c, 7, 63, 0
14, 50490, Note_on_c, 7, 63, 74
14, 50519, Note_on_c, 7, 63, 0
14, 50520, Note_on_c, 7, 79, 79
14, 50520, Note_on_c, 7, 63, 76
14, 50529, Note_on_c, 7, 78, 0
14, 50549, Note_on_c, 7, 63, 0
14, 50550, Note_on_c, 7, 63, 77
14, 50579, Note_on_c, 7, 63, 0
14, 50580, Note_on_c, 7, 75, 81
14, 50580, Note_on_c, 7, 67, 79
14, 50589, Note_on_c, 7, 79, 0
14, 50609, Note_on_c, 7, 67, 0
14, 50610, Note_on_c, 7, 67, 81
14, 50639, Note_on_c, 7, 67, 0
14, 50640, Note_on_c, 7, 74, 83
14, 50640, Note_on_c, 7, 65, 83
14, 50649, Note_on_c, 7, 75, 0
14, 50669, Note_on_c, 7, 65, 0
14, 50670, Note_on_c, 7, 65, 84
14, 50699, Note_on_c, 7, 65, 0
14, 50700, Note_on_c, 7, 72, 86
14, 50700, Note_on_c, 7, 63, 86
14, 50709, Note_on_c, 7, 74, 0
14, 50729, Note_on_c, 7, 63, 0
14, 50730, Note_on_c, 7, 63, 88
14, 50759, Note_on_c, 7, 63, 0
14, 50760, Note_on_c, 7, 70, 90
14, 50760, Note_on_c, 7, 62, 90
14, 50769, Note_on_c, 7, 72, 0
14, 50789, Note_on_c, 7, 62, 0
14, 50789, Note_on_c, 7, 70, 0
14, 50790, Note_on_c, 7, 70, 91
14, 50790, Note_on_c, 7, 62, 91
14, 50819, Note_on_c, 7, 62, 0
14, 50819, Note_on_c, 7, 70, 0
14, 50820, Note_on_c, 7, 58, 93
14, 50820, Note_on_c, 7, 74, 93
14, 50849, Note_on_c, 7, 74, 0
14, 50849, Note_on_c, 7, 58, 0
14, 50850, Note_on_c, 7, 74, 95
14, 50850, Note_on_c, 7, 58, 95
14, 50879, Note_on_c, 7, 58, 0
14, 50879, Note_on_c, 7, 74, 0
14, 50880, Note_on_c, 7, 77, 97
14, 50880, Note_on_c, 7, 62, 97
14, 50909, Note_on_c, 7, 62, 0
14, 50909, Note_on_c, 7, 77, 0
14, 50910, Note_on_c, 7, 77, 99
14, 50910, Note_on_c, 7, 62, 99
14, 50939, Note_on_c, 7, 62, 0
14, 50939, Note_on_c, 7, 77, 0
14, 50940, Note_on_c, 7, 82, 101
14, 50940, Note_on_c, 7, 65, 101
14, 50969, Note_on_c, 7, 65, 0
14, 50969, Note_on_c, 7, 82, 0
14, 50970, Note_on_c, 7, 82, 103
14, 50970, Note_on_c, 7, 65, 103
14, 50999, Note_on_c, 7, 65, 0
14, 50999, Note_on_c, 7, 82, 0
14, 51000, Note_on_c, 7, 86, 105
14, 51000, Note_on_c, 7, 70, 105
14, 51029, Note_on_c, 7, 70, 0
14, 51029, Note_on_c, 7, 86, 0
14, 51030, Note_on_c, 7, 86, 107
14, 51030, Note_on_c, 7, 70, 107
14, 51059, Note_on_c, 7, 70, 0
14, 51059, Note_on_c, 7, 86, 0
14, 51060, Note_on_c, 7, 89, 109
14, 51060, Note_on_c, 7, 74, 109
14, 51089, Note_on_c, 7, 74, 0
14, 51089, Note_on_c, 7, 89, 0
14, 51090, Note_on_c, 7, 89, 111
14, 51090, Note_on_c, 7, 74, 111
14, 51119, Note_on_c, 7, 74, 0
14, 51119, Note_on_c, 7, 89, 0
14, 51120, Note_on_c, 7, 89, 127
14, 51120, Note_on_c, 7, 75, 127
14, 51149, Note_on_c, 7, 75, 0
14, 51149, Note_on_c, 7, 89, 0
14, 51150, Note_on_c, 7, 89, 127
14, 51150, Note_on_c, 7, 75, 127
14, 51179, Note_on_c, 7, 75, 0
14, 51179, Note_on_c, 7, 89, 0
14, 51180, Note_on_c, 7, 89, 127
14, 51180, Note_on_c, 7, 75, 127
14, 51209, Note_on_c, 7, 75, 0
14, 51209, Note_on_c, 7, 89, 0
14, 51210, Note_on_c, 7, 89, 127
14, 51210, Note_on_c, 7, 75, 127
14, 51239, Note_on_c, 7, 75, 0
14, 51239, Note_on_c, 7, 89, 0
14, 51240, Note_on_c, 7, 89, 127
14, 51240, Note_on_c, 7, 75, 127
14, 51269, Note_on_c, 7, 75, 0
14, 51269, Note_on_c, 7, 89, 0
14, 51270, Note_on_c, 7, 89, 127
14, 51270, Note_on_c, 7, 75, 127
14, 51299, Note_on_c, 7, 75, 0
14, 51299, Note_on_c, 7, 89, 0
14, 51300, Note_on_c, 7, 89, 127
14, 51300, Note_on_c, 7, 75, 127
14, 51329, Note_on_c, 7, 75, 0
14, 51329, Note_on_c, 7, 89, 0
14, 51330, Note_on_c, 7, 89, 127
14, 51330, Note_on_c, 7, 75, 127
14, 51359, Note_on_c, 7, 75, 0
14, 51359, Note_on_c, 7, 89, 0
14, 51360, Note_on_c, 7, 89, 127
14, 51360, Note_on_c, 7, 75, 127
14, 51389, Note_on_c, 7, 75, 0
14, 51389, Note_on_c, 7, 89, 0
14, 51390, Note_on_c, 7, 89, 127
14, 51390, Note_on_c, 7, 75, 127
14, 51419, Note_on_c, 7, 75, 0
14, 51419, Note_on_c, 7, 89, 0
14, 51420, Note_on_c, 7, 89, 127
14, 51420, Note_on_c, 7, 75, 127
14, 51449, Note_on_c, 7, 75, 0
14, 51449, Note_on_c, 7, 89, 0
14, 51450, Note_on_c, 7, 89, 127
14, 51450, Note_on_c, 7, 75, 127
14, 51479, Note_on_c, 7, 75, 0
14, 51479, Note_on_c, 7, 89, 0
14, 51480, Note_on_c, 7, 82, 96
14, 51480, Note_on_c, 7, 70, 96
14, 51480, Note_on_c, 7, 74, 96
14, 51539, Note_on_c, 7, 74, 0
14, 51539, Note_on_c, 7, 70, 0
14, 51539, Note_on_c, 7, 82, 0
14, 51600, Note_on_c, 7, 65, 96
14, 51659, Note_on_c, 7, 65, 0
14, 51720, Note_on_c, 7, 62, 96
14, 51779, Note_on_c, 7, 62, 0
14, 51840, Note_on_c, 7, 82, 96
14, 51840, Note_on_c, 7, 70, 96
14, 51899, Note_on_c, 7, 70, 0
14, 51899, Note_on_c, 7, 82, 0
14, 51960, Note_on_c, 7, 67, 112
14, 52019, Note_on_c, 7, 67, 0
14, 52080, Note_on_c, 7, 63, 96
14, 52139, Note_on_c, 7, 63, 0
14, 52200, Note_on_c, 7, 70, 96
14, 52200, Note_on_c, 7, 82, 96
14, 52259, Note_on_c, 7, 82, 0
14, 52259, Note_on_c, 7, 70, 0
14, 52320, Note_on_c, 7, 65, 112
14, 52379, Note_on_c, 7, 65, 0
14, 52440, Note_on_c, 7, 62, 96
14, 52499, Note_on_c, 7, 62, 0
14, 52560, Note_on_c, 7, 82, 96
14, 52560, Note_on_c, 7, 70, 96
14, 52560, Note_on_c, 7, 69, 96
14, 52560, Note_on_c, 7, 66, 96
14, 52619, Note_on_c, 7, 66, 0
14, 52619, Note_on_c, 7, 82, 0
14, 52619, Note_on_c, 7, 70, 0
14, 52619, Note_on_c, 7, 69, 0
14, 52680, Note_on_c, 7, 70, 96
14, 52680, Note_on_c, 7, 82, 96
14, 52680, Note_on_c, 7, 66, 96
14, 52680, Note_on_c, 7, 69, 96
14, 52739, Note_on_c, 7, 69, 0
14, 52739, Note_on_c, 7, 70, 0
14, 52739, Note_on_c, 7, 82, 0
14, 52739, Note_on_c, 7, 66, 0
14, 52800, Note_on_c, 7, 82, 96
14, 52800, Note_on_c, 7, 70, 96
14, 52800, Note_on_c, 7, 69, 96
14, 52800, Note_on_c, 7, 66, 96
14, 52859, Note_on_c, 7, 66, 0
14, 52859, Note_on_c, 7, 82, 0
14, 52859, Note_on_c, 7, 70, 0
14, 52859, Note_on_c, 7, 69, 0
14, 52920, Note_on_c, 7, 82, 96
14, 52920, Note_on_c, 7, 70, 96
14, 52949, Note_on_c, 7, 70, 0
14, 52949, Note_on_c, 7, 82, 0
14, 52950, Note_on_c, 7, 82, 48
14, 52950, Note_on_c, 7, 70, 48
14, 53160, Note_on_c, 7, 86, 48
14, 53160, Note_on_c, 7, 74, 48
14, 53169, Note_on_c, 7, 70, 0
14, 53169, Note_on_c, 7, 82, 0
14, 53280, Note_on_c, 7, 82, 48
14, 53280, Note_on_c, 7, 70, 48
14, 53289, Note_on_c, 7, 86, 0
14, 53289, Note_on_c, 7, 74, 0
14, 53520, Note_on_c, 7, 77, 48
14, 53520, Note_on_c, 7, 65, 48
14, 53529, Note_on_c, 7, 82, 0
14, 53529, Note_on_c, 7, 70, 0
14, 53639, Note_on_c, 7, 77, 0
14, 53639, Note_on_c, 7, 65, 0
14, 53640, Note_on_c, 7, 68, 48
14, 53880, Note_on_c, 7, 72, 48
14, 53889, Note_on_c, 7, 68, 0
14, 54000, Note_on_c, 7, 68, 48
14, 54009, Note_on_c, 7, 72, 0
14, 54060, Note_on_c, 7, 62, 48
14, 54120, Note_on_c, 7, 65, 48
14, 54129, Note_on_c, 7, 62, 0
14, 54179, Note_on_c, 7, 68, 0
14, 54180, Note_on_c, 7, 68, 48
14, 54189, Note_on_c, 7, 65, 0
14, 54240, Note_on_c, 7, 74, 48
14, 54240, Note_on_c, 7, 65, 48
14, 54249, Note_on_c, 7, 68, 0
14, 54300, Note_on_c, 7, 77, 48
14, 54309, Note_on_c, 7, 74, 0
14, 54359, Note_on_c, 7, 65, 0
14, 54360, Note_on_c, 7, 80, 48
14, 54360, Note_on_c, 7, 62, 32
14, 54369, Note_on_c, 7, 77, 0
14, 54479, Note_on_c, 7, 80, 0
14, 54600, Note_on_c, 7, 59, 32
14, 54609, Note_on_c, 7, 62, 0
14, 54720, Note_on_c, 7, 57, 32
14, 54729, Note_on_c, 7, 59, 0
14, 54960, Note_on_c, 7, 62, 96
14, 54960, Note_on_c, 7, 56, 96
14, 54969, Note_on_c, 7, 57, 0
14, 54989, Note_on_c, 7, 56, 0
14, 54989, Note_on_c, 7, 62, 0
14, 54990, Note_on_c, 7, 56, 48
14, 54990, Note_on_c, 7, 62, 48
14, 55080, Note_on_c, 7, 63, 48
14, 55080, Note_on_c, 7, 55, 48
14, 55089, Note_on_c, 7, 62, 0
14, 55089, Note_on_c, 7, 56, 0
14, 55139, Note_on_c, 7, 55, 0
14, 55140, Note_on_c, 7, 67, 48
14, 55169, Note_on_c, 7, 67, 0
14, 55199, Note_on_c, 7, 63, 0
14, 55200, Note_on_c, 7, 67, 48
14, 55259, Note_on_c, 7, 67, 0
14, 55260, Note_on_c, 7, 67, 48
14, 55319, Note_on_c, 7, 67, 0
14, 55320, Note_on_c, 7, 67, 48
14, 55379, Note_on_c, 7, 67, 0
14, 55380, Note_on_c, 7, 67, 48
14, 55439, Note_on_c, 7, 67, 0
14, 55440, Note_on_c, 7, 67, 48
14, 55499, Note_on_c, 7, 67, 0
14, 55500, Note_on_c, 7, 67, 48
14, 55559, Note_on_c, 7, 67, 0
14, 55560, Note_on_c, 7, 67, 48
14, 55619, Note_on_c, 7, 67, 0
14, 55620, Note_on_c, 7, 67, 48
14, 55679, Note_on_c, 7, 67, 0
14, 55680, Note_on_c, 7, 67, 48
14, 55739, Note_on_c, 7, 67, 0
14, 55740, Note_on_c, 7, 67, 48
14, 55799, Note_on_c, 7, 67, 0
14, 55800, Note_on_c, 7, 67, 48
14, 55859, Note_on_c, 7, 67, 0
14, 55860, Note_on_c, 7, 67, 48
14, 55919, Note_on_c, 7, 67, 0
14, 55920, Note_on_c, 7, 67, 48
14, 55979, Note_on_c, 7, 67, 0
14, 55980, Note_on_c, 7, 67, 48
14, 56039, Note_on_c, 7, 67, 0
14, 56040, Note_on_c, 7, 67, 48
14, 56099, Note_on_c, 7, 67, 0
14, 56100, Note_on_c, 7, 67, 48
14, 56159, Note_on_c, 7, 67, 0
14, 56160, Note_on_c, 7, 67, 48
14, 56219, Note_on_c, 7, 67, 0
14, 56220, Note_on_c, 7, 67, 48
14, 56279, Note_on_c, 7, 67, 0
14, 56280, Note_on_c, 7, 67, 48
14, 56339, Note_on_c, 7, 67, 0
14, 56340, Note_on_c, 7, 67, 48
14, 56399, Note_on_c, 7, 67, 0
14, 56400, Note_on_c, 7, 67, 48
14, 56459, Note_on_c, 7, 67, 0
14, 56460, Note_on_c, 7, 67, 48
14, 56519, Note_on_c, 7, 67, 0
14, 56520, Note_on_c, 7, 67, 48
14, 56579, Note_on_c, 7, 67, 0
14, 56580, Note_on_c, 7, 79, 48
14, 56580, Note_on_c, 7, 67, 51
14, 56639, Note_on_c, 7, 67, 0
14, 56640, Note_on_c, 7, 67, 54
14, 56699, Note_on_c, 7, 67, 0
14, 56699, Note_on_c, 7, 79, 0
14, 56700, Note_on_c, 7, 79, 54
14, 56700, Note_on_c, 7, 67, 57
14, 56759, Note_on_c, 7, 67, 0
14, 56760, Note_on_c, 7, 67, 60
14, 56819, Note_on_c, 7, 67, 0
14, 56819, Note_on_c, 7, 79, 0
14, 56820, Note_on_c, 7, 79, 60
14, 56820, Note_on_c, 7, 67, 63
14, 56879, Note_on_c, 7, 67, 0
14, 56880, Note_on_c, 7, 67, 66
14, 56939, Note_on_c, 7, 67, 0
14, 56939, Note_on_c, 7, 79, 0
14, 56940, Note_on_c, 7, 79, 66
14, 56940, Note_on_c, 7, 67, 69
14, 56999, Note_on_c, 7, 67, 0
14, 57000, Note_on_c, 7, 67, 72
14, 57059, Note_on_c, 7, 67, 0
14, 57059, Note_on_c, 7, 79, 0
14, 57060, Note_on_c, 7, 67, 75
14, 57060, Note_on_c, 7, 79, 72
14, 57119, Note_on_c, 7, 67, 0
14, 57120, Note_on_c, 7, 67, 78
14, 57179, Note_on_c, 7, 67, 0
14, 57179, Note_on_c, 7, 79, 0
14, 57180, Note_on_c, 7, 79, 78
14, 57180, Note_on_c, 7, 67, 81
14, 57239, Note_on_c, 7, 67, 0
14, 57240, Note_on_c, 7, 67, 81
14, 57300, Note_on_c, 7, 58, 81
14, 57309, Note_on_c, 7, 67, 0
14, 57360, Note_on_c, 7, 67, 81
14, 57369, Note_on_c, 7, 58, 0
14, 57420, Note_on_c, 7, 58, 81
14, 57429, Note_on_c, 7, 67, 0
14, 57480, Note_on_c, 7, 67, 81
14, 57489, Note_on_c, 7, 58, 0
14, 57540, Note_on_c, 7, 58, 81
14, 57549, Note_on_c, 7, 67, 0
14, 57599, Note_on_c, 7, 58, 0
14, 57599, Note_on_c, 7, 79, 0
14, 57600, Note_on_c, 7, 80, 96
14, 57600, Note_on_c, 7, 65, 96
14, 57660, Note_on_c, 7, 58, 88
14, 57669, Note_on_c, 7, 65, 0
14, 57720, Note_on_c, 7, 65, 80
14, 57729, Note_on_c, 7, 58, 0
14, 57780, Note_on_c, 7, 58, 72
14, 57789, Note_on_c, 7, 65, 0
14, 57840, Note_on_c, 7, 65, 64
14, 57849, Note_on_c, 7, 58, 0
14, 57900, Note_on_c, 7, 58, 56
14, 57909, Note_on_c, 7, 65, 0
14, 57959, Note_on_c, 7, 58, 0
14, 57960, Note_on_c, 7, 63, 48
14, 58020, Note_on_c, 7, 58, 48
14, 58029, Note_on_c, 7, 63, 0
14, 58080, Note_on_c, 7, 63, 48
14, 58089, Note_on_c, 7, 58, 0
14, 58140, Note_on_c, 7, 58, 48
14, 58149, Note_on_c, 7, 63, 0
14, 58199, Note_on_c, 7, 80, 0
14, 58200, Note_on_c, 7, 63, 48
14, 58200, Note_on_c, 7, 79, 48
14, 58209, Note_on_c, 7, 58, 0
14, 58260, Note_on_c, 7, 58, 48
14, 58269, Note_on_c, 7, 63, 0
14, 58319, Note_on_c, 7, 58, 0
14, 58320, Note_on_c, 7, 60, 48
14, 58320, Note_on_c, 7, 77, 48
14, 58329, Note_on_c, 7, 79, 0
14, 58380, Note_on_c, 7, 63, 48
14, 58389, Note_on_c, 7, 60, 0
14, 58440, Note_on_c, 7, 58, 48
14, 58440, Note_on_c, 7, 79, 48
14, 58449, Note_on_c, 7, 63, 0
14, 58449, Note_on_c, 7, 77, 0
14, 58500, Note_on_c, 7, 63, 48
14, 58509, Note_on_c, 7, 58, 0
14, 58560, Note_on_c, 7, 56, 48
14, 58560, Note_on_c, 7, 80, 48
14, 58569, Note_on_c, 7, 63, 0
14, 58569, Note_on_c, 7, 79, 0
14, 58620, Note_on_c, 7, 63, 48
14, 58629, Note_on_c, 7, 56, 0
14, 58679, Note_on_c, 7, 63, 0
14, 58679, Note_on_c, 7, 80, 0
14, 58680, Note_on_c, 7, 79, 48
14, 58680, Note_on_c, 7, 58, 48
14, 58740, Note_on_c, 7, 82, 48
14, 58740, Note_on_c, 7, 63, 48
14, 58749, Note_on_c, 7, 58, 0
14, 58749, Note_on_c, 7, 79, 0
14, 58800, Note_on_c, 7, 80, 48
14, 58800, Note_on_c, 7, 55, 48
14, 58809, Note_on_c, 7, 82, 0
14, 58809, Note_on_c, 7, 63, 0
14, 58860, Note_on_c, 7, 79, 48
14, 58860, Note_on_c, 7, 58, 48
14, 58869, Note_on_c, 7, 80, 0
14, 58869, Note_on_c, 7, 55, 0
14, 58920, Note_on_c, 7, 77, 48
14, 58920, Note_on_c, 7, 55, 48
14, 58929, Note_on_c, 7, 79, 0
14, 58929, Note_on_c, 7, 58, 0
14, 58980, Note_on_c, 7, 75, 48
14, 58980, Note_on_c, 7, 58, 48
14, 58989, Note_on_c, 7, 77, 0
14, 58989, Note_on_c, 7, 55, 0
14, 59039, Note_on_c, 7, 75, 0
14, 59039, Note_on_c, 7, 58, 0
14, 59040, Note_on_c, 7, 74, 48
14, 59040, Note_on_c, 7, 56, 48
14, 59100, Note_on_c, 7, 70, 48
14, 59100, Note_on_c, 7, 58, 48
14, 59109, Note_on_c, 7, 56, 0
14, 59109, Note_on_c, 7, 74, 0
14, 59160, Note_on_c, 7, 75, 48
14, 59160, Note_on_c, 7, 55, 48
14, 59169, Note_on_c, 7, 70, 0
14, 59169, Note_on_c, 7, 58, 0
14, 59220, Note_on_c, 7, 70, 48
14, 59220, Note_on_c, 7, 58, 48
14, 59229, Note_on_c, 7, 75, 0
14, 59229, Note_on_c, 7, 55, 0
14, 59280, Note_on_c, 7, 68, 48
14, 59280, Note_on_c, 7, 62, 48
14, 59289, Note_on_c, 7, 70, 0
14, 59289, Note_on_c, 7, 58, 0
14, 59340, Note_on_c, 7, 65, 48
14, 59340, Note_on_c, 7, 58, 48
14, 59349, Note_on_c, 7, 68, 0
14, 59349, Note_on_c, 7, 62, 0
14, 59399, Note_on_c, 7, 65, 0
14, 59399, Note_on_c, 7, 58, 0
14, 59400, Note_on_c, 7, 63, 48
14, 59460, Note_on_c, 7, 58, 48
14, 59489, Note_on_c, 7, 58, 0
14, 59519, Note_on_c, 7, 63, 0
14, 59520, Note_on_c, 7, 58, 48
14, 59579, Note_on_c, 7, 58, 0
14, 59580, Note_on_c, 7, 58, 48
14, 59639, Note_on_c, 7, 58, 0
14, 59640, Note_on_c, 7, 58, 48
14, 59699, Note_on_c, 7, 58, 0
14, 59700, Note_on_c, 7, 58, 48
14, 59759, Note_on_c, 7, 58, 0
14, 59760, Note_on_c, 7, 58, 48
14, 59819, Note_on_c, 7, 58, 0
14, 59820, Note_on_c, 7, 58, 48
14, 59879, Note_on_c, 7, 58, 0
14, 59880, Note_on_c, 7, 58, 48
14, 59939, Note_on_c, 7, 58, 0
14, 59940, Note_on_c, 7, 58, 48
14, 59999, Note_on_c, 7, 58, 0
14, 60000, Note_on_c, 7, 58, 48
14, 60059, Note_on_c, 7, 58, 0
14, 60060, Note_on_c, 7, 58, 48
14, 60119, Note_on_c, 7, 58, 0
14, 60120, Note_on_c, 7, 58, 48
14, 60179, Note_on_c, 7, 58, 0
14, 60180, Note_on_c, 7, 58, 48
14, 60239, Note_on_c, 7, 58, 0
14, 60240, Note_on_c, 7, 58, 48
14, 60299, Note_on_c, 7, 58, 0
14, 60300, Note_on_c, 7, 58, 48
14, 60359, Note_on_c, 7, 58, 0
14, 60360, Note_on_c, 7, 58, 48
14, 60419, Note_on_c, 7, 58, 0
14, 60420, Note_on_c, 7, 58, 48
14, 60479, Note_on_c, 7, 58, 0
14, 60480, Note_on_c, 7, 58, 48
14, 60539, Note_on_c, 7, 58, 0
14, 60540, Note_on_c, 7, 58, 48
14, 60599, Note_on_c, 7, 58, 0
14, 60600, Note_on_c, 7, 61, 48
14, 60659, Note_on_c, 7, 61, 0
14, 60660, Note_on_c, 7, 61, 48
14, 60719, Note_on_c, 7, 61, 0
14, 60720, Note_on_c, 7, 76, 54
14, 60720, Note_on_c, 7, 60, 48
14, 60779, Note_on_c, 7, 60, 0
14, 60780, Note_on_c, 7, 60, 48
14, 60839, Note_on_c, 7, 60, 0
14, 60840, Note_on_c, 7, 77, 54
14, 60840, Note_on_c, 7, 60, 48
14, 60849, Note_on_c, 7, 76, 0
14, 60899, Note_on_c, 7, 60, 0
14, 60900, Note_on_c, 7, 60, 48
14, 60959, Note_on_c, 7, 60, 0
14, 60960, Note_on_c, 7, 80, 54
14, 60960, Note_on_c, 7, 60, 48
14, 60969, Note_on_c, 7, 77, 0
14, 61019, Note_on_c, 7, 60, 0
14, 61020, Note_on_c, 7, 60, 48
14, 61079, Note_on_c, 7, 60, 0
14, 61080, Note_on_c, 7, 84, 54
14, 61080, Note_on_c, 7, 60, 48
14, 61089, Note_on_c, 7, 80, 0
14, 61139, Note_on_c, 7, 60, 0
14, 61140, Note_on_c, 7, 60, 48
14, 61199, Note_on_c, 7, 60, 0
14, 61199, Note_on_c, 7, 84, 0
14, 61200, Note_on_c, 7, 77, 54
14, 61200, Note_on_c, 7, 60, 48
14, 61259, Note_on_c, 7, 60, 0
14, 61260, Note_on_c, 7, 60, 48
14, 61319, Note_on_c, 7, 60, 0
14, 61319, Note_on_c, 7, 77, 0
14, 61320, Note_on_c, 7, 61, 48
14, 61379, Note_on_c, 7, 61, 0
14, 61380, Note_on_c, 7, 61, 48
14, 61439, Note_on_c, 7, 61, 0
14, 61440, Note_on_c, 7, 63, 48
14, 61499, Note_on_c, 7, 63, 0
14, 61500, Note_on_c, 7, 63, 48
14, 61559, Note_on_c, 7, 63, 0
14, 61560, Note_on_c, 7, 63, 48
14, 61619, Note_on_c, 7, 63, 0
14, 61620, Note_on_c, 7, 63, 48
14, 61679, Note_on_c, 7, 63, 0
14, 61680, Note_on_c, 7, 63, 48
14, 61739, Note_on_c, 7, 63, 0
14, 61740, Note_on_c, 7, 63, 48
14, 61799, Note_on_c, 7, 63, 0
14, 61800, Note_on_c, 7, 63, 48
14, 61859, Note_on_c, 7, 63, 0
14, 61860, Note_on_c, 7, 63, 48
14, 61919, Note_on_c, 7, 63, 0
14, 61920, Note_on_c, 7, 63, 48
14, 61979, Note_on_c, 7, 63, 0
14, 61980, Note_on_c, 7, 63, 56
14, 62039, Note_on_c, 7, 63, 0
14, 62040, Note_on_c, 7, 63, 64
14, 62099, Note_on_c, 7, 63, 0
14, 62100, Note_on_c, 7, 63, 72
14, 62159, Note_on_c, 7, 63, 0
14, 62160, Note_on_c, 7, 81, 80
14, 62160, Note_on_c, 7, 63, 80
14, 62219, Note_on_c, 7, 63, 0
14, 62220, Note_on_c, 7, 63, 88
14, 62279, Note_on_c, 7, 63, 0
14, 62280, Note_on_c, 7, 82, 96
14, 62280, Note_on_c, 7, 62, 96
14, 62289, Note_on_c, 7, 81, 0
14, 62309, Note_on_c, 7, 82, 0
14, 62310, Note_on_c, 7, 82, 48
14, 62339, Note_on_c, 7, 62, 0
14, 62340, Note_on_c, 7, 58, 48
14, 62400, Note_on_c, 7, 62, 48
14, 62409, Note_on_c, 7, 58, 0
14, 62460, Note_on_c, 7, 65, 48
14, 62469, Note_on_c, 7, 62, 0
14, 62519, Note_on_c, 7, 82, 0
14, 62520, Note_on_c, 7, 77, 48
14, 62520, Note_on_c, 7, 70, 48
14, 62529, Note_on_c, 7, 65, 0
14, 62580, Note_on_c, 7, 74, 48
14, 62589, Note_on_c, 7, 70, 0
14, 62639, Note_on_c, 7, 74, 0
14, 62639, Note_on_c, 7, 77, 0
14, 62640, Note_on_c, 7, 74, 48
14, 62640, Note_on_c, 7, 77, 48
14, 62759, Note_on_c, 7, 77, 0
14, 62760, Note_on_c, 7, 70, 48
14, 62760, Note_on_c, 7, 65, 48
14, 62769, Note_on_c, 7, 74, 0
14, 62880, Note_on_c, 7, 68, 48
14, 62880, Note_on_c, 7, 62, 48
14, 62889, Note_on_c, 7, 65, 0
14, 62889, Note_on_c, 7, 70, 0
14, 62999, Note_on_c, 7, 68, 0
14, 62999, Note_on_c, 7, 62, 0
14, 63000, Note_on_c, 7, 67, 48
14, 63000, Note_on_c, 7, 63, 48
14, 63059, Note_on_c, 7, 63, 0
14, 63059, Note_on_c, 7, 67, 0
14, 63120, Note_on_c, 7, 75, 96
14, 63120, Note_on_c, 7, 72, 96
14, 63120, Note_on_c, 7, 63, 96
14, 63240, Note_on_c, 7, 69, 90
14, 63249, Note_on_c, 7, 75, 0
14, 63359, Note_on_c, 7, 72, 0
14, 63359, Note_on_c, 7, 63, 0
14, 63359, Note_on_c, 7, 69, 0
14, 63360, Note_on_c, 7, 81, 96
14, 63360, Note_on_c, 7, 72, 96
14, 63360, Note_on_c, 7, 63, 96
14, 63480, Note_on_c, 7, 69, 90
14, 63489, Note_on_c, 7, 81, 0
14, 63599, Note_on_c, 7, 72, 0
14, 63599, Note_on_c, 7, 63, 0
14, 63599, Note_on_c, 7, 69, 0
14, 63600, Note_on_c, 7, 81, 96
14, 63600, Note_on_c, 7, 72, 96
14, 63600, Note_on_c, 7, 63, 96
14, 63719, Note_on_c, 7, 63, 0
14, 63719, Note_on_c, 7, 72, 0
14, 63720, Note_on_c, 7, 82, 96
14, 63720, Note_on_c, 7, 70, 96
14, 63720, Note_on_c, 7, 62, 96
14, 63729, Note_on_c, 7, 81, 0
14, 63749, Note_on_c, 7, 82, 0
14, 63749, Note_on_c, 7, 70, 0
14, 63749, Note_on_c, 7, 62, 0
14, 63750, Note_on_c, 7, 82, 48
14, 63780, Note_on_c, 7, 58, 48
14, 63840, Note_on_c, 7, 62, 48
14, 63849, Note_on_c, 7, 58, 0
14, 63900, Note_on_c, 7, 65, 48
14, 63909, Note_on_c, 7, 62, 0
14, 63959, Note_on_c, 7, 82, 0
14, 63960, Note_on_c, 7, 77, 48
14, 63960, Note_on_c, 7, 70, 48
14, 63969, Note_on_c, 7, 65, 0
14, 64020, Note_on_c, 7, 74, 48
14, 64029, Note_on_c, 7, 70, 0
14, 64079, Note_on_c, 7, 74, 0
14, 64079, Note_on_c, 7, 77, 0
14, 64080, Note_on_c, 7, 74, 48
14, 64080, Note_on_c, 7, 77, 48
14, 64139, Note_on_c, 7, 77, 0
14, 64200, Note_on_c, 7, 70, 48
14, 64209, Note_on_c, 7, 74, 0
14, 64319, Note_on_c, 7, 70, 0
14, 64320, Note_on_c, 7, 62, 96
14, 64320, Note_on_c, 7, 70, 96
14, 64320, Note_on_c, 7, 58, 96
14, 64320, Note_on_c, 7, 65, 96
14, 64439, Note_on_c, 7, 65, 0
14, 64439, Note_on_c, 7, 62, 0
14, 64439, Note_on_c, 7, 70, 0
14, 64439, Note_on_c, 7, 58, 0
14, 64440, Note_on_c, 7, 70, 90
14, 64440, Note_on_c, 7, 62, 90
14, 64440, Note_on_c, 7, 58, 90
14, 64440, Note_on_c, 7, 65, 90
14, 64499, Note_on_c, 7, 65, 0
14, 64499, Note_on_c, 7, 70, 0
14, 64499, Note_on_c, 7, 62, 0
14, 64499, Note_on_c, 7, 58, 0
14, 64560, Note_on_c, 7, 74, 96
14, 64560, Note_on_c, 7, 58, 96
14, 64560, Note_on_c, 7, 65, 96
14, 64680, Note_on_c, 7, 70, 90
14, 64689, Note_on_c, 7, 74, 0
14, 64799, Note_on_c, 7, 58, 0
14, 64799, Note_on_c, 7, 65, 0
14, 64799, Note_on_c, 7, 70, 0
14, 64800, Note_on_c, 7, 77, 96
14, 64800, Note_on_c, 7, 65, 96
14, 64800, Note_on_c, 7, 58, 96
14, 64920, Note_on_c, 7, 70, 90
14, 64929, Note_on_c, 7, 77, 0
14, 65039, Note_on_c, 7, 65, 0
14, 65039, Note_on_c, 7, 58, 0
14, 65039, Note_on_c, 7, 70, 0
14, 65040, Note_on_c, 7, 82, 96
14, 65040, Note_on_c, 7, 70, 96
14, 65040, Note_on_c, 7, 58, 96
14, 65040, Note_on_c, 7, 65, 96
14, 65279, Note_on_c, 7, 65, 0
14, 65279, Note_on_c, 7, 82, 0
14, 65279, Note_on_c, 7, 70, 0
14, 65279, Note_on_c, 7, 58, 0
14, 65280, Note_on_c, 7, 75, 96
14, 65280, Note_on_c, 7, 58, 96
14, 65280, Note_on_c, 7, 63, 96
14, 65400, Note_on_c, 7, 70, 90
14, 65409, Note_on_c, 7, 75, 0
14, 65519, Note_on_c, 7, 58, 0
14, 65519, Note_on_c, 7, 63, 0
14, 65519, Note_on_c, 7, 70, 0
14, 65520, Note_on_c, 7, 79, 96
14, 65520, Note_on_c, 7, 58, 96
14, 65520, Note_on_c, 7, 63, 96
14, 65640, Note_on_c, 7, 70, 90
14, 65649, Note_on_c, 7, 79, 0
14, 65759, Note_on_c, 7, 58, 0
14, 65759, Note_on_c, 7, 63, 0
14, 65759, Note_on_c, 7, 70, 0
14, 65760, Note_on_c, 7, 82, 96
14, 65760, Note_on_c, 7, 70, 96
14, 65760, Note_on_c, 7, 58, 96
14, 65760, Note_on_c, 7, 63, 96
14, 65999, Note_on_c, 7, 63, 0
14, 65999, Note_on_c, 7, 82, 0
14, 65999, Note_on_c, 7, 70, 0
14, 65999, Note_on_c, 7, 58, 0
14, 66000, Note_on_c, 7, 70, 90
14, 66000, Note_on_c, 7, 58, 90
14, 66000, Note_on_c, 7, 62, 90
14, 66059, Note_on_c, 7, 62, 0
14, 66059, Note_on_c, 7, 58, 0
14, 66059, Note_on_c, 7, 70, 0
14, 66120, Note_on_c, 7, 82, 96
14, 66120, Note_on_c, 7, 70, 96
14, 66120, Note_on_c, 7, 58, 96
14, 66120, Note_on_c, 7, 62, 96
14, 66359, Note_on_c, 7, 62, 0
14, 66359, Note_on_c, 7, 82, 0
14, 66359, Note_on_c, 7, 70, 0
14, 66359, Note_on_c, 7, 58, 0
14, 66360, Note_on_c, 7, 70, 90
14, 66360, Note_on_c, 7, 63, 90
14, 66360, Note_on_c, 7, 58, 90
14, 66419, Note_on_c, 7, 58, 0
14, 66419, Note_on_c, 7, 63, 0
14, 66419, Note_on_c, 7, 70, 0
14, 66480, Note_on_c, 7, 82, 96
14, 66480, Note_on_c, 7, 70, 96
14, 66480, Note_on_c, 7, 63, 90
14, 66480, Note_on_c, 7, 58, 90
14, 66600, Note_on_c, 7, 68, 90
14, 66609, Note_on_c, 7, 63, 0
14, 66629, Note_on_c, 7, 58, 0
14, 66629, Note_on_c, 7, 68, 0
14, 66630, Note_on_c, 7, 80, 97
14, 66659, Note_on_c, 7, 80, 0
14, 66660, Note_on_c, 7, 80, 98
14, 66689, Note_on_c, 7, 80, 0
14, 66690, Note_on_c, 7, 80, 99
14, 66719, Note_on_c, 7, 80, 0
14, 66719, Note_on_c, 7, 70, 0
14, 66719, Note_on_c, 7, 82, 0
14, 66720, Note_on_c, 7, 70, 101
14, 66720, Note_on_c, 7, 80, 101
14, 66749, Note_on_c, 7, 80, 0
14, 66749, Note_on_c, 7, 70, 0
14, 66750, Note_on_c, 7, 70, 102
14, 66750, Note_on_c, 7, 80, 102
14, 66779, Note_on_c, 7, 80, 0
14, 66779, Note_on_c, 7, 70, 0
14, 66780, Note_on_c, 7, 72, 103
14, 66780, Note_on_c, 7, 79, 103
14, 66809, Note_on_c, 7, 79, 0
14, 66809, Note_on_c, 7, 72, 0
14, 66810, Note_on_c, 7, 72, 104
14, 66810, Note_on_c, 7, 79, 104
14, 66839, Note_on_c, 7, 79, 0
14, 66839, Note_on_c, 7, 72, 0
14, 66840, Note_on_c, 7, 74, 106
14, 66840, Note_on_c, 7, 77, 106
14, 66869, Note_on_c, 7, 77, 0
14, 66869, Note_on_c, 7, 74, 0
14, 66870, Note_on_c, 7, 74, 107
14, 66870, Note_on_c, 7, 77, 107
14, 66899, Note_on_c, 7, 77, 0
14, 66899, Note_on_c, 7, 74, 0
14, 66900, Note_on_c, 7, 75, 127
14, 66929, Note_on_c, 7, 75, 0
14, 66930, Note_on_c, 7, 75, 127
14, 66959, Note_on_c, 7, 75, 0
14, 66960, Note_on_c, 7, 77, 110
14, 66960, Note_on_c, 7, 74, 110
14, 66989, Note_on_c, 7, 74, 0
14, 66989, Note_on_c, 7, 77, 0
14, 66990, Note_on_c, 7, 77, 111
14, 66990, Note_on_c, 7, 74, 111
14, 67019, Note_on_c, 7, 74, 0
14, 67019, Note_on_c, 7, 77, 0
14, 67020, Note_on_c, 7, 79, 112
14, 67020, Note_on_c, 7, 72, 112
14, 67049, Note_on_c, 7, 72, 0
14, 67049, Note_on_c, 7, 79, 0
14, 67050, Note_on_c, 7, 79, 114
14, 67050, Note_on_c, 7, 72, 113
14, 67079, Note_on_c, 7, 72, 0
14, 67079, Note_on_c, 7, 79, 0
14, 67080, Note_on_c, 7, 80, 115
14, 67080, Note_on_c, 7, 70, 115
14, 67109, Note_on_c, 7, 70, 0
14, 67109, Note_on_c, 7, 80, 0
14, 67110, Note_on_c, 7, 80, 116
14, 67110, Note_on_c, 7, 70, 116
14, 67139, Note_on_c, 7, 70, 0
14, 67139, Note_on_c, 7, 80, 0
14, 67140, Note_on_c, 7, 82, 117
14, 67140, Note_on_c, 7, 68, 117
14, 67169, Note_on_c, 7, 68, 0
14, 67169, Note_on_c, 7, 82, 0
14, 67170, Note_on_c, 7, 82, 118
14, 67170, Note_on_c, 7, 68, 118
14, 67199, Note_on_c, 7, 68, 0
14, 67199, Note_on_c, 7, 82, 0
14, 67200, Note_on_c, 7, 84, 120
14, 67200, Note_on_c, 7, 67, 120
14, 67229, Note_on_c, 7, 67, 0
14, 67229, Note_on_c, 7, 84, 0
14, 67230, Note_on_c, 7, 84, 122
14, 67230, Note_on_c, 7, 67, 121
14, 67259, Note_on_c, 7, 67, 0
14, 67259, Note_on_c, 7, 84, 0
14, 67260, Note_on_c, 7, 86, 124
14, 67260, Note_on_c, 7, 65, 123
14, 67289, Note_on_c, 7, 65, 0
14, 67289, Note_on_c, 7, 86, 0
14, 67290, Note_on_c, 7, 86, 125
14, 67290, Note_on_c, 7, 65, 125
14, 67319, Note_on_c, 7, 65, 0
14, 67319, Note_on_c, 7, 86, 0
14, 67320, Note_on_c, 7, 87, 127
14, 67320, Note_on_c, 7, 63, 127
14, 67349, Note_on_c, 7, 63, 0
14, 67349, Note_on_c, 7, 87, 0
14, 67350, Note_on_c, 7, 87, 127
14, 67350, Note_on_c, 7, 79, 127
14, 67350, Note_on_c, 7, 70, 127
14, 67379, Note_on_c, 7, 70, 0
14, 67379, Note_on_c, 7, 79, 0
14, 67379, Note_on_c, 7, 87, 0
14, 67380, Note_on_c, 7, 87, 127
14, 67380, Note_on_c, 7, 79, 127
14, 67380, Note_on_c, 7, 70, 127
14, 67409, Note_on_c, 7, 70, 0
14, 67409, Note_on_c, 7, 79, 0
14, 67409, Note_on_c, 7, 87, 0
14, 67410, Note_on_c, 7, 87, 127
14, 67410, Note_on_c, 7, 79, 127
14, 67410, Note_on_c, 7, 70, 127
14, 67439, Note_on_c, 7, 70, 0
14, 67439, Note_on_c, 7, 79, 0
14, 67439, Note_on_c, 7, 87, 0
14, 67440, Note_on_c, 7, 87, 127
14, 67440, Note_on_c, 7, 79, 127
14, 67440, Note_on_c, 7, 70, 127
14, 67469, Note_on_c, 7, 70, 0
14, 67469, Note_on_c, 7, 79, 0
14, 67469, Note_on_c, 7, 87, 0
14, 67470, Note_on_c, 7, 87, 127
14, 67470, Note_on_c, 7, 79, 127
14, 67470, Note_on_c, 7, 70, 127
14, 67499, Note_on_c, 7, 70, 0
14, 67499, Note_on_c, 7, 79, 0
14, 67499, Note_on_c, 7, 87, 0
14, 67500, Note_on_c, 7, 87, 127
14, 67500, Note_on_c, 7, 79, 127
14, 67500, Note_on_c, 7, 70, 127
14, 67529, Note_on_c, 7, 70, 0
14, 67529, Note_on_c, 7, 79, 0
14, 67529, Note_on_c, 7, 87, 0
14, 67530, Note_on_c, 7, 87, 127
14, 67530, Note_on_c, 7, 79, 127
14, 67530, Note_on_c, 7, 70, 127
14, 67559, Note_on_c, 7, 70, 0
14, 67559, Note_on_c, 7, 79, 0
14, 67559, Note_on_c, 7, 87, 0
14, 67560, Note_on_c, 7, 87, 127
14, 67560, Note_on_c, 7, 79, 127
14, 67560, Note_on_c, 7, 70, 127
14, 67589, Note_on_c, 7, 70, 0
14, 67589, Note_on_c, 7, 79, 0
14, 67589, Note_on_c, 7, 87, 0
14, 67590, Note_on_c, 7, 87, 127
14, 67590, Note_on_c, 7, 79, 127
14, 67590, Note_on_c, 7, 70, 127
14, 67619, Note_on_c, 7, 70, 0
14, 67619, Note_on_c, 7, 79, 0
14, 67619, Note_on_c, 7, 87, 0
14, 67620, Note_on_c, 7, 87, 127
14, 67620, Note_on_c, 7, 79, 127
14, 67620, Note_on_c, 7, 70, 127
14, 67649, Note_on_c, 7, 70, 0
14, 67649, Note_on_c, 7, 79, 0
14, 67649, Note_on_c, 7, 87, 0
14, 67650, Note_on_c, 7, 87, 127
14, 67650, Note_on_c, 7, 79, 127
14, 67650, Note_on_c, 7, 70, 127
14, 67679, Note_on_c, 7, 70, 0
14, 67679, Note_on_c, 7, 79, 0
14, 67679, Note_on_c, 7, 87, 0
14, 67680, Note_on_c, 7, 87, 127
14, 67680, Note_on_c, 7, 79, 127
14, 67680, Note_on_c, 7, 70, 127
14, 67709, Note_on_c, 7, 70, 0
14, 67709, Note_on_c, 7, 79, 0
14, 67709, Note_on_c, 7, 87, 0
14, 67710, Note_on_c, 7, 87, 127
14, 67710, Note_on_c, 7, 79, 127
14, 67710, Note_on_c, 7, 70, 127
14, 67739, Note_on_c, 7, 70, 0
14, 67739, Note_on_c, 7, 79, 0
14, 67739, Note_on_c, 7, 87, 0
14, 67740, Note_on_c, 7, 87, 127
14, 67740, Note_on_c, 7, 79, 127
14, 67740, Note_on_c, 7, 70, 127
14, 67769, Note_on_c, 7, 70, 0
14, 67769, Note_on_c, 7, 79, 0
14, 67769, Note_on_c, 7, 87, 0
14, 67770, Note_on_c, 7, 87, 127
14, 67770, Note_on_c, 7, 79, 127
14, 67770, Note_on_c, 7, 70, 127
14, 67799, Note_on_c, 7, 70, 0
14, 67799, Note_on_c, 7, 79, 0
14, 67799, Note_on_c, 7, 87, 0
14, 67800, Note_on_c, 7, 87, 127
14, 67800, Note_on_c, 7, 79, 127
14, 67800, Note_on_c, 7, 70, 127
14, 67829, Note_on_c, 7, 70, 0
14, 67829, Note_on_c, 7, 79, 0
14, 67829, Note_on_c, 7, 87, 0
14, 67830, Note_on_c, 7, 87, 127
14, 67830, Note_on_c, 7, 79, 127
14, 67830, Note_on_c, 7, 70, 127
14, 67859, Note_on_c, 7, 70, 0
14, 67859, Note_on_c, 7, 79, 0
14, 67859, Note_on_c, 7, 87, 0
14, 67860, Note_on_c, 7, 87, 127
14, 67860, Note_on_c, 7, 79, 127
14, 67860, Note_on_c, 7, 70, 127
14, 67889, Note_on_c, 7, 70, 0
14, 67889, Note_on_c, 7, 79, 0
14, 67889, Note_on_c, 7, 87, 0
14, 67890, Note_on_c, 7, 87, 127
14, 67890, Note_on_c, 7, 79, 127
14, 67890, Note_on_c, 7, 70, 127
14, 67919, Note_on_c, 7, 70, 0
14, 67919, Note_on_c, 7, 79, 0
14, 67919, Note_on_c, 7, 87, 0
14, 67920, Note_on_c, 7, 87, 127
14, 67920, Note_on_c, 7, 79, 127
14, 67920, Note_on_c, 7, 70, 127
14, 67949, Note_on_c, 7, 70, 0
14, 67949, Note_on_c, 7, 79, 0
14, 67949, Note_on_c, 7, 87, 0
14, 67950, Note_on_c, 7, 87, 127
14, 67950, Note_on_c, 7, 79, 127
14, 67950, Note_on_c, 7, 70, 127
14, 67979, Note_on_c, 7, 70, 0
14, 67979, Note_on_c, 7, 79, 0
14, 67979, Note_on_c, 7, 87, 0
14, 67980, Note_on_c, 7, 87, 127
14, 67980, Note_on_c, 7, 79, 127
14, 67980, Note_on_c, 7, 70, 127
14, 68009, Note_on_c, 7, 70, 0
14, 68009, Note_on_c, 7, 79, 0
14, 68009, Note_on_c, 7, 87, 0
14, 68010, Note_on_c, 7, 87, 127
14, 68010, Note_on_c, 7, 79, 127
14, 68010, Note_on_c, 7, 70, 127
14, 68039, Note_on_c, 7, 70, 0
14, 68039, Note_on_c, 7, 79, 0
14, 68039, Note_on_c, 7, 87, 0
14, 68040, Note_on_c, 7, 87, 127
14, 68040, Note_on_c, 7, 79, 127
14, 68040, Note_on_c, 7, 70, 127
14, 68069, Note_on_c, 7, 70, 0
14, 68069, Note_on_c, 7, 79, 0
14, 68069, Note_on_c, 7, 87, 0
14, 68070, Note_on_c, 7, 87, 127
14, 68070, Note_on_c, 7, 79, 127
14, 68070, Note_on_c, 7, 70, 127
14, 68099, Note_on_c, 7, 70, 0
14, 68099, Note_on_c, 7, 79, 0
14, 68099, Note_on_c, 7, 87, 0
14, 68100, Note_on_c, 7, 87, 127
14, 68100, Note_on_c, 7, 79, 127
14, 68100, Note_on_c, 7, 70, 127
14, 68129, Note_on_c, 7, 70, 0
14, 68129, Note_on_c, 7, 79, 0
14, 68129, Note_on_c, 7, 87, 0
14, 68130, Note_on_c, 7, 87, 127
14, 68130, Note_on_c, 7, 79, 127
14, 68130, Note_on_c, 7, 70, 127
14, 68159, Note_on_c, 7, 70, 0
14, 68159, Note_on_c, 7, 79, 0
14, 68159, Note_on_c, 7, 87, 0
14, 68160, Note_on_c, 7, 87, 127
14, 68160, Note_on_c, 7, 79, 127
14, 68160, Note_on_c, 7, 70, 127
14, 68189, Note_on_c, 7, 70, 0
14, 68189, Note_on_c, 7, 79, 0
14, 68189, Note_on_c, 7, 87, 0
14, 68190, Note_on_c, 7, 87, 127
14, 68190, Note_on_c, 7, 79, 127
14, 68190, Note_on_c, 7, 70, 127
14, 68219, Note_on_c, 7, 70, 0
14, 68219, Note_on_c, 7, 79, 0
14, 68219, Note_on_c, 7, 87, 0
14, 68220, Note_on_c, 7, 87, 127
14, 68220, Note_on_c, 7, 79, 127
14, 68220, Note_on_c, 7, 70, 127
14, 68249, Note_on_c, 7, 70, 0
14, 68249, Note_on_c, 7, 79, 0
14, 68249, Note_on_c, 7, 87, 0
14, 68250, Note_on_c, 7, 87, 127
14, 68250, Note_on_c, 7, 79, 127
14, 68250, Note_on_c, 7, 70, 127
14, 68279, Note_on_c, 7, 70, 0
14, 68279, Note_on_c, 7, 79, 0
14, 68279, Note_on_c, 7, 87, 0
14, 68280, Note_on_c, 7, 87, 127
14, 68280, Note_on_c, 7, 87, 127
14, 68280, Note_on_c, 7, 79, 127
14, 68280, Note_on_c, 7, 70, 127
14, 68309, Note_on_c, 7, 70, 0
14, 68309, Note_on_c, 7, 87, 0
14, 68309, Note_on_c, 7, 87, 0
14, 68309, Note_on_c, 7, 79, 0
14, 68310, Note_on_c, 7, 87, 127
14, 68310, Note_on_c, 7, 79, 127
14, 68310, Note_on_c, 7, 70, 127
14, 68339, Note_on_c, 7, 70, 0
14, 68339, Note_on_c, 7, 79, 0
14, 68339, Note_on_c, 7, 87, 0
14, 68340, Note_on_c, 7, 87, 127
14, 68340, Note_on_c, 7, 79, 127
14, 68340, Note_on_c, 7, 70, 127
14, 68369, Note_on_c, 7, 70, 0
14, 68369, Note_on_c, 7, 79, 0
14, 68369, Note_on_c, 7, 87, 0
14, 68370, Note_on_c, 7, 87, 127
14, 68370, Note_on_c, 7, 79, 127
14, 68370, Note_on_c, 7, 70, 127
14, 68399, Note_on_c, 7, 70, 0
14, 68399, Note_on_c, 7, 79, 0
14, 68399, Note_on_c, 7, 87, 0
14, 68400, Note_on_c, 7, 87, 127
14, 68400, Note_on_c, 7, 79, 127
14, 68400, Note_on_c, 7, 70, 127
14, 68429, Note_on_c, 7, 70, 0
14, 68429, Note_on_c, 7, 79, 0
14, 68429, Note_on_c, 7, 87, 0
14, 68430, Note_on_c, 7, 87, 127
14, 68430, Note_on_c, 7, 79, 127
14, 68430, Note_on_c, 7, 70, 127
14, 68459, Note_on_c, 7, 70, 0
14, 68459, Note_on_c, 7, 79, 0
14, 68459, Note_on_c, 7, 87, 0
14, 68460, Note_on_c, 7, 87, 127
14, 68460, Note_on_c, 7, 79, 127
14, 68460, Note_on_c, 7, 70, 127
14, 68489, Note_on_c, 7, 70, 0
14, 68489, Note_on_c, 7, 79, 0
14, 68489, Note_on_c, 7, 87, 0
14, 68490, Note_on_c, 7, 87, 127
14, 68490, Note_on_c, 7, 79, 127
14, 68490, Note_on_c, 7, 70, 127
14, 68519, Note_on_c, 7, 70, 0
14, 68519, Note_on_c, 7, 79, 0
14, 68519, Note_on_c, 7, 87, 0
14, 68520, Note_on_c, 7, 87, 127
14, 68520, Note_on_c, 7, 79, 127
14, 68520, Note_on_c, 7, 70, 127
14, 68549, Note_on_c, 7, 70, 0
14, 68549, Note_on_c, 7, 79, 0
14, 68549, Note_on_c, 7, 87, 0
14, 68550, Note_on_c, 7, 87, 127
14, 68550, Note_on_c, 7, 79, 127
14, 68550, Note_on_c, 7, 70, 127
14, 68579, Note_on_c, 7, 70, 0
14, 68579, Note_on_c, 7, 79, 0
14, 68579, Note_on_c, 7, 87, 0
14, 68580, Note_on_c, 7, 87, 127
14, 68580, Note_on_c, 7, 79, 127
14, 68580, Note_on_c, 7, 70, 127
14, 68609, Note_on_c, 7, 70, 0
14, 68609, Note_on_c, 7, 79, 0
14, 68609, Note_on_c, 7, 87, 0
14, 68610, Note_on_c, 7, 87, 127
14, 68610, Note_on_c, 7, 79, 127
14, 68610, Note_on_c, 7, 70, 127
14, 68639, Note_on_c, 7, 70, 0
14, 68639, Note_on_c, 7, 79, 0
14, 68639, Note_on_c, 7, 87, 0
14, 68640, Note_on_c, 7, 87, 127
14, 68640, Note_on_c, 7, 79, 127
14, 68640, Note_on_c, 7, 71, 127
14, 68669, Note_on_c, 7, 71, 0
14, 68669, Note_on_c, 7, 79, 0
14, 68669, Note_on_c, 7, 87, 0
14, 68670, Note_on_c, 7, 87, 127
14, 68670, Note_on_c, 7, 79, 127
14, 68670, Note_on_c, 7, 71, 127
14, 68699, Note_on_c, 7, 71, 0
14, 68699, Note_on_c, 7, 79, 0
14, 68699, Note_on_c, 7, 87, 0
14, 68700, Note_on_c, 7, 87, 127
14, 68700, Note_on_c, 7, 79, 127
14, 68700, Note_on_c, 7, 71, 127
14, 68729, Note_on_c, 7, 71, 0
14, 68729, Note_on_c, 7, 79, 0
14, 68729, Note_on_c, 7, 87, 0
14, 68730, Note_on_c, 7, 87, 127
14, 68730, Note_on_c, 7, 79, 127
14, 68730, Note_on_c, 7, 71, 127
14, 68759, Note_on_c, 7, 71, 0
14, 68759, Note_on_c, 7, 79, 0
14, 68759, Note_on_c, 7, 87, 0
14, 68760, Note_on_c, 7, 87, 127
14, 68760, Note_on_c, 7, 79, 127
14, 68760, Note_on_c, 7, 72, 127
14, 68789, Note_on_c, 7, 72, 0
14, 68789, Note_on_c, 7, 79, 0
14, 68789, Note_on_c, 7, 87, 0
14, 68790, Note_on_c, 7, 87, 127
14, 68790, Note_on_c, 7, 79, 127
14, 68790, Note_on_c, 7, 72, 127
14, 68819, Note_on_c, 7, 72, 0
14, 68819, Note_on_c, 7, 79, 0
14, 68819, Note_on_c, 7, 87, 0
14, 68820, Note_on_c, 7, 87, 127
14, 68820, Note_on_c, 7, 79, 127
14, 68820, Note_on_c, 7, 72, 127
14, 68849, Note_on_c, 7, 72, 0
14, 68849, Note_on_c, 7, 79, 0
14, 68849, Note_on_c, 7, 87, 0
14, 68850, Note_on_c, 7, 87, 127
14, 68850, Note_on_c, 7, 79, 127
14, 68850, Note_on_c, 7, 72, 127
14, 68879, Note_on_c, 7, 72, 0
14, 68879, Note_on_c, 7, 79, 0
14, 68879, Note_on_c, 7, 87, 0
14, 68880, Note_on_c, 7, 87, 127
14, 68880, Note_on_c, 7, 79, 127
14, 68880, Note_on_c, 7, 72, 127
14, 68909, Note_on_c, 7, 72, 0
14, 68909, Note_on_c, 7, 79, 0
14, 68909, Note_on_c, 7, 87, 0
14, 68910, Note_on_c, 7, 87, 127
14, 68910, Note_on_c, 7, 79, 127
14, 68910, Note_on_c, 7, 72, 127
14, 68939, Note_on_c, 7, 72, 0
14, 68939, Note_on_c, 7, 79, 0
14, 68939, Note_on_c, 7, 87, 0
14, 68940, Note_on_c, 7, 87, 127
14, 68940, Note_on_c, 7, 79, 127
14, 68940, Note_on_c, 7, 72, 127
14, 68969, Note_on_c, 7, 72, 0
14, 68969, Note_on_c, 7, 79, 0
14, 68969, Note_on_c, 7, 87, 0
14, 68970, Note_on_c, 7, 87, 127
14, 68970, Note_on_c, 7, 79, 127
14, 68970, Note_on_c, 7, 72, 127
14, 68999, Note_on_c, 7, 72, 0
14, 68999, Note_on_c, 7, 79, 0
14, 68999, Note_on_c, 7, 87, 0
14, 69000, Note_on_c, 7, 87, 127
14, 69000, Note_on_c, 7, 79, 127
14, 69000, Note_on_c, 7, 72, 127
14, 69029, Note_on_c, 7, 72, 0
14, 69029, Note_on_c, 7, 79, 0
14, 69029, Note_on_c, 7, 87, 0
14, 69030, Note_on_c, 7, 87, 127
14, 69030, Note_on_c, 7, 79, 127
14, 69030, Note_on_c, 7, 72, 127
14, 69059, Note_on_c, 7, 72, 0
14, 69059, Note_on_c, 7, 79, 0
14, 69059, Note_on_c, 7, 87, 0
14, 69060, Note_on_c, 7, 87, 127
14, 69060, Note_on_c, 7, 79, 127
14, 69060, Note_on_c, 7, 72, 127
14, 69089, Note_on_c, 7, 72, 0
14, 69089, Note_on_c, 7, 79, 0
14, 69089, Note_on_c, 7, 87, 0
14, 69090, Note_on_c, 7, 87, 127
14, 69090, Note_on_c, 7, 79, 127
14, 69090, Note_on_c, 7, 72, 127
14, 69119, Note_on_c, 7, 72, 0
14, 69119, Note_on_c, 7, 79, 0
14, 69119, Note_on_c, 7, 87, 0
14, 69120, Note_on_c, 7, 87, 127
14, 69120, Note_on_c, 7, 79, 127
14, 69120, Note_on_c, 7, 72, 127
14, 69149, Note_on_c, 7, 72, 0
14, 69149, Note_on_c, 7, 79, 0
14, 69149, Note_on_c, 7, 87, 0
14, 69150, Note_on_c, 7, 87, 127
14, 69150, Note_on_c, 7, 79, 127
14, 69150, Note_on_c, 7, 72, 127
14, 69179, Note_on_c, 7, 72, 0
14, 69179, Note_on_c, 7, 79, 0
14, 69179, Note_on_c, 7, 87, 0
14, 69180, Note_on_c, 7, 87, 127
14, 69180, Note_on_c, 7, 79, 127
14, 69180, Note_on_c, 7, 72, 127
14, 69209, Note_on_c, 7, 72, 0
14, 69209, Note_on_c, 7, 79, 0
14, 69209, Note_on_c, 7, 87, 0
14, 69210, Note_on_c, 7, 87, 127
14, 69210, Note_on_c, 7, 79, 127
14, 69210, Note_on_c, 7, 72, 127
14, 69239, Note_on_c, 7, 72, 0
14, 69239, Note_on_c, 7, 79, 0
14, 69239, Note_on_c, 7, 87, 0
14, 69240, Note_on_c, 7, 87, 127
14, 69240, Note_on_c, 7, 79, 127
14, 69240, Note_on_c, 7, 72, 127
14, 69269, Note_on_c, 7, 72, 0
14, 69269, Note_on_c, 7, 79, 0
14, 69269, Note_on_c, 7, 87, 0
14, 69270, Note_on_c, 7, 87, 127
14, 69270, Note_on_c, 7, 79, 127
14, 69270, Note_on_c, 7, 72, 127
14, 69299, Note_on_c, 7, 72, 0
14, 69299, Note_on_c, 7, 79, 0
14, 69299, Note_on_c, 7, 87, 0
14, 69300, Note_on_c, 7, 87, 127
14, 69300, Note_on_c, 7, 79, 127
14, 69300, Note_on_c, 7, 72, 127
14, 69329, Note_on_c, 7, 72, 0
14, 69329, Note_on_c, 7, 79, 0
14, 69329, Note_on_c, 7, 87, 0
14, 69330, Note_on_c, 7, 87, 127
14, 69330, Note_on_c, 7, 79, 127
14, 69330, Note_on_c, 7, 72, 127
14, 69359, Note_on_c, 7, 72, 0
14, 69359, Note_on_c, 7, 79, 0
14, 69359, Note_on_c, 7, 87, 0
14, 69360, Note_on_c, 7, 87, 127
14, 69360, Note_on_c, 7, 79, 127
14, 69360, Note_on_c, 7, 70, 127
14, 69389, Note_on_c, 7, 70, 0
14, 69389, Note_on_c, 7, 79, 0
14, 69389, Note_on_c, 7, 87, 0
14, 69390, Note_on_c, 7, 87, 127
14, 69390, Note_on_c, 7, 79, 127
14, 69390, Note_on_c, 7, 70, 127
14, 69419, Note_on_c, 7, 70, 0
14, 69419, Note_on_c, 7, 79, 0
14, 69419, Note_on_c, 7, 87, 0
14, 69420, Note_on_c, 7, 87, 127
14, 69420, Note_on_c, 7, 79, 127
14, 69420, Note_on_c, 7, 70, 127
14, 69449, Note_on_c, 7, 70, 0
14, 69449, Note_on_c, 7, 79, 0
14, 69449, Note_on_c, 7, 87, 0
14, 69450, Note_on_c, 7, 87, 127
14, 69450, Note_on_c, 7, 79, 127
14, 69450, Note_on_c, 7, 70, 127
14, 69479, Note_on_c, 7, 70, 0
14, 69479, Note_on_c, 7, 79, 0
14, 69479, Note_on_c, 7, 87, 0
14, 69480, Note_on_c, 7, 87, 127
14, 69480, Note_on_c, 7, 80, 127
14, 69480, Note_on_c, 7, 72, 127
14, 69509, Note_on_c, 7, 72, 0
14, 69509, Note_on_c, 7, 80, 0
14, 69509, Note_on_c, 7, 87, 0
14, 69510, Note_on_c, 7, 87, 127
14, 69510, Note_on_c, 7, 72, 127
14, 69539, Note_on_c, 7, 72, 0
14, 69539, Note_on_c, 7, 87, 0
14, 69540, Note_on_c, 7, 87, 127
14, 69540, Note_on_c, 7, 72, 127
14, 69569, Note_on_c, 7, 72, 0
14, 69569, Note_on_c, 7, 87, 0
14, 69570, Note_on_c, 7, 87, 127
14, 69570, Note_on_c, 7, 72, 127
14, 69599, Note_on_c, 7, 72, 0
14, 69599, Note_on_c, 7, 87, 0
14, 69600, Note_on_c, 7, 87, 127
14, 69600, Note_on_c, 7, 72, 127
14, 69629, Note_on_c, 7, 72, 0
14, 69629, Note_on_c, 7, 87, 0
14, 69630, Note_on_c, 7, 87, 127
14, 69630, Note_on_c, 7, 72, 127
14, 69659, Note_on_c, 7, 72, 0
14, 69659, Note_on_c, 7, 87, 0
14, 69660, Note_on_c, 7, 87, 127
14, 69660, Note_on_c, 7, 72, 127
14, 69689, Note_on_c, 7, 72, 0
14, 69689, Note_on_c, 7, 87, 0
14, 69690, Note_on_c, 7, 87, 127
14, 69690, Note_on_c, 7, 72, 127
14, 69719, Note_on_c, 7, 72, 0
14, 69719, Note_on_c, 7, 87, 0
14, 69720, Note_on_c, 7, 87, 127
14, 69720, Note_on_c, 7, 72, 127
14, 69749, Note_on_c, 7, 72, 0
14, 69749, Note_on_c, 7, 87, 0
14, 69750, Note_on_c, 7, 87, 127
14, 69750, Note_on_c, 7, 72, 127
14, 69779, Note_on_c, 7, 72, 0
14, 69779, Note_on_c, 7, 87, 0
14, 69780, Note_on_c, 7, 87, 127
14, 69780, Note_on_c, 7, 72, 127
14, 69809, Note_on_c, 7, 72, 0
14, 69809, Note_on_c, 7, 87, 0
14, 69810, Note_on_c, 7, 87, 127
14, 69810, Note_on_c, 7, 72, 127
14, 69839, Note_on_c, 7, 72, 0
14, 69839, Note_on_c, 7, 87, 0
14, 69840, Note_on_c, 7, 88, 127
14, 69840, Note_on_c, 7, 72, 127
14, 69869, Note_on_c, 7, 72, 0
14, 69869, Note_on_c, 7, 88, 0
14, 69870, Note_on_c, 7, 88, 127
14, 69870, Note_on_c, 7, 72, 127
14, 69899, Note_on_c, 7, 72, 0
14, 69899, Note_on_c, 7, 88, 0
14, 69900, Note_on_c, 7, 88, 127
14, 69900, Note_on_c, 7, 70, 127
14, 69929, Note_on_c, 7, 70, 0
14, 69929, Note_on_c, 7, 88, 0
14, 69930, Note_on_c, 7, 88, 127
14, 69930, Note_on_c, 7, 70, 127
14, 69959, Note_on_c, 7, 70, 0
14, 69959, Note_on_c, 7, 88, 0
14, 69960, Note_on_c, 7, 88, 127
14, 69960, Note_on_c, 7, 69, 127
14, 69989, Note_on_c, 7, 69, 0
14, 69989, Note_on_c, 7, 88, 0
14, 69990, Note_on_c, 7, 88, 127
14, 69990, Note_on_c, 7, 69, 127
14, 70019, Note_on_c, 7, 69, 0
14, 70019, Note_on_c, 7, 88, 0
14, 70020, Note_on_c, 7, 88, 127
14, 70020, Note_on_c, 7, 70, 127
14, 70049, Note_on_c, 7, 70, 0
14, 70049, Note_on_c, 7, 88, 0
14, 70050, Note_on_c, 7, 88, 127
14, 70050, Note_on_c, 7, 70, 127
14, 70079, Note_on_c, 7, 70, 0
14, 70079, Note_on_c, 7, 88, 0
14, 70080, Note_on_c, 7, 88, 127
14, 70080, Note_on_c, 7, 72, 127
14, 70109, Note_on_c, 7, 72, 0
14, 70109, Note_on_c, 7, 88, 0
14, 70110, Note_on_c, 7, 88, 127
14, 70110, Note_on_c, 7, 72, 127
14, 70139, Note_on_c, 7, 72, 0
14, 70139, Note_on_c, 7, 88, 0
14, 70140, Note_on_c, 7, 88, 127
14, 70140, Note_on_c, 7, 70, 127
14, 70169, Note_on_c, 7, 70, 0
14, 70169, Note_on_c, 7, 88, 0
14, 70170, Note_on_c, 7, 88, 127
14, 70170, Note_on_c, 7, 70, 127
14, 70199, Note_on_c, 7, 70, 0
14, 70199, Note_on_c, 7, 88, 0
14, 70200, Note_on_c, 7, 89, 127
14, 70200, Note_on_c, 7, 69, 127
14, 70229, Note_on_c, 7, 69, 0
14, 70260, Note_on_c, 7, 57, 48
14, 70319, Note_on_c, 7, 89, 0
14, 70320, Note_on_c, 7, 60, 48
14, 70329, Note_on_c, 7, 57, 0
14, 70380, Note_on_c, 7, 57, 48
14, 70389, Note_on_c, 7, 60, 0
14, 70440, Note_on_c, 7, 60, 48
14, 70449, Note_on_c, 7, 57, 0
14, 70500, Note_on_c, 7, 57, 48
14, 70509, Note_on_c, 7, 60, 0
14, 70559, Note_on_c, 7, 57, 0
14, 70560, Note_on_c, 7, 60, 48
14, 70620, Note_on_c, 7, 57, 48
14, 70629, Note_on_c, 7, 60, 0
14, 70680, Note_on_c, 7, 60, 48
14, 70689, Note_on_c, 7, 57, 0
14, 70740, Note_on_c, 7, 57, 48
14, 70749, Note_on_c, 7, 60, 0
14, 70800, Note_on_c, 7, 60, 48
14, 70809, Note_on_c, 7, 57, 0
14, 70860, Note_on_c, 7, 57, 48
14, 70869, Note_on_c, 7, 60, 0
14, 70919, Note_on_c, 7, 57, 0
14, 70920, Note_on_c, 7, 60, 48
14, 70980, Note_on_c, 7, 57, 48
14, 70989, Note_on_c, 7, 60, 0
14, 71040, Note_on_c, 7, 60, 48
14, 71049, Note_on_c, 7, 57, 0
14, 71100, Note_on_c, 7, 57, 48
14, 71109, Note_on_c, 7, 60, 0
14, 71160, Note_on_c, 7, 60, 48
14, 71169, Note_on_c, 7, 57, 0
14, 71220, Note_on_c, 7, 57, 48
14, 71229, Note_on_c, 7, 60, 0
14, 71279, Note_on_c, 7, 57, 0
14, 71280, Note_on_c, 7, 60, 48
14, 71340, Note_on_c, 7, 57, 48
14, 71349, Note_on_c, 7, 60, 0
14, 71400, Note_on_c, 7, 84, 48
14, 71400, Note_on_c, 7, 60, 48
14, 71409, Note_on_c, 7, 57, 0
14, 71460, Note_on_c, 7, 57, 48
14, 71469, Note_on_c, 7, 60, 0
14, 71520, Note_on_c, 7, 60, 48
14, 71529, Note_on_c, 7, 57, 0
14, 71580, Note_on_c, 7, 75, 48
14, 71580, Note_on_c, 7, 57, 48
14, 71589, Note_on_c, 7, 60, 0
14, 71589, Note_on_c, 7, 84, 0
14, 71639, Note_on_c, 7, 57, 0
14, 71640, Note_on_c, 7, 74, 48
14, 71640, Note_on_c, 7, 62, 48
14, 71649, Note_on_c, 7, 75, 0
14, 71700, Note_on_c, 7, 58, 48
14, 71709, Note_on_c, 7, 62, 0
14, 71759, Note_on_c, 7, 74, 0
14, 71760, Note_on_c, 7, 62, 48
14, 71769, Note_on_c, 7, 58, 0
14, 71820, Note_on_c, 7, 58, 48
14, 71829, Note_on_c, 7, 62, 0
14, 71880, Note_on_c, 7, 62, 48
14, 71889, Note_on_c, 7, 58, 0
14, 71940, Note_on_c, 7, 58, 48
14, 71949, Note_on_c, 7, 62, 0
14, 71999, Note_on_c, 7, 58, 0
14, 72000, Note_on_c, 7, 62, 48
14, 72060, Note_on_c, 7, 58, 48
14, 72069, Note_on_c, 7, 62, 0
14, 72120, Note_on_c, 7, 62, 48
14, 72129, Note_on_c, 7, 58, 0
14, 72180, Note_on_c, 7, 58, 48
14, 72189, Note_on_c, 7, 62, 0
14, 72240, Note_on_c, 7, 62, 48
14, 72249, Note_on_c, 7, 58, 0
14, 72300, Note_on_c, 7, 58, 48
14, 72309, Note_on_c, 7, 62, 0
14, 72359, Note_on_c, 7, 58, 0
14, 72360, Note_on_c, 7, 62, 48
14, 72420, Note_on_c, 7, 58, 48
14, 72429, Note_on_c, 7, 62, 0
14, 72480, Note_on_c, 7, 62, 48
14, 72489, Note_on_c, 7, 58, 0
14, 72540, Note_on_c, 7, 58, 48
14, 72549, Note_on_c, 7, 62, 0
14, 72600, Note_on_c, 7, 62, 48
14, 72609, Note_on_c, 7, 58, 0
14, 72660, Note_on_c, 7, 58, 48
14, 72669, Note_on_c, 7, 62, 0
14, 72719, Note_on_c, 7, 58, 0
14, 72720, Note_on_c, 7, 62, 48
14, 72780, Note_on_c, 7, 58, 48
14, 72789, Note_on_c, 7, 62, 0
14, 72840, Note_on_c, 7, 82, 48
14, 72840, Note_on_c, 7, 62, 48
14, 72849, Note_on_c, 7, 58, 0
14, 72900, Note_on_c, 7, 58, 48
14, 72909, Note_on_c, 7, 62, 0
14, 72960, Note_on_c, 7, 62, 48
14, 72969, Note_on_c, 7, 58, 0
14, 73020, Note_on_c, 7, 74, 48
14, 73020, Note_on_c, 7, 58, 48
14, 73029, Note_on_c, 7, 62, 0
14, 73029, Note_on_c, 7, 82, 0
14, 73079, Note_on_c, 7, 74, 0
14, 73079, Note_on_c, 7, 58, 0
14, 73080, Note_on_c, 7, 75, 48
14, 73080, Note_on_c, 7, 63, 48
14, 73109, Note_on_c, 7, 63, 0
14, 73109, Note_on_c, 7, 75, 0
14, 73140, Note_on_c, 7, 60, 48
14, 73140, Note_on_c, 7, 57, 48
14, 73199, Note_on_c, 7, 60, 0
14, 73200, Note_on_c, 7, 63, 48
14, 73200, Note_on_c, 7, 60, 48
14, 73209, Note_on_c, 7, 57, 0
14, 73259, Note_on_c, 7, 60, 0
14, 73260, Note_on_c, 7, 60, 48
14, 73260, Note_on_c, 7, 57, 48
14, 73269, Note_on_c, 7, 63, 0
14, 73319, Note_on_c, 7, 60, 0
14, 73320, Note_on_c, 7, 63, 48
14, 73320, Note_on_c, 7, 60, 48
14, 73329, Note_on_c, 7, 57, 0
14, 73379, Note_on_c, 7, 60, 0
14, 73380, Note_on_c, 7, 60, 48
14, 73380, Note_on_c, 7, 57, 48
14, 73389, Note_on_c, 7, 63, 0
14, 73439, Note_on_c, 7, 57, 0
14, 73439, Note_on_c, 7, 60, 0
14, 73440, Note_on_c, 7, 63, 48
14, 73440, Note_on_c, 7, 60, 48
14, 73499, Note_on_c, 7, 60, 0
14, 73500, Note_on_c, 7, 60, 48
14, 73500, Note_on_c, 7, 57, 48
14, 73509, Note_on_c, 7, 63, 0
14, 73559, Note_on_c, 7, 60, 0
14, 73560, Note_on_c, 7, 63, 48
14, 73560, Note_on_c, 7, 60, 48
14, 73569, Note_on_c, 7, 57, 0
14, 73619, Note_on_c, 7, 60, 0
14, 73620, Note_on_c, 7, 60, 48
14, 73620, Note_on_c, 7, 57, 48
14, 73629, Note_on_c, 7, 63, 0
14, 73679, Note_on_c, 7, 60, 0
14, 73680, Note_on_c, 7, 63, 48
14, 73680, Note_on_c, 7, 60, 48
14, 73689, Note_on_c, 7, 57, 0
14, 73739, Note_on_c, 7, 60, 0
14, 73740, Note_on_c, 7, 60, 48
14, 73740, Note_on_c, 7, 57, 48
14, 73749, Note_on_c, 7, 63, 0
14, 73799, Note_on_c, 7, 57, 0
14, 73799, Note_on_c, 7, 60, 0
14, 73800, Note_on_c, 7, 63, 48
14, 73800, Note_on_c, 7, 60, 48
14, 73919, Note_on_c, 7, 60, 0
14, 73919, Note_on_c, 7, 63, 0
14, 73920, Note_on_c, 7, 79, 127
14, 73920, Note_on_c, 7, 67, 127
14, 74099, Note_on_c, 7, 67, 0
14, 74099, Note_on_c, 7, 79, 0
14, 74100, Note_on_c, 7, 77, 127
14, 74100, Note_on_c, 7, 65, 127
14, 74159, Note_on_c, 7, 65, 0
14, 74159, Note_on_c, 7, 77, 0
14, 74160, Note_on_c, 7, 75, 127
14, 74160, Note_on_c, 7, 63, 127
14, 74219, Note_on_c, 7, 63, 0
14, 74219, Note_on_c, 7, 75, 0
14, 74280, Note_on_c, 7, 74, 127
14, 74280, Note_on_c, 7, 62, 127
14, 74339, Note_on_c, 7, 62, 0
14, 74339, Note_on_c, 7, 74, 0
14, 74400, Note_on_c, 7, 72, 127
14, 74400, Note_on_c, 7, 60, 127
14, 74459, Note_on_c, 7, 60, 0
14, 74459, Note_on_c, 7, 72, 0
14, 74520, Note_on_c, 7, 58, 48
14, 74520, Note_on_c, 7, 70, 48
14, 75360, Note_on_c, 7, 77, 48
14, 75360, Note_on_c, 7, 65, 48
14, 75369, Note_on_c, 7, 70, 0
14, 75369, Note_on_c, 7, 58, 0
14, 75479, Note_on_c, 7, 77, 0
14, 75479, Note_on_c, 7, 65, 0
14, 75480, Note_on_c, 7, 77, 48
14, 75480, Note_on_c, 7, 65, 48
14, 75569, Note_on_c, 7, 65, 0
14, 75569, Note_on_c, 7, 77, 0
14, 75600, Note_on_c, 7, 77, 48
14, 75600, Note_on_c, 7, 65, 48
14, 75689, Note_on_c, 7, 65, 0
14, 75689, Note_on_c, 7, 77, 0
14, 75720, Note_on_c, 7, 77, 48
14, 75720, Note_on_c, 7, 65, 48
14, 75809, Note_on_c, 7, 65, 0
14, 75809, Note_on_c, 7, 77, 0
14, 75840, Note_on_c, 7, 77, 48
14, 75840, Note_on_c, 7, 65, 48
14, 75929, Note_on_c, 7, 65, 0
14, 75929, Note_on_c, 7, 77, 0
14, 75960, Note_on_c, 7, 77, 48
14, 75960, Note_on_c, 7, 65, 48
14, 75989, Note_on_c, 7, 65, 0
14, 75989, Note_on_c, 7, 77, 0
14, 76020, Note_on_c, 7, 74, 50
14, 76020, Note_on_c, 7, 70, 50
14, 76080, Note_on_c, 7, 72, 52
14, 76080, Note_on_c, 7, 69, 52
14, 76089, Note_on_c, 7, 70, 0
14, 76089, Note_on_c, 7, 74, 0
14, 76140, Note_on_c, 7, 74, 54
14, 76140, Note_on_c, 7, 70, 54
14, 76149, Note_on_c, 7, 72, 0
14, 76149, Note_on_c, 7, 69, 0
14, 76200, Note_on_c, 7, 75, 56
14, 76200, Note_on_c, 7, 72, 56
14, 76209, Note_on_c, 7, 74, 0
14, 76209, Note_on_c, 7, 70, 0
14, 76260, Note_on_c, 7, 77, 58
14, 76260, Note_on_c, 7, 74, 58
14, 76269, Note_on_c, 7, 75, 0
14, 76269, Note_on_c, 7, 72, 0
14, 76319, Note_on_c, 7, 77, 0
14, 76319, Note_on_c, 7, 74, 0
14, 76320, Note_on_c, 7, 79, 60
14, 76320, Note_on_c, 7, 75, 60
14, 76380, Note_on_c, 7, 81, 62
14, 76380, Note_on_c, 7, 77, 62
14, 76389, Note_on_c, 7, 75, 0
14, 76389, Note_on_c, 7, 79, 0
14, 76439, Note_on_c, 7, 81, 0
14, 76439, Note_on_c, 7, 77, 0
14, 76440, Note_on_c, 7, 82, 64
14, 76440, Note_on_c, 7, 79, 64
14, 76469, Note_on_c, 7, 79, 0
14, 76469, Note_on_c, 7, 82, 0
14, 76500, Note_on_c, 7, 82, 66
14, 76500, Note_on_c, 7, 70, 66
14, 76529, Note_on_c, 7, 70, 0
14, 76529, Note_on_c, 7, 82, 0
14, 76560, Note_on_c, 7, 82, 68
14, 76560, Note_on_c, 7, 69, 68
14, 76589, Note_on_c, 7, 69, 0
14, 76589, Note_on_c, 7, 82, 0
14, 76620, Note_on_c, 7, 82, 70
14, 76620, Note_on_c, 7, 67, 70
14, 76649, Note_on_c, 7, 67, 0
14, 76649, Note_on_c, 7, 82, 0
14, 76680, Note_on_c, 7, 82, 72
14, 76680, Note_on_c, 7, 65, 72
14, 76709, Note_on_c, 7, 65, 0
14, 76709, Note_on_c, 7, 82, 0
14, 76740, Note_on_c, 7, 82, 74
14, 76740, Note_on_c, 7, 70, 74
14, 76769, Note_on_c, 7, 70, 0
14, 76769, Note_on_c, 7, 82, 0
14, 76800, Note_on_c, 7, 81, 76
14, 76800, Note_on_c, 7, 69, 76
14, 76829, Note_on_c, 7, 69, 0
14, 76829, Note_on_c, 7, 81, 0
14, 76860, Note_on_c, 7, 82, 78
14, 76860, Note_on_c, 7, 70, 78
14, 76889, Note_on_c, 7, 70, 0
14, 76889, Note_on_c, 7, 82, 0
14, 76920, Note_on_c, 7, 84, 80
14, 76920, Note_on_c, 7, 72, 80
14, 76949, Note_on_c, 7, 72, 0
14, 76949, Note_on_c, 7, 84, 0
14, 76980, Note_on_c, 7, 86, 82
14, 76980, Note_on_c, 7, 74, 82
14, 77009, Note_on_c, 7, 74, 0
14, 77009, Note_on_c, 7, 86, 0
14, 77040, Note_on_c, 7, 87, 84
14, 77040, Note_on_c, 7, 75, 84
14, 77069, Note_on_c, 7, 75, 0
14, 77069, Note_on_c, 7, 87, 0
14, 77100, Note_on_c, 7, 87, 86
14, 77100, Note_on_c, 7, 75, 86
14, 77129, Note_on_c, 7, 75, 0
14, 77129, Note_on_c, 7, 87, 0
14, 77160, Note_on_c, 7, 87, 88
14, 77160, Note_on_c, 7, 75, 88
14, 77189, Note_on_c, 7, 75, 0
14, 77189, Note_on_c, 7, 87, 0
14, 77220, Note_on_c, 7, 87, 90
14, 77220, Note_on_c, 7, 75, 90
14, 77249, Note_on_c, 7, 75, 0
14, 77249, Note_on_c, 7, 87, 0
14, 77280, Note_on_c, 7, 87, 92
14, 77280, Note_on_c, 7, 75, 92
14, 77309, Note_on_c, 7, 75, 0
14, 77309, Note_on_c, 7, 87, 0
14, 77340, Note_on_c, 7, 87, 94
14, 77340, Note_on_c, 7, 75, 94
14, 77369, Note_on_c, 7, 75, 0
14, 77369, Note_on_c, 7, 87, 0
14, 77400, Note_on_c, 7, 87, 96
14, 77400, Note_on_c, 7, 75, 96
14, 77429, Note_on_c, 7, 87, 0
14, 77459, Note_on_c, 7, 75, 0
14, 77460, Note_on_c, 7, 84, 96
14, 77490, Note_on_c, 7, 86, 96
14, 77499, Note_on_c, 7, 84, 0
14, 77519, Note_on_c, 7, 86, 0
14, 77520, Note_on_c, 7, 84, 96
14, 77520, Note_on_c, 7, 69, 96
14, 77549, Note_on_c, 7, 84, 0
14, 77579, Note_on_c, 7, 69, 0
14, 77580, Note_on_c, 7, 81, 96
14, 77610, Note_on_c, 7, 82, 96
14, 77619, Note_on_c, 7, 81, 0
14, 77639, Note_on_c, 7, 82, 0
14, 77640, Note_on_c, 7, 81, 96
14, 77669, Note_on_c, 7, 81, 0
14, 77700, Note_on_c, 7, 75, 96
14, 77730, Note_on_c, 7, 77, 96
14, 77739, Note_on_c, 7, 75, 0
14, 77759, Note_on_c, 7, 77, 0
14, 77760, Note_on_c, 7, 75, 96
14, 77789, Note_on_c, 7, 75, 0
14, 77820, Note_on_c, 7, 72, 96
14, 77820, Note_on_c, 7, 63, 96
14, 77850, Note_on_c, 7, 74, 96
14, 77850, Note_on_c, 7, 65, 96
14, 77859, Note_on_c, 7, 63, 0
14, 77859, Note_on_c, 7, 72, 0
14, 77879, Note_on_c, 7, 74, 0
14, 77879, Note_on_c, 7, 65, 0
14, 77880, Note_on_c, 7, 72, 96
14, 77880, Note_on_c, 7, 63, 96
14, 77909, Note_on_c, 7, 63, 0
14, 77909, Note_on_c, 7, 72, 0
14, 77940, Note_on_c, 7, 69, 96
14, 77940, Note_on_c, 7, 60, 96
14, 77970, Note_on_c, 7, 70, 96
14, 77970, Note_on_c, 7, 62, 96
14, 77979, Note_on_c, 7, 60, 0
14, 77979, Note_on_c, 7, 69, 0
14, 77999, Note_on_c, 7, 70, 0
14, 77999, Note_on_c, 7, 62, 0
14, 78000, Note_on_c, 7, 69, 96
14, 78000, Note_on_c, 7, 60, 96
14, 78029, Note_on_c, 7, 60, 0
14, 78029, Note_on_c, 7, 69, 0
14, 78060, Note_on_c, 7, 87, 96
14, 78060, Note_on_c, 7, 69, 96
14, 78089, Note_on_c, 7, 69, 0
14, 78089, Note_on_c, 7, 87, 0
14, 78120, Note_on_c, 7, 86, 96
14, 78120, Note_on_c, 7, 70, 96
14, 78149, Note_on_c, 7, 86, 0
14, 78179, Note_on_c, 7, 70, 0
14, 78180, Note_on_c, 7, 82, 96
14, 78210, Note_on_c, 7, 84, 96
14, 78219, Note_on_c, 7, 82, 0
14, 78239, Note_on_c, 7, 84, 0
14, 78240, Note_on_c, 7, 82, 96
14, 78240, Note_on_c, 7, 62, 96
14, 78240, Note_on_c, 7, 70, 96
14, 78269, Note_on_c, 7, 82, 0
14, 78299, Note_on_c, 7, 70, 0
14, 78299, Note_on_c, 7, 62, 0
14, 78300, Note_on_c, 7, 79, 96
14, 78330, Note_on_c, 7, 81, 96
14, 78339, Note_on_c, 7, 79, 0
14, 78359, Note_on_c, 7, 81, 0
14, 78360, Note_on_c, 7, 79, 96
14, 78389, Note_on_c, 7, 79, 0
14, 78420, Note_on_c, 7, 74, 96
14, 78450, Note_on_c, 7, 75, 96
14, 78459, Note_on_c, 7, 74, 0
14, 78479, Note_on_c, 7, 75, 0
14, 78480, Note_on_c, 7, 74, 96
14, 78509, Note_on_c, 7, 74, 0
14, 78540, Note_on_c, 7, 70, 96
14, 78540, Note_on_c, 7, 62, 96
14, 78570, Note_on_c, 7, 72, 96
14, 78570, Note_on_c, 7, 63, 96
14, 78579, Note_on_c, 7, 62, 0
14, 78579, Note_on_c, 7, 70, 0
14, 78599, Note_on_c, 7, 72, 0
14, 78599, Note_on_c, 7, 63, 0
14, 78600, Note_on_c, 7, 70, 96
14, 78600, Note_on_c, 7, 62, 96
14, 78629, Note_on_c, 7, 62, 0
14, 78629, Note_on_c, 7, 70, 0
14, 78660, Note_on_c, 7, 67, 96
14, 78660, Note_on_c, 7, 58, 96
14, 78690, Note_on_c, 7, 69, 96
14, 78690, Note_on_c, 7, 60, 96
14, 78699, Note_on_c, 7, 58, 0
14, 78699, Note_on_c, 7, 67, 0
14, 78719, Note_on_c, 7, 69, 0
14, 78719, Note_on_c, 7, 60, 0
14, 78720, Note_on_c, 7, 67, 96
14, 78720, Note_on_c, 7, 58, 96
14, 78749, Note_on_c, 7, 58, 0
14, 78749, Note_on_c, 7, 67, 0
14, 78780, Note_on_c, 7, 79, 96
14, 78780, Note_on_c, 7, 70, 96
14, 78809, Note_on_c, 7, 70, 0
14, 78809, Note_on_c, 7, 79, 0
14, 78840, Note_on_c, 7, 80, 96
14, 78840, Note_on_c, 7, 71, 96
14, 78899, Note_on_c, 7, 71, 0
14, 78899, Note_on_c, 7, 80, 0
14, 78900, Note_on_c, 7, 68, 96
14, 78930, Note_on_c, 7, 70, 96
14, 78939, Note_on_c, 7, 68, 0
14, 78959, Note_on_c, 7, 70, 0
14, 78960, Note_on_c, 7, 68, 96
14, 78960, Note_on_c, 7, 80, 96
14, 78960, Note_on_c, 7, 71, 96
14, 78989, Note_on_c, 7, 68, 0
14, 79019, Note_on_c, 7, 71, 0
14, 79019, Note_on_c, 7, 80, 0
14, 79020, Note_on_c, 7, 65, 96
14, 79050, Note_on_c, 7, 67, 96
14, 79059, Note_on_c, 7, 65, 0
14, 79079, Note_on_c, 7, 67, 0
14, 79080, Note_on_c, 7, 65, 96
14, 79109, Note_on_c, 7, 65, 0
14, 79140, Note_on_c, 7, 62, 96
14, 79170, Note_on_c, 7, 63, 96
14, 79179, Note_on_c, 7, 62, 0
14, 79199, Note_on_c, 7, 63, 0
14, 79200, Note_on_c, 7, 62, 96
14, 79229, Note_on_c, 7, 62, 0
14, 79260, Note_on_c, 7, 59, 96
14, 79260, Note_on_c, 7, 74, 96
14, 79290, Note_on_c, 7, 60, 96
14, 79290, Note_on_c, 7, 75, 96
14, 79299, Note_on_c, 7, 74, 0
14, 79299, Note_on_c, 7, 59, 0
14, 79319, Note_on_c, 7, 60, 0
14, 79319, Note_on_c, 7, 75, 0
14, 79320, Note_on_c, 7, 59, 96
14, 79320, Note_on_c, 7, 74, 96
14, 79349, Note_on_c, 7, 74, 0
14, 79349, Note_on_c, 7, 59, 0
14, 79380, Note_on_c, 7, 71, 96
14, 79380, Note_on_c, 7, 62, 96
14, 79410, Note_on_c, 7, 72, 96
14, 79410, Note_on_c, 7, 63, 96
14, 79419, Note_on_c, 7, 62, 0
14, 79419, Note_on_c, 7, 71, 0
14, 79439, Note_on_c, 7, 72, 0
14, 79439, Note_on_c, 7, 63, 0
14, 79440, Note_on_c, 7, 71, 96
14, 79440, Note_on_c, 7, 62, 96
14, 79469, Note_on_c, 7, 62, 0
14, 79469, Note_on_c, 7, 71, 0
14, 79500, Note_on_c, 7, 80, 96
14, 79500, Note_on_c, 7, 71, 96
14, 79500, Note_on_c, 7, 62, 96
14, 79529, Note_on_c, 7, 62, 0
14, 79529, Note_on_c, 7, 71, 0
14, 79529, Note_on_c, 7, 80, 0
14, 79560, Note_on_c, 7, 79, 96
14, 79560, Note_on_c, 7, 72, 96
14, 79560, Note_on_c, 7, 63, 96
14, 79589, Note_on_c, 7, 63, 0
14, 79589, Note_on_c, 7, 72, 0
14, 79589, Note_on_c, 7, 79, 0
14, 79620, Note_on_c, 7, 67, 96
14, 79650, Note_on_c, 7, 68, 96
14, 79679, Note_on_c, 7, 68, 0
14, 79679, Note_on_c, 7, 67, 0
14, 79680, Note_on_c, 7, 67, 96
14, 79739, Note_on_c, 7, 67, 0
14, 79740, Note_on_c, 7, 79, 96
14, 79740, Note_on_c, 7, 72, 96
14, 79769, Note_on_c, 7, 72, 0
14, 79769, Note_on_c, 7, 79, 0
14, 79800, Note_on_c, 7, 81, 96
14, 79800, Note_on_c, 7, 72, 96
14, 79829, Note_on_c, 7, 72, 0
14, 79829, Note_on_c, 7, 81, 0
14, 79860, Note_on_c, 7, 69, 96
14, 79860, Note_on_c, 7, 74, 96
14, 79889, Note_on_c, 7, 74, 0
14, 79889, Note_on_c, 7, 69, 0
14, 79920, Note_on_c, 7, 82, 96
14, 79920, Note_on_c, 7, 74, 96
14, 79949, Note_on_c, 7, 74, 0
14, 79949, Note_on_c, 7, 82, 0
14, 79980, Note_on_c, 7, 70, 96
14, 79980, Note_on_c, 7, 75, 96
14, 80010, Note_on_c, 7, 72, 96
14, 80019, Note_on_c, 7, 70, 0
14, 80039, Note_on_c, 7, 72, 0
14, 80040, Note_on_c, 7, 70, 96
14, 80069, Note_on_c, 7, 70, 0
14, 80099, Note_on_c, 7, 75, 0
14, 80100, Note_on_c, 7, 82, 96
14, 80100, Note_on_c, 7, 75, 96
14, 80129, Note_on_c, 7, 75, 0
14, 80129, Note_on_c, 7, 82, 0
14, 80160, Note_on_c, 7, 84, 96
14, 80160, Note_on_c, 7, 75, 96
14, 80189, Note_on_c, 7, 75, 0
14, 80189, Note_on_c, 7, 84, 0
14, 80220, Note_on_c, 7, 72, 96
14, 80220, Note_on_c, 7, 77, 96
14, 80249, Note_on_c, 7, 77, 0
14, 80249, Note_on_c, 7, 72, 0
14, 80280, Note_on_c, 7, 86, 96
14, 80280, Note_on_c, 7, 77, 96
14, 80309, Note_on_c, 7, 77, 0
14, 80309, Note_on_c, 7, 86, 0
14, 80340, Note_on_c, 7, 74, 96
14, 80340, Note_on_c, 7, 70, 96
14, 80369, Note_on_c, 7, 70, 0
14, 80369, Note_on_c, 7, 74, 0
14, 80400, Note_on_c, 7, 86, 96
14, 80400, Note_on_c, 7, 82, 96
14, 80429, Note_on_c, 7, 82, 0
14, 80429, Note_on_c, 7, 86, 0
14, 80460, Note_on_c, 7, 74, 96
14, 80460, Note_on_c, 7, 70, 96
14, 80489, Note_on_c, 7, 70, 0
14, 80489, Note_on_c, 7, 74, 0
14, 80520, Note_on_c, 7, 87, 96
14, 80520, Note_on_c, 7, 82, 96
14, 80549, Note_on_c, 7, 82, 0
14, 80549, Note_on_c, 7, 87, 0
14, 80580, Note_on_c, 7, 75, 96
14, 80580, Note_on_c, 7, 70, 96
14, 80609, Note_on_c, 7, 70, 0
14, 80609, Note_on_c, 7, 75, 0
14, 80640, Note_on_c, 7, 88, 96
14, 80640, Note_on_c, 7, 82, 96
14, 80669, Note_on_c, 7, 82, 0
14, 80669, Note_on_c, 7, 88, 0
14, 80700, Note_on_c, 7, 76, 96
14, 80700, Note_on_c, 7, 70, 96
14, 80729, Note_on_c, 7, 70, 0
14, 80729, Note_on_c, 7, 76, 0
14, 80760, Note_on_c, 7, 89, 96
14, 80760, Note_on_c, 7, 82, 96
14, 80789, Note_on_c, 7, 82, 0
14, 80789, Note_on_c, 7, 89, 0
14, 80820, Note_on_c, 7, 77, 96
14, 80820, Note_on_c, 7, 70, 96
14, 80849, Note_on_c, 7, 70, 0
14, 80849, Note_on_c, 7, 77, 0
14, 80880, Note_on_c, 7, 90, 96
14, 80880, Note_on_c, 7, 82, 96
14, 80909, Note_on_c, 7, 82, 0
14, 80909, Note_on_c, 7, 90, 0
14, 80940, Note_on_c, 7, 78, 96
14, 80940, Note_on_c, 7, 70, 96
14, 80969, Note_on_c, 7, 70, 0
14, 80969, Note_on_c, 7, 78, 0
14, 81000, Note_on_c, 7, 91, 96
14, 81000, Note_on_c, 7, 82, 96
14, 81029, Note_on_c, 7, 82, 0
14, 81029, Note_on_c, 7, 91, 0
14, 81030, Note_on_c, 7, 91, 96
14, 81030, Note_on_c, 7, 70, 96
14, 81059, Note_on_c, 7, 70, 0
14, 81059, Note_on_c, 7, 91, 0
14, 81060, Note_on_c, 7, 90, 96
14, 81060, Note_on_c, 7, 70, 96
14, 81089, Note_on_c, 7, 70, 0
14, 81089, Note_on_c, 7, 90, 0
14, 81090, Note_on_c, 7, 90, 96
14, 81090, Note_on_c, 7, 70, 96
14, 81119, Note_on_c, 7, 70, 0
14, 81119, Note_on_c, 7, 90, 0
14, 81120, Note_on_c, 7, 91, 96
14, 81120, Note_on_c, 7, 70, 96
14, 81149, Note_on_c, 7, 70, 0
14, 81149, Note_on_c, 7, 91, 0
14, 81150, Note_on_c, 7, 91, 96
14, 81150, Note_on_c, 7, 70, 96
14, 81179, Note_on_c, 7, 70, 0
14, 81179, Note_on_c, 7, 91, 0
14, 81180, Note_on_c, 7, 90, 96
14, 81180, Note_on_c, 7, 70, 96
14, 81209, Note_on_c, 7, 70, 0
14, 81209, Note_on_c, 7, 90, 0
14, 81210, Note_on_c, 7, 90, 96
14, 81210, Note_on_c, 7, 70, 96
14, 81239, Note_on_c, 7, 70, 0
14, 81239, Note_on_c, 7, 90, 0
14, 81240, Note_on_c, 7, 91, 96
14, 81240, Note_on_c, 7, 71, 96
14, 81269, Note_on_c, 7, 71, 0
14, 81269, Note_on_c, 7, 91, 0
14, 81270, Note_on_c, 7, 91, 96
14, 81270, Note_on_c, 7, 71, 96
14, 81299, Note_on_c, 7, 71, 0
14, 81299, Note_on_c, 7, 91, 0
14, 81300, Note_on_c, 7, 86, 96
14, 81300, Note_on_c, 7, 71, 96
14, 81329, Note_on_c, 7, 71, 0
14, 81329, Note_on_c, 7, 86, 0
14, 81330, Note_on_c, 7, 86, 96
14, 81330, Note_on_c, 7, 71, 96
14, 81359, Note_on_c, 7, 71, 0
14, 81359, Note_on_c, 7, 86, 0
14, 81360, Note_on_c, 7, 87, 96
14, 81360, Note_on_c, 7, 72, 96
14, 81389, Note_on_c, 7, 72, 0
14, 81389, Note_on_c, 7, 87, 0
14, 81390, Note_on_c, 7, 87, 96
14, 81390, Note_on_c, 7, 72, 96
14, 81419, Note_on_c, 7, 72, 0
14, 81419, Note_on_c, 7, 87, 0
14, 81420, Note_on_c, 7, 86, 96
14, 81420, Note_on_c, 7, 74, 96
14, 81449, Note_on_c, 7, 74, 0
14, 81449, Note_on_c, 7, 86, 0
14, 81450, Note_on_c, 7, 86, 96
14, 81450, Note_on_c, 7, 74, 96
14, 81479, Note_on_c, 7, 74, 0
14, 81479, Note_on_c, 7, 86, 0
14, 81480, Note_on_c, 7, 89, 96
14, 81480, Note_on_c, 7, 77, 96
14, 81509, Note_on_c, 7, 77, 0
14, 81509, Note_on_c, 7, 89, 0
14, 81510, Note_on_c, 7, 89, 96
14, 81510, Note_on_c, 7, 77, 96
14, 81539, Note_on_c, 7, 77, 0
14, 81539, Note_on_c, 7, 89, 0
14, 81540, Note_on_c, 7, 87, 96
14, 81540, Note_on_c, 7, 75, 96
14, 81569, Note_on_c, 7, 75, 0
14, 81569, Note_on_c, 7, 87, 0
14, 81570, Note_on_c, 7, 87, 96
14, 81570, Note_on_c, 7, 75, 96
14, 81599, Note_on_c, 7, 75, 0
14, 81599, Note_on_c, 7, 87, 0
14, 81600, Note_on_c, 7, 86, 96
14, 81600, Note_on_c, 7, 74, 96
14, 81629, Note_on_c, 7, 74, 0
14, 81629, Note_on_c, 7, 86, 0
14, 81630, Note_on_c, 7, 86, 96
14, 81630, Note_on_c, 7, 74, 96
14, 81659, Note_on_c, 7, 74, 0
14, 81659, Note_on_c, 7, 86, 0
14, 81660, Note_on_c, 7, 84, 96
14, 81660, Note_on_c, 7, 72, 96
14, 81689, Note_on_c, 7, 72, 0
14, 81689, Note_on_c, 7, 84, 0
14, 81690, Note_on_c, 7, 84, 96
14, 81690, Note_on_c, 7, 72, 96
14, 81719, Note_on_c, 7, 72, 0
14, 81719, Note_on_c, 7, 84, 0
14, 81720, Note_on_c, 7, 82, 96
14, 81720, Note_on_c, 7, 70, 96
14, 81749, Note_on_c, 7, 70, 0
14, 81749, Note_on_c, 7, 82, 0
14, 81750, Note_on_c, 7, 82, 96
14, 81750, Note_on_c, 7, 70, 96
14, 81779, Note_on_c, 7, 70, 0
14, 81779, Note_on_c, 7, 82, 0
14, 81780, Note_on_c, 7, 77, 96
14, 81780, Note_on_c, 7, 65, 96
14, 81809, Note_on_c, 7, 65, 0
14, 81809, Note_on_c, 7, 77, 0
14, 81810, Note_on_c, 7, 77, 96
14, 81810, Note_on_c, 7, 65, 96
14, 81839, Note_on_c, 7, 65, 0
14, 81839, Note_on_c, 7, 77, 0
14, 81840, Note_on_c, 7, 79, 96
14, 81840, Note_on_c, 7, 67, 96
14, 81869, Note_on_c, 7, 67, 0
14, 81869, Note_on_c, 7, 79, 0
14, 81870, Note_on_c, 7, 79, 96
14, 81870, Note_on_c, 7, 67, 96
14, 81899, Note_on_c, 7, 67, 0
14, 81899, Note_on_c, 7, 79, 0
14, 81900, Note_on_c, 7, 81, 96
14, 81900, Note_on_c, 7, 69, 96
14, 81929, Note_on_c, 7, 69, 0
14, 81929, Note_on_c, 7, 81, 0
14, 81930, Note_on_c, 7, 81, 96
14, 81930, Note_on_c, 7, 69, 96
14, 81959, Note_on_c, 7, 69, 0
14, 81959, Note_on_c, 7, 81, 0
14, 81960, Note_on_c, 7, 82, 96
14, 81960, Note_on_c, 7, 70, 96
14, 81989, Note_on_c, 7, 70, 0
14, 81989, Note_on_c, 7, 82, 0
14, 81990, Note_on_c, 7, 82, 96
14, 81990, Note_on_c, 7, 70, 96
14, 82019, Note_on_c, 7, 70, 0
14, 82019, Note_on_c, 7, 82, 0
14, 82020, Note_on_c, 7, 84, 96
14, 82020, Note_on_c, 7, 72, 96
14, 82049, Note_on_c, 7, 72, 0
14, 82049, Note_on_c, 7, 84, 0
14, 82050, Note_on_c, 7, 84, 96
14, 82050, Note_on_c, 7, 72, 96
14, 82079, Note_on_c, 7, 72, 0
14, 82079, Note_on_c, 7, 84, 0
14, 82080, Note_on_c, 7, 86, 96
14, 82080, Note_on_c, 7, 74, 96
14, 82109, Note_on_c, 7, 74, 0
14, 82109, Note_on_c, 7, 86, 0
14, 82110, Note_on_c, 7, 86, 96
14, 82110, Note_on_c, 7, 74, 96
14, 82139, Note_on_c, 7, 74, 0
14, 82139, Note_on_c, 7, 86, 0
14, 82140, Note_on_c, 7, 87, 96
14, 82140, Note_on_c, 7, 75, 96
14, 82169, Note_on_c, 7, 75, 0
14, 82169, Note_on_c, 7, 87, 0
14, 82170, Note_on_c, 7, 87, 96
14, 82170, Note_on_c, 7, 75, 96
14, 82199, Note_on_c, 7, 75, 0
14, 82199, Note_on_c, 7, 87, 0
14, 82200, Note_on_c, 7, 88, 96
14, 82200, Note_on_c, 7, 76, 96
14, 82229, Note_on_c, 7, 76, 0
14, 82229, Note_on_c, 7, 88, 0
14, 82230, Note_on_c, 7, 88, 96
14, 82230, Note_on_c, 7, 76, 96
14, 82259, Note_on_c, 7, 76, 0
14, 82259, Note_on_c, 7, 88, 0
14, 82260, Note_on_c, 7, 89, 96
14, 82260, Note_on_c, 7, 77, 96
14, 82289, Note_on_c, 7, 77, 0
14, 82289, Note_on_c, 7, 89, 0
14, 82290, Note_on_c, 7, 89, 96
14, 82290, Note_on_c, 7, 77, 96
14, 82319, Note_on_c, 7, 77, 0
14, 82319, Note_on_c, 7, 89, 0
14, 82320, Note_on_c, 7, 87, 96
14, 82320, Note_on_c, 7, 75, 96
14, 82349, Note_on_c, 7, 75, 0
14, 82349, Note_on_c, 7, 87, 0
14, 82350, Note_on_c, 7, 87, 96
14, 82350, Note_on_c, 7, 75, 96
14, 82379, Note_on_c, 7, 75, 0
14, 82379, Note_on_c, 7, 87, 0
14, 82380, Note_on_c, 7, 86, 96
14, 82380, Note_on_c, 7, 74, 96
14, 82409, Note_on_c, 7, 74, 0
14, 82409, Note_on_c, 7, 86, 0
14, 82410, Note_on_c, 7, 86, 96
14, 82410, Note_on_c, 7, 74, 96
14, 82439, Note_on_c, 7, 74, 0
14, 82439, Note_on_c, 7, 86, 0
14, 82440, Note_on_c, 7, 84, 96
14, 82440, Note_on_c, 7, 72, 96
14, 82469, Note_on_c, 7, 72, 0
14, 82469, Note_on_c, 7, 84, 0
14, 82470, Note_on_c, 7, 84, 96
14, 82470, Note_on_c, 7, 72, 96
14, 82499, Note_on_c, 7, 72, 0
14, 82499, Note_on_c, 7, 84, 0
14, 82500, Note_on_c, 7, 86, 96
14, 82500, Note_on_c, 7, 74, 96
14, 82529, Note_on_c, 7, 74, 0
14, 82529, Note_on_c, 7, 86, 0
14, 82530, Note_on_c, 7, 86, 96
14, 82530, Note_on_c, 7, 74, 96
14, 82559, Note_on_c, 7, 74, 0
14, 82559, Note_on_c, 7, 86, 0
14, 82560, Note_on_c, 7, 87, 96
14, 82560, Note_on_c, 7, 75, 96
14, 82589, Note_on_c, 7, 75, 0
14, 82589, Note_on_c, 7, 87, 0
14, 82590, Note_on_c, 7, 87, 96
14, 82590, Note_on_c, 7, 75, 96
14, 82619, Note_on_c, 7, 75, 0
14, 82619, Note_on_c, 7, 87, 0
14, 82620, Note_on_c, 7, 86, 96
14, 82620, Note_on_c, 7, 74, 96
14, 82649, Note_on_c, 7, 74, 0
14, 82649, Note_on_c, 7, 86, 0
14, 82650, Note_on_c, 7, 86, 96
14, 82650, Note_on_c, 7, 74, 96
14, 82679, Note_on_c, 7, 74, 0
14, 82679, Note_on_c, 7, 86, 0
14, 82680, Note_on_c, 7, 84, 96
14, 82680, Note_on_c, 7, 72, 96
14, 82709, Note_on_c, 7, 72, 0
14, 82709, Note_on_c, 7, 84, 0
14, 82710, Note_on_c, 7, 84, 96
14, 82710, Note_on_c, 7, 72, 96
14, 82739, Note_on_c, 7, 72, 0
14, 82739, Note_on_c, 7, 84, 0
14, 82740, Note_on_c, 7, 82, 96
14, 82740, Note_on_c, 7, 70, 96
14, 82769, Note_on_c, 7, 70, 0
14, 82769, Note_on_c, 7, 82, 0
14, 82770, Note_on_c, 7, 82, 96
14, 82770, Note_on_c, 7, 70, 96
14, 82799, Note_on_c, 7, 70, 0
14, 82799, Note_on_c, 7, 82, 0
14, 82800, Note_on_c, 7, 81, 96
14, 82800, Note_on_c, 7, 69, 96
14, 82829, Note_on_c, 7, 69, 0
14, 82829, Note_on_c, 7, 81, 0
14, 82830, Note_on_c, 7, 81, 96
14, 82830, Note_on_c, 7, 69, 96
14, 82859, Note_on_c, 7, 69, 0
14, 82859, Note_on_c, 7, 81, 0
14, 82860, Note_on_c, 7, 82, 96
14, 82860, Note_on_c, 7, 70, 96
14, 82889, Note_on_c, 7, 70, 0
14, 82889, Note_on_c, 7, 82, 0
14, 82890, Note_on_c, 7, 82, 96
14, 82890, Note_on_c, 7, 70, 96
14, 82919, Note_on_c, 7, 70, 0
14, 82919, Note_on_c, 7, 82, 0
14, 82920, Note_on_c, 7, 84, 96
14, 82920, Note_on_c, 7, 72, 96
14, 82949, Note_on_c, 7, 72, 0
14, 82949, Note_on_c, 7, 84, 0
14, 82950, Note_on_c, 7, 84, 96
14, 82950, Note_on_c, 7, 72, 96
14, 82979, Note_on_c, 7, 72, 0
14, 82979, Note_on_c, 7, 84, 0
14, 82980, Note_on_c, 7, 82, 96
14, 82980, Note_on_c, 7, 70, 96
14, 83009, Note_on_c, 7, 70, 0
14, 83009, Note_on_c, 7, 82, 0
14, 83010, Note_on_c, 7, 82, 96
14, 83010, Note_on_c, 7, 70, 96
14, 83039, Note_on_c, 7, 70, 0
14, 83039, Note_on_c, 7, 82, 0
14, 83040, Note_on_c, 7, 81, 96
14, 83040, Note_on_c, 7, 69, 96
14, 83069, Note_on_c, 7, 69, 0
14, 83069, Note_on_c, 7, 81, 0
14, 83070, Note_on_c, 7, 81, 96
14, 83070, Note_on_c, 7, 69, 96
14, 83099, Note_on_c, 7, 69, 0
14, 83099, Note_on_c, 7, 81, 0
14, 83100, Note_on_c, 7, 79, 96
14, 83100, Note_on_c, 7, 67, 96
14, 83129, Note_on_c, 7, 67, 0
14, 83129, Note_on_c, 7, 79, 0
14, 83130, Note_on_c, 7, 79, 96
14, 83130, Note_on_c, 7, 67, 96
14, 83159, Note_on_c, 7, 67, 0
14, 83159, Note_on_c, 7, 79, 0
14, 83160, Note_on_c, 7, 77, 127
14, 83160, Note_on_c, 7, 65, 127
14, 83189, Note_on_c, 7, 65, 0
14, 83189, Note_on_c, 7, 77, 0
14, 83190, Note_on_c, 7, 77, 127
14, 83190, Note_on_c, 7, 65, 127
14, 83219, Note_on_c, 7, 65, 0
14, 83219, Note_on_c, 7, 77, 0
14, 83220, Note_on_c, 7, 76, 127
14, 83220, Note_on_c, 7, 64, 127
14, 83249, Note_on_c, 7, 64, 0
14, 83249, Note_on_c, 7, 76, 0
14, 83250, Note_on_c, 7, 76, 127
14, 83250, Note_on_c, 7, 64, 127
14, 83279, Note_on_c, 7, 64, 0
14, 83279, Note_on_c, 7, 76, 0
14, 83280, Note_on_c, 7, 75, 127
14, 83280, Note_on_c, 7, 63, 127
14, 83309, Note_on_c, 7, 63, 0
14, 83309, Note_on_c, 7, 75, 0
14, 83310, Note_on_c, 7, 75, 127
14, 83310, Note_on_c, 7, 63, 127
14, 83339, Note_on_c, 7, 63, 0
14, 83339, Note_on_c, 7, 75, 0
14, 83340, Note_on_c, 7, 74, 127
14, 83340, Note_on_c, 7, 62, 127
14, 83369, Note_on_c, 7, 62, 0
14, 83369, Note_on_c, 7, 74, 0
14, 83370, Note_on_c, 7, 74, 127
14, 83370, Note_on_c, 7, 62, 127
14, 83399, Note_on_c, 7, 62, 0
14, 83399, Note_on_c, 7, 74, 0
14, 83400, Note_on_c, 7, 72, 127
14, 83400, Note_on_c, 7, 60, 127
14, 83429, Note_on_c, 7, 60, 0
14, 83429, Note_on_c, 7, 72, 0
14, 83430, Note_on_c, 7, 72, 127
14, 83430, Note_on_c, 7, 60, 127
14, 83459, Note_on_c, 7, 60, 0
14, 83459, Note_on_c, 7, 72, 0
14, 83460, Note_on_c, 7, 70, 127
14, 83460, Note_on_c, 7, 58, 127
14, 83489, Note_on_c, 7, 58, 0
14, 83489, Note_on_c, 7, 70, 0
14, 83490, Note_on_c, 7, 70, 127
14, 83490, Note_on_c, 7, 58, 127
14, 83519, Note_on_c, 7, 58, 0
14, 83519, Note_on_c, 7, 70, 0
14, 83520, Note_on_c, 7, 69, 127
14, 83520, Note_on_c, 7, 57, 127
14, 83549, Note_on_c, 7, 57, 0
14, 83549, Note_on_c, 7, 69, 0
14, 83550, Note_on_c, 7, 69, 127
14, 83550, Note_on_c, 7, 57, 127
14, 83579, Note_on_c, 7, 57, 0
14, 83579, Note_on_c, 7, 69, 0
14, 83580, Note_on_c, 7, 67, 127
14, 83609, Note_on_c, 7, 67, 0
14, 83610, Note_on_c, 7, 67, 127
14, 83639, Note_on_c, 7, 67, 0
14, 83640, Note_on_c, 7, 65, 127
14, 83669, Note_on_c, 7, 65, 0
14, 83670, Note_on_c, 7, 65, 127
14, 83699, Note_on_c, 7, 65, 0
14, 83700, Note_on_c, 7, 63, 127
14, 83729, Note_on_c, 7, 63, 0
14, 83730, Note_on_c, 7, 63, 127
14, 83759, Note_on_c, 7, 63, 0
14, 83760, Note_on_c, 7, 62, 127
14, 83789, Note_on_c, 7, 62, 0
14, 83790, Note_on_c, 7, 62, 127
14, 83819, Note_on_c, 7, 62, 0
14, 83820, Note_on_c, 7, 60, 127
14, 83849, Note_on_c, 7, 60, 0
14, 83850, Note_on_c, 7, 60, 127
14, 83879, Note_on_c, 7, 60, 0
14, 83880, Note_on_c, 7, 58, 127
14, 83999, Note_on_c, 7, 58, 0
14, 85440, Note_on_c, 7, 75, 48
14, 85440, Note_on_c, 7, 67, 48
14, 85529, Note_on_c, 7, 67, 0
14, 85529, Note_on_c, 7, 75, 0
14, 85560, Note_on_c, 7, 75, 48
14, 85560, Note_on_c, 7, 68, 48
14, 85649, Note_on_c, 7, 68, 0
14, 85649, Note_on_c, 7, 75, 0
14, 85680, Note_on_c, 7, 75, 48
14, 85680, Note_on_c, 7, 69, 48
14, 85769, Note_on_c, 7, 69, 0
14, 85769, Note_on_c, 7, 75, 0
14, 85800, Note_on_c, 7, 77, 60
14, 85800, Note_on_c, 7, 69, 60
14, 85889, Note_on_c, 7, 69, 0
14, 85889, Note_on_c, 7, 77, 0
14, 85920, Note_on_c, 7, 77, 72
14, 85920, Note_on_c, 7, 69, 72
14, 86009, Note_on_c, 7, 69, 0
14, 86009, Note_on_c, 7, 77, 0
14, 86040, Note_on_c, 7, 77, 84
14, 86040, Note_on_c, 7, 69, 84
14, 86129, Note_on_c, 7, 69, 0
14, 86160, Note_on_c, 7, 78, 90
14, 86160, Note_on_c, 7, 69, 96
14, 86169, Note_on_c, 7, 77, 0
14, 86280, Note_on_c, 7, 79, 96
14, 86289, Note_on_c, 7, 78, 0
14, 86399, Note_on_c, 7, 69, 0
14, 86400, Note_on_c, 7, 69, 96
14, 86519, Note_on_c, 7, 79, 0
14, 86520, Note_on_c, 7, 77, 84
14, 86580, Note_on_c, 7, 75, 72
14, 86589, Note_on_c, 7, 77, 0
14, 86640, Note_on_c, 7, 74, 64
14, 86649, Note_on_c, 7, 75, 0
14, 86700, Note_on_c, 7, 72, 56
14, 86709, Note_on_c, 7, 74, 0
14, 86709, Note_on_c, 7, 69, 0
14, 86760, Note_on_c, 7, 70, 48
14, 86769, Note_on_c, 7, 72, 0
14, 86879, Note_on_c, 7, 70, 0
14, 88680, Note_on_c, 7, 65, 48
14, 88680, Note_on_c, 7, 56, 48
14, 88769, Note_on_c, 7, 56, 0
14, 88769, Note_on_c, 7, 65, 0
14, 88800, Note_on_c, 7, 65, 48
14, 88800, Note_on_c, 7, 56, 48
14, 88889, Note_on_c, 7, 56, 0
14, 88889, Note_on_c, 7, 65, 0
14, 88920, Note_on_c, 7, 65, 48
14, 88920, Note_on_c, 7, 58, 48
14, 89160, Note_on_c, 7, 64, 56
14, 89169, Note_on_c, 7, 65, 0
14, 89279, Note_on_c, 7, 64, 0
14, 89279, Note_on_c, 7, 58, 0
14, 89760, Note_on_c, 7, 69, 32
14, 89760, Note_on_c, 7, 66, 32
14, 89819, Note_on_c, 7, 66, 0
14, 89819, Note_on_c, 7, 69, 0
14, 89880, Note_on_c, 7, 69, 32
14, 89880, Note_on_c, 7, 66, 32
14, 89939, Note_on_c, 7, 66, 0
14, 89939, Note_on_c, 7, 69, 0
14, 90120, Note_on_c, 7, 70, 32
14, 90120, Note_on_c, 7, 65, 32
14, 90179, Note_on_c, 7, 65, 0
14, 90179, Note_on_c, 7, 70, 0
14, 90240, Note_on_c, 7, 71, 32
14, 90240, Note_on_c, 7, 68, 32
14, 90299, Note_on_c, 7, 68, 0
14, 90299, Note_on_c, 7, 71, 0
14, 90480, Note_on_c, 7, 72, 32
14, 90480, Note_on_c, 7, 69, 32
14, 90539, Note_on_c, 7, 69, 0
14, 90539, Note_on_c, 7, 72, 0
14, 90600, Note_on_c, 7, 74, 32
14, 90600, Note_on_c, 7, 70, 32
14, 90659, Note_on_c, 7, 70, 0
14, 90659, Note_on_c, 7, 74, 0
14, 90720, Note_on_c, 7, 75, 32
14, 90720, Note_on_c, 7, 72, 32
14, 90779, Note_on_c, 7, 72, 0
14, 90779, Note_on_c, 7, 75, 0
14, 90840, Note_on_c, 7, 77, 32
14, 90840, Note_on_c, 7, 74, 32
14, 90899, Note_on_c, 7, 74, 0
14, 90899, Note_on_c, 7, 77, 0
14, 90960, Note_on_c, 7, 78, 32
14, 90960, Note_on_c, 7, 74, 32
14, 91019, Note_on_c, 7, 74, 0
14, 91019, Note_on_c, 7, 78, 0
14, 91080, Note_on_c, 7, 79, 32
14, 91080, Note_on_c, 7, 75, 32
14, 91109, Note_on_c, 7, 75, 0
14, 91109, Note_on_c, 7, 79, 0
14, 91140, Note_on_c, 7, 77, 32
14, 91140, Note_on_c, 7, 74, 32
14, 91169, Note_on_c, 7, 74, 0
14, 91169, Note_on_c, 7, 77, 0
14, 91200, Note_on_c, 7, 75, 32
14, 91200, Note_on_c, 7, 72, 32
14, 91229, Note_on_c, 7, 72, 0
14, 91229, Note_on_c, 7, 75, 0
14, 91260, Note_on_c, 7, 74, 32
14, 91260, Note_on_c, 7, 70, 32
14, 91289, Note_on_c, 7, 70, 0
14, 91289, Note_on_c, 7, 74, 0
14, 91320, Note_on_c, 7, 72, 32
14, 91320, Note_on_c, 7, 69, 32
14, 91349, Note_on_c, 7, 69, 0
14, 91349, Note_on_c, 7, 72, 0
14, 91380, Note_on_c, 7, 74, 32
14, 91380, Note_on_c, 7, 70, 32
14, 91409, Note_on_c, 7, 70, 0
14, 91409, Note_on_c, 7, 74, 0
14, 91440, Note_on_c, 7, 75, 32
14, 91440, Note_on_c, 7, 72, 32
14, 91469, Note_on_c, 7, 72, 0
14, 91469, Note_on_c, 7, 75, 0
14, 91500, Note_on_c, 7, 74, 32
14, 91500, Note_on_c, 7, 70, 32
14, 91529, Note_on_c, 7, 70, 0
14, 91529, Note_on_c, 7, 74, 0
14, 91560, Note_on_c, 7, 72, 32
14, 91560, Note_on_c, 7, 69, 32
14, 91589, Note_on_c, 7, 69, 0
14, 91589, Note_on_c, 7, 72, 0
14, 91620, Note_on_c, 7, 74, 32
14, 91620, Note_on_c, 7, 70, 32
14, 91649, Note_on_c, 7, 70, 0
14, 91649, Note_on_c, 7, 74, 0
14, 91680, Note_on_c, 7, 75, 32
14, 91680, Note_on_c, 7, 72, 32
14, 91709, Note_on_c, 7, 72, 0
14, 91709, Note_on_c, 7, 75, 0
14, 91740, Note_on_c, 7, 74, 32
14, 91740, Note_on_c, 7, 77, 32
14, 91769, Note_on_c, 7, 77, 0
14, 91769, Note_on_c, 7, 74, 0
14, 91800, Note_on_c, 7, 79, 34
14, 91800, Note_on_c, 7, 75, 34
14, 91829, Note_on_c, 7, 75, 0
14, 91829, Note_on_c, 7, 79, 0
14, 91860, Note_on_c, 7, 77, 37
14, 91860, Note_on_c, 7, 74, 37
14, 91889, Note_on_c, 7, 74, 0
14, 91889, Note_on_c, 7, 77, 0
14, 91920, Note_on_c, 7, 75, 40
14, 91920, Note_on_c, 7, 72, 40
14, 91949, Note_on_c, 7, 72, 0
14, 91949, Note_on_c, 7, 75, 0
14, 91980, Note_on_c, 7, 74, 43
14, 91980, Note_on_c, 7, 70, 43
14, 92009, Note_on_c, 7, 70, 0
14, 92009, Note_on_c, 7, 74, 0
14, 92040, Note_on_c, 7, 72, 46
14, 92040, Note_on_c, 7, 69, 46
14, 92069, Note_on_c, 7, 69, 0
14, 92069, Note_on_c, 7, 72, 0
14, 92100, Note_on_c, 7, 74, 48
14, 92100, Note_on_c, 7, 70, 48
14, 92129, Note_on_c, 7, 70, 0
14, 92129, Note_on_c, 7, 74, 0
14, 92160, Note_on_c, 7, 75, 50
14, 92160, Note_on_c, 7, 72, 50
14, 92189, Note_on_c, 7, 72, 0
14, 92189, Note_on_c, 7, 75, 0
14, 92220, Note_on_c, 7, 74, 53
14, 92220, Note_on_c, 7, 70, 53
14, 92249, Note_on_c, 7, 70, 0
14, 92249, Note_on_c, 7, 74, 0
14, 92280, Note_on_c, 7, 72, 56
14, 92280, Note_on_c, 7, 69, 56
14, 92309, Note_on_c, 7, 69, 0
14, 92309, Note_on_c, 7, 72, 0
14, 92340, Note_on_c, 7, 74, 59
14, 92340, Note_on_c, 7, 70, 59
14, 92369, Note_on_c, 7, 70, 0
14, 92369, Note_on_c, 7, 74, 0
14, 92400, Note_on_c, 7, 75, 62
14, 92400, Note_on_c, 7, 72, 62
14, 92429, Note_on_c, 7, 72, 0
14, 92429, Note_on_c, 7, 75, 0
14, 92460, Note_on_c, 7, 77, 64
14, 92460, Note_on_c, 7, 74, 64
14, 92489, Note_on_c, 7, 74, 0
14, 92489, Note_on_c, 7, 77, 0
14, 92520, Note_on_c, 7, 79, 66
14, 92520, Note_on_c, 7, 75, 66
14, 92549, Note_on_c, 7, 75, 0
14, 92549, Note_on_c, 7, 79, 0
14, 92580, Note_on_c, 7, 77, 69
14, 92580, Note_on_c, 7, 74, 69
14, 92609, Note_on_c, 7, 74, 0
14, 92609, Note_on_c, 7, 77, 0
14, 92640, Note_on_c, 7, 75, 72
14, 92640, Note_on_c, 7, 72, 72
14, 92669, Note_on_c, 7, 72, 0
14, 92669, Note_on_c, 7, 75, 0
14, 92700, Note_on_c, 7, 74, 75
14, 92700, Note_on_c, 7, 71, 75
14, 92729, Note_on_c, 7, 71, 0
14, 92729, Note_on_c, 7, 74, 0
14, 92760, Note_on_c, 7, 75, 78
14, 92760, Note_on_c, 7, 72, 78
14, 92789, Note_on_c, 7, 72, 0
14, 92789, Note_on_c, 7, 75, 0
14, 92820, Note_on_c, 7, 77, 80
14, 92820, Note_on_c, 7, 74, 80
14, 92849, Note_on_c, 7, 74, 0
14, 92849, Note_on_c, 7, 77, 0
14, 92880, Note_on_c, 7, 79, 82
14, 92880, Note_on_c, 7, 75, 82
14, 92909, Note_on_c, 7, 75, 0
14, 92909, Note_on_c, 7, 79, 0
14, 92940, Note_on_c, 7, 81, 85
14, 92940, Note_on_c, 7, 77, 85
14, 92969, Note_on_c, 7, 77, 0
14, 92969, Note_on_c, 7, 81, 0
14, 93000, Note_on_c, 7, 82, 88
14, 93000, Note_on_c, 7, 79, 88
14, 93029, Note_on_c, 7, 79, 0
14, 93029, Note_on_c, 7, 82, 0
14, 93060, Note_on_c, 7, 84, 90
14, 93060, Note_on_c, 7, 81, 90
14, 93089, Note_on_c, 7, 81, 0
14, 93089, Note_on_c, 7, 84, 0
14, 93120, Note_on_c, 7, 86, 92
14, 93120, Note_on_c, 7, 82, 92
14, 93149, Note_on_c, 7, 82, 0
14, 93149, Note_on_c, 7, 86, 0
14, 93180, Note_on_c, 7, 87, 94
14, 93180, Note_on_c, 7, 84, 94
14, 93209, Note_on_c, 7, 84, 0
14, 93209, Note_on_c, 7, 87, 0
14, 93240, Note_on_c, 7, 89, 96
14, 93240, Note_on_c, 7, 86, 96
14, 93299, Note_on_c, 7, 86, 0
14, 93360, Note_on_c, 7, 77, 96
14, 93419, Note_on_c, 7, 77, 0
14, 93479, Note_on_c, 7, 89, 0
14, 93480, Note_on_c, 7, 86, 96
14, 93480, Note_on_c, 7, 74, 96
14, 93539, Note_on_c, 7, 74, 0
14, 93539, Note_on_c, 7, 86, 0
14, 93600, Note_on_c, 7, 82, 96
14, 93600, Note_on_c, 7, 70, 96
14, 93659, Note_on_c, 7, 70, 0
14, 93659, Note_on_c, 7, 82, 0
14, 93720, Note_on_c, 7, 86, 112
14, 93720, Note_on_c, 7, 74, 112
14, 93779, Note_on_c, 7, 74, 0
14, 93779, Note_on_c, 7, 86, 0
14, 93840, Note_on_c, 7, 77, 96
14, 93840, Note_on_c, 7, 65, 96
14, 93899, Note_on_c, 7, 65, 0
14, 93899, Note_on_c, 7, 77, 0
14, 93960, Note_on_c, 7, 84, 96
14, 93960, Note_on_c, 7, 72, 96
14, 94019, Note_on_c, 7, 72, 0
14, 94019, Note_on_c, 7, 84, 0
14, 94080, Note_on_c, 7, 87, 112
14, 94080, Note_on_c, 7, 75, 112
14, 94139, Note_on_c, 7, 75, 0
14, 94139, Note_on_c, 7, 87, 0
14, 94200, Note_on_c, 7, 77, 96
14, 94200, Note_on_c, 7, 65, 96
14, 94259, Note_on_c, 7, 65, 0
14, 94259, Note_on_c, 7, 77, 0
14, 94320, Note_on_c, 7, 81, 96
14, 94320, Note_on_c, 7, 69, 96
14, 94379, Note_on_c, 7, 69, 0
14, 94379, Note_on_c, 7, 81, 0
14, 94440, Note_on_c, 7, 84, 112
14, 94440, Note_on_c, 7, 72, 112
14, 94499, Note_on_c, 7, 72, 0
14, 94499, Note_on_c, 7, 84, 0
14, 94560, Note_on_c, 7, 77, 96
14, 94560, Note_on_c, 7, 65, 96
14, 94619, Note_on_c, 7, 65, 0
14, 94619, Note_on_c, 7, 77, 0
14, 94680, Note_on_c, 7, 89, 127
14, 94680, Note_on_c, 7, 77, 127
14, 94680, Note_on_c, 7, 74, 127
14, 94709, Note_on_c, 7, 77, 0
14, 94709, Note_on_c, 7, 89, 0
14, 94710, Note_on_c, 7, 89, 127
14, 94710, Note_on_c, 7, 77, 127
14, 94739, Note_on_c, 7, 77, 0
14, 94739, Note_on_c, 7, 89, 0
14, 94739, Note_on_c, 7, 74, 0
14, 94740, Note_on_c, 7, 89, 127
14, 94740, Note_on_c, 7, 77, 127
14, 94740, Note_on_c, 7, 62, 127
14, 94769, Note_on_c, 7, 62, 0
14, 94769, Note_on_c, 7, 77, 0
14, 94769, Note_on_c, 7, 89, 0
14, 94770, Note_on_c, 7, 89, 127
14, 94770, Note_on_c, 7, 77, 127
14, 94770, Note_on_c, 7, 62, 127
14, 94799, Note_on_c, 7, 62, 0
14, 94799, Note_on_c, 7, 77, 0
14, 94799, Note_on_c, 7, 89, 0
14, 94800, Note_on_c, 7, 89, 127
14, 94800, Note_on_c, 7, 77, 127
14, 94800, Note_on_c, 7, 65, 127
14, 94829, Note_on_c, 7, 65, 0
14, 94829, Note_on_c, 7, 77, 0
14, 94829, Note_on_c, 7, 89, 0
14, 94830, Note_on_c, 7, 89, 127
14, 94830, Note_on_c, 7, 77, 127
14, 94830, Note_on_c, 7, 65, 127
14, 94859, Note_on_c, 7, 65, 0
14, 94859, Note_on_c, 7, 77, 0
14, 94859, Note_on_c, 7, 89, 0
14, 94860, Note_on_c, 7, 89, 127
14, 94860, Note_on_c, 7, 77, 127
14, 94860, Note_on_c, 7, 70, 127
14, 94889, Note_on_c, 7, 70, 0
14, 94889, Note_on_c, 7, 77, 0
14, 94889, Note_on_c, 7, 89, 0
14, 94890, Note_on_c, 7, 89, 127
14, 94890, Note_on_c, 7, 77, 127
14, 94890, Note_on_c, 7, 70, 127
14, 94919, Note_on_c, 7, 70, 0
14, 94919, Note_on_c, 7, 77, 0
14, 94919, Note_on_c, 7, 89, 0
14, 94920, Note_on_c, 7, 89, 127
14, 94920, Note_on_c, 7, 77, 127
14, 94920, Note_on_c, 7, 74, 127
14, 94949, Note_on_c, 7, 74, 0
14, 94949, Note_on_c, 7, 77, 0
14, 94949, Note_on_c, 7, 89, 0
14, 94950, Note_on_c, 7, 89, 127
14, 94950, Note_on_c, 7, 77, 127
14, 94950, Note_on_c, 7, 74, 127
14, 94979, Note_on_c, 7, 74, 0
14, 94979, Note_on_c, 7, 77, 0
14, 94979, Note_on_c, 7, 89, 0
14, 94980, Note_on_c, 7, 89, 127
14, 94980, Note_on_c, 7, 77, 127
14, 94980, Note_on_c, 7, 62, 127
14, 95009, Note_on_c, 7, 62, 0
14, 95009, Note_on_c, 7, 77, 0
14, 95009, Note_on_c, 7, 89, 0
14, 95010, Note_on_c, 7, 89, 127
14, 95010, Note_on_c, 7, 77, 127
14, 95010, Note_on_c, 7, 62, 127
14, 95039, Note_on_c, 7, 62, 0
14, 95039, Note_on_c, 7, 77, 0
14, 95039, Note_on_c, 7, 89, 0
14, 95040, Note_on_c, 7, 89, 127
14, 95040, Note_on_c, 7, 77, 127
14, 95069, Note_on_c, 7, 77, 0
14, 95069, Note_on_c, 7, 89, 0
14, 95070, Note_on_c, 7, 89, 127
14, 95070, Note_on_c, 7, 77, 127
14, 95099, Note_on_c, 7, 77, 0
14, 95099, Note_on_c, 7, 89, 0
14, 95100, Note_on_c, 7, 89, 127
14, 95100, Note_on_c, 7, 77, 127
14, 95100, Note_on_c, 7, 62, 127
14, 95129, Note_on_c, 7, 62, 0
14, 95129, Note_on_c, 7, 77, 0
14, 95129, Note_on_c, 7, 89, 0
14, 95130, Note_on_c, 7, 89, 127
14, 95130, Note_on_c, 7, 77, 127
14, 95130, Note_on_c, 7, 62, 127
14, 95159, Note_on_c, 7, 62, 0
14, 95159, Note_on_c, 7, 77, 0
14, 95159, Note_on_c, 7, 89, 0
14, 95160, Note_on_c, 7, 89, 127
14, 95160, Note_on_c, 7, 77, 127
14, 95160, Note_on_c, 7, 65, 127
14, 95189, Note_on_c, 7, 65, 0
14, 95189, Note_on_c, 7, 77, 0
14, 95189, Note_on_c, 7, 89, 0
14, 95190, Note_on_c, 7, 89, 127
14, 95190, Note_on_c, 7, 77, 127
14, 95190, Note_on_c, 7, 65, 127
14, 95219, Note_on_c, 7, 65, 0
14, 95219, Note_on_c, 7, 77, 0
14, 95219, Note_on_c, 7, 89, 0
14, 95220, Note_on_c, 7, 89, 127
14, 95220, Note_on_c, 7, 77, 127
14, 95220, Note_on_c, 7, 70, 127
14, 95249, Note_on_c, 7, 70, 0
14, 95249, Note_on_c, 7, 77, 0
14, 95249, Note_on_c, 7, 89, 0
14, 95250, Note_on_c, 7, 89, 127
14, 95250, Note_on_c, 7, 77, 127
14, 95250, Note_on_c, 7, 70, 127
14, 95279, Note_on_c, 7, 70, 0
14, 95279, Note_on_c, 7, 77, 0
14, 95279, Note_on_c, 7, 89, 0
14, 95280, Note_on_c, 7, 89, 127
14, 95280, Note_on_c, 7, 77, 127
14, 95280, Note_on_c, 7, 74, 127
14, 95309, Note_on_c, 7, 74, 0
14, 95309, Note_on_c, 7, 77, 0
14, 95309, Note_on_c, 7, 89, 0
14, 95310, Note_on_c, 7, 89, 127
14, 95310, Note_on_c, 7, 77, 127
14, 95310, Note_on_c, 7, 74, 127
14, 95339, Note_on_c, 7, 74, 0
14, 95339, Note_on_c, 7, 77, 0
14, 95339, Note_on_c, 7, 89, 0
14, 95340, Note_on_c, 7, 89, 127
14, 95340, Note_on_c, 7, 77, 127
14, 95340, Note_on_c, 7, 62, 127
14, 95369, Note_on_c, 7, 62, 0
14, 95369, Note_on_c, 7, 77, 0
14, 95369, Note_on_c, 7, 89, 0
14, 95370, Note_on_c, 7, 89, 127
14, 95370, Note_on_c, 7, 77, 127
14, 95370, Note_on_c, 7, 62, 127
14, 95399, Note_on_c, 7, 62, 0
14, 95399, Note_on_c, 7, 77, 0
14, 95399, Note_on_c, 7, 89, 0
14, 95400, Note_on_c, 7, 89, 127
14, 95400, Note_on_c, 7, 77, 127
14, 95429, Note_on_c, 7, 77, 0
14, 95429, Note_on_c, 7, 89, 0
14, 95430, Note_on_c, 7, 89, 127
14, 95430, Note_on_c, 7, 77, 127
14, 95459, Note_on_c, 7, 77, 0
14, 95459, Note_on_c, 7, 89, 0
14, 95460, Note_on_c, 7, 89, 127
14, 95460, Note_on_c, 7, 77, 127
14, 95460, Note_on_c, 7, 63, 127
14, 95489, Note_on_c, 7, 63, 0
14, 95489, Note_on_c, 7, 77, 0
14, 95489, Note_on_c, 7, 89, 0
14, 95490, Note_on_c, 7, 89, 127
14, 95490, Note_on_c, 7, 77, 127
14, 95490, Note_on_c, 7, 63, 127
14, 95519, Note_on_c, 7, 63, 0
14, 95519, Note_on_c, 7, 77, 0
14, 95519, Note_on_c, 7, 89, 0
14, 95520, Note_on_c, 7, 89, 127
14, 95520, Note_on_c, 7, 77, 127
14, 95520, Note_on_c, 7, 65, 127
14, 95549, Note_on_c, 7, 65, 0
14, 95549, Note_on_c, 7, 77, 0
14, 95549, Note_on_c, 7, 89, 0
14, 95550, Note_on_c, 7, 89, 127
14, 95550, Note_on_c, 7, 77, 127
14, 95550, Note_on_c, 7, 65, 127
14, 95579, Note_on_c, 7, 65, 0
14, 95579, Note_on_c, 7, 77, 0
14, 95579, Note_on_c, 7, 89, 0
14, 95580, Note_on_c, 7, 89, 127
14, 95580, Note_on_c, 7, 77, 127
14, 95580, Note_on_c, 7, 72, 127
14, 95609, Note_on_c, 7, 72, 0
14, 95609, Note_on_c, 7, 77, 0
14, 95609, Note_on_c, 7, 89, 0
14, 95610, Note_on_c, 7, 89, 127
14, 95610, Note_on_c, 7, 77, 127
14, 95610, Note_on_c, 7, 72, 127
14, 95639, Note_on_c, 7, 72, 0
14, 95639, Note_on_c, 7, 77, 0
14, 95639, Note_on_c, 7, 89, 0
14, 95640, Note_on_c, 7, 89, 127
14, 95640, Note_on_c, 7, 77, 127
14, 95640, Note_on_c, 7, 75, 127
14, 95669, Note_on_c, 7, 75, 0
14, 95669, Note_on_c, 7, 77, 0
14, 95669, Note_on_c, 7, 89, 0
14, 95670, Note_on_c, 7, 89, 127
14, 95670, Note_on_c, 7, 77, 127
14, 95670, Note_on_c, 7, 75, 127
14, 95699, Note_on_c, 7, 75, 0
14, 95699, Note_on_c, 7, 77, 0
14, 95699, Note_on_c, 7, 89, 0
14, 95700, Note_on_c, 7, 89, 127
14, 95700, Note_on_c, 7, 77, 127
14, 95700, Note_on_c, 7, 63, 127
14, 95729, Note_on_c, 7, 63, 0
14, 95729, Note_on_c, 7, 77, 0
14, 95729, Note_on_c, 7, 89, 0
14, 95730, Note_on_c, 7, 89, 127
14, 95730, Note_on_c, 7, 77, 127
14, 95730, Note_on_c, 7, 63, 127
14, 95759, Note_on_c, 7, 63, 0
14, 95759, Note_on_c, 7, 77, 0
14, 95759, Note_on_c, 7, 89, 0
14, 95760, Note_on_c, 7, 89, 127
14, 95760, Note_on_c, 7, 77, 127
14, 95789, Note_on_c, 7, 77, 0
14, 95789, Note_on_c, 7, 89, 0
14, 95790, Note_on_c, 7, 89, 127
14, 95790, Note_on_c, 7, 77, 127
14, 95819, Note_on_c, 7, 77, 0
14, 95819, Note_on_c, 7, 89, 0
14, 95820, Note_on_c, 7, 89, 127
14, 95820, Note_on_c, 7, 77, 127
14, 95820, Note_on_c, 7, 63, 127
14, 95849, Note_on_c, 7, 63, 0
14, 95849, Note_on_c, 7, 77, 0
14, 95849, Note_on_c, 7, 89, 0
14, 95850, Note_on_c, 7, 89, 127
14, 95850, Note_on_c, 7, 77, 127
14, 95850, Note_on_c, 7, 63, 127
14, 95879, Note_on_c, 7, 63, 0
14, 95879, Note_on_c, 7, 77, 0
14, 95879, Note_on_c, 7, 89, 0
14, 95880, Note_on_c, 7, 89, 127
14, 95880, Note_on_c, 7, 77, 127
14, 95880, Note_on_c, 7, 65, 127
14, 95909, Note_on_c, 7, 65, 0
14, 95909, Note_on_c, 7, 77, 0
14, 95909, Note_on_c, 7, 89, 0
14, 95910, Note_on_c, 7, 89, 127
14, 95910, Note_on_c, 7, 77, 127
14, 95910, Note_on_c, 7, 65, 127
14, 95939, Note_on_c, 7, 65, 0
14, 95939, Note_on_c, 7, 77, 0
14, 95939, Note_on_c, 7, 89, 0
14, 95940, Note_on_c, 7, 89, 127
14, 95940, Note_on_c, 7, 77, 127
14, 95940, Note_on_c, 7, 69, 127
14, 95969, Note_on_c, 7, 69, 0
14, 95969, Note_on_c, 7, 77, 0
14, 95969, Note_on_c, 7, 89, 0
14, 95970, Note_on_c, 7, 89, 127
14, 95970, Note_on_c, 7, 77, 127
14, 95970, Note_on_c, 7, 69, 127
14, 95999, Note_on_c, 7, 69, 0
14, 95999, Note_on_c, 7, 77, 0
14, 95999, Note_on_c, 7, 89, 0
14, 96000, Note_on_c, 7, 89, 127
14, 96000, Note_on_c, 7, 77, 127
14, 96000, Note_on_c, 7, 72, 127
14, 96029, Note_on_c, 7, 72, 0
14, 96029, Note_on_c, 7, 77, 0
14, 96029, Note_on_c, 7, 89, 0
14, 96030, Note_on_c, 7, 89, 127
14, 96030, Note_on_c, 7, 77, 127
14, 96030, Note_on_c, 7, 72, 127
14, 96059, Note_on_c, 7, 72, 0
14, 96059, Note_on_c, 7, 77, 0
14, 96059, Note_on_c, 7, 89, 0
14, 96060, Note_on_c, 7, 89, 127
14, 96060, Note_on_c, 7, 77, 127
14, 96060, Note_on_c, 7, 69, 127
14, 96089, Note_on_c, 7, 69, 0
14, 96089, Note_on_c, 7, 77, 0
14, 96089, Note_on_c, 7, 89, 0
14, 96090, Note_on_c, 7, 89, 127
14, 96090, Note_on_c, 7, 77, 127
14, 96090, Note_on_c, 7, 69, 127
14, 96119, Note_on_c, 7, 69, 0
14, 96119, Note_on_c, 7, 77, 0
14, 96119, Note_on_c, 7, 89, 0
14, 96120, Note_on_c, 7, 89, 127
14, 96120, Note_on_c, 7, 70, 127
14, 96149, Note_on_c, 7, 70, 0
14, 96149, Note_on_c, 7, 89, 0
14, 96150, Note_on_c, 7, 89, 127
14, 96150, Note_on_c, 7, 70, 127
14, 96179, Note_on_c, 7, 70, 0
14, 96179, Note_on_c, 7, 89, 0
14, 96180, Note_on_c, 7, 85, 127
14, 96180, Note_on_c, 7, 73, 127
14, 96209, Note_on_c, 7, 73, 0
14, 96209, Note_on_c, 7, 85, 0
14, 96210, Note_on_c, 7, 85, 127
14, 96210, Note_on_c, 7, 73, 127
14, 96239, Note_on_c, 7, 73, 0
14, 96239, Note_on_c, 7, 85, 0
14, 96240, Note_on_c, 7, 86, 127
14, 96240, Note_on_c, 7, 74, 127
14, 96269, Note_on_c, 7, 74, 0
14, 96269, Note_on_c, 7, 86, 0
14, 96270, Note_on_c, 7, 86, 127
14, 96270, Note_on_c, 7, 74, 127
14, 96299, Note_on_c, 7, 74, 0
14, 96299, Note_on_c, 7, 86, 0
14, 96300, Note_on_c, 7, 81, 127
14, 96300, Note_on_c, 7, 69, 127
14, 96329, Note_on_c, 7, 69, 0
14, 96329, Note_on_c, 7, 81, 0
14, 96330, Note_on_c, 7, 81, 127
14, 96330, Note_on_c, 7, 69, 127
14, 96359, Note_on_c, 7, 69, 0
14, 96359, Note_on_c, 7, 81, 0
14, 96360, Note_on_c, 7, 82, 127
14, 96360, Note_on_c, 7, 70, 127
14, 96389, Note_on_c, 7, 70, 0
14, 96389, Note_on_c, 7, 82, 0
14, 96390, Note_on_c, 7, 82, 127
14, 96390, Note_on_c, 7, 70, 127
14, 96419, Note_on_c, 7, 70, 0
14, 96419, Note_on_c, 7, 82, 0
14, 96420, Note_on_c, 7, 76, 127
14, 96420, Note_on_c, 7, 64, 127
14, 96449, Note_on_c, 7, 64, 0
14, 96449, Note_on_c, 7, 76, 0
14, 96450, Note_on_c, 7, 76, 127
14, 96450, Note_on_c, 7, 64, 127
14, 96479, Note_on_c, 7, 64, 0
14, 96479, Note_on_c, 7, 76, 0
14, 96480, Note_on_c, 7, 77, 127
14, 96480, Note_on_c, 7, 65, 127
14, 96509, Note_on_c, 7, 65, 0
14, 96509, Note_on_c, 7, 77, 0
14, 96510, Note_on_c, 7, 77, 127
14, 96510, Note_on_c, 7, 65, 127
14, 96539, Note_on_c, 7, 65, 0
14, 96539, Note_on_c, 7, 77, 0
14, 96540, Note_on_c, 7, 73, 127
14, 96540, Note_on_c, 7, 61, 127
14, 96569, Note_on_c, 7, 61, 0
14, 96569, Note_on_c, 7, 73, 0
14, 96570, Note_on_c, 7, 73, 127
14, 96570, Note_on_c, 7, 61, 127
14, 96599, Note_on_c, 7, 61, 0
14, 96599, Note_on_c, 7, 73, 0
14, 96600, Note_on_c, 7, 74, 127
14, 96600, Note_on_c, 7, 62, 127
14, 96629, Note_on_c, 7, 62, 0
14, 96629, Note_on_c, 7, 74, 0
14, 96630, Note_on_c, 7, 74, 127
14, 96630, Note_on_c, 7, 62, 127
14, 96659, Note_on_c, 7, 62, 0
14, 96659, Note_on_c, 7, 74, 0
14, 96660, Note_on_c, 7, 69, 127
14, 96660, Note_on_c, 7, 57, 127
14, 96689, Note_on_c, 7, 57, 0
14, 96689, Note_on_c, 7, 69, 0
14, 96690, Note_on_c, 7, 69, 127
14, 96690, Note_on_c, 7, 57, 127
14, 96719, Note_on_c, 7, 57, 0
14, 96719, Note_on_c, 7, 69, 0
14, 96720, Note_on_c, 7, 70, 127
14, 96720, Note_on_c, 7, 58, 127
14, 96749, Note_on_c, 7, 58, 0
14, 96749, Note_on_c, 7, 70, 0
14, 96750, Note_on_c, 7, 70, 127
14, 96750, Note_on_c, 7, 58, 127
14, 96779, Note_on_c, 7, 58, 0
14, 96779, Note_on_c, 7, 70, 0
14, 96780, Note_on_c, 7, 68, 127
14, 96780, Note_on_c, 7, 56, 127
14, 96809, Note_on_c, 7, 56, 0
14, 96809, Note_on_c, 7, 68, 0
14, 96810, Note_on_c, 7, 68, 127
14, 96810, Note_on_c, 7, 56, 127
14, 96839, Note_on_c, 7, 56, 0
14, 96839, Note_on_c, 7, 68, 0
14, 96840, Note_on_c, 7, 67, 127
14, 96840, Note_on_c, 7, 55, 127
14, 96869, Note_on_c, 7, 55, 0
14, 96869, Note_on_c, 7, 67, 0
14, 96870, Note_on_c, 7, 67, 127
14, 96870, Note_on_c, 7, 55, 127
14, 96899, Note_on_c, 7, 55, 0
14, 96899, Note_on_c, 7, 67, 0
14, 96900, Note_on_c, 7, 71, 127
14, 96900, Note_on_c, 7, 59, 127
14, 96929, Note_on_c, 7, 59, 0
14, 96929, Note_on_c, 7, 71, 0
14, 96930, Note_on_c, 7, 71, 127
14, 96930, Note_on_c, 7, 59, 127
14, 96959, Note_on_c, 7, 59, 0
14, 96959, Note_on_c, 7, 71, 0
14, 96960, Note_on_c, 7, 72, 127
14, 96960, Note_on_c, 7, 60, 127
14, 96989, Note_on_c, 7, 60, 0
14, 96989, Note_on_c, 7, 72, 0
14, 96990, Note_on_c, 7, 72, 127
14, 96990, Note_on_c, 7, 60, 127
14, 97019, Note_on_c, 7, 60, 0
14, 97019, Note_on_c, 7, 72, 0
14, 97020, Note_on_c, 7, 70, 127
14, 97020, Note_on_c, 7, 58, 127
14, 97049, Note_on_c, 7, 58, 0
14, 97049, Note_on_c, 7, 70, 0
14, 97050, Note_on_c, 7, 70, 127
14, 97050, Note_on_c, 7, 58, 127
14, 97079, Note_on_c, 7, 58, 0
14, 97079, Note_on_c, 7, 70, 0
14, 97080, Note_on_c, 7, 69, 127
14, 97080, Note_on_c, 7, 57, 127
14, 97109, Note_on_c, 7, 57, 0
14, 97109, Note_on_c, 7, 69, 0
14, 97110, Note_on_c, 7, 69, 127
14, 97110, Note_on_c, 7, 57, 127
14, 97139, Note_on_c, 7, 57, 0
14, 97139, Note_on_c, 7, 69, 0
14, 97140, Note_on_c, 7, 73, 127
14, 97140, Note_on_c, 7, 61, 127
14, 97169, Note_on_c, 7, 61, 0
14, 97169, Note_on_c, 7, 73, 0
14, 97170, Note_on_c, 7, 73, 127
14, 97170, Note_on_c, 7, 61, 127
14, 97199, Note_on_c, 7, 61, 0
14, 97199, Note_on_c, 7, 73, 0
14, 97200, Note_on_c, 7, 74, 127
14, 97200, Note_on_c, 7, 62, 127
14, 97229, Note_on_c, 7, 62, 0
14, 97229, Note_on_c, 7, 74, 0
14, 97230, Note_on_c, 7, 74, 127
14, 97230, Note_on_c, 7, 62, 127
14, 97259, Note_on_c, 7, 62, 0
14, 97259, Note_on_c, 7, 74, 0
14, 97260, Note_on_c, 7, 72, 127
14, 97260, Note_on_c, 7, 60, 127
14, 97289, Note_on_c, 7, 60, 0
14, 97289, Note_on_c, 7, 72, 0
14, 97290, Note_on_c, 7, 72, 127
14, 97290, Note_on_c, 7, 60, 127
14, 97319, Note_on_c, 7, 60, 0
14, 97319, Note_on_c, 7, 72, 0
14, 97320, Note_on_c, 7, 70, 127
14, 97320, Note_on_c, 7, 58, 127
14, 97349, Note_on_c, 7, 58, 0
14, 97349, Note_on_c, 7, 70, 0
14, 97350, Note_on_c, 7, 70, 127
14, 97350, Note_on_c, 7, 58, 127
14, 97379, Note_on_c, 7, 58, 0
14, 97379, Note_on_c, 7, 70, 0
14, 97380, Note_on_c, 7, 74, 127
14, 97380, Note_on_c, 7, 62, 127
14, 97409, Note_on_c, 7, 62, 0
14, 97409, Note_on_c, 7, 74, 0
14, 97410, Note_on_c, 7, 74, 127
14, 97410, Note_on_c, 7, 62, 127
14, 97439, Note_on_c, 7, 62, 0
14, 97439, Note_on_c, 7, 74, 0
14, 97440, Note_on_c, 7, 75, 127
14, 97440, Note_on_c, 7, 63, 127
14, 97469, Note_on_c, 7, 63, 0
14, 97469, Note_on_c, 7, 75, 0
14, 97470, Note_on_c, 7, 75, 127
14, 97470, Note_on_c, 7, 63, 127
14, 97499, Note_on_c, 7, 63, 0
14, 97499, Note_on_c, 7, 75, 0
14, 97500, Note_on_c, 7, 74, 127
14, 97500, Note_on_c, 7, 62, 127
14, 97529, Note_on_c, 7, 62, 0
14, 97529, Note_on_c, 7, 74, 0
14, 97530, Note_on_c, 7, 74, 127
14, 97530, Note_on_c, 7, 62, 127
14, 97559, Note_on_c, 7, 62, 0
14, 97559, Note_on_c, 7, 74, 0
14, 97560, Note_on_c, 7, 72, 127
14, 97560, Note_on_c, 7, 60, 127
14, 97589, Note_on_c, 7, 60, 0
14, 97589, Note_on_c, 7, 72, 0
14, 97590, Note_on_c, 7, 72, 127
14, 97590, Note_on_c, 7, 60, 127
14, 97619, Note_on_c, 7, 60, 0
14, 97619, Note_on_c, 7, 72, 0
14, 97620, Note_on_c, 7, 76, 127
14, 97620, Note_on_c, 7, 64, 127
14, 97649, Note_on_c, 7, 64, 0
14, 97649, Note_on_c, 7, 76, 0
14, 97650, Note_on_c, 7, 76, 127
14, 97650, Note_on_c, 7, 64, 127
14, 97679, Note_on_c, 7, 64, 0
14, 97679, Note_on_c, 7, 76, 0
14, 97680, Note_on_c, 7, 77, 127
14, 97680, Note_on_c, 7, 65, 127
14, 97709, Note_on_c, 7, 65, 0
14, 97709, Note_on_c, 7, 77, 0
14, 97710, Note_on_c, 7, 77, 127
14, 97710, Note_on_c, 7, 65, 127
14, 97739, Note_on_c, 7, 65, 0
14, 97739, Note_on_c, 7, 77, 0
14, 97740, Note_on_c, 7, 75, 127
14, 97740, Note_on_c, 7, 63, 127
14, 97769, Note_on_c, 7, 63, 0
14, 97769, Note_on_c, 7, 75, 0
14, 97770, Note_on_c, 7, 75, 127
14, 97770, Note_on_c, 7, 63, 127
14, 97799, Note_on_c, 7, 63, 0
14, 97799, Note_on_c, 7, 75, 0
14, 97800, Note_on_c, 7, 74, 127
14, 97800, Note_on_c, 7, 62, 127
14, 97829, Note_on_c, 7, 62, 0
14, 97829, Note_on_c, 7, 74, 0
14, 97830, Note_on_c, 7, 74, 127
14, 97830, Note_on_c, 7, 62, 127
14, 97859, Note_on_c, 7, 62, 0
14, 97859, Note_on_c, 7, 74, 0
14, 97860, Note_on_c, 7, 78, 127
14, 97860, Note_on_c, 7, 66, 127
14, 97889, Note_on_c, 7, 66, 0
14, 97889, Note_on_c, 7, 78, 0
14, 97890, Note_on_c, 7, 78, 127
14, 97890, Note_on_c, 7, 66, 127
14, 97919, Note_on_c, 7, 66, 0
14, 97919, Note_on_c, 7, 78, 0
14, 97920, Note_on_c, 7, 79, 127
14, 97920, Note_on_c, 7, 67, 127
14, 97949, Note_on_c, 7, 67, 0
14, 97949, Note_on_c, 7, 79, 0
14, 97950, Note_on_c, 7, 79, 127
14, 97950, Note_on_c, 7, 67, 127
14, 97979, Note_on_c, 7, 67, 0
14, 97979, Note_on_c, 7, 79, 0
14, 97980, Note_on_c, 7, 81, 127
14, 97980, Note_on_c, 7, 69, 127
14, 98009, Note_on_c, 7, 69, 0
14, 98009, Note_on_c, 7, 81, 0
14, 98010, Note_on_c, 7, 81, 127
14, 98010, Note_on_c, 7, 69, 127
14, 98039, Note_on_c, 7, 69, 0
14, 98039, Note_on_c, 7, 81, 0
14, 98040, Note_on_c, 7, 82, 127
14, 98040, Note_on_c, 7, 70, 127
14, 98069, Note_on_c, 7, 70, 0
14, 98069, Note_on_c, 7, 82, 0
14, 98070, Note_on_c, 7, 82, 127
14, 98070, Note_on_c, 7, 70, 127
14, 98099, Note_on_c, 7, 70, 0
14, 98099, Note_on_c, 7, 82, 0
14, 98100, Note_on_c, 7, 83, 127
14, 98100, Note_on_c, 7, 71, 127
14, 98129, Note_on_c, 7, 71, 0
14, 98129, Note_on_c, 7, 83, 0
14, 98130, Note_on_c, 7, 83, 127
14, 98130, Note_on_c, 7, 71, 127
14, 98159, Note_on_c, 7, 71, 0
14, 98159, Note_on_c, 7, 83, 0
14, 98160, Note_on_c, 7, 84, 127
14, 98160, Note_on_c, 7, 72, 127
14, 98189, Note_on_c, 7, 72, 0
14, 98189, Note_on_c, 7, 84, 0
14, 98190, Note_on_c, 7, 84, 127
14, 98190, Note_on_c, 7, 72, 127
14, 98219, Note_on_c, 7, 72, 0
14, 98219, Note_on_c, 7, 84, 0
14, 98220, Note_on_c, 7, 85, 127
14, 98220, Note_on_c, 7, 73, 127
14, 98249, Note_on_c, 7, 73, 0
14, 98249, Note_on_c, 7, 85, 0
14, 98250, Note_on_c, 7, 85, 127
14, 98250, Note_on_c, 7, 73, 127
14, 98279, Note_on_c, 7, 73, 0
14, 98279, Note_on_c, 7, 85, 0
14, 98280, Note_on_c, 7, 86, 127
14, 98280, Note_on_c, 7, 74, 127
14, 98339, Note_on_c, 7, 74, 0
14, 98339, Note_on_c, 7, 86, 0
14, 98400, Note_on_c, 7, 74, 127
14, 98400, Note_on_c, 7, 84, 127
14, 98400, Note_on_c, 7, 81, 127
14, 98400, Note_on_c, 7, 72, 127
14, 98400, Note_on_c, 7, 62, 127
14, 98459, Note_on_c, 7, 62, 0
14, 98459, Note_on_c, 7, 81, 0
14, 98459, Note_on_c, 7, 74, 0
14, 98459, Note_on_c, 7, 84, 0
14, 98459, Note_on_c, 7, 72, 0
14, 98520, Note_on_c, 7, 74, 127
14, 98520, Note_on_c, 7, 82, 127
14, 98520, Note_on_c, 7, 62, 127
14, 98520, Note_on_c, 7, 70, 127
14, 98520, Note_on_c, 7, 79, 127
14, 98579, Note_on_c, 7, 79, 0
14, 98579, Note_on_c, 7, 62, 0
14, 98579, Note_on_c, 7, 74, 0
14, 98579, Note_on_c, 7, 82, 0
14, 98579, Note_on_c, 7, 70, 0
14, 98760, Note_on_c, 7, 80, 127
14, 98760, Note_on_c, 7, 62, 127
14, 98760, Note_on_c, 7, 71, 127
14, 98760, Note_on_c, 7, 65, 127
14, 98819, Note_on_c, 7, 65, 0
14, 98819, Note_on_c, 7, 80, 0
14, 98819, Note_on_c, 7, 62, 0
14, 98819, Note_on_c, 7, 71, 0
14, 98880, Note_on_c, 7, 79, 127
14, 98880, Note_on_c, 7, 72, 127
14, 98880, Note_on_c, 7, 63, 127
14, 98939, Note_on_c, 7, 63, 0
14, 98939, Note_on_c, 7, 72, 0
14, 98939, Note_on_c, 7, 79, 0
14, 99120, Note_on_c, 7, 82, 127
14, 99120, Note_on_c, 7, 79, 127
14, 99120, Note_on_c, 7, 72, 127
14, 99120, Note_on_c, 7, 64, 127
14, 99179, Note_on_c, 7, 64, 0
14, 99179, Note_on_c, 7, 82, 0
14, 99179, Note_on_c, 7, 79, 0
14, 99179, Note_on_c, 7, 72, 0
14, 99240, Note_on_c, 7, 81, 127
14, 99240, Note_on_c, 7, 65, 127
14, 99240, Note_on_c, 7, 72, 127
14, 99240, Note_on_c, 7, 77, 127
14, 99299, Note_on_c, 7, 77, 0
14, 99299, Note_on_c, 7, 81, 0
14, 99299, Note_on_c, 7, 65, 0
14, 99299, Note_on_c, 7, 72, 0
14, 99480, Note_on_c, 7, 84, 127
14, 99480, Note_on_c, 7, 74, 127
14, 99480, Note_on_c, 7, 81, 127
14, 99480, Note_on_c, 7, 72, 127
14, 99480, Note_on_c, 7, 62, 127
14, 99539, Note_on_c, 7, 62, 0
14, 99539, Note_on_c, 7, 81, 0
14, 99539, Note_on_c, 7, 84, 0
14, 99539, Note_on_c, 7, 74, 0
14, 99539, Note_on_c, 7, 72, 0
14, 99600, Note_on_c, 7, 82, 127
14, 99600, Note_on_c, 7, 74, 127
14, 99600, Note_on_c, 7, 62, 127
14, 99600, Note_on_c, 7, 70, 127
14, 99600, Note_on_c, 7, 79, 127
14, 99659, Note_on_c, 7, 79, 0
14, 99659, Note_on_c, 7, 62, 0
14, 99659, Note_on_c, 7, 82, 0
14, 99659, Note_on_c, 7, 74, 0
14, 99659, Note_on_c, 7, 70, 0
14, 99840, Note_on_c, 7, 80, 127
14, 99840, Note_on_c, 7, 71, 127
14, 99840, Note_on_c, 7, 65, 127
14, 99899, Note_on_c, 7, 65, 0
14, 99899, Note_on_c, 7, 71, 0
14, 99899, Note_on_c, 7, 80, 0
14, 99960, Note_on_c, 7, 79, 127
14, 99960, Note_on_c, 7, 72, 127
14, 99960, Note_on_c, 7, 63, 127
14, 100019, Note_on_c, 7, 63, 0
14, 100019, Note_on_c, 7, 72, 0
14, 100019, Note_on_c, 7, 79, 0
14, 100200, Note_on_c, 7, 82, 127
14, 100200, Note_on_c, 7, 79, 127
14, 100200, Note_on_c, 7, 72, 127
14, 100200, Note_on_c, 7, 64, 127
14, 100259, Note_on_c, 7, 64, 0
14, 100259, Note_on_c, 7, 82, 0
14, 100259, Note_on_c, 7, 79, 0
14, 100259, Note_on_c, 7, 72, 0
14, 100440, Note_on_c, 7, 82, 127
14, 100440, Note_on_c, 7, 64, 127
14, 100440, Note_on_c, 7, 72, 127
14, 100440, Note_on_c, 7, 79, 127
14, 100499, Note_on_c, 7, 79, 0
14, 100499, Note_on_c, 7, 82, 0
14, 100499, Note_on_c, 7, 64, 0
14, 100499, Note_on_c, 7, 72, 0
14, 100680, Note_on_c, 7, 82, 127
14, 100680, Note_on_c, 7, 79, 127
14, 100680, Note_on_c, 7, 72, 127
14, 100680, Note_on_c, 7, 64, 127
14, 100739, Note_on_c, 7, 64, 0
14, 100739, Note_on_c, 7, 82, 0
14, 100739, Note_on_c, 7, 79, 0
14, 100739, Note_on_c, 7, 72, 0
14, 100920, Note_on_c, 7, 82, 127
14, 100920, Note_on_c, 7, 64, 127
14, 100920, Note_on_c, 7, 72, 127
14, 100920, Note_on_c, 7, 79, 127
14, 100979, Note_on_c, 7, 79, 0
14, 100979, Note_on_c, 7, 82, 0
14, 100979, Note_on_c, 7, 64, 0
14, 100979, Note_on_c, 7, 72, 0
14, 101160, Note_on_c, 7, 82, 127
14, 101160, Note_on_c, 7, 79, 127
14, 101160, Note_on_c, 7, 72, 127
14, 101160, Note_on_c, 7, 64, 127
14, 101219, Note_on_c, 7, 64, 0
14, 101219, Note_on_c, 7, 82, 0
14, 101219, Note_on_c, 7, 79, 0
14, 101219, Note_on_c, 7, 72, 0
14, 101400, Note_on_c, 7, 82, 127
14, 101400, Note_on_c, 7, 64, 127
14, 101400, Note_on_c, 7, 72, 127
14, 101400, Note_on_c, 7, 79, 127
14, 101459, Note_on_c, 7, 79, 0
14, 101459, Note_on_c, 7, 82, 0
14, 101459, Note_on_c, 7, 64, 0
14, 101459, Note_on_c, 7, 72, 0
14, 101880, Note_on_c, 7, 70, 96
14, 101880, Note_on_c, 7, 64, 96
14, 101909, Note_on_c, 7, 64, 0
14, 101909, Note_on_c, 7, 70, 0
14, 101910, Note_on_c, 7, 64, 48
14, 101910, Note_on_c, 7, 70, 48
14, 102000, Note_on_c, 7, 73, 48
14, 102000, Note_on_c, 7, 61, 48
14, 102009, Note_on_c, 7, 70, 0
14, 102009, Note_on_c, 7, 64, 0
14, 102120, Note_on_c, 7, 76, 48
14, 102120, Note_on_c, 7, 58, 48
14, 102129, Note_on_c, 7, 73, 0
14, 102129, Note_on_c, 7, 61, 0
14, 102239, Note_on_c, 7, 76, 0
14, 102239, Note_on_c, 7, 58, 0
14, 102240, Note_on_c, 7, 77, 48
14, 102240, Note_on_c, 7, 62, 48
14, 102240, Note_on_c, 7, 58, 48
14, 102599, Note_on_c, 7, 58, 0
14, 102599, Note_on_c, 7, 62, 0
14, 102599, Note_on_c, 7, 77, 0
14, 102600, Note_on_c, 7, 70, 96
14, 102600, Note_on_c, 7, 64, 96
14, 102629, Note_on_c, 7, 64, 0
14, 102629, Note_on_c, 7, 70, 0
14, 102630, Note_on_c, 7, 70, 48
14, 102630, Note_on_c, 7, 64, 48
14, 102720, Note_on_c, 7, 73, 48
14, 102720, Note_on_c, 7, 61, 48
14, 102729, Note_on_c, 7, 64, 0
14, 102729, Note_on_c, 7, 70, 0
14, 102840, Note_on_c, 7, 76, 48
14, 102840, Note_on_c, 7, 58, 48
14, 102849, Note_on_c, 7, 73, 0
14, 102849, Note_on_c, 7, 61, 0
14, 103019, Note_on_c, 7, 58, 0
14, 103020, Note_on_c, 7, 55, 48
14, 103049, Note_on_c, 7, 55, 0
14, 103080, Note_on_c, 7, 75, 48
14, 103080, Note_on_c, 7, 58, 48
14, 103089, Note_on_c, 7, 76, 0
14, 103109, Note_on_c, 7, 58, 0
14, 103140, Note_on_c, 7, 63, 48
14, 103169, Note_on_c, 7, 63, 0
14, 103200, Note_on_c, 7, 73, 48
14, 103200, Note_on_c, 7, 55, 48
14, 103209, Note_on_c, 7, 75, 0
14, 103259, Note_on_c, 7, 55, 0
14, 103380, Note_on_c, 7, 56, 48
14, 103409, Note_on_c, 7, 56, 0
14, 103440, Note_on_c, 7, 71, 48
14, 103440, Note_on_c, 7, 60, 48
14, 103449, Note_on_c, 7, 73, 0
14, 103469, Note_on_c, 7, 60, 0
14, 103500, Note_on_c, 7, 63, 48
14, 103529, Note_on_c, 7, 63, 0
14, 103560, Note_on_c, 7, 72, 48
14, 103560, Note_on_c, 7, 56, 48
14, 103569, Note_on_c, 7, 71, 0
14, 103619, Note_on_c, 7, 56, 0
14, 103740, Note_on_c, 7, 57, 48
14, 103769, Note_on_c, 7, 57, 0
14, 103800, Note_on_c, 7, 65, 48
14, 103800, Note_on_c, 7, 60, 48
14, 103809, Note_on_c, 7, 72, 0
14, 103829, Note_on_c, 7, 60, 0
14, 103859, Note_on_c, 7, 65, 0
14, 103860, Note_on_c, 7, 65, 48
14, 103919, Note_on_c, 7, 65, 0
14, 103920, Note_on_c, 7, 75, 48
14, 103920, Note_on_c, 7, 57, 48
14, 103979, Note_on_c, 7, 57, 0
14, 104100, Note_on_c, 7, 58, 48
14, 104129, Note_on_c, 7, 58, 0
14, 104160, Note_on_c, 7, 73, 48
14, 104160, Note_on_c, 7, 62, 48
14, 104169, Note_on_c, 7, 75, 0
14, 104189, Note_on_c, 7, 62, 0
14, 104220, Note_on_c, 7, 65, 48
14, 104249, Note_on_c, 7, 65, 0
14, 104280, Note_on_c, 7, 74, 48
14, 104280, Note_on_c, 7, 70, 48
14, 104289, Note_on_c, 7, 73, 0
14, 104309, Note_on_c, 7, 70, 0
14, 104340, Note_on_c, 7, 66, 48
14, 104369, Note_on_c, 7, 66, 0
14, 104400, Note_on_c, 7, 67, 48
14, 104429, Note_on_c, 7, 67, 0
14, 104430, Note_on_c, 7, 67, 50
14, 104459, Note_on_c, 7, 67, 0
14, 104460, Note_on_c, 7, 66, 52
14, 104460, Note_on_c, 7, 55, 52
14, 104469, Note_on_c, 7, 74, 0
14, 104489, Note_on_c, 7, 55, 0
14, 104490, Note_on_c, 7, 55, 53
14, 104519, Note_on_c, 7, 55, 0
14, 104520, Note_on_c, 7, 67, 55
14, 104529, Note_on_c, 7, 66, 0
14, 104549, Note_on_c, 7, 67, 0
14, 104550, Note_on_c, 7, 67, 56
14, 104579, Note_on_c, 7, 67, 0
14, 104580, Note_on_c, 7, 71, 58
14, 104580, Note_on_c, 7, 67, 58
14, 104609, Note_on_c, 7, 67, 0
14, 104610, Note_on_c, 7, 67, 60
14, 104639, Note_on_c, 7, 67, 0
14, 104640, Note_on_c, 7, 72, 65
14, 104640, Note_on_c, 7, 67, 62
14, 104649, Note_on_c, 7, 71, 0
14, 104669, Note_on_c, 7, 67, 0
14, 104670, Note_on_c, 7, 67, 63
14, 104699, Note_on_c, 7, 67, 0
14, 104700, Note_on_c, 7, 74, 69
14, 104700, Note_on_c, 7, 67, 65
14, 104709, Note_on_c, 7, 72, 0
14, 104729, Note_on_c, 7, 67, 0
14, 104730, Note_on_c, 7, 67, 67
14, 104759, Note_on_c, 7, 67, 0
14, 104760, Note_on_c, 7, 75, 72
14, 104760, Note_on_c, 7, 63, 69
14, 104769, Note_on_c, 7, 74, 0
14, 104789, Note_on_c, 7, 63, 0
14, 104790, Note_on_c, 7, 63, 70
14, 104819, Note_on_c, 7, 63, 0
14, 104820, Note_on_c, 7, 78, 75
14, 104820, Note_on_c, 7, 63, 72
14, 104829, Note_on_c, 7, 75, 0
14, 104849, Note_on_c, 7, 63, 0
14, 104850, Note_on_c, 7, 63, 74
14, 104879, Note_on_c, 7, 63, 0
14, 104880, Note_on_c, 7, 79, 79
14, 104880, Note_on_c, 7, 63, 76
14, 104889, Note_on_c, 7, 78, 0
14, 104909, Note_on_c, 7, 63, 0
14, 104910, Note_on_c, 7, 63, 77
14, 104939, Note_on_c, 7, 63, 0
14, 104940, Note_on_c, 7, 75, 81
14, 104940, Note_on_c, 7, 67, 79
14, 104949, Note_on_c, 7, 79, 0
14, 104969, Note_on_c, 7, 67, 0
14, 104970, Note_on_c, 7, 67, 81
14, 104999, Note_on_c, 7, 67, 0
14, 105000, Note_on_c, 7, 74, 83
14, 105000, Note_on_c, 7, 65, 83
14, 105009, Note_on_c, 7, 75, 0
14, 105029, Note_on_c, 7, 65, 0
14, 105030, Note_on_c, 7, 65, 84
14, 105059, Note_on_c, 7, 65, 0
14, 105060, Note_on_c, 7, 72, 86
14, 105060, Note_on_c, 7, 63, 86
14, 105069, Note_on_c, 7, 74, 0
14, 105089, Note_on_c, 7, 63, 0
14, 105090, Note_on_c, 7, 63, 88
14, 105119, Note_on_c, 7, 63, 0
14, 105120, Note_on_c, 7, 70, 90
14, 105120, Note_on_c, 7, 62, 90
14, 105129, Note_on_c, 7, 72, 0
14, 105149, Note_on_c, 7, 62, 0
14, 105149, Note_on_c, 7, 70, 0
14, 105150, Note_on_c, 7, 70, 91
14, 105150, Note_on_c, 7, 62, 91
14, 105179, Note_on_c, 7, 62, 0
14, 105179, Note_on_c, 7, 70, 0
14, 105180, Note_on_c, 7, 58, 93
14, 105180, Note_on_c, 7, 74, 93
14, 105209, Note_on_c, 7, 74, 0
14, 105209, Note_on_c, 7, 58, 0
14, 105210, Note_on_c, 7, 74, 95
14, 105210, Note_on_c, 7, 58, 95
14, 105239, Note_on_c, 7, 58, 0
14, 105239, Note_on_c, 7, 74, 0
14, 105240, Note_on_c, 7, 77, 97
14, 105240, Note_on_c, 7, 62, 97
14, 105269, Note_on_c, 7, 62, 0
14, 105269, Note_on_c, 7, 77, 0
14, 105270, Note_on_c, 7, 77, 99
14, 105270, Note_on_c, 7, 62, 99
14, 105299, Note_on_c, 7, 62, 0
14, 105299, Note_on_c, 7, 77, 0
14, 105300, Note_on_c, 7, 82, 101
14, 105300, Note_on_c, 7, 65, 101
14, 105329, Note_on_c, 7, 65, 0
14, 105329, Note_on_c, 7, 82, 0
14, 105330, Note_on_c, 7, 82, 103
14, 105330, Note_on_c, 7, 65, 103
14, 105359, Note_on_c, 7, 65, 0
14, 105359, Note_on_c, 7, 82, 0
14, 105360, Note_on_c, 7, 86, 105
14, 105360, Note_on_c, 7, 70, 105
14, 105389, Note_on_c, 7, 70, 0
14, 105389, Note_on_c, 7, 86, 0
14, 105390, Note_on_c, 7, 86, 107
14, 105390, Note_on_c, 7, 70, 107
14, 105419, Note_on_c, 7, 70, 0
14, 105419, Note_on_c, 7, 86, 0
14, 105420, Note_on_c, 7, 89, 109
14, 105420, Note_on_c, 7, 74, 109
14, 105449, Note_on_c, 7, 74, 0
14, 105449, Note_on_c, 7, 89, 0
14, 105450, Note_on_c, 7, 89, 111
14, 105450, Note_on_c, 7, 74, 111
14, 105479, Note_on_c, 7, 74, 0
14, 105479, Note_on_c, 7, 89, 0
14, 105480, Note_on_c, 7, 89, 127
14, 105480, Note_on_c, 7, 75, 127
14, 105509, Note_on_c, 7, 75, 0
14, 105509, Note_on_c, 7, 89, 0
14, 105510, Note_on_c, 7, 89, 127
14, 105510, Note_on_c, 7, 75, 127
14, 105539, Note_on_c, 7, 75, 0
14, 105539, Note_on_c, 7, 89, 0
14, 105540, Note_on_c, 7, 89, 127
14, 105540, Note_on_c, 7, 75, 127
14, 105569, Note_on_c, 7, 75, 0
14, 105569, Note_on_c, 7, 89, 0
14, 105570, Note_on_c, 7, 89, 127
14, 105570, Note_on_c, 7, 75, 127
14, 105599, Note_on_c, 7, 75, 0
14, 105599, Note_on_c, 7, 89, 0
14, 105600, Note_on_c, 7, 89, 127
14, 105600, Note_on_c, 7, 75, 127
14, 105629, Note_on_c, 7, 75, 0
14, 105629, Note_on_c, 7, 89, 0
14, 105630, Note_on_c, 7, 89, 127
14, 105630, Note_on_c, 7, 75, 127
14, 105659, Note_on_c, 7, 75, 0
14, 105659, Note_on_c, 7, 89, 0
14, 105660, Note_on_c, 7, 89, 127
14, 105660, Note_on_c, 7, 75, 127
14, 105689, Note_on_c, 7, 75, 0
14, 105689, Note_on_c, 7, 89, 0
14, 105690, Note_on_c, 7, 89, 127
14, 105690, Note_on_c, 7, 75, 127
14, 105719, Note_on_c, 7, 75, 0
14, 105719, Note_on_c, 7, 89, 0
14, 105720, Note_on_c, 7, 89, 127
14, 105720, Note_on_c, 7, 75, 127
14, 105749, Note_on_c, 7, 75, 0
14, 105749, Note_on_c, 7, 89, 0
14, 105750, Note_on_c, 7, 89, 127
14, 105750, Note_on_c, 7, 75, 127
14, 105779, Note_on_c, 7, 75, 0
14, 105779, Note_on_c, 7, 89, 0
14, 105780, Note_on_c, 7, 89, 127
14, 105780, Note_on_c, 7, 75, 127
14, 105809, Note_on_c, 7, 75, 0
14, 105809, Note_on_c, 7, 89, 0
14, 105810, Note_on_c, 7, 89, 127
14, 105810, Note_on_c, 7, 75, 127
14, 105839, Note_on_c, 7, 75, 0
14, 105839, Note_on_c, 7, 89, 0
14, 105840, Note_on_c, 7, 82, 96
14, 105840, Note_on_c, 7, 70, 96
14, 105840, Note_on_c, 7, 74, 96
14, 105899, Note_on_c, 7, 74, 0
14, 105899, Note_on_c, 7, 70, 0
14, 105899, Note_on_c, 7, 82, 0
14, 105960, Note_on_c, 7, 65, 96
14, 106019, Note_on_c, 7, 65, 0
14, 106080, Note_on_c, 7, 62, 96
14, 106139, Note_on_c, 7, 62, 0
14, 106200, Note_on_c, 7, 82, 96
14, 106200, Note_on_c, 7, 70, 96
14, 106259, Note_on_c, 7, 70, 0
14, 106259, Note_on_c, 7, 82, 0
14, 106320, Note_on_c, 7, 67, 112
14, 106379, Note_on_c, 7, 67, 0
14, 106440, Note_on_c, 7, 63, 96
14, 106499, Note_on_c, 7, 63, 0
14, 106560, Note_on_c, 7, 70, 96
14, 106560, Note_on_c, 7, 82, 96
14, 106619, Note_on_c, 7, 82, 0
14, 106619, Note_on_c, 7, 70, 0
14, 106680, Note_on_c, 7, 65, 112
14, 106739, Note_on_c, 7, 65, 0
14, 106800, Note_on_c, 7, 62, 96
14, 106859, Note_on_c, 7, 62, 0
14, 106920, Note_on_c, 7, 82, 96
14, 106920, Note_on_c, 7, 70, 96
14, 106920, Note_on_c, 7, 69, 96
14, 106920, Note_on_c, 7, 66, 96
14, 106979, Note_on_c, 7, 66, 0
14, 106979, Note_on_c, 7, 82, 0
14, 106979, Note_on_c, 7, 70, 0
14, 106979, Note_on_c, 7, 69, 0
14, 107040, Note_on_c, 7, 70, 96
14, 107040, Note_on_c, 7, 82, 96
14, 107040, Note_on_c, 7, 66, 96
14, 107040, Note_on_c, 7, 69, 96
14, 107099, Note_on_c, 7, 69, 0
14, 107099, Note_on_c, 7, 70, 0
14, 107099, Note_on_c, 7, 82, 0
14, 107099, Note_on_c, 7, 66, 0
14, 107160, Note_on_c, 7, 82, 96
14, 107160, Note_on_c, 7, 70, 96
14, 107160, Note_on_c, 7, 69, 96
14, 107160, Note_on_c, 7, 66, 96
14, 107219, Note_on_c, 7, 66, 0
14, 107219, Note_on_c, 7, 82, 0
14, 107219, Note_on_c, 7, 70, 0
14, 107219, Note_on_c, 7, 69, 0
14, 107280, Note_on_c, 7, 82, 96
14, 107280, Note_on_c, 7, 70, 96
14, 107309, Note_on_c, 7, 70, 0
14, 107309, Note_on_c, 7, 82, 0
14, 107310, Note_on_c, 7, 82, 48
14, 107310, Note_on_c, 7, 70, 48
14, 107520, Note_on_c, 7, 86, 48
14, 107520, Note_on_c, 7, 74, 48
14, 107529, Note_on_c, 7, 70, 0
14, 107529, Note_on_c, 7, 82, 0
14, 107640, Note_on_c, 7, 82, 48
14, 107640, Note_on_c, 7, 70, 48
14, 107649, Note_on_c, 7, 86, 0
14, 107649, Note_on_c, 7, 74, 0
14, 107880, Note_on_c, 7, 77, 48
14, 107880, Note_on_c, 7, 65, 48
14, 107889, Note_on_c, 7, 82, 0
14, 107889, Note_on_c, 7, 70, 0
14, 107999, Note_on_c, 7, 77, 0
14, 107999, Note_on_c, 7, 65, 0
14, 108000, Note_on_c, 7, 68, 48
14, 108240, Note_on_c, 7, 72, 48
14, 108249, Note_on_c, 7, 68, 0
14, 108360, Note_on_c, 7, 68, 48
14, 108369, Note_on_c, 7, 72, 0
14, 108420, Note_on_c, 7, 62, 48
14, 108480, Note_on_c, 7, 65, 48
14, 108489, Note_on_c, 7, 62, 0
14, 108539, Note_on_c, 7, 68, 0
14, 108540, Note_on_c, 7, 68, 48
14, 108549, Note_on_c, 7, 65, 0
14, 108600, Note_on_c, 7, 74, 48
14, 108600, Note_on_c, 7, 65, 48
14, 108609, Note_on_c, 7, 68, 0
14, 108660, Note_on_c, 7, 77, 48
14, 108669, Note_on_c, 7, 74, 0
14, 108719, Note_on_c, 7, 65, 0
14, 108720, Note_on_c, 7, 80, 48
14, 108720, Note_on_c, 7, 62, 32
14, 108729, Note_on_c, 7, 77, 0
14, 108839, Note_on_c, 7, 80, 0
14, 108960, Note_on_c, 7, 59, 32
14, 108969, Note_on_c, 7, 62, 0
14, 109080, Note_on_c, 7, 57, 32
14, 109089, Note_on_c, 7, 59, 0
14, 109320, Note_on_c, 7, 58, 32
14, 109329, Note_on_c, 7, 57, 0
14, 109439, Note_on_c, 7, 58, 0
14, 109440, Note_on_c, 7, 56, 32
14, 109680, Note_on_c, 7, 67, 32
14, 109800, Note_on_c, 7, 64, 32
14, 109800, Note_on_c, 7, 60, 32
14, 109809, Note_on_c, 7, 67, 0
14, 109809, Note_on_c, 7, 56, 0
14, 110040, Note_on_c, 7, 65, 32
14, 110049, Note_on_c, 7, 64, 0
14, 110159, Note_on_c, 7, 65, 0
14, 110159, Note_on_c, 7, 60, 0
14, 110160, Note_on_c, 7, 65, 32
14, 110160, Note_on_c, 7, 59, 32
14, 110279, Note_on_c, 7, 65, 0
14, 110879, Note_on_c, 7, 59, 0
14, 110880, Note_on_c, 7, 60, 32
14, 111120, Note_on_c, 7, 67, 32
14, 111240, Note_on_c, 7, 64, 32
14, 111249, Note_on_c, 7, 67, 0
14, 111480, Note_on_c, 7, 65, 32
14, 111489, Note_on_c, 7, 64, 0
14, 111599, Note_on_c, 7, 65, 0
14, 111599, Note_on_c, 7, 60, 0
14, 111600, Note_on_c, 7, 65, 32
14, 111600, Note_on_c, 7, 59, 32
14, 111719, Note_on_c, 7, 59, 0
14, 111719, Note_on_c, 7, 65, 0
14, 111840, Note_on_c, 7, 77, 32
14, 111840, Note_on_c, 7, 74, 32
14, 112199, Note_on_c, 7, 74, 0
14, 112199, Note_on_c, 7, 77, 0
14, 112200, Note_on_c, 7, 74, 32
14, 112200, Note_on_c, 7, 71, 32
14, 112559, Note_on_c, 7, 71, 0
14, 112559, Note_on_c, 7, 74, 0
14, 112560, Note_on_c, 7, 71, 32
14, 112560, Note_on_c, 7, 65, 32
14, 112919, Note_on_c, 7, 65, 0
14, 112919, Note_on_c, 7, 71, 0
14, 112920, Note_on_c, 7, 65, 32
14, 112920, Note_on_c, 7, 62, 32
14, 113279, Note_on_c, 7, 62, 0
14, 113279, Note_on_c, 7, 65, 0
14, 113280, Note_on_c, 7, 63, 80
14, 113280, Note_on_c, 7, 60, 80
14, 113639, Note_on_c, 7, 60, 0
14, 113639, Note_on_c, 7, 63, 0
14, 113640, Note_on_c, 7, 66, 64
14, 113640, Note_on_c, 7, 63, 64
14, 113640, Note_on_c, 7, 60, 64
14, 113759, Note_on_c, 7, 60, 0
14, 113759, Note_on_c, 7, 63, 0
14, 113760, Note_on_c, 7, 67, 48
14, 113760, Note_on_c, 7, 62, 48
14, 113769, Note_on_c, 7, 66, 0
14, 113819, Note_on_c, 7, 67, 0
14, 113820, Note_on_c, 7, 67, 48
14, 113829, Note_on_c, 7, 62, 0
14, 113880, Note_on_c, 7, 62, 48
14, 113889, Note_on_c, 7, 67, 0
14, 113940, Note_on_c, 7, 67, 48
14, 113949, Note_on_c, 7, 62, 0
14, 114000, Note_on_c, 7, 62, 48
14, 114009, Note_on_c, 7, 67, 0
14, 114060, Note_on_c, 7, 67, 48
14, 114069, Note_on_c, 7, 62, 0
14, 114119, Note_on_c, 7, 67, 0
14, 114120, Note_on_c, 7, 67, 96
14, 114120, Note_on_c, 7, 62, 48
14, 114149, Note_on_c, 7, 67, 0
14, 114150, Note_on_c, 7, 67, 48
14, 114179, Note_on_c, 7, 67, 0
14, 114180, Note_on_c, 7, 67, 48
14, 114189, Note_on_c, 7, 62, 0
14, 114240, Note_on_c, 7, 62, 48
14, 114299, Note_on_c, 7, 67, 0
14, 114300, Note_on_c, 7, 67, 48
14, 114309, Note_on_c, 7, 62, 0
14, 114360, Note_on_c, 7, 62, 48
14, 114419, Note_on_c, 7, 67, 0
14, 114420, Note_on_c, 7, 67, 48
14, 114429, Note_on_c, 7, 62, 0
14, 114480, Note_on_c, 7, 65, 48
14, 114539, Note_on_c, 7, 67, 0
14, 114540, Note_on_c, 7, 69, 48
14, 114540, Note_on_c, 7, 67, 48
14, 114549, Note_on_c, 7, 65, 0
14, 114569, Note_on_c, 7, 69, 0
14, 114600, Note_on_c, 7, 71, 48
14, 114600, Note_on_c, 7, 65, 48
14, 114609, Note_on_c, 7, 67, 0
14, 114629, Note_on_c, 7, 71, 0
14, 114660, Note_on_c, 7, 72, 48
14, 114660, Note_on_c, 7, 67, 48
14, 114669, Note_on_c, 7, 65, 0
14, 114689, Note_on_c, 7, 72, 0
14, 114720, Note_on_c, 7, 74, 48
14, 114720, Note_on_c, 7, 65, 48
14, 114729, Note_on_c, 7, 67, 0
14, 114749, Note_on_c, 7, 74, 0
14, 114780, Note_on_c, 7, 76, 48
14, 114780, Note_on_c, 7, 67, 48
14, 114789, Note_on_c, 7, 65, 0
14, 114809, Note_on_c, 7, 76, 0
14, 114839, Note_on_c, 7, 67, 0
14, 114840, Note_on_c, 7, 77, 48
14, 114840, Note_on_c, 7, 65, 48
14, 114899, Note_on_c, 7, 77, 0
14, 114900, Note_on_c, 7, 67, 48
14, 114909, Note_on_c, 7, 65, 0
14, 114960, Note_on_c, 7, 86, 48
14, 114960, Note_on_c, 7, 62, 48
14, 114969, Note_on_c, 7, 67, 0
14, 115020, Note_on_c, 7, 67, 48
14, 115029, Note_on_c, 7, 62, 0
14, 115080, Note_on_c, 7, 62, 48
14, 115089, Note_on_c, 7, 67, 0
14, 115140, Note_on_c, 7, 77, 48
14, 115140, Note_on_c, 7, 67, 48
14, 115149, Note_on_c, 7, 62, 0
14, 115149, Note_on_c, 7, 86, 0
14, 115199, Note_on_c, 7, 77, 0
14, 115199, Note_on_c, 7, 67, 0
14, 115200, Note_on_c, 7, 76, 48
14, 115200, Note_on_c, 7, 64, 48
14, 115260, Note_on_c, 7, 67, 48
14, 115269, Note_on_c, 7, 64, 0
14, 115319, Note_on_c, 7, 76, 0
14, 115320, Note_on_c, 7, 64, 48
14, 115329, Note_on_c, 7, 67, 0
14, 115380, Note_on_c, 7, 67, 48
14, 115389, Note_on_c, 7, 64, 0
14, 115440, Note_on_c, 7, 64, 48
14, 115449, Note_on_c, 7, 67, 0
14, 115500, Note_on_c, 7, 67, 48
14, 115509, Note_on_c, 7, 64, 0
14, 115559, Note_on_c, 7, 67, 0
14, 115560, Note_on_c, 7, 67, 96
14, 115560, Note_on_c, 7, 64, 48
14, 115589, Note_on_c, 7, 67, 0
14, 115590, Note_on_c, 7, 67, 48
14, 115619, Note_on_c, 7, 67, 0
14, 115620, Note_on_c, 7, 67, 48
14, 115629, Note_on_c, 7, 64, 0
14, 115680, Note_on_c, 7, 64, 48
14, 115739, Note_on_c, 7, 67, 0
14, 115740, Note_on_c, 7, 67, 48
14, 115749, Note_on_c, 7, 64, 0
14, 115800, Note_on_c, 7, 64, 48
14, 115859, Note_on_c, 7, 67, 0
14, 115860, Note_on_c, 7, 67, 48
14, 115869, Note_on_c, 7, 64, 0
14, 115920, Note_on_c, 7, 64, 48
14, 115979, Note_on_c, 7, 67, 0
14, 115980, Note_on_c, 7, 71, 48
14, 115980, Note_on_c, 7, 67, 48
14, 115989, Note_on_c, 7, 64, 0
14, 116009, Note_on_c, 7, 71, 0
14, 116040, Note_on_c, 7, 72, 48
14, 116040, Note_on_c, 7, 64, 48
14, 116049, Note_on_c, 7, 67, 0
14, 116069, Note_on_c, 7, 72, 0
14, 116100, Note_on_c, 7, 74, 48
14, 116100, Note_on_c, 7, 67, 48
14, 116109, Note_on_c, 7, 64, 0
14, 116129, Note_on_c, 7, 74, 0
14, 116160, Note_on_c, 7, 76, 48
14, 116160, Note_on_c, 7, 64, 48
14, 116169, Note_on_c, 7, 67, 0
14, 116189, Note_on_c, 7, 76, 0
14, 116220, Note_on_c, 7, 77, 48
14, 116220, Note_on_c, 7, 67, 48
14, 116229, Note_on_c, 7, 64, 0
14, 116249, Note_on_c, 7, 77, 0
14, 116279, Note_on_c, 7, 67, 0
14, 116280, Note_on_c, 7, 79, 48
14, 116280, Note_on_c, 7, 64, 48
14, 116339, Note_on_c, 7, 79, 0
14, 116340, Note_on_c, 7, 67, 48
14, 116349, Note_on_c, 7, 64, 0
14, 116400, Note_on_c, 7, 84, 48
14, 116400, Note_on_c, 7, 64, 48
14, 116409, Note_on_c, 7, 67, 0
14, 116460, Note_on_c, 7, 67, 48
14, 116469, Note_on_c, 7, 64, 0
14, 116520, Note_on_c, 7, 64, 48
14, 116529, Note_on_c, 7, 67, 0
14, 116580, Note_on_c, 7, 76, 48
14, 116580, Note_on_c, 7, 67, 48
14, 116589, Note_on_c, 7, 64, 0
14, 116589, Note_on_c, 7, 84, 0
14, 116639, Note_on_c, 7, 76, 0
14, 116639, Note_on_c, 7, 67, 0
14, 116640, Note_on_c, 7, 77, 48
14, 116640, Note_on_c, 7, 65, 48
14, 116699, Note_on_c, 7, 77, 0
14, 116700, Note_on_c, 7, 67, 48
14, 116709, Note_on_c, 7, 65, 0
14, 116760, Note_on_c, 7, 79, 48
14, 116760, Note_on_c, 7, 65, 48
14, 116769, Note_on_c, 7, 67, 0
14, 116820, Note_on_c, 7, 67, 48
14, 116829, Note_on_c, 7, 65, 0
14, 116880, Note_on_c, 7, 65, 48
14, 116889, Note_on_c, 7, 67, 0
14, 116940, Note_on_c, 7, 77, 48
14, 116940, Note_on_c, 7, 67, 48
14, 116949, Note_on_c, 7, 65, 0
14, 116949, Note_on_c, 7, 79, 0
14, 116999, Note_on_c, 7, 77, 0
14, 116999, Note_on_c, 7, 67, 0
14, 117000, Note_on_c, 7, 76, 48
14, 117000, Note_on_c, 7, 65, 48
14, 117059, Note_on_c, 7, 76, 0
14, 117060, Note_on_c, 7, 67, 48
14, 117069, Note_on_c, 7, 65, 0
14, 117120, Note_on_c, 7, 77, 48
14, 117120, Note_on_c, 7, 65, 48
14, 117129, Note_on_c, 7, 67, 0
14, 117180, Note_on_c, 7, 67, 48
14, 117189, Note_on_c, 7, 65, 0
14, 117240, Note_on_c, 7, 65, 48
14, 117249, Note_on_c, 7, 67, 0
14, 117300, Note_on_c, 7, 74, 48
14, 117300, Note_on_c, 7, 67, 48
14, 117309, Note_on_c, 7, 65, 0
14, 117309, Note_on_c, 7, 77, 0
14, 117359, Note_on_c, 7, 74, 0
14, 117359, Note_on_c, 7, 67, 0
14, 117360, Note_on_c, 7, 71, 48
14, 117360, Note_on_c, 7, 65, 48
14, 117419, Note_on_c, 7, 71, 0
14, 117420, Note_on_c, 7, 67, 48
14, 117429, Note_on_c, 7, 65, 0
14, 117480, Note_on_c, 7, 74, 48
14, 117480, Note_on_c, 7, 62, 48
14, 117489, Note_on_c, 7, 67, 0
14, 117540, Note_on_c, 7, 67, 48
14, 117549, Note_on_c, 7, 62, 0
14, 117600, Note_on_c, 7, 62, 48
14, 117609, Note_on_c, 7, 67, 0
14, 117660, Note_on_c, 7, 71, 48
14, 117660, Note_on_c, 7, 67, 48
14, 117669, Note_on_c, 7, 62, 0
14, 117669, Note_on_c, 7, 74, 0
14, 117719, Note_on_c, 7, 71, 0
14, 117719, Note_on_c, 7, 67, 0
14, 117720, Note_on_c, 7, 67, 48
14, 117720, Note_on_c, 7, 62, 48
14, 117779, Note_on_c, 7, 67, 0
14, 117780, Note_on_c, 7, 67, 48
14, 117789, Note_on_c, 7, 62, 0
14, 117840, Note_on_c, 7, 74, 48
14, 117840, Note_on_c, 7, 65, 48
14, 117849, Note_on_c, 7, 67, 0
14, 117900, Note_on_c, 7, 67, 48
14, 117909, Note_on_c, 7, 65, 0
14, 117960, Note_on_c, 7, 65, 48
14, 117969, Note_on_c, 7, 67, 0
14, 118019, Note_on_c, 7, 65, 0
14, 118020, Note_on_c, 7, 65, 48
14, 118020, Note_on_c, 7, 67, 48
14, 118029, Note_on_c, 7, 74, 0
14, 118079, Note_on_c, 7, 67, 0
14, 118079, Note_on_c, 7, 65, 0
14, 118080, Note_on_c, 7, 63, 32
14, 118110, Note_on_c, 7, 67, 32
14, 118139, Note_on_c, 7, 67, 0
14, 118140, Note_on_c, 7, 67, 32
14, 118169, Note_on_c, 7, 67, 0
14, 118170, Note_on_c, 7, 67, 32
14, 118199, Note_on_c, 7, 67, 0
14, 118199, Note_on_c, 7, 63, 0
14, 118200, Note_on_c, 7, 67, 32
14, 118229, Note_on_c, 7, 67, 0
14, 118230, Note_on_c, 7, 67, 32
14, 118259, Note_on_c, 7, 67, 0
14, 118260, Note_on_c, 7, 67, 32
14, 118289, Note_on_c, 7, 67, 0
14, 118290, Note_on_c, 7, 67, 32
14, 118319, Note_on_c, 7, 67, 0
14, 118320, Note_on_c, 7, 67, 32
14, 118349, Note_on_c, 7, 67, 0
14, 118350, Note_on_c, 7, 67, 32
14, 118379, Note_on_c, 7, 67, 0
14, 118380, Note_on_c, 7, 67, 32
14, 118409, Note_on_c, 7, 67, 0
14, 118410, Note_on_c, 7, 67, 32
14, 118439, Note_on_c, 7, 67, 0
14, 118440, Note_on_c, 7, 67, 32
14, 118469, Note_on_c, 7, 67, 0
14, 118470, Note_on_c, 7, 67, 32
14, 118499, Note_on_c, 7, 67, 0
14, 118500, Note_on_c, 7, 67, 32
14, 118529, Note_on_c, 7, 67, 0
14, 118530, Note_on_c, 7, 67, 32
14, 118559, Note_on_c, 7, 67, 0
14, 118560, Note_on_c, 7, 67, 32
14, 118589, Note_on_c, 7, 67, 0
14, 118590, Note_on_c, 7, 67, 32
14, 118619, Note_on_c, 7, 67, 0
14, 118620, Note_on_c, 7, 67, 32
14, 118649, Note_on_c, 7, 67, 0
14, 118650, Note_on_c, 7, 67, 32
14, 118679, Note_on_c, 7, 67, 0
14, 118680, Note_on_c, 7, 67, 32
14, 118709, Note_on_c, 7, 67, 0
14, 118710, Note_on_c, 7, 67, 32
14, 118739, Note_on_c, 7, 67, 0
14, 118740, Note_on_c, 7, 67, 32
14, 118769, Note_on_c, 7, 67, 0
14, 118770, Note_on_c, 7, 67, 32
14, 118799, Note_on_c, 7, 67, 0
14, 118800, Note_on_c, 7, 72, 32
14, 118800, Note_on_c, 7, 67, 32
14, 118829, Note_on_c, 7, 67, 0
14, 118830, Note_on_c, 7, 67, 32
14, 118859, Note_on_c, 7, 67, 0
14, 118860, Note_on_c, 7, 67, 32
14, 118889, Note_on_c, 7, 67, 0
14, 118890, Note_on_c, 7, 67, 32
14, 118919, Note_on_c, 7, 67, 0
14, 118920, Note_on_c, 7, 75, 32
14, 118920, Note_on_c, 7, 67, 32
14, 118929, Note_on_c, 7, 72, 0
14, 118949, Note_on_c, 7, 67, 0
14, 118950, Note_on_c, 7, 67, 32
14, 118979, Note_on_c, 7, 67, 0
14, 118980, Note_on_c, 7, 67, 32
14, 119009, Note_on_c, 7, 67, 0
14, 119010, Note_on_c, 7, 67, 32
14, 119039, Note_on_c, 7, 67, 0
14, 119040, Note_on_c, 7, 79, 32
14, 119040, Note_on_c, 7, 67, 32
14, 119049, Note_on_c, 7, 75, 0
14, 119069, Note_on_c, 7, 67, 0
14, 119070, Note_on_c, 7, 67, 32
14, 119099, Note_on_c, 7, 67, 0
14, 119100, Note_on_c, 7, 67, 32
14, 119129, Note_on_c, 7, 67, 0
14, 119130, Note_on_c, 7, 67, 32
14, 119159, Note_on_c, 7, 67, 0
14, 119159, Note_on_c, 7, 79, 0
14, 119160, Note_on_c, 7, 80, 40
14, 119160, Note_on_c, 7, 68, 34
14, 119189, Note_on_c, 7, 68, 0
14, 119190, Note_on_c, 7, 68, 35
14, 119219, Note_on_c, 7, 68, 0
14, 119220, Note_on_c, 7, 68, 36
14, 119249, Note_on_c, 7, 68, 0
14, 119250, Note_on_c, 7, 68, 37
14, 119279, Note_on_c, 7, 68, 0
14, 119280, Note_on_c, 7, 68, 39
14, 119309, Note_on_c, 7, 68, 0
14, 119310, Note_on_c, 7, 68, 40
14, 119339, Note_on_c, 7, 68, 0
14, 119340, Note_on_c, 7, 68, 41
14, 119369, Note_on_c, 7, 68, 0
14, 119370, Note_on_c, 7, 68, 42
14, 119399, Note_on_c, 7, 68, 0
14, 119400, Note_on_c, 7, 68, 44
14, 119429, Note_on_c, 7, 68, 0
14, 119430, Note_on_c, 7, 68, 45
14, 119459, Note_on_c, 7, 68, 0
14, 119460, Note_on_c, 7, 68, 46
14, 119489, Note_on_c, 7, 68, 0
14, 119490, Note_on_c, 7, 68, 47
14, 119519, Note_on_c, 7, 68, 0
14, 119520, Note_on_c, 7, 68, 48
14, 119549, Note_on_c, 7, 68, 0
14, 119550, Note_on_c, 7, 68, 48
14, 119579, Note_on_c, 7, 68, 0
14, 119580, Note_on_c, 7, 68, 48
14, 119609, Note_on_c, 7, 68, 0
14, 119610, Note_on_c, 7, 68, 48
14, 119639, Note_on_c, 7, 68, 0
14, 119639, Note_on_c, 7, 80, 0
14, 119640, Note_on_c, 7, 68, 48
14, 119669, Note_on_c, 7, 68, 0
14, 119670, Note_on_c, 7, 68, 48
14, 119699, Note_on_c, 7, 68, 0
14, 119700, Note_on_c, 7, 68, 48
14, 119729, Note_on_c, 7, 68, 0
14, 119730, Note_on_c, 7, 68, 48
14, 119759, Note_on_c, 7, 68, 0
14, 119760, Note_on_c, 7, 68, 48
14, 119789, Note_on_c, 7, 68, 0
14, 119790, Note_on_c, 7, 68, 48
14, 119819, Note_on_c, 7, 68, 0
14, 119820, Note_on_c, 7, 68, 48
14, 119849, Note_on_c, 7, 68, 0
14, 119850, Note_on_c, 7, 68, 48
14, 119879, Note_on_c, 7, 68, 0
14, 119880, Note_on_c, 7, 68, 48
14, 119909, Note_on_c, 7, 68, 0
14, 119910, Note_on_c, 7, 68, 48
14, 119939, Note_on_c, 7, 68, 0
14, 119940, Note_on_c, 7, 68, 48
14, 119969, Note_on_c, 7, 68, 0
14, 119970, Note_on_c, 7, 68, 48
14, 119999, Note_on_c, 7, 68, 0
14, 120000, Note_on_c, 7, 68, 48
14, 120029, Note_on_c, 7, 68, 0
14, 120030, Note_on_c, 7, 68, 48
14, 120059, Note_on_c, 7, 68, 0
14, 120060, Note_on_c, 7, 68, 48
14, 120089, Note_on_c, 7, 68, 0
14, 120090, Note_on_c, 7, 68, 48
14, 120119, Note_on_c, 7, 68, 0
14, 120120, Note_on_c, 7, 68, 48
14, 120149, Note_on_c, 7, 68, 0
14, 120150, Note_on_c, 7, 68, 48
14, 120179, Note_on_c, 7, 68, 0
14, 120180, Note_on_c, 7, 68, 48
14, 120209, Note_on_c, 7, 68, 0
14, 120210, Note_on_c, 7, 68, 48
14, 120239, Note_on_c, 7, 68, 0
14, 120240, Note_on_c, 7, 73, 48
14, 120240, Note_on_c, 7, 68, 48
14, 120269, Note_on_c, 7, 68, 0
14, 120270, Note_on_c, 7, 68, 48
14, 120299, Note_on_c, 7, 68, 0
14, 120300, Note_on_c, 7, 68, 48
14, 120329, Note_on_c, 7, 68, 0
14, 120330, Note_on_c, 7, 68, 48
14, 120359, Note_on_c, 7, 68, 0
14, 120360, Note_on_c, 7, 76, 48
14, 120360, Note_on_c, 7, 68, 48
14, 120369, Note_on_c, 7, 73, 0
14, 120389, Note_on_c, 7, 68, 0
14, 120390, Note_on_c, 7, 68, 48
14, 120419, Note_on_c, 7, 68, 0
14, 120420, Note_on_c, 7, 68, 48
14, 120449, Note_on_c, 7, 68, 0
14, 120450, Note_on_c, 7, 68, 48
14, 120479, Note_on_c, 7, 68, 0
14, 120480, Note_on_c, 7, 80, 48
14, 120480, Note_on_c, 7, 68, 48
14, 120489, Note_on_c, 7, 76, 0
14, 120509, Note_on_c, 7, 68, 0
14, 120510, Note_on_c, 7, 68, 48
14, 120539, Note_on_c, 7, 68, 0
14, 120540, Note_on_c, 7, 68, 48
14, 120569, Note_on_c, 7, 68, 0
14, 120570, Note_on_c, 7, 68, 48
14, 120599, Note_on_c, 7, 68, 0
14, 120599, Note_on_c, 7, 80, 0
14, 120600, Note_on_c, 7, 81, 72
14, 120600, Note_on_c, 7, 69, 49
14, 120629, Note_on_c, 7, 69, 0
14, 120630, Note_on_c, 7, 69, 56
14, 120659, Note_on_c, 7, 69, 0
14, 120660, Note_on_c, 7, 69, 63
14, 120689, Note_on_c, 7, 69, 0
14, 120690, Note_on_c, 7, 69, 69
14, 120719, Note_on_c, 7, 69, 0
14, 120720, Note_on_c, 7, 69, 76
14, 120749, Note_on_c, 7, 69, 0
14, 120750, Note_on_c, 7, 69, 83
14, 120779, Note_on_c, 7, 69, 0
14, 120780, Note_on_c, 7, 69, 89
14, 120809, Note_on_c, 7, 69, 0
14, 120810, Note_on_c, 7, 69, 95
14, 120839, Note_on_c, 7, 69, 0
14, 120840, Note_on_c, 7, 69, 102
14, 120869, Note_on_c, 7, 69, 0
14, 120870, Note_on_c, 7, 69, 109
14, 120899, Note_on_c, 7, 69, 0
14, 120900, Note_on_c, 7, 69, 115
14, 120929, Note_on_c, 7, 69, 0
14, 120930, Note_on_c, 7, 69, 121
14, 120959, Note_on_c, 7, 69, 0
14, 120960, Note_on_c, 7, 69, 127
14, 121019, Note_on_c, 7, 69, 0
14, 121019, Note_on_c, 7, 81, 0
14, 121020, Note_on_c, 7, 77, 127
14, 121020, Note_on_c, 7, 81, 127
14, 121020, Note_on_c, 7, 69, 127
14, 121050, Note_on_c, 7, 79, 127
14, 121059, Note_on_c, 7, 77, 0
14, 121079, Note_on_c, 7, 79, 0
14, 121080, Note_on_c, 7, 77, 127
14, 121109, Note_on_c, 7, 77, 0
14, 121139, Note_on_c, 7, 69, 0
14, 121139, Note_on_c, 7, 81, 0
14, 121140, Note_on_c, 7, 74, 127
14, 121140, Note_on_c, 7, 69, 127
14, 121140, Note_on_c, 7, 81, 127
14, 121170, Note_on_c, 7, 75, 127
14, 121179, Note_on_c, 7, 74, 0
14, 121199, Note_on_c, 7, 75, 0
14, 121200, Note_on_c, 7, 74, 127
14, 121229, Note_on_c, 7, 74, 0
14, 121259, Note_on_c, 7, 81, 0
14, 121259, Note_on_c, 7, 69, 0
14, 121260, Note_on_c, 7, 81, 127
14, 121260, Note_on_c, 7, 69, 127
14, 121290, Note_on_c, 7, 70, 127
14, 121319, Note_on_c, 7, 70, 0
14, 121319, Note_on_c, 7, 69, 0
14, 121320, Note_on_c, 7, 69, 127
14, 121379, Note_on_c, 7, 69, 0
14, 121379, Note_on_c, 7, 81, 0
14, 121380, Note_on_c, 7, 65, 127
14, 121380, Note_on_c, 7, 69, 127
14, 121380, Note_on_c, 7, 81, 127
14, 121410, Note_on_c, 7, 67, 127
14, 121419, Note_on_c, 7, 65, 0
14, 121439, Note_on_c, 7, 67, 0
14, 121440, Note_on_c, 7, 65, 127
14, 121469, Note_on_c, 7, 65, 0
14, 121499, Note_on_c, 7, 81, 0
14, 121499, Note_on_c, 7, 69, 0
14, 121500, Note_on_c, 7, 62, 127
14, 121500, Note_on_c, 7, 81, 127
14, 121500, Note_on_c, 7, 69, 127
14, 121530, Note_on_c, 7, 65, 127
14, 121539, Note_on_c, 7, 62, 0
14, 121559, Note_on_c, 7, 65, 0
14, 121559, Note_on_c, 7, 69, 0
14, 121560, Note_on_c, 7, 69, 127
14, 121619, Note_on_c, 7, 69, 0
14, 121619, Note_on_c, 7, 81, 0
14, 121620, Note_on_c, 7, 74, 127
14, 121620, Note_on_c, 7, 69, 127
14, 121620, Note_on_c, 7, 81, 127
14, 121650, Note_on_c, 7, 77, 127
14, 121659, Note_on_c, 7, 74, 0
14, 121679, Note_on_c, 7, 69, 0
14, 121679, Note_on_c, 7, 81, 0
14, 121679, Note_on_c, 7, 77, 0
14, 121680, Note_on_c, 7, 81, 127
14, 121680, Note_on_c, 7, 69, 127
14, 121739, Note_on_c, 7, 69, 0
14, 121739, Note_on_c, 7, 81, 0
14, 121740, Note_on_c, 7, 69, 127
14, 121740, Note_on_c, 7, 81, 127
14, 121740, Note_on_c, 7, 77, 127
14, 121770, Note_on_c, 7, 79, 127
14, 121779, Note_on_c, 7, 77, 0
14, 121799, Note_on_c, 7, 79, 0
14, 121800, Note_on_c, 7, 77, 127
14, 121829, Note_on_c, 7, 77, 0
14, 121859, Note_on_c, 7, 81, 0
14, 121859, Note_on_c, 7, 69, 0
14, 121860, Note_on_c, 7, 81, 127
14, 121860, Note_on_c, 7, 69, 127
14, 121860, Note_on_c, 7, 74, 127
14, 121890, Note_on_c, 7, 75, 127
14, 121899, Note_on_c, 7, 74, 0
14, 121919, Note_on_c, 7, 75, 0
14, 121920, Note_on_c, 7, 74, 127
14, 121949, Note_on_c, 7, 74, 0
14, 121979, Note_on_c, 7, 69, 0
14, 121979, Note_on_c, 7, 81, 0
14, 121980, Note_on_c, 7, 81, 127
14, 121980, Note_on_c, 7, 69, 127
14, 122010, Note_on_c, 7, 70, 127
14, 122039, Note_on_c, 7, 70, 0
14, 122039, Note_on_c, 7, 69, 0
14, 122040, Note_on_c, 7, 69, 127
14, 122099, Note_on_c, 7, 69, 0
14, 122099, Note_on_c, 7, 81, 0
14, 122100, Note_on_c, 7, 69, 127
14, 122100, Note_on_c, 7, 81, 127
14, 122100, Note_on_c, 7, 65, 127
14, 122130, Note_on_c, 7, 67, 127
14, 122139, Note_on_c, 7, 65, 0
14, 122159, Note_on_c, 7, 67, 0
14, 122160, Note_on_c, 7, 65, 127
14, 122189, Note_on_c, 7, 65, 0
14, 122219, Note_on_c, 7, 81, 0
14, 122219, Note_on_c, 7, 69, 0
14, 122220, Note_on_c, 7, 81, 127
14, 122220, Note_on_c, 7, 69, 127
14, 122250, Note_on_c, 7, 74, 127
14, 122279, Note_on_c, 7, 74, 0
14, 122280, Note_on_c, 7, 77, 127
14, 122309, Note_on_c, 7, 77, 0
14, 122339, Note_on_c, 7, 69, 0
14, 122339, Note_on_c, 7, 81, 0
14, 122340, Note_on_c, 7, 69, 127
14, 122340, Note_on_c, 7, 81, 127
14, 122340, Note_on_c, 7, 76, 127
14, 122370, Note_on_c, 7, 74, 127
14, 122379, Note_on_c, 7, 76, 0
14, 122399, Note_on_c, 7, 74, 0
14, 122400, Note_on_c, 7, 73, 127
14, 122429, Note_on_c, 7, 73, 0
14, 122459, Note_on_c, 7, 81, 0
14, 122459, Note_on_c, 7, 69, 0
14, 122460, Note_on_c, 7, 67, 127
14, 122460, Note_on_c, 7, 81, 127
14, 122460, Note_on_c, 7, 69, 127
14, 122489, Note_on_c, 7, 69, 0
14, 122490, Note_on_c, 7, 69, 127
14, 122499, Note_on_c, 7, 67, 0
14, 122520, Note_on_c, 7, 67, 127
14, 122549, Note_on_c, 7, 67, 0
14, 122579, Note_on_c, 7, 69, 0
14, 122579, Note_on_c, 7, 81, 0
14, 122580, Note_on_c, 7, 64, 127
14, 122580, Note_on_c, 7, 69, 127
14, 122580, Note_on_c, 7, 81, 127
14, 122610, Note_on_c, 7, 65, 127
14, 122619, Note_on_c, 7, 64, 0
14, 122639, Note_on_c, 7, 65, 0
14, 122640, Note_on_c, 7, 64, 127
14, 122669, Note_on_c, 7, 64, 0
14, 122699, Note_on_c, 7, 81, 0
14, 122699, Note_on_c, 7, 69, 0
14, 122700, Note_on_c, 7, 61, 127
14, 122700, Note_on_c, 7, 81, 127
14, 122700, Note_on_c, 7, 69, 127
14, 122730, Note_on_c, 7, 62, 127
14, 122739, Note_on_c, 7, 61, 0
14, 122759, Note_on_c, 7, 62, 0
14, 122760, Note_on_c, 7, 61, 127
14, 122789, Note_on_c, 7, 61, 0
14, 122819, Note_on_c, 7, 69, 0
14, 122819, Note_on_c, 7, 81, 0
14, 122820, Note_on_c, 7, 69, 127
14, 122820, Note_on_c, 7, 57, 127
14, 122820, Note_on_c, 7, 81, 127
14, 122850, Note_on_c, 7, 58, 127
14, 122859, Note_on_c, 7, 57, 0
14, 122879, Note_on_c, 7, 58, 0
14, 122880, Note_on_c, 7, 57, 127
14, 122909, Note_on_c, 7, 57, 0
14, 122939, Note_on_c, 7, 81, 0
14, 122939, Note_on_c, 7, 69, 0
14, 122940, Note_on_c, 7, 61, 127
14, 122940, Note_on_c, 7, 81, 127
14, 122940, Note_on_c, 7, 69, 127
14, 122970, Note_on_c, 7, 64, 127
14, 122979, Note_on_c, 7, 61, 0
14, 122999, Note_on_c, 7, 64, 0
14, 123000, Note_on_c, 7, 67, 127
14, 123029, Note_on_c, 7, 67, 0
14, 123059, Note_on_c, 7, 69, 0
14, 123059, Note_on_c, 7, 81, 0
14, 123060, Note_on_c, 7, 73, 127
14, 123060, Note_on_c, 7, 69, 127
14, 123060, Note_on_c, 7, 81, 127
14, 123090, Note_on_c, 7, 76, 127
14, 123099, Note_on_c, 7, 73, 0
14, 123119, Note_on_c, 7, 76, 0
14, 123119, Note_on_c, 7, 81, 0
14, 123120, Note_on_c, 7, 81, 127
14, 123179, Note_on_c, 7, 81, 0
14, 123179, Note_on_c, 7, 69, 0
14, 123180, Note_on_c, 7, 69, 127
14, 123180, Note_on_c, 7, 81, 127
14, 123180, Note_on_c, 7, 67, 127
14, 123209, Note_on_c, 7, 69, 0
14, 123210, Note_on_c, 7, 69, 127
14, 123219, Note_on_c, 7, 67, 0
14, 123240, Note_on_c, 7, 67, 127
14, 123269, Note_on_c, 7, 67, 0
14, 123299, Note_on_c, 7, 69, 0
14, 123299, Note_on_c, 7, 81, 0
14, 123300, Note_on_c, 7, 69, 127
14, 123300, Note_on_c, 7, 81, 127
14, 123300, Note_on_c, 7, 64, 127
14, 123330, Note_on_c, 7, 65, 127
14, 123339, Note_on_c, 7, 64, 0
14, 123359, Note_on_c, 7, 65, 0
14, 123360, Note_on_c, 7, 64, 127
14, 123389, Note_on_c, 7, 64, 0
14, 123419, Note_on_c, 7, 81, 0
14, 123419, Note_on_c, 7, 69, 0
14, 123420, Note_on_c, 7, 81, 127
14, 123420, Note_on_c, 7, 69, 127
14, 123420, Note_on_c, 7, 61, 127
14, 123450, Note_on_c, 7, 62, 127
14, 123459, Note_on_c, 7, 61, 0
14, 123479, Note_on_c, 7, 62, 0
14, 123480, Note_on_c, 7, 61, 127
14, 123509, Note_on_c, 7, 61, 0
14, 123539, Note_on_c, 7, 69, 0
14, 123539, Note_on_c, 7, 81, 0
14, 123540, Note_on_c, 7, 81, 127
14, 123540, Note_on_c, 7, 69, 127
14, 123540, Note_on_c, 7, 64, 127
14, 123569, Note_on_c, 7, 69, 0
14, 123570, Note_on_c, 7, 69, 127
14, 123579, Note_on_c, 7, 64, 0
14, 123600, Note_on_c, 7, 73, 127
14, 123629, Note_on_c, 7, 73, 0
14, 123659, Note_on_c, 7, 69, 0
14, 123659, Note_on_c, 7, 81, 0
14, 123660, Note_on_c, 7, 69, 127
14, 123660, Note_on_c, 7, 81, 127
14, 123660, Note_on_c, 7, 76, 127
14, 123690, Note_on_c, 7, 74, 127
14, 123699, Note_on_c, 7, 76, 0
14, 123719, Note_on_c, 7, 74, 0
14, 123720, Note_on_c, 7, 73, 127
14, 123749, Note_on_c, 7, 73, 0
14, 123779, Note_on_c, 7, 81, 0
14, 123779, Note_on_c, 7, 69, 0
14, 123780, Note_on_c, 7, 81, 127
14, 123780, Note_on_c, 7, 69, 127
14, 123780, Note_on_c, 7, 76, 127
14, 123810, Note_on_c, 7, 73, 127
14, 123819, Note_on_c, 7, 76, 0
14, 123839, Note_on_c, 7, 81, 0
14, 123839, Note_on_c, 7, 69, 0
14, 123839, Note_on_c, 7, 73, 0
14, 123840, Note_on_c, 7, 81, 48
14, 123840, Note_on_c, 7, 69, 48
14, 123840, Note_on_c, 7, 74, 48
14, 123869, Note_on_c, 7, 74, 0
14, 123900, Note_on_c, 7, 62, 48
14, 123930, Note_on_c, 7, 63, 48
14, 123939, Note_on_c, 7, 62, 0
14, 123959, Note_on_c, 7, 63, 0
14, 123960, Note_on_c, 7, 62, 48
14, 123989, Note_on_c, 7, 62, 0
14, 124019, Note_on_c, 7, 69, 0
14, 124019, Note_on_c, 7, 81, 0
14, 124020, Note_on_c, 7, 81, 48
14, 124049, Note_on_c, 7, 81, 0
14, 124050, Note_on_c, 7, 81, 48
14, 124079, Note_on_c, 7, 81, 0
14, 124080, Note_on_c, 7, 78, 48
14, 124109, Note_on_c, 7, 78, 0
14, 124110, Note_on_c, 7, 78, 48
14, 124139, Note_on_c, 7, 78, 0
14, 124140, Note_on_c, 7, 74, 48
14, 124169, Note_on_c, 7, 74, 0
14, 124170, Note_on_c, 7, 74, 48
14, 124199, Note_on_c, 7, 74, 0
14, 124200, Note_on_c, 7, 79, 48
14, 124260, Note_on_c, 7, 62, 48
14, 124290, Note_on_c, 7, 63, 48
14, 124299, Note_on_c, 7, 62, 0
14, 124319, Note_on_c, 7, 63, 0
14, 124320, Note_on_c, 7, 62, 48
14, 124349, Note_on_c, 7, 62, 0
14, 124379, Note_on_c, 7, 79, 0
14, 124380, Note_on_c, 7, 82, 48
14, 124409, Note_on_c, 7, 82, 0
14, 124410, Note_on_c, 7, 82, 48
14, 124439, Note_on_c, 7, 82, 0
14, 124440, Note_on_c, 7, 79, 48
14, 124469, Note_on_c, 7, 79, 0
14, 124470, Note_on_c, 7, 79, 48
14, 124499, Note_on_c, 7, 79, 0
14, 124500, Note_on_c, 7, 74, 48
14, 124529, Note_on_c, 7, 74, 0
14, 124530, Note_on_c, 7, 74, 48
14, 124559, Note_on_c, 7, 74, 0
14, 124560, Note_on_c, 7, 81, 48
14, 124589, Note_on_c, 7, 81, 0
14, 124590, Note_on_c, 7, 81, 48
14, 124619, Note_on_c, 7, 81, 0
14, 124620, Note_on_c, 7, 84, 54
14, 124620, Note_on_c, 7, 62, 54
14, 124649, Note_on_c, 7, 84, 0
14, 124650, Note_on_c, 7, 84, 54
14, 124650, Note_on_c, 7, 63, 54
14, 124659, Note_on_c, 7, 62, 0
14, 124679, Note_on_c, 7, 63, 0
14, 124679, Note_on_c, 7, 84, 0
14, 124680, Note_on_c, 7, 81, 61
14, 124680, Note_on_c, 7, 62, 61
14, 124709, Note_on_c, 7, 62, 0
14, 124709, Note_on_c, 7, 81, 0
14, 124710, Note_on_c, 7, 81, 61
14, 124739, Note_on_c, 7, 81, 0
14, 124740, Note_on_c, 7, 74, 67
14, 124740, Note_on_c, 7, 62, 67
14, 124769, Note_on_c, 7, 74, 0
14, 124770, Note_on_c, 7, 74, 67
14, 124770, Note_on_c, 7, 63, 67
14, 124779, Note_on_c, 7, 62, 0
14, 124799, Note_on_c, 7, 63, 0
14, 124799, Note_on_c, 7, 74, 0
14, 124800, Note_on_c, 7, 81, 73
14, 124800, Note_on_c, 7, 62, 74
14, 124829, Note_on_c, 7, 62, 0
14, 124829, Note_on_c, 7, 81, 0
14, 124830, Note_on_c, 7, 81, 73
14, 124859, Note_on_c, 7, 81, 0
14, 124860, Note_on_c, 7, 84, 80
14, 124860, Note_on_c, 7, 62, 80
14, 124889, Note_on_c, 7, 62, 0
14, 124889, Note_on_c, 7, 84, 0
14, 124890, Note_on_c, 7, 84, 80
14, 124890, Note_on_c, 7, 63, 87
14, 124919, Note_on_c, 7, 63, 0
14, 124919, Note_on_c, 7, 84, 0
14, 124920, Note_on_c, 7, 81, 93
14, 124920, Note_on_c, 7, 62, 93
14, 124949, Note_on_c, 7, 62, 0
14, 124949, Note_on_c, 7, 81, 0
14, 124950, Note_on_c, 7, 81, 93
14, 124979, Note_on_c, 7, 81, 0
14, 124980, Note_on_c, 7, 74, 100
14, 124980, Note_on_c, 7, 62, 94
14, 125009, Note_on_c, 7, 74, 0
14, 125010, Note_on_c, 7, 74, 100
14, 125010, Note_on_c, 7, 63, 94
14, 125019, Note_on_c, 7, 62, 0
14, 125039, Note_on_c, 7, 63, 0
14, 125039, Note_on_c, 7, 74, 0
14, 125040, Note_on_c, 7, 81, 107
14, 125040, Note_on_c, 7, 62, 101
14, 125069, Note_on_c, 7, 62, 0
14, 125069, Note_on_c, 7, 81, 0
14, 125070, Note_on_c, 7, 81, 107
14, 125099, Note_on_c, 7, 81, 0
14, 125100, Note_on_c, 7, 84, 113
14, 125100, Note_on_c, 7, 62, 107
14, 125129, Note_on_c, 7, 84, 0
14, 125130, Note_on_c, 7, 84, 113
14, 125130, Note_on_c, 7, 63, 114
14, 125139, Note_on_c, 7, 62, 0
14, 125159, Note_on_c, 7, 63, 0
14, 125159, Note_on_c, 7, 84, 0
14, 125160, Note_on_c, 7, 81, 120
14, 125160, Note_on_c, 7, 62, 120
14, 125189, Note_on_c, 7, 62, 0
14, 125189, Note_on_c, 7, 81, 0
14, 125190, Note_on_c, 7, 81, 120
14, 125219, Note_on_c, 7, 81, 0
14, 125220, Note_on_c, 7, 74, 120
14, 125220, Note_on_c, 7, 62, 120
14, 125249, Note_on_c, 7, 62, 0
14, 125249, Note_on_c, 7, 74, 0
14, 125250, Note_on_c, 7, 74, 120
14, 125279, Note_on_c, 7, 74, 0
14, 125280, Note_on_c, 7, 86, 127
14, 125280, Note_on_c, 7, 70, 127
14, 125280, Note_on_c, 7, 62, 127
14, 125309, Note_on_c, 7, 86, 0
14, 125339, Note_on_c, 7, 62, 0
14, 125339, Note_on_c, 7, 70, 0
14, 125340, Note_on_c, 7, 82, 127
14, 125340, Note_on_c, 7, 74, 127
14, 125340, Note_on_c, 7, 62, 127
14, 125370, Note_on_c, 7, 84, 127
14, 125379, Note_on_c, 7, 82, 0
14, 125399, Note_on_c, 7, 84, 0
14, 125400, Note_on_c, 7, 82, 127
14, 125429, Note_on_c, 7, 82, 0
14, 125459, Note_on_c, 7, 62, 0
14, 125459, Note_on_c, 7, 74, 0
14, 125460, Note_on_c, 7, 79, 127
14, 125460, Note_on_c, 7, 62, 127
14, 125460, Note_on_c, 7, 74, 127
14, 125490, Note_on_c, 7, 81, 127
14, 125499, Note_on_c, 7, 79, 0
14, 125519, Note_on_c, 7, 81, 0
14, 125520, Note_on_c, 7, 79, 127
14, 125549, Note_on_c, 7, 79, 0
14, 125579, Note_on_c, 7, 74, 0
14, 125579, Note_on_c, 7, 62, 0
14, 125580, Note_on_c, 7, 74, 127
14, 125580, Note_on_c, 7, 62, 127
14, 125610, Note_on_c, 7, 75, 127
14, 125639, Note_on_c, 7, 75, 0
14, 125639, Note_on_c, 7, 74, 0
14, 125640, Note_on_c, 7, 74, 127
14, 125699, Note_on_c, 7, 74, 0
14, 125699, Note_on_c, 7, 62, 0
14, 125700, Note_on_c, 7, 70, 127
14, 125700, Note_on_c, 7, 62, 127
14, 125700, Note_on_c, 7, 74, 127
14, 125730, Note_on_c, 7, 72, 127
14, 125739, Note_on_c, 7, 70, 0
14, 125759, Note_on_c, 7, 72, 0
14, 125760, Note_on_c, 7, 70, 127
14, 125789, Note_on_c, 7, 70, 0
14, 125819, Note_on_c, 7, 74, 0
14, 125819, Note_on_c, 7, 62, 0
14, 125820, Note_on_c, 7, 67, 127
14, 125820, Note_on_c, 7, 62, 127
14, 125820, Note_on_c, 7, 74, 127
14, 125850, Note_on_c, 7, 70, 127
14, 125859, Note_on_c, 7, 67, 0
14, 125879, Note_on_c, 7, 70, 0
14, 125879, Note_on_c, 7, 74, 0
14, 125880, Note_on_c, 7, 74, 127
14, 125939, Note_on_c, 7, 74, 0
14, 125939, Note_on_c, 7, 62, 0
14, 125940, Note_on_c, 7, 79, 127
14, 125940, Note_on_c, 7, 74, 127
14, 125940, Note_on_c, 7, 62, 127
14, 125970, Note_on_c, 7, 82, 127
14, 125979, Note_on_c, 7, 79, 0
14, 125999, Note_on_c, 7, 74, 0
14, 125999, Note_on_c, 7, 62, 0
14, 125999, Note_on_c, 7, 82, 0
14, 126000, Note_on_c, 7, 74, 127
14, 126000, Note_on_c, 7, 86, 127
14, 126059, Note_on_c, 7, 86, 0
14, 126059, Note_on_c, 7, 74, 0
14, 126060, Note_on_c, 7, 74, 127
14, 126060, Note_on_c, 7, 86, 127
14, 126060, Note_on_c, 7, 70, 127
14, 126090, Note_on_c, 7, 72, 127
14, 126099, Note_on_c, 7, 70, 0
14, 126119, Note_on_c, 7, 72, 0
14, 126120, Note_on_c, 7, 70, 127
14, 126149, Note_on_c, 7, 70, 0
14, 126179, Note_on_c, 7, 86, 0
14, 126179, Note_on_c, 7, 74, 0
14, 126180, Note_on_c, 7, 86, 127
14, 126180, Note_on_c, 7, 74, 127
14, 126180, Note_on_c, 7, 67, 127
14, 126210, Note_on_c, 7, 69, 127
14, 126219, Note_on_c, 7, 67, 0
14, 126239, Note_on_c, 7, 69, 0
14, 126240, Note_on_c, 7, 67, 127
14, 126269, Note_on_c, 7, 67, 0
14, 126299, Note_on_c, 7, 74, 0
14, 126299, Note_on_c, 7, 86, 0
14, 126300, Note_on_c, 7, 74, 127
14, 126300, Note_on_c, 7, 86, 127
14, 126300, Note_on_c, 7, 62, 127
14, 126330, Note_on_c, 7, 63, 127
14, 126339, Note_on_c, 7, 62, 0
14, 126359, Note_on_c, 7, 63, 0
14, 126360, Note_on_c, 7, 62, 127
14, 126389, Note_on_c, 7, 62, 0
14, 126419, Note_on_c, 7, 86, 0
14, 126419, Note_on_c, 7, 74, 0
14, 126420, Note_on_c, 7, 86, 127
14, 126420, Note_on_c, 7, 74, 127
14, 126420, Note_on_c, 7, 58, 127
14, 126450, Note_on_c, 7, 60, 127
14, 126459, Note_on_c, 7, 58, 0
14, 126479, Note_on_c, 7, 60, 0
14, 126480, Note_on_c, 7, 58, 127
14, 126509, Note_on_c, 7, 58, 0
14, 126539, Note_on_c, 7, 74, 0
14, 126539, Note_on_c, 7, 86, 0
14, 126540, Note_on_c, 7, 74, 127
14, 126540, Note_on_c, 7, 86, 127
14, 126540, Note_on_c, 7, 67, 127
14, 126570, Note_on_c, 7, 69, 127
14, 126579, Note_on_c, 7, 67, 0
14, 126599, Note_on_c, 7, 69, 0
14, 126600, Note_on_c, 7, 70, 127
14, 126629, Note_on_c, 7, 70, 0
14, 126659, Note_on_c, 7, 86, 0
14, 126659, Note_on_c, 7, 74, 0
14, 126660, Note_on_c, 7, 86, 127
14, 126660, Note_on_c, 7, 74, 127
14, 126660, Note_on_c, 7, 69, 127
14, 126690, Note_on_c, 7, 67, 127
14, 126699, Note_on_c, 7, 69, 0
14, 126719, Note_on_c, 7, 67, 0
14, 126720, Note_on_c, 7, 66, 127
14, 126749, Note_on_c, 7, 66, 0
14, 126779, Note_on_c, 7, 74, 0
14, 126779, Note_on_c, 7, 86, 0
14, 126780, Note_on_c, 7, 84, 127
14, 126780, Note_on_c, 7, 74, 127
14, 126780, Note_on_c, 7, 62, 127
14, 126810, Note_on_c, 7, 86, 127
14, 126819, Note_on_c, 7, 84, 0
14, 126839, Note_on_c, 7, 86, 0
14, 126840, Note_on_c, 7, 84, 127
14, 126869, Note_on_c, 7, 84, 0
14, 126899, Note_on_c, 7, 62, 0
14, 126899, Note_on_c, 7, 74, 0
14, 126900, Note_on_c, 7, 81, 127
14, 126900, Note_on_c, 7, 62, 127
14, 126900, Note_on_c, 7, 74, 127
14, 126930, Note_on_c, 7, 82, 127
14, 126939, Note_on_c, 7, 81, 0
14, 126959, Note_on_c, 7, 82, 0
14, 126960, Note_on_c, 7, 81, 127
14, 126989, Note_on_c, 7, 81, 0
14, 127019, Note_on_c, 7, 74, 0
14, 127019, Note_on_c, 7, 62, 0
14, 127020, Note_on_c, 7, 78, 127
14, 127020, Note_on_c, 7, 74, 127
14, 127020, Note_on_c, 7, 62, 127
14, 127050, Note_on_c, 7, 79, 127
14, 127059, Note_on_c, 7, 78, 0
14, 127079, Note_on_c, 7, 79, 0
14, 127080, Note_on_c, 7, 78, 127
14, 127109, Note_on_c, 7, 78, 0
14, 127139, Note_on_c, 7, 62, 0
14, 127139, Note_on_c, 7, 74, 0
14, 127140, Note_on_c, 7, 62, 127
14, 127140, Note_on_c, 7, 74, 127
14, 127170, Note_on_c, 7, 63, 127
14, 127199, Note_on_c, 7, 63, 0
14, 127199, Note_on_c, 7, 62, 0
14, 127200, Note_on_c, 7, 62, 127
14, 127259, Note_on_c, 7, 62, 0
14, 127259, Note_on_c, 7, 74, 0
14, 127260, Note_on_c, 7, 66, 127
14, 127260, Note_on_c, 7, 74, 127
14, 127260, Note_on_c, 7, 62, 127
14, 127290, Note_on_c, 7, 69, 127
14, 127299, Note_on_c, 7, 66, 0
14, 127319, Note_on_c, 7, 74, 0
14, 127319, Note_on_c, 7, 69, 0
14, 127320, Note_on_c, 7, 74, 127
14, 127379, Note_on_c, 7, 74, 0
14, 127379, Note_on_c, 7, 62, 0
14, 127380, Note_on_c, 7, 78, 127
14, 127380, Note_on_c, 7, 62, 127
14, 127380, Note_on_c, 7, 74, 127
14, 127410, Note_on_c, 7, 81, 127
14, 127419, Note_on_c, 7, 78, 0
14, 127439, Note_on_c, 7, 81, 0
14, 127439, Note_on_c, 7, 74, 0
14, 127440, Note_on_c, 7, 74, 127
14, 127440, Note_on_c, 7, 86, 127
14, 127440, Note_on_c, 7, 72, 127
14, 127499, Note_on_c, 7, 72, 0
14, 127499, Note_on_c, 7, 62, 0
14, 127499, Note_on_c, 7, 74, 0
14, 127499, Note_on_c, 7, 86, 0
14, 127500, Note_on_c, 7, 86, 127
14, 127500, Note_on_c, 7, 74, 127
14, 127500, Note_on_c, 7, 72, 127
14, 127529, Note_on_c, 7, 74, 0
14, 127530, Note_on_c, 7, 74, 127
14, 127539, Note_on_c, 7, 72, 0
14, 127560, Note_on_c, 7, 72, 127
14, 127589, Note_on_c, 7, 72, 0
14, 127619, Note_on_c, 7, 74, 0
14, 127619, Note_on_c, 7, 86, 0
14, 127620, Note_on_c, 7, 74, 127
14, 127620, Note_on_c, 7, 86, 127
14, 127620, Note_on_c, 7, 69, 127
14, 127650, Note_on_c, 7, 70, 127
14, 127659, Note_on_c, 7, 69, 0
14, 127679, Note_on_c, 7, 70, 0
14, 127680, Note_on_c, 7, 69, 127
14, 127709, Note_on_c, 7, 69, 0
14, 127739, Note_on_c, 7, 86, 0
14, 127739, Note_on_c, 7, 74, 0
14, 127740, Note_on_c, 7, 86, 127
14, 127740, Note_on_c, 7, 74, 127
14, 127740, Note_on_c, 7, 66, 127
14, 127770, Note_on_c, 7, 67, 127
14, 127779, Note_on_c, 7, 66, 0
14, 127799, Note_on_c, 7, 67, 0
14, 127800, Note_on_c, 7, 66, 127
14, 127829, Note_on_c, 7, 66, 0
14, 127859, Note_on_c, 7, 74, 0
14, 127859, Note_on_c, 7, 86, 0
14, 127860, Note_on_c, 7, 86, 127
14, 127860, Note_on_c, 7, 74, 127
14, 127860, Note_on_c, 7, 69, 127
14, 127890, Note_on_c, 7, 67, 127
14, 127899, Note_on_c, 7, 69, 0
14, 127919, Note_on_c, 7, 67, 0
14, 127920, Note_on_c, 7, 66, 127
14, 127949, Note_on_c, 7, 66, 0
14, 127979, Note_on_c, 7, 74, 0
14, 127979, Note_on_c, 7, 86, 0
14, 127980, Note_on_c, 7, 74, 127
14, 127980, Note_on_c, 7, 86, 127
14, 127980, Note_on_c, 7, 69, 127
14, 128009, Note_on_c, 7, 74, 0
14, 128010, Note_on_c, 7, 74, 127
14, 128019, Note_on_c, 7, 69, 0
14, 128040, Note_on_c, 7, 78, 127
14, 128069, Note_on_c, 7, 78, 0
14, 128099, Note_on_c, 7, 74, 0
14, 128099, Note_on_c, 7, 86, 0
14, 128100, Note_on_c, 7, 74, 127
14, 128100, Note_on_c, 7, 86, 127
14, 128100, Note_on_c, 7, 81, 127
14, 128130, Note_on_c, 7, 78, 127
14, 128139, Note_on_c, 7, 81, 0
14, 128159, Note_on_c, 7, 74, 0
14, 128159, Note_on_c, 7, 86, 0
14, 128159, Note_on_c, 7, 78, 0
14, 128160, Note_on_c, 7, 74, 48
14, 128160, Note_on_c, 7, 86, 48
14, 128160, Note_on_c, 7, 79, 48
14, 128219, Note_on_c, 7, 79, 0
14, 128220, Note_on_c, 7, 55, 48
14, 128250, Note_on_c, 7, 56, 48
14, 128259, Note_on_c, 7, 55, 0
14, 128279, Note_on_c, 7, 56, 0
14, 128280, Note_on_c, 7, 55, 48
14, 128309, Note_on_c, 7, 55, 0
14, 128339, Note_on_c, 7, 86, 0
14, 128339, Note_on_c, 7, 74, 0
14, 128340, Note_on_c, 7, 74, 48
14, 128369, Note_on_c, 7, 74, 0
14, 128370, Note_on_c, 7, 74, 48
14, 128399, Note_on_c, 7, 74, 0
14, 128400, Note_on_c, 7, 71, 48
14, 128429, Note_on_c, 7, 71, 0
14, 128430, Note_on_c, 7, 71, 48
14, 128459, Note_on_c, 7, 71, 0
14, 128460, Note_on_c, 7, 67, 48
14, 128489, Note_on_c, 7, 67, 0
14, 128490, Note_on_c, 7, 67, 48
14, 128519, Note_on_c, 7, 67, 0
14, 128520, Note_on_c, 7, 72, 48
14, 128580, Note_on_c, 7, 55, 48
14, 128610, Note_on_c, 7, 56, 48
14, 128619, Note_on_c, 7, 55, 0
14, 128639, Note_on_c, 7, 56, 0
14, 128640, Note_on_c, 7, 55, 48
14, 128669, Note_on_c, 7, 55, 0
14, 128699, Note_on_c, 7, 72, 0
14, 128700, Note_on_c, 7, 75, 48
14, 128729, Note_on_c, 7, 75, 0
14, 128730, Note_on_c, 7, 75, 48
14, 128759, Note_on_c, 7, 75, 0
14, 128760, Note_on_c, 7, 72, 48
14, 128789, Note_on_c, 7, 72, 0
14, 128790, Note_on_c, 7, 72, 48
14, 128819, Note_on_c, 7, 72, 0
14, 128820, Note_on_c, 7, 67, 48
14, 128849, Note_on_c, 7, 67, 0
14, 128850, Note_on_c, 7, 67, 48
14, 128879, Note_on_c, 7, 67, 0
14, 128880, Note_on_c, 7, 74, 48
14, 128909, Note_on_c, 7, 74, 0
14, 128910, Note_on_c, 7, 74, 48
14, 128939, Note_on_c, 7, 74, 0
14, 128940, Note_on_c, 7, 77, 54
14, 128940, Note_on_c, 7, 55, 54
14, 128969, Note_on_c, 7, 77, 0
14, 128970, Note_on_c, 7, 77, 54
14, 128970, Note_on_c, 7, 56, 54
14, 128979, Note_on_c, 7, 55, 0
14, 128999, Note_on_c, 7, 56, 0
14, 128999, Note_on_c, 7, 77, 0
14, 129000, Note_on_c, 7, 74, 61
14, 129000, Note_on_c, 7, 55, 61
14, 129029, Note_on_c, 7, 55, 0
14, 129029, Note_on_c, 7, 74, 0
14, 129030, Note_on_c, 7, 74, 61
14, 129059, Note_on_c, 7, 74, 0
14, 129060, Note_on_c, 7, 67, 67
14, 129060, Note_on_c, 7, 55, 67
14, 129089, Note_on_c, 7, 67, 0
14, 129090, Note_on_c, 7, 67, 67
14, 129090, Note_on_c, 7, 56, 67
14, 129099, Note_on_c, 7, 55, 0
14, 129119, Note_on_c, 7, 56, 0
14, 129119, Note_on_c, 7, 67, 0
14, 129120, Note_on_c, 7, 74, 67
14, 129120, Note_on_c, 7, 55, 67
14, 129149, Note_on_c, 7, 55, 0
14, 129149, Note_on_c, 7, 74, 0
14, 129150, Note_on_c, 7, 74, 67
14, 129179, Note_on_c, 7, 74, 0
14, 129180, Note_on_c, 7, 77, 73
14, 129180, Note_on_c, 7, 55, 73
14, 129209, Note_on_c, 7, 77, 0
14, 129210, Note_on_c, 7, 77, 73
14, 129210, Note_on_c, 7, 56, 73
14, 129219, Note_on_c, 7, 55, 0
14, 129239, Note_on_c, 7, 56, 0
14, 129239, Note_on_c, 7, 77, 0
14, 129240, Note_on_c, 7, 74, 80
14, 129240, Note_on_c, 7, 55, 79
14, 129269, Note_on_c, 7, 55, 0
14, 129269, Note_on_c, 7, 74, 0
14, 129270, Note_on_c, 7, 74, 80
14, 129299, Note_on_c, 7, 74, 0
14, 129300, Note_on_c, 7, 67, 86
14, 129300, Note_on_c, 7, 55, 86
14, 129329, Note_on_c, 7, 67, 0
14, 129330, Note_on_c, 7, 67, 86
14, 129330, Note_on_c, 7, 56, 86
14, 129339, Note_on_c, 7, 55, 0
14, 129359, Note_on_c, 7, 56, 0
14, 129359, Note_on_c, 7, 67, 0
14, 129360, Note_on_c, 7, 74, 92
14, 129360, Note_on_c, 7, 55, 92
14, 129389, Note_on_c, 7, 55, 0
14, 129389, Note_on_c, 7, 74, 0
14, 129390, Note_on_c, 7, 74, 92
14, 129419, Note_on_c, 7, 74, 0
14, 129420, Note_on_c, 7, 77, 99
14, 129420, Note_on_c, 7, 55, 100
14, 129449, Note_on_c, 7, 77, 0
14, 129450, Note_on_c, 7, 77, 99
14, 129450, Note_on_c, 7, 56, 100
14, 129459, Note_on_c, 7, 55, 0
14, 129479, Note_on_c, 7, 56, 0
14, 129479, Note_on_c, 7, 77, 0
14, 129480, Note_on_c, 7, 74, 107
14, 129480, Note_on_c, 7, 55, 107
14, 129509, Note_on_c, 7, 55, 0
14, 129509, Note_on_c, 7, 74, 0
14, 129510, Note_on_c, 7, 74, 107
14, 129539, Note_on_c, 7, 74, 0
14, 129540, Note_on_c, 7, 67, 114
14, 129569, Note_on_c, 7, 67, 0
14, 129570, Note_on_c, 7, 67, 114
14, 129599, Note_on_c, 7, 67, 0
14, 129600, Note_on_c, 7, 76, 48
14, 129660, Note_on_c, 7, 60, 48
14, 129690, Note_on_c, 7, 61, 48
14, 129699, Note_on_c, 7, 60, 0
14, 129719, Note_on_c, 7, 61, 0
14, 129720, Note_on_c, 7, 60, 48
14, 129749, Note_on_c, 7, 60, 0
14, 129779, Note_on_c, 7, 76, 0
14, 129780, Note_on_c, 7, 79, 48
14, 129809, Note_on_c, 7, 79, 0
14, 129810, Note_on_c, 7, 79, 48
14, 129839, Note_on_c, 7, 79, 0
14, 129840, Note_on_c, 7, 76, 48
14, 129869, Note_on_c, 7, 76, 0
14, 129870, Note_on_c, 7, 76, 48
14, 129899, Note_on_c, 7, 76, 0
14, 129900, Note_on_c, 7, 72, 48
14, 129929, Note_on_c, 7, 72, 0
14, 129930, Note_on_c, 7, 72, 48
14, 129959, Note_on_c, 7, 72, 0
14, 129960, Note_on_c, 7, 77, 48
14, 130020, Note_on_c, 7, 60, 48
14, 130050, Note_on_c, 7, 61, 48
14, 130059, Note_on_c, 7, 60, 0
14, 130079, Note_on_c, 7, 61, 0
14, 130080, Note_on_c, 7, 60, 48
14, 130109, Note_on_c, 7, 60, 0
14, 130139, Note_on_c, 7, 77, 0
14, 130140, Note_on_c, 7, 80, 48
14, 130169, Note_on_c, 7, 80, 0
14, 130170, Note_on_c, 7, 80, 48
14, 130199, Note_on_c, 7, 80, 0
14, 130200, Note_on_c, 7, 77, 48
14, 130229, Note_on_c, 7, 77, 0
14, 130230, Note_on_c, 7, 77, 48
14, 130259, Note_on_c, 7, 77, 0
14, 130260, Note_on_c, 7, 72, 48
14, 130289, Note_on_c, 7, 72, 0
14, 130290, Note_on_c, 7, 72, 48
14, 130319, Note_on_c, 7, 72, 0
14, 130320, Note_on_c, 7, 79, 48
14, 130349, Note_on_c, 7, 79, 0
14, 130350, Note_on_c, 7, 79, 48
14, 130379, Note_on_c, 7, 79, 0
14, 130380, Note_on_c, 7, 82, 52
14, 130380, Note_on_c, 7, 60, 54
14, 130409, Note_on_c, 7, 82, 0
14, 130410, Note_on_c, 7, 82, 52
14, 130410, Note_on_c, 7, 61, 54
14, 130419, Note_on_c, 7, 60, 0
14, 130439, Note_on_c, 7, 61, 0
14, 130439, Note_on_c, 7, 82, 0
14, 130440, Note_on_c, 7, 79, 58
14, 130440, Note_on_c, 7, 60, 58
14, 130469, Note_on_c, 7, 60, 0
14, 130469, Note_on_c, 7, 79, 0
14, 130470, Note_on_c, 7, 79, 58
14, 130499, Note_on_c, 7, 79, 0
14, 130500, Note_on_c, 7, 72, 65
14, 130500, Note_on_c, 7, 60, 65
14, 130529, Note_on_c, 7, 72, 0
14, 130530, Note_on_c, 7, 72, 65
14, 130530, Note_on_c, 7, 61, 65
14, 130539, Note_on_c, 7, 60, 0
14, 130559, Note_on_c, 7, 61, 0
14, 130559, Note_on_c, 7, 72, 0
14, 130560, Note_on_c, 7, 79, 69
14, 130560, Note_on_c, 7, 60, 69
14, 130589, Note_on_c, 7, 60, 0
14, 130589, Note_on_c, 7, 79, 0
14, 130590, Note_on_c, 7, 79, 69
14, 130619, Note_on_c, 7, 79, 0
14, 130620, Note_on_c, 7, 82, 72
14, 130620, Note_on_c, 7, 60, 72
14, 130649, Note_on_c, 7, 82, 0
14, 130650, Note_on_c, 7, 82, 72
14, 130650, Note_on_c, 7, 61, 72
14, 130659, Note_on_c, 7, 60, 0
14, 130679, Note_on_c, 7, 61, 0
14, 130679, Note_on_c, 7, 82, 0
14, 130680, Note_on_c, 7, 79, 75
14, 130680, Note_on_c, 7, 60, 75
14, 130709, Note_on_c, 7, 60, 0
14, 130709, Note_on_c, 7, 79, 0
14, 130710, Note_on_c, 7, 79, 75
14, 130739, Note_on_c, 7, 79, 0
14, 130740, Note_on_c, 7, 72, 79
14, 130740, Note_on_c, 7, 60, 79
14, 130769, Note_on_c, 7, 72, 0
14, 130770, Note_on_c, 7, 72, 79
14, 130770, Note_on_c, 7, 61, 82
14, 130779, Note_on_c, 7, 60, 0
14, 130799, Note_on_c, 7, 61, 0
14, 130799, Note_on_c, 7, 72, 0
14, 130800, Note_on_c, 7, 79, 85
14, 130800, Note_on_c, 7, 60, 85
14, 130829, Note_on_c, 7, 60, 0
14, 130829, Note_on_c, 7, 79, 0
14, 130830, Note_on_c, 7, 79, 85
14, 130859, Note_on_c, 7, 79, 0
14, 130860, Note_on_c, 7, 82, 89
14, 130860, Note_on_c, 7, 60, 89
14, 130889, Note_on_c, 7, 82, 0
14, 130890, Note_on_c, 7, 82, 89
14, 130890, Note_on_c, 7, 61, 89
14, 130899, Note_on_c, 7, 60, 0
14, 130919, Note_on_c, 7, 61, 0
14, 130919, Note_on_c, 7, 82, 0
14, 130920, Note_on_c, 7, 79, 92
14, 130920, Note_on_c, 7, 60, 93
14, 130949, Note_on_c, 7, 60, 0
14, 130949, Note_on_c, 7, 79, 0
14, 130950, Note_on_c, 7, 79, 92
14, 130979, Note_on_c, 7, 79, 0
14, 130980, Note_on_c, 7, 72, 94
14, 131009, Note_on_c, 7, 72, 0
14, 131010, Note_on_c, 7, 72, 94
14, 131039, Note_on_c, 7, 72, 0
14, 131040, Note_on_c, 7, 81, 96
14, 131069, Note_on_c, 7, 81, 0
14, 131070, Note_on_c, 7, 81, 96
14, 131099, Note_on_c, 7, 81, 0
14, 131100, Note_on_c, 7, 84, 96
14, 131100, Note_on_c, 7, 65, 96
14, 131129, Note_on_c, 7, 84, 0
14, 131130, Note_on_c, 7, 84, 96
14, 131130, Note_on_c, 7, 66, 96
14, 131139, Note_on_c, 7, 65, 0
14, 131159, Note_on_c, 7, 66, 0
14, 131159, Note_on_c, 7, 84, 0
14, 131160, Note_on_c, 7, 81, 96
14, 131160, Note_on_c, 7, 65, 96
14, 131189, Note_on_c, 7, 65, 0
14, 131189, Note_on_c, 7, 81, 0
14, 131190, Note_on_c, 7, 81, 96
14, 131219, Note_on_c, 7, 81, 0
14, 131220, Note_on_c, 7, 77, 96
14, 131249, Note_on_c, 7, 77, 0
14, 131250, Note_on_c, 7, 77, 96
14, 131279, Note_on_c, 7, 77, 0
14, 131280, Note_on_c, 7, 81, 96
14, 131309, Note_on_c, 7, 81, 0
14, 131310, Note_on_c, 7, 81, 96
14, 131339, Note_on_c, 7, 81, 0
14, 131340, Note_on_c, 7, 84, 96
14, 131369, Note_on_c, 7, 84, 0
14, 131370, Note_on_c, 7, 84, 96
14, 131399, Note_on_c, 7, 84, 0
14, 131400, Note_on_c, 7, 82, 96
14, 131429, Note_on_c, 7, 82, 0
14, 131430, Note_on_c, 7, 82, 96
14, 131459, Note_on_c, 7, 82, 0
14, 131460, Note_on_c, 7, 85, 96
14, 131460, Note_on_c, 7, 70, 96
14, 131489, Note_on_c, 7, 85, 0
14, 131490, Note_on_c, 7, 85, 96
14, 131490, Note_on_c, 7, 72, 96
14, 131499, Note_on_c, 7, 70, 0
14, 131519, Note_on_c, 7, 72, 0
14, 131519, Note_on_c, 7, 85, 0
14, 131520, Note_on_c, 7, 82, 96
14, 131520, Note_on_c, 7, 70, 96
14, 131549, Note_on_c, 7, 70, 0
14, 131549, Note_on_c, 7, 82, 0
14, 131550, Note_on_c, 7, 82, 96
14, 131579, Note_on_c, 7, 82, 0
14, 131580, Note_on_c, 7, 77, 96
14, 131609, Note_on_c, 7, 77, 0
14, 131610, Note_on_c, 7, 77, 96
14, 131639, Note_on_c, 7, 77, 0
14, 131640, Note_on_c, 7, 82, 96
14, 131669, Note_on_c, 7, 82, 0
14, 131670, Note_on_c, 7, 82, 96
14, 131699, Note_on_c, 7, 82, 0
14, 131700, Note_on_c, 7, 85, 96
14, 131729, Note_on_c, 7, 85, 0
14, 131730, Note_on_c, 7, 85, 96
14, 131759, Note_on_c, 7, 85, 0
14, 131760, Note_on_c, 7, 79, 96
14, 131789, Note_on_c, 7, 79, 0
14, 131790, Note_on_c, 7, 79, 96
14, 131819, Note_on_c, 7, 79, 0
14, 131820, Note_on_c, 7, 82, 96
14, 131820, Note_on_c, 7, 63, 96
14, 131849, Note_on_c, 7, 82, 0
14, 131850, Note_on_c, 7, 82, 96
14, 131850, Note_on_c, 7, 65, 96
14, 131859, Note_on_c, 7, 63, 0
14, 131879, Note_on_c, 7, 65, 0
14, 131879, Note_on_c, 7, 82, 0
14, 131880, Note_on_c, 7, 79, 96
14, 131880, Note_on_c, 7, 63, 96
14, 131909, Note_on_c, 7, 63, 0
14, 131909, Note_on_c, 7, 79, 0
14, 131910, Note_on_c, 7, 79, 96
14, 131939, Note_on_c, 7, 79, 0
14, 131940, Note_on_c, 7, 75, 96
14, 131969, Note_on_c, 7, 75, 0
14, 131970, Note_on_c, 7, 75, 96
14, 131999, Note_on_c, 7, 75, 0
14, 132000, Note_on_c, 7, 79, 96
14, 132029, Note_on_c, 7, 79, 0
14, 132030, Note_on_c, 7, 79, 96
14, 132059, Note_on_c, 7, 79, 0
14, 132060, Note_on_c, 7, 82, 96
14, 132089, Note_on_c, 7, 82, 0
14, 132090, Note_on_c, 7, 82, 96
14, 132119, Note_on_c, 7, 82, 0
14, 132120, Note_on_c, 7, 80, 96
14, 132149, Note_on_c, 7, 80, 0
14, 132150, Note_on_c, 7, 80, 96
14, 132179, Note_on_c, 7, 80, 0
14, 132180, Note_on_c, 7, 84, 96
14, 132180, Note_on_c, 7, 68, 96
14, 132209, Note_on_c, 7, 84, 0
14, 132210, Note_on_c, 7, 84, 96
14, 132210, Note_on_c, 7, 70, 96
14, 132219, Note_on_c, 7, 68, 0
14, 132239, Note_on_c, 7, 70, 0
14, 132239, Note_on_c, 7, 84, 0
14, 132240, Note_on_c, 7, 80, 96
14, 132240, Note_on_c, 7, 68, 96
14, 132269, Note_on_c, 7, 68, 0
14, 132269, Note_on_c, 7, 80, 0
14, 132270, Note_on_c, 7, 80, 96
14, 132299, Note_on_c, 7, 80, 0
14, 132300, Note_on_c, 7, 75, 96
14, 132329, Note_on_c, 7, 75, 0
14, 132330, Note_on_c, 7, 75, 96
14, 132359, Note_on_c, 7, 75, 0
14, 132360, Note_on_c, 7, 80, 96
14, 132389, Note_on_c, 7, 80, 0
14, 132390, Note_on_c, 7, 80, 96
14, 132419, Note_on_c, 7, 80, 0
14, 132420, Note_on_c, 7, 84, 96
14, 132449, Note_on_c, 7, 84, 0
14, 132450, Note_on_c, 7, 84, 96
14, 132479, Note_on_c, 7, 84, 0
14, 132480, Note_on_c, 7, 80, 127
14, 132480, Note_on_c, 7, 68, 127
14, 132509, Note_on_c, 7, 68, 0
14, 132509, Note_on_c, 7, 80, 0
14, 132510, Note_on_c, 7, 85, 127
14, 132510, Note_on_c, 7, 68, 127
14, 132539, Note_on_c, 7, 68, 0
14, 132539, Note_on_c, 7, 85, 0
14, 132540, Note_on_c, 7, 85, 127
14, 132540, Note_on_c, 7, 68, 127
14, 132569, Note_on_c, 7, 68, 0
14, 132569, Note_on_c, 7, 85, 0
14, 132570, Note_on_c, 7, 85, 127
14, 132570, Note_on_c, 7, 68, 127
14, 132599, Note_on_c, 7, 68, 0
14, 132599, Note_on_c, 7, 85, 0
14, 132600, Note_on_c, 7, 85, 127
14, 132600, Note_on_c, 7, 68, 127
14, 132629, Note_on_c, 7, 68, 0
14, 132629, Note_on_c, 7, 85, 0
14, 132630, Note_on_c, 7, 85, 127
14, 132630, Note_on_c, 7, 68, 127
14, 132659, Note_on_c, 7, 68, 0
14, 132659, Note_on_c, 7, 85, 0
14, 132660, Note_on_c, 7, 85, 127
14, 132660, Note_on_c, 7, 68, 127
14, 132689, Note_on_c, 7, 68, 0
14, 132689, Note_on_c, 7, 85, 0
14, 132690, Note_on_c, 7, 85, 127
14, 132690, Note_on_c, 7, 68, 127
14, 132719, Note_on_c, 7, 68, 0
14, 132719, Note_on_c, 7, 85, 0
14, 132720, Note_on_c, 7, 85, 127
14, 132720, Note_on_c, 7, 68, 127
14, 132749, Note_on_c, 7, 68, 0
14, 132749, Note_on_c, 7, 85, 0
14, 132750, Note_on_c, 7, 85, 127
14, 132750, Note_on_c, 7, 68, 127
14, 132779, Note_on_c, 7, 68, 0
14, 132779, Note_on_c, 7, 85, 0
14, 132780, Note_on_c, 7, 85, 127
14, 132780, Note_on_c, 7, 68, 127
14, 132809, Note_on_c, 7, 68, 0
14, 132809, Note_on_c, 7, 85, 0
14, 132810, Note_on_c, 7, 85, 127
14, 132810, Note_on_c, 7, 68, 127
14, 132839, Note_on_c, 7, 68, 0
14, 132839, Note_on_c, 7, 85, 0
14, 132840, Note_on_c, 7, 86, 127
14, 132840, Note_on_c, 7, 70, 127
14, 132840, Note_on_c, 7, 68, 127
14, 132869, Note_on_c, 7, 68, 0
14, 132869, Note_on_c, 7, 70, 0
14, 132869, Note_on_c, 7, 86, 0
14, 132870, Note_on_c, 7, 86, 127
14, 132870, Note_on_c, 7, 70, 127
14, 132870, Note_on_c, 7, 68, 127
14, 132899, Note_on_c, 7, 68, 0
14, 132899, Note_on_c, 7, 70, 0
14, 132899, Note_on_c, 7, 86, 0
14, 132900, Note_on_c, 7, 86, 127
14, 132900, Note_on_c, 7, 70, 127
14, 132900, Note_on_c, 7, 68, 127
14, 132929, Note_on_c, 7, 68, 0
14, 132929, Note_on_c, 7, 70, 0
14, 132929, Note_on_c, 7, 86, 0
14, 132930, Note_on_c, 7, 86, 127
14, 132930, Note_on_c, 7, 70, 127
14, 132930, Note_on_c, 7, 68, 127
14, 132959, Note_on_c, 7, 68, 0
14, 132959, Note_on_c, 7, 70, 0
14, 132959, Note_on_c, 7, 86, 0
14, 132960, Note_on_c, 7, 86, 127
14, 132960, Note_on_c, 7, 70, 127
14, 132960, Note_on_c, 7, 68, 127
14, 132989, Note_on_c, 7, 68, 0
14, 132989, Note_on_c, 7, 70, 0
14, 132989, Note_on_c, 7, 86, 0
14, 132990, Note_on_c, 7, 86, 127
14, 132990, Note_on_c, 7, 70, 127
14, 132990, Note_on_c, 7, 68, 127
14, 133019, Note_on_c, 7, 68, 0
14, 133019, Note_on_c, 7, 70, 0
14, 133019, Note_on_c, 7, 86, 0
14, 133020, Note_on_c, 7, 86, 127
14, 133020, Note_on_c, 7, 70, 127
14, 133020, Note_on_c, 7, 68, 127
14, 133049, Note_on_c, 7, 68, 0
14, 133049, Note_on_c, 7, 70, 0
14, 133049, Note_on_c, 7, 86, 0
14, 133050, Note_on_c, 7, 86, 127
14, 133050, Note_on_c, 7, 70, 127
14, 133050, Note_on_c, 7, 68, 127
14, 133079, Note_on_c, 7, 68, 0
14, 133079, Note_on_c, 7, 70, 0
14, 133079, Note_on_c, 7, 86, 0
14, 133080, Note_on_c, 7, 86, 127
14, 133080, Note_on_c, 7, 70, 127
14, 133080, Note_on_c, 7, 68, 127
14, 133109, Note_on_c, 7, 68, 0
14, 133109, Note_on_c, 7, 70, 0
14, 133109, Note_on_c, 7, 86, 0
14, 133110, Note_on_c, 7, 86, 127
14, 133110, Note_on_c, 7, 70, 127
14, 133110, Note_on_c, 7, 68, 127
14, 133139, Note_on_c, 7, 68, 0
14, 133139, Note_on_c, 7, 70, 0
14, 133139, Note_on_c, 7, 86, 0
14, 133140, Note_on_c, 7, 86, 127
14, 133140, Note_on_c, 7, 70, 127
14, 133140, Note_on_c, 7, 68, 127
14, 133169, Note_on_c, 7, 68, 0
14, 133169, Note_on_c, 7, 70, 0
14, 133169, Note_on_c, 7, 86, 0
14, 133170, Note_on_c, 7, 86, 127
14, 133170, Note_on_c, 7, 70, 127
14, 133170, Note_on_c, 7, 68, 127
14, 133199, Note_on_c, 7, 68, 0
14, 133199, Note_on_c, 7, 70, 0
14, 133199, Note_on_c, 7, 86, 0
14, 133200, Note_on_c, 7, 87, 127
14, 133200, Note_on_c, 7, 70, 127
14, 133200, Note_on_c, 7, 67, 127
14, 133229, Note_on_c, 7, 67, 0
14, 133229, Note_on_c, 7, 70, 0
14, 133260, Note_on_c, 7, 63, 48
14, 133319, Note_on_c, 7, 87, 0
14, 133320, Note_on_c, 7, 58, 48
14, 133329, Note_on_c, 7, 63, 0
14, 133380, Note_on_c, 7, 63, 48
14, 133389, Note_on_c, 7, 58, 0
14, 133440, Note_on_c, 7, 58, 48
14, 133449, Note_on_c, 7, 63, 0
14, 133500, Note_on_c, 7, 63, 48
14, 133509, Note_on_c, 7, 58, 0
14, 133559, Note_on_c, 7, 63, 0
14, 133560, Note_on_c, 7, 63, 96
14, 133560, Note_on_c, 7, 58, 48
14, 133589, Note_on_c, 7, 63, 0
14, 133590, Note_on_c, 7, 63, 48
14, 133619, Note_on_c, 7, 63, 0
14, 133620, Note_on_c, 7, 63, 48
14, 133629, Note_on_c, 7, 58, 0
14, 133680, Note_on_c, 7, 58, 48
14, 133739, Note_on_c, 7, 63, 0
14, 133740, Note_on_c, 7, 63, 48
14, 133749, Note_on_c, 7, 58, 0
14, 133800, Note_on_c, 7, 58, 48
14, 133859, Note_on_c, 7, 63, 0
14, 133860, Note_on_c, 7, 63, 48
14, 133869, Note_on_c, 7, 58, 0
14, 133920, Note_on_c, 7, 58, 48
14, 133979, Note_on_c, 7, 63, 0
14, 133980, Note_on_c, 7, 67, 48
14, 133980, Note_on_c, 7, 63, 48
14, 133989, Note_on_c, 7, 58, 0
14, 134009, Note_on_c, 7, 67, 0
14, 134040, Note_on_c, 7, 68, 48
14, 134040, Note_on_c, 7, 58, 48
14, 134049, Note_on_c, 7, 63, 0
14, 134069, Note_on_c, 7, 68, 0
14, 134100, Note_on_c, 7, 70, 48
14, 134100, Note_on_c, 7, 63, 48
14, 134109, Note_on_c, 7, 58, 0
14, 134129, Note_on_c, 7, 70, 0
14, 134160, Note_on_c, 7, 72, 48
14, 134160, Note_on_c, 7, 58, 48
14, 134169, Note_on_c, 7, 63, 0
14, 134189, Note_on_c, 7, 72, 0
14, 134220, Note_on_c, 7, 73, 48
14, 134220, Note_on_c, 7, 63, 48
14, 134229, Note_on_c, 7, 58, 0
14, 134249, Note_on_c, 7, 73, 0
14, 134279, Note_on_c, 7, 63, 0
14, 134280, Note_on_c, 7, 75, 48
14, 134280, Note_on_c, 7, 58, 48
14, 134339, Note_on_c, 7, 75, 0
14, 134340, Note_on_c, 7, 63, 48
14, 134349, Note_on_c, 7, 58, 0
14, 134400, Note_on_c, 7, 82, 48
14, 134400, Note_on_c, 7, 58, 48
14, 134409, Note_on_c, 7, 63, 0
14, 134460, Note_on_c, 7, 63, 48
14, 134469, Note_on_c, 7, 58, 0
14, 134520, Note_on_c, 7, 58, 48
14, 134529, Note_on_c, 7, 63, 0
14, 134580, Note_on_c, 7, 73, 48
14, 134580, Note_on_c, 7, 63, 48
14, 134589, Note_on_c, 7, 58, 0
14, 134589, Note_on_c, 7, 82, 0
14, 134639, Note_on_c, 7, 73, 0
14, 134639, Note_on_c, 7, 63, 0
14, 134640, Note_on_c, 7, 72, 48
14, 134640, Note_on_c, 7, 60, 48
14, 134700, Note_on_c, 7, 63, 48
14, 134709, Note_on_c, 7, 60, 0
14, 134759, Note_on_c, 7, 72, 0
14, 134760, Note_on_c, 7, 60, 48
14, 134769, Note_on_c, 7, 63, 0
14, 134820, Note_on_c, 7, 63, 48
14, 134829, Note_on_c, 7, 60, 0
14, 134880, Note_on_c, 7, 60, 48
14, 134889, Note_on_c, 7, 63, 0
14, 134940, Note_on_c, 7, 63, 48
14, 134949, Note_on_c, 7, 60, 0
14, 134999, Note_on_c, 7, 63, 0
14, 135000, Note_on_c, 7, 63, 96
14, 135000, Note_on_c, 7, 60, 48
14, 135029, Note_on_c, 7, 63, 0
14, 135030, Note_on_c, 7, 63, 48
14, 135059, Note_on_c, 7, 63, 0
14, 135060, Note_on_c, 7, 63, 48
14, 135069, Note_on_c, 7, 60, 0
14, 135120, Note_on_c, 7, 60, 48
14, 135179, Note_on_c, 7, 63, 0
14, 135180, Note_on_c, 7, 63, 48
14, 135189, Note_on_c, 7, 60, 0
14, 135240, Note_on_c, 7, 60, 48
14, 135299, Note_on_c, 7, 63, 0
14, 135300, Note_on_c, 7, 63, 48
14, 135309, Note_on_c, 7, 60, 0
14, 135360, Note_on_c, 7, 60, 48
14, 135419, Note_on_c, 7, 63, 0
14, 135420, Note_on_c, 7, 67, 48
14, 135420, Note_on_c, 7, 63, 48
14, 135429, Note_on_c, 7, 60, 0
14, 135449, Note_on_c, 7, 67, 0
14, 135480, Note_on_c, 7, 68, 48
14, 135480, Note_on_c, 7, 60, 48
14, 135489, Note_on_c, 7, 63, 0
14, 135509, Note_on_c, 7, 68, 0
14, 135540, Note_on_c, 7, 70, 48
14, 135540, Note_on_c, 7, 63, 48
14, 135549, Note_on_c, 7, 60, 0
14, 135569, Note_on_c, 7, 70, 0
14, 135600, Note_on_c, 7, 72, 48
14, 135600, Note_on_c, 7, 60, 48
14, 135609, Note_on_c, 7, 63, 0
14, 135629, Note_on_c, 7, 72, 0
14, 135660, Note_on_c, 7, 73, 48
14, 135660, Note_on_c, 7, 63, 48
14, 135669, Note_on_c, 7, 60, 0
14, 135689, Note_on_c, 7, 73, 0
14, 135719, Note_on_c, 7, 63, 0
14, 135720, Note_on_c, 7, 75, 48
14, 135720, Note_on_c, 7, 60, 48
14, 135779, Note_on_c, 7, 75, 0
14, 135780, Note_on_c, 7, 63, 48
14, 135789, Note_on_c, 7, 60, 0
14, 135840, Note_on_c, 7, 80, 48
14, 135840, Note_on_c, 7, 60, 48
14, 135849, Note_on_c, 7, 63, 0
14, 135900, Note_on_c, 7, 63, 48
14, 135909, Note_on_c, 7, 60, 0
14, 135960, Note_on_c, 7, 60, 48
14, 135969, Note_on_c, 7, 63, 0
14, 136020, Note_on_c, 7, 72, 48
14, 136020, Note_on_c, 7, 63, 48
14, 136029, Note_on_c, 7, 60, 0
14, 136029, Note_on_c, 7, 80, 0
14, 136079, Note_on_c, 7, 72, 0
14, 136079, Note_on_c, 7, 63, 0
14, 136080, Note_on_c, 7, 73, 48
14, 136080, Note_on_c, 7, 61, 48
14, 136139, Note_on_c, 7, 73, 0
14, 136140, Note_on_c, 7, 63, 48
14, 136149, Note_on_c, 7, 61, 0
14, 136200, Note_on_c, 7, 75, 48
14, 136200, Note_on_c, 7, 58, 48
14, 136209, Note_on_c, 7, 63, 0
14, 136260, Note_on_c, 7, 63, 48
14, 136269, Note_on_c, 7, 58, 0
14, 136320, Note_on_c, 7, 58, 48
14, 136329, Note_on_c, 7, 63, 0
14, 136380, Note_on_c, 7, 73, 48
14, 136380, Note_on_c, 7, 63, 48
14, 136389, Note_on_c, 7, 58, 0
14, 136389, Note_on_c, 7, 75, 0
14, 136439, Note_on_c, 7, 73, 0
14, 136439, Note_on_c, 7, 63, 0
14, 136440, Note_on_c, 7, 70, 48
14, 136440, Note_on_c, 7, 58, 48
14, 136499, Note_on_c, 7, 70, 0
14, 136500, Note_on_c, 7, 63, 48
14, 136509, Note_on_c, 7, 58, 0
14, 136560, Note_on_c, 7, 73, 48
14, 136560, Note_on_c, 7, 58, 48
14, 136569, Note_on_c, 7, 63, 0
14, 136620, Note_on_c, 7, 63, 48
14, 136629, Note_on_c, 7, 58, 0
14, 136680, Note_on_c, 7, 58, 48
14, 136689, Note_on_c, 7, 63, 0
14, 136740, Note_on_c, 7, 70, 48
14, 136740, Note_on_c, 7, 63, 48
14, 136749, Note_on_c, 7, 58, 0
14, 136749, Note_on_c, 7, 73, 0
14, 136799, Note_on_c, 7, 70, 0
14, 136799, Note_on_c, 7, 63, 0
14, 136800, Note_on_c, 7, 67, 48
14, 136800, Note_on_c, 7, 58, 48
14, 136859, Note_on_c, 7, 67, 0
14, 136860, Note_on_c, 7, 63, 48
14, 136869, Note_on_c, 7, 58, 0
14, 136920, Note_on_c, 7, 70, 48
14, 136920, Note_on_c, 7, 58, 48
14, 136929, Note_on_c, 7, 63, 0
14, 136980, Note_on_c, 7, 63, 48
14, 136989, Note_on_c, 7, 58, 0
14, 137040, Note_on_c, 7, 58, 48
14, 137049, Note_on_c, 7, 63, 0
14, 137100, Note_on_c, 7, 67, 48
14, 137100, Note_on_c, 7, 63, 48
14, 137109, Note_on_c, 7, 58, 0
14, 137109, Note_on_c, 7, 70, 0
14, 137159, Note_on_c, 7, 67, 0
14, 137159, Note_on_c, 7, 63, 0
14, 137160, Note_on_c, 7, 63, 48
14, 137160, Note_on_c, 7, 58, 48
14, 137219, Note_on_c, 7, 63, 0
14, 137220, Note_on_c, 7, 63, 48
14, 137229, Note_on_c, 7, 58, 0
14, 137280, Note_on_c, 7, 74, 48
14, 137280, Note_on_c, 7, 58, 48
14, 137289, Note_on_c, 7, 63, 0
14, 137340, Note_on_c, 7, 63, 48
14, 137349, Note_on_c, 7, 58, 0
14, 137400, Note_on_c, 7, 58, 48
14, 137409, Note_on_c, 7, 63, 0
14, 137460, Note_on_c, 7, 61, 48
14, 137460, Note_on_c, 7, 63, 48
14, 137469, Note_on_c, 7, 58, 0
14, 137469, Note_on_c, 7, 74, 0
14, 137519, Note_on_c, 7, 61, 0
14, 137519, Note_on_c, 7, 63, 0
14, 137520, Note_on_c, 7, 60, 48
14, 137549, Note_on_c, 7, 60, 0
14, 137580, Note_on_c, 7, 72, 48
14, 137580, Note_on_c, 7, 60, 48
14, 137640, Note_on_c, 7, 68, 48
14, 137640, Note_on_c, 7, 63, 48
14, 137649, Note_on_c, 7, 60, 0
14, 137649, Note_on_c, 7, 72, 0
14, 137700, Note_on_c, 7, 72, 48
14, 137700, Note_on_c, 7, 60, 48
14, 137709, Note_on_c, 7, 68, 0
14, 137709, Note_on_c, 7, 63, 0
14, 137760, Note_on_c, 7, 68, 48
14, 137760, Note_on_c, 7, 63, 48
14, 137769, Note_on_c, 7, 72, 0
14, 137769, Note_on_c, 7, 60, 0
14, 137820, Note_on_c, 7, 72, 48
14, 137820, Note_on_c, 7, 60, 48
14, 137829, Note_on_c, 7, 68, 0
14, 137829, Note_on_c, 7, 63, 0
14, 137879, Note_on_c, 7, 72, 0
14, 137879, Note_on_c, 7, 60, 0
14, 137880, Note_on_c, 7, 68, 48
14, 137880, Note_on_c, 7, 65, 48
14, 137940, Note_on_c, 7, 72, 48
14, 137940, Note_on_c, 7, 60, 48
14, 137949, Note_on_c, 7, 65, 0
14, 137949, Note_on_c, 7, 68, 0
14, 138000, Note_on_c, 7, 68, 48
14, 138000, Note_on_c, 7, 65, 48
14, 138009, Note_on_c, 7, 72, 0
14, 138009, Note_on_c, 7, 60, 0
14, 138060, Note_on_c, 7, 72, 48
14, 138060, Note_on_c, 7, 60, 48
14, 138069, Note_on_c, 7, 68, 0
14, 138069, Note_on_c, 7, 65, 0
14, 138120, Note_on_c, 7, 68, 48
14, 138120, Note_on_c, 7, 65, 48
14, 138129, Note_on_c, 7, 72, 0
14, 138129, Note_on_c, 7, 60, 0
14, 138180, Note_on_c, 7, 72, 48
14, 138180, Note_on_c, 7, 60, 48
14, 138189, Note_on_c, 7, 68, 0
14, 138189, Note_on_c, 7, 65, 0
14, 138239, Note_on_c, 7, 72, 0
14, 138239, Note_on_c, 7, 60, 0
14, 138240, Note_on_c, 7, 70, 48
14, 138240, Note_on_c, 7, 67, 48
14, 138299, Note_on_c, 7, 67, 0
14, 138300, Note_on_c, 7, 72, 48
14, 138300, Note_on_c, 7, 60, 48
14, 138309, Note_on_c, 7, 70, 0
14, 138360, Note_on_c, 7, 67, 48
14, 138360, Note_on_c, 7, 63, 48
14, 138369, Note_on_c, 7, 60, 0
14, 138369, Note_on_c, 7, 72, 0
14, 138420, Note_on_c, 7, 72, 48
14, 138420, Note_on_c, 7, 60, 48
14, 138429, Note_on_c, 7, 67, 0
14, 138429, Note_on_c, 7, 63, 0
14, 138480, Note_on_c, 7, 67, 48
14, 138480, Note_on_c, 7, 63, 48
14, 138489, Note_on_c, 7, 72, 0
14, 138489, Note_on_c, 7, 60, 0
14, 138540, Note_on_c, 7, 72, 48
14, 138540, Note_on_c, 7, 60, 48
14, 138549, Note_on_c, 7, 67, 0
14, 138549, Note_on_c, 7, 63, 0
14, 138599, Note_on_c, 7, 72, 0
14, 138599, Note_on_c, 7, 60, 0
14, 138600, Note_on_c, 7, 70, 48
14, 138600, Note_on_c, 7, 67, 48
14, 138660, Note_on_c, 7, 72, 48
14, 138660, Note_on_c, 7, 60, 48
14, 138669, Note_on_c, 7, 67, 0
14, 138669, Note_on_c, 7, 70, 0
14, 138719, Note_on_c, 7, 72, 0
14, 138719, Note_on_c, 7, 60, 0
14, 138720, Note_on_c, 7, 72, 48
14, 138720, Note_on_c, 7, 60, 48
14, 138749, Note_on_c, 7, 60, 0
14, 138749, Note_on_c, 7, 72, 0
14, 138780, Note_on_c, 7, 72, 48
14, 138780, Note_on_c, 7, 60, 48
14, 138809, Note_on_c, 7, 60, 0
14, 138809, Note_on_c, 7, 72, 0
14, 138840, Note_on_c, 7, 72, 48
14, 138840, Note_on_c, 7, 60, 48
14, 138869, Note_on_c, 7, 60, 0
14, 138869, Note_on_c, 7, 72, 0
14, 138900, Note_on_c, 7, 72, 48
14, 138900, Note_on_c, 7, 60, 48
14, 138929, Note_on_c, 7, 60, 0
14, 138929, Note_on_c, 7, 72, 0
14, 138960, Note_on_c, 7, 72, 48
14, 138960, Note_on_c, 7, 60, 48
14, 139079, Note_on_c, 7, 60, 0
14, 139079, Note_on_c, 7, 72, 0
14, 139680, Note_on_c, 7, 65, 48
14, 139799, Note_on_c, 7, 65, 0
14, 139800, Note_on_c, 7, 74, 96
14, 139979, Note_on_c, 7, 74, 0
14, 139980, Note_on_c, 7, 65, 48
14, 140039, Note_on_c, 7, 65, 0
14, 140040, Note_on_c, 7, 63, 48
14, 140159, Note_on_c, 7, 63, 0
14, 140160, Note_on_c, 7, 72, 96
14, 140339, Note_on_c, 7, 72, 0
14, 140340, Note_on_c, 7, 63, 48
14, 140399, Note_on_c, 7, 63, 0
14, 140400, Note_on_c, 7, 70, 48
14, 140400, Note_on_c, 7, 62, 48
14, 140429, Note_on_c, 7, 62, 0
14, 140459, Note_on_c, 7, 70, 0
14, 140460, Note_on_c, 7, 67, 48
14, 140490, Note_on_c, 7, 69, 48
14, 140499, Note_on_c, 7, 67, 0
14, 140519, Note_on_c, 7, 69, 0
14, 140520, Note_on_c, 7, 79, 96
14, 140520, Note_on_c, 7, 70, 48
14, 140549, Note_on_c, 7, 70, 0
14, 140580, Note_on_c, 7, 67, 48
14, 140609, Note_on_c, 7, 67, 0
14, 140640, Note_on_c, 7, 63, 48
14, 140669, Note_on_c, 7, 63, 0
14, 140699, Note_on_c, 7, 79, 0
14, 140700, Note_on_c, 7, 70, 48
14, 140700, Note_on_c, 7, 62, 48
14, 140729, Note_on_c, 7, 62, 0
14, 140759, Note_on_c, 7, 70, 0
14, 140760, Note_on_c, 7, 69, 48
14, 140760, Note_on_c, 7, 60, 48
14, 140789, Note_on_c, 7, 60, 0
14, 140819, Note_on_c, 7, 69, 0
14, 140820, Note_on_c, 7, 66, 48
14, 140850, Note_on_c, 7, 67, 48
14, 140859, Note_on_c, 7, 66, 0
14, 140879, Note_on_c, 7, 67, 0
14, 140880, Note_on_c, 7, 78, 96
14, 140880, Note_on_c, 7, 69, 48
14, 140909, Note_on_c, 7, 69, 0
14, 140940, Note_on_c, 7, 65, 48
14, 140969, Note_on_c, 7, 65, 0
14, 141000, Note_on_c, 7, 62, 48
14, 141029, Note_on_c, 7, 62, 0
14, 141059, Note_on_c, 7, 78, 0
14, 141060, Note_on_c, 7, 78, 48
14, 141060, Note_on_c, 7, 62, 48
14, 141089, Note_on_c, 7, 62, 0
14, 141119, Note_on_c, 7, 78, 0
14, 141120, Note_on_c, 7, 79, 48
14, 141120, Note_on_c, 7, 62, 48
14, 141149, Note_on_c, 7, 62, 0
14, 141149, Note_on_c, 7, 79, 0
14, 141180, Note_on_c, 7, 79, 48
14, 141180, Note_on_c, 7, 67, 48
14, 141210, Note_on_c, 7, 81, 48
14, 141210, Note_on_c, 7, 69, 48
14, 141219, Note_on_c, 7, 67, 0
14, 141219, Note_on_c, 7, 79, 0
14, 141239, Note_on_c, 7, 81, 0
14, 141239, Note_on_c, 7, 69, 0
14, 141240, Note_on_c, 7, 82, 48
14, 141240, Note_on_c, 7, 70, 48
14, 141269, Note_on_c, 7, 70, 0
14, 141269, Note_on_c, 7, 82, 0
14, 141300, Note_on_c, 7, 79, 48
14, 141300, Note_on_c, 7, 67, 48
14, 141329, Note_on_c, 7, 67, 0
14, 141329, Note_on_c, 7, 79, 0
14, 141360, Note_on_c, 7, 75, 48
14, 141360, Note_on_c, 7, 63, 48
14, 141389, Note_on_c, 7, 63, 0
14, 141389, Note_on_c, 7, 75, 0
14, 141420, Note_on_c, 7, 74, 48
14, 141420, Note_on_c, 7, 62, 48
14, 141449, Note_on_c, 7, 62, 0
14, 141449, Note_on_c, 7, 74, 0
14, 141480, Note_on_c, 7, 72, 50
14, 141480, Note_on_c, 7, 60, 50
14, 141509, Note_on_c, 7, 60, 0
14, 141509, Note_on_c, 7, 72, 0
14, 141540, Note_on_c, 7, 81, 53
14, 141540, Note_on_c, 7, 69, 53
14, 141569, Note_on_c, 7, 69, 0
14, 141569, Note_on_c, 7, 81, 0
14, 141600, Note_on_c, 7, 70, 55
14, 141600, Note_on_c, 7, 58, 55
14, 141629, Note_on_c, 7, 58, 0
14, 141629, Note_on_c, 7, 70, 0
14, 141660, Note_on_c, 7, 82, 58
14, 141660, Note_on_c, 7, 70, 58
14, 141689, Note_on_c, 7, 70, 0
14, 141689, Note_on_c, 7, 82, 0
14, 141720, Note_on_c, 7, 82, 60
14, 141720, Note_on_c, 7, 70, 60
14, 141749, Note_on_c, 7, 70, 0
14, 141749, Note_on_c, 7, 82, 0
14, 141780, Note_on_c, 7, 82, 63
14, 141780, Note_on_c, 7, 79, 63
14, 141809, Note_on_c, 7, 79, 0
14, 141809, Note_on_c, 7, 82, 0
14, 141840, Note_on_c, 7, 82, 65
14, 141840, Note_on_c, 7, 79, 65
14, 141899, Note_on_c, 7, 79, 0
14, 141899, Note_on_c, 7, 82, 0
14, 141960, Note_on_c, 7, 70, 112
14, 141960, Note_on_c, 7, 67, 112
14, 142139, Note_on_c, 7, 67, 0
14, 142139, Note_on_c, 7, 70, 0
14, 142140, Note_on_c, 7, 70, 78
14, 142140, Note_on_c, 7, 67, 78
14, 142199, Note_on_c, 7, 67, 0
14, 142199, Note_on_c, 7, 70, 0
14, 142200, Note_on_c, 7, 69, 80
14, 142200, Note_on_c, 7, 65, 80
14, 142259, Note_on_c, 7, 65, 0
14, 142259, Note_on_c, 7, 69, 0
14, 142320, Note_on_c, 7, 81, 85
14, 142320, Note_on_c, 7, 77, 85
14, 142499, Note_on_c, 7, 77, 0
14, 142499, Note_on_c, 7, 81, 0
14, 142500, Note_on_c, 7, 81, 93
14, 142500, Note_on_c, 7, 77, 93
14, 142559, Note_on_c, 7, 77, 0
14, 142559, Note_on_c, 7, 81, 0
14, 142560, Note_on_c, 7, 81, 95
14, 142560, Note_on_c, 7, 77, 95
14, 142619, Note_on_c, 7, 77, 0
14, 142619, Note_on_c, 7, 81, 0
14, 142680, Note_on_c, 7, 67, 100
14, 142680, Note_on_c, 7, 64, 100
14, 142859, Note_on_c, 7, 64, 0
14, 142859, Note_on_c, 7, 67, 0
14, 142860, Note_on_c, 7, 67, 108
14, 142860, Note_on_c, 7, 64, 108
14, 142919, Note_on_c, 7, 64, 0
14, 142919, Note_on_c, 7, 67, 0
14, 142920, Note_on_c, 7, 65, 110
14, 142920, Note_on_c, 7, 62, 110
14, 142979, Note_on_c, 7, 62, 0
14, 142979, Note_on_c, 7, 65, 0
14, 143040, Note_on_c, 7, 77, 127
14, 143040, Note_on_c, 7, 74, 127
14, 143219, Note_on_c, 7, 74, 0
14, 143219, Note_on_c, 7, 77, 0
14, 143220, Note_on_c, 7, 77, 123
14, 143220, Note_on_c, 7, 74, 123
14, 143279, Note_on_c, 7, 74, 0
14, 143279, Note_on_c, 7, 77, 0
14, 143280, Note_on_c, 7, 77, 125
14, 143280, Note_on_c, 7, 74, 125
14, 143399, Note_on_c, 7, 74, 0
14, 143399, Note_on_c, 7, 77, 0
14, 143400, Note_on_c, 7, 77, 127
14, 143400, Note_on_c, 7, 59, 127
14, 143579, Note_on_c, 7, 77, 0
14, 143580, Note_on_c, 7, 65, 127
14, 143639, Note_on_c, 7, 65, 0
14, 143640, Note_on_c, 7, 65, 127
14, 143759, Note_on_c, 7, 65, 0
14, 143760, Note_on_c, 7, 77, 127
14, 143939, Note_on_c, 7, 77, 0
14, 143940, Note_on_c, 7, 65, 127
14, 143999, Note_on_c, 7, 65, 0
14, 144000, Note_on_c, 7, 65, 127
14, 144119, Note_on_c, 7, 65, 0
14, 144119, Note_on_c, 7, 59, 0
14, 144120, Note_on_c, 7, 77, 127
14, 144120, Note_on_c, 7, 68, 127
14, 144120, Note_on_c, 7, 59, 127
14, 144240, Note_on_c, 7, 71, 127
14, 144249, Note_on_c, 7, 77, 0
14, 144359, Note_on_c, 7, 68, 0
14, 144359, Note_on_c, 7, 59, 0
14, 144359, Note_on_c, 7, 71, 0
14, 144360, Note_on_c, 7, 80, 127
14, 144360, Note_on_c, 7, 59, 127
14, 144360, Note_on_c, 7, 68, 127
14, 144480, Note_on_c, 7, 71, 127
14, 144489, Note_on_c, 7, 80, 0
14, 144599, Note_on_c, 7, 59, 0
14, 144599, Note_on_c, 7, 68, 0
14, 144599, Note_on_c, 7, 71, 0
14, 144600, Note_on_c, 7, 83, 127
14, 144600, Note_on_c, 7, 68, 127
14, 144600, Note_on_c, 7, 59, 127
14, 144839, Note_on_c, 7, 59, 0
14, 144839, Note_on_c, 7, 68, 0
14, 144839, Note_on_c, 7, 83, 0
14, 144840, Note_on_c, 7, 77, 127
14, 144840, Note_on_c, 7, 59, 127
14, 144840, Note_on_c, 7, 68, 127
14, 144960, Note_on_c, 7, 71, 127
14, 144969, Note_on_c, 7, 77, 0
14, 145079, Note_on_c, 7, 59, 0
14, 145079, Note_on_c, 7, 68, 0
14, 145079, Note_on_c, 7, 71, 0
14, 145080, Note_on_c, 7, 80, 127
14, 145080, Note_on_c, 7, 59, 127
14, 145080, Note_on_c, 7, 68, 127
14, 145200, Note_on_c, 7, 71, 127
14, 145209, Note_on_c, 7, 80, 0
14, 145319, Note_on_c, 7, 59, 0
14, 145319, Note_on_c, 7, 68, 0
14, 145319, Note_on_c, 7, 71, 0
14, 145320, Note_on_c, 7, 83, 127
14, 145320, Note_on_c, 7, 59, 127
14, 145320, Note_on_c, 7, 68, 127
14, 145439, Note_on_c, 7, 68, 0
14, 145439, Note_on_c, 7, 59, 0
14, 145439, Note_on_c, 7, 83, 0
14, 145440, Note_on_c, 7, 64, 127
14, 145440, Note_on_c, 7, 60, 127
14, 145440, Note_on_c, 7, 69, 127
14, 145559, Note_on_c, 7, 64, 0
14, 145560, Note_on_c, 7, 76, 127
14, 145739, Note_on_c, 7, 76, 0
14, 145740, Note_on_c, 7, 64, 127
14, 145799, Note_on_c, 7, 64, 0
14, 145800, Note_on_c, 7, 64, 127
14, 145919, Note_on_c, 7, 64, 0
14, 145920, Note_on_c, 7, 76, 127
14, 146099, Note_on_c, 7, 76, 0
14, 146100, Note_on_c, 7, 64, 127
14, 146159, Note_on_c, 7, 64, 0
14, 146160, Note_on_c, 7, 64, 127
14, 146279, Note_on_c, 7, 64, 0
14, 146279, Note_on_c, 7, 69, 0
14, 146279, Note_on_c, 7, 60, 0
14, 146280, Note_on_c, 7, 76, 127
14, 146280, Note_on_c, 7, 69, 127
14, 146280, Note_on_c, 7, 60, 127
14, 146399, Note_on_c, 7, 69, 0
14, 146400, Note_on_c, 7, 69, 127
14, 146409, Note_on_c, 7, 76, 0
14, 146519, Note_on_c, 7, 69, 0
14, 146519, Note_on_c, 7, 60, 0
14, 146520, Note_on_c, 7, 81, 127
14, 146520, Note_on_c, 7, 69, 127
14, 146520, Note_on_c, 7, 60, 127
14, 146639, Note_on_c, 7, 69, 0
14, 146640, Note_on_c, 7, 69, 127
14, 146649, Note_on_c, 7, 81, 0
14, 146759, Note_on_c, 7, 69, 0
14, 146759, Note_on_c, 7, 60, 0
14, 146760, Note_on_c, 7, 81, 127
14, 146760, Note_on_c, 7, 69, 127
14, 146760, Note_on_c, 7, 60, 127
14, 146999, Note_on_c, 7, 60, 0
14, 146999, Note_on_c, 7, 69, 0
14, 146999, Note_on_c, 7, 81, 0
14, 147000, Note_on_c, 7, 76, 127
14, 147000, Note_on_c, 7, 69, 127
14, 147000, Note_on_c, 7, 60, 127
14, 147119, Note_on_c, 7, 69, 0
14, 147120, Note_on_c, 7, 69, 127
14, 147129, Note_on_c, 7, 76, 0
14, 147239, Note_on_c, 7, 69, 0
14, 147239, Note_on_c, 7, 60, 0
14, 147240, Note_on_c, 7, 81, 127
14, 147240, Note_on_c, 7, 69, 127
14, 147240, Note_on_c, 7, 60, 127
14, 147359, Note_on_c, 7, 69, 0
14, 147360, Note_on_c, 7, 69, 127
14, 147369, Note_on_c, 7, 81, 0
14, 147479, Note_on_c, 7, 69, 0
14, 147479, Note_on_c, 7, 60, 0
14, 147480, Note_on_c, 7, 81, 127
14, 147480, Note_on_c, 7, 64, 127
14, 147599, Note_on_c, 7, 64, 0
14, 147600, Note_on_c, 7, 63, 127
14, 147719, Note_on_c, 7, 81, 0
14, 147720, Note_on_c, 7, 81, 127
14, 147899, Note_on_c, 7, 81, 0
14, 147900, Note_on_c, 7, 69, 127
14, 147959, Note_on_c, 7, 69, 0
14, 147960, Note_on_c, 7, 69, 127
14, 148079, Note_on_c, 7, 69, 0
14, 148080, Note_on_c, 7, 81, 127
14, 148259, Note_on_c, 7, 81, 0
14, 148260, Note_on_c, 7, 69, 127
14, 148319, Note_on_c, 7, 69, 0
14, 148320, Note_on_c, 7, 69, 127
14, 148439, Note_on_c, 7, 69, 0
14, 148439, Note_on_c, 7, 63, 0
14, 148440, Note_on_c, 7, 75, 127
14, 148440, Note_on_c, 7, 63, 127
14, 148560, Note_on_c, 7, 69, 127
14, 148569, Note_on_c, 7, 75, 0
14, 148679, Note_on_c, 7, 69, 0
14, 148679, Note_on_c, 7, 63, 0
14, 148680, Note_on_c, 7, 78, 127
14, 148680, Note_on_c, 7, 66, 127
14, 148800, Note_on_c, 7, 69, 127
14, 148809, Note_on_c, 7, 78, 0
14, 148919, Note_on_c, 7, 69, 0
14, 148919, Note_on_c, 7, 66, 0
14, 148920, Note_on_c, 7, 81, 127
14, 148920, Note_on_c, 7, 63, 127
14, 149159, Note_on_c, 7, 63, 0
14, 149159, Note_on_c, 7, 81, 0
14, 149160, Note_on_c, 7, 75, 127
14, 149160, Note_on_c, 7, 63, 127
14, 149280, Note_on_c, 7, 69, 127
14, 149289, Note_on_c, 7, 75, 0
14, 149399, Note_on_c, 7, 69, 0
14, 149399, Note_on_c, 7, 63, 0
14, 149400, Note_on_c, 7, 78, 127
14, 149400, Note_on_c, 7, 66, 127
14, 149520, Note_on_c, 7, 69, 127
14, 149529, Note_on_c, 7, 78, 0
14, 149639, Note_on_c, 7, 69, 0
14, 149639, Note_on_c, 7, 66, 0
14, 149640, Note_on_c, 7, 81, 127
14, 149640, Note_on_c, 7, 63, 127
14, 149759, Note_on_c, 7, 63, 0
14, 149759, Note_on_c, 7, 81, 0
14, 149760, Note_on_c, 7, 67, 127
14, 149760, Note_on_c, 7, 64, 127
14, 149879, Note_on_c, 7, 64, 0
14, 149879, Note_on_c, 7, 67, 0
14, 149880, Note_on_c, 7, 79, 127
14, 149880, Note_on_c, 7, 76, 127
14, 150059, Note_on_c, 7, 76, 0
14, 150059, Note_on_c, 7, 79, 0
14, 150060, Note_on_c, 7, 67, 127
14, 150060, Note_on_c, 7, 64, 127
14, 150119, Note_on_c, 7, 64, 0
14, 150119, Note_on_c, 7, 67, 0
14, 150120, Note_on_c, 7, 67, 127
14, 150120, Note_on_c, 7, 64, 127
14, 150239, Note_on_c, 7, 64, 0
14, 150239, Note_on_c, 7, 67, 0
14, 150240, Note_on_c, 7, 79, 127
14, 150240, Note_on_c, 7, 76, 127
14, 150419, Note_on_c, 7, 76, 0
14, 150419, Note_on_c, 7, 79, 0
14, 150420, Note_on_c, 7, 67, 127
14, 150420, Note_on_c, 7, 64, 127
14, 150479, Note_on_c, 7, 64, 0
14, 150479, Note_on_c, 7, 67, 0
14, 150480, Note_on_c, 7, 67, 127
14, 150480, Note_on_c, 7, 64, 127
14, 150599, Note_on_c, 7, 64, 0
14, 150599, Note_on_c, 7, 67, 0
14, 150600, Note_on_c, 7, 79, 127
14, 150600, Note_on_c, 7, 64, 127
14, 150720, Note_on_c, 7, 76, 127
14, 150729, Note_on_c, 7, 79, 0
14, 150839, Note_on_c, 7, 76, 0
14, 150839, Note_on_c, 7, 64, 0
14, 150840, Note_on_c, 7, 85, 127
14, 150840, Note_on_c, 7, 64, 127
14, 150960, Note_on_c, 7, 76, 127
14, 150969, Note_on_c, 7, 85, 0
14, 151079, Note_on_c, 7, 76, 0
14, 151079, Note_on_c, 7, 64, 0
14, 151080, Note_on_c, 7, 88, 127
14, 151080, Note_on_c, 7, 67, 127
14, 151319, Note_on_c, 7, 67, 0
14, 151319, Note_on_c, 7, 88, 0
14, 151320, Note_on_c, 7, 79, 127
14, 151320, Note_on_c, 7, 64, 127
14, 151440, Note_on_c, 7, 76, 127
14, 151449, Note_on_c, 7, 79, 0
14, 151559, Note_on_c, 7, 76, 0
14, 151559, Note_on_c, 7, 64, 0
14, 151560, Note_on_c, 7, 85, 127
14, 151560, Note_on_c, 7, 64, 127
14, 151680, Note_on_c, 7, 76, 127
14, 151689, Note_on_c, 7, 85, 0
14, 151799, Note_on_c, 7, 76, 0
14, 151799, Note_on_c, 7, 64, 0
14, 151800, Note_on_c, 7, 88, 127
14, 151800, Note_on_c, 7, 67, 127
14, 151919, Note_on_c, 7, 67, 0
14, 151919, Note_on_c, 7, 88, 0
14, 152040, Note_on_c, 7, 87, 127
14, 152040, Note_on_c, 7, 78, 127
14, 152279, Note_on_c, 7, 78, 0
14, 152279, Note_on_c, 7, 87, 0
14, 152280, Note_on_c, 7, 87, 127
14, 152280, Note_on_c, 7, 78, 127
14, 152519, Note_on_c, 7, 78, 0
14, 152519, Note_on_c, 7, 87, 0
14, 152520, Note_on_c, 7, 87, 127
14, 152520, Note_on_c, 7, 78, 127
14, 152639, Note_on_c, 7, 78, 0
14, 152639, Note_on_c, 7, 87, 0
14, 152760, Note_on_c, 7, 88, 127
14, 152760, Note_on_c, 7, 79, 127
14, 152760, Note_on_c, 7, 72, 127
14, 152999, Note_on_c, 7, 72, 0
14, 152999, Note_on_c, 7, 79, 0
14, 152999, Note_on_c, 7, 88, 0
14, 153000, Note_on_c, 7, 88, 127
14, 153000, Note_on_c, 7, 72, 127
14, 153000, Note_on_c, 7, 79, 127
14, 153239, Note_on_c, 7, 79, 0
14, 153239, Note_on_c, 7, 72, 0
14, 153239, Note_on_c, 7, 88, 0
14, 153240, Note_on_c, 7, 88, 127
14, 153240, Note_on_c, 7, 79, 127
14, 153240, Note_on_c, 7, 72, 127
14, 153299, Note_on_c, 7, 72, 0
14, 153299, Note_on_c, 7, 79, 0
14, 153299, Note_on_c, 7, 88, 0
14, 153480, Note_on_c, 7, 89, 96
14, 153480, Note_on_c, 7, 77, 96
14, 153480, Note_on_c, 7, 76, 96
14, 153480, Note_on_c, 7, 72, 96
14, 153719, Note_on_c, 7, 72, 0
14, 153719, Note_on_c, 7, 89, 0
14, 153719, Note_on_c, 7, 77, 0
14, 153719, Note_on_c, 7, 76, 0
14, 153840, Note_on_c, 7, 89, 96
14, 153840, Note_on_c, 7, 77, 96
14, 153840, Note_on_c, 7, 72, 96
14, 153840, Note_on_c, 7, 76, 96
14, 154079, Note_on_c, 7, 76, 0
14, 154079, Note_on_c, 7, 89, 0
14, 154079, Note_on_c, 7, 77, 0
14, 154079, Note_on_c, 7, 72, 0
14, 154200, Note_on_c, 7, 89, 96
14, 154200, Note_on_c, 7, 77, 96
14, 154200, Note_on_c, 7, 76, 96
14, 154200, Note_on_c, 7, 72, 96
14, 154439, Note_on_c, 7, 72, 0
14, 154439, Note_on_c, 7, 89, 0
14, 154439, Note_on_c, 7, 77, 0
14, 154439, Note_on_c, 7, 76, 0
14, 154440, Note_on_c, 7, 77, 96
14, 154440, Note_on_c, 7, 89, 96
14, 154440, Note_on_c, 7, 72, 96
14, 154440, Note_on_c, 7, 76, 96
14, 154679, Note_on_c, 7, 76, 0
14, 154679, Note_on_c, 7, 77, 0
14, 154679, Note_on_c, 7, 89, 0
14, 154679, Note_on_c, 7, 72, 0
14, 154680, Note_on_c, 7, 89, 96
14, 154680, Note_on_c, 7, 77, 96
14, 154680, Note_on_c, 7, 76, 96
14, 154680, Note_on_c, 7, 72, 96
14, 154739, Note_on_c, 7, 72, 0
14, 154739, Note_on_c, 7, 89, 0
14, 154739, Note_on_c, 7, 77, 0
14, 154739, Note_on_c, 7, 76, 0
14, 154920, Note_on_c, 7, 63, 96
14, 154920, Note_on_c, 7, 60, 96
14, 154979, Note_on_c, 7, 60, 0
14, 154979, Note_on_c, 7, 63, 0
14, 155040, Note_on_c, 7, 63, 96
14, 155040, Note_on_c, 7, 60, 96
14, 155099, Note_on_c, 7, 60, 0
14, 155099, Note_on_c, 7, 63, 0
14, 155160, Note_on_c, 7, 63, 96
14, 155160, Note_on_c, 7, 60, 96
14, 155219, Note_on_c, 7, 60, 0
14, 155219, Note_on_c, 7, 63, 0
14, 155280, Note_on_c, 7, 63, 88
14, 155280, Note_on_c, 7, 60, 88
14, 155339, Note_on_c, 7, 60, 0
14, 155339, Note_on_c, 7, 63, 0
14, 155400, Note_on_c, 7, 63, 80
14, 155400, Note_on_c, 7, 60, 80
14, 155459, Note_on_c, 7, 60, 0
14, 155459, Note_on_c, 7, 63, 0
14, 155520, Note_on_c, 7, 63, 72
14, 155520, Note_on_c, 7, 60, 72
14, 155579, Note_on_c, 7, 60, 0
14, 155579, Note_on_c, 7, 63, 0
14, 155640, Note_on_c, 7, 63, 64
14, 155640, Note_on_c, 7, 59, 64
14, 155699, Note_on_c, 7, 59, 0
14, 155699, Note_on_c, 7, 63, 0
14, 155760, Note_on_c, 7, 63, 56
14, 155760, Note_on_c, 7, 59, 56
14, 155819, Note_on_c, 7, 59, 0
14, 155819, Note_on_c, 7, 63, 0
14, 155880, Note_on_c, 7, 59, 48
14, 155880, Note_on_c, 7, 63, 48
14, 155939, Note_on_c, 7, 63, 0
14, 155939, Note_on_c, 7, 59, 0
14, 156000, Note_on_c, 7, 63, 48
14, 156000, Note_on_c, 7, 59, 48
14, 156059, Note_on_c, 7, 59, 0
14, 156059, Note_on_c, 7, 63, 0
14, 156120, Note_on_c, 7, 63, 48
14, 156120, Note_on_c, 7, 59, 48
14, 156179, Note_on_c, 7, 59, 0
14, 156179, Note_on_c, 7, 63, 0
14, 156240, Note_on_c, 7, 64, 48
14, 156240, Note_on_c, 7, 59, 48
14, 156299, Note_on_c, 7, 64, 0
14, 156300, Note_on_c, 7, 71, 48
14, 156359, Note_on_c, 7, 59, 0
14, 156360, Note_on_c, 7, 64, 48
14, 156419, Note_on_c, 7, 71, 0
14, 156420, Note_on_c, 7, 71, 48
14, 156480, Note_on_c, 7, 66, 48
14, 156489, Note_on_c, 7, 64, 0
14, 156539, Note_on_c, 7, 71, 0
14, 156540, Note_on_c, 7, 71, 48
14, 156600, Note_on_c, 7, 67, 48
14, 156609, Note_on_c, 7, 66, 0
14, 156659, Note_on_c, 7, 71, 0
14, 156660, Note_on_c, 7, 71, 48
14, 156779, Note_on_c, 7, 71, 0
14, 156780, Note_on_c, 7, 71, 48
14, 156780, Note_on_c, 7, 66, 48
14, 156789, Note_on_c, 7, 67, 0
14, 156840, Note_on_c, 7, 64, 48
14, 156849, Note_on_c, 7, 66, 0
14, 156899, Note_on_c, 7, 71, 0
14, 156900, Note_on_c, 7, 83, 48
14, 156959, Note_on_c, 7, 64, 0
14, 156960, Note_on_c, 7, 63, 48
14, 157019, Note_on_c, 7, 83, 0
14, 157020, Note_on_c, 7, 83, 48
14, 157080, Note_on_c, 7, 62, 48
14, 157089, Note_on_c, 7, 63, 0
14, 157139, Note_on_c, 7, 83, 0
14, 157140, Note_on_c, 7, 83, 48
14, 157200, Note_on_c, 7, 61, 48
14, 157209, Note_on_c, 7, 62, 0
14, 157259, Note_on_c, 7, 83, 0
14, 157260, Note_on_c, 7, 83, 48
14, 157320, Note_on_c, 7, 59, 96
14, 157329, Note_on_c, 7, 61, 0
14, 157349, Note_on_c, 7, 59, 0
14, 157350, Note_on_c, 7, 59, 48
14, 157379, Note_on_c, 7, 83, 0
14, 157380, Note_on_c, 7, 83, 48
14, 157499, Note_on_c, 7, 83, 0
14, 157500, Note_on_c, 7, 83, 48
14, 157560, Note_on_c, 7, 61, 48
14, 157569, Note_on_c, 7, 59, 0
14, 157619, Note_on_c, 7, 83, 0
14, 157620, Note_on_c, 7, 71, 48
14, 157620, Note_on_c, 7, 63, 48
14, 157629, Note_on_c, 7, 61, 0
14, 157679, Note_on_c, 7, 63, 0
14, 157680, Note_on_c, 7, 64, 48
14, 157739, Note_on_c, 7, 71, 0
14, 157740, Note_on_c, 7, 71, 48
14, 157799, Note_on_c, 7, 64, 0
14, 157800, Note_on_c, 7, 64, 48
14, 157859, Note_on_c, 7, 71, 0
14, 157860, Note_on_c, 7, 71, 48
14, 157920, Note_on_c, 7, 66, 48
14, 157929, Note_on_c, 7, 64, 0
14, 157979, Note_on_c, 7, 71, 0
14, 157980, Note_on_c, 7, 71, 48
14, 158040, Note_on_c, 7, 67, 96
14, 158049, Note_on_c, 7, 66, 0
14, 158069, Note_on_c, 7, 67, 0
14, 158070, Note_on_c, 7, 67, 48
14, 158099, Note_on_c, 7, 71, 0
14, 158100, Note_on_c, 7, 71, 48
14, 158219, Note_on_c, 7, 71, 0
14, 158220, Note_on_c, 7, 71, 48
14, 158220, Note_on_c, 7, 66, 48
14, 158229, Note_on_c, 7, 67, 0
14, 158280, Note_on_c, 7, 64, 48
14, 158289, Note_on_c, 7, 66, 0
14, 158339, Note_on_c, 7, 71, 0
14, 158340, Note_on_c, 7, 83, 48
14, 158399, Note_on_c, 7, 64, 0
14, 158400, Note_on_c, 7, 63, 48
14, 158459, Note_on_c, 7, 83, 0
14, 158460, Note_on_c, 7, 83, 48
14, 158520, Note_on_c, 7, 62, 48
14, 158529, Note_on_c, 7, 63, 0
14, 158579, Note_on_c, 7, 83, 0
14, 158580, Note_on_c, 7, 83, 48
14, 158640, Note_on_c, 7, 61, 48
14, 158649, Note_on_c, 7, 62, 0
14, 158699, Note_on_c, 7, 83, 0
14, 158700, Note_on_c, 7, 83, 48
14, 158759, Note_on_c, 7, 61, 0
14, 158819, Note_on_c, 7, 83, 0
14, 158820, Note_on_c, 7, 81, 50
14, 158820, Note_on_c, 7, 65, 50
14, 158880, Note_on_c, 7, 80, 52
14, 158880, Note_on_c, 7, 64, 52
14, 158889, Note_on_c, 7, 65, 0
14, 158889, Note_on_c, 7, 81, 0
14, 158940, Note_on_c, 7, 77, 52
14, 158940, Note_on_c, 7, 65, 54
14, 158949, Note_on_c, 7, 80, 0
14, 158949, Note_on_c, 7, 64, 0
14, 159000, Note_on_c, 7, 76, 52
14, 159009, Note_on_c, 7, 77, 0
14, 159009, Note_on_c, 7, 65, 0
14, 159060, Note_on_c, 7, 74, 52
14, 159060, Note_on_c, 7, 62, 52
14, 159069, Note_on_c, 7, 76, 0
14, 159119, Note_on_c, 7, 74, 0
14, 159120, Note_on_c, 7, 72, 52
14, 159120, Note_on_c, 7, 60, 48
14, 159129, Note_on_c, 7, 62, 0
14, 159179, Note_on_c, 7, 60, 0
14, 159180, Note_on_c, 7, 64, 48
14, 159239, Note_on_c, 7, 72, 0
14, 159240, Note_on_c, 7, 69, 48
14, 159299, Note_on_c, 7, 64, 0
14, 159300, Note_on_c, 7, 64, 48
14, 159360, Note_on_c, 7, 68, 48
14, 159369, Note_on_c, 7, 69, 0
14, 159419, Note_on_c, 7, 64, 0
14, 159420, Note_on_c, 7, 64, 48
14, 159480, Note_on_c, 7, 69, 56
14, 159489, Note_on_c, 7, 68, 0
14, 159539, Note_on_c, 7, 64, 0
14, 159540, Note_on_c, 7, 64, 48
14, 159659, Note_on_c, 7, 64, 0
14, 159660, Note_on_c, 7, 71, 48
14, 159660, Note_on_c, 7, 64, 48
14, 159669, Note_on_c, 7, 69, 0
14, 159720, Note_on_c, 7, 72, 48
14, 159729, Note_on_c, 7, 71, 0
14, 159779, Note_on_c, 7, 64, 0
14, 159780, Note_on_c, 7, 64, 48
14, 159839, Note_on_c, 7, 72, 0
14, 159840, Note_on_c, 7, 71, 48
14, 159899, Note_on_c, 7, 64, 0
14, 159900, Note_on_c, 7, 76, 48
14, 159959, Note_on_c, 7, 76, 0
14, 159960, Note_on_c, 7, 76, 48
14, 159969, Note_on_c, 7, 71, 0
14, 160019, Note_on_c, 7, 76, 0
14, 160020, Note_on_c, 7, 76, 48
14, 160080, Note_on_c, 7, 75, 48
14, 160139, Note_on_c, 7, 76, 0
14, 160140, Note_on_c, 7, 76, 48
14, 160199, Note_on_c, 7, 76, 0
14, 160200, Note_on_c, 7, 76, 56
14, 160209, Note_on_c, 7, 75, 0
14, 160259, Note_on_c, 7, 76, 0
14, 160260, Note_on_c, 7, 76, 56
14, 160379, Note_on_c, 7, 76, 0
14, 160380, Note_on_c, 7, 74, 48
14, 160380, Note_on_c, 7, 76, 48
14, 160440, Note_on_c, 7, 72, 48
14, 160449, Note_on_c, 7, 74, 0
14, 160499, Note_on_c, 7, 76, 0
14, 160500, Note_on_c, 7, 71, 48
14, 160500, Note_on_c, 7, 76, 48
14, 160509, Note_on_c, 7, 72, 0
14, 160559, Note_on_c, 7, 71, 0
14, 160560, Note_on_c, 7, 72, 48
14, 160619, Note_on_c, 7, 76, 0
14, 160620, Note_on_c, 7, 64, 48
14, 160680, Note_on_c, 7, 69, 48
14, 160689, Note_on_c, 7, 72, 0
14, 160739, Note_on_c, 7, 64, 0
14, 160740, Note_on_c, 7, 64, 48
14, 160800, Note_on_c, 7, 68, 48
14, 160809, Note_on_c, 7, 69, 0
14, 160859, Note_on_c, 7, 64, 0
14, 160860, Note_on_c, 7, 64, 48
14, 160920, Note_on_c, 7, 69, 56
14, 160929, Note_on_c, 7, 68, 0
14, 160979, Note_on_c, 7, 64, 0
14, 160980, Note_on_c, 7, 64, 48
14, 161099, Note_on_c, 7, 64, 0
14, 161100, Note_on_c, 7, 71, 48
14, 161100, Note_on_c, 7, 64, 48
14, 161109, Note_on_c, 7, 69, 0
14, 161160, Note_on_c, 7, 72, 48
14, 161169, Note_on_c, 7, 71, 0
14, 161219, Note_on_c, 7, 64, 0
14, 161220, Note_on_c, 7, 64, 48
14, 161279, Note_on_c, 7, 72, 0
14, 161280, Note_on_c, 7, 71, 48
14, 161339, Note_on_c, 7, 64, 0
14, 161340, Note_on_c, 7, 76, 48
14, 161399, Note_on_c, 7, 76, 0
14, 161400, Note_on_c, 7, 76, 48
14, 161409, Note_on_c, 7, 71, 0
14, 161459, Note_on_c, 7, 76, 0
14, 161460, Note_on_c, 7, 76, 48
14, 161520, Note_on_c, 7, 75, 48
14, 161579, Note_on_c, 7, 76, 0
14, 161580, Note_on_c, 7, 76, 48
14, 161639, Note_on_c, 7, 76, 0
14, 161640, Note_on_c, 7, 76, 48
14, 161649, Note_on_c, 7, 75, 0
14, 161699, Note_on_c, 7, 76, 0
14, 161700, Note_on_c, 7, 64, 56
14, 161700, Note_on_c, 7, 76, 56
14, 161760, Note_on_c, 7, 67, 64
14, 161760, Note_on_c, 7, 79, 64
14, 161769, Note_on_c, 7, 76, 0
14, 161769, Note_on_c, 7, 64, 0
14, 161820, Note_on_c, 7, 65, 72
14, 161820, Note_on_c, 7, 77, 72
14, 161829, Note_on_c, 7, 67, 0
14, 161829, Note_on_c, 7, 79, 0
14, 161880, Note_on_c, 7, 64, 80
14, 161880, Note_on_c, 7, 76, 80
14, 161889, Note_on_c, 7, 65, 0
14, 161889, Note_on_c, 7, 77, 0
14, 161940, Note_on_c, 7, 62, 88
14, 161940, Note_on_c, 7, 74, 88
14, 161949, Note_on_c, 7, 64, 0
14, 161949, Note_on_c, 7, 76, 0
14, 161999, Note_on_c, 7, 74, 0
14, 162000, Note_on_c, 7, 60, 96
14, 162000, Note_on_c, 7, 72, 96
14, 162009, Note_on_c, 7, 62, 0
14, 162029, Note_on_c, 7, 72, 0
14, 162029, Note_on_c, 7, 60, 0
14, 162030, Note_on_c, 7, 60, 96
14, 162059, Note_on_c, 7, 60, 0
14, 162060, Note_on_c, 7, 60, 96
14, 162089, Note_on_c, 7, 60, 0
14, 162090, Note_on_c, 7, 60, 96
14, 162119, Note_on_c, 7, 60, 0
14, 162120, Note_on_c, 7, 60, 96
14, 162149, Note_on_c, 7, 60, 0
14, 162150, Note_on_c, 7, 60, 96
14, 162179, Note_on_c, 7, 60, 0
14, 162180, Note_on_c, 7, 60, 96
14, 162209, Note_on_c, 7, 60, 0
14, 162210, Note_on_c, 7, 60, 96
14, 162239, Note_on_c, 7, 60, 0
14, 162240, Note_on_c, 7, 64, 96
14, 162269, Note_on_c, 7, 64, 0
14, 162270, Note_on_c, 7, 64, 96
14, 162299, Note_on_c, 7, 64, 0
14, 162300, Note_on_c, 7, 64, 96
14, 162329, Note_on_c, 7, 64, 0
14, 162330, Note_on_c, 7, 64, 96
14, 162359, Note_on_c, 7, 64, 0
14, 162360, Note_on_c, 7, 60, 96
14, 162389, Note_on_c, 7, 60, 0
14, 162390, Note_on_c, 7, 60, 96
14, 162419, Note_on_c, 7, 60, 0
14, 162420, Note_on_c, 7, 60, 96
14, 162449, Note_on_c, 7, 60, 0
14, 162450, Note_on_c, 7, 60, 96
14, 162479, Note_on_c, 7, 60, 0
14, 162480, Note_on_c, 7, 60, 96
14, 162509, Note_on_c, 7, 60, 0
14, 162510, Note_on_c, 7, 60, 96
14, 162539, Note_on_c, 7, 60, 0
14, 162540, Note_on_c, 7, 60, 96
14, 162569, Note_on_c, 7, 60, 0
14, 162570, Note_on_c, 7, 60, 96
14, 162599, Note_on_c, 7, 60, 0
14, 162600, Note_on_c, 7, 55, 96
14, 162629, Note_on_c, 7, 55, 0
14, 162630, Note_on_c, 7, 55, 96
14, 162659, Note_on_c, 7, 55, 0
14, 162660, Note_on_c, 7, 55, 96
14, 162689, Note_on_c, 7, 55, 0
14, 162690, Note_on_c, 7, 55, 96
14, 162719, Note_on_c, 7, 55, 0
14, 162720, Note_on_c, 7, 60, 96
14, 162749, Note_on_c, 7, 60, 0
14, 162750, Note_on_c, 7, 60, 96
14, 162779, Note_on_c, 7, 60, 0
14, 162780, Note_on_c, 7, 60, 96
14, 162809, Note_on_c, 7, 60, 0
14, 162810, Note_on_c, 7, 60, 96
14, 162839, Note_on_c, 7, 60, 0
14, 162840, Note_on_c, 7, 64, 96
14, 162869, Note_on_c, 7, 64, 0
14, 162870, Note_on_c, 7, 64, 96
14, 162899, Note_on_c, 7, 64, 0
14, 162900, Note_on_c, 7, 64, 96
14, 162929, Note_on_c, 7, 64, 0
14, 162930, Note_on_c, 7, 64, 96
14, 162959, Note_on_c, 7, 64, 0
14, 162960, Note_on_c, 7, 67, 96
14, 162989, Note_on_c, 7, 67, 0
14, 162990, Note_on_c, 7, 67, 96
14, 163019, Note_on_c, 7, 67, 0
14, 163020, Note_on_c, 7, 67, 96
14, 163049, Note_on_c, 7, 67, 0
14, 163050, Note_on_c, 7, 67, 96
14, 163079, Note_on_c, 7, 67, 0
14, 163080, Note_on_c, 7, 60, 96
14, 163109, Note_on_c, 7, 60, 0
14, 163110, Note_on_c, 7, 60, 96
14, 163139, Note_on_c, 7, 60, 0
14, 163140, Note_on_c, 7, 60, 96
14, 163169, Note_on_c, 7, 60, 0
14, 163170, Note_on_c, 7, 60, 96
14, 163199, Note_on_c, 7, 60, 0
14, 163200, Note_on_c, 7, 60, 96
14, 163229, Note_on_c, 7, 60, 0
14, 163230, Note_on_c, 7, 60, 96
14, 163259, Note_on_c, 7, 60, 0
14, 163260, Note_on_c, 7, 60, 96
14, 163289, Note_on_c, 7, 60, 0
14, 163290, Note_on_c, 7, 60, 96
14, 163319, Note_on_c, 7, 60, 0
14, 163320, Note_on_c, 7, 55, 96
14, 163349, Note_on_c, 7, 55, 0
14, 163350, Note_on_c, 7, 55, 96
14, 163379, Note_on_c, 7, 55, 0
14, 163380, Note_on_c, 7, 55, 96
14, 163409, Note_on_c, 7, 55, 0
14, 163410, Note_on_c, 7, 55, 96
14, 163439, Note_on_c, 7, 55, 0
14, 163440, Note_on_c, 7, 60, 96
14, 163469, Note_on_c, 7, 60, 0
14, 163470, Note_on_c, 7, 55, 96
14, 163470, Note_on_c, 7, 64, 96
14, 163470, Note_on_c, 7, 60, 96
14, 163499, Note_on_c, 7, 60, 0
14, 163499, Note_on_c, 7, 64, 0
14, 163499, Note_on_c, 7, 55, 0
14, 163500, Note_on_c, 7, 55, 96
14, 163500, Note_on_c, 7, 64, 96
14, 163500, Note_on_c, 7, 60, 96
14, 163529, Note_on_c, 7, 60, 0
14, 163529, Note_on_c, 7, 64, 0
14, 163529, Note_on_c, 7, 55, 0
14, 163530, Note_on_c, 7, 55, 96
14, 163530, Note_on_c, 7, 64, 96
14, 163530, Note_on_c, 7, 60, 96
14, 163559, Note_on_c, 7, 60, 0
14, 163559, Note_on_c, 7, 64, 0
14, 163559, Note_on_c, 7, 55, 0
14, 163560, Note_on_c, 7, 55, 96
14, 163560, Note_on_c, 7, 64, 96
14, 163589, Note_on_c, 7, 64, 0
14, 163589, Note_on_c, 7, 55, 0
14, 163590, Note_on_c, 7, 55, 96
14, 163590, Note_on_c, 7, 64, 96
14, 163619, Note_on_c, 7, 64, 0
14, 163619, Note_on_c, 7, 55, 0
14, 163620, Note_on_c, 7, 55, 96
14, 163620, Note_on_c, 7, 64, 96
14, 163649, Note_on_c, 7, 64, 0
14, 163649, Note_on_c, 7, 55, 0
14, 163650, Note_on_c, 7, 55, 96
14, 163650, Note_on_c, 7, 64, 96
14, 163679, Note_on_c, 7, 64, 0
14, 163679, Note_on_c, 7, 55, 0
14, 163680, Note_on_c, 7, 55, 96
14, 163680, Note_on_c, 7, 64, 96
14, 163680, Note_on_c, 7, 67, 96
14, 163709, Note_on_c, 7, 67, 0
14, 163709, Note_on_c, 7, 64, 0
14, 163709, Note_on_c, 7, 55, 0
14, 163710, Note_on_c, 7, 55, 96
14, 163710, Note_on_c, 7, 64, 96
14, 163710, Note_on_c, 7, 67, 96
14, 163739, Note_on_c, 7, 67, 0
14, 163739, Note_on_c, 7, 64, 0
14, 163739, Note_on_c, 7, 55, 0
14, 163740, Note_on_c, 7, 55, 96
14, 163740, Note_on_c, 7, 64, 96
14, 163740, Note_on_c, 7, 67, 96
14, 163769, Note_on_c, 7, 67, 0
14, 163769, Note_on_c, 7, 64, 0
14, 163769, Note_on_c, 7, 55, 0
14, 163770, Note_on_c, 7, 55, 96
14, 163770, Note_on_c, 7, 64, 96
14, 163770, Note_on_c, 7, 67, 96
14, 163799, Note_on_c, 7, 67, 0
14, 163799, Note_on_c, 7, 64, 0
14, 163799, Note_on_c, 7, 55, 0
14, 163800, Note_on_c, 7, 55, 96
14, 163800, Note_on_c, 7, 64, 96
14, 163800, Note_on_c, 7, 72, 96
14, 163829, Note_on_c, 7, 72, 0
14, 163829, Note_on_c, 7, 64, 0
14, 163829, Note_on_c, 7, 55, 0
14, 163830, Note_on_c, 7, 55, 96
14, 163830, Note_on_c, 7, 64, 96
14, 163830, Note_on_c, 7, 72, 96
14, 163859, Note_on_c, 7, 72, 0
14, 163859, Note_on_c, 7, 64, 0
14, 163859, Note_on_c, 7, 55, 0
14, 163860, Note_on_c, 7, 55, 96
14, 163860, Note_on_c, 7, 64, 96
14, 163860, Note_on_c, 7, 72, 96
14, 163889, Note_on_c, 7, 72, 0
14, 163889, Note_on_c, 7, 64, 0
14, 163889, Note_on_c, 7, 55, 0
14, 163890, Note_on_c, 7, 55, 96
14, 163890, Note_on_c, 7, 64, 96
14, 163890, Note_on_c, 7, 72, 96
14, 163919, Note_on_c, 7, 72, 0
14, 163919, Note_on_c, 7, 64, 0
14, 163919, Note_on_c, 7, 55, 0
14, 163920, Note_on_c, 7, 55, 96
14, 163920, Note_on_c, 7, 64, 96
14, 163920, Note_on_c, 7, 76, 96
14, 163949, Note_on_c, 7, 76, 0
14, 163949, Note_on_c, 7, 64, 0
14, 163949, Note_on_c, 7, 55, 0
14, 163950, Note_on_c, 7, 55, 96
14, 163950, Note_on_c, 7, 64, 96
14, 163950, Note_on_c, 7, 76, 96
14, 163979, Note_on_c, 7, 76, 0
14, 163979, Note_on_c, 7, 64, 0
14, 163979, Note_on_c, 7, 55, 0
14, 163980, Note_on_c, 7, 55, 96
14, 163980, Note_on_c, 7, 64, 96
14, 163980, Note_on_c, 7, 76, 96
14, 164009, Note_on_c, 7, 76, 0
14, 164009, Note_on_c, 7, 64, 0
14, 164009, Note_on_c, 7, 55, 0
14, 164010, Note_on_c, 7, 55, 96
14, 164010, Note_on_c, 7, 64, 96
14, 164010, Note_on_c, 7, 76, 96
14, 164039, Note_on_c, 7, 76, 0
14, 164039, Note_on_c, 7, 64, 0
14, 164039, Note_on_c, 7, 55, 0
14, 164040, Note_on_c, 7, 55, 96
14, 164040, Note_on_c, 7, 64, 96
14, 164040, Note_on_c, 7, 79, 112
14, 164069, Note_on_c, 7, 79, 0
14, 164069, Note_on_c, 7, 64, 0
14, 164069, Note_on_c, 7, 55, 0
14, 164070, Note_on_c, 7, 55, 96
14, 164070, Note_on_c, 7, 64, 96
14, 164070, Note_on_c, 7, 79, 96
14, 164099, Note_on_c, 7, 79, 0
14, 164099, Note_on_c, 7, 64, 0
14, 164099, Note_on_c, 7, 55, 0
14, 164100, Note_on_c, 7, 55, 96
14, 164100, Note_on_c, 7, 64, 96
14, 164100, Note_on_c, 7, 79, 96
14, 164129, Note_on_c, 7, 79, 0
14, 164129, Note_on_c, 7, 64, 0
14, 164129, Note_on_c, 7, 55, 0
14, 164130, Note_on_c, 7, 55, 96
14, 164130, Note_on_c, 7, 64, 96
14, 164130, Note_on_c, 7, 79, 96
14, 164159, Note_on_c, 7, 79, 0
14, 164159, Note_on_c, 7, 64, 0
14, 164159, Note_on_c, 7, 55, 0
14, 164160, Note_on_c, 7, 55, 96
14, 164160, Note_on_c, 7, 65, 96
14, 164160, Note_on_c, 7, 79, 96
14, 164189, Note_on_c, 7, 79, 0
14, 164189, Note_on_c, 7, 65, 0
14, 164189, Note_on_c, 7, 55, 0
14, 164190, Note_on_c, 7, 55, 96
14, 164190, Note_on_c, 7, 65, 96
14, 164190, Note_on_c, 7, 79, 96
14, 164219, Note_on_c, 7, 79, 0
14, 164219, Note_on_c, 7, 65, 0
14, 164219, Note_on_c, 7, 55, 0
14, 164220, Note_on_c, 7, 55, 96
14, 164220, Note_on_c, 7, 65, 96
14, 164220, Note_on_c, 7, 77, 96
14, 164249, Note_on_c, 7, 77, 0
14, 164249, Note_on_c, 7, 65, 0
14, 164249, Note_on_c, 7, 55, 0
14, 164250, Note_on_c, 7, 55, 96
14, 164250, Note_on_c, 7, 65, 96
14, 164250, Note_on_c, 7, 77, 96
14, 164279, Note_on_c, 7, 77, 0
14, 164279, Note_on_c, 7, 65, 0
14, 164279, Note_on_c, 7, 55, 0
14, 164280, Note_on_c, 7, 55, 96
14, 164280, Note_on_c, 7, 65, 96
14, 164280, Note_on_c, 7, 74, 96
14, 164309, Note_on_c, 7, 74, 0
14, 164309, Note_on_c, 7, 65, 0
14, 164309, Note_on_c, 7, 55, 0
14, 164310, Note_on_c, 7, 55, 96
14, 164310, Note_on_c, 7, 65, 96
14, 164310, Note_on_c, 7, 74, 96
14, 164339, Note_on_c, 7, 74, 0
14, 164339, Note_on_c, 7, 65, 0
14, 164339, Note_on_c, 7, 55, 0
14, 164340, Note_on_c, 7, 55, 96
14, 164340, Note_on_c, 7, 65, 96
14, 164340, Note_on_c, 7, 71, 96
14, 164369, Note_on_c, 7, 71, 0
14, 164369, Note_on_c, 7, 65, 0
14, 164369, Note_on_c, 7, 55, 0
14, 164370, Note_on_c, 7, 55, 96
14, 164370, Note_on_c, 7, 65, 96
14, 164370, Note_on_c, 7, 71, 96
14, 164399, Note_on_c, 7, 71, 0
14, 164399, Note_on_c, 7, 65, 0
14, 164399, Note_on_c, 7, 55, 0
14, 164400, Note_on_c, 7, 55, 96
14, 164400, Note_on_c, 7, 65, 96
14, 164400, Note_on_c, 7, 67, 96
14, 164429, Note_on_c, 7, 67, 0
14, 164429, Note_on_c, 7, 65, 0
14, 164429, Note_on_c, 7, 55, 0
14, 164430, Note_on_c, 7, 55, 96
14, 164430, Note_on_c, 7, 65, 96
14, 164430, Note_on_c, 7, 67, 96
14, 164459, Note_on_c, 7, 67, 0
14, 164459, Note_on_c, 7, 65, 0
14, 164459, Note_on_c, 7, 55, 0
14, 164460, Note_on_c, 7, 55, 96
14, 164460, Note_on_c, 7, 65, 96
14, 164489, Note_on_c, 7, 65, 0
14, 164489, Note_on_c, 7, 55, 0
14, 164490, Note_on_c, 7, 55, 96
14, 164490, Note_on_c, 7, 65, 96
14, 164519, Note_on_c, 7, 65, 0
14, 164519, Note_on_c, 7, 55, 0
14, 164520, Note_on_c, 7, 55, 96
14, 164520, Note_on_c, 7, 65, 96
14, 164520, Note_on_c, 7, 62, 96
14, 164549, Note_on_c, 7, 62, 0
14, 164549, Note_on_c, 7, 65, 0
14, 164549, Note_on_c, 7, 55, 0
14, 164550, Note_on_c, 7, 55, 96
14, 164550, Note_on_c, 7, 65, 96
14, 164550, Note_on_c, 7, 62, 96
14, 164579, Note_on_c, 7, 62, 0
14, 164579, Note_on_c, 7, 65, 0
14, 164579, Note_on_c, 7, 55, 0
14, 164580, Note_on_c, 7, 55, 96
14, 164580, Note_on_c, 7, 65, 96
14, 164609, Note_on_c, 7, 65, 0
14, 164609, Note_on_c, 7, 55, 0
14, 164610, Note_on_c, 7, 55, 96
14, 164610, Note_on_c, 7, 65, 96
14, 164639, Note_on_c, 7, 65, 0
14, 164639, Note_on_c, 7, 55, 0
14, 164640, Note_on_c, 7, 55, 96
14, 164640, Note_on_c, 7, 65, 96
14, 164640, Note_on_c, 7, 62, 96
14, 164669, Note_on_c, 7, 62, 0
14, 164669, Note_on_c, 7, 65, 0
14, 164669, Note_on_c, 7, 55, 0
14, 164670, Note_on_c, 7, 55, 96
14, 164670, Note_on_c, 7, 65, 96
14, 164670, Note_on_c, 7, 62, 96
14, 164699, Note_on_c, 7, 62, 0
14, 164699, Note_on_c, 7, 65, 0
14, 164699, Note_on_c, 7, 55, 0
14, 164700, Note_on_c, 7, 55, 96
14, 164700, Note_on_c, 7, 65, 96
14, 164700, Note_on_c, 7, 59, 96
14, 164729, Note_on_c, 7, 59, 0
14, 164729, Note_on_c, 7, 65, 0
14, 164729, Note_on_c, 7, 55, 0
14, 164730, Note_on_c, 7, 55, 96
14, 164730, Note_on_c, 7, 65, 96
14, 164730, Note_on_c, 7, 59, 96
14, 164759, Note_on_c, 7, 59, 0
14, 164759, Note_on_c, 7, 65, 0
14, 164759, Note_on_c, 7, 55, 0
14, 164760, Note_on_c, 7, 65, 96
14, 164760, Note_on_c, 7, 55, 96
14, 164789, Note_on_c, 7, 55, 0
14, 164789, Note_on_c, 7, 65, 0
14, 164790, Note_on_c, 7, 65, 96
14, 164790, Note_on_c, 7, 55, 96
14, 164819, Note_on_c, 7, 55, 0
14, 164819, Note_on_c, 7, 65, 0
14, 164820, Note_on_c, 7, 55, 96
14, 164820, Note_on_c, 7, 65, 96
14, 164820, Note_on_c, 7, 59, 96
14, 164849, Note_on_c, 7, 59, 0
14, 164849, Note_on_c, 7, 65, 0
14, 164849, Note_on_c, 7, 55, 0
14, 164850, Note_on_c, 7, 55, 96
14, 164850, Note_on_c, 7, 65, 96
14, 164850, Note_on_c, 7, 59, 96
14, 164879, Note_on_c, 7, 59, 0
14, 164879, Note_on_c, 7, 65, 0
14, 164879, Note_on_c, 7, 55, 0
14, 164880, Note_on_c, 7, 63, 96
14, 164880, Note_on_c, 7, 55, 96
14, 164880, Note_on_c, 7, 60, 96
14, 164909, Note_on_c, 7, 60, 0
14, 164909, Note_on_c, 7, 55, 0
14, 164909, Note_on_c, 7, 63, 0
14, 164910, Note_on_c, 7, 55, 96
14, 164910, Note_on_c, 7, 63, 96
14, 164910, Note_on_c, 7, 60, 96
14, 164939, Note_on_c, 7, 60, 0
14, 164939, Note_on_c, 7, 63, 0
14, 164939, Note_on_c, 7, 55, 0
14, 164940, Note_on_c, 7, 55, 96
14, 164940, Note_on_c, 7, 63, 96
14, 164940, Note_on_c, 7, 60, 96
14, 164969, Note_on_c, 7, 60, 0
14, 164969, Note_on_c, 7, 63, 0
14, 164969, Note_on_c, 7, 55, 0
14, 164970, Note_on_c, 7, 55, 96
14, 164970, Note_on_c, 7, 63, 96
14, 164970, Note_on_c, 7, 60, 96
14, 164999, Note_on_c, 7, 60, 0
14, 164999, Note_on_c, 7, 63, 0
14, 164999, Note_on_c, 7, 55, 0
14, 165000, Note_on_c, 7, 55, 96
14, 165000, Note_on_c, 7, 63, 96
14, 165029, Note_on_c, 7, 63, 0
14, 165029, Note_on_c, 7, 55, 0
14, 165030, Note_on_c, 7, 55, 96
14, 165030, Note_on_c, 7, 63, 96
14, 165059, Note_on_c, 7, 63, 0
14, 165059, Note_on_c, 7, 55, 0
14, 165060, Note_on_c, 7, 55, 96
14, 165060, Note_on_c, 7, 63, 96
14, 165089, Note_on_c, 7, 63, 0
14, 165089, Note_on_c, 7, 55, 0
14, 165090, Note_on_c, 7, 55, 96
14, 165090, Note_on_c, 7, 63, 96
14, 165119, Note_on_c, 7, 63, 0
14, 165119, Note_on_c, 7, 55, 0
14, 165120, Note_on_c, 7, 55, 96
14, 165120, Note_on_c, 7, 63, 96
14, 165120, Note_on_c, 7, 67, 96
14, 165149, Note_on_c, 7, 67, 0
14, 165149, Note_on_c, 7, 63, 0
14, 165149, Note_on_c, 7, 55, 0
14, 165150, Note_on_c, 7, 55, 96
14, 165150, Note_on_c, 7, 63, 96
14, 165150, Note_on_c, 7, 67, 96
14, 165179, Note_on_c, 7, 67, 0
14, 165179, Note_on_c, 7, 63, 0
14, 165179, Note_on_c, 7, 55, 0
14, 165180, Note_on_c, 7, 55, 96
14, 165180, Note_on_c, 7, 63, 96
14, 165180, Note_on_c, 7, 67, 96
14, 165209, Note_on_c, 7, 67, 0
14, 165209, Note_on_c, 7, 63, 0
14, 165209, Note_on_c, 7, 55, 0
14, 165210, Note_on_c, 7, 55, 96
14, 165210, Note_on_c, 7, 63, 96
14, 165210, Note_on_c, 7, 67, 96
14, 165239, Note_on_c, 7, 67, 0
14, 165239, Note_on_c, 7, 63, 0
14, 165239, Note_on_c, 7, 55, 0
14, 165240, Note_on_c, 7, 55, 96
14, 165240, Note_on_c, 7, 63, 96
14, 165240, Note_on_c, 7, 72, 96
14, 165269, Note_on_c, 7, 72, 0
14, 165269, Note_on_c, 7, 63, 0
14, 165269, Note_on_c, 7, 55, 0
14, 165270, Note_on_c, 7, 55, 96
14, 165270, Note_on_c, 7, 63, 96
14, 165270, Note_on_c, 7, 72, 96
14, 165299, Note_on_c, 7, 72, 0
14, 165299, Note_on_c, 7, 63, 0
14, 165299, Note_on_c, 7, 55, 0
14, 165300, Note_on_c, 7, 55, 96
14, 165300, Note_on_c, 7, 63, 96
14, 165300, Note_on_c, 7, 72, 96
14, 165329, Note_on_c, 7, 72, 0
14, 165329, Note_on_c, 7, 63, 0
14, 165329, Note_on_c, 7, 55, 0
14, 165330, Note_on_c, 7, 55, 96
14, 165330, Note_on_c, 7, 63, 96
14, 165330, Note_on_c, 7, 72, 96
14, 165359, Note_on_c, 7, 72, 0
14, 165359, Note_on_c, 7, 63, 0
14, 165359, Note_on_c, 7, 55, 0
14, 165360, Note_on_c, 7, 55, 96
14, 165360, Note_on_c, 7, 63, 96
14, 165360, Note_on_c, 7, 75, 96
14, 165389, Note_on_c, 7, 75, 0
14, 165389, Note_on_c, 7, 63, 0
14, 165389, Note_on_c, 7, 55, 0
14, 165390, Note_on_c, 7, 55, 96
14, 165390, Note_on_c, 7, 63, 96
14, 165390, Note_on_c, 7, 75, 96
14, 165419, Note_on_c, 7, 75, 0
14, 165419, Note_on_c, 7, 63, 0
14, 165419, Note_on_c, 7, 55, 0
14, 165420, Note_on_c, 7, 55, 96
14, 165420, Note_on_c, 7, 63, 96
14, 165420, Note_on_c, 7, 75, 96
14, 165449, Note_on_c, 7, 75, 0
14, 165449, Note_on_c, 7, 63, 0
14, 165449, Note_on_c, 7, 55, 0
14, 165450, Note_on_c, 7, 55, 96
14, 165450, Note_on_c, 7, 63, 96
14, 165450, Note_on_c, 7, 75, 96
14, 165479, Note_on_c, 7, 75, 0
14, 165479, Note_on_c, 7, 63, 0
14, 165479, Note_on_c, 7, 55, 0
14, 165480, Note_on_c, 7, 55, 96
14, 165480, Note_on_c, 7, 63, 96
14, 165480, Note_on_c, 7, 79, 112
14, 165509, Note_on_c, 7, 79, 0
14, 165509, Note_on_c, 7, 63, 0
14, 165509, Note_on_c, 7, 55, 0
14, 165510, Note_on_c, 7, 55, 96
14, 165510, Note_on_c, 7, 63, 96
14, 165510, Note_on_c, 7, 79, 96
14, 165539, Note_on_c, 7, 79, 0
14, 165539, Note_on_c, 7, 63, 0
14, 165539, Note_on_c, 7, 55, 0
14, 165540, Note_on_c, 7, 55, 96
14, 165540, Note_on_c, 7, 63, 96
14, 165540, Note_on_c, 7, 79, 96
14, 165569, Note_on_c, 7, 79, 0
14, 165569, Note_on_c, 7, 63, 0
14, 165569, Note_on_c, 7, 55, 0
14, 165570, Note_on_c, 7, 55, 96
14, 165570, Note_on_c, 7, 63, 96
14, 165570, Note_on_c, 7, 79, 96
14, 165599, Note_on_c, 7, 79, 0
14, 165599, Note_on_c, 7, 63, 0
14, 165599, Note_on_c, 7, 55, 0
14, 165600, Note_on_c, 7, 55, 96
14, 165600, Note_on_c, 7, 65, 96
14, 165600, Note_on_c, 7, 79, 96
14, 165629, Note_on_c, 7, 79, 0
14, 165629, Note_on_c, 7, 65, 0
14, 165629, Note_on_c, 7, 55, 0
14, 165630, Note_on_c, 7, 55, 96
14, 165630, Note_on_c, 7, 65, 96
14, 165630, Note_on_c, 7, 79, 96
14, 165659, Note_on_c, 7, 79, 0
14, 165659, Note_on_c, 7, 65, 0
14, 165659, Note_on_c, 7, 55, 0
14, 165660, Note_on_c, 7, 55, 96
14, 165660, Note_on_c, 7, 65, 96
14, 165660, Note_on_c, 7, 77, 96
14, 165689, Note_on_c, 7, 77, 0
14, 165689, Note_on_c, 7, 65, 0
14, 165689, Note_on_c, 7, 55, 0
14, 165690, Note_on_c, 7, 55, 96
14, 165690, Note_on_c, 7, 65, 96
14, 165690, Note_on_c, 7, 77, 96
14, 165719, Note_on_c, 7, 77, 0
14, 165719, Note_on_c, 7, 65, 0
14, 165719, Note_on_c, 7, 55, 0
14, 165720, Note_on_c, 7, 55, 96
14, 165720, Note_on_c, 7, 65, 96
14, 165720, Note_on_c, 7, 74, 96
14, 165749, Note_on_c, 7, 74, 0
14, 165749, Note_on_c, 7, 65, 0
14, 165749, Note_on_c, 7, 55, 0
14, 165750, Note_on_c, 7, 55, 96
14, 165750, Note_on_c, 7, 65, 96
14, 165750, Note_on_c, 7, 74, 96
14, 165779, Note_on_c, 7, 74, 0
14, 165779, Note_on_c, 7, 65, 0
14, 165779, Note_on_c, 7, 55, 0
14, 165780, Note_on_c, 7, 55, 96
14, 165780, Note_on_c, 7, 65, 96
14, 165780, Note_on_c, 7, 71, 96
14, 165809, Note_on_c, 7, 71, 0
14, 165809, Note_on_c, 7, 65, 0
14, 165809, Note_on_c, 7, 55, 0
14, 165810, Note_on_c, 7, 55, 96
14, 165810, Note_on_c, 7, 65, 96
14, 165810, Note_on_c, 7, 71, 96
14, 165839, Note_on_c, 7, 71, 0
14, 165839, Note_on_c, 7, 65, 0
14, 165839, Note_on_c, 7, 55, 0
14, 165840, Note_on_c, 7, 55, 96
14, 165840, Note_on_c, 7, 65, 96
14, 165840, Note_on_c, 7, 67, 96
14, 165869, Note_on_c, 7, 67, 0
14, 165869, Note_on_c, 7, 65, 0
14, 165869, Note_on_c, 7, 55, 0
14, 165870, Note_on_c, 7, 55, 96
14, 165870, Note_on_c, 7, 65, 96
14, 165870, Note_on_c, 7, 67, 96
14, 165899, Note_on_c, 7, 67, 0
14, 165899, Note_on_c, 7, 65, 0
14, 165899, Note_on_c, 7, 55, 0
14, 165900, Note_on_c, 7, 55, 96
14, 165900, Note_on_c, 7, 65, 96
14, 165929, Note_on_c, 7, 65, 0
14, 165929, Note_on_c, 7, 55, 0
14, 165930, Note_on_c, 7, 55, 96
14, 165930, Note_on_c, 7, 65, 96
14, 165959, Note_on_c, 7, 65, 0
14, 165959, Note_on_c, 7, 55, 0
14, 165960, Note_on_c, 7, 55, 96
14, 165960, Note_on_c, 7, 65, 96
14, 165960, Note_on_c, 7, 62, 96
14, 165989, Note_on_c, 7, 62, 0
14, 165989, Note_on_c, 7, 65, 0
14, 165989, Note_on_c, 7, 55, 0
14, 165990, Note_on_c, 7, 55, 96
14, 165990, Note_on_c, 7, 65, 96
14, 165990, Note_on_c, 7, 62, 96
14, 166019, Note_on_c, 7, 62, 0
14, 166019, Note_on_c, 7, 65, 0
14, 166019, Note_on_c, 7, 55, 0
14, 166020, Note_on_c, 7, 55, 96
14, 166020, Note_on_c, 7, 65, 96
14, 166049, Note_on_c, 7, 65, 0
14, 166049, Note_on_c, 7, 55, 0
14, 166050, Note_on_c, 7, 55, 96
14, 166050, Note_on_c, 7, 65, 96
14, 166079, Note_on_c, 7, 65, 0
14, 166079, Note_on_c, 7, 55, 0
14, 166080, Note_on_c, 7, 55, 96
14, 166080, Note_on_c, 7, 65, 96
14, 166080, Note_on_c, 7, 62, 96
14, 166109, Note_on_c, 7, 62, 0
14, 166109, Note_on_c, 7, 65, 0
14, 166109, Note_on_c, 7, 55, 0
14, 166110, Note_on_c, 7, 55, 96
14, 166110, Note_on_c, 7, 65, 96
14, 166110, Note_on_c, 7, 62, 96
14, 166139, Note_on_c, 7, 62, 0
14, 166139, Note_on_c, 7, 65, 0
14, 166139, Note_on_c, 7, 55, 0
14, 166140, Note_on_c, 7, 55, 96
14, 166140, Note_on_c, 7, 65, 96
14, 166140, Note_on_c, 7, 59, 96
14, 166169, Note_on_c, 7, 59, 0
14, 166169, Note_on_c, 7, 65, 0
14, 166169, Note_on_c, 7, 55, 0
14, 166170, Note_on_c, 7, 55, 96
14, 166170, Note_on_c, 7, 65, 96
14, 166170, Note_on_c, 7, 59, 96
14, 166199, Note_on_c, 7, 59, 0
14, 166199, Note_on_c, 7, 65, 0
14, 166199, Note_on_c, 7, 55, 0
14, 166200, Note_on_c, 7, 65, 96
14, 166200, Note_on_c, 7, 55, 96
14, 166229, Note_on_c, 7, 55, 0
14, 166229, Note_on_c, 7, 65, 0
14, 166230, Note_on_c, 7, 65, 96
14, 166230, Note_on_c, 7, 55, 96
14, 166259, Note_on_c, 7, 55, 0
14, 166259, Note_on_c, 7, 65, 0
14, 166260, Note_on_c, 7, 55, 96
14, 166260, Note_on_c, 7, 65, 96
14, 166260, Note_on_c, 7, 59, 96
14, 166289, Note_on_c, 7, 59, 0
14, 166289, Note_on_c, 7, 65, 0
14, 166289, Note_on_c, 7, 55, 0
14, 166290, Note_on_c, 7, 55, 96
14, 166290, Note_on_c, 7, 65, 96
14, 166290, Note_on_c, 7, 59, 96
14, 166319, Note_on_c, 7, 59, 0
14, 166319, Note_on_c, 7, 65, 0
14, 166319, Note_on_c, 7, 55, 0
14, 166320, Note_on_c, 7, 55, 96
14, 166320, Note_on_c, 7, 60, 96
14, 166320, Note_on_c, 7, 63, 96
14, 166349, Note_on_c, 7, 63, 0
14, 166349, Note_on_c, 7, 60, 0
14, 166349, Note_on_c, 7, 55, 0
14, 166350, Note_on_c, 7, 60, 96
14, 166379, Note_on_c, 7, 60, 0
14, 166380, Note_on_c, 7, 60, 96
14, 166409, Note_on_c, 7, 60, 0
14, 166410, Note_on_c, 7, 60, 96
14, 166439, Note_on_c, 7, 60, 0
14, 166440, Note_on_c, 7, 63, 96
14, 166469, Note_on_c, 7, 63, 0
14, 166470, Note_on_c, 7, 63, 96
14, 166499, Note_on_c, 7, 63, 0
14, 166500, Note_on_c, 7, 63, 96
14, 166529, Note_on_c, 7, 63, 0
14, 166530, Note_on_c, 7, 63, 96
14, 166559, Note_on_c, 7, 63, 0
14, 166560, Note_on_c, 7, 67, 96
14, 166589, Note_on_c, 7, 67, 0
14, 166590, Note_on_c, 7, 67, 96
14, 166619, Note_on_c, 7, 67, 0
14, 166620, Note_on_c, 7, 67, 96
14, 166649, Note_on_c, 7, 67, 0
14, 166650, Note_on_c, 7, 67, 96
14, 166679, Note_on_c, 7, 67, 0
14, 166680, Note_on_c, 7, 68, 112
14, 166709, Note_on_c, 7, 68, 0
14, 166710, Note_on_c, 7, 68, 96
14, 166739, Note_on_c, 7, 68, 0
14, 166740, Note_on_c, 7, 68, 96
14, 166769, Note_on_c, 7, 68, 0
14, 166770, Note_on_c, 7, 68, 96
14, 166799, Note_on_c, 7, 68, 0
14, 166800, Note_on_c, 7, 68, 96
14, 166829, Note_on_c, 7, 68, 0
14, 166830, Note_on_c, 7, 68, 96
14, 166859, Note_on_c, 7, 68, 0
14, 166860, Note_on_c, 7, 68, 96
14, 166889, Note_on_c, 7, 68, 0
14, 166890, Note_on_c, 7, 68, 96
14, 166919, Note_on_c, 7, 68, 0
14, 166920, Note_on_c, 7, 60, 96
14, 166949, Note_on_c, 7, 60, 0
14, 166950, Note_on_c, 7, 60, 96
14, 166979, Note_on_c, 7, 60, 0
14, 166980, Note_on_c, 7, 60, 96
14, 167009, Note_on_c, 7, 60, 0
14, 167010, Note_on_c, 7, 60, 96
14, 167039, Note_on_c, 7, 60, 0
14, 167040, Note_on_c, 7, 61, 96
14, 167069, Note_on_c, 7, 61, 0
14, 167070, Note_on_c, 7, 61, 96
14, 167099, Note_on_c, 7, 61, 0
14, 167100, Note_on_c, 7, 61, 96
14, 167129, Note_on_c, 7, 61, 0
14, 167130, Note_on_c, 7, 61, 96
14, 167159, Note_on_c, 7, 61, 0
14, 167160, Note_on_c, 7, 65, 96
14, 167189, Note_on_c, 7, 65, 0
14, 167190, Note_on_c, 7, 65, 96
14, 167219, Note_on_c, 7, 65, 0
14, 167220, Note_on_c, 7, 65, 96
14, 167249, Note_on_c, 7, 65, 0
14, 167250, Note_on_c, 7, 65, 96
14, 167279, Note_on_c, 7, 65, 0
14, 167280, Note_on_c, 7, 69, 96
14, 167309, Note_on_c, 7, 69, 0
14, 167310, Note_on_c, 7, 69, 96
14, 167339, Note_on_c, 7, 69, 0
14, 167340, Note_on_c, 7, 69, 96
14, 167369, Note_on_c, 7, 69, 0
14, 167370, Note_on_c, 7, 69, 96
14, 167399, Note_on_c, 7, 69, 0
14, 167400, Note_on_c, 7, 70, 112
14, 167429, Note_on_c, 7, 70, 0
14, 167430, Note_on_c, 7, 70, 96
14, 167459, Note_on_c, 7, 70, 0
14, 167460, Note_on_c, 7, 70, 96
14, 167489, Note_on_c, 7, 70, 0
14, 167490, Note_on_c, 7, 70, 96
14, 167519, Note_on_c, 7, 70, 0
14, 167520, Note_on_c, 7, 70, 96
14, 167549, Note_on_c, 7, 70, 0
14, 167550, Note_on_c, 7, 70, 96
14, 167579, Note_on_c, 7, 70, 0
14, 167580, Note_on_c, 7, 70, 96
14, 167609, Note_on_c, 7, 70, 0
14, 167610, Note_on_c, 7, 70, 96
14, 167639, Note_on_c, 7, 70, 0
14, 167640, Note_on_c, 7, 62, 96
14, 167669, Note_on_c, 7, 62, 0
14, 167670, Note_on_c, 7, 62, 96
14, 167699, Note_on_c, 7, 62, 0
14, 167700, Note_on_c, 7, 62, 96
14, 167729, Note_on_c, 7, 62, 0
14, 167730, Note_on_c, 7, 62, 96
14, 167759, Note_on_c, 7, 62, 0
14, 167760, Note_on_c, 7, 63, 96
14, 167789, Note_on_c, 7, 63, 0
14, 167790, Note_on_c, 7, 58, 96
14, 167790, Note_on_c, 7, 63, 96
14, 167819, Note_on_c, 7, 63, 0
14, 167819, Note_on_c, 7, 58, 0
14, 167820, Note_on_c, 7, 58, 96
14, 167820, Note_on_c, 7, 67, 96
14, 167820, Note_on_c, 7, 63, 96
14, 167849, Note_on_c, 7, 63, 0
14, 167849, Note_on_c, 7, 67, 0
14, 167849, Note_on_c, 7, 58, 0
14, 167850, Note_on_c, 7, 58, 96
14, 167850, Note_on_c, 7, 67, 96
14, 167850, Note_on_c, 7, 63, 96
14, 167879, Note_on_c, 7, 63, 0
14, 167879, Note_on_c, 7, 67, 0
14, 167879, Note_on_c, 7, 58, 0
14, 167880, Note_on_c, 7, 58, 96
14, 167880, Note_on_c, 7, 67, 96
14, 167909, Note_on_c, 7, 67, 0
14, 167909, Note_on_c, 7, 58, 0
14, 167910, Note_on_c, 7, 58, 96
14, 167910, Note_on_c, 7, 67, 96
14, 167939, Note_on_c, 7, 67, 0
14, 167939, Note_on_c, 7, 58, 0
14, 167940, Note_on_c, 7, 58, 96
14, 167940, Note_on_c, 7, 67, 96
14, 167969, Note_on_c, 7, 67, 0
14, 167969, Note_on_c, 7, 58, 0
14, 167970, Note_on_c, 7, 58, 96
14, 167970, Note_on_c, 7, 67, 96
14, 167999, Note_on_c, 7, 67, 0
14, 167999, Note_on_c, 7, 58, 0
14, 168000, Note_on_c, 7, 67, 96
14, 168000, Note_on_c, 7, 58, 96
14, 168000, Note_on_c, 7, 70, 96
14, 168029, Note_on_c, 7, 70, 0
14, 168029, Note_on_c, 7, 58, 0
14, 168029, Note_on_c, 7, 67, 0
14, 168030, Note_on_c, 7, 67, 96
14, 168030, Note_on_c, 7, 58, 96
14, 168030, Note_on_c, 7, 70, 96
14, 168059, Note_on_c, 7, 70, 0
14, 168059, Note_on_c, 7, 58, 0
14, 168059, Note_on_c, 7, 67, 0
14, 168060, Note_on_c, 7, 67, 96
14, 168060, Note_on_c, 7, 58, 96
14, 168060, Note_on_c, 7, 70, 96
14, 168089, Note_on_c, 7, 70, 0
14, 168089, Note_on_c, 7, 58, 0
14, 168089, Note_on_c, 7, 67, 0
14, 168090, Note_on_c, 7, 67, 96
14, 168090, Note_on_c, 7, 58, 96
14, 168090, Note_on_c, 7, 70, 96
14, 168119, Note_on_c, 7, 70, 0
14, 168119, Note_on_c, 7, 58, 0
14, 168119, Note_on_c, 7, 67, 0
14, 168120, Note_on_c, 7, 67, 96
14, 168120, Note_on_c, 7, 58, 96
14, 168120, Note_on_c, 7, 75, 96
14, 168149, Note_on_c, 7, 75, 0
14, 168149, Note_on_c, 7, 58, 0
14, 168149, Note_on_c, 7, 67, 0
14, 168150, Note_on_c, 7, 67, 96
14, 168150, Note_on_c, 7, 58, 96
14, 168150, Note_on_c, 7, 75, 96
14, 168179, Note_on_c, 7, 75, 0
14, 168179, Note_on_c, 7, 58, 0
14, 168179, Note_on_c, 7, 67, 0
14, 168180, Note_on_c, 7, 67, 96
14, 168180, Note_on_c, 7, 58, 96
14, 168180, Note_on_c, 7, 75, 96
14, 168209, Note_on_c, 7, 75, 0
14, 168209, Note_on_c, 7, 58, 0
14, 168209, Note_on_c, 7, 67, 0
14, 168210, Note_on_c, 7, 67, 96
14, 168210, Note_on_c, 7, 58, 96
14, 168210, Note_on_c, 7, 75, 96
14, 168239, Note_on_c, 7, 75, 0
14, 168239, Note_on_c, 7, 58, 0
14, 168239, Note_on_c, 7, 67, 0
14, 168240, Note_on_c, 7, 67, 96
14, 168240, Note_on_c, 7, 58, 96
14, 168240, Note_on_c, 7, 79, 96
14, 168269, Note_on_c, 7, 79, 0
14, 168269, Note_on_c, 7, 58, 0
14, 168269, Note_on_c, 7, 67, 0
14, 168270, Note_on_c, 7, 67, 96
14, 168270, Note_on_c, 7, 58, 96
14, 168270, Note_on_c, 7, 79, 96
14, 168299, Note_on_c, 7, 79, 0
14, 168299, Note_on_c, 7, 58, 0
14, 168299, Note_on_c, 7, 67, 0
14, 168300, Note_on_c, 7, 67, 96
14, 168300, Note_on_c, 7, 58, 96
14, 168300, Note_on_c, 7, 79, 96
14, 168329, Note_on_c, 7, 79, 0
14, 168329, Note_on_c, 7, 58, 0
14, 168329, Note_on_c, 7, 67, 0
14, 168330, Note_on_c, 7, 67, 96
14, 168330, Note_on_c, 7, 58, 96
14, 168330, Note_on_c, 7, 79, 96
14, 168359, Note_on_c, 7, 79, 0
14, 168359, Note_on_c, 7, 58, 0
14, 168359, Note_on_c, 7, 67, 0
14, 168360, Note_on_c, 7, 67, 96
14, 168360, Note_on_c, 7, 58, 96
14, 168360, Note_on_c, 7, 82, 112
14, 168389, Note_on_c, 7, 82, 0
14, 168389, Note_on_c, 7, 58, 0
14, 168389, Note_on_c, 7, 67, 0
14, 168390, Note_on_c, 7, 67, 96
14, 168390, Note_on_c, 7, 58, 96
14, 168390, Note_on_c, 7, 82, 96
14, 168419, Note_on_c, 7, 82, 0
14, 168419, Note_on_c, 7, 58, 0
14, 168419, Note_on_c, 7, 67, 0
14, 168420, Note_on_c, 7, 67, 96
14, 168420, Note_on_c, 7, 58, 96
14, 168420, Note_on_c, 7, 82, 96
14, 168449, Note_on_c, 7, 82, 0
14, 168449, Note_on_c, 7, 58, 0
14, 168449, Note_on_c, 7, 67, 0
14, 168450, Note_on_c, 7, 67, 96
14, 168450, Note_on_c, 7, 58, 96
14, 168450, Note_on_c, 7, 82, 96
14, 168479, Note_on_c, 7, 82, 0
14, 168479, Note_on_c, 7, 58, 0
14, 168479, Note_on_c, 7, 67, 0
14, 168480, Note_on_c, 7, 68, 96
14, 168480, Note_on_c, 7, 58, 96
14, 168480, Note_on_c, 7, 82, 96
14, 168509, Note_on_c, 7, 82, 0
14, 168509, Note_on_c, 7, 58, 0
14, 168509, Note_on_c, 7, 68, 0
14, 168510, Note_on_c, 7, 68, 96
14, 168510, Note_on_c, 7, 58, 96
14, 168510, Note_on_c, 7, 82, 96
14, 168539, Note_on_c, 7, 82, 0
14, 168539, Note_on_c, 7, 58, 0
14, 168539, Note_on_c, 7, 68, 0
14, 168540, Note_on_c, 7, 68, 96
14, 168540, Note_on_c, 7, 58, 96
14, 168540, Note_on_c, 7, 80, 96
14, 168569, Note_on_c, 7, 80, 0
14, 168569, Note_on_c, 7, 58, 0
14, 168569, Note_on_c, 7, 68, 0
14, 168570, Note_on_c, 7, 68, 96
14, 168570, Note_on_c, 7, 58, 96
14, 168570, Note_on_c, 7, 80, 96
14, 168599, Note_on_c, 7, 80, 0
14, 168599, Note_on_c, 7, 58, 0
14, 168599, Note_on_c, 7, 68, 0
14, 168600, Note_on_c, 7, 68, 96
14, 168600, Note_on_c, 7, 58, 96
14, 168600, Note_on_c, 7, 77, 96
14, 168629, Note_on_c, 7, 77, 0
14, 168629, Note_on_c, 7, 58, 0
14, 168629, Note_on_c, 7, 68, 0
14, 168630, Note_on_c, 7, 68, 96
14, 168630, Note_on_c, 7, 58, 96
14, 168630, Note_on_c, 7, 77, 96
14, 168659, Note_on_c, 7, 77, 0
14, 168659, Note_on_c, 7, 58, 0
14, 168659, Note_on_c, 7, 68, 0
14, 168660, Note_on_c, 7, 68, 96
14, 168660, Note_on_c, 7, 58, 96
14, 168660, Note_on_c, 7, 74, 96
14, 168689, Note_on_c, 7, 74, 0
14, 168689, Note_on_c, 7, 58, 0
14, 168689, Note_on_c, 7, 68, 0
14, 168690, Note_on_c, 7, 68, 96
14, 168690, Note_on_c, 7, 58, 96
14, 168690, Note_on_c, 7, 74, 96
14, 168719, Note_on_c, 7, 74, 0
14, 168719, Note_on_c, 7, 58, 0
14, 168719, Note_on_c, 7, 68, 0
14, 168720, Note_on_c, 7, 68, 96
14, 168720, Note_on_c, 7, 58, 96
14, 168720, Note_on_c, 7, 70, 96
14, 168749, Note_on_c, 7, 70, 0
14, 168749, Note_on_c, 7, 58, 0
14, 168749, Note_on_c, 7, 68, 0
14, 168750, Note_on_c, 7, 68, 96
14, 168750, Note_on_c, 7, 58, 96
14, 168750, Note_on_c, 7, 70, 96
14, 168779, Note_on_c, 7, 70, 0
14, 168779, Note_on_c, 7, 58, 0
14, 168779, Note_on_c, 7, 68, 0
14, 168780, Note_on_c, 7, 58, 96
14, 168780, Note_on_c, 7, 68, 96
14, 168809, Note_on_c, 7, 68, 0
14, 168809, Note_on_c, 7, 58, 0
14, 168810, Note_on_c, 7, 58, 96
14, 168810, Note_on_c, 7, 68, 96
14, 168839, Note_on_c, 7, 68, 0
14, 168839, Note_on_c, 7, 58, 0
14, 168840, Note_on_c, 7, 68, 96
14, 168840, Note_on_c, 7, 58, 96
14, 168840, Note_on_c, 7, 65, 96
14, 168869, Note_on_c, 7, 65, 0
14, 168869, Note_on_c, 7, 58, 0
14, 168869, Note_on_c, 7, 68, 0
14, 168870, Note_on_c, 7, 68, 96
14, 168870, Note_on_c, 7, 58, 96
14, 168870, Note_on_c, 7, 65, 96
14, 168899, Note_on_c, 7, 65, 0
14, 168899, Note_on_c, 7, 58, 0
14, 168899, Note_on_c, 7, 68, 0
14, 168900, Note_on_c, 7, 58, 96
14, 168900, Note_on_c, 7, 68, 96
14, 168929, Note_on_c, 7, 68, 0
14, 168929, Note_on_c, 7, 58, 0
14, 168930, Note_on_c, 7, 58, 96
14, 168930, Note_on_c, 7, 68, 96
14, 168959, Note_on_c, 7, 68, 0
14, 168959, Note_on_c, 7, 58, 0
14, 168960, Note_on_c, 7, 68, 96
14, 168960, Note_on_c, 7, 58, 96
14, 168960, Note_on_c, 7, 65, 96
14, 168989, Note_on_c, 7, 65, 0
14, 168989, Note_on_c, 7, 58, 0
14, 168989, Note_on_c, 7, 68, 0
14, 168990, Note_on_c, 7, 68, 96
14, 168990, Note_on_c, 7, 58, 96
14, 168990, Note_on_c, 7, 65, 96
14, 169019, Note_on_c, 7, 65, 0
14, 169019, Note_on_c, 7, 58, 0
14, 169019, Note_on_c, 7, 68, 0
14, 169020, Note_on_c, 7, 68, 96
14, 169020, Note_on_c, 7, 58, 96
14, 169020, Note_on_c, 7, 62, 96
14, 169049, Note_on_c, 7, 62, 0
14, 169049, Note_on_c, 7, 58, 0
14, 169049, Note_on_c, 7, 68, 0
14, 169050, Note_on_c, 7, 68, 96
14, 169050, Note_on_c, 7, 58, 96
14, 169050, Note_on_c, 7, 62, 96
14, 169079, Note_on_c, 7, 62, 0
14, 169079, Note_on_c, 7, 58, 0
14, 169079, Note_on_c, 7, 68, 0
14, 169080, Note_on_c, 7, 68, 96
14, 169080, Note_on_c, 7, 58, 96
14, 169109, Note_on_c, 7, 58, 0
14, 169109, Note_on_c, 7, 68, 0
14, 169110, Note_on_c, 7, 68, 96
14, 169110, Note_on_c, 7, 58, 96
14, 169139, Note_on_c, 7, 58, 0
14, 169139, Note_on_c, 7, 68, 0
14, 169140, Note_on_c, 7, 68, 96
14, 169140, Note_on_c, 7, 58, 96
14, 169140, Note_on_c, 7, 62, 96
14, 169169, Note_on_c, 7, 62, 0
14, 169169, Note_on_c, 7, 58, 0
14, 169169, Note_on_c, 7, 68, 0
14, 169170, Note_on_c, 7, 68, 96
14, 169170, Note_on_c, 7, 58, 96
14, 169170, Note_on_c, 7, 62, 96
14, 169199, Note_on_c, 7, 62, 0
14, 169199, Note_on_c, 7, 58, 0
14, 169199, Note_on_c, 7, 68, 0
14, 169200, Note_on_c, 7, 66, 96
14, 169200, Note_on_c, 7, 58, 127
14, 169200, Note_on_c, 7, 63, 127
14, 169229, Note_on_c, 7, 63, 0
14, 169229, Note_on_c, 7, 58, 0
14, 169229, Note_on_c, 7, 66, 0
14, 169230, Note_on_c, 7, 63, 127
14, 169259, Note_on_c, 7, 63, 0
14, 169260, Note_on_c, 7, 63, 127
14, 169289, Note_on_c, 7, 63, 0
14, 169290, Note_on_c, 7, 63, 127
14, 169319, Note_on_c, 7, 63, 0
14, 169320, Note_on_c, 7, 66, 127
14, 169349, Note_on_c, 7, 66, 0
14, 169350, Note_on_c, 7, 66, 127
14, 169379, Note_on_c, 7, 66, 0
14, 169380, Note_on_c, 7, 66, 127
14, 169409, Note_on_c, 7, 66, 0
14, 169410, Note_on_c, 7, 66, 127
14, 169439, Note_on_c, 7, 66, 0
14, 169440, Note_on_c, 7, 70, 127
14, 169469, Note_on_c, 7, 70, 0
14, 169470, Note_on_c, 7, 70, 127
14, 169499, Note_on_c, 7, 70, 0
14, 169500, Note_on_c, 7, 70, 127
14, 169529, Note_on_c, 7, 70, 0
14, 169530, Note_on_c, 7, 70, 127
14, 169530, Note_on_c, 7, 70, 127
14, 169559, Note_on_c, 7, 70, 0
14, 169559, Note_on_c, 7, 70, 0
14, 169560, Note_on_c, 7, 63, 127
14, 169560, Note_on_c, 7, 75, 127
14, 169589, Note_on_c, 7, 75, 0
14, 169589, Note_on_c, 7, 63, 0
14, 169590, Note_on_c, 7, 63, 127
14, 169590, Note_on_c, 7, 75, 127
14, 169619, Note_on_c, 7, 75, 0
14, 169619, Note_on_c, 7, 63, 0
14, 169620, Note_on_c, 7, 63, 127
14, 169620, Note_on_c, 7, 75, 127
14, 169649, Note_on_c, 7, 75, 0
14, 169649, Note_on_c, 7, 63, 0
14, 169650, Note_on_c, 7, 63, 127
14, 169650, Note_on_c, 7, 75, 127
14, 169679, Note_on_c, 7, 75, 0
14, 169679, Note_on_c, 7, 63, 0
14, 169680, Note_on_c, 7, 66, 127
14, 169680, Note_on_c, 7, 78, 127
14, 169709, Note_on_c, 7, 78, 0
14, 169709, Note_on_c, 7, 66, 0
14, 169710, Note_on_c, 7, 66, 127
14, 169710, Note_on_c, 7, 78, 127
14, 169739, Note_on_c, 7, 78, 0
14, 169739, Note_on_c, 7, 66, 0
14, 169740, Note_on_c, 7, 66, 127
14, 169740, Note_on_c, 7, 78, 127
14, 169769, Note_on_c, 7, 78, 0
14, 169769, Note_on_c, 7, 66, 0
14, 169770, Note_on_c, 7, 66, 127
14, 169770, Note_on_c, 7, 78, 127
14, 169799, Note_on_c, 7, 78, 0
14, 169799, Note_on_c, 7, 66, 0
14, 169800, Note_on_c, 7, 70, 127
14, 169800, Note_on_c, 7, 82, 127
14, 169829, Note_on_c, 7, 82, 0
14, 169829, Note_on_c, 7, 70, 0
14, 169830, Note_on_c, 7, 70, 127
14, 169830, Note_on_c, 7, 82, 127
14, 169859, Note_on_c, 7, 82, 0
14, 169859, Note_on_c, 7, 70, 0
14, 169860, Note_on_c, 7, 70, 127
14, 169860, Note_on_c, 7, 82, 127
14, 169889, Note_on_c, 7, 82, 0
14, 169889, Note_on_c, 7, 70, 0
14, 169890, Note_on_c, 7, 70, 127
14, 169890, Note_on_c, 7, 82, 127
14, 169919, Note_on_c, 7, 82, 0
14, 169919, Note_on_c, 7, 70, 0
14, 169920, Note_on_c, 7, 75, 127
14, 169920, Note_on_c, 7, 87, 127
14, 169979, Note_on_c, 7, 87, 0
14, 169979, Note_on_c, 7, 75, 0
14, 169980, Note_on_c, 7, 58, 48
14, 169980, Note_on_c, 7, 70, 48
14, 170099, Note_on_c, 7, 70, 0
14, 170099, Note_on_c, 7, 58, 0
14, 170100, Note_on_c, 7, 58, 48
14, 170100, Note_on_c, 7, 70, 48
14, 170219, Note_on_c, 7, 70, 0
14, 170219, Note_on_c, 7, 58, 0
14, 170220, Note_on_c, 7, 58, 48
14, 170220, Note_on_c, 7, 70, 48
14, 170339, Note_on_c, 7, 70, 0
14, 170339, Note_on_c, 7, 58, 0
14, 170340, Note_on_c, 7, 58, 48
14, 170340, Note_on_c, 7, 70, 48
14, 170459, Note_on_c, 7, 70, 0
14, 170459, Note_on_c, 7, 58, 0
14, 170460, Note_on_c, 7, 58, 48
14, 170460, Note_on_c, 7, 70, 48
14, 170579, Note_on_c, 7, 70, 0
14, 170579, Note_on_c, 7, 58, 0
14, 170580, Note_on_c, 7, 58, 48
14, 170580, Note_on_c, 7, 70, 48
14, 170699, Note_on_c, 7, 70, 0
14, 170699, Note_on_c, 7, 58, 0
14, 170700, Note_on_c, 7, 70, 48
14, 170700, Note_on_c, 7, 82, 48
14, 170819, Note_on_c, 7, 82, 0
14, 170819, Note_on_c, 7, 70, 0
14, 170820, Note_on_c, 7, 70, 48
14, 170820, Note_on_c, 7, 82, 48
14, 170939, Note_on_c, 7, 82, 0
14, 170939, Note_on_c, 7, 70, 0
14, 170940, Note_on_c, 7, 70, 48
14, 170940, Note_on_c, 7, 82, 48
14, 171059, Note_on_c, 7, 82, 0
14, 171059, Note_on_c, 7, 70, 0
14, 171060, Note_on_c, 7, 70, 48
14, 171060, Note_on_c, 7, 82, 48
14, 171179, Note_on_c, 7, 82, 0
14, 171179, Note_on_c, 7, 70, 0
14, 171180, Note_on_c, 7, 70, 48
14, 171180, Note_on_c, 7, 82, 48
14, 171299, Note_on_c, 7, 82, 0
14, 171299, Note_on_c, 7, 70, 0
14, 171300, Note_on_c, 7, 70, 48
14, 171300, Note_on_c, 7, 82, 48
14, 171419, Note_on_c, 7, 82, 0
14, 171419, Note_on_c, 7, 70, 0
14, 171420, Note_on_c, 7, 70, 48
14, 171539, Note_on_c, 7, 70, 0
14, 171540, Note_on_c, 7, 70, 48
14, 171659, Note_on_c, 7, 70, 0
14, 171660, Note_on_c, 7, 70, 48
14, 171779, Note_on_c, 7, 70, 0
14, 171780, Note_on_c, 7, 71, 48
14, 171840, Note_on_c, 7, 66, 40
14, 171899, Note_on_c, 7, 71, 0
14, 171900, Note_on_c, 7, 71, 40
14, 171959, Note_on_c, 7, 66, 0
14, 171960, Note_on_c, 7, 66, 32
14, 172019, Note_on_c, 7, 71, 0
14, 172020, Note_on_c, 7, 71, 32
14, 172079, Note_on_c, 7, 66, 0
14, 172080, Note_on_c, 7, 68, 34
14, 172139, Note_on_c, 7, 68, 0
14, 172139, Note_on_c, 7, 71, 0
14, 172140, Note_on_c, 7, 68, 34
14, 172140, Note_on_c, 7, 68, 32
14, 172259, Note_on_c, 7, 68, 0
14, 172259, Note_on_c, 7, 68, 0
14, 172260, Note_on_c, 7, 68, 37
14, 172320, Note_on_c, 7, 61, 40
14, 172379, Note_on_c, 7, 68, 0
14, 172380, Note_on_c, 7, 68, 40
14, 172440, Note_on_c, 7, 59, 42
14, 172449, Note_on_c, 7, 61, 0
14, 172499, Note_on_c, 7, 68, 0
14, 172500, Note_on_c, 7, 65, 42
14, 172559, Note_on_c, 7, 59, 0
14, 172619, Note_on_c, 7, 65, 0
14, 172620, Note_on_c, 7, 65, 45
14, 172680, Note_on_c, 7, 59, 48
14, 172739, Note_on_c, 7, 65, 0
14, 172740, Note_on_c, 7, 65, 48
14, 172799, Note_on_c, 7, 65, 0
14, 172800, Note_on_c, 7, 58, 48
14, 172800, Note_on_c, 7, 66, 48
14, 172809, Note_on_c, 7, 59, 0
14, 172919, Note_on_c, 7, 66, 0
14, 172920, Note_on_c, 7, 66, 48
14, 173040, Note_on_c, 7, 68, 48
14, 173049, Note_on_c, 7, 66, 0
14, 173160, Note_on_c, 7, 70, 48
14, 173169, Note_on_c, 7, 68, 0
14, 173340, Note_on_c, 7, 68, 48
14, 173349, Note_on_c, 7, 70, 0
14, 173400, Note_on_c, 7, 66, 48
14, 173409, Note_on_c, 7, 68, 0
14, 173519, Note_on_c, 7, 66, 0
14, 173519, Note_on_c, 7, 58, 0
14, 173520, Note_on_c, 7, 59, 48
14, 173520, Note_on_c, 7, 65, 48
14, 173639, Note_on_c, 7, 59, 0
14, 173640, Note_on_c, 7, 71, 48
14, 173760, Note_on_c, 7, 73, 48
14, 173769, Note_on_c, 7, 71, 0
14, 173880, Note_on_c, 7, 75, 48
14, 173889, Note_on_c, 7, 73, 0
14, 174060, Note_on_c, 7, 73, 48
14, 174069, Note_on_c, 7, 75, 0
14, 174120, Note_on_c, 7, 71, 48
14, 174129, Note_on_c, 7, 73, 0
14, 174239, Note_on_c, 7, 71, 0
14, 174239, Note_on_c, 7, 65, 0
14, 174240, Note_on_c, 7, 66, 48
14, 174240, Note_on_c, 7, 70, 48
14, 174299, Note_on_c, 7, 70, 0
14, 174299, Note_on_c, 7, 66, 0
14, 174300, Note_on_c, 7, 66, 48
14, 174300, Note_on_c, 7, 58, 48
14, 174300, Note_on_c, 7, 70, 48
14, 174419, Note_on_c, 7, 70, 0
14, 174419, Note_on_c, 7, 58, 0
14, 174419, Note_on_c, 7, 66, 0
14, 174420, Note_on_c, 7, 66, 48
14, 174420, Note_on_c, 7, 58, 48
14, 174420, Note_on_c, 7, 70, 48
14, 174539, Note_on_c, 7, 70, 0
14, 174539, Note_on_c, 7, 58, 0
14, 174539, Note_on_c, 7, 66, 0
14, 174540, Note_on_c, 7, 66, 48
14, 174540, Note_on_c, 7, 58, 48
14, 174540, Note_on_c, 7, 70, 48
14, 174659, Note_on_c, 7, 70, 0
14, 174659, Note_on_c, 7, 58, 0
14, 174659, Note_on_c, 7, 66, 0
14, 174660, Note_on_c, 7, 66, 48
14, 174660, Note_on_c, 7, 58, 48
14, 174660, Note_on_c, 7, 70, 48
14, 174779, Note_on_c, 7, 70, 0
14, 174779, Note_on_c, 7, 58, 0
14, 174779, Note_on_c, 7, 66, 0
14, 174780, Note_on_c, 7, 66, 48
14, 174780, Note_on_c, 7, 58, 48
14, 174780, Note_on_c, 7, 70, 48
14, 174899, Note_on_c, 7, 70, 0
14, 174899, Note_on_c, 7, 58, 0
14, 174899, Note_on_c, 7, 66, 0
14, 174900, Note_on_c, 7, 66, 48
14, 174900, Note_on_c, 7, 58, 48
14, 174900, Note_on_c, 7, 70, 48
14, 174960, Note_on_c, 7, 68, 48
14, 174969, Note_on_c, 7, 66, 0
14, 175019, Note_on_c, 7, 58, 0
14, 175019, Note_on_c, 7, 70, 0
14, 175019, Note_on_c, 7, 68, 0
14, 175020, Note_on_c, 7, 68, 48
14, 175020, Note_on_c, 7, 58, 48
14, 175020, Note_on_c, 7, 70, 48
14, 175139, Note_on_c, 7, 70, 0
14, 175139, Note_on_c, 7, 58, 0
14, 175139, Note_on_c, 7, 68, 0
14, 175140, Note_on_c, 7, 68, 48
14, 175140, Note_on_c, 7, 58, 48
14, 175140, Note_on_c, 7, 70, 48
14, 175259, Note_on_c, 7, 70, 0
14, 175259, Note_on_c, 7, 58, 0
14, 175259, Note_on_c, 7, 68, 0
14, 175260, Note_on_c, 7, 68, 48
14, 175260, Note_on_c, 7, 58, 48
14, 175260, Note_on_c, 7, 70, 48
14, 175320, Note_on_c, 7, 66, 48
14, 175329, Note_on_c, 7, 68, 0
14, 175379, Note_on_c, 7, 58, 0
14, 175379, Note_on_c, 7, 70, 0
14, 175379, Note_on_c, 7, 66, 0
14, 175380, Note_on_c, 7, 66, 48
14, 175380, Note_on_c, 7, 58, 48
14, 175380, Note_on_c, 7, 70, 48
14, 175499, Note_on_c, 7, 70, 0
14, 175499, Note_on_c, 7, 58, 0
14, 175499, Note_on_c, 7, 66, 0
14, 175500, Note_on_c, 7, 66, 48
14, 175500, Note_on_c, 7, 58, 48
14, 175500, Note_on_c, 7, 70, 48
14, 175619, Note_on_c, 7, 70, 0
14, 175619, Note_on_c, 7, 58, 0
14, 175619, Note_on_c, 7, 66, 0
14, 175620, Note_on_c, 7, 66, 48
14, 175620, Note_on_c, 7, 58, 48
14, 175620, Note_on_c, 7, 70, 48
14, 175679, Note_on_c, 7, 70, 0
14, 175679, Note_on_c, 7, 66, 0
14, 175680, Note_on_c, 7, 65, 48
14, 175680, Note_on_c, 7, 62, 48
14, 175680, Note_on_c, 7, 70, 48
14, 175709, Note_on_c, 7, 70, 0
14, 175709, Note_on_c, 7, 58, 0
14, 175709, Note_on_c, 7, 65, 0
14, 175709, Note_on_c, 7, 62, 0
14, 175710, Note_on_c, 7, 65, 48
14, 175710, Note_on_c, 7, 62, 48
14, 175710, Note_on_c, 7, 70, 48
14, 175710, Note_on_c, 7, 58, 48
14, 175739, Note_on_c, 7, 58, 0
14, 175739, Note_on_c, 7, 65, 0
14, 175739, Note_on_c, 7, 62, 0
14, 175739, Note_on_c, 7, 70, 0
14, 175740, Note_on_c, 7, 65, 48
14, 175740, Note_on_c, 7, 62, 48
14, 175740, Note_on_c, 7, 70, 48
14, 175740, Note_on_c, 7, 58, 48
14, 175769, Note_on_c, 7, 58, 0
14, 175769, Note_on_c, 7, 65, 0
14, 175769, Note_on_c, 7, 62, 0
14, 175769, Note_on_c, 7, 70, 0
14, 175770, Note_on_c, 7, 65, 48
14, 175770, Note_on_c, 7, 62, 48
14, 175770, Note_on_c, 7, 70, 48
14, 175770, Note_on_c, 7, 58, 48
14, 175799, Note_on_c, 7, 58, 0
14, 175799, Note_on_c, 7, 65, 0
14, 175799, Note_on_c, 7, 62, 0
14, 175799, Note_on_c, 7, 70, 0
14, 175800, Note_on_c, 7, 65, 48
14, 175800, Note_on_c, 7, 62, 48
14, 175800, Note_on_c, 7, 70, 48
14, 175800, Note_on_c, 7, 58, 48
14, 175829, Note_on_c, 7, 58, 0
14, 175829, Note_on_c, 7, 65, 0
14, 175829, Note_on_c, 7, 62, 0
14, 175829, Note_on_c, 7, 70, 0
14, 175830, Note_on_c, 7, 65, 48
14, 175830, Note_on_c, 7, 62, 48
14, 175830, Note_on_c, 7, 70, 48
14, 175830, Note_on_c, 7, 58, 48
14, 175859, Note_on_c, 7, 58, 0
14, 175859, Note_on_c, 7, 65, 0
14, 175859, Note_on_c, 7, 62, 0
14, 175859, Note_on_c, 7, 70, 0
14, 175860, Note_on_c, 7, 65, 48
14, 175860, Note_on_c, 7, 62, 48
14, 175860, Note_on_c, 7, 70, 48
14, 175860, Note_on_c, 7, 58, 48
14, 175889, Note_on_c, 7, 58, 0
14, 175889, Note_on_c, 7, 65, 0
14, 175889, Note_on_c, 7, 62, 0
14, 175889, Note_on_c, 7, 70, 0
14, 175890, Note_on_c, 7, 65, 48
14, 175890, Note_on_c, 7, 62, 48
14, 175890, Note_on_c, 7, 70, 48
14, 175890, Note_on_c, 7, 58, 48
14, 175919, Note_on_c, 7, 58, 0
14, 175919, Note_on_c, 7, 65, 0
14, 175919, Note_on_c, 7, 62, 0
14, 175919, Note_on_c, 7, 70, 0
14, 175920, Note_on_c, 7, 65, 48
14, 175920, Note_on_c, 7, 62, 48
14, 175920, Note_on_c, 7, 70, 48
14, 175920, Note_on_c, 7, 58, 48
14, 175949, Note_on_c, 7, 58, 0
14, 175949, Note_on_c, 7, 65, 0
14, 175949, Note_on_c, 7, 62, 0
14, 175949, Note_on_c, 7, 70, 0
14, 175950, Note_on_c, 7, 65, 48
14, 175950, Note_on_c, 7, 62, 48
14, 175950, Note_on_c, 7, 70, 48
14, 175950, Note_on_c, 7, 58, 48
14, 175979, Note_on_c, 7, 58, 0
14, 175979, Note_on_c, 7, 65, 0
14, 175979, Note_on_c, 7, 62, 0
14, 175979, Note_on_c, 7, 70, 0
14, 175980, Note_on_c, 7, 65, 48
14, 175980, Note_on_c, 7, 62, 48
14, 175980, Note_on_c, 7, 70, 48
14, 175980, Note_on_c, 7, 58, 48
14, 176009, Note_on_c, 7, 58, 0
14, 176009, Note_on_c, 7, 65, 0
14, 176009, Note_on_c, 7, 62, 0
14, 176009, Note_on_c, 7, 70, 0
14, 176010, Note_on_c, 7, 65, 48
14, 176010, Note_on_c, 7, 62, 48
14, 176010, Note_on_c, 7, 70, 48
14, 176010, Note_on_c, 7, 58, 48
14, 176039, Note_on_c, 7, 58, 0
14, 176039, Note_on_c, 7, 65, 0
14, 176039, Note_on_c, 7, 62, 0
14, 176039, Note_on_c, 7, 70, 0
14, 176040, Note_on_c, 7, 58, 48
14, 176040, Note_on_c, 7, 65, 48
14, 176040, Note_on_c, 7, 62, 48
14, 176040, Note_on_c, 7, 70, 48
14, 176069, Note_on_c, 7, 70, 0
14, 176069, Note_on_c, 7, 58, 0
14, 176069, Note_on_c, 7, 65, 0
14, 176069, Note_on_c, 7, 62, 0
14, 176070, Note_on_c, 7, 65, 48
14, 176070, Note_on_c, 7, 62, 48
14, 176070, Note_on_c, 7, 70, 48
14, 176070, Note_on_c, 7, 58, 48
14, 176099, Note_on_c, 7, 58, 0
14, 176099, Note_on_c, 7, 65, 0
14, 176099, Note_on_c, 7, 62, 0
14, 176099, Note_on_c, 7, 70, 0
14, 176100, Note_on_c, 7, 65, 48
14, 176100, Note_on_c, 7, 62, 48
14, 176100, Note_on_c, 7, 70, 48
14, 176100, Note_on_c, 7, 58, 48
14, 176129, Note_on_c, 7, 58, 0
14, 176129, Note_on_c, 7, 65, 0
14, 176129, Note_on_c, 7, 62, 0
14, 176129, Note_on_c, 7, 70, 0
14, 176130, Note_on_c, 7, 65, 48
14, 176130, Note_on_c, 7, 62, 48
14, 176130, Note_on_c, 7, 70, 48
14, 176130, Note_on_c, 7, 58, 48
14, 176159, Note_on_c, 7, 58, 0
14, 176159, Note_on_c, 7, 65, 0
14, 176159, Note_on_c, 7, 62, 0
14, 176159, Note_on_c, 7, 70, 0
14, 176160, Note_on_c, 7, 65, 48
14, 176160, Note_on_c, 7, 62, 48
14, 176160, Note_on_c, 7, 70, 48
14, 176160, Note_on_c, 7, 58, 48
14, 176189, Note_on_c, 7, 58, 0
14, 176189, Note_on_c, 7, 65, 0
14, 176189, Note_on_c, 7, 62, 0
14, 176189, Note_on_c, 7, 70, 0
14, 176190, Note_on_c, 7, 65, 48
14, 176190, Note_on_c, 7, 62, 48
14, 176190, Note_on_c, 7, 70, 48
14, 176190, Note_on_c, 7, 58, 48
14, 176219, Note_on_c, 7, 58, 0
14, 176219, Note_on_c, 7, 65, 0
14, 176219, Note_on_c, 7, 62, 0
14, 176219, Note_on_c, 7, 70, 0
14, 176220, Note_on_c, 7, 65, 48
14, 176220, Note_on_c, 7, 62, 48
14, 176220, Note_on_c, 7, 70, 48
14, 176220, Note_on_c, 7, 58, 48
14, 176249, Note_on_c, 7, 58, 0
14, 176249, Note_on_c, 7, 65, 0
14, 176249, Note_on_c, 7, 62, 0
14, 176249, Note_on_c, 7, 70, 0
14, 176250, Note_on_c, 7, 65, 48
14, 176250, Note_on_c, 7, 62, 48
14, 176250, Note_on_c, 7, 70, 48
14, 176250, Note_on_c, 7, 58, 48
14, 176279, Note_on_c, 7, 58, 0
14, 176279, Note_on_c, 7, 65, 0
14, 176279, Note_on_c, 7, 62, 0
14, 176279, Note_on_c, 7, 70, 0
14, 176280, Note_on_c, 7, 65, 48
14, 176280, Note_on_c, 7, 62, 48
14, 176280, Note_on_c, 7, 70, 48
14, 176280, Note_on_c, 7, 58, 48
14, 176309, Note_on_c, 7, 58, 0
14, 176309, Note_on_c, 7, 65, 0
14, 176309, Note_on_c, 7, 62, 0
14, 176309, Note_on_c, 7, 70, 0
14, 176310, Note_on_c, 7, 65, 48
14, 176310, Note_on_c, 7, 62, 48
14, 176310, Note_on_c, 7, 70, 48
14, 176310, Note_on_c, 7, 58, 48
14, 176339, Note_on_c, 7, 58, 0
14, 176339, Note_on_c, 7, 65, 0
14, 176339, Note_on_c, 7, 62, 0
14, 176339, Note_on_c, 7, 70, 0
14, 176340, Note_on_c, 7, 65, 48
14, 176340, Note_on_c, 7, 62, 48
14, 176340, Note_on_c, 7, 70, 48
14, 176340, Note_on_c, 7, 58, 48
14, 176369, Note_on_c, 7, 58, 0
14, 176369, Note_on_c, 7, 65, 0
14, 176369, Note_on_c, 7, 62, 0
14, 176369, Note_on_c, 7, 70, 0
14, 176370, Note_on_c, 7, 65, 48
14, 176370, Note_on_c, 7, 62, 48
14, 176370, Note_on_c, 7, 70, 48
14, 176370, Note_on_c, 7, 58, 48
14, 176399, Note_on_c, 7, 58, 0
14, 176399, Note_on_c, 7, 65, 0
14, 176399, Note_on_c, 7, 62, 0
14, 176399, Note_on_c, 7, 70, 0
14, 176400, Note_on_c, 7, 58, 48
14, 176400, Note_on_c, 7, 65, 48
14, 176400, Note_on_c, 7, 62, 48
14, 176400, Note_on_c, 7, 70, 48
14, 176429, Note_on_c, 7, 70, 0
14, 176429, Note_on_c, 7, 58, 0
14, 176429, Note_on_c, 7, 65, 0
14, 176429, Note_on_c, 7, 62, 0
14, 176430, Note_on_c, 7, 65, 48
14, 176430, Note_on_c, 7, 62, 48
14, 176430, Note_on_c, 7, 70, 48
14, 176430, Note_on_c, 7, 58, 48
14, 176459, Note_on_c, 7, 58, 0
14, 176459, Note_on_c, 7, 65, 0
14, 176459, Note_on_c, 7, 62, 0
14, 176459, Note_on_c, 7, 70, 0
14, 176460, Note_on_c, 7, 65, 48
14, 176460, Note_on_c, 7, 62, 48
14, 176460, Note_on_c, 7, 70, 48
14, 176460, Note_on_c, 7, 58, 48
14, 176489, Note_on_c, 7, 58, 0
14, 176489, Note_on_c, 7, 65, 0
14, 176489, Note_on_c, 7, 62, 0
14, 176489, Note_on_c, 7, 70, 0
14, 176490, Note_on_c, 7, 65, 48
14, 176490, Note_on_c, 7, 62, 48
14, 176490, Note_on_c, 7, 70, 48
14, 176490, Note_on_c, 7, 58, 48
14, 176519, Note_on_c, 7, 58, 0
14, 176519, Note_on_c, 7, 65, 0
14, 176519, Note_on_c, 7, 62, 0
14, 176519, Note_on_c, 7, 70, 0
14, 176520, Note_on_c, 7, 65, 48
14, 176520, Note_on_c, 7, 62, 48
14, 176520, Note_on_c, 7, 70, 48
14, 176520, Note_on_c, 7, 58, 48
14, 176549, Note_on_c, 7, 58, 0
14, 176549, Note_on_c, 7, 65, 0
14, 176549, Note_on_c, 7, 62, 0
14, 176549, Note_on_c, 7, 70, 0
14, 176550, Note_on_c, 7, 65, 48
14, 176550, Note_on_c, 7, 62, 48
14, 176550, Note_on_c, 7, 70, 48
14, 176550, Note_on_c, 7, 58, 48
14, 176579, Note_on_c, 7, 58, 0
14, 176579, Note_on_c, 7, 65, 0
14, 176579, Note_on_c, 7, 62, 0
14, 176579, Note_on_c, 7, 70, 0
14, 176580, Note_on_c, 7, 65, 48
14, 176580, Note_on_c, 7, 62, 48
14, 176580, Note_on_c, 7, 70, 48
14, 176580, Note_on_c, 7, 58, 48
14, 176609, Note_on_c, 7, 58, 0
14, 176609, Note_on_c, 7, 65, 0
14, 176609, Note_on_c, 7, 62, 0
14, 176609, Note_on_c, 7, 70, 0
14, 176610, Note_on_c, 7, 65, 48
14, 176610, Note_on_c, 7, 62, 48
14, 176610, Note_on_c, 7, 70, 48
14, 176610, Note_on_c, 7, 58, 48
14, 176639, Note_on_c, 7, 58, 0
14, 176639, Note_on_c, 7, 65, 0
14, 176639, Note_on_c, 7, 62, 0
14, 176639, Note_on_c, 7, 70, 0
14, 176640, Note_on_c, 7, 65, 48
14, 176640, Note_on_c, 7, 62, 48
14, 176640, Note_on_c, 7, 70, 48
14, 176640, Note_on_c, 7, 58, 48
14, 176669, Note_on_c, 7, 58, 0
14, 176669, Note_on_c, 7, 65, 0
14, 176669, Note_on_c, 7, 62, 0
14, 176669, Note_on_c, 7, 70, 0
14, 176670, Note_on_c, 7, 65, 48
14, 176670, Note_on_c, 7, 62, 48
14, 176670, Note_on_c, 7, 70, 48
14, 176670, Note_on_c, 7, 58, 48
14, 176699, Note_on_c, 7, 58, 0
14, 176699, Note_on_c, 7, 65, 0
14, 176699, Note_on_c, 7, 62, 0
14, 176699, Note_on_c, 7, 70, 0
14, 176700, Note_on_c, 7, 65, 48
14, 176700, Note_on_c, 7, 62, 48
14, 176700, Note_on_c, 7, 70, 48
14, 176700, Note_on_c, 7, 58, 48
14, 176729, Note_on_c, 7, 58, 0
14, 176729, Note_on_c, 7, 65, 0
14, 176729, Note_on_c, 7, 62, 0
14, 176729, Note_on_c, 7, 70, 0
14, 176730, Note_on_c, 7, 65, 48
14, 176730, Note_on_c, 7, 62, 48
14, 176730, Note_on_c, 7, 70, 48
14, 176730, Note_on_c, 7, 58, 48
14, 176759, Note_on_c, 7, 58, 0
14, 176759, Note_on_c, 7, 65, 0
14, 176759, Note_on_c, 7, 62, 0
14, 176759, Note_on_c, 7, 70, 0
14, 176760, Note_on_c, 7, 70, 96
14, 176760, Note_on_c, 7, 62, 96
14, 176760, Note_on_c, 7, 58, 96
14, 176789, Note_on_c, 7, 58, 0
14, 176789, Note_on_c, 7, 62, 0
14, 176789, Note_on_c, 7, 70, 0
14, 176790, Note_on_c, 7, 62, 48
14, 176790, Note_on_c, 7, 58, 48
14, 176790, Note_on_c, 7, 70, 48
14, 176819, Note_on_c, 7, 70, 0
14, 176819, Note_on_c, 7, 58, 0
14, 176819, Note_on_c, 7, 62, 0
14, 176820, Note_on_c, 7, 62, 48
14, 176820, Note_on_c, 7, 58, 48
14, 176820, Note_on_c, 7, 70, 48
14, 176849, Note_on_c, 7, 70, 0
14, 176849, Note_on_c, 7, 58, 0
14, 176849, Note_on_c, 7, 62, 0
14, 176850, Note_on_c, 7, 62, 48
14, 176850, Note_on_c, 7, 58, 48
14, 176850, Note_on_c, 7, 70, 48
14, 176879, Note_on_c, 7, 70, 0
14, 176879, Note_on_c, 7, 58, 0
14, 176879, Note_on_c, 7, 62, 0
14, 176880, Note_on_c, 7, 74, 48
14, 176880, Note_on_c, 7, 58, 48
14, 176880, Note_on_c, 7, 62, 48
14, 176909, Note_on_c, 7, 62, 0
14, 176909, Note_on_c, 7, 58, 0
14, 176909, Note_on_c, 7, 74, 0
14, 176910, Note_on_c, 7, 74, 48
14, 176910, Note_on_c, 7, 58, 48
14, 176910, Note_on_c, 7, 62, 48
14, 176939, Note_on_c, 7, 62, 0
14, 176939, Note_on_c, 7, 58, 0
14, 176939, Note_on_c, 7, 74, 0
14, 176940, Note_on_c, 7, 74, 48
14, 176940, Note_on_c, 7, 58, 48
14, 176940, Note_on_c, 7, 62, 48
14, 176969, Note_on_c, 7, 62, 0
14, 176969, Note_on_c, 7, 58, 0
14, 176969, Note_on_c, 7, 74, 0
14, 176970, Note_on_c, 7, 74, 48
14, 176970, Note_on_c, 7, 58, 48
14, 176970, Note_on_c, 7, 62, 48
14, 176999, Note_on_c, 7, 62, 0
14, 176999, Note_on_c, 7, 58, 0
14, 176999, Note_on_c, 7, 74, 0
14, 177000, Note_on_c, 7, 77, 48
14, 177000, Note_on_c, 7, 58, 48
14, 177000, Note_on_c, 7, 62, 48
14, 177029, Note_on_c, 7, 62, 0
14, 177029, Note_on_c, 7, 58, 0
14, 177029, Note_on_c, 7, 77, 0
14, 177030, Note_on_c, 7, 77, 48
14, 177030, Note_on_c, 7, 58, 48
14, 177030, Note_on_c, 7, 62, 48
14, 177059, Note_on_c, 7, 62, 0
14, 177059, Note_on_c, 7, 58, 0
14, 177059, Note_on_c, 7, 77, 0
14, 177060, Note_on_c, 7, 77, 48
14, 177060, Note_on_c, 7, 58, 48
14, 177060, Note_on_c, 7, 62, 48
14, 177089, Note_on_c, 7, 62, 0
14, 177089, Note_on_c, 7, 58, 0
14, 177089, Note_on_c, 7, 77, 0
14, 177090, Note_on_c, 7, 77, 48
14, 177090, Note_on_c, 7, 58, 48
14, 177090, Note_on_c, 7, 62, 48
14, 177119, Note_on_c, 7, 62, 0
14, 177119, Note_on_c, 7, 58, 0
14, 177119, Note_on_c, 7, 77, 0
14, 177120, Note_on_c, 7, 66, 48
14, 177120, Note_on_c, 7, 63, 48
14, 177120, Note_on_c, 7, 58, 48
14, 177120, Note_on_c, 7, 70, 48
14, 177149, Note_on_c, 7, 70, 0
14, 177149, Note_on_c, 7, 66, 0
14, 177149, Note_on_c, 7, 63, 0
14, 177149, Note_on_c, 7, 58, 0
14, 177150, Note_on_c, 7, 66, 48
14, 177150, Note_on_c, 7, 63, 48
14, 177150, Note_on_c, 7, 58, 48
14, 177150, Note_on_c, 7, 70, 48
14, 177179, Note_on_c, 7, 70, 0
14, 177179, Note_on_c, 7, 66, 0
14, 177179, Note_on_c, 7, 63, 0
14, 177179, Note_on_c, 7, 58, 0
14, 177180, Note_on_c, 7, 66, 48
14, 177180, Note_on_c, 7, 63, 48
14, 177180, Note_on_c, 7, 58, 48
14, 177180, Note_on_c, 7, 70, 48
14, 177209, Note_on_c, 7, 70, 0
14, 177209, Note_on_c, 7, 66, 0
14, 177209, Note_on_c, 7, 63, 0
14, 177209, Note_on_c, 7, 58, 0
14, 177210, Note_on_c, 7, 66, 48
14, 177210, Note_on_c, 7, 63, 48
14, 177210, Note_on_c, 7, 58, 48
14, 177210, Note_on_c, 7, 70, 48
14, 177239, Note_on_c, 7, 70, 0
14, 177239, Note_on_c, 7, 66, 0
14, 177239, Note_on_c, 7, 63, 0
14, 177239, Note_on_c, 7, 58, 0
14, 177240, Note_on_c, 7, 66, 48
14, 177240, Note_on_c, 7, 63, 48
14, 177240, Note_on_c, 7, 58, 48
14, 177240, Note_on_c, 7, 70, 48
14, 177269, Note_on_c, 7, 70, 0
14, 177269, Note_on_c, 7, 66, 0
14, 177269, Note_on_c, 7, 63, 0
14, 177269, Note_on_c, 7, 58, 0
14, 177270, Note_on_c, 7, 66, 48
14, 177270, Note_on_c, 7, 63, 48
14, 177270, Note_on_c, 7, 58, 48
14, 177270, Note_on_c, 7, 70, 48
14, 177299, Note_on_c, 7, 70, 0
14, 177299, Note_on_c, 7, 66, 0
14, 177299, Note_on_c, 7, 63, 0
14, 177299, Note_on_c, 7, 58, 0
14, 177300, Note_on_c, 7, 66, 48
14, 177300, Note_on_c, 7, 63, 48
14, 177300, Note_on_c, 7, 58, 48
14, 177300, Note_on_c, 7, 70, 48
14, 177329, Note_on_c, 7, 70, 0
14, 177329, Note_on_c, 7, 66, 0
14, 177329, Note_on_c, 7, 63, 0
14, 177329, Note_on_c, 7, 58, 0
14, 177330, Note_on_c, 7, 66, 48
14, 177330, Note_on_c, 7, 63, 48
14, 177330, Note_on_c, 7, 58, 48
14, 177330, Note_on_c, 7, 70, 48
14, 177359, Note_on_c, 7, 70, 0
14, 177359, Note_on_c, 7, 66, 0
14, 177359, Note_on_c, 7, 63, 0
14, 177359, Note_on_c, 7, 58, 0
14, 177360, Note_on_c, 7, 66, 48
14, 177360, Note_on_c, 7, 63, 48
14, 177360, Note_on_c, 7, 58, 48
14, 177360, Note_on_c, 7, 70, 48
14, 177389, Note_on_c, 7, 70, 0
14, 177389, Note_on_c, 7, 66, 0
14, 177389, Note_on_c, 7, 63, 0
14, 177389, Note_on_c, 7, 58, 0
14, 177390, Note_on_c, 7, 66, 48
14, 177390, Note_on_c, 7, 63, 48
14, 177390, Note_on_c, 7, 58, 48
14, 177390, Note_on_c, 7, 70, 48
14, 177419, Note_on_c, 7, 70, 0
14, 177419, Note_on_c, 7, 66, 0
14, 177419, Note_on_c, 7, 63, 0
14, 177419, Note_on_c, 7, 58, 0
14, 177420, Note_on_c, 7, 66, 48
14, 177420, Note_on_c, 7, 63, 48
14, 177420, Note_on_c, 7, 58, 48
14, 177420, Note_on_c, 7, 70, 48
14, 177449, Note_on_c, 7, 70, 0
14, 177449, Note_on_c, 7, 66, 0
14, 177449, Note_on_c, 7, 63, 0
14, 177449, Note_on_c, 7, 58, 0
14, 177450, Note_on_c, 7, 66, 48
14, 177450, Note_on_c, 7, 63, 48
14, 177450, Note_on_c, 7, 58, 48
14, 177450, Note_on_c, 7, 70, 48
14, 177479, Note_on_c, 7, 70, 0
14, 177479, Note_on_c, 7, 66, 0
14, 177479, Note_on_c, 7, 63, 0
14, 177479, Note_on_c, 7, 58, 0
14, 177480, Note_on_c, 7, 66, 48
14, 177480, Note_on_c, 7, 63, 48
14, 177480, Note_on_c, 7, 58, 48
14, 177480, Note_on_c, 7, 70, 48
14, 177509, Note_on_c, 7, 70, 0
14, 177509, Note_on_c, 7, 66, 0
14, 177509, Note_on_c, 7, 63, 0
14, 177509, Note_on_c, 7, 58, 0
14, 177510, Note_on_c, 7, 66, 48
14, 177510, Note_on_c, 7, 63, 48
14, 177510, Note_on_c, 7, 58, 48
14, 177510, Note_on_c, 7, 70, 48
14, 177539, Note_on_c, 7, 70, 0
14, 177539, Note_on_c, 7, 66, 0
14, 177539, Note_on_c, 7, 63, 0
14, 177539, Note_on_c, 7, 58, 0
14, 177540, Note_on_c, 7, 66, 48
14, 177540, Note_on_c, 7, 63, 48
14, 177540, Note_on_c, 7, 58, 48
14, 177540, Note_on_c, 7, 70, 48
14, 177569, Note_on_c, 7, 70, 0
14, 177569, Note_on_c, 7, 66, 0
14, 177569, Note_on_c, 7, 63, 0
14, 177569, Note_on_c, 7, 58, 0
14, 177570, Note_on_c, 7, 66, 48
14, 177570, Note_on_c, 7, 63, 48
14, 177570, Note_on_c, 7, 58, 48
14, 177570, Note_on_c, 7, 70, 48
14, 177599, Note_on_c, 7, 70, 0
14, 177599, Note_on_c, 7, 66, 0
14, 177599, Note_on_c, 7, 63, 0
14, 177599, Note_on_c, 7, 58, 0
14, 177600, Note_on_c, 7, 66, 48
14, 177600, Note_on_c, 7, 63, 48
14, 177600, Note_on_c, 7, 58, 48
14, 177600, Note_on_c, 7, 70, 48
14, 177629, Note_on_c, 7, 70, 0
14, 177629, Note_on_c, 7, 66, 0
14, 177629, Note_on_c, 7, 63, 0
14, 177629, Note_on_c, 7, 58, 0
14, 177630, Note_on_c, 7, 66, 48
14, 177630, Note_on_c, 7, 63, 48
14, 177630, Note_on_c, 7, 58, 48
14, 177630, Note_on_c, 7, 70, 48
14, 177659, Note_on_c, 7, 70, 0
14, 177659, Note_on_c, 7, 66, 0
14, 177659, Note_on_c, 7, 63, 0
14, 177659, Note_on_c, 7, 58, 0
14, 177660, Note_on_c, 7, 66, 48
14, 177660, Note_on_c, 7, 63, 48
14, 177660, Note_on_c, 7, 58, 48
14, 177660, Note_on_c, 7, 70, 48
14, 177689, Note_on_c, 7, 70, 0
14, 177689, Note_on_c, 7, 66, 0
14, 177689, Note_on_c, 7, 63, 0
14, 177689, Note_on_c, 7, 58, 0
14, 177690, Note_on_c, 7, 66, 48
14, 177690, Note_on_c, 7, 63, 48
14, 177690, Note_on_c, 7, 58, 48
14, 177690, Note_on_c, 7, 70, 48
14, 177719, Note_on_c, 7, 70, 0
14, 177719, Note_on_c, 7, 66, 0
14, 177719, Note_on_c, 7, 63, 0
14, 177719, Note_on_c, 7, 58, 0
14, 177720, Note_on_c, 7, 66, 48
14, 177720, Note_on_c, 7, 63, 48
14, 177720, Note_on_c, 7, 58, 48
14, 177720, Note_on_c, 7, 70, 48
14, 177749, Note_on_c, 7, 70, 0
14, 177749, Note_on_c, 7, 66, 0
14, 177749, Note_on_c, 7, 63, 0
14, 177749, Note_on_c, 7, 58, 0
14, 177750, Note_on_c, 7, 66, 48
14, 177750, Note_on_c, 7, 63, 48
14, 177750, Note_on_c, 7, 58, 48
14, 177750, Note_on_c, 7, 70, 48
14, 177779, Note_on_c, 7, 70, 0
14, 177779, Note_on_c, 7, 66, 0
14, 177779, Note_on_c, 7, 63, 0
14, 177779, Note_on_c, 7, 58, 0
14, 177780, Note_on_c, 7, 66, 48
14, 177780, Note_on_c, 7, 63, 48
14, 177780, Note_on_c, 7, 58, 48
14, 177780, Note_on_c, 7, 70, 48
14, 177809, Note_on_c, 7, 70, 0
14, 177809, Note_on_c, 7, 66, 0
14, 177809, Note_on_c, 7, 63, 0
14, 177809, Note_on_c, 7, 58, 0
14, 177810, Note_on_c, 7, 66, 48
14, 177810, Note_on_c, 7, 63, 48
14, 177810, Note_on_c, 7, 58, 48
14, 177810, Note_on_c, 7, 70, 48
14, 177839, Note_on_c, 7, 70, 0
14, 177839, Note_on_c, 7, 66, 0
14, 177839, Note_on_c, 7, 63, 0
14, 177839, Note_on_c, 7, 58, 0
14, 177840, Note_on_c, 7, 66, 48
14, 177840, Note_on_c, 7, 63, 48
14, 177840, Note_on_c, 7, 58, 48
14, 177840, Note_on_c, 7, 70, 48
14, 177869, Note_on_c, 7, 70, 0
14, 177869, Note_on_c, 7, 66, 0
14, 177869, Note_on_c, 7, 63, 0
14, 177869, Note_on_c, 7, 58, 0
14, 177870, Note_on_c, 7, 66, 48
14, 177870, Note_on_c, 7, 63, 48
14, 177870, Note_on_c, 7, 58, 48
14, 177870, Note_on_c, 7, 70, 48
14, 177899, Note_on_c, 7, 70, 0
14, 177899, Note_on_c, 7, 66, 0
14, 177899, Note_on_c, 7, 63, 0
14, 177899, Note_on_c, 7, 58, 0
14, 177900, Note_on_c, 7, 66, 48
14, 177900, Note_on_c, 7, 63, 48
14, 177900, Note_on_c, 7, 58, 48
14, 177900, Note_on_c, 7, 70, 48
14, 177929, Note_on_c, 7, 70, 0
14, 177929, Note_on_c, 7, 66, 0
14, 177929, Note_on_c, 7, 63, 0
14, 177929, Note_on_c, 7, 58, 0
14, 177930, Note_on_c, 7, 66, 48
14, 177930, Note_on_c, 7, 63, 48
14, 177930, Note_on_c, 7, 58, 48
14, 177930, Note_on_c, 7, 70, 48
14, 177959, Note_on_c, 7, 70, 0
14, 177959, Note_on_c, 7, 66, 0
14, 177959, Note_on_c, 7, 63, 0
14, 177959, Note_on_c, 7, 58, 0
14, 177960, Note_on_c, 7, 66, 48
14, 177960, Note_on_c, 7, 63, 48
14, 177960, Note_on_c, 7, 58, 48
14, 177960, Note_on_c, 7, 70, 48
14, 177989, Note_on_c, 7, 70, 0
14, 177989, Note_on_c, 7, 66, 0
14, 177989, Note_on_c, 7, 63, 0
14, 177989, Note_on_c, 7, 58, 0
14, 177990, Note_on_c, 7, 66, 48
14, 177990, Note_on_c, 7, 63, 48
14, 177990, Note_on_c, 7, 58, 48
14, 177990, Note_on_c, 7, 70, 48
14, 178019, Note_on_c, 7, 70, 0
14, 178019, Note_on_c, 7, 66, 0
14, 178019, Note_on_c, 7, 63, 0
14, 178019, Note_on_c, 7, 58, 0
14, 178020, Note_on_c, 7, 66, 48
14, 178020, Note_on_c, 7, 63, 48
14, 178020, Note_on_c, 7, 58, 48
14, 178020, Note_on_c, 7, 70, 48
14, 178049, Note_on_c, 7, 70, 0
14, 178049, Note_on_c, 7, 66, 0
14, 178049, Note_on_c, 7, 63, 0
14, 178049, Note_on_c, 7, 58, 0
14, 178050, Note_on_c, 7, 66, 48
14, 178050, Note_on_c, 7, 63, 48
14, 178050, Note_on_c, 7, 58, 48
14, 178050, Note_on_c, 7, 70, 48
14, 178079, Note_on_c, 7, 70, 0
14, 178079, Note_on_c, 7, 66, 0
14, 178079, Note_on_c, 7, 63, 0
14, 178079, Note_on_c, 7, 58, 0
14, 178080, Note_on_c, 7, 66, 48
14, 178080, Note_on_c, 7, 63, 48
14, 178080, Note_on_c, 7, 58, 48
14, 178080, Note_on_c, 7, 70, 48
14, 178109, Note_on_c, 7, 70, 0
14, 178109, Note_on_c, 7, 66, 0
14, 178109, Note_on_c, 7, 63, 0
14, 178109, Note_on_c, 7, 58, 0
14, 178110, Note_on_c, 7, 66, 48
14, 178110, Note_on_c, 7, 63, 48
14, 178110, Note_on_c, 7, 58, 48
14, 178110, Note_on_c, 7, 70, 48
14, 178139, Note_on_c, 7, 70, 0
14, 178139, Note_on_c, 7, 66, 0
14, 178139, Note_on_c, 7, 63, 0
14, 178139, Note_on_c, 7, 58, 0
14, 178140, Note_on_c, 7, 66, 48
14, 178140, Note_on_c, 7, 63, 48
14, 178140, Note_on_c, 7, 58, 48
14, 178140, Note_on_c, 7, 70, 48
14, 178169, Note_on_c, 7, 70, 0
14, 178169, Note_on_c, 7, 66, 0
14, 178169, Note_on_c, 7, 63, 0
14, 178169, Note_on_c, 7, 58, 0
14, 178170, Note_on_c, 7, 66, 48
14, 178170, Note_on_c, 7, 63, 48
14, 178170, Note_on_c, 7, 58, 48
14, 178170, Note_on_c, 7, 70, 48
14, 178199, Note_on_c, 7, 70, 0
14, 178199, Note_on_c, 7, 66, 0
14, 178199, Note_on_c, 7, 63, 0
14, 178199, Note_on_c, 7, 58, 0
14, 178200, Note_on_c, 7, 70, 96
14, 178200, Note_on_c, 7, 63, 96
14, 178200, Note_on_c, 7, 58, 96
14, 178229, Note_on_c, 7, 58, 0
14, 178229, Note_on_c, 7, 63, 0
14, 178229, Note_on_c, 7, 70, 0
14, 178230, Note_on_c, 7, 70, 48
14, 178230, Note_on_c, 7, 58, 48
14, 178230, Note_on_c, 7, 63, 48
14, 178259, Note_on_c, 7, 63, 0
14, 178259, Note_on_c, 7, 58, 0
14, 178259, Note_on_c, 7, 70, 0
14, 178260, Note_on_c, 7, 70, 48
14, 178260, Note_on_c, 7, 58, 48
14, 178260, Note_on_c, 7, 63, 48
14, 178289, Note_on_c, 7, 63, 0
14, 178289, Note_on_c, 7, 58, 0
14, 178289, Note_on_c, 7, 70, 0
14, 178290, Note_on_c, 7, 70, 48
14, 178290, Note_on_c, 7, 58, 48
14, 178290, Note_on_c, 7, 63, 48
14, 178319, Note_on_c, 7, 63, 0
14, 178319, Note_on_c, 7, 58, 0
14, 178319, Note_on_c, 7, 70, 0
14, 178320, Note_on_c, 7, 75, 48
14, 178320, Note_on_c, 7, 63, 48
14, 178320, Note_on_c, 7, 58, 48
14, 178349, Note_on_c, 7, 58, 0
14, 178349, Note_on_c, 7, 63, 0
14, 178349, Note_on_c, 7, 75, 0
14, 178350, Note_on_c, 7, 75, 48
14, 178350, Note_on_c, 7, 63, 48
14, 178350, Note_on_c, 7, 58, 48
14, 178379, Note_on_c, 7, 58, 0
14, 178379, Note_on_c, 7, 63, 0
14, 178379, Note_on_c, 7, 75, 0
14, 178380, Note_on_c, 7, 75, 48
14, 178380, Note_on_c, 7, 63, 48
14, 178380, Note_on_c, 7, 58, 48
14, 178409, Note_on_c, 7, 58, 0
14, 178409, Note_on_c, 7, 63, 0
14, 178409, Note_on_c, 7, 75, 0
14, 178410, Note_on_c, 7, 75, 48
14, 178410, Note_on_c, 7, 63, 48
14, 178410, Note_on_c, 7, 58, 48
14, 178439, Note_on_c, 7, 58, 0
14, 178439, Note_on_c, 7, 63, 0
14, 178439, Note_on_c, 7, 75, 0
14, 178440, Note_on_c, 7, 78, 48
14, 178440, Note_on_c, 7, 63, 48
14, 178440, Note_on_c, 7, 58, 48
14, 178469, Note_on_c, 7, 58, 0
14, 178469, Note_on_c, 7, 63, 0
14, 178469, Note_on_c, 7, 78, 0
14, 178470, Note_on_c, 7, 78, 48
14, 178470, Note_on_c, 7, 63, 48
14, 178470, Note_on_c, 7, 58, 48
14, 178499, Note_on_c, 7, 58, 0
14, 178499, Note_on_c, 7, 63, 0
14, 178499, Note_on_c, 7, 78, 0
14, 178500, Note_on_c, 7, 78, 48
14, 178500, Note_on_c, 7, 63, 48
14, 178500, Note_on_c, 7, 58, 48
14, 178529, Note_on_c, 7, 58, 0
14, 178529, Note_on_c, 7, 63, 0
14, 178529, Note_on_c, 7, 78, 0
14, 178530, Note_on_c, 7, 78, 48
14, 178530, Note_on_c, 7, 63, 48
14, 178530, Note_on_c, 7, 58, 48
14, 178559, Note_on_c, 7, 58, 0
14, 178559, Note_on_c, 7, 63, 0
14, 178559, Note_on_c, 7, 78, 0
14, 178560, Note_on_c, 7, 68, 48
14, 178560, Note_on_c, 7, 66, 48
14, 178560, Note_on_c, 7, 56, 48
14, 178589, Note_on_c, 7, 56, 0
14, 178589, Note_on_c, 7, 66, 0
14, 178589, Note_on_c, 7, 68, 0
14, 178590, Note_on_c, 7, 68, 48
14, 178590, Note_on_c, 7, 66, 48
14, 178590, Note_on_c, 7, 56, 48
14, 178619, Note_on_c, 7, 56, 0
14, 178619, Note_on_c, 7, 66, 0
14, 178619, Note_on_c, 7, 68, 0
14, 178620, Note_on_c, 7, 68, 48
14, 178620, Note_on_c, 7, 66, 48
14, 178620, Note_on_c, 7, 56, 48
14, 178649, Note_on_c, 7, 56, 0
14, 178649, Note_on_c, 7, 66, 0
14, 178649, Note_on_c, 7, 68, 0
14, 178650, Note_on_c, 7, 68, 48
14, 178650, Note_on_c, 7, 66, 48
14, 178650, Note_on_c, 7, 56, 48
14, 178679, Note_on_c, 7, 56, 0
14, 178679, Note_on_c, 7, 66, 0
14, 178679, Note_on_c, 7, 68, 0
14, 178680, Note_on_c, 7, 68, 48
14, 178680, Note_on_c, 7, 66, 48
14, 178680, Note_on_c, 7, 56, 48
14, 178709, Note_on_c, 7, 56, 0
14, 178709, Note_on_c, 7, 66, 0
14, 178709, Note_on_c, 7, 68, 0
14, 178710, Note_on_c, 7, 68, 48
14, 178710, Note_on_c, 7, 66, 48
14, 178710, Note_on_c, 7, 56, 48
14, 178739, Note_on_c, 7, 56, 0
14, 178739, Note_on_c, 7, 66, 0
14, 178739, Note_on_c, 7, 68, 0
14, 178740, Note_on_c, 7, 68, 48
14, 178740, Note_on_c, 7, 66, 48
14, 178740, Note_on_c, 7, 56, 48
14, 178769, Note_on_c, 7, 56, 0
14, 178769, Note_on_c, 7, 66, 0
14, 178769, Note_on_c, 7, 68, 0
14, 178770, Note_on_c, 7, 68, 48
14, 178770, Note_on_c, 7, 66, 48
14, 178770, Note_on_c, 7, 56, 48
14, 178799, Note_on_c, 7, 56, 0
14, 178799, Note_on_c, 7, 66, 0
14, 178799, Note_on_c, 7, 68, 0
14, 178800, Note_on_c, 7, 68, 48
14, 178800, Note_on_c, 7, 66, 48
14, 178800, Note_on_c, 7, 56, 48
14, 178829, Note_on_c, 7, 56, 0
14, 178829, Note_on_c, 7, 66, 0
14, 178829, Note_on_c, 7, 68, 0
14, 178830, Note_on_c, 7, 68, 48
14, 178830, Note_on_c, 7, 66, 48
14, 178830, Note_on_c, 7, 56, 48
14, 178859, Note_on_c, 7, 56, 0
14, 178859, Note_on_c, 7, 66, 0
14, 178859, Note_on_c, 7, 68, 0
14, 178860, Note_on_c, 7, 68, 48
14, 178860, Note_on_c, 7, 66, 48
14, 178860, Note_on_c, 7, 56, 48
14, 178889, Note_on_c, 7, 56, 0
14, 178889, Note_on_c, 7, 66, 0
14, 178889, Note_on_c, 7, 68, 0
14, 178890, Note_on_c, 7, 68, 48
14, 178890, Note_on_c, 7, 66, 48
14, 178890, Note_on_c, 7, 56, 48
14, 178919, Note_on_c, 7, 56, 0
14, 178919, Note_on_c, 7, 66, 0
14, 178919, Note_on_c, 7, 68, 0
14, 178920, Note_on_c, 7, 68, 48
14, 178920, Note_on_c, 7, 66, 48
14, 178920, Note_on_c, 7, 56, 48
14, 178949, Note_on_c, 7, 56, 0
14, 178949, Note_on_c, 7, 66, 0
14, 178949, Note_on_c, 7, 68, 0
14, 178950, Note_on_c, 7, 68, 48
14, 178950, Note_on_c, 7, 66, 48
14, 178950, Note_on_c, 7, 56, 48
14, 178979, Note_on_c, 7, 56, 0
14, 178979, Note_on_c, 7, 66, 0
14, 178979, Note_on_c, 7, 68, 0
14, 178980, Note_on_c, 7, 68, 48
14, 178980, Note_on_c, 7, 66, 48
14, 178980, Note_on_c, 7, 56, 48
14, 179009, Note_on_c, 7, 56, 0
14, 179009, Note_on_c, 7, 66, 0
14, 179009, Note_on_c, 7, 68, 0
14, 179010, Note_on_c, 7, 68, 48
14, 179010, Note_on_c, 7, 66, 48
14, 179010, Note_on_c, 7, 56, 48
14, 179039, Note_on_c, 7, 56, 0
14, 179039, Note_on_c, 7, 66, 0
14, 179039, Note_on_c, 7, 68, 0
14, 179040, Note_on_c, 7, 68, 48
14, 179040, Note_on_c, 7, 66, 48
14, 179040, Note_on_c, 7, 56, 48
14, 179069, Note_on_c, 7, 56, 0
14, 179069, Note_on_c, 7, 66, 0
14, 179069, Note_on_c, 7, 68, 0
14, 179070, Note_on_c, 7, 68, 48
14, 179070, Note_on_c, 7, 66, 48
14, 179070, Note_on_c, 7, 56, 48
14, 179099, Note_on_c, 7, 56, 0
14, 179099, Note_on_c, 7, 66, 0
14, 179099, Note_on_c, 7, 68, 0
14, 179100, Note_on_c, 7, 68, 48
14, 179100, Note_on_c, 7, 66, 48
14, 179100, Note_on_c, 7, 56, 48
14, 179129, Note_on_c, 7, 56, 0
14, 179129, Note_on_c, 7, 66, 0
14, 179129, Note_on_c, 7, 68, 0
14, 179130, Note_on_c, 7, 68, 48
14, 179130, Note_on_c, 7, 66, 48
14, 179130, Note_on_c, 7, 56, 48
14, 179159, Note_on_c, 7, 56, 0
14, 179159, Note_on_c, 7, 66, 0
14, 179159, Note_on_c, 7, 68, 0
14, 179160, Note_on_c, 7, 68, 48
14, 179160, Note_on_c, 7, 66, 48
14, 179160, Note_on_c, 7, 56, 48
14, 179189, Note_on_c, 7, 56, 0
14, 179189, Note_on_c, 7, 66, 0
14, 179189, Note_on_c, 7, 68, 0
14, 179190, Note_on_c, 7, 68, 48
14, 179190, Note_on_c, 7, 66, 48
14, 179190, Note_on_c, 7, 56, 48
14, 179219, Note_on_c, 7, 56, 0
14, 179219, Note_on_c, 7, 66, 0
14, 179219, Note_on_c, 7, 68, 0
14, 179220, Note_on_c, 7, 68, 48
14, 179220, Note_on_c, 7, 66, 48
14, 179220, Note_on_c, 7, 56, 48
14, 179249, Note_on_c, 7, 56, 0
14, 179249, Note_on_c, 7, 66, 0
14, 179249, Note_on_c, 7, 68, 0
14, 179250, Note_on_c, 7, 68, 48
14, 179250, Note_on_c, 7, 66, 48
14, 179250, Note_on_c, 7, 56, 48
14, 179279, Note_on_c, 7, 56, 0
14, 179279, Note_on_c, 7, 66, 0
14, 179279, Note_on_c, 7, 68, 0
14, 179280, Note_on_c, 7, 68, 48
14, 179280, Note_on_c, 7, 66, 48
14, 179280, Note_on_c, 7, 56, 48
14, 179309, Note_on_c, 7, 56, 0
14, 179309, Note_on_c, 7, 66, 0
14, 179309, Note_on_c, 7, 68, 0
14, 179310, Note_on_c, 7, 68, 48
14, 179310, Note_on_c, 7, 66, 48
14, 179310, Note_on_c, 7, 56, 48
14, 179339, Note_on_c, 7, 56, 0
14, 179339, Note_on_c, 7, 66, 0
14, 179339, Note_on_c, 7, 68, 0
14, 179340, Note_on_c, 7, 68, 48
14, 179340, Note_on_c, 7, 66, 48
14, 179340, Note_on_c, 7, 56, 48
14, 179369, Note_on_c, 7, 56, 0
14, 179369, Note_on_c, 7, 66, 0
14, 179369, Note_on_c, 7, 68, 0
14, 179370, Note_on_c, 7, 68, 48
14, 179370, Note_on_c, 7, 66, 48
14, 179370, Note_on_c, 7, 56, 48
14, 179399, Note_on_c, 7, 56, 0
14, 179399, Note_on_c, 7, 66, 0
14, 179399, Note_on_c, 7, 68, 0
14, 179400, Note_on_c, 7, 68, 48
14, 179400, Note_on_c, 7, 66, 48
14, 179400, Note_on_c, 7, 56, 48
14, 179429, Note_on_c, 7, 56, 0
14, 179429, Note_on_c, 7, 66, 0
14, 179429, Note_on_c, 7, 68, 0
14, 179430, Note_on_c, 7, 68, 48
14, 179430, Note_on_c, 7, 66, 48
14, 179430, Note_on_c, 7, 56, 48
14, 179459, Note_on_c, 7, 56, 0
14, 179459, Note_on_c, 7, 66, 0
14, 179459, Note_on_c, 7, 68, 0
14, 179460, Note_on_c, 7, 68, 48
14, 179460, Note_on_c, 7, 66, 48
14, 179460, Note_on_c, 7, 56, 48
14, 179489, Note_on_c, 7, 56, 0
14, 179489, Note_on_c, 7, 66, 0
14, 179489, Note_on_c, 7, 68, 0
14, 179490, Note_on_c, 7, 68, 48
14, 179490, Note_on_c, 7, 66, 48
14, 179490, Note_on_c, 7, 56, 48
14, 179519, Note_on_c, 7, 56, 0
14, 179519, Note_on_c, 7, 66, 0
14, 179519, Note_on_c, 7, 68, 0
14, 179520, Note_on_c, 7, 68, 48
14, 179520, Note_on_c, 7, 66, 48
14, 179520, Note_on_c, 7, 56, 48
14, 179549, Note_on_c, 7, 56, 0
14, 179549, Note_on_c, 7, 66, 0
14, 179549, Note_on_c, 7, 68, 0
14, 179550, Note_on_c, 7, 68, 48
14, 179550, Note_on_c, 7, 66, 48
14, 179550, Note_on_c, 7, 56, 48
14, 179579, Note_on_c, 7, 56, 0
14, 179579, Note_on_c, 7, 66, 0
14, 179579, Note_on_c, 7, 68, 0
14, 179580, Note_on_c, 7, 68, 48
14, 179580, Note_on_c, 7, 66, 48
14, 179580, Note_on_c, 7, 56, 48
14, 179609, Note_on_c, 7, 56, 0
14, 179609, Note_on_c, 7, 66, 0
14, 179609, Note_on_c, 7, 68, 0
14, 179610, Note_on_c, 7, 68, 48
14, 179610, Note_on_c, 7, 66, 48
14, 179610, Note_on_c, 7, 56, 48
14, 179639, Note_on_c, 7, 56, 0
14, 179639, Note_on_c, 7, 66, 0
14, 179639, Note_on_c, 7, 68, 0
14, 179640, Note_on_c, 7, 68, 96
14, 179640, Note_on_c, 7, 60, 96
14, 179669, Note_on_c, 7, 60, 0
14, 179669, Note_on_c, 7, 68, 0
14, 179670, Note_on_c, 7, 68, 48
14, 179670, Note_on_c, 7, 60, 48
14, 179699, Note_on_c, 7, 60, 0
14, 179699, Note_on_c, 7, 68, 0
14, 179700, Note_on_c, 7, 68, 48
14, 179700, Note_on_c, 7, 60, 48
14, 179729, Note_on_c, 7, 60, 0
14, 179729, Note_on_c, 7, 68, 0
14, 179730, Note_on_c, 7, 68, 48
14, 179730, Note_on_c, 7, 60, 48
14, 179759, Note_on_c, 7, 60, 0
14, 179759, Note_on_c, 7, 68, 0
14, 179760, Note_on_c, 7, 75, 48
14, 179760, Note_on_c, 7, 60, 48
14, 179789, Note_on_c, 7, 60, 0
14, 179789, Note_on_c, 7, 75, 0
14, 179790, Note_on_c, 7, 75, 48
14, 179790, Note_on_c, 7, 60, 48
14, 179819, Note_on_c, 7, 60, 0
14, 179819, Note_on_c, 7, 75, 0
14, 179820, Note_on_c, 7, 75, 48
14, 179820, Note_on_c, 7, 60, 48
14, 179849, Note_on_c, 7, 60, 0
14, 179849, Note_on_c, 7, 75, 0
14, 179850, Note_on_c, 7, 75, 48
14, 179850, Note_on_c, 7, 60, 48
14, 179879, Note_on_c, 7, 60, 0
14, 179879, Note_on_c, 7, 75, 0
14, 179880, Note_on_c, 7, 78, 48
14, 179880, Note_on_c, 7, 60, 48
14, 179909, Note_on_c, 7, 60, 0
14, 179909, Note_on_c, 7, 78, 0
14, 179910, Note_on_c, 7, 78, 48
14, 179910, Note_on_c, 7, 60, 48
14, 179939, Note_on_c, 7, 60, 0
14, 179939, Note_on_c, 7, 78, 0
14, 179940, Note_on_c, 7, 78, 48
14, 179940, Note_on_c, 7, 60, 48
14, 179969, Note_on_c, 7, 60, 0
14, 179969, Note_on_c, 7, 78, 0
14, 179970, Note_on_c, 7, 78, 48
14, 179970, Note_on_c, 7, 60, 48
14, 179999, Note_on_c, 7, 60, 0
14, 179999, Note_on_c, 7, 78, 0
14, 180000, Note_on_c, 7, 68, 48
14, 180000, Note_on_c, 7, 65, 48
14, 180000, Note_on_c, 7, 56, 48
14, 180029, Note_on_c, 7, 56, 0
14, 180029, Note_on_c, 7, 65, 0
14, 180029, Note_on_c, 7, 68, 0
14, 180030, Note_on_c, 7, 68, 48
14, 180030, Note_on_c, 7, 65, 48
14, 180030, Note_on_c, 7, 56, 48
14, 180059, Note_on_c, 7, 56, 0
14, 180059, Note_on_c, 7, 65, 0
14, 180059, Note_on_c, 7, 68, 0
14, 180060, Note_on_c, 7, 68, 48
14, 180060, Note_on_c, 7, 65, 48
14, 180060, Note_on_c, 7, 56, 48
14, 180089, Note_on_c, 7, 56, 0
14, 180089, Note_on_c, 7, 65, 0
14, 180089, Note_on_c, 7, 68, 0
14, 180090, Note_on_c, 7, 68, 48
14, 180090, Note_on_c, 7, 65, 48
14, 180090, Note_on_c, 7, 56, 48
14, 180119, Note_on_c, 7, 56, 0
14, 180119, Note_on_c, 7, 65, 0
14, 180119, Note_on_c, 7, 68, 0
14, 180120, Note_on_c, 7, 68, 48
14, 180120, Note_on_c, 7, 65, 48
14, 180120, Note_on_c, 7, 56, 48
14, 180149, Note_on_c, 7, 56, 0
14, 180149, Note_on_c, 7, 65, 0
14, 180149, Note_on_c, 7, 68, 0
14, 180150, Note_on_c, 7, 68, 48
14, 180150, Note_on_c, 7, 65, 48
14, 180150, Note_on_c, 7, 56, 48
14, 180179, Note_on_c, 7, 56, 0
14, 180179, Note_on_c, 7, 65, 0
14, 180179, Note_on_c, 7, 68, 0
14, 180180, Note_on_c, 7, 68, 48
14, 180180, Note_on_c, 7, 65, 48
14, 180180, Note_on_c, 7, 56, 48
14, 180209, Note_on_c, 7, 56, 0
14, 180209, Note_on_c, 7, 65, 0
14, 180209, Note_on_c, 7, 68, 0
14, 180210, Note_on_c, 7, 68, 48
14, 180210, Note_on_c, 7, 65, 48
14, 180210, Note_on_c, 7, 56, 48
14, 180239, Note_on_c, 7, 56, 0
14, 180239, Note_on_c, 7, 65, 0
14, 180239, Note_on_c, 7, 68, 0
14, 180240, Note_on_c, 7, 68, 48
14, 180240, Note_on_c, 7, 65, 48
14, 180240, Note_on_c, 7, 56, 48
14, 180269, Note_on_c, 7, 56, 0
14, 180269, Note_on_c, 7, 65, 0
14, 180269, Note_on_c, 7, 68, 0
14, 180270, Note_on_c, 7, 68, 48
14, 180270, Note_on_c, 7, 65, 48
14, 180270, Note_on_c, 7, 56, 48
14, 180299, Note_on_c, 7, 56, 0
14, 180299, Note_on_c, 7, 65, 0
14, 180299, Note_on_c, 7, 68, 0
14, 180300, Note_on_c, 7, 68, 48
14, 180300, Note_on_c, 7, 65, 48
14, 180300, Note_on_c, 7, 56, 48
14, 180329, Note_on_c, 7, 56, 0
14, 180329, Note_on_c, 7, 65, 0
14, 180329, Note_on_c, 7, 68, 0
14, 180330, Note_on_c, 7, 68, 48
14, 180330, Note_on_c, 7, 65, 48
14, 180330, Note_on_c, 7, 56, 48
14, 180359, Note_on_c, 7, 56, 0
14, 180359, Note_on_c, 7, 65, 0
14, 180359, Note_on_c, 7, 68, 0
14, 180360, Note_on_c, 7, 68, 48
14, 180360, Note_on_c, 7, 65, 48
14, 180360, Note_on_c, 7, 56, 48
14, 180389, Note_on_c, 7, 56, 0
14, 180389, Note_on_c, 7, 65, 0
14, 180389, Note_on_c, 7, 68, 0
14, 180390, Note_on_c, 7, 68, 48
14, 180390, Note_on_c, 7, 65, 48
14, 180390, Note_on_c, 7, 56, 48
14, 180419, Note_on_c, 7, 56, 0
14, 180419, Note_on_c, 7, 65, 0
14, 180419, Note_on_c, 7, 68, 0
14, 180420, Note_on_c, 7, 68, 48
14, 180420, Note_on_c, 7, 65, 48
14, 180420, Note_on_c, 7, 56, 48
14, 180449, Note_on_c, 7, 56, 0
14, 180449, Note_on_c, 7, 65, 0
14, 180449, Note_on_c, 7, 68, 0
14, 180450, Note_on_c, 7, 68, 48
14, 180450, Note_on_c, 7, 65, 48
14, 180450, Note_on_c, 7, 56, 48
14, 180479, Note_on_c, 7, 56, 0
14, 180479, Note_on_c, 7, 65, 0
14, 180479, Note_on_c, 7, 68, 0
14, 180480, Note_on_c, 7, 68, 48
14, 180480, Note_on_c, 7, 65, 48
14, 180480, Note_on_c, 7, 56, 48
14, 180509, Note_on_c, 7, 56, 0
14, 180509, Note_on_c, 7, 65, 0
14, 180509, Note_on_c, 7, 68, 0
14, 180510, Note_on_c, 7, 68, 48
14, 180510, Note_on_c, 7, 65, 48
14, 180510, Note_on_c, 7, 56, 48
14, 180539, Note_on_c, 7, 56, 0
14, 180539, Note_on_c, 7, 65, 0
14, 180539, Note_on_c, 7, 68, 0
14, 180540, Note_on_c, 7, 68, 48
14, 180540, Note_on_c, 7, 65, 48
14, 180540, Note_on_c, 7, 56, 48
14, 180569, Note_on_c, 7, 56, 0
14, 180569, Note_on_c, 7, 65, 0
14, 180569, Note_on_c, 7, 68, 0
14, 180570, Note_on_c, 7, 68, 48
14, 180570, Note_on_c, 7, 65, 48
14, 180570, Note_on_c, 7, 56, 48
14, 180599, Note_on_c, 7, 56, 0
14, 180599, Note_on_c, 7, 65, 0
14, 180599, Note_on_c, 7, 68, 0
14, 180600, Note_on_c, 7, 68, 48
14, 180600, Note_on_c, 7, 65, 48
14, 180600, Note_on_c, 7, 56, 48
14, 180629, Note_on_c, 7, 56, 0
14, 180629, Note_on_c, 7, 65, 0
14, 180629, Note_on_c, 7, 68, 0
14, 180630, Note_on_c, 7, 68, 48
14, 180630, Note_on_c, 7, 65, 48
14, 180630, Note_on_c, 7, 56, 48
14, 180659, Note_on_c, 7, 56, 0
14, 180659, Note_on_c, 7, 65, 0
14, 180659, Note_on_c, 7, 68, 0
14, 180660, Note_on_c, 7, 68, 48
14, 180660, Note_on_c, 7, 65, 48
14, 180660, Note_on_c, 7, 56, 48
14, 180689, Note_on_c, 7, 56, 0
14, 180689, Note_on_c, 7, 65, 0
14, 180689, Note_on_c, 7, 68, 0
14, 180690, Note_on_c, 7, 68, 48
14, 180690, Note_on_c, 7, 65, 48
14, 180690, Note_on_c, 7, 56, 48
14, 180719, Note_on_c, 7, 56, 0
14, 180719, Note_on_c, 7, 65, 0
14, 180719, Note_on_c, 7, 68, 0
14, 180720, Note_on_c, 7, 68, 48
14, 180720, Note_on_c, 7, 65, 48
14, 180720, Note_on_c, 7, 56, 48
14, 180749, Note_on_c, 7, 56, 0
14, 180749, Note_on_c, 7, 65, 0
14, 180749, Note_on_c, 7, 68, 0
14, 180750, Note_on_c, 7, 68, 48
14, 180750, Note_on_c, 7, 65, 48
14, 180750, Note_on_c, 7, 56, 48
14, 180779, Note_on_c, 7, 56, 0
14, 180779, Note_on_c, 7, 65, 0
14, 180779, Note_on_c, 7, 68, 0
14, 180780, Note_on_c, 7, 68, 48
14, 180780, Note_on_c, 7, 65, 48
14, 180780, Note_on_c, 7, 56, 48
14, 180809, Note_on_c, 7, 56, 0
14, 180809, Note_on_c, 7, 65, 0
14, 180809, Note_on_c, 7, 68, 0
14, 180810, Note_on_c, 7, 68, 48
14, 180810, Note_on_c, 7, 65, 48
14, 180810, Note_on_c, 7, 56, 48
14, 180839, Note_on_c, 7, 56, 0
14, 180839, Note_on_c, 7, 65, 0
14, 180839, Note_on_c, 7, 68, 0
14, 180840, Note_on_c, 7, 68, 48
14, 180840, Note_on_c, 7, 65, 48
14, 180840, Note_on_c, 7, 56, 48
14, 180869, Note_on_c, 7, 56, 0
14, 180869, Note_on_c, 7, 65, 0
14, 180869, Note_on_c, 7, 68, 0
14, 180870, Note_on_c, 7, 68, 48
14, 180870, Note_on_c, 7, 65, 48
14, 180870, Note_on_c, 7, 56, 48
14, 180899, Note_on_c, 7, 56, 0
14, 180899, Note_on_c, 7, 65, 0
14, 180899, Note_on_c, 7, 68, 0
14, 180900, Note_on_c, 7, 68, 48
14, 180900, Note_on_c, 7, 65, 48
14, 180900, Note_on_c, 7, 56, 48
14, 180929, Note_on_c, 7, 56, 0
14, 180929, Note_on_c, 7, 65, 0
14, 180929, Note_on_c, 7, 68, 0
14, 180930, Note_on_c, 7, 68, 48
14, 180930, Note_on_c, 7, 65, 48
14, 180930, Note_on_c, 7, 56, 48
14, 180959, Note_on_c, 7, 56, 0
14, 180959, Note_on_c, 7, 65, 0
14, 180959, Note_on_c, 7, 68, 0
14, 180960, Note_on_c, 7, 68, 48
14, 180960, Note_on_c, 7, 65, 48
14, 180960, Note_on_c, 7, 56, 48
14, 180989, Note_on_c, 7, 56, 0
14, 180989, Note_on_c, 7, 65, 0
14, 180989, Note_on_c, 7, 68, 0
14, 180990, Note_on_c, 7, 68, 48
14, 180990, Note_on_c, 7, 65, 48
14, 180990, Note_on_c, 7, 56, 48
14, 181019, Note_on_c, 7, 56, 0
14, 181019, Note_on_c, 7, 65, 0
14, 181019, Note_on_c, 7, 68, 0
14, 181020, Note_on_c, 7, 68, 48
14, 181020, Note_on_c, 7, 65, 48
14, 181020, Note_on_c, 7, 56, 48
14, 181049, Note_on_c, 7, 56, 0
14, 181049, Note_on_c, 7, 65, 0
14, 181049, Note_on_c, 7, 68, 0
14, 181050, Note_on_c, 7, 68, 48
14, 181050, Note_on_c, 7, 65, 48
14, 181050, Note_on_c, 7, 56, 48
14, 181079, Note_on_c, 7, 56, 0
14, 181079, Note_on_c, 7, 65, 0
14, 181079, Note_on_c, 7, 68, 0
14, 181080, Note_on_c, 7, 73, 96
14, 181080, Note_on_c, 7, 65, 96
14, 181080, Note_on_c, 7, 56, 96
14, 181109, Note_on_c, 7, 56, 0
14, 181109, Note_on_c, 7, 65, 0
14, 181109, Note_on_c, 7, 73, 0
14, 181110, Note_on_c, 7, 73, 48
14, 181110, Note_on_c, 7, 65, 48
14, 181110, Note_on_c, 7, 56, 48
14, 181139, Note_on_c, 7, 56, 0
14, 181139, Note_on_c, 7, 65, 0
14, 181139, Note_on_c, 7, 73, 0
14, 181140, Note_on_c, 7, 73, 48
14, 181140, Note_on_c, 7, 65, 48
14, 181140, Note_on_c, 7, 56, 48
14, 181169, Note_on_c, 7, 56, 0
14, 181169, Note_on_c, 7, 65, 0
14, 181169, Note_on_c, 7, 73, 0
14, 181170, Note_on_c, 7, 73, 48
14, 181170, Note_on_c, 7, 65, 48
14, 181170, Note_on_c, 7, 56, 48
14, 181199, Note_on_c, 7, 56, 0
14, 181199, Note_on_c, 7, 65, 0
14, 181199, Note_on_c, 7, 73, 0
14, 181200, Note_on_c, 7, 77, 48
14, 181200, Note_on_c, 7, 65, 48
14, 181200, Note_on_c, 7, 56, 48
14, 181229, Note_on_c, 7, 56, 0
14, 181229, Note_on_c, 7, 65, 0
14, 181229, Note_on_c, 7, 77, 0
14, 181230, Note_on_c, 7, 77, 48
14, 181230, Note_on_c, 7, 65, 48
14, 181230, Note_on_c, 7, 56, 48
14, 181259, Note_on_c, 7, 56, 0
14, 181259, Note_on_c, 7, 65, 0
14, 181259, Note_on_c, 7, 77, 0
14, 181260, Note_on_c, 7, 77, 48
14, 181260, Note_on_c, 7, 65, 48
14, 181260, Note_on_c, 7, 56, 48
14, 181289, Note_on_c, 7, 56, 0
14, 181289, Note_on_c, 7, 65, 0
14, 181289, Note_on_c, 7, 77, 0
14, 181290, Note_on_c, 7, 77, 48
14, 181290, Note_on_c, 7, 65, 48
14, 181290, Note_on_c, 7, 56, 48
14, 181319, Note_on_c, 7, 56, 0
14, 181319, Note_on_c, 7, 65, 0
14, 181319, Note_on_c, 7, 77, 0
14, 181320, Note_on_c, 7, 80, 48
14, 181320, Note_on_c, 7, 65, 48
14, 181320, Note_on_c, 7, 56, 48
14, 181349, Note_on_c, 7, 56, 0
14, 181349, Note_on_c, 7, 65, 0
14, 181349, Note_on_c, 7, 80, 0
14, 181350, Note_on_c, 7, 80, 48
14, 181350, Note_on_c, 7, 65, 48
14, 181350, Note_on_c, 7, 56, 48
14, 181379, Note_on_c, 7, 56, 0
14, 181379, Note_on_c, 7, 65, 0
14, 181379, Note_on_c, 7, 80, 0
14, 181380, Note_on_c, 7, 80, 48
14, 181380, Note_on_c, 7, 65, 48
14, 181380, Note_on_c, 7, 56, 48
14, 181409, Note_on_c, 7, 56, 0
14, 181409, Note_on_c, 7, 65, 0
14, 181409, Note_on_c, 7, 80, 0
14, 181410, Note_on_c, 7, 80, 48
14, 181410, Note_on_c, 7, 65, 48
14, 181410, Note_on_c, 7, 56, 48
14, 181439, Note_on_c, 7, 56, 0
14, 181439, Note_on_c, 7, 65, 0
14, 181439, Note_on_c, 7, 80, 0
14, 181440, Note_on_c, 7, 65, 48
14, 181440, Note_on_c, 7, 58, 48
14, 181469, Note_on_c, 7, 58, 0
14, 181469, Note_on_c, 7, 65, 0
14, 181470, Note_on_c, 7, 65, 48
14, 181470, Note_on_c, 7, 58, 48
14, 181499, Note_on_c, 7, 58, 0
14, 181499, Note_on_c, 7, 65, 0
14, 181500, Note_on_c, 7, 65, 48
14, 181500, Note_on_c, 7, 58, 48
14, 181529, Note_on_c, 7, 58, 0
14, 181529, Note_on_c, 7, 65, 0
14, 181530, Note_on_c, 7, 65, 48
14, 181530, Note_on_c, 7, 58, 48
14, 181559, Note_on_c, 7, 58, 0
14, 181559, Note_on_c, 7, 65, 0
14, 181560, Note_on_c, 7, 65, 49
14, 181560, Note_on_c, 7, 58, 49
14, 181589, Note_on_c, 7, 58, 0
14, 181589, Note_on_c, 7, 65, 0
14, 181590, Note_on_c, 7, 65, 49
14, 181590, Note_on_c, 7, 58, 49
14, 181619, Note_on_c, 7, 58, 0
14, 181619, Note_on_c, 7, 65, 0
14, 181620, Note_on_c, 7, 65, 49
14, 181620, Note_on_c, 7, 58, 49
14, 181649, Note_on_c, 7, 58, 0
14, 181649, Note_on_c, 7, 65, 0
14, 181650, Note_on_c, 7, 65, 49
14, 181650, Note_on_c, 7, 58, 49
14, 181679, Note_on_c, 7, 58, 0
14, 181679, Note_on_c, 7, 65, 0
14, 181680, Note_on_c, 7, 65, 50
14, 181680, Note_on_c, 7, 58, 50
14, 181709, Note_on_c, 7, 58, 0
14, 181709, Note_on_c, 7, 65, 0
14, 181710, Note_on_c, 7, 65, 50
14, 181710, Note_on_c, 7, 58, 50
14, 181739, Note_on_c, 7, 58, 0
14, 181739, Note_on_c, 7, 65, 0
14, 181740, Note_on_c, 7, 65, 50
14, 181740, Note_on_c, 7, 58, 50
14, 181769, Note_on_c, 7, 58, 0
14, 181769, Note_on_c, 7, 65, 0
14, 181770, Note_on_c, 7, 65, 50
14, 181770, Note_on_c, 7, 58, 50
14, 181799, Note_on_c, 7, 58, 0
14, 181799, Note_on_c, 7, 65, 0
14, 181800, Note_on_c, 7, 68, 51
14, 181800, Note_on_c, 7, 58, 51
14, 181829, Note_on_c, 7, 58, 0
14, 181829, Note_on_c, 7, 68, 0
14, 181830, Note_on_c, 7, 68, 51
14, 181830, Note_on_c, 7, 58, 51
14, 181859, Note_on_c, 7, 58, 0
14, 181859, Note_on_c, 7, 68, 0
14, 181860, Note_on_c, 7, 68, 51
14, 181860, Note_on_c, 7, 58, 51
14, 181889, Note_on_c, 7, 58, 0
14, 181889, Note_on_c, 7, 68, 0
14, 181890, Note_on_c, 7, 68, 51
14, 181890, Note_on_c, 7, 58, 51
14, 181919, Note_on_c, 7, 58, 0
14, 181919, Note_on_c, 7, 68, 0
14, 181920, Note_on_c, 7, 68, 52
14, 181920, Note_on_c, 7, 58, 52
14, 181949, Note_on_c, 7, 58, 0
14, 181949, Note_on_c, 7, 68, 0
14, 181950, Note_on_c, 7, 68, 52
14, 181950, Note_on_c, 7, 58, 52
14, 181979, Note_on_c, 7, 58, 0
14, 181979, Note_on_c, 7, 68, 0
14, 181980, Note_on_c, 7, 68, 52
14, 181980, Note_on_c, 7, 58, 52
14, 182009, Note_on_c, 7, 58, 0
14, 182009, Note_on_c, 7, 68, 0
14, 182010, Note_on_c, 7, 68, 52
14, 182010, Note_on_c, 7, 58, 52
14, 182039, Note_on_c, 7, 58, 0
14, 182039, Note_on_c, 7, 68, 0
14, 182040, Note_on_c, 7, 68, 53
14, 182040, Note_on_c, 7, 58, 53
14, 182069, Note_on_c, 7, 58, 0
14, 182069, Note_on_c, 7, 68, 0
14, 182070, Note_on_c, 7, 68, 53
14, 182070, Note_on_c, 7, 58, 53
14, 182099, Note_on_c, 7, 58, 0
14, 182099, Note_on_c, 7, 68, 0
14, 182100, Note_on_c, 7, 68, 53
14, 182100, Note_on_c, 7, 58, 53
14, 182129, Note_on_c, 7, 58, 0
14, 182129, Note_on_c, 7, 68, 0
14, 182130, Note_on_c, 7, 68, 53
14, 182130, Note_on_c, 7, 58, 53
14, 182159, Note_on_c, 7, 58, 0
14, 182159, Note_on_c, 7, 68, 0
14, 182160, Note_on_c, 7, 68, 54
14, 182160, Note_on_c, 7, 58, 54
14, 182189, Note_on_c, 7, 58, 0
14, 182189, Note_on_c, 7, 68, 0
14, 182190, Note_on_c, 7, 68, 54
14, 182190, Note_on_c, 7, 58, 54
14, 182219, Note_on_c, 7, 58, 0
14, 182219, Note_on_c, 7, 68, 0
14, 182220, Note_on_c, 7, 68, 54
14, 182220, Note_on_c, 7, 58, 54
14, 182249, Note_on_c, 7, 58, 0
14, 182249, Note_on_c, 7, 68, 0
14, 182250, Note_on_c, 7, 68, 54
14, 182250, Note_on_c, 7, 58, 54
14, 182279, Note_on_c, 7, 58, 0
14, 182279, Note_on_c, 7, 68, 0
14, 182280, Note_on_c, 7, 68, 55
14, 182280, Note_on_c, 7, 58, 55
14, 182309, Note_on_c, 7, 58, 0
14, 182309, Note_on_c, 7, 68, 0
14, 182310, Note_on_c, 7, 68, 55
14, 182310, Note_on_c, 7, 58, 55
14, 182339, Note_on_c, 7, 58, 0
14, 182339, Note_on_c, 7, 68, 0
14, 182340, Note_on_c, 7, 68, 55
14, 182340, Note_on_c, 7, 58, 55
14, 182369, Note_on_c, 7, 58, 0
14, 182369, Note_on_c, 7, 68, 0
14, 182370, Note_on_c, 7, 68, 55
14, 182370, Note_on_c, 7, 58, 55
14, 182399, Note_on_c, 7, 58, 0
14, 182399, Note_on_c, 7, 68, 0
14, 182400, Note_on_c, 7, 68, 56
14, 182400, Note_on_c, 7, 58, 56
14, 182429, Note_on_c, 7, 58, 0
14, 182429, Note_on_c, 7, 68, 0
14, 182430, Note_on_c, 7, 68, 56
14, 182430, Note_on_c, 7, 58, 56
14, 182459, Note_on_c, 7, 58, 0
14, 182459, Note_on_c, 7, 68, 0
14, 182460, Note_on_c, 7, 68, 56
14, 182460, Note_on_c, 7, 58, 56
14, 182489, Note_on_c, 7, 58, 0
14, 182489, Note_on_c, 7, 68, 0
14, 182490, Note_on_c, 7, 68, 56
14, 182490, Note_on_c, 7, 58, 56
14, 182519, Note_on_c, 7, 58, 0
14, 182519, Note_on_c, 7, 68, 0
14, 182520, Note_on_c, 7, 77, 96
14, 182520, Note_on_c, 7, 68, 96
14, 182520, Note_on_c, 7, 58, 96
14, 182549, Note_on_c, 7, 58, 0
14, 182549, Note_on_c, 7, 68, 0
14, 182549, Note_on_c, 7, 77, 0
14, 182550, Note_on_c, 7, 77, 96
14, 182550, Note_on_c, 7, 68, 96
14, 182550, Note_on_c, 7, 58, 96
14, 182579, Note_on_c, 7, 58, 0
14, 182579, Note_on_c, 7, 68, 0
14, 182579, Note_on_c, 7, 77, 0
14, 182580, Note_on_c, 7, 77, 96
14, 182580, Note_on_c, 7, 68, 96
14, 182580, Note_on_c, 7, 58, 96
14, 182609, Note_on_c, 7, 58, 0
14, 182609, Note_on_c, 7, 68, 0
14, 182609, Note_on_c, 7, 77, 0
14, 182610, Note_on_c, 7, 77, 96
14, 182610, Note_on_c, 7, 68, 96
14, 182610, Note_on_c, 7, 58, 96
14, 182639, Note_on_c, 7, 58, 0
14, 182639, Note_on_c, 7, 68, 0
14, 182639, Note_on_c, 7, 77, 0
14, 182640, Note_on_c, 7, 80, 96
14, 182640, Note_on_c, 7, 68, 96
14, 182640, Note_on_c, 7, 58, 96
14, 182669, Note_on_c, 7, 58, 0
14, 182669, Note_on_c, 7, 68, 0
14, 182669, Note_on_c, 7, 80, 0
14, 182670, Note_on_c, 7, 80, 96
14, 182670, Note_on_c, 7, 68, 96
14, 182670, Note_on_c, 7, 58, 96
14, 182699, Note_on_c, 7, 58, 0
14, 182699, Note_on_c, 7, 68, 0
14, 182699, Note_on_c, 7, 80, 0
14, 182700, Note_on_c, 7, 80, 96
14, 182700, Note_on_c, 7, 68, 96
14, 182700, Note_on_c, 7, 58, 96
14, 182729, Note_on_c, 7, 58, 0
14, 182729, Note_on_c, 7, 68, 0
14, 182729, Note_on_c, 7, 80, 0
14, 182730, Note_on_c, 7, 80, 96
14, 182730, Note_on_c, 7, 68, 96
14, 182730, Note_on_c, 7, 58, 96
14, 182759, Note_on_c, 7, 58, 0
14, 182759, Note_on_c, 7, 68, 0
14, 182759, Note_on_c, 7, 80, 0
14, 182760, Note_on_c, 7, 82, 96
14, 182760, Note_on_c, 7, 68, 96
14, 182760, Note_on_c, 7, 58, 96
14, 182789, Note_on_c, 7, 58, 0
14, 182789, Note_on_c, 7, 68, 0
14, 182789, Note_on_c, 7, 82, 0
14, 182790, Note_on_c, 7, 82, 96
14, 182790, Note_on_c, 7, 68, 96
14, 182790, Note_on_c, 7, 58, 96
14, 182819, Note_on_c, 7, 58, 0
14, 182819, Note_on_c, 7, 68, 0
14, 182819, Note_on_c, 7, 82, 0
14, 182820, Note_on_c, 7, 82, 96
14, 182820, Note_on_c, 7, 68, 96
14, 182820, Note_on_c, 7, 58, 96
14, 182849, Note_on_c, 7, 58, 0
14, 182849, Note_on_c, 7, 68, 0
14, 182849, Note_on_c, 7, 82, 0
14, 182850, Note_on_c, 7, 82, 96
14, 182850, Note_on_c, 7, 68, 96
14, 182850, Note_on_c, 7, 58, 96
14, 182879, Note_on_c, 7, 58, 0
14, 182879, Note_on_c, 7, 68, 0
14, 182879, Note_on_c, 7, 82, 0
14, 182880, Note_on_c, 7, 70, 60
14, 182880, Note_on_c, 7, 66, 60
14, 182880, Note_on_c, 7, 63, 60
14, 182880, Note_on_c, 7, 58, 60
14, 182909, Note_on_c, 7, 58, 0
14, 182909, Note_on_c, 7, 70, 0
14, 182909, Note_on_c, 7, 66, 0
14, 182909, Note_on_c, 7, 63, 0
14, 182910, Note_on_c, 7, 70, 61
14, 182910, Note_on_c, 7, 66, 61
14, 182910, Note_on_c, 7, 63, 61
14, 182910, Note_on_c, 7, 58, 61
14, 182939, Note_on_c, 7, 58, 0
14, 182939, Note_on_c, 7, 70, 0
14, 182939, Note_on_c, 7, 66, 0
14, 182939, Note_on_c, 7, 63, 0
14, 182940, Note_on_c, 7, 70, 62
14, 182940, Note_on_c, 7, 66, 62
14, 182940, Note_on_c, 7, 63, 62
14, 182940, Note_on_c, 7, 58, 62
14, 182969, Note_on_c, 7, 58, 0
14, 182969, Note_on_c, 7, 70, 0
14, 182969, Note_on_c, 7, 66, 0
14, 182969, Note_on_c, 7, 63, 0
14, 182970, Note_on_c, 7, 70, 63
14, 182970, Note_on_c, 7, 66, 63
14, 182970, Note_on_c, 7, 63, 63
14, 182970, Note_on_c, 7, 58, 63
14, 182999, Note_on_c, 7, 58, 0
14, 182999, Note_on_c, 7, 70, 0
14, 182999, Note_on_c, 7, 66, 0
14, 182999, Note_on_c, 7, 63, 0
14, 183000, Note_on_c, 7, 70, 64
14, 183000, Note_on_c, 7, 66, 64
14, 183000, Note_on_c, 7, 63, 64
14, 183000, Note_on_c, 7, 58, 64
14, 183029, Note_on_c, 7, 58, 0
14, 183029, Note_on_c, 7, 70, 0
14, 183029, Note_on_c, 7, 66, 0
14, 183029, Note_on_c, 7, 63, 0
14, 183030, Note_on_c, 7, 70, 65
14, 183030, Note_on_c, 7, 66, 65
14, 183030, Note_on_c, 7, 63, 65
14, 183030, Note_on_c, 7, 58, 65
14, 183059, Note_on_c, 7, 58, 0
14, 183059, Note_on_c, 7, 70, 0
14, 183059, Note_on_c, 7, 66, 0
14, 183059, Note_on_c, 7, 63, 0
14, 183060, Note_on_c, 7, 70, 66
14, 183060, Note_on_c, 7, 66, 66
14, 183060, Note_on_c, 7, 63, 66
14, 183060, Note_on_c, 7, 58, 66
14, 183089, Note_on_c, 7, 58, 0
14, 183089, Note_on_c, 7, 70, 0
14, 183089, Note_on_c, 7, 66, 0
14, 183089, Note_on_c, 7, 63, 0
14, 183090, Note_on_c, 7, 70, 67
14, 183090, Note_on_c, 7, 66, 67
14, 183090, Note_on_c, 7, 63, 67
14, 183090, Note_on_c, 7, 58, 67
14, 183119, Note_on_c, 7, 58, 0
14, 183119, Note_on_c, 7, 70, 0
14, 183119, Note_on_c, 7, 66, 0
14, 183119, Note_on_c, 7, 63, 0
14, 183120, Note_on_c, 7, 70, 68
14, 183120, Note_on_c, 7, 66, 68
14, 183120, Note_on_c, 7, 63, 68
14, 183120, Note_on_c, 7, 58, 68
14, 183149, Note_on_c, 7, 58, 0
14, 183149, Note_on_c, 7, 70, 0
14, 183149, Note_on_c, 7, 66, 0
14, 183149, Note_on_c, 7, 63, 0
14, 183150, Note_on_c, 7, 70, 69
14, 183150, Note_on_c, 7, 66, 69
14, 183150, Note_on_c, 7, 63, 69
14, 183150, Note_on_c, 7, 58, 69
14, 183179, Note_on_c, 7, 58, 0
14, 183179, Note_on_c, 7, 70, 0
14, 183179, Note_on_c, 7, 66, 0
14, 183179, Note_on_c, 7, 63, 0
14, 183180, Note_on_c, 7, 70, 70
14, 183180, Note_on_c, 7, 66, 70
14, 183180, Note_on_c, 7, 63, 70
14, 183180, Note_on_c, 7, 58, 70
14, 183209, Note_on_c, 7, 58, 0
14, 183209, Note_on_c, 7, 70, 0
14, 183209, Note_on_c, 7, 66, 0
14, 183209, Note_on_c, 7, 63, 0
14, 183210, Note_on_c, 7, 70, 71
14, 183210, Note_on_c, 7, 66, 71
14, 183210, Note_on_c, 7, 63, 71
14, 183210, Note_on_c, 7, 58, 71
14, 183239, Note_on_c, 7, 58, 0
14, 183239, Note_on_c, 7, 70, 0
14, 183239, Note_on_c, 7, 66, 0
14, 183239, Note_on_c, 7, 63, 0
14, 183240, Note_on_c, 7, 70, 72
14, 183240, Note_on_c, 7, 66, 72
14, 183240, Note_on_c, 7, 63, 72
14, 183240, Note_on_c, 7, 58, 72
14, 183269, Note_on_c, 7, 58, 0
14, 183269, Note_on_c, 7, 70, 0
14, 183269, Note_on_c, 7, 66, 0
14, 183269, Note_on_c, 7, 63, 0
14, 183270, Note_on_c, 7, 70, 73
14, 183270, Note_on_c, 7, 66, 73
14, 183270, Note_on_c, 7, 63, 73
14, 183270, Note_on_c, 7, 58, 73
14, 183299, Note_on_c, 7, 58, 0
14, 183299, Note_on_c, 7, 70, 0
14, 183299, Note_on_c, 7, 66, 0
14, 183299, Note_on_c, 7, 63, 0
14, 183300, Note_on_c, 7, 70, 74
14, 183300, Note_on_c, 7, 66, 74
14, 183300, Note_on_c, 7, 63, 74
14, 183300, Note_on_c, 7, 58, 74
14, 183329, Note_on_c, 7, 58, 0
14, 183329, Note_on_c, 7, 70, 0
14, 183329, Note_on_c, 7, 66, 0
14, 183329, Note_on_c, 7, 63, 0
14, 183330, Note_on_c, 7, 70, 75
14, 183330, Note_on_c, 7, 66, 75
14, 183330, Note_on_c, 7, 63, 75
14, 183330, Note_on_c, 7, 58, 75
14, 183359, Note_on_c, 7, 58, 0
14, 183359, Note_on_c, 7, 70, 0
14, 183359, Note_on_c, 7, 66, 0
14, 183359, Note_on_c, 7, 63, 0
14, 183360, Note_on_c, 7, 70, 76
14, 183360, Note_on_c, 7, 66, 76
14, 183360, Note_on_c, 7, 63, 76
14, 183360, Note_on_c, 7, 58, 76
14, 183389, Note_on_c, 7, 58, 0
14, 183389, Note_on_c, 7, 70, 0
14, 183389, Note_on_c, 7, 66, 0
14, 183389, Note_on_c, 7, 63, 0
14, 183390, Note_on_c, 7, 70, 77
14, 183390, Note_on_c, 7, 66, 77
14, 183390, Note_on_c, 7, 63, 77
14, 183390, Note_on_c, 7, 58, 77
14, 183419, Note_on_c, 7, 58, 0
14, 183419, Note_on_c, 7, 70, 0
14, 183419, Note_on_c, 7, 66, 0
14, 183419, Note_on_c, 7, 63, 0
14, 183420, Note_on_c, 7, 70, 78
14, 183420, Note_on_c, 7, 66, 78
14, 183420, Note_on_c, 7, 63, 78
14, 183420, Note_on_c, 7, 58, 78
14, 183449, Note_on_c, 7, 58, 0
14, 183449, Note_on_c, 7, 70, 0
14, 183449, Note_on_c, 7, 66, 0
14, 183449, Note_on_c, 7, 63, 0
14, 183450, Note_on_c, 7, 70, 79
14, 183450, Note_on_c, 7, 66, 79
14, 183450, Note_on_c, 7, 63, 79
14, 183450, Note_on_c, 7, 58, 79
14, 183479, Note_on_c, 7, 58, 0
14, 183479, Note_on_c, 7, 70, 0
14, 183479, Note_on_c, 7, 66, 0
14, 183479, Note_on_c, 7, 63, 0
14, 183480, Note_on_c, 7, 70, 80
14, 183480, Note_on_c, 7, 66, 80
14, 183480, Note_on_c, 7, 63, 80
14, 183480, Note_on_c, 7, 58, 80
14, 183509, Note_on_c, 7, 58, 0
14, 183509, Note_on_c, 7, 70, 0
14, 183509, Note_on_c, 7, 66, 0
14, 183509, Note_on_c, 7, 63, 0
14, 183510, Note_on_c, 7, 70, 81
14, 183510, Note_on_c, 7, 66, 81
14, 183510, Note_on_c, 7, 63, 81
14, 183510, Note_on_c, 7, 58, 81
14, 183539, Note_on_c, 7, 58, 0
14, 183539, Note_on_c, 7, 70, 0
14, 183539, Note_on_c, 7, 66, 0
14, 183539, Note_on_c, 7, 63, 0
14, 183540, Note_on_c, 7, 70, 82
14, 183540, Note_on_c, 7, 66, 82
14, 183540, Note_on_c, 7, 63, 82
14, 183540, Note_on_c, 7, 58, 82
14, 183569, Note_on_c, 7, 58, 0
14, 183569, Note_on_c, 7, 70, 0
14, 183569, Note_on_c, 7, 66, 0
14, 183569, Note_on_c, 7, 63, 0
14, 183570, Note_on_c, 7, 70, 83
14, 183570, Note_on_c, 7, 66, 83
14, 183570, Note_on_c, 7, 63, 83
14, 183570, Note_on_c, 7, 58, 83
14, 183599, Note_on_c, 7, 58, 0
14, 183599, Note_on_c, 7, 70, 0
14, 183599, Note_on_c, 7, 66, 0
14, 183599, Note_on_c, 7, 63, 0
14, 183600, Note_on_c, 7, 70, 84
14, 183600, Note_on_c, 7, 66, 84
14, 183600, Note_on_c, 7, 63, 84
14, 183600, Note_on_c, 7, 58, 84
14, 183629, Note_on_c, 7, 58, 0
14, 183629, Note_on_c, 7, 70, 0
14, 183629, Note_on_c, 7, 66, 0
14, 183629, Note_on_c, 7, 63, 0
14, 183630, Note_on_c, 7, 70, 85
14, 183630, Note_on_c, 7, 66, 85
14, 183630, Note_on_c, 7, 63, 85
14, 183630, Note_on_c, 7, 58, 85
14, 183659, Note_on_c, 7, 58, 0
14, 183659, Note_on_c, 7, 70, 0
14, 183659, Note_on_c, 7, 66, 0
14, 183659, Note_on_c, 7, 63, 0
14, 183660, Note_on_c, 7, 70, 86
14, 183660, Note_on_c, 7, 66, 86
14, 183660, Note_on_c, 7, 63, 86
14, 183660, Note_on_c, 7, 58, 86
14, 183689, Note_on_c, 7, 58, 0
14, 183689, Note_on_c, 7, 70, 0
14, 183689, Note_on_c, 7, 66, 0
14, 183689, Note_on_c, 7, 63, 0
14, 183690, Note_on_c, 7, 70, 87
14, 183690, Note_on_c, 7, 66, 87
14, 183690, Note_on_c, 7, 63, 87
14, 183690, Note_on_c, 7, 58, 87
14, 183719, Note_on_c, 7, 58, 0
14, 183719, Note_on_c, 7, 70, 0
14, 183719, Note_on_c, 7, 66, 0
14, 183719, Note_on_c, 7, 63, 0
14, 183720, Note_on_c, 7, 70, 88
14, 183720, Note_on_c, 7, 66, 88
14, 183720, Note_on_c, 7, 63, 88
14, 183720, Note_on_c, 7, 58, 88
14, 183749, Note_on_c, 7, 58, 0
14, 183749, Note_on_c, 7, 70, 0
14, 183749, Note_on_c, 7, 66, 0
14, 183749, Note_on_c, 7, 63, 0
14, 183750, Note_on_c, 7, 70, 89
14, 183750, Note_on_c, 7, 66, 89
14, 183750, Note_on_c, 7, 63, 89
14, 183750, Note_on_c, 7, 58, 89
14, 183779, Note_on_c, 7, 58, 0
14, 183779, Note_on_c, 7, 70, 0
14, 183779, Note_on_c, 7, 66, 0
14, 183779, Note_on_c, 7, 63, 0
14, 183780, Note_on_c, 7, 70, 90
14, 183780, Note_on_c, 7, 66, 90
14, 183780, Note_on_c, 7, 63, 90
14, 183780, Note_on_c, 7, 58, 90
14, 183809, Note_on_c, 7, 58, 0
14, 183809, Note_on_c, 7, 70, 0
14, 183809, Note_on_c, 7, 66, 0
14, 183809, Note_on_c, 7, 63, 0
14, 183810, Note_on_c, 7, 70, 91
14, 183810, Note_on_c, 7, 66, 91
14, 183810, Note_on_c, 7, 63, 91
14, 183810, Note_on_c, 7, 58, 91
14, 183839, Note_on_c, 7, 58, 0
14, 183839, Note_on_c, 7, 70, 0
14, 183839, Note_on_c, 7, 66, 0
14, 183839, Note_on_c, 7, 63, 0
14, 183840, Note_on_c, 7, 70, 92
14, 183840, Note_on_c, 7, 66, 92
14, 183840, Note_on_c, 7, 63, 92
14, 183840, Note_on_c, 7, 58, 92
14, 183869, Note_on_c, 7, 58, 0
14, 183869, Note_on_c, 7, 70, 0
14, 183869, Note_on_c, 7, 66, 0
14, 183869, Note_on_c, 7, 63, 0
14, 183870, Note_on_c, 7, 70, 93
14, 183870, Note_on_c, 7, 66, 93
14, 183870, Note_on_c, 7, 63, 93
14, 183870, Note_on_c, 7, 58, 93
14, 183899, Note_on_c, 7, 58, 0
14, 183899, Note_on_c, 7, 70, 0
14, 183899, Note_on_c, 7, 66, 0
14, 183899, Note_on_c, 7, 63, 0
14, 183900, Note_on_c, 7, 70, 94
14, 183900, Note_on_c, 7, 66, 94
14, 183900, Note_on_c, 7, 63, 94
14, 183900, Note_on_c, 7, 58, 94
14, 183929, Note_on_c, 7, 58, 0
14, 183929, Note_on_c, 7, 70, 0
14, 183929, Note_on_c, 7, 66, 0
14, 183929, Note_on_c, 7, 63, 0
14, 183930, Note_on_c, 7, 70, 95
14, 183930, Note_on_c, 7, 66, 95
14, 183930, Note_on_c, 7, 63, 95
14, 183930, Note_on_c, 7, 58, 95
14, 183959, Note_on_c, 7, 58, 0
14, 183959, Note_on_c, 7, 70, 0
14, 183959, Note_on_c, 7, 66, 0
14, 183959, Note_on_c, 7, 63, 0
14, 183960, Note_on_c, 7, 75, 96
14, 183960, Note_on_c, 7, 66, 96
14, 183960, Note_on_c, 7, 58, 96
14, 183989, Note_on_c, 7, 58, 0
14, 183989, Note_on_c, 7, 66, 0
14, 183989, Note_on_c, 7, 75, 0
14, 183990, Note_on_c, 7, 75, 96
14, 183990, Note_on_c, 7, 66, 96
14, 183990, Note_on_c, 7, 58, 96
14, 184019, Note_on_c, 7, 58, 0
14, 184019, Note_on_c, 7, 66, 0
14, 184019, Note_on_c, 7, 75, 0
14, 184020, Note_on_c, 7, 75, 96
14, 184020, Note_on_c, 7, 66, 96
14, 184020, Note_on_c, 7, 58, 96
14, 184049, Note_on_c, 7, 58, 0
14, 184049, Note_on_c, 7, 66, 0
14, 184049, Note_on_c, 7, 75, 0
14, 184050, Note_on_c, 7, 75, 96
14, 184050, Note_on_c, 7, 66, 96
14, 184050, Note_on_c, 7, 58, 96
14, 184079, Note_on_c, 7, 58, 0
14, 184079, Note_on_c, 7, 66, 0
14, 184079, Note_on_c, 7, 75, 0
14, 184080, Note_on_c, 7, 78, 96
14, 184080, Note_on_c, 7, 66, 96
14, 184080, Note_on_c, 7, 58, 96
14, 184109, Note_on_c, 7, 58, 0
14, 184109, Note_on_c, 7, 66, 0
14, 184109, Note_on_c, 7, 78, 0
14, 184110, Note_on_c, 7, 78, 96
14, 184110, Note_on_c, 7, 66, 96
14, 184110, Note_on_c, 7, 58, 96
14, 184139, Note_on_c, 7, 58, 0
14, 184139, Note_on_c, 7, 66, 0
14, 184139, Note_on_c, 7, 78, 0
14, 184140, Note_on_c, 7, 78, 96
14, 184140, Note_on_c, 7, 66, 96
14, 184140, Note_on_c, 7, 58, 96
14, 184169, Note_on_c, 7, 58, 0
14, 184169, Note_on_c, 7, 66, 0
14, 184169, Note_on_c, 7, 78, 0
14, 184170, Note_on_c, 7, 78, 96
14, 184170, Note_on_c, 7, 66, 96
14, 184170, Note_on_c, 7, 58, 96
14, 184199, Note_on_c, 7, 58, 0
14, 184199, Note_on_c, 7, 66, 0
14, 184199, Note_on_c, 7, 78, 0
14, 184200, Note_on_c, 7, 82, 96
14, 184200, Note_on_c, 7, 66, 96
14, 184200, Note_on_c, 7, 58, 96
14, 184229, Note_on_c, 7, 58, 0
14, 184229, Note_on_c, 7, 66, 0
14, 184229, Note_on_c, 7, 82, 0
14, 184230, Note_on_c, 7, 82, 96
14, 184230, Note_on_c, 7, 66, 96
14, 184230, Note_on_c, 7, 58, 96
14, 184259, Note_on_c, 7, 58, 0
14, 184259, Note_on_c, 7, 66, 0
14, 184259, Note_on_c, 7, 82, 0
14, 184260, Note_on_c, 7, 82, 96
14, 184260, Note_on_c, 7, 66, 96
14, 184260, Note_on_c, 7, 58, 96
14, 184289, Note_on_c, 7, 58, 0
14, 184289, Note_on_c, 7, 66, 0
14, 184289, Note_on_c, 7, 82, 0
14, 184290, Note_on_c, 7, 82, 96
14, 184290, Note_on_c, 7, 66, 96
14, 184290, Note_on_c, 7, 58, 96
14, 184319, Note_on_c, 7, 58, 0
14, 184319, Note_on_c, 7, 66, 0
14, 184319, Note_on_c, 7, 82, 0
14, 184320, Note_on_c, 7, 71, 127
14, 184320, Note_on_c, 7, 83, 127
14, 184320, Note_on_c, 7, 63, 127
14, 184349, Note_on_c, 7, 63, 0
14, 184349, Note_on_c, 7, 83, 0
14, 184349, Note_on_c, 7, 71, 0
14, 184350, Note_on_c, 7, 83, 127
14, 184350, Note_on_c, 7, 71, 127
14, 184350, Note_on_c, 7, 63, 127
14, 184379, Note_on_c, 7, 63, 0
14, 184379, Note_on_c, 7, 71, 0
14, 184379, Note_on_c, 7, 83, 0
14, 184380, Note_on_c, 7, 83, 127
14, 184380, Note_on_c, 7, 71, 127
14, 184380, Note_on_c, 7, 63, 127
14, 184409, Note_on_c, 7, 63, 0
14, 184409, Note_on_c, 7, 71, 0
14, 184409, Note_on_c, 7, 83, 0
14, 184410, Note_on_c, 7, 83, 127
14, 184410, Note_on_c, 7, 71, 127
14, 184410, Note_on_c, 7, 63, 127
14, 184439, Note_on_c, 7, 63, 0
14, 184439, Note_on_c, 7, 71, 0
14, 184439, Note_on_c, 7, 83, 0
14, 184440, Note_on_c, 7, 83, 127
14, 184440, Note_on_c, 7, 71, 127
14, 184440, Note_on_c, 7, 66, 127
14, 184469, Note_on_c, 7, 66, 0
14, 184469, Note_on_c, 7, 71, 0
14, 184469, Note_on_c, 7, 83, 0
14, 184470, Note_on_c, 7, 83, 127
14, 184470, Note_on_c, 7, 71, 127
14, 184470, Note_on_c, 7, 66, 127
14, 184499, Note_on_c, 7, 66, 0
14, 184499, Note_on_c, 7, 71, 0
14, 184499, Note_on_c, 7, 83, 0
14, 184500, Note_on_c, 7, 83, 127
14, 184500, Note_on_c, 7, 71, 127
14, 184500, Note_on_c, 7, 66, 127
14, 184529, Note_on_c, 7, 66, 0
14, 184529, Note_on_c, 7, 71, 0
14, 184529, Note_on_c, 7, 83, 0
14, 184530, Note_on_c, 7, 83, 127
14, 184530, Note_on_c, 7, 71, 127
14, 184530, Note_on_c, 7, 66, 127
14, 184559, Note_on_c, 7, 66, 0
14, 184559, Note_on_c, 7, 71, 0
14, 184559, Note_on_c, 7, 83, 0
14, 184560, Note_on_c, 7, 83, 127
14, 184560, Note_on_c, 7, 71, 127
14, 184560, Note_on_c, 7, 63, 127
14, 184589, Note_on_c, 7, 63, 0
14, 184589, Note_on_c, 7, 71, 0
14, 184589, Note_on_c, 7, 83, 0
14, 184590, Note_on_c, 7, 83, 127
14, 184590, Note_on_c, 7, 71, 127
14, 184590, Note_on_c, 7, 63, 127
14, 184619, Note_on_c, 7, 63, 0
14, 184619, Note_on_c, 7, 71, 0
14, 184619, Note_on_c, 7, 83, 0
14, 184620, Note_on_c, 7, 83, 127
14, 184620, Note_on_c, 7, 71, 127
14, 184620, Note_on_c, 7, 63, 127
14, 184649, Note_on_c, 7, 63, 0
14, 184649, Note_on_c, 7, 71, 0
14, 184649, Note_on_c, 7, 83, 0
14, 184650, Note_on_c, 7, 83, 127
14, 184650, Note_on_c, 7, 71, 127
14, 184650, Note_on_c, 7, 63, 127
14, 184679, Note_on_c, 7, 63, 0
14, 184679, Note_on_c, 7, 71, 0
14, 184679, Note_on_c, 7, 83, 0
14, 184680, Note_on_c, 7, 83, 127
14, 184680, Note_on_c, 7, 71, 127
14, 184709, Note_on_c, 7, 71, 0
14, 184709, Note_on_c, 7, 83, 0
14, 184710, Note_on_c, 7, 83, 127
14, 184710, Note_on_c, 7, 71, 127
14, 184739, Note_on_c, 7, 71, 0
14, 184739, Note_on_c, 7, 83, 0
14, 184740, Note_on_c, 7, 83, 127
14, 184740, Note_on_c, 7, 71, 127
14, 184769, Note_on_c, 7, 71, 0
14, 184769, Note_on_c, 7, 83, 0
14, 184770, Note_on_c, 7, 83, 127
14, 184770, Note_on_c, 7, 71, 127
14, 184799, Note_on_c, 7, 71, 0
14, 184799, Note_on_c, 7, 83, 0
14, 184800, Note_on_c, 7, 83, 127
14, 184800, Note_on_c, 7, 71, 127
14, 184800, Note_on_c, 7, 63, 127
14, 184829, Note_on_c, 7, 63, 0
14, 184829, Note_on_c, 7, 71, 0
14, 184829, Note_on_c, 7, 83, 0
14, 184830, Note_on_c, 7, 83, 127
14, 184830, Note_on_c, 7, 71, 127
14, 184830, Note_on_c, 7, 63, 127
14, 184859, Note_on_c, 7, 63, 0
14, 184859, Note_on_c, 7, 71, 0
14, 184859, Note_on_c, 7, 83, 0
14, 184860, Note_on_c, 7, 83, 127
14, 184860, Note_on_c, 7, 71, 127
14, 184860, Note_on_c, 7, 63, 127
14, 184889, Note_on_c, 7, 63, 0
14, 184889, Note_on_c, 7, 71, 0
14, 184889, Note_on_c, 7, 83, 0
14, 184890, Note_on_c, 7, 83, 127
14, 184890, Note_on_c, 7, 71, 127
14, 184890, Note_on_c, 7, 63, 127
14, 184919, Note_on_c, 7, 63, 0
14, 184919, Note_on_c, 7, 71, 0
14, 184919, Note_on_c, 7, 83, 0
14, 184920, Note_on_c, 7, 83, 127
14, 184920, Note_on_c, 7, 71, 127
14, 184920, Note_on_c, 7, 75, 127
14, 184949, Note_on_c, 7, 75, 0
14, 184949, Note_on_c, 7, 71, 0
14, 184949, Note_on_c, 7, 83, 0
14, 184950, Note_on_c, 7, 83, 127
14, 184950, Note_on_c, 7, 71, 127
14, 184950, Note_on_c, 7, 75, 127
14, 184979, Note_on_c, 7, 75, 0
14, 184979, Note_on_c, 7, 71, 0
14, 184979, Note_on_c, 7, 83, 0
14, 184980, Note_on_c, 7, 83, 127
14, 184980, Note_on_c, 7, 71, 127
14, 184980, Note_on_c, 7, 75, 127
14, 185009, Note_on_c, 7, 75, 0
14, 185009, Note_on_c, 7, 71, 0
14, 185009, Note_on_c, 7, 83, 0
14, 185010, Note_on_c, 7, 83, 127
14, 185010, Note_on_c, 7, 71, 127
14, 185010, Note_on_c, 7, 75, 127
14, 185039, Note_on_c, 7, 75, 0
14, 185039, Note_on_c, 7, 71, 0
14, 185039, Note_on_c, 7, 83, 0
14, 185040, Note_on_c, 7, 83, 127
14, 185040, Note_on_c, 7, 71, 127
14, 185040, Note_on_c, 7, 63, 127
14, 185069, Note_on_c, 7, 63, 0
14, 185069, Note_on_c, 7, 71, 0
14, 185069, Note_on_c, 7, 83, 0
14, 185070, Note_on_c, 7, 83, 127
14, 185070, Note_on_c, 7, 71, 127
14, 185070, Note_on_c, 7, 63, 127
14, 185099, Note_on_c, 7, 63, 0
14, 185099, Note_on_c, 7, 71, 0
14, 185099, Note_on_c, 7, 83, 0
14, 185100, Note_on_c, 7, 83, 127
14, 185100, Note_on_c, 7, 71, 127
14, 185100, Note_on_c, 7, 63, 127
14, 185129, Note_on_c, 7, 63, 0
14, 185129, Note_on_c, 7, 71, 0
14, 185129, Note_on_c, 7, 83, 0
14, 185130, Note_on_c, 7, 83, 127
14, 185130, Note_on_c, 7, 71, 127
14, 185130, Note_on_c, 7, 63, 127
14, 185159, Note_on_c, 7, 63, 0
14, 185159, Note_on_c, 7, 71, 0
14, 185159, Note_on_c, 7, 83, 0
14, 185160, Note_on_c, 7, 83, 127
14, 185160, Note_on_c, 7, 71, 127
14, 185160, Note_on_c, 7, 78, 127
14, 185160, Note_on_c, 7, 75, 127
14, 185189, Note_on_c, 7, 75, 0
14, 185189, Note_on_c, 7, 83, 0
14, 185189, Note_on_c, 7, 71, 0
14, 185189, Note_on_c, 7, 78, 0
14, 185190, Note_on_c, 7, 83, 127
14, 185190, Note_on_c, 7, 71, 127
14, 185190, Note_on_c, 7, 78, 127
14, 185190, Note_on_c, 7, 75, 127
14, 185219, Note_on_c, 7, 75, 0
14, 185219, Note_on_c, 7, 83, 0
14, 185219, Note_on_c, 7, 71, 0
14, 185219, Note_on_c, 7, 78, 0
14, 185220, Note_on_c, 7, 83, 127
14, 185220, Note_on_c, 7, 71, 127
14, 185220, Note_on_c, 7, 78, 127
14, 185220, Note_on_c, 7, 75, 127
14, 185249, Note_on_c, 7, 75, 0
14, 185249, Note_on_c, 7, 83, 0
14, 185249, Note_on_c, 7, 71, 0
14, 185249, Note_on_c, 7, 78, 0
14, 185250, Note_on_c, 7, 83, 127
14, 185250, Note_on_c, 7, 71, 127
14, 185250, Note_on_c, 7, 78, 127
14, 185250, Note_on_c, 7, 75, 127
14, 185279, Note_on_c, 7, 75, 0
14, 185279, Note_on_c, 7, 83, 0
14, 185279, Note_on_c, 7, 71, 0
14, 185279, Note_on_c, 7, 78, 0
14, 185280, Note_on_c, 7, 83, 127
14, 185280, Note_on_c, 7, 71, 127
14, 185280, Note_on_c, 7, 78, 127
14, 185280, Note_on_c, 7, 75, 127
14, 185309, Note_on_c, 7, 75, 0
14, 185309, Note_on_c, 7, 83, 0
14, 185309, Note_on_c, 7, 71, 0
14, 185309, Note_on_c, 7, 78, 0
14, 185310, Note_on_c, 7, 83, 127
14, 185310, Note_on_c, 7, 71, 127
14, 185310, Note_on_c, 7, 78, 127
14, 185310, Note_on_c, 7, 75, 127
14, 185339, Note_on_c, 7, 75, 0
14, 185339, Note_on_c, 7, 83, 0
14, 185339, Note_on_c, 7, 71, 0
14, 185339, Note_on_c, 7, 78, 0
14, 185340, Note_on_c, 7, 83, 127
14, 185340, Note_on_c, 7, 71, 127
14, 185340, Note_on_c, 7, 78, 127
14, 185340, Note_on_c, 7, 75, 127
14, 185369, Note_on_c, 7, 75, 0
14, 185369, Note_on_c, 7, 83, 0
14, 185369, Note_on_c, 7, 71, 0
14, 185369, Note_on_c, 7, 78, 0
14, 185370, Note_on_c, 7, 83, 127
14, 185370, Note_on_c, 7, 71, 127
14, 185370, Note_on_c, 7, 78, 127
14, 185370, Note_on_c, 7, 75, 127
14, 185399, Note_on_c, 7, 75, 0
14, 185399, Note_on_c, 7, 83, 0
14, 185399, Note_on_c, 7, 71, 0
14, 185399, Note_on_c, 7, 78, 0
14, 185400, Note_on_c, 7, 83, 127
14, 185400, Note_on_c, 7, 71, 127
14, 185400, Note_on_c, 7, 78, 127
14, 185400, Note_on_c, 7, 75, 127
14, 185429, Note_on_c, 7, 75, 0
14, 185429, Note_on_c, 7, 83, 0
14, 185429, Note_on_c, 7, 71, 0
14, 185429, Note_on_c, 7, 78, 0
14, 185430, Note_on_c, 7, 83, 127
14, 185430, Note_on_c, 7, 71, 127
14, 185430, Note_on_c, 7, 78, 127
14, 185430, Note_on_c, 7, 75, 127
14, 185459, Note_on_c, 7, 75, 0
14, 185459, Note_on_c, 7, 83, 0
14, 185459, Note_on_c, 7, 71, 0
14, 185459, Note_on_c, 7, 78, 0
14, 185460, Note_on_c, 7, 83, 127
14, 185460, Note_on_c, 7, 71, 127
14, 185460, Note_on_c, 7, 78, 127
14, 185460, Note_on_c, 7, 75, 127
14, 185489, Note_on_c, 7, 75, 0
14, 185489, Note_on_c, 7, 83, 0
14, 185489, Note_on_c, 7, 71, 0
14, 185489, Note_on_c, 7, 78, 0
14, 185490, Note_on_c, 7, 83, 127
14, 185490, Note_on_c, 7, 71, 127
14, 185490, Note_on_c, 7, 78, 127
14, 185490, Note_on_c, 7, 75, 127
14, 185519, Note_on_c, 7, 75, 0
14, 185519, Note_on_c, 7, 83, 0
14, 185519, Note_on_c, 7, 71, 0
14, 185519, Note_on_c, 7, 78, 0
14, 185520, Note_on_c, 7, 83, 127
14, 185520, Note_on_c, 7, 71, 127
14, 185520, Note_on_c, 7, 78, 127
14, 185520, Note_on_c, 7, 75, 127
14, 185549, Note_on_c, 7, 75, 0
14, 185549, Note_on_c, 7, 83, 0
14, 185549, Note_on_c, 7, 71, 0
14, 185549, Note_on_c, 7, 78, 0
14, 185550, Note_on_c, 7, 83, 127
14, 185550, Note_on_c, 7, 71, 127
14, 185550, Note_on_c, 7, 78, 127
14, 185550, Note_on_c, 7, 75, 127
14, 185579, Note_on_c, 7, 75, 0
14, 185579, Note_on_c, 7, 83, 0
14, 185579, Note_on_c, 7, 71, 0
14, 185579, Note_on_c, 7, 78, 0
14, 185580, Note_on_c, 7, 83, 127
14, 185580, Note_on_c, 7, 71, 127
14, 185580, Note_on_c, 7, 78, 127
14, 185580, Note_on_c, 7, 75, 127
14, 185609, Note_on_c, 7, 75, 0
14, 185609, Note_on_c, 7, 83, 0
14, 185609, Note_on_c, 7, 71, 0
14, 185609, Note_on_c, 7, 78, 0
14, 185610, Note_on_c, 7, 83, 127
14, 185610, Note_on_c, 7, 71, 127
14, 185610, Note_on_c, 7, 78, 127
14, 185610, Note_on_c, 7, 75, 127
14, 185639, Note_on_c, 7, 75, 0
14, 185639, Note_on_c, 7, 83, 0
14, 185639, Note_on_c, 7, 71, 0
14, 185639, Note_on_c, 7, 78, 0
14, 185640, Note_on_c, 7, 83, 127
14, 185640, Note_on_c, 7, 71, 127
14, 185640, Note_on_c, 7, 78, 127
14, 185640, Note_on_c, 7, 75, 127
14, 185669, Note_on_c, 7, 75, 0
14, 185669, Note_on_c, 7, 83, 0
14, 185669, Note_on_c, 7, 71, 0
14, 185669, Note_on_c, 7, 78, 0
14, 185670, Note_on_c, 7, 83, 127
14, 185670, Note_on_c, 7, 71, 127
14, 185670, Note_on_c, 7, 78, 127
14, 185670, Note_on_c, 7, 75, 127
14, 185699, Note_on_c, 7, 75, 0
14, 185699, Note_on_c, 7, 83, 0
14, 185699, Note_on_c, 7, 71, 0
14, 185699, Note_on_c, 7, 78, 0
14, 185700, Note_on_c, 7, 83, 127
14, 185700, Note_on_c, 7, 71, 127
14, 185700, Note_on_c, 7, 78, 127
14, 185700, Note_on_c, 7, 75, 127
14, 185729, Note_on_c, 7, 75, 0
14, 185729, Note_on_c, 7, 83, 0
14, 185729, Note_on_c, 7, 71, 0
14, 185729, Note_on_c, 7, 78, 0
14, 185730, Note_on_c, 7, 83, 127
14, 185730, Note_on_c, 7, 71, 127
14, 185730, Note_on_c, 7, 78, 127
14, 185730, Note_on_c, 7, 75, 127
14, 185759, Note_on_c, 7, 75, 0
14, 185759, Note_on_c, 7, 83, 0
14, 185759, Note_on_c, 7, 71, 0
14, 185759, Note_on_c, 7, 78, 0
14, 185760, Note_on_c, 7, 83, 127
14, 185760, Note_on_c, 7, 71, 127
14, 185760, Note_on_c, 7, 78, 127
14, 185760, Note_on_c, 7, 75, 127
14, 185879, Note_on_c, 7, 75, 0
14, 185879, Note_on_c, 7, 83, 0
14, 185879, Note_on_c, 7, 71, 0
14, 185879, Note_on_c, 7, 78, 0
14, 186840, Note_on_c, 7, 59, 96
14, 186960, Note_on_c, 7, 63, 96
14, 186969, Note_on_c, 7, 59, 0
14, 187080, Note_on_c, 7, 66, 96
14, 187089, Note_on_c, 7, 63, 0
14, 187199, Note_on_c, 7, 66, 0
14, 188280, Note_on_c, 7, 60, 48
14, 188400, Note_on_c, 7, 63, 48
14, 188409, Note_on_c, 7, 60, 0
14, 188520, Note_on_c, 7, 69, 48
14, 188529, Note_on_c, 7, 63, 0
14, 188639, Note_on_c, 7, 69, 0
14, 188820, Note_on_c, 7, 62, 46
14, 188880, Note_on_c, 7, 65, 45
14, 188889, Note_on_c, 7, 62, 0
14, 188940, Note_on_c, 7, 70, 45
14, 188949, Note_on_c, 7, 65, 0
14, 188999, Note_on_c, 7, 70, 0
14, 189180, Note_on_c, 7, 62, 42
14, 189240, Note_on_c, 7, 65, 41
14, 189249, Note_on_c, 7, 62, 0
14, 189300, Note_on_c, 7, 70, 41
14, 189309, Note_on_c, 7, 65, 0
14, 189359, Note_on_c, 7, 70, 0
14, 189540, Note_on_c, 7, 63, 38
14, 189600, Note_on_c, 7, 66, 37
14, 189609, Note_on_c, 7, 63, 0
14, 189660, Note_on_c, 7, 70, 37
14, 189669, Note_on_c, 7, 66, 0
14, 189719, Note_on_c, 7, 70, 0
14, 189900, Note_on_c, 7, 63, 34
14, 189960, Note_on_c, 7, 66, 33
14, 189969, Note_on_c, 7, 63, 0
14, 190020, Note_on_c, 7, 70, 33
14, 190029, Note_on_c, 7, 66, 0
14, 190079, Note_on_c, 7, 70, 0
14, 191520, Note_on_c, 7, 71, 32
14, 191520, Note_on_c, 7, 68, 32
14, 191549, Note_on_c, 7, 68, 0
14, 191549, Note_on_c, 7, 71, 0
14, 191550, Note_on_c, 7, 71, 32
14, 191550, Note_on_c, 7, 68, 32
14, 191579, Note_on_c, 7, 68, 0
14, 191579, Note_on_c, 7, 71, 0
14, 191580, Note_on_c, 7, 71, 32
14, 191580, Note_on_c, 7, 68, 32
14, 191609, Note_on_c, 7, 68, 0
14, 191609, Note_on_c, 7, 71, 0
14, 191610, Note_on_c, 7, 71, 32
14, 191610, Note_on_c, 7, 68, 32
14, 191639, Note_on_c, 7, 68, 0
14, 191639, Note_on_c, 7, 71, 0
14, 191640, Note_on_c, 7, 71, 32
14, 191640, Note_on_c, 7, 68, 32
14, 191669, Note_on_c, 7, 68, 0
14, 191669, Note_on_c, 7, 71, 0
14, 191670, Note_on_c, 7, 71, 32
14, 191670, Note_on_c, 7, 68, 32
14, 191699, Note_on_c, 7, 68, 0
14, 191699, Note_on_c, 7, 71, 0
14, 191700, Note_on_c, 7, 71, 32
14, 191700, Note_on_c, 7, 68, 32
14, 191729, Note_on_c, 7, 68, 0
14, 191729, Note_on_c, 7, 71, 0
14, 191730, Note_on_c, 7, 71, 32
14, 191730, Note_on_c, 7, 68, 32
14, 191759, Note_on_c, 7, 68, 0
14, 191759, Note_on_c, 7, 71, 0
14, 191760, Note_on_c, 7, 71, 32
14, 191760, Note_on_c, 7, 68, 32
14, 191789, Note_on_c, 7, 68, 0
14, 191789, Note_on_c, 7, 71, 0
14, 191790, Note_on_c, 7, 71, 32
14, 191790, Note_on_c, 7, 68, 32
14, 191819, Note_on_c, 7, 68, 0
14, 191819, Note_on_c, 7, 71, 0
14, 191820, Note_on_c, 7, 71, 32
14, 191820, Note_on_c, 7, 68, 32
14, 191849, Note_on_c, 7, 68, 0
14, 191849, Note_on_c, 7, 71, 0
14, 191850, Note_on_c, 7, 71, 32
14, 191850, Note_on_c, 7, 68, 32
14, 191879, Note_on_c, 7, 68, 0
14, 191879, Note_on_c, 7, 71, 0
14, 191880, Note_on_c, 7, 71, 32
14, 191880, Note_on_c, 7, 68, 32
14, 191909, Note_on_c, 7, 68, 0
14, 191909, Note_on_c, 7, 71, 0
14, 191910, Note_on_c, 7, 71, 32
14, 191910, Note_on_c, 7, 68, 32
14, 191939, Note_on_c, 7, 68, 0
14, 191939, Note_on_c, 7, 71, 0
14, 191940, Note_on_c, 7, 71, 32
14, 191940, Note_on_c, 7, 68, 32
14, 191969, Note_on_c, 7, 68, 0
14, 191969, Note_on_c, 7, 71, 0
14, 191970, Note_on_c, 7, 71, 32
14, 191970, Note_on_c, 7, 68, 32
14, 191999, Note_on_c, 7, 68, 0
14, 191999, Note_on_c, 7, 71, 0
14, 192000, Note_on_c, 7, 71, 32
14, 192000, Note_on_c, 7, 68, 32
14, 192029, Note_on_c, 7, 68, 0
14, 192029, Note_on_c, 7, 71, 0
14, 192030, Note_on_c, 7, 71, 32
14, 192030, Note_on_c, 7, 68, 32
14, 192059, Note_on_c, 7, 68, 0
14, 192059, Note_on_c, 7, 71, 0
14, 192060, Note_on_c, 7, 71, 32
14, 192060, Note_on_c, 7, 68, 32
14, 192089, Note_on_c, 7, 68, 0
14, 192089, Note_on_c, 7, 71, 0
14, 192090, Note_on_c, 7, 71, 32
14, 192090, Note_on_c, 7, 68, 32
14, 192119, Note_on_c, 7, 68, 0
14, 192119, Note_on_c, 7, 71, 0
14, 192120, Note_on_c, 7, 71, 32
14, 192120, Note_on_c, 7, 68, 32
14, 192149, Note_on_c, 7, 68, 0
14, 192149, Note_on_c, 7, 71, 0
14, 192150, Note_on_c, 7, 71, 32
14, 192150, Note_on_c, 7, 68, 32
14, 192179, Note_on_c, 7, 68, 0
14, 192179, Note_on_c, 7, 71, 0
14, 192180, Note_on_c, 7, 71, 32
14, 192180, Note_on_c, 7, 68, 32
14, 192209, Note_on_c, 7, 68, 0
14, 192209, Note_on_c, 7, 71, 0
14, 192210, Note_on_c, 7, 71, 32
14, 192210, Note_on_c, 7, 68, 32
14, 192239, Note_on_c, 7, 68, 0
14, 192239, Note_on_c, 7, 71, 0
14, 192960, Note_on_c, 7, 70, 32
14, 192960, Note_on_c, 7, 68, 32
14, 192989, Note_on_c, 7, 68, 0
14, 192989, Note_on_c, 7, 70, 0
14, 192990, Note_on_c, 7, 70, 32
14, 192990, Note_on_c, 7, 68, 32
14, 193019, Note_on_c, 7, 68, 0
14, 193019, Note_on_c, 7, 70, 0
14, 193020, Note_on_c, 7, 70, 32
14, 193020, Note_on_c, 7, 68, 32
14, 193049, Note_on_c, 7, 68, 0
14, 193049, Note_on_c, 7, 70, 0
14, 193050, Note_on_c, 7, 70, 32
14, 193050, Note_on_c, 7, 68, 32
14, 193079, Note_on_c, 7, 68, 0
14, 193079, Note_on_c, 7, 70, 0
14, 193080, Note_on_c, 7, 70, 32
14, 193080, Note_on_c, 7, 68, 32
14, 193109, Note_on_c, 7, 68, 0
14, 193109, Note_on_c, 7, 70, 0
14, 193110, Note_on_c, 7, 70, 32
14, 193110, Note_on_c, 7, 68, 32
14, 193139, Note_on_c, 7, 68, 0
14, 193139, Note_on_c, 7, 70, 0
14, 193140, Note_on_c, 7, 70, 32
14, 193140, Note_on_c, 7, 68, 32
14, 193169, Note_on_c, 7, 68, 0
14, 193169, Note_on_c, 7, 70, 0
14, 193170, Note_on_c, 7, 70, 32
14, 193170, Note_on_c, 7, 68, 32
14, 193199, Note_on_c, 7, 68, 0
14, 193199, Note_on_c, 7, 70, 0
14, 193200, Note_on_c, 7, 70, 32
14, 193200, Note_on_c, 7, 68, 32
14, 193229, Note_on_c, 7, 68, 0
14, 193229, Note_on_c, 7, 70, 0
14, 193230, Note_on_c, 7, 70, 32
14, 193230, Note_on_c, 7, 68, 32
14, 193259, Note_on_c, 7, 68, 0
14, 193259, Note_on_c, 7, 70, 0
14, 193260, Note_on_c, 7, 70, 32
14, 193260, Note_on_c, 7, 68, 32
14, 193289, Note_on_c, 7, 68, 0
14, 193289, Note_on_c, 7, 70, 0
14, 193290, Note_on_c, 7, 70, 32
14, 193290, Note_on_c, 7, 68, 32
14, 193319, Note_on_c, 7, 68, 0
14, 193319, Note_on_c, 7, 70, 0
14, 193320, Note_on_c, 7, 70, 32
14, 193320, Note_on_c, 7, 68, 32
14, 193349, Note_on_c, 7, 68, 0
14, 193349, Note_on_c, 7, 70, 0
14, 193350, Note_on_c, 7, 70, 32
14, 193350, Note_on_c, 7, 68, 32
14, 193379, Note_on_c, 7, 68, 0
14, 193379, Note_on_c, 7, 70, 0
14, 193380, Note_on_c, 7, 70, 32
14, 193380, Note_on_c, 7, 68, 32
14, 193409, Note_on_c, 7, 68, 0
14, 193409, Note_on_c, 7, 70, 0
14, 193410, Note_on_c, 7, 70, 32
14, 193410, Note_on_c, 7, 68, 32
14, 193439, Note_on_c, 7, 68, 0
14, 193439, Note_on_c, 7, 70, 0
14, 193440, Note_on_c, 7, 70, 32
14, 193440, Note_on_c, 7, 68, 32
14, 193469, Note_on_c, 7, 68, 0
14, 193469, Note_on_c, 7, 70, 0
14, 193470, Note_on_c, 7, 70, 32
14, 193470, Note_on_c, 7, 68, 32
14, 193499, Note_on_c, 7, 68, 0
14, 193499, Note_on_c, 7, 70, 0
14, 193500, Note_on_c, 7, 70, 32
14, 193500, Note_on_c, 7, 68, 32
14, 193529, Note_on_c, 7, 68, 0
14, 193529, Note_on_c, 7, 70, 0
14, 193530, Note_on_c, 7, 70, 32
14, 193530, Note_on_c, 7, 68, 32
14, 193559, Note_on_c, 7, 68, 0
14, 193559, Note_on_c, 7, 70, 0
14, 193560, Note_on_c, 7, 70, 32
14, 193560, Note_on_c, 7, 68, 32
14, 193589, Note_on_c, 7, 68, 0
14, 193589, Note_on_c, 7, 70, 0
14, 193590, Note_on_c, 7, 70, 32
14, 193590, Note_on_c, 7, 68, 32
14, 193619, Note_on_c, 7, 68, 0
14, 193619, Note_on_c, 7, 70, 0
14, 193620, Note_on_c, 7, 70, 32
14, 193620, Note_on_c, 7, 68, 32
14, 193649, Note_on_c, 7, 68, 0
14, 193649, Note_on_c, 7, 70, 0
14, 193650, Note_on_c, 7, 70, 32
14, 193650, Note_on_c, 7, 68, 32
14, 193679, Note_on_c, 7, 68, 0
14, 193679, Note_on_c, 7, 70, 0
14, 194400, Note_on_c, 7, 71, 32
14, 194400, Note_on_c, 7, 68, 32
14, 194429, Note_on_c, 7, 68, 0
14, 194429, Note_on_c, 7, 71, 0
14, 194430, Note_on_c, 7, 71, 32
14, 194430, Note_on_c, 7, 68, 32
14, 194459, Note_on_c, 7, 68, 0
14, 194459, Note_on_c, 7, 71, 0
14, 194460, Note_on_c, 7, 71, 32
14, 194460, Note_on_c, 7, 68, 32
14, 194489, Note_on_c, 7, 68, 0
14, 194489, Note_on_c, 7, 71, 0
14, 194490, Note_on_c, 7, 71, 32
14, 194490, Note_on_c, 7, 68, 32
14, 194519, Note_on_c, 7, 68, 0
14, 194519, Note_on_c, 7, 71, 0
14, 194520, Note_on_c, 7, 71, 32
14, 194520, Note_on_c, 7, 68, 32
14, 194549, Note_on_c, 7, 68, 0
14, 194549, Note_on_c, 7, 71, 0
14, 194550, Note_on_c, 7, 71, 32
14, 194550, Note_on_c, 7, 68, 32
14, 194579, Note_on_c, 7, 68, 0
14, 194579, Note_on_c, 7, 71, 0
14, 194580, Note_on_c, 7, 71, 32
14, 194580, Note_on_c, 7, 68, 32
14, 194609, Note_on_c, 7, 68, 0
14, 194609, Note_on_c, 7, 71, 0
14, 194610, Note_on_c, 7, 71, 32
14, 194610, Note_on_c, 7, 68, 32
14, 194639, Note_on_c, 7, 68, 0
14, 194639, Note_on_c, 7, 71, 0
14, 194640, Note_on_c, 7, 71, 32
14, 194640, Note_on_c, 7, 68, 32
14, 194669, Note_on_c, 7, 68, 0
14, 194669, Note_on_c, 7, 71, 0
14, 194670, Note_on_c, 7, 71, 32
14, 194670, Note_on_c, 7, 68, 32
14, 194699, Note_on_c, 7, 68, 0
14, 194699, Note_on_c, 7, 71, 0
14, 194700, Note_on_c, 7, 71, 32
14, 194700, Note_on_c, 7, 68, 32
14, 194729, Note_on_c, 7, 68, 0
14, 194729, Note_on_c, 7, 71, 0
14, 194730, Note_on_c, 7, 71, 32
14, 194730, Note_on_c, 7, 68, 32
14, 194759, Note_on_c, 7, 68, 0
14, 194759, Note_on_c, 7, 71, 0
14, 194760, Note_on_c, 7, 71, 32
14, 194760, Note_on_c, 7, 68, 32
14, 194789, Note_on_c, 7, 68, 0
14, 194789, Note_on_c, 7, 71, 0
14, 194790, Note_on_c, 7, 71, 32
14, 194790, Note_on_c, 7, 68, 32
14, 194819, Note_on_c, 7, 68, 0
14, 194819, Note_on_c, 7, 71, 0
14, 194820, Note_on_c, 7, 71, 32
14, 194820, Note_on_c, 7, 68, 32
14, 194849, Note_on_c, 7, 68, 0
14, 194849, Note_on_c, 7, 71, 0
14, 194850, Note_on_c, 7, 71, 32
14, 194850, Note_on_c, 7, 68, 32
14, 194879, Note_on_c, 7, 68, 0
14, 194879, Note_on_c, 7, 71, 0
14, 194880, Note_on_c, 7, 71, 32
14, 194880, Note_on_c, 7, 68, 32
14, 194909, Note_on_c, 7, 68, 0
14, 194909, Note_on_c, 7, 71, 0
14, 194910, Note_on_c, 7, 71, 32
14, 194910, Note_on_c, 7, 68, 32
14, 194939, Note_on_c, 7, 68, 0
14, 194939, Note_on_c, 7, 71, 0
14, 194940, Note_on_c, 7, 71, 32
14, 194940, Note_on_c, 7, 68, 32
14, 194969, Note_on_c, 7, 68, 0
14, 194969, Note_on_c, 7, 71, 0
14, 194970, Note_on_c, 7, 71, 32
14, 194970, Note_on_c, 7, 68, 32
14, 194999, Note_on_c, 7, 68, 0
14, 194999, Note_on_c, 7, 71, 0
14, 195000, Note_on_c, 7, 71, 32
14, 195000, Note_on_c, 7, 68, 32
14, 195029, Note_on_c, 7, 68, 0
14, 195029, Note_on_c, 7, 71, 0
14, 195030, Note_on_c, 7, 71, 32
14, 195030, Note_on_c, 7, 68, 32
14, 195059, Note_on_c, 7, 68, 0
14, 195059, Note_on_c, 7, 71, 0
14, 195060, Note_on_c, 7, 71, 32
14, 195060, Note_on_c, 7, 68, 32
14, 195089, Note_on_c, 7, 68, 0
14, 195089, Note_on_c, 7, 71, 0
14, 195090, Note_on_c, 7, 71, 32
14, 195090, Note_on_c, 7, 68, 32
14, 195119, Note_on_c, 7, 68, 0
14, 195119, Note_on_c, 7, 71, 0
14, 195120, Note_on_c, 7, 70, 32
14, 195120, Note_on_c, 7, 68, 32
14, 195149, Note_on_c, 7, 68, 0
14, 195149, Note_on_c, 7, 70, 0
14, 195150, Note_on_c, 7, 70, 32
14, 195150, Note_on_c, 7, 68, 32
14, 195179, Note_on_c, 7, 68, 0
14, 195179, Note_on_c, 7, 70, 0
14, 195180, Note_on_c, 7, 70, 32
14, 195180, Note_on_c, 7, 68, 32
14, 195209, Note_on_c, 7, 68, 0
14, 195209, Note_on_c, 7, 70, 0
14, 195210, Note_on_c, 7, 70, 32
14, 195210, Note_on_c, 7, 68, 32
14, 195239, Note_on_c, 7, 68, 0
14, 195239, Note_on_c, 7, 70, 0
14, 195240, Note_on_c, 7, 70, 32
14, 195240, Note_on_c, 7, 68, 32
14, 195269, Note_on_c, 7, 68, 0
14, 195269, Note_on_c, 7, 70, 0
14, 195270, Note_on_c, 7, 70, 32
14, 195270, Note_on_c, 7, 68, 32
14, 195299, Note_on_c, 7, 68, 0
14, 195299, Note_on_c, 7, 70, 0
14, 195300, Note_on_c, 7, 70, 32
14, 195300, Note_on_c, 7, 68, 32
14, 195329, Note_on_c, 7, 68, 0
14, 195329, Note_on_c, 7, 70, 0
14, 195330, Note_on_c, 7, 70, 32
14, 195330, Note_on_c, 7, 68, 32
14, 195359, Note_on_c, 7, 68, 0
14, 195359, Note_on_c, 7, 70, 0
14, 195360, Note_on_c, 7, 70, 32
14, 195360, Note_on_c, 7, 68, 32
14, 195389, Note_on_c, 7, 68, 0
14, 195389, Note_on_c, 7, 70, 0
14, 195390, Note_on_c, 7, 70, 32
14, 195390, Note_on_c, 7, 68, 32
14, 195419, Note_on_c, 7, 68, 0
14, 195419, Note_on_c, 7, 70, 0
14, 195420, Note_on_c, 7, 70, 32
14, 195420, Note_on_c, 7, 68, 32
14, 195449, Note_on_c, 7, 68, 0
14, 195449, Note_on_c, 7, 70, 0
14, 195450, Note_on_c, 7, 70, 32
14, 195450, Note_on_c, 7, 68, 32
14, 195479, Note_on_c, 7, 68, 0
14, 195479, Note_on_c, 7, 70, 0
14, 195480, Note_on_c, 7, 70, 32
14, 195480, Note_on_c, 7, 68, 32
14, 195509, Note_on_c, 7, 68, 0
14, 195509, Note_on_c, 7, 70, 0
14, 195510, Note_on_c, 7, 70, 32
14, 195510, Note_on_c, 7, 68, 32
14, 195539, Note_on_c, 7, 68, 0
14, 195539, Note_on_c, 7, 70, 0
14, 195540, Note_on_c, 7, 70, 32
14, 195540, Note_on_c, 7, 68, 32
14, 195569, Note_on_c, 7, 68, 0
14, 195569, Note_on_c, 7, 70, 0
14, 195570, Note_on_c, 7, 70, 32
14, 195570, Note_on_c, 7, 68, 32
14, 195599, Note_on_c, 7, 68, 0
14, 195599, Note_on_c, 7, 70, 0
14, 195600, Note_on_c, 7, 70, 32
14, 195600, Note_on_c, 7, 68, 32
14, 195629, Note_on_c, 7, 68, 0
14, 195629, Note_on_c, 7, 70, 0
14, 195630, Note_on_c, 7, 70, 31
14, 195630, Note_on_c, 7, 68, 31
14, 195659, Note_on_c, 7, 68, 0
14, 195659, Note_on_c, 7, 70, 0
14, 195660, Note_on_c, 7, 70, 30
14, 195660, Note_on_c, 7, 68, 30
14, 195689, Note_on_c, 7, 68, 0
14, 195689, Note_on_c, 7, 70, 0
14, 195690, Note_on_c, 7, 70, 29
14, 195690, Note_on_c, 7, 68, 29
14, 195719, Note_on_c, 7, 68, 0
14, 195719, Note_on_c, 7, 70, 0
14, 195720, Note_on_c, 7, 70, 28
14, 195720, Note_on_c, 7, 68, 28
14, 195749, Note_on_c, 7, 68, 0
14, 195749, Note_on_c, 7, 70, 0
14, 195750, Note_on_c, 7, 70, 27
14, 195750, Note_on_c, 7, 68, 27
14, 195779, Note_on_c, 7, 68, 0
14, 195779, Note_on_c, 7, 70, 0
14, 195780, Note_on_c, 7, 70, 26
14, 195780, Note_on_c, 7, 68, 26
14, 195809, Note_on_c, 7, 68, 0
14, 195809, Note_on_c, 7, 70, 0
14, 195810, Note_on_c, 7, 70, 25
14, 195810, Note_on_c, 7, 68, 25
14, 195839, Note_on_c, 7, 68, 0
14, 195839, Note_on_c, 7, 70, 0
14, 195840, Note_on_c, 7, 70, 24
14, 195840, Note_on_c, 7, 68, 24
14, 195869, Note_on_c, 7, 68, 0
14, 195869, Note_on_c, 7, 70, 0
14, 195870, Note_on_c, 7, 70, 24
14, 195870, Note_on_c, 7, 68, 24
14, 195899, Note_on_c, 7, 68, 0
14, 195899, Note_on_c, 7, 70, 0
14, 195900, Note_on_c, 7, 70, 24
14, 195900, Note_on_c, 7, 68, 24
14, 195929, Note_on_c, 7, 68, 0
14, 195929, Note_on_c, 7, 70, 0
14, 195930, Note_on_c, 7, 70, 24
14, 195930, Note_on_c, 7, 68, 24
14, 195959, Note_on_c, 7, 68, 0
14, 195959, Note_on_c, 7, 70, 0
14, 195960, Note_on_c, 7, 70, 24
14, 195960, Note_on_c, 7, 68, 24
14, 195989, Note_on_c, 7, 68, 0
14, 195989, Note_on_c, 7, 70, 0
14, 195990, Note_on_c, 7, 70, 24
14, 195990, Note_on_c, 7, 68, 24
14, 196019, Note_on_c, 7, 68, 0
14, 196019, Note_on_c, 7, 70, 0
14, 196020, Note_on_c, 7, 70, 24
14, 196020, Note_on_c, 7, 68, 24
14, 196049, Note_on_c, 7, 68, 0
14, 196049, Note_on_c, 7, 70, 0
14, 196050, Note_on_c, 7, 70, 24
14, 196050, Note_on_c, 7, 68, 24
14, 196079, Note_on_c, 7, 68, 0
14, 196079, Note_on_c, 7, 70, 0
14, 196080, Note_on_c, 7, 70, 24
14, 196080, Note_on_c, 7, 68, 24
14, 196109, Note_on_c, 7, 68, 0
14, 196109, Note_on_c, 7, 70, 0
14, 196110, Note_on_c, 7, 70, 24
14, 196110, Note_on_c, 7, 68, 24
14, 196139, Note_on_c, 7, 68, 0
14, 196139, Note_on_c, 7, 70, 0
14, 196140, Note_on_c, 7, 70, 24
14, 196140, Note_on_c, 7, 68, 24
14, 196169, Note_on_c, 7, 68, 0
14, 196169, Note_on_c, 7, 70, 0
14, 196170, Note_on_c, 7, 70, 24
14, 196170, Note_on_c, 7, 68, 24
14, 196199, Note_on_c, 7, 68, 0
14, 196199, Note_on_c, 7, 70, 0
14, 196200, Note_on_c, 7, 70, 24
14, 196200, Note_on_c, 7, 68, 24
14, 196229, Note_on_c, 7, 68, 0
14, 196229, Note_on_c, 7, 70, 0
14, 196230, Note_on_c, 7, 70, 24
14, 196230, Note_on_c, 7, 68, 24
14, 196259, Note_on_c, 7, 68, 0
14, 196259, Note_on_c, 7, 70, 0
14, 196260, Note_on_c, 7, 70, 24
14, 196260, Note_on_c, 7, 68, 24
14, 196289, Note_on_c, 7, 68, 0
14, 196289, Note_on_c, 7, 70, 0
14, 196290, Note_on_c, 7, 70, 24
14, 196290, Note_on_c, 7, 68, 24
14, 196319, Note_on_c, 7, 68, 0
14, 196319, Note_on_c, 7, 70, 0
14, 196320, Note_on_c, 7, 70, 24
14, 196320, Note_on_c, 7, 68, 24
14, 196349, Note_on_c, 7, 68, 0
14, 196349, Note_on_c, 7, 70, 0
14, 196350, Note_on_c, 7, 70, 24
14, 196350, Note_on_c, 7, 68, 24
14, 196379, Note_on_c, 7, 68, 0
14, 196379, Note_on_c, 7, 70, 0
14, 196380, Note_on_c, 7, 70, 24
14, 196380, Note_on_c, 7, 68, 24
14, 196409, Note_on_c, 7, 68, 0
14, 196409, Note_on_c, 7, 70, 0
14, 196410, Note_on_c, 7, 70, 24
14, 196410, Note_on_c, 7, 68, 24
14, 196439, Note_on_c, 7, 68, 0
14, 196439, Note_on_c, 7, 70, 0
14, 196440, Note_on_c, 7, 70, 24
14, 196440, Note_on_c, 7, 68, 24
14, 196469, Note_on_c, 7, 68, 0
14, 196469, Note_on_c, 7, 70, 0
14, 196470, Note_on_c, 7, 70, 24
14, 196470, Note_on_c, 7, 68, 24
14, 196499, Note_on_c, 7, 68, 0
14, 196499, Note_on_c, 7, 70, 0
14, 196500, Note_on_c, 7, 70, 24
14, 196500, Note_on_c, 7, 68, 24
14, 196529, Note_on_c, 7, 68, 0
14, 196529, Note_on_c, 7, 70, 0
14, 196530, Note_on_c, 7, 70, 24
14, 196530, Note_on_c, 7, 68, 24
14, 196559, Note_on_c, 7, 68, 0
14, 196559, Note_on_c, 7, 70, 0
14, 196560, Note_on_c, 7, 74, 96
14, 196560, Note_on_c, 7, 68, 96
14, 196589, Note_on_c, 7, 68, 0
14, 196589, Note_on_c, 7, 74, 0
14, 196590, Note_on_c, 7, 74, 96
14, 196590, Note_on_c, 7, 68, 96
14, 196619, Note_on_c, 7, 68, 0
14, 196619, Note_on_c, 7, 74, 0
14, 196620, Note_on_c, 7, 74, 96
14, 196620, Note_on_c, 7, 68, 96
14, 196649, Note_on_c, 7, 68, 0
14, 196649, Note_on_c, 7, 74, 0
14, 196650, Note_on_c, 7, 74, 96
14, 196650, Note_on_c, 7, 68, 96
14, 196679, Note_on_c, 7, 68, 0
14, 196679, Note_on_c, 7, 74, 0
14, 196680, Note_on_c, 7, 74, 96
14, 196680, Note_on_c, 7, 68, 96
14, 196709, Note_on_c, 7, 68, 0
14, 196709, Note_on_c, 7, 74, 0
14, 196710, Note_on_c, 7, 74, 96
14, 196710, Note_on_c, 7, 68, 96
14, 196739, Note_on_c, 7, 68, 0
14, 196739, Note_on_c, 7, 74, 0
14, 196740, Note_on_c, 7, 74, 96
14, 196740, Note_on_c, 7, 68, 96
14, 196769, Note_on_c, 7, 68, 0
14, 196769, Note_on_c, 7, 74, 0
14, 196770, Note_on_c, 7, 74, 96
14, 196770, Note_on_c, 7, 68, 96
14, 196799, Note_on_c, 7, 68, 0
14, 196799, Note_on_c, 7, 74, 0
14, 196800, Note_on_c, 7, 74, 96
14, 196800, Note_on_c, 7, 68, 96
14, 196829, Note_on_c, 7, 68, 0
14, 196829, Note_on_c, 7, 74, 0
14, 196830, Note_on_c, 7, 74, 96
14, 196830, Note_on_c, 7, 68, 96
14, 196859, Note_on_c, 7, 68, 0
14, 196859, Note_on_c, 7, 74, 0
14, 196860, Note_on_c, 7, 74, 96
14, 196860, Note_on_c, 7, 68, 96
14, 196889, Note_on_c, 7, 68, 0
14, 196889, Note_on_c, 7, 74, 0
14, 196890, Note_on_c, 7, 74, 96
14, 196890, Note_on_c, 7, 68, 96
14, 196919, Note_on_c, 7, 68, 0
14, 196919, Note_on_c, 7, 74, 0
14, 196920, Note_on_c, 7, 80, 127
14, 196920, Note_on_c, 7, 70, 127
14, 196920, Note_on_c, 7, 65, 127
14, 196920, Note_on_c, 7, 74, 127
14, 196949, Note_on_c, 7, 74, 0
14, 196949, Note_on_c, 7, 80, 0
14, 196949, Note_on_c, 7, 70, 0
14, 196949, Note_on_c, 7, 65, 0
14, 196950, Note_on_c, 7, 80, 127
14, 196950, Note_on_c, 7, 70, 127
14, 196950, Note_on_c, 7, 65, 127
14, 196950, Note_on_c, 7, 74, 127
14, 196979, Note_on_c, 7, 74, 0
14, 196979, Note_on_c, 7, 80, 0
14, 196979, Note_on_c, 7, 70, 0
14, 196979, Note_on_c, 7, 65, 0
14, 196980, Note_on_c, 7, 80, 127
14, 196980, Note_on_c, 7, 70, 127
14, 196980, Note_on_c, 7, 65, 127
14, 196980, Note_on_c, 7, 74, 127
14, 197009, Note_on_c, 7, 74, 0
14, 197009, Note_on_c, 7, 80, 0
14, 197009, Note_on_c, 7, 70, 0
14, 197009, Note_on_c, 7, 65, 0
14, 197010, Note_on_c, 7, 80, 127
14, 197010, Note_on_c, 7, 70, 127
14, 197010, Note_on_c, 7, 65, 127
14, 197010, Note_on_c, 7, 74, 127
14, 197039, Note_on_c, 7, 74, 0
14, 197039, Note_on_c, 7, 80, 0
14, 197039, Note_on_c, 7, 70, 0
14, 197039, Note_on_c, 7, 65, 0
14, 197040, Note_on_c, 7, 80, 127
14, 197040, Note_on_c, 7, 70, 127
14, 197040, Note_on_c, 7, 65, 127
14, 197040, Note_on_c, 7, 74, 127
14, 197069, Note_on_c, 7, 74, 0
14, 197069, Note_on_c, 7, 80, 0
14, 197069, Note_on_c, 7, 70, 0
14, 197069, Note_on_c, 7, 65, 0
14, 197070, Note_on_c, 7, 80, 127
14, 197070, Note_on_c, 7, 70, 127
14, 197070, Note_on_c, 7, 65, 127
14, 197070, Note_on_c, 7, 74, 127
14, 197099, Note_on_c, 7, 74, 0
14, 197099, Note_on_c, 7, 80, 0
14, 197099, Note_on_c, 7, 70, 0
14, 197099, Note_on_c, 7, 65, 0
14, 197100, Note_on_c, 7, 80, 127
14, 197100, Note_on_c, 7, 70, 127
14, 197100, Note_on_c, 7, 65, 127
14, 197100, Note_on_c, 7, 74, 127
14, 197129, Note_on_c, 7, 74, 0
14, 197129, Note_on_c, 7, 80, 0
14, 197129, Note_on_c, 7, 70, 0
14, 197129, Note_on_c, 7, 65, 0
14, 197130, Note_on_c, 7, 80, 127
14, 197130, Note_on_c, 7, 70, 127
14, 197130, Note_on_c, 7, 65, 127
14, 197130, Note_on_c, 7, 74, 127
14, 197159, Note_on_c, 7, 74, 0
14, 197159, Note_on_c, 7, 80, 0
14, 197159, Note_on_c, 7, 70, 0
14, 197159, Note_on_c, 7, 65, 0
14, 197160, Note_on_c, 7, 80, 127
14, 197160, Note_on_c, 7, 70, 127
14, 197160, Note_on_c, 7, 65, 127
14, 197160, Note_on_c, 7, 74, 127
14, 197189, Note_on_c, 7, 74, 0
14, 197189, Note_on_c, 7, 80, 0
14, 197189, Note_on_c, 7, 70, 0
14, 197189, Note_on_c, 7, 65, 0
14, 197190, Note_on_c, 7, 80, 127
14, 197190, Note_on_c, 7, 70, 127
14, 197190, Note_on_c, 7, 65, 127
14, 197190, Note_on_c, 7, 74, 127
14, 197219, Note_on_c, 7, 74, 0
14, 197219, Note_on_c, 7, 80, 0
14, 197219, Note_on_c, 7, 70, 0
14, 197219, Note_on_c, 7, 65, 0
14, 197220, Note_on_c, 7, 80, 127
14, 197220, Note_on_c, 7, 70, 127
14, 197220, Note_on_c, 7, 65, 127
14, 197220, Note_on_c, 7, 74, 127
14, 197249, Note_on_c, 7, 74, 0
14, 197249, Note_on_c, 7, 80, 0
14, 197249, Note_on_c, 7, 70, 0
14, 197249, Note_on_c, 7, 65, 0
14, 197250, Note_on_c, 7, 80, 127
14, 197250, Note_on_c, 7, 70, 127
14, 197250, Note_on_c, 7, 65, 127
14, 197250, Note_on_c, 7, 74, 127
14, 197279, Note_on_c, 7, 74, 0
14, 197279, Note_on_c, 7, 80, 0
14, 197279, Note_on_c, 7, 70, 0
14, 197279, Note_on_c, 7, 65, 0
14, 197280, Note_on_c, 7, 67, 127
14, 197280, Note_on_c, 7, 75, 127
14, 197280, Note_on_c, 7, 55, 127
14, 197280, Note_on_c, 7, 63, 127
14, 197280, Note_on_c, 7, 70, 127
14, 197280, Note_on_c, 7, 79, 127
14, 197309, Note_on_c, 7, 75, 0
14, 197309, Note_on_c, 7, 67, 0
14, 197310, Note_on_c, 7, 75, 48
14, 197339, Note_on_c, 7, 75, 0
14, 197399, Note_on_c, 7, 55, 0
14, 197399, Note_on_c, 7, 63, 0
14, 197399, Note_on_c, 7, 79, 0
14, 197399, Note_on_c, 7, 70, 0
14, 197400, Note_on_c, 7, 67, 48
14, 197459, Note_on_c, 7, 67, 0
14, 197460, Note_on_c, 7, 67, 48
14, 197519, Note_on_c, 7, 67, 0
14, 197520, Note_on_c, 7, 67, 48
14, 197579, Note_on_c, 7, 67, 0
14, 197580, Note_on_c, 7, 67, 48
14, 197639, Note_on_c, 7, 67, 0
14, 197640, Note_on_c, 7, 67, 48
14, 197699, Note_on_c, 7, 67, 0
14, 197700, Note_on_c, 7, 67, 48
14, 197759, Note_on_c, 7, 67, 0
14, 197760, Note_on_c, 7, 67, 48
14, 197819, Note_on_c, 7, 67, 0
14, 197820, Note_on_c, 7, 67, 48
14, 197879, Note_on_c, 7, 67, 0
14, 197880, Note_on_c, 7, 67, 48
14, 197939, Note_on_c, 7, 67, 0
14, 197940, Note_on_c, 7, 67, 48
14, 197999, Note_on_c, 7, 67, 0
14, 198000, Note_on_c, 7, 67, 48
14, 198059, Note_on_c, 7, 67, 0
14, 198060, Note_on_c, 7, 67, 48
14, 198119, Note_on_c, 7, 67, 0
14, 198120, Note_on_c, 7, 67, 48
14, 198179, Note_on_c, 7, 67, 0
14, 198180, Note_on_c, 7, 67, 48
14, 198239, Note_on_c, 7, 67, 0
14, 198240, Note_on_c, 7, 67, 48
14, 198299, Note_on_c, 7, 67, 0
14, 198300, Note_on_c, 7, 67, 48
14, 198359, Note_on_c, 7, 67, 0
14, 198360, Note_on_c, 7, 67, 48
14, 198419, Note_on_c, 7, 67, 0
14, 198420, Note_on_c, 7, 67, 48
14, 198479, Note_on_c, 7, 67, 0
14, 198480, Note_on_c, 7, 67, 48
14, 198539, Note_on_c, 7, 67, 0
14, 198540, Note_on_c, 7, 67, 48
14, 198599, Note_on_c, 7, 67, 0
14, 198600, Note_on_c, 7, 67, 48
14, 198659, Note_on_c, 7, 67, 0
14, 198660, Note_on_c, 7, 67, 48
14, 198719, Note_on_c, 7, 67, 0
14, 198720, Note_on_c, 7, 67, 48
14, 198780, Note_on_c, 7, 79, 52
14, 198780, Note_on_c, 7, 58, 52
14, 198789, Note_on_c, 7, 67, 0
14, 198840, Note_on_c, 7, 64, 56
14, 198849, Note_on_c, 7, 58, 0
14, 198899, Note_on_c, 7, 79, 0
14, 198900, Note_on_c, 7, 79, 60
14, 198900, Note_on_c, 7, 58, 60
14, 198909, Note_on_c, 7, 64, 0
14, 198960, Note_on_c, 7, 64, 64
14, 198969, Note_on_c, 7, 58, 0
14, 199019, Note_on_c, 7, 79, 0
14, 199020, Note_on_c, 7, 79, 68
14, 199020, Note_on_c, 7, 58, 68
14, 199029, Note_on_c, 7, 64, 0
14, 199079, Note_on_c, 7, 58, 0
14, 199080, Note_on_c, 7, 64, 72
14, 199139, Note_on_c, 7, 79, 0
14, 199140, Note_on_c, 7, 79, 76
14, 199140, Note_on_c, 7, 58, 76
14, 199149, Note_on_c, 7, 64, 0
14, 199200, Note_on_c, 7, 64, 80
14, 199209, Note_on_c, 7, 58, 0
14, 199259, Note_on_c, 7, 79, 0
14, 199260, Note_on_c, 7, 79, 84
14, 199260, Note_on_c, 7, 58, 84
14, 199269, Note_on_c, 7, 64, 0
14, 199320, Note_on_c, 7, 64, 88
14, 199329, Note_on_c, 7, 58, 0
14, 199379, Note_on_c, 7, 79, 0
14, 199380, Note_on_c, 7, 79, 96
14, 199380, Note_on_c, 7, 58, 92
14, 199389, Note_on_c, 7, 64, 0
14, 199439, Note_on_c, 7, 58, 0
14, 199440, Note_on_c, 7, 64, 96
14, 199500, Note_on_c, 7, 58, 88
14, 199509, Note_on_c, 7, 64, 0
14, 199560, Note_on_c, 7, 60, 80
14, 199569, Note_on_c, 7, 58, 0
14, 199620, Note_on_c, 7, 58, 72
14, 199629, Note_on_c, 7, 60, 0
14, 199680, Note_on_c, 7, 60, 64
14, 199689, Note_on_c, 7, 58, 0
14, 199740, Note_on_c, 7, 58, 56
14, 199749, Note_on_c, 7, 60, 0
14, 199799, Note_on_c, 7, 58, 0
14, 199800, Note_on_c, 7, 77, 48
14, 199800, Note_on_c, 7, 57, 48
14, 199809, Note_on_c, 7, 79, 0
14, 199860, Note_on_c, 7, 60, 48
14, 199869, Note_on_c, 7, 57, 0
14, 199920, Note_on_c, 7, 57, 48
14, 199929, Note_on_c, 7, 60, 0
14, 199980, Note_on_c, 7, 60, 48
14, 199989, Note_on_c, 7, 57, 0
14, 200040, Note_on_c, 7, 57, 48
14, 200049, Note_on_c, 7, 60, 0
14, 200100, Note_on_c, 7, 60, 48
14, 200109, Note_on_c, 7, 57, 0
14, 200159, Note_on_c, 7, 60, 0
14, 200160, Note_on_c, 7, 55, 48
14, 200220, Note_on_c, 7, 60, 48
14, 200229, Note_on_c, 7, 55, 0
14, 200280, Note_on_c, 7, 76, 48
14, 200280, Note_on_c, 7, 55, 48
14, 200289, Note_on_c, 7, 60, 0
14, 200289, Note_on_c, 7, 77, 0
14, 200340, Note_on_c, 7, 60, 48
14, 200349, Note_on_c, 7, 55, 0
14, 200400, Note_on_c, 7, 74, 48
14, 200400, Note_on_c, 7, 55, 48
14, 200409, Note_on_c, 7, 60, 0
14, 200409, Note_on_c, 7, 76, 0
14, 200460, Note_on_c, 7, 60, 48
14, 200469, Note_on_c, 7, 55, 0
14, 200519, Note_on_c, 7, 60, 0
14, 200519, Note_on_c, 7, 74, 0
14, 200520, Note_on_c, 7, 76, 48
14, 200520, Note_on_c, 7, 55, 48
14, 200539, Note_on_c, 7, 76, 0
14, 200540, Note_on_c, 7, 77, 48
14, 200559, Note_on_c, 7, 77, 0
14, 200560, Note_on_c, 7, 76, 48
14, 200579, Note_on_c, 7, 76, 0
14, 200580, Note_on_c, 7, 77, 48
14, 200580, Note_on_c, 7, 60, 48
14, 200589, Note_on_c, 7, 55, 0
14, 200599, Note_on_c, 7, 77, 0
14, 200600, Note_on_c, 7, 76, 48
14, 200619, Note_on_c, 7, 76, 0
14, 200620, Note_on_c, 7, 77, 48
14, 200639, Note_on_c, 7, 77, 0
14, 200640, Note_on_c, 7, 76, 48
14, 200640, Note_on_c, 7, 58, 48
14, 200649, Note_on_c, 7, 60, 0
14, 200659, Note_on_c, 7, 76, 0
14, 200660, Note_on_c, 7, 77, 48
14, 200679, Note_on_c, 7, 77, 0
14, 200680, Note_on_c, 7, 76, 48
14, 200699, Note_on_c, 7, 76, 0
14, 200700, Note_on_c, 7, 77, 48
14, 200700, Note_on_c, 7, 60, 48
14, 200709, Note_on_c, 7, 58, 0
14, 200719, Note_on_c, 7, 77, 0
14, 200720, Note_on_c, 7, 76, 48
14, 200739, Note_on_c, 7, 76, 0
14, 200740, Note_on_c, 7, 77, 48
14, 200759, Note_on_c, 7, 77, 0
14, 200760, Note_on_c, 7, 76, 48
14, 200760, Note_on_c, 7, 58, 48
14, 200769, Note_on_c, 7, 60, 0
14, 200779, Note_on_c, 7, 76, 0
14, 200780, Note_on_c, 7, 77, 48
14, 200809, Note_on_c, 7, 77, 0
14, 200810, Note_on_c, 7, 76, 48
14, 200820, Note_on_c, 7, 60, 48
14, 200829, Note_on_c, 7, 58, 0
14, 200839, Note_on_c, 7, 76, 0
14, 200840, Note_on_c, 7, 74, 48
14, 200859, Note_on_c, 7, 74, 0
14, 200860, Note_on_c, 7, 76, 48
14, 200879, Note_on_c, 7, 76, 0
14, 200879, Note_on_c, 7, 60, 0
14, 200880, Note_on_c, 7, 57, 48
14, 200880, Note_on_c, 7, 77, 48
14, 200939, Note_on_c, 7, 77, 0
14, 200939, Note_on_c, 7, 57, 0
14, 200940, Note_on_c, 7, 60, 48
14, 200940, Note_on_c, 7, 57, 48
14, 200999, Note_on_c, 7, 57, 0
14, 200999, Note_on_c, 7, 60, 0
14, 201000, Note_on_c, 7, 60, 48
14, 201000, Note_on_c, 7, 57, 48
14, 201059, Note_on_c, 7, 57, 0
14, 201059, Note_on_c, 7, 60, 0
14, 201060, Note_on_c, 7, 60, 48
14, 201060, Note_on_c, 7, 57, 48
14, 201119, Note_on_c, 7, 57, 0
14, 201119, Note_on_c, 7, 60, 0
14, 201120, Note_on_c, 7, 60, 48
14, 201120, Note_on_c, 7, 57, 48
14, 201179, Note_on_c, 7, 57, 0
14, 201179, Note_on_c, 7, 60, 0
14, 201180, Note_on_c, 7, 60, 48
14, 201180, Note_on_c, 7, 57, 48
14, 201239, Note_on_c, 7, 57, 0
14, 201239, Note_on_c, 7, 60, 0
14, 201240, Note_on_c, 7, 60, 48
14, 201240, Note_on_c, 7, 57, 48
14, 201299, Note_on_c, 7, 57, 0
14, 201299, Note_on_c, 7, 60, 0
14, 201300, Note_on_c, 7, 60, 48
14, 201300, Note_on_c, 7, 57, 48
14, 201359, Note_on_c, 7, 57, 0
14, 201359, Note_on_c, 7, 60, 0
14, 201360, Note_on_c, 7, 60, 48
14, 201360, Note_on_c, 7, 57, 48
14, 201419, Note_on_c, 7, 57, 0
14, 201419, Note_on_c, 7, 60, 0
14, 201420, Note_on_c, 7, 60, 48
14, 201420, Note_on_c, 7, 57, 48
14, 201479, Note_on_c, 7, 57, 0
14, 201479, Note_on_c, 7, 60, 0
14, 201480, Note_on_c, 7, 60, 48
14, 201480, Note_on_c, 7, 57, 48
14, 201539, Note_on_c, 7, 57, 0
14, 201539, Note_on_c, 7, 60, 0
14, 201540, Note_on_c, 7, 60, 48
14, 201540, Note_on_c, 7, 57, 48
14, 201599, Note_on_c, 7, 57, 0
14, 201599, Note_on_c, 7, 60, 0
14, 201600, Note_on_c, 7, 60, 48
14, 201600, Note_on_c, 7, 57, 48
14, 201659, Note_on_c, 7, 57, 0
14, 201659, Note_on_c, 7, 60, 0
14, 201660, Note_on_c, 7, 60, 48
14, 201660, Note_on_c, 7, 57, 48
14, 201719, Note_on_c, 7, 57, 0
14, 201719, Note_on_c, 7, 60, 0
14, 201720, Note_on_c, 7, 60, 48
14, 201720, Note_on_c, 7, 57, 48
14, 201779, Note_on_c, 7, 57, 0
14, 201779, Note_on_c, 7, 60, 0
14, 201780, Note_on_c, 7, 60, 48
14, 201780, Note_on_c, 7, 57, 48
14, 201839, Note_on_c, 7, 57, 0
14, 201839, Note_on_c, 7, 60, 0
14, 201840, Note_on_c, 7, 60, 48
14, 201840, Note_on_c, 7, 57, 48
14, 201899, Note_on_c, 7, 57, 0
14, 201899, Note_on_c, 7, 60, 0
14, 201900, Note_on_c, 7, 60, 48
14, 201900, Note_on_c, 7, 57, 48
14, 201959, Note_on_c, 7, 57, 0
14, 201959, Note_on_c, 7, 60, 0
14, 201960, Note_on_c, 7, 60, 48
14, 201960, Note_on_c, 7, 57, 48
14, 202019, Note_on_c, 7, 57, 0
14, 202019, Note_on_c, 7, 60, 0
14, 202020, Note_on_c, 7, 60, 48
14, 202020, Note_on_c, 7, 57, 48
14, 202079, Note_on_c, 7, 57, 0
14, 202079, Note_on_c, 7, 60, 0
14, 202080, Note_on_c, 7, 60, 48
14, 202080, Note_on_c, 7, 57, 48
14, 202139, Note_on_c, 7, 57, 0
14, 202139, Note_on_c, 7, 60, 0
14, 202140, Note_on_c, 7, 60, 48
14, 202140, Note_on_c, 7, 57, 48
14, 202199, Note_on_c, 7, 57, 0
14, 202199, Note_on_c, 7, 60, 0
14, 202200, Note_on_c, 7, 60, 48
14, 202200, Note_on_c, 7, 57, 48
14, 202259, Note_on_c, 7, 57, 0
14, 202259, Note_on_c, 7, 60, 0
14, 202260, Note_on_c, 7, 60, 48
14, 202260, Note_on_c, 7, 57, 48
14, 202319, Note_on_c, 7, 57, 0
14, 202319, Note_on_c, 7, 60, 0
14, 202320, Note_on_c, 7, 58, 48
14, 202320, Note_on_c, 7, 60, 48
14, 202379, Note_on_c, 7, 60, 0
14, 202379, Note_on_c, 7, 58, 0
14, 202380, Note_on_c, 7, 58, 48
14, 202380, Note_on_c, 7, 60, 48
14, 202439, Note_on_c, 7, 60, 0
14, 202439, Note_on_c, 7, 58, 0
14, 202440, Note_on_c, 7, 58, 48
14, 202440, Note_on_c, 7, 60, 48
14, 202499, Note_on_c, 7, 60, 0
14, 202499, Note_on_c, 7, 58, 0
14, 202500, Note_on_c, 7, 58, 48
14, 202500, Note_on_c, 7, 60, 48
14, 202559, Note_on_c, 7, 60, 0
14, 202559, Note_on_c, 7, 58, 0
14, 202560, Note_on_c, 7, 58, 48
14, 202560, Note_on_c, 7, 60, 48
14, 202619, Note_on_c, 7, 60, 0
14, 202619, Note_on_c, 7, 58, 0
14, 202620, Note_on_c, 7, 58, 48
14, 202620, Note_on_c, 7, 60, 48
14, 202679, Note_on_c, 7, 60, 0
14, 202679, Note_on_c, 7, 58, 0
14, 202680, Note_on_c, 7, 58, 48
14, 202680, Note_on_c, 7, 60, 48
14, 202739, Note_on_c, 7, 60, 0
14, 202739, Note_on_c, 7, 58, 0
14, 202740, Note_on_c, 7, 58, 48
14, 202740, Note_on_c, 7, 60, 48
14, 202799, Note_on_c, 7, 60, 0
14, 202799, Note_on_c, 7, 58, 0
14, 202800, Note_on_c, 7, 58, 48
14, 202800, Note_on_c, 7, 60, 48
14, 202859, Note_on_c, 7, 60, 0
14, 202859, Note_on_c, 7, 58, 0
14, 202860, Note_on_c, 7, 58, 48
14, 202860, Note_on_c, 7, 60, 48
14, 202919, Note_on_c, 7, 60, 0
14, 202919, Note_on_c, 7, 58, 0
14, 202920, Note_on_c, 7, 58, 48
14, 202920, Note_on_c, 7, 60, 48
14, 202979, Note_on_c, 7, 60, 0
14, 202979, Note_on_c, 7, 58, 0
14, 202980, Note_on_c, 7, 58, 48
14, 202980, Note_on_c, 7, 60, 48
14, 203039, Note_on_c, 7, 60, 0
14, 203039, Note_on_c, 7, 58, 0
14, 203040, Note_on_c, 7, 57, 50
14, 203040, Note_on_c, 7, 60, 50
14, 203099, Note_on_c, 7, 60, 0
14, 203099, Note_on_c, 7, 57, 0
14, 203100, Note_on_c, 7, 57, 52
14, 203100, Note_on_c, 7, 60, 52
14, 203159, Note_on_c, 7, 60, 0
14, 203159, Note_on_c, 7, 57, 0
14, 203160, Note_on_c, 7, 57, 54
14, 203160, Note_on_c, 7, 60, 54
14, 203219, Note_on_c, 7, 60, 0
14, 203219, Note_on_c, 7, 57, 0
14, 203220, Note_on_c, 7, 57, 56
14, 203220, Note_on_c, 7, 60, 56
14, 203279, Note_on_c, 7, 60, 0
14, 203279, Note_on_c, 7, 57, 0
14, 203280, Note_on_c, 7, 57, 58
14, 203280, Note_on_c, 7, 60, 58
14, 203339, Note_on_c, 7, 60, 0
14, 203339, Note_on_c, 7, 57, 0
14, 203340, Note_on_c, 7, 57, 60
14, 203340, Note_on_c, 7, 60, 60
14, 203399, Note_on_c, 7, 60, 0
14, 203399, Note_on_c, 7, 57, 0
14, 203400, Note_on_c, 7, 56, 62
14, 203400, Note_on_c, 7, 60, 62
14, 203459, Note_on_c, 7, 60, 0
14, 203459, Note_on_c, 7, 56, 0
14, 203460, Note_on_c, 7, 56, 64
14, 203460, Note_on_c, 7, 60, 64
14, 203519, Note_on_c, 7, 60, 0
14, 203519, Note_on_c, 7, 56, 0
14, 203520, Note_on_c, 7, 56, 66
14, 203520, Note_on_c, 7, 60, 66
14, 203579, Note_on_c, 7, 60, 0
14, 203579, Note_on_c, 7, 56, 0
14, 203580, Note_on_c, 7, 56, 68
14, 203580, Note_on_c, 7, 60, 68
14, 203639, Note_on_c, 7, 60, 0
14, 203639, Note_on_c, 7, 56, 0
14, 203640, Note_on_c, 7, 56, 70
14, 203640, Note_on_c, 7, 60, 70
14, 203699, Note_on_c, 7, 60, 0
14, 203699, Note_on_c, 7, 56, 0
14, 203700, Note_on_c, 7, 56, 72
14, 203700, Note_on_c, 7, 60, 72
14, 203759, Note_on_c, 7, 60, 0
14, 203759, Note_on_c, 7, 56, 0
14, 203760, Note_on_c, 7, 61, 48
14, 203760, Note_on_c, 7, 56, 48
14, 203819, Note_on_c, 7, 56, 0
14, 203820, Note_on_c, 7, 56, 48
14, 203879, Note_on_c, 7, 56, 0
14, 203880, Note_on_c, 7, 56, 48
14, 203939, Note_on_c, 7, 56, 0
14, 203940, Note_on_c, 7, 56, 48
14, 203999, Note_on_c, 7, 56, 0
14, 204000, Note_on_c, 7, 65, 48
14, 204000, Note_on_c, 7, 56, 48
14, 204009, Note_on_c, 7, 61, 0
14, 204059, Note_on_c, 7, 56, 0
14, 204060, Note_on_c, 7, 56, 48
14, 204119, Note_on_c, 7, 56, 0
14, 204120, Note_on_c, 7, 61, 48
14, 204120, Note_on_c, 7, 56, 48
14, 204129, Note_on_c, 7, 65, 0
14, 204179, Note_on_c, 7, 56, 0
14, 204180, Note_on_c, 7, 56, 48
14, 204239, Note_on_c, 7, 56, 0
14, 204240, Note_on_c, 7, 56, 48
14, 204299, Note_on_c, 7, 56, 0
14, 204300, Note_on_c, 7, 56, 48
14, 204359, Note_on_c, 7, 56, 0
14, 204360, Note_on_c, 7, 56, 48
14, 204369, Note_on_c, 7, 61, 0
14, 204419, Note_on_c, 7, 56, 0
14, 204420, Note_on_c, 7, 56, 48
14, 204479, Note_on_c, 7, 56, 0
14, 204480, Note_on_c, 7, 61, 48
14, 204480, Note_on_c, 7, 56, 48
14, 204539, Note_on_c, 7, 56, 0
14, 204540, Note_on_c, 7, 56, 48
14, 204599, Note_on_c, 7, 56, 0
14, 204599, Note_on_c, 7, 61, 0
14, 204600, Note_on_c, 7, 56, 48
14, 204659, Note_on_c, 7, 56, 0
14, 204660, Note_on_c, 7, 56, 48
14, 204719, Note_on_c, 7, 56, 0
14, 204720, Note_on_c, 7, 56, 48
14, 204779, Note_on_c, 7, 56, 0
14, 204780, Note_on_c, 7, 56, 48
14, 204839, Note_on_c, 7, 56, 0
14, 204840, Note_on_c, 7, 56, 48
14, 204899, Note_on_c, 7, 56, 0
14, 204900, Note_on_c, 7, 56, 48
14, 204959, Note_on_c, 7, 56, 0
14, 204960, Note_on_c, 7, 56, 48
14, 205019, Note_on_c, 7, 56, 0
14, 205020, Note_on_c, 7, 56, 48
14, 205079, Note_on_c, 7, 56, 0
14, 205080, Note_on_c, 7, 56, 48
14, 205139, Note_on_c, 7, 56, 0
14, 205140, Note_on_c, 7, 56, 48
14, 205199, Note_on_c, 7, 56, 0
14, 205200, Note_on_c, 7, 56, 48
14, 205259, Note_on_c, 7, 56, 0
14, 205260, Note_on_c, 7, 56, 48
14, 205319, Note_on_c, 7, 56, 0
14, 205320, Note_on_c, 7, 56, 48
14, 205379, Note_on_c, 7, 56, 0
14, 205380, Note_on_c, 7, 56, 48
14, 205439, Note_on_c, 7, 56, 0
14, 205440, Note_on_c, 7, 56, 48
14, 205499, Note_on_c, 7, 56, 0
14, 205500, Note_on_c, 7, 56, 48
14, 205559, Note_on_c, 7, 56, 0
14, 205560, Note_on_c, 7, 56, 48
14, 205619, Note_on_c, 7, 56, 0
14, 205620, Note_on_c, 7, 56, 48
14, 205679, Note_on_c, 7, 56, 0
14, 205680, Note_on_c, 7, 56, 48
14, 205739, Note_on_c, 7, 56, 0
14, 205740, Note_on_c, 7, 56, 48
14, 205799, Note_on_c, 7, 56, 0
14, 205800, Note_on_c, 7, 56, 48
14, 205859, Note_on_c, 7, 56, 0
14, 205860, Note_on_c, 7, 56, 48
14, 205919, Note_on_c, 7, 56, 0
14, 205920, Note_on_c, 7, 56, 48
14, 205979, Note_on_c, 7, 56, 0
14, 205980, Note_on_c, 7, 68, 50
14, 206099, Note_on_c, 7, 68, 0
14, 206100, Note_on_c, 7, 65, 54
14, 206100, Note_on_c, 7, 68, 54
14, 206219, Note_on_c, 7, 68, 0
14, 206219, Note_on_c, 7, 65, 0
14, 206220, Note_on_c, 7, 65, 58
14, 206220, Note_on_c, 7, 68, 58
14, 206280, Note_on_c, 7, 63, 56
14, 206289, Note_on_c, 7, 65, 0
14, 206339, Note_on_c, 7, 63, 0
14, 206339, Note_on_c, 7, 68, 0
14, 206340, Note_on_c, 7, 63, 52
14, 206340, Note_on_c, 7, 68, 52
14, 206459, Note_on_c, 7, 68, 0
14, 206459, Note_on_c, 7, 63, 0
14, 206460, Note_on_c, 7, 63, 44
14, 206460, Note_on_c, 7, 68, 44
14, 206579, Note_on_c, 7, 68, 0
14, 206579, Note_on_c, 7, 63, 0
14, 206580, Note_on_c, 7, 63, 36
14, 206580, Note_on_c, 7, 68, 36
14, 206639, Note_on_c, 7, 63, 0
14, 206640, Note_on_c, 7, 62, 32
14, 206669, Note_on_c, 7, 62, 0
14, 206669, Note_on_c, 7, 68, 0
14, 206670, Note_on_c, 7, 68, 32
14, 206670, Note_on_c, 7, 65, 32
14, 206670, Note_on_c, 7, 58, 32
14, 206670, Note_on_c, 7, 62, 32
14, 206699, Note_on_c, 7, 62, 0
14, 206699, Note_on_c, 7, 68, 0
14, 206699, Note_on_c, 7, 65, 0
14, 206699, Note_on_c, 7, 58, 0
14, 206700, Note_on_c, 7, 68, 32
14, 206700, Note_on_c, 7, 65, 32
14, 206700, Note_on_c, 7, 58, 32
14, 206700, Note_on_c, 7, 62, 32
14, 206729, Note_on_c, 7, 62, 0
14, 206729, Note_on_c, 7, 68, 0
14, 206729, Note_on_c, 7, 65, 0
14, 206729, Note_on_c, 7, 58, 0
14, 206730, Note_on_c, 7, 68, 32
14, 206730, Note_on_c, 7, 65, 32
14, 206730, Note_on_c, 7, 58, 32
14, 206730, Note_on_c, 7, 62, 32
14, 206759, Note_on_c, 7, 62, 0
14, 206759, Note_on_c, 7, 68, 0
14, 206759, Note_on_c, 7, 65, 0
14, 206759, Note_on_c, 7, 58, 0
14, 206760, Note_on_c, 7, 58, 32
14, 206760, Note_on_c, 7, 62, 32
14, 206760, Note_on_c, 7, 65, 32
14, 206760, Note_on_c, 7, 68, 32
14, 206789, Note_on_c, 7, 68, 0
14, 206789, Note_on_c, 7, 58, 0
14, 206789, Note_on_c, 7, 62, 0
14, 206789, Note_on_c, 7, 65, 0
14, 206790, Note_on_c, 7, 58, 32
14, 206790, Note_on_c, 7, 62, 32
14, 206790, Note_on_c, 7, 65, 32
14, 206790, Note_on_c, 7, 68, 32
14, 206819, Note_on_c, 7, 68, 0
14, 206819, Note_on_c, 7, 58, 0
14, 206819, Note_on_c, 7, 62, 0
14, 206819, Note_on_c, 7, 65, 0
14, 206820, Note_on_c, 7, 58, 32
14, 206820, Note_on_c, 7, 62, 32
14, 206820, Note_on_c, 7, 65, 32
14, 206820, Note_on_c, 7, 68, 32
14, 206849, Note_on_c, 7, 68, 0
14, 206849, Note_on_c, 7, 58, 0
14, 206849, Note_on_c, 7, 62, 0
14, 206849, Note_on_c, 7, 65, 0
14, 206850, Note_on_c, 7, 58, 32
14, 206850, Note_on_c, 7, 62, 32
14, 206850, Note_on_c, 7, 65, 32
14, 206850, Note_on_c, 7, 68, 32
14, 206879, Note_on_c, 7, 68, 0
14, 206879, Note_on_c, 7, 58, 0
14, 206879, Note_on_c, 7, 62, 0
14, 206879, Note_on_c, 7, 65, 0
14, 206880, Note_on_c, 7, 58, 32
14, 206880, Note_on_c, 7, 62, 32
14, 206880, Note_on_c, 7, 65, 32
14, 206880, Note_on_c, 7, 68, 32
14, 206909, Note_on_c, 7, 68, 0
14, 206909, Note_on_c, 7, 58, 0
14, 206909, Note_on_c, 7, 62, 0
14, 206909, Note_on_c, 7, 65, 0
14, 206910, Note_on_c, 7, 58, 32
14, 206910, Note_on_c, 7, 62, 32
14, 206910, Note_on_c, 7, 65, 32
14, 206910, Note_on_c, 7, 68, 32
14, 206939, Note_on_c, 7, 68, 0
14, 206939, Note_on_c, 7, 58, 0
14, 206939, Note_on_c, 7, 62, 0
14, 206939, Note_on_c, 7, 65, 0
14, 206940, Note_on_c, 7, 58, 32
14, 206940, Note_on_c, 7, 62, 32
14, 206940, Note_on_c, 7, 65, 32
14, 206940, Note_on_c, 7, 68, 32
14, 206969, Note_on_c, 7, 68, 0
14, 206969, Note_on_c, 7, 58, 0
14, 206969, Note_on_c, 7, 62, 0
14, 206969, Note_on_c, 7, 65, 0
14, 206970, Note_on_c, 7, 58, 32
14, 206970, Note_on_c, 7, 62, 32
14, 206970, Note_on_c, 7, 65, 32
14, 206970, Note_on_c, 7, 68, 32
14, 206999, Note_on_c, 7, 68, 0
14, 206999, Note_on_c, 7, 58, 0
14, 206999, Note_on_c, 7, 62, 0
14, 206999, Note_on_c, 7, 65, 0
14, 207000, Note_on_c, 7, 58, 32
14, 207000, Note_on_c, 7, 62, 32
14, 207000, Note_on_c, 7, 65, 32
14, 207000, Note_on_c, 7, 68, 32
14, 207029, Note_on_c, 7, 68, 0
14, 207029, Note_on_c, 7, 58, 0
14, 207029, Note_on_c, 7, 62, 0
14, 207029, Note_on_c, 7, 65, 0
14, 207030, Note_on_c, 7, 58, 32
14, 207030, Note_on_c, 7, 62, 32
14, 207030, Note_on_c, 7, 65, 32
14, 207030, Note_on_c, 7, 68, 32
14, 207059, Note_on_c, 7, 68, 0
14, 207059, Note_on_c, 7, 58, 0
14, 207059, Note_on_c, 7, 62, 0
14, 207059, Note_on_c, 7, 65, 0
14, 207060, Note_on_c, 7, 58, 32
14, 207060, Note_on_c, 7, 62, 32
14, 207060, Note_on_c, 7, 65, 32
14, 207060, Note_on_c, 7, 68, 32
14, 207089, Note_on_c, 7, 68, 0
14, 207089, Note_on_c, 7, 58, 0
14, 207089, Note_on_c, 7, 62, 0
14, 207089, Note_on_c, 7, 65, 0
14, 207090, Note_on_c, 7, 58, 32
14, 207090, Note_on_c, 7, 62, 32
14, 207090, Note_on_c, 7, 65, 32
14, 207090, Note_on_c, 7, 68, 32
14, 207119, Note_on_c, 7, 68, 0
14, 207119, Note_on_c, 7, 58, 0
14, 207119, Note_on_c, 7, 62, 0
14, 207119, Note_on_c, 7, 65, 0
14, 207120, Note_on_c, 7, 58, 32
14, 207120, Note_on_c, 7, 62, 32
14, 207120, Note_on_c, 7, 65, 32
14, 207120, Note_on_c, 7, 68, 32
14, 207149, Note_on_c, 7, 68, 0
14, 207149, Note_on_c, 7, 58, 0
14, 207149, Note_on_c, 7, 62, 0
14, 207149, Note_on_c, 7, 65, 0
14, 207150, Note_on_c, 7, 58, 32
14, 207150, Note_on_c, 7, 62, 32
14, 207150, Note_on_c, 7, 65, 32
14, 207150, Note_on_c, 7, 68, 32
14, 207179, Note_on_c, 7, 68, 0
14, 207179, Note_on_c, 7, 58, 0
14, 207179, Note_on_c, 7, 62, 0
14, 207179, Note_on_c, 7, 65, 0
14, 207180, Note_on_c, 7, 58, 32
14, 207180, Note_on_c, 7, 62, 32
14, 207180, Note_on_c, 7, 65, 32
14, 207180, Note_on_c, 7, 68, 32
14, 207209, Note_on_c, 7, 68, 0
14, 207209, Note_on_c, 7, 58, 0
14, 207209, Note_on_c, 7, 62, 0
14, 207209, Note_on_c, 7, 65, 0
14, 207210, Note_on_c, 7, 58, 32
14, 207210, Note_on_c, 7, 62, 32
14, 207210, Note_on_c, 7, 65, 32
14, 207210, Note_on_c, 7, 68, 32
14, 207239, Note_on_c, 7, 68, 0
14, 207239, Note_on_c, 7, 58, 0
14, 207239, Note_on_c, 7, 62, 0
14, 207239, Note_on_c, 7, 65, 0
14, 207240, Note_on_c, 7, 58, 32
14, 207240, Note_on_c, 7, 62, 32
14, 207240, Note_on_c, 7, 65, 32
14, 207240, Note_on_c, 7, 68, 32
14, 207269, Note_on_c, 7, 68, 0
14, 207269, Note_on_c, 7, 58, 0
14, 207269, Note_on_c, 7, 62, 0
14, 207269, Note_on_c, 7, 65, 0
14, 207270, Note_on_c, 7, 58, 32
14, 207270, Note_on_c, 7, 62, 32
14, 207270, Note_on_c, 7, 65, 32
14, 207270, Note_on_c, 7, 68, 32
14, 207299, Note_on_c, 7, 68, 0
14, 207299, Note_on_c, 7, 58, 0
14, 207299, Note_on_c, 7, 62, 0
14, 207299, Note_on_c, 7, 65, 0
14, 207300, Note_on_c, 7, 58, 32
14, 207300, Note_on_c, 7, 62, 32
14, 207300, Note_on_c, 7, 65, 32
14, 207300, Note_on_c, 7, 68, 32
14, 207329, Note_on_c, 7, 68, 0
14, 207329, Note_on_c, 7, 58, 0
14, 207329, Note_on_c, 7, 62, 0
14, 207329, Note_on_c, 7, 65, 0
14, 207330, Note_on_c, 7, 58, 32
14, 207330, Note_on_c, 7, 62, 32
14, 207330, Note_on_c, 7, 65, 32
14, 207330, Note_on_c, 7, 68, 32
14, 207359, Note_on_c, 7, 68, 0
14, 207359, Note_on_c, 7, 58, 0
14, 207359, Note_on_c, 7, 62, 0
14, 207359, Note_on_c, 7, 65, 0
14, 207360, Note_on_c, 7, 58, 32
14, 207360, Note_on_c, 7, 62, 32
14, 207360, Note_on_c, 7, 65, 32
14, 207360, Note_on_c, 7, 68, 32
14, 207389, Note_on_c, 7, 68, 0
14, 207389, Note_on_c, 7, 58, 0
14, 207389, Note_on_c, 7, 62, 0
14, 207389, Note_on_c, 7, 65, 0
14, 207390, Note_on_c, 7, 58, 33
14, 207390, Note_on_c, 7, 62, 33
14, 207390, Note_on_c, 7, 65, 33
14, 207390, Note_on_c, 7, 68, 33
14, 207419, Note_on_c, 7, 68, 0
14, 207419, Note_on_c, 7, 58, 0
14, 207419, Note_on_c, 7, 62, 0
14, 207419, Note_on_c, 7, 65, 0
14, 207420, Note_on_c, 7, 58, 34
14, 207420, Note_on_c, 7, 62, 34
14, 207420, Note_on_c, 7, 65, 34
14, 207420, Note_on_c, 7, 68, 34
14, 207449, Note_on_c, 7, 68, 0
14, 207449, Note_on_c, 7, 58, 0
14, 207449, Note_on_c, 7, 62, 0
14, 207449, Note_on_c, 7, 65, 0
14, 207450, Note_on_c, 7, 58, 35
14, 207450, Note_on_c, 7, 62, 35
14, 207450, Note_on_c, 7, 65, 35
14, 207450, Note_on_c, 7, 68, 35
14, 207479, Note_on_c, 7, 68, 0
14, 207479, Note_on_c, 7, 58, 0
14, 207479, Note_on_c, 7, 62, 0
14, 207479, Note_on_c, 7, 65, 0
14, 207480, Note_on_c, 7, 58, 36
14, 207480, Note_on_c, 7, 62, 36
14, 207480, Note_on_c, 7, 65, 36
14, 207480, Note_on_c, 7, 68, 36
14, 207509, Note_on_c, 7, 68, 0
14, 207509, Note_on_c, 7, 58, 0
14, 207509, Note_on_c, 7, 62, 0
14, 207509, Note_on_c, 7, 65, 0
14, 207510, Note_on_c, 7, 58, 37
14, 207510, Note_on_c, 7, 62, 37
14, 207510, Note_on_c, 7, 65, 37
14, 207510, Note_on_c, 7, 68, 37
14, 207539, Note_on_c, 7, 68, 0
14, 207539, Note_on_c, 7, 58, 0
14, 207539, Note_on_c, 7, 62, 0
14, 207539, Note_on_c, 7, 65, 0
14, 207540, Note_on_c, 7, 58, 38
14, 207540, Note_on_c, 7, 62, 38
14, 207540, Note_on_c, 7, 65, 38
14, 207540, Note_on_c, 7, 68, 38
14, 207569, Note_on_c, 7, 68, 0
14, 207569, Note_on_c, 7, 58, 0
14, 207569, Note_on_c, 7, 62, 0
14, 207569, Note_on_c, 7, 65, 0
14, 207570, Note_on_c, 7, 58, 39
14, 207570, Note_on_c, 7, 62, 39
14, 207570, Note_on_c, 7, 65, 39
14, 207570, Note_on_c, 7, 68, 39
14, 207599, Note_on_c, 7, 68, 0
14, 207599, Note_on_c, 7, 58, 0
14, 207599, Note_on_c, 7, 62, 0
14, 207599, Note_on_c, 7, 65, 0
14, 207600, Note_on_c, 7, 58, 40
14, 207600, Note_on_c, 7, 62, 40
14, 207600, Note_on_c, 7, 65, 40
14, 207600, Note_on_c, 7, 68, 40
14, 207629, Note_on_c, 7, 68, 0
14, 207629, Note_on_c, 7, 58, 0
14, 207629, Note_on_c, 7, 62, 0
14, 207629, Note_on_c, 7, 65, 0
14, 207630, Note_on_c, 7, 58, 41
14, 207630, Note_on_c, 7, 62, 41
14, 207630, Note_on_c, 7, 65, 41
14, 207630, Note_on_c, 7, 68, 41
14, 207659, Note_on_c, 7, 68, 0
14, 207659, Note_on_c, 7, 58, 0
14, 207659, Note_on_c, 7, 62, 0
14, 207659, Note_on_c, 7, 65, 0
14, 207660, Note_on_c, 7, 58, 42
14, 207660, Note_on_c, 7, 62, 42
14, 207660, Note_on_c, 7, 65, 42
14, 207660, Note_on_c, 7, 68, 42
14, 207689, Note_on_c, 7, 68, 0
14, 207689, Note_on_c, 7, 58, 0
14, 207689, Note_on_c, 7, 62, 0
14, 207689, Note_on_c, 7, 65, 0
14, 207690, Note_on_c, 7, 58, 43
14, 207690, Note_on_c, 7, 62, 43
14, 207690, Note_on_c, 7, 65, 43
14, 207690, Note_on_c, 7, 68, 43
14, 207719, Note_on_c, 7, 68, 0
14, 207719, Note_on_c, 7, 58, 0
14, 207719, Note_on_c, 7, 62, 0
14, 207719, Note_on_c, 7, 65, 0
14, 207720, Note_on_c, 7, 58, 44
14, 207720, Note_on_c, 7, 62, 44
14, 207720, Note_on_c, 7, 65, 44
14, 207720, Note_on_c, 7, 68, 44
14, 207749, Note_on_c, 7, 68, 0
14, 207749, Note_on_c, 7, 58, 0
14, 207749, Note_on_c, 7, 62, 0
14, 207749, Note_on_c, 7, 65, 0
14, 207750, Note_on_c, 7, 58, 45
14, 207750, Note_on_c, 7, 62, 45
14, 207750, Note_on_c, 7, 65, 45
14, 207750, Note_on_c, 7, 68, 45
14, 207779, Note_on_c, 7, 68, 0
14, 207779, Note_on_c, 7, 58, 0
14, 207779, Note_on_c, 7, 62, 0
14, 207779, Note_on_c, 7, 65, 0
14, 207780, Note_on_c, 7, 58, 46
14, 207780, Note_on_c, 7, 62, 46
14, 207780, Note_on_c, 7, 65, 46
14, 207780, Note_on_c, 7, 68, 46
14, 207809, Note_on_c, 7, 68, 0
14, 207809, Note_on_c, 7, 58, 0
14, 207809, Note_on_c, 7, 62, 0
14, 207809, Note_on_c, 7, 65, 0
14, 207810, Note_on_c, 7, 58, 47
14, 207810, Note_on_c, 7, 62, 47
14, 207810, Note_on_c, 7, 65, 47
14, 207810, Note_on_c, 7, 68, 47
14, 207839, Note_on_c, 7, 68, 0
14, 207839, Note_on_c, 7, 58, 0
14, 207839, Note_on_c, 7, 62, 0
14, 207839, Note_on_c, 7, 65, 0
14, 207840, Note_on_c, 7, 58, 48
14, 207840, Note_on_c, 7, 62, 48
14, 207840, Note_on_c, 7, 65, 48
14, 207840, Note_on_c, 7, 68, 48
14, 207869, Note_on_c, 7, 68, 0
14, 207869, Note_on_c, 7, 58, 0
14, 207869, Note_on_c, 7, 62, 0
14, 207869, Note_on_c, 7, 65, 0
14, 207870, Note_on_c, 7, 58, 49
14, 207870, Note_on_c, 7, 62, 49
14, 207870, Note_on_c, 7, 65, 49
14, 207870, Note_on_c, 7, 68, 49
14, 207899, Note_on_c, 7, 68, 0
14, 207899, Note_on_c, 7, 58, 0
14, 207899, Note_on_c, 7, 62, 0
14, 207899, Note_on_c, 7, 65, 0
14, 207900, Note_on_c, 7, 58, 50
14, 207900, Note_on_c, 7, 62, 50
14, 207900, Note_on_c, 7, 65, 50
14, 207900, Note_on_c, 7, 68, 50
14, 207929, Note_on_c, 7, 68, 0
14, 207929, Note_on_c, 7, 58, 0
14, 207929, Note_on_c, 7, 62, 0
14, 207929, Note_on_c, 7, 65, 0
14, 207930, Note_on_c, 7, 58, 51
14, 207930, Note_on_c, 7, 62, 51
14, 207930, Note_on_c, 7, 65, 51
14, 207930, Note_on_c, 7, 68, 51
14, 207959, Note_on_c, 7, 68, 0
14, 207959, Note_on_c, 7, 58, 0
14, 207959, Note_on_c, 7, 62, 0
14, 207959, Note_on_c, 7, 65, 0
14, 207960, Note_on_c, 7, 58, 52
14, 207960, Note_on_c, 7, 62, 52
14, 207960, Note_on_c, 7, 65, 52
14, 207960, Note_on_c, 7, 68, 52
14, 207989, Note_on_c, 7, 68, 0
14, 207989, Note_on_c, 7, 58, 0
14, 207989, Note_on_c, 7, 62, 0
14, 207989, Note_on_c, 7, 65, 0
14, 207990, Note_on_c, 7, 58, 53
14, 207990, Note_on_c, 7, 62, 53
14, 207990, Note_on_c, 7, 65, 53
14, 207990, Note_on_c, 7, 68, 53
14, 208019, Note_on_c, 7, 68, 0
14, 208019, Note_on_c, 7, 58, 0
14, 208019, Note_on_c, 7, 62, 0
14, 208019, Note_on_c, 7, 65, 0
14, 208020, Note_on_c, 7, 58, 54
14, 208020, Note_on_c, 7, 62, 54
14, 208020, Note_on_c, 7, 65, 54
14, 208020, Note_on_c, 7, 68, 54
14, 208049, Note_on_c, 7, 68, 0
14, 208049, Note_on_c, 7, 58, 0
14, 208049, Note_on_c, 7, 62, 0
14, 208049, Note_on_c, 7, 65, 0
14, 208050, Note_on_c, 7, 58, 55
14, 208050, Note_on_c, 7, 62, 55
14, 208050, Note_on_c, 7, 65, 55
14, 208050, Note_on_c, 7, 68, 55
14, 208079, Note_on_c, 7, 68, 0
14, 208079, Note_on_c, 7, 58, 0
14, 208079, Note_on_c, 7, 62, 0
14, 208079, Note_on_c, 7, 65, 0
14, 208080, Note_on_c, 7, 58, 56
14, 208080, Note_on_c, 7, 62, 56
14, 208080, Note_on_c, 7, 65, 56
14, 208080, Note_on_c, 7, 68, 56
14, 208109, Note_on_c, 7, 68, 0
14, 208109, Note_on_c, 7, 58, 0
14, 208109, Note_on_c, 7, 62, 0
14, 208109, Note_on_c, 7, 65, 0
14, 208110, Note_on_c, 7, 58, 57
14, 208110, Note_on_c, 7, 62, 57
14, 208110, Note_on_c, 7, 65, 57
14, 208110, Note_on_c, 7, 68, 57
14, 208139, Note_on_c, 7, 68, 0
14, 208139, Note_on_c, 7, 58, 0
14, 208139, Note_on_c, 7, 62, 0
14, 208139, Note_on_c, 7, 65, 0
14, 208140, Note_on_c, 7, 58, 58
14, 208140, Note_on_c, 7, 62, 58
14, 208140, Note_on_c, 7, 65, 58
14, 208140, Note_on_c, 7, 68, 58
14, 208169, Note_on_c, 7, 68, 0
14, 208169, Note_on_c, 7, 58, 0
14, 208169, Note_on_c, 7, 62, 0
14, 208169, Note_on_c, 7, 65, 0
14, 208170, Note_on_c, 7, 58, 59
14, 208170, Note_on_c, 7, 62, 59
14, 208170, Note_on_c, 7, 65, 59
14, 208170, Note_on_c, 7, 68, 59
14, 208199, Note_on_c, 7, 68, 0
14, 208199, Note_on_c, 7, 58, 0
14, 208199, Note_on_c, 7, 62, 0
14, 208199, Note_on_c, 7, 65, 0
14, 208200, Note_on_c, 7, 58, 60
14, 208200, Note_on_c, 7, 62, 60
14, 208200, Note_on_c, 7, 65, 60
14, 208200, Note_on_c, 7, 68, 60
14, 208229, Note_on_c, 7, 68, 0
14, 208229, Note_on_c, 7, 58, 0
14, 208229, Note_on_c, 7, 62, 0
14, 208229, Note_on_c, 7, 65, 0
14, 208230, Note_on_c, 7, 58, 61
14, 208230, Note_on_c, 7, 62, 61
14, 208230, Note_on_c, 7, 65, 61
14, 208230, Note_on_c, 7, 68, 61
14, 208259, Note_on_c, 7, 68, 0
14, 208259, Note_on_c, 7, 58, 0
14, 208259, Note_on_c, 7, 62, 0
14, 208259, Note_on_c, 7, 65, 0
14, 208260, Note_on_c, 7, 58, 62
14, 208260, Note_on_c, 7, 62, 62
14, 208260, Note_on_c, 7, 65, 62
14, 208260, Note_on_c, 7, 68, 62
14, 208289, Note_on_c, 7, 68, 0
14, 208289, Note_on_c, 7, 58, 0
14, 208289, Note_on_c, 7, 62, 0
14, 208289, Note_on_c, 7, 65, 0
14, 208290, Note_on_c, 7, 58, 63
14, 208290, Note_on_c, 7, 62, 63
14, 208290, Note_on_c, 7, 65, 63
14, 208290, Note_on_c, 7, 68, 63
14, 208319, Note_on_c, 7, 68, 0
14, 208319, Note_on_c, 7, 58, 0
14, 208319, Note_on_c, 7, 62, 0
14, 208319, Note_on_c, 7, 65, 0
14, 208320, Note_on_c, 7, 68, 64
14, 208320, Note_on_c, 7, 70, 64
14, 208349, Note_on_c, 7, 70, 0
14, 208349, Note_on_c, 7, 68, 0
14, 208350, Note_on_c, 7, 68, 66
14, 208350, Note_on_c, 7, 70, 66
14, 208379, Note_on_c, 7, 70, 0
14, 208379, Note_on_c, 7, 68, 0
14, 208380, Note_on_c, 7, 67, 68
14, 208380, Note_on_c, 7, 72, 68
14, 208409, Note_on_c, 7, 72, 0
14, 208409, Note_on_c, 7, 67, 0
14, 208410, Note_on_c, 7, 67, 70
14, 208410, Note_on_c, 7, 72, 70
14, 208439, Note_on_c, 7, 72, 0
14, 208439, Note_on_c, 7, 67, 0
14, 208440, Note_on_c, 7, 65, 72
14, 208440, Note_on_c, 7, 74, 72
14, 208469, Note_on_c, 7, 74, 0
14, 208469, Note_on_c, 7, 65, 0
14, 208470, Note_on_c, 7, 65, 74
14, 208470, Note_on_c, 7, 74, 74
14, 208499, Note_on_c, 7, 74, 0
14, 208499, Note_on_c, 7, 65, 0
14, 208500, Note_on_c, 7, 63, 76
14, 208500, Note_on_c, 7, 75, 76
14, 208529, Note_on_c, 7, 75, 0
14, 208529, Note_on_c, 7, 63, 0
14, 208530, Note_on_c, 7, 63, 78
14, 208530, Note_on_c, 7, 75, 78
14, 208559, Note_on_c, 7, 75, 0
14, 208559, Note_on_c, 7, 63, 0
14, 208560, Note_on_c, 7, 62, 80
14, 208560, Note_on_c, 7, 77, 80
14, 208589, Note_on_c, 7, 77, 0
14, 208589, Note_on_c, 7, 62, 0
14, 208590, Note_on_c, 7, 62, 82
14, 208590, Note_on_c, 7, 77, 82
14, 208619, Note_on_c, 7, 77, 0
14, 208619, Note_on_c, 7, 62, 0
14, 208620, Note_on_c, 7, 63, 84
14, 208620, Note_on_c, 7, 79, 84
14, 208649, Note_on_c, 7, 79, 0
14, 208649, Note_on_c, 7, 63, 0
14, 208650, Note_on_c, 7, 63, 86
14, 208650, Note_on_c, 7, 79, 86
14, 208679, Note_on_c, 7, 79, 0
14, 208679, Note_on_c, 7, 63, 0
14, 208680, Note_on_c, 7, 65, 88
14, 208680, Note_on_c, 7, 80, 88
14, 208709, Note_on_c, 7, 80, 0
14, 208709, Note_on_c, 7, 65, 0
14, 208710, Note_on_c, 7, 65, 90
14, 208710, Note_on_c, 7, 80, 90
14, 208739, Note_on_c, 7, 80, 0
14, 208739, Note_on_c, 7, 65, 0
14, 208740, Note_on_c, 7, 68, 92
14, 208740, Note_on_c, 7, 74, 92
14, 208769, Note_on_c, 7, 74, 0
14, 208769, Note_on_c, 7, 68, 0
14, 208770, Note_on_c, 7, 68, 92
14, 208770, Note_on_c, 7, 74, 94
14, 208799, Note_on_c, 7, 74, 0
14, 208799, Note_on_c, 7, 68, 0
14, 208800, Note_on_c, 7, 67, 96
14, 208800, Note_on_c, 7, 75, 96
14, 208829, Note_on_c, 7, 75, 0
14, 208829, Note_on_c, 7, 67, 0
14, 208830, Note_on_c, 7, 63, 96
14, 208830, Note_on_c, 7, 75, 96
14, 208859, Note_on_c, 7, 75, 0
14, 208859, Note_on_c, 7, 63, 0
14, 208860, Note_on_c, 7, 63, 96
14, 208860, Note_on_c, 7, 75, 96
14, 208889, Note_on_c, 7, 75, 0
14, 208889, Note_on_c, 7, 63, 0
14, 208890, Note_on_c, 7, 63, 96
14, 208890, Note_on_c, 7, 75, 96
14, 208919, Note_on_c, 7, 75, 0
14, 208919, Note_on_c, 7, 63, 0
14, 208920, Note_on_c, 7, 63, 96
14, 208920, Note_on_c, 7, 75, 96
14, 208949, Note_on_c, 7, 75, 0
14, 208949, Note_on_c, 7, 63, 0
14, 208950, Note_on_c, 7, 63, 96
14, 208950, Note_on_c, 7, 75, 96
14, 208979, Note_on_c, 7, 75, 0
14, 208979, Note_on_c, 7, 63, 0
14, 208980, Note_on_c, 7, 63, 96
14, 208980, Note_on_c, 7, 75, 96
14, 209009, Note_on_c, 7, 75, 0
14, 209009, Note_on_c, 7, 63, 0
14, 209010, Note_on_c, 7, 63, 96
14, 209010, Note_on_c, 7, 75, 96
14, 209039, Note_on_c, 7, 75, 0
14, 209039, Note_on_c, 7, 63, 0
14, 209040, Note_on_c, 7, 67, 96
14, 209040, Note_on_c, 7, 79, 96
14, 209069, Note_on_c, 7, 79, 0
14, 209069, Note_on_c, 7, 67, 0
14, 209070, Note_on_c, 7, 67, 96
14, 209070, Note_on_c, 7, 79, 96
14, 209099, Note_on_c, 7, 79, 0
14, 209099, Note_on_c, 7, 67, 0
14, 209100, Note_on_c, 7, 67, 96
14, 209100, Note_on_c, 7, 79, 96
14, 209129, Note_on_c, 7, 79, 0
14, 209129, Note_on_c, 7, 67, 0
14, 209130, Note_on_c, 7, 67, 96
14, 209130, Note_on_c, 7, 79, 96
14, 209159, Note_on_c, 7, 79, 0
14, 209159, Note_on_c, 7, 67, 0
14, 209160, Note_on_c, 7, 63, 96
14, 209160, Note_on_c, 7, 75, 96
14, 209189, Note_on_c, 7, 75, 0
14, 209189, Note_on_c, 7, 63, 0
14, 209190, Note_on_c, 7, 63, 96
14, 209190, Note_on_c, 7, 75, 96
14, 209219, Note_on_c, 7, 75, 0
14, 209219, Note_on_c, 7, 63, 0
14, 209220, Note_on_c, 7, 63, 96
14, 209220, Note_on_c, 7, 75, 96
14, 209249, Note_on_c, 7, 75, 0
14, 209249, Note_on_c, 7, 63, 0
14, 209250, Note_on_c, 7, 63, 96
14, 209250, Note_on_c, 7, 75, 96
14, 209279, Note_on_c, 7, 75, 0
14, 209279, Note_on_c, 7, 63, 0
14, 209280, Note_on_c, 7, 63, 96
14, 209280, Note_on_c, 7, 75, 96
14, 209309, Note_on_c, 7, 75, 0
14, 209309, Note_on_c, 7, 63, 0
14, 209310, Note_on_c, 7, 63, 96
14, 209310, Note_on_c, 7, 75, 96
14, 209339, Note_on_c, 7, 75, 0
14, 209339, Note_on_c, 7, 63, 0
14, 209340, Note_on_c, 7, 63, 96
14, 209340, Note_on_c, 7, 75, 96
14, 209369, Note_on_c, 7, 75, 0
14, 209369, Note_on_c, 7, 63, 0
14, 209370, Note_on_c, 7, 63, 96
14, 209370, Note_on_c, 7, 75, 96
14, 209399, Note_on_c, 7, 75, 0
14, 209399, Note_on_c, 7, 63, 0
14, 209400, Note_on_c, 7, 58, 96
14, 209400, Note_on_c, 7, 70, 96
14, 209429, Note_on_c, 7, 70, 0
14, 209429, Note_on_c, 7, 58, 0
14, 209430, Note_on_c, 7, 58, 96
14, 209430, Note_on_c, 7, 70, 96
14, 209459, Note_on_c, 7, 70, 0
14, 209459, Note_on_c, 7, 58, 0
14, 209460, Note_on_c, 7, 58, 96
14, 209460, Note_on_c, 7, 70, 96
14, 209489, Note_on_c, 7, 70, 0
14, 209489, Note_on_c, 7, 58, 0
14, 209490, Note_on_c, 7, 58, 96
14, 209490, Note_on_c, 7, 70, 96
14, 209519, Note_on_c, 7, 70, 0
14, 209519, Note_on_c, 7, 58, 0
14, 209520, Note_on_c, 7, 63, 96
14, 209520, Note_on_c, 7, 75, 96
14, 209549, Note_on_c, 7, 75, 0
14, 209549, Note_on_c, 7, 63, 0
14, 209550, Note_on_c, 7, 63, 96
14, 209550, Note_on_c, 7, 75, 96
14, 209579, Note_on_c, 7, 75, 0
14, 209579, Note_on_c, 7, 63, 0
14, 209580, Note_on_c, 7, 63, 96
14, 209580, Note_on_c, 7, 75, 96
14, 209609, Note_on_c, 7, 75, 0
14, 209609, Note_on_c, 7, 63, 0
14, 209610, Note_on_c, 7, 63, 96
14, 209610, Note_on_c, 7, 75, 96
14, 209639, Note_on_c, 7, 75, 0
14, 209639, Note_on_c, 7, 63, 0
14, 209640, Note_on_c, 7, 67, 96
14, 209640, Note_on_c, 7, 79, 96
14, 209669, Note_on_c, 7, 79, 0
14, 209669, Note_on_c, 7, 67, 0
14, 209670, Note_on_c, 7, 67, 96
14, 209670, Note_on_c, 7, 79, 96
14, 209699, Note_on_c, 7, 79, 0
14, 209699, Note_on_c, 7, 67, 0
14, 209700, Note_on_c, 7, 67, 96
14, 209700, Note_on_c, 7, 79, 96
14, 209729, Note_on_c, 7, 79, 0
14, 209729, Note_on_c, 7, 67, 0
14, 209730, Note_on_c, 7, 67, 96
14, 209730, Note_on_c, 7, 79, 96
14, 209759, Note_on_c, 7, 79, 0
14, 209759, Note_on_c, 7, 67, 0
14, 209760, Note_on_c, 7, 70, 96
14, 209760, Note_on_c, 7, 82, 96
14, 209789, Note_on_c, 7, 82, 0
14, 209789, Note_on_c, 7, 70, 0
14, 209790, Note_on_c, 7, 70, 96
14, 209790, Note_on_c, 7, 82, 96
14, 209819, Note_on_c, 7, 82, 0
14, 209819, Note_on_c, 7, 70, 0
14, 209820, Note_on_c, 7, 70, 96
14, 209820, Note_on_c, 7, 82, 96
14, 209849, Note_on_c, 7, 82, 0
14, 209849, Note_on_c, 7, 70, 0
14, 209850, Note_on_c, 7, 70, 96
14, 209850, Note_on_c, 7, 82, 96
14, 209879, Note_on_c, 7, 82, 0
14, 209879, Note_on_c, 7, 70, 0
14, 209880, Note_on_c, 7, 63, 96
14, 209880, Note_on_c, 7, 75, 96
14, 209909, Note_on_c, 7, 75, 0
14, 209909, Note_on_c, 7, 63, 0
14, 209910, Note_on_c, 7, 63, 96
14, 209910, Note_on_c, 7, 75, 96
14, 209939, Note_on_c, 7, 75, 0
14, 209939, Note_on_c, 7, 63, 0
14, 209940, Note_on_c, 7, 63, 96
14, 209940, Note_on_c, 7, 75, 96
14, 209969, Note_on_c, 7, 75, 0
14, 209969, Note_on_c, 7, 63, 0
14, 209970, Note_on_c, 7, 63, 96
14, 209970, Note_on_c, 7, 75, 96
14, 209999, Note_on_c, 7, 75, 0
14, 209999, Note_on_c, 7, 63, 0
14, 210000, Note_on_c, 7, 63, 96
14, 210000, Note_on_c, 7, 75, 96
14, 210029, Note_on_c, 7, 75, 0
14, 210029, Note_on_c, 7, 63, 0
14, 210030, Note_on_c, 7, 63, 96
14, 210030, Note_on_c, 7, 75, 96
14, 210059, Note_on_c, 7, 75, 0
14, 210059, Note_on_c, 7, 63, 0
14, 210060, Note_on_c, 7, 63, 96
14, 210060, Note_on_c, 7, 75, 96
14, 210089, Note_on_c, 7, 75, 0
14, 210089, Note_on_c, 7, 63, 0
14, 210090, Note_on_c, 7, 63, 96
14, 210090, Note_on_c, 7, 75, 96
14, 210119, Note_on_c, 7, 75, 0
14, 210119, Note_on_c, 7, 63, 0
14, 210120, Note_on_c, 7, 64, 112
14, 210120, Note_on_c, 7, 76, 112
14, 210149, Note_on_c, 7, 76, 0
14, 210149, Note_on_c, 7, 64, 0
14, 210150, Note_on_c, 7, 64, 96
14, 210150, Note_on_c, 7, 76, 96
14, 210179, Note_on_c, 7, 76, 0
14, 210179, Note_on_c, 7, 64, 0
14, 210180, Note_on_c, 7, 64, 96
14, 210180, Note_on_c, 7, 76, 96
14, 210209, Note_on_c, 7, 76, 0
14, 210209, Note_on_c, 7, 64, 0
14, 210210, Note_on_c, 7, 64, 96
14, 210210, Note_on_c, 7, 76, 96
14, 210239, Note_on_c, 7, 76, 0
14, 210239, Note_on_c, 7, 64, 0
14, 210240, Note_on_c, 7, 65, 96
14, 210240, Note_on_c, 7, 77, 96
14, 210269, Note_on_c, 7, 77, 0
14, 210269, Note_on_c, 7, 65, 0
14, 210270, Note_on_c, 7, 65, 96
14, 210270, Note_on_c, 7, 77, 96
14, 210299, Note_on_c, 7, 77, 0
14, 210299, Note_on_c, 7, 65, 0
14, 210300, Note_on_c, 7, 65, 96
14, 210300, Note_on_c, 7, 77, 96
14, 210329, Note_on_c, 7, 77, 0
14, 210329, Note_on_c, 7, 65, 0
14, 210330, Note_on_c, 7, 65, 96
14, 210330, Note_on_c, 7, 77, 96
14, 210359, Note_on_c, 7, 77, 0
14, 210359, Note_on_c, 7, 65, 0
14, 210360, Note_on_c, 7, 68, 96
14, 210360, Note_on_c, 7, 80, 96
14, 210389, Note_on_c, 7, 80, 0
14, 210389, Note_on_c, 7, 68, 0
14, 210390, Note_on_c, 7, 68, 96
14, 210390, Note_on_c, 7, 80, 96
14, 210419, Note_on_c, 7, 80, 0
14, 210419, Note_on_c, 7, 68, 0
14, 210420, Note_on_c, 7, 68, 96
14, 210420, Note_on_c, 7, 80, 96
14, 210449, Note_on_c, 7, 80, 0
14, 210449, Note_on_c, 7, 68, 0
14, 210450, Note_on_c, 7, 68, 96
14, 210450, Note_on_c, 7, 80, 96
14, 210479, Note_on_c, 7, 80, 0
14, 210479, Note_on_c, 7, 68, 0
14, 210480, Note_on_c, 7, 72, 96
14, 210480, Note_on_c, 7, 84, 96
14, 210509, Note_on_c, 7, 84, 0
14, 210509, Note_on_c, 7, 72, 0
14, 210510, Note_on_c, 7, 72, 96
14, 210510, Note_on_c, 7, 84, 96
14, 210539, Note_on_c, 7, 84, 0
14, 210539, Note_on_c, 7, 72, 0
14, 210540, Note_on_c, 7, 72, 96
14, 210540, Note_on_c, 7, 84, 96
14, 210569, Note_on_c, 7, 84, 0
14, 210569, Note_on_c, 7, 72, 0
14, 210570, Note_on_c, 7, 72, 96
14, 210570, Note_on_c, 7, 84, 96
14, 210599, Note_on_c, 7, 84, 0
14, 210599, Note_on_c, 7, 72, 0
14, 210600, Note_on_c, 7, 65, 96
14, 210600, Note_on_c, 7, 77, 96
14, 210629, Note_on_c, 7, 77, 0
14, 210629, Note_on_c, 7, 65, 0
14, 210630, Note_on_c, 7, 65, 96
14, 210630, Note_on_c, 7, 77, 96
14, 210659, Note_on_c, 7, 77, 0
14, 210659, Note_on_c, 7, 65, 0
14, 210660, Note_on_c, 7, 65, 96
14, 210660, Note_on_c, 7, 77, 96
14, 210689, Note_on_c, 7, 77, 0
14, 210689, Note_on_c, 7, 65, 0
14, 210690, Note_on_c, 7, 65, 96
14, 210690, Note_on_c, 7, 77, 96
14, 210719, Note_on_c, 7, 77, 0
14, 210719, Note_on_c, 7, 65, 0
14, 210720, Note_on_c, 7, 65, 96
14, 210720, Note_on_c, 7, 77, 96
14, 210749, Note_on_c, 7, 77, 0
14, 210749, Note_on_c, 7, 65, 0
14, 210750, Note_on_c, 7, 65, 96
14, 210750, Note_on_c, 7, 77, 96
14, 210779, Note_on_c, 7, 77, 0
14, 210779, Note_on_c, 7, 65, 0
14, 210780, Note_on_c, 7, 65, 96
14, 210780, Note_on_c, 7, 77, 96
14, 210809, Note_on_c, 7, 77, 0
14, 210809, Note_on_c, 7, 65, 0
14, 210810, Note_on_c, 7, 65, 96
14, 210810, Note_on_c, 7, 77, 96
14, 210839, Note_on_c, 7, 77, 0
14, 210839, Note_on_c, 7, 65, 0
14, 210840, Note_on_c, 7, 66, 112
14, 210840, Note_on_c, 7, 78, 112
14, 210869, Note_on_c, 7, 78, 0
14, 210869, Note_on_c, 7, 66, 0
14, 210870, Note_on_c, 7, 66, 96
14, 210870, Note_on_c, 7, 78, 96
14, 210899, Note_on_c, 7, 78, 0
14, 210899, Note_on_c, 7, 66, 0
14, 210900, Note_on_c, 7, 66, 96
14, 210900, Note_on_c, 7, 78, 96
14, 210929, Note_on_c, 7, 78, 0
14, 210929, Note_on_c, 7, 66, 0
14, 210930, Note_on_c, 7, 66, 96
14, 210930, Note_on_c, 7, 78, 96
14, 210959, Note_on_c, 7, 78, 0
14, 210959, Note_on_c, 7, 66, 0
14, 210960, Note_on_c, 7, 67, 112
14, 210960, Note_on_c, 7, 79, 112
14, 210989, Note_on_c, 7, 79, 0
14, 210989, Note_on_c, 7, 67, 0
14, 210990, Note_on_c, 7, 67, 112
14, 210990, Note_on_c, 7, 79, 112
14, 211019, Note_on_c, 7, 79, 0
14, 211019, Note_on_c, 7, 67, 0
14, 211020, Note_on_c, 7, 67, 112
14, 211020, Note_on_c, 7, 79, 112
14, 211049, Note_on_c, 7, 79, 0
14, 211049, Note_on_c, 7, 67, 0
14, 211050, Note_on_c, 7, 67, 112
14, 211050, Note_on_c, 7, 79, 112
14, 211079, Note_on_c, 7, 79, 0
14, 211079, Note_on_c, 7, 67, 0
14, 211080, Note_on_c, 7, 70, 112
14, 211080, Note_on_c, 7, 82, 112
14, 211109, Note_on_c, 7, 82, 0
14, 211109, Note_on_c, 7, 70, 0
14, 211110, Note_on_c, 7, 70, 112
14, 211110, Note_on_c, 7, 82, 112
14, 211139, Note_on_c, 7, 82, 0
14, 211139, Note_on_c, 7, 70, 0
14, 211140, Note_on_c, 7, 70, 112
14, 211140, Note_on_c, 7, 82, 112
14, 211169, Note_on_c, 7, 82, 0
14, 211169, Note_on_c, 7, 70, 0
14, 211170, Note_on_c, 7, 70, 112
14, 211170, Note_on_c, 7, 82, 112
14, 211199, Note_on_c, 7, 82, 0
14, 211199, Note_on_c, 7, 70, 0
14, 211200, Note_on_c, 7, 73, 112
14, 211200, Note_on_c, 7, 85, 112
14, 211229, Note_on_c, 7, 85, 0
14, 211229, Note_on_c, 7, 73, 0
14, 211230, Note_on_c, 7, 73, 112
14, 211230, Note_on_c, 7, 85, 112
14, 211259, Note_on_c, 7, 85, 0
14, 211259, Note_on_c, 7, 73, 0
14, 211260, Note_on_c, 7, 73, 112
14, 211260, Note_on_c, 7, 85, 112
14, 211289, Note_on_c, 7, 85, 0
14, 211289, Note_on_c, 7, 73, 0
14, 211290, Note_on_c, 7, 73, 112
14, 211290, Note_on_c, 7, 85, 112
14, 211319, Note_on_c, 7, 85, 0
14, 211319, Note_on_c, 7, 73, 0
14, 211320, Note_on_c, 7, 68, 112
14, 211320, Note_on_c, 7, 80, 112
14, 211349, Note_on_c, 7, 80, 0
14, 211349, Note_on_c, 7, 68, 0
14, 211350, Note_on_c, 7, 68, 112
14, 211350, Note_on_c, 7, 80, 112
14, 211379, Note_on_c, 7, 80, 0
14, 211379, Note_on_c, 7, 68, 0
14, 211380, Note_on_c, 7, 68, 112
14, 211380, Note_on_c, 7, 80, 112
14, 211409, Note_on_c, 7, 80, 0
14, 211409, Note_on_c, 7, 68, 0
14, 211410, Note_on_c, 7, 68, 112
14, 211410, Note_on_c, 7, 80, 112
14, 211439, Note_on_c, 7, 80, 0
14, 211439, Note_on_c, 7, 68, 0
14, 211440, Note_on_c, 7, 72, 112
14, 211440, Note_on_c, 7, 84, 112
14, 211469, Note_on_c, 7, 84, 0
14, 211469, Note_on_c, 7, 72, 0
14, 211470, Note_on_c, 7, 72, 112
14, 211470, Note_on_c, 7, 84, 112
14, 211499, Note_on_c, 7, 84, 0
14, 211499, Note_on_c, 7, 72, 0
14, 211500, Note_on_c, 7, 72, 112
14, 211500, Note_on_c, 7, 84, 112
14, 211529, Note_on_c, 7, 84, 0
14, 211529, Note_on_c, 7, 72, 0
14, 211530, Note_on_c, 7, 72, 112
14, 211530, Note_on_c, 7, 84, 112
14, 211559, Note_on_c, 7, 84, 0
14, 211559, Note_on_c, 7, 72, 0
14, 211560, Note_on_c, 7, 75, 112
14, 211560, Note_on_c, 7, 87, 112
14, 211589, Note_on_c, 7, 87, 0
14, 211589, Note_on_c, 7, 75, 0
14, 211590, Note_on_c, 7, 75, 112
14, 211590, Note_on_c, 7, 87, 112
14, 211619, Note_on_c, 7, 87, 0
14, 211619, Note_on_c, 7, 75, 0
14, 211620, Note_on_c, 7, 75, 112
14, 211620, Note_on_c, 7, 87, 112
14, 211649, Note_on_c, 7, 87, 0
14, 211649, Note_on_c, 7, 75, 0
14, 211650, Note_on_c, 7, 75, 112
14, 211650, Note_on_c, 7, 87, 112
14, 211679, Note_on_c, 7, 87, 0
14, 211679, Note_on_c, 7, 75, 0
14, 211680, Note_on_c, 7, 68, 112
14, 211680, Note_on_c, 7, 80, 112
14, 211709, Note_on_c, 7, 80, 0
14, 211709, Note_on_c, 7, 68, 0
14, 211710, Note_on_c, 7, 68, 112
14, 211710, Note_on_c, 7, 80, 112
14, 211739, Note_on_c, 7, 80, 0
14, 211739, Note_on_c, 7, 68, 0
14, 211740, Note_on_c, 7, 68, 112
14, 211740, Note_on_c, 7, 80, 112
14, 211769, Note_on_c, 7, 80, 0
14, 211769, Note_on_c, 7, 68, 0
14, 211770, Note_on_c, 7, 68, 112
14, 211770, Note_on_c, 7, 80, 112
14, 211799, Note_on_c, 7, 80, 0
14, 211799, Note_on_c, 7, 68, 0
14, 211800, Note_on_c, 7, 74, 112
14, 211800, Note_on_c, 7, 86, 112
14, 211829, Note_on_c, 7, 86, 0
14, 211829, Note_on_c, 7, 74, 0
14, 211830, Note_on_c, 7, 74, 112
14, 211830, Note_on_c, 7, 86, 112
14, 211859, Note_on_c, 7, 86, 0
14, 211859, Note_on_c, 7, 74, 0
14, 211860, Note_on_c, 7, 74, 112
14, 211860, Note_on_c, 7, 86, 112
14, 211889, Note_on_c, 7, 86, 0
14, 211889, Note_on_c, 7, 74, 0
14, 211890, Note_on_c, 7, 74, 112
14, 211890, Note_on_c, 7, 86, 112
14, 211919, Note_on_c, 7, 86, 0
14, 211919, Note_on_c, 7, 74, 0
14, 211920, Note_on_c, 7, 77, 112
14, 211920, Note_on_c, 7, 89, 112
14, 211949, Note_on_c, 7, 89, 0
14, 211949, Note_on_c, 7, 77, 0
14, 211950, Note_on_c, 7, 77, 112
14, 211950, Note_on_c, 7, 89, 112
14, 211979, Note_on_c, 7, 89, 0
14, 211979, Note_on_c, 7, 77, 0
14, 211980, Note_on_c, 7, 77, 112
14, 211980, Note_on_c, 7, 89, 112
14, 212009, Note_on_c, 7, 89, 0
14, 212009, Note_on_c, 7, 77, 0
14, 212010, Note_on_c, 7, 77, 112
14, 212010, Note_on_c, 7, 89, 112
14, 212039, Note_on_c, 7, 89, 0
14, 212039, Note_on_c, 7, 77, 0
14, 212040, Note_on_c, 7, 80, 112
14, 212040, Note_on_c, 7, 92, 112
14, 212069, Note_on_c, 7, 92, 0
14, 212069, Note_on_c, 7, 80, 0
14, 212070, Note_on_c, 7, 80, 112
14, 212070, Note_on_c, 7, 92, 112
14, 212099, Note_on_c, 7, 92, 0
14, 212099, Note_on_c, 7, 80, 0
14, 212100, Note_on_c, 7, 80, 112
14, 212100, Note_on_c, 7, 92, 112
14, 212129, Note_on_c, 7, 92, 0
14, 212129, Note_on_c, 7, 80, 0
14, 212130, Note_on_c, 7, 80, 112
14, 212130, Note_on_c, 7, 92, 112
14, 212159, Note_on_c, 7, 92, 0
14, 212159, Note_on_c, 7, 80, 0
14, 212160, Note_on_c, 7, 80, 112
14, 212160, Note_on_c, 7, 92, 112
14, 212189, Note_on_c, 7, 92, 0
14, 212189, Note_on_c, 7, 80, 0
14, 212190, Note_on_c, 7, 80, 112
14, 212190, Note_on_c, 7, 92, 112
14, 212219, Note_on_c, 7, 92, 0
14, 212219, Note_on_c, 7, 80, 0
14, 212220, Note_on_c, 7, 80, 112
14, 212220, Note_on_c, 7, 92, 112
14, 212249, Note_on_c, 7, 92, 0
14, 212249, Note_on_c, 7, 80, 0
14, 212250, Note_on_c, 7, 80, 112
14, 212250, Note_on_c, 7, 92, 112
14, 212279, Note_on_c, 7, 92, 0
14, 212279, Note_on_c, 7, 80, 0
14, 212280, Note_on_c, 7, 80, 112
14, 212280, Note_on_c, 7, 92, 112
14, 212309, Note_on_c, 7, 92, 0
14, 212309, Note_on_c, 7, 80, 0
14, 212310, Note_on_c, 7, 80, 112
14, 212310, Note_on_c, 7, 92, 112
14, 212339, Note_on_c, 7, 92, 0
14, 212339, Note_on_c, 7, 80, 0
14, 212340, Note_on_c, 7, 80, 112
14, 212340, Note_on_c, 7, 92, 112
14, 212369, Note_on_c, 7, 92, 0
14, 212369, Note_on_c, 7, 80, 0
14, 212370, Note_on_c, 7, 80, 112
14, 212370, Note_on_c, 7, 92, 112
14, 212399, Note_on_c, 7, 92, 0
14, 212399, Note_on_c, 7, 80, 0
14, 212400, Note_on_c, 7, 79, 127
14, 212400, Note_on_c, 7, 91, 127
14, 212429, Note_on_c, 7, 91, 0
14, 212429, Note_on_c, 7, 79, 0
14, 212430, Note_on_c, 7, 87, 127
14, 212430, Note_on_c, 7, 75, 127
14, 212430, Note_on_c, 7, 91, 127
14, 212459, Note_on_c, 7, 91, 0
14, 212459, Note_on_c, 7, 75, 0
14, 212459, Note_on_c, 7, 87, 0
14, 212460, Note_on_c, 7, 87, 127
14, 212460, Note_on_c, 7, 75, 127
14, 212460, Note_on_c, 7, 91, 127
14, 212489, Note_on_c, 7, 91, 0
14, 212489, Note_on_c, 7, 75, 0
14, 212489, Note_on_c, 7, 87, 0
14, 212490, Note_on_c, 7, 87, 127
14, 212490, Note_on_c, 7, 75, 127
14, 212490, Note_on_c, 7, 91, 127
14, 212519, Note_on_c, 7, 91, 0
14, 212519, Note_on_c, 7, 75, 0
14, 212519, Note_on_c, 7, 87, 0
14, 212520, Note_on_c, 7, 87, 127
14, 212520, Note_on_c, 7, 75, 127
14, 212520, Note_on_c, 7, 91, 127
14, 212549, Note_on_c, 7, 91, 0
14, 212549, Note_on_c, 7, 75, 0
14, 212549, Note_on_c, 7, 87, 0
14, 212550, Note_on_c, 7, 87, 127
14, 212550, Note_on_c, 7, 75, 127
14, 212550, Note_on_c, 7, 91, 127
14, 212579, Note_on_c, 7, 91, 0
14, 212579, Note_on_c, 7, 75, 0
14, 212579, Note_on_c, 7, 87, 0
14, 212580, Note_on_c, 7, 87, 127
14, 212580, Note_on_c, 7, 75, 127
14, 212580, Note_on_c, 7, 91, 127
14, 212609, Note_on_c, 7, 91, 0
14, 212609, Note_on_c, 7, 75, 0
14, 212609, Note_on_c, 7, 87, 0
14, 212610, Note_on_c, 7, 87, 127
14, 212610, Note_on_c, 7, 75, 127
14, 212610, Note_on_c, 7, 91, 127
14, 212639, Note_on_c, 7, 91, 0
14, 212639, Note_on_c, 7, 75, 0
14, 212639, Note_on_c, 7, 87, 0
14, 212640, Note_on_c, 7, 87, 127
14, 212640, Note_on_c, 7, 75, 127
14, 212640, Note_on_c, 7, 91, 127
14, 212669, Note_on_c, 7, 91, 0
14, 212669, Note_on_c, 7, 75, 0
14, 212669, Note_on_c, 7, 87, 0
14, 212670, Note_on_c, 7, 87, 127
14, 212670, Note_on_c, 7, 75, 127
14, 212670, Note_on_c, 7, 91, 127
14, 212699, Note_on_c, 7, 91, 0
14, 212699, Note_on_c, 7, 75, 0
14, 212699, Note_on_c, 7, 87, 0
14, 212700, Note_on_c, 7, 87, 127
14, 212700, Note_on_c, 7, 75, 127
14, 212700, Note_on_c, 7, 91, 127
14, 212729, Note_on_c, 7, 91, 0
14, 212729, Note_on_c, 7, 75, 0
14, 212729, Note_on_c, 7, 87, 0
14, 212730, Note_on_c, 7, 87, 127
14, 212730, Note_on_c, 7, 75, 127
14, 212730, Note_on_c, 7, 91, 127
14, 212759, Note_on_c, 7, 91, 0
14, 212759, Note_on_c, 7, 75, 0
14, 212759, Note_on_c, 7, 87, 0
14, 212760, Note_on_c, 7, 87, 127
14, 212760, Note_on_c, 7, 75, 127
14, 212760, Note_on_c, 7, 91, 127
14, 212789, Note_on_c, 7, 91, 0
14, 212789, Note_on_c, 7, 75, 0
14, 212789, Note_on_c, 7, 87, 0
14, 212790, Note_on_c, 7, 87, 127
14, 212790, Note_on_c, 7, 75, 127
14, 212790, Note_on_c, 7, 91, 127
14, 212819, Note_on_c, 7, 91, 0
14, 212819, Note_on_c, 7, 75, 0
14, 212819, Note_on_c, 7, 87, 0
14, 212820, Note_on_c, 7, 87, 127
14, 212820, Note_on_c, 7, 75, 127
14, 212820, Note_on_c, 7, 91, 127
14, 212849, Note_on_c, 7, 91, 0
14, 212849, Note_on_c, 7, 75, 0
14, 212849, Note_on_c, 7, 87, 0
14, 212850, Note_on_c, 7, 87, 127
14, 212850, Note_on_c, 7, 75, 127
14, 212850, Note_on_c, 7, 91, 127
14, 212879, Note_on_c, 7, 91, 0
14, 212879, Note_on_c, 7, 75, 0
14, 212879, Note_on_c, 7, 87, 0
14, 212880, Note_on_c, 7, 87, 127
14, 212880, Note_on_c, 7, 75, 127
14, 212880, Note_on_c, 7, 91, 127
14, 212909, Note_on_c, 7, 91, 0
14, 212909, Note_on_c, 7, 75, 0
14, 212909, Note_on_c, 7, 87, 0
14, 212910, Note_on_c, 7, 87, 127
14, 212910, Note_on_c, 7, 75, 127
14, 212910, Note_on_c, 7, 91, 127
14, 212939, Note_on_c, 7, 91, 0
14, 212939, Note_on_c, 7, 75, 0
14, 212939, Note_on_c, 7, 87, 0
14, 212940, Note_on_c, 7, 87, 127
14, 212940, Note_on_c, 7, 75, 127
14, 212940, Note_on_c, 7, 91, 127
14, 212969, Note_on_c, 7, 91, 0
14, 212969, Note_on_c, 7, 75, 0
14, 212969, Note_on_c, 7, 87, 0
14, 212970, Note_on_c, 7, 87, 127
14, 212970, Note_on_c, 7, 75, 127
14, 212970, Note_on_c, 7, 91, 127
14, 212999, Note_on_c, 7, 91, 0
14, 212999, Note_on_c, 7, 75, 0
14, 212999, Note_on_c, 7, 87, 0
14, 213000, Note_on_c, 7, 87, 127
14, 213000, Note_on_c, 7, 75, 127
14, 213000, Note_on_c, 7, 91, 127
14, 213029, Note_on_c, 7, 91, 0
14, 213029, Note_on_c, 7, 75, 0
14, 213029, Note_on_c, 7, 87, 0
14, 213030, Note_on_c, 7, 87, 127
14, 213030, Note_on_c, 7, 75, 127
14, 213030, Note_on_c, 7, 91, 127
14, 213059, Note_on_c, 7, 91, 0
14, 213059, Note_on_c, 7, 75, 0
14, 213059, Note_on_c, 7, 87, 0
14, 213060, Note_on_c, 7, 87, 127
14, 213060, Note_on_c, 7, 75, 127
14, 213060, Note_on_c, 7, 91, 127
14, 213089, Note_on_c, 7, 91, 0
14, 213089, Note_on_c, 7, 75, 0
14, 213089, Note_on_c, 7, 87, 0
14, 213090, Note_on_c, 7, 87, 127
14, 213090, Note_on_c, 7, 75, 127
14, 213090, Note_on_c, 7, 91, 127
14, 213119, Note_on_c, 7, 91, 0
14, 213119, Note_on_c, 7, 75, 0
14, 213119, Note_on_c, 7, 87, 0
14, 213120, Note_on_c, 7, 87, 127
14, 213120, Note_on_c, 7, 75, 127
14, 213120, Note_on_c, 7, 91, 127
14, 213149, Note_on_c, 7, 91, 0
14, 213149, Note_on_c, 7, 75, 0
14, 213149, Note_on_c, 7, 87, 0
14, 213150, Note_on_c, 7, 87, 127
14, 213150, Note_on_c, 7, 75, 127
14, 213150, Note_on_c, 7, 91, 127
14, 213179, Note_on_c, 7, 91, 0
14, 213179, Note_on_c, 7, 75, 0
14, 213179, Note_on_c, 7, 87, 0
14, 213180, Note_on_c, 7, 87, 127
14, 213180, Note_on_c, 7, 75, 127
14, 213180, Note_on_c, 7, 91, 127
14, 213209, Note_on_c, 7, 91, 0
14, 213209, Note_on_c, 7, 75, 0
14, 213209, Note_on_c, 7, 87, 0
14, 213210, Note_on_c, 7, 87, 127
14, 213210, Note_on_c, 7, 75, 127
14, 213210, Note_on_c, 7, 91, 127
14, 213239, Note_on_c, 7, 91, 0
14, 213239, Note_on_c, 7, 75, 0
14, 213239, Note_on_c, 7, 87, 0
14, 213240, Note_on_c, 7, 87, 127
14, 213240, Note_on_c, 7, 75, 127
14, 213240, Note_on_c, 7, 91, 127
14, 213269, Note_on_c, 7, 91, 0
14, 213269, Note_on_c, 7, 75, 0
14, 213269, Note_on_c, 7, 87, 0
14, 213270, Note_on_c, 7, 87, 127
14, 213270, Note_on_c, 7, 75, 127
14, 213270, Note_on_c, 7, 91, 127
14, 213299, Note_on_c, 7, 91, 0
14, 213299, Note_on_c, 7, 75, 0
14, 213299, Note_on_c, 7, 87, 0
14, 213300, Note_on_c, 7, 87, 127
14, 213300, Note_on_c, 7, 75, 127
14, 213300, Note_on_c, 7, 91, 127
14, 213329, Note_on_c, 7, 91, 0
14, 213329, Note_on_c, 7, 75, 0
14, 213329, Note_on_c, 7, 87, 0
14, 213330, Note_on_c, 7, 87, 127
14, 213330, Note_on_c, 7, 75, 127
14, 213330, Note_on_c, 7, 91, 127
14, 213359, Note_on_c, 7, 91, 0
14, 213359, Note_on_c, 7, 75, 0
14, 213359, Note_on_c, 7, 87, 0
14, 213360, Note_on_c, 7, 87, 127
14, 213360, Note_on_c, 7, 75, 127
14, 213360, Note_on_c, 7, 91, 127
14, 213389, Note_on_c, 7, 91, 0
14, 213389, Note_on_c, 7, 75, 0
14, 213389, Note_on_c, 7, 87, 0
14, 213390, Note_on_c, 7, 87, 127
14, 213390, Note_on_c, 7, 75, 127
14, 213390, Note_on_c, 7, 91, 127
14, 213419, Note_on_c, 7, 91, 0
14, 213419, Note_on_c, 7, 75, 0
14, 213419, Note_on_c, 7, 87, 0
14, 213420, Note_on_c, 7, 87, 127
14, 213420, Note_on_c, 7, 75, 127
14, 213420, Note_on_c, 7, 91, 127
14, 213449, Note_on_c, 7, 91, 0
14, 213449, Note_on_c, 7, 75, 0
14, 213449, Note_on_c, 7, 87, 0
14, 213450, Note_on_c, 7, 87, 127
14, 213450, Note_on_c, 7, 75, 127
14, 213450, Note_on_c, 7, 91, 127
14, 213479, Note_on_c, 7, 91, 0
14, 213479, Note_on_c, 7, 75, 0
14, 213479, Note_on_c, 7, 87, 0
14, 213480, Note_on_c, 7, 87, 127
14, 213480, Note_on_c, 7, 75, 127
14, 213480, Note_on_c, 7, 91, 127
14, 213509, Note_on_c, 7, 91, 0
14, 213509, Note_on_c, 7, 75, 0
14, 213509, Note_on_c, 7, 87, 0
14, 213510, Note_on_c, 7, 87, 127
14, 213510, Note_on_c, 7, 75, 127
14, 213510, Note_on_c, 7, 91, 127
14, 213539, Note_on_c, 7, 91, 0
14, 213539, Note_on_c, 7, 75, 0
14, 213539, Note_on_c, 7, 87, 0
14, 213540, Note_on_c, 7, 87, 127
14, 213540, Note_on_c, 7, 75, 127
14, 213540, Note_on_c, 7, 91, 127
14, 213569, Note_on_c, 7, 91, 0
14, 213569, Note_on_c, 7, 75, 0
14, 213569, Note_on_c, 7, 87, 0
14, 213570, Note_on_c, 7, 87, 127
14, 213570, Note_on_c, 7, 75, 127
14, 213570, Note_on_c, 7, 91, 127
14, 213599, Note_on_c, 7, 91, 0
14, 213599, Note_on_c, 7, 75, 0
14, 213599, Note_on_c, 7, 87, 0
14, 213600, Note_on_c, 7, 87, 127
14, 213600, Note_on_c, 7, 75, 127
14, 213600, Note_on_c, 7, 91, 127
14, 213629, Note_on_c, 7, 91, 0
14, 213629, Note_on_c, 7, 75, 0
14, 213629, Note_on_c, 7, 87, 0
14, 213630, Note_on_c, 7, 87, 127
14, 213630, Note_on_c, 7, 75, 127
14, 213630, Note_on_c, 7, 91, 127
14, 213659, Note_on_c, 7, 91, 0
14, 213659, Note_on_c, 7, 75, 0
14, 213659, Note_on_c, 7, 87, 0
14, 213660, Note_on_c, 7, 87, 127
14, 213660, Note_on_c, 7, 75, 127
14, 213660, Note_on_c, 7, 91, 127
14, 213689, Note_on_c, 7, 91, 0
14, 213689, Note_on_c, 7, 75, 0
14, 213689, Note_on_c, 7, 87, 0
14, 213690, Note_on_c, 7, 87, 127
14, 213690, Note_on_c, 7, 75, 127
14, 213690, Note_on_c, 7, 91, 127
14, 213719, Note_on_c, 7, 91, 0
14, 213719, Note_on_c, 7, 75, 0
14, 213719, Note_on_c, 7, 87, 0
14, 213720, Note_on_c, 7, 87, 127
14, 213720, Note_on_c, 7, 75, 127
14, 213720, Note_on_c, 7, 91, 127
14, 213749, Note_on_c, 7, 91, 0
14, 213749, Note_on_c, 7, 75, 0
14, 213749, Note_on_c, 7, 87, 0
14, 213750, Note_on_c, 7, 87, 127
14, 213750, Note_on_c, 7, 75, 127
14, 213750, Note_on_c, 7, 91, 127
14, 213779, Note_on_c, 7, 91, 0
14, 213779, Note_on_c, 7, 75, 0
14, 213779, Note_on_c, 7, 87, 0
14, 213780, Note_on_c, 7, 87, 127
14, 213780, Note_on_c, 7, 75, 127
14, 213780, Note_on_c, 7, 91, 127
14, 213809, Note_on_c, 7, 91, 0
14, 213809, Note_on_c, 7, 75, 0
14, 213809, Note_on_c, 7, 87, 0
14, 213810, Note_on_c, 7, 87, 127
14, 213810, Note_on_c, 7, 75, 127
14, 213810, Note_on_c, 7, 91, 127
14, 213839, Note_on_c, 7, 91, 0
14, 213839, Note_on_c, 7, 75, 0
14, 213839, Note_on_c, 7, 87, 0
14, 213840, Note_on_c, 7, 87, 127
14, 213840, Note_on_c, 7, 75, 127
14, 213840, Note_on_c, 7, 91, 127
14, 213869, Note_on_c, 7, 91, 0
14, 213869, Note_on_c, 7, 75, 0
14, 213869, Note_on_c, 7, 87, 0
14, 213870, Note_on_c, 7, 87, 127
14, 213870, Note_on_c, 7, 75, 127
14, 213870, Note_on_c, 7, 91, 127
14, 213899, Note_on_c, 7, 91, 0
14, 213899, Note_on_c, 7, 75, 0
14, 213899, Note_on_c, 7, 87, 0
14, 213900, Note_on_c, 7, 87, 127
14, 213900, Note_on_c, 7, 75, 127
14, 213900, Note_on_c, 7, 91, 127
14, 213929, Note_on_c, 7, 91, 0
14, 213929, Note_on_c, 7, 75, 0
14, 213929, Note_on_c, 7, 87, 0
14, 213930, Note_on_c, 7, 87, 127
14, 213930, Note_on_c, 7, 75, 127
14, 213930, Note_on_c, 7, 91, 127
14, 213959, Note_on_c, 7, 91, 0
14, 213959, Note_on_c, 7, 75, 0
14, 213959, Note_on_c, 7, 87, 0
14, 213960, Note_on_c, 7, 87, 127
14, 213960, Note_on_c, 7, 75, 127
14, 213960, Note_on_c, 7, 91, 127
14, 213989, Note_on_c, 7, 91, 0
14, 213989, Note_on_c, 7, 75, 0
14, 213989, Note_on_c, 7, 87, 0
14, 213990, Note_on_c, 7, 87, 127
14, 213990, Note_on_c, 7, 75, 127
14, 213990, Note_on_c, 7, 91, 127
14, 214019, Note_on_c, 7, 91, 0
14, 214019, Note_on_c, 7, 75, 0
14, 214019, Note_on_c, 7, 87, 0
14, 214020, Note_on_c, 7, 87, 127
14, 214020, Note_on_c, 7, 75, 127
14, 214020, Note_on_c, 7, 91, 127
14, 214049, Note_on_c, 7, 91, 0
14, 214049, Note_on_c, 7, 75, 0
14, 214049, Note_on_c, 7, 87, 0
14, 214050, Note_on_c, 7, 87, 127
14, 214050, Note_on_c, 7, 75, 127
14, 214050, Note_on_c, 7, 91, 127
14, 214079, Note_on_c, 7, 91, 0
14, 214079, Note_on_c, 7, 75, 0
14, 214079, Note_on_c, 7, 87, 0
14, 214080, Note_on_c, 7, 87, 127
14, 214080, Note_on_c, 7, 75, 127
14, 214080, Note_on_c, 7, 91, 127
14, 214109, Note_on_c, 7, 91, 0
14, 214109, Note_on_c, 7, 75, 0
14, 214109, Note_on_c, 7, 87, 0
14, 214110, Note_on_c, 7, 87, 127
14, 214110, Note_on_c, 7, 75, 127
14, 214110, Note_on_c, 7, 91, 127
14, 214139, Note_on_c, 7, 91, 0
14, 214139, Note_on_c, 7, 75, 0
14, 214139, Note_on_c, 7, 87, 0
14, 214140, Note_on_c, 7, 87, 127
14, 214140, Note_on_c, 7, 75, 127
14, 214140, Note_on_c, 7, 91, 127
14, 214169, Note_on_c, 7, 91, 0
14, 214169, Note_on_c, 7, 75, 0
14, 214169, Note_on_c, 7, 87, 0
14, 214170, Note_on_c, 7, 87, 127
14, 214170, Note_on_c, 7, 75, 127
14, 214170, Note_on_c, 7, 91, 127
14, 214199, Note_on_c, 7, 91, 0
14, 214199, Note_on_c, 7, 75, 0
14, 214199, Note_on_c, 7, 87, 0
14, 214200, Note_on_c, 7, 75, 127
14, 214200, Note_on_c, 7, 87, 127
14, 214200, Note_on_c, 7, 91, 127
14, 214229, Note_on_c, 7, 91, 0
14, 214229, Note_on_c, 7, 87, 0
14, 214229, Note_on_c, 7, 75, 0
14, 214230, Note_on_c, 7, 75, 127
14, 214230, Note_on_c, 7, 91, 127
14, 214259, Note_on_c, 7, 91, 0
14, 214259, Note_on_c, 7, 75, 0
14, 214260, Note_on_c, 7, 75, 127
14, 214260, Note_on_c, 7, 91, 127
14, 214289, Note_on_c, 7, 91, 0
14, 214289, Note_on_c, 7, 75, 0
14, 214290, Note_on_c, 7, 75, 127
14, 214290, Note_on_c, 7, 91, 127
14, 214319, Note_on_c, 7, 91, 0
14, 214319, Note_on_c, 7, 75, 0
14, 214320, Note_on_c, 7, 75, 127
14, 214320, Note_on_c, 7, 91, 127
14, 214349, Note_on_c, 7, 91, 0
14, 214349, Note_on_c, 7, 75, 0
14, 214350, Note_on_c, 7, 75, 127
14, 214350, Note_on_c, 7, 91, 127
14, 214379, Note_on_c, 7, 91, 0
14, 214379, Note_on_c, 7, 75, 0
14, 214380, Note_on_c, 7, 75, 127
14, 214380, Note_on_c, 7, 91, 127
14, 214409, Note_on_c, 7, 91, 0
14, 214409, Note_on_c, 7, 75, 0
14, 214410, Note_on_c, 7, 75, 127
14, 214410, Note_on_c, 7, 91, 127
14, 214439, Note_on_c, 7, 91, 0
14, 214439, Note_on_c, 7, 75, 0
14, 214440, Note_on_c, 7, 76, 127
14, 214440, Note_on_c, 7, 91, 127
14, 214469, Note_on_c, 7, 91, 0
14, 214469, Note_on_c, 7, 76, 0
14, 214470, Note_on_c, 7, 76, 127
14, 214470, Note_on_c, 7, 91, 127
14, 214499, Note_on_c, 7, 91, 0
14, 214499, Note_on_c, 7, 76, 0
14, 214500, Note_on_c, 7, 76, 127
14, 214500, Note_on_c, 7, 91, 127
14, 214529, Note_on_c, 7, 91, 0
14, 214529, Note_on_c, 7, 76, 0
14, 214530, Note_on_c, 7, 76, 127
14, 214530, Note_on_c, 7, 91, 127
14, 214559, Note_on_c, 7, 91, 0
14, 214559, Note_on_c, 7, 76, 0
14, 214560, Note_on_c, 7, 79, 127
14, 214560, Note_on_c, 7, 91, 127
14, 214589, Note_on_c, 7, 91, 0
14, 214589, Note_on_c, 7, 79, 0
14, 214590, Note_on_c, 7, 79, 127
14, 214590, Note_on_c, 7, 91, 127
14, 214619, Note_on_c, 7, 91, 0
14, 214619, Note_on_c, 7, 79, 0
14, 214620, Note_on_c, 7, 77, 127
14, 214620, Note_on_c, 7, 89, 127
14, 214649, Note_on_c, 7, 89, 0
14, 214649, Note_on_c, 7, 77, 0
14, 214650, Note_on_c, 7, 77, 127
14, 214650, Note_on_c, 7, 89, 127
14, 214679, Note_on_c, 7, 89, 0
14, 214679, Note_on_c, 7, 77, 0
14, 214680, Note_on_c, 7, 76, 127
14, 214680, Note_on_c, 7, 88, 127
14, 214709, Note_on_c, 7, 88, 0
14, 214709, Note_on_c, 7, 76, 0
14, 214710, Note_on_c, 7, 76, 127
14, 214710, Note_on_c, 7, 88, 127
14, 214739, Note_on_c, 7, 88, 0
14, 214739, Note_on_c, 7, 76, 0
14, 214740, Note_on_c, 7, 77, 127
14, 214740, Note_on_c, 7, 89, 127
14, 214769, Note_on_c, 7, 89, 0
14, 214769, Note_on_c, 7, 77, 0
14, 214770, Note_on_c, 7, 77, 127
14, 214770, Note_on_c, 7, 89, 127
14, 214799, Note_on_c, 7, 89, 0
14, 214799, Note_on_c, 7, 77, 0
14, 214800, Note_on_c, 7, 79, 127
14, 214800, Note_on_c, 7, 91, 127
14, 214829, Note_on_c, 7, 91, 0
14, 214829, Note_on_c, 7, 79, 0
14, 214830, Note_on_c, 7, 79, 127
14, 214830, Note_on_c, 7, 91, 127
14, 214859, Note_on_c, 7, 91, 0
14, 214859, Note_on_c, 7, 79, 0
14, 214860, Note_on_c, 7, 77, 127
14, 214860, Note_on_c, 7, 89, 127
14, 214889, Note_on_c, 7, 89, 0
14, 214889, Note_on_c, 7, 77, 0
14, 214890, Note_on_c, 7, 77, 127
14, 214890, Note_on_c, 7, 89, 127
14, 214919, Note_on_c, 7, 89, 0
14, 214919, Note_on_c, 7, 77, 0
14, 214920, Note_on_c, 7, 77, 127
14, 214920, Note_on_c, 7, 89, 127
14, 214949, Note_on_c, 7, 89, 0
14, 214949, Note_on_c, 7, 77, 0
14, 214950, Note_on_c, 7, 77, 127
14, 214950, Note_on_c, 7, 89, 127
14, 214979, Note_on_c, 7, 89, 0
14, 214979, Note_on_c, 7, 77, 0
14, 214980, Note_on_c, 7, 75, 127
14, 214980, Note_on_c, 7, 87, 127
14, 215009, Note_on_c, 7, 87, 0
14, 215009, Note_on_c, 7, 75, 0
14, 215010, Note_on_c, 7, 75, 127
14, 215010, Note_on_c, 7, 87, 127
14, 215039, Note_on_c, 7, 87, 0
14, 215039, Note_on_c, 7, 75, 0
14, 215040, Note_on_c, 7, 74, 127
14, 215040, Note_on_c, 7, 86, 127
14, 215069, Note_on_c, 7, 86, 0
14, 215069, Note_on_c, 7, 74, 0
14, 215070, Note_on_c, 7, 74, 127
14, 215070, Note_on_c, 7, 86, 127
14, 215099, Note_on_c, 7, 86, 0
14, 215099, Note_on_c, 7, 74, 0
14, 215100, Note_on_c, 7, 75, 127
14, 215100, Note_on_c, 7, 87, 127
14, 215129, Note_on_c, 7, 87, 0
14, 215129, Note_on_c, 7, 75, 0
14, 215130, Note_on_c, 7, 75, 127
14, 215130, Note_on_c, 7, 87, 127
14, 215159, Note_on_c, 7, 87, 0
14, 215159, Note_on_c, 7, 75, 0
14, 215160, Note_on_c, 7, 77, 127
14, 215160, Note_on_c, 7, 89, 127
14, 215189, Note_on_c, 7, 89, 0
14, 215189, Note_on_c, 7, 77, 0
14, 215190, Note_on_c, 7, 77, 127
14, 215190, Note_on_c, 7, 89, 127
14, 215219, Note_on_c, 7, 89, 0
14, 215219, Note_on_c, 7, 77, 0
14, 215220, Note_on_c, 7, 75, 127
14, 215220, Note_on_c, 7, 87, 127
14, 215249, Note_on_c, 7, 87, 0
14, 215249, Note_on_c, 7, 75, 0
14, 215250, Note_on_c, 7, 75, 127
14, 215250, Note_on_c, 7, 87, 127
14, 215279, Note_on_c, 7, 87, 0
14, 215279, Note_on_c, 7, 75, 0
14, 215280, Note_on_c, 7, 74, 127
14, 215280, Note_on_c, 7, 86, 127
14, 215309, Note_on_c, 7, 74, 0
14, 215340, Note_on_c, 7, 70, 48
14, 215399, Note_on_c, 7, 86, 0
14, 215400, Note_on_c, 7, 65, 48
14, 215409, Note_on_c, 7, 70, 0
14, 215460, Note_on_c, 7, 70, 48
14, 215469, Note_on_c, 7, 65, 0
14, 215520, Note_on_c, 7, 65, 48
14, 215529, Note_on_c, 7, 70, 0
14, 215580, Note_on_c, 7, 70, 48
14, 215589, Note_on_c, 7, 65, 0
14, 215639, Note_on_c, 7, 70, 0
14, 215640, Note_on_c, 7, 65, 48
14, 215700, Note_on_c, 7, 70, 48
14, 215709, Note_on_c, 7, 65, 0
14, 215760, Note_on_c, 7, 65, 48
14, 215769, Note_on_c, 7, 70, 0
14, 215820, Note_on_c, 7, 70, 48
14, 215829, Note_on_c, 7, 65, 0
14, 215880, Note_on_c, 7, 65, 48
14, 215889, Note_on_c, 7, 70, 0
14, 215940, Note_on_c, 7, 70, 48
14, 215949, Note_on_c, 7, 65, 0
14, 215999, Note_on_c, 7, 70, 0
14, 216000, Note_on_c, 7, 65, 48
14, 216060, Note_on_c, 7, 70, 48
14, 216069, Note_on_c, 7, 65, 0
14, 216120, Note_on_c, 7, 65, 48
14, 216129, Note_on_c, 7, 70, 0
14, 216180, Note_on_c, 7, 70, 48
14, 216189, Note_on_c, 7, 65, 0
14, 216240, Note_on_c, 7, 65, 48
14, 216249, Note_on_c, 7, 70, 0
14, 216300, Note_on_c, 7, 70, 48
14, 216309, Note_on_c, 7, 65, 0
14, 216359, Note_on_c, 7, 70, 0
14, 216360, Note_on_c, 7, 65, 48
14, 216420, Note_on_c, 7, 70, 48
14, 216429, Note_on_c, 7, 65, 0
14, 216480, Note_on_c, 7, 77, 56
14, 216480, Note_on_c, 7, 68, 48
14, 216489, Note_on_c, 7, 70, 0
14, 216540, Note_on_c, 7, 70, 48
14, 216549, Note_on_c, 7, 68, 0
14, 216600, Note_on_c, 7, 68, 48
14, 216609, Note_on_c, 7, 70, 0
14, 216659, Note_on_c, 7, 68, 0
14, 216660, Note_on_c, 7, 68, 56
14, 216660, Note_on_c, 7, 70, 48
14, 216669, Note_on_c, 7, 77, 0
14, 216719, Note_on_c, 7, 70, 0
14, 216720, Note_on_c, 7, 67, 56
14, 216729, Note_on_c, 7, 68, 0
14, 216780, Note_on_c, 7, 70, 48
14, 216839, Note_on_c, 7, 67, 0
14, 216840, Note_on_c, 7, 67, 48
14, 216849, Note_on_c, 7, 70, 0
14, 216900, Note_on_c, 7, 70, 48
14, 216909, Note_on_c, 7, 67, 0
14, 216960, Note_on_c, 7, 67, 48
14, 216969, Note_on_c, 7, 70, 0
14, 217020, Note_on_c, 7, 70, 48
14, 217029, Note_on_c, 7, 67, 0
14, 217079, Note_on_c, 7, 70, 0
14, 217080, Note_on_c, 7, 67, 48
14, 217140, Note_on_c, 7, 70, 48
14, 217149, Note_on_c, 7, 67, 0
14, 217200, Note_on_c, 7, 67, 48
14, 217209, Note_on_c, 7, 70, 0
14, 217260, Note_on_c, 7, 70, 48
14, 217269, Note_on_c, 7, 67, 0
14, 217320, Note_on_c, 7, 67, 48
14, 217329, Note_on_c, 7, 70, 0
14, 217380, Note_on_c, 7, 70, 48
14, 217389, Note_on_c, 7, 67, 0
14, 217439, Note_on_c, 7, 70, 0
14, 217440, Note_on_c, 7, 67, 48
14, 217500, Note_on_c, 7, 70, 48
14, 217509, Note_on_c, 7, 67, 0
14, 217560, Note_on_c, 7, 67, 48
14, 217569, Note_on_c, 7, 70, 0
14, 217620, Note_on_c, 7, 70, 48
14, 217629, Note_on_c, 7, 67, 0
14, 217680, Note_on_c, 7, 67, 48
14, 217689, Note_on_c, 7, 70, 0
14, 217740, Note_on_c, 7, 70, 48
14, 217749, Note_on_c, 7, 67, 0
14, 217799, Note_on_c, 7, 70, 0
14, 217800, Note_on_c, 7, 67, 48
14, 217860, Note_on_c, 7, 70, 48
14, 217869, Note_on_c, 7, 67, 0
14, 217920, Note_on_c, 7, 75, 56
14, 217929, Note_on_c, 7, 70, 0
14, 217980, Note_on_c, 7, 70, 48
14, 218040, Note_on_c, 7, 67, 48
14, 218049, Note_on_c, 7, 70, 0
14, 218099, Note_on_c, 7, 67, 0
14, 218100, Note_on_c, 7, 67, 56
14, 218100, Note_on_c, 7, 70, 48
14, 218109, Note_on_c, 7, 75, 0
14, 218159, Note_on_c, 7, 70, 0
14, 218160, Note_on_c, 7, 68, 48
14, 218160, Note_on_c, 7, 65, 48
14, 218169, Note_on_c, 7, 67, 0
14, 218219, Note_on_c, 7, 65, 0
14, 218220, Note_on_c, 7, 65, 48
14, 218220, Note_on_c, 7, 62, 48
14, 218229, Note_on_c, 7, 68, 0
14, 218279, Note_on_c, 7, 65, 0
14, 218280, Note_on_c, 7, 68, 48
14, 218280, Note_on_c, 7, 65, 48
14, 218289, Note_on_c, 7, 62, 0
14, 218339, Note_on_c, 7, 65, 0
14, 218340, Note_on_c, 7, 65, 48
14, 218340, Note_on_c, 7, 62, 48
14, 218349, Note_on_c, 7, 68, 0
14, 218399, Note_on_c, 7, 65, 0
14, 218400, Note_on_c, 7, 68, 48
14, 218400, Note_on_c, 7, 65, 48
14, 218409, Note_on_c, 7, 62, 0
14, 218459, Note_on_c, 7, 65, 0
14, 218460, Note_on_c, 7, 65, 48
14, 218460, Note_on_c, 7, 62, 48
14, 218469, Note_on_c, 7, 68, 0
14, 218519, Note_on_c, 7, 62, 0
14, 218519, Note_on_c, 7, 65, 0
14, 218520, Note_on_c, 7, 68, 48
14, 218520, Note_on_c, 7, 65, 48
14, 218579, Note_on_c, 7, 65, 0
14, 218580, Note_on_c, 7, 65, 48
14, 218580, Note_on_c, 7, 62, 48
14, 218589, Note_on_c, 7, 68, 0
14, 218639, Note_on_c, 7, 65, 0
14, 218640, Note_on_c, 7, 68, 48
14, 218640, Note_on_c, 7, 65, 48
14, 218649, Note_on_c, 7, 62, 0
14, 218699, Note_on_c, 7, 65, 0
14, 218700, Note_on_c, 7, 65, 48
14, 218700, Note_on_c, 7, 62, 48
14, 218709, Note_on_c, 7, 68, 0
14, 218759, Note_on_c, 7, 65, 0
14, 218760, Note_on_c, 7, 68, 48
14, 218760, Note_on_c, 7, 65, 48
14, 218769, Note_on_c, 7, 62, 0
14, 218819, Note_on_c, 7, 65, 0
14, 218820, Note_on_c, 7, 65, 48
14, 218820, Note_on_c, 7, 62, 48
14, 218829, Note_on_c, 7, 68, 0
14, 218879, Note_on_c, 7, 62, 0
14, 218879, Note_on_c, 7, 65, 0
14, 218880, Note_on_c, 7, 68, 48
14, 218880, Note_on_c, 7, 65, 48
14, 218999, Note_on_c, 7, 65, 0
14, 218999, Note_on_c, 7, 68, 0
14, 219000, Note_on_c, 7, 72, 127
14, 219000, Note_on_c, 7, 84, 127
14, 219179, Note_on_c, 7, 84, 0
14, 219179, Note_on_c, 7, 72, 0
14, 219180, Note_on_c, 7, 82, 127
14, 219180, Note_on_c, 7, 70, 127
14, 219209, Note_on_c, 7, 70, 0
14, 219209, Note_on_c, 7, 82, 0
14, 219240, Note_on_c, 7, 80, 127
14, 219240, Note_on_c, 7, 68, 127
14, 219299, Note_on_c, 7, 68, 0
14, 219299, Note_on_c, 7, 80, 0
14, 219360, Note_on_c, 7, 79, 127
14, 219360, Note_on_c, 7, 67, 127
14, 219419, Note_on_c, 7, 67, 0
14, 219419, Note_on_c, 7, 79, 0
14, 219480, Note_on_c, 7, 77, 127
14, 219480, Note_on_c, 7, 65, 127
14, 219539, Note_on_c, 7, 65, 0
14, 219539, Note_on_c, 7, 77, 0
14, 219600, Note_on_c, 7, 75, 48
14, 219600, Note_on_c, 7, 63, 48
14, 220440, Note_on_c, 7, 82, 48
14, 220440, Note_on_c, 7, 70, 48
14, 220449, Note_on_c, 7, 63, 0
14, 220449, Note_on_c, 7, 75, 0
14, 220559, Note_on_c, 7, 82, 0
14, 220559, Note_on_c, 7, 70, 0
14, 220560, Note_on_c, 7, 82, 48
14, 220560, Note_on_c, 7, 70, 48
14, 220649, Note_on_c, 7, 70, 0
14, 220649, Note_on_c, 7, 82, 0
14, 220680, Note_on_c, 7, 70, 48
14, 220680, Note_on_c, 7, 82, 48
14, 220769, Note_on_c, 7, 82, 0
14, 220769, Note_on_c, 7, 70, 0
14, 220800, Note_on_c, 7, 82, 48
14, 220800, Note_on_c, 7, 70, 48
14, 220889, Note_on_c, 7, 70, 0
14, 220889, Note_on_c, 7, 82, 0
14, 220920, Note_on_c, 7, 82, 48
14, 220920, Note_on_c, 7, 70, 48
14, 221009, Note_on_c, 7, 70, 0
14, 221009, Note_on_c, 7, 82, 0
14, 221040, Note_on_c, 7, 82, 48
14, 221040, Note_on_c, 7, 70, 48
14, 221069, Note_on_c, 7, 70, 0
14, 221069, Note_on_c, 7, 82, 0
14, 221100, Note_on_c, 7, 79, 50
14, 221100, Note_on_c, 7, 63, 50
14, 221160, Note_on_c, 7, 77, 52
14, 221160, Note_on_c, 7, 62, 52
14, 221169, Note_on_c, 7, 63, 0
14, 221169, Note_on_c, 7, 79, 0
14, 221220, Note_on_c, 7, 79, 54
14, 221220, Note_on_c, 7, 63, 54
14, 221229, Note_on_c, 7, 77, 0
14, 221229, Note_on_c, 7, 62, 0
14, 221280, Note_on_c, 7, 80, 56
14, 221280, Note_on_c, 7, 65, 56
14, 221289, Note_on_c, 7, 79, 0
14, 221289, Note_on_c, 7, 63, 0
14, 221340, Note_on_c, 7, 82, 58
14, 221340, Note_on_c, 7, 67, 58
14, 221349, Note_on_c, 7, 80, 0
14, 221349, Note_on_c, 7, 65, 0
14, 221399, Note_on_c, 7, 82, 0
14, 221399, Note_on_c, 7, 67, 0
14, 221400, Note_on_c, 7, 84, 60
14, 221400, Note_on_c, 7, 68, 60
14, 221460, Note_on_c, 7, 86, 62
14, 221460, Note_on_c, 7, 70, 62
14, 221469, Note_on_c, 7, 68, 0
14, 221469, Note_on_c, 7, 84, 0
14, 221519, Note_on_c, 7, 86, 0
14, 221519, Note_on_c, 7, 70, 0
14, 221520, Note_on_c, 7, 87, 64
14, 221520, Note_on_c, 7, 72, 64
14, 221549, Note_on_c, 7, 72, 0
14, 221549, Note_on_c, 7, 87, 0
14, 221580, Note_on_c, 7, 75, 66
14, 221580, Note_on_c, 7, 87, 66
14, 221609, Note_on_c, 7, 87, 0
14, 221609, Note_on_c, 7, 75, 0
14, 221640, Note_on_c, 7, 87, 68
14, 221640, Note_on_c, 7, 74, 68
14, 221669, Note_on_c, 7, 74, 0
14, 221669, Note_on_c, 7, 87, 0
14, 221700, Note_on_c, 7, 87, 70
14, 221700, Note_on_c, 7, 72, 70
14, 221729, Note_on_c, 7, 72, 0
14, 221729, Note_on_c, 7, 87, 0
14, 221760, Note_on_c, 7, 87, 72
14, 221760, Note_on_c, 7, 70, 72
14, 221789, Note_on_c, 7, 70, 0
14, 221789, Note_on_c, 7, 87, 0
14, 221820, Note_on_c, 7, 75, 74
14, 221820, Note_on_c, 7, 67, 74
14, 221849, Note_on_c, 7, 67, 0
14, 221849, Note_on_c, 7, 75, 0
14, 221880, Note_on_c, 7, 74, 76
14, 221880, Note_on_c, 7, 65, 76
14, 221909, Note_on_c, 7, 65, 0
14, 221909, Note_on_c, 7, 74, 0
14, 221940, Note_on_c, 7, 75, 78
14, 221940, Note_on_c, 7, 67, 78
14, 221969, Note_on_c, 7, 67, 0
14, 221969, Note_on_c, 7, 75, 0
14, 222000, Note_on_c, 7, 77, 80
14, 222000, Note_on_c, 7, 74, 80
14, 222029, Note_on_c, 7, 74, 0
14, 222029, Note_on_c, 7, 77, 0
14, 222060, Note_on_c, 7, 79, 82
14, 222060, Note_on_c, 7, 75, 82
14, 222089, Note_on_c, 7, 75, 0
14, 222089, Note_on_c, 7, 79, 0
14, 222120, Note_on_c, 7, 80, 84
14, 222120, Note_on_c, 7, 77, 84
14, 222149, Note_on_c, 7, 77, 0
14, 222149, Note_on_c, 7, 80, 0
14, 222180, Note_on_c, 7, 80, 86
14, 222180, Note_on_c, 7, 79, 86
14, 222209, Note_on_c, 7, 79, 0
14, 222209, Note_on_c, 7, 80, 0
14, 222240, Note_on_c, 7, 80, 88
14, 222269, Note_on_c, 7, 80, 0
14, 222300, Note_on_c, 7, 80, 90
14, 222300, Note_on_c, 7, 79, 90
14, 222329, Note_on_c, 7, 79, 0
14, 222329, Note_on_c, 7, 80, 0
14, 222360, Note_on_c, 7, 80, 92
14, 222360, Note_on_c, 7, 77, 92
14, 222389, Note_on_c, 7, 77, 0
14, 222389, Note_on_c, 7, 80, 0
14, 222420, Note_on_c, 7, 80, 94
14, 222420, Note_on_c, 7, 75, 94
14, 222449, Note_on_c, 7, 75, 0
14, 222449, Note_on_c, 7, 80, 0
14, 222480, Note_on_c, 7, 80, 96
14, 222480, Note_on_c, 7, 74, 96
14, 222509, Note_on_c, 7, 80, 0
14, 222539, Note_on_c, 7, 74, 0
14, 222540, Note_on_c, 7, 77, 96
14, 222570, Note_on_c, 7, 79, 96
14, 222579, Note_on_c, 7, 77, 0
14, 222599, Note_on_c, 7, 79, 0
14, 222600, Note_on_c, 7, 68, 96
14, 222600, Note_on_c, 7, 77, 96
14, 222629, Note_on_c, 7, 77, 0
14, 222659, Note_on_c, 7, 68, 0
14, 222660, Note_on_c, 7, 74, 96
14, 222690, Note_on_c, 7, 75, 96
14, 222699, Note_on_c, 7, 74, 0
14, 222719, Note_on_c, 7, 75, 0
14, 222720, Note_on_c, 7, 74, 96
14, 222749, Note_on_c, 7, 74, 0
14, 222780, Note_on_c, 7, 68, 96
14, 222810, Note_on_c, 7, 70, 96
14, 222819, Note_on_c, 7, 68, 0
14, 222839, Note_on_c, 7, 70, 0
14, 222840, Note_on_c, 7, 68, 96
14, 222869, Note_on_c, 7, 68, 0
14, 222900, Note_on_c, 7, 65, 96
14, 222930, Note_on_c, 7, 67, 96
14, 222939, Note_on_c, 7, 65, 0
14, 222959, Note_on_c, 7, 67, 0
14, 222960, Note_on_c, 7, 65, 96
14, 222989, Note_on_c, 7, 65, 0
14, 223020, Note_on_c, 7, 62, 96
14, 223050, Note_on_c, 7, 63, 96
14, 223059, Note_on_c, 7, 62, 0
14, 223079, Note_on_c, 7, 63, 0
14, 223080, Note_on_c, 7, 62, 96
14, 223109, Note_on_c, 7, 62, 0
14, 223140, Note_on_c, 7, 74, 96
14, 223140, Note_on_c, 7, 80, 96
14, 223169, Note_on_c, 7, 80, 0
14, 223199, Note_on_c, 7, 74, 0
14, 223200, Note_on_c, 7, 75, 96
14, 223200, Note_on_c, 7, 79, 96
14, 223229, Note_on_c, 7, 79, 0
14, 223259, Note_on_c, 7, 75, 0
14, 223260, Note_on_c, 7, 75, 96
14, 223290, Note_on_c, 7, 77, 96
14, 223299, Note_on_c, 7, 75, 0
14, 223319, Note_on_c, 7, 77, 0
14, 223320, Note_on_c, 7, 63, 96
14, 223320, Note_on_c, 7, 75, 96
14, 223349, Note_on_c, 7, 75, 0
14, 223379, Note_on_c, 7, 63, 0
14, 223380, Note_on_c, 7, 72, 96
14, 223410, Note_on_c, 7, 74, 96
14, 223419, Note_on_c, 7, 72, 0
14, 223439, Note_on_c, 7, 74, 0
14, 223440, Note_on_c, 7, 72, 96
14, 223469, Note_on_c, 7, 72, 0
14, 223500, Note_on_c, 7, 67, 96
14, 223530, Note_on_c, 7, 68, 96
14, 223539, Note_on_c, 7, 67, 0
14, 223559, Note_on_c, 7, 68, 0
14, 223560, Note_on_c, 7, 67, 96
14, 223589, Note_on_c, 7, 67, 0
14, 223620, Note_on_c, 7, 63, 96
14, 223650, Note_on_c, 7, 65, 96
14, 223659, Note_on_c, 7, 63, 0
14, 223679, Note_on_c, 7, 65, 0
14, 223680, Note_on_c, 7, 63, 96
14, 223709, Note_on_c, 7, 63, 0
14, 223740, Note_on_c, 7, 60, 96
14, 223770, Note_on_c, 7, 62, 96
14, 223779, Note_on_c, 7, 60, 0
14, 223799, Note_on_c, 7, 62, 0
14, 223800, Note_on_c, 7, 60, 96
14, 223829, Note_on_c, 7, 60, 0
14, 223860, Note_on_c, 7, 63, 96
14, 223860, Note_on_c, 7, 79, 96
14, 223889, Note_on_c, 7, 79, 0
14, 223919, Note_on_c, 7, 63, 0
14, 223920, Note_on_c, 7, 85, 96
14, 223949, Note_on_c, 7, 85, 0
14, 223980, Note_on_c, 7, 73, 96
14, 224010, Note_on_c, 7, 75, 96
14, 224019, Note_on_c, 7, 73, 0
14, 224039, Note_on_c, 7, 75, 0
14, 224040, Note_on_c, 7, 73, 96
14, 224069, Note_on_c, 7, 73, 0
14, 224100, Note_on_c, 7, 70, 96
14, 224130, Note_on_c, 7, 72, 96
14, 224139, Note_on_c, 7, 70, 0
14, 224159, Note_on_c, 7, 72, 0
14, 224160, Note_on_c, 7, 70, 96
14, 224189, Note_on_c, 7, 70, 0
14, 224220, Note_on_c, 7, 67, 96
14, 224250, Note_on_c, 7, 68, 96
14, 224259, Note_on_c, 7, 67, 0
14, 224279, Note_on_c, 7, 68, 0
14, 224280, Note_on_c, 7, 67, 96
14, 224309, Note_on_c, 7, 67, 0
14, 224340, Note_on_c, 7, 64, 96
14, 224370, Note_on_c, 7, 65, 96
14, 224379, Note_on_c, 7, 64, 0
14, 224399, Note_on_c, 7, 65, 0
14, 224400, Note_on_c, 7, 64, 96
14, 224429, Note_on_c, 7, 64, 0
14, 224460, Note_on_c, 7, 64, 96
14, 224490, Note_on_c, 7, 65, 96
14, 224499, Note_on_c, 7, 64, 0
14, 224519, Note_on_c, 7, 65, 0
14, 224520, Note_on_c, 7, 64, 96
14, 224549, Note_on_c, 7, 64, 0
14, 224580, Note_on_c, 7, 67, 96
14, 224580, Note_on_c, 7, 73, 96
14, 224609, Note_on_c, 7, 73, 0
14, 224609, Note_on_c, 7, 67, 0
14, 224640, Note_on_c, 7, 68, 96
14, 224640, Note_on_c, 7, 72, 96
14, 224669, Note_on_c, 7, 72, 0
14, 224669, Note_on_c, 7, 68, 0
14, 224700, Note_on_c, 7, 60, 96
14, 224730, Note_on_c, 7, 61, 96
14, 224759, Note_on_c, 7, 61, 0
14, 224759, Note_on_c, 7, 60, 0
14, 224760, Note_on_c, 7, 60, 96
14, 224819, Note_on_c, 7, 60, 0
14, 224820, Note_on_c, 7, 63, 96
14, 224820, Note_on_c, 7, 72, 96
14, 224849, Note_on_c, 7, 72, 0
14, 224849, Note_on_c, 7, 63, 0
14, 224880, Note_on_c, 7, 62, 96
14, 224880, Note_on_c, 7, 74, 96
14, 224909, Note_on_c, 7, 74, 0
14, 224909, Note_on_c, 7, 62, 0
14, 224940, Note_on_c, 7, 65, 96
14, 224940, Note_on_c, 7, 62, 96
14, 224969, Note_on_c, 7, 62, 0
14, 224969, Note_on_c, 7, 65, 0
14, 225000, Note_on_c, 7, 63, 96
14, 225000, Note_on_c, 7, 75, 96
14, 225029, Note_on_c, 7, 75, 0
14, 225029, Note_on_c, 7, 63, 0
14, 225060, Note_on_c, 7, 68, 96
14, 225060, Note_on_c, 7, 63, 96
14, 225090, Note_on_c, 7, 65, 96
14, 225099, Note_on_c, 7, 63, 0
14, 225119, Note_on_c, 7, 65, 0
14, 225120, Note_on_c, 7, 63, 96
14, 225149, Note_on_c, 7, 63, 0
14, 225179, Note_on_c, 7, 68, 0
14, 225180, Note_on_c, 7, 68, 96
14, 225180, Note_on_c, 7, 75, 96
14, 225209, Note_on_c, 7, 75, 0
14, 225209, Note_on_c, 7, 68, 0
14, 225240, Note_on_c, 7, 68, 96
14, 225240, Note_on_c, 7, 77, 96
14, 225269, Note_on_c, 7, 77, 0
14, 225269, Note_on_c, 7, 68, 0
14, 225300, Note_on_c, 7, 68, 96
14, 225300, Note_on_c, 7, 65, 96
14, 225329, Note_on_c, 7, 65, 0
14, 225329, Note_on_c, 7, 68, 0
14, 225360, Note_on_c, 7, 67, 96
14, 225360, Note_on_c, 7, 79, 96
14, 225389, Note_on_c, 7, 79, 0
14, 225389, Note_on_c, 7, 67, 0
14, 225420, Note_on_c, 7, 63, 96
14, 225420, Note_on_c, 7, 67, 96
14, 225449, Note_on_c, 7, 67, 0
14, 225449, Note_on_c, 7, 63, 0
14, 225480, Note_on_c, 7, 75, 96
14, 225480, Note_on_c, 7, 79, 96
14, 225509, Note_on_c, 7, 79, 0
14, 225509, Note_on_c, 7, 75, 0
14, 225540, Note_on_c, 7, 63, 96
14, 225540, Note_on_c, 7, 67, 96
14, 225569, Note_on_c, 7, 67, 0
14, 225569, Note_on_c, 7, 63, 0
14, 225600, Note_on_c, 7, 75, 96
14, 225600, Note_on_c, 7, 80, 96
14, 225629, Note_on_c, 7, 80, 0
14, 225629, Note_on_c, 7, 75, 0
14, 225660, Note_on_c, 7, 63, 96
14, 225660, Note_on_c, 7, 68, 96
14, 225689, Note_on_c, 7, 68, 0
14, 225689, Note_on_c, 7, 63, 0
14, 225720, Note_on_c, 7, 81, 96
14, 225720, Note_on_c, 7, 75, 96
14, 225749, Note_on_c, 7, 75, 0
14, 225749, Note_on_c, 7, 81, 0
14, 225780, Note_on_c, 7, 69, 96
14, 225780, Note_on_c, 7, 63, 96
14, 225809, Note_on_c, 7, 63, 0
14, 225809, Note_on_c, 7, 69, 0
14, 225840, Note_on_c, 7, 82, 96
14, 225840, Note_on_c, 7, 75, 96
14, 225869, Note_on_c, 7, 75, 0
14, 225869, Note_on_c, 7, 82, 0
14, 225900, Note_on_c, 7, 70, 96
14, 225900, Note_on_c, 7, 63, 96
14, 225929, Note_on_c, 7, 63, 0
14, 225929, Note_on_c, 7, 70, 0
14, 225960, Note_on_c, 7, 83, 96
14, 225960, Note_on_c, 7, 75, 96
14, 225989, Note_on_c, 7, 75, 0
14, 225989, Note_on_c, 7, 83, 0
14, 226020, Note_on_c, 7, 71, 96
14, 226020, Note_on_c, 7, 63, 96
14, 226049, Note_on_c, 7, 63, 0
14, 226049, Note_on_c, 7, 71, 0
14, 226080, Note_on_c, 7, 84, 96
14, 226080, Note_on_c, 7, 72, 96
14, 226109, Note_on_c, 7, 72, 0
14, 226109, Note_on_c, 7, 84, 0
14, 226110, Note_on_c, 7, 84, 96
14, 226110, Note_on_c, 7, 72, 96
14, 226139, Note_on_c, 7, 72, 0
14, 226139, Note_on_c, 7, 84, 0
14, 226140, Note_on_c, 7, 83, 96
14, 226140, Note_on_c, 7, 71, 96
14, 226169, Note_on_c, 7, 71, 0
14, 226169, Note_on_c, 7, 83, 0
14, 226170, Note_on_c, 7, 83, 96
14, 226170, Note_on_c, 7, 71, 96
14, 226199, Note_on_c, 7, 71, 0
14, 226199, Note_on_c, 7, 83, 0
14, 226200, Note_on_c, 7, 84, 96
14, 226200, Note_on_c, 7, 72, 96
14, 226229, Note_on_c, 7, 72, 0
14, 226229, Note_on_c, 7, 84, 0
14, 226230, Note_on_c, 7, 84, 96
14, 226230, Note_on_c, 7, 72, 96
14, 226259, Note_on_c, 7, 72, 0
14, 226259, Note_on_c, 7, 84, 0
14, 226260, Note_on_c, 7, 83, 96
14, 226260, Note_on_c, 7, 71, 96
14, 226289, Note_on_c, 7, 71, 0
14, 226289, Note_on_c, 7, 83, 0
14, 226290, Note_on_c, 7, 83, 96
14, 226290, Note_on_c, 7, 71, 96
14, 226319, Note_on_c, 7, 71, 0
14, 226319, Note_on_c, 7, 83, 0
14, 226320, Note_on_c, 7, 84, 96
14, 226320, Note_on_c, 7, 72, 96
14, 226349, Note_on_c, 7, 72, 0
14, 226349, Note_on_c, 7, 84, 0
14, 226350, Note_on_c, 7, 84, 96
14, 226350, Note_on_c, 7, 72, 96
14, 226379, Note_on_c, 7, 72, 0
14, 226379, Note_on_c, 7, 84, 0
14, 226380, Note_on_c, 7, 79, 96
14, 226380, Note_on_c, 7, 67, 96
14, 226409, Note_on_c, 7, 67, 0
14, 226409, Note_on_c, 7, 79, 0
14, 226410, Note_on_c, 7, 79, 96
14, 226410, Note_on_c, 7, 67, 96
14, 226439, Note_on_c, 7, 67, 0
14, 226439, Note_on_c, 7, 79, 0
14, 226440, Note_on_c, 7, 80, 96
14, 226440, Note_on_c, 7, 68, 96
14, 226469, Note_on_c, 7, 68, 0
14, 226469, Note_on_c, 7, 80, 0
14, 226470, Note_on_c, 7, 80, 96
14, 226470, Note_on_c, 7, 68, 96
14, 226499, Note_on_c, 7, 68, 0
14, 226499, Note_on_c, 7, 80, 0
14, 226500, Note_on_c, 7, 79, 96
14, 226500, Note_on_c, 7, 67, 96
14, 226529, Note_on_c, 7, 67, 0
14, 226529, Note_on_c, 7, 79, 0
14, 226530, Note_on_c, 7, 79, 96
14, 226530, Note_on_c, 7, 67, 96
14, 226559, Note_on_c, 7, 67, 0
14, 226559, Note_on_c, 7, 79, 0
14, 226560, Note_on_c, 7, 82, 96
14, 226560, Note_on_c, 7, 70, 96
14, 226589, Note_on_c, 7, 70, 0
14, 226589, Note_on_c, 7, 82, 0
14, 226590, Note_on_c, 7, 82, 96
14, 226590, Note_on_c, 7, 70, 96
14, 226619, Note_on_c, 7, 70, 0
14, 226619, Note_on_c, 7, 82, 0
14, 226620, Note_on_c, 7, 80, 96
14, 226620, Note_on_c, 7, 68, 96
14, 226649, Note_on_c, 7, 68, 0
14, 226649, Note_on_c, 7, 80, 0
14, 226650, Note_on_c, 7, 80, 96
14, 226650, Note_on_c, 7, 68, 96
14, 226679, Note_on_c, 7, 68, 0
14, 226679, Note_on_c, 7, 80, 0
14, 226680, Note_on_c, 7, 79, 96
14, 226680, Note_on_c, 7, 67, 96
14, 226709, Note_on_c, 7, 67, 0
14, 226709, Note_on_c, 7, 79, 0
14, 226710, Note_on_c, 7, 79, 96
14, 226710, Note_on_c, 7, 67, 96
14, 226739, Note_on_c, 7, 67, 0
14, 226739, Note_on_c, 7, 79, 0
14, 226740, Note_on_c, 7, 77, 96
14, 226740, Note_on_c, 7, 65, 96
14, 226769, Note_on_c, 7, 65, 0
14, 226769, Note_on_c, 7, 77, 0
14, 226770, Note_on_c, 7, 77, 96
14, 226770, Note_on_c, 7, 65, 96
14, 226799, Note_on_c, 7, 65, 0
14, 226799, Note_on_c, 7, 77, 0
14, 226800, Note_on_c, 7, 75, 96
14, 226800, Note_on_c, 7, 63, 96
14, 226829, Note_on_c, 7, 63, 0
14, 226829, Note_on_c, 7, 75, 0
14, 226830, Note_on_c, 7, 75, 96
14, 226830, Note_on_c, 7, 63, 96
14, 226859, Note_on_c, 7, 63, 0
14, 226859, Note_on_c, 7, 75, 0
14, 226860, Note_on_c, 7, 70, 96
14, 226860, Note_on_c, 7, 58, 96
14, 226889, Note_on_c, 7, 58, 0
14, 226889, Note_on_c, 7, 70, 0
14, 226890, Note_on_c, 7, 70, 96
14, 226890, Note_on_c, 7, 58, 96
14, 226919, Note_on_c, 7, 58, 0
14, 226919, Note_on_c, 7, 70, 0
14, 226920, Note_on_c, 7, 72, 96
14, 226920, Note_on_c, 7, 60, 96
14, 226949, Note_on_c, 7, 60, 0
14, 226949, Note_on_c, 7, 72, 0
14, 226950, Note_on_c, 7, 72, 96
14, 226950, Note_on_c, 7, 60, 96
14, 226979, Note_on_c, 7, 60, 0
14, 226979, Note_on_c, 7, 72, 0
14, 226980, Note_on_c, 7, 74, 96
14, 226980, Note_on_c, 7, 62, 96
14, 227009, Note_on_c, 7, 62, 0
14, 227009, Note_on_c, 7, 74, 0
14, 227010, Note_on_c, 7, 74, 96
14, 227010, Note_on_c, 7, 62, 96
14, 227039, Note_on_c, 7, 62, 0
14, 227039, Note_on_c, 7, 74, 0
14, 227040, Note_on_c, 7, 75, 96
14, 227040, Note_on_c, 7, 63, 96
14, 227069, Note_on_c, 7, 63, 0
14, 227069, Note_on_c, 7, 75, 0
14, 227070, Note_on_c, 7, 75, 96
14, 227070, Note_on_c, 7, 63, 96
14, 227099, Note_on_c, 7, 63, 0
14, 227099, Note_on_c, 7, 75, 0
14, 227100, Note_on_c, 7, 77, 96
14, 227100, Note_on_c, 7, 65, 96
14, 227129, Note_on_c, 7, 65, 0
14, 227129, Note_on_c, 7, 77, 0
14, 227130, Note_on_c, 7, 77, 96
14, 227130, Note_on_c, 7, 65, 96
14, 227159, Note_on_c, 7, 65, 0
14, 227159, Note_on_c, 7, 77, 0
14, 227160, Note_on_c, 7, 79, 96
14, 227160, Note_on_c, 7, 67, 96
14, 227189, Note_on_c, 7, 67, 0
14, 227189, Note_on_c, 7, 79, 0
14, 227190, Note_on_c, 7, 79, 96
14, 227190, Note_on_c, 7, 67, 96
14, 227219, Note_on_c, 7, 67, 0
14, 227219, Note_on_c, 7, 79, 0
14, 227220, Note_on_c, 7, 80, 96
14, 227220, Note_on_c, 7, 68, 96
14, 227249, Note_on_c, 7, 68, 0
14, 227249, Note_on_c, 7, 80, 0
14, 227250, Note_on_c, 7, 80, 96
14, 227250, Note_on_c, 7, 68, 96
14, 227279, Note_on_c, 7, 68, 0
14, 227279, Note_on_c, 7, 80, 0
14, 227280, Note_on_c, 7, 81, 96
14, 227280, Note_on_c, 7, 69, 96
14, 227309, Note_on_c, 7, 69, 0
14, 227309, Note_on_c, 7, 81, 0
14, 227310, Note_on_c, 7, 81, 96
14, 227310, Note_on_c, 7, 69, 96
14, 227339, Note_on_c, 7, 69, 0
14, 227339, Note_on_c, 7, 81, 0
14, 227340, Note_on_c, 7, 82, 96
14, 227340, Note_on_c, 7, 70, 96
14, 227369, Note_on_c, 7, 70, 0
14, 227369, Note_on_c, 7, 82, 0
14, 227370, Note_on_c, 7, 82, 96
14, 227370, Note_on_c, 7, 70, 96
14, 227399, Note_on_c, 7, 70, 0
14, 227399, Note_on_c, 7, 82, 0
14, 227400, Note_on_c, 7, 80, 96
14, 227400, Note_on_c, 7, 68, 96
14, 227429, Note_on_c, 7, 68, 0
14, 227429, Note_on_c, 7, 80, 0
14, 227430, Note_on_c, 7, 80, 96
14, 227430, Note_on_c, 7, 68, 96
14, 227459, Note_on_c, 7, 68, 0
14, 227459, Note_on_c, 7, 80, 0
14, 227460, Note_on_c, 7, 79, 96
14, 227460, Note_on_c, 7, 67, 96
14, 227489, Note_on_c, 7, 67, 0
14, 227489, Note_on_c, 7, 79, 0
14, 227490, Note_on_c, 7, 79, 96
14, 227490, Note_on_c, 7, 67, 96
14, 227519, Note_on_c, 7, 67, 0
14, 227519, Note_on_c, 7, 79, 0
14, 227520, Note_on_c, 7, 77, 98
14, 227520, Note_on_c, 7, 65, 98
14, 227549, Note_on_c, 7, 65, 0
14, 227549, Note_on_c, 7, 77, 0
14, 227550, Note_on_c, 7, 77, 99
14, 227550, Note_on_c, 7, 65, 99
14, 227579, Note_on_c, 7, 65, 0
14, 227579, Note_on_c, 7, 77, 0
14, 227580, Note_on_c, 7, 79, 100
14, 227580, Note_on_c, 7, 67, 100
14, 227609, Note_on_c, 7, 67, 0
14, 227609, Note_on_c, 7, 79, 0
14, 227610, Note_on_c, 7, 79, 101
14, 227610, Note_on_c, 7, 67, 101
14, 227639, Note_on_c, 7, 67, 0
14, 227639, Note_on_c, 7, 79, 0
14, 227640, Note_on_c, 7, 80, 103
14, 227640, Note_on_c, 7, 68, 103
14, 227669, Note_on_c, 7, 68, 0
14, 227669, Note_on_c, 7, 80, 0
14, 227670, Note_on_c, 7, 80, 104
14, 227670, Note_on_c, 7, 68, 104
14, 227699, Note_on_c, 7, 68, 0
14, 227699, Note_on_c, 7, 80, 0
14, 227700, Note_on_c, 7, 67, 105
14, 227700, Note_on_c, 7, 79, 105
14, 227729, Note_on_c, 7, 79, 0
14, 227729, Note_on_c, 7, 67, 0
14, 227730, Note_on_c, 7, 79, 106
14, 227730, Note_on_c, 7, 67, 106
14, 227759, Note_on_c, 7, 67, 0
14, 227759, Note_on_c, 7, 79, 0
14, 227760, Note_on_c, 7, 77, 108
14, 227760, Note_on_c, 7, 65, 108
14, 227789, Note_on_c, 7, 65, 0
14, 227789, Note_on_c, 7, 77, 0
14, 227790, Note_on_c, 7, 77, 109
14, 227790, Note_on_c, 7, 65, 109
14, 227819, Note_on_c, 7, 65, 0
14, 227819, Note_on_c, 7, 77, 0
14, 227820, Note_on_c, 7, 75, 110
14, 227820, Note_on_c, 7, 63, 110
14, 227849, Note_on_c, 7, 63, 0
14, 227849, Note_on_c, 7, 75, 0
14, 227850, Note_on_c, 7, 75, 111
14, 227850, Note_on_c, 7, 63, 111
14, 227879, Note_on_c, 7, 63, 0
14, 227879, Note_on_c, 7, 75, 0
14, 227880, Note_on_c, 7, 74, 113
14, 227880, Note_on_c, 7, 62, 113
14, 227909, Note_on_c, 7, 62, 0
14, 227909, Note_on_c, 7, 74, 0
14, 227910, Note_on_c, 7, 74, 114
14, 227910, Note_on_c, 7, 62, 114
14, 227939, Note_on_c, 7, 62, 0
14, 227939, Note_on_c, 7, 74, 0
14, 227940, Note_on_c, 7, 75, 115
14, 227940, Note_on_c, 7, 63, 115
14, 227969, Note_on_c, 7, 63, 0
14, 227969, Note_on_c, 7, 75, 0
14, 227970, Note_on_c, 7, 75, 116
14, 227970, Note_on_c, 7, 63, 116
14, 227999, Note_on_c, 7, 63, 0
14, 227999, Note_on_c, 7, 75, 0
14, 228000, Note_on_c, 7, 77, 118
14, 228000, Note_on_c, 7, 65, 118
14, 228029, Note_on_c, 7, 65, 0
14, 228029, Note_on_c, 7, 77, 0
14, 228030, Note_on_c, 7, 77, 119
14, 228030, Note_on_c, 7, 65, 119
14, 228059, Note_on_c, 7, 65, 0
14, 228059, Note_on_c, 7, 77, 0
14, 228060, Note_on_c, 7, 75, 120
14, 228060, Note_on_c, 7, 63, 120
14, 228089, Note_on_c, 7, 63, 0
14, 228089, Note_on_c, 7, 75, 0
14, 228090, Note_on_c, 7, 75, 121
14, 228090, Note_on_c, 7, 63, 121
14, 228119, Note_on_c, 7, 63, 0
14, 228119, Note_on_c, 7, 75, 0
14, 228120, Note_on_c, 7, 74, 123
14, 228120, Note_on_c, 7, 62, 123
14, 228149, Note_on_c, 7, 62, 0
14, 228149, Note_on_c, 7, 74, 0
14, 228150, Note_on_c, 7, 74, 124
14, 228150, Note_on_c, 7, 62, 124
14, 228179, Note_on_c, 7, 62, 0
14, 228179, Note_on_c, 7, 74, 0
14, 228180, Note_on_c, 7, 72, 125
14, 228180, Note_on_c, 7, 60, 125
14, 228209, Note_on_c, 7, 60, 0
14, 228209, Note_on_c, 7, 72, 0
14, 228210, Note_on_c, 7, 72, 126
14, 228210, Note_on_c, 7, 60, 126
14, 228239, Note_on_c, 7, 60, 0
14, 228239, Note_on_c, 7, 72, 0
14, 228240, Note_on_c, 7, 70, 127
14, 228240, Note_on_c, 7, 58, 127
14, 228269, Note_on_c, 7, 58, 0
14, 228269, Note_on_c, 7, 70, 0
14, 228270, Note_on_c, 7, 70, 127
14, 228270, Note_on_c, 7, 58, 127
14, 228299, Note_on_c, 7, 58, 0
14, 228299, Note_on_c, 7, 70, 0
14, 228300, Note_on_c, 7, 81, 127
14, 228300, Note_on_c, 7, 69, 127
14, 228329, Note_on_c, 7, 69, 0
14, 228329, Note_on_c, 7, 81, 0
14, 228330, Note_on_c, 7, 81, 127
14, 228330, Note_on_c, 7, 69, 127
14, 228359, Note_on_c, 7, 69, 0
14, 228359, Note_on_c, 7, 81, 0
14, 228360, Note_on_c, 7, 80, 127
14, 228360, Note_on_c, 7, 68, 127
14, 228389, Note_on_c, 7, 68, 0
14, 228389, Note_on_c, 7, 80, 0
14, 228390, Note_on_c, 7, 80, 127
14, 228390, Note_on_c, 7, 68, 127
14, 228419, Note_on_c, 7, 68, 0
14, 228419, Note_on_c, 7, 80, 0
14, 228420, Note_on_c, 7, 79, 127
14, 228420, Note_on_c, 7, 67, 127
14, 228449, Note_on_c, 7, 67, 0
14, 228449, Note_on_c, 7, 79, 0
14, 228450, Note_on_c, 7, 79, 127
14, 228450, Note_on_c, 7, 67, 127
14, 228479, Note_on_c, 7, 67, 0
14, 228479, Note_on_c, 7, 79, 0
14, 228480, Note_on_c, 7, 77, 127
14, 228480, Note_on_c, 7, 65, 127
14, 228509, Note_on_c, 7, 65, 0
14, 228509, Note_on_c, 7, 77, 0
14, 228510, Note_on_c, 7, 77, 127
14, 228510, Note_on_c, 7, 65, 127
14, 228539, Note_on_c, 7, 65, 0
14, 228539, Note_on_c, 7, 77, 0
14, 228540, Note_on_c, 7, 75, 127
14, 228540, Note_on_c, 7, 63, 127
14, 228569, Note_on_c, 7, 63, 0
14, 228569, Note_on_c, 7, 75, 0
14, 228570, Note_on_c, 7, 75, 127
14, 228570, Note_on_c, 7, 63, 127
14, 228599, Note_on_c, 7, 63, 0
14, 228599, Note_on_c, 7, 75, 0
14, 228600, Note_on_c, 7, 74, 127
14, 228600, Note_on_c, 7, 62, 127
14, 228629, Note_on_c, 7, 62, 0
14, 228629, Note_on_c, 7, 74, 0
14, 228630, Note_on_c, 7, 74, 127
14, 228630, Note_on_c, 7, 62, 127
14, 228659, Note_on_c, 7, 62, 0
14, 228659, Note_on_c, 7, 74, 0
14, 228660, Note_on_c, 7, 72, 127
14, 228689, Note_on_c, 7, 72, 0
14, 228690, Note_on_c, 7, 72, 127
14, 228719, Note_on_c, 7, 72, 0
14, 228720, Note_on_c, 7, 70, 127
14, 228749, Note_on_c, 7, 70, 0
14, 228750, Note_on_c, 7, 70, 127
14, 228779, Note_on_c, 7, 70, 0
14, 228780, Note_on_c, 7, 68, 127
14, 228809, Note_on_c, 7, 68, 0
14, 228810, Note_on_c, 7, 68, 127
14, 228839, Note_on_c, 7, 68, 0
14, 228840, Note_on_c, 7, 67, 127
14, 228869, Note_on_c, 7, 67, 0
14, 228870, Note_on_c, 7, 67, 127
14, 228899, Note_on_c, 7, 67, 0
14, 228900, Note_on_c, 7, 65, 127
14, 228929, Note_on_c, 7, 65, 0
14, 228930, Note_on_c, 7, 65, 127
14, 228959, Note_on_c, 7, 65, 0
14, 228960, Note_on_c, 7, 63, 127
14, 229079, Note_on_c, 7, 63, 0
14, 229079, End_track
15, 0, Start_track
15, 0, MIDI_port, 0
15, 0, Title_t, "Sequenced by"
15, 0, End_track
16, 0, Start_track
16, 0, MIDI_port, 0
16, 0, Title_t, "David Kleinschmidt"
16, 0, End_track
17, 0, Start_track
17, 0, MIDI_port, 0
17, 0, Title_t, "David.Kleinschmidt@oberlin.edu"
17, 0, End_track
0, 0, End_of_file
