0, 0, Header, 1, 2, 256
1, 0, Start_track
1, 0, Time_signature, 2, 2, 24, 8
1, 0, Key_signature, -1, "major"
1, 0, Tempo, 555555
1, 1536, Time_signature, 3, 2, 24, 8
1, 2304, Time_signature, 2, 2, 24, 8
1, 70912, Tempo, 555555
1, 70912, Tempo, 555555
1, 72448, Time_signature, 3, 2, 24, 8
1, 73216, Time_signature, 2, 2, 24, 8
1, 330240, Tempo, 566037
1, 331264, Tempo, 576922
1, 331776, Tempo, 588234
1, 332288, Tempo, 600000
1, 332800, Tempo, 750000
1, 332800, Time_signature, 3, 2, 24, 8
1, 333569, End_track
2, 0, Start_track
2, 128, Note_on_c, 5, 69, 61
2, 256, Note_on_c, 5, 70, 61
2, 262, Note_off_c, 5, 69, 0
2, 381, Note_off_c, 5, 70, 0
2, 384, Note_on_c, 5, 74, 61
2, 512, Note_off_c, 5, 74, 0
2, 512, Note_on_c, 5, 72, 61
2, 640, Note_on_c, 5, 70, 61
2, 646, Note_off_c, 5, 72, 0
2, 704, Note_on_c, 5, 69, 61
2, 707, Note_off_c, 5, 70, 0
2, 766, Note_off_c, 5, 69, 0
2, 768, Note_on_c, 5, 67, 61
2, 896, Note_off_c, 5, 67, 0
2, 896, Note_on_c, 5, 60, 61
2, 1024, Note_off_c, 5, 60, 0
2, 1024, Note_on_c, 5, 65, 61
2, 1152, Note_on_c, 5, 67, 61
2, 1158, Note_off_c, 5, 65, 0
2, 1280, Note_on_c, 5, 69, 61
2, 1286, Note_off_c, 5, 67, 0
2, 1408, Note_on_c, 5, 70, 61
2, 1414, Note_off_c, 5, 69, 0
2, 1472, Note_on_c, 5, 69, 61
2, 1475, Note_off_c, 5, 70, 0
2, 1534, Note_off_c, 5, 69, 0
2, 1536, Note_on_c, 5, 67, 61
2, 2304, Note_off_c, 5, 67, 0
2, 2944, Note_on_c, 5, 67, 61
2, 3008, Note_on_c, 5, 69, 61
2, 3011, Note_off_c, 5, 67, 0
2, 3072, Note_on_c, 5, 70, 61
2, 3075, Note_off_c, 5, 69, 0
2, 3200, Note_on_c, 5, 67, 61
2, 3206, Note_off_c, 5, 70, 0
2, 3328, Note_on_c, 5, 69, 61
2, 3334, Note_off_c, 5, 67, 0
2, 3453, Note_off_c, 5, 69, 0
2, 3712, Note_on_c, 5, 70, 61
2, 3840, Note_on_c, 5, 67, 61
2, 3846, Note_off_c, 5, 70, 0
2, 3965, Note_off_c, 5, 67, 0
2, 3968, Note_on_c, 5, 67, 61
2, 4032, Note_on_c, 5, 69, 61
2, 4035, Note_off_c, 5, 67, 0
2, 4096, Note_on_c, 5, 70, 61
2, 4099, Note_off_c, 5, 69, 0
2, 4224, Note_on_c, 5, 67, 61
2, 4230, Note_off_c, 5, 70, 0
2, 4349, Note_off_c, 5, 67, 0
2, 4352, Note_on_c, 5, 69, 61
2, 4608, Note_on_c, 5, 72, 61
2, 4620, Note_off_c, 5, 69, 0
2, 4864, Note_on_c, 5, 70, 61
2, 4876, Note_off_c, 5, 72, 0
2, 5248, Note_on_c, 5, 69, 88
2, 5267, Note_off_c, 5, 70, 0
2, 5373, Note_off_c, 5, 69, 0
2, 5376, Note_on_c, 5, 74, 98
2, 5632, Note_on_c, 5, 72, 98
2, 5644, Note_off_c, 5, 74, 0
2, 5882, Note_off_c, 5, 72, 0
2, 5888, Note_on_c, 5, 67, 98
2, 5964, Note_off_c, 5, 67, 0
2, 6016, Note_on_c, 5, 67, 98
2, 6080, Note_on_c, 5, 69, 98
2, 6083, Note_off_c, 5, 67, 0
2, 6144, Note_on_c, 5, 70, 98
2, 6147, Note_off_c, 5, 69, 0
2, 6272, Note_on_c, 5, 67, 98
2, 6278, Note_off_c, 5, 70, 0
2, 6397, Note_off_c, 5, 67, 0
2, 6400, Note_on_c, 5, 69, 98
2, 6656, Note_on_c, 5, 72, 98
2, 6668, Note_off_c, 5, 69, 0
2, 6912, Note_on_c, 5, 70, 98
2, 6924, Note_off_c, 5, 72, 0
2, 7296, Note_on_c, 5, 69, 98
2, 7315, Note_off_c, 5, 70, 0
2, 7421, Note_off_c, 5, 69, 0
2, 7424, Note_on_c, 5, 74, 61
2, 7680, Note_on_c, 5, 72, 61
2, 7692, Note_off_c, 5, 74, 0
2, 7930, Note_off_c, 5, 72, 0
2, 7936, Note_on_c, 5, 67, 61
2, 8012, Note_off_c, 5, 67, 0
2, 8064, Note_on_c, 5, 67, 61
2, 8128, Note_on_c, 5, 69, 61
2, 8131, Note_off_c, 5, 67, 0
2, 8190, Note_off_c, 5, 69, 0
2, 8192, Note_on_c, 5, 70, 62
2, 8268, Note_off_c, 5, 70, 0
2, 8320, Note_on_c, 5, 71, 64
2, 8396, Note_off_c, 5, 71, 0
2, 8448, Note_on_c, 5, 72, 67
2, 8524, Note_off_c, 5, 72, 0
2, 8576, Note_on_c, 5, 67, 69
2, 8640, Note_on_c, 5, 69, 71
2, 8643, Note_off_c, 5, 67, 0
2, 8702, Note_off_c, 5, 69, 0
2, 8704, Note_on_c, 5, 70, 72
2, 8780, Note_off_c, 5, 70, 0
2, 8832, Note_on_c, 5, 71, 74
2, 8908, Note_off_c, 5, 71, 0
2, 8960, Note_on_c, 5, 72, 77
2, 9036, Note_off_c, 5, 72, 0
2, 9088, Note_on_c, 5, 67, 79
2, 9152, Note_on_c, 5, 69, 81
2, 9155, Note_off_c, 5, 67, 0
2, 9214, Note_off_c, 5, 69, 0
2, 9216, Note_on_c, 5, 70, 82
2, 9292, Note_off_c, 5, 70, 0
2, 9344, Note_on_c, 5, 71, 84
2, 9420, Note_off_c, 5, 71, 0
2, 9472, Note_on_c, 5, 72, 87
2, 9548, Note_off_c, 5, 72, 0
2, 9600, Note_on_c, 5, 67, 89
2, 9664, Note_on_c, 5, 69, 91
2, 9667, Note_off_c, 5, 67, 0
2, 9726, Note_off_c, 5, 69, 0
2, 9728, Note_on_c, 5, 70, 92
2, 9804, Note_off_c, 5, 70, 0
2, 9856, Note_on_c, 5, 71, 94
2, 9932, Note_off_c, 5, 71, 0
2, 9984, Note_on_c, 5, 72, 98
2, 10060, Note_off_c, 5, 72, 0
2, 10112, Note_on_c, 5, 67, 98
2, 10176, Note_on_c, 5, 69, 98
2, 10179, Note_off_c, 5, 67, 0
2, 10238, Note_off_c, 5, 69, 0
2, 10240, Note_on_c, 5, 70, 98
2, 10316, Note_off_c, 5, 70, 0
2, 10368, Note_on_c, 5, 71, 98
2, 10444, Note_off_c, 5, 71, 0
2, 10496, Note_on_c, 5, 72, 98
2, 10572, Note_off_c, 5, 72, 0
2, 10624, Note_on_c, 5, 67, 98
2, 10688, Note_on_c, 5, 69, 98
2, 10691, Note_off_c, 5, 67, 0
2, 10750, Note_off_c, 5, 69, 0
2, 10752, Note_on_c, 5, 70, 97
2, 10828, Note_off_c, 5, 70, 0
2, 10880, Note_on_c, 5, 71, 93
2, 10956, Note_off_c, 5, 71, 0
2, 11008, Note_on_c, 5, 72, 89
2, 11084, Note_off_c, 5, 72, 0
2, 11136, Note_on_c, 5, 67, 85
2, 11200, Note_on_c, 5, 69, 83
2, 11203, Note_off_c, 5, 67, 0
2, 11262, Note_off_c, 5, 69, 0
2, 11264, Note_on_c, 5, 70, 81
2, 11340, Note_off_c, 5, 70, 0
2, 11392, Note_on_c, 5, 71, 77
2, 11468, Note_off_c, 5, 71, 0
2, 11520, Note_on_c, 5, 72, 73
2, 11596, Note_off_c, 5, 72, 0
2, 11648, Note_on_c, 5, 67, 69
2, 11712, Note_on_c, 5, 69, 67
2, 11715, Note_off_c, 5, 67, 0
2, 11774, Note_off_c, 5, 69, 0
2, 11776, Note_on_c, 5, 70, 66
2, 11852, Note_off_c, 5, 70, 0
2, 11904, Note_on_c, 5, 71, 62
2, 11980, Note_off_c, 5, 71, 0
2, 12032, Note_on_c, 5, 72, 58
2, 12108, Note_off_c, 5, 72, 0
2, 12160, Note_on_c, 5, 67, 54
2, 12224, Note_on_c, 5, 69, 52
2, 12227, Note_off_c, 5, 67, 0
2, 12286, Note_off_c, 5, 69, 0
2, 12288, Note_on_c, 5, 70, 50
2, 12364, Note_off_c, 5, 70, 0
2, 12416, Note_on_c, 5, 71, 46
2, 12492, Note_off_c, 5, 71, 0
2, 12544, Note_on_c, 5, 72, 46
2, 12620, Note_off_c, 5, 72, 0
2, 12672, Note_on_c, 5, 67, 61
2, 12736, Note_on_c, 5, 69, 61
2, 12739, Note_off_c, 5, 67, 0
2, 12798, Note_off_c, 5, 69, 0
2, 12800, Note_on_c, 5, 70, 61
2, 12876, Note_off_c, 5, 70, 0
2, 12928, Note_on_c, 5, 71, 61
2, 13004, Note_off_c, 5, 71, 0
2, 13056, Note_on_c, 5, 72, 61
2, 13132, Note_off_c, 5, 72, 0
2, 13184, Note_on_c, 5, 69, 61
2, 13248, Note_on_c, 5, 70, 61
2, 13251, Note_off_c, 5, 69, 0
2, 13310, Note_off_c, 5, 70, 0
2, 13312, Note_on_c, 5, 72, 61
2, 13388, Note_off_c, 5, 72, 0
2, 13440, Note_on_c, 5, 73, 61
2, 13516, Note_off_c, 5, 73, 0
2, 13568, Note_on_c, 5, 74, 61
2, 13644, Note_off_c, 5, 74, 0
2, 16768, Note_on_c, 5, 65, 61
2, 16832, Note_on_c, 5, 69, 61
2, 16835, Note_off_c, 5, 65, 0
2, 16894, Note_off_c, 5, 69, 0
2, 17024, Note_on_c, 5, 67, 61
2, 17088, Note_on_c, 5, 70, 61
2, 17091, Note_off_c, 5, 67, 0
2, 17150, Note_off_c, 5, 70, 0
2, 17280, Note_on_c, 5, 69, 63
2, 17344, Note_on_c, 5, 72, 65
2, 17347, Note_off_c, 5, 69, 0
2, 17406, Note_off_c, 5, 72, 0
2, 17536, Note_on_c, 5, 67, 69
2, 17600, Note_on_c, 5, 76, 71
2, 17603, Note_off_c, 5, 67, 0
2, 17662, Note_off_c, 5, 76, 0
2, 17792, Note_on_c, 5, 69, 71
2, 17856, Note_on_c, 5, 77, 71
2, 17859, Note_off_c, 5, 69, 0
2, 17918, Note_off_c, 5, 77, 0
2, 18048, Note_on_c, 5, 69, 71
2, 18112, Note_on_c, 5, 77, 71
2, 18115, Note_off_c, 5, 69, 0
2, 18174, Note_off_c, 5, 77, 0
2, 18304, Note_on_c, 5, 76, 84
2, 18368, Note_on_c, 5, 79, 84
2, 18371, Note_off_c, 5, 76, 0
2, 18430, Note_off_c, 5, 79, 0
2, 18560, Note_on_c, 5, 76, 84
2, 18624, Note_on_c, 5, 79, 84
2, 18627, Note_off_c, 5, 76, 0
2, 18686, Note_off_c, 5, 79, 0
2, 18688, Note_on_c, 5, 81, 98
2, 18764, Note_off_c, 5, 81, 0
2, 18816, Note_on_c, 5, 81, 98
2, 18892, Note_off_c, 5, 81, 0
2, 18944, Note_on_c, 5, 82, 98
2, 19020, Note_off_c, 5, 82, 0
2, 19072, Note_on_c, 5, 86, 98
2, 19148, Note_off_c, 5, 86, 0
2, 19200, Note_on_c, 5, 84, 98
2, 19328, Note_on_c, 5, 82, 98
2, 19334, Note_off_c, 5, 84, 0
2, 19392, Note_on_c, 5, 81, 98
2, 19395, Note_off_c, 5, 82, 0
2, 19454, Note_off_c, 5, 81, 0
2, 19456, Note_on_c, 5, 79, 98
2, 19532, Note_off_c, 5, 79, 0
2, 19584, Note_on_c, 5, 72, 98
2, 19660, Note_off_c, 5, 72, 0
2, 19712, Note_on_c, 5, 77, 98
2, 19788, Note_off_c, 5, 77, 0
2, 19840, Note_on_c, 5, 79, 98
2, 19916, Note_off_c, 5, 79, 0
2, 19968, Note_on_c, 5, 81, 98
2, 20096, Note_on_c, 5, 82, 98
2, 20102, Note_off_c, 5, 81, 0
2, 20160, Note_on_c, 5, 81, 98
2, 20163, Note_off_c, 5, 82, 0
2, 20222, Note_off_c, 5, 81, 0
2, 20224, Note_on_c, 5, 79, 98
2, 20300, Note_off_c, 5, 79, 0
2, 20352, Note_on_c, 5, 81, 98
2, 20428, Note_off_c, 5, 81, 0
2, 20480, Note_on_c, 5, 82, 98
2, 20608, Note_on_c, 5, 84, 98
2, 20614, Note_off_c, 5, 82, 0
2, 20672, Note_on_c, 5, 82, 98
2, 20675, Note_off_c, 5, 84, 0
2, 20734, Note_off_c, 5, 82, 0
2, 20736, Note_on_c, 5, 81, 98
2, 20864, Note_on_c, 5, 84, 98
2, 20870, Note_off_c, 5, 81, 0
2, 20938, Note_off_c, 5, 84, 0
2, 20992, Note_on_c, 5, 84, 98
2, 21068, Note_off_c, 5, 84, 0
2, 21120, Note_on_c, 5, 84, 98
2, 21196, Note_off_c, 5, 84, 0
2, 21248, Note_on_c, 5, 84, 98
2, 21504, Note_on_c, 5, 82, 98
2, 21516, Note_off_c, 5, 84, 0
2, 21568, Note_on_c, 5, 81, 98
2, 21571, Note_off_c, 5, 82, 0
2, 21632, Note_on_c, 5, 79, 98
2, 21635, Note_off_c, 5, 81, 0
2, 21696, Note_on_c, 5, 77, 98
2, 21699, Note_off_c, 5, 79, 0
2, 21758, Note_off_c, 5, 77, 0
2, 21760, Note_on_c, 5, 76, 98
2, 21836, Note_off_c, 5, 76, 0
2, 21888, Note_on_c, 5, 77, 98
2, 21964, Note_off_c, 5, 77, 0
2, 22016, Note_on_c, 5, 79, 98
2, 22144, Note_on_c, 5, 81, 98
2, 22150, Note_off_c, 5, 79, 0
2, 22208, Note_on_c, 5, 79, 98
2, 22211, Note_off_c, 5, 81, 0
2, 22270, Note_off_c, 5, 79, 0
2, 22272, Note_on_c, 5, 77, 98
2, 22348, Note_off_c, 5, 77, 0
2, 22400, Note_on_c, 5, 79, 98
2, 22476, Note_off_c, 5, 79, 0
2, 22528, Note_on_c, 5, 81, 98
2, 22656, Note_on_c, 5, 82, 98
2, 22662, Note_off_c, 5, 81, 0
2, 22720, Note_on_c, 5, 81, 98
2, 22723, Note_off_c, 5, 82, 0
2, 22782, Note_off_c, 5, 81, 0
2, 22784, Note_on_c, 5, 79, 98
2, 22912, Note_on_c, 5, 82, 98
2, 22918, Note_off_c, 5, 79, 0
2, 23037, Note_off_c, 5, 82, 0
2, 23040, Note_on_c, 5, 82, 98
2, 23116, Note_off_c, 5, 82, 0
2, 23168, Note_on_c, 5, 82, 98
2, 23244, Note_off_c, 5, 82, 0
2, 23296, Note_on_c, 5, 82, 98
2, 23552, Note_on_c, 5, 84, 98
2, 23564, Note_off_c, 5, 82, 0
2, 23616, Note_on_c, 5, 82, 98
2, 23619, Note_off_c, 5, 84, 0
2, 23680, Note_on_c, 5, 81, 98
2, 23683, Note_off_c, 5, 82, 0
2, 23744, Note_on_c, 5, 79, 98
2, 23747, Note_off_c, 5, 81, 0
2, 23806, Note_off_c, 5, 79, 0
2, 23808, Note_on_c, 5, 81, 98
2, 23884, Note_off_c, 5, 81, 0
2, 23936, Note_on_c, 5, 82, 98
2, 24012, Note_off_c, 5, 82, 0
2, 24064, Note_on_c, 5, 84, 98
2, 24192, Note_on_c, 5, 86, 98
2, 24198, Note_off_c, 5, 84, 0
2, 24256, Note_on_c, 5, 84, 98
2, 24259, Note_off_c, 5, 86, 0
2, 24320, Note_on_c, 5, 82, 98
2, 24323, Note_off_c, 5, 84, 0
2, 24448, Note_on_c, 5, 84, 98
2, 24454, Note_off_c, 5, 82, 0
2, 24512, Note_on_c, 5, 82, 98
2, 24515, Note_off_c, 5, 84, 0
2, 24576, Note_on_c, 5, 79, 98
2, 24579, Note_off_c, 5, 82, 0
2, 24704, Note_on_c, 5, 84, 98
2, 24710, Note_off_c, 5, 79, 0
2, 24768, Note_on_c, 5, 82, 98
2, 24771, Note_off_c, 5, 84, 0
2, 24830, Note_off_c, 5, 82, 0
2, 24832, Note_on_c, 5, 81, 98
2, 24908, Note_off_c, 5, 81, 0
2, 24960, Note_on_c, 5, 82, 98
2, 25036, Note_off_c, 5, 82, 0
2, 25088, Note_on_c, 5, 84, 98
2, 25216, Note_on_c, 5, 86, 98
2, 25222, Note_off_c, 5, 84, 0
2, 25280, Note_on_c, 5, 84, 98
2, 25283, Note_off_c, 5, 86, 0
2, 25344, Note_on_c, 5, 82, 98
2, 25347, Note_off_c, 5, 84, 0
2, 25472, Note_on_c, 5, 84, 98
2, 25478, Note_off_c, 5, 82, 0
2, 25536, Note_on_c, 5, 82, 98
2, 25539, Note_off_c, 5, 84, 0
2, 25600, Note_on_c, 5, 79, 98
2, 25603, Note_off_c, 5, 82, 0
2, 25728, Note_on_c, 5, 84, 98
2, 25734, Note_off_c, 5, 79, 0
2, 25792, Note_on_c, 5, 82, 98
2, 25795, Note_off_c, 5, 84, 0
2, 25854, Note_off_c, 5, 82, 0
2, 25856, Note_on_c, 5, 81, 98
2, 25984, Note_on_c, 5, 84, 98
2, 25990, Note_off_c, 5, 81, 0
2, 26048, Note_on_c, 5, 82, 98
2, 26051, Note_off_c, 5, 84, 0
2, 26112, Note_on_c, 5, 79, 98
2, 26115, Note_off_c, 5, 82, 0
2, 26240, Note_on_c, 5, 84, 98
2, 26246, Note_off_c, 5, 79, 0
2, 26304, Note_on_c, 5, 82, 98
2, 26307, Note_off_c, 5, 84, 0
2, 26366, Note_off_c, 5, 82, 0
2, 26368, Note_on_c, 5, 81, 98
2, 26496, Note_on_c, 5, 84, 98
2, 26502, Note_off_c, 5, 81, 0
2, 26560, Note_on_c, 5, 82, 98
2, 26563, Note_off_c, 5, 84, 0
2, 26624, Note_on_c, 5, 79, 98
2, 26627, Note_off_c, 5, 82, 0
2, 26752, Note_on_c, 5, 84, 98
2, 26758, Note_off_c, 5, 79, 0
2, 26816, Note_on_c, 5, 82, 98
2, 26819, Note_off_c, 5, 84, 0
2, 26878, Note_off_c, 5, 82, 0
2, 26880, Note_on_c, 5, 65, 98
2, 26880, Note_on_c, 5, 72, 98
2, 26880, Note_on_c, 5, 81, 98
2, 27008, Note_off_c, 5, 65, 0
2, 27008, Note_off_c, 5, 72, 0
2, 27008, Note_off_c, 5, 81, 0
2, 27520, Note_on_c, 5, 65, 61
2, 27648, Note_on_c, 5, 67, 61
2, 27654, Note_off_c, 5, 65, 0
2, 27773, Note_off_c, 5, 67, 0
2, 27776, Note_on_c, 5, 70, 61
2, 27852, Note_off_c, 5, 70, 0
2, 27904, Note_on_c, 5, 69, 61
2, 27980, Note_off_c, 5, 69, 0
2, 28032, Note_on_c, 5, 74, 61
2, 28160, Note_on_c, 5, 76, 61
2, 28166, Note_off_c, 5, 74, 0
2, 28285, Note_off_c, 5, 76, 0
2, 28288, Note_on_c, 5, 79, 61
2, 28364, Note_off_c, 5, 79, 0
2, 28416, Note_on_c, 5, 77, 61
2, 28492, Note_off_c, 5, 77, 0
2, 28544, Note_on_c, 5, 77, 61
2, 28672, Note_on_c, 5, 79, 61
2, 28678, Note_off_c, 5, 77, 0
2, 28797, Note_off_c, 5, 79, 0
2, 28800, Note_on_c, 5, 82, 61
2, 28876, Note_off_c, 5, 82, 0
2, 28928, Note_on_c, 5, 81, 61
2, 29056, Note_off_c, 5, 81, 0
2, 29568, Note_on_c, 5, 65, 61
2, 29696, Note_on_c, 5, 67, 61
2, 29702, Note_off_c, 5, 65, 0
2, 29821, Note_off_c, 5, 67, 0
2, 29824, Note_on_c, 5, 70, 61
2, 29900, Note_off_c, 5, 70, 0
2, 29952, Note_on_c, 5, 69, 61
2, 30028, Note_off_c, 5, 69, 0
2, 30080, Note_on_c, 5, 74, 61
2, 30208, Note_on_c, 5, 76, 61
2, 30214, Note_off_c, 5, 74, 0
2, 30333, Note_off_c, 5, 76, 0
2, 30336, Note_on_c, 5, 79, 61
2, 30412, Note_off_c, 5, 79, 0
2, 30464, Note_on_c, 5, 77, 61
2, 30540, Note_off_c, 5, 77, 0
2, 30592, Note_on_c, 5, 77, 61
2, 30720, Note_on_c, 5, 79, 61
2, 30726, Note_off_c, 5, 77, 0
2, 30845, Note_off_c, 5, 79, 0
2, 30848, Note_on_c, 5, 82, 61
2, 30924, Note_off_c, 5, 82, 0
2, 30976, Note_on_c, 5, 81, 61
2, 31104, Note_off_c, 5, 81, 0
2, 31616, Note_on_c, 5, 77, 61
2, 31744, Note_on_c, 5, 79, 61
2, 31750, Note_off_c, 5, 77, 0
2, 31869, Note_off_c, 5, 79, 0
2, 31872, Note_on_c, 5, 81, 61
2, 31948, Note_off_c, 5, 81, 0
2, 32000, Note_on_c, 5, 79, 61
2, 32256, Note_off_c, 5, 79, 0
2, 32640, Note_on_c, 5, 78, 61
2, 32768, Note_on_c, 5, 79, 61
2, 32774, Note_off_c, 5, 78, 0
2, 32893, Note_off_c, 5, 79, 0
2, 32896, Note_on_c, 5, 81, 61
2, 32972, Note_off_c, 5, 81, 0
2, 33024, Note_on_c, 5, 79, 61
2, 33100, Note_off_c, 5, 79, 0
2, 33152, Note_on_c, 5, 78, 61
2, 33280, Note_on_c, 5, 79, 61
2, 33286, Note_off_c, 5, 78, 0
2, 33405, Note_off_c, 5, 79, 0
2, 33408, Note_on_c, 5, 81, 61
2, 33484, Note_off_c, 5, 81, 0
2, 33536, Note_on_c, 5, 79, 61
2, 33612, Note_off_c, 5, 79, 0
2, 33664, Note_on_c, 5, 78, 71
2, 33792, Note_on_c, 5, 79, 71
2, 33798, Note_off_c, 5, 78, 0
2, 33917, Note_off_c, 5, 79, 0
2, 33920, Note_on_c, 5, 81, 71
2, 33996, Note_off_c, 5, 81, 0
2, 34048, Note_on_c, 5, 79, 71
2, 34176, Note_on_c, 5, 77, 71
2, 34182, Note_off_c, 5, 79, 0
2, 34304, Note_on_c, 5, 74, 71
2, 34310, Note_off_c, 5, 77, 0
2, 34432, Note_on_c, 5, 71, 71
2, 34438, Note_off_c, 5, 74, 0
2, 34560, Note_on_c, 5, 67, 71
2, 34566, Note_off_c, 5, 71, 0
2, 34688, Note_on_c, 5, 74, 71
2, 34694, Note_off_c, 5, 67, 0
2, 34816, Note_on_c, 5, 71, 71
2, 34822, Note_off_c, 5, 74, 0
2, 34944, Note_on_c, 5, 67, 71
2, 34950, Note_off_c, 5, 71, 0
2, 35069, Note_off_c, 5, 67, 0
2, 35072, Note_on_c, 5, 81, 71
2, 35200, Note_on_c, 5, 79, 71
2, 35206, Note_off_c, 5, 81, 0
2, 35328, Note_on_c, 5, 76, 71
2, 35334, Note_off_c, 5, 79, 0
2, 35456, Note_on_c, 5, 72, 71
2, 35462, Note_off_c, 5, 76, 0
2, 35584, Note_on_c, 5, 67, 71
2, 35590, Note_off_c, 5, 72, 0
2, 35712, Note_on_c, 5, 76, 71
2, 35718, Note_off_c, 5, 67, 0
2, 35840, Note_on_c, 5, 72, 71
2, 35846, Note_off_c, 5, 76, 0
2, 35968, Note_on_c, 5, 67, 71
2, 35974, Note_off_c, 5, 72, 0
2, 36093, Note_off_c, 5, 67, 0
2, 36096, Note_on_c, 5, 62, 61
2, 36224, Note_on_c, 5, 55, 61
2, 36230, Note_off_c, 5, 62, 0
2, 36352, Note_on_c, 5, 62, 61
2, 36358, Note_off_c, 5, 55, 0
2, 36480, Note_on_c, 5, 55, 61
2, 36486, Note_off_c, 5, 62, 0
2, 36608, Note_on_c, 5, 62, 61
2, 36614, Note_off_c, 5, 55, 0
2, 36736, Note_on_c, 5, 55, 61
2, 36742, Note_off_c, 5, 62, 0
2, 36864, Note_on_c, 5, 62, 61
2, 36870, Note_off_c, 5, 55, 0
2, 36992, Note_on_c, 5, 55, 61
2, 36998, Note_off_c, 5, 62, 0
2, 37117, Note_off_c, 5, 55, 0
2, 37120, Note_on_c, 5, 64, 61
2, 37248, Note_on_c, 5, 55, 61
2, 37254, Note_off_c, 5, 64, 0
2, 37376, Note_on_c, 5, 64, 61
2, 37382, Note_off_c, 5, 55, 0
2, 37504, Note_on_c, 5, 55, 61
2, 37510, Note_off_c, 5, 64, 0
2, 37632, Note_on_c, 5, 64, 61
2, 37638, Note_off_c, 5, 55, 0
2, 37760, Note_on_c, 5, 55, 61
2, 37766, Note_off_c, 5, 64, 0
2, 37888, Note_on_c, 5, 64, 61
2, 37894, Note_off_c, 5, 55, 0
2, 38016, Note_on_c, 5, 55, 61
2, 38022, Note_off_c, 5, 64, 0
2, 38141, Note_off_c, 5, 55, 0
2, 38144, Note_on_c, 5, 67, 71
2, 39168, Note_off_c, 5, 67, 0
2, 39168, Note_on_c, 5, 72, 71
2, 40192, Note_off_c, 5, 72, 0
2, 40192, Note_on_c, 5, 71, 84
2, 40448, Note_off_c, 5, 71, 0
2, 40448, Note_on_c, 5, 71, 84
2, 40704, Note_off_c, 5, 71, 0
2, 40704, Note_on_c, 5, 71, 84
2, 40960, Note_on_c, 5, 74, 84
2, 40972, Note_off_c, 5, 71, 0
2, 41088, Note_on_c, 5, 71, 84
2, 41094, Note_off_c, 5, 74, 0
2, 41213, Note_off_c, 5, 71, 0
2, 41216, Note_on_c, 5, 72, 84
2, 41472, Note_off_c, 5, 72, 0
2, 41472, Note_on_c, 5, 72, 84
2, 41728, Note_off_c, 5, 72, 0
2, 41728, Note_on_c, 5, 72, 84
2, 41984, Note_on_c, 5, 76, 84
2, 41996, Note_off_c, 5, 72, 0
2, 42112, Note_on_c, 5, 72, 84
2, 42118, Note_off_c, 5, 76, 0
2, 42237, Note_off_c, 5, 72, 0
2, 42240, Note_on_c, 5, 79, 84
2, 42325, Note_on_c, 5, 81, 84
2, 42329, Note_off_c, 5, 79, 0
2, 42410, Note_on_c, 5, 79, 84
2, 42414, Note_off_c, 5, 81, 0
2, 42496, Note_on_c, 5, 81, 84
2, 42500, Note_off_c, 5, 79, 0
2, 42581, Note_on_c, 5, 79, 84
2, 42585, Note_off_c, 5, 81, 0
2, 42666, Note_on_c, 5, 81, 84
2, 42670, Note_off_c, 5, 79, 0
2, 42752, Note_on_c, 5, 79, 84
2, 42756, Note_off_c, 5, 81, 0
2, 42837, Note_on_c, 5, 81, 84
2, 42841, Note_off_c, 5, 79, 0
2, 42922, Note_on_c, 5, 79, 84
2, 42926, Note_off_c, 5, 81, 0
2, 43008, Note_on_c, 5, 81, 84
2, 43012, Note_off_c, 5, 79, 0
2, 43093, Note_on_c, 5, 79, 84
2, 43097, Note_off_c, 5, 81, 0
2, 43178, Note_on_c, 5, 81, 84
2, 43182, Note_off_c, 5, 79, 0
2, 43262, Note_off_c, 5, 81, 0
2, 43264, Note_on_c, 5, 79, 84
2, 43349, Note_on_c, 5, 81, 84
2, 43353, Note_off_c, 5, 79, 0
2, 43434, Note_on_c, 5, 79, 84
2, 43438, Note_off_c, 5, 81, 0
2, 43520, Note_on_c, 5, 81, 84
2, 43524, Note_off_c, 5, 79, 0
2, 43605, Note_on_c, 5, 79, 84
2, 43609, Note_off_c, 5, 81, 0
2, 43690, Note_on_c, 5, 81, 84
2, 43694, Note_off_c, 5, 79, 0
2, 43776, Note_on_c, 5, 79, 84
2, 43780, Note_off_c, 5, 81, 0
2, 43861, Note_on_c, 5, 81, 84
2, 43865, Note_off_c, 5, 79, 0
2, 43946, Note_on_c, 5, 79, 84
2, 43950, Note_off_c, 5, 81, 0
2, 44032, Note_on_c, 5, 81, 84
2, 44036, Note_off_c, 5, 79, 0
2, 44117, Note_on_c, 5, 79, 84
2, 44121, Note_off_c, 5, 81, 0
2, 44202, Note_on_c, 5, 81, 84
2, 44206, Note_off_c, 5, 79, 0
2, 44286, Note_off_c, 5, 81, 0
2, 44288, Note_on_c, 5, 79, 84
2, 44339, Note_off_c, 5, 79, 0
2, 44352, Note_on_c, 5, 81, 84
2, 44403, Note_off_c, 5, 81, 0
2, 44416, Note_on_c, 5, 79, 84
2, 44467, Note_off_c, 5, 79, 0
2, 44480, Note_on_c, 5, 81, 84
2, 44531, Note_off_c, 5, 81, 0
2, 44544, Note_on_c, 5, 79, 84
2, 44595, Note_off_c, 5, 79, 0
2, 44608, Note_on_c, 5, 81, 84
2, 44659, Note_off_c, 5, 81, 0
2, 44672, Note_on_c, 5, 79, 84
2, 44723, Note_off_c, 5, 79, 0
2, 44736, Note_on_c, 5, 81, 84
2, 44787, Note_off_c, 5, 81, 0
2, 44800, Note_on_c, 5, 79, 84
2, 44851, Note_off_c, 5, 79, 0
2, 44864, Note_on_c, 5, 81, 84
2, 44915, Note_off_c, 5, 81, 0
2, 44928, Note_on_c, 5, 79, 84
2, 44979, Note_off_c, 5, 79, 0
2, 44992, Note_on_c, 5, 81, 84
2, 45043, Note_off_c, 5, 81, 0
2, 45056, Note_on_c, 5, 79, 84
2, 45107, Note_off_c, 5, 79, 0
2, 45120, Note_on_c, 5, 81, 84
2, 45171, Note_off_c, 5, 81, 0
2, 45184, Note_on_c, 5, 79, 84
2, 45235, Note_off_c, 5, 79, 0
2, 45248, Note_on_c, 5, 81, 84
2, 45299, Note_off_c, 5, 81, 0
2, 45312, Note_on_c, 5, 79, 84
2, 45363, Note_off_c, 5, 79, 0
2, 45376, Note_on_c, 5, 81, 84
2, 45427, Note_off_c, 5, 81, 0
2, 45440, Note_on_c, 5, 79, 84
2, 45491, Note_off_c, 5, 79, 0
2, 45504, Note_on_c, 5, 81, 84
2, 45555, Note_off_c, 5, 81, 0
2, 45568, Note_on_c, 5, 79, 84
2, 45619, Note_off_c, 5, 79, 0
2, 45632, Note_on_c, 5, 81, 84
2, 45683, Note_off_c, 5, 81, 0
2, 45696, Note_on_c, 5, 79, 84
2, 45747, Note_off_c, 5, 79, 0
2, 45760, Note_on_c, 5, 81, 84
2, 45811, Note_off_c, 5, 81, 0
2, 45824, Note_on_c, 5, 79, 84
2, 45875, Note_off_c, 5, 79, 0
2, 45888, Note_on_c, 5, 81, 84
2, 45939, Note_off_c, 5, 81, 0
2, 45952, Note_on_c, 5, 79, 84
2, 46003, Note_off_c, 5, 79, 0
2, 46016, Note_on_c, 5, 81, 84
2, 46067, Note_off_c, 5, 81, 0
2, 46080, Note_on_c, 5, 79, 84
2, 46131, Note_off_c, 5, 79, 0
2, 46144, Note_on_c, 5, 81, 84
2, 46195, Note_off_c, 5, 81, 0
2, 46208, Note_on_c, 5, 79, 84
2, 46259, Note_off_c, 5, 79, 0
2, 46272, Note_on_c, 5, 81, 84
2, 46323, Note_off_c, 5, 81, 0
2, 46336, Note_on_c, 5, 79, 84
2, 46387, Note_off_c, 5, 79, 0
2, 46400, Note_on_c, 5, 81, 84
2, 46451, Note_off_c, 5, 81, 0
2, 46464, Note_on_c, 5, 79, 84
2, 46515, Note_off_c, 5, 79, 0
2, 46528, Note_on_c, 5, 81, 84
2, 46579, Note_off_c, 5, 81, 0
2, 46592, Note_on_c, 5, 79, 84
2, 46643, Note_off_c, 5, 79, 0
2, 46656, Note_on_c, 5, 81, 84
2, 46707, Note_off_c, 5, 81, 0
2, 46720, Note_on_c, 5, 79, 84
2, 46771, Note_off_c, 5, 79, 0
2, 46784, Note_on_c, 5, 81, 84
2, 46835, Note_off_c, 5, 81, 0
2, 46848, Note_on_c, 5, 79, 84
2, 46899, Note_off_c, 5, 79, 0
2, 46912, Note_on_c, 5, 81, 84
2, 46963, Note_off_c, 5, 81, 0
2, 46976, Note_on_c, 5, 79, 84
2, 47027, Note_off_c, 5, 79, 0
2, 47040, Note_on_c, 5, 81, 84
2, 47091, Note_off_c, 5, 81, 0
2, 47104, Note_on_c, 5, 79, 84
2, 47155, Note_off_c, 5, 79, 0
2, 47168, Note_on_c, 5, 81, 84
2, 47219, Note_off_c, 5, 81, 0
2, 47232, Note_on_c, 5, 79, 84
2, 47283, Note_off_c, 5, 79, 0
2, 47296, Note_on_c, 5, 81, 84
2, 47347, Note_off_c, 5, 81, 0
2, 47360, Note_on_c, 5, 79, 98
2, 47744, Note_on_c, 5, 81, 98
2, 47763, Note_off_c, 5, 79, 0
2, 47808, Note_on_c, 5, 83, 98
2, 47811, Note_off_c, 5, 81, 0
2, 47870, Note_off_c, 5, 83, 0
2, 47872, Note_on_c, 5, 84, 98
2, 48000, Note_on_c, 5, 83, 98
2, 48006, Note_off_c, 5, 84, 0
2, 48064, Note_on_c, 5, 81, 98
2, 48067, Note_off_c, 5, 83, 0
2, 48128, Note_on_c, 5, 79, 98
2, 48131, Note_off_c, 5, 81, 0
2, 48256, Note_on_c, 5, 81, 98
2, 48262, Note_off_c, 5, 79, 0
2, 48320, Note_on_c, 5, 83, 98
2, 48323, Note_off_c, 5, 81, 0
2, 48382, Note_off_c, 5, 83, 0
2, 48384, Note_on_c, 5, 84, 98
2, 48512, Note_on_c, 5, 83, 98
2, 48518, Note_off_c, 5, 84, 0
2, 48576, Note_on_c, 5, 81, 98
2, 48579, Note_off_c, 5, 83, 0
2, 48640, Note_on_c, 5, 79, 98
2, 48643, Note_off_c, 5, 81, 0
2, 48768, Note_on_c, 5, 81, 98
2, 48774, Note_off_c, 5, 79, 0
2, 48832, Note_on_c, 5, 83, 98
2, 48835, Note_off_c, 5, 81, 0
2, 48894, Note_off_c, 5, 83, 0
2, 48896, Note_on_c, 5, 84, 98
2, 49024, Note_off_c, 5, 84, 0
2, 49408, Note_on_c, 5, 69, 61
2, 49536, Note_on_c, 5, 72, 61
2, 49542, Note_off_c, 5, 69, 0
2, 49664, Note_on_c, 5, 69, 61
2, 49670, Note_off_c, 5, 72, 0
2, 49792, Note_on_c, 5, 72, 61
2, 49798, Note_off_c, 5, 69, 0
2, 49920, Note_on_c, 5, 67, 61
2, 49926, Note_off_c, 5, 72, 0
2, 50048, Note_on_c, 5, 72, 61
2, 50054, Note_off_c, 5, 67, 0
2, 50176, Note_on_c, 5, 67, 61
2, 50182, Note_off_c, 5, 72, 0
2, 50304, Note_on_c, 5, 72, 61
2, 50310, Note_off_c, 5, 67, 0
2, 50432, Note_on_c, 5, 67, 61
2, 50438, Note_off_c, 5, 72, 0
2, 50560, Note_on_c, 5, 71, 61
2, 50566, Note_off_c, 5, 67, 0
2, 50688, Note_on_c, 5, 67, 61
2, 50694, Note_off_c, 5, 71, 0
2, 50816, Note_on_c, 5, 71, 61
2, 50822, Note_off_c, 5, 67, 0
2, 50941, Note_off_c, 5, 71, 0
2, 50944, Note_on_c, 5, 79, 113
2, 51328, Note_on_c, 5, 81, 113
2, 51347, Note_off_c, 5, 79, 0
2, 51392, Note_on_c, 5, 83, 113
2, 51395, Note_off_c, 5, 81, 0
2, 51454, Note_off_c, 5, 83, 0
2, 51456, Note_on_c, 5, 84, 113
2, 51584, Note_on_c, 5, 83, 113
2, 51590, Note_off_c, 5, 84, 0
2, 51648, Note_on_c, 5, 81, 113
2, 51651, Note_off_c, 5, 83, 0
2, 51712, Note_on_c, 5, 79, 113
2, 51715, Note_off_c, 5, 81, 0
2, 51840, Note_on_c, 5, 81, 113
2, 51846, Note_off_c, 5, 79, 0
2, 51904, Note_on_c, 5, 83, 113
2, 51907, Note_off_c, 5, 81, 0
2, 51966, Note_off_c, 5, 83, 0
2, 51968, Note_on_c, 5, 84, 113
2, 52096, Note_on_c, 5, 83, 113
2, 52102, Note_off_c, 5, 84, 0
2, 52160, Note_on_c, 5, 81, 113
2, 52163, Note_off_c, 5, 83, 0
2, 52224, Note_on_c, 5, 79, 113
2, 52227, Note_off_c, 5, 81, 0
2, 52352, Note_on_c, 5, 81, 113
2, 52358, Note_off_c, 5, 79, 0
2, 52416, Note_on_c, 5, 83, 113
2, 52419, Note_off_c, 5, 81, 0
2, 52478, Note_off_c, 5, 83, 0
2, 52480, Note_on_c, 5, 84, 98
2, 52608, Note_off_c, 5, 84, 0
2, 52992, Note_on_c, 5, 69, 61
2, 53120, Note_on_c, 5, 72, 61
2, 53126, Note_off_c, 5, 69, 0
2, 53248, Note_on_c, 5, 69, 61
2, 53254, Note_off_c, 5, 72, 0
2, 53376, Note_on_c, 5, 72, 61
2, 53382, Note_off_c, 5, 69, 0
2, 53504, Note_on_c, 5, 67, 61
2, 53510, Note_off_c, 5, 72, 0
2, 53632, Note_on_c, 5, 72, 61
2, 53638, Note_off_c, 5, 67, 0
2, 53760, Note_on_c, 5, 67, 61
2, 53766, Note_off_c, 5, 72, 0
2, 53888, Note_on_c, 5, 72, 61
2, 53894, Note_off_c, 5, 67, 0
2, 54016, Note_on_c, 5, 67, 61
2, 54022, Note_off_c, 5, 72, 0
2, 54144, Note_on_c, 5, 71, 61
2, 54150, Note_off_c, 5, 67, 0
2, 54272, Note_on_c, 5, 67, 61
2, 54278, Note_off_c, 5, 71, 0
2, 54400, Note_on_c, 5, 71, 61
2, 54406, Note_off_c, 5, 67, 0
2, 54528, Note_on_c, 5, 67, 61
2, 54534, Note_off_c, 5, 71, 0
2, 54653, Note_off_c, 5, 67, 0
2, 54656, Note_on_c, 5, 72, 61
2, 54784, Note_off_c, 5, 72, 0
2, 54784, Note_on_c, 5, 72, 61
2, 54912, Note_off_c, 5, 72, 0
2, 54912, Note_on_c, 5, 72, 61
2, 55040, Note_off_c, 5, 72, 0
2, 55040, Note_on_c, 5, 69, 71
2, 55168, Note_on_c, 5, 72, 71
2, 55174, Note_off_c, 5, 69, 0
2, 55296, Note_on_c, 5, 69, 71
2, 55302, Note_off_c, 5, 72, 0
2, 55424, Note_on_c, 5, 72, 71
2, 55430, Note_off_c, 5, 69, 0
2, 55552, Note_on_c, 5, 67, 71
2, 55558, Note_off_c, 5, 72, 0
2, 55680, Note_on_c, 5, 72, 71
2, 55686, Note_off_c, 5, 67, 0
2, 55808, Note_on_c, 5, 67, 71
2, 55814, Note_off_c, 5, 72, 0
2, 55936, Note_on_c, 5, 72, 71
2, 55942, Note_off_c, 5, 67, 0
2, 56064, Note_on_c, 5, 67, 84
2, 56070, Note_off_c, 5, 72, 0
2, 56192, Note_on_c, 5, 71, 84
2, 56198, Note_off_c, 5, 67, 0
2, 56320, Note_on_c, 5, 67, 84
2, 56326, Note_off_c, 5, 71, 0
2, 56448, Note_on_c, 5, 71, 84
2, 56454, Note_off_c, 5, 67, 0
2, 56576, Note_on_c, 5, 72, 98
2, 56582, Note_off_c, 5, 71, 0
2, 56659, Note_off_c, 5, 72, 0
2, 56661, Note_on_c, 5, 84, 98
2, 56746, Note_off_c, 5, 84, 0
2, 56746, Note_on_c, 5, 84, 98
2, 56832, Note_off_c, 5, 84, 0
2, 56832, Note_on_c, 5, 84, 98
2, 56917, Note_off_c, 5, 84, 0
2, 56917, Note_on_c, 5, 84, 98
2, 57002, Note_off_c, 5, 84, 0
2, 57002, Note_on_c, 5, 84, 98
2, 57088, Note_off_c, 5, 84, 0
2, 57088, Note_on_c, 5, 84, 98
2, 57173, Note_off_c, 5, 84, 0
2, 57173, Note_on_c, 5, 72, 98
2, 57258, Note_off_c, 5, 72, 0
2, 57258, Note_on_c, 5, 84, 98
2, 57344, Note_off_c, 5, 84, 0
2, 57344, Note_on_c, 5, 72, 98
2, 57429, Note_off_c, 5, 72, 0
2, 57429, Note_on_c, 5, 83, 98
2, 57514, Note_off_c, 5, 83, 0
2, 57514, Note_on_c, 5, 81, 98
2, 57600, Note_off_c, 5, 81, 0
2, 57600, Note_on_c, 5, 79, 98
2, 57685, Note_off_c, 5, 79, 0
2, 57685, Note_on_c, 5, 67, 98
2, 57770, Note_off_c, 5, 67, 0
2, 57770, Note_on_c, 5, 79, 98
2, 57856, Note_off_c, 5, 79, 0
2, 57856, Note_on_c, 5, 67, 98
2, 57941, Note_off_c, 5, 67, 0
2, 57941, Note_on_c, 5, 77, 98
2, 58026, Note_off_c, 5, 77, 0
2, 58026, Note_on_c, 5, 76, 98
2, 58112, Note_off_c, 5, 76, 0
2, 58112, Note_on_c, 5, 74, 98
2, 58197, Note_off_c, 5, 74, 0
2, 58197, Note_on_c, 5, 65, 98
2, 58282, Note_off_c, 5, 65, 0
2, 58282, Note_on_c, 5, 74, 98
2, 58368, Note_off_c, 5, 74, 0
2, 58368, Note_on_c, 5, 65, 98
2, 58453, Note_off_c, 5, 65, 0
2, 58453, Note_on_c, 5, 72, 98
2, 58538, Note_off_c, 5, 72, 0
2, 58538, Note_on_c, 5, 74, 98
2, 58624, Note_off_c, 5, 74, 0
2, 58624, Note_on_c, 5, 72, 98
2, 58880, Note_off_c, 5, 72, 0
2, 59008, Note_on_c, 5, 76, 98
2, 59072, Note_on_c, 5, 74, 98
2, 59075, Note_off_c, 5, 76, 0
2, 59136, Note_on_c, 5, 72, 98
2, 59139, Note_off_c, 5, 74, 0
2, 59210, Note_off_c, 5, 72, 0
2, 59264, Note_on_c, 5, 76, 98
2, 59328, Note_on_c, 5, 74, 98
2, 59331, Note_off_c, 5, 76, 0
2, 59392, Note_on_c, 5, 72, 98
2, 59395, Note_off_c, 5, 74, 0
2, 59466, Note_off_c, 5, 72, 0
2, 59520, Note_on_c, 5, 81, 98
2, 59584, Note_on_c, 5, 78, 98
2, 59587, Note_off_c, 5, 81, 0
2, 59648, Note_on_c, 5, 79, 98
2, 59651, Note_off_c, 5, 78, 0
2, 59797, Note_off_c, 5, 79, 0
2, 60032, Note_on_c, 5, 81, 98
2, 60096, Note_on_c, 5, 79, 98
2, 60099, Note_off_c, 5, 81, 0
2, 60160, Note_on_c, 5, 76, 98
2, 60163, Note_off_c, 5, 79, 0
2, 60234, Note_off_c, 5, 76, 0
2, 60288, Note_on_c, 5, 79, 98
2, 60352, Note_on_c, 5, 77, 98
2, 60355, Note_off_c, 5, 79, 0
2, 60416, Note_on_c, 5, 74, 98
2, 60419, Note_off_c, 5, 77, 0
2, 60490, Note_off_c, 5, 74, 0
2, 60544, Note_on_c, 5, 77, 98
2, 60608, Note_on_c, 5, 76, 98
2, 60611, Note_off_c, 5, 77, 0
2, 60672, Note_on_c, 5, 72, 98
2, 60675, Note_off_c, 5, 76, 0
2, 60821, Note_off_c, 5, 72, 0
2, 61056, Note_on_c, 5, 76, 98
2, 61120, Note_on_c, 5, 74, 98
2, 61123, Note_off_c, 5, 76, 0
2, 61184, Note_on_c, 5, 72, 98
2, 61187, Note_off_c, 5, 74, 0
2, 61258, Note_off_c, 5, 72, 0
2, 61312, Note_on_c, 5, 76, 98
2, 61376, Note_on_c, 5, 74, 98
2, 61379, Note_off_c, 5, 76, 0
2, 61440, Note_on_c, 5, 72, 98
2, 61443, Note_off_c, 5, 74, 0
2, 61514, Note_off_c, 5, 72, 0
2, 61568, Note_on_c, 5, 81, 98
2, 61632, Note_on_c, 5, 78, 98
2, 61635, Note_off_c, 5, 81, 0
2, 61696, Note_on_c, 5, 79, 98
2, 61699, Note_off_c, 5, 78, 0
2, 61845, Note_off_c, 5, 79, 0
2, 62080, Note_on_c, 5, 81, 98
2, 62144, Note_on_c, 5, 79, 98
2, 62147, Note_off_c, 5, 81, 0
2, 62208, Note_on_c, 5, 76, 98
2, 62211, Note_off_c, 5, 79, 0
2, 62282, Note_off_c, 5, 76, 0
2, 62336, Note_on_c, 5, 79, 98
2, 62400, Note_on_c, 5, 77, 98
2, 62403, Note_off_c, 5, 79, 0
2, 62464, Note_on_c, 5, 74, 98
2, 62467, Note_off_c, 5, 77, 0
2, 62538, Note_off_c, 5, 74, 0
2, 62592, Note_on_c, 5, 77, 98
2, 62656, Note_on_c, 5, 76, 98
2, 62659, Note_off_c, 5, 77, 0
2, 62720, Note_on_c, 5, 72, 98
2, 62723, Note_off_c, 5, 76, 0
2, 62794, Note_off_c, 5, 72, 0
2, 62848, Note_on_c, 5, 79, 98
2, 62912, Note_on_c, 5, 76, 98
2, 62915, Note_off_c, 5, 79, 0
2, 62976, Note_on_c, 5, 74, 98
2, 62979, Note_off_c, 5, 76, 0
2, 63050, Note_off_c, 5, 74, 0
2, 63104, Note_on_c, 5, 79, 97
2, 63168, Note_on_c, 5, 77, 96
2, 63171, Note_off_c, 5, 79, 0
2, 63232, Note_on_c, 5, 72, 96
2, 63235, Note_off_c, 5, 77, 0
2, 63306, Note_off_c, 5, 72, 0
2, 63360, Note_on_c, 5, 79, 95
2, 63424, Note_on_c, 5, 76, 94
2, 63427, Note_off_c, 5, 79, 0
2, 63488, Note_on_c, 5, 74, 94
2, 63491, Note_off_c, 5, 76, 0
2, 63562, Note_off_c, 5, 74, 0
2, 63616, Note_on_c, 5, 79, 93
2, 63680, Note_on_c, 5, 77, 92
2, 63683, Note_off_c, 5, 79, 0
2, 63744, Note_on_c, 5, 72, 91
2, 63747, Note_off_c, 5, 77, 0
2, 63818, Note_off_c, 5, 72, 0
2, 63872, Note_on_c, 5, 79, 90
2, 63936, Note_on_c, 5, 76, 90
2, 63939, Note_off_c, 5, 79, 0
2, 64000, Note_on_c, 5, 74, 89
2, 64003, Note_off_c, 5, 76, 0
2, 64074, Note_off_c, 5, 74, 0
2, 64128, Note_on_c, 5, 79, 88
2, 64192, Note_on_c, 5, 77, 88
2, 64195, Note_off_c, 5, 79, 0
2, 64256, Note_on_c, 5, 72, 87
2, 64259, Note_off_c, 5, 77, 0
2, 64330, Note_off_c, 5, 72, 0
2, 64384, Note_on_c, 5, 79, 86
2, 64448, Note_on_c, 5, 76, 84
2, 64451, Note_off_c, 5, 79, 0
2, 64512, Note_on_c, 5, 74, 84
2, 64515, Note_off_c, 5, 76, 0
2, 64586, Note_off_c, 5, 74, 0
2, 64640, Note_on_c, 5, 79, 84
2, 64704, Note_on_c, 5, 77, 84
2, 64707, Note_off_c, 5, 79, 0
2, 64766, Note_off_c, 5, 77, 0
2, 64768, Note_on_c, 5, 72, 61
2, 65024, Note_on_c, 5, 67, 61
2, 65036, Note_off_c, 5, 72, 0
2, 65280, Note_on_c, 5, 72, 61
2, 65292, Note_off_c, 5, 67, 0
2, 65536, Note_on_c, 5, 67, 61
2, 65548, Note_off_c, 5, 72, 0
2, 65792, Note_on_c, 5, 72, 61
2, 65804, Note_off_c, 5, 67, 0
2, 66048, Note_on_c, 5, 67, 61
2, 66060, Note_off_c, 5, 72, 0
2, 66304, Note_on_c, 5, 72, 61
2, 66316, Note_off_c, 5, 67, 0
2, 66560, Note_on_c, 5, 67, 61
2, 66572, Note_off_c, 5, 72, 0
2, 66816, Note_on_c, 5, 72, 46
2, 66828, Note_off_c, 5, 67, 0
2, 66890, Note_off_c, 5, 72, 0
2, 68992, Note_on_c, 5, 60, 61
2, 69120, Note_on_c, 5, 62, 61
2, 69126, Note_off_c, 5, 60, 0
2, 69245, Note_off_c, 5, 62, 0
2, 69248, Note_on_c, 5, 65, 61
2, 69324, Note_off_c, 5, 65, 0
2, 69376, Note_on_c, 5, 64, 61
2, 69452, Note_off_c, 5, 64, 0
2, 69504, Note_on_c, 5, 64, 61
2, 69632, Note_on_c, 5, 65, 61
2, 69638, Note_off_c, 5, 64, 0
2, 69757, Note_off_c, 5, 65, 0
2, 69760, Note_on_c, 5, 69, 61
2, 69836, Note_off_c, 5, 69, 0
2, 69888, Note_on_c, 5, 67, 61
2, 69964, Note_off_c, 5, 67, 0
2, 70016, Note_on_c, 5, 67, 61
2, 70144, Note_on_c, 5, 69, 61
2, 70150, Note_off_c, 5, 67, 0
2, 70269, Note_off_c, 5, 69, 0
2, 70272, Note_on_c, 5, 72, 61
2, 70348, Note_off_c, 5, 72, 0
2, 70400, Note_on_c, 5, 70, 61
2, 70476, Note_off_c, 5, 70, 0
2, 70528, Note_on_c, 5, 69, 98
2, 70656, Note_on_c, 5, 70, 98
2, 70662, Note_off_c, 5, 69, 0
2, 70781, Note_off_c, 5, 70, 0
2, 70784, Note_on_c, 5, 74, 98
2, 70860, Note_off_c, 5, 74, 0
2, 71040, Note_on_c, 5, 69, 61
2, 71168, Note_on_c, 5, 70, 61
2, 71174, Note_off_c, 5, 69, 0
2, 71293, Note_off_c, 5, 70, 0
2, 71296, Note_on_c, 5, 74, 61
2, 71424, Note_off_c, 5, 74, 0
2, 71424, Note_on_c, 5, 72, 61
2, 71552, Note_on_c, 5, 70, 61
2, 71558, Note_off_c, 5, 72, 0
2, 71616, Note_on_c, 5, 69, 61
2, 71619, Note_off_c, 5, 70, 0
2, 71678, Note_off_c, 5, 69, 0
2, 71680, Note_on_c, 5, 67, 61
2, 71808, Note_off_c, 5, 67, 0
2, 71808, Note_on_c, 5, 60, 61
2, 71936, Note_off_c, 5, 60, 0
2, 71936, Note_on_c, 5, 65, 61
2, 72064, Note_on_c, 5, 67, 61
2, 72070, Note_off_c, 5, 65, 0
2, 72192, Note_on_c, 5, 69, 61
2, 72198, Note_off_c, 5, 67, 0
2, 72320, Note_on_c, 5, 70, 61
2, 72326, Note_off_c, 5, 69, 0
2, 72384, Note_on_c, 5, 69, 61
2, 72387, Note_off_c, 5, 70, 0
2, 72446, Note_off_c, 5, 69, 0
2, 72448, Note_on_c, 5, 67, 61
2, 73216, Note_off_c, 5, 67, 0
2, 73856, Note_on_c, 5, 67, 61
2, 73920, Note_on_c, 5, 69, 61
2, 73923, Note_off_c, 5, 67, 0
2, 73984, Note_on_c, 5, 70, 61
2, 73987, Note_off_c, 5, 69, 0
2, 74112, Note_on_c, 5, 67, 61
2, 74118, Note_off_c, 5, 70, 0
2, 74240, Note_on_c, 5, 69, 61
2, 74246, Note_off_c, 5, 67, 0
2, 74365, Note_off_c, 5, 69, 0
2, 74624, Note_on_c, 5, 70, 61
2, 74752, Note_on_c, 5, 67, 61
2, 74758, Note_off_c, 5, 70, 0
2, 74877, Note_off_c, 5, 67, 0
2, 74880, Note_on_c, 5, 67, 61
2, 74944, Note_on_c, 5, 69, 61
2, 74947, Note_off_c, 5, 67, 0
2, 75008, Note_on_c, 5, 70, 61
2, 75011, Note_off_c, 5, 69, 0
2, 75136, Note_on_c, 5, 67, 61
2, 75142, Note_off_c, 5, 70, 0
2, 75261, Note_off_c, 5, 67, 0
2, 75264, Note_on_c, 5, 69, 61
2, 75520, Note_on_c, 5, 72, 61
2, 75532, Note_off_c, 5, 69, 0
2, 75776, Note_on_c, 5, 70, 61
2, 75788, Note_off_c, 5, 72, 0
2, 76160, Note_on_c, 5, 69, 88
2, 76179, Note_off_c, 5, 70, 0
2, 76285, Note_off_c, 5, 69, 0
2, 76288, Note_on_c, 5, 74, 98
2, 76544, Note_on_c, 5, 72, 98
2, 76556, Note_off_c, 5, 74, 0
2, 76794, Note_off_c, 5, 72, 0
2, 76800, Note_on_c, 5, 67, 98
2, 76876, Note_off_c, 5, 67, 0
2, 76928, Note_on_c, 5, 67, 98
2, 76992, Note_on_c, 5, 69, 98
2, 76995, Note_off_c, 5, 67, 0
2, 77056, Note_on_c, 5, 70, 98
2, 77059, Note_off_c, 5, 69, 0
2, 77184, Note_on_c, 5, 67, 98
2, 77190, Note_off_c, 5, 70, 0
2, 77309, Note_off_c, 5, 67, 0
2, 77312, Note_on_c, 5, 69, 98
2, 77568, Note_on_c, 5, 72, 98
2, 77580, Note_off_c, 5, 69, 0
2, 77824, Note_on_c, 5, 70, 98
2, 77836, Note_off_c, 5, 72, 0
2, 78208, Note_on_c, 5, 69, 98
2, 78227, Note_off_c, 5, 70, 0
2, 78333, Note_off_c, 5, 69, 0
2, 78336, Note_on_c, 5, 74, 61
2, 78592, Note_on_c, 5, 72, 61
2, 78604, Note_off_c, 5, 74, 0
2, 78842, Note_off_c, 5, 72, 0
2, 78848, Note_on_c, 5, 67, 61
2, 78924, Note_off_c, 5, 67, 0
2, 78976, Note_on_c, 5, 67, 61
2, 79040, Note_on_c, 5, 69, 61
2, 79043, Note_off_c, 5, 67, 0
2, 79102, Note_off_c, 5, 69, 0
2, 79104, Note_on_c, 5, 70, 62
2, 79180, Note_off_c, 5, 70, 0
2, 79232, Note_on_c, 5, 71, 64
2, 79308, Note_off_c, 5, 71, 0
2, 79360, Note_on_c, 5, 72, 67
2, 79436, Note_off_c, 5, 72, 0
2, 79488, Note_on_c, 5, 67, 69
2, 79552, Note_on_c, 5, 69, 71
2, 79555, Note_off_c, 5, 67, 0
2, 79614, Note_off_c, 5, 69, 0
2, 79616, Note_on_c, 5, 70, 72
2, 79692, Note_off_c, 5, 70, 0
2, 79744, Note_on_c, 5, 71, 74
2, 79820, Note_off_c, 5, 71, 0
2, 79872, Note_on_c, 5, 72, 77
2, 79948, Note_off_c, 5, 72, 0
2, 80000, Note_on_c, 5, 67, 79
2, 80064, Note_on_c, 5, 69, 81
2, 80067, Note_off_c, 5, 67, 0
2, 80126, Note_off_c, 5, 69, 0
2, 80128, Note_on_c, 5, 70, 82
2, 80204, Note_off_c, 5, 70, 0
2, 80256, Note_on_c, 5, 71, 84
2, 80332, Note_off_c, 5, 71, 0
2, 80384, Note_on_c, 5, 72, 87
2, 80460, Note_off_c, 5, 72, 0
2, 80512, Note_on_c, 5, 67, 89
2, 80576, Note_on_c, 5, 69, 91
2, 80579, Note_off_c, 5, 67, 0
2, 80638, Note_off_c, 5, 69, 0
2, 80640, Note_on_c, 5, 70, 92
2, 80716, Note_off_c, 5, 70, 0
2, 80768, Note_on_c, 5, 71, 94
2, 80844, Note_off_c, 5, 71, 0
2, 80896, Note_on_c, 5, 72, 98
2, 80972, Note_off_c, 5, 72, 0
2, 81024, Note_on_c, 5, 67, 98
2, 81088, Note_on_c, 5, 69, 98
2, 81091, Note_off_c, 5, 67, 0
2, 81150, Note_off_c, 5, 69, 0
2, 81152, Note_on_c, 5, 70, 98
2, 81228, Note_off_c, 5, 70, 0
2, 81280, Note_on_c, 5, 71, 98
2, 81356, Note_off_c, 5, 71, 0
2, 81408, Note_on_c, 5, 72, 98
2, 81484, Note_off_c, 5, 72, 0
2, 81536, Note_on_c, 5, 67, 98
2, 81600, Note_on_c, 5, 69, 98
2, 81603, Note_off_c, 5, 67, 0
2, 81662, Note_off_c, 5, 69, 0
2, 81664, Note_on_c, 5, 70, 97
2, 81740, Note_off_c, 5, 70, 0
2, 81792, Note_on_c, 5, 71, 93
2, 81868, Note_off_c, 5, 71, 0
2, 81920, Note_on_c, 5, 72, 89
2, 81996, Note_off_c, 5, 72, 0
2, 82048, Note_on_c, 5, 67, 85
2, 82112, Note_on_c, 5, 69, 83
2, 82115, Note_off_c, 5, 67, 0
2, 82174, Note_off_c, 5, 69, 0
2, 82176, Note_on_c, 5, 70, 81
2, 82252, Note_off_c, 5, 70, 0
2, 82304, Note_on_c, 5, 71, 77
2, 82380, Note_off_c, 5, 71, 0
2, 82432, Note_on_c, 5, 72, 73
2, 82508, Note_off_c, 5, 72, 0
2, 82560, Note_on_c, 5, 67, 69
2, 82624, Note_on_c, 5, 69, 67
2, 82627, Note_off_c, 5, 67, 0
2, 82686, Note_off_c, 5, 69, 0
2, 82688, Note_on_c, 5, 70, 66
2, 82764, Note_off_c, 5, 70, 0
2, 82816, Note_on_c, 5, 71, 62
2, 82892, Note_off_c, 5, 71, 0
2, 82944, Note_on_c, 5, 72, 58
2, 83020, Note_off_c, 5, 72, 0
2, 83072, Note_on_c, 5, 67, 54
2, 83136, Note_on_c, 5, 69, 52
2, 83139, Note_off_c, 5, 67, 0
2, 83198, Note_off_c, 5, 69, 0
2, 83200, Note_on_c, 5, 70, 50
2, 83276, Note_off_c, 5, 70, 0
2, 83328, Note_on_c, 5, 71, 46
2, 83404, Note_off_c, 5, 71, 0
2, 83456, Note_on_c, 5, 72, 46
2, 83532, Note_off_c, 5, 72, 0
2, 83584, Note_on_c, 5, 67, 61
2, 83648, Note_on_c, 5, 69, 61
2, 83651, Note_off_c, 5, 67, 0
2, 83710, Note_off_c, 5, 69, 0
2, 83712, Note_on_c, 5, 70, 61
2, 83788, Note_off_c, 5, 70, 0
2, 83840, Note_on_c, 5, 71, 61
2, 83916, Note_off_c, 5, 71, 0
2, 83968, Note_on_c, 5, 72, 61
2, 84044, Note_off_c, 5, 72, 0
2, 84096, Note_on_c, 5, 69, 61
2, 84160, Note_on_c, 5, 70, 61
2, 84163, Note_off_c, 5, 69, 0
2, 84222, Note_off_c, 5, 70, 0
2, 84224, Note_on_c, 5, 72, 61
2, 84300, Note_off_c, 5, 72, 0
2, 84352, Note_on_c, 5, 73, 61
2, 84428, Note_off_c, 5, 73, 0
2, 84480, Note_on_c, 5, 74, 61
2, 84556, Note_off_c, 5, 74, 0
2, 87680, Note_on_c, 5, 65, 61
2, 87744, Note_on_c, 5, 69, 61
2, 87747, Note_off_c, 5, 65, 0
2, 87806, Note_off_c, 5, 69, 0
2, 87936, Note_on_c, 5, 67, 61
2, 88000, Note_on_c, 5, 70, 61
2, 88003, Note_off_c, 5, 67, 0
2, 88062, Note_off_c, 5, 70, 0
2, 88192, Note_on_c, 5, 69, 63
2, 88256, Note_on_c, 5, 72, 65
2, 88259, Note_off_c, 5, 69, 0
2, 88318, Note_off_c, 5, 72, 0
2, 88448, Note_on_c, 5, 67, 69
2, 88512, Note_on_c, 5, 76, 71
2, 88515, Note_off_c, 5, 67, 0
2, 88574, Note_off_c, 5, 76, 0
2, 88704, Note_on_c, 5, 69, 71
2, 88768, Note_on_c, 5, 77, 71
2, 88771, Note_off_c, 5, 69, 0
2, 88830, Note_off_c, 5, 77, 0
2, 88960, Note_on_c, 5, 69, 71
2, 89024, Note_on_c, 5, 77, 71
2, 89027, Note_off_c, 5, 69, 0
2, 89086, Note_off_c, 5, 77, 0
2, 89216, Note_on_c, 5, 76, 84
2, 89280, Note_on_c, 5, 79, 84
2, 89283, Note_off_c, 5, 76, 0
2, 89342, Note_off_c, 5, 79, 0
2, 89472, Note_on_c, 5, 76, 84
2, 89536, Note_on_c, 5, 79, 84
2, 89539, Note_off_c, 5, 76, 0
2, 89598, Note_off_c, 5, 79, 0
2, 89600, Note_on_c, 5, 81, 98
2, 89676, Note_off_c, 5, 81, 0
2, 89728, Note_on_c, 5, 81, 98
2, 89804, Note_off_c, 5, 81, 0
2, 89856, Note_on_c, 5, 82, 98
2, 89932, Note_off_c, 5, 82, 0
2, 89984, Note_on_c, 5, 86, 98
2, 90060, Note_off_c, 5, 86, 0
2, 90112, Note_on_c, 5, 84, 98
2, 90240, Note_on_c, 5, 82, 98
2, 90246, Note_off_c, 5, 84, 0
2, 90304, Note_on_c, 5, 81, 98
2, 90307, Note_off_c, 5, 82, 0
2, 90366, Note_off_c, 5, 81, 0
2, 90368, Note_on_c, 5, 79, 98
2, 90444, Note_off_c, 5, 79, 0
2, 90496, Note_on_c, 5, 72, 98
2, 90572, Note_off_c, 5, 72, 0
2, 90624, Note_on_c, 5, 77, 98
2, 90700, Note_off_c, 5, 77, 0
2, 90752, Note_on_c, 5, 79, 98
2, 90828, Note_off_c, 5, 79, 0
2, 90880, Note_on_c, 5, 81, 98
2, 91008, Note_on_c, 5, 82, 98
2, 91014, Note_off_c, 5, 81, 0
2, 91072, Note_on_c, 5, 81, 98
2, 91075, Note_off_c, 5, 82, 0
2, 91134, Note_off_c, 5, 81, 0
2, 91136, Note_on_c, 5, 79, 98
2, 91212, Note_off_c, 5, 79, 0
2, 91264, Note_on_c, 5, 81, 98
2, 91340, Note_off_c, 5, 81, 0
2, 91392, Note_on_c, 5, 82, 98
2, 91520, Note_on_c, 5, 84, 98
2, 91526, Note_off_c, 5, 82, 0
2, 91584, Note_on_c, 5, 82, 98
2, 91587, Note_off_c, 5, 84, 0
2, 91646, Note_off_c, 5, 82, 0
2, 91648, Note_on_c, 5, 81, 98
2, 91776, Note_on_c, 5, 84, 98
2, 91782, Note_off_c, 5, 81, 0
2, 91850, Note_off_c, 5, 84, 0
2, 91904, Note_on_c, 5, 84, 98
2, 91980, Note_off_c, 5, 84, 0
2, 92032, Note_on_c, 5, 84, 98
2, 92108, Note_off_c, 5, 84, 0
2, 92160, Note_on_c, 5, 84, 98
2, 92416, Note_on_c, 5, 82, 98
2, 92428, Note_off_c, 5, 84, 0
2, 92480, Note_on_c, 5, 81, 98
2, 92483, Note_off_c, 5, 82, 0
2, 92544, Note_on_c, 5, 79, 98
2, 92547, Note_off_c, 5, 81, 0
2, 92608, Note_on_c, 5, 77, 98
2, 92611, Note_off_c, 5, 79, 0
2, 92670, Note_off_c, 5, 77, 0
2, 92672, Note_on_c, 5, 76, 98
2, 92748, Note_off_c, 5, 76, 0
2, 92800, Note_on_c, 5, 77, 98
2, 92876, Note_off_c, 5, 77, 0
2, 92928, Note_on_c, 5, 79, 98
2, 93056, Note_on_c, 5, 81, 98
2, 93062, Note_off_c, 5, 79, 0
2, 93120, Note_on_c, 5, 79, 98
2, 93123, Note_off_c, 5, 81, 0
2, 93182, Note_off_c, 5, 79, 0
2, 93184, Note_on_c, 5, 77, 98
2, 93260, Note_off_c, 5, 77, 0
2, 93312, Note_on_c, 5, 79, 98
2, 93388, Note_off_c, 5, 79, 0
2, 93440, Note_on_c, 5, 81, 98
2, 93568, Note_on_c, 5, 82, 98
2, 93574, Note_off_c, 5, 81, 0
2, 93632, Note_on_c, 5, 81, 98
2, 93635, Note_off_c, 5, 82, 0
2, 93694, Note_off_c, 5, 81, 0
2, 93696, Note_on_c, 5, 79, 98
2, 93824, Note_on_c, 5, 82, 98
2, 93830, Note_off_c, 5, 79, 0
2, 93949, Note_off_c, 5, 82, 0
2, 93952, Note_on_c, 5, 82, 98
2, 94028, Note_off_c, 5, 82, 0
2, 94080, Note_on_c, 5, 82, 98
2, 94156, Note_off_c, 5, 82, 0
2, 94208, Note_on_c, 5, 82, 98
2, 94464, Note_on_c, 5, 84, 98
2, 94476, Note_off_c, 5, 82, 0
2, 94528, Note_on_c, 5, 82, 98
2, 94531, Note_off_c, 5, 84, 0
2, 94592, Note_on_c, 5, 81, 98
2, 94595, Note_off_c, 5, 82, 0
2, 94656, Note_on_c, 5, 79, 98
2, 94659, Note_off_c, 5, 81, 0
2, 94718, Note_off_c, 5, 79, 0
2, 94720, Note_on_c, 5, 81, 98
2, 94796, Note_off_c, 5, 81, 0
2, 94848, Note_on_c, 5, 82, 98
2, 94924, Note_off_c, 5, 82, 0
2, 94976, Note_on_c, 5, 84, 98
2, 95104, Note_on_c, 5, 86, 98
2, 95110, Note_off_c, 5, 84, 0
2, 95168, Note_on_c, 5, 84, 98
2, 95171, Note_off_c, 5, 86, 0
2, 95232, Note_on_c, 5, 82, 98
2, 95235, Note_off_c, 5, 84, 0
2, 95360, Note_on_c, 5, 84, 98
2, 95366, Note_off_c, 5, 82, 0
2, 95424, Note_on_c, 5, 82, 98
2, 95427, Note_off_c, 5, 84, 0
2, 95488, Note_on_c, 5, 79, 98
2, 95491, Note_off_c, 5, 82, 0
2, 95616, Note_on_c, 5, 84, 98
2, 95622, Note_off_c, 5, 79, 0
2, 95680, Note_on_c, 5, 82, 98
2, 95683, Note_off_c, 5, 84, 0
2, 95742, Note_off_c, 5, 82, 0
2, 95744, Note_on_c, 5, 81, 98
2, 95820, Note_off_c, 5, 81, 0
2, 95872, Note_on_c, 5, 82, 98
2, 95948, Note_off_c, 5, 82, 0
2, 96000, Note_on_c, 5, 84, 98
2, 96128, Note_on_c, 5, 86, 98
2, 96134, Note_off_c, 5, 84, 0
2, 96192, Note_on_c, 5, 84, 98
2, 96195, Note_off_c, 5, 86, 0
2, 96256, Note_on_c, 5, 82, 98
2, 96259, Note_off_c, 5, 84, 0
2, 96384, Note_on_c, 5, 84, 98
2, 96390, Note_off_c, 5, 82, 0
2, 96448, Note_on_c, 5, 82, 98
2, 96451, Note_off_c, 5, 84, 0
2, 96512, Note_on_c, 5, 79, 98
2, 96515, Note_off_c, 5, 82, 0
2, 96640, Note_on_c, 5, 84, 98
2, 96646, Note_off_c, 5, 79, 0
2, 96704, Note_on_c, 5, 82, 98
2, 96707, Note_off_c, 5, 84, 0
2, 96766, Note_off_c, 5, 82, 0
2, 96768, Note_on_c, 5, 81, 98
2, 96896, Note_on_c, 5, 84, 98
2, 96902, Note_off_c, 5, 81, 0
2, 96960, Note_on_c, 5, 82, 98
2, 96963, Note_off_c, 5, 84, 0
2, 97024, Note_on_c, 5, 79, 98
2, 97027, Note_off_c, 5, 82, 0
2, 97152, Note_on_c, 5, 84, 98
2, 97158, Note_off_c, 5, 79, 0
2, 97216, Note_on_c, 5, 82, 98
2, 97219, Note_off_c, 5, 84, 0
2, 97278, Note_off_c, 5, 82, 0
2, 97280, Note_on_c, 5, 81, 98
2, 97408, Note_on_c, 5, 84, 98
2, 97414, Note_off_c, 5, 81, 0
2, 97472, Note_on_c, 5, 82, 98
2, 97475, Note_off_c, 5, 84, 0
2, 97536, Note_on_c, 5, 79, 98
2, 97539, Note_off_c, 5, 82, 0
2, 97664, Note_on_c, 5, 84, 98
2, 97670, Note_off_c, 5, 79, 0
2, 97728, Note_on_c, 5, 82, 98
2, 97731, Note_off_c, 5, 84, 0
2, 97790, Note_off_c, 5, 82, 0
2, 97792, Note_on_c, 5, 65, 98
2, 97792, Note_on_c, 5, 72, 98
2, 97792, Note_on_c, 5, 81, 98
2, 97920, Note_off_c, 5, 65, 0
2, 97920, Note_off_c, 5, 72, 0
2, 97920, Note_off_c, 5, 81, 0
2, 98432, Note_on_c, 5, 65, 61
2, 98560, Note_on_c, 5, 67, 61
2, 98566, Note_off_c, 5, 65, 0
2, 98685, Note_off_c, 5, 67, 0
2, 98688, Note_on_c, 5, 70, 61
2, 98764, Note_off_c, 5, 70, 0
2, 98816, Note_on_c, 5, 69, 61
2, 98892, Note_off_c, 5, 69, 0
2, 98944, Note_on_c, 5, 74, 61
2, 99072, Note_on_c, 5, 76, 61
2, 99078, Note_off_c, 5, 74, 0
2, 99197, Note_off_c, 5, 76, 0
2, 99200, Note_on_c, 5, 79, 61
2, 99276, Note_off_c, 5, 79, 0
2, 99328, Note_on_c, 5, 77, 61
2, 99404, Note_off_c, 5, 77, 0
2, 99456, Note_on_c, 5, 77, 61
2, 99584, Note_on_c, 5, 79, 61
2, 99590, Note_off_c, 5, 77, 0
2, 99709, Note_off_c, 5, 79, 0
2, 99712, Note_on_c, 5, 82, 61
2, 99788, Note_off_c, 5, 82, 0
2, 99840, Note_on_c, 5, 81, 61
2, 99968, Note_off_c, 5, 81, 0
2, 100480, Note_on_c, 5, 65, 61
2, 100608, Note_on_c, 5, 67, 61
2, 100614, Note_off_c, 5, 65, 0
2, 100733, Note_off_c, 5, 67, 0
2, 100736, Note_on_c, 5, 70, 61
2, 100812, Note_off_c, 5, 70, 0
2, 100864, Note_on_c, 5, 69, 61
2, 100940, Note_off_c, 5, 69, 0
2, 100992, Note_on_c, 5, 74, 61
2, 101120, Note_on_c, 5, 76, 61
2, 101126, Note_off_c, 5, 74, 0
2, 101245, Note_off_c, 5, 76, 0
2, 101248, Note_on_c, 5, 79, 61
2, 101324, Note_off_c, 5, 79, 0
2, 101376, Note_on_c, 5, 77, 61
2, 101452, Note_off_c, 5, 77, 0
2, 101504, Note_on_c, 5, 77, 61
2, 101632, Note_on_c, 5, 79, 61
2, 101638, Note_off_c, 5, 77, 0
2, 101757, Note_off_c, 5, 79, 0
2, 101760, Note_on_c, 5, 82, 61
2, 101836, Note_off_c, 5, 82, 0
2, 101888, Note_on_c, 5, 81, 61
2, 102016, Note_off_c, 5, 81, 0
2, 102528, Note_on_c, 5, 77, 61
2, 102656, Note_on_c, 5, 79, 61
2, 102662, Note_off_c, 5, 77, 0
2, 102781, Note_off_c, 5, 79, 0
2, 102784, Note_on_c, 5, 81, 61
2, 102860, Note_off_c, 5, 81, 0
2, 102912, Note_on_c, 5, 79, 61
2, 103168, Note_off_c, 5, 79, 0
2, 103552, Note_on_c, 5, 78, 61
2, 103680, Note_on_c, 5, 79, 61
2, 103686, Note_off_c, 5, 78, 0
2, 103805, Note_off_c, 5, 79, 0
2, 103808, Note_on_c, 5, 81, 61
2, 103884, Note_off_c, 5, 81, 0
2, 103936, Note_on_c, 5, 79, 61
2, 104012, Note_off_c, 5, 79, 0
2, 104064, Note_on_c, 5, 78, 61
2, 104192, Note_on_c, 5, 79, 61
2, 104198, Note_off_c, 5, 78, 0
2, 104317, Note_off_c, 5, 79, 0
2, 104320, Note_on_c, 5, 81, 61
2, 104396, Note_off_c, 5, 81, 0
2, 104448, Note_on_c, 5, 79, 61
2, 104524, Note_off_c, 5, 79, 0
2, 104576, Note_on_c, 5, 78, 71
2, 104704, Note_on_c, 5, 79, 71
2, 104710, Note_off_c, 5, 78, 0
2, 104829, Note_off_c, 5, 79, 0
2, 104832, Note_on_c, 5, 81, 71
2, 104908, Note_off_c, 5, 81, 0
2, 104960, Note_on_c, 5, 79, 71
2, 105088, Note_on_c, 5, 77, 71
2, 105094, Note_off_c, 5, 79, 0
2, 105216, Note_on_c, 5, 74, 71
2, 105222, Note_off_c, 5, 77, 0
2, 105344, Note_on_c, 5, 71, 71
2, 105350, Note_off_c, 5, 74, 0
2, 105472, Note_on_c, 5, 67, 71
2, 105478, Note_off_c, 5, 71, 0
2, 105600, Note_on_c, 5, 74, 71
2, 105606, Note_off_c, 5, 67, 0
2, 105728, Note_on_c, 5, 71, 71
2, 105734, Note_off_c, 5, 74, 0
2, 105856, Note_on_c, 5, 67, 71
2, 105862, Note_off_c, 5, 71, 0
2, 105981, Note_off_c, 5, 67, 0
2, 105984, Note_on_c, 5, 81, 71
2, 106112, Note_on_c, 5, 79, 71
2, 106118, Note_off_c, 5, 81, 0
2, 106240, Note_on_c, 5, 76, 71
2, 106246, Note_off_c, 5, 79, 0
2, 106368, Note_on_c, 5, 72, 71
2, 106374, Note_off_c, 5, 76, 0
2, 106496, Note_on_c, 5, 67, 71
2, 106502, Note_off_c, 5, 72, 0
2, 106624, Note_on_c, 5, 76, 71
2, 106630, Note_off_c, 5, 67, 0
2, 106752, Note_on_c, 5, 72, 71
2, 106758, Note_off_c, 5, 76, 0
2, 106880, Note_on_c, 5, 67, 71
2, 106886, Note_off_c, 5, 72, 0
2, 107005, Note_off_c, 5, 67, 0
2, 107008, Note_on_c, 5, 62, 61
2, 107136, Note_on_c, 5, 55, 61
2, 107142, Note_off_c, 5, 62, 0
2, 107264, Note_on_c, 5, 62, 61
2, 107270, Note_off_c, 5, 55, 0
2, 107392, Note_on_c, 5, 55, 61
2, 107398, Note_off_c, 5, 62, 0
2, 107520, Note_on_c, 5, 62, 61
2, 107526, Note_off_c, 5, 55, 0
2, 107648, Note_on_c, 5, 55, 61
2, 107654, Note_off_c, 5, 62, 0
2, 107776, Note_on_c, 5, 62, 61
2, 107782, Note_off_c, 5, 55, 0
2, 107904, Note_on_c, 5, 55, 61
2, 107910, Note_off_c, 5, 62, 0
2, 108029, Note_off_c, 5, 55, 0
2, 108032, Note_on_c, 5, 64, 61
2, 108160, Note_on_c, 5, 55, 61
2, 108166, Note_off_c, 5, 64, 0
2, 108288, Note_on_c, 5, 64, 61
2, 108294, Note_off_c, 5, 55, 0
2, 108416, Note_on_c, 5, 55, 61
2, 108422, Note_off_c, 5, 64, 0
2, 108544, Note_on_c, 5, 64, 61
2, 108550, Note_off_c, 5, 55, 0
2, 108672, Note_on_c, 5, 55, 61
2, 108678, Note_off_c, 5, 64, 0
2, 108800, Note_on_c, 5, 64, 61
2, 108806, Note_off_c, 5, 55, 0
2, 108928, Note_on_c, 5, 55, 61
2, 108934, Note_off_c, 5, 64, 0
2, 109053, Note_off_c, 5, 55, 0
2, 109056, Note_on_c, 5, 67, 71
2, 110080, Note_off_c, 5, 67, 0
2, 110080, Note_on_c, 5, 72, 71
2, 111104, Note_off_c, 5, 72, 0
2, 111104, Note_on_c, 5, 71, 84
2, 111360, Note_off_c, 5, 71, 0
2, 111360, Note_on_c, 5, 71, 84
2, 111616, Note_off_c, 5, 71, 0
2, 111616, Note_on_c, 5, 71, 84
2, 111872, Note_on_c, 5, 74, 84
2, 111884, Note_off_c, 5, 71, 0
2, 112000, Note_on_c, 5, 71, 84
2, 112006, Note_off_c, 5, 74, 0
2, 112125, Note_off_c, 5, 71, 0
2, 112128, Note_on_c, 5, 72, 84
2, 112384, Note_off_c, 5, 72, 0
2, 112384, Note_on_c, 5, 72, 84
2, 112640, Note_off_c, 5, 72, 0
2, 112640, Note_on_c, 5, 72, 84
2, 112896, Note_on_c, 5, 76, 84
2, 112908, Note_off_c, 5, 72, 0
2, 113024, Note_on_c, 5, 72, 84
2, 113030, Note_off_c, 5, 76, 0
2, 113149, Note_off_c, 5, 72, 0
2, 113152, Note_on_c, 5, 79, 84
2, 113237, Note_on_c, 5, 81, 84
2, 113241, Note_off_c, 5, 79, 0
2, 113322, Note_on_c, 5, 79, 84
2, 113326, Note_off_c, 5, 81, 0
2, 113408, Note_on_c, 5, 81, 84
2, 113412, Note_off_c, 5, 79, 0
2, 113493, Note_on_c, 5, 79, 84
2, 113497, Note_off_c, 5, 81, 0
2, 113578, Note_on_c, 5, 81, 84
2, 113582, Note_off_c, 5, 79, 0
2, 113664, Note_on_c, 5, 79, 84
2, 113668, Note_off_c, 5, 81, 0
2, 113749, Note_on_c, 5, 81, 84
2, 113753, Note_off_c, 5, 79, 0
2, 113834, Note_on_c, 5, 79, 84
2, 113838, Note_off_c, 5, 81, 0
2, 113920, Note_on_c, 5, 81, 84
2, 113924, Note_off_c, 5, 79, 0
2, 114005, Note_on_c, 5, 79, 84
2, 114009, Note_off_c, 5, 81, 0
2, 114090, Note_on_c, 5, 81, 84
2, 114094, Note_off_c, 5, 79, 0
2, 114174, Note_off_c, 5, 81, 0
2, 114176, Note_on_c, 5, 79, 84
2, 114261, Note_on_c, 5, 81, 84
2, 114265, Note_off_c, 5, 79, 0
2, 114346, Note_on_c, 5, 79, 84
2, 114350, Note_off_c, 5, 81, 0
2, 114432, Note_on_c, 5, 81, 84
2, 114436, Note_off_c, 5, 79, 0
2, 114517, Note_on_c, 5, 79, 84
2, 114521, Note_off_c, 5, 81, 0
2, 114602, Note_on_c, 5, 81, 84
2, 114606, Note_off_c, 5, 79, 0
2, 114688, Note_on_c, 5, 79, 84
2, 114692, Note_off_c, 5, 81, 0
2, 114773, Note_on_c, 5, 81, 84
2, 114777, Note_off_c, 5, 79, 0
2, 114858, Note_on_c, 5, 79, 84
2, 114862, Note_off_c, 5, 81, 0
2, 114944, Note_on_c, 5, 81, 84
2, 114948, Note_off_c, 5, 79, 0
2, 115029, Note_on_c, 5, 79, 84
2, 115033, Note_off_c, 5, 81, 0
2, 115114, Note_on_c, 5, 81, 84
2, 115118, Note_off_c, 5, 79, 0
2, 115198, Note_off_c, 5, 81, 0
2, 115200, Note_on_c, 5, 79, 84
2, 115251, Note_off_c, 5, 79, 0
2, 115264, Note_on_c, 5, 81, 84
2, 115315, Note_off_c, 5, 81, 0
2, 115328, Note_on_c, 5, 79, 84
2, 115379, Note_off_c, 5, 79, 0
2, 115392, Note_on_c, 5, 81, 84
2, 115443, Note_off_c, 5, 81, 0
2, 115456, Note_on_c, 5, 79, 84
2, 115507, Note_off_c, 5, 79, 0
2, 115520, Note_on_c, 5, 81, 84
2, 115571, Note_off_c, 5, 81, 0
2, 115584, Note_on_c, 5, 79, 84
2, 115635, Note_off_c, 5, 79, 0
2, 115648, Note_on_c, 5, 81, 84
2, 115699, Note_off_c, 5, 81, 0
2, 115712, Note_on_c, 5, 79, 84
2, 115763, Note_off_c, 5, 79, 0
2, 115776, Note_on_c, 5, 81, 84
2, 115827, Note_off_c, 5, 81, 0
2, 115840, Note_on_c, 5, 79, 84
2, 115891, Note_off_c, 5, 79, 0
2, 115904, Note_on_c, 5, 81, 84
2, 115955, Note_off_c, 5, 81, 0
2, 115968, Note_on_c, 5, 79, 84
2, 116019, Note_off_c, 5, 79, 0
2, 116032, Note_on_c, 5, 81, 84
2, 116083, Note_off_c, 5, 81, 0
2, 116096, Note_on_c, 5, 79, 84
2, 116147, Note_off_c, 5, 79, 0
2, 116160, Note_on_c, 5, 81, 84
2, 116211, Note_off_c, 5, 81, 0
2, 116224, Note_on_c, 5, 79, 84
2, 116275, Note_off_c, 5, 79, 0
2, 116288, Note_on_c, 5, 81, 84
2, 116339, Note_off_c, 5, 81, 0
2, 116352, Note_on_c, 5, 79, 84
2, 116403, Note_off_c, 5, 79, 0
2, 116416, Note_on_c, 5, 81, 84
2, 116467, Note_off_c, 5, 81, 0
2, 116480, Note_on_c, 5, 79, 84
2, 116531, Note_off_c, 5, 79, 0
2, 116544, Note_on_c, 5, 81, 84
2, 116595, Note_off_c, 5, 81, 0
2, 116608, Note_on_c, 5, 79, 84
2, 116659, Note_off_c, 5, 79, 0
2, 116672, Note_on_c, 5, 81, 84
2, 116723, Note_off_c, 5, 81, 0
2, 116736, Note_on_c, 5, 79, 84
2, 116787, Note_off_c, 5, 79, 0
2, 116800, Note_on_c, 5, 81, 84
2, 116851, Note_off_c, 5, 81, 0
2, 116864, Note_on_c, 5, 79, 84
2, 116915, Note_off_c, 5, 79, 0
2, 116928, Note_on_c, 5, 81, 84
2, 116979, Note_off_c, 5, 81, 0
2, 116992, Note_on_c, 5, 79, 84
2, 117043, Note_off_c, 5, 79, 0
2, 117056, Note_on_c, 5, 81, 84
2, 117107, Note_off_c, 5, 81, 0
2, 117120, Note_on_c, 5, 79, 84
2, 117171, Note_off_c, 5, 79, 0
2, 117184, Note_on_c, 5, 81, 84
2, 117235, Note_off_c, 5, 81, 0
2, 117248, Note_on_c, 5, 79, 84
2, 117299, Note_off_c, 5, 79, 0
2, 117312, Note_on_c, 5, 81, 84
2, 117363, Note_off_c, 5, 81, 0
2, 117376, Note_on_c, 5, 79, 84
2, 117427, Note_off_c, 5, 79, 0
2, 117440, Note_on_c, 5, 81, 84
2, 117491, Note_off_c, 5, 81, 0
2, 117504, Note_on_c, 5, 79, 84
2, 117555, Note_off_c, 5, 79, 0
2, 117568, Note_on_c, 5, 81, 84
2, 117619, Note_off_c, 5, 81, 0
2, 117632, Note_on_c, 5, 79, 84
2, 117683, Note_off_c, 5, 79, 0
2, 117696, Note_on_c, 5, 81, 84
2, 117747, Note_off_c, 5, 81, 0
2, 117760, Note_on_c, 5, 79, 84
2, 117811, Note_off_c, 5, 79, 0
2, 117824, Note_on_c, 5, 81, 84
2, 117875, Note_off_c, 5, 81, 0
2, 117888, Note_on_c, 5, 79, 84
2, 117939, Note_off_c, 5, 79, 0
2, 117952, Note_on_c, 5, 81, 84
2, 118003, Note_off_c, 5, 81, 0
2, 118016, Note_on_c, 5, 79, 84
2, 118067, Note_off_c, 5, 79, 0
2, 118080, Note_on_c, 5, 81, 84
2, 118131, Note_off_c, 5, 81, 0
2, 118144, Note_on_c, 5, 79, 84
2, 118195, Note_off_c, 5, 79, 0
2, 118208, Note_on_c, 5, 81, 84
2, 118259, Note_off_c, 5, 81, 0
2, 118272, Note_on_c, 5, 79, 98
2, 118656, Note_on_c, 5, 81, 98
2, 118675, Note_off_c, 5, 79, 0
2, 118720, Note_on_c, 5, 83, 98
2, 118723, Note_off_c, 5, 81, 0
2, 118782, Note_off_c, 5, 83, 0
2, 118784, Note_on_c, 5, 84, 98
2, 118912, Note_on_c, 5, 83, 98
2, 118918, Note_off_c, 5, 84, 0
2, 118976, Note_on_c, 5, 81, 98
2, 118979, Note_off_c, 5, 83, 0
2, 119040, Note_on_c, 5, 79, 98
2, 119043, Note_off_c, 5, 81, 0
2, 119168, Note_on_c, 5, 81, 98
2, 119174, Note_off_c, 5, 79, 0
2, 119232, Note_on_c, 5, 83, 98
2, 119235, Note_off_c, 5, 81, 0
2, 119294, Note_off_c, 5, 83, 0
2, 119296, Note_on_c, 5, 84, 98
2, 119424, Note_on_c, 5, 83, 98
2, 119430, Note_off_c, 5, 84, 0
2, 119488, Note_on_c, 5, 81, 98
2, 119491, Note_off_c, 5, 83, 0
2, 119552, Note_on_c, 5, 79, 98
2, 119555, Note_off_c, 5, 81, 0
2, 119680, Note_on_c, 5, 81, 98
2, 119686, Note_off_c, 5, 79, 0
2, 119744, Note_on_c, 5, 83, 98
2, 119747, Note_off_c, 5, 81, 0
2, 119806, Note_off_c, 5, 83, 0
2, 119808, Note_on_c, 5, 84, 98
2, 119936, Note_off_c, 5, 84, 0
2, 120320, Note_on_c, 5, 69, 61
2, 120448, Note_on_c, 5, 72, 61
2, 120454, Note_off_c, 5, 69, 0
2, 120576, Note_on_c, 5, 69, 61
2, 120582, Note_off_c, 5, 72, 0
2, 120704, Note_on_c, 5, 72, 61
2, 120710, Note_off_c, 5, 69, 0
2, 120832, Note_on_c, 5, 67, 61
2, 120838, Note_off_c, 5, 72, 0
2, 120960, Note_on_c, 5, 72, 61
2, 120966, Note_off_c, 5, 67, 0
2, 121088, Note_on_c, 5, 67, 61
2, 121094, Note_off_c, 5, 72, 0
2, 121216, Note_on_c, 5, 72, 61
2, 121222, Note_off_c, 5, 67, 0
2, 121344, Note_on_c, 5, 67, 61
2, 121350, Note_off_c, 5, 72, 0
2, 121472, Note_on_c, 5, 71, 61
2, 121478, Note_off_c, 5, 67, 0
2, 121600, Note_on_c, 5, 67, 61
2, 121606, Note_off_c, 5, 71, 0
2, 121728, Note_on_c, 5, 71, 61
2, 121734, Note_off_c, 5, 67, 0
2, 121853, Note_off_c, 5, 71, 0
2, 121856, Note_on_c, 5, 79, 113
2, 122240, Note_on_c, 5, 81, 113
2, 122259, Note_off_c, 5, 79, 0
2, 122304, Note_on_c, 5, 83, 113
2, 122307, Note_off_c, 5, 81, 0
2, 122366, Note_off_c, 5, 83, 0
2, 122368, Note_on_c, 5, 84, 113
2, 122496, Note_on_c, 5, 83, 113
2, 122502, Note_off_c, 5, 84, 0
2, 122560, Note_on_c, 5, 81, 113
2, 122563, Note_off_c, 5, 83, 0
2, 122624, Note_on_c, 5, 79, 113
2, 122627, Note_off_c, 5, 81, 0
2, 122752, Note_on_c, 5, 81, 113
2, 122758, Note_off_c, 5, 79, 0
2, 122816, Note_on_c, 5, 83, 113
2, 122819, Note_off_c, 5, 81, 0
2, 122878, Note_off_c, 5, 83, 0
2, 122880, Note_on_c, 5, 84, 113
2, 123008, Note_on_c, 5, 83, 113
2, 123014, Note_off_c, 5, 84, 0
2, 123072, Note_on_c, 5, 81, 113
2, 123075, Note_off_c, 5, 83, 0
2, 123136, Note_on_c, 5, 79, 113
2, 123139, Note_off_c, 5, 81, 0
2, 123264, Note_on_c, 5, 81, 113
2, 123270, Note_off_c, 5, 79, 0
2, 123328, Note_on_c, 5, 83, 113
2, 123331, Note_off_c, 5, 81, 0
2, 123390, Note_off_c, 5, 83, 0
2, 123392, Note_on_c, 5, 84, 98
2, 123520, Note_off_c, 5, 84, 0
2, 123904, Note_on_c, 5, 69, 61
2, 124032, Note_on_c, 5, 72, 61
2, 124038, Note_off_c, 5, 69, 0
2, 124160, Note_on_c, 5, 69, 61
2, 124166, Note_off_c, 5, 72, 0
2, 124288, Note_on_c, 5, 72, 61
2, 124294, Note_off_c, 5, 69, 0
2, 124416, Note_on_c, 5, 67, 61
2, 124422, Note_off_c, 5, 72, 0
2, 124544, Note_on_c, 5, 72, 61
2, 124550, Note_off_c, 5, 67, 0
2, 124672, Note_on_c, 5, 67, 61
2, 124678, Note_off_c, 5, 72, 0
2, 124800, Note_on_c, 5, 72, 61
2, 124806, Note_off_c, 5, 67, 0
2, 124928, Note_on_c, 5, 67, 61
2, 124934, Note_off_c, 5, 72, 0
2, 125056, Note_on_c, 5, 71, 61
2, 125062, Note_off_c, 5, 67, 0
2, 125184, Note_on_c, 5, 67, 61
2, 125190, Note_off_c, 5, 71, 0
2, 125312, Note_on_c, 5, 71, 61
2, 125318, Note_off_c, 5, 67, 0
2, 125440, Note_on_c, 5, 67, 61
2, 125446, Note_off_c, 5, 71, 0
2, 125565, Note_off_c, 5, 67, 0
2, 125568, Note_on_c, 5, 72, 61
2, 125696, Note_off_c, 5, 72, 0
2, 125696, Note_on_c, 5, 72, 61
2, 125824, Note_off_c, 5, 72, 0
2, 125824, Note_on_c, 5, 72, 61
2, 125952, Note_off_c, 5, 72, 0
2, 125952, Note_on_c, 5, 69, 71
2, 126080, Note_on_c, 5, 72, 71
2, 126086, Note_off_c, 5, 69, 0
2, 126208, Note_on_c, 5, 69, 71
2, 126214, Note_off_c, 5, 72, 0
2, 126336, Note_on_c, 5, 72, 71
2, 126342, Note_off_c, 5, 69, 0
2, 126464, Note_on_c, 5, 67, 71
2, 126470, Note_off_c, 5, 72, 0
2, 126592, Note_on_c, 5, 72, 71
2, 126598, Note_off_c, 5, 67, 0
2, 126720, Note_on_c, 5, 67, 71
2, 126726, Note_off_c, 5, 72, 0
2, 126848, Note_on_c, 5, 72, 71
2, 126854, Note_off_c, 5, 67, 0
2, 126976, Note_on_c, 5, 67, 84
2, 126982, Note_off_c, 5, 72, 0
2, 127104, Note_on_c, 5, 71, 84
2, 127110, Note_off_c, 5, 67, 0
2, 127232, Note_on_c, 5, 67, 84
2, 127238, Note_off_c, 5, 71, 0
2, 127360, Note_on_c, 5, 71, 84
2, 127366, Note_off_c, 5, 67, 0
2, 127488, Note_on_c, 5, 72, 98
2, 127494, Note_off_c, 5, 71, 0
2, 127571, Note_off_c, 5, 72, 0
2, 127573, Note_on_c, 5, 84, 98
2, 127658, Note_off_c, 5, 84, 0
2, 127658, Note_on_c, 5, 84, 98
2, 127744, Note_off_c, 5, 84, 0
2, 127744, Note_on_c, 5, 84, 98
2, 127829, Note_off_c, 5, 84, 0
2, 127829, Note_on_c, 5, 84, 98
2, 127914, Note_off_c, 5, 84, 0
2, 127914, Note_on_c, 5, 84, 98
2, 128000, Note_off_c, 5, 84, 0
2, 128000, Note_on_c, 5, 84, 98
2, 128085, Note_off_c, 5, 84, 0
2, 128085, Note_on_c, 5, 72, 98
2, 128170, Note_off_c, 5, 72, 0
2, 128170, Note_on_c, 5, 84, 98
2, 128256, Note_off_c, 5, 84, 0
2, 128256, Note_on_c, 5, 72, 98
2, 128341, Note_off_c, 5, 72, 0
2, 128341, Note_on_c, 5, 83, 98
2, 128426, Note_off_c, 5, 83, 0
2, 128426, Note_on_c, 5, 81, 98
2, 128512, Note_off_c, 5, 81, 0
2, 128512, Note_on_c, 5, 79, 98
2, 128597, Note_off_c, 5, 79, 0
2, 128597, Note_on_c, 5, 67, 98
2, 128682, Note_off_c, 5, 67, 0
2, 128682, Note_on_c, 5, 79, 98
2, 128768, Note_off_c, 5, 79, 0
2, 128768, Note_on_c, 5, 67, 98
2, 128853, Note_off_c, 5, 67, 0
2, 128853, Note_on_c, 5, 77, 98
2, 128938, Note_off_c, 5, 77, 0
2, 128938, Note_on_c, 5, 76, 98
2, 129024, Note_off_c, 5, 76, 0
2, 129024, Note_on_c, 5, 74, 98
2, 129109, Note_off_c, 5, 74, 0
2, 129109, Note_on_c, 5, 65, 98
2, 129194, Note_off_c, 5, 65, 0
2, 129194, Note_on_c, 5, 74, 98
2, 129280, Note_off_c, 5, 74, 0
2, 129280, Note_on_c, 5, 65, 98
2, 129365, Note_off_c, 5, 65, 0
2, 129365, Note_on_c, 5, 72, 98
2, 129450, Note_off_c, 5, 72, 0
2, 129450, Note_on_c, 5, 74, 98
2, 129536, Note_off_c, 5, 74, 0
2, 129536, Note_on_c, 5, 72, 98
2, 129792, Note_off_c, 5, 72, 0
2, 129920, Note_on_c, 5, 76, 98
2, 129984, Note_on_c, 5, 74, 98
2, 129987, Note_off_c, 5, 76, 0
2, 130048, Note_on_c, 5, 72, 98
2, 130051, Note_off_c, 5, 74, 0
2, 130122, Note_off_c, 5, 72, 0
2, 130176, Note_on_c, 5, 76, 98
2, 130240, Note_on_c, 5, 74, 98
2, 130243, Note_off_c, 5, 76, 0
2, 130304, Note_on_c, 5, 72, 98
2, 130307, Note_off_c, 5, 74, 0
2, 130378, Note_off_c, 5, 72, 0
2, 130432, Note_on_c, 5, 81, 98
2, 130496, Note_on_c, 5, 78, 98
2, 130499, Note_off_c, 5, 81, 0
2, 130560, Note_on_c, 5, 79, 98
2, 130563, Note_off_c, 5, 78, 0
2, 130709, Note_off_c, 5, 79, 0
2, 130944, Note_on_c, 5, 81, 98
2, 131008, Note_on_c, 5, 79, 98
2, 131011, Note_off_c, 5, 81, 0
2, 131072, Note_on_c, 5, 76, 98
2, 131075, Note_off_c, 5, 79, 0
2, 131146, Note_off_c, 5, 76, 0
2, 131200, Note_on_c, 5, 79, 98
2, 131264, Note_on_c, 5, 77, 98
2, 131267, Note_off_c, 5, 79, 0
2, 131328, Note_on_c, 5, 74, 98
2, 131331, Note_off_c, 5, 77, 0
2, 131402, Note_off_c, 5, 74, 0
2, 131456, Note_on_c, 5, 77, 98
2, 131520, Note_on_c, 5, 76, 98
2, 131523, Note_off_c, 5, 77, 0
2, 131584, Note_on_c, 5, 72, 98
2, 131587, Note_off_c, 5, 76, 0
2, 131733, Note_off_c, 5, 72, 0
2, 131968, Note_on_c, 5, 76, 98
2, 132032, Note_on_c, 5, 74, 98
2, 132035, Note_off_c, 5, 76, 0
2, 132096, Note_on_c, 5, 72, 98
2, 132099, Note_off_c, 5, 74, 0
2, 132170, Note_off_c, 5, 72, 0
2, 132224, Note_on_c, 5, 76, 98
2, 132288, Note_on_c, 5, 74, 98
2, 132291, Note_off_c, 5, 76, 0
2, 132352, Note_on_c, 5, 72, 98
2, 132355, Note_off_c, 5, 74, 0
2, 132426, Note_off_c, 5, 72, 0
2, 132480, Note_on_c, 5, 81, 98
2, 132544, Note_on_c, 5, 78, 98
2, 132547, Note_off_c, 5, 81, 0
2, 132608, Note_on_c, 5, 79, 98
2, 132611, Note_off_c, 5, 78, 0
2, 132757, Note_off_c, 5, 79, 0
2, 132992, Note_on_c, 5, 81, 98
2, 133056, Note_on_c, 5, 79, 98
2, 133059, Note_off_c, 5, 81, 0
2, 133120, Note_on_c, 5, 76, 98
2, 133123, Note_off_c, 5, 79, 0
2, 133194, Note_off_c, 5, 76, 0
2, 133248, Note_on_c, 5, 79, 98
2, 133312, Note_on_c, 5, 77, 98
2, 133315, Note_off_c, 5, 79, 0
2, 133376, Note_on_c, 5, 74, 98
2, 133379, Note_off_c, 5, 77, 0
2, 133450, Note_off_c, 5, 74, 0
2, 133504, Note_on_c, 5, 77, 98
2, 133568, Note_on_c, 5, 76, 98
2, 133571, Note_off_c, 5, 77, 0
2, 133632, Note_on_c, 5, 72, 98
2, 133635, Note_off_c, 5, 76, 0
2, 133706, Note_off_c, 5, 72, 0
2, 133760, Note_on_c, 5, 79, 98
2, 133824, Note_on_c, 5, 76, 98
2, 133827, Note_off_c, 5, 79, 0
2, 133888, Note_on_c, 5, 74, 98
2, 133891, Note_off_c, 5, 76, 0
2, 133962, Note_off_c, 5, 74, 0
2, 134016, Note_on_c, 5, 79, 97
2, 134080, Note_on_c, 5, 77, 96
2, 134083, Note_off_c, 5, 79, 0
2, 134144, Note_on_c, 5, 72, 96
2, 134147, Note_off_c, 5, 77, 0
2, 134218, Note_off_c, 5, 72, 0
2, 134272, Note_on_c, 5, 79, 95
2, 134336, Note_on_c, 5, 76, 94
2, 134339, Note_off_c, 5, 79, 0
2, 134400, Note_on_c, 5, 74, 94
2, 134403, Note_off_c, 5, 76, 0
2, 134474, Note_off_c, 5, 74, 0
2, 134528, Note_on_c, 5, 79, 93
2, 134592, Note_on_c, 5, 77, 92
2, 134595, Note_off_c, 5, 79, 0
2, 134656, Note_on_c, 5, 72, 91
2, 134659, Note_off_c, 5, 77, 0
2, 134730, Note_off_c, 5, 72, 0
2, 134784, Note_on_c, 5, 79, 90
2, 134848, Note_on_c, 5, 76, 90
2, 134851, Note_off_c, 5, 79, 0
2, 134912, Note_on_c, 5, 74, 89
2, 134915, Note_off_c, 5, 76, 0
2, 134986, Note_off_c, 5, 74, 0
2, 135040, Note_on_c, 5, 79, 88
2, 135104, Note_on_c, 5, 77, 88
2, 135107, Note_off_c, 5, 79, 0
2, 135168, Note_on_c, 5, 72, 87
2, 135171, Note_off_c, 5, 77, 0
2, 135242, Note_off_c, 5, 72, 0
2, 135296, Note_on_c, 5, 79, 86
2, 135360, Note_on_c, 5, 76, 84
2, 135363, Note_off_c, 5, 79, 0
2, 135424, Note_on_c, 5, 74, 84
2, 135427, Note_off_c, 5, 76, 0
2, 135498, Note_off_c, 5, 74, 0
2, 135552, Note_on_c, 5, 79, 84
2, 135616, Note_on_c, 5, 77, 84
2, 135619, Note_off_c, 5, 79, 0
2, 135678, Note_off_c, 5, 77, 0
2, 135680, Note_on_c, 5, 72, 61
2, 135936, Note_on_c, 5, 67, 61
2, 135948, Note_off_c, 5, 72, 0
2, 136192, Note_on_c, 5, 72, 61
2, 136204, Note_off_c, 5, 67, 0
2, 136448, Note_on_c, 5, 67, 61
2, 136460, Note_off_c, 5, 72, 0
2, 136704, Note_on_c, 5, 72, 61
2, 136716, Note_off_c, 5, 67, 0
2, 136960, Note_on_c, 5, 67, 61
2, 136972, Note_off_c, 5, 72, 0
2, 137216, Note_on_c, 5, 72, 61
2, 137228, Note_off_c, 5, 67, 0
2, 137472, Note_on_c, 5, 67, 61
2, 137484, Note_off_c, 5, 72, 0
2, 137728, Note_on_c, 5, 72, 46
2, 137740, Note_off_c, 5, 67, 0
2, 137802, Note_off_c, 5, 72, 0
2, 139904, Note_on_c, 5, 60, 61
2, 140032, Note_on_c, 5, 62, 61
2, 140038, Note_off_c, 5, 60, 0
2, 140157, Note_off_c, 5, 62, 0
2, 140160, Note_on_c, 5, 65, 61
2, 140236, Note_off_c, 5, 65, 0
2, 140288, Note_on_c, 5, 64, 61
2, 140364, Note_off_c, 5, 64, 0
2, 140416, Note_on_c, 5, 64, 61
2, 140544, Note_on_c, 5, 65, 61
2, 140550, Note_off_c, 5, 64, 0
2, 140669, Note_off_c, 5, 65, 0
2, 140672, Note_on_c, 5, 69, 61
2, 140748, Note_off_c, 5, 69, 0
2, 140800, Note_on_c, 5, 67, 61
2, 140876, Note_off_c, 5, 67, 0
2, 140928, Note_on_c, 5, 67, 61
2, 141056, Note_on_c, 5, 69, 61
2, 141062, Note_off_c, 5, 67, 0
2, 141181, Note_off_c, 5, 69, 0
2, 141184, Note_on_c, 5, 72, 61
2, 141260, Note_off_c, 5, 72, 0
2, 141312, Note_on_c, 5, 70, 61
2, 141388, Note_off_c, 5, 70, 0
2, 141440, Note_on_c, 5, 69, 98
2, 141568, Note_on_c, 5, 70, 98
2, 141574, Note_off_c, 5, 69, 0
2, 141693, Note_off_c, 5, 70, 0
2, 141696, Note_on_c, 5, 74, 98
2, 141772, Note_off_c, 5, 74, 0
2, 141952, Note_on_c, 5, 69, 84
2, 142080, Note_on_c, 5, 70, 84
2, 142086, Note_off_c, 5, 69, 0
2, 142205, Note_off_c, 5, 70, 0
2, 142208, Note_on_c, 5, 74, 84
2, 142284, Note_off_c, 5, 74, 0
2, 142336, Note_on_c, 5, 72, 84
2, 142464, Note_on_c, 5, 70, 84
2, 142470, Note_off_c, 5, 72, 0
2, 142528, Note_on_c, 5, 69, 84
2, 142531, Note_off_c, 5, 70, 0
2, 142590, Note_off_c, 5, 69, 0
2, 142592, Note_on_c, 5, 67, 84
2, 142668, Note_off_c, 5, 67, 0
2, 142720, Note_on_c, 5, 60, 84
2, 142796, Note_off_c, 5, 60, 0
2, 142976, Note_on_c, 5, 69, 84
2, 143104, Note_on_c, 5, 70, 84
2, 143110, Note_off_c, 5, 69, 0
2, 143229, Note_off_c, 5, 70, 0
2, 143232, Note_on_c, 5, 74, 84
2, 143308, Note_off_c, 5, 74, 0
2, 143360, Note_on_c, 5, 72, 84
2, 143488, Note_on_c, 5, 70, 84
2, 143494, Note_off_c, 5, 72, 0
2, 143552, Note_on_c, 5, 69, 84
2, 143555, Note_off_c, 5, 70, 0
2, 143614, Note_off_c, 5, 69, 0
2, 143616, Note_on_c, 5, 67, 84
2, 143692, Note_off_c, 5, 67, 0
2, 143744, Note_on_c, 5, 60, 84
2, 143820, Note_off_c, 5, 60, 0
2, 143872, Note_on_c, 5, 65, 84
2, 143948, Note_off_c, 5, 65, 0
2, 144000, Note_on_c, 5, 65, 84
2, 144128, Note_on_c, 5, 67, 84
2, 144134, Note_off_c, 5, 65, 0
2, 144253, Note_off_c, 5, 67, 0
2, 144256, Note_on_c, 5, 70, 84
2, 144332, Note_off_c, 5, 70, 0
2, 144384, Note_on_c, 5, 69, 84
2, 144460, Note_off_c, 5, 69, 0
2, 144512, Note_on_c, 5, 69, 86
2, 144640, Note_on_c, 5, 70, 88
2, 144646, Note_off_c, 5, 69, 0
2, 144765, Note_off_c, 5, 70, 0
2, 144768, Note_on_c, 5, 74, 90
2, 144844, Note_off_c, 5, 74, 0
2, 144896, Note_on_c, 5, 72, 92
2, 144972, Note_off_c, 5, 72, 0
2, 145024, Note_on_c, 5, 72, 94
2, 145152, Note_on_c, 5, 74, 98
2, 145158, Note_off_c, 5, 72, 0
2, 145277, Note_off_c, 5, 74, 0
2, 145280, Note_on_c, 5, 77, 98
2, 145356, Note_off_c, 5, 77, 0
2, 145408, Note_on_c, 5, 75, 98
2, 145484, Note_off_c, 5, 75, 0
2, 145536, Note_on_c, 5, 74, 98
2, 145664, Note_on_c, 5, 75, 98
2, 145670, Note_off_c, 5, 74, 0
2, 145789, Note_off_c, 5, 75, 0
2, 145792, Note_on_c, 5, 79, 98
2, 145868, Note_off_c, 5, 79, 0
2, 146816, Note_on_c, 5, 65, 61
2, 146944, Note_off_c, 5, 65, 0
2, 147840, Note_on_c, 5, 65, 61
2, 147968, Note_off_c, 5, 65, 0
2, 147968, Note_on_c, 5, 70, 61
2, 148044, Note_off_c, 5, 70, 0
2, 148096, Note_on_c, 5, 65, 61
2, 148160, Note_on_c, 5, 63, 61
2, 148163, Note_off_c, 5, 65, 0
2, 148222, Note_off_c, 5, 63, 0
2, 148224, Note_on_c, 5, 62, 61
2, 148300, Note_off_c, 5, 62, 0
2, 148352, Note_on_c, 5, 58, 61
2, 148428, Note_off_c, 5, 58, 0
2, 148480, Note_on_c, 5, 70, 61
2, 148556, Note_off_c, 5, 70, 0
2, 148608, Note_on_c, 5, 65, 61
2, 148672, Note_on_c, 5, 63, 61
2, 148675, Note_off_c, 5, 65, 0
2, 148734, Note_off_c, 5, 63, 0
2, 148736, Note_on_c, 5, 62, 62
2, 148812, Note_off_c, 5, 62, 0
2, 148864, Note_on_c, 5, 58, 63
2, 148940, Note_off_c, 5, 58, 0
2, 148992, Note_on_c, 5, 70, 65
2, 149068, Note_off_c, 5, 70, 0
2, 149120, Note_on_c, 5, 65, 67
2, 149184, Note_on_c, 5, 63, 68
2, 149187, Note_off_c, 5, 65, 0
2, 149246, Note_off_c, 5, 63, 0
2, 149248, Note_on_c, 5, 62, 68
2, 149324, Note_off_c, 5, 62, 0
2, 149376, Note_on_c, 5, 58, 70
2, 149452, Note_off_c, 5, 58, 0
2, 149504, Note_on_c, 5, 70, 71
2, 149580, Note_off_c, 5, 70, 0
2, 149632, Note_on_c, 5, 65, 71
2, 149696, Note_on_c, 5, 63, 71
2, 149699, Note_off_c, 5, 65, 0
2, 149758, Note_off_c, 5, 63, 0
2, 149760, Note_on_c, 5, 62, 71
2, 149836, Note_off_c, 5, 62, 0
2, 149888, Note_on_c, 5, 58, 71
2, 149964, Note_off_c, 5, 58, 0
2, 150016, Note_on_c, 5, 74, 71
2, 152064, Note_off_c, 5, 74, 0
2, 152064, Note_on_c, 5, 74, 71
2, 152140, Note_off_c, 5, 74, 0
2, 152192, Note_on_c, 5, 72, 71
2, 152256, Note_on_c, 5, 70, 72
2, 152259, Note_off_c, 5, 72, 0
2, 152318, Note_off_c, 5, 70, 0
2, 152320, Note_on_c, 5, 65, 72
2, 152396, Note_off_c, 5, 65, 0
2, 152448, Note_on_c, 5, 62, 73
2, 152524, Note_off_c, 5, 62, 0
2, 152576, Note_on_c, 5, 74, 74
2, 152652, Note_off_c, 5, 74, 0
2, 152704, Note_on_c, 5, 72, 75
2, 152768, Note_on_c, 5, 70, 75
2, 152771, Note_off_c, 5, 72, 0
2, 152830, Note_off_c, 5, 70, 0
2, 152832, Note_on_c, 5, 65, 76
2, 152908, Note_off_c, 5, 65, 0
2, 152960, Note_on_c, 5, 62, 77
2, 153036, Note_off_c, 5, 62, 0
2, 153088, Note_on_c, 5, 74, 78
2, 153164, Note_off_c, 5, 74, 0
2, 153216, Note_on_c, 5, 72, 79
2, 153280, Note_on_c, 5, 70, 79
2, 153283, Note_off_c, 5, 72, 0
2, 153342, Note_off_c, 5, 70, 0
2, 153344, Note_on_c, 5, 65, 79
2, 153420, Note_off_c, 5, 65, 0
2, 153472, Note_on_c, 5, 62, 80
2, 153548, Note_off_c, 5, 62, 0
2, 153600, Note_on_c, 5, 74, 81
2, 153676, Note_off_c, 5, 74, 0
2, 153728, Note_on_c, 5, 72, 82
2, 153792, Note_on_c, 5, 70, 84
2, 153795, Note_off_c, 5, 72, 0
2, 153854, Note_off_c, 5, 70, 0
2, 153856, Note_on_c, 5, 65, 84
2, 153932, Note_off_c, 5, 65, 0
2, 153984, Note_on_c, 5, 62, 84
2, 154060, Note_off_c, 5, 62, 0
2, 154112, Note_on_c, 5, 78, 84
2, 156160, Note_off_c, 5, 78, 0
2, 156160, Note_on_c, 5, 78, 84
2, 156236, Note_off_c, 5, 78, 0
2, 156288, Note_on_c, 5, 76, 84
2, 156352, Note_on_c, 5, 74, 85
2, 156355, Note_off_c, 5, 76, 0
2, 156414, Note_off_c, 5, 74, 0
2, 156416, Note_on_c, 5, 69, 85
2, 156492, Note_off_c, 5, 69, 0
2, 156544, Note_on_c, 5, 66, 86
2, 156620, Note_off_c, 5, 66, 0
2, 156672, Note_on_c, 5, 78, 87
2, 156748, Note_off_c, 5, 78, 0
2, 156800, Note_on_c, 5, 76, 88
2, 156864, Note_on_c, 5, 74, 89
2, 156867, Note_off_c, 5, 76, 0
2, 156926, Note_off_c, 5, 74, 0
2, 156928, Note_on_c, 5, 69, 89
2, 157004, Note_off_c, 5, 69, 0
2, 157056, Note_on_c, 5, 66, 90
2, 157132, Note_off_c, 5, 66, 0
2, 157184, Note_on_c, 5, 78, 91
2, 157260, Note_off_c, 5, 78, 0
2, 157312, Note_on_c, 5, 76, 92
2, 157376, Note_on_c, 5, 74, 92
2, 157379, Note_off_c, 5, 76, 0
2, 157438, Note_off_c, 5, 74, 0
2, 157440, Note_on_c, 5, 69, 93
2, 157516, Note_off_c, 5, 69, 0
2, 157568, Note_on_c, 5, 66, 94
2, 157644, Note_off_c, 5, 66, 0
2, 157696, Note_on_c, 5, 78, 95
2, 157772, Note_off_c, 5, 78, 0
2, 157824, Note_on_c, 5, 76, 96
2, 157888, Note_on_c, 5, 74, 96
2, 157891, Note_off_c, 5, 76, 0
2, 157950, Note_off_c, 5, 74, 0
2, 157952, Note_on_c, 5, 69, 98
2, 158028, Note_off_c, 5, 69, 0
2, 158080, Note_on_c, 5, 66, 98
2, 158156, Note_off_c, 5, 66, 0
2, 158208, Note_on_c, 5, 81, 98
2, 160256, Note_off_c, 5, 81, 0
2, 160256, Note_on_c, 5, 81, 113
2, 160307, Note_off_c, 5, 81, 0
2, 160320, Note_on_c, 5, 81, 113
2, 160371, Note_off_c, 5, 81, 0
2, 160384, Note_on_c, 5, 81, 113
2, 160435, Note_off_c, 5, 81, 0
2, 160448, Note_on_c, 5, 81, 113
2, 160499, Note_off_c, 5, 81, 0
2, 160512, Note_on_c, 5, 81, 113
2, 160563, Note_off_c, 5, 81, 0
2, 160576, Note_on_c, 5, 81, 113
2, 160627, Note_off_c, 5, 81, 0
2, 160640, Note_on_c, 5, 81, 113
2, 160691, Note_off_c, 5, 81, 0
2, 160704, Note_on_c, 5, 81, 113
2, 160755, Note_off_c, 5, 81, 0
2, 160768, Note_on_c, 5, 81, 113
2, 160819, Note_off_c, 5, 81, 0
2, 160832, Note_on_c, 5, 81, 113
2, 160883, Note_off_c, 5, 81, 0
2, 160896, Note_on_c, 5, 81, 113
2, 160947, Note_off_c, 5, 81, 0
2, 160960, Note_on_c, 5, 81, 113
2, 161011, Note_off_c, 5, 81, 0
2, 161024, Note_on_c, 5, 81, 113
2, 161075, Note_off_c, 5, 81, 0
2, 161088, Note_on_c, 5, 81, 113
2, 161139, Note_off_c, 5, 81, 0
2, 161152, Note_on_c, 5, 81, 113
2, 161203, Note_off_c, 5, 81, 0
2, 161216, Note_on_c, 5, 81, 113
2, 161267, Note_off_c, 5, 81, 0
2, 161280, Note_on_c, 5, 81, 113
2, 161331, Note_off_c, 5, 81, 0
2, 161344, Note_on_c, 5, 81, 113
2, 161395, Note_off_c, 5, 81, 0
2, 161408, Note_on_c, 5, 81, 113
2, 161459, Note_off_c, 5, 81, 0
2, 161472, Note_on_c, 5, 81, 113
2, 161523, Note_off_c, 5, 81, 0
2, 161536, Note_on_c, 5, 81, 113
2, 161587, Note_off_c, 5, 81, 0
2, 161600, Note_on_c, 5, 81, 113
2, 161651, Note_off_c, 5, 81, 0
2, 161664, Note_on_c, 5, 81, 113
2, 161715, Note_off_c, 5, 81, 0
2, 161728, Note_on_c, 5, 81, 113
2, 161779, Note_off_c, 5, 81, 0
2, 161792, Note_on_c, 5, 81, 113
2, 161843, Note_off_c, 5, 81, 0
2, 161856, Note_on_c, 5, 81, 113
2, 161907, Note_off_c, 5, 81, 0
2, 161920, Note_on_c, 5, 81, 113
2, 161971, Note_off_c, 5, 81, 0
2, 161984, Note_on_c, 5, 81, 113
2, 162035, Note_off_c, 5, 81, 0
2, 162048, Note_on_c, 5, 81, 113
2, 162099, Note_off_c, 5, 81, 0
2, 162112, Note_on_c, 5, 81, 113
2, 162163, Note_off_c, 5, 81, 0
2, 162176, Note_on_c, 5, 81, 113
2, 162227, Note_off_c, 5, 81, 0
2, 162240, Note_on_c, 5, 81, 113
2, 162291, Note_off_c, 5, 81, 0
2, 162304, Note_on_c, 5, 81, 113
2, 162432, Note_off_c, 5, 81, 0
2, 162816, Note_on_c, 5, 74, 113
2, 162892, Note_off_c, 5, 74, 0
2, 162944, Note_on_c, 5, 69, 113
2, 163008, Note_on_c, 5, 67, 113
2, 163011, Note_off_c, 5, 69, 0
2, 163070, Note_off_c, 5, 67, 0
2, 163072, Note_on_c, 5, 66, 113
2, 163148, Note_off_c, 5, 66, 0
2, 163200, Note_on_c, 5, 62, 113
2, 163276, Note_off_c, 5, 62, 0
2, 163840, Note_on_c, 5, 78, 113
2, 163916, Note_off_c, 5, 78, 0
2, 163968, Note_on_c, 5, 76, 113
2, 164032, Note_on_c, 5, 74, 113
2, 164035, Note_off_c, 5, 76, 0
2, 164094, Note_off_c, 5, 74, 0
2, 164096, Note_on_c, 5, 69, 113
2, 164172, Note_off_c, 5, 69, 0
2, 164224, Note_on_c, 5, 66, 113
2, 164300, Note_off_c, 5, 66, 0
2, 164864, Note_on_c, 5, 81, 113
2, 164940, Note_off_c, 5, 81, 0
2, 164992, Note_on_c, 5, 79, 113
2, 165056, Note_on_c, 5, 78, 113
2, 165059, Note_off_c, 5, 79, 0
2, 165118, Note_off_c, 5, 78, 0
2, 165120, Note_on_c, 5, 74, 113
2, 165196, Note_off_c, 5, 74, 0
2, 165248, Note_on_c, 5, 69, 109
2, 165324, Note_off_c, 5, 69, 0
2, 165376, Note_on_c, 5, 81, 104
2, 165452, Note_off_c, 5, 81, 0
2, 165504, Note_on_c, 5, 79, 100
2, 165568, Note_on_c, 5, 78, 97
2, 165571, Note_off_c, 5, 79, 0
2, 165630, Note_off_c, 5, 78, 0
2, 165632, Note_on_c, 5, 74, 95
2, 165708, Note_off_c, 5, 74, 0
2, 165760, Note_on_c, 5, 69, 91
2, 165836, Note_off_c, 5, 69, 0
2, 165888, Note_on_c, 5, 81, 86
2, 165964, Note_off_c, 5, 81, 0
2, 166016, Note_on_c, 5, 79, 81
2, 166080, Note_on_c, 5, 78, 79
2, 166083, Note_off_c, 5, 79, 0
2, 166142, Note_off_c, 5, 78, 0
2, 166144, Note_on_c, 5, 74, 77
2, 166220, Note_off_c, 5, 74, 0
2, 166272, Note_on_c, 5, 69, 71
2, 166348, Note_off_c, 5, 69, 0
2, 166656, Note_on_c, 5, 74, 61
2, 166732, Note_off_c, 5, 74, 0
2, 166784, Note_on_c, 5, 69, 61
2, 166860, Note_off_c, 5, 69, 0
2, 167168, Note_on_c, 5, 74, 61
2, 167244, Note_off_c, 5, 74, 0
2, 167296, Note_on_c, 5, 69, 61
2, 167372, Note_off_c, 5, 69, 0
2, 167424, Note_on_c, 5, 74, 61
2, 167500, Note_off_c, 5, 74, 0
2, 167552, Note_on_c, 5, 69, 61
2, 167628, Note_off_c, 5, 69, 0
2, 167680, Note_on_c, 5, 74, 61
2, 167756, Note_off_c, 5, 74, 0
2, 167808, Note_on_c, 5, 69, 61
2, 167884, Note_off_c, 5, 69, 0
2, 167936, Note_on_c, 5, 74, 61
2, 168012, Note_off_c, 5, 74, 0
2, 168064, Note_on_c, 5, 69, 61
2, 168140, Note_off_c, 5, 69, 0
2, 168192, Note_on_c, 5, 74, 61
2, 168268, Note_off_c, 5, 74, 0
2, 168320, Note_on_c, 5, 69, 61
2, 168396, Note_off_c, 5, 69, 0
2, 168576, Note_on_c, 5, 71, 61
2, 168652, Note_off_c, 5, 71, 0
2, 168704, Note_on_c, 5, 72, 61
2, 168780, Note_off_c, 5, 72, 0
2, 168832, Note_on_c, 5, 76, 61
2, 168908, Note_off_c, 5, 76, 0
2, 168960, Note_on_c, 5, 74, 61
2, 169036, Note_off_c, 5, 74, 0
2, 169088, Note_on_c, 5, 72, 61
2, 169152, Note_on_c, 5, 71, 61
2, 169155, Note_off_c, 5, 72, 0
2, 169214, Note_off_c, 5, 71, 0
2, 169216, Note_on_c, 5, 69, 61
2, 169292, Note_off_c, 5, 69, 0
2, 169344, Note_on_c, 5, 62, 61
2, 169420, Note_off_c, 5, 62, 0
2, 169472, Note_on_c, 5, 67, 61
2, 169548, Note_off_c, 5, 67, 0
2, 169600, Note_on_c, 5, 69, 61
2, 169676, Note_off_c, 5, 69, 0
2, 169728, Note_on_c, 5, 71, 61
2, 169856, Note_on_c, 5, 72, 61
2, 169862, Note_off_c, 5, 71, 0
2, 169920, Note_on_c, 5, 71, 61
2, 169923, Note_off_c, 5, 72, 0
2, 169982, Note_off_c, 5, 71, 0
2, 169984, Note_on_c, 5, 69, 61
2, 170496, Note_off_c, 5, 69, 0
2, 170496, Note_on_c, 5, 71, 61
2, 170572, Note_off_c, 5, 71, 0
2, 170624, Note_on_c, 5, 69, 61
2, 170700, Note_off_c, 5, 69, 0
2, 170752, Note_on_c, 5, 67, 61
2, 170880, Note_on_c, 5, 66, 62
2, 170886, Note_off_c, 5, 67, 0
2, 170944, Note_on_c, 5, 67, 62
2, 170947, Note_off_c, 5, 66, 0
2, 171006, Note_off_c, 5, 67, 0
2, 171008, Note_on_c, 5, 72, 62
2, 171084, Note_off_c, 5, 72, 0
2, 171136, Note_on_c, 5, 71, 63
2, 171212, Note_off_c, 5, 71, 0
2, 171264, Note_on_c, 5, 69, 63
2, 171392, Note_on_c, 5, 67, 64
2, 171398, Note_off_c, 5, 69, 0
2, 171456, Note_on_c, 5, 69, 64
2, 171459, Note_off_c, 5, 67, 0
2, 171518, Note_off_c, 5, 69, 0
2, 171520, Note_on_c, 5, 71, 64
2, 171596, Note_off_c, 5, 71, 0
2, 171648, Note_on_c, 5, 69, 64
2, 171712, Note_on_c, 5, 67, 65
2, 171715, Note_off_c, 5, 69, 0
2, 171774, Note_off_c, 5, 67, 0
2, 171776, Note_on_c, 5, 62, 65
2, 171852, Note_off_c, 5, 62, 0
2, 171904, Note_on_c, 5, 59, 65
2, 171980, Note_off_c, 5, 59, 0
2, 172032, Note_on_c, 5, 71, 66
2, 172108, Note_off_c, 5, 71, 0
2, 172160, Note_on_c, 5, 69, 66
2, 172224, Note_on_c, 5, 67, 66
2, 172227, Note_off_c, 5, 69, 0
2, 172286, Note_off_c, 5, 67, 0
2, 172288, Note_on_c, 5, 62, 67
2, 172364, Note_off_c, 5, 62, 0
2, 172416, Note_on_c, 5, 59, 67
2, 172492, Note_off_c, 5, 59, 0
2, 172544, Note_on_c, 5, 71, 67
2, 172620, Note_off_c, 5, 71, 0
2, 172672, Note_on_c, 5, 69, 68
2, 172736, Note_on_c, 5, 67, 68
2, 172739, Note_off_c, 5, 69, 0
2, 172798, Note_off_c, 5, 67, 0
2, 172800, Note_on_c, 5, 62, 68
2, 172876, Note_off_c, 5, 62, 0
2, 172928, Note_on_c, 5, 59, 69
2, 173004, Note_off_c, 5, 59, 0
2, 173056, Note_on_c, 5, 71, 69
2, 173132, Note_off_c, 5, 71, 0
2, 173184, Note_on_c, 5, 69, 70
2, 173248, Note_on_c, 5, 67, 70
2, 173251, Note_off_c, 5, 69, 0
2, 173310, Note_off_c, 5, 67, 0
2, 173312, Note_on_c, 5, 62, 70
2, 173388, Note_off_c, 5, 62, 0
2, 173440, Note_on_c, 5, 59, 71
2, 173516, Note_off_c, 5, 59, 0
2, 173568, Note_on_c, 5, 74, 71
2, 175616, Note_off_c, 5, 74, 0
2, 175616, Note_on_c, 5, 74, 71
2, 175692, Note_off_c, 5, 74, 0
2, 175744, Note_on_c, 5, 72, 71
2, 175808, Note_on_c, 5, 71, 72
2, 175811, Note_off_c, 5, 72, 0
2, 175870, Note_off_c, 5, 71, 0
2, 175872, Note_on_c, 5, 67, 72
2, 175948, Note_off_c, 5, 67, 0
2, 176000, Note_on_c, 5, 62, 73
2, 176076, Note_off_c, 5, 62, 0
2, 176128, Note_on_c, 5, 74, 74
2, 176204, Note_off_c, 5, 74, 0
2, 176256, Note_on_c, 5, 72, 74
2, 176320, Note_on_c, 5, 71, 75
2, 176323, Note_off_c, 5, 72, 0
2, 176382, Note_off_c, 5, 71, 0
2, 176384, Note_on_c, 5, 67, 75
2, 176460, Note_off_c, 5, 67, 0
2, 176512, Note_on_c, 5, 62, 76
2, 176588, Note_off_c, 5, 62, 0
2, 176640, Note_on_c, 5, 74, 77
2, 176716, Note_off_c, 5, 74, 0
2, 176768, Note_on_c, 5, 72, 78
2, 176832, Note_on_c, 5, 71, 78
2, 176835, Note_off_c, 5, 72, 0
2, 176894, Note_off_c, 5, 71, 0
2, 176896, Note_on_c, 5, 67, 78
2, 176972, Note_off_c, 5, 67, 0
2, 177024, Note_on_c, 5, 62, 79
2, 177100, Note_off_c, 5, 62, 0
2, 177152, Note_on_c, 5, 74, 80
2, 177228, Note_off_c, 5, 74, 0
2, 177280, Note_on_c, 5, 72, 81
2, 177344, Note_on_c, 5, 71, 81
2, 177347, Note_off_c, 5, 72, 0
2, 177406, Note_off_c, 5, 71, 0
2, 177408, Note_on_c, 5, 67, 81
2, 177484, Note_off_c, 5, 67, 0
2, 177536, Note_on_c, 5, 62, 82
2, 177612, Note_off_c, 5, 62, 0
2, 177664, Note_on_c, 5, 76, 84
2, 179712, Note_off_c, 5, 76, 0
2, 179712, Note_on_c, 5, 80, 84
2, 179788, Note_off_c, 5, 80, 0
2, 179840, Note_on_c, 5, 78, 84
2, 179904, Note_on_c, 5, 76, 85
2, 179907, Note_off_c, 5, 78, 0
2, 179966, Note_off_c, 5, 76, 0
2, 179968, Note_on_c, 5, 71, 85
2, 180044, Note_off_c, 5, 71, 0
2, 180096, Note_on_c, 5, 68, 86
2, 180172, Note_off_c, 5, 68, 0
2, 180224, Note_on_c, 5, 80, 87
2, 180300, Note_off_c, 5, 80, 0
2, 180352, Note_on_c, 5, 78, 88
2, 180416, Note_on_c, 5, 76, 88
2, 180419, Note_off_c, 5, 78, 0
2, 180478, Note_off_c, 5, 76, 0
2, 180480, Note_on_c, 5, 71, 89
2, 180556, Note_off_c, 5, 71, 0
2, 180608, Note_on_c, 5, 68, 89
2, 180684, Note_off_c, 5, 68, 0
2, 180736, Note_on_c, 5, 80, 90
2, 180812, Note_off_c, 5, 80, 0
2, 180864, Note_on_c, 5, 78, 91
2, 180928, Note_on_c, 5, 76, 92
2, 180931, Note_off_c, 5, 78, 0
2, 180990, Note_off_c, 5, 76, 0
2, 180992, Note_on_c, 5, 71, 92
2, 181068, Note_off_c, 5, 71, 0
2, 181120, Note_on_c, 5, 68, 93
2, 181196, Note_off_c, 5, 68, 0
2, 181248, Note_on_c, 5, 80, 94
2, 181324, Note_off_c, 5, 80, 0
2, 181376, Note_on_c, 5, 78, 95
2, 181440, Note_on_c, 5, 76, 95
2, 181443, Note_off_c, 5, 78, 0
2, 181502, Note_off_c, 5, 76, 0
2, 181504, Note_on_c, 5, 71, 95
2, 181580, Note_off_c, 5, 71, 0
2, 181632, Note_on_c, 5, 68, 96
2, 181708, Note_off_c, 5, 68, 0
2, 181760, Note_on_c, 5, 83, 98
2, 183808, Note_off_c, 5, 83, 0
2, 183808, Note_on_c, 5, 83, 113
2, 183859, Note_off_c, 5, 83, 0
2, 183872, Note_on_c, 5, 83, 113
2, 183923, Note_off_c, 5, 83, 0
2, 183936, Note_on_c, 5, 83, 113
2, 183987, Note_off_c, 5, 83, 0
2, 184000, Note_on_c, 5, 83, 113
2, 184051, Note_off_c, 5, 83, 0
2, 184064, Note_on_c, 5, 83, 113
2, 184115, Note_off_c, 5, 83, 0
2, 184128, Note_on_c, 5, 83, 113
2, 184179, Note_off_c, 5, 83, 0
2, 184192, Note_on_c, 5, 83, 113
2, 184243, Note_off_c, 5, 83, 0
2, 184256, Note_on_c, 5, 83, 113
2, 184307, Note_off_c, 5, 83, 0
2, 184320, Note_on_c, 5, 83, 113
2, 184371, Note_off_c, 5, 83, 0
2, 184384, Note_on_c, 5, 83, 113
2, 184435, Note_off_c, 5, 83, 0
2, 184448, Note_on_c, 5, 83, 113
2, 184499, Note_off_c, 5, 83, 0
2, 184512, Note_on_c, 5, 83, 113
2, 184563, Note_off_c, 5, 83, 0
2, 184576, Note_on_c, 5, 83, 113
2, 184627, Note_off_c, 5, 83, 0
2, 184640, Note_on_c, 5, 83, 113
2, 184691, Note_off_c, 5, 83, 0
2, 184704, Note_on_c, 5, 83, 113
2, 184755, Note_off_c, 5, 83, 0
2, 184768, Note_on_c, 5, 83, 113
2, 184819, Note_off_c, 5, 83, 0
2, 184832, Note_on_c, 5, 83, 113
2, 184883, Note_off_c, 5, 83, 0
2, 184896, Note_on_c, 5, 83, 113
2, 184947, Note_off_c, 5, 83, 0
2, 184960, Note_on_c, 5, 83, 113
2, 185011, Note_off_c, 5, 83, 0
2, 185024, Note_on_c, 5, 83, 113
2, 185075, Note_off_c, 5, 83, 0
2, 185088, Note_on_c, 5, 83, 113
2, 185139, Note_off_c, 5, 83, 0
2, 185152, Note_on_c, 5, 83, 113
2, 185203, Note_off_c, 5, 83, 0
2, 185216, Note_on_c, 5, 83, 113
2, 185267, Note_off_c, 5, 83, 0
2, 185280, Note_on_c, 5, 83, 113
2, 185331, Note_off_c, 5, 83, 0
2, 185344, Note_on_c, 5, 83, 113
2, 185395, Note_off_c, 5, 83, 0
2, 185408, Note_on_c, 5, 83, 113
2, 185459, Note_off_c, 5, 83, 0
2, 185472, Note_on_c, 5, 83, 113
2, 185523, Note_off_c, 5, 83, 0
2, 185536, Note_on_c, 5, 83, 113
2, 185587, Note_off_c, 5, 83, 0
2, 185600, Note_on_c, 5, 83, 113
2, 185651, Note_off_c, 5, 83, 0
2, 185664, Note_on_c, 5, 83, 113
2, 185715, Note_off_c, 5, 83, 0
2, 185728, Note_on_c, 5, 83, 113
2, 185779, Note_off_c, 5, 83, 0
2, 185792, Note_on_c, 5, 83, 113
2, 185843, Note_off_c, 5, 83, 0
2, 185856, Note_on_c, 5, 83, 113
2, 185984, Note_off_c, 5, 83, 0
2, 186368, Note_on_c, 5, 76, 113
2, 186444, Note_off_c, 5, 76, 0
2, 186496, Note_on_c, 5, 71, 113
2, 186560, Note_on_c, 5, 69, 113
2, 186563, Note_off_c, 5, 71, 0
2, 186622, Note_off_c, 5, 69, 0
2, 186624, Note_on_c, 5, 68, 113
2, 186700, Note_off_c, 5, 68, 0
2, 186752, Note_on_c, 5, 64, 113
2, 186828, Note_off_c, 5, 64, 0
2, 187392, Note_on_c, 5, 80, 98
2, 187468, Note_off_c, 5, 80, 0
2, 187520, Note_on_c, 5, 78, 98
2, 187584, Note_on_c, 5, 76, 98
2, 187587, Note_off_c, 5, 78, 0
2, 187646, Note_off_c, 5, 76, 0
2, 187648, Note_on_c, 5, 71, 98
2, 187724, Note_off_c, 5, 71, 0
2, 187776, Note_on_c, 5, 68, 98
2, 187852, Note_off_c, 5, 68, 0
2, 188416, Note_on_c, 5, 83, 98
2, 188492, Note_off_c, 5, 83, 0
2, 188544, Note_on_c, 5, 81, 84
2, 188608, Note_on_c, 5, 80, 84
2, 188611, Note_off_c, 5, 81, 0
2, 188670, Note_off_c, 5, 80, 0
2, 188672, Note_on_c, 5, 76, 84
2, 188748, Note_off_c, 5, 76, 0
2, 188800, Note_on_c, 5, 71, 82
2, 188876, Note_off_c, 5, 71, 0
2, 188928, Note_on_c, 5, 83, 81
2, 189004, Note_off_c, 5, 83, 0
2, 189056, Note_on_c, 5, 81, 79
2, 189120, Note_on_c, 5, 80, 78
2, 189123, Note_off_c, 5, 81, 0
2, 189182, Note_off_c, 5, 80, 0
2, 189184, Note_on_c, 5, 76, 78
2, 189260, Note_off_c, 5, 76, 0
2, 189312, Note_on_c, 5, 71, 76
2, 189388, Note_off_c, 5, 71, 0
2, 189440, Note_on_c, 5, 83, 75
2, 189516, Note_off_c, 5, 83, 0
2, 189568, Note_on_c, 5, 81, 73
2, 189632, Note_on_c, 5, 80, 71
2, 189635, Note_off_c, 5, 81, 0
2, 189694, Note_off_c, 5, 80, 0
2, 189696, Note_on_c, 5, 76, 71
2, 189772, Note_off_c, 5, 76, 0
2, 189824, Note_on_c, 5, 71, 71
2, 189900, Note_off_c, 5, 71, 0
2, 190208, Note_on_c, 5, 76, 61
2, 190284, Note_off_c, 5, 76, 0
2, 190336, Note_on_c, 5, 71, 61
2, 190412, Note_off_c, 5, 71, 0
2, 190720, Note_on_c, 5, 76, 61
2, 190796, Note_off_c, 5, 76, 0
2, 190848, Note_on_c, 5, 71, 61
2, 190924, Note_off_c, 5, 71, 0
2, 190976, Note_on_c, 5, 76, 61
2, 191052, Note_off_c, 5, 76, 0
2, 191104, Note_on_c, 5, 71, 61
2, 191180, Note_off_c, 5, 71, 0
2, 191232, Note_on_c, 5, 76, 61
2, 191308, Note_off_c, 5, 76, 0
2, 191360, Note_on_c, 5, 71, 61
2, 191436, Note_off_c, 5, 71, 0
2, 191488, Note_on_c, 5, 76, 61
2, 191564, Note_off_c, 5, 76, 0
2, 191616, Note_on_c, 5, 71, 61
2, 191692, Note_off_c, 5, 71, 0
2, 191744, Note_on_c, 5, 76, 61
2, 191820, Note_off_c, 5, 76, 0
2, 191872, Note_on_c, 5, 71, 61
2, 191948, Note_off_c, 5, 71, 0
2, 192128, Note_on_c, 5, 73, 61
2, 192204, Note_off_c, 5, 73, 0
2, 192256, Note_on_c, 5, 74, 61
2, 192332, Note_off_c, 5, 74, 0
2, 192384, Note_on_c, 5, 78, 61
2, 192460, Note_off_c, 5, 78, 0
2, 192512, Note_on_c, 5, 76, 61
2, 192640, Note_on_c, 5, 74, 61
2, 192646, Note_off_c, 5, 76, 0
2, 192704, Note_on_c, 5, 73, 61
2, 192707, Note_off_c, 5, 74, 0
2, 192766, Note_off_c, 5, 73, 0
2, 192768, Note_on_c, 5, 71, 61
2, 192844, Note_off_c, 5, 71, 0
2, 192896, Note_on_c, 5, 64, 61
2, 192972, Note_off_c, 5, 64, 0
2, 193024, Note_on_c, 5, 69, 61
2, 193100, Note_off_c, 5, 69, 0
2, 193152, Note_on_c, 5, 71, 61
2, 193228, Note_off_c, 5, 71, 0
2, 193280, Note_on_c, 5, 73, 61
2, 193408, Note_on_c, 5, 74, 61
2, 193414, Note_off_c, 5, 73, 0
2, 193472, Note_on_c, 5, 73, 61
2, 193475, Note_off_c, 5, 74, 0
2, 193534, Note_off_c, 5, 73, 0
2, 193536, Note_on_c, 5, 71, 61
2, 194048, Note_off_c, 5, 71, 0
2, 194048, Note_on_c, 5, 73, 61
2, 194124, Note_off_c, 5, 73, 0
2, 194176, Note_on_c, 5, 71, 61
2, 194252, Note_off_c, 5, 71, 0
2, 194304, Note_on_c, 5, 69, 61
2, 194432, Note_on_c, 5, 68, 61
2, 194438, Note_off_c, 5, 69, 0
2, 194496, Note_on_c, 5, 69, 61
2, 194499, Note_off_c, 5, 68, 0
2, 194558, Note_off_c, 5, 69, 0
2, 194560, Note_on_c, 5, 74, 61
2, 194636, Note_off_c, 5, 74, 0
2, 194688, Note_on_c, 5, 73, 61
2, 194764, Note_off_c, 5, 73, 0
2, 194816, Note_on_c, 5, 71, 61
2, 194944, Note_on_c, 5, 69, 61
2, 194950, Note_off_c, 5, 71, 0
2, 195008, Note_on_c, 5, 71, 61
2, 195011, Note_off_c, 5, 69, 0
2, 195070, Note_off_c, 5, 71, 0
2, 195072, Note_on_c, 5, 73, 61
2, 195200, Note_off_c, 5, 73, 0
2, 197120, Note_on_c, 5, 57, 61
2, 197184, Note_off_c, 5, 57, 0
2, 197184, Note_on_c, 5, 61, 61
2, 197248, Note_off_c, 5, 61, 0
2, 197248, Note_on_c, 5, 69, 61
2, 197312, Note_off_c, 5, 69, 0
2, 197312, Note_on_c, 5, 69, 61
2, 197376, Note_off_c, 5, 69, 0
2, 197376, Note_on_c, 5, 61, 61
2, 197440, Note_off_c, 5, 61, 0
2, 197440, Note_on_c, 5, 64, 61
2, 197504, Note_off_c, 5, 64, 0
2, 197504, Note_on_c, 5, 69, 61
2, 197568, Note_off_c, 5, 69, 0
2, 197568, Note_on_c, 5, 69, 61
2, 197632, Note_off_c, 5, 69, 0
2, 197632, Note_on_c, 5, 59, 61
2, 197696, Note_off_c, 5, 59, 0
2, 197696, Note_on_c, 5, 62, 61
2, 197760, Note_off_c, 5, 62, 0
2, 197760, Note_on_c, 5, 69, 61
2, 197824, Note_off_c, 5, 69, 0
2, 197824, Note_on_c, 5, 69, 61
2, 197888, Note_off_c, 5, 69, 0
2, 197888, Note_on_c, 5, 62, 61
2, 197952, Note_off_c, 5, 62, 0
2, 197952, Note_on_c, 5, 69, 61
2, 198016, Note_off_c, 5, 69, 0
2, 198016, Note_on_c, 5, 61, 61
2, 198080, Note_off_c, 5, 61, 0
2, 198080, Note_on_c, 5, 69, 61
2, 198144, Note_off_c, 5, 69, 0
2, 198144, Note_on_c, 5, 57, 61
2, 198208, Note_off_c, 5, 57, 0
2, 198208, Note_on_c, 5, 66, 61
2, 198272, Note_off_c, 5, 66, 0
2, 198272, Note_on_c, 5, 69, 61
2, 198336, Note_off_c, 5, 69, 0
2, 198336, Note_on_c, 5, 69, 61
2, 198400, Note_off_c, 5, 69, 0
2, 198400, Note_on_c, 5, 57, 61
2, 198464, Note_off_c, 5, 57, 0
2, 198464, Note_on_c, 5, 64, 61
2, 198528, Note_off_c, 5, 64, 0
2, 198528, Note_on_c, 5, 69, 61
2, 198592, Note_off_c, 5, 69, 0
2, 198592, Note_on_c, 5, 69, 61
2, 198656, Note_off_c, 5, 69, 0
2, 198656, Note_on_c, 5, 62, 61
2, 198720, Note_off_c, 5, 62, 0
2, 198720, Note_on_c, 5, 69, 61
2, 198784, Note_off_c, 5, 69, 0
2, 198784, Note_on_c, 5, 57, 61
2, 198848, Note_off_c, 5, 57, 0
2, 198848, Note_on_c, 5, 69, 61
2, 198912, Note_off_c, 5, 69, 0
2, 198912, Note_on_c, 5, 57, 61
2, 198976, Note_off_c, 5, 57, 0
2, 198976, Note_on_c, 5, 69, 61
2, 199040, Note_off_c, 5, 69, 0
2, 199040, Note_on_c, 5, 57, 61
2, 199104, Note_off_c, 5, 57, 0
2, 199104, Note_on_c, 5, 69, 61
2, 199168, Note_off_c, 5, 69, 0
2, 199168, Note_on_c, 5, 57, 61
2, 199232, Note_off_c, 5, 57, 0
2, 199232, Note_on_c, 5, 64, 61
2, 199296, Note_off_c, 5, 64, 0
2, 199296, Note_on_c, 5, 69, 61
2, 199360, Note_off_c, 5, 69, 0
2, 199360, Note_on_c, 5, 69, 61
2, 199424, Note_off_c, 5, 69, 0
2, 199424, Note_on_c, 5, 57, 61
2, 199488, Note_off_c, 5, 57, 0
2, 199488, Note_on_c, 5, 67, 61
2, 199552, Note_off_c, 5, 67, 0
2, 199552, Note_on_c, 5, 69, 61
2, 199616, Note_off_c, 5, 69, 0
2, 199616, Note_on_c, 5, 69, 61
2, 199680, Note_off_c, 5, 69, 0
2, 199680, Note_on_c, 5, 57, 61
2, 199744, Note_off_c, 5, 57, 0
2, 199744, Note_on_c, 5, 66, 61
2, 199808, Note_off_c, 5, 66, 0
2, 199808, Note_on_c, 5, 69, 61
2, 199872, Note_off_c, 5, 69, 0
2, 199872, Note_on_c, 5, 69, 61
2, 199936, Note_off_c, 5, 69, 0
2, 199936, Note_on_c, 5, 57, 61
2, 200000, Note_off_c, 5, 57, 0
2, 200000, Note_on_c, 5, 69, 61
2, 200064, Note_off_c, 5, 69, 0
2, 200064, Note_on_c, 5, 57, 61
2, 200128, Note_off_c, 5, 57, 0
2, 200128, Note_on_c, 5, 69, 61
2, 200192, Note_off_c, 5, 69, 0
2, 200192, Note_on_c, 5, 57, 61
2, 200256, Note_off_c, 5, 57, 0
2, 200256, Note_on_c, 5, 66, 61
2, 200320, Note_off_c, 5, 66, 0
2, 200320, Note_on_c, 5, 69, 61
2, 200384, Note_off_c, 5, 69, 0
2, 200384, Note_on_c, 5, 69, 61
2, 200448, Note_off_c, 5, 69, 0
2, 200448, Note_on_c, 5, 57, 61
2, 200512, Note_off_c, 5, 57, 0
2, 200512, Note_on_c, 5, 67, 61
2, 200576, Note_off_c, 5, 67, 0
2, 200576, Note_on_c, 5, 69, 61
2, 200640, Note_off_c, 5, 69, 0
2, 200640, Note_on_c, 5, 69, 61
2, 200704, Note_off_c, 5, 69, 0
2, 200704, Note_on_c, 5, 57, 61
2, 200768, Note_off_c, 5, 57, 0
2, 200768, Note_on_c, 5, 69, 61
2, 200832, Note_off_c, 5, 69, 0
2, 200832, Note_on_c, 5, 62, 61
2, 200896, Note_off_c, 5, 62, 0
2, 200896, Note_on_c, 5, 74, 61
2, 200960, Note_off_c, 5, 74, 0
2, 200960, Note_on_c, 5, 62, 61
2, 201024, Note_off_c, 5, 62, 0
2, 201024, Note_on_c, 5, 74, 61
2, 201088, Note_off_c, 5, 74, 0
2, 201088, Note_on_c, 5, 62, 61
2, 201152, Note_off_c, 5, 62, 0
2, 201152, Note_on_c, 5, 74, 61
2, 201216, Note_off_c, 5, 74, 0
2, 201216, Note_on_c, 5, 66, 71
2, 201472, Note_on_c, 5, 69, 71
2, 201484, Note_off_c, 5, 66, 0
2, 201728, Note_on_c, 5, 67, 71
2, 201740, Note_off_c, 5, 69, 0
2, 202112, Note_on_c, 5, 66, 71
2, 202131, Note_off_c, 5, 67, 0
2, 202237, Note_off_c, 5, 66, 0
2, 202240, Note_on_c, 5, 70, 71
2, 202496, Note_on_c, 5, 69, 71
2, 202508, Note_off_c, 5, 70, 0
2, 202746, Note_off_c, 5, 69, 0
2, 202752, Note_on_c, 5, 67, 71
2, 202828, Note_off_c, 5, 67, 0
2, 202880, Note_on_c, 5, 67, 71
2, 202944, Note_on_c, 5, 69, 71
2, 202947, Note_off_c, 5, 67, 0
2, 203008, Note_on_c, 5, 70, 71
2, 203011, Note_off_c, 5, 69, 0
2, 203136, Note_on_c, 5, 67, 71
2, 203142, Note_off_c, 5, 70, 0
2, 203261, Note_off_c, 5, 67, 0
2, 203264, Note_on_c, 5, 69, 71
2, 203520, Note_on_c, 5, 72, 71
2, 203532, Note_off_c, 5, 69, 0
2, 203776, Note_on_c, 5, 70, 71
2, 203788, Note_off_c, 5, 72, 0
2, 204160, Note_on_c, 5, 69, 71
2, 204179, Note_off_c, 5, 70, 0
2, 204285, Note_off_c, 5, 69, 0
2, 204288, Note_on_c, 5, 74, 71
2, 204544, Note_on_c, 5, 72, 71
2, 204556, Note_off_c, 5, 74, 0
2, 204794, Note_off_c, 5, 72, 0
2, 204800, Note_on_c, 5, 71, 71
2, 204876, Note_off_c, 5, 71, 0
2, 204928, Note_on_c, 5, 71, 71
2, 204992, Note_on_c, 5, 72, 71
2, 204995, Note_off_c, 5, 71, 0
2, 205056, Note_on_c, 5, 74, 71
2, 205059, Note_off_c, 5, 72, 0
2, 205184, Note_on_c, 5, 71, 71
2, 205190, Note_off_c, 5, 74, 0
2, 205309, Note_off_c, 5, 71, 0
2, 205312, Note_on_c, 5, 72, 113
2, 205312, Note_on_c, 5, 84, 113
2, 205363, Note_off_c, 5, 72, 0
2, 205363, Note_off_c, 5, 84, 0
2, 205376, Note_on_c, 5, 72, 113
2, 205376, Note_on_c, 5, 84, 113
2, 205427, Note_off_c, 5, 72, 0
2, 205427, Note_off_c, 5, 84, 0
2, 205440, Note_on_c, 5, 72, 113
2, 205440, Note_on_c, 5, 84, 113
2, 205491, Note_off_c, 5, 72, 0
2, 205491, Note_off_c, 5, 84, 0
2, 205504, Note_on_c, 5, 72, 113
2, 205504, Note_on_c, 5, 84, 113
2, 205555, Note_off_c, 5, 72, 0
2, 205555, Note_off_c, 5, 84, 0
2, 205568, Note_on_c, 5, 72, 113
2, 205568, Note_on_c, 5, 84, 113
2, 205619, Note_off_c, 5, 72, 0
2, 205619, Note_off_c, 5, 84, 0
2, 205632, Note_on_c, 5, 72, 113
2, 205632, Note_on_c, 5, 84, 113
2, 205683, Note_off_c, 5, 72, 0
2, 205683, Note_off_c, 5, 84, 0
2, 205696, Note_on_c, 5, 72, 113
2, 205696, Note_on_c, 5, 84, 113
2, 205747, Note_off_c, 5, 72, 0
2, 205747, Note_off_c, 5, 84, 0
2, 205760, Note_on_c, 5, 72, 113
2, 205760, Note_on_c, 5, 84, 113
2, 205811, Note_off_c, 5, 72, 0
2, 205811, Note_off_c, 5, 84, 0
2, 205824, Note_on_c, 5, 72, 113
2, 205824, Note_on_c, 5, 84, 113
2, 205875, Note_off_c, 5, 72, 0
2, 205875, Note_off_c, 5, 84, 0
2, 205888, Note_on_c, 5, 72, 113
2, 205888, Note_on_c, 5, 84, 113
2, 205939, Note_off_c, 5, 72, 0
2, 205939, Note_off_c, 5, 84, 0
2, 205952, Note_on_c, 5, 72, 113
2, 205952, Note_on_c, 5, 84, 113
2, 206003, Note_off_c, 5, 72, 0
2, 206003, Note_off_c, 5, 84, 0
2, 206016, Note_on_c, 5, 72, 113
2, 206016, Note_on_c, 5, 84, 113
2, 206067, Note_off_c, 5, 72, 0
2, 206067, Note_off_c, 5, 84, 0
2, 206080, Note_on_c, 5, 72, 113
2, 206080, Note_on_c, 5, 84, 113
2, 206131, Note_off_c, 5, 72, 0
2, 206131, Note_off_c, 5, 84, 0
2, 206144, Note_on_c, 5, 72, 113
2, 206144, Note_on_c, 5, 84, 113
2, 206195, Note_off_c, 5, 72, 0
2, 206195, Note_off_c, 5, 84, 0
2, 206208, Note_on_c, 5, 72, 113
2, 206208, Note_on_c, 5, 84, 113
2, 206259, Note_off_c, 5, 72, 0
2, 206259, Note_off_c, 5, 84, 0
2, 206272, Note_on_c, 5, 72, 113
2, 206272, Note_on_c, 5, 84, 113
2, 206323, Note_off_c, 5, 72, 0
2, 206323, Note_off_c, 5, 84, 0
2, 206336, Note_on_c, 5, 72, 110
2, 206336, Note_on_c, 5, 84, 110
2, 206387, Note_off_c, 5, 72, 0
2, 206387, Note_off_c, 5, 84, 0
2, 206400, Note_on_c, 5, 72, 110
2, 206400, Note_on_c, 5, 84, 110
2, 206451, Note_off_c, 5, 72, 0
2, 206451, Note_off_c, 5, 84, 0
2, 206464, Note_on_c, 5, 72, 110
2, 206464, Note_on_c, 5, 84, 110
2, 206515, Note_off_c, 5, 72, 0
2, 206515, Note_off_c, 5, 84, 0
2, 206528, Note_on_c, 5, 72, 111
2, 206528, Note_on_c, 5, 84, 111
2, 206579, Note_off_c, 5, 72, 0
2, 206579, Note_off_c, 5, 84, 0
2, 206592, Note_on_c, 5, 72, 111
2, 206592, Note_on_c, 5, 84, 111
2, 206643, Note_off_c, 5, 72, 0
2, 206643, Note_off_c, 5, 84, 0
2, 206656, Note_on_c, 5, 72, 113
2, 206656, Note_on_c, 5, 84, 113
2, 206707, Note_off_c, 5, 72, 0
2, 206707, Note_off_c, 5, 84, 0
2, 206720, Note_on_c, 5, 72, 113
2, 206720, Note_on_c, 5, 84, 113
2, 206771, Note_off_c, 5, 72, 0
2, 206771, Note_off_c, 5, 84, 0
2, 206784, Note_on_c, 5, 72, 113
2, 206784, Note_on_c, 5, 84, 113
2, 206835, Note_off_c, 5, 72, 0
2, 206835, Note_off_c, 5, 84, 0
2, 206848, Note_on_c, 5, 72, 113
2, 206848, Note_on_c, 5, 84, 113
2, 206899, Note_off_c, 5, 72, 0
2, 206899, Note_off_c, 5, 84, 0
2, 206912, Note_on_c, 5, 72, 113
2, 206912, Note_on_c, 5, 84, 113
2, 206963, Note_off_c, 5, 72, 0
2, 206963, Note_off_c, 5, 84, 0
2, 206976, Note_on_c, 5, 72, 113
2, 206976, Note_on_c, 5, 84, 113
2, 207027, Note_off_c, 5, 72, 0
2, 207027, Note_off_c, 5, 84, 0
2, 207040, Note_on_c, 5, 72, 113
2, 207040, Note_on_c, 5, 84, 113
2, 207091, Note_off_c, 5, 72, 0
2, 207091, Note_off_c, 5, 84, 0
2, 207104, Note_on_c, 5, 72, 113
2, 207104, Note_on_c, 5, 84, 113
2, 207155, Note_off_c, 5, 72, 0
2, 207155, Note_off_c, 5, 84, 0
2, 207168, Note_on_c, 5, 72, 113
2, 207168, Note_on_c, 5, 84, 113
2, 207219, Note_off_c, 5, 72, 0
2, 207219, Note_off_c, 5, 84, 0
2, 207232, Note_on_c, 5, 72, 113
2, 207232, Note_on_c, 5, 84, 113
2, 207283, Note_off_c, 5, 72, 0
2, 207283, Note_off_c, 5, 84, 0
2, 207296, Note_on_c, 5, 72, 113
2, 207296, Note_on_c, 5, 84, 113
2, 207347, Note_off_c, 5, 72, 0
2, 207347, Note_off_c, 5, 84, 0
2, 207360, Note_on_c, 5, 72, 110
2, 207360, Note_on_c, 5, 84, 110
2, 207411, Note_off_c, 5, 72, 0
2, 207411, Note_off_c, 5, 84, 0
2, 207424, Note_on_c, 5, 72, 110
2, 207424, Note_on_c, 5, 84, 110
2, 207475, Note_off_c, 5, 72, 0
2, 207475, Note_off_c, 5, 84, 0
2, 207488, Note_on_c, 5, 72, 110
2, 207488, Note_on_c, 5, 84, 110
2, 207539, Note_off_c, 5, 72, 0
2, 207539, Note_off_c, 5, 84, 0
2, 207552, Note_on_c, 5, 72, 111
2, 207552, Note_on_c, 5, 84, 111
2, 207603, Note_off_c, 5, 72, 0
2, 207603, Note_off_c, 5, 84, 0
2, 207616, Note_on_c, 5, 72, 111
2, 207616, Note_on_c, 5, 84, 111
2, 207667, Note_off_c, 5, 72, 0
2, 207667, Note_off_c, 5, 84, 0
2, 207680, Note_on_c, 5, 72, 113
2, 207680, Note_on_c, 5, 84, 113
2, 207731, Note_off_c, 5, 72, 0
2, 207731, Note_off_c, 5, 84, 0
2, 207744, Note_on_c, 5, 72, 113
2, 207744, Note_on_c, 5, 84, 113
2, 207795, Note_off_c, 5, 72, 0
2, 207795, Note_off_c, 5, 84, 0
2, 207808, Note_on_c, 5, 72, 113
2, 207808, Note_on_c, 5, 84, 113
2, 207859, Note_off_c, 5, 72, 0
2, 207859, Note_off_c, 5, 84, 0
2, 207872, Note_on_c, 5, 72, 113
2, 207872, Note_on_c, 5, 84, 113
2, 207923, Note_off_c, 5, 72, 0
2, 207923, Note_off_c, 5, 84, 0
2, 207936, Note_on_c, 5, 72, 113
2, 207936, Note_on_c, 5, 84, 113
2, 207987, Note_off_c, 5, 72, 0
2, 207987, Note_off_c, 5, 84, 0
2, 208000, Note_on_c, 5, 72, 113
2, 208000, Note_on_c, 5, 84, 113
2, 208051, Note_off_c, 5, 72, 0
2, 208051, Note_off_c, 5, 84, 0
2, 208064, Note_on_c, 5, 72, 113
2, 208064, Note_on_c, 5, 84, 113
2, 208115, Note_off_c, 5, 72, 0
2, 208115, Note_off_c, 5, 84, 0
2, 208128, Note_on_c, 5, 72, 113
2, 208128, Note_on_c, 5, 84, 113
2, 208179, Note_off_c, 5, 72, 0
2, 208179, Note_off_c, 5, 84, 0
2, 208192, Note_on_c, 5, 72, 113
2, 208192, Note_on_c, 5, 84, 113
2, 208243, Note_off_c, 5, 72, 0
2, 208243, Note_off_c, 5, 84, 0
2, 208256, Note_on_c, 5, 72, 113
2, 208256, Note_on_c, 5, 84, 113
2, 208307, Note_off_c, 5, 72, 0
2, 208307, Note_off_c, 5, 84, 0
2, 208320, Note_on_c, 5, 72, 113
2, 208320, Note_on_c, 5, 84, 113
2, 208371, Note_off_c, 5, 72, 0
2, 208371, Note_off_c, 5, 84, 0
2, 208384, Note_on_c, 5, 72, 110
2, 208384, Note_on_c, 5, 84, 110
2, 208435, Note_off_c, 5, 72, 0
2, 208435, Note_off_c, 5, 84, 0
2, 208448, Note_on_c, 5, 72, 110
2, 208448, Note_on_c, 5, 84, 110
2, 208499, Note_off_c, 5, 72, 0
2, 208499, Note_off_c, 5, 84, 0
2, 208512, Note_on_c, 5, 72, 110
2, 208512, Note_on_c, 5, 84, 110
2, 208563, Note_off_c, 5, 72, 0
2, 208563, Note_off_c, 5, 84, 0
2, 208576, Note_on_c, 5, 72, 111
2, 208576, Note_on_c, 5, 84, 111
2, 208627, Note_off_c, 5, 72, 0
2, 208627, Note_off_c, 5, 84, 0
2, 208640, Note_on_c, 5, 72, 111
2, 208640, Note_on_c, 5, 84, 111
2, 208691, Note_off_c, 5, 72, 0
2, 208691, Note_off_c, 5, 84, 0
2, 208704, Note_on_c, 5, 72, 113
2, 208704, Note_on_c, 5, 84, 113
2, 208755, Note_off_c, 5, 72, 0
2, 208755, Note_off_c, 5, 84, 0
2, 208768, Note_on_c, 5, 72, 113
2, 208768, Note_on_c, 5, 84, 113
2, 208819, Note_off_c, 5, 72, 0
2, 208819, Note_off_c, 5, 84, 0
2, 208832, Note_on_c, 5, 72, 113
2, 208832, Note_on_c, 5, 84, 113
2, 208883, Note_off_c, 5, 72, 0
2, 208883, Note_off_c, 5, 84, 0
2, 208896, Note_on_c, 5, 72, 113
2, 208896, Note_on_c, 5, 84, 113
2, 208947, Note_off_c, 5, 72, 0
2, 208947, Note_off_c, 5, 84, 0
2, 208960, Note_on_c, 5, 72, 113
2, 208960, Note_on_c, 5, 84, 113
2, 209011, Note_off_c, 5, 72, 0
2, 209011, Note_off_c, 5, 84, 0
2, 209024, Note_on_c, 5, 72, 113
2, 209024, Note_on_c, 5, 84, 113
2, 209075, Note_off_c, 5, 72, 0
2, 209075, Note_off_c, 5, 84, 0
2, 209088, Note_on_c, 5, 72, 113
2, 209088, Note_on_c, 5, 84, 113
2, 209139, Note_off_c, 5, 72, 0
2, 209139, Note_off_c, 5, 84, 0
2, 209152, Note_on_c, 5, 72, 113
2, 209152, Note_on_c, 5, 84, 113
2, 209203, Note_off_c, 5, 72, 0
2, 209203, Note_off_c, 5, 84, 0
2, 209216, Note_on_c, 5, 72, 113
2, 209216, Note_on_c, 5, 84, 113
2, 209267, Note_off_c, 5, 72, 0
2, 209267, Note_off_c, 5, 84, 0
2, 209280, Note_on_c, 5, 72, 113
2, 209280, Note_on_c, 5, 84, 113
2, 209331, Note_off_c, 5, 72, 0
2, 209331, Note_off_c, 5, 84, 0
2, 209344, Note_on_c, 5, 72, 113
2, 209344, Note_on_c, 5, 84, 113
2, 209395, Note_off_c, 5, 72, 0
2, 209395, Note_off_c, 5, 84, 0
2, 209408, Note_on_c, 5, 72, 110
2, 209408, Note_on_c, 5, 84, 110
2, 209459, Note_off_c, 5, 72, 0
2, 209459, Note_off_c, 5, 84, 0
2, 209472, Note_on_c, 5, 72, 110
2, 209472, Note_on_c, 5, 84, 110
2, 209523, Note_off_c, 5, 72, 0
2, 209523, Note_off_c, 5, 84, 0
2, 209536, Note_on_c, 5, 72, 110
2, 209536, Note_on_c, 5, 84, 110
2, 209587, Note_off_c, 5, 72, 0
2, 209587, Note_off_c, 5, 84, 0
2, 209600, Note_on_c, 5, 72, 111
2, 209600, Note_on_c, 5, 84, 111
2, 209651, Note_off_c, 5, 72, 0
2, 209651, Note_off_c, 5, 84, 0
2, 209664, Note_on_c, 5, 72, 111
2, 209664, Note_on_c, 5, 84, 111
2, 209715, Note_off_c, 5, 72, 0
2, 209715, Note_off_c, 5, 84, 0
2, 209728, Note_on_c, 5, 72, 113
2, 209728, Note_on_c, 5, 84, 113
2, 209779, Note_off_c, 5, 72, 0
2, 209779, Note_off_c, 5, 84, 0
2, 209792, Note_on_c, 5, 72, 113
2, 209792, Note_on_c, 5, 84, 113
2, 209843, Note_off_c, 5, 72, 0
2, 209843, Note_off_c, 5, 84, 0
2, 209856, Note_on_c, 5, 72, 113
2, 209856, Note_on_c, 5, 84, 113
2, 209907, Note_off_c, 5, 72, 0
2, 209907, Note_off_c, 5, 84, 0
2, 209920, Note_on_c, 5, 72, 113
2, 209920, Note_on_c, 5, 84, 113
2, 209971, Note_off_c, 5, 72, 0
2, 209971, Note_off_c, 5, 84, 0
2, 209984, Note_on_c, 5, 72, 113
2, 209984, Note_on_c, 5, 84, 113
2, 210035, Note_off_c, 5, 72, 0
2, 210035, Note_off_c, 5, 84, 0
2, 210048, Note_on_c, 5, 72, 113
2, 210048, Note_on_c, 5, 84, 113
2, 210099, Note_off_c, 5, 72, 0
2, 210099, Note_off_c, 5, 84, 0
2, 210112, Note_on_c, 5, 72, 113
2, 210112, Note_on_c, 5, 84, 113
2, 210163, Note_off_c, 5, 72, 0
2, 210163, Note_off_c, 5, 84, 0
2, 210176, Note_on_c, 5, 72, 113
2, 210176, Note_on_c, 5, 84, 113
2, 210227, Note_off_c, 5, 72, 0
2, 210227, Note_off_c, 5, 84, 0
2, 210240, Note_on_c, 5, 72, 113
2, 210240, Note_on_c, 5, 84, 113
2, 210291, Note_off_c, 5, 72, 0
2, 210291, Note_off_c, 5, 84, 0
2, 210304, Note_on_c, 5, 72, 113
2, 210304, Note_on_c, 5, 84, 113
2, 210355, Note_off_c, 5, 72, 0
2, 210355, Note_off_c, 5, 84, 0
2, 210368, Note_on_c, 5, 72, 113
2, 210368, Note_on_c, 5, 84, 113
2, 210419, Note_off_c, 5, 72, 0
2, 210419, Note_off_c, 5, 84, 0
2, 210432, Note_on_c, 5, 72, 110
2, 210432, Note_on_c, 5, 84, 110
2, 210483, Note_off_c, 5, 72, 0
2, 210483, Note_off_c, 5, 84, 0
2, 210496, Note_on_c, 5, 72, 110
2, 210496, Note_on_c, 5, 84, 110
2, 210547, Note_off_c, 5, 72, 0
2, 210547, Note_off_c, 5, 84, 0
2, 210560, Note_on_c, 5, 72, 110
2, 210560, Note_on_c, 5, 84, 110
2, 210611, Note_off_c, 5, 72, 0
2, 210611, Note_off_c, 5, 84, 0
2, 210624, Note_on_c, 5, 72, 111
2, 210624, Note_on_c, 5, 84, 111
2, 210675, Note_off_c, 5, 72, 0
2, 210675, Note_off_c, 5, 84, 0
2, 210688, Note_on_c, 5, 72, 111
2, 210688, Note_on_c, 5, 84, 111
2, 210739, Note_off_c, 5, 72, 0
2, 210739, Note_off_c, 5, 84, 0
2, 210752, Note_on_c, 5, 72, 113
2, 210752, Note_on_c, 5, 84, 113
2, 210803, Note_off_c, 5, 72, 0
2, 210803, Note_off_c, 5, 84, 0
2, 210816, Note_on_c, 5, 72, 113
2, 210816, Note_on_c, 5, 84, 113
2, 210867, Note_off_c, 5, 72, 0
2, 210867, Note_off_c, 5, 84, 0
2, 210880, Note_on_c, 5, 72, 113
2, 210880, Note_on_c, 5, 84, 113
2, 210931, Note_off_c, 5, 72, 0
2, 210931, Note_off_c, 5, 84, 0
2, 210944, Note_on_c, 5, 72, 113
2, 210944, Note_on_c, 5, 84, 113
2, 210995, Note_off_c, 5, 72, 0
2, 210995, Note_off_c, 5, 84, 0
2, 211008, Note_on_c, 5, 72, 113
2, 211008, Note_on_c, 5, 84, 113
2, 211059, Note_off_c, 5, 72, 0
2, 211059, Note_off_c, 5, 84, 0
2, 211072, Note_on_c, 5, 72, 113
2, 211072, Note_on_c, 5, 84, 113
2, 211123, Note_off_c, 5, 72, 0
2, 211123, Note_off_c, 5, 84, 0
2, 211136, Note_on_c, 5, 72, 113
2, 211136, Note_on_c, 5, 84, 113
2, 211187, Note_off_c, 5, 72, 0
2, 211187, Note_off_c, 5, 84, 0
2, 211200, Note_on_c, 5, 72, 113
2, 211200, Note_on_c, 5, 84, 113
2, 211251, Note_off_c, 5, 72, 0
2, 211251, Note_off_c, 5, 84, 0
2, 211264, Note_on_c, 5, 72, 113
2, 211264, Note_on_c, 5, 84, 113
2, 211315, Note_off_c, 5, 72, 0
2, 211315, Note_off_c, 5, 84, 0
2, 211328, Note_on_c, 5, 72, 113
2, 211328, Note_on_c, 5, 84, 113
2, 211379, Note_off_c, 5, 72, 0
2, 211379, Note_off_c, 5, 84, 0
2, 211392, Note_on_c, 5, 72, 113
2, 211392, Note_on_c, 5, 84, 113
2, 211443, Note_off_c, 5, 72, 0
2, 211443, Note_off_c, 5, 84, 0
2, 211456, Note_on_c, 5, 86, 90
2, 213504, Note_off_c, 5, 86, 0
2, 213504, Note_on_c, 5, 84, 61
2, 214656, Note_off_c, 5, 84, 0
2, 214656, Note_on_c, 5, 82, 61
2, 214720, Note_on_c, 5, 81, 61
2, 214723, Note_off_c, 5, 82, 0
2, 214784, Note_on_c, 5, 79, 61
2, 214787, Note_off_c, 5, 81, 0
2, 214848, Note_on_c, 5, 77, 61
2, 214851, Note_off_c, 5, 79, 0
2, 214912, Note_on_c, 5, 76, 61
2, 214915, Note_off_c, 5, 77, 0
2, 214976, Note_on_c, 5, 77, 61
2, 214979, Note_off_c, 5, 76, 0
2, 215038, Note_off_c, 5, 77, 0
2, 215040, Note_on_c, 5, 79, 61
2, 215070, Note_off_c, 5, 79, 0
2, 215078, Note_on_c, 5, 81, 61
2, 215108, Note_off_c, 5, 81, 0
2, 215116, Note_on_c, 5, 79, 61
2, 215146, Note_off_c, 5, 79, 0
2, 215154, Note_on_c, 5, 81, 61
2, 215184, Note_off_c, 5, 81, 0
2, 215192, Note_on_c, 5, 79, 61
2, 215222, Note_off_c, 5, 79, 0
2, 215230, Note_on_c, 5, 81, 61
2, 215260, Note_off_c, 5, 81, 0
2, 215268, Note_on_c, 5, 79, 61
2, 215298, Note_off_c, 5, 79, 0
2, 215306, Note_on_c, 5, 81, 61
2, 215336, Note_off_c, 5, 81, 0
2, 215344, Note_on_c, 5, 79, 61
2, 215374, Note_off_c, 5, 79, 0
2, 215382, Note_on_c, 5, 81, 61
2, 215412, Note_off_c, 5, 81, 0
2, 215420, Note_on_c, 5, 79, 61
2, 215450, Note_off_c, 5, 79, 0
2, 215458, Note_on_c, 5, 81, 61
2, 215488, Note_off_c, 5, 81, 0
2, 215496, Note_on_c, 5, 79, 61
2, 215526, Note_off_c, 5, 79, 0
2, 215534, Note_on_c, 5, 81, 61
2, 215564, Note_off_c, 5, 81, 0
2, 215572, Note_on_c, 5, 79, 61
2, 215602, Note_off_c, 5, 79, 0
2, 215610, Note_on_c, 5, 81, 61
2, 215640, Note_off_c, 5, 81, 0
2, 215648, Note_on_c, 5, 79, 61
2, 215678, Note_off_c, 5, 79, 0
2, 215686, Note_on_c, 5, 81, 61
2, 215716, Note_off_c, 5, 81, 0
2, 215724, Note_on_c, 5, 79, 61
2, 215754, Note_off_c, 5, 79, 0
2, 215762, Note_on_c, 5, 81, 61
2, 215792, Note_off_c, 5, 81, 0
2, 215800, Note_on_c, 5, 79, 61
2, 215830, Note_off_c, 5, 79, 0
2, 215838, Note_on_c, 5, 81, 61
2, 215868, Note_off_c, 5, 81, 0
2, 215876, Note_on_c, 5, 79, 61
2, 215906, Note_off_c, 5, 79, 0
2, 215914, Note_on_c, 5, 81, 61
2, 215944, Note_off_c, 5, 81, 0
2, 215952, Note_on_c, 5, 79, 61
2, 215982, Note_off_c, 5, 79, 0
2, 215990, Note_on_c, 5, 81, 61
2, 216020, Note_off_c, 5, 81, 0
2, 216028, Note_on_c, 5, 79, 61
2, 216058, Note_off_c, 5, 79, 0
2, 216066, Note_on_c, 5, 81, 61
2, 216096, Note_off_c, 5, 81, 0
2, 216104, Note_on_c, 5, 79, 61
2, 216134, Note_off_c, 5, 79, 0
2, 216142, Note_on_c, 5, 81, 61
2, 216172, Note_off_c, 5, 81, 0
2, 216180, Note_on_c, 5, 79, 61
2, 216210, Note_off_c, 5, 79, 0
2, 216218, Note_on_c, 5, 81, 61
2, 216248, Note_off_c, 5, 81, 0
2, 216256, Note_on_c, 5, 79, 61
2, 216286, Note_off_c, 5, 79, 0
2, 216294, Note_on_c, 5, 81, 61
2, 216319, Note_off_c, 5, 81, 0
2, 216320, Note_on_c, 5, 79, 61
2, 216512, Note_off_c, 5, 79, 0
2, 216512, Note_on_c, 5, 77, 61
2, 216576, Note_off_c, 5, 77, 0
2, 216576, Note_on_c, 5, 79, 46
2, 216652, Note_off_c, 5, 79, 0
2, 216704, Note_on_c, 5, 79, 46
2, 216780, Note_off_c, 5, 79, 0
2, 216832, Note_on_c, 5, 84, 46
2, 216908, Note_off_c, 5, 84, 0
2, 216960, Note_on_c, 5, 79, 46
2, 217036, Note_off_c, 5, 79, 0
2, 217088, Note_on_c, 5, 76, 46
2, 217164, Note_off_c, 5, 76, 0
2, 217216, Note_on_c, 5, 79, 46
2, 217292, Note_off_c, 5, 79, 0
2, 217344, Note_on_c, 5, 76, 46
2, 217420, Note_off_c, 5, 76, 0
2, 217472, Note_on_c, 5, 72, 46
2, 217548, Note_off_c, 5, 72, 0
2, 217600, Note_on_c, 5, 67, 46
2, 217676, Note_off_c, 5, 67, 0
2, 217728, Note_on_c, 5, 72, 46
2, 217804, Note_off_c, 5, 72, 0
2, 217856, Note_on_c, 5, 67, 46
2, 217932, Note_off_c, 5, 67, 0
2, 217984, Note_on_c, 5, 64, 46
2, 218060, Note_off_c, 5, 64, 0
2, 218112, Note_on_c, 5, 60, 46
2, 218188, Note_off_c, 5, 60, 0
2, 218240, Note_on_c, 5, 72, 46
2, 218316, Note_off_c, 5, 72, 0
2, 218368, Note_on_c, 5, 70, 46
2, 218444, Note_off_c, 5, 70, 0
2, 218496, Note_on_c, 5, 67, 46
2, 218572, Note_off_c, 5, 67, 0
2, 218624, Note_on_c, 5, 69, 46
2, 218675, Note_off_c, 5, 69, 0
2, 218709, Note_on_c, 5, 77, 46
2, 218794, Note_on_c, 5, 76, 46
2, 218798, Note_off_c, 5, 77, 0
2, 218880, Note_on_c, 5, 77, 46
2, 218884, Note_off_c, 5, 76, 0
2, 218965, Note_on_c, 5, 74, 46
2, 218969, Note_off_c, 5, 77, 0
2, 219050, Note_on_c, 5, 70, 46
2, 219054, Note_off_c, 5, 74, 0
2, 219134, Note_off_c, 5, 70, 0
2, 219136, Note_on_c, 5, 67, 46
2, 219187, Note_off_c, 5, 67, 0
2, 219221, Note_on_c, 5, 79, 46
2, 219306, Note_on_c, 5, 78, 46
2, 219310, Note_off_c, 5, 79, 0
2, 219392, Note_on_c, 5, 79, 46
2, 219396, Note_off_c, 5, 78, 0
2, 219477, Note_on_c, 5, 76, 46
2, 219481, Note_off_c, 5, 79, 0
2, 219562, Note_on_c, 5, 70, 46
2, 219566, Note_off_c, 5, 76, 0
2, 219646, Note_off_c, 5, 70, 0
2, 219648, Note_on_c, 5, 69, 46
2, 219699, Note_off_c, 5, 69, 0
2, 219733, Note_on_c, 5, 77, 46
2, 219818, Note_on_c, 5, 76, 46
2, 219822, Note_off_c, 5, 77, 0
2, 219904, Note_on_c, 5, 77, 46
2, 219908, Note_off_c, 5, 76, 0
2, 219989, Note_on_c, 5, 74, 46
2, 219993, Note_off_c, 5, 77, 0
2, 220074, Note_on_c, 5, 70, 46
2, 220078, Note_off_c, 5, 74, 0
2, 220158, Note_off_c, 5, 70, 0
2, 220160, Note_on_c, 5, 67, 46
2, 220211, Note_off_c, 5, 67, 0
2, 220245, Note_on_c, 5, 79, 46
2, 220330, Note_on_c, 5, 78, 46
2, 220334, Note_off_c, 5, 79, 0
2, 220416, Note_on_c, 5, 79, 46
2, 220420, Note_off_c, 5, 78, 0
2, 220501, Note_on_c, 5, 76, 46
2, 220505, Note_off_c, 5, 79, 0
2, 220586, Note_on_c, 5, 70, 61
2, 220590, Note_off_c, 5, 76, 0
2, 220670, Note_off_c, 5, 70, 0
2, 220672, Note_on_c, 5, 69, 61
2, 220723, Note_off_c, 5, 69, 0
2, 220757, Note_on_c, 5, 77, 61
2, 220842, Note_on_c, 5, 76, 62
2, 220846, Note_off_c, 5, 77, 0
2, 220928, Note_on_c, 5, 77, 62
2, 220932, Note_off_c, 5, 76, 0
2, 221013, Note_on_c, 5, 69, 63
2, 221017, Note_off_c, 5, 77, 0
2, 221098, Note_on_c, 5, 72, 63
2, 221102, Note_off_c, 5, 69, 0
2, 221182, Note_off_c, 5, 72, 0
2, 221184, Note_on_c, 5, 70, 64
2, 221269, Note_on_c, 5, 67, 64
2, 221273, Note_off_c, 5, 70, 0
2, 221354, Note_on_c, 5, 72, 65
2, 221358, Note_off_c, 5, 67, 0
2, 221440, Note_on_c, 5, 70, 66
2, 221444, Note_off_c, 5, 72, 0
2, 221525, Note_on_c, 5, 72, 66
2, 221529, Note_off_c, 5, 70, 0
2, 221610, Note_on_c, 5, 69, 67
2, 221614, Note_off_c, 5, 72, 0
2, 221694, Note_off_c, 5, 69, 0
2, 221696, Note_on_c, 5, 74, 67
2, 221781, Note_off_c, 5, 74, 0
2, 221781, Note_on_c, 5, 70, 68
2, 221866, Note_on_c, 5, 77, 68
2, 221870, Note_off_c, 5, 70, 0
2, 221952, Note_on_c, 5, 72, 69
2, 221956, Note_off_c, 5, 77, 0
2, 222037, Note_on_c, 5, 69, 69
2, 222041, Note_off_c, 5, 72, 0
2, 222122, Note_on_c, 5, 77, 70
2, 222126, Note_off_c, 5, 69, 0
2, 222206, Note_off_c, 5, 77, 0
2, 222208, Note_on_c, 5, 67, 71
2, 222259, Note_off_c, 5, 67, 0
2, 222293, Note_on_c, 5, 79, 70
2, 222378, Note_on_c, 5, 77, 68
2, 222382, Note_off_c, 5, 79, 0
2, 222464, Note_on_c, 5, 76, 66
2, 222468, Note_off_c, 5, 77, 0
2, 222549, Note_on_c, 5, 79, 65
2, 222553, Note_off_c, 5, 76, 0
2, 222634, Note_on_c, 5, 70, 63
2, 222638, Note_off_c, 5, 79, 0
2, 222718, Note_off_c, 5, 70, 0
2, 222720, Note_on_c, 5, 69, 61
2, 222771, Note_off_c, 5, 69, 0
2, 222805, Note_on_c, 5, 77, 61
2, 222890, Note_on_c, 5, 76, 61
2, 222894, Note_off_c, 5, 77, 0
2, 222976, Note_on_c, 5, 77, 61
2, 222980, Note_off_c, 5, 76, 0
2, 223061, Note_on_c, 5, 69, 61
2, 223065, Note_off_c, 5, 77, 0
2, 223146, Note_on_c, 5, 72, 61
2, 223150, Note_off_c, 5, 69, 0
2, 223230, Note_off_c, 5, 72, 0
2, 223232, Note_on_c, 5, 70, 61
2, 223317, Note_on_c, 5, 67, 61
2, 223321, Note_off_c, 5, 70, 0
2, 223402, Note_on_c, 5, 72, 61
2, 223406, Note_off_c, 5, 67, 0
2, 223488, Note_on_c, 5, 70, 61
2, 223492, Note_off_c, 5, 72, 0
2, 223573, Note_on_c, 5, 72, 61
2, 223577, Note_off_c, 5, 70, 0
2, 223658, Note_on_c, 5, 69, 61
2, 223662, Note_off_c, 5, 72, 0
2, 223742, Note_off_c, 5, 69, 0
2, 223744, Note_on_c, 5, 74, 61
2, 223829, Note_on_c, 5, 70, 61
2, 223833, Note_off_c, 5, 74, 0
2, 223914, Note_on_c, 5, 65, 61
2, 223918, Note_off_c, 5, 70, 0
2, 224000, Note_on_c, 5, 72, 61
2, 224004, Note_off_c, 5, 65, 0
2, 224085, Note_on_c, 5, 69, 61
2, 224089, Note_off_c, 5, 72, 0
2, 224170, Note_on_c, 5, 65, 61
2, 224174, Note_off_c, 5, 69, 0
2, 224254, Note_off_c, 5, 65, 0
2, 224256, Note_on_c, 5, 64, 61
2, 224307, Note_off_c, 5, 64, 0
2, 224341, Note_on_c, 5, 72, 61
2, 224426, Note_on_c, 5, 70, 61
2, 224430, Note_off_c, 5, 72, 0
2, 224510, Note_off_c, 5, 70, 0
2, 224512, Note_on_c, 5, 69, 61
2, 224563, Note_off_c, 5, 69, 0
2, 224597, Note_on_c, 5, 67, 61
2, 224648, Note_off_c, 5, 67, 0
2, 224682, Note_on_c, 5, 65, 61
2, 224733, Note_off_c, 5, 65, 0
2, 224768, Note_on_c, 5, 64, 61
2, 224819, Note_off_c, 5, 64, 0
2, 224853, Note_on_c, 5, 72, 61
2, 224938, Note_on_c, 5, 70, 61
2, 224942, Note_off_c, 5, 72, 0
2, 225022, Note_off_c, 5, 70, 0
2, 225024, Note_on_c, 5, 69, 61
2, 225075, Note_off_c, 5, 69, 0
2, 225109, Note_on_c, 5, 67, 61
2, 225160, Note_off_c, 5, 67, 0
2, 225194, Note_on_c, 5, 65, 61
2, 225245, Note_off_c, 5, 65, 0
2, 225280, Note_on_c, 5, 64, 61
2, 225331, Note_off_c, 5, 64, 0
2, 225365, Note_on_c, 5, 72, 61
2, 225450, Note_on_c, 5, 70, 61
2, 225454, Note_off_c, 5, 72, 0
2, 225534, Note_off_c, 5, 70, 0
2, 225536, Note_on_c, 5, 69, 61
2, 225587, Note_off_c, 5, 69, 0
2, 225621, Note_on_c, 5, 67, 61
2, 225672, Note_off_c, 5, 67, 0
2, 225706, Note_on_c, 5, 65, 61
2, 225757, Note_off_c, 5, 65, 0
2, 225792, Note_on_c, 5, 64, 61
2, 225843, Note_off_c, 5, 64, 0
2, 225877, Note_on_c, 5, 72, 61
2, 225962, Note_on_c, 5, 70, 61
2, 225966, Note_off_c, 5, 72, 0
2, 226046, Note_off_c, 5, 70, 0
2, 226048, Note_on_c, 5, 69, 61
2, 226099, Note_off_c, 5, 69, 0
2, 226133, Note_on_c, 5, 67, 61
2, 226184, Note_off_c, 5, 67, 0
2, 226218, Note_on_c, 5, 65, 61
2, 226269, Note_off_c, 5, 65, 0
2, 226304, Note_on_c, 5, 64, 46
2, 226380, Note_off_c, 5, 64, 0
2, 226432, Note_on_c, 5, 67, 46
2, 226496, Note_on_c, 5, 69, 46
2, 226499, Note_off_c, 5, 67, 0
2, 226558, Note_off_c, 5, 69, 0
2, 226560, Note_on_c, 5, 70, 46
2, 226636, Note_off_c, 5, 70, 0
2, 226688, Note_on_c, 5, 71, 46
2, 226764, Note_off_c, 5, 71, 0
2, 226816, Note_on_c, 5, 72, 61
2, 226892, Note_off_c, 5, 72, 0
2, 226944, Note_on_c, 5, 67, 61
2, 227008, Note_on_c, 5, 69, 62
2, 227011, Note_off_c, 5, 67, 0
2, 227070, Note_off_c, 5, 69, 0
2, 227072, Note_on_c, 5, 70, 62
2, 227148, Note_off_c, 5, 70, 0
2, 227200, Note_on_c, 5, 71, 63
2, 227276, Note_off_c, 5, 71, 0
2, 227328, Note_on_c, 5, 72, 63
2, 227404, Note_off_c, 5, 72, 0
2, 227456, Note_on_c, 5, 67, 64
2, 227520, Note_on_c, 5, 69, 64
2, 227523, Note_off_c, 5, 67, 0
2, 227582, Note_off_c, 5, 69, 0
2, 227584, Note_on_c, 5, 70, 65
2, 227660, Note_off_c, 5, 70, 0
2, 227712, Note_on_c, 5, 71, 65
2, 227788, Note_off_c, 5, 71, 0
2, 227840, Note_on_c, 5, 72, 66
2, 227916, Note_off_c, 5, 72, 0
2, 227968, Note_on_c, 5, 67, 67
2, 228032, Note_on_c, 5, 69, 67
2, 228035, Note_off_c, 5, 67, 0
2, 228094, Note_off_c, 5, 69, 0
2, 228096, Note_on_c, 5, 70, 67
2, 228172, Note_off_c, 5, 70, 0
2, 228224, Note_on_c, 5, 71, 68
2, 228300, Note_off_c, 5, 71, 0
2, 228352, Note_on_c, 5, 72, 69
2, 228428, Note_off_c, 5, 72, 0
2, 228480, Note_on_c, 5, 67, 69
2, 228544, Note_on_c, 5, 69, 70
2, 228547, Note_off_c, 5, 67, 0
2, 228606, Note_off_c, 5, 69, 0
2, 228608, Note_on_c, 5, 70, 70
2, 228684, Note_off_c, 5, 70, 0
2, 228736, Note_on_c, 5, 71, 71
2, 228812, Note_off_c, 5, 71, 0
2, 228864, Note_on_c, 5, 72, 71
2, 228940, Note_off_c, 5, 72, 0
2, 228992, Note_on_c, 5, 69, 61
2, 229056, Note_on_c, 5, 70, 61
2, 229059, Note_off_c, 5, 69, 0
2, 229118, Note_off_c, 5, 70, 0
2, 229120, Note_on_c, 5, 72, 61
2, 229196, Note_off_c, 5, 72, 0
2, 229248, Note_on_c, 5, 73, 61
2, 229324, Note_off_c, 5, 73, 0
2, 229376, Note_on_c, 5, 74, 61
2, 229452, Note_off_c, 5, 74, 0
2, 229504, Note_on_c, 5, 70, 68
2, 229568, Note_on_c, 5, 72, 71
2, 229571, Note_off_c, 5, 70, 0
2, 229630, Note_off_c, 5, 72, 0
2, 229632, Note_on_c, 5, 74, 75
2, 229708, Note_off_c, 5, 74, 0
2, 229760, Note_on_c, 5, 76, 82
2, 229836, Note_off_c, 5, 76, 0
2, 229888, Note_on_c, 5, 77, 89
2, 229964, Note_off_c, 5, 77, 0
2, 230016, Note_on_c, 5, 74, 96
2, 230080, Note_on_c, 5, 76, 100
2, 230083, Note_off_c, 5, 74, 0
2, 230142, Note_off_c, 5, 76, 0
2, 230144, Note_on_c, 5, 77, 103
2, 230220, Note_off_c, 5, 77, 0
2, 230272, Note_on_c, 5, 79, 110
2, 230348, Note_off_c, 5, 79, 0
2, 230400, Note_on_c, 5, 69, 113
2, 230400, Note_on_c, 5, 81, 113
2, 230528, Note_off_c, 5, 69, 0
2, 230528, Note_off_c, 5, 81, 0
2, 230528, Note_on_c, 5, 81, 113
2, 230604, Note_off_c, 5, 81, 0
2, 230656, Note_on_c, 5, 82, 113
2, 230732, Note_off_c, 5, 82, 0
2, 230784, Note_on_c, 5, 86, 113
2, 230860, Note_off_c, 5, 86, 0
2, 230912, Note_on_c, 5, 84, 113
2, 231040, Note_on_c, 5, 82, 113
2, 231046, Note_off_c, 5, 84, 0
2, 231104, Note_on_c, 5, 81, 113
2, 231107, Note_off_c, 5, 82, 0
2, 231166, Note_off_c, 5, 81, 0
2, 231168, Note_on_c, 5, 79, 113
2, 231244, Note_off_c, 5, 79, 0
2, 231296, Note_on_c, 5, 72, 113
2, 231372, Note_off_c, 5, 72, 0
2, 231424, Note_on_c, 5, 77, 113
2, 231500, Note_off_c, 5, 77, 0
2, 231552, Note_on_c, 5, 79, 113
2, 231628, Note_off_c, 5, 79, 0
2, 231680, Note_on_c, 5, 81, 113
2, 231808, Note_on_c, 5, 82, 113
2, 231814, Note_off_c, 5, 81, 0
2, 231872, Note_on_c, 5, 81, 113
2, 231875, Note_off_c, 5, 82, 0
2, 231934, Note_off_c, 5, 81, 0
2, 231936, Note_on_c, 5, 79, 113
2, 232012, Note_off_c, 5, 79, 0
2, 232064, Note_on_c, 5, 81, 113
2, 232140, Note_off_c, 5, 81, 0
2, 232192, Note_on_c, 5, 82, 113
2, 232320, Note_on_c, 5, 84, 113
2, 232326, Note_off_c, 5, 82, 0
2, 232384, Note_on_c, 5, 82, 113
2, 232387, Note_off_c, 5, 84, 0
2, 232446, Note_off_c, 5, 82, 0
2, 232448, Note_on_c, 5, 81, 113
2, 232576, Note_on_c, 5, 84, 113
2, 232582, Note_off_c, 5, 81, 0
2, 232701, Note_off_c, 5, 84, 0
2, 232704, Note_on_c, 5, 84, 113
2, 232780, Note_off_c, 5, 84, 0
2, 232832, Note_on_c, 5, 84, 113
2, 232908, Note_off_c, 5, 84, 0
2, 232960, Note_on_c, 5, 84, 113
2, 233216, Note_on_c, 5, 82, 113
2, 233228, Note_off_c, 5, 84, 0
2, 233280, Note_on_c, 5, 81, 113
2, 233283, Note_off_c, 5, 82, 0
2, 233344, Note_on_c, 5, 79, 113
2, 233347, Note_off_c, 5, 81, 0
2, 233408, Note_on_c, 5, 77, 113
2, 233411, Note_off_c, 5, 79, 0
2, 233470, Note_off_c, 5, 77, 0
2, 233472, Note_on_c, 5, 76, 113
2, 233548, Note_off_c, 5, 76, 0
2, 233600, Note_on_c, 5, 77, 113
2, 233676, Note_off_c, 5, 77, 0
2, 233728, Note_on_c, 5, 79, 113
2, 233856, Note_on_c, 5, 81, 113
2, 233862, Note_off_c, 5, 79, 0
2, 233920, Note_on_c, 5, 79, 113
2, 233923, Note_off_c, 5, 81, 0
2, 233982, Note_off_c, 5, 79, 0
2, 233984, Note_on_c, 5, 77, 113
2, 234060, Note_off_c, 5, 77, 0
2, 234112, Note_on_c, 5, 79, 113
2, 234188, Note_off_c, 5, 79, 0
2, 234240, Note_on_c, 5, 81, 113
2, 234368, Note_on_c, 5, 82, 113
2, 234374, Note_off_c, 5, 81, 0
2, 234432, Note_on_c, 5, 81, 113
2, 234435, Note_off_c, 5, 82, 0
2, 234494, Note_off_c, 5, 81, 0
2, 234496, Note_on_c, 5, 79, 113
2, 234624, Note_on_c, 5, 82, 113
2, 234630, Note_off_c, 5, 79, 0
2, 234749, Note_off_c, 5, 82, 0
2, 234752, Note_on_c, 5, 82, 113
2, 234828, Note_off_c, 5, 82, 0
2, 234880, Note_on_c, 5, 82, 113
2, 234956, Note_off_c, 5, 82, 0
2, 235008, Note_on_c, 5, 82, 113
2, 235264, Note_on_c, 5, 84, 113
2, 235276, Note_off_c, 5, 82, 0
2, 235328, Note_on_c, 5, 82, 113
2, 235331, Note_off_c, 5, 84, 0
2, 235392, Note_on_c, 5, 81, 113
2, 235395, Note_off_c, 5, 82, 0
2, 235456, Note_on_c, 5, 79, 113
2, 235459, Note_off_c, 5, 81, 0
2, 235518, Note_off_c, 5, 79, 0
2, 235520, Note_on_c, 5, 81, 113
2, 235596, Note_off_c, 5, 81, 0
2, 235648, Note_on_c, 5, 82, 113
2, 235724, Note_off_c, 5, 82, 0
2, 235776, Note_on_c, 5, 84, 113
2, 235904, Note_on_c, 5, 86, 113
2, 235910, Note_off_c, 5, 84, 0
2, 235968, Note_on_c, 5, 84, 113
2, 235971, Note_off_c, 5, 86, 0
2, 236032, Note_on_c, 5, 82, 113
2, 236035, Note_off_c, 5, 84, 0
2, 236160, Note_on_c, 5, 84, 113
2, 236166, Note_off_c, 5, 82, 0
2, 236224, Note_on_c, 5, 82, 113
2, 236227, Note_off_c, 5, 84, 0
2, 236288, Note_on_c, 5, 79, 113
2, 236291, Note_off_c, 5, 82, 0
2, 236416, Note_on_c, 5, 84, 113
2, 236422, Note_off_c, 5, 79, 0
2, 236480, Note_on_c, 5, 82, 113
2, 236483, Note_off_c, 5, 84, 0
2, 236542, Note_off_c, 5, 82, 0
2, 236544, Note_on_c, 5, 81, 113
2, 236620, Note_off_c, 5, 81, 0
2, 236672, Note_on_c, 5, 82, 113
2, 236748, Note_off_c, 5, 82, 0
2, 236800, Note_on_c, 5, 84, 113
2, 236928, Note_on_c, 5, 86, 113
2, 236934, Note_off_c, 5, 84, 0
2, 236992, Note_on_c, 5, 84, 113
2, 236995, Note_off_c, 5, 86, 0
2, 237056, Note_on_c, 5, 82, 113
2, 237059, Note_off_c, 5, 84, 0
2, 237184, Note_on_c, 5, 84, 113
2, 237190, Note_off_c, 5, 82, 0
2, 237248, Note_on_c, 5, 82, 113
2, 237251, Note_off_c, 5, 84, 0
2, 237312, Note_on_c, 5, 79, 113
2, 237315, Note_off_c, 5, 82, 0
2, 237440, Note_on_c, 5, 84, 113
2, 237446, Note_off_c, 5, 79, 0
2, 237504, Note_on_c, 5, 82, 113
2, 237507, Note_off_c, 5, 84, 0
2, 237566, Note_off_c, 5, 82, 0
2, 237568, Note_on_c, 5, 81, 113
2, 237696, Note_on_c, 5, 84, 113
2, 237702, Note_off_c, 5, 81, 0
2, 237760, Note_on_c, 5, 82, 113
2, 237763, Note_off_c, 5, 84, 0
2, 237824, Note_on_c, 5, 79, 113
2, 237827, Note_off_c, 5, 82, 0
2, 237952, Note_on_c, 5, 84, 113
2, 237958, Note_off_c, 5, 79, 0
2, 238016, Note_on_c, 5, 82, 113
2, 238019, Note_off_c, 5, 84, 0
2, 238078, Note_off_c, 5, 82, 0
2, 238080, Note_on_c, 5, 81, 113
2, 238208, Note_on_c, 5, 84, 113
2, 238214, Note_off_c, 5, 81, 0
2, 238272, Note_on_c, 5, 82, 113
2, 238275, Note_off_c, 5, 84, 0
2, 238336, Note_on_c, 5, 79, 113
2, 238339, Note_off_c, 5, 82, 0
2, 238464, Note_on_c, 5, 84, 113
2, 238470, Note_off_c, 5, 79, 0
2, 238528, Note_on_c, 5, 82, 113
2, 238531, Note_off_c, 5, 84, 0
2, 238590, Note_off_c, 5, 82, 0
2, 238592, Note_on_c, 5, 65, 113
2, 238592, Note_on_c, 5, 72, 113
2, 238592, Note_on_c, 5, 81, 113
2, 238720, Note_off_c, 5, 65, 0
2, 238720, Note_off_c, 5, 72, 0
2, 238720, Note_off_c, 5, 81, 0
2, 239232, Note_on_c, 5, 65, 61
2, 239360, Note_on_c, 5, 67, 61
2, 239366, Note_off_c, 5, 65, 0
2, 239485, Note_off_c, 5, 67, 0
2, 239488, Note_on_c, 5, 70, 61
2, 239564, Note_off_c, 5, 70, 0
2, 239616, Note_on_c, 5, 69, 61
2, 239692, Note_off_c, 5, 69, 0
2, 239744, Note_on_c, 5, 74, 61
2, 239872, Note_on_c, 5, 76, 61
2, 239878, Note_off_c, 5, 74, 0
2, 239997, Note_off_c, 5, 76, 0
2, 240000, Note_on_c, 5, 79, 61
2, 240076, Note_off_c, 5, 79, 0
2, 240128, Note_on_c, 5, 77, 61
2, 240204, Note_off_c, 5, 77, 0
2, 240256, Note_on_c, 5, 77, 61
2, 240384, Note_on_c, 5, 79, 61
2, 240390, Note_off_c, 5, 77, 0
2, 240509, Note_off_c, 5, 79, 0
2, 240512, Note_on_c, 5, 82, 61
2, 240588, Note_off_c, 5, 82, 0
2, 240640, Note_on_c, 5, 81, 61
2, 240768, Note_off_c, 5, 81, 0
2, 241280, Note_on_c, 5, 65, 61
2, 241408, Note_on_c, 5, 67, 61
2, 241414, Note_off_c, 5, 65, 0
2, 241533, Note_off_c, 5, 67, 0
2, 241536, Note_on_c, 5, 70, 61
2, 241612, Note_off_c, 5, 70, 0
2, 241664, Note_on_c, 5, 69, 61
2, 241740, Note_off_c, 5, 69, 0
2, 241792, Note_on_c, 5, 74, 61
2, 241920, Note_on_c, 5, 76, 61
2, 241926, Note_off_c, 5, 74, 0
2, 242045, Note_off_c, 5, 76, 0
2, 242048, Note_on_c, 5, 79, 61
2, 242124, Note_off_c, 5, 79, 0
2, 242176, Note_on_c, 5, 77, 61
2, 242252, Note_off_c, 5, 77, 0
2, 242304, Note_on_c, 5, 77, 61
2, 242432, Note_on_c, 5, 79, 61
2, 242438, Note_off_c, 5, 77, 0
2, 242557, Note_off_c, 5, 79, 0
2, 242560, Note_on_c, 5, 82, 61
2, 242636, Note_off_c, 5, 82, 0
2, 242688, Note_on_c, 5, 81, 61
2, 242816, Note_off_c, 5, 81, 0
2, 243328, Note_on_c, 5, 77, 61
2, 243456, Note_on_c, 5, 79, 61
2, 243462, Note_off_c, 5, 77, 0
2, 243581, Note_off_c, 5, 79, 0
2, 243584, Note_on_c, 5, 81, 61
2, 243660, Note_off_c, 5, 81, 0
2, 243712, Note_on_c, 5, 79, 61
2, 243840, Note_off_c, 5, 79, 0
2, 244352, Note_on_c, 5, 78, 61
2, 244480, Note_on_c, 5, 79, 61
2, 244486, Note_off_c, 5, 78, 0
2, 244605, Note_off_c, 5, 79, 0
2, 244608, Note_on_c, 5, 81, 61
2, 244684, Note_off_c, 5, 81, 0
2, 244736, Note_on_c, 5, 79, 61
2, 244864, Note_off_c, 5, 79, 0
2, 245376, Note_on_c, 5, 78, 61
2, 245504, Note_on_c, 5, 79, 61
2, 245510, Note_off_c, 5, 78, 0
2, 245629, Note_off_c, 5, 79, 0
2, 245632, Note_on_c, 5, 81, 61
2, 245708, Note_off_c, 5, 81, 0
2, 245760, Note_on_c, 5, 79, 61
2, 245836, Note_off_c, 5, 79, 0
2, 245888, Note_on_c, 5, 78, 61
2, 246016, Note_on_c, 5, 79, 61
2, 246022, Note_off_c, 5, 78, 0
2, 246141, Note_off_c, 5, 79, 0
2, 246144, Note_on_c, 5, 81, 61
2, 246220, Note_off_c, 5, 81, 0
2, 246272, Note_on_c, 5, 82, 61
2, 246348, Note_off_c, 5, 82, 0
2, 246400, Note_on_c, 5, 81, 61
2, 246528, Note_on_c, 5, 82, 61
2, 246534, Note_off_c, 5, 81, 0
2, 246653, Note_off_c, 5, 82, 0
2, 246656, Note_on_c, 5, 83, 61
2, 246732, Note_off_c, 5, 83, 0
2, 246784, Note_on_c, 5, 84, 61
2, 246860, Note_off_c, 5, 84, 0
2, 246912, Note_on_c, 5, 83, 61
2, 247040, Note_on_c, 5, 84, 61
2, 247046, Note_off_c, 5, 83, 0
2, 247165, Note_off_c, 5, 84, 0
2, 247168, Note_on_c, 5, 86, 61
2, 247244, Note_off_c, 5, 86, 0
2, 247296, Note_on_c, 5, 84, 61
2, 247372, Note_off_c, 5, 84, 0
2, 247424, Note_on_c, 5, 83, 61
2, 247552, Note_on_c, 5, 84, 61
2, 247558, Note_off_c, 5, 83, 0
2, 247677, Note_off_c, 5, 84, 0
2, 247680, Note_on_c, 5, 86, 61
2, 247756, Note_off_c, 5, 86, 0
2, 247808, Note_on_c, 5, 84, 61
2, 247936, Note_on_c, 5, 82, 61
2, 247942, Note_off_c, 5, 84, 0
2, 248064, Note_on_c, 5, 79, 61
2, 248070, Note_off_c, 5, 82, 0
2, 248192, Note_on_c, 5, 76, 61
2, 248198, Note_off_c, 5, 79, 0
2, 248320, Note_on_c, 5, 72, 61
2, 248326, Note_off_c, 5, 76, 0
2, 248448, Note_on_c, 5, 79, 61
2, 248454, Note_off_c, 5, 72, 0
2, 248576, Note_on_c, 5, 76, 61
2, 248582, Note_off_c, 5, 79, 0
2, 248704, Note_on_c, 5, 72, 61
2, 248710, Note_off_c, 5, 76, 0
2, 248829, Note_off_c, 5, 72, 0
2, 248832, Note_on_c, 5, 86, 61
2, 248960, Note_on_c, 5, 84, 61
2, 248966, Note_off_c, 5, 86, 0
2, 249088, Note_on_c, 5, 81, 61
2, 249094, Note_off_c, 5, 84, 0
2, 249216, Note_on_c, 5, 77, 61
2, 249222, Note_off_c, 5, 81, 0
2, 249344, Note_on_c, 5, 72, 61
2, 249350, Note_off_c, 5, 77, 0
2, 249472, Note_on_c, 5, 81, 61
2, 249478, Note_off_c, 5, 72, 0
2, 249600, Note_on_c, 5, 77, 61
2, 249606, Note_off_c, 5, 81, 0
2, 249728, Note_on_c, 5, 72, 61
2, 249734, Note_off_c, 5, 77, 0
2, 249853, Note_off_c, 5, 72, 0
2, 249856, Note_on_c, 5, 60, 61
2, 249984, Note_on_c, 5, 58, 61
2, 249990, Note_off_c, 5, 60, 0
2, 250112, Note_on_c, 5, 60, 61
2, 250118, Note_off_c, 5, 58, 0
2, 250240, Note_on_c, 5, 58, 61
2, 250246, Note_off_c, 5, 60, 0
2, 250368, Note_on_c, 5, 60, 61
2, 250374, Note_off_c, 5, 58, 0
2, 250496, Note_on_c, 5, 58, 61
2, 250502, Note_off_c, 5, 60, 0
2, 250624, Note_on_c, 5, 60, 61
2, 250630, Note_off_c, 5, 58, 0
2, 250752, Note_on_c, 5, 58, 61
2, 250758, Note_off_c, 5, 60, 0
2, 250877, Note_off_c, 5, 58, 0
2, 250880, Note_on_c, 5, 60, 61
2, 251008, Note_on_c, 5, 57, 61
2, 251014, Note_off_c, 5, 60, 0
2, 251136, Note_on_c, 5, 60, 61
2, 251142, Note_off_c, 5, 57, 0
2, 251264, Note_on_c, 5, 57, 61
2, 251270, Note_off_c, 5, 60, 0
2, 251392, Note_on_c, 5, 60, 61
2, 251398, Note_off_c, 5, 57, 0
2, 251520, Note_on_c, 5, 57, 61
2, 251526, Note_off_c, 5, 60, 0
2, 251648, Note_on_c, 5, 60, 61
2, 251654, Note_off_c, 5, 57, 0
2, 251776, Note_on_c, 5, 57, 61
2, 251782, Note_off_c, 5, 60, 0
2, 251901, Note_off_c, 5, 57, 0
2, 251904, Note_on_c, 5, 72, 61
2, 252928, Note_off_c, 5, 72, 0
2, 252928, Note_on_c, 5, 77, 71
2, 253952, Note_off_c, 5, 77, 0
2, 253952, Note_on_c, 5, 76, 75
2, 254208, Note_off_c, 5, 76, 0
2, 254208, Note_on_c, 5, 76, 77
2, 254464, Note_off_c, 5, 76, 0
2, 254464, Note_on_c, 5, 76, 79
2, 254720, Note_on_c, 5, 79, 81
2, 254732, Note_off_c, 5, 76, 0
2, 254848, Note_on_c, 5, 76, 84
2, 254854, Note_off_c, 5, 79, 0
2, 254973, Note_off_c, 5, 76, 0
2, 254976, Note_on_c, 5, 77, 84
2, 255232, Note_off_c, 5, 77, 0
2, 255232, Note_on_c, 5, 77, 84
2, 255488, Note_off_c, 5, 77, 0
2, 255488, Note_on_c, 5, 77, 84
2, 255744, Note_on_c, 5, 81, 84
2, 255756, Note_off_c, 5, 77, 0
2, 255872, Note_on_c, 5, 77, 84
2, 255878, Note_off_c, 5, 81, 0
2, 255997, Note_off_c, 5, 77, 0
2, 256000, Note_on_c, 5, 84, 84
2, 256085, Note_on_c, 5, 86, 84
2, 256089, Note_off_c, 5, 84, 0
2, 256170, Note_on_c, 5, 84, 84
2, 256174, Note_off_c, 5, 86, 0
2, 256256, Note_on_c, 5, 86, 84
2, 256260, Note_off_c, 5, 84, 0
2, 256341, Note_on_c, 5, 84, 84
2, 256345, Note_off_c, 5, 86, 0
2, 256426, Note_on_c, 5, 86, 84
2, 256430, Note_off_c, 5, 84, 0
2, 256512, Note_on_c, 5, 84, 84
2, 256516, Note_off_c, 5, 86, 0
2, 256597, Note_on_c, 5, 86, 84
2, 256601, Note_off_c, 5, 84, 0
2, 256682, Note_on_c, 5, 84, 84
2, 256686, Note_off_c, 5, 86, 0
2, 256768, Note_on_c, 5, 86, 84
2, 256772, Note_off_c, 5, 84, 0
2, 256853, Note_on_c, 5, 84, 84
2, 256857, Note_off_c, 5, 86, 0
2, 256938, Note_on_c, 5, 86, 84
2, 256942, Note_off_c, 5, 84, 0
2, 257022, Note_off_c, 5, 86, 0
2, 257024, Note_on_c, 5, 84, 84
2, 257109, Note_on_c, 5, 86, 84
2, 257113, Note_off_c, 5, 84, 0
2, 257194, Note_on_c, 5, 84, 84
2, 257198, Note_off_c, 5, 86, 0
2, 257280, Note_on_c, 5, 86, 84
2, 257284, Note_off_c, 5, 84, 0
2, 257365, Note_on_c, 5, 84, 84
2, 257369, Note_off_c, 5, 86, 0
2, 257450, Note_on_c, 5, 86, 84
2, 257454, Note_off_c, 5, 84, 0
2, 257536, Note_on_c, 5, 84, 84
2, 257540, Note_off_c, 5, 86, 0
2, 257621, Note_on_c, 5, 86, 84
2, 257625, Note_off_c, 5, 84, 0
2, 257706, Note_on_c, 5, 84, 84
2, 257710, Note_off_c, 5, 86, 0
2, 257792, Note_on_c, 5, 86, 84
2, 257796, Note_off_c, 5, 84, 0
2, 257877, Note_on_c, 5, 84, 84
2, 257881, Note_off_c, 5, 86, 0
2, 257962, Note_on_c, 5, 86, 84
2, 257966, Note_off_c, 5, 84, 0
2, 258046, Note_off_c, 5, 86, 0
2, 258048, Note_on_c, 5, 84, 84
2, 258099, Note_off_c, 5, 84, 0
2, 258112, Note_on_c, 5, 86, 84
2, 258163, Note_off_c, 5, 86, 0
2, 258176, Note_on_c, 5, 84, 84
2, 258227, Note_off_c, 5, 84, 0
2, 258240, Note_on_c, 5, 86, 84
2, 258291, Note_off_c, 5, 86, 0
2, 258304, Note_on_c, 5, 84, 84
2, 258355, Note_off_c, 5, 84, 0
2, 258368, Note_on_c, 5, 86, 84
2, 258419, Note_off_c, 5, 86, 0
2, 258432, Note_on_c, 5, 84, 84
2, 258483, Note_off_c, 5, 84, 0
2, 258496, Note_on_c, 5, 86, 84
2, 258547, Note_off_c, 5, 86, 0
2, 258560, Note_on_c, 5, 84, 84
2, 258611, Note_off_c, 5, 84, 0
2, 258624, Note_on_c, 5, 86, 84
2, 258675, Note_off_c, 5, 86, 0
2, 258688, Note_on_c, 5, 84, 84
2, 258739, Note_off_c, 5, 84, 0
2, 258752, Note_on_c, 5, 86, 84
2, 258803, Note_off_c, 5, 86, 0
2, 258816, Note_on_c, 5, 84, 84
2, 258867, Note_off_c, 5, 84, 0
2, 258880, Note_on_c, 5, 86, 84
2, 258931, Note_off_c, 5, 86, 0
2, 258944, Note_on_c, 5, 84, 84
2, 258995, Note_off_c, 5, 84, 0
2, 259008, Note_on_c, 5, 86, 84
2, 259059, Note_off_c, 5, 86, 0
2, 259072, Note_on_c, 5, 84, 84
2, 259123, Note_off_c, 5, 84, 0
2, 259136, Note_on_c, 5, 86, 84
2, 259187, Note_off_c, 5, 86, 0
2, 259200, Note_on_c, 5, 84, 84
2, 259251, Note_off_c, 5, 84, 0
2, 259264, Note_on_c, 5, 86, 84
2, 259315, Note_off_c, 5, 86, 0
2, 259328, Note_on_c, 5, 84, 84
2, 259379, Note_off_c, 5, 84, 0
2, 259392, Note_on_c, 5, 86, 84
2, 259443, Note_off_c, 5, 86, 0
2, 259456, Note_on_c, 5, 84, 84
2, 259507, Note_off_c, 5, 84, 0
2, 259520, Note_on_c, 5, 86, 84
2, 259571, Note_off_c, 5, 86, 0
2, 259584, Note_on_c, 5, 84, 84
2, 259635, Note_off_c, 5, 84, 0
2, 259648, Note_on_c, 5, 86, 84
2, 259699, Note_off_c, 5, 86, 0
2, 259712, Note_on_c, 5, 84, 84
2, 259763, Note_off_c, 5, 84, 0
2, 259776, Note_on_c, 5, 86, 84
2, 259827, Note_off_c, 5, 86, 0
2, 259840, Note_on_c, 5, 84, 84
2, 259891, Note_off_c, 5, 84, 0
2, 259904, Note_on_c, 5, 86, 84
2, 259955, Note_off_c, 5, 86, 0
2, 259968, Note_on_c, 5, 84, 84
2, 260019, Note_off_c, 5, 84, 0
2, 260032, Note_on_c, 5, 86, 84
2, 260083, Note_off_c, 5, 86, 0
2, 260096, Note_on_c, 5, 84, 84
2, 260147, Note_off_c, 5, 84, 0
2, 260160, Note_on_c, 5, 86, 84
2, 260211, Note_off_c, 5, 86, 0
2, 260224, Note_on_c, 5, 84, 84
2, 260275, Note_off_c, 5, 84, 0
2, 260288, Note_on_c, 5, 86, 84
2, 260339, Note_off_c, 5, 86, 0
2, 260352, Note_on_c, 5, 84, 84
2, 260403, Note_off_c, 5, 84, 0
2, 260416, Note_on_c, 5, 86, 84
2, 260467, Note_off_c, 5, 86, 0
2, 260480, Note_on_c, 5, 84, 84
2, 260531, Note_off_c, 5, 84, 0
2, 260544, Note_on_c, 5, 86, 84
2, 260595, Note_off_c, 5, 86, 0
2, 260608, Note_on_c, 5, 84, 84
2, 260672, Note_on_c, 5, 86, 84
2, 260675, Note_off_c, 5, 84, 0
2, 260736, Note_on_c, 5, 84, 84
2, 260739, Note_off_c, 5, 86, 0
2, 260800, Note_on_c, 5, 86, 84
2, 260803, Note_off_c, 5, 84, 0
2, 260862, Note_off_c, 5, 86, 0
2, 260864, Note_on_c, 5, 72, 84
2, 260928, Note_on_c, 5, 74, 84
2, 260931, Note_off_c, 5, 72, 0
2, 260992, Note_on_c, 5, 72, 84
2, 260995, Note_off_c, 5, 74, 0
2, 261056, Note_on_c, 5, 74, 84
2, 261059, Note_off_c, 5, 72, 0
2, 261118, Note_off_c, 5, 74, 0
2, 261120, Note_on_c, 5, 72, 98
2, 261504, Note_on_c, 5, 74, 98
2, 261523, Note_off_c, 5, 72, 0
2, 261568, Note_on_c, 5, 76, 98
2, 261571, Note_off_c, 5, 74, 0
2, 261630, Note_off_c, 5, 76, 0
2, 261632, Note_on_c, 5, 77, 98
2, 261760, Note_on_c, 5, 76, 98
2, 261766, Note_off_c, 5, 77, 0
2, 261824, Note_on_c, 5, 74, 98
2, 261827, Note_off_c, 5, 76, 0
2, 261888, Note_on_c, 5, 72, 98
2, 261891, Note_off_c, 5, 74, 0
2, 262016, Note_on_c, 5, 74, 98
2, 262022, Note_off_c, 5, 72, 0
2, 262080, Note_on_c, 5, 76, 98
2, 262083, Note_off_c, 5, 74, 0
2, 262142, Note_off_c, 5, 76, 0
2, 262144, Note_on_c, 5, 77, 98
2, 262272, Note_on_c, 5, 76, 98
2, 262278, Note_off_c, 5, 77, 0
2, 262336, Note_on_c, 5, 74, 98
2, 262339, Note_off_c, 5, 76, 0
2, 262400, Note_on_c, 5, 72, 98
2, 262403, Note_off_c, 5, 74, 0
2, 262528, Note_on_c, 5, 74, 98
2, 262534, Note_off_c, 5, 72, 0
2, 262592, Note_on_c, 5, 76, 98
2, 262595, Note_off_c, 5, 74, 0
2, 262654, Note_off_c, 5, 76, 0
2, 262656, Note_on_c, 5, 77, 98
2, 262784, Note_off_c, 5, 77, 0
2, 263168, Note_on_c, 5, 62, 61
2, 263296, Note_on_c, 5, 65, 61
2, 263302, Note_off_c, 5, 62, 0
2, 263424, Note_on_c, 5, 62, 61
2, 263430, Note_off_c, 5, 65, 0
2, 263552, Note_on_c, 5, 65, 61
2, 263558, Note_off_c, 5, 62, 0
2, 263680, Note_on_c, 5, 60, 61
2, 263686, Note_off_c, 5, 65, 0
2, 263808, Note_on_c, 5, 65, 61
2, 263814, Note_off_c, 5, 60, 0
2, 263936, Note_on_c, 5, 60, 61
2, 263942, Note_off_c, 5, 65, 0
2, 264064, Note_on_c, 5, 65, 61
2, 264070, Note_off_c, 5, 60, 0
2, 264192, Note_on_c, 5, 60, 61
2, 264198, Note_off_c, 5, 65, 0
2, 264320, Note_on_c, 5, 64, 61
2, 264326, Note_off_c, 5, 60, 0
2, 264448, Note_on_c, 5, 60, 61
2, 264454, Note_off_c, 5, 64, 0
2, 264576, Note_on_c, 5, 64, 61
2, 264582, Note_off_c, 5, 60, 0
2, 264701, Note_off_c, 5, 64, 0
2, 264704, Note_on_c, 5, 72, 113
2, 265088, Note_on_c, 5, 74, 113
2, 265107, Note_off_c, 5, 72, 0
2, 265152, Note_on_c, 5, 76, 113
2, 265155, Note_off_c, 5, 74, 0
2, 265214, Note_off_c, 5, 76, 0
2, 265216, Note_on_c, 5, 77, 113
2, 265344, Note_on_c, 5, 76, 113
2, 265350, Note_off_c, 5, 77, 0
2, 265408, Note_on_c, 5, 74, 113
2, 265411, Note_off_c, 5, 76, 0
2, 265472, Note_on_c, 5, 72, 113
2, 265475, Note_off_c, 5, 74, 0
2, 265600, Note_on_c, 5, 74, 113
2, 265606, Note_off_c, 5, 72, 0
2, 265664, Note_on_c, 5, 76, 113
2, 265667, Note_off_c, 5, 74, 0
2, 265726, Note_off_c, 5, 76, 0
2, 265728, Note_on_c, 5, 77, 113
2, 265856, Note_on_c, 5, 76, 113
2, 265862, Note_off_c, 5, 77, 0
2, 265920, Note_on_c, 5, 74, 113
2, 265923, Note_off_c, 5, 76, 0
2, 265984, Note_on_c, 5, 72, 113
2, 265987, Note_off_c, 5, 74, 0
2, 266112, Note_on_c, 5, 74, 113
2, 266118, Note_off_c, 5, 72, 0
2, 266176, Note_on_c, 5, 76, 113
2, 266179, Note_off_c, 5, 74, 0
2, 266238, Note_off_c, 5, 76, 0
2, 266240, Note_on_c, 5, 77, 98
2, 266368, Note_off_c, 5, 77, 0
2, 266752, Note_on_c, 5, 62, 61
2, 266880, Note_on_c, 5, 65, 61
2, 266886, Note_off_c, 5, 62, 0
2, 267008, Note_on_c, 5, 62, 61
2, 267014, Note_off_c, 5, 65, 0
2, 267136, Note_on_c, 5, 65, 61
2, 267142, Note_off_c, 5, 62, 0
2, 267264, Note_on_c, 5, 60, 61
2, 267270, Note_off_c, 5, 65, 0
2, 267392, Note_on_c, 5, 65, 61
2, 267398, Note_off_c, 5, 60, 0
2, 267520, Note_on_c, 5, 60, 61
2, 267526, Note_off_c, 5, 65, 0
2, 267648, Note_on_c, 5, 65, 61
2, 267654, Note_off_c, 5, 60, 0
2, 267776, Note_on_c, 5, 60, 61
2, 267782, Note_off_c, 5, 65, 0
2, 267904, Note_on_c, 5, 64, 61
2, 267910, Note_off_c, 5, 60, 0
2, 268032, Note_on_c, 5, 60, 61
2, 268038, Note_off_c, 5, 64, 0
2, 268160, Note_on_c, 5, 64, 61
2, 268166, Note_off_c, 5, 60, 0
2, 268285, Note_off_c, 5, 64, 0
2, 268288, Note_on_c, 5, 60, 61
2, 268416, Note_off_c, 5, 60, 0
2, 268416, Note_on_c, 5, 65, 61
2, 268544, Note_off_c, 5, 65, 0
2, 268544, Note_on_c, 5, 65, 61
2, 268672, Note_off_c, 5, 65, 0
2, 268672, Note_on_c, 5, 65, 61
2, 268800, Note_off_c, 5, 65, 0
2, 268800, Note_on_c, 5, 62, 61
2, 268928, Note_on_c, 5, 65, 61
2, 268934, Note_off_c, 5, 62, 0
2, 269056, Note_on_c, 5, 62, 61
2, 269062, Note_off_c, 5, 65, 0
2, 269184, Note_on_c, 5, 65, 61
2, 269190, Note_off_c, 5, 62, 0
2, 269312, Note_on_c, 5, 60, 61
2, 269318, Note_off_c, 5, 65, 0
2, 269440, Note_on_c, 5, 65, 61
2, 269446, Note_off_c, 5, 60, 0
2, 269568, Note_on_c, 5, 60, 61
2, 269574, Note_off_c, 5, 65, 0
2, 269696, Note_on_c, 5, 65, 61
2, 269702, Note_off_c, 5, 60, 0
2, 269824, Note_on_c, 5, 60, 61
2, 269830, Note_off_c, 5, 65, 0
2, 269952, Note_on_c, 5, 64, 61
2, 269958, Note_off_c, 5, 60, 0
2, 270080, Note_on_c, 5, 60, 61
2, 270086, Note_off_c, 5, 64, 0
2, 270208, Note_on_c, 5, 64, 61
2, 270214, Note_off_c, 5, 60, 0
2, 270333, Note_off_c, 5, 64, 0
2, 270336, Note_on_c, 5, 60, 98
2, 270421, Note_off_c, 5, 60, 0
2, 270421, Note_on_c, 5, 65, 98
2, 270506, Note_off_c, 5, 65, 0
2, 270506, Note_on_c, 5, 77, 98
2, 270592, Note_off_c, 5, 77, 0
2, 270592, Note_on_c, 5, 77, 98
2, 270677, Note_off_c, 5, 77, 0
2, 270677, Note_on_c, 5, 77, 98
2, 270762, Note_off_c, 5, 77, 0
2, 270762, Note_on_c, 5, 77, 98
2, 270848, Note_off_c, 5, 77, 0
2, 270848, Note_on_c, 5, 77, 98
2, 270933, Note_off_c, 5, 77, 0
2, 270933, Note_on_c, 5, 65, 98
2, 271018, Note_off_c, 5, 65, 0
2, 271018, Note_on_c, 5, 77, 98
2, 271104, Note_off_c, 5, 77, 0
2, 271104, Note_on_c, 5, 65, 98
2, 271189, Note_off_c, 5, 65, 0
2, 271189, Note_on_c, 5, 76, 98
2, 271274, Note_off_c, 5, 76, 0
2, 271274, Note_on_c, 5, 74, 98
2, 271360, Note_off_c, 5, 74, 0
2, 271360, Note_on_c, 5, 72, 98
2, 271445, Note_off_c, 5, 72, 0
2, 271445, Note_on_c, 5, 60, 98
2, 271530, Note_off_c, 5, 60, 0
2, 271530, Note_on_c, 5, 72, 98
2, 271616, Note_off_c, 5, 72, 0
2, 271616, Note_on_c, 5, 60, 98
2, 271701, Note_off_c, 5, 60, 0
2, 271701, Note_on_c, 5, 70, 98
2, 271786, Note_off_c, 5, 70, 0
2, 271786, Note_on_c, 5, 69, 98
2, 271872, Note_off_c, 5, 69, 0
2, 271872, Note_on_c, 5, 67, 98
2, 271957, Note_off_c, 5, 67, 0
2, 271957, Note_on_c, 5, 58, 98
2, 272042, Note_off_c, 5, 58, 0
2, 272042, Note_on_c, 5, 67, 98
2, 272128, Note_off_c, 5, 67, 0
2, 272128, Note_on_c, 5, 58, 98
2, 272213, Note_off_c, 5, 58, 0
2, 272213, Note_on_c, 5, 65, 98
2, 272298, Note_off_c, 5, 65, 0
2, 272298, Note_on_c, 5, 67, 98
2, 272384, Note_off_c, 5, 67, 0
2, 272384, Note_on_c, 5, 65, 98
2, 272640, Note_off_c, 5, 65, 0
2, 272768, Note_on_c, 5, 69, 98
2, 272832, Note_on_c, 5, 67, 98
2, 272835, Note_off_c, 5, 69, 0
2, 272896, Note_on_c, 5, 65, 98
2, 272899, Note_off_c, 5, 67, 0
2, 272970, Note_off_c, 5, 65, 0
2, 273024, Note_on_c, 5, 69, 98
2, 273088, Note_on_c, 5, 67, 98
2, 273091, Note_off_c, 5, 69, 0
2, 273152, Note_on_c, 5, 65, 98
2, 273155, Note_off_c, 5, 67, 0
2, 273226, Note_off_c, 5, 65, 0
2, 273280, Note_on_c, 5, 74, 98
2, 273344, Note_on_c, 5, 71, 98
2, 273347, Note_off_c, 5, 74, 0
2, 273408, Note_on_c, 5, 72, 98
2, 273411, Note_off_c, 5, 71, 0
2, 273557, Note_off_c, 5, 72, 0
2, 273792, Note_on_c, 5, 74, 98
2, 273856, Note_on_c, 5, 72, 98
2, 273859, Note_off_c, 5, 74, 0
2, 273920, Note_on_c, 5, 69, 98
2, 273923, Note_off_c, 5, 72, 0
2, 273994, Note_off_c, 5, 69, 0
2, 274048, Note_on_c, 5, 72, 98
2, 274112, Note_on_c, 5, 70, 98
2, 274115, Note_off_c, 5, 72, 0
2, 274176, Note_on_c, 5, 67, 98
2, 274179, Note_off_c, 5, 70, 0
2, 274250, Note_off_c, 5, 67, 0
2, 274304, Note_on_c, 5, 70, 98
2, 274368, Note_on_c, 5, 69, 98
2, 274371, Note_off_c, 5, 70, 0
2, 274432, Note_on_c, 5, 65, 98
2, 274435, Note_off_c, 5, 69, 0
2, 274581, Note_off_c, 5, 65, 0
2, 274816, Note_on_c, 5, 69, 98
2, 274880, Note_on_c, 5, 67, 98
2, 274883, Note_off_c, 5, 69, 0
2, 274944, Note_on_c, 5, 65, 98
2, 274947, Note_off_c, 5, 67, 0
2, 275018, Note_off_c, 5, 65, 0
2, 275072, Note_on_c, 5, 69, 98
2, 275136, Note_on_c, 5, 67, 98
2, 275139, Note_off_c, 5, 69, 0
2, 275200, Note_on_c, 5, 65, 98
2, 275203, Note_off_c, 5, 67, 0
2, 275274, Note_off_c, 5, 65, 0
2, 275328, Note_on_c, 5, 74, 98
2, 275392, Note_on_c, 5, 71, 98
2, 275395, Note_off_c, 5, 74, 0
2, 275456, Note_on_c, 5, 72, 98
2, 275459, Note_off_c, 5, 71, 0
2, 275706, Note_off_c, 5, 72, 0
2, 275840, Note_on_c, 5, 74, 98
2, 275904, Note_on_c, 5, 72, 98
2, 275907, Note_off_c, 5, 74, 0
2, 275968, Note_on_c, 5, 69, 98
2, 275971, Note_off_c, 5, 72, 0
2, 276042, Note_off_c, 5, 69, 0
2, 276096, Note_on_c, 5, 72, 98
2, 276160, Note_on_c, 5, 70, 98
2, 276163, Note_off_c, 5, 72, 0
2, 276224, Note_on_c, 5, 67, 98
2, 276227, Note_off_c, 5, 70, 0
2, 276298, Note_off_c, 5, 67, 0
2, 276352, Note_on_c, 5, 70, 98
2, 276416, Note_on_c, 5, 69, 98
2, 276419, Note_off_c, 5, 70, 0
2, 276480, Note_on_c, 5, 65, 98
2, 276483, Note_off_c, 5, 69, 0
2, 276554, Note_off_c, 5, 65, 0
2, 276608, Note_on_c, 5, 72, 98
2, 276672, Note_on_c, 5, 69, 98
2, 276675, Note_off_c, 5, 72, 0
2, 276736, Note_on_c, 5, 67, 98
2, 276739, Note_off_c, 5, 69, 0
2, 276810, Note_off_c, 5, 67, 0
2, 276864, Note_on_c, 5, 72, 98
2, 276928, Note_on_c, 5, 70, 98
2, 276931, Note_off_c, 5, 72, 0
2, 276992, Note_on_c, 5, 65, 98
2, 276995, Note_off_c, 5, 70, 0
2, 277066, Note_off_c, 5, 65, 0
2, 277120, Note_on_c, 5, 72, 98
2, 277184, Note_on_c, 5, 69, 98
2, 277187, Note_off_c, 5, 72, 0
2, 277248, Note_on_c, 5, 67, 98
2, 277251, Note_off_c, 5, 69, 0
2, 277322, Note_off_c, 5, 67, 0
2, 277376, Note_on_c, 5, 72, 98
2, 277440, Note_on_c, 5, 70, 98
2, 277443, Note_off_c, 5, 72, 0
2, 277504, Note_on_c, 5, 65, 98
2, 277507, Note_off_c, 5, 70, 0
2, 277578, Note_off_c, 5, 65, 0
2, 277632, Note_on_c, 5, 72, 98
2, 277696, Note_on_c, 5, 69, 98
2, 277699, Note_off_c, 5, 72, 0
2, 277760, Note_on_c, 5, 67, 98
2, 277763, Note_off_c, 5, 69, 0
2, 277834, Note_off_c, 5, 67, 0
2, 277888, Note_on_c, 5, 72, 98
2, 277952, Note_on_c, 5, 70, 98
2, 277955, Note_off_c, 5, 72, 0
2, 278016, Note_on_c, 5, 65, 98
2, 278019, Note_off_c, 5, 70, 0
2, 278090, Note_off_c, 5, 65, 0
2, 278144, Note_on_c, 5, 72, 98
2, 278208, Note_on_c, 5, 69, 98
2, 278211, Note_off_c, 5, 72, 0
2, 278272, Note_on_c, 5, 67, 98
2, 278275, Note_off_c, 5, 69, 0
2, 278346, Note_off_c, 5, 67, 0
2, 278400, Note_on_c, 5, 72, 98
2, 278464, Note_on_c, 5, 70, 98
2, 278467, Note_off_c, 5, 72, 0
2, 278526, Note_off_c, 5, 70, 0
2, 278528, Note_on_c, 5, 65, 61
2, 278784, Note_on_c, 5, 60, 61
2, 278796, Note_off_c, 5, 65, 0
2, 279040, Note_on_c, 5, 65, 61
2, 279052, Note_off_c, 5, 60, 0
2, 279296, Note_on_c, 5, 60, 61
2, 279308, Note_off_c, 5, 65, 0
2, 279552, Note_on_c, 5, 65, 61
2, 279564, Note_off_c, 5, 60, 0
2, 279808, Note_on_c, 5, 60, 61
2, 279820, Note_off_c, 5, 65, 0
2, 280064, Note_on_c, 5, 65, 61
2, 280076, Note_off_c, 5, 60, 0
2, 280320, Note_on_c, 5, 60, 61
2, 280332, Note_off_c, 5, 65, 0
2, 280576, Note_on_c, 5, 65, 46
2, 280588, Note_off_c, 5, 60, 0
2, 280650, Note_off_c, 5, 65, 0
2, 282752, Note_on_c, 5, 65, 61
2, 282880, Note_on_c, 5, 67, 61
2, 282886, Note_off_c, 5, 65, 0
2, 283005, Note_off_c, 5, 67, 0
2, 283008, Note_on_c, 5, 70, 61
2, 283084, Note_off_c, 5, 70, 0
2, 283136, Note_on_c, 5, 69, 61
2, 283212, Note_off_c, 5, 69, 0
2, 283264, Note_on_c, 5, 69, 61
2, 283392, Note_on_c, 5, 70, 61
2, 283398, Note_off_c, 5, 69, 0
2, 283517, Note_off_c, 5, 70, 0
2, 283520, Note_on_c, 5, 74, 61
2, 283596, Note_off_c, 5, 74, 0
2, 283648, Note_on_c, 5, 72, 61
2, 283724, Note_off_c, 5, 72, 0
2, 283776, Note_on_c, 5, 72, 61
2, 283904, Note_on_c, 5, 74, 61
2, 283910, Note_off_c, 5, 72, 0
2, 284029, Note_off_c, 5, 74, 0
2, 284032, Note_on_c, 5, 77, 61
2, 284108, Note_off_c, 5, 77, 0
2, 284160, Note_on_c, 5, 75, 61
2, 284236, Note_off_c, 5, 75, 0
2, 284288, Note_on_c, 5, 74, 98
2, 284416, Note_on_c, 5, 75, 98
2, 284422, Note_off_c, 5, 74, 0
2, 284541, Note_off_c, 5, 75, 0
2, 284544, Note_on_c, 5, 79, 98
2, 284620, Note_off_c, 5, 79, 0
2, 285312, Note_on_c, 5, 74, 61
2, 285440, Note_on_c, 5, 75, 61
2, 285446, Note_off_c, 5, 74, 0
2, 285565, Note_off_c, 5, 75, 0
2, 285568, Note_on_c, 5, 79, 61
2, 285644, Note_off_c, 5, 79, 0
2, 286336, Note_on_c, 5, 74, 61
2, 286464, Note_on_c, 5, 75, 61
2, 286470, Note_off_c, 5, 74, 0
2, 286589, Note_off_c, 5, 75, 0
2, 286592, Note_on_c, 5, 77, 61
2, 286668, Note_off_c, 5, 77, 0
2, 286848, Note_on_c, 5, 74, 98
2, 286924, Note_off_c, 5, 74, 0
2, 286976, Note_on_c, 5, 75, 98
2, 287052, Note_off_c, 5, 75, 0
2, 287104, Note_on_c, 5, 79, 98
2, 287180, Note_off_c, 5, 79, 0
2, 287232, Note_on_c, 5, 77, 98
2, 287308, Note_off_c, 5, 77, 0
2, 287360, Note_on_c, 5, 75, 98
2, 287424, Note_on_c, 5, 74, 98
2, 287427, Note_off_c, 5, 75, 0
2, 287486, Note_off_c, 5, 74, 0
2, 287488, Note_on_c, 5, 72, 98
2, 287564, Note_off_c, 5, 72, 0
2, 287616, Note_on_c, 5, 65, 98
2, 287692, Note_off_c, 5, 65, 0
2, 287744, Note_on_c, 5, 70, 98
2, 287820, Note_off_c, 5, 70, 0
2, 287872, Note_on_c, 5, 72, 98
2, 287948, Note_off_c, 5, 72, 0
2, 288000, Note_on_c, 5, 74, 98
2, 288128, Note_on_c, 5, 75, 98
2, 288134, Note_off_c, 5, 74, 0
2, 288192, Note_on_c, 5, 74, 98
2, 288195, Note_off_c, 5, 75, 0
2, 288254, Note_off_c, 5, 74, 0
2, 288256, Note_on_c, 5, 72, 98
2, 288332, Note_off_c, 5, 72, 0
2, 288384, Note_on_c, 5, 74, 98
2, 288460, Note_off_c, 5, 74, 0
2, 288512, Note_on_c, 5, 75, 98
2, 288640, Note_on_c, 5, 77, 98
2, 288646, Note_off_c, 5, 75, 0
2, 288704, Note_on_c, 5, 75, 98
2, 288707, Note_off_c, 5, 77, 0
2, 288766, Note_off_c, 5, 75, 0
2, 288768, Note_on_c, 5, 74, 61
2, 288896, Note_off_c, 5, 74, 0
2, 289280, Note_on_c, 5, 60, 61
2, 289408, Note_off_c, 5, 60, 0
2, 289792, Note_on_c, 5, 58, 61
2, 289877, Note_off_c, 5, 58, 0
2, 289877, Note_on_c, 5, 82, 61
2, 289962, Note_off_c, 5, 82, 0
2, 289962, Note_on_c, 5, 82, 61
2, 290048, Note_off_c, 5, 82, 0
2, 290048, Note_on_c, 5, 82, 61
2, 290901, Note_off_c, 5, 82, 0
2, 290901, Note_on_c, 5, 82, 61
2, 290986, Note_off_c, 5, 82, 0
2, 290986, Note_on_c, 5, 82, 61
2, 291072, Note_off_c, 5, 82, 0
2, 291072, Note_on_c, 5, 82, 61
2, 291925, Note_off_c, 5, 82, 0
2, 291925, Note_on_c, 5, 82, 61
2, 292010, Note_off_c, 5, 82, 0
2, 292010, Note_on_c, 5, 82, 61
2, 292096, Note_off_c, 5, 82, 0
2, 292096, Note_on_c, 5, 82, 61
2, 292949, Note_off_c, 5, 82, 0
2, 292949, Note_on_c, 5, 82, 61
2, 293034, Note_off_c, 5, 82, 0
2, 293034, Note_on_c, 5, 82, 61
2, 293120, Note_off_c, 5, 82, 0
2, 293120, Note_on_c, 5, 82, 61
2, 293973, Note_off_c, 5, 82, 0
2, 293973, Note_on_c, 5, 82, 61
2, 294058, Note_off_c, 5, 82, 0
2, 294058, Note_on_c, 5, 82, 61
2, 294144, Note_off_c, 5, 82, 0
2, 294144, Note_on_c, 5, 82, 61
2, 294485, Note_off_c, 5, 82, 0
2, 294485, Note_on_c, 5, 79, 61
2, 294570, Note_off_c, 5, 79, 0
2, 294570, Note_on_c, 5, 79, 61
2, 294656, Note_off_c, 5, 79, 0
2, 294656, Note_on_c, 5, 79, 61
2, 294997, Note_off_c, 5, 79, 0
2, 294997, Note_on_c, 5, 76, 61
2, 295082, Note_off_c, 5, 76, 0
2, 295082, Note_on_c, 5, 76, 61
2, 295168, Note_off_c, 5, 76, 0
2, 295168, Note_on_c, 5, 76, 61
2, 295509, Note_off_c, 5, 76, 0
2, 295509, Note_on_c, 5, 72, 61
2, 295594, Note_off_c, 5, 72, 0
2, 295594, Note_on_c, 5, 72, 61
2, 295680, Note_off_c, 5, 72, 0
2, 295680, Note_on_c, 5, 72, 61
2, 295936, Note_off_c, 5, 72, 0
2, 295936, Note_on_c, 5, 65, 98
2, 295936, Note_on_c, 5, 69, 98
2, 295936, Note_on_c, 5, 77, 98
2, 296192, Note_off_c, 5, 65, 0
2, 296192, Note_off_c, 5, 69, 0
2, 296277, Note_off_c, 5, 77, 0
2, 296277, Note_on_c, 5, 81, 98
2, 296362, Note_on_c, 5, 79, 98
2, 296366, Note_off_c, 5, 81, 0
2, 296448, Note_on_c, 5, 77, 98
2, 296452, Note_off_c, 5, 79, 0
2, 296533, Note_on_c, 5, 81, 98
2, 296537, Note_off_c, 5, 77, 0
2, 296618, Note_on_c, 5, 79, 98
2, 296622, Note_off_c, 5, 81, 0
2, 296704, Note_on_c, 5, 77, 98
2, 296708, Note_off_c, 5, 79, 0
2, 296789, Note_on_c, 5, 86, 98
2, 296793, Note_off_c, 5, 77, 0
2, 296874, Note_on_c, 5, 83, 98
2, 296878, Note_off_c, 5, 86, 0
2, 296958, Note_off_c, 5, 83, 0
2, 296960, Note_on_c, 5, 84, 98
2, 297301, Note_off_c, 5, 84, 0
2, 297301, Note_on_c, 5, 86, 98
2, 297386, Note_on_c, 5, 84, 98
2, 297390, Note_off_c, 5, 86, 0
2, 297472, Note_on_c, 5, 81, 98
2, 297476, Note_off_c, 5, 84, 0
2, 297557, Note_on_c, 5, 84, 98
2, 297561, Note_off_c, 5, 81, 0
2, 297642, Note_on_c, 5, 82, 98
2, 297646, Note_off_c, 5, 84, 0
2, 297728, Note_on_c, 5, 79, 98
2, 297732, Note_off_c, 5, 82, 0
2, 297813, Note_on_c, 5, 82, 98
2, 297817, Note_off_c, 5, 79, 0
2, 297898, Note_on_c, 5, 81, 98
2, 297902, Note_off_c, 5, 82, 0
2, 297982, Note_off_c, 5, 81, 0
2, 297984, Note_on_c, 5, 77, 98
2, 298325, Note_off_c, 5, 77, 0
2, 298325, Note_on_c, 5, 81, 98
2, 298410, Note_on_c, 5, 79, 98
2, 298414, Note_off_c, 5, 81, 0
2, 298496, Note_on_c, 5, 77, 98
2, 298500, Note_off_c, 5, 79, 0
2, 298581, Note_on_c, 5, 81, 98
2, 298585, Note_off_c, 5, 77, 0
2, 298666, Note_on_c, 5, 79, 98
2, 298670, Note_off_c, 5, 81, 0
2, 298752, Note_on_c, 5, 77, 98
2, 298756, Note_off_c, 5, 79, 0
2, 298837, Note_on_c, 5, 86, 98
2, 298841, Note_off_c, 5, 77, 0
2, 298922, Note_on_c, 5, 83, 98
2, 298926, Note_off_c, 5, 86, 0
2, 299006, Note_off_c, 5, 83, 0
2, 299008, Note_on_c, 5, 84, 98
2, 299349, Note_off_c, 5, 84, 0
2, 299349, Note_on_c, 5, 86, 98
2, 299434, Note_on_c, 5, 84, 98
2, 299438, Note_off_c, 5, 86, 0
2, 299520, Note_on_c, 5, 81, 98
2, 299524, Note_off_c, 5, 84, 0
2, 299605, Note_on_c, 5, 84, 98
2, 299609, Note_off_c, 5, 81, 0
2, 299690, Note_on_c, 5, 82, 98
2, 299694, Note_off_c, 5, 84, 0
2, 299776, Note_on_c, 5, 79, 98
2, 299780, Note_off_c, 5, 82, 0
2, 299861, Note_on_c, 5, 82, 98
2, 299865, Note_off_c, 5, 79, 0
2, 299946, Note_on_c, 5, 81, 98
2, 299950, Note_off_c, 5, 82, 0
2, 300030, Note_off_c, 5, 81, 0
2, 300032, Note_on_c, 5, 77, 98
2, 300373, Note_off_c, 5, 77, 0
2, 300373, Note_on_c, 5, 81, 98
2, 300458, Note_off_c, 5, 81, 0
2, 300458, Note_on_c, 5, 81, 98
2, 300544, Note_off_c, 5, 81, 0
2, 300544, Note_on_c, 5, 81, 98
2, 300885, Note_off_c, 5, 81, 0
2, 300885, Note_on_c, 5, 81, 98
2, 300970, Note_off_c, 5, 81, 0
2, 300970, Note_on_c, 5, 81, 98
2, 301056, Note_off_c, 5, 81, 0
2, 301056, Note_on_c, 5, 84, 98
2, 301397, Note_off_c, 5, 84, 0
2, 301397, Note_on_c, 5, 84, 98
2, 301482, Note_off_c, 5, 84, 0
2, 301482, Note_on_c, 5, 84, 98
2, 301568, Note_off_c, 5, 84, 0
2, 301568, Note_on_c, 5, 79, 98
2, 301909, Note_off_c, 5, 79, 0
2, 301909, Note_on_c, 5, 79, 98
2, 301994, Note_off_c, 5, 79, 0
2, 301994, Note_on_c, 5, 79, 98
2, 302080, Note_off_c, 5, 79, 0
2, 302080, Note_on_c, 5, 81, 98
2, 302421, Note_off_c, 5, 81, 0
2, 302421, Note_on_c, 5, 81, 98
2, 302506, Note_off_c, 5, 81, 0
2, 302506, Note_on_c, 5, 81, 98
2, 302592, Note_off_c, 5, 81, 0
2, 302592, Note_on_c, 5, 81, 98
2, 302933, Note_off_c, 5, 81, 0
2, 302933, Note_on_c, 5, 81, 98
2, 303018, Note_off_c, 5, 81, 0
2, 303018, Note_on_c, 5, 81, 98
2, 303104, Note_off_c, 5, 81, 0
2, 303104, Note_on_c, 5, 84, 98
2, 303445, Note_off_c, 5, 84, 0
2, 303445, Note_on_c, 5, 84, 98
2, 303530, Note_off_c, 5, 84, 0
2, 303530, Note_on_c, 5, 84, 98
2, 303616, Note_off_c, 5, 84, 0
2, 303616, Note_on_c, 5, 79, 98
2, 303957, Note_off_c, 5, 79, 0
2, 303957, Note_on_c, 5, 79, 98
2, 304042, Note_off_c, 5, 79, 0
2, 304042, Note_on_c, 5, 79, 98
2, 304128, Note_off_c, 5, 79, 0
2, 304128, Note_on_c, 5, 81, 98
2, 304469, Note_off_c, 5, 81, 0
2, 304469, Note_on_c, 5, 81, 98
2, 304554, Note_off_c, 5, 81, 0
2, 304554, Note_on_c, 5, 81, 98
2, 304640, Note_off_c, 5, 81, 0
2, 304640, Note_on_c, 5, 81, 98
2, 304981, Note_off_c, 5, 81, 0
2, 304981, Note_on_c, 5, 81, 98
2, 305066, Note_off_c, 5, 81, 0
2, 305066, Note_on_c, 5, 81, 98
2, 305152, Note_off_c, 5, 81, 0
2, 305152, Note_on_c, 5, 84, 113
2, 305493, Note_off_c, 5, 84, 0
2, 305493, Note_on_c, 5, 84, 113
2, 305578, Note_off_c, 5, 84, 0
2, 305578, Note_on_c, 5, 84, 113
2, 305664, Note_off_c, 5, 84, 0
2, 305664, Note_on_c, 5, 84, 113
2, 306005, Note_off_c, 5, 84, 0
2, 306005, Note_on_c, 5, 84, 113
2, 306090, Note_off_c, 5, 84, 0
2, 306090, Note_on_c, 5, 84, 113
2, 306176, Note_off_c, 5, 84, 0
2, 306176, Note_on_c, 5, 84, 113
2, 306517, Note_off_c, 5, 84, 0
2, 306517, Note_on_c, 5, 82, 113
2, 306602, Note_off_c, 5, 82, 0
2, 306602, Note_on_c, 5, 82, 113
2, 306688, Note_off_c, 5, 82, 0
2, 306688, Note_on_c, 5, 82, 113
2, 307029, Note_off_c, 5, 82, 0
2, 307029, Note_on_c, 5, 81, 113
2, 307114, Note_off_c, 5, 81, 0
2, 307114, Note_on_c, 5, 81, 113
2, 307200, Note_off_c, 5, 81, 0
2, 307200, Note_on_c, 5, 81, 113
2, 307541, Note_off_c, 5, 81, 0
2, 307541, Note_on_c, 5, 79, 113
2, 307626, Note_off_c, 5, 79, 0
2, 307626, Note_on_c, 5, 79, 113
2, 307712, Note_off_c, 5, 79, 0
2, 307712, Note_on_c, 5, 79, 113
2, 308053, Note_off_c, 5, 79, 0
2, 308053, Note_on_c, 5, 77, 113
2, 308138, Note_off_c, 5, 77, 0
2, 308138, Note_on_c, 5, 77, 113
2, 308224, Note_off_c, 5, 77, 0
2, 308224, Note_on_c, 5, 77, 113
2, 308565, Note_off_c, 5, 77, 0
2, 308565, Note_on_c, 5, 76, 113
2, 308650, Note_off_c, 5, 76, 0
2, 308650, Note_on_c, 5, 76, 110
2, 308736, Note_off_c, 5, 76, 0
2, 308736, Note_on_c, 5, 76, 106
2, 309077, Note_off_c, 5, 76, 0
2, 309077, Note_on_c, 5, 74, 90
2, 309162, Note_off_c, 5, 74, 0
2, 309162, Note_on_c, 5, 74, 86
2, 309248, Note_off_c, 5, 74, 0
2, 309248, Note_on_c, 5, 74, 82
2, 309589, Note_off_c, 5, 74, 0
2, 309589, Note_on_c, 5, 72, 67
2, 309674, Note_off_c, 5, 72, 0
2, 309674, Note_on_c, 5, 72, 63
2, 309760, Note_off_c, 5, 72, 0
2, 309760, Note_on_c, 5, 72, 59
2, 310101, Note_off_c, 5, 72, 0
2, 310101, Note_on_c, 5, 70, 46
2, 310186, Note_off_c, 5, 70, 0
2, 310186, Note_on_c, 5, 70, 46
2, 310272, Note_off_c, 5, 70, 0
2, 310272, Note_on_c, 5, 70, 46
2, 310784, Note_on_c, 5, 71, 46
2, 310809, Note_off_c, 5, 70, 0
2, 311285, Note_off_c, 5, 71, 0
2, 311296, Note_on_c, 5, 82, 98
2, 311424, Note_on_c, 5, 79, 98
2, 311430, Note_off_c, 5, 82, 0
2, 311488, Note_on_c, 5, 77, 98
2, 311491, Note_off_c, 5, 79, 0
2, 311550, Note_off_c, 5, 77, 0
2, 311552, Note_on_c, 5, 76, 98
2, 311628, Note_off_c, 5, 76, 0
2, 311680, Note_on_c, 5, 72, 98
2, 311756, Note_off_c, 5, 72, 0
2, 311808, Note_on_c, 5, 65, 98
2, 311808, Note_on_c, 5, 72, 98
2, 311808, Note_on_c, 5, 81, 98
2, 311936, Note_off_c, 5, 65, 0
2, 311936, Note_off_c, 5, 72, 0
2, 311936, Note_off_c, 5, 81, 0
2, 312064, Note_on_c, 5, 64, 98
2, 312064, Note_on_c, 5, 72, 98
2, 312064, Note_on_c, 5, 79, 98
2, 312192, Note_off_c, 5, 64, 0
2, 312192, Note_off_c, 5, 72, 0
2, 312192, Note_off_c, 5, 79, 0
2, 312320, Note_on_c, 5, 70, 46
2, 312832, Note_off_c, 5, 70, 0
2, 312832, Note_on_c, 5, 71, 46
2, 313344, Note_off_c, 5, 71, 0
2, 313344, Note_on_c, 5, 82, 98
2, 313472, Note_on_c, 5, 79, 98
2, 313478, Note_off_c, 5, 82, 0
2, 313536, Note_on_c, 5, 77, 98
2, 313539, Note_off_c, 5, 79, 0
2, 313598, Note_off_c, 5, 77, 0
2, 313600, Note_on_c, 5, 76, 98
2, 313676, Note_off_c, 5, 76, 0
2, 313728, Note_on_c, 5, 72, 98
2, 313804, Note_off_c, 5, 72, 0
2, 313856, Note_on_c, 5, 65, 98
2, 313856, Note_on_c, 5, 72, 98
2, 313856, Note_on_c, 5, 81, 98
2, 313984, Note_off_c, 5, 65, 0
2, 313984, Note_off_c, 5, 72, 0
2, 313984, Note_off_c, 5, 81, 0
2, 314112, Note_on_c, 5, 64, 98
2, 314112, Note_on_c, 5, 72, 98
2, 314112, Note_on_c, 5, 79, 98
2, 314240, Note_off_c, 5, 64, 0
2, 314240, Note_off_c, 5, 72, 0
2, 314240, Note_off_c, 5, 79, 0
2, 314368, Note_on_c, 5, 65, 98
2, 314368, Note_on_c, 5, 72, 98
2, 314368, Note_on_c, 5, 77, 98
2, 314496, Note_off_c, 5, 65, 0
2, 314496, Note_off_c, 5, 72, 0
2, 314496, Note_off_c, 5, 77, 0
2, 315904, Note_on_c, 5, 82, 98
2, 316288, Note_off_c, 5, 82, 0
2, 316288, Note_on_c, 5, 82, 98
2, 316416, Note_off_c, 5, 82, 0
2, 316416, Note_on_c, 5, 81, 98
2, 316544, Note_off_c, 5, 81, 0
2, 317952, Note_on_c, 5, 82, 98
2, 318336, Note_off_c, 5, 82, 0
2, 318336, Note_on_c, 5, 82, 98
2, 318464, Note_off_c, 5, 82, 0
2, 318464, Note_on_c, 5, 81, 98
2, 318592, Note_off_c, 5, 81, 0
2, 318976, Note_on_c, 5, 82, 98
2, 319360, Note_off_c, 5, 82, 0
2, 319360, Note_on_c, 5, 82, 98
2, 319488, Note_off_c, 5, 82, 0
2, 319488, Note_on_c, 5, 81, 98
2, 319616, Note_off_c, 5, 81, 0
2, 320000, Note_on_c, 5, 82, 98
2, 320384, Note_off_c, 5, 82, 0
2, 320384, Note_on_c, 5, 82, 98
2, 320512, Note_off_c, 5, 82, 0
2, 320512, Note_on_c, 5, 81, 98
2, 320640, Note_off_c, 5, 81, 0
2, 321024, Note_on_c, 5, 81, 98
2, 321152, Note_off_c, 5, 81, 0
2, 321536, Note_on_c, 5, 81, 98
2, 321664, Note_off_c, 5, 81, 0
2, 322048, Note_on_c, 5, 81, 98
2, 322176, Note_off_c, 5, 81, 0
2, 322560, Note_on_c, 5, 81, 98
2, 322688, Note_off_c, 5, 81, 0
2, 322688, Note_on_c, 5, 69, 61
2, 322764, Note_off_c, 5, 69, 0
2, 322816, Note_on_c, 5, 70, 61
2, 322892, Note_off_c, 5, 70, 0
2, 322944, Note_on_c, 5, 74, 61
2, 323020, Note_off_c, 5, 74, 0
2, 323072, Note_on_c, 5, 72, 61
2, 323200, Note_on_c, 5, 70, 61
2, 323206, Note_off_c, 5, 72, 0
2, 323264, Note_on_c, 5, 69, 61
2, 323267, Note_off_c, 5, 70, 0
2, 323326, Note_off_c, 5, 69, 0
2, 323328, Note_on_c, 5, 67, 61
2, 323404, Note_off_c, 5, 67, 0
2, 323456, Note_on_c, 5, 60, 61
2, 323532, Note_off_c, 5, 60, 0
2, 323584, Note_on_c, 5, 65, 61
2, 323660, Note_off_c, 5, 65, 0
2, 323712, Note_on_c, 5, 67, 61
2, 323788, Note_off_c, 5, 67, 0
2, 323840, Note_on_c, 5, 69, 61
2, 323968, Note_on_c, 5, 70, 61
2, 323974, Note_off_c, 5, 69, 0
2, 324032, Note_on_c, 5, 69, 61
2, 324035, Note_off_c, 5, 70, 0
2, 324094, Note_off_c, 5, 69, 0
2, 324096, Note_on_c, 5, 67, 61
2, 324172, Note_off_c, 5, 67, 0
2, 324224, Note_on_c, 5, 69, 61
2, 324300, Note_off_c, 5, 69, 0
2, 324352, Note_on_c, 5, 70, 61
2, 324480, Note_on_c, 5, 72, 61
2, 324486, Note_off_c, 5, 70, 0
2, 324544, Note_on_c, 5, 70, 61
2, 324547, Note_off_c, 5, 72, 0
2, 324606, Note_off_c, 5, 70, 0
2, 324608, Note_on_c, 5, 69, 61
2, 324684, Note_off_c, 5, 69, 0
2, 324736, Note_on_c, 5, 70, 61
2, 324812, Note_off_c, 5, 70, 0
2, 324864, Note_on_c, 5, 72, 61
2, 324992, Note_on_c, 5, 74, 61
2, 324998, Note_off_c, 5, 72, 0
2, 325056, Note_on_c, 5, 72, 61
2, 325059, Note_off_c, 5, 74, 0
2, 325118, Note_off_c, 5, 72, 0
2, 325120, Note_on_c, 5, 70, 61
2, 325196, Note_off_c, 5, 70, 0
2, 325248, Note_on_c, 5, 72, 61
2, 325324, Note_off_c, 5, 72, 0
2, 325376, Note_on_c, 5, 74, 61
2, 325452, Note_off_c, 5, 74, 0
2, 325504, Note_on_c, 5, 76, 61
2, 325580, Note_off_c, 5, 76, 0
2, 325632, Note_on_c, 5, 77, 61
2, 325760, Note_off_c, 5, 77, 0
2, 329216, Note_on_c, 5, 70, 98
2, 329292, Note_off_c, 5, 70, 0
2, 329344, Note_on_c, 5, 72, 98
2, 329420, Note_off_c, 5, 72, 0
2, 329472, Note_on_c, 5, 74, 98
2, 329548, Note_off_c, 5, 74, 0
2, 329600, Note_on_c, 5, 76, 98
2, 329676, Note_off_c, 5, 76, 0
2, 329728, Note_on_c, 5, 77, 110
2, 330220, Note_on_c, 5, 64, 110
2, 330220, Note_on_c, 5, 72, 110
2, 330240, Note_off_c, 5, 77, 0
2, 330265, Note_on_c, 5, 79, 110
2, 330476, Note_off_c, 5, 64, 0
2, 330476, Note_off_c, 5, 72, 0
2, 330732, Note_on_c, 5, 65, 98
2, 330732, Note_on_c, 5, 72, 98
2, 330777, Note_off_c, 5, 79, 0
2, 330777, Note_on_c, 5, 81, 98
2, 330988, Note_off_c, 5, 65, 0
2, 330988, Note_off_c, 5, 72, 0
2, 331254, Note_on_c, 5, 65, 98
2, 331254, Note_on_c, 5, 72, 98
2, 331284, Note_on_c, 5, 81, 98
2, 331289, Note_off_c, 5, 81, 0
2, 331407, Note_off_c, 5, 65, 0
2, 331407, Note_off_c, 5, 72, 0
2, 331437, Note_off_c, 5, 81, 0
2, 331510, Note_on_c, 5, 65, 98
2, 331510, Note_on_c, 5, 72, 98
2, 331540, Note_on_c, 5, 81, 98
2, 331663, Note_off_c, 5, 65, 0
2, 331663, Note_off_c, 5, 72, 0
2, 331693, Note_off_c, 5, 81, 0
2, 331756, Note_on_c, 5, 65, 98
2, 331756, Note_on_c, 5, 72, 98
2, 331801, Note_on_c, 5, 81, 98
2, 332012, Note_off_c, 5, 65, 0
2, 332012, Note_off_c, 5, 72, 0
2, 332288, Note_on_c, 5, 69, 61
2, 332313, Note_off_c, 5, 81, 0
2, 332800, Note_off_c, 5, 69, 0
2, 332800, Note_on_c, 5, 69, 61
2, 333568, Note_off_c, 5, 69, 0
2, 333569, End_track
0, 0, End_of_file
