2, 0, Note_on_c, 0, 91, 88
2, 480, Note_off_c, 0, 91, 0
3, 480, Note_on_c, 1, 83, 88
3, 960, Note_off_c, 1, 83, 0
4, 960, Note_on_c, 2, 79, 88
4, 1440, Note_off_c, 2, 79, 0
5, 1440, Note_on_c, 3, 71, 88
5, 1920, Note_off_c, 3, 71, 0
6, 1920, Note_on_c, 4, 71, 88
6, 2400, Note_off_c, 4, 71, 0
7, 2400, Note_on_c, 5, 67, 88
7, 2880, Note_off_c, 5, 67, 0
8, 2880, Note_on_c, 6, 55, 88
8, 3360, Note_off_c, 6, 55, 0
9, 3360, Note_on_c, 7, 43, 88
9, 3840, Note_off_c, 7, 43, 0
10, 3840, Note_on_c, 8, 67, 88
10, 4320, Note_off_c, 8, 67, 0
11, 4320, Note_on_c, 10, 60, 88
11, 4800, Note_off_c, 10, 60, 0
12, 4800, Note_on_c, 11, 67, 88
12, 5280, Note_off_c, 11, 67, 0
13, 5280, Note_on_c, 12, 55, 88
13, 5760, Note_off_c, 12, 55, 0
14, 5760, Note_on_c, 13, 43, 88
14, 6240, Note_off_c, 13, 43, 0
15, 6240, Note_on_c, 14, 79, 88
15, 6720, Note_off_c, 14, 79, 0
16, 6720, Note_on_c, 15, 71, 88
16, 7200, Note_off_c, 15, 71, 0
17, 7200, Note_on_c, 16, 62, 88
17, 7680, Note_off_c, 16, 62, 0
18, 7680, Note_on_c, 17, 55, 88
18, 8160, Note_off_c, 17, 55, 0
19, 8160, Note_on_c, 18, 71, 88
19, 8640, Note_off_c, 18, 71, 0
20, 8640, Note_on_c, 19, 62, 88
20, 9120, Note_off_c, 19, 62, 0
21, 9120, Note_on_c, 20, 55, 88
21, 9600, Note_off_c, 20, 55, 0
22, 9600, Note_on_c, 21, 55, 88
22, 10080, Note_off_c, 21, 55, 0
23, 10080, Note_on_c, 22, 50, 88
23, 10560, Note_off_c, 22, 50, 0
24, 10560, Note_on_c, 23, 43, 88
24, 11040, Note_off_c, 23, 43, 0
25, 11040, Note_on_c, 24, 43, 88
25, 11520, Note_off_c, 24, 43, 0
26, 11520, Note_on_c, 25, 31, 88
26, 12000, Note_off_c, 25, 31, 0
